<svg width="38" height="38" viewBox="0 0 38 38" fill="none" xmlns="http://www.w3.org/2000/svg">
<path fill-rule="evenodd" clip-rule="evenodd" d="M8.49253 13.0287H11.0517C11.2444 13.0287 11.4006 12.8724 11.4006 12.6797V11.2063C11.4006 11.0135 11.5569 10.8573 11.7496 10.8573H26.2514C26.4441 10.8573 26.6004 11.0135 26.6004 11.2063V12.6797C26.6004 12.8724 26.7566 13.0287 26.9494 13.0287H29.5085C29.7012 13.0287 29.8574 12.8724 29.8574 12.6797V7.94919C29.8574 7.75647 29.7012 7.60022 29.5085 7.60022H8.49253C8.2998 7.60022 8.14355 7.75647 8.14355 7.94919V12.6797C8.14355 12.8724 8.2998 13.0287 8.49253 13.0287ZM8.49253 24.9713H11.0517C11.2444 24.9713 11.4006 25.1276 11.4006 25.3204V26.7938C11.4006 26.9865 11.5569 27.1427 11.7496 27.1427H26.2514C26.4441 27.1427 26.6004 26.9865 26.6004 26.7938V25.3204C26.6004 25.1276 26.7566 24.9713 26.9494 24.9713H29.5085C29.7012 24.9713 29.8574 25.1276 29.8574 25.3204V30.0508C29.8574 30.2435 29.7012 30.3999 29.5085 30.3999H8.49253C8.2998 30.3999 8.14355 30.2435 8.14355 30.0508V25.3204C8.14355 25.1276 8.2998 24.9713 8.49253 24.9713Z" fill="currentColor"/>
<path opacity="0.6" d="M13.5715 24.4286V17.3478L19.0001 21.1242L13.5715 24.4286Z" fill="currentColor"/>
<path opacity="0.6" d="M24.4286 24.4286V17.3478L19 21.1242L24.4286 24.4286Z" fill="currentColor"/>
<path d="M19.0001 21.1242L13.5715 17.3478L19.0001 13.5714L24.4287 17.3478L19.0001 21.1242Z" fill="currentColor"/>
<path opacity="0.8" d="M24.4287 24.4285H13.5715L19.0001 21.1242L24.4287 24.4285Z" fill="currentColor"/>
</svg>
