<svg width="38" height="38" viewBox="0 0 38 38" fill="none" xmlns="http://www.w3.org/2000/svg">
<path d="M10.8764 6.40249C9.03067 8.3833 8.31037 12.1198 9.1207 15.4062C9.52587 17.0268 9.97605 17.8822 10.4262 17.8822C10.7864 17.8822 11.0115 17.5671 10.9665 17.2069C10.5163 15.3161 10.3362 11.7147 10.6063 10.2291C11.0115 8.11319 12.6772 6.40249 14.3428 6.40249C16.4137 6.40249 20.0152 8.3833 21.996 10.6342C22.9864 11.7597 24.1569 12.7051 24.562 12.7051C26.5878 12.7051 21.8159 7.48293 18.3495 5.90729C17.3591 5.45711 15.5133 5.05194 14.3428 5.05194C12.4521 5.05194 11.9569 5.27703 10.8764 6.40249Z" fill="currentColor"/>
<path d="M18.2145 12.9752C18.0795 13.3353 18.2595 13.9656 18.6197 14.3257C19.2049 14.911 19.34 14.911 19.8802 14.3257C20.3304 13.7405 20.3304 13.4704 19.8802 12.9302C19.1599 12.0748 18.5747 12.0748 18.2145 12.9752Z" fill="currentColor"/>
<path d="M24.3819 14.956C24.3819 15.7213 24.6971 15.8564 26.2277 15.8564C27.6233 15.8564 28.3435 16.1265 29.379 17.1619C30.0993 17.8822 30.6845 18.8276 30.6845 19.2327C30.6845 20.2682 27.5782 29.3619 26.8129 30.5774C26.0926 31.7028 24.8321 31.8829 23.4365 31.1626C22.9413 30.8475 22.2661 30.8475 21.8609 31.0726C21.2757 31.3877 21.3657 31.5678 22.3561 32.2431C24.562 33.6837 27.2631 33.1434 28.3435 31.0726C29.6041 28.5966 32.0351 20.8984 32.0351 19.3678C32.0351 16.4416 29.0638 14.0556 25.4174 14.0556C24.6971 14.0556 24.3819 14.3257 24.3819 14.956Z" fill="currentColor"/>
<path d="M15.2883 16.9818C14.8381 17.9722 14.9282 18.4674 15.7385 20.1331C16.4138 21.5737 16.999 22.1589 17.6293 22.1589C18.4846 22.1589 18.5297 22.1139 17.8544 20.8083C16.954 19.0976 16.954 17.2069 17.8544 17.2069C18.2145 17.2069 18.5297 16.8917 18.5297 16.5316C18.5297 16.0814 18.0795 15.8563 17.1791 15.8563C16.1437 15.8563 15.6935 16.1264 15.2883 16.9818Z" fill="currentColor"/>
<path d="M19.8804 16.3515C19.8804 16.6667 20.2405 17.1619 20.6457 17.477C21.456 18.0622 21.456 18.1073 20.1055 21.3486C19.8804 21.9788 20.0154 22.1589 20.6457 22.1589C22.4014 22.1589 23.797 17.7021 22.4914 16.3966C21.8162 15.7213 19.8804 15.6763 19.8804 16.3515Z" fill="currentColor"/>
<path d="M7.13978 18.4674C6.73462 18.9176 6.14938 19.953 5.87927 20.7183C4.79883 23.8246 8.49034 28.1464 13.4874 29.632C16.7287 30.6224 21.5007 30.3523 21.0955 29.1818C21.0055 28.8666 19.6549 28.6866 17.7641 28.6416C15.2431 28.6416 14.0726 28.3714 12.0468 27.381C7.95011 25.4002 6.10436 21.9338 7.99513 19.863C8.49034 19.3227 8.58037 18.8275 8.31026 18.3323C7.95012 17.7021 7.81506 17.7021 7.13978 18.4674Z" fill="currentColor"/>
<path d="M12.317 18.6475C11.0565 19.908 12.317 22.6091 14.1627 22.6091C15.1982 22.6091 15.1081 22.0239 14.0277 21.0335C13.3974 20.4482 13.2624 20.0431 13.5775 19.7279C14.2077 19.0977 14.1627 18.1073 13.4424 18.1073C13.1273 18.1073 12.6321 18.3324 12.317 18.6475Z" fill="currentColor"/>
<path d="M24.5621 19.2777C24.7872 20.1781 24.6071 20.7634 23.8868 21.5287C22.8964 22.5641 22.8964 22.6091 23.7967 22.6091C24.7872 22.6091 26.6329 20.8534 26.6329 19.863C26.6329 19.0076 25.7325 18.1073 24.9222 18.1073C24.472 18.1073 24.382 18.4224 24.5621 19.2777Z" fill="currentColor"/>
<path d="M15.7386 23.8246C15.2884 23.9146 14.9282 24.2748 14.9282 24.5899C14.9282 24.9951 16.0987 25.1301 19.205 25.1752C22.3112 25.1752 23.4817 25.0401 23.4817 24.6349C23.4817 24.3198 23.0315 23.9597 22.4913 23.7796C21.3208 23.5095 16.909 23.5095 15.7386 23.8246Z" fill="currentColor"/>
</svg>
