<svg xmlns="http://www.w3.org/2000/svg" width="720" height="215" fill="none" viewBox="0 0 720 215"><g clip-path="url(#a)"><path fill="#fff" d="M0 0h720v215H0z"/><g fill="#c1c3c8" clip-path="url(#b)" opacity=".5"><path d="M-11 324a1 1 0 1 1 0 2 1 1 0 0 1 0-2m14 0a1 1 0 1 1 0 2 1 1 0 0 1 0-2m14 0a1 1 0 1 1 0 2 1 1 0 0 1 0-2m14 0a1 1 0 1 1 0 2 1 1 0 0 1 0-2m14 0a1 1 0 1 1 0 2 1 1 0 0 1 0-2m14 0a1 1 0 1 1 0 2 1 1 0 0 1 0-2m14 0a1 1 0 1 1 0 2 1 1 0 0 1 0-2m14 0a1 1 0 1 1 0 2 1 1 0 0 1 0-2m14 0a1 1 0 1 1 0 2 1 1 0 0 1 0-2m14 0a1 1 0 1 1 0 2 1 1 0 0 1 0-2m14 0a1 1 0 1 1 0 2 1 1 0 0 1 0-2m14 0a1 1 0 1 1 0 2 1 1 0 0 1 0-2m14 0a1 1 0 1 1 0 2 1 1 0 0 1 0-2m14 0a1 1 0 1 1 0 2 1 1 0 0 1 0-2m14 0a1 1 0 1 1 0 2 1 1 0 0 1 0-2m14 0a1 1 0 1 1 0 2 1 1 0 0 1 0-2m14 0a1 1 0 1 1 0 2 1 1 0 0 1 0-2m14 0a1 1 0 1 1 0 2 1 1 0 0 1 0-2m14 0a1 1 0 1 1 0 2 1 1 0 0 1 0-2m14 0a1 1 0 1 1 0 2 1 1 0 0 1 0-2m14 0a1 1 0 1 1 0 2 1 1 0 0 1 0-2m14 0a1 1 0 1 1 0 2 1 1 0 0 1 0-2m14 0a1 1 0 1 1 0 2 1 1 0 0 1 0-2m14 0a1 1 0 1 1 0 2 1 1 0 0 1 0-2m14 0a1 1 0 1 1 0 2 1 1 0 0 1 0-2m14 0a1 1 0 1 1 0 2 1 1 0 0 1 0-2m14 0a1 1 0 1 1 0 2 1 1 0 0 1 0-2m14 0a1 1 0 1 1 0 2 1 1 0 0 1 0-2m14 0a1 1 0 1 1 0 2 1 1 0 0 1 0-2m14 0a1 1 0 1 1 0 2 1 1 0 0 1 0-2m14 0a1 1 0 1 1 0 2 1 1 0 0 1 0-2m14 0a1 1 0 1 1 0 2 1 1 0 0 1 0-2m14 0a1 1 0 1 1 0 2 1 1 0 0 1 0-2m14 0a1 1 0 1 1 0 2 1 1 0 0 1 0-2m14 0a1 1 0 1 1 0 2 1 1 0 0 1 0-2m14 0a1 1 0 1 1 0 2 1 1 0 0 1 0-2m14 0a1 1 0 1 1 0 2 1 1 0 0 1 0-2m14 0a1 1 0 1 1 0 2 1 1 0 0 1 0-2m14 0a1 1 0 1 1 0 2 1 1 0 0 1 0-2m14 0a1 1 0 1 1 0 2 1 1 0 0 1 0-2m14 0a1 1 0 1 1 0 2 1 1 0 0 1 0-2m14 0a1 1 0 1 1 0 2 1 1 0 0 1 0-2m14 0a1 1 0 1 1 0 2 1 1 0 0 1 0-2m14 0a1 1 0 1 1 0 2 1 1 0 0 1 0-2m14 0a1 1 0 1 1 0 2 1 1 0 0 1 0-2m14 0a1 1 0 1 1 0 2 1 1 0 0 1 0-2m14 0a1 1 0 1 1 0 2 1 1 0 0 1 0-2m14 0a1 1 0 1 1 0 2 1 1 0 0 1 0-2m14 0a1 1 0 1 1 0 2 1 1 0 0 1 0-2m14 0a1 1 0 1 1 0 2 1 1 0 0 1 0-2m14 0a1 1 0 1 1 0 2 1 1 0 0 1 0-2m14 0a1 1 0 1 1 0 2 1 1 0 0 1 0-2m-714-14a1 1 0 1 1 0 2 1 1 0 0 1 0-2m14 0a1 1 0 1 1 0 2 1 1 0 0 1 0-2m14 0a1 1 0 1 1 0 2 1 1 0 0 1 0-2m14 0a1 1 0 1 1 0 2 1 1 0 0 1 0-2m14 0a1 1 0 1 1 0 2 1 1 0 0 1 0-2m14 0a1 1 0 1 1 0 2 1 1 0 0 1 0-2m14 0a1 1 0 1 1 0 2 1 1 0 0 1 0-2m14 0a1 1 0 1 1 0 2 1 1 0 0 1 0-2m14 0a1 1 0 1 1 0 2 1 1 0 0 1 0-2m14 0a1 1 0 1 1 0 2 1 1 0 0 1 0-2m14 0a1 1 0 1 1 0 2 1 1 0 0 1 0-2m14 0a1 1 0 1 1 0 2 1 1 0 0 1 0-2m14 0a1 1 0 1 1 0 2 1 1 0 0 1 0-2m14 0a1 1 0 1 1 0 2 1 1 0 0 1 0-2m14 0a1 1 0 1 1 0 2 1 1 0 0 1 0-2m14 0a1 1 0 1 1 0 2 1 1 0 0 1 0-2m14 0a1 1 0 1 1 0 2 1 1 0 0 1 0-2m14 0a1 1 0 1 1 0 2 1 1 0 0 1 0-2m14 0a1 1 0 1 1 0 2 1 1 0 0 1 0-2m14 0a1 1 0 1 1 0 2 1 1 0 0 1 0-2m14 0a1 1 0 1 1 0 2 1 1 0 0 1 0-2m14 0a1 1 0 1 1 0 2 1 1 0 0 1 0-2m14 0a1 1 0 1 1 0 2 1 1 0 0 1 0-2m14 0a1 1 0 1 1 0 2 1 1 0 0 1 0-2m14 0a1 1 0 1 1 0 2 1 1 0 0 1 0-2m14 0a1 1 0 1 1 0 2 1 1 0 0 1 0-2m14 0a1 1 0 1 1 0 2 1 1 0 0 1 0-2m14 0a1 1 0 1 1 0 2 1 1 0 0 1 0-2m14 0a1 1 0 1 1 0 2 1 1 0 0 1 0-2m14 0a1 1 0 1 1 0 2 1 1 0 0 1 0-2m14 0a1 1 0 1 1 0 2 1 1 0 0 1 0-2m14 0a1 1 0 1 1 0 2 1 1 0 0 1 0-2m14 0a1 1 0 1 1 0 2 1 1 0 0 1 0-2m14 0a1 1 0 1 1 0 2 1 1 0 0 1 0-2m14 0a1 1 0 1 1 0 2 1 1 0 0 1 0-2m14 0a1 1 0 1 1 0 2 1 1 0 0 1 0-2m14 0a1 1 0 1 1 0 2 1 1 0 0 1 0-2m14 0a1 1 0 1 1 0 2 1 1 0 0 1 0-2m14 0a1 1 0 1 1 0 2 1 1 0 0 1 0-2m14 0a1 1 0 1 1 0 2 1 1 0 0 1 0-2m14 0a1 1 0 1 1 0 2 1 1 0 0 1 0-2m14 0a1 1 0 1 1 0 2 1 1 0 0 1 0-2m14 0a1 1 0 1 1 0 2 1 1 0 0 1 0-2m14 0a1 1 0 1 1 0 2 1 1 0 0 1 0-2m14 0a1 1 0 1 1 0 2 1 1 0 0 1 0-2m14 0a1 1 0 1 1 0 2 1 1 0 0 1 0-2m14 0a1 1 0 1 1 0 2 1 1 0 0 1 0-2m14 0a1 1 0 1 1 0 2 1 1 0 0 1 0-2m14 0a1 1 0 1 1 0 2 1 1 0 0 1 0-2m14 0a1 1 0 1 1 0 2 1 1 0 0 1 0-2m14 0a1 1 0 1 1 0 2 1 1 0 0 1 0-2m14 0a1 1 0 1 1 0 2 1 1 0 0 1 0-2m14 0a1 1 0 1 1 0 2 1 1 0 0 1 0-2m-728-14a1 1 0 1 1 0 2 1 1 0 0 1 0-2m14 0a1 1 0 1 1 0 2 1 1 0 0 1 0-2m14 0a1 1 0 1 1 0 2 1 1 0 0 1 0-2m14 0a1 1 0 1 1 0 2 1 1 0 0 1 0-2m14 0a1 1 0 1 1 0 2 1 1 0 0 1 0-2m14 0a1 1 0 1 1 0 2 1 1 0 0 1 0-2m14 0a1 1 0 1 1 0 2 1 1 0 0 1 0-2m14 0a1 1 0 1 1 0 2 1 1 0 0 1 0-2m14 0a1 1 0 1 1 0 2 1 1 0 0 1 0-2m14 0a1 1 0 1 1 0 2 1 1 0 0 1 0-2m14 0a1 1 0 1 1 0 2 1 1 0 0 1 0-2m14 0a1 1 0 1 1 0 2 1 1 0 0 1 0-2m14 0a1 1 0 1 1 0 2 1 1 0 0 1 0-2m14 0a1 1 0 1 1 0 2 1 1 0 0 1 0-2m14 0a1 1 0 1 1 0 2 1 1 0 0 1 0-2m14 0a1 1 0 1 1 0 2 1 1 0 0 1 0-2m14 0a1 1 0 1 1 0 2 1 1 0 0 1 0-2m14 0a1 1 0 1 1 0 2 1 1 0 0 1 0-2m14 0a1 1 0 1 1 0 2 1 1 0 0 1 0-2m14 0a1 1 0 1 1 0 2 1 1 0 0 1 0-2m14 0a1 1 0 1 1 0 2 1 1 0 0 1 0-2m14 0a1 1 0 1 1 0 2 1 1 0 0 1 0-2m14 0a1 1 0 1 1 0 2 1 1 0 0 1 0-2m14 0a1 1 0 1 1 0 2 1 1 0 0 1 0-2m14 0a1 1 0 1 1 0 2 1 1 0 0 1 0-2m14 0a1 1 0 1 1 0 2 1 1 0 0 1 0-2m14 0a1 1 0 1 1 0 2 1 1 0 0 1 0-2m14 0a1 1 0 1 1 0 2 1 1 0 0 1 0-2m14 0a1 1 0 1 1 0 2 1 1 0 0 1 0-2m14 0a1 1 0 1 1 0 2 1 1 0 0 1 0-2m14 0a1 1 0 1 1 0 2 1 1 0 0 1 0-2m14 0a1 1 0 1 1 0 2 1 1 0 0 1 0-2m14 0a1 1 0 1 1 0 2 1 1 0 0 1 0-2m14 0a1 1 0 1 1 0 2 1 1 0 0 1 0-2m14 0a1 1 0 1 1 0 2 1 1 0 0 1 0-2m14 0a1 1 0 1 1 0 2 1 1 0 0 1 0-2m14 0a1 1 0 1 1 0 2 1 1 0 0 1 0-2m14 0a1 1 0 1 1 0 2 1 1 0 0 1 0-2m14 0a1 1 0 1 1 0 2 1 1 0 0 1 0-2m14 0a1 1 0 1 1 0 2 1 1 0 0 1 0-2m14 0a1 1 0 1 1 0 2 1 1 0 0 1 0-2m14 0a1 1 0 1 1 0 2 1 1 0 0 1 0-2m14 0a1 1 0 1 1 0 2 1 1 0 0 1 0-2m14 0a1 1 0 1 1 0 2 1 1 0 0 1 0-2m14 0a1 1 0 1 1 0 2 1 1 0 0 1 0-2m14 0a1 1 0 1 1 0 2 1 1 0 0 1 0-2m14 0a1 1 0 1 1 0 2 1 1 0 0 1 0-2m14 0a1 1 0 1 1 0 2 1 1 0 0 1 0-2m14 0a1 1 0 1 1 0 2 1 1 0 0 1 0-2m14 0a1 1 0 1 1 0 2 1 1 0 0 1 0-2m14 0a1 1 0 1 1 0 2 1 1 0 0 1 0-2m14 0a1 1 0 1 1 0 2 1 1 0 0 1 0-2m14 0a1 1 0 1 1 0 2 1 1 0 0 1 0-2m-728-14a1 1 0 1 1 0 2 1 1 0 0 1 0-2m14 0a1 1 0 1 1 0 2 1 1 0 0 1 0-2m14 0a1 1 0 1 1 0 2 1 1 0 0 1 0-2m14 0a1 1 0 1 1 0 2 1 1 0 0 1 0-2m14 0a1 1 0 1 1 0 2 1 1 0 0 1 0-2m14 0a1 1 0 1 1 0 2 1 1 0 0 1 0-2m14 0a1 1 0 1 1 0 2 1 1 0 0 1 0-2m14 0a1 1 0 1 1 0 2 1 1 0 0 1 0-2m14 0a1 1 0 1 1 0 2 1 1 0 0 1 0-2m14 0a1 1 0 1 1 0 2 1 1 0 0 1 0-2m14 0a1 1 0 1 1 0 2 1 1 0 0 1 0-2m14 0a1 1 0 1 1 0 2 1 1 0 0 1 0-2m14 0a1 1 0 1 1 0 2 1 1 0 0 1 0-2m14 0a1 1 0 1 1 0 2 1 1 0 0 1 0-2m14 0a1 1 0 1 1 0 2 1 1 0 0 1 0-2m14 0a1 1 0 1 1 0 2 1 1 0 0 1 0-2m14 0a1 1 0 1 1 0 2 1 1 0 0 1 0-2m14 0a1 1 0 1 1 0 2 1 1 0 0 1 0-2m14 0a1 1 0 1 1 0 2 1 1 0 0 1 0-2m14 0a1 1 0 1 1 0 2 1 1 0 0 1 0-2m14 0a1 1 0 1 1 0 2 1 1 0 0 1 0-2m14 0a1 1 0 1 1 0 2 1 1 0 0 1 0-2m14 0a1 1 0 1 1 0 2 1 1 0 0 1 0-2m14 0a1 1 0 1 1 0 2 1 1 0 0 1 0-2m14 0a1 1 0 1 1 0 2 1 1 0 0 1 0-2m14 0a1 1 0 1 1 0 2 1 1 0 0 1 0-2m14 0a1 1 0 1 1 0 2 1 1 0 0 1 0-2m14 0a1 1 0 1 1 0 2 1 1 0 0 1 0-2m14 0a1 1 0 1 1 0 2 1 1 0 0 1 0-2m14 0a1 1 0 1 1 0 2 1 1 0 0 1 0-2m14 0a1 1 0 1 1 0 2 1 1 0 0 1 0-2m14 0a1 1 0 1 1 0 2 1 1 0 0 1 0-2m14 0a1 1 0 1 1 0 2 1 1 0 0 1 0-2m14 0a1 1 0 1 1 0 2 1 1 0 0 1 0-2m14 0a1 1 0 1 1 0 2 1 1 0 0 1 0-2m14 0a1 1 0 1 1 0 2 1 1 0 0 1 0-2m14 0a1 1 0 1 1 0 2 1 1 0 0 1 0-2m14 0a1 1 0 1 1 0 2 1 1 0 0 1 0-2m14 0a1 1 0 1 1 0 2 1 1 0 0 1 0-2m14 0a1 1 0 1 1 0 2 1 1 0 0 1 0-2m14 0a1 1 0 1 1 0 2 1 1 0 0 1 0-2m14 0a1 1 0 1 1 0 2 1 1 0 0 1 0-2m14 0a1 1 0 1 1 0 2 1 1 0 0 1 0-2m14 0a1 1 0 1 1 0 2 1 1 0 0 1 0-2m14 0a1 1 0 1 1 0 2 1 1 0 0 1 0-2m14 0a1 1 0 1 1 0 2 1 1 0 0 1 0-2m14 0a1 1 0 1 1 0 2 1 1 0 0 1 0-2m14 0a1 1 0 1 1 0 2 1 1 0 0 1 0-2m14 0a1 1 0 1 1 0 2 1 1 0 0 1 0-2m14 0a1 1 0 1 1 0 2 1 1 0 0 1 0-2m14 0a1 1 0 1 1 0 2 1 1 0 0 1 0-2m14 0a1 1 0 1 1 0 2 1 1 0 0 1 0-2m14 0a1 1 0 1 1 0 2 1 1 0 0 1 0-2m-728-14a1 1 0 1 1 0 2 1 1 0 0 1 0-2m14 0a1 1 0 1 1 0 2 1 1 0 0 1 0-2m14 0a1 1 0 1 1 0 2 1 1 0 0 1 0-2m14 0a1 1 0 1 1 0 2 1 1 0 0 1 0-2m14 0a1 1 0 1 1 0 2 1 1 0 0 1 0-2m14 0a1 1 0 1 1 0 2 1 1 0 0 1 0-2m14 0a1 1 0 1 1 0 2 1 1 0 0 1 0-2m14 0a1 1 0 1 1 0 2 1 1 0 0 1 0-2m14 0a1 1 0 1 1 0 2 1 1 0 0 1 0-2m14 0a1 1 0 1 1 0 2 1 1 0 0 1 0-2m14 0a1 1 0 1 1 0 2 1 1 0 0 1 0-2m14 0a1 1 0 1 1 0 2 1 1 0 0 1 0-2m14 0a1 1 0 1 1 0 2 1 1 0 0 1 0-2m14 0a1 1 0 1 1 0 2 1 1 0 0 1 0-2m14 0a1 1 0 1 1 0 2 1 1 0 0 1 0-2m14 0a1 1 0 1 1 0 2 1 1 0 0 1 0-2m14 0a1 1 0 1 1 0 2 1 1 0 0 1 0-2m14 0a1 1 0 1 1 0 2 1 1 0 0 1 0-2m14 0a1 1 0 1 1 0 2 1 1 0 0 1 0-2m14 0a1 1 0 1 1 0 2 1 1 0 0 1 0-2m14 0a1 1 0 1 1 0 2 1 1 0 0 1 0-2m14 0a1 1 0 1 1 0 2 1 1 0 0 1 0-2m14 0a1 1 0 1 1 0 2 1 1 0 0 1 0-2m14 0a1 1 0 1 1 0 2 1 1 0 0 1 0-2m14 0a1 1 0 1 1 0 2 1 1 0 0 1 0-2m14 0a1 1 0 1 1 0 2 1 1 0 0 1 0-2m14 0a1 1 0 1 1 0 2 1 1 0 0 1 0-2m14 0a1 1 0 1 1 0 2 1 1 0 0 1 0-2m14 0a1 1 0 1 1 0 2 1 1 0 0 1 0-2m14 0a1 1 0 1 1 0 2 1 1 0 0 1 0-2m14 0a1 1 0 1 1 0 2 1 1 0 0 1 0-2m14 0a1 1 0 1 1 0 2 1 1 0 0 1 0-2m14 0a1 1 0 1 1 0 2 1 1 0 0 1 0-2m14 0a1 1 0 1 1 0 2 1 1 0 0 1 0-2m14 0a1 1 0 1 1 0 2 1 1 0 0 1 0-2m14 0a1 1 0 1 1 0 2 1 1 0 0 1 0-2m14 0a1 1 0 1 1 0 2 1 1 0 0 1 0-2m14 0a1 1 0 1 1 0 2 1 1 0 0 1 0-2m14 0a1 1 0 1 1 0 2 1 1 0 0 1 0-2m14 0a1 1 0 1 1 0 2 1 1 0 0 1 0-2m14 0a1 1 0 1 1 0 2 1 1 0 0 1 0-2m14 0a1 1 0 1 1 0 2 1 1 0 0 1 0-2m14 0a1 1 0 1 1 0 2 1 1 0 0 1 0-2m14 0a1 1 0 1 1 0 2 1 1 0 0 1 0-2m14 0a1 1 0 1 1 0 2 1 1 0 0 1 0-2m14 0a1 1 0 1 1 0 2 1 1 0 0 1 0-2m14 0a1 1 0 1 1 0 2 1 1 0 0 1 0-2m14 0a1 1 0 1 1 0 2 1 1 0 0 1 0-2m14 0a1 1 0 1 1 0 2 1 1 0 0 1 0-2m14 0a1 1 0 1 1 0 2 1 1 0 0 1 0-2m14 0a1 1 0 1 1 0 2 1 1 0 0 1 0-2m14 0a1 1 0 1 1 0 2 1 1 0 0 1 0-2m14 0a1 1 0 1 1 0 2 1 1 0 0 1 0-2m-728-14a1 1 0 1 1 0 2 1 1 0 0 1 0-2m14 0a1 1 0 1 1 0 2 1 1 0 0 1 0-2m14 0a1 1 0 1 1 0 2 1 1 0 0 1 0-2m14 0a1 1 0 1 1 0 2 1 1 0 0 1 0-2m14 0a1 1 0 1 1 0 2 1 1 0 0 1 0-2m14 0a1 1 0 1 1 0 2 1 1 0 0 1 0-2m14 0a1 1 0 1 1 0 2 1 1 0 0 1 0-2m14 0a1 1 0 1 1 0 2 1 1 0 0 1 0-2m14 0a1 1 0 1 1 0 2 1 1 0 0 1 0-2m14 0a1 1 0 1 1 0 2 1 1 0 0 1 0-2m14 0a1 1 0 1 1 0 2 1 1 0 0 1 0-2m14 0a1 1 0 1 1 0 2 1 1 0 0 1 0-2m14 0a1 1 0 1 1 0 2 1 1 0 0 1 0-2m14 0a1 1 0 1 1 0 2 1 1 0 0 1 0-2m14 0a1 1 0 1 1 0 2 1 1 0 0 1 0-2m14 0a1 1 0 1 1 0 2 1 1 0 0 1 0-2m14 0a1 1 0 1 1 0 2 1 1 0 0 1 0-2m14 0a1 1 0 1 1 0 2 1 1 0 0 1 0-2m14 0a1 1 0 1 1 0 2 1 1 0 0 1 0-2m14 0a1 1 0 1 1 0 2 1 1 0 0 1 0-2m14 0a1 1 0 1 1 0 2 1 1 0 0 1 0-2m14 0a1 1 0 1 1 0 2 1 1 0 0 1 0-2m14 0a1 1 0 1 1 0 2 1 1 0 0 1 0-2m14 0a1 1 0 1 1 0 2 1 1 0 0 1 0-2m14 0a1 1 0 1 1 0 2 1 1 0 0 1 0-2m14 0a1 1 0 1 1 0 2 1 1 0 0 1 0-2m14 0a1 1 0 1 1 0 2 1 1 0 0 1 0-2m14 0a1 1 0 1 1 0 2 1 1 0 0 1 0-2m14 0a1 1 0 1 1 0 2 1 1 0 0 1 0-2m14 0a1 1 0 1 1 0 2 1 1 0 0 1 0-2m14 0a1 1 0 1 1 0 2 1 1 0 0 1 0-2m14 0a1 1 0 1 1 0 2 1 1 0 0 1 0-2m14 0a1 1 0 1 1 0 2 1 1 0 0 1 0-2m14 0a1 1 0 1 1 0 2 1 1 0 0 1 0-2m14 0a1 1 0 1 1 0 2 1 1 0 0 1 0-2m14 0a1 1 0 1 1 0 2 1 1 0 0 1 0-2m14 0a1 1 0 1 1 0 2 1 1 0 0 1 0-2m14 0a1 1 0 1 1 0 2 1 1 0 0 1 0-2m14 0a1 1 0 1 1 0 2 1 1 0 0 1 0-2m14 0a1 1 0 1 1 0 2 1 1 0 0 1 0-2m14 0a1 1 0 1 1 0 2 1 1 0 0 1 0-2m14 0a1 1 0 1 1 0 2 1 1 0 0 1 0-2m14 0a1 1 0 1 1 0 2 1 1 0 0 1 0-2m14 0a1 1 0 1 1 0 2 1 1 0 0 1 0-2m14 0a1 1 0 1 1 0 2 1 1 0 0 1 0-2m14 0a1 1 0 1 1 0 2 1 1 0 0 1 0-2m14 0a1 1 0 1 1 0 2 1 1 0 0 1 0-2m14 0a1 1 0 1 1 0 2 1 1 0 0 1 0-2m14 0a1 1 0 1 1 0 2 1 1 0 0 1 0-2m14 0a1 1 0 1 1 0 2 1 1 0 0 1 0-2m14 0a1 1 0 1 1 0 2 1 1 0 0 1 0-2m14 0a1 1 0 1 1 0 2 1 1 0 0 1 0-2m14 0a1 1 0 1 1 0 2 1 1 0 0 1 0-2m-728-14a1 1 0 1 1 0 2 1 1 0 0 1 0-2m14 0a1 1 0 1 1 0 2 1 1 0 0 1 0-2m14 0a1 1 0 1 1 0 2 1 1 0 0 1 0-2m14 0a1 1 0 1 1 0 2 1 1 0 0 1 0-2m14 0a1 1 0 1 1 0 2 1 1 0 0 1 0-2m14 0a1 1 0 1 1 0 2 1 1 0 0 1 0-2m14 0a1 1 0 1 1 0 2 1 1 0 0 1 0-2m14 0a1 1 0 1 1 0 2 1 1 0 0 1 0-2m14 0a1 1 0 1 1 0 2 1 1 0 0 1 0-2m14 0a1 1 0 1 1 0 2 1 1 0 0 1 0-2m14 0a1 1 0 1 1 0 2 1 1 0 0 1 0-2m14 0a1 1 0 1 1 0 2 1 1 0 0 1 0-2m14 0a1 1 0 1 1 0 2 1 1 0 0 1 0-2m14 0a1 1 0 1 1 0 2 1 1 0 0 1 0-2m14 0a1 1 0 1 1 0 2 1 1 0 0 1 0-2m14 0a1 1 0 1 1 0 2 1 1 0 0 1 0-2m14 0a1 1 0 1 1 0 2 1 1 0 0 1 0-2m14 0a1 1 0 1 1 0 2 1 1 0 0 1 0-2m14 0a1 1 0 1 1 0 2 1 1 0 0 1 0-2m14 0a1 1 0 1 1 0 2 1 1 0 0 1 0-2m14 0a1 1 0 1 1 0 2 1 1 0 0 1 0-2m14 0a1 1 0 1 1 0 2 1 1 0 0 1 0-2m14 0a1 1 0 1 1 0 2 1 1 0 0 1 0-2m14 0a1 1 0 1 1 0 2 1 1 0 0 1 0-2m14 0a1 1 0 1 1 0 2 1 1 0 0 1 0-2m14 0a1 1 0 1 1 0 2 1 1 0 0 1 0-2m14 0a1 1 0 1 1 0 2 1 1 0 0 1 0-2m14 0a1 1 0 1 1 0 2 1 1 0 0 1 0-2m14 0a1 1 0 1 1 0 2 1 1 0 0 1 0-2m14 0a1 1 0 1 1 0 2 1 1 0 0 1 0-2m14 0a1 1 0 1 1 0 2 1 1 0 0 1 0-2m14 0a1 1 0 1 1 0 2 1 1 0 0 1 0-2m14 0a1 1 0 1 1 0 2 1 1 0 0 1 0-2m14 0a1 1 0 1 1 0 2 1 1 0 0 1 0-2m14 0a1 1 0 1 1 0 2 1 1 0 0 1 0-2m14 0a1 1 0 1 1 0 2 1 1 0 0 1 0-2m14 0a1 1 0 1 1 0 2 1 1 0 0 1 0-2m14 0a1 1 0 1 1 0 2 1 1 0 0 1 0-2m14 0a1 1 0 1 1 0 2 1 1 0 0 1 0-2m14 0a1 1 0 1 1 0 2 1 1 0 0 1 0-2m14 0a1 1 0 1 1 0 2 1 1 0 0 1 0-2m14 0a1 1 0 1 1 0 2 1 1 0 0 1 0-2m14 0a1 1 0 1 1 0 2 1 1 0 0 1 0-2m14 0a1 1 0 1 1 0 2 1 1 0 0 1 0-2m14 0a1 1 0 1 1 0 2 1 1 0 0 1 0-2m14 0a1 1 0 1 1 0 2 1 1 0 0 1 0-2m14 0a1 1 0 1 1 0 2 1 1 0 0 1 0-2m14 0a1 1 0 1 1 0 2 1 1 0 0 1 0-2m14 0a1 1 0 1 1 0 2 1 1 0 0 1 0-2m14 0a1 1 0 1 1 0 2 1 1 0 0 1 0-2m14 0a1 1 0 1 1 0 2 1 1 0 0 1 0-2m14 0a1 1 0 1 1 0 2 1 1 0 0 1 0-2m14 0a1 1 0 1 1 0 2 1 1 0 0 1 0-2m-728-14a1 1 0 1 1 0 2 1 1 0 0 1 0-2m14 0a1 1 0 1 1 0 2 1 1 0 0 1 0-2m14 0a1 1 0 1 1 0 2 1 1 0 0 1 0-2m14 0a1 1 0 1 1 0 2 1 1 0 0 1 0-2m14 0a1 1 0 1 1 0 2 1 1 0 0 1 0-2m14 0a1 1 0 1 1 0 2 1 1 0 0 1 0-2m14 0a1 1 0 1 1 0 2 1 1 0 0 1 0-2m14 0a1 1 0 1 1 0 2 1 1 0 0 1 0-2m14 0a1 1 0 1 1 0 2 1 1 0 0 1 0-2m14 0a1 1 0 1 1 0 2 1 1 0 0 1 0-2m14 0a1 1 0 1 1 0 2 1 1 0 0 1 0-2m14 0a1 1 0 1 1 0 2 1 1 0 0 1 0-2m14 0a1 1 0 1 1 0 2 1 1 0 0 1 0-2m14 0a1 1 0 1 1 0 2 1 1 0 0 1 0-2m14 0a1 1 0 1 1 0 2 1 1 0 0 1 0-2m14 0a1 1 0 1 1 0 2 1 1 0 0 1 0-2m14 0a1 1 0 1 1 0 2 1 1 0 0 1 0-2m14 0a1 1 0 1 1 0 2 1 1 0 0 1 0-2m14 0a1 1 0 1 1 0 2 1 1 0 0 1 0-2m14 0a1 1 0 1 1 0 2 1 1 0 0 1 0-2m14 0a1 1 0 1 1 0 2 1 1 0 0 1 0-2m14 0a1 1 0 1 1 0 2 1 1 0 0 1 0-2m14 0a1 1 0 1 1 0 2 1 1 0 0 1 0-2m14 0a1 1 0 1 1 0 2 1 1 0 0 1 0-2m14 0a1 1 0 1 1 0 2 1 1 0 0 1 0-2m14 0a1 1 0 1 1 0 2 1 1 0 0 1 0-2m14 0a1 1 0 1 1 0 2 1 1 0 0 1 0-2m14 0a1 1 0 1 1 0 2 1 1 0 0 1 0-2m14 0a1 1 0 1 1 0 2 1 1 0 0 1 0-2m14 0a1 1 0 1 1 0 2 1 1 0 0 1 0-2m14 0a1 1 0 1 1 0 2 1 1 0 0 1 0-2m14 0a1 1 0 1 1 0 2 1 1 0 0 1 0-2m14 0a1 1 0 1 1 0 2 1 1 0 0 1 0-2m14 0a1 1 0 1 1 0 2 1 1 0 0 1 0-2m14 0a1 1 0 1 1 0 2 1 1 0 0 1 0-2m14 0a1 1 0 1 1 0 2 1 1 0 0 1 0-2m14 0a1 1 0 1 1 0 2 1 1 0 0 1 0-2m14 0a1 1 0 1 1 0 2 1 1 0 0 1 0-2m14 0a1 1 0 1 1 0 2 1 1 0 0 1 0-2m14 0a1 1 0 1 1 0 2 1 1 0 0 1 0-2m14 0a1 1 0 1 1 0 2 1 1 0 0 1 0-2m14 0a1 1 0 1 1 0 2 1 1 0 0 1 0-2m14 0a1 1 0 1 1 0 2 1 1 0 0 1 0-2m14 0a1 1 0 1 1 0 2 1 1 0 0 1 0-2m14 0a1 1 0 1 1 0 2 1 1 0 0 1 0-2m14 0a1 1 0 1 1 0 2 1 1 0 0 1 0-2m14 0a1 1 0 1 1 0 2 1 1 0 0 1 0-2m14 0a1 1 0 1 1 0 2 1 1 0 0 1 0-2m14 0a1 1 0 1 1 0 2 1 1 0 0 1 0-2m14 0a1 1 0 1 1 0 2 1 1 0 0 1 0-2m14 0a1 1 0 1 1 0 2 1 1 0 0 1 0-2m14 0a1 1 0 1 1 0 2 1 1 0 0 1 0-2m14 0a1 1 0 1 1 0 2 1 1 0 0 1 0-2m-728-14a1 1 0 1 1 0 2 1 1 0 0 1 0-2m14 0a1 1 0 1 1 0 2 1 1 0 0 1 0-2m14 0a1 1 0 1 1 0 2 1 1 0 0 1 0-2m14 0a1 1 0 1 1 0 2 1 1 0 0 1 0-2m14 0a1 1 0 1 1 0 2 1 1 0 0 1 0-2m14 0a1 1 0 1 1 0 2 1 1 0 0 1 0-2m14 0a1 1 0 1 1 0 2 1 1 0 0 1 0-2m14 0a1 1 0 1 1 0 2 1 1 0 0 1 0-2m14 0a1 1 0 1 1 0 2 1 1 0 0 1 0-2m14 0a1 1 0 1 1 0 2 1 1 0 0 1 0-2m14 0a1 1 0 1 1 0 2 1 1 0 0 1 0-2m14 0a1 1 0 1 1 0 2 1 1 0 0 1 0-2m14 0a1 1 0 1 1 0 2 1 1 0 0 1 0-2m14 0a1 1 0 1 1 0 2 1 1 0 0 1 0-2m14 0a1 1 0 1 1 0 2 1 1 0 0 1 0-2m14 0a1 1 0 1 1 0 2 1 1 0 0 1 0-2m14 0a1 1 0 1 1 0 2 1 1 0 0 1 0-2m14 0a1 1 0 1 1 0 2 1 1 0 0 1 0-2m14 0a1 1 0 1 1 0 2 1 1 0 0 1 0-2m14 0a1 1 0 1 1 0 2 1 1 0 0 1 0-2m14 0a1 1 0 1 1 0 2 1 1 0 0 1 0-2m14 0a1 1 0 1 1 0 2 1 1 0 0 1 0-2m14 0a1 1 0 1 1 0 2 1 1 0 0 1 0-2m14 0a1 1 0 1 1 0 2 1 1 0 0 1 0-2m14 0a1 1 0 1 1 0 2 1 1 0 0 1 0-2m14 0a1 1 0 1 1 0 2 1 1 0 0 1 0-2m14 0a1 1 0 1 1 0 2 1 1 0 0 1 0-2m14 0a1 1 0 1 1 0 2 1 1 0 0 1 0-2m14 0a1 1 0 1 1 0 2 1 1 0 0 1 0-2m14 0a1 1 0 1 1 0 2 1 1 0 0 1 0-2m14 0a1 1 0 1 1 0 2 1 1 0 0 1 0-2m14 0a1 1 0 1 1 0 2 1 1 0 0 1 0-2m14 0a1 1 0 1 1 0 2 1 1 0 0 1 0-2m14 0a1 1 0 1 1 0 2 1 1 0 0 1 0-2m14 0a1 1 0 1 1 0 2 1 1 0 0 1 0-2m14 0a1 1 0 1 1 0 2 1 1 0 0 1 0-2m14 0a1 1 0 1 1 0 2 1 1 0 0 1 0-2m14 0a1 1 0 1 1 0 2 1 1 0 0 1 0-2m14 0a1 1 0 1 1 0 2 1 1 0 0 1 0-2m14 0a1 1 0 1 1 0 2 1 1 0 0 1 0-2m14 0a1 1 0 1 1 0 2 1 1 0 0 1 0-2m14 0a1 1 0 1 1 0 2 1 1 0 0 1 0-2m14 0a1 1 0 1 1 0 2 1 1 0 0 1 0-2m14 0a1 1 0 1 1 0 2 1 1 0 0 1 0-2m14 0a1 1 0 1 1 0 2 1 1 0 0 1 0-2m14 0a1 1 0 1 1 0 2 1 1 0 0 1 0-2m14 0a1 1 0 1 1 0 2 1 1 0 0 1 0-2m14 0a1 1 0 1 1 0 2 1 1 0 0 1 0-2m14 0a1 1 0 1 1 0 2 1 1 0 0 1 0-2m14 0a1 1 0 1 1 0 2 1 1 0 0 1 0-2m14 0a1 1 0 1 1 0 2 1 1 0 0 1 0-2m14 0a1 1 0 1 1 0 2 1 1 0 0 1 0-2m14 0a1 1 0 1 1 0 2 1 1 0 0 1 0-2m-728-14a1 1 0 1 1 0 2 1 1 0 0 1 0-2m14 0a1 1 0 1 1 0 2 1 1 0 0 1 0-2m14 0a1 1 0 1 1 0 2 1 1 0 0 1 0-2m14 0a1 1 0 1 1 0 2 1 1 0 0 1 0-2m14 0a1 1 0 1 1 0 2 1 1 0 0 1 0-2m14 0a1 1 0 1 1 0 2 1 1 0 0 1 0-2m14 0a1 1 0 1 1 0 2 1 1 0 0 1 0-2m14 0a1 1 0 1 1 0 2 1 1 0 0 1 0-2m14 0a1 1 0 1 1 0 2 1 1 0 0 1 0-2m14 0a1 1 0 1 1 0 2 1 1 0 0 1 0-2m14 0a1 1 0 1 1 0 2 1 1 0 0 1 0-2m14 0a1 1 0 1 1 0 2 1 1 0 0 1 0-2m14 0a1 1 0 1 1 0 2 1 1 0 0 1 0-2m14 0a1 1 0 1 1 0 2 1 1 0 0 1 0-2m14 0a1 1 0 1 1 0 2 1 1 0 0 1 0-2m14 0a1 1 0 1 1 0 2 1 1 0 0 1 0-2m14 0a1 1 0 1 1 0 2 1 1 0 0 1 0-2m14 0a1 1 0 1 1 0 2 1 1 0 0 1 0-2m14 0a1 1 0 1 1 0 2 1 1 0 0 1 0-2m14 0a1 1 0 1 1 0 2 1 1 0 0 1 0-2m14 0a1 1 0 1 1 0 2 1 1 0 0 1 0-2m14 0a1 1 0 1 1 0 2 1 1 0 0 1 0-2m14 0a1 1 0 1 1 0 2 1 1 0 0 1 0-2m14 0a1 1 0 1 1 0 2 1 1 0 0 1 0-2m14 0a1 1 0 1 1 0 2 1 1 0 0 1 0-2m14 0a1 1 0 1 1 0 2 1 1 0 0 1 0-2m14 0a1 1 0 1 1 0 2 1 1 0 0 1 0-2m14 0a1 1 0 1 1 0 2 1 1 0 0 1 0-2m14 0a1 1 0 1 1 0 2 1 1 0 0 1 0-2m14 0a1 1 0 1 1 0 2 1 1 0 0 1 0-2m14 0a1 1 0 1 1 0 2 1 1 0 0 1 0-2m14 0a1 1 0 1 1 0 2 1 1 0 0 1 0-2m14 0a1 1 0 1 1 0 2 1 1 0 0 1 0-2m14 0a1 1 0 1 1 0 2 1 1 0 0 1 0-2m14 0a1 1 0 1 1 0 2 1 1 0 0 1 0-2m14 0a1 1 0 1 1 0 2 1 1 0 0 1 0-2m14 0a1 1 0 1 1 0 2 1 1 0 0 1 0-2m14 0a1 1 0 1 1 0 2 1 1 0 0 1 0-2m14 0a1 1 0 1 1 0 2 1 1 0 0 1 0-2m14 0a1 1 0 1 1 0 2 1 1 0 0 1 0-2m14 0a1 1 0 1 1 0 2 1 1 0 0 1 0-2m14 0a1 1 0 1 1 0 2 1 1 0 0 1 0-2m14 0a1 1 0 1 1 0 2 1 1 0 0 1 0-2m14 0a1 1 0 1 1 0 2 1 1 0 0 1 0-2m14 0a1 1 0 1 1 0 2 1 1 0 0 1 0-2m14 0a1 1 0 1 1 0 2 1 1 0 0 1 0-2m14 0a1 1 0 1 1 0 2 1 1 0 0 1 0-2m14 0a1 1 0 1 1 0 2 1 1 0 0 1 0-2m14 0a1 1 0 1 1 0 2 1 1 0 0 1 0-2m14 0a1 1 0 1 1 0 2 1 1 0 0 1 0-2m14 0a1 1 0 1 1 0 2 1 1 0 0 1 0-2m14 0a1 1 0 1 1 0 2 1 1 0 0 1 0-2m14 0a1 1 0 1 1 0 2 1 1 0 0 1 0-2m-728-14a1 1 0 1 1 0 2 1 1 0 0 1 0-2m14 0a1 1 0 1 1 0 2 1 1 0 0 1 0-2m14 0a1 1 0 1 1 0 2 1 1 0 0 1 0-2m14 0a1 1 0 1 1 0 2 1 1 0 0 1 0-2m14 0a1 1 0 1 1 0 2 1 1 0 0 1 0-2m14 0a1 1 0 1 1 0 2 1 1 0 0 1 0-2m14 0a1 1 0 1 1 0 2 1 1 0 0 1 0-2m14 0a1 1 0 1 1 0 2 1 1 0 0 1 0-2m14 0a1 1 0 1 1 0 2 1 1 0 0 1 0-2m14 0a1 1 0 1 1 0 2 1 1 0 0 1 0-2m14 0a1 1 0 1 1 0 2 1 1 0 0 1 0-2m14 0a1 1 0 1 1 0 2 1 1 0 0 1 0-2m14 0a1 1 0 1 1 0 2 1 1 0 0 1 0-2m14 0a1 1 0 1 1 0 2 1 1 0 0 1 0-2m14 0a1 1 0 1 1 0 2 1 1 0 0 1 0-2m14 0a1 1 0 1 1 0 2 1 1 0 0 1 0-2m14 0a1 1 0 1 1 0 2 1 1 0 0 1 0-2m14 0a1 1 0 1 1 0 2 1 1 0 0 1 0-2m14 0a1 1 0 1 1 0 2 1 1 0 0 1 0-2m14 0a1 1 0 1 1 0 2 1 1 0 0 1 0-2m14 0a1 1 0 1 1 0 2 1 1 0 0 1 0-2m14 0a1 1 0 1 1 0 2 1 1 0 0 1 0-2m14 0a1 1 0 1 1 0 2 1 1 0 0 1 0-2m14 0a1 1 0 1 1 0 2 1 1 0 0 1 0-2m14 0a1 1 0 1 1 0 2 1 1 0 0 1 0-2m14 0a1 1 0 1 1 0 2 1 1 0 0 1 0-2m14 0a1 1 0 1 1 0 2 1 1 0 0 1 0-2m14 0a1 1 0 1 1 0 2 1 1 0 0 1 0-2m14 0a1 1 0 1 1 0 2 1 1 0 0 1 0-2m14 0a1 1 0 1 1 0 2 1 1 0 0 1 0-2m14 0a1 1 0 1 1 0 2 1 1 0 0 1 0-2m14 0a1 1 0 1 1 0 2 1 1 0 0 1 0-2m14 0a1 1 0 1 1 0 2 1 1 0 0 1 0-2m14 0a1 1 0 1 1 0 2 1 1 0 0 1 0-2m14 0a1 1 0 1 1 0 2 1 1 0 0 1 0-2m14 0a1 1 0 1 1 0 2 1 1 0 0 1 0-2m14 0a1 1 0 1 1 0 2 1 1 0 0 1 0-2m14 0a1 1 0 1 1 0 2 1 1 0 0 1 0-2m14 0a1 1 0 1 1 0 2 1 1 0 0 1 0-2m14 0a1 1 0 1 1 0 2 1 1 0 0 1 0-2m14 0a1 1 0 1 1 0 2 1 1 0 0 1 0-2m14 0a1 1 0 1 1 0 2 1 1 0 0 1 0-2m14 0a1 1 0 1 1 0 2 1 1 0 0 1 0-2m14 0a1 1 0 1 1 0 2 1 1 0 0 1 0-2m14 0a1 1 0 1 1 0 2 1 1 0 0 1 0-2m14 0a1 1 0 1 1 0 2 1 1 0 0 1 0-2m14 0a1 1 0 1 1 0 2 1 1 0 0 1 0-2m14 0a1 1 0 1 1 0 2 1 1 0 0 1 0-2m14 0a1 1 0 1 1 0 2 1 1 0 0 1 0-2m14 0a1 1 0 1 1 0 2 1 1 0 0 1 0-2m14 0a1 1 0 1 1 0 2 1 1 0 0 1 0-2m14 0a1 1 0 1 1 0 2 1 1 0 0 1 0-2m14 0a1 1 0 1 1 0 2 1 1 0 0 1 0-2m-728-14a1 1 0 1 1 0 2 1 1 0 0 1 0-2m14 0a1 1 0 1 1 0 2 1 1 0 0 1 0-2m14 0a1 1 0 1 1 0 2 1 1 0 0 1 0-2m14 0a1 1 0 1 1 0 2 1 1 0 0 1 0-2m14 0a1 1 0 1 1 0 2 1 1 0 0 1 0-2m14 0a1 1 0 1 1 0 2 1 1 0 0 1 0-2m14 0a1 1 0 1 1 0 2 1 1 0 0 1 0-2m14 0a1 1 0 1 1 0 2 1 1 0 0 1 0-2m14 0a1 1 0 1 1 0 2 1 1 0 0 1 0-2m14 0a1 1 0 1 1 0 2 1 1 0 0 1 0-2m14 0a1 1 0 1 1 0 2 1 1 0 0 1 0-2m14 0a1 1 0 1 1 0 2 1 1 0 0 1 0-2m14 0a1 1 0 1 1 0 2 1 1 0 0 1 0-2m14 0a1 1 0 1 1 0 2 1 1 0 0 1 0-2m14 0a1 1 0 1 1 0 2 1 1 0 0 1 0-2m14 0a1 1 0 1 1 0 2 1 1 0 0 1 0-2m14 0a1 1 0 1 1 0 2 1 1 0 0 1 0-2m14 0a1 1 0 1 1 0 2 1 1 0 0 1 0-2m14 0a1 1 0 1 1 0 2 1 1 0 0 1 0-2m14 0a1 1 0 1 1 0 2 1 1 0 0 1 0-2m14 0a1 1 0 1 1 0 2 1 1 0 0 1 0-2m14 0a1 1 0 1 1 0 2 1 1 0 0 1 0-2m14 0a1 1 0 1 1 0 2 1 1 0 0 1 0-2m14 0a1 1 0 1 1 0 2 1 1 0 0 1 0-2m14 0a1 1 0 1 1 0 2 1 1 0 0 1 0-2m14 0a1 1 0 1 1 0 2 1 1 0 0 1 0-2m14 0a1 1 0 1 1 0 2 1 1 0 0 1 0-2m14 0a1 1 0 1 1 0 2 1 1 0 0 1 0-2m14 0a1 1 0 1 1 0 2 1 1 0 0 1 0-2m14 0a1 1 0 1 1 0 2 1 1 0 0 1 0-2m14 0a1 1 0 1 1 0 2 1 1 0 0 1 0-2m14 0a1 1 0 1 1 0 2 1 1 0 0 1 0-2m14 0a1 1 0 1 1 0 2 1 1 0 0 1 0-2m14 0a1 1 0 1 1 0 2 1 1 0 0 1 0-2m14 0a1 1 0 1 1 0 2 1 1 0 0 1 0-2m14 0a1 1 0 1 1 0 2 1 1 0 0 1 0-2m14 0a1 1 0 1 1 0 2 1 1 0 0 1 0-2m14 0a1 1 0 1 1 0 2 1 1 0 0 1 0-2m14 0a1 1 0 1 1 0 2 1 1 0 0 1 0-2m14 0a1 1 0 1 1 0 2 1 1 0 0 1 0-2m14 0a1 1 0 1 1 0 2 1 1 0 0 1 0-2m14 0a1 1 0 1 1 0 2 1 1 0 0 1 0-2m14 0a1 1 0 1 1 0 2 1 1 0 0 1 0-2m14 0a1 1 0 1 1 0 2 1 1 0 0 1 0-2m14 0a1 1 0 1 1 0 2 1 1 0 0 1 0-2m14 0a1 1 0 1 1 0 2 1 1 0 0 1 0-2m14 0a1 1 0 1 1 0 2 1 1 0 0 1 0-2m14 0a1 1 0 1 1 0 2 1 1 0 0 1 0-2m14 0a1 1 0 1 1 0 2 1 1 0 0 1 0-2m14 0a1 1 0 1 1 0 2 1 1 0 0 1 0-2m14 0a1 1 0 1 1 0 2 1 1 0 0 1 0-2m14 0a1 1 0 1 1 0 2 1 1 0 0 1 0-2m14 0a1 1 0 1 1 0 2 1 1 0 0 1 0-2m-728-14a1 1 0 1 1 0 2 1 1 0 0 1 0-2m14 0a1 1 0 1 1 0 2 1 1 0 0 1 0-2m14 0a1 1 0 1 1 0 2 1 1 0 0 1 0-2m14 0a1 1 0 1 1 0 2 1 1 0 0 1 0-2m14 0a1 1 0 1 1 0 2 1 1 0 0 1 0-2m14 0a1 1 0 1 1 0 2 1 1 0 0 1 0-2m14 0a1 1 0 1 1 0 2 1 1 0 0 1 0-2m14 0a1 1 0 1 1 0 2 1 1 0 0 1 0-2m14 0a1 1 0 1 1 0 2 1 1 0 0 1 0-2m14 0a1 1 0 1 1 0 2 1 1 0 0 1 0-2m14 0a1 1 0 1 1 0 2 1 1 0 0 1 0-2m14 0a1 1 0 1 1 0 2 1 1 0 0 1 0-2m14 0a1 1 0 1 1 0 2 1 1 0 0 1 0-2m14 0a1 1 0 1 1 0 2 1 1 0 0 1 0-2m14 0a1 1 0 1 1 0 2 1 1 0 0 1 0-2m14 0a1 1 0 1 1 0 2 1 1 0 0 1 0-2m14 0a1 1 0 1 1 0 2 1 1 0 0 1 0-2m14 0a1 1 0 1 1 0 2 1 1 0 0 1 0-2m14 0a1 1 0 1 1 0 2 1 1 0 0 1 0-2m14 0a1 1 0 1 1 0 2 1 1 0 0 1 0-2m14 0a1 1 0 1 1 0 2 1 1 0 0 1 0-2m14 0a1 1 0 1 1 0 2 1 1 0 0 1 0-2m14 0a1 1 0 1 1 0 2 1 1 0 0 1 0-2m14 0a1 1 0 1 1 0 2 1 1 0 0 1 0-2m14 0a1 1 0 1 1 0 2 1 1 0 0 1 0-2m14 0a1 1 0 1 1 0 2 1 1 0 0 1 0-2m14 0a1 1 0 1 1 0 2 1 1 0 0 1 0-2m14 0a1 1 0 1 1 0 2 1 1 0 0 1 0-2m14 0a1 1 0 1 1 0 2 1 1 0 0 1 0-2m14 0a1 1 0 1 1 0 2 1 1 0 0 1 0-2m14 0a1 1 0 1 1 0 2 1 1 0 0 1 0-2m14 0a1 1 0 1 1 0 2 1 1 0 0 1 0-2m14 0a1 1 0 1 1 0 2 1 1 0 0 1 0-2m14 0a1 1 0 1 1 0 2 1 1 0 0 1 0-2m14 0a1 1 0 1 1 0 2 1 1 0 0 1 0-2m14 0a1 1 0 1 1 0 2 1 1 0 0 1 0-2m14 0a1 1 0 1 1 0 2 1 1 0 0 1 0-2m14 0a1 1 0 1 1 0 2 1 1 0 0 1 0-2m14 0a1 1 0 1 1 0 2 1 1 0 0 1 0-2m14 0a1 1 0 1 1 0 2 1 1 0 0 1 0-2m14 0a1 1 0 1 1 0 2 1 1 0 0 1 0-2m14 0a1 1 0 1 1 0 2 1 1 0 0 1 0-2m14 0a1 1 0 1 1 0 2 1 1 0 0 1 0-2m14 0a1 1 0 1 1 0 2 1 1 0 0 1 0-2m14 0a1 1 0 1 1 0 2 1 1 0 0 1 0-2m14 0a1 1 0 1 1 0 2 1 1 0 0 1 0-2m14 0a1 1 0 1 1 0 2 1 1 0 0 1 0-2m14 0a1 1 0 1 1 0 2 1 1 0 0 1 0-2m14 0a1 1 0 1 1 0 2 1 1 0 0 1 0-2m14 0a1 1 0 1 1 0 2 1 1 0 0 1 0-2m14 0a1 1 0 1 1 0 2 1 1 0 0 1 0-2m14 0a1 1 0 1 1 0 2 1 1 0 0 1 0-2m14 0a1 1 0 1 1 0 2 1 1 0 0 1 0-2m-728-14a1 1 0 1 1 0 2 1 1 0 0 1 0-2m14 0a1 1 0 1 1 0 2 1 1 0 0 1 0-2m14 0a1 1 0 1 1 0 2 1 1 0 0 1 0-2m14 0a1 1 0 1 1 0 2 1 1 0 0 1 0-2m14 0a1 1 0 1 1 0 2 1 1 0 0 1 0-2m14 0a1 1 0 1 1 0 2 1 1 0 0 1 0-2m14 0a1 1 0 1 1 0 2 1 1 0 0 1 0-2m14 0a1 1 0 1 1 0 2 1 1 0 0 1 0-2m14 0a1 1 0 1 1 0 2 1 1 0 0 1 0-2m14 0a1 1 0 1 1 0 2 1 1 0 0 1 0-2m14 0a1 1 0 1 1 0 2 1 1 0 0 1 0-2m14 0a1 1 0 1 1 0 2 1 1 0 0 1 0-2m14 0a1 1 0 1 1 0 2 1 1 0 0 1 0-2m14 0a1 1 0 1 1 0 2 1 1 0 0 1 0-2m14 0a1 1 0 1 1 0 2 1 1 0 0 1 0-2m14 0a1 1 0 1 1 0 2 1 1 0 0 1 0-2m14 0a1 1 0 1 1 0 2 1 1 0 0 1 0-2m14 0a1 1 0 1 1 0 2 1 1 0 0 1 0-2m14 0a1 1 0 1 1 0 2 1 1 0 0 1 0-2m14 0a1 1 0 1 1 0 2 1 1 0 0 1 0-2m14 0a1 1 0 1 1 0 2 1 1 0 0 1 0-2m14 0a1 1 0 1 1 0 2 1 1 0 0 1 0-2m14 0a1 1 0 1 1 0 2 1 1 0 0 1 0-2m14 0a1 1 0 1 1 0 2 1 1 0 0 1 0-2m14 0a1 1 0 1 1 0 2 1 1 0 0 1 0-2m14 0a1 1 0 1 1 0 2 1 1 0 0 1 0-2m14 0a1 1 0 1 1 0 2 1 1 0 0 1 0-2m14 0a1 1 0 1 1 0 2 1 1 0 0 1 0-2m14 0a1 1 0 1 1 0 2 1 1 0 0 1 0-2m14 0a1 1 0 1 1 0 2 1 1 0 0 1 0-2m14 0a1 1 0 1 1 0 2 1 1 0 0 1 0-2m14 0a1 1 0 1 1 0 2 1 1 0 0 1 0-2m14 0a1 1 0 1 1 0 2 1 1 0 0 1 0-2m14 0a1 1 0 1 1 0 2 1 1 0 0 1 0-2m14 0a1 1 0 1 1 0 2 1 1 0 0 1 0-2m14 0a1 1 0 1 1 0 2 1 1 0 0 1 0-2m14 0a1 1 0 1 1 0 2 1 1 0 0 1 0-2m14 0a1 1 0 1 1 0 2 1 1 0 0 1 0-2m14 0a1 1 0 1 1 0 2 1 1 0 0 1 0-2m14 0a1 1 0 1 1 0 2 1 1 0 0 1 0-2m14 0a1 1 0 1 1 0 2 1 1 0 0 1 0-2m14 0a1 1 0 1 1 0 2 1 1 0 0 1 0-2m14 0a1 1 0 1 1 0 2 1 1 0 0 1 0-2m14 0a1 1 0 1 1 0 2 1 1 0 0 1 0-2m14 0a1 1 0 1 1 0 2 1 1 0 0 1 0-2m14 0a1 1 0 1 1 0 2 1 1 0 0 1 0-2m14 0a1 1 0 1 1 0 2 1 1 0 0 1 0-2m14 0a1 1 0 1 1 0 2 1 1 0 0 1 0-2m14 0a1 1 0 1 1 0 2 1 1 0 0 1 0-2m14 0a1 1 0 1 1 0 2 1 1 0 0 1 0-2m14 0a1 1 0 1 1 0 2 1 1 0 0 1 0-2m14 0a1 1 0 1 1 0 2 1 1 0 0 1 0-2m14 0a1 1 0 1 1 0 2 1 1 0 0 1 0-2m-728-14a1 1 0 1 1 0 2 1 1 0 0 1 0-2m14 0a1 1 0 1 1 0 2 1 1 0 0 1 0-2m14 0a1 1 0 1 1 0 2 1 1 0 0 1 0-2m14 0a1 1 0 1 1 0 2 1 1 0 0 1 0-2m14 0a1 1 0 1 1 0 2 1 1 0 0 1 0-2m14 0a1 1 0 1 1 0 2 1 1 0 0 1 0-2m14 0a1 1 0 1 1 0 2 1 1 0 0 1 0-2m14 0a1 1 0 1 1 0 2 1 1 0 0 1 0-2m14 0a1 1 0 1 1 0 2 1 1 0 0 1 0-2m14 0a1 1 0 1 1 0 2 1 1 0 0 1 0-2m14 0a1 1 0 1 1 0 2 1 1 0 0 1 0-2m14 0a1 1 0 1 1 0 2 1 1 0 0 1 0-2m14 0a1 1 0 1 1 0 2 1 1 0 0 1 0-2m14 0a1 1 0 1 1 0 2 1 1 0 0 1 0-2m14 0a1 1 0 1 1 0 2 1 1 0 0 1 0-2m14 0a1 1 0 1 1 0 2 1 1 0 0 1 0-2m14 0a1 1 0 1 1 0 2 1 1 0 0 1 0-2m14 0a1 1 0 1 1 0 2 1 1 0 0 1 0-2m14 0a1 1 0 1 1 0 2 1 1 0 0 1 0-2m14 0a1 1 0 1 1 0 2 1 1 0 0 1 0-2m14 0a1 1 0 1 1 0 2 1 1 0 0 1 0-2m14 0a1 1 0 1 1 0 2 1 1 0 0 1 0-2m14 0a1 1 0 1 1 0 2 1 1 0 0 1 0-2m14 0a1 1 0 1 1 0 2 1 1 0 0 1 0-2m14 0a1 1 0 1 1 0 2 1 1 0 0 1 0-2m14 0a1 1 0 1 1 0 2 1 1 0 0 1 0-2m14 0a1 1 0 1 1 0 2 1 1 0 0 1 0-2m14 0a1 1 0 1 1 0 2 1 1 0 0 1 0-2m14 0a1 1 0 1 1 0 2 1 1 0 0 1 0-2m14 0a1 1 0 1 1 0 2 1 1 0 0 1 0-2m14 0a1 1 0 1 1 0 2 1 1 0 0 1 0-2m14 0a1 1 0 1 1 0 2 1 1 0 0 1 0-2m14 0a1 1 0 1 1 0 2 1 1 0 0 1 0-2m14 0a1 1 0 1 1 0 2 1 1 0 0 1 0-2m14 0a1 1 0 1 1 0 2 1 1 0 0 1 0-2m14 0a1 1 0 1 1 0 2 1 1 0 0 1 0-2m14 0a1 1 0 1 1 0 2 1 1 0 0 1 0-2m14 0a1 1 0 1 1 0 2 1 1 0 0 1 0-2m14 0a1 1 0 1 1 0 2 1 1 0 0 1 0-2m14 0a1 1 0 1 1 0 2 1 1 0 0 1 0-2m14 0a1 1 0 1 1 0 2 1 1 0 0 1 0-2m14 0a1 1 0 1 1 0 2 1 1 0 0 1 0-2m14 0a1 1 0 1 1 0 2 1 1 0 0 1 0-2m14 0a1 1 0 1 1 0 2 1 1 0 0 1 0-2m14 0a1 1 0 1 1 0 2 1 1 0 0 1 0-2m14 0a1 1 0 1 1 0 2 1 1 0 0 1 0-2m14 0a1 1 0 1 1 0 2 1 1 0 0 1 0-2m14 0a1 1 0 1 1 0 2 1 1 0 0 1 0-2m14 0a1 1 0 1 1 0 2 1 1 0 0 1 0-2m14 0a1 1 0 1 1 0 2 1 1 0 0 1 0-2m14 0a1 1 0 1 1 0 2 1 1 0 0 1 0-2m14 0a1 1 0 1 1 0 2 1 1 0 0 1 0-2m14 0a1 1 0 1 1 0 2 1 1 0 0 1 0-2m-728-14a1 1 0 1 1 0 2 1 1 0 0 1 0-2m14 0a1 1 0 1 1 0 2 1 1 0 0 1 0-2m14 0a1 1 0 1 1 0 2 1 1 0 0 1 0-2m14 0a1 1 0 1 1 0 2 1 1 0 0 1 0-2m14 0a1 1 0 1 1 0 2 1 1 0 0 1 0-2m14 0a1 1 0 1 1 0 2 1 1 0 0 1 0-2m14 0a1 1 0 1 1 0 2 1 1 0 0 1 0-2m14 0a1 1 0 1 1 0 2 1 1 0 0 1 0-2m14 0a1 1 0 1 1 0 2 1 1 0 0 1 0-2m14 0a1 1 0 1 1 0 2 1 1 0 0 1 0-2m14 0a1 1 0 1 1 0 2 1 1 0 0 1 0-2m14 0a1 1 0 1 1 0 2 1 1 0 0 1 0-2m14 0a1 1 0 1 1 0 2 1 1 0 0 1 0-2m14 0a1 1 0 1 1 0 2 1 1 0 0 1 0-2m14 0a1 1 0 1 1 0 2 1 1 0 0 1 0-2m14 0a1 1 0 1 1 0 2 1 1 0 0 1 0-2m14 0a1 1 0 1 1 0 2 1 1 0 0 1 0-2m14 0a1 1 0 1 1 0 2 1 1 0 0 1 0-2m14 0a1 1 0 1 1 0 2 1 1 0 0 1 0-2m14 0a1 1 0 1 1 0 2 1 1 0 0 1 0-2m14 0a1 1 0 1 1 0 2 1 1 0 0 1 0-2m14 0a1 1 0 1 1 0 2 1 1 0 0 1 0-2m14 0a1 1 0 1 1 0 2 1 1 0 0 1 0-2m14 0a1 1 0 1 1 0 2 1 1 0 0 1 0-2m14 0a1 1 0 1 1 0 2 1 1 0 0 1 0-2m14 0a1 1 0 1 1 0 2 1 1 0 0 1 0-2m14 0a1 1 0 1 1 0 2 1 1 0 0 1 0-2m14 0a1 1 0 1 1 0 2 1 1 0 0 1 0-2m14 0a1 1 0 1 1 0 2 1 1 0 0 1 0-2m14 0a1 1 0 1 1 0 2 1 1 0 0 1 0-2m14 0a1 1 0 1 1 0 2 1 1 0 0 1 0-2m14 0a1 1 0 1 1 0 2 1 1 0 0 1 0-2m14 0a1 1 0 1 1 0 2 1 1 0 0 1 0-2m14 0a1 1 0 1 1 0 2 1 1 0 0 1 0-2m14 0a1 1 0 1 1 0 2 1 1 0 0 1 0-2m14 0a1 1 0 1 1 0 2 1 1 0 0 1 0-2m14 0a1 1 0 1 1 0 2 1 1 0 0 1 0-2m14 0a1 1 0 1 1 0 2 1 1 0 0 1 0-2m14 0a1 1 0 1 1 0 2 1 1 0 0 1 0-2m14 0a1 1 0 1 1 0 2 1 1 0 0 1 0-2m14 0a1 1 0 1 1 0 2 1 1 0 0 1 0-2m14 0a1 1 0 1 1 0 2 1 1 0 0 1 0-2m14 0a1 1 0 1 1 0 2 1 1 0 0 1 0-2m14 0a1 1 0 1 1 0 2 1 1 0 0 1 0-2m14 0a1 1 0 1 1 0 2 1 1 0 0 1 0-2m14 0a1 1 0 1 1 0 2 1 1 0 0 1 0-2m14 0a1 1 0 1 1 0 2 1 1 0 0 1 0-2m14 0a1 1 0 1 1 0 2 1 1 0 0 1 0-2m14 0a1 1 0 1 1 0 2 1 1 0 0 1 0-2m14 0a1 1 0 1 1 0 2 1 1 0 0 1 0-2m14 0a1 1 0 1 1 0 2 1 1 0 0 1 0-2m14 0a1 1 0 1 1 0 2 1 1 0 0 1 0-2m14 0a1 1 0 1 1 0 2 1 1 0 0 1 0-2m-728-14a1 1 0 1 1 0 2 1 1 0 0 1 0-2m14 0a1 1 0 1 1 0 2 1 1 0 0 1 0-2m14 0a1 1 0 1 1 0 2 1 1 0 0 1 0-2m14 0a1 1 0 1 1 0 2 1 1 0 0 1 0-2m14 0a1 1 0 1 1 0 2 1 1 0 0 1 0-2m14 0a1 1 0 1 1 0 2 1 1 0 0 1 0-2m14 0a1 1 0 1 1 0 2 1 1 0 0 1 0-2m14 0a1 1 0 1 1 0 2 1 1 0 0 1 0-2m14 0a1 1 0 1 1 0 2 1 1 0 0 1 0-2m14 0a1 1 0 1 1 0 2 1 1 0 0 1 0-2m14 0a1 1 0 1 1 0 2 1 1 0 0 1 0-2m14 0a1 1 0 1 1 0 2 1 1 0 0 1 0-2m14 0a1 1 0 1 1 0 2 1 1 0 0 1 0-2m14 0a1 1 0 1 1 0 2 1 1 0 0 1 0-2m14 0a1 1 0 1 1 0 2 1 1 0 0 1 0-2m14 0a1 1 0 1 1 0 2 1 1 0 0 1 0-2m14 0a1 1 0 1 1 0 2 1 1 0 0 1 0-2m14 0a1 1 0 1 1 0 2 1 1 0 0 1 0-2m14 0a1 1 0 1 1 0 2 1 1 0 0 1 0-2m14 0a1 1 0 1 1 0 2 1 1 0 0 1 0-2m14 0a1 1 0 1 1 0 2 1 1 0 0 1 0-2m14 0a1 1 0 1 1 0 2 1 1 0 0 1 0-2m14 0a1 1 0 1 1 0 2 1 1 0 0 1 0-2m14 0a1 1 0 1 1 0 2 1 1 0 0 1 0-2m14 0a1 1 0 1 1 0 2 1 1 0 0 1 0-2m14 0a1 1 0 1 1 0 2 1 1 0 0 1 0-2m14 0a1 1 0 1 1 0 2 1 1 0 0 1 0-2m14 0a1 1 0 1 1 0 2 1 1 0 0 1 0-2m14 0a1 1 0 1 1 0 2 1 1 0 0 1 0-2m14 0a1 1 0 1 1 0 2 1 1 0 0 1 0-2m14 0a1 1 0 1 1 0 2 1 1 0 0 1 0-2m14 0a1 1 0 1 1 0 2 1 1 0 0 1 0-2m14 0a1 1 0 1 1 0 2 1 1 0 0 1 0-2m14 0a1 1 0 1 1 0 2 1 1 0 0 1 0-2m14 0a1 1 0 1 1 0 2 1 1 0 0 1 0-2m14 0a1 1 0 1 1 0 2 1 1 0 0 1 0-2m14 0a1 1 0 1 1 0 2 1 1 0 0 1 0-2m14 0a1 1 0 1 1 0 2 1 1 0 0 1 0-2m14 0a1 1 0 1 1 0 2 1 1 0 0 1 0-2m14 0a1 1 0 1 1 0 2 1 1 0 0 1 0-2m14 0a1 1 0 1 1 0 2 1 1 0 0 1 0-2m14 0a1 1 0 1 1 0 2 1 1 0 0 1 0-2m14 0a1 1 0 1 1 0 2 1 1 0 0 1 0-2m14 0a1 1 0 1 1 0 2 1 1 0 0 1 0-2m14 0a1 1 0 1 1 0 2 1 1 0 0 1 0-2m14 0a1 1 0 1 1 0 2 1 1 0 0 1 0-2m14 0a1 1 0 1 1 0 2 1 1 0 0 1 0-2m14 0a1 1 0 1 1 0 2 1 1 0 0 1 0-2m14 0a1 1 0 1 1 0 2 1 1 0 0 1 0-2m14 0a1 1 0 1 1 0 2 1 1 0 0 1 0-2m14 0a1 1 0 1 1 0 2 1 1 0 0 1 0-2m14 0a1 1 0 1 1 0 2 1 1 0 0 1 0-2m14 0a1 1 0 1 1 0 2 1 1 0 0 1 0-2M-11 86a1 1 0 1 1 0 2 1 1 0 0 1 0-2m14 0a1 1 0 1 1 0 2 1 1 0 0 1 0-2m14 0a1 1 0 1 1 0 2 1 1 0 0 1 0-2m14 0a1 1 0 1 1 0 2 1 1 0 0 1 0-2m14 0a1 1 0 1 1 0 2 1 1 0 0 1 0-2m14 0a1 1 0 1 1 0 2 1 1 0 0 1 0-2m14 0a1 1 0 1 1 0 2 1 1 0 0 1 0-2m14 0a1 1 0 1 1 0 2 1 1 0 0 1 0-2m14 0a1 1 0 1 1 0 2 1 1 0 0 1 0-2m14 0a1 1 0 1 1 0 2 1 1 0 0 1 0-2m14 0a1 1 0 1 1 0 2 1 1 0 0 1 0-2m14 0a1 1 0 1 1 0 2 1 1 0 0 1 0-2m14 0a1 1 0 1 1 0 2 1 1 0 0 1 0-2m14 0a1 1 0 1 1 0 2 1 1 0 0 1 0-2m14 0a1 1 0 1 1 0 2 1 1 0 0 1 0-2m14 0a1 1 0 1 1 0 2 1 1 0 0 1 0-2m14 0a1 1 0 1 1 0 2 1 1 0 0 1 0-2m14 0a1 1 0 1 1 0 2 1 1 0 0 1 0-2m14 0a1 1 0 1 1 0 2 1 1 0 0 1 0-2m14 0a1 1 0 1 1 0 2 1 1 0 0 1 0-2m14 0a1 1 0 1 1 0 2 1 1 0 0 1 0-2m14 0a1 1 0 1 1 0 2 1 1 0 0 1 0-2m14 0a1 1 0 1 1 0 2 1 1 0 0 1 0-2m14 0a1 1 0 1 1 0 2 1 1 0 0 1 0-2m14 0a1 1 0 1 1 0 2 1 1 0 0 1 0-2m14 0a1 1 0 1 1 0 2 1 1 0 0 1 0-2m14 0a1 1 0 1 1 0 2 1 1 0 0 1 0-2m14 0a1 1 0 1 1 0 2 1 1 0 0 1 0-2m14 0a1 1 0 1 1 0 2 1 1 0 0 1 0-2m14 0a1 1 0 1 1 0 2 1 1 0 0 1 0-2m14 0a1 1 0 1 1 0 2 1 1 0 0 1 0-2m14 0a1 1 0 1 1 0 2 1 1 0 0 1 0-2m14 0a1 1 0 1 1 0 2 1 1 0 0 1 0-2m14 0a1 1 0 1 1 0 2 1 1 0 0 1 0-2m14 0a1 1 0 1 1 0 2 1 1 0 0 1 0-2m14 0a1 1 0 1 1 0 2 1 1 0 0 1 0-2m14 0a1 1 0 1 1 0 2 1 1 0 0 1 0-2m14 0a1 1 0 1 1 0 2 1 1 0 0 1 0-2m14 0a1 1 0 1 1 0 2 1 1 0 0 1 0-2m14 0a1 1 0 1 1 0 2 1 1 0 0 1 0-2m14 0a1 1 0 1 1 0 2 1 1 0 0 1 0-2m14 0a1 1 0 1 1 0 2 1 1 0 0 1 0-2m14 0a1 1 0 1 1 0 2 1 1 0 0 1 0-2m14 0a1 1 0 1 1 0 2 1 1 0 0 1 0-2m14 0a1 1 0 1 1 0 2 1 1 0 0 1 0-2m14 0a1 1 0 1 1 0 2 1 1 0 0 1 0-2m14 0a1 1 0 1 1 0 2 1 1 0 0 1 0-2m14 0a1 1 0 1 1 0 2 1 1 0 0 1 0-2m14 0a1 1 0 1 1 0 2 1 1 0 0 1 0-2m14 0a1 1 0 1 1 0 2 1 1 0 0 1 0-2m14 0a1 1 0 1 1 0 2 1 1 0 0 1 0-2m14 0a1 1 0 1 1 0 2 1 1 0 0 1 0-2m14 0a1 1 0 1 1 0 2 1 1 0 0 1 0-2M-11 72a1 1 0 1 1 0 2 1 1 0 0 1 0-2m14 0a1 1 0 1 1 0 2 1 1 0 0 1 0-2m14 0a1 1 0 1 1 0 2 1 1 0 0 1 0-2m14 0a1 1 0 1 1 0 2 1 1 0 0 1 0-2m14 0a1 1 0 1 1 0 2 1 1 0 0 1 0-2m14 0a1 1 0 1 1 0 2 1 1 0 0 1 0-2m14 0a1 1 0 1 1 0 2 1 1 0 0 1 0-2m14 0a1 1 0 1 1 0 2 1 1 0 0 1 0-2m14 0a1 1 0 1 1 0 2 1 1 0 0 1 0-2m14 0a1 1 0 1 1 0 2 1 1 0 0 1 0-2m14 0a1 1 0 1 1 0 2 1 1 0 0 1 0-2m14 0a1 1 0 1 1 0 2 1 1 0 0 1 0-2m14 0a1 1 0 1 1 0 2 1 1 0 0 1 0-2m14 0a1 1 0 1 1 0 2 1 1 0 0 1 0-2m14 0a1 1 0 1 1 0 2 1 1 0 0 1 0-2m14 0a1 1 0 1 1 0 2 1 1 0 0 1 0-2m14 0a1 1 0 1 1 0 2 1 1 0 0 1 0-2m14 0a1 1 0 1 1 0 2 1 1 0 0 1 0-2m14 0a1 1 0 1 1 0 2 1 1 0 0 1 0-2m14 0a1 1 0 1 1 0 2 1 1 0 0 1 0-2m14 0a1 1 0 1 1 0 2 1 1 0 0 1 0-2m14 0a1 1 0 1 1 0 2 1 1 0 0 1 0-2m14 0a1 1 0 1 1 0 2 1 1 0 0 1 0-2m14 0a1 1 0 1 1 0 2 1 1 0 0 1 0-2m14 0a1 1 0 1 1 0 2 1 1 0 0 1 0-2m14 0a1 1 0 1 1 0 2 1 1 0 0 1 0-2m14 0a1 1 0 1 1 0 2 1 1 0 0 1 0-2m14 0a1 1 0 1 1 0 2 1 1 0 0 1 0-2m14 0a1 1 0 1 1 0 2 1 1 0 0 1 0-2m14 0a1 1 0 1 1 0 2 1 1 0 0 1 0-2m14 0a1 1 0 1 1 0 2 1 1 0 0 1 0-2m14 0a1 1 0 1 1 0 2 1 1 0 0 1 0-2m14 0a1 1 0 1 1 0 2 1 1 0 0 1 0-2m14 0a1 1 0 1 1 0 2 1 1 0 0 1 0-2m14 0a1 1 0 1 1 0 2 1 1 0 0 1 0-2m14 0a1 1 0 1 1 0 2 1 1 0 0 1 0-2m14 0a1 1 0 1 1 0 2 1 1 0 0 1 0-2m14 0a1 1 0 1 1 0 2 1 1 0 0 1 0-2m14 0a1 1 0 1 1 0 2 1 1 0 0 1 0-2m14 0a1 1 0 1 1 0 2 1 1 0 0 1 0-2m14 0a1 1 0 1 1 0 2 1 1 0 0 1 0-2m14 0a1 1 0 1 1 0 2 1 1 0 0 1 0-2m14 0a1 1 0 1 1 0 2 1 1 0 0 1 0-2m14 0a1 1 0 1 1 0 2 1 1 0 0 1 0-2m14 0a1 1 0 1 1 0 2 1 1 0 0 1 0-2m14 0a1 1 0 1 1 0 2 1 1 0 0 1 0-2m14 0a1 1 0 1 1 0 2 1 1 0 0 1 0-2m14 0a1 1 0 1 1 0 2 1 1 0 0 1 0-2m14 0a1 1 0 1 1 0 2 1 1 0 0 1 0-2m14 0a1 1 0 1 1 0 2 1 1 0 0 1 0-2m14 0a1 1 0 1 1 0 2 1 1 0 0 1 0-2m14 0a1 1 0 1 1 0 2 1 1 0 0 1 0-2m14 0a1 1 0 1 1 0 2 1 1 0 0 1 0-2M-11 58a1 1 0 1 1 0 2 1 1 0 0 1 0-2m14 0a1 1 0 1 1 0 2 1 1 0 0 1 0-2m14 0a1 1 0 1 1 0 2 1 1 0 0 1 0-2m14 0a1 1 0 1 1 0 2 1 1 0 0 1 0-2m14 0a1 1 0 1 1 0 2 1 1 0 0 1 0-2m14 0a1 1 0 1 1 0 2 1 1 0 0 1 0-2m14 0a1 1 0 1 1 0 2 1 1 0 0 1 0-2m14 0a1 1 0 1 1 0 2 1 1 0 0 1 0-2m14 0a1 1 0 1 1 0 2 1 1 0 0 1 0-2m14 0a1 1 0 1 1 0 2 1 1 0 0 1 0-2m14 0a1 1 0 1 1 0 2 1 1 0 0 1 0-2m14 0a1 1 0 1 1 0 2 1 1 0 0 1 0-2m14 0a1 1 0 1 1 0 2 1 1 0 0 1 0-2m14 0a1 1 0 1 1 0 2 1 1 0 0 1 0-2m14 0a1 1 0 1 1 0 2 1 1 0 0 1 0-2m14 0a1 1 0 1 1 0 2 1 1 0 0 1 0-2m14 0a1 1 0 1 1 0 2 1 1 0 0 1 0-2m14 0a1 1 0 1 1 0 2 1 1 0 0 1 0-2m14 0a1 1 0 1 1 0 2 1 1 0 0 1 0-2m14 0a1 1 0 1 1 0 2 1 1 0 0 1 0-2m14 0a1 1 0 1 1 0 2 1 1 0 0 1 0-2m14 0a1 1 0 1 1 0 2 1 1 0 0 1 0-2m14 0a1 1 0 1 1 0 2 1 1 0 0 1 0-2m14 0a1 1 0 1 1 0 2 1 1 0 0 1 0-2m14 0a1 1 0 1 1 0 2 1 1 0 0 1 0-2m14 0a1 1 0 1 1 0 2 1 1 0 0 1 0-2m14 0a1 1 0 1 1 0 2 1 1 0 0 1 0-2m14 0a1 1 0 1 1 0 2 1 1 0 0 1 0-2m14 0a1 1 0 1 1 0 2 1 1 0 0 1 0-2m14 0a1 1 0 1 1 0 2 1 1 0 0 1 0-2m14 0a1 1 0 1 1 0 2 1 1 0 0 1 0-2m14 0a1 1 0 1 1 0 2 1 1 0 0 1 0-2m14 0a1 1 0 1 1 0 2 1 1 0 0 1 0-2m14 0a1 1 0 1 1 0 2 1 1 0 0 1 0-2m14 0a1 1 0 1 1 0 2 1 1 0 0 1 0-2m14 0a1 1 0 1 1 0 2 1 1 0 0 1 0-2m14 0a1 1 0 1 1 0 2 1 1 0 0 1 0-2m14 0a1 1 0 1 1 0 2 1 1 0 0 1 0-2m14 0a1 1 0 1 1 0 2 1 1 0 0 1 0-2m14 0a1 1 0 1 1 0 2 1 1 0 0 1 0-2m14 0a1 1 0 1 1 0 2 1 1 0 0 1 0-2m14 0a1 1 0 1 1 0 2 1 1 0 0 1 0-2m14 0a1 1 0 1 1 0 2 1 1 0 0 1 0-2m14 0a1 1 0 1 1 0 2 1 1 0 0 1 0-2m14 0a1 1 0 1 1 0 2 1 1 0 0 1 0-2m14 0a1 1 0 1 1 0 2 1 1 0 0 1 0-2m14 0a1 1 0 1 1 0 2 1 1 0 0 1 0-2m14 0a1 1 0 1 1 0 2 1 1 0 0 1 0-2m14 0a1 1 0 1 1 0 2 1 1 0 0 1 0-2m14 0a1 1 0 1 1 0 2 1 1 0 0 1 0-2m14 0a1 1 0 1 1 0 2 1 1 0 0 1 0-2m14 0a1 1 0 1 1 0 2 1 1 0 0 1 0-2m14 0a1 1 0 1 1 0 2 1 1 0 0 1 0-2M-11 44a1 1 0 1 1 0 2 1 1 0 0 1 0-2m14 0a1 1 0 1 1 0 2 1 1 0 0 1 0-2m14 0a1 1 0 1 1 0 2 1 1 0 0 1 0-2m14 0a1 1 0 1 1 0 2 1 1 0 0 1 0-2m14 0a1 1 0 1 1 0 2 1 1 0 0 1 0-2m14 0a1 1 0 1 1 0 2 1 1 0 0 1 0-2m14 0a1 1 0 1 1 0 2 1 1 0 0 1 0-2m14 0a1 1 0 1 1 0 2 1 1 0 0 1 0-2m14 0a1 1 0 1 1 0 2 1 1 0 0 1 0-2m14 0a1 1 0 1 1 0 2 1 1 0 0 1 0-2m14 0a1 1 0 1 1 0 2 1 1 0 0 1 0-2m14 0a1 1 0 1 1 0 2 1 1 0 0 1 0-2m14 0a1 1 0 1 1 0 2 1 1 0 0 1 0-2m14 0a1 1 0 1 1 0 2 1 1 0 0 1 0-2m14 0a1 1 0 1 1 0 2 1 1 0 0 1 0-2m14 0a1 1 0 1 1 0 2 1 1 0 0 1 0-2m14 0a1 1 0 1 1 0 2 1 1 0 0 1 0-2m14 0a1 1 0 1 1 0 2 1 1 0 0 1 0-2m14 0a1 1 0 1 1 0 2 1 1 0 0 1 0-2m14 0a1 1 0 1 1 0 2 1 1 0 0 1 0-2m14 0a1 1 0 1 1 0 2 1 1 0 0 1 0-2m14 0a1 1 0 1 1 0 2 1 1 0 0 1 0-2m14 0a1 1 0 1 1 0 2 1 1 0 0 1 0-2m14 0a1 1 0 1 1 0 2 1 1 0 0 1 0-2m14 0a1 1 0 1 1 0 2 1 1 0 0 1 0-2m14 0a1 1 0 1 1 0 2 1 1 0 0 1 0-2m14 0a1 1 0 1 1 0 2 1 1 0 0 1 0-2m14 0a1 1 0 1 1 0 2 1 1 0 0 1 0-2m14 0a1 1 0 1 1 0 2 1 1 0 0 1 0-2m14 0a1 1 0 1 1 0 2 1 1 0 0 1 0-2m14 0a1 1 0 1 1 0 2 1 1 0 0 1 0-2m14 0a1 1 0 1 1 0 2 1 1 0 0 1 0-2m14 0a1 1 0 1 1 0 2 1 1 0 0 1 0-2m14 0a1 1 0 1 1 0 2 1 1 0 0 1 0-2m14 0a1 1 0 1 1 0 2 1 1 0 0 1 0-2m14 0a1 1 0 1 1 0 2 1 1 0 0 1 0-2m14 0a1 1 0 1 1 0 2 1 1 0 0 1 0-2m14 0a1 1 0 1 1 0 2 1 1 0 0 1 0-2m14 0a1 1 0 1 1 0 2 1 1 0 0 1 0-2m14 0a1 1 0 1 1 0 2 1 1 0 0 1 0-2m14 0a1 1 0 1 1 0 2 1 1 0 0 1 0-2m14 0a1 1 0 1 1 0 2 1 1 0 0 1 0-2m14 0a1 1 0 1 1 0 2 1 1 0 0 1 0-2m14 0a1 1 0 1 1 0 2 1 1 0 0 1 0-2m14 0a1 1 0 1 1 0 2 1 1 0 0 1 0-2m14 0a1 1 0 1 1 0 2 1 1 0 0 1 0-2m14 0a1 1 0 1 1 0 2 1 1 0 0 1 0-2m14 0a1 1 0 1 1 0 2 1 1 0 0 1 0-2m14 0a1 1 0 1 1 0 2 1 1 0 0 1 0-2m14 0a1 1 0 1 1 0 2 1 1 0 0 1 0-2m14 0a1 1 0 1 1 0 2 1 1 0 0 1 0-2m14 0a1 1 0 1 1 0 2 1 1 0 0 1 0-2m14 0a1 1 0 1 1 0 2 1 1 0 0 1 0-2M-11 30a1 1 0 1 1 0 2 1 1 0 0 1 0-2m14 0a1 1 0 1 1 0 2 1 1 0 0 1 0-2m14 0a1 1 0 1 1 0 2 1 1 0 0 1 0-2m14 0a1 1 0 1 1 0 2 1 1 0 0 1 0-2m14 0a1 1 0 1 1 0 2 1 1 0 0 1 0-2m14 0a1 1 0 1 1 0 2 1 1 0 0 1 0-2m14 0a1 1 0 1 1 0 2 1 1 0 0 1 0-2m14 0a1 1 0 1 1 0 2 1 1 0 0 1 0-2m14 0a1 1 0 1 1 0 2 1 1 0 0 1 0-2m14 0a1 1 0 1 1 0 2 1 1 0 0 1 0-2m14 0a1 1 0 1 1 0 2 1 1 0 0 1 0-2m14 0a1 1 0 1 1 0 2 1 1 0 0 1 0-2m14 0a1 1 0 1 1 0 2 1 1 0 0 1 0-2m14 0a1 1 0 1 1 0 2 1 1 0 0 1 0-2m14 0a1 1 0 1 1 0 2 1 1 0 0 1 0-2m14 0a1 1 0 1 1 0 2 1 1 0 0 1 0-2m14 0a1 1 0 1 1 0 2 1 1 0 0 1 0-2m14 0a1 1 0 1 1 0 2 1 1 0 0 1 0-2m14 0a1 1 0 1 1 0 2 1 1 0 0 1 0-2m14 0a1 1 0 1 1 0 2 1 1 0 0 1 0-2m14 0a1 1 0 1 1 0 2 1 1 0 0 1 0-2m14 0a1 1 0 1 1 0 2 1 1 0 0 1 0-2m14 0a1 1 0 1 1 0 2 1 1 0 0 1 0-2m14 0a1 1 0 1 1 0 2 1 1 0 0 1 0-2m14 0a1 1 0 1 1 0 2 1 1 0 0 1 0-2m14 0a1 1 0 1 1 0 2 1 1 0 0 1 0-2m14 0a1 1 0 1 1 0 2 1 1 0 0 1 0-2m14 0a1 1 0 1 1 0 2 1 1 0 0 1 0-2m14 0a1 1 0 1 1 0 2 1 1 0 0 1 0-2m14 0a1 1 0 1 1 0 2 1 1 0 0 1 0-2m14 0a1 1 0 1 1 0 2 1 1 0 0 1 0-2m14 0a1 1 0 1 1 0 2 1 1 0 0 1 0-2m14 0a1 1 0 1 1 0 2 1 1 0 0 1 0-2m14 0a1 1 0 1 1 0 2 1 1 0 0 1 0-2m14 0a1 1 0 1 1 0 2 1 1 0 0 1 0-2m14 0a1 1 0 1 1 0 2 1 1 0 0 1 0-2m14 0a1 1 0 1 1 0 2 1 1 0 0 1 0-2m14 0a1 1 0 1 1 0 2 1 1 0 0 1 0-2m14 0a1 1 0 1 1 0 2 1 1 0 0 1 0-2m14 0a1 1 0 1 1 0 2 1 1 0 0 1 0-2m14 0a1 1 0 1 1 0 2 1 1 0 0 1 0-2m14 0a1 1 0 1 1 0 2 1 1 0 0 1 0-2m14 0a1 1 0 1 1 0 2 1 1 0 0 1 0-2m14 0a1 1 0 1 1 0 2 1 1 0 0 1 0-2m14 0a1 1 0 1 1 0 2 1 1 0 0 1 0-2m14 0a1 1 0 1 1 0 2 1 1 0 0 1 0-2m14 0a1 1 0 1 1 0 2 1 1 0 0 1 0-2m14 0a1 1 0 1 1 0 2 1 1 0 0 1 0-2m14 0a1 1 0 1 1 0 2 1 1 0 0 1 0-2m14 0a1 1 0 1 1 0 2 1 1 0 0 1 0-2m14 0a1 1 0 1 1 0 2 1 1 0 0 1 0-2m14 0a1 1 0 1 1 0 2 1 1 0 0 1 0-2m14 0a1 1 0 1 1 0 2 1 1 0 0 1 0-2M-11 16a1 1 0 1 1 0 2 1 1 0 0 1 0-2m14 0a1 1 0 1 1 0 2 1 1 0 0 1 0-2m14 0a1 1 0 1 1 0 2 1 1 0 0 1 0-2m14 0a1 1 0 1 1 0 2 1 1 0 0 1 0-2m14 0a1 1 0 1 1 0 2 1 1 0 0 1 0-2m14 0a1 1 0 1 1 0 2 1 1 0 0 1 0-2m14 0a1 1 0 1 1 0 2 1 1 0 0 1 0-2m14 0a1 1 0 1 1 0 2 1 1 0 0 1 0-2m14 0a1 1 0 1 1 0 2 1 1 0 0 1 0-2m14 0a1 1 0 1 1 0 2 1 1 0 0 1 0-2m14 0a1 1 0 1 1 0 2 1 1 0 0 1 0-2m14 0a1 1 0 1 1 0 2 1 1 0 0 1 0-2m14 0a1 1 0 1 1 0 2 1 1 0 0 1 0-2m14 0a1 1 0 1 1 0 2 1 1 0 0 1 0-2m14 0a1 1 0 1 1 0 2 1 1 0 0 1 0-2m14 0a1 1 0 1 1 0 2 1 1 0 0 1 0-2m14 0a1 1 0 1 1 0 2 1 1 0 0 1 0-2m14 0a1 1 0 1 1 0 2 1 1 0 0 1 0-2m14 0a1 1 0 1 1 0 2 1 1 0 0 1 0-2m14 0a1 1 0 1 1 0 2 1 1 0 0 1 0-2m14 0a1 1 0 1 1 0 2 1 1 0 0 1 0-2m14 0a1 1 0 1 1 0 2 1 1 0 0 1 0-2m14 0a1 1 0 1 1 0 2 1 1 0 0 1 0-2m14 0a1 1 0 1 1 0 2 1 1 0 0 1 0-2m14 0a1 1 0 1 1 0 2 1 1 0 0 1 0-2m14 0a1 1 0 1 1 0 2 1 1 0 0 1 0-2m14 0a1 1 0 1 1 0 2 1 1 0 0 1 0-2m14 0a1 1 0 1 1 0 2 1 1 0 0 1 0-2m14 0a1 1 0 1 1 0 2 1 1 0 0 1 0-2m14 0a1 1 0 1 1 0 2 1 1 0 0 1 0-2m14 0a1 1 0 1 1 0 2 1 1 0 0 1 0-2m14 0a1 1 0 1 1 0 2 1 1 0 0 1 0-2m14 0a1 1 0 1 1 0 2 1 1 0 0 1 0-2m14 0a1 1 0 1 1 0 2 1 1 0 0 1 0-2m14 0a1 1 0 1 1 0 2 1 1 0 0 1 0-2m14 0a1 1 0 1 1 0 2 1 1 0 0 1 0-2m14 0a1 1 0 1 1 0 2 1 1 0 0 1 0-2m14 0a1 1 0 1 1 0 2 1 1 0 0 1 0-2m14 0a1 1 0 1 1 0 2 1 1 0 0 1 0-2m14 0a1 1 0 1 1 0 2 1 1 0 0 1 0-2m14 0a1 1 0 1 1 0 2 1 1 0 0 1 0-2m14 0a1 1 0 1 1 0 2 1 1 0 0 1 0-2m14 0a1 1 0 1 1 0 2 1 1 0 0 1 0-2m14 0a1 1 0 1 1 0 2 1 1 0 0 1 0-2m14 0a1 1 0 1 1 0 2 1 1 0 0 1 0-2m14 0a1 1 0 1 1 0 2 1 1 0 0 1 0-2m14 0a1 1 0 1 1 0 2 1 1 0 0 1 0-2m14 0a1 1 0 1 1 0 2 1 1 0 0 1 0-2m14 0a1 1 0 1 1 0 2 1 1 0 0 1 0-2m14 0a1 1 0 1 1 0 2 1 1 0 0 1 0-2m14 0a1 1 0 1 1 0 2 1 1 0 0 1 0-2m14 0a1 1 0 1 1 0 2 1 1 0 0 1 0-2m14 0a1 1 0 1 1 0 2 1 1 0 0 1 0-2M-11 2a1 1 0 1 1 0 2 1 1 0 0 1 0-2M3 2a1 1 0 1 1 0 2 1 1 0 0 1 0-2m14 0a1 1 0 1 1 0 2 1 1 0 0 1 0-2m14 0a1 1 0 1 1 0 2 1 1 0 0 1 0-2m14 0a1 1 0 1 1 0 2 1 1 0 0 1 0-2m14 0a1 1 0 1 1 0 2 1 1 0 0 1 0-2m14 0a1 1 0 1 1 0 2 1 1 0 0 1 0-2m14 0a1 1 0 1 1 0 2 1 1 0 0 1 0-2m14 0a1 1 0 1 1 0 2 1 1 0 0 1 0-2m14 0a1 1 0 1 1 0 2 1 1 0 0 1 0-2m14 0a1 1 0 1 1 0 2 1 1 0 0 1 0-2m14 0a1 1 0 1 1 0 2 1 1 0 0 1 0-2m14 0a1 1 0 1 1 0 2 1 1 0 0 1 0-2m14 0a1 1 0 1 1 0 2 1 1 0 0 1 0-2m14 0a1 1 0 1 1 0 2 1 1 0 0 1 0-2m14 0a1 1 0 1 1 0 2 1 1 0 0 1 0-2m14 0a1 1 0 1 1 0 2 1 1 0 0 1 0-2m14 0a1 1 0 1 1 0 2 1 1 0 0 1 0-2m14 0a1 1 0 1 1 0 2 1 1 0 0 1 0-2m14 0a1 1 0 1 1 0 2 1 1 0 0 1 0-2m14 0a1 1 0 1 1 0 2 1 1 0 0 1 0-2m14 0a1 1 0 1 1 0 2 1 1 0 0 1 0-2m14 0a1 1 0 1 1 0 2 1 1 0 0 1 0-2m14 0a1 1 0 1 1 0 2 1 1 0 0 1 0-2m14 0a1 1 0 1 1 0 2 1 1 0 0 1 0-2m14 0a1 1 0 1 1 0 2 1 1 0 0 1 0-2m14 0a1 1 0 1 1 0 2 1 1 0 0 1 0-2m14 0a1 1 0 1 1 0 2 1 1 0 0 1 0-2m14 0a1 1 0 1 1 0 2 1 1 0 0 1 0-2m14 0a1 1 0 1 1 0 2 1 1 0 0 1 0-2m14 0a1 1 0 1 1 0 2 1 1 0 0 1 0-2m14 0a1 1 0 1 1 0 2 1 1 0 0 1 0-2m14 0a1 1 0 1 1 0 2 1 1 0 0 1 0-2m14 0a1 1 0 1 1 0 2 1 1 0 0 1 0-2m14 0a1 1 0 1 1 0 2 1 1 0 0 1 0-2m14 0a1 1 0 1 1 0 2 1 1 0 0 1 0-2m14 0a1 1 0 1 1 0 2 1 1 0 0 1 0-2m14 0a1 1 0 1 1 0 2 1 1 0 0 1 0-2m14 0a1 1 0 1 1 0 2 1 1 0 0 1 0-2m14 0a1 1 0 1 1 0 2 1 1 0 0 1 0-2m14 0a1 1 0 1 1 0 2 1 1 0 0 1 0-2m14 0a1 1 0 1 1 0 2 1 1 0 0 1 0-2m14 0a1 1 0 1 1 0 2 1 1 0 0 1 0-2m14 0a1 1 0 1 1 0 2 1 1 0 0 1 0-2m14 0a1 1 0 1 1 0 2 1 1 0 0 1 0-2m14 0a1 1 0 1 1 0 2 1 1 0 0 1 0-2m14 0a1 1 0 1 1 0 2 1 1 0 0 1 0-2m14 0a1 1 0 1 1 0 2 1 1 0 0 1 0-2m14 0a1 1 0 1 1 0 2 1 1 0 0 1 0-2m14 0a1 1 0 1 1 0 2 1 1 0 0 1 0-2m14 0a1 1 0 1 1 0 2 1 1 0 0 1 0-2m14 0a1 1 0 1 1 0 2 1 1 0 0 1 0-2m14 0a1 1 0 1 1 0 2 1 1 0 0 1 0-2"/></g><rect width="139" height="55" x="16.5" y="16.5" fill="#edeef3" rx="9.5"/><rect width="139" height="55" x="16.5" y="16.5" stroke="#555962" rx="9.5"/><rect width="30" height="30" x="28" y="29" fill="#555962" rx="4"/><path fill="#edeef3" d="M47.584 52.25v-1.833a2.75 2.75 0 0 0-2.75-2.75h-3.667a2.75 2.75 0 0 0-2.75 2.75v1.833a.917.917 0 0 1-1.833 0v-1.833a4.583 4.583 0 0 1 4.583-4.584h3.667a4.58 4.58 0 0 1 4.583 4.584v1.833a.917.917 0 0 1-1.833 0m-1.833-12.833a2.75 2.75 0 1 0-5.5 0 2.75 2.75 0 0 0 5.5 0m1.833 0a4.583 4.583 0 1 1-9.166-.001 4.583 4.583 0 0 1 9.166 0"/><path fill="#17181c" d="M69.892 39.546h1.713v6.176q0 1.016-.48 1.787a3.25 3.25 0 0 1-1.339 1.205q-.863.43-2.017.43-1.16 0-2.022-.43a3.25 3.25 0 0 1-1.339-1.205q-.476-.771-.476-1.787v-6.177h1.713v6.034q0 .591.259 1.053.263.462.738.724.476.26 1.127.26t1.126-.26a1.84 1.84 0 0 0 .739-.724q.258-.462.258-1.053zm9.105 4.237-1.523.167a1.2 1.2 0 0 0-.226-.434 1.1 1.1 0 0 0-.425-.328 1.55 1.55 0 0 0-.656-.125q-.521 0-.877.226-.351.227-.346.587a.61.61 0 0 0 .226.503q.236.194.776.318l1.21.259q1.005.217 1.495.688.495.471.499 1.232-.005.67-.393 1.182-.382.508-1.066.794t-1.57.287q-1.301 0-2.096-.545-.795-.55-.946-1.528l1.63-.157q.11.48.47.724.36.245.938.245.595 0 .955-.245.365-.244.365-.604a.63.63 0 0 0-.236-.503q-.23-.199-.72-.305l-1.21-.254q-1.02-.213-1.509-.716-.49-.507-.485-1.283a1.82 1.82 0 0 1 .356-1.136q.365-.484 1.01-.748.652-.267 1.501-.267 1.247 0 1.962.53.72.532.891 1.436m4.67 5.355q-1.066 0-1.842-.443a3 3 0 0 1-1.187-1.265q-.415-.82-.415-1.934 0-1.095.415-1.92.42-.831 1.173-1.293.753-.466 1.768-.466.656 0 1.237.212.587.208 1.034.646.453.439.711 1.118.26.674.259 1.606v.513h-5.812v-1.127h4.21a1.8 1.8 0 0 0-.208-.854 1.5 1.5 0 0 0-.568-.595 1.6 1.6 0 0 0-.84-.217q-.512 0-.9.249-.388.244-.605.646a1.86 1.86 0 0 0-.217.873v.983q0 .618.226 1.062.227.438.633.674.406.23.95.23.366 0 .661-.1.296-.108.513-.31a1.3 1.3 0 0 0 .327-.503l1.56.175a2.43 2.43 0 0 1-.563 1.08 2.75 2.75 0 0 1-1.052.711q-.642.25-1.468.25M88.234 49v-7.09h1.62v1.18h.074q.194-.612.665-.946a1.83 1.83 0 0 1 1.085-.337q.138 0 .309.014.176.01.29.033v1.537a2 2 0 0 0-.336-.065 3 3 0 0 0-.439-.032 1.7 1.7 0 0 0-.822.199q-.36.193-.567.54-.208.346-.208.798V49z"/><rect width="139" height="55" x="424.5" y="16.5" fill="#cfd4fc" rx="9.5"/><rect width="139" height="55" x="424.5" y="16.5" stroke="#3d50f5" rx="9.5"/><rect width="30" height="30" x="436" y="29" fill="#3d50f5" rx="4"/><path fill="#cfd4fc" d="M453.751 52.25v-.916a.917.917 0 0 0-.917-.917h-3.667a.917.917 0 0 0-.916.916v.917a.917.917 0 0 1-1.834 0v-.916a2.75 2.75 0 0 1 2.75-2.75h3.667a2.75 2.75 0 0 1 2.75 2.75v.916a.916.916 0 1 1-1.833 0m-1.834-7.333a.916.916 0 1 0-1.831-.002.916.916 0 0 0 1.831.002m-10.083 0V44a2.75 2.75 0 0 1 2.75-2.75h1.833a.916.916 0 1 1 0 1.834h-1.833a.916.916 0 0 0-.917.916v.917a.916.916 0 1 1-1.833 0m16.5 0V44a.916.916 0 0 0-.917-.916h-1.833a.917.917 0 0 1 0-1.834h1.833a2.75 2.75 0 0 1 2.75 2.75v.917a.916.916 0 1 1-1.833 0m-11-7.334a.917.917 0 1 0-1.833.002.917.917 0 0 0 1.833-.002m9.167 0a.917.917 0 1 0-1.833.002.917.917 0 0 0 1.833-.002m-2.75 7.334a2.75 2.75 0 1 1-5.498 0 2.75 2.75 0 0 1 5.498 0m-4.584-7.334a2.75 2.75 0 0 1-2.75 2.75 2.75 2.75 0 1 1 2.75-2.75m9.167 0a2.749 2.749 0 1 1-5.498 0 2.749 2.749 0 0 1 5.498 0"/><path fill="#17181c" d="M477.892 39.546h1.713v6.176q0 1.016-.48 1.787a3.24 3.24 0 0 1-1.339 1.205q-.863.43-2.017.43-1.16 0-2.022-.43a3.24 3.24 0 0 1-1.339-1.205q-.475-.771-.475-1.787v-6.177h1.712v6.034q0 .591.259 1.053.262.462.738.724.476.26 1.127.26.65 0 1.126-.26a1.84 1.84 0 0 0 .739-.724 2.1 2.1 0 0 0 .258-1.053zm9.105 4.237-1.523.167a1.2 1.2 0 0 0-.226-.434 1.1 1.1 0 0 0-.425-.328 1.55 1.55 0 0 0-.656-.125q-.521 0-.877.226-.35.227-.346.587a.61.61 0 0 0 .226.503q.236.194.776.318l1.209.259q1.007.217 1.496.688.494.471.499 1.232-.005.67-.393 1.182-.383.508-1.066.794-.684.287-1.57.287-1.301 0-2.096-.545-.794-.55-.946-1.528l1.63-.157q.11.48.47.724.36.245.938.245.595 0 .955-.245.365-.244.365-.604a.63.63 0 0 0-.236-.503q-.23-.199-.72-.305l-1.209-.254q-1.02-.213-1.51-.716-.49-.507-.485-1.283a1.82 1.82 0 0 1 .356-1.136q.364-.484 1.011-.748.651-.267 1.5-.267 1.247 0 1.962.53.72.532.891 1.436m4.67 5.355q-1.067 0-1.842-.443a3 3 0 0 1-1.187-1.265q-.415-.82-.415-1.934 0-1.095.415-1.92a3.14 3.14 0 0 1 1.173-1.293q.753-.466 1.768-.466.656 0 1.237.212a2.8 2.8 0 0 1 1.034.646q.453.439.711 1.118.26.674.259 1.606v.513h-5.812v-1.127h4.21a1.8 1.8 0 0 0-.208-.854 1.5 1.5 0 0 0-.568-.595 1.6 1.6 0 0 0-.84-.217q-.512 0-.9.249-.388.244-.605.646a1.9 1.9 0 0 0-.217.873v.983q0 .618.226 1.062.226.438.633.674.406.23.951.23.364 0 .66-.1.296-.108.512-.31.217-.204.328-.503l1.561.175a2.44 2.44 0 0 1-.564 1.08 2.7 2.7 0 0 1-1.052.711q-.642.25-1.468.25m4.567-.138v-7.09h1.62v1.18h.074q.194-.612.665-.946a1.83 1.83 0 0 1 1.085-.337q.138 0 .309.014.175.01.291.033v1.537a2 2 0 0 0-.337-.065 3 3 0 0 0-.439-.032q-.457 0-.822.199-.36.193-.567.54-.208.346-.208.798V49zm14.786-6.435a2.5 2.5 0 0 0-.318-.67q-.2-.3-.48-.512a1.9 1.9 0 0 0-.637-.319 2.7 2.7 0 0 0-.785-.11q-.762 0-1.358.383-.595.382-.937 1.126-.337.739-.337 1.8 0 1.073.337 1.815.337.743.937 1.13.6.384 1.395.384.72 0 1.246-.277.53-.277.817-.785.286-.512.286-1.2l.388.06h-2.567V44.05h3.837v1.136q0 1.215-.517 2.1a3.54 3.54 0 0 1-1.422 1.367q-.905.475-2.078.475-1.306 0-2.294-.586-.984-.591-1.537-1.676-.55-1.09-.55-2.585 0-1.145.324-2.045.327-.9.914-1.528.586-.633 1.375-.96a4.4 4.4 0 0 1 1.718-.333q.785 0 1.463.231.678.225 1.205.646.531.42.872.998.342.576.448 1.274zM514.426 49v-7.09h1.62v1.18h.074q.195-.612.665-.946a1.83 1.83 0 0 1 1.085-.337q.138 0 .309.014.175.01.291.033v1.537a2 2 0 0 0-.337-.065 3 3 0 0 0-.438-.032 1.7 1.7 0 0 0-.822.199q-.36.193-.568.54-.208.346-.208.798V49zm7.955.139q-1.038 0-1.8-.458a3.1 3.1 0 0 1-1.182-1.278q-.415-.822-.415-1.92 0-1.1.415-1.926.42-.826 1.182-1.283t1.8-.457q1.04 0 1.801.457.762.456 1.177 1.283.42.827.42 1.925 0 1.1-.42 1.92a3.07 3.07 0 0 1-1.177 1.28q-.762.456-1.801.456m.01-1.34q.563 0 .941-.309.379-.313.564-.84a3.5 3.5 0 0 0 .189-1.172q0-.651-.189-1.178a1.87 1.87 0 0 0-.564-.844q-.378-.315-.941-.314-.577 0-.961.314-.378.313-.567.844-.186.527-.185 1.178 0 .645.185 1.172.189.526.567.84.384.31.961.31m9.326-1.781v-4.109h1.671V49h-1.62v-1.26h-.074q-.24.595-.789.974-.545.378-1.344.378-.697 0-1.232-.309a2.15 2.15 0 0 1-.831-.91q-.3-.6-.3-1.449v-4.515h1.671v4.257q0 .674.369 1.07.369.398.969.398.37 0 .716-.18.346-.181.568-.536.226-.36.226-.9m3.39 5.641v-9.75h1.643v1.173h.097q.13-.26.365-.55.235-.295.637-.503.402-.213 1.025-.212.822 0 1.482.42.665.416 1.052 1.232.393.813.393 1.995 0 1.167-.384 1.985-.383.817-1.043 1.246t-1.496.43q-.609 0-1.011-.203a2.1 2.1 0 0 1-.646-.49 3 3 0 0 1-.374-.55h-.069v3.777zm1.639-6.204q0 .688.193 1.204.2.517.568.808.375.287.905.287.554 0 .928-.296.374-.3.563-.817.194-.522.194-1.186 0-.66-.189-1.173a1.76 1.76 0 0 0-.563-.803q-.374-.291-.933-.291-.535 0-.909.281-.375.282-.568.79-.189.507-.189 1.196"/><rect width="176" height="55" x="289.5" y="143.5" fill="#f9c3d6" rx="9.5"/><rect width="176" height="55" x="289.5" y="143.5" stroke="#f53d7d" rx="9.5"/><rect width="30" height="30" x="301" y="156" fill="#8a0f3a" rx="4"/><path fill="#f9c3d6" d="M315.46 162.01a.916.916 0 0 1 1.147.053 10.08 10.08 0 0 0 7.143 2.521.916.916 0 0 1 .921.657 11.91 11.91 0 0 1-4.178 12.816 11.9 11.9 0 0 1-4.262 2.08.9.9 0 0 1-.461 0 11.92 11.92 0 0 1-7.376-5.659 11.93 11.93 0 0 1-1.065-9.237l.056-.145a.92.92 0 0 1 .866-.512 10.08 10.08 0 0 0 7.142-2.521zm-6.217 9.907c.199.572.446 1.127.746 1.657a10.06 10.06 0 0 0 5.095 4.413v-6.07zm7.674 6.07a10.06 10.06 0 0 0 5.095-4.413c.3-.53.547-1.085.746-1.657h-5.841zm0-7.904h6.292q.027-.162.046-.325a10.1 10.1 0 0 0-.174-3.333 11.9 11.9 0 0 1-6.164-1.845zm-1.833-5.503a11.9 11.9 0 0 1-6.165 1.846 10.1 10.1 0 0 0-.174 3.332q.02.163.046.325h6.293z"/><path fill="#17181c" d="M336.933 168v-9.455h3.545q1.09 0 1.828.379.744.378 1.122 1.062.383.678.383 1.583 0 .91-.388 1.579a2.56 2.56 0 0 1-1.131 1.03q-.747.36-1.837.36h-2.525v-1.422h2.294q.638 0 1.043-.176.406-.18.601-.521.198-.346.198-.85 0-.503-.198-.858a1.27 1.27 0 0 0-.605-.545q-.406-.189-1.048-.189h-1.57V168zm4.884-4.284 2.34 4.284h-1.911l-2.299-4.284zm6.488 4.422q-1.038 0-1.8-.457a3.1 3.1 0 0 1-1.182-1.278q-.416-.822-.416-1.921 0-1.098.416-1.925a3.1 3.1 0 0 1 1.182-1.283q.762-.457 1.8-.457 1.04 0 1.801.457.761.456 1.177 1.283.42.827.42 1.925 0 1.1-.42 1.921a3.07 3.07 0 0 1-1.177 1.278q-.762.457-1.801.457m.009-1.338q.564 0 .942-.31.379-.313.563-.84.19-.527.19-1.172 0-.651-.19-1.178a1.85 1.85 0 0 0-.563-.844q-.378-.315-.942-.314-.576 0-.96.314a1.9 1.9 0 0 0-.568.844 3.6 3.6 0 0 0-.184 1.178q0 .645.184 1.172.19.527.568.84.384.31.96.31m6.479-8.255V168h-1.672v-9.455zm4.857 9.593q-1.067 0-1.842-.443a3 3 0 0 1-1.186-1.265q-.416-.82-.416-1.934 0-1.094.416-1.92.42-.831 1.172-1.293.753-.466 1.768-.466.657 0 1.238.212a2.8 2.8 0 0 1 1.034.646q.451.439.711 1.118.258.673.258 1.606v.513h-5.812v-1.127h4.21a1.8 1.8 0 0 0-.207-.854 1.5 1.5 0 0 0-.568-.595 1.6 1.6 0 0 0-.84-.217q-.513 0-.901.249-.387.244-.604.646a1.86 1.86 0 0 0-.217.873v.983q0 .618.226 1.062.226.438.632.674.407.231.951.231.365 0 .66-.102a1.5 1.5 0 0 0 .513-.309 1.3 1.3 0 0 0 .328-.503l1.56.175a2.4 2.4 0 0 1-.563 1.08 2.74 2.74 0 0 1-1.053.711q-.642.249-1.468.249m-22.376 11.135q0-1.732.457-3.181a9.2 9.2 0 0 1 1.371-2.687h1.574a6 6 0 0 0-.655 1.122q-.304.66-.531 1.45a13 13 0 0 0-.351 1.629 11.4 11.4 0 0 0-.124 1.667q0 1.094.217 2.216.221 1.122.595 2.082.379.955.849 1.565h-1.574a9.2 9.2 0 0 1-1.371-2.683q-.457-1.453-.457-3.18m11.109-1.708a2.5 2.5 0 0 0-.319-.67 2 2 0 0 0-.48-.512 1.9 1.9 0 0 0-.637-.319 2.7 2.7 0 0 0-.785-.111q-.762 0-1.357.384-.596.383-.937 1.126-.337.739-.337 1.8 0 1.072.337 1.815.336.743.937 1.131.6.383 1.394.383.72 0 1.246-.277.531-.277.818-.785.286-.512.286-1.2l.388.06h-2.567v-1.339h3.836v1.136q0 1.213-.517 2.1a3.54 3.54 0 0 1-1.422 1.367q-.905.475-2.077.475-1.307 0-2.295-.586-.983-.591-1.537-1.676-.549-1.09-.549-2.585 0-1.145.323-2.045.327-.9.914-1.528a3.9 3.9 0 0 1 1.376-.96 4.4 4.4 0 0 1 1.717-.333 4.5 4.5 0 0 1 1.463.231q.679.226 1.205.646.531.42.873.997.342.578.448 1.275zm6.545 6.573q-1.067 0-1.842-.443a3 3 0 0 1-1.187-1.265q-.415-.82-.415-1.934 0-1.094.415-1.92.42-.831 1.173-1.293.752-.466 1.768-.466.655 0 1.237.212.587.208 1.034.646.453.439.711 1.118.258.673.259 1.606v.513h-5.813v-1.127h4.211a1.8 1.8 0 0 0-.208-.854 1.5 1.5 0 0 0-.568-.595 1.6 1.6 0 0 0-.84-.217q-.513 0-.9.249-.388.244-.605.646a1.86 1.86 0 0 0-.217.873v.983q0 .618.226 1.062.227.438.633.674.405.231.951.231.365 0 .66-.102.296-.107.512-.309a1.3 1.3 0 0 0 .328-.503l1.56.175a2.4 2.4 0 0 1-.563 1.08 2.74 2.74 0 0 1-1.052.711q-.642.249-1.468.249m6.238-4.293V184h-1.672v-7.091h1.598v1.205h.083q.245-.595.78-.946.54-.351 1.334-.351.734 0 1.279.314.549.314.849.909.305.596.3 1.445V184h-1.671v-4.256q0-.711-.369-1.113-.364-.402-1.011-.402-.439 0-.78.194-.337.19-.531.55-.189.36-.189.872m9.389 4.293q-1.065 0-1.841-.443a3 3 0 0 1-1.187-1.265q-.415-.82-.415-1.934 0-1.094.415-1.92.42-.831 1.173-1.293.752-.466 1.768-.466.655 0 1.237.212.587.208 1.034.646.453.439.711 1.118.258.673.259 1.606v.513h-5.813v-1.127h4.211a1.8 1.8 0 0 0-.208-.854 1.5 1.5 0 0 0-.568-.595 1.6 1.6 0 0 0-.84-.217q-.513 0-.9.249-.388.244-.605.646a1.86 1.86 0 0 0-.217.873v.983q0 .618.226 1.062.227.438.633.674.405.231.951.231.365 0 .66-.102.296-.107.512-.309a1.3 1.3 0 0 0 .328-.503l1.56.175a2.4 2.4 0 0 1-.563 1.08 2.74 2.74 0 0 1-1.052.711q-.642.249-1.469.249m4.567-.138v-7.091h1.621v1.182h.074q.193-.614.664-.946a1.83 1.83 0 0 1 1.085-.337q.14 0 .31.013.174.01.29.033v1.537a2 2 0 0 0-.337-.065 3 3 0 0 0-.438-.032q-.457 0-.822.199-.36.193-.568.54-.207.346-.207.798V184zm5.155 0v-7.091h1.671V184zm.84-8.097a.97.97 0 0 1-.683-.263.85.85 0 0 1-.287-.642q0-.378.287-.642a.97.97 0 0 1 .683-.268q.401 0 .683.268a.84.84 0 0 1 .286.642.85.85 0 0 1-.286.642.97.97 0 0 1-.683.263m5.642 8.235q-1.062 0-1.823-.466a3.1 3.1 0 0 1-1.168-1.288q-.406-.826-.406-1.902 0-1.08.415-1.906a3.1 3.1 0 0 1 1.173-1.293q.761-.466 1.8-.466.864 0 1.528.318.67.315 1.067.891.396.573.452 1.339H388.2a1.53 1.53 0 0 0-.462-.854q-.36-.346-.965-.346-.512 0-.9.277-.388.272-.605.785-.212.512-.212 1.228 0 .724.212 1.246.212.517.596.799.387.276.909.277.369 0 .66-.139.296-.142.494-.411.199-.267.273-.651h1.597q-.06.753-.443 1.335a2.6 2.6 0 0 1-1.044.904q-.66.324-1.551.323m10.728 0q-1.04 0-1.801-.457a3.1 3.1 0 0 1-1.181-1.278q-.416-.822-.416-1.921 0-1.098.416-1.925.42-.827 1.181-1.283.762-.457 1.801-.457t1.8.457q.762.456 1.177 1.283.421.827.421 1.925 0 1.1-.421 1.921a3.06 3.06 0 0 1-1.177 1.278q-.762.457-1.8.457m.009-1.338q.563 0 .942-.31.378-.313.563-.84a3.5 3.5 0 0 0 .189-1.172 3.5 3.5 0 0 0-.189-1.178 1.86 1.86 0 0 0-.563-.844q-.379-.315-.942-.314-.577 0-.96.314-.38.313-.568.844a3.6 3.6 0 0 0-.185 1.178q0 .645.185 1.172.189.527.568.84.382.31.96.31m4.807 1.2v-7.091h1.62v1.182h.074q.195-.614.665-.946a1.83 1.83 0 0 1 1.085-.337q.138 0 .309.013.175.01.291.033v1.537a2 2 0 0 0-.337-.065 3 3 0 0 0-.439-.032q-.456 0-.821.199-.36.193-.568.54-.208.346-.208.798V184zm14.787-6.435a2.5 2.5 0 0 0-.319-.67 2 2 0 0 0-.48-.512 1.9 1.9 0 0 0-.637-.319 2.7 2.7 0 0 0-.785-.111q-.762 0-1.357.384-.596.383-.937 1.126-.337.739-.337 1.8 0 1.072.337 1.815.336.743.937 1.131.6.383 1.394.383.72 0 1.246-.277.531-.277.818-.785.285-.512.286-1.2l.388.06h-2.567v-1.339h3.836v1.136q0 1.213-.517 2.1a3.54 3.54 0 0 1-1.422 1.367q-.905.475-2.077.475-1.306 0-2.295-.586-.983-.591-1.537-1.676-.549-1.09-.549-2.585 0-1.145.323-2.045.327-.9.914-1.528a3.9 3.9 0 0 1 1.376-.96 4.4 4.4 0 0 1 1.717-.333 4.5 4.5 0 0 1 1.463.231q.679.226 1.205.646.531.42.873.997.342.578.448 1.275zm3.405 6.435v-7.091h1.621v1.182h.074q.193-.614.664-.946a1.83 1.83 0 0 1 1.085-.337q.14 0 .31.013.175.01.29.033v1.537a2 2 0 0 0-.337-.065 3 3 0 0 0-.438-.032q-.457 0-.822.199-.36.193-.568.54-.207.346-.207.798V184zm7.956.138q-1.04 0-1.801-.457a3.1 3.1 0 0 1-1.182-1.278q-.415-.822-.415-1.921 0-1.098.415-1.925a3.1 3.1 0 0 1 1.182-1.283q.762-.457 1.801-.457t1.8.457q.762.456 1.177 1.283.42.827.42 1.925 0 1.1-.42 1.921a3.06 3.06 0 0 1-1.177 1.278q-.762.457-1.8.457m.009-1.338q.563 0 .942-.31.378-.313.563-.84a3.5 3.5 0 0 0 .189-1.172 3.5 3.5 0 0 0-.189-1.178 1.86 1.86 0 0 0-.563-.844q-.38-.315-.942-.314-.578 0-.96.314-.38.313-.568.844a3.6 3.6 0 0 0-.185 1.178q0 .645.185 1.172.189.527.568.84.382.31.96.31m9.326-1.782v-4.109h1.672V184h-1.621v-1.26h-.074q-.24.595-.789.974-.545.378-1.343.378-.697 0-1.233-.309a2.15 2.15 0 0 1-.831-.909q-.3-.601-.3-1.45v-4.515h1.671v4.256q0 .675.369 1.072.37.397.97.397a1.52 1.52 0 0 0 1.283-.716q.226-.36.226-.9m3.39 5.641v-9.75h1.644v1.173h.096q.13-.26.365-.55.235-.295.637-.503.402-.212 1.025-.212.822 0 1.482.42.664.416 1.053 1.232.392.813.392 1.995 0 1.167-.383 1.985-.383.817-1.044 1.246-.66.43-1.495.43-.61 0-1.011-.203a2.1 2.1 0 0 1-.647-.49 3.2 3.2 0 0 1-.374-.549h-.069v3.776zm1.639-6.204q0 .688.194 1.204.198.517.568.808.374.287.904.287.555 0 .928-.296.374-.3.564-.817.193-.522.193-1.186 0-.66-.189-1.173a1.76 1.76 0 0 0-.563-.803q-.374-.291-.933-.291-.536 0-.909.281a1.73 1.73 0 0 0-.568.79q-.189.507-.189 1.196m9.303-.31q0 1.727-.461 3.181a9.1 9.1 0 0 1-1.367 2.682h-1.574q.355-.457.655-1.117.306-.66.527-1.45.226-.79.351-1.634a11 11 0 0 0-.093-3.878 11.7 11.7 0 0 0-.595-2.082q-.374-.96-.845-1.569h1.574a9.1 9.1 0 0 1 1.367 2.686q.46 1.45.461 3.181"/><rect width="170" height="55" x="533.5" y="143.5" fill="#edd1fa" rx="9.5"/><rect width="170" height="55" x="533.5" y="143.5" stroke="#bb3df5" rx="9.5"/><rect width="30" height="30" x="545" y="156" fill="#660891" rx="4"/><path fill="#edd1fa" d="M553.583 171.917v5.5h3.667v-5.5zm13.75 5.5a.916.916 0 1 1 0 1.833h-5.5a.916.916 0 0 1 0-1.833zm0-3.667a.916.916 0 1 1 0 1.833h-5.5a.916.916 0 1 1 0-1.833zm0-3.667a.917.917 0 1 1 0 1.834h-5.5a.917.917 0 0 1 0-1.834zm-13.75-5.5v1.834h12.834v-1.834zm5.5 12.834a1.83 1.83 0 0 1-1.833 1.833h-3.667a1.83 1.83 0 0 1-1.833-1.833v-5.5a1.833 1.833 0 0 1 1.833-1.834h3.667a1.837 1.837 0 0 1 1.833 1.834zm9.167-11a1.83 1.83 0 0 1-1.833 1.833h-12.834a1.83 1.83 0 0 1-1.833-1.833v-1.834a1.83 1.83 0 0 1 1.833-1.833h12.834a1.83 1.83 0 0 1 1.833 1.833z"/><path fill="#17181c" d="M580.933 168v-9.455h6.149v1.436h-4.437v2.567h4.118v1.436h-4.118v2.58h4.474V168zm9.493-4.155V168h-1.671v-7.091h1.597v1.205h.084q.245-.595.78-.946.54-.351 1.334-.351.733 0 1.279.314.549.314.849.909.305.596.3 1.445V168h-1.671v-4.256q0-.711-.369-1.113-.365-.402-1.011-.402-.44 0-.781.194-.336.19-.53.55-.19.36-.19.872m9.792-2.936v1.293h-4.076v-1.293zm-3.07-1.699h1.671v6.657q0 .337.102.517.106.175.277.24.17.065.378.065.157 0 .286-.023.134-.023.204-.042l.281 1.307a4 4 0 0 1-.383.101 3 3 0 0 1-.6.065 2.7 2.7 0 0 1-1.131-.189 1.76 1.76 0 0 1-.799-.656q-.29-.443-.286-1.108zm4.468 8.79v-7.091h1.671V168zm.84-8.097a.98.98 0 0 1-.684-.263.85.85 0 0 1-.286-.642q0-.378.286-.642a.97.97 0 0 1 .684-.268q.4 0 .683.268a.84.84 0 0 1 .286.642.85.85 0 0 1-.286.642.97.97 0 0 1-.683.263m6.09 1.006v1.293h-4.076v-1.293zm-3.07-1.699h1.671v6.657q0 .337.102.517a.55.55 0 0 0 .277.24q.171.065.378.065.157 0 .287-.023.133-.023.203-.042l.281 1.307a4 4 0 0 1-.383.101 3 3 0 0 1-.6.065 2.7 2.7 0 0 1-1.131-.189 1.76 1.76 0 0 1-.799-.656q-.29-.443-.286-1.108zm5.506 11.449a3.4 3.4 0 0 1-.632-.055 2.4 2.4 0 0 1-.457-.12l.388-1.302q.365.106.651.101a.8.8 0 0 0 .503-.18q.22-.17.374-.572l.143-.383-2.572-7.239h1.773l1.634 5.355h.074l1.639-5.355h1.777l-2.839 7.95a3.2 3.2 0 0 1-.526.965q-.327.406-.803.618-.471.217-1.127.217m16.084-9.094a2.5 2.5 0 0 0-.318-.67 2 2 0 0 0-.481-.512 1.9 1.9 0 0 0-.637-.319 2.7 2.7 0 0 0-.784-.111q-.762 0-1.358.384-.595.383-.937 1.126-.337.739-.337 1.8 0 1.072.337 1.815t.937 1.131q.6.383 1.395.383.72 0 1.246-.277.53-.277.817-.785.286-.512.286-1.2l.388.06h-2.567v-1.339h3.837v1.136q0 1.213-.517 2.1a3.54 3.54 0 0 1-1.422 1.367q-.905.475-2.078.475-1.306 0-2.294-.586-.984-.591-1.537-1.676-.55-1.09-.55-2.585 0-1.145.323-2.045.329-.9.914-1.528.587-.633 1.376-.96a4.4 4.4 0 0 1 1.718-.333 4.5 4.5 0 0 1 1.463.231 3.9 3.9 0 0 1 1.205.646q.531.42.872.997.342.578.448 1.275zm3.406 6.435v-7.091h1.62v1.182h.074q.194-.614.665-.946a1.83 1.83 0 0 1 1.085-.337q.138 0 .309.013.175.01.291.033v1.537a2 2 0 0 0-.337-.065 3 3 0 0 0-.439-.032q-.456 0-.821.199-.36.193-.568.54-.208.346-.208.798V168zm7.955.138q-1.038 0-1.8-.457a3.1 3.1 0 0 1-1.182-1.278q-.415-.822-.415-1.921 0-1.098.415-1.925a3.1 3.1 0 0 1 1.182-1.283q.762-.457 1.8-.457 1.04 0 1.801.457.762.456 1.177 1.283.42.827.42 1.925 0 1.1-.42 1.921a3.06 3.06 0 0 1-1.177 1.278q-.762.457-1.801.457m.01-1.338q.563 0 .941-.31.379-.313.563-.84.19-.527.19-1.172 0-.651-.19-1.178a1.85 1.85 0 0 0-.563-.844q-.378-.315-.941-.314-.577 0-.961.314a1.9 1.9 0 0 0-.568.844 3.6 3.6 0 0 0-.184 1.178q0 .645.184 1.172.19.527.568.84.384.31.961.31m9.326-1.782v-4.109h1.671V168h-1.62v-1.26h-.074q-.24.595-.79.974-.544.378-1.343.378-.697 0-1.233-.309a2.15 2.15 0 0 1-.83-.909q-.301-.601-.301-1.45v-4.515h1.672v4.256q0 .675.369 1.072t.969.397q.37 0 .716-.181.346-.18.568-.535.226-.36.226-.9m3.39 5.641v-9.75h1.643v1.173h.097q.13-.26.365-.55.235-.295.637-.503.402-.212 1.025-.212.82 0 1.482.42.665.416 1.052 1.232.393.813.393 1.995 0 1.167-.384 1.985-.383.817-1.043 1.246t-1.496.43q-.609 0-1.011-.203a2.1 2.1 0 0 1-.646-.49 3.2 3.2 0 0 1-.374-.549h-.069v3.776zm1.638-6.204q0 .688.194 1.204.2.517.568.808.374.287.905.287.554 0 .928-.296.374-.3.563-.817.194-.522.194-1.186 0-.66-.189-1.173a1.76 1.76 0 0 0-.563-.803q-.375-.291-.933-.291-.536 0-.909.281-.375.282-.568.79-.19.507-.19 1.196m-71.517 14.818q0-1.732.457-3.181a9.2 9.2 0 0 1 1.371-2.687h1.574a6 6 0 0 0-.655 1.122q-.304.66-.531 1.45a13 13 0 0 0-.351 1.629 11.4 11.4 0 0 0-.124 1.667q0 1.094.217 2.216.221 1.122.595 2.082.379.955.849 1.565h-1.574a9.2 9.2 0 0 1-1.371-2.683q-.457-1.453-.457-3.18m11.109-1.708a2.5 2.5 0 0 0-.319-.67 2 2 0 0 0-.48-.512 1.9 1.9 0 0 0-.637-.319 2.7 2.7 0 0 0-.785-.111q-.762 0-1.357.384-.596.383-.937 1.126-.337.739-.337 1.8 0 1.072.337 1.815t.937 1.131q.6.383 1.394.383.72 0 1.246-.277.531-.277.818-.785.286-.512.286-1.2l.388.06h-2.567v-1.339h3.836v1.136q0 1.213-.517 2.1a3.54 3.54 0 0 1-1.422 1.367q-.905.475-2.077.475-1.306 0-2.295-.586-.983-.591-1.537-1.676-.549-1.09-.549-2.585 0-1.145.323-2.045.327-.9.914-1.528a3.9 3.9 0 0 1 1.376-.96 4.4 4.4 0 0 1 1.717-.333 4.5 4.5 0 0 1 1.463.231q.679.226 1.205.646.531.42.873.997.342.578.448 1.275zm3.405 6.435v-7.091h1.621v1.182h.074q.193-.614.664-.946a1.83 1.83 0 0 1 1.085-.337q.14 0 .31.013.174.01.29.033v1.537a2 2 0 0 0-.337-.065 3 3 0 0 0-.438-.032q-.457 0-.822.199-.36.193-.568.54-.207.346-.207.798V184zm7.956.138q-1.04 0-1.801-.457a3.1 3.1 0 0 1-1.182-1.278q-.415-.822-.415-1.921 0-1.098.415-1.925a3.1 3.1 0 0 1 1.182-1.283q.762-.457 1.801-.457t1.8.457q.762.456 1.177 1.283.42.827.42 1.925 0 1.1-.42 1.921a3.06 3.06 0 0 1-1.177 1.278q-.762.457-1.8.457m.009-1.338q.562 0 .942-.31.378-.313.563-.84a3.5 3.5 0 0 0 .189-1.172 3.5 3.5 0 0 0-.189-1.178 1.86 1.86 0 0 0-.563-.844q-.38-.315-.942-.314-.577 0-.96.314-.38.313-.568.844a3.6 3.6 0 0 0-.185 1.178q0 .645.185 1.172.189.527.568.84.383.31.96.31m9.326-1.782v-4.109h1.672V184h-1.621v-1.26h-.074q-.24.595-.789.974-.545.378-1.344.378-.696 0-1.232-.309a2.15 2.15 0 0 1-.831-.909q-.3-.601-.3-1.45v-4.515h1.671v4.256q0 .675.369 1.072.37.397.97.397a1.52 1.52 0 0 0 1.283-.716q.226-.36.226-.9m3.39 5.641v-9.75h1.643v1.173h.097q.13-.26.365-.55.235-.295.637-.503.402-.212 1.025-.212.822 0 1.482.42.664.416 1.053 1.232.392.813.392 1.995 0 1.167-.383 1.985-.383.817-1.044 1.246-.66.43-1.495.43-.61 0-1.011-.203a2.1 2.1 0 0 1-.647-.49 3.2 3.2 0 0 1-.374-.549h-.069v3.776zm1.639-6.204q0 .688.194 1.204.198.517.568.808.373.287.904.287.555 0 .928-.296.374-.3.564-.817.193-.522.193-1.186 0-.66-.189-1.173a1.76 1.76 0 0 0-.563-.803q-.373-.291-.933-.291-.535 0-.909.281a1.73 1.73 0 0 0-.568.79q-.189.507-.189 1.196m9.784 3.545v-9.455h3.546q1.09 0 1.828.379.744.378 1.122 1.062.383.678.383 1.583 0 .91-.388 1.579a2.56 2.56 0 0 1-1.131 1.03q-.748.36-1.837.36h-2.525v-1.422h2.294q.638 0 1.043-.176.406-.18.601-.521.198-.346.198-.85 0-.502-.198-.858a1.27 1.27 0 0 0-.605-.545q-.406-.189-1.048-.189h-1.57V184zm4.885-4.284 2.34 4.284h-1.911l-2.299-4.284zm6.488 4.422q-1.038 0-1.8-.457a3.1 3.1 0 0 1-1.182-1.278q-.416-.822-.416-1.921 0-1.098.416-1.925a3.1 3.1 0 0 1 1.182-1.283q.762-.457 1.8-.457 1.04 0 1.801.457.761.456 1.177 1.283.42.827.42 1.925 0 1.1-.42 1.921a3.07 3.07 0 0 1-1.177 1.278q-.762.457-1.801.457m.009-1.338q.564 0 .942-.31.379-.313.563-.84.19-.527.19-1.172 0-.651-.19-1.178a1.85 1.85 0 0 0-.563-.844q-.378-.315-.942-.314-.576 0-.96.314a1.9 1.9 0 0 0-.568.844 3.6 3.6 0 0 0-.184 1.178q0 .645.184 1.172.19.527.568.84.384.31.96.31m6.478-8.255V184h-1.671v-9.455zm4.858 9.593q-1.067 0-1.842-.443a3 3 0 0 1-1.186-1.265q-.416-.82-.416-1.934 0-1.094.416-1.92.42-.831 1.172-1.293.753-.466 1.768-.466.656 0 1.238.212a2.8 2.8 0 0 1 1.034.646q.452.439.711 1.118.258.673.258 1.606v.513h-5.812v-1.127h4.21a1.8 1.8 0 0 0-.207-.854 1.5 1.5 0 0 0-.568-.595 1.6 1.6 0 0 0-.84-.217q-.513 0-.901.249-.388.244-.604.646a1.86 1.86 0 0 0-.217.873v.983q0 .618.226 1.062.226.438.632.674.406.231.951.231.364 0 .66-.102a1.5 1.5 0 0 0 .513-.309q.216-.204.328-.503l1.56.175a2.43 2.43 0 0 1-.563 1.08 2.74 2.74 0 0 1-1.053.711q-.642.249-1.468.249m16.314-4.865q0 1.528-.573 2.617-.567 1.085-1.551 1.662-.979.577-2.22.577t-2.226-.577q-.978-.582-1.551-1.666-.568-1.09-.568-2.613 0-1.529.568-2.613.573-1.09 1.551-1.667.984-.576 2.226-.577 1.241 0 2.22.577.984.577 1.551 1.667.573 1.084.573 2.613m-1.722 0q0-1.076-.337-1.815-.333-.743-.924-1.121a2.44 2.44 0 0 0-1.361-.384q-.771 0-1.362.384-.591.378-.928 1.121-.333.74-.333 1.815t.333 1.819q.337.738.928 1.121.591.38 1.362.379.77 0 1.361-.379.591-.383.924-1.121.337-.744.337-1.819m4.938.572V184h-1.671v-7.091h1.597v1.205h.083q.246-.595.781-.946.54-.351 1.334-.351.733 0 1.279.314.549.314.849.909.304.596.3 1.445V184h-1.671v-4.256q0-.711-.369-1.113-.366-.402-1.011-.402-.44 0-.781.194-.336.19-.531.55-.189.36-.189.872m7.922-5.3V184h-1.671v-9.455zm2.757 12.114a3.4 3.4 0 0 1-.632-.055 2.4 2.4 0 0 1-.457-.12l.388-1.302q.365.106.65.101a.8.8 0 0 0 .504-.18q.22-.17.374-.572l.143-.383-2.572-7.239h1.773l1.634 5.355h.074l1.639-5.355h1.777l-2.839 7.95a3.2 3.2 0 0 1-.526.965q-.328.406-.803.618-.471.217-1.127.217m9.434-6.514q0 1.727-.462 3.181a9.1 9.1 0 0 1-1.366 2.682h-1.574q.355-.457.655-1.117.305-.66.526-1.45.226-.79.351-1.634.13-.845.13-1.662 0-1.094-.222-2.216a11.7 11.7 0 0 0-.596-2.082q-.373-.96-.844-1.569h1.574a9 9 0 0 1 1.366 2.686q.462 1.45.462 3.181"/><path fill="#555962" d="M159.25 43.25a.75.75 0 0 0 0 1.5zm91.252 1.5a.75.75 0 0 0 0-1.5zm74.875-1.5a.75.75 0 0 0 0 1.5zm95.903 1.28a.75.75 0 0 0 0-1.06l-4.773-4.773a.75.75 0 1 0-1.06 1.06L419.689 44l-4.242 4.243a.75.75 0 0 0 1.06 1.06zM159.25 44v.75h91.252v-1.5H159.25zm166.127 0v.75h95.373v-1.5h-95.373z"/><path fill="#353841" d="M257.289 39.273h1.598l2.779 6.784h.102l2.778-6.784h1.598V48h-1.253v-6.315h-.081l-2.573 6.302h-1.04l-2.574-6.307h-.081V48h-1.253zm13.356 8.86q-.966 0-1.666-.414a2.8 2.8 0 0 1-1.074-1.172q-.375-.759-.375-1.777 0-1.006.375-1.773.38-.766 1.057-1.197.682-.43 1.594-.43.554 0 1.074.183.519.183.933.575t.652 1.018q.239.623.239 1.513v.452h-5.203v-.955h3.954q0-.503-.204-.89a1.55 1.55 0 0 0-.576-.618 1.6 1.6 0 0 0-.861-.226q-.537 0-.937.264-.396.26-.614.682a2 2 0 0 0-.213.908v.745q0 .657.23 1.117.235.46.652.703.418.239.976.239.363 0 .661-.103.298-.106.515-.315t.333-.516l1.206.218q-.145.533-.52.933-.37.396-.933.618a3.5 3.5 0 0 1-1.275.217m4.09-.133v-6.545h1.223v1.065h.081q.206-.54.669-.844.465-.307 1.113-.307.656 0 1.099.307.447.307.661.844h.068q.234-.525.745-.835.512-.316 1.219-.316.89 0 1.453.559.567.558.567 1.683V48h-1.274v-4.27q0-.664-.362-.963a1.32 1.32 0 0 0-.865-.298q-.623 0-.968.383-.345.38-.345.976V48h-1.27v-4.35q0-.534-.332-.857-.333-.324-.865-.324-.363 0-.669.191-.303.188-.49.525a1.6 1.6 0 0 0-.183.78V48zm10.576 0v-8.727h1.274v3.243h.077a3.5 3.5 0 0 1 .32-.473q.209-.27.579-.47.37-.204.98-.204.793 0 1.415.4.622.402.976 1.156.358.754.358 1.815t-.354 1.82q-.354.753-.971 1.163-.618.405-1.411.405-.597 0-.976-.2a1.85 1.85 0 0 1-.588-.47 3.6 3.6 0 0 1-.328-.477h-.107V48zm1.249-3.273q0 .69.2 1.21t.58.814q.378.29.928.29.571 0 .955-.302.384-.307.58-.831.2-.525.2-1.18 0-.649-.196-1.164a1.8 1.8 0 0 0-.58-.814q-.383-.298-.959-.298-.553 0-.937.285-.38.285-.575.797-.196.512-.196 1.193m8.85 3.405q-.968 0-1.667-.413a2.8 2.8 0 0 1-1.073-1.172q-.375-.759-.375-1.777 0-1.006.375-1.773.379-.766 1.056-1.197.682-.43 1.594-.43.553 0 1.074.183.52.183.933.575t.652 1.018q.239.623.239 1.513v.452h-5.203v-.955h3.954q0-.503-.204-.89a1.55 1.55 0 0 0-.576-.618 1.6 1.6 0 0 0-.86-.226q-.537 0-.938.264-.396.26-.614.682a2 2 0 0 0-.213.908v.745q0 .657.231 1.117.234.46.652.703.417.239.975.239.363 0 .661-.103.299-.106.515-.315t.333-.516l1.206.218q-.145.533-.52.933-.37.396-.933.618a3.5 3.5 0 0 1-1.274.217M299.5 48v-6.545h1.231v1.04h.068q.18-.53.631-.832a1.8 1.8 0 0 1 1.031-.306 5 5 0 0 1 .541.03v1.218a2 2 0 0 0-.272-.047 3 3 0 0 0-.392-.03q-.453 0-.806.192a1.43 1.43 0 0 0-.758 1.283V48zm15.2-4.364q0 1.398-.511 2.404-.512 1.001-1.402 1.542-.887.537-2.016.537-1.133 0-2.024-.537-.887-.54-1.398-1.547-.511-1.005-.511-2.399 0-1.397.511-2.399.512-1.005 1.398-1.542.89-.542 2.024-.542 1.13 0 2.016.542.89.537 1.402 1.542.511 1.002.511 2.4m-1.304 0q0-1.065-.345-1.794-.34-.732-.938-1.108a2.43 2.43 0 0 0-1.342-.379q-.754 0-1.347.38-.591.375-.937 1.107-.34.729-.341 1.794 0 1.065.341 1.799.346.728.937 1.108.592.375 1.347.375.75 0 1.342-.375.597-.38.938-1.108.345-.733.345-1.799m5.826-2.181v1.022h-3.698v-1.022zM316.538 48v-7.304q0-.615.268-1.018.268-.41.712-.61.442-.204.963-.204.384-.001.656.064.273.06.405.11l-.298 1.032a7 7 0 0 0-.23-.06 1.3 1.3 0 0 0-.341-.038q-.465 0-.665.23-.196.23-.196.665V48z"/><path fill="#bb3df5" d="M494.75 75.25a.75.75 0 0 0-1.5 0zm-1.5 5.647a.75.75 0 0 0 1.5 0zm91.688 14.353a.75.75 0 1 0 0 1.5zm33.032 45.03a.75.75 0 0 0 1.06 0l4.773-4.773a.749.749 0 1 0-1.06-1.06l-4.243 4.242-4.243-4.242a.749.749 0 1 0-1.06 1.06zM494 75.25h-.75v5.647h1.5V75.25zM584.938 96v.75h9.562v-1.5h-9.562zm33.562 24h-.75v19.75h1.5V120zm-24-24v.75c12.841 0 23.25 10.409 23.25 23.25h1.5c0-13.669-11.081-24.75-24.75-24.75z"/><path fill="#353841" d="M415.795 93.364a2.7 2.7 0 0 0-.332-.694 2.1 2.1 0 0 0-.49-.529 2.1 2.1 0 0 0-.652-.336 2.6 2.6 0 0 0-.797-.115q-.738 0-1.33.379t-.937 1.112q-.341.729-.341 1.786 0 1.06.345 1.794.345.732.946 1.112t1.368.38q.711 0 1.24-.29.533-.291.822-.819.294-.533.294-1.253l.341.064h-2.497V94.87h3.431v.993q0 1.099-.469 1.909-.465.805-1.287 1.244-.819.44-1.875.439-1.185 0-2.08-.546-.89-.545-1.389-1.546-.498-1.006-.498-2.387 0-1.043.289-1.875a4.1 4.1 0 0 1 .814-1.41q.53-.584 1.24-.891a3.9 3.9 0 0 1 1.564-.311q.708 0 1.317.209.614.208 1.091.592a3.35 3.35 0 0 1 1.223 2.075zm2.848 5.97V92.79h1.231v1.04h.069a1.58 1.58 0 0 1 .63-.831 1.8 1.8 0 0 1 1.031-.307 5 5 0 0 1 .542.03v1.219a2 2 0 0 0-.273-.047 3 3 0 0 0-.392-.03q-.452 0-.805.192a1.42 1.42 0 0 0-.759 1.282v3.998zm6.996.133q-.92 0-1.606-.422a2.84 2.84 0 0 1-1.066-1.18q-.38-.759-.379-1.773 0-1.02.379-1.782a2.84 2.84 0 0 1 1.066-1.184q.685-.423 1.606-.422.92 0 1.607.422.686.421 1.065 1.184.38.764.379 1.782 0 1.014-.379 1.772-.38.76-1.065 1.18-.687.423-1.607.423m.004-1.07q.597 0 .989-.315t.579-.84q.192-.524.192-1.155 0-.625-.192-1.15a1.9 1.9 0 0 0-.579-.848q-.392-.32-.989-.32-.6 0-.997.32a1.9 1.9 0 0 0-.584.848q-.187.525-.187 1.15 0 .63.187 1.155.192.525.584.84.397.315.997.315m8.484-1.777v-3.831h1.278v6.546h-1.253V98.2h-.068q-.225.524-.724.874-.494.345-1.232.345-.63 0-1.116-.277a1.95 1.95 0 0 1-.759-.831q-.273-.55-.273-1.36V92.79h1.275v4.01q0 .669.37 1.065.37.397.963.397.358 0 .712-.18.358-.18.592-.54.239-.363.235-.921m2.858 5.169v-9h1.244v1.061h.107q.11-.204.32-.473.209-.268.579-.469.37-.204.98-.204.793 0 1.415.4t.976 1.155q.358.754.358 1.816 0 1.06-.354 1.82-.354.753-.971 1.163-.619.404-1.411.404-.597 0-.976-.2a1.85 1.85 0 0 1-.588-.469 3.6 3.6 0 0 1-.328-.477h-.077v3.473zm1.249-5.727q0 .69.2 1.21t.58.814q.378.29.929.29.57 0 .954-.303.384-.306.58-.83.2-.525.2-1.181 0-.648-.196-1.164a1.8 1.8 0 0 0-.58-.813q-.383-.3-.958-.299-.554 0-.938.286-.38.285-.575.797-.196.51-.196 1.193m9.171 3.273v-8.728h3.111q1.019 0 1.688.37.67.372 1.001 1.015.333.639.333 1.44 0 .805-.337 1.45a2.44 2.44 0 0 1-1.006 1.014q-.669.37-1.683.37h-2.139V95.15h2.02q.643 0 1.044-.222.4-.225.588-.613t.187-.882q0-.495-.187-.878a1.35 1.35 0 0 0-.593-.601q-.4-.217-1.056-.217h-1.654v7.598zm10.181.132q-.967 0-1.666-.414a2.8 2.8 0 0 1-1.074-1.172q-.375-.758-.375-1.777 0-1.005.375-1.772.38-.767 1.057-1.198.681-.43 1.593-.43.555 0 1.074.183.52.183.934.575.412.392.652 1.019.238.622.238 1.513v.451h-5.203v-.954h3.955q0-.503-.205-.89a1.54 1.54 0 0 0-.575-.619 1.6 1.6 0 0 0-.861-.226q-.537 0-.938.265-.396.26-.613.681-.213.418-.213.908v.746q0 .656.23 1.116.234.46.652.703.418.24.976.239.362 0 .66-.102.298-.106.516-.316a1.36 1.36 0 0 0 .332-.515l1.206.217q-.145.532-.52.933-.37.397-.933.618a3.5 3.5 0 0 1-1.274.218m4.09-.132V92.79h1.231v1.04h.069a1.58 1.58 0 0 1 .63-.831 1.8 1.8 0 0 1 1.032-.307 5 5 0 0 1 .541.03v1.219a2 2 0 0 0-.273-.047 3 3 0 0 0-.392-.03q-.452 0-.805.192a1.42 1.42 0 0 0-.759 1.282v3.998zm4.473 0V92.79h1.223v1.065h.081q.206-.54.669-.843.465-.307 1.113-.307.656 0 1.099.307.447.306.661.843h.068q.235-.524.745-.835.512-.315 1.219-.315.89 0 1.453.558.567.558.567 1.683v4.39h-1.274v-4.27q0-.666-.362-.963a1.32 1.32 0 0 0-.865-.299q-.623 0-.968.384-.345.38-.345.976v4.172h-1.27v-4.351q0-.533-.332-.857-.333-.324-.865-.324-.363 0-.669.192-.303.188-.49.524a1.6 1.6 0 0 0-.184.78v4.035zm10.474 0V92.79h1.274v6.546zm.643-7.556a.8.8 0 0 1-.571-.221.72.72 0 0 1-.234-.537q0-.316.234-.537a.8.8 0 0 1 .571-.226q.333 0 .567.226a.7.7 0 0 1 .239.537q0 .31-.239.537a.8.8 0 0 1-.567.221m7.118 2.608-1.155.205a1.4 1.4 0 0 0-.23-.422 1.1 1.1 0 0 0-.418-.328 1.5 1.5 0 0 0-.66-.128q-.541 0-.904.243-.362.239-.362.618a.65.65 0 0 0 .243.528q.243.2.784.328l1.04.239q.903.208 1.347.643.443.434.443 1.13 0 .587-.341 1.048-.337.456-.942.716-.6.26-1.393.26-1.1 0-1.794-.47-.695-.472-.853-1.341l1.232-.188q.115.481.473.729.358.243.933.243.627 0 1.002-.26.375-.265.375-.644a.67.67 0 0 0-.231-.515q-.225-.21-.694-.316l-1.108-.243q-.917-.208-1.355-.665-.435-.455-.435-1.154 0-.58.324-1.014a2.1 2.1 0 0 1 .895-.678 3.3 3.3 0 0 1 1.308-.247q1.06 0 1.671.46.609.456.805 1.223m6.302 0-1.155.205a1.4 1.4 0 0 0-.23-.422 1.15 1.15 0 0 0-.418-.328 1.5 1.5 0 0 0-.661-.128q-.54 0-.903.243-.362.239-.362.618a.65.65 0 0 0 .243.528q.243.2.784.328l1.04.239q.903.208 1.346.643.443.434.443 1.13 0 .587-.341 1.048-.336.456-.941.716-.601.26-1.394.26-1.1 0-1.794-.47-.695-.472-.852-1.341l1.231-.188q.116.481.473.729.358.243.934.243.626 0 1.001-.26.375-.265.375-.644a.67.67 0 0 0-.23-.515q-.226-.21-.695-.316l-1.108-.243q-.915-.208-1.355-.665-.434-.455-.434-1.154 0-.58.324-1.014.323-.435.894-.678a3.3 3.3 0 0 1 1.309-.247q1.06 0 1.67.46.61.456.806 1.223m1.396 4.948V92.79h1.274v6.546zm.644-7.556a.8.8 0 0 1-.571-.221.72.72 0 0 1-.235-.537q0-.316.235-.537a.8.8 0 0 1 .571-.226.8.8 0 0 1 .567.226.7.7 0 0 1 .238.537.7.7 0 0 1-.238.537.8.8 0 0 1-.567.221m4.97 7.688q-.92 0-1.607-.422a2.85 2.85 0 0 1-1.065-1.18q-.38-.759-.379-1.773 0-1.02.379-1.782a2.84 2.84 0 0 1 1.065-1.184q.687-.423 1.607-.422.92 0 1.606.422.687.421 1.066 1.184.379.764.379 1.782 0 1.014-.379 1.772-.38.76-1.066 1.18-.686.423-1.606.423m.004-1.07q.597 0 .989-.315t.579-.84q.192-.524.192-1.155 0-.625-.192-1.15a1.9 1.9 0 0 0-.579-.848q-.393-.32-.989-.32-.601 0-.997.32a1.9 1.9 0 0 0-.584.848q-.188.525-.188 1.15 0 .63.188 1.155.192.525.584.84.396.315.997.315m5.611-2.949v3.887h-1.274V92.79h1.223v1.065h.081q.226-.52.707-.835.486-.315 1.223-.315.67 0 1.172.281.503.277.78.827t.277 1.36v4.163h-1.274v-4.01q0-.713-.371-1.113-.37-.404-1.018-.404a1.6 1.6 0 0 0-.789.191 1.4 1.4 0 0 0-.541.563q-.195.367-.196.886m8.912 3.887v-8.728h5.472v1.134h-4.155V94.4h3.869v1.13h-3.869v2.67h4.206v1.135zm8.27-3.887v3.887h-1.274V92.79h1.223v1.065h.081q.226-.52.708-.835.485-.315 1.223-.315.669 0 1.171.281.504.277.78.827.277.55.277 1.36v4.163h-1.274v-4.01q0-.713-.371-1.113-.37-.404-1.018-.404-.444 0-.788.191a1.4 1.4 0 0 0-.542.563q-.196.367-.196.886m8.821-2.659v1.023h-3.575V92.79zm-2.616-1.568h1.274v6.192q0 .37.111.558a.58.58 0 0 0 .285.251q.18.064.388.064.153 0 .269-.021l.179-.034.23 1.052a2 2 0 0 1-.316.086 2.5 2.5 0 0 1-.511.05 2.2 2.2 0 0 1-.937-.178 1.6 1.6 0 0 1-.704-.58q-.268-.392-.268-.984zm3.894 8.114V92.79h1.274v6.546zm.643-7.556a.8.8 0 0 1-.571-.221.72.72 0 0 1-.234-.537q0-.316.234-.537a.8.8 0 0 1 .571-.226q.333 0 .567.226a.7.7 0 0 1 .239.537q0 .31-.239.537a.8.8 0 0 1-.567.221m5.269 1.01v1.023h-3.576V92.79zm-2.617-1.568h1.274v6.192q0 .37.111.558a.58.58 0 0 0 .286.251q.178.064.387.064.154 0 .269-.021l.179-.034.23 1.052a2.5 2.5 0 0 1-.827.136 2.2 2.2 0 0 1-.937-.178 1.6 1.6 0 0 1-.703-.58q-.269-.392-.269-.984zm4.699 10.568q-.285 0-.519-.047a1.6 1.6 0 0 1-.35-.094l.307-1.044q.35.094.622.081a.74.74 0 0 0 .482-.204q.213-.192.375-.627l.157-.434-2.395-6.631h1.364l1.658 5.08h.068l1.658-5.08h1.367l-2.697 7.419a3 3 0 0 1-.477.865 1.85 1.85 0 0 1-.691.537 2.3 2.3 0 0 1-.929.179m9.274-6.818q0-1.602.422-2.949a8.8 8.8 0 0 1 1.232-2.484h1.167q-.315.42-.588 1.035-.272.614-.477 1.347-.204.729-.32 1.513-.115.78-.115 1.538 0 1.013.201 2.054.2 1.04.541 1.93.34.89.758 1.453h-1.167a8.8 8.8 0 0 1-1.232-2.484q-.422-1.347-.422-2.953m10.041-1.607a2.7 2.7 0 0 0-.332-.694 2.12 2.12 0 0 0-1.142-.865 2.6 2.6 0 0 0-.797-.115q-.737 0-1.33.379-.591.379-.937 1.112-.34.729-.341 1.786 0 1.06.345 1.794.346.732.946 1.112.601.38 1.368.38.712 0 1.24-.29.532-.291.823-.819.294-.533.294-1.253l.341.064h-2.498V94.87h3.431v.993q0 1.099-.469 1.909-.465.805-1.287 1.244-.817.44-1.875.439-1.185 0-2.079-.546-.89-.545-1.39-1.546-.498-1.006-.498-2.387 0-1.043.29-1.875a4.1 4.1 0 0 1 .814-1.41q.528-.584 1.24-.891a3.9 3.9 0 0 1 1.564-.311q.707 0 1.316.209.614.208 1.091.592a3.35 3.35 0 0 1 1.223 2.075zm2.95 5.97v-8.727h3.111q1.019 0 1.688.37.668.372 1.001 1.015.332.639.332 1.44 0 .805-.336 1.45a2.44 2.44 0 0 1-1.006 1.014q-.669.37-1.683.37h-2.139V95.15h2.02q.644 0 1.044-.222.4-.225.588-.613t.187-.882q0-.495-.187-.878a1.35 1.35 0 0 0-.593-.601q-.4-.217-1.056-.217h-1.654v7.598zm7.544 0v-8.727h5.472v1.134h-4.155V94.4h3.869v1.13h-3.869v2.67h4.206v1.135zm9.447-4.363q0 1.606-.422 2.953a8.8 8.8 0 0 1-1.232 2.484h-1.167q.315-.422.588-1.035.273-.615.477-1.343.204-.732.32-1.517.115-.784.115-1.542 0-1.01-.201-2.05a11.4 11.4 0 0 0-.541-1.93q-.34-.89-.758-1.453h1.167q.81 1.137 1.232 2.484t.422 2.949"/><path fill="#f53d7d" d="M494.75 75.25a.75.75 0 0 0-1.5 0zm-1.5 5.647a.75.75 0 0 0 1.5 0zM403.062 98.75a.75.75 0 1 0 0-1.5zm-26.092 41.53a.75.75 0 0 0 1.06 0l4.773-4.773a.749.749 0 1 0-1.06-1.06l-4.243 4.242-4.243-4.242a.749.749 0 1 0-1.06 1.06zM494 75.25h-.75v5.647h1.5V75.25zM403.062 98v-.75H401.5v1.5h1.562zM377.5 122h-.75v17.75h1.5V122zm24-24v-.75c-13.669 0-24.75 11.081-24.75 24.75h1.5c0-12.841 10.409-23.25 23.25-23.25z"/></g><defs><clipPath id="a"><path fill="#fff" d="M0 0h720v215H0z"/></clipPath><clipPath id="b"><path fill="#fff" d="M0 0h720v314H0z"/></clipPath></defs></svg>