<svg xmlns="http://www.w3.org/2000/svg" width="720" height="273" fill="none"><g clip-path="url(#a)"><path fill="#17181c" d="M0 0h720v273H0z"/><g fill="#353841" clip-path="url(#b)" opacity=".5"><path d="M-11 324a1 1 0 1 1 0 2 1 1 0 0 1 0-2M3 324a1 1 0 1 1 0 2 1 1 0 0 1 0-2M17 324a1 1 0 1 1 0 2 1 1 0 0 1 0-2M31 324a1 1 0 1 1 0 2 1 1 0 0 1 0-2M45 324a1 1 0 1 1 0 2 1 1 0 0 1 0-2M59 324a1 1 0 1 1 0 2 1 1 0 0 1 0-2M73 324a1 1 0 1 1 0 2 1 1 0 0 1 0-2M87 324a1 1 0 1 1 0 2 1 1 0 0 1 0-2M101 324a1 1 0 1 1 0 2 1 1 0 0 1 0-2M115 324a1 1 0 1 1 0 2 1 1 0 0 1 0-2M129 324a1 1 0 1 1 0 2 1 1 0 0 1 0-2M143 324a1 1 0 1 1 0 2 1 1 0 0 1 0-2M157 324a1 1 0 1 1 0 2 1 1 0 0 1 0-2M171 324a1 1 0 1 1 0 2 1 1 0 0 1 0-2M185 324a1 1 0 1 1 0 2 1 1 0 0 1 0-2M199 324a1 1 0 1 1 0 2 1 1 0 0 1 0-2M213 324a1 1 0 1 1 0 2 1 1 0 0 1 0-2M227 324a1 1 0 1 1 0 2 1 1 0 0 1 0-2M241 324a1 1 0 1 1 0 2 1 1 0 0 1 0-2M255 324a1 1 0 1 1 0 2 1 1 0 0 1 0-2M269 324a1 1 0 1 1 0 2 1 1 0 0 1 0-2M283 324a1 1 0 1 1 0 2 1 1 0 0 1 0-2M297 324a1 1 0 1 1 0 2 1 1 0 0 1 0-2M311 324a1 1 0 1 1 0 2 1 1 0 0 1 0-2M325 324a1 1 0 1 1 0 2 1 1 0 0 1 0-2M339 324a1 1 0 1 1 0 2 1 1 0 0 1 0-2M353 324a1 1 0 1 1 0 2 1 1 0 0 1 0-2M367 324a1 1 0 1 1 0 2 1 1 0 0 1 0-2M381 324a1 1 0 1 1 0 2 1 1 0 0 1 0-2M395 324a1 1 0 1 1 0 2 1 1 0 0 1 0-2M409 324a1 1 0 1 1 0 2 1 1 0 0 1 0-2M423 324a1 1 0 1 1 0 2 1 1 0 0 1 0-2M437 324a1 1 0 1 1 0 2 1 1 0 0 1 0-2M451 324a1 1 0 1 1 0 2 1 1 0 0 1 0-2M465 324a1 1 0 1 1 0 2 1 1 0 0 1 0-2M479 324a1 1 0 1 1 0 2 1 1 0 0 1 0-2M493 324a1 1 0 1 1 0 2 1 1 0 0 1 0-2M507 324a1 1 0 1 1 0 2 1 1 0 0 1 0-2M521 324a1 1 0 1 1 0 2 1 1 0 0 1 0-2M535 324a1 1 0 1 1 0 2 1 1 0 0 1 0-2M549 324a1 1 0 1 1 0 2 1 1 0 0 1 0-2M563 324a1 1 0 1 1 0 2 1 1 0 0 1 0-2M577 324a1 1 0 1 1 0 2 1 1 0 0 1 0-2M591 324a1 1 0 1 1 0 2 1 1 0 0 1 0-2M605 324a1 1 0 1 1 0 2 1 1 0 0 1 0-2M619 324a1 1 0 1 1 0 2 1 1 0 0 1 0-2M633 324a1 1 0 1 1 0 2 1 1 0 0 1 0-2M647 324a1 1 0 1 1 0 2 1 1 0 0 1 0-2M661 324a1 1 0 1 1 0 2 1 1 0 0 1 0-2M675 324a1 1 0 1 1 0 2 1 1 0 0 1 0-2M689 324a1 1 0 1 1 0 2 1 1 0 0 1 0-2M703 324a1 1 0 1 1 0 2 1 1 0 0 1 0-2M-11 310a1 1 0 1 1 0 2 1 1 0 0 1 0-2M3 310a1 1 0 1 1 0 2 1 1 0 0 1 0-2M17 310a1 1 0 1 1 0 2 1 1 0 0 1 0-2M31 310a1 1 0 1 1 0 2 1 1 0 0 1 0-2M45 310a1 1 0 1 1 0 2 1 1 0 0 1 0-2M59 310a1 1 0 1 1 0 2 1 1 0 0 1 0-2M73 310a1 1 0 1 1 0 2 1 1 0 0 1 0-2M87 310a1 1 0 1 1 0 2 1 1 0 0 1 0-2M101 310a1 1 0 1 1 0 2 1 1 0 0 1 0-2M115 310a1 1 0 1 1 0 2 1 1 0 0 1 0-2M129 310a1 1 0 1 1 0 2 1 1 0 0 1 0-2M143 310a1 1 0 1 1 0 2 1 1 0 0 1 0-2M157 310a1 1 0 1 1 0 2 1 1 0 0 1 0-2M171 310a1 1 0 1 1 0 2 1 1 0 0 1 0-2M185 310a1 1 0 1 1 0 2 1 1 0 0 1 0-2M199 310a1 1 0 1 1 0 2 1 1 0 0 1 0-2M213 310a1 1 0 1 1 0 2 1 1 0 0 1 0-2M227 310a1 1 0 1 1 0 2 1 1 0 0 1 0-2M241 310a1 1 0 1 1 0 2 1 1 0 0 1 0-2M255 310a1 1 0 1 1 0 2 1 1 0 0 1 0-2M269 310a1 1 0 1 1 0 2 1 1 0 0 1 0-2M283 310a1 1 0 1 1 0 2 1 1 0 0 1 0-2M297 310a1 1 0 1 1 0 2 1 1 0 0 1 0-2M311 310a1 1 0 1 1 0 2 1 1 0 0 1 0-2M325 310a1 1 0 1 1 0 2 1 1 0 0 1 0-2M339 310a1 1 0 1 1 0 2 1 1 0 0 1 0-2M353 310a1 1 0 1 1 0 2 1 1 0 0 1 0-2M367 310a1 1 0 1 1 0 2 1 1 0 0 1 0-2M381 310a1 1 0 1 1 0 2 1 1 0 0 1 0-2M395 310a1 1 0 1 1 0 2 1 1 0 0 1 0-2M409 310a1 1 0 1 1 0 2 1 1 0 0 1 0-2M423 310a1 1 0 1 1 0 2 1 1 0 0 1 0-2M437 310a1 1 0 1 1 0 2 1 1 0 0 1 0-2M451 310a1 1 0 1 1 0 2 1 1 0 0 1 0-2M465 310a1 1 0 1 1 0 2 1 1 0 0 1 0-2M479 310a1 1 0 1 1 0 2 1 1 0 0 1 0-2M493 310a1 1 0 1 1 0 2 1 1 0 0 1 0-2M507 310a1 1 0 1 1 0 2 1 1 0 0 1 0-2M521 310a1 1 0 1 1 0 2 1 1 0 0 1 0-2M535 310a1 1 0 1 1 0 2 1 1 0 0 1 0-2M549 310a1 1 0 1 1 0 2 1 1 0 0 1 0-2M563 310a1 1 0 1 1 0 2 1 1 0 0 1 0-2M577 310a1 1 0 1 1 0 2 1 1 0 0 1 0-2M591 310a1 1 0 1 1 0 2 1 1 0 0 1 0-2M605 310a1 1 0 1 1 0 2 1 1 0 0 1 0-2M619 310a1 1 0 1 1 0 2 1 1 0 0 1 0-2M633 310a1 1 0 1 1 0 2 1 1 0 0 1 0-2M647 310a1 1 0 1 1 0 2 1 1 0 0 1 0-2M661 310a1 1 0 1 1 0 2 1 1 0 0 1 0-2M675 310a1 1 0 1 1 0 2 1 1 0 0 1 0-2M689 310a1 1 0 1 1 0 2 1 1 0 0 1 0-2M703 310a1 1 0 1 1 0 2 1 1 0 0 1 0-2M717 310a1 1 0 1 1 0 2 1 1 0 0 1 0-2M-11 296a1 1 0 1 1 0 2 1 1 0 0 1 0-2M3 296a1 1 0 1 1 0 2 1 1 0 0 1 0-2M17 296a1 1 0 1 1 0 2 1 1 0 0 1 0-2M31 296a1 1 0 1 1 0 2 1 1 0 0 1 0-2M45 296a1 1 0 1 1 0 2 1 1 0 0 1 0-2M59 296a1 1 0 1 1 0 2 1 1 0 0 1 0-2M73 296a1 1 0 1 1 0 2 1 1 0 0 1 0-2M87 296a1 1 0 1 1 0 2 1 1 0 0 1 0-2M101 296a1 1 0 1 1 0 2 1 1 0 0 1 0-2M115 296a1 1 0 1 1 0 2 1 1 0 0 1 0-2M129 296a1 1 0 1 1 0 2 1 1 0 0 1 0-2M143 296a1 1 0 1 1 0 2 1 1 0 0 1 0-2M157 296a1 1 0 1 1 0 2 1 1 0 0 1 0-2M171 296a1 1 0 1 1 0 2 1 1 0 0 1 0-2M185 296a1 1 0 1 1 0 2 1 1 0 0 1 0-2M199 296a1 1 0 1 1 0 2 1 1 0 0 1 0-2M213 296a1 1 0 1 1 0 2 1 1 0 0 1 0-2M227 296a1 1 0 1 1 0 2 1 1 0 0 1 0-2M241 296a1 1 0 1 1 0 2 1 1 0 0 1 0-2M255 296a1 1 0 1 1 0 2 1 1 0 0 1 0-2M269 296a1 1 0 1 1 0 2 1 1 0 0 1 0-2M283 296a1 1 0 1 1 0 2 1 1 0 0 1 0-2M297 296a1 1 0 1 1 0 2 1 1 0 0 1 0-2M311 296a1 1 0 1 1 0 2 1 1 0 0 1 0-2M325 296a1 1 0 1 1 0 2 1 1 0 0 1 0-2M339 296a1 1 0 1 1 0 2 1 1 0 0 1 0-2M353 296a1 1 0 1 1 0 2 1 1 0 0 1 0-2M367 296a1 1 0 1 1 0 2 1 1 0 0 1 0-2M381 296a1 1 0 1 1 0 2 1 1 0 0 1 0-2M395 296a1 1 0 1 1 0 2 1 1 0 0 1 0-2M409 296a1 1 0 1 1 0 2 1 1 0 0 1 0-2M423 296a1 1 0 1 1 0 2 1 1 0 0 1 0-2M437 296a1 1 0 1 1 0 2 1 1 0 0 1 0-2M451 296a1 1 0 1 1 0 2 1 1 0 0 1 0-2M465 296a1 1 0 1 1 0 2 1 1 0 0 1 0-2M479 296a1 1 0 1 1 0 2 1 1 0 0 1 0-2M493 296a1 1 0 1 1 0 2 1 1 0 0 1 0-2M507 296a1 1 0 1 1 0 2 1 1 0 0 1 0-2M521 296a1 1 0 1 1 0 2 1 1 0 0 1 0-2M535 296a1 1 0 1 1 0 2 1 1 0 0 1 0-2M549 296a1 1 0 1 1 0 2 1 1 0 0 1 0-2M563 296a1 1 0 1 1 0 2 1 1 0 0 1 0-2M577 296a1 1 0 1 1 0 2 1 1 0 0 1 0-2M591 296a1 1 0 1 1 0 2 1 1 0 0 1 0-2M605 296a1 1 0 1 1 0 2 1 1 0 0 1 0-2M619 296a1 1 0 1 1 0 2 1 1 0 0 1 0-2M633 296a1 1 0 1 1 0 2 1 1 0 0 1 0-2M647 296a1 1 0 1 1 0 2 1 1 0 0 1 0-2M661 296a1 1 0 1 1 0 2 1 1 0 0 1 0-2M675 296a1 1 0 1 1 0 2 1 1 0 0 1 0-2M689 296a1 1 0 1 1 0 2 1 1 0 0 1 0-2M703 296a1 1 0 1 1 0 2 1 1 0 0 1 0-2M717 296a1 1 0 1 1 0 2 1 1 0 0 1 0-2M-11 282a1 1 0 1 1 0 2 1 1 0 0 1 0-2M3 282a1 1 0 1 1 0 2 1 1 0 0 1 0-2M17 282a1 1 0 1 1 0 2 1 1 0 0 1 0-2M31 282a1 1 0 1 1 0 2 1 1 0 0 1 0-2M45 282a1 1 0 1 1 0 2 1 1 0 0 1 0-2M59 282a1 1 0 1 1 0 2 1 1 0 0 1 0-2M73 282a1 1 0 1 1 0 2 1 1 0 0 1 0-2M87 282a1 1 0 1 1 0 2 1 1 0 0 1 0-2M101 282a1 1 0 1 1 0 2 1 1 0 0 1 0-2M115 282a1 1 0 1 1 0 2 1 1 0 0 1 0-2M129 282a1 1 0 1 1 0 2 1 1 0 0 1 0-2M143 282a1 1 0 1 1 0 2 1 1 0 0 1 0-2M157 282a1 1 0 1 1 0 2 1 1 0 0 1 0-2M171 282a1 1 0 1 1 0 2 1 1 0 0 1 0-2M185 282a1 1 0 1 1 0 2 1 1 0 0 1 0-2M199 282a1 1 0 1 1 0 2 1 1 0 0 1 0-2M213 282a1 1 0 1 1 0 2 1 1 0 0 1 0-2M227 282a1 1 0 1 1 0 2 1 1 0 0 1 0-2M241 282a1 1 0 1 1 0 2 1 1 0 0 1 0-2M255 282a1 1 0 1 1 0 2 1 1 0 0 1 0-2M269 282a1 1 0 1 1 0 2 1 1 0 0 1 0-2M283 282a1 1 0 1 1 0 2 1 1 0 0 1 0-2M297 282a1 1 0 1 1 0 2 1 1 0 0 1 0-2M311 282a1 1 0 1 1 0 2 1 1 0 0 1 0-2M325 282a1 1 0 1 1 0 2 1 1 0 0 1 0-2M339 282a1 1 0 1 1 0 2 1 1 0 0 1 0-2M353 282a1 1 0 1 1 0 2 1 1 0 0 1 0-2M367 282a1 1 0 1 1 0 2 1 1 0 0 1 0-2M381 282a1 1 0 1 1 0 2 1 1 0 0 1 0-2M395 282a1 1 0 1 1 0 2 1 1 0 0 1 0-2M409 282a1 1 0 1 1 0 2 1 1 0 0 1 0-2M423 282a1 1 0 1 1 0 2 1 1 0 0 1 0-2M437 282a1 1 0 1 1 0 2 1 1 0 0 1 0-2M451 282a1 1 0 1 1 0 2 1 1 0 0 1 0-2M465 282a1 1 0 1 1 0 2 1 1 0 0 1 0-2M479 282a1 1 0 1 1 0 2 1 1 0 0 1 0-2M493 282a1 1 0 1 1 0 2 1 1 0 0 1 0-2M507 282a1 1 0 1 1 0 2 1 1 0 0 1 0-2M521 282a1 1 0 1 1 0 2 1 1 0 0 1 0-2M535 282a1 1 0 1 1 0 2 1 1 0 0 1 0-2M549 282a1 1 0 1 1 0 2 1 1 0 0 1 0-2M563 282a1 1 0 1 1 0 2 1 1 0 0 1 0-2M577 282a1 1 0 1 1 0 2 1 1 0 0 1 0-2M591 282a1 1 0 1 1 0 2 1 1 0 0 1 0-2M605 282a1 1 0 1 1 0 2 1 1 0 0 1 0-2M619 282a1 1 0 1 1 0 2 1 1 0 0 1 0-2M633 282a1 1 0 1 1 0 2 1 1 0 0 1 0-2M647 282a1 1 0 1 1 0 2 1 1 0 0 1 0-2M661 282a1 1 0 1 1 0 2 1 1 0 0 1 0-2M675 282a1 1 0 1 1 0 2 1 1 0 0 1 0-2M689 282a1 1 0 1 1 0 2 1 1 0 0 1 0-2M703 282a1 1 0 1 1 0 2 1 1 0 0 1 0-2M717 282a1 1 0 1 1 0 2 1 1 0 0 1 0-2M-11 268a1 1 0 1 1 0 2 1 1 0 0 1 0-2M3 268a1 1 0 1 1 0 2 1 1 0 0 1 0-2M17 268a1 1 0 1 1 0 2 1 1 0 0 1 0-2M31 268a1 1 0 1 1 0 2 1 1 0 0 1 0-2M45 268a1 1 0 1 1 0 2 1 1 0 0 1 0-2M59 268a1 1 0 1 1 0 2 1 1 0 0 1 0-2M73 268a1 1 0 1 1 0 2 1 1 0 0 1 0-2M87 268a1 1 0 1 1 0 2 1 1 0 0 1 0-2M101 268a1 1 0 1 1 0 2 1 1 0 0 1 0-2M115 268a1 1 0 1 1 0 2 1 1 0 0 1 0-2M129 268a1 1 0 1 1 0 2 1 1 0 0 1 0-2M143 268a1 1 0 1 1 0 2 1 1 0 0 1 0-2M157 268a1 1 0 1 1 0 2 1 1 0 0 1 0-2M171 268a1 1 0 1 1 0 2 1 1 0 0 1 0-2M185 268a1 1 0 1 1 0 2 1 1 0 0 1 0-2M199 268a1 1 0 1 1 0 2 1 1 0 0 1 0-2M213 268a1 1 0 1 1 0 2 1 1 0 0 1 0-2M227 268a1 1 0 1 1 0 2 1 1 0 0 1 0-2M241 268a1 1 0 1 1 0 2 1 1 0 0 1 0-2M255 268a1 1 0 1 1 0 2 1 1 0 0 1 0-2M269 268a1 1 0 1 1 0 2 1 1 0 0 1 0-2M283 268a1 1 0 1 1 0 2 1 1 0 0 1 0-2M297 268a1 1 0 1 1 0 2 1 1 0 0 1 0-2M311 268a1 1 0 1 1 0 2 1 1 0 0 1 0-2M325 268a1 1 0 1 1 0 2 1 1 0 0 1 0-2M339 268a1 1 0 1 1 0 2 1 1 0 0 1 0-2M353 268a1 1 0 1 1 0 2 1 1 0 0 1 0-2M367 268a1 1 0 1 1 0 2 1 1 0 0 1 0-2M381 268a1 1 0 1 1 0 2 1 1 0 0 1 0-2M395 268a1 1 0 1 1 0 2 1 1 0 0 1 0-2M409 268a1 1 0 1 1 0 2 1 1 0 0 1 0-2M423 268a1 1 0 1 1 0 2 1 1 0 0 1 0-2M437 268a1 1 0 1 1 0 2 1 1 0 0 1 0-2M451 268a1 1 0 1 1 0 2 1 1 0 0 1 0-2M465 268a1 1 0 1 1 0 2 1 1 0 0 1 0-2M479 268a1 1 0 1 1 0 2 1 1 0 0 1 0-2M493 268a1 1 0 1 1 0 2 1 1 0 0 1 0-2M507 268a1 1 0 1 1 0 2 1 1 0 0 1 0-2M521 268a1 1 0 1 1 0 2 1 1 0 0 1 0-2M535 268a1 1 0 1 1 0 2 1 1 0 0 1 0-2M549 268a1 1 0 1 1 0 2 1 1 0 0 1 0-2M563 268a1 1 0 1 1 0 2 1 1 0 0 1 0-2M577 268a1 1 0 1 1 0 2 1 1 0 0 1 0-2M591 268a1 1 0 1 1 0 2 1 1 0 0 1 0-2M605 268a1 1 0 1 1 0 2 1 1 0 0 1 0-2M619 268a1 1 0 1 1 0 2 1 1 0 0 1 0-2M633 268a1 1 0 1 1 0 2 1 1 0 0 1 0-2M647 268a1 1 0 1 1 0 2 1 1 0 0 1 0-2M661 268a1 1 0 1 1 0 2 1 1 0 0 1 0-2M675 268a1 1 0 1 1 0 2 1 1 0 0 1 0-2M689 268a1 1 0 1 1 0 2 1 1 0 0 1 0-2M703 268a1 1 0 1 1 0 2 1 1 0 0 1 0-2M717 268a1 1 0 1 1 0 2 1 1 0 0 1 0-2M-11 254a1 1 0 1 1 0 2 1 1 0 0 1 0-2M3 254a1 1 0 1 1 0 2 1 1 0 0 1 0-2M17 254a1 1 0 1 1 0 2 1 1 0 0 1 0-2M31 254a1 1 0 1 1 0 2 1 1 0 0 1 0-2M45 254a1 1 0 1 1 0 2 1 1 0 0 1 0-2M59 254a1 1 0 1 1 0 2 1 1 0 0 1 0-2M73 254a1 1 0 1 1 0 2 1 1 0 0 1 0-2M87 254a1 1 0 1 1 0 2 1 1 0 0 1 0-2M101 254a1 1 0 1 1 0 2 1 1 0 0 1 0-2M115 254a1 1 0 1 1 0 2 1 1 0 0 1 0-2M129 254a1 1 0 1 1 0 2 1 1 0 0 1 0-2M143 254a1 1 0 1 1 0 2 1 1 0 0 1 0-2M157 254a1 1 0 1 1 0 2 1 1 0 0 1 0-2M171 254a1 1 0 1 1 0 2 1 1 0 0 1 0-2M185 254a1 1 0 1 1 0 2 1 1 0 0 1 0-2M199 254a1 1 0 1 1 0 2 1 1 0 0 1 0-2M213 254a1 1 0 1 1 0 2 1 1 0 0 1 0-2M227 254a1 1 0 1 1 0 2 1 1 0 0 1 0-2M241 254a1 1 0 1 1 0 2 1 1 0 0 1 0-2M255 254a1 1 0 1 1 0 2 1 1 0 0 1 0-2M269 254a1 1 0 1 1 0 2 1 1 0 0 1 0-2M283 254a1 1 0 1 1 0 2 1 1 0 0 1 0-2M297 254a1 1 0 1 1 0 2 1 1 0 0 1 0-2M311 254a1 1 0 1 1 0 2 1 1 0 0 1 0-2M325 254a1 1 0 1 1 0 2 1 1 0 0 1 0-2M339 254a1 1 0 1 1 0 2 1 1 0 0 1 0-2M353 254a1 1 0 1 1 0 2 1 1 0 0 1 0-2M367 254a1 1 0 1 1 0 2 1 1 0 0 1 0-2M381 254a1 1 0 1 1 0 2 1 1 0 0 1 0-2M395 254a1 1 0 1 1 0 2 1 1 0 0 1 0-2M409 254a1 1 0 1 1 0 2 1 1 0 0 1 0-2M423 254a1 1 0 1 1 0 2 1 1 0 0 1 0-2M437 254a1 1 0 1 1 0 2 1 1 0 0 1 0-2M451 254a1 1 0 1 1 0 2 1 1 0 0 1 0-2M465 254a1 1 0 1 1 0 2 1 1 0 0 1 0-2M479 254a1 1 0 1 1 0 2 1 1 0 0 1 0-2M493 254a1 1 0 1 1 0 2 1 1 0 0 1 0-2M507 254a1 1 0 1 1 0 2 1 1 0 0 1 0-2M521 254a1 1 0 1 1 0 2 1 1 0 0 1 0-2M535 254a1 1 0 1 1 0 2 1 1 0 0 1 0-2M549 254a1 1 0 1 1 0 2 1 1 0 0 1 0-2M563 254a1 1 0 1 1 0 2 1 1 0 0 1 0-2M577 254a1 1 0 1 1 0 2 1 1 0 0 1 0-2M591 254a1 1 0 1 1 0 2 1 1 0 0 1 0-2M605 254a1 1 0 1 1 0 2 1 1 0 0 1 0-2M619 254a1 1 0 1 1 0 2 1 1 0 0 1 0-2M633 254a1 1 0 1 1 0 2 1 1 0 0 1 0-2M647 254a1 1 0 1 1 0 2 1 1 0 0 1 0-2M661 254a1 1 0 1 1 0 2 1 1 0 0 1 0-2M675 254a1 1 0 1 1 0 2 1 1 0 0 1 0-2M689 254a1 1 0 1 1 0 2 1 1 0 0 1 0-2M703 254a1 1 0 1 1 0 2 1 1 0 0 1 0-2M717 254a1 1 0 1 1 0 2 1 1 0 0 1 0-2M-11 240a1 1 0 1 1 0 2 1 1 0 0 1 0-2M3 240a1 1 0 1 1 0 2 1 1 0 0 1 0-2M17 240a1 1 0 1 1 0 2 1 1 0 0 1 0-2M31 240a1 1 0 1 1 0 2 1 1 0 0 1 0-2M45 240a1 1 0 1 1 0 2 1 1 0 0 1 0-2M59 240a1 1 0 1 1 0 2 1 1 0 0 1 0-2M73 240a1 1 0 1 1 0 2 1 1 0 0 1 0-2M87 240a1 1 0 1 1 0 2 1 1 0 0 1 0-2M101 240a1 1 0 1 1 0 2 1 1 0 0 1 0-2M115 240a1 1 0 1 1 0 2 1 1 0 0 1 0-2M129 240a1 1 0 1 1 0 2 1 1 0 0 1 0-2M143 240a1 1 0 1 1 0 2 1 1 0 0 1 0-2M157 240a1 1 0 1 1 0 2 1 1 0 0 1 0-2M171 240a1 1 0 1 1 0 2 1 1 0 0 1 0-2M185 240a1 1 0 1 1 0 2 1 1 0 0 1 0-2M199 240a1 1 0 1 1 0 2 1 1 0 0 1 0-2M213 240a1 1 0 1 1 0 2 1 1 0 0 1 0-2M227 240a1 1 0 1 1 0 2 1 1 0 0 1 0-2M241 240a1 1 0 1 1 0 2 1 1 0 0 1 0-2M255 240a1 1 0 1 1 0 2 1 1 0 0 1 0-2M269 240a1 1 0 1 1 0 2 1 1 0 0 1 0-2M283 240a1 1 0 1 1 0 2 1 1 0 0 1 0-2M297 240a1 1 0 1 1 0 2 1 1 0 0 1 0-2M311 240a1 1 0 1 1 0 2 1 1 0 0 1 0-2M325 240a1 1 0 1 1 0 2 1 1 0 0 1 0-2M339 240a1 1 0 1 1 0 2 1 1 0 0 1 0-2M353 240a1 1 0 1 1 0 2 1 1 0 0 1 0-2M367 240a1 1 0 1 1 0 2 1 1 0 0 1 0-2M381 240a1 1 0 1 1 0 2 1 1 0 0 1 0-2M395 240a1 1 0 1 1 0 2 1 1 0 0 1 0-2M409 240a1 1 0 1 1 0 2 1 1 0 0 1 0-2M423 240a1 1 0 1 1 0 2 1 1 0 0 1 0-2M437 240a1 1 0 1 1 0 2 1 1 0 0 1 0-2M451 240a1 1 0 1 1 0 2 1 1 0 0 1 0-2M465 240a1 1 0 1 1 0 2 1 1 0 0 1 0-2M479 240a1 1 0 1 1 0 2 1 1 0 0 1 0-2M493 240a1 1 0 1 1 0 2 1 1 0 0 1 0-2M507 240a1 1 0 1 1 0 2 1 1 0 0 1 0-2M521 240a1 1 0 1 1 0 2 1 1 0 0 1 0-2M535 240a1 1 0 1 1 0 2 1 1 0 0 1 0-2M549 240a1 1 0 1 1 0 2 1 1 0 0 1 0-2M563 240a1 1 0 1 1 0 2 1 1 0 0 1 0-2M577 240a1 1 0 1 1 0 2 1 1 0 0 1 0-2M591 240a1 1 0 1 1 0 2 1 1 0 0 1 0-2M605 240a1 1 0 1 1 0 2 1 1 0 0 1 0-2M619 240a1 1 0 1 1 0 2 1 1 0 0 1 0-2M633 240a1 1 0 1 1 0 2 1 1 0 0 1 0-2M647 240a1 1 0 1 1 0 2 1 1 0 0 1 0-2M661 240a1 1 0 1 1 0 2 1 1 0 0 1 0-2M675 240a1 1 0 1 1 0 2 1 1 0 0 1 0-2M689 240a1 1 0 1 1 0 2 1 1 0 0 1 0-2M703 240a1 1 0 1 1 0 2 1 1 0 0 1 0-2M717 240a1 1 0 1 1 0 2 1 1 0 0 1 0-2M-11 226a1 1 0 1 1 0 2 1 1 0 0 1 0-2M3 226a1 1 0 1 1 0 2 1 1 0 0 1 0-2M17 226a1 1 0 1 1 0 2 1 1 0 0 1 0-2M31 226a1 1 0 1 1 0 2 1 1 0 0 1 0-2M45 226a1 1 0 1 1 0 2 1 1 0 0 1 0-2M59 226a1 1 0 1 1 0 2 1 1 0 0 1 0-2M73 226a1 1 0 1 1 0 2 1 1 0 0 1 0-2M87 226a1 1 0 1 1 0 2 1 1 0 0 1 0-2M101 226a1 1 0 1 1 0 2 1 1 0 0 1 0-2M115 226a1 1 0 1 1 0 2 1 1 0 0 1 0-2M129 226a1 1 0 1 1 0 2 1 1 0 0 1 0-2M143 226a1 1 0 1 1 0 2 1 1 0 0 1 0-2M157 226a1 1 0 1 1 0 2 1 1 0 0 1 0-2M171 226a1 1 0 1 1 0 2 1 1 0 0 1 0-2M185 226a1 1 0 1 1 0 2 1 1 0 0 1 0-2M199 226a1 1 0 1 1 0 2 1 1 0 0 1 0-2M213 226a1 1 0 1 1 0 2 1 1 0 0 1 0-2M227 226a1 1 0 1 1 0 2 1 1 0 0 1 0-2M241 226a1 1 0 1 1 0 2 1 1 0 0 1 0-2M255 226a1 1 0 1 1 0 2 1 1 0 0 1 0-2M269 226a1 1 0 1 1 0 2 1 1 0 0 1 0-2M283 226a1 1 0 1 1 0 2 1 1 0 0 1 0-2M297 226a1 1 0 1 1 0 2 1 1 0 0 1 0-2M311 226a1 1 0 1 1 0 2 1 1 0 0 1 0-2M325 226a1 1 0 1 1 0 2 1 1 0 0 1 0-2M339 226a1 1 0 1 1 0 2 1 1 0 0 1 0-2M353 226a1 1 0 1 1 0 2 1 1 0 0 1 0-2M367 226a1 1 0 1 1 0 2 1 1 0 0 1 0-2M381 226a1 1 0 1 1 0 2 1 1 0 0 1 0-2M395 226a1 1 0 1 1 0 2 1 1 0 0 1 0-2M409 226a1 1 0 1 1 0 2 1 1 0 0 1 0-2M423 226a1 1 0 1 1 0 2 1 1 0 0 1 0-2M437 226a1 1 0 1 1 0 2 1 1 0 0 1 0-2M451 226a1 1 0 1 1 0 2 1 1 0 0 1 0-2M465 226a1 1 0 1 1 0 2 1 1 0 0 1 0-2M479 226a1 1 0 1 1 0 2 1 1 0 0 1 0-2M493 226a1 1 0 1 1 0 2 1 1 0 0 1 0-2M507 226a1 1 0 1 1 0 2 1 1 0 0 1 0-2M521 226a1 1 0 1 1 0 2 1 1 0 0 1 0-2M535 226a1 1 0 1 1 0 2 1 1 0 0 1 0-2M549 226a1 1 0 1 1 0 2 1 1 0 0 1 0-2M563 226a1 1 0 1 1 0 2 1 1 0 0 1 0-2M577 226a1 1 0 1 1 0 2 1 1 0 0 1 0-2M591 226a1 1 0 1 1 0 2 1 1 0 0 1 0-2M605 226a1 1 0 1 1 0 2 1 1 0 0 1 0-2M619 226a1 1 0 1 1 0 2 1 1 0 0 1 0-2M633 226a1 1 0 1 1 0 2 1 1 0 0 1 0-2M647 226a1 1 0 1 1 0 2 1 1 0 0 1 0-2M661 226a1 1 0 1 1 0 2 1 1 0 0 1 0-2M675 226a1 1 0 1 1 0 2 1 1 0 0 1 0-2M689 226a1 1 0 1 1 0 2 1 1 0 0 1 0-2M703 226a1 1 0 1 1 0 2 1 1 0 0 1 0-2M717 226a1 1 0 1 1 0 2 1 1 0 0 1 0-2M-11 212a1 1 0 1 1 0 2 1 1 0 0 1 0-2M3 212a1 1 0 1 1 0 2 1 1 0 0 1 0-2M17 212a1 1 0 1 1 0 2 1 1 0 0 1 0-2M31 212a1 1 0 1 1 0 2 1 1 0 0 1 0-2M45 212a1 1 0 1 1 0 2 1 1 0 0 1 0-2M59 212a1 1 0 1 1 0 2 1 1 0 0 1 0-2M73 212a1 1 0 1 1 0 2 1 1 0 0 1 0-2M87 212a1 1 0 1 1 0 2 1 1 0 0 1 0-2M101 212a1 1 0 1 1 0 2 1 1 0 0 1 0-2M115 212a1 1 0 1 1 0 2 1 1 0 0 1 0-2M129 212a1 1 0 1 1 0 2 1 1 0 0 1 0-2M143 212a1 1 0 1 1 0 2 1 1 0 0 1 0-2M157 212a1 1 0 1 1 0 2 1 1 0 0 1 0-2M171 212a1 1 0 1 1 0 2 1 1 0 0 1 0-2M185 212a1 1 0 1 1 0 2 1 1 0 0 1 0-2M199 212a1 1 0 1 1 0 2 1 1 0 0 1 0-2M213 212a1 1 0 1 1 0 2 1 1 0 0 1 0-2M227 212a1 1 0 1 1 0 2 1 1 0 0 1 0-2M241 212a1 1 0 1 1 0 2 1 1 0 0 1 0-2M255 212a1 1 0 1 1 0 2 1 1 0 0 1 0-2M269 212a1 1 0 1 1 0 2 1 1 0 0 1 0-2M283 212a1 1 0 1 1 0 2 1 1 0 0 1 0-2M297 212a1 1 0 1 1 0 2 1 1 0 0 1 0-2M311 212a1 1 0 1 1 0 2 1 1 0 0 1 0-2M325 212a1 1 0 1 1 0 2 1 1 0 0 1 0-2M339 212a1 1 0 1 1 0 2 1 1 0 0 1 0-2M353 212a1 1 0 1 1 0 2 1 1 0 0 1 0-2M367 212a1 1 0 1 1 0 2 1 1 0 0 1 0-2M381 212a1 1 0 1 1 0 2 1 1 0 0 1 0-2M395 212a1 1 0 1 1 0 2 1 1 0 0 1 0-2M409 212a1 1 0 1 1 0 2 1 1 0 0 1 0-2M423 212a1 1 0 1 1 0 2 1 1 0 0 1 0-2M437 212a1 1 0 1 1 0 2 1 1 0 0 1 0-2M451 212a1 1 0 1 1 0 2 1 1 0 0 1 0-2M465 212a1 1 0 1 1 0 2 1 1 0 0 1 0-2M479 212a1 1 0 1 1 0 2 1 1 0 0 1 0-2M493 212a1 1 0 1 1 0 2 1 1 0 0 1 0-2M507 212a1 1 0 1 1 0 2 1 1 0 0 1 0-2M521 212a1 1 0 1 1 0 2 1 1 0 0 1 0-2M535 212a1 1 0 1 1 0 2 1 1 0 0 1 0-2M549 212a1 1 0 1 1 0 2 1 1 0 0 1 0-2M563 212a1 1 0 1 1 0 2 1 1 0 0 1 0-2M577 212a1 1 0 1 1 0 2 1 1 0 0 1 0-2M591 212a1 1 0 1 1 0 2 1 1 0 0 1 0-2M605 212a1 1 0 1 1 0 2 1 1 0 0 1 0-2M619 212a1 1 0 1 1 0 2 1 1 0 0 1 0-2M633 212a1 1 0 1 1 0 2 1 1 0 0 1 0-2M647 212a1 1 0 1 1 0 2 1 1 0 0 1 0-2M661 212a1 1 0 1 1 0 2 1 1 0 0 1 0-2M675 212a1 1 0 1 1 0 2 1 1 0 0 1 0-2M689 212a1 1 0 1 1 0 2 1 1 0 0 1 0-2M703 212a1 1 0 1 1 0 2 1 1 0 0 1 0-2M717 212a1 1 0 1 1 0 2 1 1 0 0 1 0-2M-11 198a1 1 0 1 1 0 2 1 1 0 0 1 0-2M3 198a1 1 0 1 1 0 2 1 1 0 0 1 0-2M17 198a1 1 0 1 1 0 2 1 1 0 0 1 0-2M31 198a1 1 0 1 1 0 2 1 1 0 0 1 0-2M45 198a1 1 0 1 1 0 2 1 1 0 0 1 0-2M59 198a1 1 0 1 1 0 2 1 1 0 0 1 0-2M73 198a1 1 0 1 1 0 2 1 1 0 0 1 0-2M87 198a1 1 0 1 1 0 2 1 1 0 0 1 0-2M101 198a1 1 0 1 1 0 2 1 1 0 0 1 0-2M115 198a1 1 0 1 1 0 2 1 1 0 0 1 0-2M129 198a1 1 0 1 1 0 2 1 1 0 0 1 0-2M143 198a1 1 0 1 1 0 2 1 1 0 0 1 0-2M157 198a1 1 0 1 1 0 2 1 1 0 0 1 0-2M171 198a1 1 0 1 1 0 2 1 1 0 0 1 0-2M185 198a1 1 0 1 1 0 2 1 1 0 0 1 0-2M199 198a1 1 0 1 1 0 2 1 1 0 0 1 0-2M213 198a1 1 0 1 1 0 2 1 1 0 0 1 0-2M227 198a1 1 0 1 1 0 2 1 1 0 0 1 0-2M241 198a1 1 0 1 1 0 2 1 1 0 0 1 0-2M255 198a1 1 0 1 1 0 2 1 1 0 0 1 0-2M269 198a1 1 0 1 1 0 2 1 1 0 0 1 0-2M283 198a1 1 0 1 1 0 2 1 1 0 0 1 0-2M297 198a1 1 0 1 1 0 2 1 1 0 0 1 0-2M311 198a1 1 0 1 1 0 2 1 1 0 0 1 0-2M325 198a1 1 0 1 1 0 2 1 1 0 0 1 0-2M339 198a1 1 0 1 1 0 2 1 1 0 0 1 0-2M353 198a1 1 0 1 1 0 2 1 1 0 0 1 0-2M367 198a1 1 0 1 1 0 2 1 1 0 0 1 0-2M381 198a1 1 0 1 1 0 2 1 1 0 0 1 0-2M395 198a1 1 0 1 1 0 2 1 1 0 0 1 0-2M409 198a1 1 0 1 1 0 2 1 1 0 0 1 0-2M423 198a1 1 0 1 1 0 2 1 1 0 0 1 0-2M437 198a1 1 0 1 1 0 2 1 1 0 0 1 0-2M451 198a1 1 0 1 1 0 2 1 1 0 0 1 0-2M465 198a1 1 0 1 1 0 2 1 1 0 0 1 0-2M479 198a1 1 0 1 1 0 2 1 1 0 0 1 0-2M493 198a1 1 0 1 1 0 2 1 1 0 0 1 0-2M507 198a1 1 0 1 1 0 2 1 1 0 0 1 0-2M521 198a1 1 0 1 1 0 2 1 1 0 0 1 0-2M535 198a1 1 0 1 1 0 2 1 1 0 0 1 0-2M549 198a1 1 0 1 1 0 2 1 1 0 0 1 0-2M563 198a1 1 0 1 1 0 2 1 1 0 0 1 0-2M577 198a1 1 0 1 1 0 2 1 1 0 0 1 0-2M591 198a1 1 0 1 1 0 2 1 1 0 0 1 0-2M605 198a1 1 0 1 1 0 2 1 1 0 0 1 0-2M619 198a1 1 0 1 1 0 2 1 1 0 0 1 0-2M633 198a1 1 0 1 1 0 2 1 1 0 0 1 0-2M647 198a1 1 0 1 1 0 2 1 1 0 0 1 0-2M661 198a1 1 0 1 1 0 2 1 1 0 0 1 0-2M675 198a1 1 0 1 1 0 2 1 1 0 0 1 0-2M689 198a1 1 0 1 1 0 2 1 1 0 0 1 0-2M703 198a1 1 0 1 1 0 2 1 1 0 0 1 0-2M717 198a1 1 0 1 1 0 2 1 1 0 0 1 0-2M-11 184a1 1 0 1 1 0 2 1 1 0 0 1 0-2M3 184a1 1 0 1 1 0 2 1 1 0 0 1 0-2M17 184a1 1 0 1 1 0 2 1 1 0 0 1 0-2M31 184a1 1 0 1 1 0 2 1 1 0 0 1 0-2M45 184a1 1 0 1 1 0 2 1 1 0 0 1 0-2M59 184a1 1 0 1 1 0 2 1 1 0 0 1 0-2M73 184a1 1 0 1 1 0 2 1 1 0 0 1 0-2M87 184a1 1 0 1 1 0 2 1 1 0 0 1 0-2M101 184a1 1 0 1 1 0 2 1 1 0 0 1 0-2M115 184a1 1 0 1 1 0 2 1 1 0 0 1 0-2M129 184a1 1 0 1 1 0 2 1 1 0 0 1 0-2M143 184a1 1 0 1 1 0 2 1 1 0 0 1 0-2M157 184a1 1 0 1 1 0 2 1 1 0 0 1 0-2M171 184a1 1 0 1 1 0 2 1 1 0 0 1 0-2M185 184a1 1 0 1 1 0 2 1 1 0 0 1 0-2M199 184a1 1 0 1 1 0 2 1 1 0 0 1 0-2M213 184a1 1 0 1 1 0 2 1 1 0 0 1 0-2M227 184a1 1 0 1 1 0 2 1 1 0 0 1 0-2M241 184a1 1 0 1 1 0 2 1 1 0 0 1 0-2M255 184a1 1 0 1 1 0 2 1 1 0 0 1 0-2M269 184a1 1 0 1 1 0 2 1 1 0 0 1 0-2M283 184a1 1 0 1 1 0 2 1 1 0 0 1 0-2M297 184a1 1 0 1 1 0 2 1 1 0 0 1 0-2M311 184a1 1 0 1 1 0 2 1 1 0 0 1 0-2M325 184a1 1 0 1 1 0 2 1 1 0 0 1 0-2M339 184a1 1 0 1 1 0 2 1 1 0 0 1 0-2M353 184a1 1 0 1 1 0 2 1 1 0 0 1 0-2M367 184a1 1 0 1 1 0 2 1 1 0 0 1 0-2M381 184a1 1 0 1 1 0 2 1 1 0 0 1 0-2M395 184a1 1 0 1 1 0 2 1 1 0 0 1 0-2M409 184a1 1 0 1 1 0 2 1 1 0 0 1 0-2M423 184a1 1 0 1 1 0 2 1 1 0 0 1 0-2M437 184a1 1 0 1 1 0 2 1 1 0 0 1 0-2M451 184a1 1 0 1 1 0 2 1 1 0 0 1 0-2M465 184a1 1 0 1 1 0 2 1 1 0 0 1 0-2M479 184a1 1 0 1 1 0 2 1 1 0 0 1 0-2M493 184a1 1 0 1 1 0 2 1 1 0 0 1 0-2M507 184a1 1 0 1 1 0 2 1 1 0 0 1 0-2M521 184a1 1 0 1 1 0 2 1 1 0 0 1 0-2M535 184a1 1 0 1 1 0 2 1 1 0 0 1 0-2M549 184a1 1 0 1 1 0 2 1 1 0 0 1 0-2M563 184a1 1 0 1 1 0 2 1 1 0 0 1 0-2M577 184a1 1 0 1 1 0 2 1 1 0 0 1 0-2M591 184a1 1 0 1 1 0 2 1 1 0 0 1 0-2M605 184a1 1 0 1 1 0 2 1 1 0 0 1 0-2M619 184a1 1 0 1 1 0 2 1 1 0 0 1 0-2M633 184a1 1 0 1 1 0 2 1 1 0 0 1 0-2M647 184a1 1 0 1 1 0 2 1 1 0 0 1 0-2M661 184a1 1 0 1 1 0 2 1 1 0 0 1 0-2M675 184a1 1 0 1 1 0 2 1 1 0 0 1 0-2M689 184a1 1 0 1 1 0 2 1 1 0 0 1 0-2M703 184a1 1 0 1 1 0 2 1 1 0 0 1 0-2M717 184a1 1 0 1 1 0 2 1 1 0 0 1 0-2M-11 170a1 1 0 1 1 0 2 1 1 0 0 1 0-2M3 170a1 1 0 1 1 0 2 1 1 0 0 1 0-2M17 170a1 1 0 1 1 0 2 1 1 0 0 1 0-2M31 170a1 1 0 1 1 0 2 1 1 0 0 1 0-2M45 170a1 1 0 1 1 0 2 1 1 0 0 1 0-2M59 170a1 1 0 1 1 0 2 1 1 0 0 1 0-2M73 170a1 1 0 1 1 0 2 1 1 0 0 1 0-2M87 170a1 1 0 1 1 0 2 1 1 0 0 1 0-2M101 170a1 1 0 1 1 0 2 1 1 0 0 1 0-2M115 170a1 1 0 1 1 0 2 1 1 0 0 1 0-2M129 170a1 1 0 1 1 0 2 1 1 0 0 1 0-2M143 170a1 1 0 1 1 0 2 1 1 0 0 1 0-2M157 170a1 1 0 1 1 0 2 1 1 0 0 1 0-2M171 170a1 1 0 1 1 0 2 1 1 0 0 1 0-2M185 170a1 1 0 1 1 0 2 1 1 0 0 1 0-2M199 170a1 1 0 1 1 0 2 1 1 0 0 1 0-2M213 170a1 1 0 1 1 0 2 1 1 0 0 1 0-2M227 170a1 1 0 1 1 0 2 1 1 0 0 1 0-2M241 170a1 1 0 1 1 0 2 1 1 0 0 1 0-2M255 170a1 1 0 1 1 0 2 1 1 0 0 1 0-2M269 170a1 1 0 1 1 0 2 1 1 0 0 1 0-2M283 170a1 1 0 1 1 0 2 1 1 0 0 1 0-2M297 170a1 1 0 1 1 0 2 1 1 0 0 1 0-2M311 170a1 1 0 1 1 0 2 1 1 0 0 1 0-2M325 170a1 1 0 1 1 0 2 1 1 0 0 1 0-2M339 170a1 1 0 1 1 0 2 1 1 0 0 1 0-2M353 170a1 1 0 1 1 0 2 1 1 0 0 1 0-2M367 170a1 1 0 1 1 0 2 1 1 0 0 1 0-2M381 170a1 1 0 1 1 0 2 1 1 0 0 1 0-2M395 170a1 1 0 1 1 0 2 1 1 0 0 1 0-2M409 170a1 1 0 1 1 0 2 1 1 0 0 1 0-2M423 170a1 1 0 1 1 0 2 1 1 0 0 1 0-2M437 170a1 1 0 1 1 0 2 1 1 0 0 1 0-2M451 170a1 1 0 1 1 0 2 1 1 0 0 1 0-2M465 170a1 1 0 1 1 0 2 1 1 0 0 1 0-2M479 170a1 1 0 1 1 0 2 1 1 0 0 1 0-2M493 170a1 1 0 1 1 0 2 1 1 0 0 1 0-2M507 170a1 1 0 1 1 0 2 1 1 0 0 1 0-2M521 170a1 1 0 1 1 0 2 1 1 0 0 1 0-2M535 170a1 1 0 1 1 0 2 1 1 0 0 1 0-2M549 170a1 1 0 1 1 0 2 1 1 0 0 1 0-2M563 170a1 1 0 1 1 0 2 1 1 0 0 1 0-2M577 170a1 1 0 1 1 0 2 1 1 0 0 1 0-2M591 170a1 1 0 1 1 0 2 1 1 0 0 1 0-2M605 170a1 1 0 1 1 0 2 1 1 0 0 1 0-2M619 170a1 1 0 1 1 0 2 1 1 0 0 1 0-2M633 170a1 1 0 1 1 0 2 1 1 0 0 1 0-2M647 170a1 1 0 1 1 0 2 1 1 0 0 1 0-2M661 170a1 1 0 1 1 0 2 1 1 0 0 1 0-2M675 170a1 1 0 1 1 0 2 1 1 0 0 1 0-2M689 170a1 1 0 1 1 0 2 1 1 0 0 1 0-2M703 170a1 1 0 1 1 0 2 1 1 0 0 1 0-2M717 170a1 1 0 1 1 0 2 1 1 0 0 1 0-2M-11 156a1 1 0 1 1 0 2 1 1 0 0 1 0-2M3 156a1 1 0 1 1 0 2 1 1 0 0 1 0-2M17 156a1 1 0 1 1 0 2 1 1 0 0 1 0-2M31 156a1 1 0 1 1 0 2 1 1 0 0 1 0-2M45 156a1 1 0 1 1 0 2 1 1 0 0 1 0-2M59 156a1 1 0 1 1 0 2 1 1 0 0 1 0-2M73 156a1 1 0 1 1 0 2 1 1 0 0 1 0-2M87 156a1 1 0 1 1 0 2 1 1 0 0 1 0-2M101 156a1 1 0 1 1 0 2 1 1 0 0 1 0-2M115 156a1 1 0 1 1 0 2 1 1 0 0 1 0-2M129 156a1 1 0 1 1 0 2 1 1 0 0 1 0-2M143 156a1 1 0 1 1 0 2 1 1 0 0 1 0-2M157 156a1 1 0 1 1 0 2 1 1 0 0 1 0-2M171 156a1 1 0 1 1 0 2 1 1 0 0 1 0-2M185 156a1 1 0 1 1 0 2 1 1 0 0 1 0-2M199 156a1 1 0 1 1 0 2 1 1 0 0 1 0-2M213 156a1 1 0 1 1 0 2 1 1 0 0 1 0-2M227 156a1 1 0 1 1 0 2 1 1 0 0 1 0-2M241 156a1 1 0 1 1 0 2 1 1 0 0 1 0-2M255 156a1 1 0 1 1 0 2 1 1 0 0 1 0-2M269 156a1 1 0 1 1 0 2 1 1 0 0 1 0-2M283 156a1 1 0 1 1 0 2 1 1 0 0 1 0-2M297 156a1 1 0 1 1 0 2 1 1 0 0 1 0-2M311 156a1 1 0 1 1 0 2 1 1 0 0 1 0-2M325 156a1 1 0 1 1 0 2 1 1 0 0 1 0-2M339 156a1 1 0 1 1 0 2 1 1 0 0 1 0-2M353 156a1 1 0 1 1 0 2 1 1 0 0 1 0-2M367 156a1 1 0 1 1 0 2 1 1 0 0 1 0-2M381 156a1 1 0 1 1 0 2 1 1 0 0 1 0-2M395 156a1 1 0 1 1 0 2 1 1 0 0 1 0-2M409 156a1 1 0 1 1 0 2 1 1 0 0 1 0-2M423 156a1 1 0 1 1 0 2 1 1 0 0 1 0-2M437 156a1 1 0 1 1 0 2 1 1 0 0 1 0-2M451 156a1 1 0 1 1 0 2 1 1 0 0 1 0-2M465 156a1 1 0 1 1 0 2 1 1 0 0 1 0-2M479 156a1 1 0 1 1 0 2 1 1 0 0 1 0-2M493 156a1 1 0 1 1 0 2 1 1 0 0 1 0-2M507 156a1 1 0 1 1 0 2 1 1 0 0 1 0-2M521 156a1 1 0 1 1 0 2 1 1 0 0 1 0-2M535 156a1 1 0 1 1 0 2 1 1 0 0 1 0-2M549 156a1 1 0 1 1 0 2 1 1 0 0 1 0-2M563 156a1 1 0 1 1 0 2 1 1 0 0 1 0-2M577 156a1 1 0 1 1 0 2 1 1 0 0 1 0-2M591 156a1 1 0 1 1 0 2 1 1 0 0 1 0-2M605 156a1 1 0 1 1 0 2 1 1 0 0 1 0-2M619 156a1 1 0 1 1 0 2 1 1 0 0 1 0-2M633 156a1 1 0 1 1 0 2 1 1 0 0 1 0-2M647 156a1 1 0 1 1 0 2 1 1 0 0 1 0-2M661 156a1 1 0 1 1 0 2 1 1 0 0 1 0-2M675 156a1 1 0 1 1 0 2 1 1 0 0 1 0-2M689 156a1 1 0 1 1 0 2 1 1 0 0 1 0-2M703 156a1 1 0 1 1 0 2 1 1 0 0 1 0-2M717 156a1 1 0 1 1 0 2 1 1 0 0 1 0-2M-11 142a1 1 0 1 1 0 2 1 1 0 0 1 0-2M3 142a1 1 0 1 1 0 2 1 1 0 0 1 0-2M17 142a1 1 0 1 1 0 2 1 1 0 0 1 0-2M31 142a1 1 0 1 1 0 2 1 1 0 0 1 0-2M45 142a1 1 0 1 1 0 2 1 1 0 0 1 0-2M59 142a1 1 0 1 1 0 2 1 1 0 0 1 0-2M73 142a1 1 0 1 1 0 2 1 1 0 0 1 0-2M87 142a1 1 0 1 1 0 2 1 1 0 0 1 0-2M101 142a1 1 0 1 1 0 2 1 1 0 0 1 0-2M115 142a1 1 0 1 1 0 2 1 1 0 0 1 0-2M129 142a1 1 0 1 1 0 2 1 1 0 0 1 0-2M143 142a1 1 0 1 1 0 2 1 1 0 0 1 0-2M157 142a1 1 0 1 1 0 2 1 1 0 0 1 0-2M171 142a1 1 0 1 1 0 2 1 1 0 0 1 0-2M185 142a1 1 0 1 1 0 2 1 1 0 0 1 0-2M199 142a1 1 0 1 1 0 2 1 1 0 0 1 0-2M213 142a1 1 0 1 1 0 2 1 1 0 0 1 0-2M227 142a1 1 0 1 1 0 2 1 1 0 0 1 0-2M241 142a1 1 0 1 1 0 2 1 1 0 0 1 0-2M255 142a1 1 0 1 1 0 2 1 1 0 0 1 0-2M269 142a1 1 0 1 1 0 2 1 1 0 0 1 0-2M283 142a1 1 0 1 1 0 2 1 1 0 0 1 0-2M297 142a1 1 0 1 1 0 2 1 1 0 0 1 0-2M311 142a1 1 0 1 1 0 2 1 1 0 0 1 0-2M325 142a1 1 0 1 1 0 2 1 1 0 0 1 0-2M339 142a1 1 0 1 1 0 2 1 1 0 0 1 0-2M353 142a1 1 0 1 1 0 2 1 1 0 0 1 0-2M367 142a1 1 0 1 1 0 2 1 1 0 0 1 0-2M381 142a1 1 0 1 1 0 2 1 1 0 0 1 0-2M395 142a1 1 0 1 1 0 2 1 1 0 0 1 0-2M409 142a1 1 0 1 1 0 2 1 1 0 0 1 0-2M423 142a1 1 0 1 1 0 2 1 1 0 0 1 0-2M437 142a1 1 0 1 1 0 2 1 1 0 0 1 0-2M451 142a1 1 0 1 1 0 2 1 1 0 0 1 0-2M465 142a1 1 0 1 1 0 2 1 1 0 0 1 0-2M479 142a1 1 0 1 1 0 2 1 1 0 0 1 0-2M493 142a1 1 0 1 1 0 2 1 1 0 0 1 0-2M507 142a1 1 0 1 1 0 2 1 1 0 0 1 0-2M521 142a1 1 0 1 1 0 2 1 1 0 0 1 0-2M535 142a1 1 0 1 1 0 2 1 1 0 0 1 0-2M549 142a1 1 0 1 1 0 2 1 1 0 0 1 0-2M563 142a1 1 0 1 1 0 2 1 1 0 0 1 0-2M577 142a1 1 0 1 1 0 2 1 1 0 0 1 0-2M591 142a1 1 0 1 1 0 2 1 1 0 0 1 0-2M605 142a1 1 0 1 1 0 2 1 1 0 0 1 0-2M619 142a1 1 0 1 1 0 2 1 1 0 0 1 0-2M633 142a1 1 0 1 1 0 2 1 1 0 0 1 0-2M647 142a1 1 0 1 1 0 2 1 1 0 0 1 0-2M661 142a1 1 0 1 1 0 2 1 1 0 0 1 0-2M675 142a1 1 0 1 1 0 2 1 1 0 0 1 0-2M689 142a1 1 0 1 1 0 2 1 1 0 0 1 0-2M703 142a1 1 0 1 1 0 2 1 1 0 0 1 0-2M717 142a1 1 0 1 1 0 2 1 1 0 0 1 0-2M-11 128a1 1 0 1 1 0 2 1 1 0 0 1 0-2M3 128a1 1 0 1 1 0 2 1 1 0 0 1 0-2M17 128a1 1 0 1 1 0 2 1 1 0 0 1 0-2M31 128a1 1 0 1 1 0 2 1 1 0 0 1 0-2M45 128a1 1 0 1 1 0 2 1 1 0 0 1 0-2M59 128a1 1 0 1 1 0 2 1 1 0 0 1 0-2M73 128a1 1 0 1 1 0 2 1 1 0 0 1 0-2M87 128a1 1 0 1 1 0 2 1 1 0 0 1 0-2M101 128a1 1 0 1 1 0 2 1 1 0 0 1 0-2M115 128a1 1 0 1 1 0 2 1 1 0 0 1 0-2M129 128a1 1 0 1 1 0 2 1 1 0 0 1 0-2M143 128a1 1 0 1 1 0 2 1 1 0 0 1 0-2M157 128a1 1 0 1 1 0 2 1 1 0 0 1 0-2M171 128a1 1 0 1 1 0 2 1 1 0 0 1 0-2M185 128a1 1 0 1 1 0 2 1 1 0 0 1 0-2M199 128a1 1 0 1 1 0 2 1 1 0 0 1 0-2M213 128a1 1 0 1 1 0 2 1 1 0 0 1 0-2M227 128a1 1 0 1 1 0 2 1 1 0 0 1 0-2M241 128a1 1 0 1 1 0 2 1 1 0 0 1 0-2M255 128a1 1 0 1 1 0 2 1 1 0 0 1 0-2M269 128a1 1 0 1 1 0 2 1 1 0 0 1 0-2M283 128a1 1 0 1 1 0 2 1 1 0 0 1 0-2M297 128a1 1 0 1 1 0 2 1 1 0 0 1 0-2M311 128a1 1 0 1 1 0 2 1 1 0 0 1 0-2M325 128a1 1 0 1 1 0 2 1 1 0 0 1 0-2M339 128a1 1 0 1 1 0 2 1 1 0 0 1 0-2M353 128a1 1 0 1 1 0 2 1 1 0 0 1 0-2M367 128a1 1 0 1 1 0 2 1 1 0 0 1 0-2M381 128a1 1 0 1 1 0 2 1 1 0 0 1 0-2M395 128a1 1 0 1 1 0 2 1 1 0 0 1 0-2M409 128a1 1 0 1 1 0 2 1 1 0 0 1 0-2M423 128a1 1 0 1 1 0 2 1 1 0 0 1 0-2M437 128a1 1 0 1 1 0 2 1 1 0 0 1 0-2M451 128a1 1 0 1 1 0 2 1 1 0 0 1 0-2M465 128a1 1 0 1 1 0 2 1 1 0 0 1 0-2M479 128a1 1 0 1 1 0 2 1 1 0 0 1 0-2M493 128a1 1 0 1 1 0 2 1 1 0 0 1 0-2M507 128a1 1 0 1 1 0 2 1 1 0 0 1 0-2M521 128a1 1 0 1 1 0 2 1 1 0 0 1 0-2M535 128a1 1 0 1 1 0 2 1 1 0 0 1 0-2M549 128a1 1 0 1 1 0 2 1 1 0 0 1 0-2M563 128a1 1 0 1 1 0 2 1 1 0 0 1 0-2M577 128a1 1 0 1 1 0 2 1 1 0 0 1 0-2M591 128a1 1 0 1 1 0 2 1 1 0 0 1 0-2M605 128a1 1 0 1 1 0 2 1 1 0 0 1 0-2M619 128a1 1 0 1 1 0 2 1 1 0 0 1 0-2M633 128a1 1 0 1 1 0 2 1 1 0 0 1 0-2M647 128a1 1 0 1 1 0 2 1 1 0 0 1 0-2M661 128a1 1 0 1 1 0 2 1 1 0 0 1 0-2M675 128a1 1 0 1 1 0 2 1 1 0 0 1 0-2M689 128a1 1 0 1 1 0 2 1 1 0 0 1 0-2M703 128a1 1 0 1 1 0 2 1 1 0 0 1 0-2M717 128a1 1 0 1 1 0 2 1 1 0 0 1 0-2M-11 114a1 1 0 1 1 0 2 1 1 0 0 1 0-2M3 114a1 1 0 1 1 0 2 1 1 0 0 1 0-2M17 114a1 1 0 1 1 0 2 1 1 0 0 1 0-2M31 114a1 1 0 1 1 0 2 1 1 0 0 1 0-2M45 114a1 1 0 1 1 0 2 1 1 0 0 1 0-2M59 114a1 1 0 1 1 0 2 1 1 0 0 1 0-2M73 114a1 1 0 1 1 0 2 1 1 0 0 1 0-2M87 114a1 1 0 1 1 0 2 1 1 0 0 1 0-2M101 114a1 1 0 1 1 0 2 1 1 0 0 1 0-2M115 114a1 1 0 1 1 0 2 1 1 0 0 1 0-2M129 114a1 1 0 1 1 0 2 1 1 0 0 1 0-2M143 114a1 1 0 1 1 0 2 1 1 0 0 1 0-2M157 114a1 1 0 1 1 0 2 1 1 0 0 1 0-2M171 114a1 1 0 1 1 0 2 1 1 0 0 1 0-2M185 114a1 1 0 1 1 0 2 1 1 0 0 1 0-2M199 114a1 1 0 1 1 0 2 1 1 0 0 1 0-2M213 114a1 1 0 1 1 0 2 1 1 0 0 1 0-2M227 114a1 1 0 1 1 0 2 1 1 0 0 1 0-2M241 114a1 1 0 1 1 0 2 1 1 0 0 1 0-2M255 114a1 1 0 1 1 0 2 1 1 0 0 1 0-2M269 114a1 1 0 1 1 0 2 1 1 0 0 1 0-2M283 114a1 1 0 1 1 0 2 1 1 0 0 1 0-2M297 114a1 1 0 1 1 0 2 1 1 0 0 1 0-2M311 114a1 1 0 1 1 0 2 1 1 0 0 1 0-2M325 114a1 1 0 1 1 0 2 1 1 0 0 1 0-2M339 114a1 1 0 1 1 0 2 1 1 0 0 1 0-2M353 114a1 1 0 1 1 0 2 1 1 0 0 1 0-2M367 114a1 1 0 1 1 0 2 1 1 0 0 1 0-2M381 114a1 1 0 1 1 0 2 1 1 0 0 1 0-2M395 114a1 1 0 1 1 0 2 1 1 0 0 1 0-2M409 114a1 1 0 1 1 0 2 1 1 0 0 1 0-2M423 114a1 1 0 1 1 0 2 1 1 0 0 1 0-2M437 114a1 1 0 1 1 0 2 1 1 0 0 1 0-2M451 114a1 1 0 1 1 0 2 1 1 0 0 1 0-2M465 114a1 1 0 1 1 0 2 1 1 0 0 1 0-2M479 114a1 1 0 1 1 0 2 1 1 0 0 1 0-2M493 114a1 1 0 1 1 0 2 1 1 0 0 1 0-2M507 114a1 1 0 1 1 0 2 1 1 0 0 1 0-2M521 114a1 1 0 1 1 0 2 1 1 0 0 1 0-2M535 114a1 1 0 1 1 0 2 1 1 0 0 1 0-2M549 114a1 1 0 1 1 0 2 1 1 0 0 1 0-2M563 114a1 1 0 1 1 0 2 1 1 0 0 1 0-2M577 114a1 1 0 1 1 0 2 1 1 0 0 1 0-2M591 114a1 1 0 1 1 0 2 1 1 0 0 1 0-2M605 114a1 1 0 1 1 0 2 1 1 0 0 1 0-2M619 114a1 1 0 1 1 0 2 1 1 0 0 1 0-2M633 114a1 1 0 1 1 0 2 1 1 0 0 1 0-2M647 114a1 1 0 1 1 0 2 1 1 0 0 1 0-2M661 114a1 1 0 1 1 0 2 1 1 0 0 1 0-2M675 114a1 1 0 1 1 0 2 1 1 0 0 1 0-2M689 114a1 1 0 1 1 0 2 1 1 0 0 1 0-2M703 114a1 1 0 1 1 0 2 1 1 0 0 1 0-2M717 114a1 1 0 1 1 0 2 1 1 0 0 1 0-2M-11 100a1 1 0 1 1 0 2 1 1 0 0 1 0-2M3 100a1 1 0 1 1 0 2 1 1 0 0 1 0-2M17 100a1 1 0 1 1 0 2 1 1 0 0 1 0-2M31 100a1 1 0 1 1 0 2 1 1 0 0 1 0-2M45 100a1 1 0 1 1 0 2 1 1 0 0 1 0-2M59 100a1 1 0 1 1 0 2 1 1 0 0 1 0-2M73 100a1 1 0 1 1 0 2 1 1 0 0 1 0-2M87 100a1 1 0 1 1 0 2 1 1 0 0 1 0-2M101 100a1 1 0 1 1 0 2 1 1 0 0 1 0-2M115 100a1 1 0 1 1 0 2 1 1 0 0 1 0-2M129 100a1 1 0 1 1 0 2 1 1 0 0 1 0-2M143 100a1 1 0 1 1 0 2 1 1 0 0 1 0-2M157 100a1 1 0 1 1 0 2 1 1 0 0 1 0-2M171 100a1 1 0 1 1 0 2 1 1 0 0 1 0-2M185 100a1 1 0 1 1 0 2 1 1 0 0 1 0-2M199 100a1 1 0 1 1 0 2 1 1 0 0 1 0-2M213 100a1 1 0 1 1 0 2 1 1 0 0 1 0-2M227 100a1 1 0 1 1 0 2 1 1 0 0 1 0-2M241 100a1 1 0 1 1 0 2 1 1 0 0 1 0-2M255 100a1 1 0 1 1 0 2 1 1 0 0 1 0-2M269 100a1 1 0 1 1 0 2 1 1 0 0 1 0-2M283 100a1 1 0 1 1 0 2 1 1 0 0 1 0-2M297 100a1 1 0 1 1 0 2 1 1 0 0 1 0-2M311 100a1 1 0 1 1 0 2 1 1 0 0 1 0-2M325 100a1 1 0 1 1 0 2 1 1 0 0 1 0-2M339 100a1 1 0 1 1 0 2 1 1 0 0 1 0-2M353 100a1 1 0 1 1 0 2 1 1 0 0 1 0-2M367 100a1 1 0 1 1 0 2 1 1 0 0 1 0-2M381 100a1 1 0 1 1 0 2 1 1 0 0 1 0-2M395 100a1 1 0 1 1 0 2 1 1 0 0 1 0-2M409 100a1 1 0 1 1 0 2 1 1 0 0 1 0-2M423 100a1 1 0 1 1 0 2 1 1 0 0 1 0-2M437 100a1 1 0 1 1 0 2 1 1 0 0 1 0-2M451 100a1 1 0 1 1 0 2 1 1 0 0 1 0-2M465 100a1 1 0 1 1 0 2 1 1 0 0 1 0-2M479 100a1 1 0 1 1 0 2 1 1 0 0 1 0-2M493 100a1 1 0 1 1 0 2 1 1 0 0 1 0-2M507 100a1 1 0 1 1 0 2 1 1 0 0 1 0-2M521 100a1 1 0 1 1 0 2 1 1 0 0 1 0-2M535 100a1 1 0 1 1 0 2 1 1 0 0 1 0-2M549 100a1 1 0 1 1 0 2 1 1 0 0 1 0-2M563 100a1 1 0 1 1 0 2 1 1 0 0 1 0-2M577 100a1 1 0 1 1 0 2 1 1 0 0 1 0-2M591 100a1 1 0 1 1 0 2 1 1 0 0 1 0-2M605 100a1 1 0 1 1 0 2 1 1 0 0 1 0-2M619 100a1 1 0 1 1 0 2 1 1 0 0 1 0-2M633 100a1 1 0 1 1 0 2 1 1 0 0 1 0-2M647 100a1 1 0 1 1 0 2 1 1 0 0 1 0-2M661 100a1 1 0 1 1 0 2 1 1 0 0 1 0-2M675 100a1 1 0 1 1 0 2 1 1 0 0 1 0-2M689 100a1 1 0 1 1 0 2 1 1 0 0 1 0-2M703 100a1 1 0 1 1 0 2 1 1 0 0 1 0-2M717 100a1 1 0 1 1 0 2 1 1 0 0 1 0-2M-11 86a1 1 0 1 1 0 2 1 1 0 0 1 0-2M3 86a1 1 0 1 1 0 2 1 1 0 0 1 0-2M17 86a1 1 0 1 1 0 2 1 1 0 0 1 0-2M31 86a1 1 0 1 1 0 2 1 1 0 0 1 0-2M45 86a1 1 0 1 1 0 2 1 1 0 0 1 0-2M59 86a1 1 0 1 1 0 2 1 1 0 0 1 0-2M73 86a1 1 0 1 1 0 2 1 1 0 0 1 0-2M87 86a1 1 0 1 1 0 2 1 1 0 0 1 0-2M101 86a1 1 0 1 1 0 2 1 1 0 0 1 0-2M115 86a1 1 0 1 1 0 2 1 1 0 0 1 0-2M129 86a1 1 0 1 1 0 2 1 1 0 0 1 0-2M143 86a1 1 0 1 1 0 2 1 1 0 0 1 0-2M157 86a1 1 0 1 1 0 2 1 1 0 0 1 0-2M171 86a1 1 0 1 1 0 2 1 1 0 0 1 0-2M185 86a1 1 0 1 1 0 2 1 1 0 0 1 0-2M199 86a1 1 0 1 1 0 2 1 1 0 0 1 0-2M213 86a1 1 0 1 1 0 2 1 1 0 0 1 0-2M227 86a1 1 0 1 1 0 2 1 1 0 0 1 0-2M241 86a1 1 0 1 1 0 2 1 1 0 0 1 0-2M255 86a1 1 0 1 1 0 2 1 1 0 0 1 0-2M269 86a1 1 0 1 1 0 2 1 1 0 0 1 0-2M283 86a1 1 0 1 1 0 2 1 1 0 0 1 0-2M297 86a1 1 0 1 1 0 2 1 1 0 0 1 0-2M311 86a1 1 0 1 1 0 2 1 1 0 0 1 0-2M325 86a1 1 0 1 1 0 2 1 1 0 0 1 0-2M339 86a1 1 0 1 1 0 2 1 1 0 0 1 0-2M353 86a1 1 0 1 1 0 2 1 1 0 0 1 0-2M367 86a1 1 0 1 1 0 2 1 1 0 0 1 0-2M381 86a1 1 0 1 1 0 2 1 1 0 0 1 0-2M395 86a1 1 0 1 1 0 2 1 1 0 0 1 0-2M409 86a1 1 0 1 1 0 2 1 1 0 0 1 0-2M423 86a1 1 0 1 1 0 2 1 1 0 0 1 0-2M437 86a1 1 0 1 1 0 2 1 1 0 0 1 0-2M451 86a1 1 0 1 1 0 2 1 1 0 0 1 0-2M465 86a1 1 0 1 1 0 2 1 1 0 0 1 0-2M479 86a1 1 0 1 1 0 2 1 1 0 0 1 0-2M493 86a1 1 0 1 1 0 2 1 1 0 0 1 0-2M507 86a1 1 0 1 1 0 2 1 1 0 0 1 0-2M521 86a1 1 0 1 1 0 2 1 1 0 0 1 0-2M535 86a1 1 0 1 1 0 2 1 1 0 0 1 0-2M549 86a1 1 0 1 1 0 2 1 1 0 0 1 0-2M563 86a1 1 0 1 1 0 2 1 1 0 0 1 0-2M577 86a1 1 0 1 1 0 2 1 1 0 0 1 0-2M591 86a1 1 0 1 1 0 2 1 1 0 0 1 0-2M605 86a1 1 0 1 1 0 2 1 1 0 0 1 0-2M619 86a1 1 0 1 1 0 2 1 1 0 0 1 0-2M633 86a1 1 0 1 1 0 2 1 1 0 0 1 0-2M647 86a1 1 0 1 1 0 2 1 1 0 0 1 0-2M661 86a1 1 0 1 1 0 2 1 1 0 0 1 0-2M675 86a1 1 0 1 1 0 2 1 1 0 0 1 0-2M689 86a1 1 0 1 1 0 2 1 1 0 0 1 0-2M703 86a1 1 0 1 1 0 2 1 1 0 0 1 0-2M717 86a1 1 0 1 1 0 2 1 1 0 0 1 0-2M-11 72a1 1 0 1 1 0 2 1 1 0 0 1 0-2M3 72a1 1 0 1 1 0 2 1 1 0 0 1 0-2M17 72a1 1 0 1 1 0 2 1 1 0 0 1 0-2M31 72a1 1 0 1 1 0 2 1 1 0 0 1 0-2M45 72a1 1 0 1 1 0 2 1 1 0 0 1 0-2M59 72a1 1 0 1 1 0 2 1 1 0 0 1 0-2M73 72a1 1 0 1 1 0 2 1 1 0 0 1 0-2M87 72a1 1 0 1 1 0 2 1 1 0 0 1 0-2M101 72a1 1 0 1 1 0 2 1 1 0 0 1 0-2M115 72a1 1 0 1 1 0 2 1 1 0 0 1 0-2M129 72a1 1 0 1 1 0 2 1 1 0 0 1 0-2M143 72a1 1 0 1 1 0 2 1 1 0 0 1 0-2M157 72a1 1 0 1 1 0 2 1 1 0 0 1 0-2M171 72a1 1 0 1 1 0 2 1 1 0 0 1 0-2M185 72a1 1 0 1 1 0 2 1 1 0 0 1 0-2M199 72a1 1 0 1 1 0 2 1 1 0 0 1 0-2M213 72a1 1 0 1 1 0 2 1 1 0 0 1 0-2M227 72a1 1 0 1 1 0 2 1 1 0 0 1 0-2M241 72a1 1 0 1 1 0 2 1 1 0 0 1 0-2M255 72a1 1 0 1 1 0 2 1 1 0 0 1 0-2M269 72a1 1 0 1 1 0 2 1 1 0 0 1 0-2M283 72a1 1 0 1 1 0 2 1 1 0 0 1 0-2M297 72a1 1 0 1 1 0 2 1 1 0 0 1 0-2M311 72a1 1 0 1 1 0 2 1 1 0 0 1 0-2M325 72a1 1 0 1 1 0 2 1 1 0 0 1 0-2M339 72a1 1 0 1 1 0 2 1 1 0 0 1 0-2M353 72a1 1 0 1 1 0 2 1 1 0 0 1 0-2M367 72a1 1 0 1 1 0 2 1 1 0 0 1 0-2M381 72a1 1 0 1 1 0 2 1 1 0 0 1 0-2M395 72a1 1 0 1 1 0 2 1 1 0 0 1 0-2M409 72a1 1 0 1 1 0 2 1 1 0 0 1 0-2M423 72a1 1 0 1 1 0 2 1 1 0 0 1 0-2M437 72a1 1 0 1 1 0 2 1 1 0 0 1 0-2M451 72a1 1 0 1 1 0 2 1 1 0 0 1 0-2M465 72a1 1 0 1 1 0 2 1 1 0 0 1 0-2M479 72a1 1 0 1 1 0 2 1 1 0 0 1 0-2M493 72a1 1 0 1 1 0 2 1 1 0 0 1 0-2M507 72a1 1 0 1 1 0 2 1 1 0 0 1 0-2M521 72a1 1 0 1 1 0 2 1 1 0 0 1 0-2M535 72a1 1 0 1 1 0 2 1 1 0 0 1 0-2M549 72a1 1 0 1 1 0 2 1 1 0 0 1 0-2M563 72a1 1 0 1 1 0 2 1 1 0 0 1 0-2M577 72a1 1 0 1 1 0 2 1 1 0 0 1 0-2M591 72a1 1 0 1 1 0 2 1 1 0 0 1 0-2M605 72a1 1 0 1 1 0 2 1 1 0 0 1 0-2M619 72a1 1 0 1 1 0 2 1 1 0 0 1 0-2M633 72a1 1 0 1 1 0 2 1 1 0 0 1 0-2M647 72a1 1 0 1 1 0 2 1 1 0 0 1 0-2M661 72a1 1 0 1 1 0 2 1 1 0 0 1 0-2M675 72a1 1 0 1 1 0 2 1 1 0 0 1 0-2M689 72a1 1 0 1 1 0 2 1 1 0 0 1 0-2M703 72a1 1 0 1 1 0 2 1 1 0 0 1 0-2M717 72a1 1 0 1 1 0 2 1 1 0 0 1 0-2M-11 58a1 1 0 1 1 0 2 1 1 0 0 1 0-2M3 58a1 1 0 1 1 0 2 1 1 0 0 1 0-2M17 58a1 1 0 1 1 0 2 1 1 0 0 1 0-2M31 58a1 1 0 1 1 0 2 1 1 0 0 1 0-2M45 58a1 1 0 1 1 0 2 1 1 0 0 1 0-2M59 58a1 1 0 1 1 0 2 1 1 0 0 1 0-2M73 58a1 1 0 1 1 0 2 1 1 0 0 1 0-2M87 58a1 1 0 1 1 0 2 1 1 0 0 1 0-2M101 58a1 1 0 1 1 0 2 1 1 0 0 1 0-2M115 58a1 1 0 1 1 0 2 1 1 0 0 1 0-2M129 58a1 1 0 1 1 0 2 1 1 0 0 1 0-2M143 58a1 1 0 1 1 0 2 1 1 0 0 1 0-2M157 58a1 1 0 1 1 0 2 1 1 0 0 1 0-2M171 58a1 1 0 1 1 0 2 1 1 0 0 1 0-2M185 58a1 1 0 1 1 0 2 1 1 0 0 1 0-2M199 58a1 1 0 1 1 0 2 1 1 0 0 1 0-2M213 58a1 1 0 1 1 0 2 1 1 0 0 1 0-2M227 58a1 1 0 1 1 0 2 1 1 0 0 1 0-2M241 58a1 1 0 1 1 0 2 1 1 0 0 1 0-2M255 58a1 1 0 1 1 0 2 1 1 0 0 1 0-2M269 58a1 1 0 1 1 0 2 1 1 0 0 1 0-2M283 58a1 1 0 1 1 0 2 1 1 0 0 1 0-2M297 58a1 1 0 1 1 0 2 1 1 0 0 1 0-2M311 58a1 1 0 1 1 0 2 1 1 0 0 1 0-2M325 58a1 1 0 1 1 0 2 1 1 0 0 1 0-2M339 58a1 1 0 1 1 0 2 1 1 0 0 1 0-2M353 58a1 1 0 1 1 0 2 1 1 0 0 1 0-2M367 58a1 1 0 1 1 0 2 1 1 0 0 1 0-2M381 58a1 1 0 1 1 0 2 1 1 0 0 1 0-2M395 58a1 1 0 1 1 0 2 1 1 0 0 1 0-2M409 58a1 1 0 1 1 0 2 1 1 0 0 1 0-2M423 58a1 1 0 1 1 0 2 1 1 0 0 1 0-2M437 58a1 1 0 1 1 0 2 1 1 0 0 1 0-2M451 58a1 1 0 1 1 0 2 1 1 0 0 1 0-2M465 58a1 1 0 1 1 0 2 1 1 0 0 1 0-2M479 58a1 1 0 1 1 0 2 1 1 0 0 1 0-2M493 58a1 1 0 1 1 0 2 1 1 0 0 1 0-2M507 58a1 1 0 1 1 0 2 1 1 0 0 1 0-2M521 58a1 1 0 1 1 0 2 1 1 0 0 1 0-2M535 58a1 1 0 1 1 0 2 1 1 0 0 1 0-2M549 58a1 1 0 1 1 0 2 1 1 0 0 1 0-2M563 58a1 1 0 1 1 0 2 1 1 0 0 1 0-2M577 58a1 1 0 1 1 0 2 1 1 0 0 1 0-2M591 58a1 1 0 1 1 0 2 1 1 0 0 1 0-2M605 58a1 1 0 1 1 0 2 1 1 0 0 1 0-2M619 58a1 1 0 1 1 0 2 1 1 0 0 1 0-2M633 58a1 1 0 1 1 0 2 1 1 0 0 1 0-2M647 58a1 1 0 1 1 0 2 1 1 0 0 1 0-2M661 58a1 1 0 1 1 0 2 1 1 0 0 1 0-2M675 58a1 1 0 1 1 0 2 1 1 0 0 1 0-2M689 58a1 1 0 1 1 0 2 1 1 0 0 1 0-2M703 58a1 1 0 1 1 0 2 1 1 0 0 1 0-2M717 58a1 1 0 1 1 0 2 1 1 0 0 1 0-2M-11 44a1 1 0 1 1 0 2 1 1 0 0 1 0-2M3 44a1 1 0 1 1 0 2 1 1 0 0 1 0-2M17 44a1 1 0 1 1 0 2 1 1 0 0 1 0-2M31 44a1 1 0 1 1 0 2 1 1 0 0 1 0-2M45 44a1 1 0 1 1 0 2 1 1 0 0 1 0-2M59 44a1 1 0 1 1 0 2 1 1 0 0 1 0-2M73 44a1 1 0 1 1 0 2 1 1 0 0 1 0-2M87 44a1 1 0 1 1 0 2 1 1 0 0 1 0-2M101 44a1 1 0 1 1 0 2 1 1 0 0 1 0-2M115 44a1 1 0 1 1 0 2 1 1 0 0 1 0-2M129 44a1 1 0 1 1 0 2 1 1 0 0 1 0-2M143 44a1 1 0 1 1 0 2 1 1 0 0 1 0-2M157 44a1 1 0 1 1 0 2 1 1 0 0 1 0-2M171 44a1 1 0 1 1 0 2 1 1 0 0 1 0-2M185 44a1 1 0 1 1 0 2 1 1 0 0 1 0-2M199 44a1 1 0 1 1 0 2 1 1 0 0 1 0-2M213 44a1 1 0 1 1 0 2 1 1 0 0 1 0-2M227 44a1 1 0 1 1 0 2 1 1 0 0 1 0-2M241 44a1 1 0 1 1 0 2 1 1 0 0 1 0-2M255 44a1 1 0 1 1 0 2 1 1 0 0 1 0-2M269 44a1 1 0 1 1 0 2 1 1 0 0 1 0-2M283 44a1 1 0 1 1 0 2 1 1 0 0 1 0-2M297 44a1 1 0 1 1 0 2 1 1 0 0 1 0-2M311 44a1 1 0 1 1 0 2 1 1 0 0 1 0-2M325 44a1 1 0 1 1 0 2 1 1 0 0 1 0-2M339 44a1 1 0 1 1 0 2 1 1 0 0 1 0-2M353 44a1 1 0 1 1 0 2 1 1 0 0 1 0-2M367 44a1 1 0 1 1 0 2 1 1 0 0 1 0-2M381 44a1 1 0 1 1 0 2 1 1 0 0 1 0-2M395 44a1 1 0 1 1 0 2 1 1 0 0 1 0-2M409 44a1 1 0 1 1 0 2 1 1 0 0 1 0-2M423 44a1 1 0 1 1 0 2 1 1 0 0 1 0-2M437 44a1 1 0 1 1 0 2 1 1 0 0 1 0-2M451 44a1 1 0 1 1 0 2 1 1 0 0 1 0-2M465 44a1 1 0 1 1 0 2 1 1 0 0 1 0-2M479 44a1 1 0 1 1 0 2 1 1 0 0 1 0-2M493 44a1 1 0 1 1 0 2 1 1 0 0 1 0-2M507 44a1 1 0 1 1 0 2 1 1 0 0 1 0-2M521 44a1 1 0 1 1 0 2 1 1 0 0 1 0-2M535 44a1 1 0 1 1 0 2 1 1 0 0 1 0-2M549 44a1 1 0 1 1 0 2 1 1 0 0 1 0-2M563 44a1 1 0 1 1 0 2 1 1 0 0 1 0-2M577 44a1 1 0 1 1 0 2 1 1 0 0 1 0-2M591 44a1 1 0 1 1 0 2 1 1 0 0 1 0-2M605 44a1 1 0 1 1 0 2 1 1 0 0 1 0-2M619 44a1 1 0 1 1 0 2 1 1 0 0 1 0-2M633 44a1 1 0 1 1 0 2 1 1 0 0 1 0-2M647 44a1 1 0 1 1 0 2 1 1 0 0 1 0-2M661 44a1 1 0 1 1 0 2 1 1 0 0 1 0-2M675 44a1 1 0 1 1 0 2 1 1 0 0 1 0-2M689 44a1 1 0 1 1 0 2 1 1 0 0 1 0-2M703 44a1 1 0 1 1 0 2 1 1 0 0 1 0-2M717 44a1 1 0 1 1 0 2 1 1 0 0 1 0-2M-11 30a1 1 0 1 1 0 2 1 1 0 0 1 0-2M3 30a1 1 0 1 1 0 2 1 1 0 0 1 0-2M17 30a1 1 0 1 1 0 2 1 1 0 0 1 0-2M31 30a1 1 0 1 1 0 2 1 1 0 0 1 0-2M45 30a1 1 0 1 1 0 2 1 1 0 0 1 0-2M59 30a1 1 0 1 1 0 2 1 1 0 0 1 0-2M73 30a1 1 0 1 1 0 2 1 1 0 0 1 0-2M87 30a1 1 0 1 1 0 2 1 1 0 0 1 0-2M101 30a1 1 0 1 1 0 2 1 1 0 0 1 0-2M115 30a1 1 0 1 1 0 2 1 1 0 0 1 0-2M129 30a1 1 0 1 1 0 2 1 1 0 0 1 0-2M143 30a1 1 0 1 1 0 2 1 1 0 0 1 0-2M157 30a1 1 0 1 1 0 2 1 1 0 0 1 0-2M171 30a1 1 0 1 1 0 2 1 1 0 0 1 0-2M185 30a1 1 0 1 1 0 2 1 1 0 0 1 0-2M199 30a1 1 0 1 1 0 2 1 1 0 0 1 0-2M213 30a1 1 0 1 1 0 2 1 1 0 0 1 0-2M227 30a1 1 0 1 1 0 2 1 1 0 0 1 0-2M241 30a1 1 0 1 1 0 2 1 1 0 0 1 0-2M255 30a1 1 0 1 1 0 2 1 1 0 0 1 0-2M269 30a1 1 0 1 1 0 2 1 1 0 0 1 0-2M283 30a1 1 0 1 1 0 2 1 1 0 0 1 0-2M297 30a1 1 0 1 1 0 2 1 1 0 0 1 0-2M311 30a1 1 0 1 1 0 2 1 1 0 0 1 0-2M325 30a1 1 0 1 1 0 2 1 1 0 0 1 0-2M339 30a1 1 0 1 1 0 2 1 1 0 0 1 0-2M353 30a1 1 0 1 1 0 2 1 1 0 0 1 0-2M367 30a1 1 0 1 1 0 2 1 1 0 0 1 0-2M381 30a1 1 0 1 1 0 2 1 1 0 0 1 0-2M395 30a1 1 0 1 1 0 2 1 1 0 0 1 0-2M409 30a1 1 0 1 1 0 2 1 1 0 0 1 0-2M423 30a1 1 0 1 1 0 2 1 1 0 0 1 0-2M437 30a1 1 0 1 1 0 2 1 1 0 0 1 0-2M451 30a1 1 0 1 1 0 2 1 1 0 0 1 0-2M465 30a1 1 0 1 1 0 2 1 1 0 0 1 0-2M479 30a1 1 0 1 1 0 2 1 1 0 0 1 0-2M493 30a1 1 0 1 1 0 2 1 1 0 0 1 0-2M507 30a1 1 0 1 1 0 2 1 1 0 0 1 0-2M521 30a1 1 0 1 1 0 2 1 1 0 0 1 0-2M535 30a1 1 0 1 1 0 2 1 1 0 0 1 0-2M549 30a1 1 0 1 1 0 2 1 1 0 0 1 0-2M563 30a1 1 0 1 1 0 2 1 1 0 0 1 0-2M577 30a1 1 0 1 1 0 2 1 1 0 0 1 0-2M591 30a1 1 0 1 1 0 2 1 1 0 0 1 0-2M605 30a1 1 0 1 1 0 2 1 1 0 0 1 0-2M619 30a1 1 0 1 1 0 2 1 1 0 0 1 0-2M633 30a1 1 0 1 1 0 2 1 1 0 0 1 0-2M647 30a1 1 0 1 1 0 2 1 1 0 0 1 0-2M661 30a1 1 0 1 1 0 2 1 1 0 0 1 0-2M675 30a1 1 0 1 1 0 2 1 1 0 0 1 0-2M689 30a1 1 0 1 1 0 2 1 1 0 0 1 0-2M703 30a1 1 0 1 1 0 2 1 1 0 0 1 0-2M717 30a1 1 0 1 1 0 2 1 1 0 0 1 0-2M-11 16a1 1 0 1 1 0 2 1 1 0 0 1 0-2M3 16a1 1 0 1 1 0 2 1 1 0 0 1 0-2M17 16a1 1 0 1 1 0 2 1 1 0 0 1 0-2M31 16a1 1 0 1 1 0 2 1 1 0 0 1 0-2M45 16a1 1 0 1 1 0 2 1 1 0 0 1 0-2M59 16a1 1 0 1 1 0 2 1 1 0 0 1 0-2M73 16a1 1 0 1 1 0 2 1 1 0 0 1 0-2M87 16a1 1 0 1 1 0 2 1 1 0 0 1 0-2M101 16a1 1 0 1 1 0 2 1 1 0 0 1 0-2M115 16a1 1 0 1 1 0 2 1 1 0 0 1 0-2M129 16a1 1 0 1 1 0 2 1 1 0 0 1 0-2M143 16a1 1 0 1 1 0 2 1 1 0 0 1 0-2M157 16a1 1 0 1 1 0 2 1 1 0 0 1 0-2M171 16a1 1 0 1 1 0 2 1 1 0 0 1 0-2M185 16a1 1 0 1 1 0 2 1 1 0 0 1 0-2M199 16a1 1 0 1 1 0 2 1 1 0 0 1 0-2M213 16a1 1 0 1 1 0 2 1 1 0 0 1 0-2M227 16a1 1 0 1 1 0 2 1 1 0 0 1 0-2M241 16a1 1 0 1 1 0 2 1 1 0 0 1 0-2M255 16a1 1 0 1 1 0 2 1 1 0 0 1 0-2M269 16a1 1 0 1 1 0 2 1 1 0 0 1 0-2M283 16a1 1 0 1 1 0 2 1 1 0 0 1 0-2M297 16a1 1 0 1 1 0 2 1 1 0 0 1 0-2M311 16a1 1 0 1 1 0 2 1 1 0 0 1 0-2M325 16a1 1 0 1 1 0 2 1 1 0 0 1 0-2M339 16a1 1 0 1 1 0 2 1 1 0 0 1 0-2M353 16a1 1 0 1 1 0 2 1 1 0 0 1 0-2M367 16a1 1 0 1 1 0 2 1 1 0 0 1 0-2M381 16a1 1 0 1 1 0 2 1 1 0 0 1 0-2M395 16a1 1 0 1 1 0 2 1 1 0 0 1 0-2M409 16a1 1 0 1 1 0 2 1 1 0 0 1 0-2M423 16a1 1 0 1 1 0 2 1 1 0 0 1 0-2M437 16a1 1 0 1 1 0 2 1 1 0 0 1 0-2M451 16a1 1 0 1 1 0 2 1 1 0 0 1 0-2M465 16a1 1 0 1 1 0 2 1 1 0 0 1 0-2M479 16a1 1 0 1 1 0 2 1 1 0 0 1 0-2M493 16a1 1 0 1 1 0 2 1 1 0 0 1 0-2M507 16a1 1 0 1 1 0 2 1 1 0 0 1 0-2M521 16a1 1 0 1 1 0 2 1 1 0 0 1 0-2M535 16a1 1 0 1 1 0 2 1 1 0 0 1 0-2M549 16a1 1 0 1 1 0 2 1 1 0 0 1 0-2M563 16a1 1 0 1 1 0 2 1 1 0 0 1 0-2M577 16a1 1 0 1 1 0 2 1 1 0 0 1 0-2M591 16a1 1 0 1 1 0 2 1 1 0 0 1 0-2M605 16a1 1 0 1 1 0 2 1 1 0 0 1 0-2M619 16a1 1 0 1 1 0 2 1 1 0 0 1 0-2M633 16a1 1 0 1 1 0 2 1 1 0 0 1 0-2M647 16a1 1 0 1 1 0 2 1 1 0 0 1 0-2M661 16a1 1 0 1 1 0 2 1 1 0 0 1 0-2M675 16a1 1 0 1 1 0 2 1 1 0 0 1 0-2M689 16a1 1 0 1 1 0 2 1 1 0 0 1 0-2M703 16a1 1 0 1 1 0 2 1 1 0 0 1 0-2M717 16a1 1 0 1 1 0 2 1 1 0 0 1 0-2M-11 2a1 1 0 1 1 0 2 1 1 0 0 1 0-2M3 2a1 1 0 1 1 0 2 1 1 0 0 1 0-2M17 2a1 1 0 1 1 0 2 1 1 0 0 1 0-2M31 2a1 1 0 1 1 0 2 1 1 0 0 1 0-2M45 2a1 1 0 1 1 0 2 1 1 0 0 1 0-2M59 2a1 1 0 1 1 0 2 1 1 0 0 1 0-2M73 2a1 1 0 1 1 0 2 1 1 0 0 1 0-2M87 2a1 1 0 1 1 0 2 1 1 0 0 1 0-2M101 2a1 1 0 1 1 0 2 1 1 0 0 1 0-2M115 2a1 1 0 1 1 0 2 1 1 0 0 1 0-2M129 2a1 1 0 1 1 0 2 1 1 0 0 1 0-2M143 2a1 1 0 1 1 0 2 1 1 0 0 1 0-2M157 2a1 1 0 1 1 0 2 1 1 0 0 1 0-2M171 2a1 1 0 1 1 0 2 1 1 0 0 1 0-2M185 2a1 1 0 1 1 0 2 1 1 0 0 1 0-2M199 2a1 1 0 1 1 0 2 1 1 0 0 1 0-2M213 2a1 1 0 1 1 0 2 1 1 0 0 1 0-2M227 2a1 1 0 1 1 0 2 1 1 0 0 1 0-2M241 2a1 1 0 1 1 0 2 1 1 0 0 1 0-2M255 2a1 1 0 1 1 0 2 1 1 0 0 1 0-2M269 2a1 1 0 1 1 0 2 1 1 0 0 1 0-2M283 2a1 1 0 1 1 0 2 1 1 0 0 1 0-2M297 2a1 1 0 1 1 0 2 1 1 0 0 1 0-2M311 2a1 1 0 1 1 0 2 1 1 0 0 1 0-2M325 2a1 1 0 1 1 0 2 1 1 0 0 1 0-2M339 2a1 1 0 1 1 0 2 1 1 0 0 1 0-2M353 2a1 1 0 1 1 0 2 1 1 0 0 1 0-2M367 2a1 1 0 1 1 0 2 1 1 0 0 1 0-2M381 2a1 1 0 1 1 0 2 1 1 0 0 1 0-2M395 2a1 1 0 1 1 0 2 1 1 0 0 1 0-2M409 2a1 1 0 1 1 0 2 1 1 0 0 1 0-2M423 2a1 1 0 1 1 0 2 1 1 0 0 1 0-2M437 2a1 1 0 1 1 0 2 1 1 0 0 1 0-2M451 2a1 1 0 1 1 0 2 1 1 0 0 1 0-2M465 2a1 1 0 1 1 0 2 1 1 0 0 1 0-2M479 2a1 1 0 1 1 0 2 1 1 0 0 1 0-2M493 2a1 1 0 1 1 0 2 1 1 0 0 1 0-2M507 2a1 1 0 1 1 0 2 1 1 0 0 1 0-2M521 2a1 1 0 1 1 0 2 1 1 0 0 1 0-2M535 2a1 1 0 1 1 0 2 1 1 0 0 1 0-2M549 2a1 1 0 1 1 0 2 1 1 0 0 1 0-2M563 2a1 1 0 1 1 0 2 1 1 0 0 1 0-2M577 2a1 1 0 1 1 0 2 1 1 0 0 1 0-2M591 2a1 1 0 1 1 0 2 1 1 0 0 1 0-2M605 2a1 1 0 1 1 0 2 1 1 0 0 1 0-2M619 2a1 1 0 1 1 0 2 1 1 0 0 1 0-2M633 2a1 1 0 1 1 0 2 1 1 0 0 1 0-2M647 2a1 1 0 1 1 0 2 1 1 0 0 1 0-2M661 2a1 1 0 1 1 0 2 1 1 0 0 1 0-2M675 2a1 1 0 1 1 0 2 1 1 0 0 1 0-2M689 2a1 1 0 1 1 0 2 1 1 0 0 1 0-2M703 2a1 1 0 1 1 0 2 1 1 0 0 1 0-2M717 2a1 1 0 1 1 0 2 1 1 0 0 1 0-2"/></g><path fill="#fff" d="M287.076 28V17.09h4.091q1.257 0 2.109.438.858.436 1.295 1.225.442.782.442 1.827 0 1.05-.448 1.822-.441.766-1.305 1.188-.863.414-2.12.415h-2.913v-1.64h2.647q.735 0 1.204-.203.468-.209.692-.602.23-.4.229-.98 0-.58-.229-.99a1.45 1.45 0 0 0-.698-.63q-.468-.218-1.209-.218h-1.811V28zm5.636-4.943 2.7 4.943h-2.205l-2.653-4.943zm6.389 5.108q-.777 0-1.401-.277a2.3 2.3 0 0 1-.98-.83q-.357-.55-.357-1.354 0-.692.256-1.145.255-.453.698-.725.441-.27.996-.41a8 8 0 0 1 1.156-.207q.719-.076 1.166-.133.447-.065.65-.192.207-.134.208-.41v-.032q0-.602-.357-.933-.357-.33-1.028-.33-.709 0-1.124.31a1.53 1.53 0 0 0-.554.729l-1.801-.256q.213-.745.704-1.246.49-.507 1.198-.757.708-.255 1.566-.255.591 0 1.177.138t1.071.458q.484.315.778.858.298.543.298 1.358V28h-1.854v-1.124h-.064q-.175.34-.495.64-.315.293-.794.473a3.2 3.2 0 0 1-1.113.176m.501-1.417q.58 0 1.006-.229.427-.234.656-.618.234-.383.234-.836v-.964a.9.9 0 0 1-.309.138q-.213.064-.479.112-.267.048-.528.085l-.452.064a3.4 3.4 0 0 0-.773.192 1.3 1.3 0 0 0-.538.373q-.197.234-.197.607 0 .533.389.805.388.27.991.271M307.048 28l-2.311-8.182h1.965l1.438 5.753h.075l1.47-5.753h1.944l1.471 5.721h.08l1.416-5.72h1.971L314.25 28h-2.008l-1.534-5.53h-.112L309.062 28zm14.192-9.253v-1.656h8.704v1.656h-3.372V28h-1.96v-9.253zm12.732 9.413q-1.23 0-2.125-.512a3.47 3.47 0 0 1-1.369-1.46q-.48-.947-.479-2.231 0-1.263.479-2.216a3.6 3.6 0 0 1 1.353-1.491q.869-.538 2.04-.538.756 0 1.428.245.676.24 1.193.745.522.506.82 1.29.298.777.298 1.853v.591h-6.706v-1.3h4.858a2.06 2.06 0 0 0-.24-.985 1.74 1.74 0 0 0-.655-.687q-.416-.25-.969-.25a1.9 1.9 0 0 0-1.039.287 2 2 0 0 0-.698.746q-.245.459-.25 1.007v1.134q0 .714.261 1.226.26.505.73.777.468.267 1.097.267.42 0 .762-.117.34-.123.591-.357.25-.235.378-.581l1.801.202a2.8 2.8 0 0 1-.65 1.247 3.2 3.2 0 0 1-1.215.82q-.74.288-1.694.288m7.198-11.07V28h-1.928V17.09zm5.605 11.07q-1.23 0-2.125-.512a3.46 3.46 0 0 1-1.369-1.46q-.48-.947-.48-2.231 0-1.263.48-2.216a3.6 3.6 0 0 1 1.353-1.491q.869-.538 2.04-.538.756 0 1.427.245.676.24 1.194.745.522.506.82 1.29.298.777.298 1.853v.591h-6.706v-1.3h4.858a2.1 2.1 0 0 0-.24-.985 1.75 1.75 0 0 0-.655-.687q-.415-.25-.97-.25-.591 0-1.038.287a2 2 0 0 0-.698.746q-.245.459-.25 1.007v1.134q0 .714.261 1.226.261.505.729.777.47.267 1.098.267.42 0 .761-.117.342-.123.592-.357.25-.235.378-.581l1.8.202q-.17.714-.65 1.247-.474.527-1.214.82-.74.288-1.694.288m5.269-.16v-8.182h1.844v1.39h.095q.256-.702.847-1.097.592-.4 1.412-.4.831 0 1.401.406.575.399.81 1.092h.085q.271-.682.916-1.087.65-.41 1.539-.41 1.13 0 1.843.713.714.714.714 2.083V28h-1.933v-5.193q0-.762-.405-1.114-.405-.357-.991-.357-.697 0-1.092.437-.389.431-.389 1.124V28h-1.891v-5.273q0-.634-.383-1.012-.379-.38-.991-.379-.415 0-.757.213a1.5 1.5 0 0 0-.543.592 1.85 1.85 0 0 0-.202.884V28zm17.085.16q-1.231 0-2.126-.512a3.47 3.47 0 0 1-1.369-1.46q-.479-.947-.479-2.231 0-1.263.479-2.216a3.6 3.6 0 0 1 1.353-1.491q.868-.538 2.04-.538.757 0 1.428.245.677.24 1.193.745.523.506.82 1.29.299.777.299 1.853v.591h-6.707v-1.3h4.858a2.1 2.1 0 0 0-.239-.985 1.75 1.75 0 0 0-.656-.687q-.416-.25-.969-.25-.59 0-1.039.287a2 2 0 0 0-.698.746q-.244.459-.25 1.007v1.134q0 .714.261 1.226.26.505.73.777.468.267 1.097.267.422 0 .762-.117.34-.123.591-.357.25-.235.378-.581l1.801.202q-.17.714-.65 1.247a3.2 3.2 0 0 1-1.215.82q-.74.288-1.693.288m9.355-8.342v1.492h-4.704v-1.492zm-3.543-1.96h1.929v7.681q0 .39.117.597a.63.63 0 0 0 .319.277q.197.074.437.074.181 0 .33-.026a3 3 0 0 0 .235-.048l.325 1.507a4 4 0 0 1-.442.117 3.6 3.6 0 0 1-.693.075 3.14 3.14 0 0 1-1.305-.218 2.03 2.03 0 0 1-.921-.757q-.336-.51-.331-1.278zM380.096 28v-8.182h1.87v1.364h.085q.224-.709.767-1.092.549-.39 1.252-.389.159 0 .357.016.203.011.335.037v1.774a2 2 0 0 0-.388-.075 4 4 0 0 0-.506-.037q-.528 0-.949.23-.415.223-.655.622-.24.4-.239.922V28zm7.395 3.068q-.394 0-.73-.064a2.7 2.7 0 0 1-.527-.138l.447-1.502q.421.122.751.117a.92.92 0 0 0 .581-.208q.256-.197.432-.66l.165-.442-2.967-8.353h2.045l1.886 6.18h.085l1.891-6.18h2.051l-3.276 9.173a3.7 3.7 0 0 1-.607 1.113q-.379.469-.927.714-.543.25-1.3.25m11.644-7.516q0-1.997.528-3.67a10.6 10.6 0 0 1 1.582-3.1h1.816q-.405.528-.756 1.294a11.6 11.6 0 0 0-.613 1.673q-.255.906-.405 1.88-.144.975-.144 1.923 0 1.263.251 2.557.255 1.294.687 2.397.437 1.108.98 1.811h-1.816a10.6 10.6 0 0 1-1.582-3.095q-.528-1.677-.528-3.67m7.182 1.88-.005-2.327h.309l2.94-3.287h2.253l-3.617 4.027h-.399zM404.559 28V17.09h1.928V28zm5.135 0-2.663-3.723 1.299-1.359L412.001 28zm5.786 0-3.079-10.91h2.126l1.965 8.018h.101l2.099-8.017h1.934l2.104 8.022h.096l1.965-8.022h2.126L423.838 28h-1.95l-2.184-7.654h-.085L417.43 28zm16.163-4.448q0 1.992-.533 3.67a10.5 10.5 0 0 1-1.577 3.095h-1.816q.41-.527.756-1.289a11 11 0 0 0 .608-1.672q.261-.912.404-1.886a12.6 12.6 0 0 0-.106-4.475 13.6 13.6 0 0 0-.687-2.402q-.432-1.108-.975-1.811h1.816q1.05 1.422 1.577 3.1.533 1.673.533 3.67"/><rect width="57" height="26" x="31.5" y="56.5" fill="#23262f" rx="5.5"/><rect width="57" height="26" x="31.5" y="56.5" stroke="#888c96" rx="5.5"/><path fill="#edeef3" d="M47.325 65.273V74h-1.58v-7.189h-.052l-2.041 1.304v-1.449l2.169-1.393zm5.442 8.893q-1.053 0-1.807-.532-.75-.537-1.155-1.547-.4-1.015-.4-2.442.005-1.427.405-2.43.405-1.004 1.154-1.533.755-.53 1.803-.529 1.048 0 1.803.529.753.529 1.154 1.534.405 1.005.405 2.429 0 1.431-.405 2.446-.4 1.01-1.154 1.543-.75.532-1.803.532m0-1.334q.818 0 1.291-.805.477-.81.477-2.382 0-1.04-.217-1.747-.218-.708-.613-1.066a1.34 1.34 0 0 0-.938-.362q-.815 0-1.287.81-.472.805-.477 2.365-.004 1.044.209 1.756.217.711.613 1.073.396.359.942.358m5.745.12a.91.91 0 0 1-.664-.273.9.9 0 0 1-.273-.665.87.87 0 0 1 .273-.656.91.91 0 0 1 .664-.273q.376 0 .652.273a.896.896 0 0 1 .15 1.13 1 1 0 0 1-.341.34.9.9 0 0 1-.46.124m0-4.326a.91.91 0 0 1-.664-.272.9.9 0 0 1-.273-.665.87.87 0 0 1 .273-.656.9.9 0 0 1 .664-.277q.376 0 .652.277.282.272.286.656a.98.98 0 0 1-.477.81.87.87 0 0 1-.46.127m5.74 5.54q-1.053 0-1.807-.532-.75-.537-1.155-1.547-.4-1.015-.4-2.442.003-1.427.404-2.43.405-1.004 1.155-1.533.755-.53 1.802-.529 1.05 0 1.803.529.755.529 1.155 1.534.405 1.005.405 2.429 0 1.431-.405 2.446-.4 1.01-1.155 1.543-.75.532-1.803.532m0-1.334q.817 0 1.29-.805.478-.81.478-2.382 0-1.04-.217-1.747-.218-.708-.614-1.066a1.34 1.34 0 0 0-.938-.362q-.813 0-1.287.81-.472.805-.477 2.365-.004 1.044.209 1.756.218.711.614 1.073.396.359.941.358m8.003 1.334q-1.052 0-1.806-.532-.75-.537-1.155-1.547-.4-1.015-.4-2.442.003-1.427.404-2.43.405-1.004 1.155-1.533.754-.53 1.802-.529 1.05 0 1.803.529.755.529 1.155 1.534.405 1.005.405 2.429 0 1.431-.405 2.446-.4 1.01-1.155 1.543-.75.532-1.803.532m0-1.334q.819 0 1.291-.805.478-.81.478-2.382 0-1.04-.218-1.747-.216-.708-.613-1.066a1.34 1.34 0 0 0-.938-.362q-.813 0-1.287.81-.472.805-.477 2.365-.004 1.044.209 1.756.218.711.614 1.073.396.359.941.358"/><rect width="56" height="26" x="432" y="56.5" fill="#23262f" rx="5.5"/><rect width="56" height="26" x="432" y="56.5" stroke="#888c96" rx="5.5"/><path fill="#edeef3" d="M447.825 65.273V74h-1.581v-7.189h-.051l-2.041 1.304v-1.449l2.169-1.393zM450.041 74v-1.142l3.03-2.97q.435-.44.724-.78a2.8 2.8 0 0 0 .435-.66q.145-.32.145-.682 0-.414-.187-.708a1.25 1.25 0 0 0-.516-.46 1.7 1.7 0 0 0-.746-.162q-.43 0-.754.18a1.23 1.23 0 0 0-.503.498 1.6 1.6 0 0 0-.175.77h-1.504q0-.83.379-1.444.38-.613 1.044-.95.67-.337 1.534-.337.879 0 1.543.328.665.33 1.031.9.37.57.371 1.304 0 .489-.187.963-.188.473-.661 1.048-.468.575-1.317 1.394l-1.504 1.53v.059h3.801V74zm8.421-1.048a.91.91 0 0 1-.665-.273.9.9 0 0 1-.273-.665.87.87 0 0 1 .273-.656.91.91 0 0 1 .665-.273.9.9 0 0 1 .652.273.9.9 0 0 1 .149 1.13 1 1 0 0 1-.341.34.9.9 0 0 1-.46.124m0-4.326a.91.91 0 0 1-.665-.272.9.9 0 0 1-.273-.665.87.87 0 0 1 .273-.656.9.9 0 0 1 .665-.277q.375 0 .652.277.28.272.285.656a.978.978 0 0 1-.477.81.87.87 0 0 1-.46.127m5.739 5.54q-1.053 0-1.807-.532-.75-.537-1.155-1.547-.4-1.015-.401-2.442.005-1.427.405-2.43.405-1.004 1.155-1.533.755-.53 1.803-.529 1.048 0 1.802.529.755.529 1.155 1.534.405 1.005.405 2.429 0 1.431-.405 2.446-.4 1.01-1.155 1.543-.75.532-1.802.532m0-1.334q.817 0 1.291-.805.477-.81.477-2.382 0-1.04-.217-1.747-.218-.708-.614-1.066a1.34 1.34 0 0 0-.937-.362q-.814 0-1.287.81-.474.805-.478 2.365-.003 1.044.209 1.756.218.711.614 1.073.396.359.942.358m8.004 1.334q-1.053 0-1.807-.532-.75-.537-1.155-1.547-.4-1.015-.401-2.442.004-1.427.405-2.43.405-1.004 1.155-1.533.755-.53 1.803-.529 1.047 0 1.802.529.754.529 1.155 1.534.405 1.005.405 2.429 0 1.431-.405 2.446-.4 1.01-1.155 1.543-.75.532-1.802.532m0-1.334q.817 0 1.291-.805.477-.81.477-2.382 0-1.04-.217-1.747-.218-.708-.614-1.066a1.34 1.34 0 0 0-.937-.362q-.815 0-1.287.81-.474.805-.478 2.365-.004 1.044.209 1.756.218.711.614 1.073.396.359.942.358"/><rect width="55" height="26" x="232.5" y="56.5" fill="#23262f" rx="5.5"/><rect width="55" height="26" x="232.5" y="56.5" stroke="#888c96" rx="5.5"/><path fill="#edeef3" d="M248.325 65.273V74h-1.581v-7.189h-.051l-2.041 1.304v-1.449l2.169-1.393zm5.766 0V74h-1.581v-7.189h-.051l-2.041 1.304v-1.449l2.169-1.393zm3.183 7.679a.92.92 0 0 1-.665-.273.9.9 0 0 1-.272-.665.87.87 0 0 1 .272-.656.92.92 0 0 1 .665-.273.9.9 0 0 1 .652.273.895.895 0 0 1 .149 1.13 1 1 0 0 1-.341.34.9.9 0 0 1-.46.124m0-4.326a.92.92 0 0 1-.665-.272.9.9 0 0 1-.272-.665.87.87 0 0 1 .272-.656.9.9 0 0 1 .665-.277q.375 0 .652.277.282.272.286.656a.9.9 0 0 1-.137.469 1 1 0 0 1-.341.34.86.86 0 0 1-.46.128m5.739 5.54q-1.053 0-1.807-.532-.75-.537-1.155-1.547-.4-1.015-.4-2.442.004-1.427.405-2.43.405-1.004 1.155-1.533.753-.53 1.802-.529 1.049 0 1.803.529t1.155 1.534q.404 1.005.404 2.429 0 1.431-.404 2.446-.401 1.01-1.155 1.543-.75.532-1.803.532m0-1.334q.819 0 1.291-.805.478-.81.478-2.382 0-1.04-.218-1.747-.217-.708-.613-1.066a1.35 1.35 0 0 0-.938-.362q-.813 0-1.287.81-.472.805-.477 2.365-.004 1.044.209 1.756.217.711.613 1.073.397.359.942.358m8.004 1.334q-1.053 0-1.807-.532-.75-.537-1.155-1.547-.4-1.015-.4-2.442.005-1.427.405-2.43.405-1.004 1.154-1.533.754-.53 1.803-.529 1.049 0 1.803.529.753.529 1.154 1.534.405 1.005.405 2.429 0 1.431-.405 2.446-.4 1.01-1.154 1.543-.75.532-1.803.532m0-1.334q.819 0 1.291-.805.477-.81.478-2.382 0-1.04-.218-1.747-.217-.708-.613-1.066a1.35 1.35 0 0 0-.938-.362q-.815 0-1.287.81-.472.805-.477 2.365-.004 1.044.209 1.756.217.711.613 1.073.396.359.942.358"/><rect width="57" height="26" x="631.5" y="56.5" fill="#23262f" rx="5.5"/><rect width="57" height="26" x="631.5" y="56.5" stroke="#888c96" rx="5.5"/><path fill="#edeef3" d="M647.325 65.273V74h-1.581v-7.189h-.051l-2.041 1.304v-1.449l2.169-1.393zm5.348 8.846q-.92 0-1.636-.315a2.74 2.74 0 0 1-1.125-.878 2.27 2.27 0 0 1-.439-1.3h1.602q.022.354.235.618.213.261.566.405.354.145.793.145.47 0 .831-.162.361-.165.567-.46.204-.294.2-.678a1.17 1.17 0 0 0-.205-.698 1.36 1.36 0 0 0-.605-.474q-.391-.17-.946-.17h-.771v-1.219h.771q.456 0 .797-.157.345-.157.541-.444.197-.29.192-.669a1.16 1.16 0 0 0-.166-.643 1.1 1.1 0 0 0-.473-.43 1.56 1.56 0 0 0-.712-.154q-.4 0-.741.145a1.35 1.35 0 0 0-.55.413 1.05 1.05 0 0 0-.221.631h-1.522q.017-.734.422-1.287a2.7 2.7 0 0 1 1.091-.87q.683-.315 1.53-.315.873 0 1.517.328.648.325 1.001.874.354.55.354 1.215.005.737-.435 1.235-.434.5-1.142.652v.069q.92.127 1.411.681.494.55.49 1.368 0 .733-.418 1.313-.413.575-1.142.903-.725.328-1.662.328m5.652-1.167a.91.91 0 0 1-.665-.273.9.9 0 0 1-.273-.665.88.88 0 0 1 .273-.656.91.91 0 0 1 .665-.273.9.9 0 0 1 .652.273.894.894 0 0 1 .149 1.13 1 1 0 0 1-.341.34.9.9 0 0 1-.46.124m0-4.326a.91.91 0 0 1-.665-.272.9.9 0 0 1-.273-.665.88.88 0 0 1 .273-.656.9.9 0 0 1 .665-.277q.375 0 .652.277a.894.894 0 0 1 .149 1.125 1 1 0 0 1-.341.34.86.86 0 0 1-.46.128m5.739 5.54q-1.053 0-1.807-.532-.75-.537-1.155-1.547-.4-1.015-.4-2.442.004-1.427.405-2.43.404-1.004 1.154-1.533.755-.53 1.803-.529 1.049 0 1.802.529.755.529 1.155 1.534.405 1.005.405 2.429 0 1.431-.405 2.446-.4 1.01-1.155 1.543-.75.532-1.802.532m0-1.334q.818 0 1.291-.805.477-.81.477-2.382 0-1.04-.217-1.747t-.614-1.066a1.34 1.34 0 0 0-.937-.362q-.815 0-1.287.81-.473.805-.477 2.365-.005 1.044.209 1.756.216.711.613 1.073.396.359.942.358m8.004 1.334q-1.053 0-1.807-.532-.75-.537-1.155-1.547-.4-1.015-.4-2.442.003-1.427.404-2.43.405-1.004 1.155-1.533.755-.53 1.803-.529 1.049 0 1.802.529.755.529 1.155 1.534.405 1.005.405 2.429 0 1.431-.405 2.446-.4 1.01-1.155 1.543-.75.532-1.802.532m0-1.334q.818 0 1.291-.805.477-.81.477-2.382 0-1.04-.217-1.747t-.614-1.066a1.34 1.34 0 0 0-.937-.362q-.814 0-1.287.81-.473.805-.477 2.365-.005 1.044.208 1.756.218.711.614 1.073.396.359.942.358"/><path stroke="#3369ff" stroke-width="1.5" d="M81 103H59"/><rect width="8" height="8" x="80" y="99" fill="#3369ff" rx="4"/><path stroke="#3369ff" stroke-width="1.5" d="M109 103H87M131 103h-22"/><rect width="8" height="8" x="130" y="99" fill="#3369ff" rx="4"/><path stroke="#3369ff" stroke-width="1.5" d="M159 103h-22M181 103h-22"/><rect width="8" height="8" x="180" y="99" fill="#3369ff" rx="4"/><path stroke="#3369ff" stroke-width="1.5" d="M209 103h-22M231 103h-22"/><rect width="8" height="8" x="230" y="99" fill="#3369ff" rx="4"/><path stroke="#3369ff" stroke-width="1.5" d="M259 103h-22"/><path stroke="#3fd9d1" stroke-width="1.5" d="M281 103h-22"/><rect width="8" height="8" x="280" y="99" fill="#3fd9d1" rx="4"/><path stroke="#3fd9d1" stroke-width="1.5" d="M309 103h-22M331 103h-22"/><rect width="8" height="8" x="330" y="99" fill="#3fd9d1" rx="4"/><path stroke="#3fd9d1" stroke-width="1.5" d="M359 103h-22M381 103h-22"/><rect width="8" height="8" x="380" y="99" fill="#3fd9d1" rx="4"/><path stroke="#3fd9d1" stroke-width="1.5" d="M409 103h-22M431 103h-22"/><rect width="8" height="8" x="430" y="99" fill="#3fd9d1" rx="4"/><path stroke="#3fd9d1" stroke-width="1.5" d="M459 103h-22"/><path stroke="#bd53ee" stroke-width="1.5" d="M481 103h-22"/><rect width="8" height="8" x="480" y="99" fill="#bd53ee" rx="4"/><path stroke="#bd53ee" stroke-width="1.5" d="M509 103h-22M531 103h-22"/><rect width="8" height="8" x="530" y="99" fill="#bd53ee" rx="4"/><path stroke="#bd53ee" stroke-width="1.5" d="M559 103h-22M581 103h-22"/><rect width="8" height="8" x="580" y="99" fill="#bd53ee" rx="4"/><path stroke="#bd53ee" stroke-width="1.5" d="M609 103h-22M631 103h-22"/><rect width="8" height="8" x="630" y="99" fill="#bd53ee" rx="4"/><path stroke="#bd53ee" stroke-width="1.5" d="M659 103h-22"/><path stroke="#888c96" d="M59 115V91M459 115V91M259 115V91M659 115V91"/><path stroke="#3369ff" d="M62 121v8c0 4.418 3.568 8 7.987 8h77.898c2.164 0 4.205.877 5.712 2.43l4.685 4.83a1 1 0 0 0 1.436 0l4.685-4.83a8 8 0 0 1 5.742-2.43H248a8 8 0 0 0 8-8v-8"/><path stroke="#3fd9d1" d="M262 121v8c0 4.418 3.568 8 7.987 8h77.898c2.164 0 4.205.877 5.712 2.43l4.685 4.83a1 1 0 0 0 1.436 0l4.685-4.83a8 8 0 0 1 5.742-2.43H448a8 8 0 0 0 8-8v-8"/><mask id="c" fill="#fff"><path d="M84 153a4 4 0 0 1 4-4h142a4 4 0 0 1 4 4v26H84z"/></mask><path fill="#17264f" d="M84 153a4 4 0 0 1 4-4h142a4 4 0 0 1 4 4v26H84z"/><path fill="#3369ff" d="M83.5 153a4.5 4.5 0 0 1 4.5-4.5h142a4.5 4.5 0 0 1 4.5 4.5h-1a3.5 3.5 0 0 0-3.5-3.5H88a3.5 3.5 0 0 0-3.5 3.5zM234 179H84zm-150.5 0v-26a4.5 4.5 0 0 1 4.5-4.5v1a3.5 3.5 0 0 0-3.5 3.5v26zM230 148.5a4.5 4.5 0 0 1 4.5 4.5v26h-1v-26a3.5 3.5 0 0 0-3.5-3.5z" mask="url(#c)"/><path fill="#fff" d="M96.854 168v-8.661h1.57v3.667h4.012v-3.667h1.573V168h-1.573v-3.679h-4.013V168zm11.627.127q-.951 0-1.649-.419a2.84 2.84 0 0 1-1.082-1.171q-.381-.753-.381-1.759t.381-1.764a2.84 2.84 0 0 1 1.082-1.175q.698-.42 1.649-.419.952 0 1.65.419.697.419 1.078 1.175.385.757.385 1.764 0 1.006-.385 1.759a2.8 2.8 0 0 1-1.078 1.171q-.698.419-1.65.419m.009-1.226q.515 0 .863-.284.347-.288.515-.769.174-.483.174-1.075 0-.596-.174-1.078a1.7 1.7 0 0 0-.515-.774q-.348-.288-.863-.287-.53 0-.88.287-.346.288-.52.774a3.2 3.2 0 0 0-.169 1.078q0 .592.169 1.075.174.481.52.769.35.284.88.284m8.543-1.633v-3.763h1.531V168h-1.484v-1.154h-.068a1.96 1.96 0 0 1-.723.892q-.5.347-1.231.347-.638 0-1.129-.284a1.96 1.96 0 0 1-.761-.833q-.275-.55-.275-1.328v-4.135h1.531v3.898q0 .618.338.982.339.363.888.363.339 0 .656-.165t.52-.49q.207-.33.207-.825m3.105 2.732v-6.495h1.485v1.082h.067q.179-.562.609-.867.436-.309.994-.309.127 0 .283.013.16.009.267.03v1.408a1.6 1.6 0 0 0-.309-.059 3 3 0 0 0-.402-.03q-.418 0-.753.182a1.33 1.33 0 0 0-.52.495 1.4 1.4 0 0 0-.19.731V168zm11.181-8.661V168h-1.569v-7.134h-.05l-2.026 1.294v-1.438l2.152-1.383zm5.4 8.826q-1.044 0-1.793-.529-.744-.533-1.146-1.535-.397-1.006-.397-2.423.005-1.416.402-2.41.4-.999 1.146-1.523.749-.524 1.788-.524t1.789.524q.749.524 1.146 1.523.402.998.402 2.41 0 1.421-.402 2.427-.397 1.003-1.146 1.531-.744.53-1.789.529m0-1.324q.813 0 1.282-.799.474-.804.473-2.364 0-1.032-.215-1.734-.216-.702-.609-1.057a1.33 1.33 0 0 0-.931-.359q-.807 0-1.277.803-.469.8-.473 2.347-.004 1.037.207 1.742.216.706.609 1.066.393.355.934.355m11.65-3.801v1.26h-3.899v-1.26zm8.069-3.701V168h-1.568v-7.134h-.051l-2.026 1.294v-1.438l2.153-1.383zm5.722 0V168h-1.569v-7.134h-.051l-2.025 1.294v-1.438l2.152-1.383z"/><path fill="#17181c" d="M233.75 179.25V255a3.75 3.75 0 0 1-3.75 3.75H88a3.75 3.75 0 0 1-3.75-3.75v-75.75z"/><path stroke="#3369ff" stroke-width=".5" d="M233.75 179.25V255a3.75 3.75 0 0 1-3.75 3.75H88a3.75 3.75 0 0 1-3.75-3.75v-75.75z"/><path fill="#fff" d="m99.008 191.579-1.04 3.731h2.08zm-.596-.869h1.196l2.232 7.29h-1.021l-.537-1.899h-2.553L97.2 198h-1.02zm4.102 1.821h.932l1.587 4.59 1.592-4.59h.933L105.614 198h-1.157zm9.726 2.691q0-1.01-.332-1.534-.327-.527-.957-.527-.659 0-1.006.527-.346.523-.346 1.534 0 1.01.346 1.543.352.527 1.016.527.62 0 .947-.532.332-.533.332-1.538m.899 2.426q0 1.23-.581 1.866-.581.634-1.709.634-.372 0-.777-.068a5.6 5.6 0 0 1-.81-.2v-.889q.478.225.869.332.39.108.718.108.727 0 1.059-.396t.332-1.255v-.649a1.5 1.5 0 0 1-.586.683q-.37.225-.903.225a1.81 1.81 0 0 1-1.528-.767q-.572-.766-.572-2.05 0-1.29.572-2.056a1.81 1.81 0 0 1 1.528-.767q.527 0 .894.21.366.21.595.65v-.708h.899zm3.032-5.112h1.523v1.763h-1.523zm0 3.687h1.523V198h-1.523zm-19.995 10.511h1.318l1.26 3.702 1.269-3.702h1.324V214h-.913v-6.421l-1.3 3.828h-.746l-1.304-3.828V214h-.908zm9.277 4.517h-.298q-.786 0-1.186.278-.396.274-.396.821 0 .493.298.766.299.274.825.274.743 0 1.167-.513.425-.517.43-1.426v-.2zm1.743-.371V214h-.903v-.811a1.86 1.86 0 0 1-.728.723q-.434.23-1.059.23-.835 0-1.333-.469-.498-.474-.498-1.265 0-.913.61-1.387.615-.473 1.802-.473h1.206v-.142q-.005-.654-.332-.947-.327-.298-1.045-.298-.459 0-.928.132a4 4 0 0 0-.913.386v-.899q.499-.19.952-.283.46-.098.889-.098.678 0 1.157.201.484.2.781.6.186.244.264.606.078.355.078 1.074m6.314-2.349-1.958 2.617L113.7 214h-1.04l-1.601-2.192-1.597 2.192h-1.04l2.148-2.852-1.958-2.617h.996l1.451 1.978 1.44-1.978zm2.661.005h1.523v1.763h-1.523zm0 3.687h1.523V214h-1.523zm-15.23 10.736v1.001a4 4 0 0 0-.903-.435 3 3 0 0 0-.908-.146q-.699 0-1.104.327-.405.322-.405.874 0 .483.264.737.268.255.996.425l.517.117q1.026.24 1.495.752.468.513.468 1.397 0 1.04-.644 1.587-.645.546-1.875.547a5 5 0 0 1-1.03-.113 5.6 5.6 0 0 1-1.04-.327v-1.05a5 5 0 0 0 1.06.523q.501.166 1.01.166.747 0 1.162-.332.415-.337.415-.938 0-.547-.288-.835-.284-.288-.991-.444l-.528-.122q-1.015-.23-1.474-.693-.46-.465-.46-1.246 0-.976.655-1.562.66-.591 1.748-.591.42 0 .884.098.464.093.976.283m2.037 4.971v-3.389h.898v3.389q0 .737.259 1.084.264.346.81.346.635 0 .972-.444.337-.45.337-1.284v-3.091h.903V230h-.903v-.82q-.24.473-.654.717a1.85 1.85 0 0 1-.962.245q-.84 0-1.25-.547-.41-.552-.41-1.665m8.374-2.842q.165-.351.419-.518.26-.171.621-.171.658 0 .927.513.274.508.274 1.919V230h-.821v-3.13q0-1.157-.131-1.435-.127-.284-.469-.284-.391 0-.537.303-.142.298-.142 1.416V230h-.82v-3.13q0-1.172-.142-1.445-.136-.274-.498-.274-.355 0-.498.303-.137.298-.137 1.416V230h-.815v-5.469h.815V225q.162-.293.401-.444a1 1 0 0 1 .552-.157q.37 0 .615.171.248.171.386.518m4.819-.552h1.523v1.763h-1.523zm0 3.687h1.523V230h-1.523zm-15.23 10.736v1.001a4 4 0 0 0-.903-.435 3 3 0 0 0-.908-.146q-.699 0-1.104.327-.405.322-.405.874 0 .483.264.737.268.255.996.425l.517.117q1.026.24 1.495.752.468.513.468 1.397 0 1.04-.644 1.587-.645.546-1.875.547a5 5 0 0 1-1.03-.113 5.6 5.6 0 0 1-1.04-.327v-1.05a5 5 0 0 0 1.06.523q.501.166 1.01.166.747 0 1.162-.332.415-.337.415-.938 0-.547-.288-.835-.284-.288-.991-.444l-.528-.122q-1.015-.23-1.474-.693-.46-.465-.46-1.246 0-.976.655-1.562.66-.591 1.748-.591.42 0 .884.098.464.093.976.283m4.082.02v1.552h2.041v.698h-2.041v2.969q0 .606.23.845t.801.239h1.01V246h-1.098q-1.01 0-1.426-.405t-.415-1.397v-2.969h-1.46v-.698h1.46v-1.552zm6.036 2.182q-.684 0-1.036.532-.351.532-.351 1.578 0 1.04.351 1.577.352.532 1.036.532.688 0 1.04-.532.351-.537.351-1.577 0-1.046-.351-1.578-.352-.532-1.04-.532m0-.762q1.137 0 1.738.738.606.737.605 2.134 0 1.401-.6 2.138-.602.733-1.743.733-1.138 0-1.739-.733-.6-.737-.6-2.138 0-1.397.6-2.134.601-.738 1.739-.738m8.657 1.26a2 2 0 0 0-.586-.327 2 2 0 0 0-.654-.103q-.84 0-1.285.528-.444.527-.444 1.523V246h-.903v-5.469h.903v1.07q.225-.582.689-.889.469-.312 1.108-.313.332 0 .62.083.288.084.552.259zm5.854 1.157v.44h-3.891v.029q-.04 1.119.425 1.607.468.488 1.318.488.43 0 .898-.137a5.5 5.5 0 0 0 1.001-.415v.894a6 6 0 0 1-.991.312 4 4 0 0 1-.918.108q-1.275 0-1.992-.762-.718-.766-.718-2.109 0-1.31.703-2.09.703-.782 1.875-.782 1.045 0 1.646.708.605.708.644 1.709m-.898-.263a1.73 1.73 0 0 0-.415-.977q-.352-.415-1.016-.415-.65 0-1.069.43-.42.43-.459.967zm5.644-1.324v-2.827h.899V246h-.899v-.688q-.224.405-.6.62-.371.21-.86.21-.99 0-1.562-.767-.567-.771-.566-2.124 0-1.333.571-2.09.572-.762 1.557-.762.493 0 .87.215.375.21.59.615m-2.641 2.042q0 1.044.332 1.577t.981.532q.65 0 .987-.537.34-.537.341-1.572 0-1.04-.341-1.573-.338-.537-.987-.537-.65 0-.981.532-.332.532-.332 1.578m13.93-.02h-.297q-.786 0-1.187.278-.395.274-.395.821 0 .493.297.766.298.274.826.274.741 0 1.167-.513.424-.517.429-1.426v-.2zm1.744-.371V246h-.904v-.811a1.86 1.86 0 0 1-.727.723q-.435.23-1.06.23-.835 0-1.333-.469-.498-.474-.498-1.265 0-.913.611-1.387.615-.473 1.801-.473h1.206v-.142q-.005-.654-.332-.947-.327-.298-1.045-.298-.459 0-.927.132a4 4 0 0 0-.913.386v-.899q.498-.19.952-.283.459-.098.888-.098.68 0 1.158.201.483.2.781.6.185.244.264.606.078.355.078 1.074m3.852-3.901v1.552h2.041v.698h-2.041v2.969q0 .606.23.845t.8.239h1.011V246h-1.098q-1.012 0-1.426-.405-.415-.405-.415-1.397v-2.969h-1.46v-.698h1.46v-1.552zm5.122 1.557h1.524v1.763h-1.524zm0 3.687h1.524V246h-1.524z"/><path fill="#888c96" d="M199.217 197.175h1.533v-5.508l-1.836.884v-.947l1.826-.87h.987v6.441h1.513V198h-4.023zm6.528-.005h3.35v.83h-4.429v-.83q.913-.962 1.597-1.699t.942-1.04q.488-.596.659-.962.171-.372.171-.757 0-.61-.361-.957-.357-.347-.982-.347-.444 0-.932.161a5.3 5.3 0 0 0-1.035.489v-.996q.503-.24.986-.362a4 4 0 0 1 .962-.122q1.07 0 1.719.571.654.566.654 1.49 0 .469-.22.937-.214.47-.703 1.035-.274.318-.796.879-.517.562-1.582 1.68m6.104-1.143h1.718V198h-1.718zm7.714-4.419-2.299 3.853h2.299zm-.161-.898h1.143v4.751h.972v.801h-.972V198h-.982v-1.738h-3.09v-.933zm-20.185 22.465h1.533v-5.508l-1.836.884v-.947l1.826-.87h.987v6.441h1.513V214h-4.023zm7.715-2.637q-.66 0-1.021.371-.356.366-.356 1.04 0 .673.361 1.05.366.37 1.016.371.664 0 1.02-.366.361-.37.361-1.055 0-.668-.366-1.04-.361-.37-1.015-.371m-.86-.41q-.63-.161-.986-.601a1.65 1.65 0 0 1-.352-1.059q0-.87.591-1.377.591-.513 1.607-.513 1.02 0 1.611.513.591.507.591 1.377 0 .62-.357 1.059-.351.44-.981.601.732.161 1.118.649.39.489.391 1.265 0 .987-.63 1.543-.63.557-1.743.557-1.114 0-1.744-.552-.624-.557-.625-1.538 0-.781.386-1.27.391-.494 1.123-.654m-.356-1.567q0 .585.312.893.313.308.904.308.596 0 .908-.308t.312-.893q0-.596-.312-.909-.308-.312-.908-.312-.59 0-.904.317-.312.313-.312.904m6.133 3.466h1.718V214h-1.718zm7.036-1.259q.63 0 .986-.455.361-.454.361-1.254 0-.801-.361-1.255-.357-.454-.986-.454-.654 0-.987.434-.332.43-.332 1.275 0 .849.328 1.279.331.43.991.43m-1.758 3.081v-.909q.308.181.654.279.346.093.723.093.938 0 1.416-.704.483-.708.483-2.08a1.75 1.75 0 0 1-.644.752 1.76 1.76 0 0 1-.952.259q-1.055 0-1.636-.649-.576-.65-.576-1.841 0-1.177.591-1.821.596-.65 1.679-.65 1.27 0 1.861.913.59.914.59 2.871 0 1.841-.712 2.813-.708.966-2.061.967-.357 0-.718-.079a3.7 3.7 0 0 1-.698-.214m-32.466 9.022v.908a2.7 2.7 0 0 0-.654-.273 2.7 2.7 0 0 0-.723-.098q-.937 0-1.421.708-.483.704-.483 2.075a1.75 1.75 0 0 1 .649-.747q.415-.263.952-.263 1.056 0 1.631.649.582.645.581 1.831 0 1.182-.595 1.831-.596.65-1.675.65-1.27 0-1.861-.909-.59-.912-.59-2.871 0-1.845.708-2.812.713-.972 2.06-.972.362 0 .723.078.362.074.698.215m-1.758 3.081q-.63 0-.991.454t-.361 1.255.361 1.255.991.454q.655 0 .987-.43.332-.434.332-1.279 0-.85-.332-1.279-.332-.43-.987-.43m4.844 2.075h1.719V230h-1.719zm4.805-5.317h4.59v.42l-2.608 6.87h-1.03l2.539-6.46h-3.491zm12.524-.308h.928v4.4l2.358-2.271h1.094l-2.153 2.061 2.49 3.408h-1.099l-2.021-2.822-.669.63V230h-.928zm4.873.308h.962l.698 5.918.83-3.916h1.031l.84 3.926.698-5.928h.962l-1.089 7.29h-.933l-.991-4.331-.986 4.331h-.933zm11.157 3.901V230h-.903v-3.389q0-.737-.259-1.084-.258-.346-.81-.346-.63 0-.972.449-.337.445-.337 1.279V230h-.898v-7.598h.898v2.95a1.67 1.67 0 0 1 .65-.708 1.86 1.86 0 0 1 .971-.245q.835 0 1.245.552.415.547.415 1.66m-27.915 18.564h1.534v-5.508l-1.836.884v-.947l1.826-.87h.986v6.441h1.514V246h-4.024zm6.026 0h1.533v-5.508l-1.836.884v-.947l1.826-.87h.987v6.441h1.513V246h-4.023zm6.802-4.639h1.523v1.763h-1.523zm0 3.687h1.523V246h-1.523zm6.938-5.62q1.167 0 1.763.952.6.952.6 2.817t-.6 2.817q-.596.953-1.763.953t-1.763-.953q-.595-.951-.595-2.817 0-1.865.595-2.817.596-.952 1.763-.952m0 6.757q.694 0 1.03-.737.342-.737.342-2.251a10 10 0 0 0-.098-1.455l-2.324 3.638q.366.805 1.05.805m0-5.976q-.688 0-1.03.737-.337.738-.337 2.251 0 .689.093 1.289l2.275-3.628q-.37-.65-1.001-.649m6.025-.781q1.167 0 1.763.952.601.952.601 2.817t-.601 2.817q-.596.953-1.763.953t-1.762-.953q-.596-.951-.596-2.817 0-1.865.596-2.817.595-.952 1.762-.952m0 6.757q.694 0 1.031-.737.341-.737.341-2.251 0-.805-.097-1.455l-2.324 3.638q.366.805 1.049.805m0-5.976q-.688 0-1.03.737-.337.738-.337 2.251 0 .689.093 1.289l2.275-3.628q-.37-.65-1.001-.649"/><mask id="d" fill="#fff"><path d="M284 153a4 4 0 0 1 4-4h142a4 4 0 0 1 4 4v26H284z"/></mask><path fill="#1d3739" d="M284 153a4 4 0 0 1 4-4h142a4 4 0 0 1 4 4v26H284z"/><path fill="#3fd9d1" d="M283.5 153a4.5 4.5 0 0 1 4.5-4.5h142a4.5 4.5 0 0 1 4.5 4.5h-1a3.5 3.5 0 0 0-3.5-3.5H288a3.5 3.5 0 0 0-3.5 3.5zM434 179H284zm-150.5 0v-26a4.5 4.5 0 0 1 4.5-4.5v1a3.5 3.5 0 0 0-3.5 3.5v26zM430 148.5a4.5 4.5 0 0 1 4.5 4.5v26h-1v-26a3.5 3.5 0 0 0-3.5-3.5z" mask="url(#d)"/><path fill="#fff" d="M296.854 168v-8.661h1.569v3.667h4.013v-3.667h1.573V168h-1.573v-3.679h-4.013V168zm11.627.127q-.951 0-1.649-.419a2.84 2.84 0 0 1-1.082-1.171q-.381-.753-.381-1.759t.381-1.764a2.84 2.84 0 0 1 1.082-1.175q.698-.42 1.649-.419.952 0 1.65.419.697.419 1.078 1.175.385.757.385 1.764 0 1.006-.385 1.759a2.8 2.8 0 0 1-1.078 1.171q-.698.419-1.65.419m.009-1.226q.515 0 .863-.284.347-.288.515-.769.174-.483.174-1.075 0-.596-.174-1.078a1.7 1.7 0 0 0-.515-.774q-.348-.288-.863-.287-.53 0-.88.287-.346.288-.52.774a3.2 3.2 0 0 0-.169 1.078q0 .592.169 1.075.174.481.52.769.35.284.88.284m8.543-1.633v-3.763h1.531V168h-1.484v-1.154h-.068a1.96 1.96 0 0 1-.723.892q-.5.347-1.231.347-.638 0-1.129-.284a1.96 1.96 0 0 1-.761-.833q-.275-.55-.275-1.328v-4.135h1.531v3.898q0 .618.338.982.339.363.888.363.338 0 .656-.165.317-.165.52-.49.207-.33.207-.825m3.105 2.732v-6.495h1.485v1.082h.067q.179-.562.609-.867.436-.309.994-.309.126 0 .283.013.16.009.267.03v1.408a1.6 1.6 0 0 0-.309-.059 3 3 0 0 0-.402-.03q-.419 0-.753.182a1.33 1.33 0 0 0-.52.495 1.4 1.4 0 0 0-.19.731V168zm11.181-8.661V168h-1.569v-7.134h-.05l-2.026 1.294v-1.438l2.152-1.383zm5.722 0V168h-1.569v-7.134h-.051l-2.025 1.294v-1.438l2.152-1.383zm9.107 3.701v1.26h-3.899v-1.26zm8.069-3.701V168h-1.569v-7.134h-.05l-2.026 1.294v-1.438l2.153-1.383zm2.199 8.661v-1.133l3.007-2.948q.431-.435.719-.774a2.8 2.8 0 0 0 .431-.655 1.6 1.6 0 0 0 .144-.677 1.3 1.3 0 0 0-.186-.702 1.24 1.24 0 0 0-.512-.456 1.64 1.64 0 0 0-.74-.161q-.427 0-.748.177a1.2 1.2 0 0 0-.499.495q-.174.322-.174.766h-1.492q0-.825.376-1.434a2.54 2.54 0 0 1 1.036-.943q.664-.334 1.522-.334.871 0 1.531.326.66.325 1.024.892.367.567.367 1.294 0 .486-.186.956-.186.469-.655 1.04-.465.57-1.307 1.383l-1.493 1.518v.059h3.773V168z"/><path fill="#17181c" d="M433.75 179.25V255a3.75 3.75 0 0 1-3.75 3.75H288a3.75 3.75 0 0 1-3.75-3.75v-75.75z"/><path stroke="#3fd9d1" stroke-width=".5" d="M433.75 179.25V255a3.75 3.75 0 0 1-3.75 3.75H288a3.75 3.75 0 0 1-3.75-3.75v-75.75z"/><path fill="#fff" d="m299.008 191.579-1.04 3.731h2.08zm-.596-.869h1.196l2.232 7.29h-1.021l-.537-1.899h-2.553l-.528 1.899h-1.02zm4.102 1.821h.932l1.587 4.59 1.592-4.59h.933L305.614 198h-1.157zm9.726 2.691q0-1.01-.332-1.534-.327-.527-.957-.527-.659 0-1.006.527-.346.523-.346 1.534 0 1.01.346 1.543.352.527 1.016.527.62 0 .947-.532.332-.533.332-1.538m.899 2.426q0 1.23-.581 1.866-.582.634-1.709.634-.372 0-.777-.068a5.6 5.6 0 0 1-.81-.2v-.889q.478.225.869.332.39.108.718.108.728 0 1.059-.396.332-.396.332-1.255v-.649a1.5 1.5 0 0 1-.586.683q-.37.225-.903.225a1.81 1.81 0 0 1-1.528-.767q-.572-.766-.572-2.05 0-1.29.572-2.056a1.81 1.81 0 0 1 1.528-.767q.527 0 .894.21.366.21.595.65v-.708h.899zm3.032-5.112h1.523v1.763h-1.523zm0 3.687h1.523V198h-1.523zm-19.995 10.511h1.318l1.26 3.702 1.269-3.702h1.324V214h-.913v-6.421l-1.299 3.828h-.747l-1.304-3.828V214h-.908zm9.277 4.517h-.298q-.786 0-1.186.278-.396.274-.396.821 0 .493.298.766.298.274.825.274.743 0 1.167-.513.425-.517.43-1.426v-.2zm1.743-.371V214h-.903v-.811a1.86 1.86 0 0 1-.728.723q-.434.23-1.059.23-.835 0-1.333-.469-.498-.474-.498-1.265 0-.913.61-1.387.615-.473 1.802-.473h1.206v-.142q-.005-.654-.332-.947-.327-.298-1.045-.298-.459 0-.928.132a4 4 0 0 0-.913.386v-.899q.498-.19.952-.283.46-.098.889-.098.678 0 1.157.201.484.2.781.6.186.244.264.606.078.355.078 1.074m6.314-2.349-1.958 2.617L313.7 214h-1.04l-1.601-2.192-1.597 2.192h-1.04l2.148-2.852-1.958-2.617h.996l1.451 1.978 1.44-1.978zm2.661.005h1.523v1.763h-1.523zm0 3.687h1.523V214h-1.523zm-15.23 10.736v1.001a4 4 0 0 0-.903-.435 3 3 0 0 0-.908-.146q-.698 0-1.104.327-.405.322-.405.874 0 .483.264.737.269.255.996.425l.517.117q1.026.24 1.495.752.468.513.468 1.397 0 1.04-.644 1.587-.645.546-1.875.547-.513 0-1.03-.113a5.6 5.6 0 0 1-1.041-.327v-1.05a5 5 0 0 0 1.06.523q.503.166 1.011.166.747 0 1.162-.332.415-.337.415-.938 0-.547-.288-.835-.283-.288-.991-.444l-.528-.122q-1.015-.23-1.474-.693-.459-.465-.459-1.246 0-.976.654-1.562.659-.591 1.748-.591.42 0 .884.098.464.093.976.283m2.037 4.971v-3.389h.898v3.389q0 .737.259 1.084.264.346.81.346.635 0 .972-.444.337-.45.337-1.284v-3.091h.903V230h-.903v-.82q-.24.473-.654.717a1.85 1.85 0 0 1-.962.245q-.84 0-1.25-.547-.41-.552-.41-1.665m8.374-2.842q.165-.351.419-.518.26-.171.621-.171.659 0 .927.513.274.508.274 1.919V230h-.821v-3.13q0-1.157-.131-1.435-.127-.284-.469-.284-.392 0-.537.303-.142.298-.142 1.416V230h-.82v-3.13q0-1.172-.142-1.445-.137-.274-.498-.274-.356 0-.498.303-.137.298-.137 1.416V230h-.815v-5.469h.815V225q.161-.293.401-.444a1 1 0 0 1 .552-.157q.37 0 .615.171.248.171.386.518m4.819-.552h1.523v1.763h-1.523zm0 3.687h1.523V230h-1.523zm-15.23 10.736v1.001a4 4 0 0 0-.903-.435 3 3 0 0 0-.908-.146q-.698 0-1.104.327-.405.322-.405.874 0 .483.264.737.269.255.996.425l.517.117q1.026.24 1.495.752.468.513.468 1.397 0 1.04-.644 1.587-.645.546-1.875.547-.513 0-1.03-.113a5.6 5.6 0 0 1-1.041-.327v-1.05a5 5 0 0 0 1.06.523q.503.166 1.011.166.747 0 1.162-.332.415-.337.415-.938 0-.547-.288-.835-.283-.288-.991-.444l-.528-.122q-1.015-.23-1.474-.693-.459-.465-.459-1.246 0-.976.654-1.562.659-.591 1.748-.591.42 0 .884.098.464.093.976.283m4.082.02v1.552h2.041v.698h-2.041v2.969q0 .606.23.845t.801.239h1.01V246h-1.098q-1.01 0-1.426-.405t-.415-1.397v-2.969h-1.46v-.698h1.46v-1.552zm6.036 2.182q-.684 0-1.036.532-.351.532-.351 1.578 0 1.04.351 1.577.352.532 1.036.532.688 0 1.04-.532.351-.537.351-1.577 0-1.046-.351-1.578-.352-.532-1.04-.532m0-.762q1.137 0 1.738.738.606.737.605 2.134 0 1.401-.6 2.138-.601.733-1.743.733-1.138 0-1.739-.733-.6-.737-.6-2.138 0-1.397.6-2.134.601-.738 1.739-.738m8.657 1.26a2 2 0 0 0-.586-.327 2 2 0 0 0-.654-.103q-.84 0-1.285.528-.444.527-.444 1.523V246h-.903v-5.469h.903v1.07q.224-.582.689-.889.469-.312 1.108-.313.332 0 .62.083.288.084.552.259zm5.854 1.157v.44h-3.891v.029q-.04 1.119.425 1.607.468.488 1.318.488.43 0 .898-.137a5.5 5.5 0 0 0 1.001-.415v.894a6 6 0 0 1-.991.312 4 4 0 0 1-.918.108q-1.275 0-1.992-.762-.718-.766-.718-2.109 0-1.31.703-2.09.703-.782 1.875-.782 1.045 0 1.646.708.605.708.644 1.709m-.898-.263a1.73 1.73 0 0 0-.415-.977q-.352-.415-1.016-.415-.65 0-1.069.43-.42.43-.459.967zm5.644-1.324v-2.827h.899V246h-.899v-.688q-.224.405-.6.62-.371.21-.86.21-.99 0-1.562-.767-.567-.771-.566-2.124 0-1.333.571-2.09.571-.762 1.557-.762.494 0 .87.215.375.21.59.615m-2.641 2.042q0 1.044.332 1.577.331.532.981.532t.987-.537q.34-.537.341-1.572 0-1.04-.341-1.573-.337-.537-.987-.537t-.981.532q-.332.532-.332 1.578m13.93-.02h-.297q-.786 0-1.187.278-.395.274-.395.821 0 .493.297.766.298.274.826.274.741 0 1.167-.513.425-.517.429-1.426v-.2zm1.744-.371V246h-.904v-.811a1.86 1.86 0 0 1-.727.723q-.435.23-1.06.23-.834 0-1.333-.469-.498-.474-.498-1.265 0-.913.611-1.387.615-.473 1.801-.473h1.206v-.142q-.005-.654-.332-.947-.327-.298-1.045-.298-.459 0-.927.132a4 4 0 0 0-.913.386v-.899q.498-.19.952-.283.459-.098.888-.098.68 0 1.158.201.483.2.781.6.185.244.264.606.078.355.078 1.074m3.852-3.901v1.552h2.041v.698h-2.041v2.969q0 .606.23.845t.8.239h1.011V246h-1.098q-1.012 0-1.426-.405-.415-.405-.415-1.397v-2.969h-1.46v-.698h1.46v-1.552zm5.122 1.557h1.524v1.763h-1.524zm0 3.687h1.524V246h-1.524z"/><path fill="#888c96" d="M399.217 197.175h1.533v-5.508l-1.836.884v-.947l1.826-.87h.987v6.441h1.513V198h-4.023zm8.296-5.567-2.3 3.853h2.3zm-.161-.898h1.142v4.751h.972v.801h-.972V198h-.981v-1.738h-3.091v-.933zm4.497 5.317h1.718V198h-1.718zm5.444 1.148h1.533v-5.508l-1.836.884v-.947l1.826-.87h.987v6.441h1.513V198h-4.023zM399.72 213.17h3.349v.83h-4.428v-.83q.913-.962 1.596-1.699.684-.738.943-1.04.488-.596.659-.962.171-.372.171-.757 0-.61-.362-.957-.356-.347-.981-.347-.444 0-.933.161-.488.162-1.035.489v-.996q.503-.24.987-.362.488-.122.961-.122 1.07 0 1.719.571.654.566.655 1.49 0 .469-.22.937-.215.47-.703 1.035-.274.318-.796.879-.518.562-1.582 1.68m6.025 0h3.35v.83h-4.429v-.83q.913-.962 1.597-1.699t.942-1.04q.489-.596.659-.962.171-.372.171-.757 0-.61-.361-.957-.357-.347-.982-.347-.444 0-.932.161a5.3 5.3 0 0 0-1.035.489v-.996q.503-.24.986-.362a4 4 0 0 1 .962-.122q1.07 0 1.719.571.654.566.654 1.49 0 .469-.22.937-.214.47-.703 1.035-.274.318-.796.879-.517.562-1.582 1.68m6.104-1.143h1.718V214h-1.718zm7.915-1.928q.717.19 1.098.678.381.484.381 1.211 0 1.006-.679 1.582-.673.572-1.87.572a6 6 0 0 1-1.025-.093 6.6 6.6 0 0 1-1.025-.269v-.981q.498.258.981.386.483.127.962.127.81 0 1.245-.367.435-.366.435-1.054 0-.636-.435-1.006-.435-.376-1.177-.376h-.752v-.811h.752q.68 0 1.06-.298.381-.297.381-.83 0-.56-.357-.859-.35-.303-1.006-.303-.434 0-.898.098a6.4 6.4 0 0 0-.972.293v-.908q.591-.157 1.05-.235.464-.078.82-.078 1.065 0 1.7.537.639.532.639 1.416 0 .601-.337 1.001-.332.4-.971.567m-39.263 12.611h4.59v.42l-2.608 6.87h-1.03l2.539-6.46h-3.491zm7.246 5.317h1.719V230h-1.719zm7.134-1.489q-.66 0-1.021.371-.356.366-.356 1.04 0 .673.361 1.05.366.37 1.016.371.664 0 1.02-.366.362-.37.362-1.055 0-.668-.367-1.04-.36-.37-1.015-.371m-.86-.41q-.629-.161-.986-.601a1.64 1.64 0 0 1-.351-1.059q0-.87.59-1.377.591-.513 1.607-.513 1.02 0 1.611.513.591.507.591 1.377 0 .62-.356 1.059-.352.44-.982.601.732.161 1.118.649.391.489.391 1.265 0 .987-.63 1.543-.63.557-1.743.557t-1.743-.552q-.625-.557-.625-1.538 0-.781.385-1.27.391-.494 1.123-.654m-.356-1.567q0 .585.313.893.312.308.903.308.596 0 .908-.308t.313-.893q0-.596-.313-.909-.308-.312-.908-.312-.591 0-.903.317-.313.313-.313.904m11.411-2.159h.928v4.4l2.358-2.271h1.094l-2.153 2.061 2.49 3.408h-1.099l-2.021-2.822-.669.63V230h-.928zm4.873.308h.962l.698 5.918.83-3.916h1.031l.84 3.926.698-5.928h.962l-1.089 7.29h-.933l-.991-4.331-.986 4.331h-.933zm11.157 3.901V230h-.903v-3.389q0-.737-.259-1.084-.258-.346-.81-.346-.63 0-.972.449-.337.445-.337 1.279V230h-.898v-7.598h.898v2.95a1.67 1.67 0 0 1 .65-.708 1.86 1.86 0 0 1 .971-.245q.835 0 1.245.552.415.547.415 1.66m-27.915 18.564h1.534v-5.508l-1.836.884v-.947l1.826-.87h.986v6.441h1.514V246h-4.024zm6.529-.005h3.349v.83h-4.428v-.83q.913-.962 1.596-1.699.684-.738.943-1.04.488-.596.659-.962.171-.372.171-.757 0-.61-.362-.957-.356-.347-.981-.347-.444 0-.933.161-.488.162-1.035.489v-.996q.503-.24.987-.362.488-.122.961-.122 1.07 0 1.719.571.654.566.655 1.49 0 .469-.22.937-.215.47-.703 1.035-.274.318-.796.879-.518.562-1.582 1.68m6.299-4.634h1.523v1.763h-1.523zm0 3.687h1.523V246h-1.523zm6.938-5.62q1.167 0 1.763.952.6.952.6 2.817t-.6 2.817q-.596.953-1.763.953t-1.763-.953q-.595-.951-.595-2.817 0-1.865.595-2.817.596-.952 1.763-.952m0 6.757q.694 0 1.03-.737.342-.737.342-2.251a10 10 0 0 0-.098-1.455l-2.324 3.638q.366.805 1.05.805m0-5.976q-.688 0-1.03.737-.337.738-.337 2.251 0 .689.093 1.289l2.275-3.628q-.37-.65-1.001-.649m6.025-.781q1.167 0 1.763.952.601.952.601 2.817t-.601 2.817q-.596.953-1.763.953t-1.762-.953q-.596-.951-.596-2.817 0-1.865.596-2.817.595-.952 1.762-.952m0 6.757q.694 0 1.031-.737.341-.737.341-2.251 0-.805-.097-1.455l-2.324 3.638q.366.805 1.049.805m0-5.976q-.688 0-1.03.737-.337.738-.337 2.251 0 .689.093 1.289l2.275-3.628q-.37-.65-1.001-.649"/></g><defs><clipPath id="a"><path fill="#fff" d="M0 0h720v273H0z"/></clipPath><clipPath id="b"><path fill="#fff" d="M0 0h720v314H0z"/></clipPath></defs></svg>
