<svg xmlns="http://www.w3.org/2000/svg" width="720" height="272" fill="none" viewBox="0 0 720 272"><g clip-path="url(#a)"><path fill="#fff" d="M0 0h720v272H0z"/><g fill="#c1c3c8" clip-path="url(#b)" opacity=".5"><path d="M-11 324a1 1 0 1 1 0 2 1 1 0 0 1 0-2m14 0a1 1 0 1 1 0 2 1 1 0 0 1 0-2m14 0a1 1 0 1 1 0 2 1 1 0 0 1 0-2m14 0a1 1 0 1 1 0 2 1 1 0 0 1 0-2m14 0a1 1 0 1 1 0 2 1 1 0 0 1 0-2m14 0a1 1 0 1 1 0 2 1 1 0 0 1 0-2m14 0a1 1 0 1 1 0 2 1 1 0 0 1 0-2m14 0a1 1 0 1 1 0 2 1 1 0 0 1 0-2m14 0a1 1 0 1 1 0 2 1 1 0 0 1 0-2m14 0a1 1 0 1 1 0 2 1 1 0 0 1 0-2m14 0a1 1 0 1 1 0 2 1 1 0 0 1 0-2m14 0a1 1 0 1 1 0 2 1 1 0 0 1 0-2m14 0a1 1 0 1 1 0 2 1 1 0 0 1 0-2m14 0a1 1 0 1 1 0 2 1 1 0 0 1 0-2m14 0a1 1 0 1 1 0 2 1 1 0 0 1 0-2m14 0a1 1 0 1 1 0 2 1 1 0 0 1 0-2m14 0a1 1 0 1 1 0 2 1 1 0 0 1 0-2m14 0a1 1 0 1 1 0 2 1 1 0 0 1 0-2m14 0a1 1 0 1 1 0 2 1 1 0 0 1 0-2m14 0a1 1 0 1 1 0 2 1 1 0 0 1 0-2m14 0a1 1 0 1 1 0 2 1 1 0 0 1 0-2m14 0a1 1 0 1 1 0 2 1 1 0 0 1 0-2m14 0a1 1 0 1 1 0 2 1 1 0 0 1 0-2m14 0a1 1 0 1 1 0 2 1 1 0 0 1 0-2m14 0a1 1 0 1 1 0 2 1 1 0 0 1 0-2m14 0a1 1 0 1 1 0 2 1 1 0 0 1 0-2m14 0a1 1 0 1 1 0 2 1 1 0 0 1 0-2m14 0a1 1 0 1 1 0 2 1 1 0 0 1 0-2m14 0a1 1 0 1 1 0 2 1 1 0 0 1 0-2m14 0a1 1 0 1 1 0 2 1 1 0 0 1 0-2m14 0a1 1 0 1 1 0 2 1 1 0 0 1 0-2m14 0a1 1 0 1 1 0 2 1 1 0 0 1 0-2m14 0a1 1 0 1 1 0 2 1 1 0 0 1 0-2m14 0a1 1 0 1 1 0 2 1 1 0 0 1 0-2m14 0a1 1 0 1 1 0 2 1 1 0 0 1 0-2m14 0a1 1 0 1 1 0 2 1 1 0 0 1 0-2m14 0a1 1 0 1 1 0 2 1 1 0 0 1 0-2m14 0a1 1 0 1 1 0 2 1 1 0 0 1 0-2m14 0a1 1 0 1 1 0 2 1 1 0 0 1 0-2m14 0a1 1 0 1 1 0 2 1 1 0 0 1 0-2m14 0a1 1 0 1 1 0 2 1 1 0 0 1 0-2m14 0a1 1 0 1 1 0 2 1 1 0 0 1 0-2m14 0a1 1 0 1 1 0 2 1 1 0 0 1 0-2m14 0a1 1 0 1 1 0 2 1 1 0 0 1 0-2m14 0a1 1 0 1 1 0 2 1 1 0 0 1 0-2m14 0a1 1 0 1 1 0 2 1 1 0 0 1 0-2m14 0a1 1 0 1 1 0 2 1 1 0 0 1 0-2m14 0a1 1 0 1 1 0 2 1 1 0 0 1 0-2m14 0a1 1 0 1 1 0 2 1 1 0 0 1 0-2m14 0a1 1 0 1 1 0 2 1 1 0 0 1 0-2m14 0a1 1 0 1 1 0 2 1 1 0 0 1 0-2m14 0a1 1 0 1 1 0 2 1 1 0 0 1 0-2m-714-14a1 1 0 1 1 0 2 1 1 0 0 1 0-2m14 0a1 1 0 1 1 0 2 1 1 0 0 1 0-2m14 0a1 1 0 1 1 0 2 1 1 0 0 1 0-2m14 0a1 1 0 1 1 0 2 1 1 0 0 1 0-2m14 0a1 1 0 1 1 0 2 1 1 0 0 1 0-2m14 0a1 1 0 1 1 0 2 1 1 0 0 1 0-2m14 0a1 1 0 1 1 0 2 1 1 0 0 1 0-2m14 0a1 1 0 1 1 0 2 1 1 0 0 1 0-2m14 0a1 1 0 1 1 0 2 1 1 0 0 1 0-2m14 0a1 1 0 1 1 0 2 1 1 0 0 1 0-2m14 0a1 1 0 1 1 0 2 1 1 0 0 1 0-2m14 0a1 1 0 1 1 0 2 1 1 0 0 1 0-2m14 0a1 1 0 1 1 0 2 1 1 0 0 1 0-2m14 0a1 1 0 1 1 0 2 1 1 0 0 1 0-2m14 0a1 1 0 1 1 0 2 1 1 0 0 1 0-2m14 0a1 1 0 1 1 0 2 1 1 0 0 1 0-2m14 0a1 1 0 1 1 0 2 1 1 0 0 1 0-2m14 0a1 1 0 1 1 0 2 1 1 0 0 1 0-2m14 0a1 1 0 1 1 0 2 1 1 0 0 1 0-2m14 0a1 1 0 1 1 0 2 1 1 0 0 1 0-2m14 0a1 1 0 1 1 0 2 1 1 0 0 1 0-2m14 0a1 1 0 1 1 0 2 1 1 0 0 1 0-2m14 0a1 1 0 1 1 0 2 1 1 0 0 1 0-2m14 0a1 1 0 1 1 0 2 1 1 0 0 1 0-2m14 0a1 1 0 1 1 0 2 1 1 0 0 1 0-2m14 0a1 1 0 1 1 0 2 1 1 0 0 1 0-2m14 0a1 1 0 1 1 0 2 1 1 0 0 1 0-2m14 0a1 1 0 1 1 0 2 1 1 0 0 1 0-2m14 0a1 1 0 1 1 0 2 1 1 0 0 1 0-2m14 0a1 1 0 1 1 0 2 1 1 0 0 1 0-2m14 0a1 1 0 1 1 0 2 1 1 0 0 1 0-2m14 0a1 1 0 1 1 0 2 1 1 0 0 1 0-2m14 0a1 1 0 1 1 0 2 1 1 0 0 1 0-2m14 0a1 1 0 1 1 0 2 1 1 0 0 1 0-2m14 0a1 1 0 1 1 0 2 1 1 0 0 1 0-2m14 0a1 1 0 1 1 0 2 1 1 0 0 1 0-2m14 0a1 1 0 1 1 0 2 1 1 0 0 1 0-2m14 0a1 1 0 1 1 0 2 1 1 0 0 1 0-2m14 0a1 1 0 1 1 0 2 1 1 0 0 1 0-2m14 0a1 1 0 1 1 0 2 1 1 0 0 1 0-2m14 0a1 1 0 1 1 0 2 1 1 0 0 1 0-2m14 0a1 1 0 1 1 0 2 1 1 0 0 1 0-2m14 0a1 1 0 1 1 0 2 1 1 0 0 1 0-2m14 0a1 1 0 1 1 0 2 1 1 0 0 1 0-2m14 0a1 1 0 1 1 0 2 1 1 0 0 1 0-2m14 0a1 1 0 1 1 0 2 1 1 0 0 1 0-2m14 0a1 1 0 1 1 0 2 1 1 0 0 1 0-2m14 0a1 1 0 1 1 0 2 1 1 0 0 1 0-2m14 0a1 1 0 1 1 0 2 1 1 0 0 1 0-2m14 0a1 1 0 1 1 0 2 1 1 0 0 1 0-2m14 0a1 1 0 1 1 0 2 1 1 0 0 1 0-2m14 0a1 1 0 1 1 0 2 1 1 0 0 1 0-2m14 0a1 1 0 1 1 0 2 1 1 0 0 1 0-2m-728-14a1 1 0 1 1 0 2 1 1 0 0 1 0-2m14 0a1 1 0 1 1 0 2 1 1 0 0 1 0-2m14 0a1 1 0 1 1 0 2 1 1 0 0 1 0-2m14 0a1 1 0 1 1 0 2 1 1 0 0 1 0-2m14 0a1 1 0 1 1 0 2 1 1 0 0 1 0-2m14 0a1 1 0 1 1 0 2 1 1 0 0 1 0-2m14 0a1 1 0 1 1 0 2 1 1 0 0 1 0-2m14 0a1 1 0 1 1 0 2 1 1 0 0 1 0-2m14 0a1 1 0 1 1 0 2 1 1 0 0 1 0-2m14 0a1 1 0 1 1 0 2 1 1 0 0 1 0-2m14 0a1 1 0 1 1 0 2 1 1 0 0 1 0-2m14 0a1 1 0 1 1 0 2 1 1 0 0 1 0-2m14 0a1 1 0 1 1 0 2 1 1 0 0 1 0-2m14 0a1 1 0 1 1 0 2 1 1 0 0 1 0-2m14 0a1 1 0 1 1 0 2 1 1 0 0 1 0-2m14 0a1 1 0 1 1 0 2 1 1 0 0 1 0-2m14 0a1 1 0 1 1 0 2 1 1 0 0 1 0-2m14 0a1 1 0 1 1 0 2 1 1 0 0 1 0-2m14 0a1 1 0 1 1 0 2 1 1 0 0 1 0-2m14 0a1 1 0 1 1 0 2 1 1 0 0 1 0-2m14 0a1 1 0 1 1 0 2 1 1 0 0 1 0-2m14 0a1 1 0 1 1 0 2 1 1 0 0 1 0-2m14 0a1 1 0 1 1 0 2 1 1 0 0 1 0-2m14 0a1 1 0 1 1 0 2 1 1 0 0 1 0-2m14 0a1 1 0 1 1 0 2 1 1 0 0 1 0-2m14 0a1 1 0 1 1 0 2 1 1 0 0 1 0-2m14 0a1 1 0 1 1 0 2 1 1 0 0 1 0-2m14 0a1 1 0 1 1 0 2 1 1 0 0 1 0-2m14 0a1 1 0 1 1 0 2 1 1 0 0 1 0-2m14 0a1 1 0 1 1 0 2 1 1 0 0 1 0-2m14 0a1 1 0 1 1 0 2 1 1 0 0 1 0-2m14 0a1 1 0 1 1 0 2 1 1 0 0 1 0-2m14 0a1 1 0 1 1 0 2 1 1 0 0 1 0-2m14 0a1 1 0 1 1 0 2 1 1 0 0 1 0-2m14 0a1 1 0 1 1 0 2 1 1 0 0 1 0-2m14 0a1 1 0 1 1 0 2 1 1 0 0 1 0-2m14 0a1 1 0 1 1 0 2 1 1 0 0 1 0-2m14 0a1 1 0 1 1 0 2 1 1 0 0 1 0-2m14 0a1 1 0 1 1 0 2 1 1 0 0 1 0-2m14 0a1 1 0 1 1 0 2 1 1 0 0 1 0-2m14 0a1 1 0 1 1 0 2 1 1 0 0 1 0-2m14 0a1 1 0 1 1 0 2 1 1 0 0 1 0-2m14 0a1 1 0 1 1 0 2 1 1 0 0 1 0-2m14 0a1 1 0 1 1 0 2 1 1 0 0 1 0-2m14 0a1 1 0 1 1 0 2 1 1 0 0 1 0-2m14 0a1 1 0 1 1 0 2 1 1 0 0 1 0-2m14 0a1 1 0 1 1 0 2 1 1 0 0 1 0-2m14 0a1 1 0 1 1 0 2 1 1 0 0 1 0-2m14 0a1 1 0 1 1 0 2 1 1 0 0 1 0-2m14 0a1 1 0 1 1 0 2 1 1 0 0 1 0-2m14 0a1 1 0 1 1 0 2 1 1 0 0 1 0-2m14 0a1 1 0 1 1 0 2 1 1 0 0 1 0-2m14 0a1 1 0 1 1 0 2 1 1 0 0 1 0-2m-728-14a1 1 0 1 1 0 2 1 1 0 0 1 0-2m14 0a1 1 0 1 1 0 2 1 1 0 0 1 0-2m14 0a1 1 0 1 1 0 2 1 1 0 0 1 0-2m14 0a1 1 0 1 1 0 2 1 1 0 0 1 0-2m14 0a1 1 0 1 1 0 2 1 1 0 0 1 0-2m14 0a1 1 0 1 1 0 2 1 1 0 0 1 0-2m14 0a1 1 0 1 1 0 2 1 1 0 0 1 0-2m14 0a1 1 0 1 1 0 2 1 1 0 0 1 0-2m14 0a1 1 0 1 1 0 2 1 1 0 0 1 0-2m14 0a1 1 0 1 1 0 2 1 1 0 0 1 0-2m14 0a1 1 0 1 1 0 2 1 1 0 0 1 0-2m14 0a1 1 0 1 1 0 2 1 1 0 0 1 0-2m14 0a1 1 0 1 1 0 2 1 1 0 0 1 0-2m14 0a1 1 0 1 1 0 2 1 1 0 0 1 0-2m14 0a1 1 0 1 1 0 2 1 1 0 0 1 0-2m14 0a1 1 0 1 1 0 2 1 1 0 0 1 0-2m14 0a1 1 0 1 1 0 2 1 1 0 0 1 0-2m14 0a1 1 0 1 1 0 2 1 1 0 0 1 0-2m14 0a1 1 0 1 1 0 2 1 1 0 0 1 0-2m14 0a1 1 0 1 1 0 2 1 1 0 0 1 0-2m14 0a1 1 0 1 1 0 2 1 1 0 0 1 0-2m14 0a1 1 0 1 1 0 2 1 1 0 0 1 0-2m14 0a1 1 0 1 1 0 2 1 1 0 0 1 0-2m14 0a1 1 0 1 1 0 2 1 1 0 0 1 0-2m14 0a1 1 0 1 1 0 2 1 1 0 0 1 0-2m14 0a1 1 0 1 1 0 2 1 1 0 0 1 0-2m14 0a1 1 0 1 1 0 2 1 1 0 0 1 0-2m14 0a1 1 0 1 1 0 2 1 1 0 0 1 0-2m14 0a1 1 0 1 1 0 2 1 1 0 0 1 0-2m14 0a1 1 0 1 1 0 2 1 1 0 0 1 0-2m14 0a1 1 0 1 1 0 2 1 1 0 0 1 0-2m14 0a1 1 0 1 1 0 2 1 1 0 0 1 0-2m14 0a1 1 0 1 1 0 2 1 1 0 0 1 0-2m14 0a1 1 0 1 1 0 2 1 1 0 0 1 0-2m14 0a1 1 0 1 1 0 2 1 1 0 0 1 0-2m14 0a1 1 0 1 1 0 2 1 1 0 0 1 0-2m14 0a1 1 0 1 1 0 2 1 1 0 0 1 0-2m14 0a1 1 0 1 1 0 2 1 1 0 0 1 0-2m14 0a1 1 0 1 1 0 2 1 1 0 0 1 0-2m14 0a1 1 0 1 1 0 2 1 1 0 0 1 0-2m14 0a1 1 0 1 1 0 2 1 1 0 0 1 0-2m14 0a1 1 0 1 1 0 2 1 1 0 0 1 0-2m14 0a1 1 0 1 1 0 2 1 1 0 0 1 0-2m14 0a1 1 0 1 1 0 2 1 1 0 0 1 0-2m14 0a1 1 0 1 1 0 2 1 1 0 0 1 0-2m14 0a1 1 0 1 1 0 2 1 1 0 0 1 0-2m14 0a1 1 0 1 1 0 2 1 1 0 0 1 0-2m14 0a1 1 0 1 1 0 2 1 1 0 0 1 0-2m14 0a1 1 0 1 1 0 2 1 1 0 0 1 0-2m14 0a1 1 0 1 1 0 2 1 1 0 0 1 0-2m14 0a1 1 0 1 1 0 2 1 1 0 0 1 0-2m14 0a1 1 0 1 1 0 2 1 1 0 0 1 0-2m14 0a1 1 0 1 1 0 2 1 1 0 0 1 0-2m-728-14a1 1 0 1 1 0 2 1 1 0 0 1 0-2m14 0a1 1 0 1 1 0 2 1 1 0 0 1 0-2m14 0a1 1 0 1 1 0 2 1 1 0 0 1 0-2m14 0a1 1 0 1 1 0 2 1 1 0 0 1 0-2m14 0a1 1 0 1 1 0 2 1 1 0 0 1 0-2m14 0a1 1 0 1 1 0 2 1 1 0 0 1 0-2m14 0a1 1 0 1 1 0 2 1 1 0 0 1 0-2m14 0a1 1 0 1 1 0 2 1 1 0 0 1 0-2m14 0a1 1 0 1 1 0 2 1 1 0 0 1 0-2m14 0a1 1 0 1 1 0 2 1 1 0 0 1 0-2m14 0a1 1 0 1 1 0 2 1 1 0 0 1 0-2m14 0a1 1 0 1 1 0 2 1 1 0 0 1 0-2m14 0a1 1 0 1 1 0 2 1 1 0 0 1 0-2m14 0a1 1 0 1 1 0 2 1 1 0 0 1 0-2m14 0a1 1 0 1 1 0 2 1 1 0 0 1 0-2m14 0a1 1 0 1 1 0 2 1 1 0 0 1 0-2m14 0a1 1 0 1 1 0 2 1 1 0 0 1 0-2m14 0a1 1 0 1 1 0 2 1 1 0 0 1 0-2m14 0a1 1 0 1 1 0 2 1 1 0 0 1 0-2m14 0a1 1 0 1 1 0 2 1 1 0 0 1 0-2m14 0a1 1 0 1 1 0 2 1 1 0 0 1 0-2m14 0a1 1 0 1 1 0 2 1 1 0 0 1 0-2m14 0a1 1 0 1 1 0 2 1 1 0 0 1 0-2m14 0a1 1 0 1 1 0 2 1 1 0 0 1 0-2m14 0a1 1 0 1 1 0 2 1 1 0 0 1 0-2m14 0a1 1 0 1 1 0 2 1 1 0 0 1 0-2m14 0a1 1 0 1 1 0 2 1 1 0 0 1 0-2m14 0a1 1 0 1 1 0 2 1 1 0 0 1 0-2m14 0a1 1 0 1 1 0 2 1 1 0 0 1 0-2m14 0a1 1 0 1 1 0 2 1 1 0 0 1 0-2m14 0a1 1 0 1 1 0 2 1 1 0 0 1 0-2m14 0a1 1 0 1 1 0 2 1 1 0 0 1 0-2m14 0a1 1 0 1 1 0 2 1 1 0 0 1 0-2m14 0a1 1 0 1 1 0 2 1 1 0 0 1 0-2m14 0a1 1 0 1 1 0 2 1 1 0 0 1 0-2m14 0a1 1 0 1 1 0 2 1 1 0 0 1 0-2m14 0a1 1 0 1 1 0 2 1 1 0 0 1 0-2m14 0a1 1 0 1 1 0 2 1 1 0 0 1 0-2m14 0a1 1 0 1 1 0 2 1 1 0 0 1 0-2m14 0a1 1 0 1 1 0 2 1 1 0 0 1 0-2m14 0a1 1 0 1 1 0 2 1 1 0 0 1 0-2m14 0a1 1 0 1 1 0 2 1 1 0 0 1 0-2m14 0a1 1 0 1 1 0 2 1 1 0 0 1 0-2m14 0a1 1 0 1 1 0 2 1 1 0 0 1 0-2m14 0a1 1 0 1 1 0 2 1 1 0 0 1 0-2m14 0a1 1 0 1 1 0 2 1 1 0 0 1 0-2m14 0a1 1 0 1 1 0 2 1 1 0 0 1 0-2m14 0a1 1 0 1 1 0 2 1 1 0 0 1 0-2m14 0a1 1 0 1 1 0 2 1 1 0 0 1 0-2m14 0a1 1 0 1 1 0 2 1 1 0 0 1 0-2m14 0a1 1 0 1 1 0 2 1 1 0 0 1 0-2m14 0a1 1 0 1 1 0 2 1 1 0 0 1 0-2m14 0a1 1 0 1 1 0 2 1 1 0 0 1 0-2m-728-14a1 1 0 1 1 0 2 1 1 0 0 1 0-2m14 0a1 1 0 1 1 0 2 1 1 0 0 1 0-2m14 0a1 1 0 1 1 0 2 1 1 0 0 1 0-2m14 0a1 1 0 1 1 0 2 1 1 0 0 1 0-2m14 0a1 1 0 1 1 0 2 1 1 0 0 1 0-2m14 0a1 1 0 1 1 0 2 1 1 0 0 1 0-2m14 0a1 1 0 1 1 0 2 1 1 0 0 1 0-2m14 0a1 1 0 1 1 0 2 1 1 0 0 1 0-2m14 0a1 1 0 1 1 0 2 1 1 0 0 1 0-2m14 0a1 1 0 1 1 0 2 1 1 0 0 1 0-2m14 0a1 1 0 1 1 0 2 1 1 0 0 1 0-2m14 0a1 1 0 1 1 0 2 1 1 0 0 1 0-2m14 0a1 1 0 1 1 0 2 1 1 0 0 1 0-2m14 0a1 1 0 1 1 0 2 1 1 0 0 1 0-2m14 0a1 1 0 1 1 0 2 1 1 0 0 1 0-2m14 0a1 1 0 1 1 0 2 1 1 0 0 1 0-2m14 0a1 1 0 1 1 0 2 1 1 0 0 1 0-2m14 0a1 1 0 1 1 0 2 1 1 0 0 1 0-2m14 0a1 1 0 1 1 0 2 1 1 0 0 1 0-2m14 0a1 1 0 1 1 0 2 1 1 0 0 1 0-2m14 0a1 1 0 1 1 0 2 1 1 0 0 1 0-2m14 0a1 1 0 1 1 0 2 1 1 0 0 1 0-2m14 0a1 1 0 1 1 0 2 1 1 0 0 1 0-2m14 0a1 1 0 1 1 0 2 1 1 0 0 1 0-2m14 0a1 1 0 1 1 0 2 1 1 0 0 1 0-2m14 0a1 1 0 1 1 0 2 1 1 0 0 1 0-2m14 0a1 1 0 1 1 0 2 1 1 0 0 1 0-2m14 0a1 1 0 1 1 0 2 1 1 0 0 1 0-2m14 0a1 1 0 1 1 0 2 1 1 0 0 1 0-2m14 0a1 1 0 1 1 0 2 1 1 0 0 1 0-2m14 0a1 1 0 1 1 0 2 1 1 0 0 1 0-2m14 0a1 1 0 1 1 0 2 1 1 0 0 1 0-2m14 0a1 1 0 1 1 0 2 1 1 0 0 1 0-2m14 0a1 1 0 1 1 0 2 1 1 0 0 1 0-2m14 0a1 1 0 1 1 0 2 1 1 0 0 1 0-2m14 0a1 1 0 1 1 0 2 1 1 0 0 1 0-2m14 0a1 1 0 1 1 0 2 1 1 0 0 1 0-2m14 0a1 1 0 1 1 0 2 1 1 0 0 1 0-2m14 0a1 1 0 1 1 0 2 1 1 0 0 1 0-2m14 0a1 1 0 1 1 0 2 1 1 0 0 1 0-2m14 0a1 1 0 1 1 0 2 1 1 0 0 1 0-2m14 0a1 1 0 1 1 0 2 1 1 0 0 1 0-2m14 0a1 1 0 1 1 0 2 1 1 0 0 1 0-2m14 0a1 1 0 1 1 0 2 1 1 0 0 1 0-2m14 0a1 1 0 1 1 0 2 1 1 0 0 1 0-2m14 0a1 1 0 1 1 0 2 1 1 0 0 1 0-2m14 0a1 1 0 1 1 0 2 1 1 0 0 1 0-2m14 0a1 1 0 1 1 0 2 1 1 0 0 1 0-2m14 0a1 1 0 1 1 0 2 1 1 0 0 1 0-2m14 0a1 1 0 1 1 0 2 1 1 0 0 1 0-2m14 0a1 1 0 1 1 0 2 1 1 0 0 1 0-2m14 0a1 1 0 1 1 0 2 1 1 0 0 1 0-2m14 0a1 1 0 1 1 0 2 1 1 0 0 1 0-2m-728-14a1 1 0 1 1 0 2 1 1 0 0 1 0-2m14 0a1 1 0 1 1 0 2 1 1 0 0 1 0-2m14 0a1 1 0 1 1 0 2 1 1 0 0 1 0-2m14 0a1 1 0 1 1 0 2 1 1 0 0 1 0-2m14 0a1 1 0 1 1 0 2 1 1 0 0 1 0-2m14 0a1 1 0 1 1 0 2 1 1 0 0 1 0-2m14 0a1 1 0 1 1 0 2 1 1 0 0 1 0-2m14 0a1 1 0 1 1 0 2 1 1 0 0 1 0-2m14 0a1 1 0 1 1 0 2 1 1 0 0 1 0-2m14 0a1 1 0 1 1 0 2 1 1 0 0 1 0-2m14 0a1 1 0 1 1 0 2 1 1 0 0 1 0-2m14 0a1 1 0 1 1 0 2 1 1 0 0 1 0-2m14 0a1 1 0 1 1 0 2 1 1 0 0 1 0-2m14 0a1 1 0 1 1 0 2 1 1 0 0 1 0-2m14 0a1 1 0 1 1 0 2 1 1 0 0 1 0-2m14 0a1 1 0 1 1 0 2 1 1 0 0 1 0-2m14 0a1 1 0 1 1 0 2 1 1 0 0 1 0-2m14 0a1 1 0 1 1 0 2 1 1 0 0 1 0-2m14 0a1 1 0 1 1 0 2 1 1 0 0 1 0-2m14 0a1 1 0 1 1 0 2 1 1 0 0 1 0-2m14 0a1 1 0 1 1 0 2 1 1 0 0 1 0-2m14 0a1 1 0 1 1 0 2 1 1 0 0 1 0-2m14 0a1 1 0 1 1 0 2 1 1 0 0 1 0-2m14 0a1 1 0 1 1 0 2 1 1 0 0 1 0-2m14 0a1 1 0 1 1 0 2 1 1 0 0 1 0-2m14 0a1 1 0 1 1 0 2 1 1 0 0 1 0-2m14 0a1 1 0 1 1 0 2 1 1 0 0 1 0-2m14 0a1 1 0 1 1 0 2 1 1 0 0 1 0-2m14 0a1 1 0 1 1 0 2 1 1 0 0 1 0-2m14 0a1 1 0 1 1 0 2 1 1 0 0 1 0-2m14 0a1 1 0 1 1 0 2 1 1 0 0 1 0-2m14 0a1 1 0 1 1 0 2 1 1 0 0 1 0-2m14 0a1 1 0 1 1 0 2 1 1 0 0 1 0-2m14 0a1 1 0 1 1 0 2 1 1 0 0 1 0-2m14 0a1 1 0 1 1 0 2 1 1 0 0 1 0-2m14 0a1 1 0 1 1 0 2 1 1 0 0 1 0-2m14 0a1 1 0 1 1 0 2 1 1 0 0 1 0-2m14 0a1 1 0 1 1 0 2 1 1 0 0 1 0-2m14 0a1 1 0 1 1 0 2 1 1 0 0 1 0-2m14 0a1 1 0 1 1 0 2 1 1 0 0 1 0-2m14 0a1 1 0 1 1 0 2 1 1 0 0 1 0-2m14 0a1 1 0 1 1 0 2 1 1 0 0 1 0-2m14 0a1 1 0 1 1 0 2 1 1 0 0 1 0-2m14 0a1 1 0 1 1 0 2 1 1 0 0 1 0-2m14 0a1 1 0 1 1 0 2 1 1 0 0 1 0-2m14 0a1 1 0 1 1 0 2 1 1 0 0 1 0-2m14 0a1 1 0 1 1 0 2 1 1 0 0 1 0-2m14 0a1 1 0 1 1 0 2 1 1 0 0 1 0-2m14 0a1 1 0 1 1 0 2 1 1 0 0 1 0-2m14 0a1 1 0 1 1 0 2 1 1 0 0 1 0-2m14 0a1 1 0 1 1 0 2 1 1 0 0 1 0-2m14 0a1 1 0 1 1 0 2 1 1 0 0 1 0-2m14 0a1 1 0 1 1 0 2 1 1 0 0 1 0-2m-728-14a1 1 0 1 1 0 2 1 1 0 0 1 0-2m14 0a1 1 0 1 1 0 2 1 1 0 0 1 0-2m14 0a1 1 0 1 1 0 2 1 1 0 0 1 0-2m14 0a1 1 0 1 1 0 2 1 1 0 0 1 0-2m14 0a1 1 0 1 1 0 2 1 1 0 0 1 0-2m14 0a1 1 0 1 1 0 2 1 1 0 0 1 0-2m14 0a1 1 0 1 1 0 2 1 1 0 0 1 0-2m14 0a1 1 0 1 1 0 2 1 1 0 0 1 0-2m14 0a1 1 0 1 1 0 2 1 1 0 0 1 0-2m14 0a1 1 0 1 1 0 2 1 1 0 0 1 0-2m14 0a1 1 0 1 1 0 2 1 1 0 0 1 0-2m14 0a1 1 0 1 1 0 2 1 1 0 0 1 0-2m14 0a1 1 0 1 1 0 2 1 1 0 0 1 0-2m14 0a1 1 0 1 1 0 2 1 1 0 0 1 0-2m14 0a1 1 0 1 1 0 2 1 1 0 0 1 0-2m14 0a1 1 0 1 1 0 2 1 1 0 0 1 0-2m14 0a1 1 0 1 1 0 2 1 1 0 0 1 0-2m14 0a1 1 0 1 1 0 2 1 1 0 0 1 0-2m14 0a1 1 0 1 1 0 2 1 1 0 0 1 0-2m14 0a1 1 0 1 1 0 2 1 1 0 0 1 0-2m14 0a1 1 0 1 1 0 2 1 1 0 0 1 0-2m14 0a1 1 0 1 1 0 2 1 1 0 0 1 0-2m14 0a1 1 0 1 1 0 2 1 1 0 0 1 0-2m14 0a1 1 0 1 1 0 2 1 1 0 0 1 0-2m14 0a1 1 0 1 1 0 2 1 1 0 0 1 0-2m14 0a1 1 0 1 1 0 2 1 1 0 0 1 0-2m14 0a1 1 0 1 1 0 2 1 1 0 0 1 0-2m14 0a1 1 0 1 1 0 2 1 1 0 0 1 0-2m14 0a1 1 0 1 1 0 2 1 1 0 0 1 0-2m14 0a1 1 0 1 1 0 2 1 1 0 0 1 0-2m14 0a1 1 0 1 1 0 2 1 1 0 0 1 0-2m14 0a1 1 0 1 1 0 2 1 1 0 0 1 0-2m14 0a1 1 0 1 1 0 2 1 1 0 0 1 0-2m14 0a1 1 0 1 1 0 2 1 1 0 0 1 0-2m14 0a1 1 0 1 1 0 2 1 1 0 0 1 0-2m14 0a1 1 0 1 1 0 2 1 1 0 0 1 0-2m14 0a1 1 0 1 1 0 2 1 1 0 0 1 0-2m14 0a1 1 0 1 1 0 2 1 1 0 0 1 0-2m14 0a1 1 0 1 1 0 2 1 1 0 0 1 0-2m14 0a1 1 0 1 1 0 2 1 1 0 0 1 0-2m14 0a1 1 0 1 1 0 2 1 1 0 0 1 0-2m14 0a1 1 0 1 1 0 2 1 1 0 0 1 0-2m14 0a1 1 0 1 1 0 2 1 1 0 0 1 0-2m14 0a1 1 0 1 1 0 2 1 1 0 0 1 0-2m14 0a1 1 0 1 1 0 2 1 1 0 0 1 0-2m14 0a1 1 0 1 1 0 2 1 1 0 0 1 0-2m14 0a1 1 0 1 1 0 2 1 1 0 0 1 0-2m14 0a1 1 0 1 1 0 2 1 1 0 0 1 0-2m14 0a1 1 0 1 1 0 2 1 1 0 0 1 0-2m14 0a1 1 0 1 1 0 2 1 1 0 0 1 0-2m14 0a1 1 0 1 1 0 2 1 1 0 0 1 0-2m14 0a1 1 0 1 1 0 2 1 1 0 0 1 0-2m14 0a1 1 0 1 1 0 2 1 1 0 0 1 0-2m-728-14a1 1 0 1 1 0 2 1 1 0 0 1 0-2m14 0a1 1 0 1 1 0 2 1 1 0 0 1 0-2m14 0a1 1 0 1 1 0 2 1 1 0 0 1 0-2m14 0a1 1 0 1 1 0 2 1 1 0 0 1 0-2m14 0a1 1 0 1 1 0 2 1 1 0 0 1 0-2m14 0a1 1 0 1 1 0 2 1 1 0 0 1 0-2m14 0a1 1 0 1 1 0 2 1 1 0 0 1 0-2m14 0a1 1 0 1 1 0 2 1 1 0 0 1 0-2m14 0a1 1 0 1 1 0 2 1 1 0 0 1 0-2m14 0a1 1 0 1 1 0 2 1 1 0 0 1 0-2m14 0a1 1 0 1 1 0 2 1 1 0 0 1 0-2m14 0a1 1 0 1 1 0 2 1 1 0 0 1 0-2m14 0a1 1 0 1 1 0 2 1 1 0 0 1 0-2m14 0a1 1 0 1 1 0 2 1 1 0 0 1 0-2m14 0a1 1 0 1 1 0 2 1 1 0 0 1 0-2m14 0a1 1 0 1 1 0 2 1 1 0 0 1 0-2m14 0a1 1 0 1 1 0 2 1 1 0 0 1 0-2m14 0a1 1 0 1 1 0 2 1 1 0 0 1 0-2m14 0a1 1 0 1 1 0 2 1 1 0 0 1 0-2m14 0a1 1 0 1 1 0 2 1 1 0 0 1 0-2m14 0a1 1 0 1 1 0 2 1 1 0 0 1 0-2m14 0a1 1 0 1 1 0 2 1 1 0 0 1 0-2m14 0a1 1 0 1 1 0 2 1 1 0 0 1 0-2m14 0a1 1 0 1 1 0 2 1 1 0 0 1 0-2m14 0a1 1 0 1 1 0 2 1 1 0 0 1 0-2m14 0a1 1 0 1 1 0 2 1 1 0 0 1 0-2m14 0a1 1 0 1 1 0 2 1 1 0 0 1 0-2m14 0a1 1 0 1 1 0 2 1 1 0 0 1 0-2m14 0a1 1 0 1 1 0 2 1 1 0 0 1 0-2m14 0a1 1 0 1 1 0 2 1 1 0 0 1 0-2m14 0a1 1 0 1 1 0 2 1 1 0 0 1 0-2m14 0a1 1 0 1 1 0 2 1 1 0 0 1 0-2m14 0a1 1 0 1 1 0 2 1 1 0 0 1 0-2m14 0a1 1 0 1 1 0 2 1 1 0 0 1 0-2m14 0a1 1 0 1 1 0 2 1 1 0 0 1 0-2m14 0a1 1 0 1 1 0 2 1 1 0 0 1 0-2m14 0a1 1 0 1 1 0 2 1 1 0 0 1 0-2m14 0a1 1 0 1 1 0 2 1 1 0 0 1 0-2m14 0a1 1 0 1 1 0 2 1 1 0 0 1 0-2m14 0a1 1 0 1 1 0 2 1 1 0 0 1 0-2m14 0a1 1 0 1 1 0 2 1 1 0 0 1 0-2m14 0a1 1 0 1 1 0 2 1 1 0 0 1 0-2m14 0a1 1 0 1 1 0 2 1 1 0 0 1 0-2m14 0a1 1 0 1 1 0 2 1 1 0 0 1 0-2m14 0a1 1 0 1 1 0 2 1 1 0 0 1 0-2m14 0a1 1 0 1 1 0 2 1 1 0 0 1 0-2m14 0a1 1 0 1 1 0 2 1 1 0 0 1 0-2m14 0a1 1 0 1 1 0 2 1 1 0 0 1 0-2m14 0a1 1 0 1 1 0 2 1 1 0 0 1 0-2m14 0a1 1 0 1 1 0 2 1 1 0 0 1 0-2m14 0a1 1 0 1 1 0 2 1 1 0 0 1 0-2m14 0a1 1 0 1 1 0 2 1 1 0 0 1 0-2m14 0a1 1 0 1 1 0 2 1 1 0 0 1 0-2m-728-14a1 1 0 1 1 0 2 1 1 0 0 1 0-2m14 0a1 1 0 1 1 0 2 1 1 0 0 1 0-2m14 0a1 1 0 1 1 0 2 1 1 0 0 1 0-2m14 0a1 1 0 1 1 0 2 1 1 0 0 1 0-2m14 0a1 1 0 1 1 0 2 1 1 0 0 1 0-2m14 0a1 1 0 1 1 0 2 1 1 0 0 1 0-2m14 0a1 1 0 1 1 0 2 1 1 0 0 1 0-2m14 0a1 1 0 1 1 0 2 1 1 0 0 1 0-2m14 0a1 1 0 1 1 0 2 1 1 0 0 1 0-2m14 0a1 1 0 1 1 0 2 1 1 0 0 1 0-2m14 0a1 1 0 1 1 0 2 1 1 0 0 1 0-2m14 0a1 1 0 1 1 0 2 1 1 0 0 1 0-2m14 0a1 1 0 1 1 0 2 1 1 0 0 1 0-2m14 0a1 1 0 1 1 0 2 1 1 0 0 1 0-2m14 0a1 1 0 1 1 0 2 1 1 0 0 1 0-2m14 0a1 1 0 1 1 0 2 1 1 0 0 1 0-2m14 0a1 1 0 1 1 0 2 1 1 0 0 1 0-2m14 0a1 1 0 1 1 0 2 1 1 0 0 1 0-2m14 0a1 1 0 1 1 0 2 1 1 0 0 1 0-2m14 0a1 1 0 1 1 0 2 1 1 0 0 1 0-2m14 0a1 1 0 1 1 0 2 1 1 0 0 1 0-2m14 0a1 1 0 1 1 0 2 1 1 0 0 1 0-2m14 0a1 1 0 1 1 0 2 1 1 0 0 1 0-2m14 0a1 1 0 1 1 0 2 1 1 0 0 1 0-2m14 0a1 1 0 1 1 0 2 1 1 0 0 1 0-2m14 0a1 1 0 1 1 0 2 1 1 0 0 1 0-2m14 0a1 1 0 1 1 0 2 1 1 0 0 1 0-2m14 0a1 1 0 1 1 0 2 1 1 0 0 1 0-2m14 0a1 1 0 1 1 0 2 1 1 0 0 1 0-2m14 0a1 1 0 1 1 0 2 1 1 0 0 1 0-2m14 0a1 1 0 1 1 0 2 1 1 0 0 1 0-2m14 0a1 1 0 1 1 0 2 1 1 0 0 1 0-2m14 0a1 1 0 1 1 0 2 1 1 0 0 1 0-2m14 0a1 1 0 1 1 0 2 1 1 0 0 1 0-2m14 0a1 1 0 1 1 0 2 1 1 0 0 1 0-2m14 0a1 1 0 1 1 0 2 1 1 0 0 1 0-2m14 0a1 1 0 1 1 0 2 1 1 0 0 1 0-2m14 0a1 1 0 1 1 0 2 1 1 0 0 1 0-2m14 0a1 1 0 1 1 0 2 1 1 0 0 1 0-2m14 0a1 1 0 1 1 0 2 1 1 0 0 1 0-2m14 0a1 1 0 1 1 0 2 1 1 0 0 1 0-2m14 0a1 1 0 1 1 0 2 1 1 0 0 1 0-2m14 0a1 1 0 1 1 0 2 1 1 0 0 1 0-2m14 0a1 1 0 1 1 0 2 1 1 0 0 1 0-2m14 0a1 1 0 1 1 0 2 1 1 0 0 1 0-2m14 0a1 1 0 1 1 0 2 1 1 0 0 1 0-2m14 0a1 1 0 1 1 0 2 1 1 0 0 1 0-2m14 0a1 1 0 1 1 0 2 1 1 0 0 1 0-2m14 0a1 1 0 1 1 0 2 1 1 0 0 1 0-2m14 0a1 1 0 1 1 0 2 1 1 0 0 1 0-2m14 0a1 1 0 1 1 0 2 1 1 0 0 1 0-2m14 0a1 1 0 1 1 0 2 1 1 0 0 1 0-2m14 0a1 1 0 1 1 0 2 1 1 0 0 1 0-2m-728-14a1 1 0 1 1 0 2 1 1 0 0 1 0-2m14 0a1 1 0 1 1 0 2 1 1 0 0 1 0-2m14 0a1 1 0 1 1 0 2 1 1 0 0 1 0-2m14 0a1 1 0 1 1 0 2 1 1 0 0 1 0-2m14 0a1 1 0 1 1 0 2 1 1 0 0 1 0-2m14 0a1 1 0 1 1 0 2 1 1 0 0 1 0-2m14 0a1 1 0 1 1 0 2 1 1 0 0 1 0-2m14 0a1 1 0 1 1 0 2 1 1 0 0 1 0-2m14 0a1 1 0 1 1 0 2 1 1 0 0 1 0-2m14 0a1 1 0 1 1 0 2 1 1 0 0 1 0-2m14 0a1 1 0 1 1 0 2 1 1 0 0 1 0-2m14 0a1 1 0 1 1 0 2 1 1 0 0 1 0-2m14 0a1 1 0 1 1 0 2 1 1 0 0 1 0-2m14 0a1 1 0 1 1 0 2 1 1 0 0 1 0-2m14 0a1 1 0 1 1 0 2 1 1 0 0 1 0-2m14 0a1 1 0 1 1 0 2 1 1 0 0 1 0-2m14 0a1 1 0 1 1 0 2 1 1 0 0 1 0-2m14 0a1 1 0 1 1 0 2 1 1 0 0 1 0-2m14 0a1 1 0 1 1 0 2 1 1 0 0 1 0-2m14 0a1 1 0 1 1 0 2 1 1 0 0 1 0-2m14 0a1 1 0 1 1 0 2 1 1 0 0 1 0-2m14 0a1 1 0 1 1 0 2 1 1 0 0 1 0-2m14 0a1 1 0 1 1 0 2 1 1 0 0 1 0-2m14 0a1 1 0 1 1 0 2 1 1 0 0 1 0-2m14 0a1 1 0 1 1 0 2 1 1 0 0 1 0-2m14 0a1 1 0 1 1 0 2 1 1 0 0 1 0-2m14 0a1 1 0 1 1 0 2 1 1 0 0 1 0-2m14 0a1 1 0 1 1 0 2 1 1 0 0 1 0-2m14 0a1 1 0 1 1 0 2 1 1 0 0 1 0-2m14 0a1 1 0 1 1 0 2 1 1 0 0 1 0-2m14 0a1 1 0 1 1 0 2 1 1 0 0 1 0-2m14 0a1 1 0 1 1 0 2 1 1 0 0 1 0-2m14 0a1 1 0 1 1 0 2 1 1 0 0 1 0-2m14 0a1 1 0 1 1 0 2 1 1 0 0 1 0-2m14 0a1 1 0 1 1 0 2 1 1 0 0 1 0-2m14 0a1 1 0 1 1 0 2 1 1 0 0 1 0-2m14 0a1 1 0 1 1 0 2 1 1 0 0 1 0-2m14 0a1 1 0 1 1 0 2 1 1 0 0 1 0-2m14 0a1 1 0 1 1 0 2 1 1 0 0 1 0-2m14 0a1 1 0 1 1 0 2 1 1 0 0 1 0-2m14 0a1 1 0 1 1 0 2 1 1 0 0 1 0-2m14 0a1 1 0 1 1 0 2 1 1 0 0 1 0-2m14 0a1 1 0 1 1 0 2 1 1 0 0 1 0-2m14 0a1 1 0 1 1 0 2 1 1 0 0 1 0-2m14 0a1 1 0 1 1 0 2 1 1 0 0 1 0-2m14 0a1 1 0 1 1 0 2 1 1 0 0 1 0-2m14 0a1 1 0 1 1 0 2 1 1 0 0 1 0-2m14 0a1 1 0 1 1 0 2 1 1 0 0 1 0-2m14 0a1 1 0 1 1 0 2 1 1 0 0 1 0-2m14 0a1 1 0 1 1 0 2 1 1 0 0 1 0-2m14 0a1 1 0 1 1 0 2 1 1 0 0 1 0-2m14 0a1 1 0 1 1 0 2 1 1 0 0 1 0-2m14 0a1 1 0 1 1 0 2 1 1 0 0 1 0-2m-728-14a1 1 0 1 1 0 2 1 1 0 0 1 0-2m14 0a1 1 0 1 1 0 2 1 1 0 0 1 0-2m14 0a1 1 0 1 1 0 2 1 1 0 0 1 0-2m14 0a1 1 0 1 1 0 2 1 1 0 0 1 0-2m14 0a1 1 0 1 1 0 2 1 1 0 0 1 0-2m14 0a1 1 0 1 1 0 2 1 1 0 0 1 0-2m14 0a1 1 0 1 1 0 2 1 1 0 0 1 0-2m14 0a1 1 0 1 1 0 2 1 1 0 0 1 0-2m14 0a1 1 0 1 1 0 2 1 1 0 0 1 0-2m14 0a1 1 0 1 1 0 2 1 1 0 0 1 0-2m14 0a1 1 0 1 1 0 2 1 1 0 0 1 0-2m14 0a1 1 0 1 1 0 2 1 1 0 0 1 0-2m14 0a1 1 0 1 1 0 2 1 1 0 0 1 0-2m14 0a1 1 0 1 1 0 2 1 1 0 0 1 0-2m14 0a1 1 0 1 1 0 2 1 1 0 0 1 0-2m14 0a1 1 0 1 1 0 2 1 1 0 0 1 0-2m14 0a1 1 0 1 1 0 2 1 1 0 0 1 0-2m14 0a1 1 0 1 1 0 2 1 1 0 0 1 0-2m14 0a1 1 0 1 1 0 2 1 1 0 0 1 0-2m14 0a1 1 0 1 1 0 2 1 1 0 0 1 0-2m14 0a1 1 0 1 1 0 2 1 1 0 0 1 0-2m14 0a1 1 0 1 1 0 2 1 1 0 0 1 0-2m14 0a1 1 0 1 1 0 2 1 1 0 0 1 0-2m14 0a1 1 0 1 1 0 2 1 1 0 0 1 0-2m14 0a1 1 0 1 1 0 2 1 1 0 0 1 0-2m14 0a1 1 0 1 1 0 2 1 1 0 0 1 0-2m14 0a1 1 0 1 1 0 2 1 1 0 0 1 0-2m14 0a1 1 0 1 1 0 2 1 1 0 0 1 0-2m14 0a1 1 0 1 1 0 2 1 1 0 0 1 0-2m14 0a1 1 0 1 1 0 2 1 1 0 0 1 0-2m14 0a1 1 0 1 1 0 2 1 1 0 0 1 0-2m14 0a1 1 0 1 1 0 2 1 1 0 0 1 0-2m14 0a1 1 0 1 1 0 2 1 1 0 0 1 0-2m14 0a1 1 0 1 1 0 2 1 1 0 0 1 0-2m14 0a1 1 0 1 1 0 2 1 1 0 0 1 0-2m14 0a1 1 0 1 1 0 2 1 1 0 0 1 0-2m14 0a1 1 0 1 1 0 2 1 1 0 0 1 0-2m14 0a1 1 0 1 1 0 2 1 1 0 0 1 0-2m14 0a1 1 0 1 1 0 2 1 1 0 0 1 0-2m14 0a1 1 0 1 1 0 2 1 1 0 0 1 0-2m14 0a1 1 0 1 1 0 2 1 1 0 0 1 0-2m14 0a1 1 0 1 1 0 2 1 1 0 0 1 0-2m14 0a1 1 0 1 1 0 2 1 1 0 0 1 0-2m14 0a1 1 0 1 1 0 2 1 1 0 0 1 0-2m14 0a1 1 0 1 1 0 2 1 1 0 0 1 0-2m14 0a1 1 0 1 1 0 2 1 1 0 0 1 0-2m14 0a1 1 0 1 1 0 2 1 1 0 0 1 0-2m14 0a1 1 0 1 1 0 2 1 1 0 0 1 0-2m14 0a1 1 0 1 1 0 2 1 1 0 0 1 0-2m14 0a1 1 0 1 1 0 2 1 1 0 0 1 0-2m14 0a1 1 0 1 1 0 2 1 1 0 0 1 0-2m14 0a1 1 0 1 1 0 2 1 1 0 0 1 0-2m14 0a1 1 0 1 1 0 2 1 1 0 0 1 0-2m-728-14a1 1 0 1 1 0 2 1 1 0 0 1 0-2m14 0a1 1 0 1 1 0 2 1 1 0 0 1 0-2m14 0a1 1 0 1 1 0 2 1 1 0 0 1 0-2m14 0a1 1 0 1 1 0 2 1 1 0 0 1 0-2m14 0a1 1 0 1 1 0 2 1 1 0 0 1 0-2m14 0a1 1 0 1 1 0 2 1 1 0 0 1 0-2m14 0a1 1 0 1 1 0 2 1 1 0 0 1 0-2m14 0a1 1 0 1 1 0 2 1 1 0 0 1 0-2m14 0a1 1 0 1 1 0 2 1 1 0 0 1 0-2m14 0a1 1 0 1 1 0 2 1 1 0 0 1 0-2m14 0a1 1 0 1 1 0 2 1 1 0 0 1 0-2m14 0a1 1 0 1 1 0 2 1 1 0 0 1 0-2m14 0a1 1 0 1 1 0 2 1 1 0 0 1 0-2m14 0a1 1 0 1 1 0 2 1 1 0 0 1 0-2m14 0a1 1 0 1 1 0 2 1 1 0 0 1 0-2m14 0a1 1 0 1 1 0 2 1 1 0 0 1 0-2m14 0a1 1 0 1 1 0 2 1 1 0 0 1 0-2m14 0a1 1 0 1 1 0 2 1 1 0 0 1 0-2m14 0a1 1 0 1 1 0 2 1 1 0 0 1 0-2m14 0a1 1 0 1 1 0 2 1 1 0 0 1 0-2m14 0a1 1 0 1 1 0 2 1 1 0 0 1 0-2m14 0a1 1 0 1 1 0 2 1 1 0 0 1 0-2m14 0a1 1 0 1 1 0 2 1 1 0 0 1 0-2m14 0a1 1 0 1 1 0 2 1 1 0 0 1 0-2m14 0a1 1 0 1 1 0 2 1 1 0 0 1 0-2m14 0a1 1 0 1 1 0 2 1 1 0 0 1 0-2m14 0a1 1 0 1 1 0 2 1 1 0 0 1 0-2m14 0a1 1 0 1 1 0 2 1 1 0 0 1 0-2m14 0a1 1 0 1 1 0 2 1 1 0 0 1 0-2m14 0a1 1 0 1 1 0 2 1 1 0 0 1 0-2m14 0a1 1 0 1 1 0 2 1 1 0 0 1 0-2m14 0a1 1 0 1 1 0 2 1 1 0 0 1 0-2m14 0a1 1 0 1 1 0 2 1 1 0 0 1 0-2m14 0a1 1 0 1 1 0 2 1 1 0 0 1 0-2m14 0a1 1 0 1 1 0 2 1 1 0 0 1 0-2m14 0a1 1 0 1 1 0 2 1 1 0 0 1 0-2m14 0a1 1 0 1 1 0 2 1 1 0 0 1 0-2m14 0a1 1 0 1 1 0 2 1 1 0 0 1 0-2m14 0a1 1 0 1 1 0 2 1 1 0 0 1 0-2m14 0a1 1 0 1 1 0 2 1 1 0 0 1 0-2m14 0a1 1 0 1 1 0 2 1 1 0 0 1 0-2m14 0a1 1 0 1 1 0 2 1 1 0 0 1 0-2m14 0a1 1 0 1 1 0 2 1 1 0 0 1 0-2m14 0a1 1 0 1 1 0 2 1 1 0 0 1 0-2m14 0a1 1 0 1 1 0 2 1 1 0 0 1 0-2m14 0a1 1 0 1 1 0 2 1 1 0 0 1 0-2m14 0a1 1 0 1 1 0 2 1 1 0 0 1 0-2m14 0a1 1 0 1 1 0 2 1 1 0 0 1 0-2m14 0a1 1 0 1 1 0 2 1 1 0 0 1 0-2m14 0a1 1 0 1 1 0 2 1 1 0 0 1 0-2m14 0a1 1 0 1 1 0 2 1 1 0 0 1 0-2m14 0a1 1 0 1 1 0 2 1 1 0 0 1 0-2m14 0a1 1 0 1 1 0 2 1 1 0 0 1 0-2m-728-14a1 1 0 1 1 0 2 1 1 0 0 1 0-2m14 0a1 1 0 1 1 0 2 1 1 0 0 1 0-2m14 0a1 1 0 1 1 0 2 1 1 0 0 1 0-2m14 0a1 1 0 1 1 0 2 1 1 0 0 1 0-2m14 0a1 1 0 1 1 0 2 1 1 0 0 1 0-2m14 0a1 1 0 1 1 0 2 1 1 0 0 1 0-2m14 0a1 1 0 1 1 0 2 1 1 0 0 1 0-2m14 0a1 1 0 1 1 0 2 1 1 0 0 1 0-2m14 0a1 1 0 1 1 0 2 1 1 0 0 1 0-2m14 0a1 1 0 1 1 0 2 1 1 0 0 1 0-2m14 0a1 1 0 1 1 0 2 1 1 0 0 1 0-2m14 0a1 1 0 1 1 0 2 1 1 0 0 1 0-2m14 0a1 1 0 1 1 0 2 1 1 0 0 1 0-2m14 0a1 1 0 1 1 0 2 1 1 0 0 1 0-2m14 0a1 1 0 1 1 0 2 1 1 0 0 1 0-2m14 0a1 1 0 1 1 0 2 1 1 0 0 1 0-2m14 0a1 1 0 1 1 0 2 1 1 0 0 1 0-2m14 0a1 1 0 1 1 0 2 1 1 0 0 1 0-2m14 0a1 1 0 1 1 0 2 1 1 0 0 1 0-2m14 0a1 1 0 1 1 0 2 1 1 0 0 1 0-2m14 0a1 1 0 1 1 0 2 1 1 0 0 1 0-2m14 0a1 1 0 1 1 0 2 1 1 0 0 1 0-2m14 0a1 1 0 1 1 0 2 1 1 0 0 1 0-2m14 0a1 1 0 1 1 0 2 1 1 0 0 1 0-2m14 0a1 1 0 1 1 0 2 1 1 0 0 1 0-2m14 0a1 1 0 1 1 0 2 1 1 0 0 1 0-2m14 0a1 1 0 1 1 0 2 1 1 0 0 1 0-2m14 0a1 1 0 1 1 0 2 1 1 0 0 1 0-2m14 0a1 1 0 1 1 0 2 1 1 0 0 1 0-2m14 0a1 1 0 1 1 0 2 1 1 0 0 1 0-2m14 0a1 1 0 1 1 0 2 1 1 0 0 1 0-2m14 0a1 1 0 1 1 0 2 1 1 0 0 1 0-2m14 0a1 1 0 1 1 0 2 1 1 0 0 1 0-2m14 0a1 1 0 1 1 0 2 1 1 0 0 1 0-2m14 0a1 1 0 1 1 0 2 1 1 0 0 1 0-2m14 0a1 1 0 1 1 0 2 1 1 0 0 1 0-2m14 0a1 1 0 1 1 0 2 1 1 0 0 1 0-2m14 0a1 1 0 1 1 0 2 1 1 0 0 1 0-2m14 0a1 1 0 1 1 0 2 1 1 0 0 1 0-2m14 0a1 1 0 1 1 0 2 1 1 0 0 1 0-2m14 0a1 1 0 1 1 0 2 1 1 0 0 1 0-2m14 0a1 1 0 1 1 0 2 1 1 0 0 1 0-2m14 0a1 1 0 1 1 0 2 1 1 0 0 1 0-2m14 0a1 1 0 1 1 0 2 1 1 0 0 1 0-2m14 0a1 1 0 1 1 0 2 1 1 0 0 1 0-2m14 0a1 1 0 1 1 0 2 1 1 0 0 1 0-2m14 0a1 1 0 1 1 0 2 1 1 0 0 1 0-2m14 0a1 1 0 1 1 0 2 1 1 0 0 1 0-2m14 0a1 1 0 1 1 0 2 1 1 0 0 1 0-2m14 0a1 1 0 1 1 0 2 1 1 0 0 1 0-2m14 0a1 1 0 1 1 0 2 1 1 0 0 1 0-2m14 0a1 1 0 1 1 0 2 1 1 0 0 1 0-2m14 0a1 1 0 1 1 0 2 1 1 0 0 1 0-2m-728-14a1 1 0 1 1 0 2 1 1 0 0 1 0-2m14 0a1 1 0 1 1 0 2 1 1 0 0 1 0-2m14 0a1 1 0 1 1 0 2 1 1 0 0 1 0-2m14 0a1 1 0 1 1 0 2 1 1 0 0 1 0-2m14 0a1 1 0 1 1 0 2 1 1 0 0 1 0-2m14 0a1 1 0 1 1 0 2 1 1 0 0 1 0-2m14 0a1 1 0 1 1 0 2 1 1 0 0 1 0-2m14 0a1 1 0 1 1 0 2 1 1 0 0 1 0-2m14 0a1 1 0 1 1 0 2 1 1 0 0 1 0-2m14 0a1 1 0 1 1 0 2 1 1 0 0 1 0-2m14 0a1 1 0 1 1 0 2 1 1 0 0 1 0-2m14 0a1 1 0 1 1 0 2 1 1 0 0 1 0-2m14 0a1 1 0 1 1 0 2 1 1 0 0 1 0-2m14 0a1 1 0 1 1 0 2 1 1 0 0 1 0-2m14 0a1 1 0 1 1 0 2 1 1 0 0 1 0-2m14 0a1 1 0 1 1 0 2 1 1 0 0 1 0-2m14 0a1 1 0 1 1 0 2 1 1 0 0 1 0-2m14 0a1 1 0 1 1 0 2 1 1 0 0 1 0-2m14 0a1 1 0 1 1 0 2 1 1 0 0 1 0-2m14 0a1 1 0 1 1 0 2 1 1 0 0 1 0-2m14 0a1 1 0 1 1 0 2 1 1 0 0 1 0-2m14 0a1 1 0 1 1 0 2 1 1 0 0 1 0-2m14 0a1 1 0 1 1 0 2 1 1 0 0 1 0-2m14 0a1 1 0 1 1 0 2 1 1 0 0 1 0-2m14 0a1 1 0 1 1 0 2 1 1 0 0 1 0-2m14 0a1 1 0 1 1 0 2 1 1 0 0 1 0-2m14 0a1 1 0 1 1 0 2 1 1 0 0 1 0-2m14 0a1 1 0 1 1 0 2 1 1 0 0 1 0-2m14 0a1 1 0 1 1 0 2 1 1 0 0 1 0-2m14 0a1 1 0 1 1 0 2 1 1 0 0 1 0-2m14 0a1 1 0 1 1 0 2 1 1 0 0 1 0-2m14 0a1 1 0 1 1 0 2 1 1 0 0 1 0-2m14 0a1 1 0 1 1 0 2 1 1 0 0 1 0-2m14 0a1 1 0 1 1 0 2 1 1 0 0 1 0-2m14 0a1 1 0 1 1 0 2 1 1 0 0 1 0-2m14 0a1 1 0 1 1 0 2 1 1 0 0 1 0-2m14 0a1 1 0 1 1 0 2 1 1 0 0 1 0-2m14 0a1 1 0 1 1 0 2 1 1 0 0 1 0-2m14 0a1 1 0 1 1 0 2 1 1 0 0 1 0-2m14 0a1 1 0 1 1 0 2 1 1 0 0 1 0-2m14 0a1 1 0 1 1 0 2 1 1 0 0 1 0-2m14 0a1 1 0 1 1 0 2 1 1 0 0 1 0-2m14 0a1 1 0 1 1 0 2 1 1 0 0 1 0-2m14 0a1 1 0 1 1 0 2 1 1 0 0 1 0-2m14 0a1 1 0 1 1 0 2 1 1 0 0 1 0-2m14 0a1 1 0 1 1 0 2 1 1 0 0 1 0-2m14 0a1 1 0 1 1 0 2 1 1 0 0 1 0-2m14 0a1 1 0 1 1 0 2 1 1 0 0 1 0-2m14 0a1 1 0 1 1 0 2 1 1 0 0 1 0-2m14 0a1 1 0 1 1 0 2 1 1 0 0 1 0-2m14 0a1 1 0 1 1 0 2 1 1 0 0 1 0-2m14 0a1 1 0 1 1 0 2 1 1 0 0 1 0-2m14 0a1 1 0 1 1 0 2 1 1 0 0 1 0-2m-728-14a1 1 0 1 1 0 2 1 1 0 0 1 0-2m14 0a1 1 0 1 1 0 2 1 1 0 0 1 0-2m14 0a1 1 0 1 1 0 2 1 1 0 0 1 0-2m14 0a1 1 0 1 1 0 2 1 1 0 0 1 0-2m14 0a1 1 0 1 1 0 2 1 1 0 0 1 0-2m14 0a1 1 0 1 1 0 2 1 1 0 0 1 0-2m14 0a1 1 0 1 1 0 2 1 1 0 0 1 0-2m14 0a1 1 0 1 1 0 2 1 1 0 0 1 0-2m14 0a1 1 0 1 1 0 2 1 1 0 0 1 0-2m14 0a1 1 0 1 1 0 2 1 1 0 0 1 0-2m14 0a1 1 0 1 1 0 2 1 1 0 0 1 0-2m14 0a1 1 0 1 1 0 2 1 1 0 0 1 0-2m14 0a1 1 0 1 1 0 2 1 1 0 0 1 0-2m14 0a1 1 0 1 1 0 2 1 1 0 0 1 0-2m14 0a1 1 0 1 1 0 2 1 1 0 0 1 0-2m14 0a1 1 0 1 1 0 2 1 1 0 0 1 0-2m14 0a1 1 0 1 1 0 2 1 1 0 0 1 0-2m14 0a1 1 0 1 1 0 2 1 1 0 0 1 0-2m14 0a1 1 0 1 1 0 2 1 1 0 0 1 0-2m14 0a1 1 0 1 1 0 2 1 1 0 0 1 0-2m14 0a1 1 0 1 1 0 2 1 1 0 0 1 0-2m14 0a1 1 0 1 1 0 2 1 1 0 0 1 0-2m14 0a1 1 0 1 1 0 2 1 1 0 0 1 0-2m14 0a1 1 0 1 1 0 2 1 1 0 0 1 0-2m14 0a1 1 0 1 1 0 2 1 1 0 0 1 0-2m14 0a1 1 0 1 1 0 2 1 1 0 0 1 0-2m14 0a1 1 0 1 1 0 2 1 1 0 0 1 0-2m14 0a1 1 0 1 1 0 2 1 1 0 0 1 0-2m14 0a1 1 0 1 1 0 2 1 1 0 0 1 0-2m14 0a1 1 0 1 1 0 2 1 1 0 0 1 0-2m14 0a1 1 0 1 1 0 2 1 1 0 0 1 0-2m14 0a1 1 0 1 1 0 2 1 1 0 0 1 0-2m14 0a1 1 0 1 1 0 2 1 1 0 0 1 0-2m14 0a1 1 0 1 1 0 2 1 1 0 0 1 0-2m14 0a1 1 0 1 1 0 2 1 1 0 0 1 0-2m14 0a1 1 0 1 1 0 2 1 1 0 0 1 0-2m14 0a1 1 0 1 1 0 2 1 1 0 0 1 0-2m14 0a1 1 0 1 1 0 2 1 1 0 0 1 0-2m14 0a1 1 0 1 1 0 2 1 1 0 0 1 0-2m14 0a1 1 0 1 1 0 2 1 1 0 0 1 0-2m14 0a1 1 0 1 1 0 2 1 1 0 0 1 0-2m14 0a1 1 0 1 1 0 2 1 1 0 0 1 0-2m14 0a1 1 0 1 1 0 2 1 1 0 0 1 0-2m14 0a1 1 0 1 1 0 2 1 1 0 0 1 0-2m14 0a1 1 0 1 1 0 2 1 1 0 0 1 0-2m14 0a1 1 0 1 1 0 2 1 1 0 0 1 0-2m14 0a1 1 0 1 1 0 2 1 1 0 0 1 0-2m14 0a1 1 0 1 1 0 2 1 1 0 0 1 0-2m14 0a1 1 0 1 1 0 2 1 1 0 0 1 0-2m14 0a1 1 0 1 1 0 2 1 1 0 0 1 0-2m14 0a1 1 0 1 1 0 2 1 1 0 0 1 0-2m14 0a1 1 0 1 1 0 2 1 1 0 0 1 0-2m14 0a1 1 0 1 1 0 2 1 1 0 0 1 0-2m-728-14a1 1 0 1 1 0 2 1 1 0 0 1 0-2m14 0a1 1 0 1 1 0 2 1 1 0 0 1 0-2m14 0a1 1 0 1 1 0 2 1 1 0 0 1 0-2m14 0a1 1 0 1 1 0 2 1 1 0 0 1 0-2m14 0a1 1 0 1 1 0 2 1 1 0 0 1 0-2m14 0a1 1 0 1 1 0 2 1 1 0 0 1 0-2m14 0a1 1 0 1 1 0 2 1 1 0 0 1 0-2m14 0a1 1 0 1 1 0 2 1 1 0 0 1 0-2m14 0a1 1 0 1 1 0 2 1 1 0 0 1 0-2m14 0a1 1 0 1 1 0 2 1 1 0 0 1 0-2m14 0a1 1 0 1 1 0 2 1 1 0 0 1 0-2m14 0a1 1 0 1 1 0 2 1 1 0 0 1 0-2m14 0a1 1 0 1 1 0 2 1 1 0 0 1 0-2m14 0a1 1 0 1 1 0 2 1 1 0 0 1 0-2m14 0a1 1 0 1 1 0 2 1 1 0 0 1 0-2m14 0a1 1 0 1 1 0 2 1 1 0 0 1 0-2m14 0a1 1 0 1 1 0 2 1 1 0 0 1 0-2m14 0a1 1 0 1 1 0 2 1 1 0 0 1 0-2m14 0a1 1 0 1 1 0 2 1 1 0 0 1 0-2m14 0a1 1 0 1 1 0 2 1 1 0 0 1 0-2m14 0a1 1 0 1 1 0 2 1 1 0 0 1 0-2m14 0a1 1 0 1 1 0 2 1 1 0 0 1 0-2m14 0a1 1 0 1 1 0 2 1 1 0 0 1 0-2m14 0a1 1 0 1 1 0 2 1 1 0 0 1 0-2m14 0a1 1 0 1 1 0 2 1 1 0 0 1 0-2m14 0a1 1 0 1 1 0 2 1 1 0 0 1 0-2m14 0a1 1 0 1 1 0 2 1 1 0 0 1 0-2m14 0a1 1 0 1 1 0 2 1 1 0 0 1 0-2m14 0a1 1 0 1 1 0 2 1 1 0 0 1 0-2m14 0a1 1 0 1 1 0 2 1 1 0 0 1 0-2m14 0a1 1 0 1 1 0 2 1 1 0 0 1 0-2m14 0a1 1 0 1 1 0 2 1 1 0 0 1 0-2m14 0a1 1 0 1 1 0 2 1 1 0 0 1 0-2m14 0a1 1 0 1 1 0 2 1 1 0 0 1 0-2m14 0a1 1 0 1 1 0 2 1 1 0 0 1 0-2m14 0a1 1 0 1 1 0 2 1 1 0 0 1 0-2m14 0a1 1 0 1 1 0 2 1 1 0 0 1 0-2m14 0a1 1 0 1 1 0 2 1 1 0 0 1 0-2m14 0a1 1 0 1 1 0 2 1 1 0 0 1 0-2m14 0a1 1 0 1 1 0 2 1 1 0 0 1 0-2m14 0a1 1 0 1 1 0 2 1 1 0 0 1 0-2m14 0a1 1 0 1 1 0 2 1 1 0 0 1 0-2m14 0a1 1 0 1 1 0 2 1 1 0 0 1 0-2m14 0a1 1 0 1 1 0 2 1 1 0 0 1 0-2m14 0a1 1 0 1 1 0 2 1 1 0 0 1 0-2m14 0a1 1 0 1 1 0 2 1 1 0 0 1 0-2m14 0a1 1 0 1 1 0 2 1 1 0 0 1 0-2m14 0a1 1 0 1 1 0 2 1 1 0 0 1 0-2m14 0a1 1 0 1 1 0 2 1 1 0 0 1 0-2m14 0a1 1 0 1 1 0 2 1 1 0 0 1 0-2m14 0a1 1 0 1 1 0 2 1 1 0 0 1 0-2m14 0a1 1 0 1 1 0 2 1 1 0 0 1 0-2m14 0a1 1 0 1 1 0 2 1 1 0 0 1 0-2M-11 86a1 1 0 1 1 0 2 1 1 0 0 1 0-2m14 0a1 1 0 1 1 0 2 1 1 0 0 1 0-2m14 0a1 1 0 1 1 0 2 1 1 0 0 1 0-2m14 0a1 1 0 1 1 0 2 1 1 0 0 1 0-2m14 0a1 1 0 1 1 0 2 1 1 0 0 1 0-2m14 0a1 1 0 1 1 0 2 1 1 0 0 1 0-2m14 0a1 1 0 1 1 0 2 1 1 0 0 1 0-2m14 0a1 1 0 1 1 0 2 1 1 0 0 1 0-2m14 0a1 1 0 1 1 0 2 1 1 0 0 1 0-2m14 0a1 1 0 1 1 0 2 1 1 0 0 1 0-2m14 0a1 1 0 1 1 0 2 1 1 0 0 1 0-2m14 0a1 1 0 1 1 0 2 1 1 0 0 1 0-2m14 0a1 1 0 1 1 0 2 1 1 0 0 1 0-2m14 0a1 1 0 1 1 0 2 1 1 0 0 1 0-2m14 0a1 1 0 1 1 0 2 1 1 0 0 1 0-2m14 0a1 1 0 1 1 0 2 1 1 0 0 1 0-2m14 0a1 1 0 1 1 0 2 1 1 0 0 1 0-2m14 0a1 1 0 1 1 0 2 1 1 0 0 1 0-2m14 0a1 1 0 1 1 0 2 1 1 0 0 1 0-2m14 0a1 1 0 1 1 0 2 1 1 0 0 1 0-2m14 0a1 1 0 1 1 0 2 1 1 0 0 1 0-2m14 0a1 1 0 1 1 0 2 1 1 0 0 1 0-2m14 0a1 1 0 1 1 0 2 1 1 0 0 1 0-2m14 0a1 1 0 1 1 0 2 1 1 0 0 1 0-2m14 0a1 1 0 1 1 0 2 1 1 0 0 1 0-2m14 0a1 1 0 1 1 0 2 1 1 0 0 1 0-2m14 0a1 1 0 1 1 0 2 1 1 0 0 1 0-2m14 0a1 1 0 1 1 0 2 1 1 0 0 1 0-2m14 0a1 1 0 1 1 0 2 1 1 0 0 1 0-2m14 0a1 1 0 1 1 0 2 1 1 0 0 1 0-2m14 0a1 1 0 1 1 0 2 1 1 0 0 1 0-2m14 0a1 1 0 1 1 0 2 1 1 0 0 1 0-2m14 0a1 1 0 1 1 0 2 1 1 0 0 1 0-2m14 0a1 1 0 1 1 0 2 1 1 0 0 1 0-2m14 0a1 1 0 1 1 0 2 1 1 0 0 1 0-2m14 0a1 1 0 1 1 0 2 1 1 0 0 1 0-2m14 0a1 1 0 1 1 0 2 1 1 0 0 1 0-2m14 0a1 1 0 1 1 0 2 1 1 0 0 1 0-2m14 0a1 1 0 1 1 0 2 1 1 0 0 1 0-2m14 0a1 1 0 1 1 0 2 1 1 0 0 1 0-2m14 0a1 1 0 1 1 0 2 1 1 0 0 1 0-2m14 0a1 1 0 1 1 0 2 1 1 0 0 1 0-2m14 0a1 1 0 1 1 0 2 1 1 0 0 1 0-2m14 0a1 1 0 1 1 0 2 1 1 0 0 1 0-2m14 0a1 1 0 1 1 0 2 1 1 0 0 1 0-2m14 0a1 1 0 1 1 0 2 1 1 0 0 1 0-2m14 0a1 1 0 1 1 0 2 1 1 0 0 1 0-2m14 0a1 1 0 1 1 0 2 1 1 0 0 1 0-2m14 0a1 1 0 1 1 0 2 1 1 0 0 1 0-2m14 0a1 1 0 1 1 0 2 1 1 0 0 1 0-2m14 0a1 1 0 1 1 0 2 1 1 0 0 1 0-2m14 0a1 1 0 1 1 0 2 1 1 0 0 1 0-2m14 0a1 1 0 1 1 0 2 1 1 0 0 1 0-2M-11 72a1 1 0 1 1 0 2 1 1 0 0 1 0-2m14 0a1 1 0 1 1 0 2 1 1 0 0 1 0-2m14 0a1 1 0 1 1 0 2 1 1 0 0 1 0-2m14 0a1 1 0 1 1 0 2 1 1 0 0 1 0-2m14 0a1 1 0 1 1 0 2 1 1 0 0 1 0-2m14 0a1 1 0 1 1 0 2 1 1 0 0 1 0-2m14 0a1 1 0 1 1 0 2 1 1 0 0 1 0-2m14 0a1 1 0 1 1 0 2 1 1 0 0 1 0-2m14 0a1 1 0 1 1 0 2 1 1 0 0 1 0-2m14 0a1 1 0 1 1 0 2 1 1 0 0 1 0-2m14 0a1 1 0 1 1 0 2 1 1 0 0 1 0-2m14 0a1 1 0 1 1 0 2 1 1 0 0 1 0-2m14 0a1 1 0 1 1 0 2 1 1 0 0 1 0-2m14 0a1 1 0 1 1 0 2 1 1 0 0 1 0-2m14 0a1 1 0 1 1 0 2 1 1 0 0 1 0-2m14 0a1 1 0 1 1 0 2 1 1 0 0 1 0-2m14 0a1 1 0 1 1 0 2 1 1 0 0 1 0-2m14 0a1 1 0 1 1 0 2 1 1 0 0 1 0-2m14 0a1 1 0 1 1 0 2 1 1 0 0 1 0-2m14 0a1 1 0 1 1 0 2 1 1 0 0 1 0-2m14 0a1 1 0 1 1 0 2 1 1 0 0 1 0-2m14 0a1 1 0 1 1 0 2 1 1 0 0 1 0-2m14 0a1 1 0 1 1 0 2 1 1 0 0 1 0-2m14 0a1 1 0 1 1 0 2 1 1 0 0 1 0-2m14 0a1 1 0 1 1 0 2 1 1 0 0 1 0-2m14 0a1 1 0 1 1 0 2 1 1 0 0 1 0-2m14 0a1 1 0 1 1 0 2 1 1 0 0 1 0-2m14 0a1 1 0 1 1 0 2 1 1 0 0 1 0-2m14 0a1 1 0 1 1 0 2 1 1 0 0 1 0-2m14 0a1 1 0 1 1 0 2 1 1 0 0 1 0-2m14 0a1 1 0 1 1 0 2 1 1 0 0 1 0-2m14 0a1 1 0 1 1 0 2 1 1 0 0 1 0-2m14 0a1 1 0 1 1 0 2 1 1 0 0 1 0-2m14 0a1 1 0 1 1 0 2 1 1 0 0 1 0-2m14 0a1 1 0 1 1 0 2 1 1 0 0 1 0-2m14 0a1 1 0 1 1 0 2 1 1 0 0 1 0-2m14 0a1 1 0 1 1 0 2 1 1 0 0 1 0-2m14 0a1 1 0 1 1 0 2 1 1 0 0 1 0-2m14 0a1 1 0 1 1 0 2 1 1 0 0 1 0-2m14 0a1 1 0 1 1 0 2 1 1 0 0 1 0-2m14 0a1 1 0 1 1 0 2 1 1 0 0 1 0-2m14 0a1 1 0 1 1 0 2 1 1 0 0 1 0-2m14 0a1 1 0 1 1 0 2 1 1 0 0 1 0-2m14 0a1 1 0 1 1 0 2 1 1 0 0 1 0-2m14 0a1 1 0 1 1 0 2 1 1 0 0 1 0-2m14 0a1 1 0 1 1 0 2 1 1 0 0 1 0-2m14 0a1 1 0 1 1 0 2 1 1 0 0 1 0-2m14 0a1 1 0 1 1 0 2 1 1 0 0 1 0-2m14 0a1 1 0 1 1 0 2 1 1 0 0 1 0-2m14 0a1 1 0 1 1 0 2 1 1 0 0 1 0-2m14 0a1 1 0 1 1 0 2 1 1 0 0 1 0-2m14 0a1 1 0 1 1 0 2 1 1 0 0 1 0-2m14 0a1 1 0 1 1 0 2 1 1 0 0 1 0-2M-11 58a1 1 0 1 1 0 2 1 1 0 0 1 0-2m14 0a1 1 0 1 1 0 2 1 1 0 0 1 0-2m14 0a1 1 0 1 1 0 2 1 1 0 0 1 0-2m14 0a1 1 0 1 1 0 2 1 1 0 0 1 0-2m14 0a1 1 0 1 1 0 2 1 1 0 0 1 0-2m14 0a1 1 0 1 1 0 2 1 1 0 0 1 0-2m14 0a1 1 0 1 1 0 2 1 1 0 0 1 0-2m14 0a1 1 0 1 1 0 2 1 1 0 0 1 0-2m14 0a1 1 0 1 1 0 2 1 1 0 0 1 0-2m14 0a1 1 0 1 1 0 2 1 1 0 0 1 0-2m14 0a1 1 0 1 1 0 2 1 1 0 0 1 0-2m14 0a1 1 0 1 1 0 2 1 1 0 0 1 0-2m14 0a1 1 0 1 1 0 2 1 1 0 0 1 0-2m14 0a1 1 0 1 1 0 2 1 1 0 0 1 0-2m14 0a1 1 0 1 1 0 2 1 1 0 0 1 0-2m14 0a1 1 0 1 1 0 2 1 1 0 0 1 0-2m14 0a1 1 0 1 1 0 2 1 1 0 0 1 0-2m14 0a1 1 0 1 1 0 2 1 1 0 0 1 0-2m14 0a1 1 0 1 1 0 2 1 1 0 0 1 0-2m14 0a1 1 0 1 1 0 2 1 1 0 0 1 0-2m14 0a1 1 0 1 1 0 2 1 1 0 0 1 0-2m14 0a1 1 0 1 1 0 2 1 1 0 0 1 0-2m14 0a1 1 0 1 1 0 2 1 1 0 0 1 0-2m14 0a1 1 0 1 1 0 2 1 1 0 0 1 0-2m14 0a1 1 0 1 1 0 2 1 1 0 0 1 0-2m14 0a1 1 0 1 1 0 2 1 1 0 0 1 0-2m14 0a1 1 0 1 1 0 2 1 1 0 0 1 0-2m14 0a1 1 0 1 1 0 2 1 1 0 0 1 0-2m14 0a1 1 0 1 1 0 2 1 1 0 0 1 0-2m14 0a1 1 0 1 1 0 2 1 1 0 0 1 0-2m14 0a1 1 0 1 1 0 2 1 1 0 0 1 0-2m14 0a1 1 0 1 1 0 2 1 1 0 0 1 0-2m14 0a1 1 0 1 1 0 2 1 1 0 0 1 0-2m14 0a1 1 0 1 1 0 2 1 1 0 0 1 0-2m14 0a1 1 0 1 1 0 2 1 1 0 0 1 0-2m14 0a1 1 0 1 1 0 2 1 1 0 0 1 0-2m14 0a1 1 0 1 1 0 2 1 1 0 0 1 0-2m14 0a1 1 0 1 1 0 2 1 1 0 0 1 0-2m14 0a1 1 0 1 1 0 2 1 1 0 0 1 0-2m14 0a1 1 0 1 1 0 2 1 1 0 0 1 0-2m14 0a1 1 0 1 1 0 2 1 1 0 0 1 0-2m14 0a1 1 0 1 1 0 2 1 1 0 0 1 0-2m14 0a1 1 0 1 1 0 2 1 1 0 0 1 0-2m14 0a1 1 0 1 1 0 2 1 1 0 0 1 0-2m14 0a1 1 0 1 1 0 2 1 1 0 0 1 0-2m14 0a1 1 0 1 1 0 2 1 1 0 0 1 0-2m14 0a1 1 0 1 1 0 2 1 1 0 0 1 0-2m14 0a1 1 0 1 1 0 2 1 1 0 0 1 0-2m14 0a1 1 0 1 1 0 2 1 1 0 0 1 0-2m14 0a1 1 0 1 1 0 2 1 1 0 0 1 0-2m14 0a1 1 0 1 1 0 2 1 1 0 0 1 0-2m14 0a1 1 0 1 1 0 2 1 1 0 0 1 0-2m14 0a1 1 0 1 1 0 2 1 1 0 0 1 0-2M-11 44a1 1 0 1 1 0 2 1 1 0 0 1 0-2m14 0a1 1 0 1 1 0 2 1 1 0 0 1 0-2m14 0a1 1 0 1 1 0 2 1 1 0 0 1 0-2m14 0a1 1 0 1 1 0 2 1 1 0 0 1 0-2m14 0a1 1 0 1 1 0 2 1 1 0 0 1 0-2m14 0a1 1 0 1 1 0 2 1 1 0 0 1 0-2m14 0a1 1 0 1 1 0 2 1 1 0 0 1 0-2m14 0a1 1 0 1 1 0 2 1 1 0 0 1 0-2m14 0a1 1 0 1 1 0 2 1 1 0 0 1 0-2m14 0a1 1 0 1 1 0 2 1 1 0 0 1 0-2m14 0a1 1 0 1 1 0 2 1 1 0 0 1 0-2m14 0a1 1 0 1 1 0 2 1 1 0 0 1 0-2m14 0a1 1 0 1 1 0 2 1 1 0 0 1 0-2m14 0a1 1 0 1 1 0 2 1 1 0 0 1 0-2m14 0a1 1 0 1 1 0 2 1 1 0 0 1 0-2m14 0a1 1 0 1 1 0 2 1 1 0 0 1 0-2m14 0a1 1 0 1 1 0 2 1 1 0 0 1 0-2m14 0a1 1 0 1 1 0 2 1 1 0 0 1 0-2m14 0a1 1 0 1 1 0 2 1 1 0 0 1 0-2m14 0a1 1 0 1 1 0 2 1 1 0 0 1 0-2m14 0a1 1 0 1 1 0 2 1 1 0 0 1 0-2m14 0a1 1 0 1 1 0 2 1 1 0 0 1 0-2m14 0a1 1 0 1 1 0 2 1 1 0 0 1 0-2m14 0a1 1 0 1 1 0 2 1 1 0 0 1 0-2m14 0a1 1 0 1 1 0 2 1 1 0 0 1 0-2m14 0a1 1 0 1 1 0 2 1 1 0 0 1 0-2m14 0a1 1 0 1 1 0 2 1 1 0 0 1 0-2m14 0a1 1 0 1 1 0 2 1 1 0 0 1 0-2m14 0a1 1 0 1 1 0 2 1 1 0 0 1 0-2m14 0a1 1 0 1 1 0 2 1 1 0 0 1 0-2m14 0a1 1 0 1 1 0 2 1 1 0 0 1 0-2m14 0a1 1 0 1 1 0 2 1 1 0 0 1 0-2m14 0a1 1 0 1 1 0 2 1 1 0 0 1 0-2m14 0a1 1 0 1 1 0 2 1 1 0 0 1 0-2m14 0a1 1 0 1 1 0 2 1 1 0 0 1 0-2m14 0a1 1 0 1 1 0 2 1 1 0 0 1 0-2m14 0a1 1 0 1 1 0 2 1 1 0 0 1 0-2m14 0a1 1 0 1 1 0 2 1 1 0 0 1 0-2m14 0a1 1 0 1 1 0 2 1 1 0 0 1 0-2m14 0a1 1 0 1 1 0 2 1 1 0 0 1 0-2m14 0a1 1 0 1 1 0 2 1 1 0 0 1 0-2m14 0a1 1 0 1 1 0 2 1 1 0 0 1 0-2m14 0a1 1 0 1 1 0 2 1 1 0 0 1 0-2m14 0a1 1 0 1 1 0 2 1 1 0 0 1 0-2m14 0a1 1 0 1 1 0 2 1 1 0 0 1 0-2m14 0a1 1 0 1 1 0 2 1 1 0 0 1 0-2m14 0a1 1 0 1 1 0 2 1 1 0 0 1 0-2m14 0a1 1 0 1 1 0 2 1 1 0 0 1 0-2m14 0a1 1 0 1 1 0 2 1 1 0 0 1 0-2m14 0a1 1 0 1 1 0 2 1 1 0 0 1 0-2m14 0a1 1 0 1 1 0 2 1 1 0 0 1 0-2m14 0a1 1 0 1 1 0 2 1 1 0 0 1 0-2m14 0a1 1 0 1 1 0 2 1 1 0 0 1 0-2M-11 30a1 1 0 1 1 0 2 1 1 0 0 1 0-2m14 0a1 1 0 1 1 0 2 1 1 0 0 1 0-2m14 0a1 1 0 1 1 0 2 1 1 0 0 1 0-2m14 0a1 1 0 1 1 0 2 1 1 0 0 1 0-2m14 0a1 1 0 1 1 0 2 1 1 0 0 1 0-2m14 0a1 1 0 1 1 0 2 1 1 0 0 1 0-2m14 0a1 1 0 1 1 0 2 1 1 0 0 1 0-2m14 0a1 1 0 1 1 0 2 1 1 0 0 1 0-2m14 0a1 1 0 1 1 0 2 1 1 0 0 1 0-2m14 0a1 1 0 1 1 0 2 1 1 0 0 1 0-2m14 0a1 1 0 1 1 0 2 1 1 0 0 1 0-2m14 0a1 1 0 1 1 0 2 1 1 0 0 1 0-2m14 0a1 1 0 1 1 0 2 1 1 0 0 1 0-2m14 0a1 1 0 1 1 0 2 1 1 0 0 1 0-2m14 0a1 1 0 1 1 0 2 1 1 0 0 1 0-2m14 0a1 1 0 1 1 0 2 1 1 0 0 1 0-2m14 0a1 1 0 1 1 0 2 1 1 0 0 1 0-2m14 0a1 1 0 1 1 0 2 1 1 0 0 1 0-2m14 0a1 1 0 1 1 0 2 1 1 0 0 1 0-2m14 0a1 1 0 1 1 0 2 1 1 0 0 1 0-2m14 0a1 1 0 1 1 0 2 1 1 0 0 1 0-2m14 0a1 1 0 1 1 0 2 1 1 0 0 1 0-2m14 0a1 1 0 1 1 0 2 1 1 0 0 1 0-2m14 0a1 1 0 1 1 0 2 1 1 0 0 1 0-2m14 0a1 1 0 1 1 0 2 1 1 0 0 1 0-2m14 0a1 1 0 1 1 0 2 1 1 0 0 1 0-2m14 0a1 1 0 1 1 0 2 1 1 0 0 1 0-2m14 0a1 1 0 1 1 0 2 1 1 0 0 1 0-2m14 0a1 1 0 1 1 0 2 1 1 0 0 1 0-2m14 0a1 1 0 1 1 0 2 1 1 0 0 1 0-2m14 0a1 1 0 1 1 0 2 1 1 0 0 1 0-2m14 0a1 1 0 1 1 0 2 1 1 0 0 1 0-2m14 0a1 1 0 1 1 0 2 1 1 0 0 1 0-2m14 0a1 1 0 1 1 0 2 1 1 0 0 1 0-2m14 0a1 1 0 1 1 0 2 1 1 0 0 1 0-2m14 0a1 1 0 1 1 0 2 1 1 0 0 1 0-2m14 0a1 1 0 1 1 0 2 1 1 0 0 1 0-2m14 0a1 1 0 1 1 0 2 1 1 0 0 1 0-2m14 0a1 1 0 1 1 0 2 1 1 0 0 1 0-2m14 0a1 1 0 1 1 0 2 1 1 0 0 1 0-2m14 0a1 1 0 1 1 0 2 1 1 0 0 1 0-2m14 0a1 1 0 1 1 0 2 1 1 0 0 1 0-2m14 0a1 1 0 1 1 0 2 1 1 0 0 1 0-2m14 0a1 1 0 1 1 0 2 1 1 0 0 1 0-2m14 0a1 1 0 1 1 0 2 1 1 0 0 1 0-2m14 0a1 1 0 1 1 0 2 1 1 0 0 1 0-2m14 0a1 1 0 1 1 0 2 1 1 0 0 1 0-2m14 0a1 1 0 1 1 0 2 1 1 0 0 1 0-2m14 0a1 1 0 1 1 0 2 1 1 0 0 1 0-2m14 0a1 1 0 1 1 0 2 1 1 0 0 1 0-2m14 0a1 1 0 1 1 0 2 1 1 0 0 1 0-2m14 0a1 1 0 1 1 0 2 1 1 0 0 1 0-2m14 0a1 1 0 1 1 0 2 1 1 0 0 1 0-2M-11 16a1 1 0 1 1 0 2 1 1 0 0 1 0-2m14 0a1 1 0 1 1 0 2 1 1 0 0 1 0-2m14 0a1 1 0 1 1 0 2 1 1 0 0 1 0-2m14 0a1 1 0 1 1 0 2 1 1 0 0 1 0-2m14 0a1 1 0 1 1 0 2 1 1 0 0 1 0-2m14 0a1 1 0 1 1 0 2 1 1 0 0 1 0-2m14 0a1 1 0 1 1 0 2 1 1 0 0 1 0-2m14 0a1 1 0 1 1 0 2 1 1 0 0 1 0-2m14 0a1 1 0 1 1 0 2 1 1 0 0 1 0-2m14 0a1 1 0 1 1 0 2 1 1 0 0 1 0-2m14 0a1 1 0 1 1 0 2 1 1 0 0 1 0-2m14 0a1 1 0 1 1 0 2 1 1 0 0 1 0-2m14 0a1 1 0 1 1 0 2 1 1 0 0 1 0-2m14 0a1 1 0 1 1 0 2 1 1 0 0 1 0-2m14 0a1 1 0 1 1 0 2 1 1 0 0 1 0-2m14 0a1 1 0 1 1 0 2 1 1 0 0 1 0-2m14 0a1 1 0 1 1 0 2 1 1 0 0 1 0-2m14 0a1 1 0 1 1 0 2 1 1 0 0 1 0-2m14 0a1 1 0 1 1 0 2 1 1 0 0 1 0-2m14 0a1 1 0 1 1 0 2 1 1 0 0 1 0-2m14 0a1 1 0 1 1 0 2 1 1 0 0 1 0-2m14 0a1 1 0 1 1 0 2 1 1 0 0 1 0-2m14 0a1 1 0 1 1 0 2 1 1 0 0 1 0-2m14 0a1 1 0 1 1 0 2 1 1 0 0 1 0-2m14 0a1 1 0 1 1 0 2 1 1 0 0 1 0-2m14 0a1 1 0 1 1 0 2 1 1 0 0 1 0-2m14 0a1 1 0 1 1 0 2 1 1 0 0 1 0-2m14 0a1 1 0 1 1 0 2 1 1 0 0 1 0-2m14 0a1 1 0 1 1 0 2 1 1 0 0 1 0-2m14 0a1 1 0 1 1 0 2 1 1 0 0 1 0-2m14 0a1 1 0 1 1 0 2 1 1 0 0 1 0-2m14 0a1 1 0 1 1 0 2 1 1 0 0 1 0-2m14 0a1 1 0 1 1 0 2 1 1 0 0 1 0-2m14 0a1 1 0 1 1 0 2 1 1 0 0 1 0-2m14 0a1 1 0 1 1 0 2 1 1 0 0 1 0-2m14 0a1 1 0 1 1 0 2 1 1 0 0 1 0-2m14 0a1 1 0 1 1 0 2 1 1 0 0 1 0-2m14 0a1 1 0 1 1 0 2 1 1 0 0 1 0-2m14 0a1 1 0 1 1 0 2 1 1 0 0 1 0-2m14 0a1 1 0 1 1 0 2 1 1 0 0 1 0-2m14 0a1 1 0 1 1 0 2 1 1 0 0 1 0-2m14 0a1 1 0 1 1 0 2 1 1 0 0 1 0-2m14 0a1 1 0 1 1 0 2 1 1 0 0 1 0-2m14 0a1 1 0 1 1 0 2 1 1 0 0 1 0-2m14 0a1 1 0 1 1 0 2 1 1 0 0 1 0-2m14 0a1 1 0 1 1 0 2 1 1 0 0 1 0-2m14 0a1 1 0 1 1 0 2 1 1 0 0 1 0-2m14 0a1 1 0 1 1 0 2 1 1 0 0 1 0-2m14 0a1 1 0 1 1 0 2 1 1 0 0 1 0-2m14 0a1 1 0 1 1 0 2 1 1 0 0 1 0-2m14 0a1 1 0 1 1 0 2 1 1 0 0 1 0-2m14 0a1 1 0 1 1 0 2 1 1 0 0 1 0-2m14 0a1 1 0 1 1 0 2 1 1 0 0 1 0-2M-11 2a1 1 0 1 1 0 2 1 1 0 0 1 0-2M3 2a1 1 0 1 1 0 2 1 1 0 0 1 0-2m14 0a1 1 0 1 1 0 2 1 1 0 0 1 0-2m14 0a1 1 0 1 1 0 2 1 1 0 0 1 0-2m14 0a1 1 0 1 1 0 2 1 1 0 0 1 0-2m14 0a1 1 0 1 1 0 2 1 1 0 0 1 0-2m14 0a1 1 0 1 1 0 2 1 1 0 0 1 0-2m14 0a1 1 0 1 1 0 2 1 1 0 0 1 0-2m14 0a1 1 0 1 1 0 2 1 1 0 0 1 0-2m14 0a1 1 0 1 1 0 2 1 1 0 0 1 0-2m14 0a1 1 0 1 1 0 2 1 1 0 0 1 0-2m14 0a1 1 0 1 1 0 2 1 1 0 0 1 0-2m14 0a1 1 0 1 1 0 2 1 1 0 0 1 0-2m14 0a1 1 0 1 1 0 2 1 1 0 0 1 0-2m14 0a1 1 0 1 1 0 2 1 1 0 0 1 0-2m14 0a1 1 0 1 1 0 2 1 1 0 0 1 0-2m14 0a1 1 0 1 1 0 2 1 1 0 0 1 0-2m14 0a1 1 0 1 1 0 2 1 1 0 0 1 0-2m14 0a1 1 0 1 1 0 2 1 1 0 0 1 0-2m14 0a1 1 0 1 1 0 2 1 1 0 0 1 0-2m14 0a1 1 0 1 1 0 2 1 1 0 0 1 0-2m14 0a1 1 0 1 1 0 2 1 1 0 0 1 0-2m14 0a1 1 0 1 1 0 2 1 1 0 0 1 0-2m14 0a1 1 0 1 1 0 2 1 1 0 0 1 0-2m14 0a1 1 0 1 1 0 2 1 1 0 0 1 0-2m14 0a1 1 0 1 1 0 2 1 1 0 0 1 0-2m14 0a1 1 0 1 1 0 2 1 1 0 0 1 0-2m14 0a1 1 0 1 1 0 2 1 1 0 0 1 0-2m14 0a1 1 0 1 1 0 2 1 1 0 0 1 0-2m14 0a1 1 0 1 1 0 2 1 1 0 0 1 0-2m14 0a1 1 0 1 1 0 2 1 1 0 0 1 0-2m14 0a1 1 0 1 1 0 2 1 1 0 0 1 0-2m14 0a1 1 0 1 1 0 2 1 1 0 0 1 0-2m14 0a1 1 0 1 1 0 2 1 1 0 0 1 0-2m14 0a1 1 0 1 1 0 2 1 1 0 0 1 0-2m14 0a1 1 0 1 1 0 2 1 1 0 0 1 0-2m14 0a1 1 0 1 1 0 2 1 1 0 0 1 0-2m14 0a1 1 0 1 1 0 2 1 1 0 0 1 0-2m14 0a1 1 0 1 1 0 2 1 1 0 0 1 0-2m14 0a1 1 0 1 1 0 2 1 1 0 0 1 0-2m14 0a1 1 0 1 1 0 2 1 1 0 0 1 0-2m14 0a1 1 0 1 1 0 2 1 1 0 0 1 0-2m14 0a1 1 0 1 1 0 2 1 1 0 0 1 0-2m14 0a1 1 0 1 1 0 2 1 1 0 0 1 0-2m14 0a1 1 0 1 1 0 2 1 1 0 0 1 0-2m14 0a1 1 0 1 1 0 2 1 1 0 0 1 0-2m14 0a1 1 0 1 1 0 2 1 1 0 0 1 0-2m14 0a1 1 0 1 1 0 2 1 1 0 0 1 0-2m14 0a1 1 0 1 1 0 2 1 1 0 0 1 0-2m14 0a1 1 0 1 1 0 2 1 1 0 0 1 0-2m14 0a1 1 0 1 1 0 2 1 1 0 0 1 0-2m14 0a1 1 0 1 1 0 2 1 1 0 0 1 0-2m14 0a1 1 0 1 1 0 2 1 1 0 0 1 0-2"/></g><rect width="185" height="55" x="66.5" y="200.5" fill="#defbd0" rx="9.5"/><rect width="185" height="55" x="66.5" y="200.5" stroke="#4fdf0c" rx="9.5"/><rect width="30" height="30" x="78" y="213" fill="#28650b" rx="4"/><path fill="#defbd0" d="M97.582 221.583a.917.917 0 0 0-.917-.916h-1.833c0 .506-.41.916-.917.916h-1.833a.916.916 0 0 1-.917-.916h-1.833a.916.916 0 0 0-.917.916v12.834a.917.917 0 0 0 .917.916h7.333a.916.916 0 0 0 .917-.916zm-5.5 11.009v-.009a.916.916 0 0 1 1.833 0v.009a.916.916 0 1 1-1.833 0m7.333 1.825a2.75 2.75 0 0 1-2.75 2.75h-7.333a2.75 2.75 0 0 1-2.75-2.75v-12.834a2.75 2.75 0 0 1 2.75-2.75h7.333a2.75 2.75 0 0 1 2.75 2.75z"/><path fill="#17181c" d="M115.147 225h-1.828l3.328-9.455h2.114l3.333 9.455h-1.828l-2.525-7.516h-.074zm.06-3.707h4.985v1.376h-4.985zM123.34 225v-9.455h3.545q1.09 0 1.828.407.744.406 1.122 1.117.383.706.383 1.606 0 .91-.383 1.616a2.73 2.73 0 0 1-1.131 1.113q-.747.401-1.842.401h-2.35v-1.408h2.119q.637 0 1.044-.221.406-.222.6-.61a1.9 1.9 0 0 0 .198-.891q0-.502-.198-.886a1.35 1.35 0 0 0-.605-.595q-.406-.217-1.048-.217h-1.57V225zm8.366 0v-9.455h3.545q1.09 0 1.829.407.743.406 1.121 1.117.384.706.384 1.606 0 .91-.384 1.616a2.73 2.73 0 0 1-1.131 1.113q-.747.401-1.842.401h-2.349v-1.408h2.119q.636 0 1.043-.221.406-.222.6-.61a1.9 1.9 0 0 0 .198-.891q0-.502-.198-.886a1.35 1.35 0 0 0-.605-.595q-.406-.217-1.048-.217h-1.569V225zm8.366 0v-9.455h1.713v8.019h4.164V225zm9.076-9.455V225h-1.713v-9.455zm9.948 3.19h-1.727a2.2 2.2 0 0 0-.272-.752 2.03 2.03 0 0 0-1.168-.909 2.6 2.6 0 0 0-.808-.121q-.771 0-1.367.388-.596.384-.932 1.127-.337.738-.337 1.805 0 1.084.337 1.828.34.739.932 1.117a2.5 2.5 0 0 0 1.362.374q.425 0 .794-.111.374-.115.67-.337.3-.222.503-.545.208-.322.286-.738l1.727.009a3.7 3.7 0 0 1-.421 1.265 3.7 3.7 0 0 1-2.045 1.745 4.5 4.5 0 0 1-1.537.249q-1.247 0-2.225-.577-.98-.577-1.542-1.666-.563-1.09-.563-2.613 0-1.529.568-2.613.567-1.09 1.546-1.667.979-.576 2.216-.577.79 0 1.468.222.678.221 1.21.651.53.425.872 1.043.346.614.453 1.403m2.668 6.265h-1.828l3.328-9.455h2.115l3.333 9.455h-1.828l-2.526-7.516h-.074zm.06-3.707h4.986v1.376h-4.986zm6.575-4.312v-1.436h7.543v1.436h-2.922V225h-1.699v-8.019zm10.71-1.436V225h-1.713v-9.455zm10.303 4.728q0 1.528-.573 2.617-.567 1.085-1.551 1.662-.978.577-2.22.577t-2.225-.577q-.98-.582-1.551-1.666-.568-1.09-.568-2.613 0-1.529.568-2.613.571-1.09 1.551-1.667.983-.576 2.225-.577 1.242 0 2.22.577.984.577 1.551 1.667.573 1.084.573 2.613m-1.722 0q0-1.076-.337-1.815-.333-.743-.923-1.121a2.44 2.44 0 0 0-1.362-.384q-.771 0-1.362.384-.59.378-.928 1.121-.333.74-.332 1.815 0 1.075.332 1.819.337.738.928 1.121.591.38 1.362.379.771 0 1.362-.379.59-.383.923-1.121.337-.744.337-1.819m11.111-4.728V225h-1.524l-4.455-6.44h-.078V225h-1.713v-9.455h1.533l4.45 6.445h.083v-6.445zm13.183 3.19h-1.726a2.2 2.2 0 0 0-.273-.752 2 2 0 0 0-1.168-.909 2.6 2.6 0 0 0-.808-.121q-.77 0-1.366.388-.595.384-.933 1.127-.337.738-.337 1.805 0 1.084.337 1.828.342.739.933 1.117a2.5 2.5 0 0 0 1.362.374q.425 0 .794-.111a2.2 2.2 0 0 0 .669-.337q.3-.222.503-.545.208-.322.287-.738l1.726.009a3.7 3.7 0 0 1-.42 1.265 3.7 3.7 0 0 1-.835 1.043 3.8 3.8 0 0 1-1.21.702 4.5 4.5 0 0 1-1.537.249q-1.247 0-2.225-.577-.98-.577-1.542-1.666-.564-1.09-.564-2.613 0-1.529.568-2.613.568-1.09 1.547-1.667.978-.576 2.216-.577a4.7 4.7 0 0 1 1.468.222q.678.221 1.209.651.531.425.873 1.043.346.614.452 1.403m3.166-3.19V225h-1.671v-9.455zm1.718 9.455v-7.091h1.672V225zm.841-8.097a.98.98 0 0 1-.684-.263.85.85 0 0 1-.286-.642q0-.378.286-.642a.97.97 0 0 1 .684-.268q.4 0 .683.268a.84.84 0 0 1 .286.642.85.85 0 0 1-.286.642.97.97 0 0 1-.683.263m5.688 8.235q-1.066 0-1.842-.443a3 3 0 0 1-1.186-1.265q-.416-.82-.416-1.934 0-1.094.416-1.92.42-.831 1.172-1.293.752-.466 1.769-.466.655 0 1.237.212a2.8 2.8 0 0 1 1.034.646q.451.439.711 1.118.258.673.258 1.606v.513h-5.812v-1.127h4.21a1.8 1.8 0 0 0-.207-.854 1.5 1.5 0 0 0-.568-.595 1.6 1.6 0 0 0-.84-.217q-.513 0-.901.249-.388.244-.604.646a1.86 1.86 0 0 0-.217.873v.983q0 .618.226 1.062.227.438.632.674.406.231.951.231.366 0 .661-.102.294-.107.512-.309a1.3 1.3 0 0 0 .328-.503l1.56.175a2.4 2.4 0 0 1-.563 1.08 2.74 2.74 0 0 1-1.053.711q-.641.249-1.468.249m6.238-4.293V225h-1.671v-7.091h1.597v1.205h.084q.245-.595.78-.946.54-.351 1.334-.351.733 0 1.279.314.549.314.849.909.304.596.3 1.445V225h-1.671v-4.256q0-.711-.369-1.113-.365-.402-1.011-.402-.44 0-.781.194-.336.19-.53.55-.19.36-.19.872m9.792-2.936v1.293h-4.077v-1.293zm-3.07-1.699h1.671v6.657q0 .337.102.517.106.175.277.24.17.065.378.065.157 0 .286-.023.134-.023.204-.042l.281 1.307a4 4 0 0 1-.383.101 3 3 0 0 1-.6.065 2.7 2.7 0 0 1-1.131-.189 1.76 1.76 0 0 1-.799-.656q-.29-.443-.286-1.108zm-122.083 20.063q0-1.732.457-3.181a9.2 9.2 0 0 1 1.371-2.687h1.574a6 6 0 0 0-.655 1.122q-.305.66-.531 1.45a13 13 0 0 0-.351 1.629 11.4 11.4 0 0 0-.124 1.667q0 1.094.217 2.216.221 1.122.595 2.082.379.955.849 1.565h-1.574a9.2 9.2 0 0 1-1.371-2.683q-.457-1.453-.457-3.18m13.223 0q0 1.528-.573 2.617-.567 1.085-1.551 1.662-.978.577-2.22.577t-2.225-.577q-.98-.582-1.551-1.666-.568-1.09-.568-2.613 0-1.529.568-2.613.572-1.09 1.551-1.667.983-.576 2.225-.577 1.242 0 2.22.577.984.577 1.551 1.667.573 1.084.573 2.613m-1.722 0q0-1.076-.337-1.815-.332-.743-.923-1.121a2.44 2.44 0 0 0-1.362-.384q-.771 0-1.362.384-.59.378-.928 1.121-.332.74-.332 1.815t.332 1.819q.337.738.928 1.121.591.38 1.362.379.771 0 1.362-.379.59-.383.923-1.121.337-.744.337-1.819m4.938.572V241h-1.671v-7.091h1.598v1.205h.083q.245-.595.78-.946.54-.351 1.334-.351.734 0 1.279.314.549.314.849.909.304.596.3 1.445V241h-1.671v-4.256q0-.711-.369-1.113-.364-.402-1.011-.402-.44 0-.78.194-.338.19-.531.55-.19.36-.19.872m7.922-5.3V241h-1.671v-9.455zm1.719 9.455v-7.091h1.671V241zm.84-8.097a.98.98 0 0 1-.683-.263.85.85 0 0 1-.286-.642.84.84 0 0 1 .286-.642.97.97 0 0 1 .683-.268q.402 0 .683.268a.84.84 0 0 1 .286.642.85.85 0 0 1-.286.642.97.97 0 0 1-.683.263m4.221 3.942V241h-1.672v-7.091h1.598v1.205h.083q.245-.595.78-.946.54-.351 1.334-.351.735 0 1.279.314.549.314.849.909.305.596.3 1.445V241h-1.671v-4.256q0-.711-.369-1.113-.365-.402-1.011-.402-.438 0-.78.194-.337.19-.531.55-.189.36-.189.872m9.39 4.293q-1.066 0-1.842-.443a3 3 0 0 1-1.187-1.265q-.415-.82-.415-1.934 0-1.094.415-1.92.42-.831 1.173-1.293.752-.466 1.768-.466.655 0 1.237.212.587.208 1.034.646.453.439.711 1.118.259.673.259 1.606v.513h-5.813v-1.127h4.211a1.8 1.8 0 0 0-.208-.854 1.5 1.5 0 0 0-.568-.595 1.6 1.6 0 0 0-.84-.217q-.513 0-.9.249-.388.244-.605.646a1.86 1.86 0 0 0-.217.873v.983q0 .618.226 1.062.227.438.633.674.405.231.951.231.364 0 .66-.102.296-.107.512-.309a1.3 1.3 0 0 0 .328-.503l1.56.175a2.4 2.4 0 0 1-.563 1.08 2.74 2.74 0 0 1-1.052.711q-.643.249-1.468.249m7.549-3.993q0 1.727-.462 3.181a9.1 9.1 0 0 1-1.367 2.682h-1.574a5.6 5.6 0 0 0 .656-1.117q.304-.66.526-1.45.227-.79.351-1.634a11 11 0 0 0-.092-3.878 12 12 0 0 0-.596-2.082q-.374-.96-.845-1.569h1.574a9 9 0 0 1 1.367 2.686q.462 1.45.462 3.181"/><rect width="185" height="55" x="468.5" y="200.5" fill="#f9c3d6" rx="9.5"/><rect width="185" height="55" x="468.5" y="200.5" stroke="#f53d7d" rx="9.5"/><rect width="30" height="30" x="480" y="213" fill="#8a0f3a" rx="4"/><path fill="#f9c3d6" d="M499.582 221.583a.917.917 0 0 0-.917-.916h-1.833c0 .506-.41.916-.917.916h-1.833a.917.917 0 0 1-.917-.916h-1.833a.916.916 0 0 0-.917.916v12.834a.917.917 0 0 0 .917.916h7.333a.914.914 0 0 0 .917-.916zm-5.5 11.009v-.009a.916.916 0 0 1 1.833 0v.009a.916.916 0 1 1-1.833 0m7.333 1.825a2.75 2.75 0 0 1-2.75 2.75h-7.333a2.75 2.75 0 0 1-2.75-2.75v-12.834a2.75 2.75 0 0 1 2.75-2.75h7.333a2.75 2.75 0 0 1 2.75 2.75z"/><path fill="#17181c" d="M517.147 225h-1.828l3.328-9.455h2.114l3.333 9.455h-1.828l-2.525-7.516h-.074zm.06-3.707h4.985v1.376h-4.985zM525.34 225v-9.455h3.545q1.09 0 1.828.407.744.406 1.122 1.117.384.706.383 1.606 0 .91-.383 1.616a2.73 2.73 0 0 1-1.131 1.113q-.747.401-1.842.401h-2.35v-1.408h2.119q.637 0 1.044-.221.406-.222.6-.61a1.9 1.9 0 0 0 .198-.891q0-.502-.198-.886a1.35 1.35 0 0 0-.605-.595q-.406-.217-1.048-.217h-1.57V225zm8.366 0v-9.455h3.545q1.09 0 1.829.407.743.406 1.121 1.117.384.706.384 1.606 0 .91-.384 1.616a2.73 2.73 0 0 1-1.131 1.113q-.747.401-1.842.401h-2.349v-1.408h2.119q.636 0 1.043-.221.406-.222.6-.61a1.9 1.9 0 0 0 .198-.891q0-.502-.198-.886a1.35 1.35 0 0 0-.605-.595q-.406-.217-1.048-.217h-1.569V225zm8.366 0v-9.455h1.713v8.019h4.164V225zm9.076-9.455V225h-1.713v-9.455zm9.948 3.19h-1.727a2.2 2.2 0 0 0-.272-.752 2.03 2.03 0 0 0-1.168-.909 2.6 2.6 0 0 0-.808-.121q-.771 0-1.367.388-.596.384-.932 1.127-.337.738-.337 1.805 0 1.084.337 1.828.34.739.932 1.117a2.5 2.5 0 0 0 1.362.374q.425 0 .794-.111.374-.115.67-.337.3-.222.503-.545.208-.322.286-.738l1.727.009a3.7 3.7 0 0 1-.421 1.265 3.7 3.7 0 0 1-2.045 1.745 4.5 4.5 0 0 1-1.537.249q-1.247 0-2.225-.577-.98-.577-1.542-1.666-.563-1.09-.563-2.613 0-1.529.568-2.613.568-1.09 1.546-1.667.979-.576 2.216-.577.79 0 1.468.222.678.221 1.21.651.53.425.872 1.043.346.614.453 1.403m2.668 6.265h-1.828l3.328-9.455h2.115l3.333 9.455h-1.828l-2.526-7.516h-.074zm.06-3.707h4.986v1.376h-4.986zm6.575-4.312v-1.436h7.543v1.436h-2.922V225h-1.699v-8.019zm10.71-1.436V225h-1.713v-9.455zm10.303 4.728q0 1.528-.573 2.617-.567 1.085-1.551 1.662-.978.577-2.22.577t-2.225-.577q-.98-.582-1.551-1.666-.568-1.09-.568-2.613 0-1.529.568-2.613.571-1.09 1.551-1.667.983-.576 2.225-.577 1.242 0 2.22.577.984.577 1.551 1.667.573 1.084.573 2.613m-1.722 0q0-1.076-.337-1.815-.332-.743-.923-1.121a2.44 2.44 0 0 0-1.362-.384q-.771 0-1.362.384-.59.378-.928 1.121-.332.74-.332 1.815t.332 1.819q.337.738.928 1.121.591.38 1.362.379.771 0 1.362-.379.59-.383.923-1.121.337-.744.337-1.819m11.111-4.728V225h-1.524l-4.455-6.44h-.078V225h-1.713v-9.455h1.533l4.45 6.445h.083v-6.445zm13.183 3.19h-1.726a2.2 2.2 0 0 0-.273-.752 2 2 0 0 0-1.168-.909 2.6 2.6 0 0 0-.808-.121q-.77 0-1.366.388-.596.384-.933 1.127-.337.738-.337 1.805 0 1.084.337 1.828.342.739.933 1.117a2.5 2.5 0 0 0 1.362.374q.425 0 .794-.111a2.2 2.2 0 0 0 .669-.337q.3-.222.503-.545.208-.322.287-.738l1.726.009a3.7 3.7 0 0 1-.42 1.265 3.7 3.7 0 0 1-.835 1.043 3.8 3.8 0 0 1-1.21.702 4.5 4.5 0 0 1-1.537.249q-1.247 0-2.225-.577-.98-.577-1.542-1.666-.564-1.09-.564-2.613 0-1.529.568-2.613.568-1.09 1.547-1.667.978-.576 2.216-.577a4.7 4.7 0 0 1 1.468.222q.678.221 1.209.651.531.425.873 1.043.346.614.452 1.403m3.166-3.19V225h-1.671v-9.455zm1.718 9.455v-7.091h1.672V225zm.841-8.097a.98.98 0 0 1-.684-.263.85.85 0 0 1-.286-.642q0-.378.286-.642a.97.97 0 0 1 .684-.268q.4 0 .683.268a.84.84 0 0 1 .286.642.85.85 0 0 1-.286.642.97.97 0 0 1-.683.263m5.688 8.235q-1.067 0-1.842-.443a3 3 0 0 1-1.186-1.265q-.416-.82-.416-1.934 0-1.094.416-1.92.42-.831 1.172-1.293.752-.466 1.769-.466.655 0 1.237.212a2.8 2.8 0 0 1 1.034.646q.452.439.711 1.118.258.673.258 1.606v.513h-5.812v-1.127h4.21a1.8 1.8 0 0 0-.207-.854 1.5 1.5 0 0 0-.568-.595 1.6 1.6 0 0 0-.84-.217q-.513 0-.901.249-.388.244-.604.646a1.86 1.86 0 0 0-.217.873v.983q0 .618.226 1.062.227.438.632.674.406.231.951.231.366 0 .661-.102.294-.107.512-.309a1.3 1.3 0 0 0 .328-.503l1.56.175a2.4 2.4 0 0 1-.563 1.08 2.74 2.74 0 0 1-1.053.711q-.641.249-1.468.249m6.238-4.293V225h-1.671v-7.091h1.597v1.205h.084q.245-.595.78-.946.54-.351 1.334-.351.733 0 1.279.314.549.314.849.909.304.596.3 1.445V225h-1.671v-4.256q0-.711-.369-1.113-.365-.402-1.011-.402-.44 0-.781.194-.336.19-.53.55-.19.36-.19.872m9.792-2.936v1.293h-4.077v-1.293zm-3.07-1.699h1.671v6.657q0 .337.102.517.106.175.277.24.17.065.378.065.157 0 .286-.023.134-.023.204-.042l.281 1.307a4 4 0 0 1-.383.101 3 3 0 0 1-.6.065 2.7 2.7 0 0 1-1.131-.189 1.76 1.76 0 0 1-.799-.656q-.29-.443-.286-1.108zm-122.083 20.063q0-1.732.457-3.181a9.2 9.2 0 0 1 1.371-2.687h1.574a6 6 0 0 0-.655 1.122q-.304.66-.531 1.45a13 13 0 0 0-.351 1.629 11.4 11.4 0 0 0-.124 1.667q0 1.094.217 2.216.221 1.122.595 2.082.379.955.849 1.565h-1.574a9.2 9.2 0 0 1-1.371-2.683q-.457-1.453-.457-3.18m13.223 0q0 1.528-.573 2.617-.567 1.085-1.551 1.662-.978.577-2.22.577t-2.225-.577q-.98-.582-1.551-1.666-.568-1.09-.568-2.613 0-1.529.568-2.613.572-1.09 1.551-1.667.983-.576 2.225-.577 1.242 0 2.22.577.984.577 1.551 1.667.573 1.084.573 2.613m-1.722 0q0-1.076-.337-1.815-.332-.743-.923-1.121a2.44 2.44 0 0 0-1.362-.384q-.771 0-1.362.384-.59.378-.928 1.121-.332.74-.332 1.815t.332 1.819q.337.738.928 1.121.591.38 1.362.379.771 0 1.362-.379.59-.383.923-1.121.337-.744.337-1.819m6.859-2.364v1.293h-4.192v-1.293zM531.49 241v-7.76q0-.715.296-1.191.3-.475.803-.711a2.6 2.6 0 0 1 1.117-.236q.434 0 .771.07.337.069.498.124l-.332 1.293a3 3 0 0 0-.268-.065 1.7 1.7 0 0 0-.36-.037q-.466 0-.66.226-.189.222-.189.637V241zm8.044-7.091v1.293h-4.191v-1.293zM536.39 241v-7.76q0-.715.296-1.191.3-.475.803-.711a2.6 2.6 0 0 1 1.117-.236q.435 0 .771.07.337.069.499.124l-.332 1.293a3 3 0 0 0-.268-.065 1.7 1.7 0 0 0-.36-.037q-.467 0-.66.226-.19.222-.19.637V241zm6.124-9.455V241h-1.671v-9.455zm1.719 9.455v-7.091h1.671V241zm.84-8.097a.97.97 0 0 1-.683-.263.85.85 0 0 1-.287-.642q0-.378.287-.642a.97.97 0 0 1 .683-.268q.402 0 .683.268a.84.84 0 0 1 .286.642.85.85 0 0 1-.286.642.97.97 0 0 1-.683.263m4.221 3.942V241h-1.672v-7.091h1.598v1.205h.083q.245-.595.78-.946.54-.351 1.334-.351.734 0 1.279.314.549.314.849.909.304.596.3 1.445V241h-1.671v-4.256q0-.711-.369-1.113-.365-.402-1.011-.402-.44 0-.78.194-.338.19-.531.55-.189.36-.189.872m9.389 4.293q-1.067 0-1.842-.443a3 3 0 0 1-1.186-1.265q-.415-.82-.415-1.934 0-1.094.415-1.92.42-.831 1.173-1.293.752-.466 1.768-.466.655 0 1.237.212a2.8 2.8 0 0 1 1.034.646q.453.439.711 1.118.258.673.258 1.606v.513h-5.812v-1.127h4.211a1.8 1.8 0 0 0-.208-.854 1.5 1.5 0 0 0-.568-.595 1.6 1.6 0 0 0-.84-.217q-.513 0-.9.249a1.7 1.7 0 0 0-.605.646 1.86 1.86 0 0 0-.217.873v.983q0 .618.226 1.062.226.438.633.674.405.231.95.231.366 0 .661-.102.295-.107.512-.309a1.3 1.3 0 0 0 .328-.503l1.56.175a2.4 2.4 0 0 1-.563 1.08 2.74 2.74 0 0 1-1.053.711q-.641.249-1.468.249m7.55-3.993q0 1.727-.462 3.181a9.1 9.1 0 0 1-1.367 2.682h-1.574a5.6 5.6 0 0 0 .656-1.117q.304-.66.526-1.45.226-.79.351-1.634a11 11 0 0 0-.092-3.878 12 12 0 0 0-.596-2.082q-.374-.96-.845-1.569h1.574a9 9 0 0 1 1.367 2.686q.462 1.45.462 3.181"/><rect width="110" height="27" x="305" y="16.5" fill="#edeef3" rx="3.5"/><rect width="110" height="27" x="305" y="16.5" stroke="#c1c3c8" rx="3.5"/><path fill="#17181c" d="M317.204 24.513a.814.814 0 0 0-1.155 0h-.005a.82.82 0 0 0-.237.58c0 .227.091.431.237.577l.005.003a.8.8 0 0 0 .575.238c.228 0 .433-.09.58-.238l.002-.003a.8.8 0 0 0 .238-.578.8.8 0 0 0-.238-.579zm-.58 11.2a.82.82 0 0 0 .58-.238l.002-.004a.8.8 0 0 0 .238-.576.8.8 0 0 0-.238-.58h-.002a.8.8 0 0 0-.58-.24c-.227 0-.43.09-.575.24h-.005a.82.82 0 0 0 0 1.156l.005.004a.8.8 0 0 0 .575.238m4.458-2.479a.8.8 0 0 0 .498-.38l.016-.028a.8.8 0 0 0 .064-.593.8.8 0 0 0-.381-.498l-.012-.008a.82.82 0 0 0-.808 1.428h.001a.83.83 0 0 0 .622.08m-3.618-4.079a1.185 1.185 0 0 0-1.677 0 1.194 1.194 0 0 0 0 1.678 1.187 1.187 0 0 0 1.677-1.678m-.472-1.394a2.25 2.25 0 0 1 1.231.635h.002q.079.08.15.167l.816-.473a1.75 1.75 0 0 1-.026-1.004 1.75 1.75 0 0 1 .822-1.07l.014-.009a1.76 1.76 0 0 1 2.397.653v.001a1.763 1.763 0 0 1-.646 2.409l-.111.066h-.012a1.77 1.77 0 0 1-2.072-.413l-.815.471a2.28 2.28 0 0 1 0 1.6l.815.47a1.74 1.74 0 0 1 .856-.525 1.74 1.74 0 0 1 1.339.178l.027.012v.002c.408.246.681.628.796 1.059a1.76 1.76 0 0 1-.177 1.335l-.015.03-.001-.003a1.78 1.78 0 0 1-1.055.798 1.78 1.78 0 0 1-1.34-.176v-.003a1.76 1.76 0 0 1-.822-1.071 1.74 1.74 0 0 1 .026-1.003l-.816-.471a2 2 0 0 1-.15.164l-.002.002a2.24 2.24 0 0 1-1.231.632v.944c.339.07.643.24.881.478l.001.003a1.755 1.755 0 0 1 0 2.49l-.001.005a1.766 1.766 0 0 1-2.495 0h-.001v-.005a1.755 1.755 0 0 1 0-2.49v-.003h.001a1.76 1.76 0 0 1 .881-.479v-.943a2.24 2.24 0 0 1-1.23-.632l-.003-.002a2.256 2.256 0 0 1 0-3.194h.003a2.25 2.25 0 0 1 1.23-.635v-.94a1.8 1.8 0 0 1-.881-.48h-.001v-.002a1.76 1.76 0 0 1 0-2.493l.001-.001a1.763 1.763 0 0 1 2.495 0v.001h.001a1.763 1.763 0 0 1 0 2.493l-.001.002a1.8 1.8 0 0 1-.881.48zm4.588-.627-.006-.01a.824.824 0 0 0-1.115-.29h.001a.82.82 0 0 0-.3 1.12l.004.004a.8.8 0 0 0 .494.374.8.8 0 0 0 .621-.08l.01-.005a.82.82 0 0 0 .371-.491.82.82 0 0 0-.08-.622m13.981.82v1.193h-3.763v-1.194zm-2.834-1.569h1.543v6.145q0 .312.094.477.098.162.255.222.158.06.35.06.144 0 .264-.021.123-.022.187-.039l.26 1.206q-.123.043-.353.094a3 3 0 0 1-.554.06 2.5 2.5 0 0 1-1.044-.175 1.63 1.63 0 0 1-.738-.605q-.268-.41-.264-1.023zm4.333 8.114v-8.727h1.543v3.264h.064q.118-.24.336-.507a1.8 1.8 0 0 1 .588-.465q.371-.195.946-.196.759 0 1.368.388.614.384.972 1.138.362.75.362 1.84 0 1.08-.354 1.833-.353.755-.963 1.15a2.47 2.47 0 0 1-1.38.397q-.563 0-.934-.187a1.9 1.9 0 0 1-.596-.452 3 3 0 0 1-.345-.507h-.09V34.5zm1.513-3.273q0 .635.179 1.113.183.477.524.745.345.264.835.264.512 0 .857-.272.345-.277.52-.755.179-.48.179-1.095 0-.61-.175-1.082a1.63 1.63 0 0 0-.52-.742q-.345-.268-.861-.268-.494 0-.839.26t-.524.729q-.175.468-.175 1.103m5.977 3.273v-6.546h1.475v1.113h.077q.204-.563.677-.878.473-.32 1.129-.32.666 0 1.121.324.46.32.648.874h.068q.217-.546.733-.87.52-.328 1.232-.328.903 0 1.474.571t.571 1.666V34.5h-1.547v-4.155q0-.61-.324-.89a1.16 1.16 0 0 0-.792-.286q-.56 0-.874.35-.31.345-.311.899V34.5h-1.513v-4.219q0-.507-.307-.81-.302-.302-.792-.302-.333 0-.605.17a1.2 1.2 0 0 0-.435.474 1.5 1.5 0 0 0-.162.707v3.98zm15.138 2.455v-3.486h-.064q-.12.239-.345.507-.227.264-.597.452-.37.187-.933.187a2.5 2.5 0 0 1-1.381-.396q-.609-.397-.963-1.15-.354-.756-.354-1.833 0-1.09.358-1.841.363-.754.976-1.138a2.5 2.5 0 0 1 1.368-.388q.576 0 .946.196.37.192.588.465.217.268.337.507h.094v-1.082h1.517v9zm-1.509-3.606q.49 0 .836-.264.345-.268.524-.745.179-.479.179-1.113t-.179-1.103a1.6 1.6 0 0 0-.52-.73q-.34-.259-.84-.26-.515 0-.86.27a1.6 1.6 0 0 0-.52.74 3.1 3.1 0 0 0-.175 1.083q0 .614.175 1.095.179.478.524.755.35.272.856.272m5.591 1.245a.92.92 0 0 1-.665-.273.88.88 0 0 1-.272-.665.87.87 0 0 1 .272-.656.92.92 0 0 1 .665-.273q.375 0 .652.273a.895.895 0 0 1 .149 1.13 1 1 0 0 1-.341.34.9.9 0 0 1-.46.124m2.53-.094v-6.546h1.475v1.113h.077q.204-.563.677-.878.473-.32 1.129-.32.666 0 1.121.324.46.32.648.874h.068q.217-.546.733-.87.52-.328 1.232-.328.903 0 1.474.571t.571 1.666V34.5h-1.547v-4.155q0-.61-.324-.89a1.16 1.16 0 0 0-.792-.286q-.56 0-.874.35-.31.345-.311.899V34.5h-1.513v-4.219q0-.507-.307-.81-.302-.302-.792-.302-.333 0-.605.17a1.2 1.2 0 0 0-.435.474 1.5 1.5 0 0 0-.162.707v3.98zm15.943-4.815-1.406.153a1.1 1.1 0 0 0-.209-.4 1 1 0 0 0-.392-.303 1.4 1.4 0 0 0-.605-.115q-.481 0-.81.209-.324.21-.319.54a.57.57 0 0 0 .209.465q.216.18.715.294l1.117.239q.929.2 1.381.635.456.435.46 1.138a1.8 1.8 0 0 1-.362 1.09q-.354.469-.985.734-.63.264-1.449.264-1.202 0-1.934-.503a2.02 2.02 0 0 1-.874-1.41l1.504-.145q.103.443.435.669.333.226.865.226.55 0 .882-.226.337-.226.337-.559a.58.58 0 0 0-.217-.464q-.213-.183-.665-.281l-1.117-.235q-.942-.195-1.393-.66-.451-.47-.448-1.185a1.68 1.68 0 0 1 .329-1.048q.336-.448.933-.69.6-.248 1.385-.248 1.15 0 1.811.49.664.49.822 1.326m4.259 7.406q-.83 0-1.427-.226-.596-.222-.959-.596a2.1 2.1 0 0 1-.503-.831l1.389-.337q.094.191.273.38.18.19.482.314.306.129.771.128.657 0 1.087-.32.43-.314.43-1.04v-1.24h-.077q-.119.24-.349.49a1.8 1.8 0 0 1-.601.423q-.37.17-.933.17a2.7 2.7 0 0 1-1.368-.353q-.609-.359-.972-1.066-.357-.711-.358-1.781 0-1.078.358-1.82.363-.745.976-1.129a2.5 2.5 0 0 1 1.368-.388q.576 0 .946.196.375.192.597.465.221.268.336.507h.086v-1.082h1.521v6.651q0 .84-.401 1.39-.4.549-1.095.822-.694.273-1.577.273m.013-3.895q.49 0 .835-.239a1.47 1.47 0 0 0 .525-.686q.179-.447.179-1.074 0-.617-.179-1.082a1.55 1.55 0 0 0-.52-.72q-.341-.26-.84-.26-.514 0-.861.268-.345.27-.519.738-.175.465-.175 1.056 0 .601.175 1.053.179.447.524.699.35.247.856.247m5.591 1.398a.92.92 0 0 1-.665-.273.88.88 0 0 1-.272-.665.87.87 0 0 1 .272-.656.92.92 0 0 1 .665-.273q.375 0 .652.273a.895.895 0 0 1 .149 1.13 1 1 0 0 1-.341.34.9.9 0 0 1-.46.124m4.414.038q-.622 0-1.121-.221a1.83 1.83 0 0 1-.784-.665q-.285-.44-.285-1.083 0-.553.204-.916.205-.361.558-.58.354-.217.797-.328.448-.114.925-.166.575-.06.933-.106.358-.05.52-.154.166-.106.166-.328v-.025q0-.482-.285-.746-.286-.264-.823-.264-.567 0-.899.247-.328.248-.443.584l-1.44-.205q.17-.597.562-.997.392-.405.959-.605a3.7 3.7 0 0 1 1.253-.205q.473 0 .942.111.469.11.856.367.388.25.622.686.239.435.239 1.086V34.5h-1.483v-.9h-.051a1.88 1.88 0 0 1-1.031.892q-.38.14-.891.14m.4-1.133q.465 0 .806-.184.34-.188.524-.494a1.26 1.26 0 0 0 .188-.669v-.771a.7.7 0 0 1-.248.11 4 4 0 0 1-.383.09q-.213.038-.422.068l-.362.051q-.345.048-.618.154-.272.106-.431.298a.73.73 0 0 0-.157.486q0 .426.311.643.31.218.792.218m6.15-7.726V34.5h-1.543v-8.727zm3.129 0V34.5h-1.543v-8.727z"/><rect width="190" height="27" x="265" y="92.5" fill="#edeef3" rx="3.5"/><rect width="190" height="27" x="265" y="92.5" stroke="#c1c3c8" rx="3.5"/><path fill="#17181c" d="M277.204 100.513a.817.817 0 0 0-1.155 0h-.005a.82.82 0 0 0-.237.58c0 .227.091.431.237.577l.005.003a.817.817 0 0 0 1.155 0l.002-.003a.8.8 0 0 0 .238-.577.8.8 0 0 0-.238-.58zm-.58 11.2a.83.83 0 0 0 .58-.238l.002-.004a.8.8 0 0 0 .238-.576.8.8 0 0 0-.238-.58h-.002a.8.8 0 0 0-.58-.24.8.8 0 0 0-.575.24h-.005a.82.82 0 0 0 0 1.156l.005.004a.8.8 0 0 0 .575.238m4.458-2.479a.8.8 0 0 0 .498-.38l.016-.028a.8.8 0 0 0 .064-.593.8.8 0 0 0-.381-.498l-.012-.008a.82.82 0 0 0-.609-.073.821.821 0 0 0-.199 1.501h.001a.83.83 0 0 0 .622.079m-3.618-4.079a1.187 1.187 0 0 0-1.677 0 1.194 1.194 0 0 0 0 1.678 1.186 1.186 0 0 0 1.677-1.678m-.472-1.394a2.25 2.25 0 0 1 1.231.635h.002q.079.08.15.167l.816-.473a1.75 1.75 0 0 1-.026-1.004c.116-.436.399-.826.822-1.071l.014-.008a1.763 1.763 0 0 1 2.397.653v.001a1.764 1.764 0 0 1-.646 2.409l-.111.066h-.012a1.77 1.77 0 0 1-2.072-.413l-.815.471a2.28 2.28 0 0 1 0 1.6l.815.47a1.74 1.74 0 0 1 .856-.525 1.74 1.74 0 0 1 1.339.178l.027.012v.002c.408.246.681.628.796 1.059.116.431.066.914-.177 1.335l-.015.03-.001-.003c-.245.407-.63.682-1.055.798a1.78 1.78 0 0 1-1.34-.176v-.004a1.75 1.75 0 0 1-.822-1.07 1.74 1.74 0 0 1 .026-1.003l-.816-.471a3 3 0 0 1-.15.164l-.002.002a2.24 2.24 0 0 1-1.231.632v.944c.339.07.643.24.881.478l.001.003a1.755 1.755 0 0 1 0 2.49l-.001.005a1.766 1.766 0 0 1-2.495 0h-.001v-.005a1.757 1.757 0 0 1 0-2.49v-.003h.001a1.75 1.75 0 0 1 .881-.478v-.944a2.24 2.24 0 0 1-1.23-.632l-.003-.002a2.26 2.26 0 0 1 0-3.194h.003a2.25 2.25 0 0 1 1.23-.635v-.94a1.8 1.8 0 0 1-.881-.48h-.001v-.002a1.76 1.76 0 0 1 0-2.493l.001-.001a1.763 1.763 0 0 1 2.495 0v.001h.001a1.763 1.763 0 0 1 0 2.493l-.001.002a1.8 1.8 0 0 1-.881.48zm4.588-.627-.006-.01a.825.825 0 0 0-1.115-.29h.001a.82.82 0 0 0-.3 1.119l.004.005a.8.8 0 0 0 .494.374.8.8 0 0 0 .621-.08l.01-.005a.82.82 0 0 0 .371-.492.82.82 0 0 0-.08-.621m13.981.821v1.193h-3.763v-1.193zm-2.834-1.569h1.543v6.145q0 .312.094.478.098.16.255.221.158.06.35.06.144 0 .264-.022.123-.021.187-.038l.26 1.206q-.123.043-.353.094a3 3 0 0 1-.554.059 2.5 2.5 0 0 1-1.044-.174 1.63 1.63 0 0 1-.738-.605q-.268-.41-.264-1.023zm4.333 8.114v-8.727h1.543v3.264h.064q.118-.239.336-.507a1.8 1.8 0 0 1 .588-.465q.371-.196.946-.196.759 0 1.368.388.614.384.972 1.138.362.75.362 1.841 0 1.078-.354 1.832-.353.755-.963 1.151a2.5 2.5 0 0 1-1.38.396q-.563 0-.934-.187a1.9 1.9 0 0 1-.596-.452 3 3 0 0 1-.345-.507h-.09v1.031zm1.513-3.273q0 .636.179 1.112.183.478.524.746.345.264.835.264.512 0 .857-.272.345-.277.52-.755.179-.481.179-1.095a3.1 3.1 0 0 0-.175-1.082 1.63 1.63 0 0 0-.52-.742q-.345-.268-.861-.268-.494 0-.839.26t-.524.729a3.1 3.1 0 0 0-.175 1.103m5.977 3.273v-6.545h1.475v1.112h.077q.204-.563.677-.878.473-.32 1.129-.32.666 0 1.121.324.46.32.648.874h.068q.217-.546.733-.87.52-.328 1.232-.328.903 0 1.474.571t.571 1.667v4.393h-1.547v-4.155q0-.61-.324-.89a1.15 1.15 0 0 0-.792-.286q-.56 0-.874.349-.31.346-.311.9v4.082h-1.513v-4.219q0-.507-.307-.809-.302-.303-.792-.303a1.1 1.1 0 0 0-.605.17 1.2 1.2 0 0 0-.435.473 1.5 1.5 0 0 0-.162.708v3.98zm15.138 2.455v-3.486h-.064q-.12.239-.345.507a1.9 1.9 0 0 1-.597.452q-.37.187-.933.187-.77 0-1.381-.396-.609-.396-.963-1.151-.354-.754-.354-1.832 0-1.09.358-1.841.363-.754.976-1.138a2.5 2.5 0 0 1 1.368-.388q.576 0 .946.196.37.192.588.465.217.269.337.507h.094v-1.082h1.517v9zm-1.509-3.606q.49 0 .836-.264.345-.268.524-.746.179-.477.179-1.112t-.179-1.103a1.57 1.57 0 0 0-.52-.729q-.34-.26-.84-.26-.515 0-.86.268a1.6 1.6 0 0 0-.52.742 3.1 3.1 0 0 0-.175 1.082q0 .614.175 1.095.179.478.524.755.35.273.856.272m5.591 1.245a.92.92 0 0 1-.665-.273.88.88 0 0 1-.272-.665.88.88 0 0 1 .272-.656.92.92 0 0 1 .665-.273q.375 0 .652.273a.896.896 0 0 1 .149 1.129 1 1 0 0 1-.341.341.9.9 0 0 1-.46.124m2.53-.094v-6.545h1.475v1.112h.077q.204-.563.677-.878.473-.32 1.129-.32.666 0 1.121.324.46.32.648.874h.068q.217-.546.733-.87.52-.328 1.232-.328.903 0 1.474.571t.571 1.667v4.393h-1.547v-4.155q0-.61-.324-.89a1.15 1.15 0 0 0-.792-.286q-.56 0-.874.349-.31.346-.311.9v4.082h-1.513v-4.219q0-.507-.307-.809-.302-.303-.792-.303a1.1 1.1 0 0 0-.605.17 1.2 1.2 0 0 0-.435.473 1.5 1.5 0 0 0-.162.708v3.98zm15.943-4.815-1.406.153a1.12 1.12 0 0 0-.601-.703 1.4 1.4 0 0 0-.605-.115q-.481 0-.81.209-.324.208-.319.541a.56.56 0 0 0 .209.464q.216.18.715.294l1.117.239q.929.2 1.381.635.456.435.46 1.138a1.8 1.8 0 0 1-.362 1.091q-.354.468-.985.733-.63.264-1.449.264-1.202 0-1.934-.503-.733-.507-.874-1.411l1.504-.144q.103.443.435.669.333.225.865.225.55 0 .882-.225.337-.226.337-.559a.58.58 0 0 0-.217-.464q-.213-.183-.665-.281l-1.117-.235q-.942-.196-1.393-.66-.451-.47-.448-1.185a1.68 1.68 0 0 1 .329-1.048q.336-.448.933-.691.6-.247 1.385-.247 1.15 0 1.811.49.664.49.822 1.326m4.259 7.406q-.83 0-1.427-.226-.596-.222-.959-.597a2.1 2.1 0 0 1-.503-.83l1.389-.337q.094.192.273.379.18.192.482.315.306.129.771.128.657 0 1.087-.319.43-.316.43-1.04v-1.24h-.077a2.2 2.2 0 0 1-.349.49 1.8 1.8 0 0 1-.601.422q-.37.17-.933.17-.754 0-1.368-.353-.609-.358-.972-1.066-.357-.711-.358-1.781 0-1.078.358-1.82.363-.745.976-1.129a2.5 2.5 0 0 1 1.368-.388q.576 0 .946.196.375.192.597.465.221.269.336.507h.086v-1.082h1.521v6.652q0 .839-.401 1.389-.4.549-1.095.822-.694.273-1.577.273m.013-3.895q.49 0 .835-.239.346-.238.525-.686.179-.447.179-1.074 0-.617-.179-1.082-.175-.465-.52-.72-.341-.26-.84-.26-.514 0-.861.268-.345.269-.519.738a3 3 0 0 0-.175 1.056q0 .601.175 1.053.179.447.524.699.35.247.856.247m5.591 1.398a.92.92 0 0 1-.665-.273.88.88 0 0 1-.272-.665.88.88 0 0 1 .272-.656.92.92 0 0 1 .665-.273q.375 0 .652.273a.896.896 0 0 1 .149 1.129 1 1 0 0 1-.341.341.9.9 0 0 1-.46.124m4.414.038q-.622 0-1.121-.221a1.84 1.84 0 0 1-.784-.665q-.285-.44-.285-1.083 0-.553.204-.916.205-.362.558-.579.354-.218.797-.329.448-.115.925-.166.575-.059.933-.106.358-.05.52-.154.166-.106.166-.328v-.025q0-.482-.285-.746-.286-.264-.823-.264-.567 0-.899.247a1.23 1.23 0 0 0-.443.584l-1.44-.205q.17-.597.562-.997.392-.405.959-.605a3.7 3.7 0 0 1 1.253-.205q.473 0 .942.111.469.11.856.367.388.25.622.686.239.434.239 1.086v4.381h-1.483v-.899h-.051a1.88 1.88 0 0 1-1.031.89q-.38.141-.891.141m.4-1.133q.465 0 .806-.184.34-.187.524-.494.188-.308.188-.669v-.771a.8.8 0 0 1-.248.11 3 3 0 0 1-.383.09q-.213.038-.422.068l-.362.051q-.345.048-.618.154a1.03 1.03 0 0 0-.431.298.73.73 0 0 0-.157.486q0 .426.311.643.31.218.792.218m4.607 3.456v-9h1.517v1.082h.09q.118-.239.336-.507a1.8 1.8 0 0 1 .588-.465q.371-.196.946-.196.759 0 1.368.388.613.384.972 1.138.362.75.362 1.841 0 1.078-.354 1.832-.354.755-.963 1.151a2.5 2.5 0 0 1-1.38.396q-.563 0-.934-.187a1.9 1.9 0 0 1-.596-.452 3 3 0 0 1-.345-.507h-.064v3.486zm1.513-5.728q0 .636.179 1.112.183.478.524.746.345.264.835.264.512 0 .857-.272.345-.277.52-.755.179-.481.179-1.095a3.1 3.1 0 0 0-.175-1.082 1.63 1.63 0 0 0-.52-.742q-.345-.268-.861-.268-.494 0-.839.26t-.525.729q-.174.468-.174 1.103m5.987 5.728v-9h1.517v1.082h.09q.118-.239.336-.507a1.8 1.8 0 0 1 .588-.465q.371-.196.946-.196.759 0 1.368.388.613.384.972 1.138.362.75.362 1.841 0 1.078-.354 1.832-.354.755-.963 1.151a2.5 2.5 0 0 1-1.38.396q-.563 0-.934-.187a1.9 1.9 0 0 1-.596-.452 3 3 0 0 1-.345-.507h-.064v3.486zm1.513-5.728q0 .636.179 1.112.183.478.524.746.345.264.835.264.512 0 .857-.272.345-.277.52-.755.179-.481.179-1.095a3.1 3.1 0 0 0-.175-1.082 1.63 1.63 0 0 0-.52-.742q-.345-.268-.861-.268-.494 0-.839.26t-.525.729q-.174.468-.174 1.103m6.937 3.367a.92.92 0 0 1-.665-.273.88.88 0 0 1-.272-.665.88.88 0 0 1 .272-.656.92.92 0 0 1 .665-.273q.376 0 .652.273a.896.896 0 0 1 .149 1.129 1 1 0 0 1-.34.341.9.9 0 0 1-.461.124m5.326.997v-10.909h.699v10.909zm2.016-7.419a1.17 1.17 0 0 0-.503-.869q-.44-.312-1.142-.312-.495 0-.848.15a1.26 1.26 0 0 0-.542.404 1 1 0 0 0-.191.584q0 .273.123.473.128.2.345.341.218.137.482.23.264.094.533.158l.818.205q.494.114.95.311.46.195.823.494.366.299.579.72.213.422.213.989 0 .766-.392 1.351-.392.579-1.133.907-.738.324-1.786.324-1.018 0-1.768-.315a2.6 2.6 0 0 1-1.168-.921q-.417-.605-.452-1.474h1.556q.033.456.281.758.247.303.643.452.401.15.895.149.516 0 .904-.153.392-.157.613-.435.222-.28.226-.656a.84.84 0 0 0-.2-.563 1.5 1.5 0 0 0-.55-.375 5 5 0 0 0-.818-.272l-.993-.256q-1.078-.277-1.704-.839-.623-.567-.623-1.505 0-.77.418-1.351a2.76 2.76 0 0 1 1.146-.899q.725-.324 1.641-.324.929 0 1.628.324.703.32 1.103.891.401.566.414 1.304zm10.52.545h-1.594a2 2 0 0 0-.251-.694 1.9 1.9 0 0 0-.456-.52 1.9 1.9 0 0 0-.623-.32 2.4 2.4 0 0 0-.745-.111q-.712 0-1.262.358-.55.354-.86 1.04-.312.682-.311 1.666 0 1.002.311 1.688.315.681.86 1.031.55.345 1.257.345.393 0 .733-.102.346-.107.618-.311.277-.204.465-.503a1.9 1.9 0 0 0 .264-.682l1.594.009q-.09.623-.388 1.167a3.4 3.4 0 0 1-.771.963 3.6 3.6 0 0 1-1.117.648 4.2 4.2 0 0 1-1.419.23q-1.15 0-2.054-.532t-1.423-1.539q-.52-1.005-.52-2.412 0-1.41.524-2.412.524-1.005 1.428-1.538t2.045-.533q.73 0 1.355.205.627.204 1.117.601.49.391.805.963.32.567.418 1.295m1.448 5.783v-8.727h1.581v7.402h3.843v1.325zm8.377-8.727v8.727h-1.581v-8.727zm1.712 8.727v-8.727h5.677v1.325h-4.096v2.369h3.802v1.326h-3.802v2.382h4.13v1.325zm14.461-8.727v8.727h-1.406l-4.112-5.945h-.073v5.945h-1.581v-8.727h1.415l4.108 5.949h.077v-5.949zm1.339 1.325v-1.325h6.964v1.325h-2.698v7.402h-1.568v-7.402zm12.395 7.402v1.232h-5.638V110.5zm2.425-8.727v8.727h-1.581v-8.727zm4.67 8.727h-2.958v-8.727h3.017q1.3 0 2.233.524a3.5 3.5 0 0 1 1.441 1.496q.503.976.503 2.335 0 1.363-.507 2.344a3.5 3.5 0 0 1-1.454 1.504q-.945.524-2.275.524m-1.377-1.368h1.3q.912 0 1.521-.332.61-.337.917-1.002.306-.67.306-1.67 0-1.002-.306-1.662a2.1 2.1 0 0 0-.908-.993q-.597-.332-1.483-.332h-1.347z"/><path fill="#c1c3c8" d="M359.47 89.28a.75.75 0 0 0 1.06 0l4.773-4.773a.75.75 0 0 0-1.06-1.06L360 87.689l-4.243-4.242a.75.75 0 1 0-1.06 1.06zm1.28-42.03a.75.75 0 0 0-1.5 0zm-.75 41.5h.75v-41.5h-1.5v41.5zm200.47 108.53a.75.75 0 0 0 1.06 0l4.773-4.773a.749.749 0 1 0-1.06-1.06L561 195.689l-4.243-4.242a.749.749 0 1 0-1.06 1.06zm-26.868-38.03a.75.75 0 1 0 0 1.5zm-141.875 1.5a.75.75 0 0 0 0-1.5zm-30.977-37.5a.75.75 0 0 0-1.5 0zM561 196.75h.75V184h-1.5v12.75zM537 160v-.75h-3.398v1.5H537zm-145.273 0v-.75H384v1.5h7.727zM360 136h.75v-12.75h-1.5V136zm24 24v-.75c-12.841 0-23.25-10.409-23.25-23.25h-1.5c0 13.669 11.081 24.75 24.75 24.75zm177 24h.75c0-13.669-11.081-24.75-24.75-24.75v1.5c12.841 0 23.25 10.409 23.25 23.25z"/><path fill="#353841" d="M401.289 164h-2.825v-8.727h2.915q1.282 0 2.203.524a3.45 3.45 0 0 1 1.41 1.496q.495.97.495 2.331 0 1.363-.499 2.343a3.5 3.5 0 0 1-1.432 1.509q-.937.524-2.267.524m-1.508-1.151h1.436q.997 0 1.657-.375.661-.378.989-1.095.328-.72.328-1.755 0-1.028-.328-1.743a2.3 2.3 0 0 0-.967-1.087q-.644-.37-1.598-.371h-1.517zm9.93 1.283q-.967 0-1.666-.413a2.8 2.8 0 0 1-1.074-1.172q-.375-.759-.375-1.777 0-1.006.375-1.773.38-.766 1.057-1.197.681-.43 1.593-.431.555 0 1.074.184.52.183.933.575t.652 1.018q.24.622.239 1.513v.452h-5.203v-.955h3.955q0-.503-.205-.89a1.54 1.54 0 0 0-.575-.618 1.6 1.6 0 0 0-.861-.226q-.537 0-.938.264a1.8 1.8 0 0 0-.613.682 2 2 0 0 0-.213.908v.745q0 .657.23 1.117.234.46.652.703.417.239.976.239.362 0 .66-.103a1.37 1.37 0 0 0 .848-.831l1.206.218q-.145.532-.52.933-.37.396-.933.618a3.5 3.5 0 0 1-1.274.217m5.364-8.859V164h-1.274v-8.727zm1.582 8.727v-6.545h1.274V164zm.644-7.555a.8.8 0 0 1-.571-.222.72.72 0 0 1-.235-.537.7.7 0 0 1 .235-.537.8.8 0 0 1 .571-.226q.332 0 .566.226a.7.7 0 0 1 .239.537q0 .31-.239.537a.8.8 0 0 1-.566.222m7.812 1.01L422.739 164h-1.363l-2.378-6.545h1.368l1.657 5.036h.068l1.654-5.036zm3.664 6.677q-.968 0-1.667-.413a2.8 2.8 0 0 1-1.073-1.172q-.375-.759-.375-1.777 0-1.006.375-1.773a2.9 2.9 0 0 1 1.056-1.197q.682-.43 1.594-.431.553 0 1.074.184.52.183.933.575t.652 1.018q.239.622.239 1.513v.452h-5.203v-.955h3.954q0-.503-.204-.89a1.54 1.54 0 0 0-.576-.618 1.6 1.6 0 0 0-.86-.226q-.537 0-.938.264a1.77 1.77 0 0 0-.613.682 1.96 1.96 0 0 0-.214.908v.745q0 .657.231 1.117.234.46.652.703.417.239.975.239.363 0 .661-.103a1.4 1.4 0 0 0 .516-.315 1.4 1.4 0 0 0 .332-.516l1.206.218q-.145.532-.52.933-.37.396-.933.618a3.5 3.5 0 0 1-1.274.217m4.09-.132v-6.545h1.231v1.039h.068q.18-.528.631-.831a1.8 1.8 0 0 1 1.031-.306 5 5 0 0 1 .541.029v1.219a2 2 0 0 0-.272-.047 3 3 0 0 0-.392-.03q-.453 0-.806.192-.349.188-.554.524a1.4 1.4 0 0 0-.204.759V164zm7.06.132q-.968 0-1.667-.413a2.8 2.8 0 0 1-1.073-1.172q-.375-.759-.375-1.777 0-1.006.375-1.773a2.9 2.9 0 0 1 1.056-1.197q.682-.43 1.594-.431.553 0 1.074.184.52.183.933.575t.652 1.018q.239.622.239 1.513v.452h-5.203v-.955h3.954q0-.503-.204-.89a1.54 1.54 0 0 0-.576-.618 1.6 1.6 0 0 0-.86-.226q-.537 0-.938.264a1.77 1.77 0 0 0-.613.682 2 2 0 0 0-.214.908v.745q0 .657.231 1.117.234.46.652.703.417.239.975.239.363 0 .661-.103a1.4 1.4 0 0 0 .516-.315 1.4 1.4 0 0 0 .332-.516l1.206.218q-.145.532-.52.933-.37.396-.933.618a3.5 3.5 0 0 1-1.274.217m6.54-.004q-.793 0-1.415-.405-.618-.41-.971-1.163-.35-.76-.35-1.82t.354-1.815q.357-.755.98-1.155a2.55 2.55 0 0 1 1.41-.401q.61 0 .981.205.375.2.579.469.209.268.324.473h.077v-3.243h1.274V164h-1.245v-1.018h-.106a3.5 3.5 0 0 1-.332.477 1.9 1.9 0 0 1-.589.469q-.375.2-.971.2m.281-1.087q.55 0 .929-.29.384-.294.58-.813.2-.52.2-1.211 0-.681-.196-1.193a1.76 1.76 0 0 0-.575-.797q-.38-.285-.938-.285-.575 0-.959.298-.383.298-.579.814a3.3 3.3 0 0 0-.192 1.163q0 .656.196 1.181.196.523.58.831.387.302.954.302m10.449 1.091q-.92 0-1.606-.422a2.84 2.84 0 0 1-1.066-1.18q-.379-.759-.379-1.773 0-1.019.379-1.781a2.83 2.83 0 0 1 1.066-1.185q.686-.422 1.606-.422t1.607.422q.686.421 1.065 1.185.38.762.379 1.781 0 1.014-.379 1.773a2.84 2.84 0 0 1-1.065 1.18q-.687.422-1.607.422m.004-1.07q.597 0 .989-.315t.58-.839a3.3 3.3 0 0 0 .191-1.155q0-.626-.191-1.151a1.9 1.9 0 0 0-.58-.848q-.392-.32-.989-.319-.6 0-.997.319a1.9 1.9 0 0 0-.583.848q-.188.524-.188 1.151 0 .63.188 1.155.191.524.583.839.397.315.997.315m5.612-2.948V164h-1.274v-6.545h1.223v1.065h.081q.225-.52.707-.835.486-.316 1.223-.316.67 0 1.172.282.503.276.78.826t.277 1.36V164h-1.274v-4.01q0-.711-.371-1.112-.37-.405-1.019-.405-.443 0-.788.192a1.4 1.4 0 0 0-.541.562q-.196.367-.196.887m8.809 3.886v-6.545h1.232v1.039h.068a1.58 1.58 0 0 1 .631-.831 1.8 1.8 0 0 1 1.031-.306 5 5 0 0 1 .541.029v1.219a2 2 0 0 0-.273-.047q-.195-.03-.392-.03a1.66 1.66 0 0 0-.805.192 1.43 1.43 0 0 0-.759 1.283V164zm7.06.132q-.967 0-1.666-.413a2.8 2.8 0 0 1-1.074-1.172q-.375-.759-.375-1.777 0-1.006.375-1.773.38-.766 1.057-1.197.682-.43 1.594-.431.554 0 1.074.184.519.183.933.575t.652 1.018q.239.622.239 1.513v.452h-5.204v-.955h3.955a1.9 1.9 0 0 0-.205-.89 1.54 1.54 0 0 0-.575-.618 1.6 1.6 0 0 0-.861-.226q-.537 0-.937.264a1.8 1.8 0 0 0-.614.682 2 2 0 0 0-.213.908v.745q0 .657.23 1.117.235.46.652.703.418.239.976.239.363 0 .661-.103.298-.107.515-.315a1.4 1.4 0 0 0 .333-.516l1.206.218q-.145.532-.52.933-.37.396-.933.618a3.5 3.5 0 0 1-1.275.217m6.847 0q-.95 0-1.636-.43a2.84 2.84 0 0 1-1.048-1.198q-.367-.763-.367-1.747 0-.997.375-1.76.375-.766 1.057-1.197.682-.43 1.607-.431.745 0 1.329.277.583.273.942.767.362.495.43 1.155h-1.24a1.5 1.5 0 0 0-.468-.792q-.363-.333-.972-.333-.533 0-.933.281-.397.277-.618.793-.222.511-.222 1.21 0 .716.218 1.236.217.52.613.805.4.286.942.286.362 0 .656-.132.298-.136.499-.388.204-.251.285-.605h1.24a2.4 2.4 0 0 1-.413 1.133q-.345.499-.925.785-.575.285-1.351.285m6.677 0q-.92 0-1.607-.422a2.84 2.84 0 0 1-1.065-1.18q-.38-.759-.379-1.773 0-1.019.379-1.781a2.84 2.84 0 0 1 1.065-1.185q.686-.422 1.607-.422t1.607.422q.686.421 1.065 1.185.38.762.379 1.781 0 1.014-.379 1.773a2.84 2.84 0 0 1-1.065 1.18q-.687.422-1.607.422m.004-1.07q.597 0 .989-.315t.579-.839a3.3 3.3 0 0 0 .192-1.155q0-.626-.192-1.151a1.9 1.9 0 0 0-.579-.848q-.392-.32-.989-.319-.6 0-.997.319a1.9 1.9 0 0 0-.584.848q-.187.524-.187 1.151 0 .63.187 1.155.192.524.584.839.397.315.997.315m5.612-2.948V164h-1.275v-6.545h1.223v1.065h.081q.226-.52.708-.835.486-.316 1.223-.316.669 0 1.172.282.503.276.779.826.277.55.277 1.36V164h-1.274v-4.01q0-.711-.37-1.112-.371-.405-1.019-.405-.443 0-.788.192a1.37 1.37 0 0 0-.541.562q-.196.367-.196.887m7.039 0V164h-1.274v-6.545h1.223v1.065h.081q.227-.52.708-.835.485-.316 1.223-.316.669 0 1.171.282.504.276.78.826.277.55.277 1.36V164h-1.274v-4.01q0-.711-.371-1.112-.37-.405-1.018-.405-.443 0-.788.192a1.4 1.4 0 0 0-.542.562q-.196.367-.196.887m8.587 4.018q-.967 0-1.666-.413a2.8 2.8 0 0 1-1.074-1.172q-.375-.759-.375-1.777 0-1.006.375-1.773.38-.766 1.057-1.197.681-.43 1.594-.431.554 0 1.074.184.519.183.933.575.413.392.652 1.018.238.622.238 1.513v.452h-5.203v-.955h3.955a1.9 1.9 0 0 0-.205-.89 1.54 1.54 0 0 0-.575-.618 1.6 1.6 0 0 0-.861-.226q-.537 0-.937.264a1.77 1.77 0 0 0-.614.682 2 2 0 0 0-.213.908v.745q0 .657.23 1.117.234.46.652.703.418.239.976.239.362 0 .66-.103a1.36 1.36 0 0 0 .848-.831l1.206.218a2.2 2.2 0 0 1-.519.933q-.372.396-.934.618a3.5 3.5 0 0 1-1.274.217m6.847 0q-.95 0-1.636-.43a2.84 2.84 0 0 1-1.048-1.198q-.367-.763-.367-1.747 0-.997.375-1.76.375-.766 1.057-1.197.681-.43 1.606-.431.747 0 1.33.277.583.273.942.767.362.495.43 1.155h-1.24a1.48 1.48 0 0 0-.469-.792q-.362-.333-.971-.333a1.6 1.6 0 0 0-.934.281q-.396.277-.617.793-.222.511-.222 1.21 0 .716.217 1.236.218.52.614.805.4.286.942.286.362 0 .656-.132.298-.136.499-.388.204-.251.285-.605h1.24a2.4 2.4 0 0 1-.413 1.133q-.346.499-.925.785-.575.285-1.351.285m6.975-6.677v1.022h-3.575v-1.022zm-2.616-1.569h1.274v6.192q0 .37.111.558a.57.57 0 0 0 .285.252q.179.064.388.064.154 0 .268-.022l.179-.034.23 1.053a2.5 2.5 0 0 1-.826.136 2.2 2.2 0 0 1-.938-.179 1.6 1.6 0 0 1-.703-.579q-.268-.393-.268-.985z"/><path fill="#c1c3c8" d="M158.47 197.28a.75.75 0 0 0 1.06 0l4.773-4.773a.749.749 0 1 0-1.06-1.06L159 195.689l-4.243-4.242a.749.749 0 1 0-1.06 1.06zm30.928-36.53a.75.75 0 1 0 0-1.5zm135.875-1.5a.75.75 0 0 0 0 1.5zm35.477-36a.75.75 0 0 0-1.5 0zM159 196.75h.75V184h-1.5v12.75zM183 160v.75h6.398v-1.5H183zm142.273 0v.75H336v-1.5h-10.727zM360 136h.75v-12.75h-1.5V136zm-24 24v.75c13.669 0 24.75-11.081 24.75-24.75h-1.5c0 12.841-10.409 23.25-23.25 23.25zm-177 24h.75c0-12.841 10.409-23.25 23.25-23.25v-1.5c-13.669 0-24.75 11.081-24.75 24.75z"/><path fill="#353841" d="M198.842 164h-2.825v-8.727h2.915q1.282 0 2.203.524a3.44 3.44 0 0 1 1.41 1.496q.495.97.495 2.331 0 1.363-.499 2.343a3.5 3.5 0 0 1-1.432 1.509q-.937.524-2.267.524m-1.508-1.151h1.436q.997 0 1.658-.375.66-.378.988-1.095.328-.72.328-1.755 0-1.028-.328-1.743a2.3 2.3 0 0 0-.967-1.087q-.644-.37-1.598-.371h-1.517zm9.93 1.283q-.967 0-1.666-.413a2.8 2.8 0 0 1-1.074-1.172q-.375-.759-.375-1.777 0-1.006.375-1.773.38-.766 1.057-1.197.681-.43 1.594-.431.554 0 1.073.184.52.183.934.575.413.392.652 1.018.238.622.238 1.513v.452h-5.203v-.955h3.955q0-.503-.205-.89a1.54 1.54 0 0 0-.575-.618 1.6 1.6 0 0 0-.861-.226q-.537 0-.937.264a1.77 1.77 0 0 0-.614.682 2 2 0 0 0-.213.908v.745q0 .657.23 1.117.234.46.652.703.418.239.976.239.361 0 .66-.103a1.36 1.36 0 0 0 .848-.831l1.206.218q-.144.532-.52.933-.37.396-.933.618a3.5 3.5 0 0 1-1.274.217m5.364-8.859V164h-1.274v-8.727zM214.21 164v-6.545h1.274V164zm.644-7.555a.8.8 0 0 1-.571-.222.72.72 0 0 1-.235-.537.7.7 0 0 1 .235-.537.8.8 0 0 1 .571-.226q.332 0 .566.226.24.222.239.537a.71.71 0 0 1-.239.537.8.8 0 0 1-.566.222m7.812 1.01L220.292 164h-1.363l-2.378-6.545h1.368l1.657 5.036h.069l1.653-5.036zm3.664 6.677q-.968 0-1.666-.413a2.8 2.8 0 0 1-1.074-1.172q-.375-.759-.375-1.777 0-1.006.375-1.773.38-.766 1.057-1.197.681-.43 1.593-.431.555 0 1.074.184.52.183.933.575t.652 1.018q.239.622.239 1.513v.452h-5.203v-.955h3.954q0-.503-.204-.89a1.54 1.54 0 0 0-.575-.618 1.6 1.6 0 0 0-.861-.226q-.537 0-.938.264a1.8 1.8 0 0 0-.613.682 2 2 0 0 0-.213.908v.745q0 .657.23 1.117.234.46.652.703.417.239.976.239.362 0 .66-.103a1.37 1.37 0 0 0 .848-.831l1.206.218q-.145.532-.52.933-.37.396-.933.618a3.5 3.5 0 0 1-1.274.217m4.09-.132v-6.545h1.231v1.039h.068q.18-.528.631-.831a1.8 1.8 0 0 1 1.031-.306 5 5 0 0 1 .542.029v1.219a2 2 0 0 0-.273-.047 3 3 0 0 0-.392-.03q-.452 0-.806.192-.349.188-.554.524a1.4 1.4 0 0 0-.204.759V164zm7.06.132q-.967 0-1.666-.413a2.8 2.8 0 0 1-1.074-1.172q-.375-.759-.375-1.777 0-1.006.375-1.773.38-.766 1.057-1.197.681-.43 1.593-.431.555 0 1.074.184.52.183.933.575t.652 1.018q.24.622.239 1.513v.452h-5.203v-.955h3.954q0-.503-.204-.89a1.54 1.54 0 0 0-.575-.618 1.6 1.6 0 0 0-.861-.226q-.537 0-.938.264a1.8 1.8 0 0 0-.613.682 2 2 0 0 0-.213.908v.745q0 .657.23 1.117.234.46.652.703.417.239.976.239.362 0 .66-.103a1.37 1.37 0 0 0 .848-.831l1.206.218q-.145.532-.52.933-.37.396-.933.618a3.5 3.5 0 0 1-1.274.217m6.54-.004q-.792 0-1.415-.405-.618-.41-.971-1.163-.35-.76-.35-1.82t.354-1.815q.358-.755.98-1.155a2.55 2.55 0 0 1 1.411-.401q.61 0 .98.205.375.2.579.469.209.268.324.473h.077v-3.243h1.274V164h-1.244v-1.018h-.107a3.4 3.4 0 0 1-.332.477 1.9 1.9 0 0 1-.588.469q-.375.2-.972.2m.281-1.087q.55 0 .929-.29.384-.294.58-.813.2-.52.2-1.211 0-.681-.196-1.193a1.76 1.76 0 0 0-.575-.797q-.38-.285-.938-.285-.575 0-.959.298a1.83 1.83 0 0 0-.579.814 3.3 3.3 0 0 0-.192 1.163q0 .656.196 1.181.196.523.58.831.387.302.954.302m7.692.959v-6.545h1.274V164zm.644-7.555a.8.8 0 0 1-.571-.222.72.72 0 0 1-.235-.537.7.7 0 0 1 .235-.537.8.8 0 0 1 .571-.226q.332 0 .566.226.24.222.239.537a.71.71 0 0 1-.239.537.8.8 0 0 1-.566.222M254.85 164v-6.545h1.223v1.065h.081q.204-.541.669-.844.464-.307 1.112-.307.656 0 1.099.307.447.307.661.844h.068q.234-.525.746-.835.511-.316 1.218-.316.891 0 1.454.559.566.558.566 1.683V164h-1.274v-4.27q0-.665-.362-.963a1.32 1.32 0 0 0-.865-.298q-.622 0-.967.383-.346.38-.346.976V164h-1.27v-4.351q0-.532-.332-.856-.333-.324-.865-.324a1.24 1.24 0 0 0-.669.192 1.4 1.4 0 0 0-.49.524 1.6 1.6 0 0 0-.183.779V164zm10.473 0v-6.545h1.223v1.065h.081q.204-.541.669-.844.464-.307 1.112-.307.656 0 1.1.307.447.307.66.844h.068q.235-.525.746-.835.511-.316 1.219-.316.89 0 1.453.559.567.558.567 1.683V164h-1.274v-4.27q0-.665-.363-.963a1.3 1.3 0 0 0-.865-.298q-.622 0-.967.383-.345.38-.345.976V164h-1.27v-4.351q0-.532-.332-.856-.333-.324-.866-.324a1.24 1.24 0 0 0-.669.192 1.4 1.4 0 0 0-.49.524 1.6 1.6 0 0 0-.183.779V164zm13.294.132q-.966 0-1.666-.413a2.8 2.8 0 0 1-1.074-1.172q-.375-.759-.375-1.777 0-1.006.375-1.773a2.9 2.9 0 0 1 1.057-1.197q.682-.43 1.594-.431.553 0 1.074.184.52.183.933.575t.652 1.018q.239.622.239 1.513v.452h-5.203v-.955h3.954q0-.503-.204-.89a1.55 1.55 0 0 0-.576-.618 1.6 1.6 0 0 0-.86-.226q-.537 0-.938.264a1.8 1.8 0 0 0-.614.682 2 2 0 0 0-.213.908v.745q0 .657.23 1.117.235.46.652.703.418.239.976.239.363 0 .661-.103.299-.107.515-.315a1.4 1.4 0 0 0 .333-.516l1.206.218q-.145.532-.52.933-.37.396-.933.618a3.5 3.5 0 0 1-1.275.217m6.541-.004q-.793 0-1.415-.405-.618-.41-.972-1.163-.35-.76-.349-1.82 0-1.06.354-1.815.357-.755.98-1.155a2.55 2.55 0 0 1 1.41-.401q.61 0 .98.205.376.2.58.469.209.268.324.473h.076v-3.243h1.275V164h-1.245v-1.018h-.106a3.4 3.4 0 0 1-.333.477 1.9 1.9 0 0 1-.588.469q-.375.2-.971.2m.281-1.087q.55 0 .929-.29.384-.294.579-.813.201-.52.201-1.211a3.3 3.3 0 0 0-.196-1.193 1.76 1.76 0 0 0-.576-.797q-.379-.285-.937-.285-.576 0-.959.298-.384.298-.579.814a3.3 3.3 0 0 0-.192 1.163q0 .656.196 1.181.197.523.579.831.388.302.955.302m4.648.959v-6.545h1.274V164zm.644-7.555a.8.8 0 0 1-.571-.222.72.72 0 0 1-.235-.537.7.7 0 0 1 .235-.537.8.8 0 0 1 .571-.226q.332 0 .566.226a.7.7 0 0 1 .239.537q0 .31-.239.537a.8.8 0 0 1-.566.222m4.117 7.7q-.623 0-1.125-.23a1.9 1.9 0 0 1-.797-.678q-.29-.442-.289-1.086 0-.555.213-.912.213-.359.575-.567.362-.209.81-.315.447-.107.912-.162l.954-.111q.366-.047.533-.149.166-.103.166-.333v-.03q0-.558-.315-.865-.312-.306-.929-.306-.643 0-1.015.285-.366.281-.507.626l-1.197-.272q.213-.597.622-.963a2.5 2.5 0 0 1 .95-.537 3.7 3.7 0 0 1 1.13-.171q.392 0 .831.094.443.09.826.332.388.243.635.695.247.447.247 1.163V164h-1.244v-.895h-.051a1.8 1.8 0 0 1-.371.486 2 2 0 0 1-.635.396 2.5 2.5 0 0 1-.929.158m.277-1.023q.53 0 .904-.209.379-.209.575-.545.2-.34.2-.729v-.844q-.067.07-.264.128-.192.056-.439.098l-.481.073-.392.051a3 3 0 0 0-.678.158q-.303.11-.486.319-.179.205-.179.546 0 .473.35.716.349.238.89.238m7.574-5.667v1.022h-3.575v-1.022zm-2.617-1.569h1.275v6.192q0 .37.11.558a.58.58 0 0 0 .286.252q.178.064.388.064.153 0 .268-.022l.179-.034.23 1.053a2.5 2.5 0 0 1-.827.136 2.2 2.2 0 0 1-.937-.179 1.6 1.6 0 0 1-.703-.579q-.269-.393-.269-.985zm6.645 8.246q-.967 0-1.666-.413a2.8 2.8 0 0 1-1.074-1.172q-.375-.759-.375-1.777 0-1.006.375-1.773.38-.766 1.057-1.197.682-.43 1.594-.431.554 0 1.073.184.52.183.934.575.413.392.652 1.018.238.622.238 1.513v.452h-5.203v-.955h3.955a1.9 1.9 0 0 0-.205-.89 1.54 1.54 0 0 0-.575-.618 1.6 1.6 0 0 0-.861-.226q-.537 0-.937.264a1.77 1.77 0 0 0-.614.682 2 2 0 0 0-.213.908v.745q0 .657.23 1.117.234.46.652.703.418.239.976.239.361 0 .66-.103a1.36 1.36 0 0 0 .848-.831l1.206.218q-.144.532-.52.933-.37.396-.933.618a3.5 3.5 0 0 1-1.274.217m5.364-8.859V164h-1.274v-8.727zm2.388 11.182a2.7 2.7 0 0 1-.87-.141l.307-1.044q.35.093.622.081a.75.75 0 0 0 .482-.205q.213-.191.375-.626l.158-.435-2.395-6.63h1.363l1.658 5.079h.068l1.658-5.079h1.368l-2.698 7.419q-.187.51-.477.865a1.9 1.9 0 0 1-.69.537 2.3 2.3 0 0 1-.929.179"/></g><defs><clipPath id="a"><path fill="#fff" d="M0 0h720v272H0z"/></clipPath><clipPath id="b"><path fill="#fff" d="M0 0h720v314H0z"/></clipPath></defs></svg>