<svg xmlns="http://www.w3.org/2000/svg" width="720" height="169" fill="none"><g clip-path="url(#a)"><path fill="#17181c" d="M0 0h720v169H0z"/><g fill="#353841" clip-path="url(#b)" opacity=".5"><path d="M-11 316a1 1 0 1 1 0 2 1 1 0 0 1 0-2M3 316a1 1 0 1 1 0 2 1 1 0 0 1 0-2M17 316a1 1 0 1 1 0 2 1 1 0 0 1 0-2M31 316a1 1 0 1 1 0 2 1 1 0 0 1 0-2M45 316a1 1 0 1 1 0 2 1 1 0 0 1 0-2M59 316a1 1 0 1 1 0 2 1 1 0 0 1 0-2M73 316a1 1 0 1 1 0 2 1 1 0 0 1 0-2M87 316a1 1 0 1 1 0 2 1 1 0 0 1 0-2M101 316a1 1 0 1 1 0 2 1 1 0 0 1 0-2M115 316a1 1 0 1 1 0 2 1 1 0 0 1 0-2M129 316a1 1 0 1 1 0 2 1 1 0 0 1 0-2M143 316a1 1 0 1 1 0 2 1 1 0 0 1 0-2M157 316a1 1 0 1 1 0 2 1 1 0 0 1 0-2M171 316a1 1 0 1 1 0 2 1 1 0 0 1 0-2M185 316a1 1 0 1 1 0 2 1 1 0 0 1 0-2M199 316a1 1 0 1 1 0 2 1 1 0 0 1 0-2M213 316a1 1 0 1 1 0 2 1 1 0 0 1 0-2M227 316a1 1 0 1 1 0 2 1 1 0 0 1 0-2M241 316a1 1 0 1 1 0 2 1 1 0 0 1 0-2M255 316a1 1 0 1 1 0 2 1 1 0 0 1 0-2M269 316a1 1 0 1 1 0 2 1 1 0 0 1 0-2M283 316a1 1 0 1 1 0 2 1 1 0 0 1 0-2M297 316a1 1 0 1 1 0 2 1 1 0 0 1 0-2M311 316a1 1 0 1 1 0 2 1 1 0 0 1 0-2M325 316a1 1 0 1 1 0 2 1 1 0 0 1 0-2M339 316a1 1 0 1 1 0 2 1 1 0 0 1 0-2M353 316a1 1 0 1 1 0 2 1 1 0 0 1 0-2M367 316a1 1 0 1 1 0 2 1 1 0 0 1 0-2M381 316a1 1 0 1 1 0 2 1 1 0 0 1 0-2M395 316a1 1 0 1 1 0 2 1 1 0 0 1 0-2M409 316a1 1 0 1 1 0 2 1 1 0 0 1 0-2M423 316a1 1 0 1 1 0 2 1 1 0 0 1 0-2M437 316a1 1 0 1 1 0 2 1 1 0 0 1 0-2M451 316a1 1 0 1 1 0 2 1 1 0 0 1 0-2M465 316a1 1 0 1 1 0 2 1 1 0 0 1 0-2M479 316a1 1 0 1 1 0 2 1 1 0 0 1 0-2M493 316a1 1 0 1 1 0 2 1 1 0 0 1 0-2M507 316a1 1 0 1 1 0 2 1 1 0 0 1 0-2M521 316a1 1 0 1 1 0 2 1 1 0 0 1 0-2M535 316a1 1 0 1 1 0 2 1 1 0 0 1 0-2M549 316a1 1 0 1 1 0 2 1 1 0 0 1 0-2M563 316a1 1 0 1 1 0 2 1 1 0 0 1 0-2M577 316a1 1 0 1 1 0 2 1 1 0 0 1 0-2M591 316a1 1 0 1 1 0 2 1 1 0 0 1 0-2M605 316a1 1 0 1 1 0 2 1 1 0 0 1 0-2M619 316a1 1 0 1 1 0 2 1 1 0 0 1 0-2M633 316a1 1 0 1 1 0 2 1 1 0 0 1 0-2M647 316a1 1 0 1 1 0 2 1 1 0 0 1 0-2M661 316a1 1 0 1 1 0 2 1 1 0 0 1 0-2M675 316a1 1 0 1 1 0 2 1 1 0 0 1 0-2M689 316a1 1 0 1 1 0 2 1 1 0 0 1 0-2M703 316a1 1 0 1 1 0 2 1 1 0 0 1 0-2M-11 302a1 1 0 1 1 0 2 1 1 0 0 1 0-2M3 302a1 1 0 1 1 0 2 1 1 0 0 1 0-2M17 302a1 1 0 1 1 0 2 1 1 0 0 1 0-2M31 302a1 1 0 1 1 0 2 1 1 0 0 1 0-2M45 302a1 1 0 1 1 0 2 1 1 0 0 1 0-2M59 302a1 1 0 1 1 0 2 1 1 0 0 1 0-2M73 302a1 1 0 1 1 0 2 1 1 0 0 1 0-2M87 302a1 1 0 1 1 0 2 1 1 0 0 1 0-2M101 302a1 1 0 1 1 0 2 1 1 0 0 1 0-2M115 302a1 1 0 1 1 0 2 1 1 0 0 1 0-2M129 302a1 1 0 1 1 0 2 1 1 0 0 1 0-2M143 302a1 1 0 1 1 0 2 1 1 0 0 1 0-2M157 302a1 1 0 1 1 0 2 1 1 0 0 1 0-2M171 302a1 1 0 1 1 0 2 1 1 0 0 1 0-2M185 302a1 1 0 1 1 0 2 1 1 0 0 1 0-2M199 302a1 1 0 1 1 0 2 1 1 0 0 1 0-2M213 302a1 1 0 1 1 0 2 1 1 0 0 1 0-2M227 302a1 1 0 1 1 0 2 1 1 0 0 1 0-2M241 302a1 1 0 1 1 0 2 1 1 0 0 1 0-2M255 302a1 1 0 1 1 0 2 1 1 0 0 1 0-2M269 302a1 1 0 1 1 0 2 1 1 0 0 1 0-2M283 302a1 1 0 1 1 0 2 1 1 0 0 1 0-2M297 302a1 1 0 1 1 0 2 1 1 0 0 1 0-2M311 302a1 1 0 1 1 0 2 1 1 0 0 1 0-2M325 302a1 1 0 1 1 0 2 1 1 0 0 1 0-2M339 302a1 1 0 1 1 0 2 1 1 0 0 1 0-2M353 302a1 1 0 1 1 0 2 1 1 0 0 1 0-2M367 302a1 1 0 1 1 0 2 1 1 0 0 1 0-2M381 302a1 1 0 1 1 0 2 1 1 0 0 1 0-2M395 302a1 1 0 1 1 0 2 1 1 0 0 1 0-2M409 302a1 1 0 1 1 0 2 1 1 0 0 1 0-2M423 302a1 1 0 1 1 0 2 1 1 0 0 1 0-2M437 302a1 1 0 1 1 0 2 1 1 0 0 1 0-2M451 302a1 1 0 1 1 0 2 1 1 0 0 1 0-2M465 302a1 1 0 1 1 0 2 1 1 0 0 1 0-2M479 302a1 1 0 1 1 0 2 1 1 0 0 1 0-2M493 302a1 1 0 1 1 0 2 1 1 0 0 1 0-2M507 302a1 1 0 1 1 0 2 1 1 0 0 1 0-2M521 302a1 1 0 1 1 0 2 1 1 0 0 1 0-2M535 302a1 1 0 1 1 0 2 1 1 0 0 1 0-2M549 302a1 1 0 1 1 0 2 1 1 0 0 1 0-2M563 302a1 1 0 1 1 0 2 1 1 0 0 1 0-2M577 302a1 1 0 1 1 0 2 1 1 0 0 1 0-2M591 302a1 1 0 1 1 0 2 1 1 0 0 1 0-2M605 302a1 1 0 1 1 0 2 1 1 0 0 1 0-2M619 302a1 1 0 1 1 0 2 1 1 0 0 1 0-2M633 302a1 1 0 1 1 0 2 1 1 0 0 1 0-2M647 302a1 1 0 1 1 0 2 1 1 0 0 1 0-2M661 302a1 1 0 1 1 0 2 1 1 0 0 1 0-2M675 302a1 1 0 1 1 0 2 1 1 0 0 1 0-2M689 302a1 1 0 1 1 0 2 1 1 0 0 1 0-2M703 302a1 1 0 1 1 0 2 1 1 0 0 1 0-2M717 302a1 1 0 1 1 0 2 1 1 0 0 1 0-2M-11 288a1 1 0 1 1 0 2 1 1 0 0 1 0-2M3 288a1 1 0 1 1 0 2 1 1 0 0 1 0-2M17 288a1 1 0 1 1 0 2 1 1 0 0 1 0-2M31 288a1 1 0 1 1 0 2 1 1 0 0 1 0-2M45 288a1 1 0 1 1 0 2 1 1 0 0 1 0-2M59 288a1 1 0 1 1 0 2 1 1 0 0 1 0-2M73 288a1 1 0 1 1 0 2 1 1 0 0 1 0-2M87 288a1 1 0 1 1 0 2 1 1 0 0 1 0-2M101 288a1 1 0 1 1 0 2 1 1 0 0 1 0-2M115 288a1 1 0 1 1 0 2 1 1 0 0 1 0-2M129 288a1 1 0 1 1 0 2 1 1 0 0 1 0-2M143 288a1 1 0 1 1 0 2 1 1 0 0 1 0-2M157 288a1 1 0 1 1 0 2 1 1 0 0 1 0-2M171 288a1 1 0 1 1 0 2 1 1 0 0 1 0-2M185 288a1 1 0 1 1 0 2 1 1 0 0 1 0-2M199 288a1 1 0 1 1 0 2 1 1 0 0 1 0-2M213 288a1 1 0 1 1 0 2 1 1 0 0 1 0-2M227 288a1 1 0 1 1 0 2 1 1 0 0 1 0-2M241 288a1 1 0 1 1 0 2 1 1 0 0 1 0-2M255 288a1 1 0 1 1 0 2 1 1 0 0 1 0-2M269 288a1 1 0 1 1 0 2 1 1 0 0 1 0-2M283 288a1 1 0 1 1 0 2 1 1 0 0 1 0-2M297 288a1 1 0 1 1 0 2 1 1 0 0 1 0-2M311 288a1 1 0 1 1 0 2 1 1 0 0 1 0-2M325 288a1 1 0 1 1 0 2 1 1 0 0 1 0-2M339 288a1 1 0 1 1 0 2 1 1 0 0 1 0-2M353 288a1 1 0 1 1 0 2 1 1 0 0 1 0-2M367 288a1 1 0 1 1 0 2 1 1 0 0 1 0-2M381 288a1 1 0 1 1 0 2 1 1 0 0 1 0-2M395 288a1 1 0 1 1 0 2 1 1 0 0 1 0-2M409 288a1 1 0 1 1 0 2 1 1 0 0 1 0-2M423 288a1 1 0 1 1 0 2 1 1 0 0 1 0-2M437 288a1 1 0 1 1 0 2 1 1 0 0 1 0-2M451 288a1 1 0 1 1 0 2 1 1 0 0 1 0-2M465 288a1 1 0 1 1 0 2 1 1 0 0 1 0-2M479 288a1 1 0 1 1 0 2 1 1 0 0 1 0-2M493 288a1 1 0 1 1 0 2 1 1 0 0 1 0-2M507 288a1 1 0 1 1 0 2 1 1 0 0 1 0-2M521 288a1 1 0 1 1 0 2 1 1 0 0 1 0-2M535 288a1 1 0 1 1 0 2 1 1 0 0 1 0-2M549 288a1 1 0 1 1 0 2 1 1 0 0 1 0-2M563 288a1 1 0 1 1 0 2 1 1 0 0 1 0-2M577 288a1 1 0 1 1 0 2 1 1 0 0 1 0-2M591 288a1 1 0 1 1 0 2 1 1 0 0 1 0-2M605 288a1 1 0 1 1 0 2 1 1 0 0 1 0-2M619 288a1 1 0 1 1 0 2 1 1 0 0 1 0-2M633 288a1 1 0 1 1 0 2 1 1 0 0 1 0-2M647 288a1 1 0 1 1 0 2 1 1 0 0 1 0-2M661 288a1 1 0 1 1 0 2 1 1 0 0 1 0-2M675 288a1 1 0 1 1 0 2 1 1 0 0 1 0-2M689 288a1 1 0 1 1 0 2 1 1 0 0 1 0-2M703 288a1 1 0 1 1 0 2 1 1 0 0 1 0-2M717 288a1 1 0 1 1 0 2 1 1 0 0 1 0-2M-11 274a1 1 0 1 1 0 2 1 1 0 0 1 0-2M3 274a1 1 0 1 1 0 2 1 1 0 0 1 0-2M17 274a1 1 0 1 1 0 2 1 1 0 0 1 0-2M31 274a1 1 0 1 1 0 2 1 1 0 0 1 0-2M45 274a1 1 0 1 1 0 2 1 1 0 0 1 0-2M59 274a1 1 0 1 1 0 2 1 1 0 0 1 0-2M73 274a1 1 0 1 1 0 2 1 1 0 0 1 0-2M87 274a1 1 0 1 1 0 2 1 1 0 0 1 0-2M101 274a1 1 0 1 1 0 2 1 1 0 0 1 0-2M115 274a1 1 0 1 1 0 2 1 1 0 0 1 0-2M129 274a1 1 0 1 1 0 2 1 1 0 0 1 0-2M143 274a1 1 0 1 1 0 2 1 1 0 0 1 0-2M157 274a1 1 0 1 1 0 2 1 1 0 0 1 0-2M171 274a1 1 0 1 1 0 2 1 1 0 0 1 0-2M185 274a1 1 0 1 1 0 2 1 1 0 0 1 0-2M199 274a1 1 0 1 1 0 2 1 1 0 0 1 0-2M213 274a1 1 0 1 1 0 2 1 1 0 0 1 0-2M227 274a1 1 0 1 1 0 2 1 1 0 0 1 0-2M241 274a1 1 0 1 1 0 2 1 1 0 0 1 0-2M255 274a1 1 0 1 1 0 2 1 1 0 0 1 0-2M269 274a1 1 0 1 1 0 2 1 1 0 0 1 0-2M283 274a1 1 0 1 1 0 2 1 1 0 0 1 0-2M297 274a1 1 0 1 1 0 2 1 1 0 0 1 0-2M311 274a1 1 0 1 1 0 2 1 1 0 0 1 0-2M325 274a1 1 0 1 1 0 2 1 1 0 0 1 0-2M339 274a1 1 0 1 1 0 2 1 1 0 0 1 0-2M353 274a1 1 0 1 1 0 2 1 1 0 0 1 0-2M367 274a1 1 0 1 1 0 2 1 1 0 0 1 0-2M381 274a1 1 0 1 1 0 2 1 1 0 0 1 0-2M395 274a1 1 0 1 1 0 2 1 1 0 0 1 0-2M409 274a1 1 0 1 1 0 2 1 1 0 0 1 0-2M423 274a1 1 0 1 1 0 2 1 1 0 0 1 0-2M437 274a1 1 0 1 1 0 2 1 1 0 0 1 0-2M451 274a1 1 0 1 1 0 2 1 1 0 0 1 0-2M465 274a1 1 0 1 1 0 2 1 1 0 0 1 0-2M479 274a1 1 0 1 1 0 2 1 1 0 0 1 0-2M493 274a1 1 0 1 1 0 2 1 1 0 0 1 0-2M507 274a1 1 0 1 1 0 2 1 1 0 0 1 0-2M521 274a1 1 0 1 1 0 2 1 1 0 0 1 0-2M535 274a1 1 0 1 1 0 2 1 1 0 0 1 0-2M549 274a1 1 0 1 1 0 2 1 1 0 0 1 0-2M563 274a1 1 0 1 1 0 2 1 1 0 0 1 0-2M577 274a1 1 0 1 1 0 2 1 1 0 0 1 0-2M591 274a1 1 0 1 1 0 2 1 1 0 0 1 0-2M605 274a1 1 0 1 1 0 2 1 1 0 0 1 0-2M619 274a1 1 0 1 1 0 2 1 1 0 0 1 0-2M633 274a1 1 0 1 1 0 2 1 1 0 0 1 0-2M647 274a1 1 0 1 1 0 2 1 1 0 0 1 0-2M661 274a1 1 0 1 1 0 2 1 1 0 0 1 0-2M675 274a1 1 0 1 1 0 2 1 1 0 0 1 0-2M689 274a1 1 0 1 1 0 2 1 1 0 0 1 0-2M703 274a1 1 0 1 1 0 2 1 1 0 0 1 0-2M717 274a1 1 0 1 1 0 2 1 1 0 0 1 0-2M-11 260a1 1 0 1 1 0 2 1 1 0 0 1 0-2M3 260a1 1 0 1 1 0 2 1 1 0 0 1 0-2M17 260a1 1 0 1 1 0 2 1 1 0 0 1 0-2M31 260a1 1 0 1 1 0 2 1 1 0 0 1 0-2M45 260a1 1 0 1 1 0 2 1 1 0 0 1 0-2M59 260a1 1 0 1 1 0 2 1 1 0 0 1 0-2M73 260a1 1 0 1 1 0 2 1 1 0 0 1 0-2M87 260a1 1 0 1 1 0 2 1 1 0 0 1 0-2M101 260a1 1 0 1 1 0 2 1 1 0 0 1 0-2M115 260a1 1 0 1 1 0 2 1 1 0 0 1 0-2M129 260a1 1 0 1 1 0 2 1 1 0 0 1 0-2M143 260a1 1 0 1 1 0 2 1 1 0 0 1 0-2M157 260a1 1 0 1 1 0 2 1 1 0 0 1 0-2M171 260a1 1 0 1 1 0 2 1 1 0 0 1 0-2M185 260a1 1 0 1 1 0 2 1 1 0 0 1 0-2M199 260a1 1 0 1 1 0 2 1 1 0 0 1 0-2M213 260a1 1 0 1 1 0 2 1 1 0 0 1 0-2M227 260a1 1 0 1 1 0 2 1 1 0 0 1 0-2M241 260a1 1 0 1 1 0 2 1 1 0 0 1 0-2M255 260a1 1 0 1 1 0 2 1 1 0 0 1 0-2M269 260a1 1 0 1 1 0 2 1 1 0 0 1 0-2M283 260a1 1 0 1 1 0 2 1 1 0 0 1 0-2M297 260a1 1 0 1 1 0 2 1 1 0 0 1 0-2M311 260a1 1 0 1 1 0 2 1 1 0 0 1 0-2M325 260a1 1 0 1 1 0 2 1 1 0 0 1 0-2M339 260a1 1 0 1 1 0 2 1 1 0 0 1 0-2M353 260a1 1 0 1 1 0 2 1 1 0 0 1 0-2M367 260a1 1 0 1 1 0 2 1 1 0 0 1 0-2M381 260a1 1 0 1 1 0 2 1 1 0 0 1 0-2M395 260a1 1 0 1 1 0 2 1 1 0 0 1 0-2M409 260a1 1 0 1 1 0 2 1 1 0 0 1 0-2M423 260a1 1 0 1 1 0 2 1 1 0 0 1 0-2M437 260a1 1 0 1 1 0 2 1 1 0 0 1 0-2M451 260a1 1 0 1 1 0 2 1 1 0 0 1 0-2M465 260a1 1 0 1 1 0 2 1 1 0 0 1 0-2M479 260a1 1 0 1 1 0 2 1 1 0 0 1 0-2M493 260a1 1 0 1 1 0 2 1 1 0 0 1 0-2M507 260a1 1 0 1 1 0 2 1 1 0 0 1 0-2M521 260a1 1 0 1 1 0 2 1 1 0 0 1 0-2M535 260a1 1 0 1 1 0 2 1 1 0 0 1 0-2M549 260a1 1 0 1 1 0 2 1 1 0 0 1 0-2M563 260a1 1 0 1 1 0 2 1 1 0 0 1 0-2M577 260a1 1 0 1 1 0 2 1 1 0 0 1 0-2M591 260a1 1 0 1 1 0 2 1 1 0 0 1 0-2M605 260a1 1 0 1 1 0 2 1 1 0 0 1 0-2M619 260a1 1 0 1 1 0 2 1 1 0 0 1 0-2M633 260a1 1 0 1 1 0 2 1 1 0 0 1 0-2M647 260a1 1 0 1 1 0 2 1 1 0 0 1 0-2M661 260a1 1 0 1 1 0 2 1 1 0 0 1 0-2M675 260a1 1 0 1 1 0 2 1 1 0 0 1 0-2M689 260a1 1 0 1 1 0 2 1 1 0 0 1 0-2M703 260a1 1 0 1 1 0 2 1 1 0 0 1 0-2M717 260a1 1 0 1 1 0 2 1 1 0 0 1 0-2M-11 246a1 1 0 1 1 0 2 1 1 0 0 1 0-2M3 246a1 1 0 1 1 0 2 1 1 0 0 1 0-2M17 246a1 1 0 1 1 0 2 1 1 0 0 1 0-2M31 246a1 1 0 1 1 0 2 1 1 0 0 1 0-2M45 246a1 1 0 1 1 0 2 1 1 0 0 1 0-2M59 246a1 1 0 1 1 0 2 1 1 0 0 1 0-2M73 246a1 1 0 1 1 0 2 1 1 0 0 1 0-2M87 246a1 1 0 1 1 0 2 1 1 0 0 1 0-2M101 246a1 1 0 1 1 0 2 1 1 0 0 1 0-2M115 246a1 1 0 1 1 0 2 1 1 0 0 1 0-2M129 246a1 1 0 1 1 0 2 1 1 0 0 1 0-2M143 246a1 1 0 1 1 0 2 1 1 0 0 1 0-2M157 246a1 1 0 1 1 0 2 1 1 0 0 1 0-2M171 246a1 1 0 1 1 0 2 1 1 0 0 1 0-2M185 246a1 1 0 1 1 0 2 1 1 0 0 1 0-2M199 246a1 1 0 1 1 0 2 1 1 0 0 1 0-2M213 246a1 1 0 1 1 0 2 1 1 0 0 1 0-2M227 246a1 1 0 1 1 0 2 1 1 0 0 1 0-2M241 246a1 1 0 1 1 0 2 1 1 0 0 1 0-2M255 246a1 1 0 1 1 0 2 1 1 0 0 1 0-2M269 246a1 1 0 1 1 0 2 1 1 0 0 1 0-2M283 246a1 1 0 1 1 0 2 1 1 0 0 1 0-2M297 246a1 1 0 1 1 0 2 1 1 0 0 1 0-2M311 246a1 1 0 1 1 0 2 1 1 0 0 1 0-2M325 246a1 1 0 1 1 0 2 1 1 0 0 1 0-2M339 246a1 1 0 1 1 0 2 1 1 0 0 1 0-2M353 246a1 1 0 1 1 0 2 1 1 0 0 1 0-2M367 246a1 1 0 1 1 0 2 1 1 0 0 1 0-2M381 246a1 1 0 1 1 0 2 1 1 0 0 1 0-2M395 246a1 1 0 1 1 0 2 1 1 0 0 1 0-2M409 246a1 1 0 1 1 0 2 1 1 0 0 1 0-2M423 246a1 1 0 1 1 0 2 1 1 0 0 1 0-2M437 246a1 1 0 1 1 0 2 1 1 0 0 1 0-2M451 246a1 1 0 1 1 0 2 1 1 0 0 1 0-2M465 246a1 1 0 1 1 0 2 1 1 0 0 1 0-2M479 246a1 1 0 1 1 0 2 1 1 0 0 1 0-2M493 246a1 1 0 1 1 0 2 1 1 0 0 1 0-2M507 246a1 1 0 1 1 0 2 1 1 0 0 1 0-2M521 246a1 1 0 1 1 0 2 1 1 0 0 1 0-2M535 246a1 1 0 1 1 0 2 1 1 0 0 1 0-2M549 246a1 1 0 1 1 0 2 1 1 0 0 1 0-2M563 246a1 1 0 1 1 0 2 1 1 0 0 1 0-2M577 246a1 1 0 1 1 0 2 1 1 0 0 1 0-2M591 246a1 1 0 1 1 0 2 1 1 0 0 1 0-2M605 246a1 1 0 1 1 0 2 1 1 0 0 1 0-2M619 246a1 1 0 1 1 0 2 1 1 0 0 1 0-2M633 246a1 1 0 1 1 0 2 1 1 0 0 1 0-2M647 246a1 1 0 1 1 0 2 1 1 0 0 1 0-2M661 246a1 1 0 1 1 0 2 1 1 0 0 1 0-2M675 246a1 1 0 1 1 0 2 1 1 0 0 1 0-2M689 246a1 1 0 1 1 0 2 1 1 0 0 1 0-2M703 246a1 1 0 1 1 0 2 1 1 0 0 1 0-2M717 246a1 1 0 1 1 0 2 1 1 0 0 1 0-2M-11 232a1 1 0 1 1 0 2 1 1 0 0 1 0-2M3 232a1 1 0 1 1 0 2 1 1 0 0 1 0-2M17 232a1 1 0 1 1 0 2 1 1 0 0 1 0-2M31 232a1 1 0 1 1 0 2 1 1 0 0 1 0-2M45 232a1 1 0 1 1 0 2 1 1 0 0 1 0-2M59 232a1 1 0 1 1 0 2 1 1 0 0 1 0-2M73 232a1 1 0 1 1 0 2 1 1 0 0 1 0-2M87 232a1 1 0 1 1 0 2 1 1 0 0 1 0-2M101 232a1 1 0 1 1 0 2 1 1 0 0 1 0-2M115 232a1 1 0 1 1 0 2 1 1 0 0 1 0-2M129 232a1 1 0 1 1 0 2 1 1 0 0 1 0-2M143 232a1 1 0 1 1 0 2 1 1 0 0 1 0-2M157 232a1 1 0 1 1 0 2 1 1 0 0 1 0-2M171 232a1 1 0 1 1 0 2 1 1 0 0 1 0-2M185 232a1 1 0 1 1 0 2 1 1 0 0 1 0-2M199 232a1 1 0 1 1 0 2 1 1 0 0 1 0-2M213 232a1 1 0 1 1 0 2 1 1 0 0 1 0-2M227 232a1 1 0 1 1 0 2 1 1 0 0 1 0-2M241 232a1 1 0 1 1 0 2 1 1 0 0 1 0-2M255 232a1 1 0 1 1 0 2 1 1 0 0 1 0-2M269 232a1 1 0 1 1 0 2 1 1 0 0 1 0-2M283 232a1 1 0 1 1 0 2 1 1 0 0 1 0-2M297 232a1 1 0 1 1 0 2 1 1 0 0 1 0-2M311 232a1 1 0 1 1 0 2 1 1 0 0 1 0-2M325 232a1 1 0 1 1 0 2 1 1 0 0 1 0-2M339 232a1 1 0 1 1 0 2 1 1 0 0 1 0-2M353 232a1 1 0 1 1 0 2 1 1 0 0 1 0-2M367 232a1 1 0 1 1 0 2 1 1 0 0 1 0-2M381 232a1 1 0 1 1 0 2 1 1 0 0 1 0-2M395 232a1 1 0 1 1 0 2 1 1 0 0 1 0-2M409 232a1 1 0 1 1 0 2 1 1 0 0 1 0-2M423 232a1 1 0 1 1 0 2 1 1 0 0 1 0-2M437 232a1 1 0 1 1 0 2 1 1 0 0 1 0-2M451 232a1 1 0 1 1 0 2 1 1 0 0 1 0-2M465 232a1 1 0 1 1 0 2 1 1 0 0 1 0-2M479 232a1 1 0 1 1 0 2 1 1 0 0 1 0-2M493 232a1 1 0 1 1 0 2 1 1 0 0 1 0-2M507 232a1 1 0 1 1 0 2 1 1 0 0 1 0-2M521 232a1 1 0 1 1 0 2 1 1 0 0 1 0-2M535 232a1 1 0 1 1 0 2 1 1 0 0 1 0-2M549 232a1 1 0 1 1 0 2 1 1 0 0 1 0-2M563 232a1 1 0 1 1 0 2 1 1 0 0 1 0-2M577 232a1 1 0 1 1 0 2 1 1 0 0 1 0-2M591 232a1 1 0 1 1 0 2 1 1 0 0 1 0-2M605 232a1 1 0 1 1 0 2 1 1 0 0 1 0-2M619 232a1 1 0 1 1 0 2 1 1 0 0 1 0-2M633 232a1 1 0 1 1 0 2 1 1 0 0 1 0-2M647 232a1 1 0 1 1 0 2 1 1 0 0 1 0-2M661 232a1 1 0 1 1 0 2 1 1 0 0 1 0-2M675 232a1 1 0 1 1 0 2 1 1 0 0 1 0-2M689 232a1 1 0 1 1 0 2 1 1 0 0 1 0-2M703 232a1 1 0 1 1 0 2 1 1 0 0 1 0-2M717 232a1 1 0 1 1 0 2 1 1 0 0 1 0-2M-11 218a1 1 0 1 1 0 2 1 1 0 0 1 0-2M3 218a1 1 0 1 1 0 2 1 1 0 0 1 0-2M17 218a1 1 0 1 1 0 2 1 1 0 0 1 0-2M31 218a1 1 0 1 1 0 2 1 1 0 0 1 0-2M45 218a1 1 0 1 1 0 2 1 1 0 0 1 0-2M59 218a1 1 0 1 1 0 2 1 1 0 0 1 0-2M73 218a1 1 0 1 1 0 2 1 1 0 0 1 0-2M87 218a1 1 0 1 1 0 2 1 1 0 0 1 0-2M101 218a1 1 0 1 1 0 2 1 1 0 0 1 0-2M115 218a1 1 0 1 1 0 2 1 1 0 0 1 0-2M129 218a1 1 0 1 1 0 2 1 1 0 0 1 0-2M143 218a1 1 0 1 1 0 2 1 1 0 0 1 0-2M157 218a1 1 0 1 1 0 2 1 1 0 0 1 0-2M171 218a1 1 0 1 1 0 2 1 1 0 0 1 0-2M185 218a1 1 0 1 1 0 2 1 1 0 0 1 0-2M199 218a1 1 0 1 1 0 2 1 1 0 0 1 0-2M213 218a1 1 0 1 1 0 2 1 1 0 0 1 0-2M227 218a1 1 0 1 1 0 2 1 1 0 0 1 0-2M241 218a1 1 0 1 1 0 2 1 1 0 0 1 0-2M255 218a1 1 0 1 1 0 2 1 1 0 0 1 0-2M269 218a1 1 0 1 1 0 2 1 1 0 0 1 0-2M283 218a1 1 0 1 1 0 2 1 1 0 0 1 0-2M297 218a1 1 0 1 1 0 2 1 1 0 0 1 0-2M311 218a1 1 0 1 1 0 2 1 1 0 0 1 0-2M325 218a1 1 0 1 1 0 2 1 1 0 0 1 0-2M339 218a1 1 0 1 1 0 2 1 1 0 0 1 0-2M353 218a1 1 0 1 1 0 2 1 1 0 0 1 0-2M367 218a1 1 0 1 1 0 2 1 1 0 0 1 0-2M381 218a1 1 0 1 1 0 2 1 1 0 0 1 0-2M395 218a1 1 0 1 1 0 2 1 1 0 0 1 0-2M409 218a1 1 0 1 1 0 2 1 1 0 0 1 0-2M423 218a1 1 0 1 1 0 2 1 1 0 0 1 0-2M437 218a1 1 0 1 1 0 2 1 1 0 0 1 0-2M451 218a1 1 0 1 1 0 2 1 1 0 0 1 0-2M465 218a1 1 0 1 1 0 2 1 1 0 0 1 0-2M479 218a1 1 0 1 1 0 2 1 1 0 0 1 0-2M493 218a1 1 0 1 1 0 2 1 1 0 0 1 0-2M507 218a1 1 0 1 1 0 2 1 1 0 0 1 0-2M521 218a1 1 0 1 1 0 2 1 1 0 0 1 0-2M535 218a1 1 0 1 1 0 2 1 1 0 0 1 0-2M549 218a1 1 0 1 1 0 2 1 1 0 0 1 0-2M563 218a1 1 0 1 1 0 2 1 1 0 0 1 0-2M577 218a1 1 0 1 1 0 2 1 1 0 0 1 0-2M591 218a1 1 0 1 1 0 2 1 1 0 0 1 0-2M605 218a1 1 0 1 1 0 2 1 1 0 0 1 0-2M619 218a1 1 0 1 1 0 2 1 1 0 0 1 0-2M633 218a1 1 0 1 1 0 2 1 1 0 0 1 0-2M647 218a1 1 0 1 1 0 2 1 1 0 0 1 0-2M661 218a1 1 0 1 1 0 2 1 1 0 0 1 0-2M675 218a1 1 0 1 1 0 2 1 1 0 0 1 0-2M689 218a1 1 0 1 1 0 2 1 1 0 0 1 0-2M703 218a1 1 0 1 1 0 2 1 1 0 0 1 0-2M717 218a1 1 0 1 1 0 2 1 1 0 0 1 0-2M-11 204a1 1 0 1 1 0 2 1 1 0 0 1 0-2M3 204a1 1 0 1 1 0 2 1 1 0 0 1 0-2M17 204a1 1 0 1 1 0 2 1 1 0 0 1 0-2M31 204a1 1 0 1 1 0 2 1 1 0 0 1 0-2M45 204a1 1 0 1 1 0 2 1 1 0 0 1 0-2M59 204a1 1 0 1 1 0 2 1 1 0 0 1 0-2M73 204a1 1 0 1 1 0 2 1 1 0 0 1 0-2M87 204a1 1 0 1 1 0 2 1 1 0 0 1 0-2M101 204a1 1 0 1 1 0 2 1 1 0 0 1 0-2M115 204a1 1 0 1 1 0 2 1 1 0 0 1 0-2M129 204a1 1 0 1 1 0 2 1 1 0 0 1 0-2M143 204a1 1 0 1 1 0 2 1 1 0 0 1 0-2M157 204a1 1 0 1 1 0 2 1 1 0 0 1 0-2M171 204a1 1 0 1 1 0 2 1 1 0 0 1 0-2M185 204a1 1 0 1 1 0 2 1 1 0 0 1 0-2M199 204a1 1 0 1 1 0 2 1 1 0 0 1 0-2M213 204a1 1 0 1 1 0 2 1 1 0 0 1 0-2M227 204a1 1 0 1 1 0 2 1 1 0 0 1 0-2M241 204a1 1 0 1 1 0 2 1 1 0 0 1 0-2M255 204a1 1 0 1 1 0 2 1 1 0 0 1 0-2M269 204a1 1 0 1 1 0 2 1 1 0 0 1 0-2M283 204a1 1 0 1 1 0 2 1 1 0 0 1 0-2M297 204a1 1 0 1 1 0 2 1 1 0 0 1 0-2M311 204a1 1 0 1 1 0 2 1 1 0 0 1 0-2M325 204a1 1 0 1 1 0 2 1 1 0 0 1 0-2M339 204a1 1 0 1 1 0 2 1 1 0 0 1 0-2M353 204a1 1 0 1 1 0 2 1 1 0 0 1 0-2M367 204a1 1 0 1 1 0 2 1 1 0 0 1 0-2M381 204a1 1 0 1 1 0 2 1 1 0 0 1 0-2M395 204a1 1 0 1 1 0 2 1 1 0 0 1 0-2M409 204a1 1 0 1 1 0 2 1 1 0 0 1 0-2M423 204a1 1 0 1 1 0 2 1 1 0 0 1 0-2M437 204a1 1 0 1 1 0 2 1 1 0 0 1 0-2M451 204a1 1 0 1 1 0 2 1 1 0 0 1 0-2M465 204a1 1 0 1 1 0 2 1 1 0 0 1 0-2M479 204a1 1 0 1 1 0 2 1 1 0 0 1 0-2M493 204a1 1 0 1 1 0 2 1 1 0 0 1 0-2M507 204a1 1 0 1 1 0 2 1 1 0 0 1 0-2M521 204a1 1 0 1 1 0 2 1 1 0 0 1 0-2M535 204a1 1 0 1 1 0 2 1 1 0 0 1 0-2M549 204a1 1 0 1 1 0 2 1 1 0 0 1 0-2M563 204a1 1 0 1 1 0 2 1 1 0 0 1 0-2M577 204a1 1 0 1 1 0 2 1 1 0 0 1 0-2M591 204a1 1 0 1 1 0 2 1 1 0 0 1 0-2M605 204a1 1 0 1 1 0 2 1 1 0 0 1 0-2M619 204a1 1 0 1 1 0 2 1 1 0 0 1 0-2M633 204a1 1 0 1 1 0 2 1 1 0 0 1 0-2M647 204a1 1 0 1 1 0 2 1 1 0 0 1 0-2M661 204a1 1 0 1 1 0 2 1 1 0 0 1 0-2M675 204a1 1 0 1 1 0 2 1 1 0 0 1 0-2M689 204a1 1 0 1 1 0 2 1 1 0 0 1 0-2M703 204a1 1 0 1 1 0 2 1 1 0 0 1 0-2M717 204a1 1 0 1 1 0 2 1 1 0 0 1 0-2M-11 190a1 1 0 1 1 0 2 1 1 0 0 1 0-2M3 190a1 1 0 1 1 0 2 1 1 0 0 1 0-2M17 190a1 1 0 1 1 0 2 1 1 0 0 1 0-2M31 190a1 1 0 1 1 0 2 1 1 0 0 1 0-2M45 190a1 1 0 1 1 0 2 1 1 0 0 1 0-2M59 190a1 1 0 1 1 0 2 1 1 0 0 1 0-2M73 190a1 1 0 1 1 0 2 1 1 0 0 1 0-2M87 190a1 1 0 1 1 0 2 1 1 0 0 1 0-2M101 190a1 1 0 1 1 0 2 1 1 0 0 1 0-2M115 190a1 1 0 1 1 0 2 1 1 0 0 1 0-2M129 190a1 1 0 1 1 0 2 1 1 0 0 1 0-2M143 190a1 1 0 1 1 0 2 1 1 0 0 1 0-2M157 190a1 1 0 1 1 0 2 1 1 0 0 1 0-2M171 190a1 1 0 1 1 0 2 1 1 0 0 1 0-2M185 190a1 1 0 1 1 0 2 1 1 0 0 1 0-2M199 190a1 1 0 1 1 0 2 1 1 0 0 1 0-2M213 190a1 1 0 1 1 0 2 1 1 0 0 1 0-2M227 190a1 1 0 1 1 0 2 1 1 0 0 1 0-2M241 190a1 1 0 1 1 0 2 1 1 0 0 1 0-2M255 190a1 1 0 1 1 0 2 1 1 0 0 1 0-2M269 190a1 1 0 1 1 0 2 1 1 0 0 1 0-2M283 190a1 1 0 1 1 0 2 1 1 0 0 1 0-2M297 190a1 1 0 1 1 0 2 1 1 0 0 1 0-2M311 190a1 1 0 1 1 0 2 1 1 0 0 1 0-2M325 190a1 1 0 1 1 0 2 1 1 0 0 1 0-2M339 190a1 1 0 1 1 0 2 1 1 0 0 1 0-2M353 190a1 1 0 1 1 0 2 1 1 0 0 1 0-2M367 190a1 1 0 1 1 0 2 1 1 0 0 1 0-2M381 190a1 1 0 1 1 0 2 1 1 0 0 1 0-2M395 190a1 1 0 1 1 0 2 1 1 0 0 1 0-2M409 190a1 1 0 1 1 0 2 1 1 0 0 1 0-2M423 190a1 1 0 1 1 0 2 1 1 0 0 1 0-2M437 190a1 1 0 1 1 0 2 1 1 0 0 1 0-2M451 190a1 1 0 1 1 0 2 1 1 0 0 1 0-2M465 190a1 1 0 1 1 0 2 1 1 0 0 1 0-2M479 190a1 1 0 1 1 0 2 1 1 0 0 1 0-2M493 190a1 1 0 1 1 0 2 1 1 0 0 1 0-2M507 190a1 1 0 1 1 0 2 1 1 0 0 1 0-2M521 190a1 1 0 1 1 0 2 1 1 0 0 1 0-2M535 190a1 1 0 1 1 0 2 1 1 0 0 1 0-2M549 190a1 1 0 1 1 0 2 1 1 0 0 1 0-2M563 190a1 1 0 1 1 0 2 1 1 0 0 1 0-2M577 190a1 1 0 1 1 0 2 1 1 0 0 1 0-2M591 190a1 1 0 1 1 0 2 1 1 0 0 1 0-2M605 190a1 1 0 1 1 0 2 1 1 0 0 1 0-2M619 190a1 1 0 1 1 0 2 1 1 0 0 1 0-2M633 190a1 1 0 1 1 0 2 1 1 0 0 1 0-2M647 190a1 1 0 1 1 0 2 1 1 0 0 1 0-2M661 190a1 1 0 1 1 0 2 1 1 0 0 1 0-2M675 190a1 1 0 1 1 0 2 1 1 0 0 1 0-2M689 190a1 1 0 1 1 0 2 1 1 0 0 1 0-2M703 190a1 1 0 1 1 0 2 1 1 0 0 1 0-2M717 190a1 1 0 1 1 0 2 1 1 0 0 1 0-2M-11 176a1 1 0 1 1 0 2 1 1 0 0 1 0-2M3 176a1 1 0 1 1 0 2 1 1 0 0 1 0-2M17 176a1 1 0 1 1 0 2 1 1 0 0 1 0-2M31 176a1 1 0 1 1 0 2 1 1 0 0 1 0-2M45 176a1 1 0 1 1 0 2 1 1 0 0 1 0-2M59 176a1 1 0 1 1 0 2 1 1 0 0 1 0-2M73 176a1 1 0 1 1 0 2 1 1 0 0 1 0-2M87 176a1 1 0 1 1 0 2 1 1 0 0 1 0-2M101 176a1 1 0 1 1 0 2 1 1 0 0 1 0-2M115 176a1 1 0 1 1 0 2 1 1 0 0 1 0-2M129 176a1 1 0 1 1 0 2 1 1 0 0 1 0-2M143 176a1 1 0 1 1 0 2 1 1 0 0 1 0-2M157 176a1 1 0 1 1 0 2 1 1 0 0 1 0-2M171 176a1 1 0 1 1 0 2 1 1 0 0 1 0-2M185 176a1 1 0 1 1 0 2 1 1 0 0 1 0-2M199 176a1 1 0 1 1 0 2 1 1 0 0 1 0-2M213 176a1 1 0 1 1 0 2 1 1 0 0 1 0-2M227 176a1 1 0 1 1 0 2 1 1 0 0 1 0-2M241 176a1 1 0 1 1 0 2 1 1 0 0 1 0-2M255 176a1 1 0 1 1 0 2 1 1 0 0 1 0-2M269 176a1 1 0 1 1 0 2 1 1 0 0 1 0-2M283 176a1 1 0 1 1 0 2 1 1 0 0 1 0-2M297 176a1 1 0 1 1 0 2 1 1 0 0 1 0-2M311 176a1 1 0 1 1 0 2 1 1 0 0 1 0-2M325 176a1 1 0 1 1 0 2 1 1 0 0 1 0-2M339 176a1 1 0 1 1 0 2 1 1 0 0 1 0-2M353 176a1 1 0 1 1 0 2 1 1 0 0 1 0-2M367 176a1 1 0 1 1 0 2 1 1 0 0 1 0-2M381 176a1 1 0 1 1 0 2 1 1 0 0 1 0-2M395 176a1 1 0 1 1 0 2 1 1 0 0 1 0-2M409 176a1 1 0 1 1 0 2 1 1 0 0 1 0-2M423 176a1 1 0 1 1 0 2 1 1 0 0 1 0-2M437 176a1 1 0 1 1 0 2 1 1 0 0 1 0-2M451 176a1 1 0 1 1 0 2 1 1 0 0 1 0-2M465 176a1 1 0 1 1 0 2 1 1 0 0 1 0-2M479 176a1 1 0 1 1 0 2 1 1 0 0 1 0-2M493 176a1 1 0 1 1 0 2 1 1 0 0 1 0-2M507 176a1 1 0 1 1 0 2 1 1 0 0 1 0-2M521 176a1 1 0 1 1 0 2 1 1 0 0 1 0-2M535 176a1 1 0 1 1 0 2 1 1 0 0 1 0-2M549 176a1 1 0 1 1 0 2 1 1 0 0 1 0-2M563 176a1 1 0 1 1 0 2 1 1 0 0 1 0-2M577 176a1 1 0 1 1 0 2 1 1 0 0 1 0-2M591 176a1 1 0 1 1 0 2 1 1 0 0 1 0-2M605 176a1 1 0 1 1 0 2 1 1 0 0 1 0-2M619 176a1 1 0 1 1 0 2 1 1 0 0 1 0-2M633 176a1 1 0 1 1 0 2 1 1 0 0 1 0-2M647 176a1 1 0 1 1 0 2 1 1 0 0 1 0-2M661 176a1 1 0 1 1 0 2 1 1 0 0 1 0-2M675 176a1 1 0 1 1 0 2 1 1 0 0 1 0-2M689 176a1 1 0 1 1 0 2 1 1 0 0 1 0-2M703 176a1 1 0 1 1 0 2 1 1 0 0 1 0-2M717 176a1 1 0 1 1 0 2 1 1 0 0 1 0-2M-11 162a1 1 0 1 1 0 2 1 1 0 0 1 0-2M3 162a1 1 0 1 1 0 2 1 1 0 0 1 0-2M17 162a1 1 0 1 1 0 2 1 1 0 0 1 0-2M31 162a1 1 0 1 1 0 2 1 1 0 0 1 0-2M45 162a1 1 0 1 1 0 2 1 1 0 0 1 0-2M59 162a1 1 0 1 1 0 2 1 1 0 0 1 0-2M73 162a1 1 0 1 1 0 2 1 1 0 0 1 0-2M87 162a1 1 0 1 1 0 2 1 1 0 0 1 0-2M101 162a1 1 0 1 1 0 2 1 1 0 0 1 0-2M115 162a1 1 0 1 1 0 2 1 1 0 0 1 0-2M129 162a1 1 0 1 1 0 2 1 1 0 0 1 0-2M143 162a1 1 0 1 1 0 2 1 1 0 0 1 0-2M157 162a1 1 0 1 1 0 2 1 1 0 0 1 0-2M171 162a1 1 0 1 1 0 2 1 1 0 0 1 0-2M185 162a1 1 0 1 1 0 2 1 1 0 0 1 0-2M199 162a1 1 0 1 1 0 2 1 1 0 0 1 0-2M213 162a1 1 0 1 1 0 2 1 1 0 0 1 0-2M227 162a1 1 0 1 1 0 2 1 1 0 0 1 0-2M241 162a1 1 0 1 1 0 2 1 1 0 0 1 0-2M255 162a1 1 0 1 1 0 2 1 1 0 0 1 0-2M269 162a1 1 0 1 1 0 2 1 1 0 0 1 0-2M283 162a1 1 0 1 1 0 2 1 1 0 0 1 0-2M297 162a1 1 0 1 1 0 2 1 1 0 0 1 0-2M311 162a1 1 0 1 1 0 2 1 1 0 0 1 0-2M325 162a1 1 0 1 1 0 2 1 1 0 0 1 0-2M339 162a1 1 0 1 1 0 2 1 1 0 0 1 0-2M353 162a1 1 0 1 1 0 2 1 1 0 0 1 0-2M367 162a1 1 0 1 1 0 2 1 1 0 0 1 0-2M381 162a1 1 0 1 1 0 2 1 1 0 0 1 0-2M395 162a1 1 0 1 1 0 2 1 1 0 0 1 0-2M409 162a1 1 0 1 1 0 2 1 1 0 0 1 0-2M423 162a1 1 0 1 1 0 2 1 1 0 0 1 0-2M437 162a1 1 0 1 1 0 2 1 1 0 0 1 0-2M451 162a1 1 0 1 1 0 2 1 1 0 0 1 0-2M465 162a1 1 0 1 1 0 2 1 1 0 0 1 0-2M479 162a1 1 0 1 1 0 2 1 1 0 0 1 0-2M493 162a1 1 0 1 1 0 2 1 1 0 0 1 0-2M507 162a1 1 0 1 1 0 2 1 1 0 0 1 0-2M521 162a1 1 0 1 1 0 2 1 1 0 0 1 0-2M535 162a1 1 0 1 1 0 2 1 1 0 0 1 0-2M549 162a1 1 0 1 1 0 2 1 1 0 0 1 0-2M563 162a1 1 0 1 1 0 2 1 1 0 0 1 0-2M577 162a1 1 0 1 1 0 2 1 1 0 0 1 0-2M591 162a1 1 0 1 1 0 2 1 1 0 0 1 0-2M605 162a1 1 0 1 1 0 2 1 1 0 0 1 0-2M619 162a1 1 0 1 1 0 2 1 1 0 0 1 0-2M633 162a1 1 0 1 1 0 2 1 1 0 0 1 0-2M647 162a1 1 0 1 1 0 2 1 1 0 0 1 0-2M661 162a1 1 0 1 1 0 2 1 1 0 0 1 0-2M675 162a1 1 0 1 1 0 2 1 1 0 0 1 0-2M689 162a1 1 0 1 1 0 2 1 1 0 0 1 0-2M703 162a1 1 0 1 1 0 2 1 1 0 0 1 0-2M717 162a1 1 0 1 1 0 2 1 1 0 0 1 0-2M-11 148a1 1 0 1 1 0 2 1 1 0 0 1 0-2M3 148a1 1 0 1 1 0 2 1 1 0 0 1 0-2M17 148a1 1 0 1 1 0 2 1 1 0 0 1 0-2M31 148a1 1 0 1 1 0 2 1 1 0 0 1 0-2M45 148a1 1 0 1 1 0 2 1 1 0 0 1 0-2M59 148a1 1 0 1 1 0 2 1 1 0 0 1 0-2M73 148a1 1 0 1 1 0 2 1 1 0 0 1 0-2M87 148a1 1 0 1 1 0 2 1 1 0 0 1 0-2M101 148a1 1 0 1 1 0 2 1 1 0 0 1 0-2M115 148a1 1 0 1 1 0 2 1 1 0 0 1 0-2M129 148a1 1 0 1 1 0 2 1 1 0 0 1 0-2M143 148a1 1 0 1 1 0 2 1 1 0 0 1 0-2M157 148a1 1 0 1 1 0 2 1 1 0 0 1 0-2M171 148a1 1 0 1 1 0 2 1 1 0 0 1 0-2M185 148a1 1 0 1 1 0 2 1 1 0 0 1 0-2M199 148a1 1 0 1 1 0 2 1 1 0 0 1 0-2M213 148a1 1 0 1 1 0 2 1 1 0 0 1 0-2M227 148a1 1 0 1 1 0 2 1 1 0 0 1 0-2M241 148a1 1 0 1 1 0 2 1 1 0 0 1 0-2M255 148a1 1 0 1 1 0 2 1 1 0 0 1 0-2M269 148a1 1 0 1 1 0 2 1 1 0 0 1 0-2M283 148a1 1 0 1 1 0 2 1 1 0 0 1 0-2M297 148a1 1 0 1 1 0 2 1 1 0 0 1 0-2M311 148a1 1 0 1 1 0 2 1 1 0 0 1 0-2M325 148a1 1 0 1 1 0 2 1 1 0 0 1 0-2M339 148a1 1 0 1 1 0 2 1 1 0 0 1 0-2M353 148a1 1 0 1 1 0 2 1 1 0 0 1 0-2M367 148a1 1 0 1 1 0 2 1 1 0 0 1 0-2M381 148a1 1 0 1 1 0 2 1 1 0 0 1 0-2M395 148a1 1 0 1 1 0 2 1 1 0 0 1 0-2M409 148a1 1 0 1 1 0 2 1 1 0 0 1 0-2M423 148a1 1 0 1 1 0 2 1 1 0 0 1 0-2M437 148a1 1 0 1 1 0 2 1 1 0 0 1 0-2M451 148a1 1 0 1 1 0 2 1 1 0 0 1 0-2M465 148a1 1 0 1 1 0 2 1 1 0 0 1 0-2M479 148a1 1 0 1 1 0 2 1 1 0 0 1 0-2M493 148a1 1 0 1 1 0 2 1 1 0 0 1 0-2M507 148a1 1 0 1 1 0 2 1 1 0 0 1 0-2M521 148a1 1 0 1 1 0 2 1 1 0 0 1 0-2M535 148a1 1 0 1 1 0 2 1 1 0 0 1 0-2M549 148a1 1 0 1 1 0 2 1 1 0 0 1 0-2M563 148a1 1 0 1 1 0 2 1 1 0 0 1 0-2M577 148a1 1 0 1 1 0 2 1 1 0 0 1 0-2M591 148a1 1 0 1 1 0 2 1 1 0 0 1 0-2M605 148a1 1 0 1 1 0 2 1 1 0 0 1 0-2M619 148a1 1 0 1 1 0 2 1 1 0 0 1 0-2M633 148a1 1 0 1 1 0 2 1 1 0 0 1 0-2M647 148a1 1 0 1 1 0 2 1 1 0 0 1 0-2M661 148a1 1 0 1 1 0 2 1 1 0 0 1 0-2M675 148a1 1 0 1 1 0 2 1 1 0 0 1 0-2M689 148a1 1 0 1 1 0 2 1 1 0 0 1 0-2M703 148a1 1 0 1 1 0 2 1 1 0 0 1 0-2M717 148a1 1 0 1 1 0 2 1 1 0 0 1 0-2M-11 134a1 1 0 1 1 0 2 1 1 0 0 1 0-2M3 134a1 1 0 1 1 0 2 1 1 0 0 1 0-2M17 134a1 1 0 1 1 0 2 1 1 0 0 1 0-2M31 134a1 1 0 1 1 0 2 1 1 0 0 1 0-2M45 134a1 1 0 1 1 0 2 1 1 0 0 1 0-2M59 134a1 1 0 1 1 0 2 1 1 0 0 1 0-2M73 134a1 1 0 1 1 0 2 1 1 0 0 1 0-2M87 134a1 1 0 1 1 0 2 1 1 0 0 1 0-2M101 134a1 1 0 1 1 0 2 1 1 0 0 1 0-2M115 134a1 1 0 1 1 0 2 1 1 0 0 1 0-2M129 134a1 1 0 1 1 0 2 1 1 0 0 1 0-2M143 134a1 1 0 1 1 0 2 1 1 0 0 1 0-2M157 134a1 1 0 1 1 0 2 1 1 0 0 1 0-2M171 134a1 1 0 1 1 0 2 1 1 0 0 1 0-2M185 134a1 1 0 1 1 0 2 1 1 0 0 1 0-2M199 134a1 1 0 1 1 0 2 1 1 0 0 1 0-2M213 134a1 1 0 1 1 0 2 1 1 0 0 1 0-2M227 134a1 1 0 1 1 0 2 1 1 0 0 1 0-2M241 134a1 1 0 1 1 0 2 1 1 0 0 1 0-2M255 134a1 1 0 1 1 0 2 1 1 0 0 1 0-2M269 134a1 1 0 1 1 0 2 1 1 0 0 1 0-2M283 134a1 1 0 1 1 0 2 1 1 0 0 1 0-2M297 134a1 1 0 1 1 0 2 1 1 0 0 1 0-2M311 134a1 1 0 1 1 0 2 1 1 0 0 1 0-2M325 134a1 1 0 1 1 0 2 1 1 0 0 1 0-2M339 134a1 1 0 1 1 0 2 1 1 0 0 1 0-2M353 134a1 1 0 1 1 0 2 1 1 0 0 1 0-2M367 134a1 1 0 1 1 0 2 1 1 0 0 1 0-2M381 134a1 1 0 1 1 0 2 1 1 0 0 1 0-2M395 134a1 1 0 1 1 0 2 1 1 0 0 1 0-2M409 134a1 1 0 1 1 0 2 1 1 0 0 1 0-2M423 134a1 1 0 1 1 0 2 1 1 0 0 1 0-2M437 134a1 1 0 1 1 0 2 1 1 0 0 1 0-2M451 134a1 1 0 1 1 0 2 1 1 0 0 1 0-2M465 134a1 1 0 1 1 0 2 1 1 0 0 1 0-2M479 134a1 1 0 1 1 0 2 1 1 0 0 1 0-2M493 134a1 1 0 1 1 0 2 1 1 0 0 1 0-2M507 134a1 1 0 1 1 0 2 1 1 0 0 1 0-2M521 134a1 1 0 1 1 0 2 1 1 0 0 1 0-2M535 134a1 1 0 1 1 0 2 1 1 0 0 1 0-2M549 134a1 1 0 1 1 0 2 1 1 0 0 1 0-2M563 134a1 1 0 1 1 0 2 1 1 0 0 1 0-2M577 134a1 1 0 1 1 0 2 1 1 0 0 1 0-2M591 134a1 1 0 1 1 0 2 1 1 0 0 1 0-2M605 134a1 1 0 1 1 0 2 1 1 0 0 1 0-2M619 134a1 1 0 1 1 0 2 1 1 0 0 1 0-2M633 134a1 1 0 1 1 0 2 1 1 0 0 1 0-2M647 134a1 1 0 1 1 0 2 1 1 0 0 1 0-2M661 134a1 1 0 1 1 0 2 1 1 0 0 1 0-2M675 134a1 1 0 1 1 0 2 1 1 0 0 1 0-2M689 134a1 1 0 1 1 0 2 1 1 0 0 1 0-2M703 134a1 1 0 1 1 0 2 1 1 0 0 1 0-2M717 134a1 1 0 1 1 0 2 1 1 0 0 1 0-2M-11 120a1 1 0 1 1 0 2 1 1 0 0 1 0-2M3 120a1 1 0 1 1 0 2 1 1 0 0 1 0-2M17 120a1 1 0 1 1 0 2 1 1 0 0 1 0-2M31 120a1 1 0 1 1 0 2 1 1 0 0 1 0-2M45 120a1 1 0 1 1 0 2 1 1 0 0 1 0-2M59 120a1 1 0 1 1 0 2 1 1 0 0 1 0-2M73 120a1 1 0 1 1 0 2 1 1 0 0 1 0-2M87 120a1 1 0 1 1 0 2 1 1 0 0 1 0-2M101 120a1 1 0 1 1 0 2 1 1 0 0 1 0-2M115 120a1 1 0 1 1 0 2 1 1 0 0 1 0-2M129 120a1 1 0 1 1 0 2 1 1 0 0 1 0-2M143 120a1 1 0 1 1 0 2 1 1 0 0 1 0-2M157 120a1 1 0 1 1 0 2 1 1 0 0 1 0-2M171 120a1 1 0 1 1 0 2 1 1 0 0 1 0-2M185 120a1 1 0 1 1 0 2 1 1 0 0 1 0-2M199 120a1 1 0 1 1 0 2 1 1 0 0 1 0-2M213 120a1 1 0 1 1 0 2 1 1 0 0 1 0-2M227 120a1 1 0 1 1 0 2 1 1 0 0 1 0-2M241 120a1 1 0 1 1 0 2 1 1 0 0 1 0-2M255 120a1 1 0 1 1 0 2 1 1 0 0 1 0-2M269 120a1 1 0 1 1 0 2 1 1 0 0 1 0-2M283 120a1 1 0 1 1 0 2 1 1 0 0 1 0-2M297 120a1 1 0 1 1 0 2 1 1 0 0 1 0-2M311 120a1 1 0 1 1 0 2 1 1 0 0 1 0-2M325 120a1 1 0 1 1 0 2 1 1 0 0 1 0-2M339 120a1 1 0 1 1 0 2 1 1 0 0 1 0-2M353 120a1 1 0 1 1 0 2 1 1 0 0 1 0-2M367 120a1 1 0 1 1 0 2 1 1 0 0 1 0-2M381 120a1 1 0 1 1 0 2 1 1 0 0 1 0-2M395 120a1 1 0 1 1 0 2 1 1 0 0 1 0-2M409 120a1 1 0 1 1 0 2 1 1 0 0 1 0-2M423 120a1 1 0 1 1 0 2 1 1 0 0 1 0-2M437 120a1 1 0 1 1 0 2 1 1 0 0 1 0-2M451 120a1 1 0 1 1 0 2 1 1 0 0 1 0-2M465 120a1 1 0 1 1 0 2 1 1 0 0 1 0-2M479 120a1 1 0 1 1 0 2 1 1 0 0 1 0-2M493 120a1 1 0 1 1 0 2 1 1 0 0 1 0-2M507 120a1 1 0 1 1 0 2 1 1 0 0 1 0-2M521 120a1 1 0 1 1 0 2 1 1 0 0 1 0-2M535 120a1 1 0 1 1 0 2 1 1 0 0 1 0-2M549 120a1 1 0 1 1 0 2 1 1 0 0 1 0-2M563 120a1 1 0 1 1 0 2 1 1 0 0 1 0-2M577 120a1 1 0 1 1 0 2 1 1 0 0 1 0-2M591 120a1 1 0 1 1 0 2 1 1 0 0 1 0-2M605 120a1 1 0 1 1 0 2 1 1 0 0 1 0-2M619 120a1 1 0 1 1 0 2 1 1 0 0 1 0-2M633 120a1 1 0 1 1 0 2 1 1 0 0 1 0-2M647 120a1 1 0 1 1 0 2 1 1 0 0 1 0-2M661 120a1 1 0 1 1 0 2 1 1 0 0 1 0-2M675 120a1 1 0 1 1 0 2 1 1 0 0 1 0-2M689 120a1 1 0 1 1 0 2 1 1 0 0 1 0-2M703 120a1 1 0 1 1 0 2 1 1 0 0 1 0-2M717 120a1 1 0 1 1 0 2 1 1 0 0 1 0-2M-11 106a1 1 0 1 1 0 2 1 1 0 0 1 0-2M3 106a1 1 0 1 1 0 2 1 1 0 0 1 0-2M17 106a1 1 0 1 1 0 2 1 1 0 0 1 0-2M31 106a1 1 0 1 1 0 2 1 1 0 0 1 0-2M45 106a1 1 0 1 1 0 2 1 1 0 0 1 0-2M59 106a1 1 0 1 1 0 2 1 1 0 0 1 0-2M73 106a1 1 0 1 1 0 2 1 1 0 0 1 0-2M87 106a1 1 0 1 1 0 2 1 1 0 0 1 0-2M101 106a1 1 0 1 1 0 2 1 1 0 0 1 0-2M115 106a1 1 0 1 1 0 2 1 1 0 0 1 0-2M129 106a1 1 0 1 1 0 2 1 1 0 0 1 0-2M143 106a1 1 0 1 1 0 2 1 1 0 0 1 0-2M157 106a1 1 0 1 1 0 2 1 1 0 0 1 0-2M171 106a1 1 0 1 1 0 2 1 1 0 0 1 0-2M185 106a1 1 0 1 1 0 2 1 1 0 0 1 0-2M199 106a1 1 0 1 1 0 2 1 1 0 0 1 0-2M213 106a1 1 0 1 1 0 2 1 1 0 0 1 0-2M227 106a1 1 0 1 1 0 2 1 1 0 0 1 0-2M241 106a1 1 0 1 1 0 2 1 1 0 0 1 0-2M255 106a1 1 0 1 1 0 2 1 1 0 0 1 0-2M269 106a1 1 0 1 1 0 2 1 1 0 0 1 0-2M283 106a1 1 0 1 1 0 2 1 1 0 0 1 0-2M297 106a1 1 0 1 1 0 2 1 1 0 0 1 0-2M311 106a1 1 0 1 1 0 2 1 1 0 0 1 0-2M325 106a1 1 0 1 1 0 2 1 1 0 0 1 0-2M339 106a1 1 0 1 1 0 2 1 1 0 0 1 0-2M353 106a1 1 0 1 1 0 2 1 1 0 0 1 0-2M367 106a1 1 0 1 1 0 2 1 1 0 0 1 0-2M381 106a1 1 0 1 1 0 2 1 1 0 0 1 0-2M395 106a1 1 0 1 1 0 2 1 1 0 0 1 0-2M409 106a1 1 0 1 1 0 2 1 1 0 0 1 0-2M423 106a1 1 0 1 1 0 2 1 1 0 0 1 0-2M437 106a1 1 0 1 1 0 2 1 1 0 0 1 0-2M451 106a1 1 0 1 1 0 2 1 1 0 0 1 0-2M465 106a1 1 0 1 1 0 2 1 1 0 0 1 0-2M479 106a1 1 0 1 1 0 2 1 1 0 0 1 0-2M493 106a1 1 0 1 1 0 2 1 1 0 0 1 0-2M507 106a1 1 0 1 1 0 2 1 1 0 0 1 0-2M521 106a1 1 0 1 1 0 2 1 1 0 0 1 0-2M535 106a1 1 0 1 1 0 2 1 1 0 0 1 0-2M549 106a1 1 0 1 1 0 2 1 1 0 0 1 0-2M563 106a1 1 0 1 1 0 2 1 1 0 0 1 0-2M577 106a1 1 0 1 1 0 2 1 1 0 0 1 0-2M591 106a1 1 0 1 1 0 2 1 1 0 0 1 0-2M605 106a1 1 0 1 1 0 2 1 1 0 0 1 0-2M619 106a1 1 0 1 1 0 2 1 1 0 0 1 0-2M633 106a1 1 0 1 1 0 2 1 1 0 0 1 0-2M647 106a1 1 0 1 1 0 2 1 1 0 0 1 0-2M661 106a1 1 0 1 1 0 2 1 1 0 0 1 0-2M675 106a1 1 0 1 1 0 2 1 1 0 0 1 0-2M689 106a1 1 0 1 1 0 2 1 1 0 0 1 0-2M703 106a1 1 0 1 1 0 2 1 1 0 0 1 0-2M717 106a1 1 0 1 1 0 2 1 1 0 0 1 0-2M-11 92a1 1 0 1 1 0 2 1 1 0 0 1 0-2M3 92a1 1 0 1 1 0 2 1 1 0 0 1 0-2M17 92a1 1 0 1 1 0 2 1 1 0 0 1 0-2M31 92a1 1 0 1 1 0 2 1 1 0 0 1 0-2M45 92a1 1 0 1 1 0 2 1 1 0 0 1 0-2M59 92a1 1 0 1 1 0 2 1 1 0 0 1 0-2M73 92a1 1 0 1 1 0 2 1 1 0 0 1 0-2M87 92a1 1 0 1 1 0 2 1 1 0 0 1 0-2M101 92a1 1 0 1 1 0 2 1 1 0 0 1 0-2M115 92a1 1 0 1 1 0 2 1 1 0 0 1 0-2M129 92a1 1 0 1 1 0 2 1 1 0 0 1 0-2M143 92a1 1 0 1 1 0 2 1 1 0 0 1 0-2M157 92a1 1 0 1 1 0 2 1 1 0 0 1 0-2M171 92a1 1 0 1 1 0 2 1 1 0 0 1 0-2M185 92a1 1 0 1 1 0 2 1 1 0 0 1 0-2M199 92a1 1 0 1 1 0 2 1 1 0 0 1 0-2M213 92a1 1 0 1 1 0 2 1 1 0 0 1 0-2M227 92a1 1 0 1 1 0 2 1 1 0 0 1 0-2M241 92a1 1 0 1 1 0 2 1 1 0 0 1 0-2M255 92a1 1 0 1 1 0 2 1 1 0 0 1 0-2M269 92a1 1 0 1 1 0 2 1 1 0 0 1 0-2M283 92a1 1 0 1 1 0 2 1 1 0 0 1 0-2M297 92a1 1 0 1 1 0 2 1 1 0 0 1 0-2M311 92a1 1 0 1 1 0 2 1 1 0 0 1 0-2M325 92a1 1 0 1 1 0 2 1 1 0 0 1 0-2M339 92a1 1 0 1 1 0 2 1 1 0 0 1 0-2M353 92a1 1 0 1 1 0 2 1 1 0 0 1 0-2M367 92a1 1 0 1 1 0 2 1 1 0 0 1 0-2M381 92a1 1 0 1 1 0 2 1 1 0 0 1 0-2M395 92a1 1 0 1 1 0 2 1 1 0 0 1 0-2M409 92a1 1 0 1 1 0 2 1 1 0 0 1 0-2M423 92a1 1 0 1 1 0 2 1 1 0 0 1 0-2M437 92a1 1 0 1 1 0 2 1 1 0 0 1 0-2M451 92a1 1 0 1 1 0 2 1 1 0 0 1 0-2M465 92a1 1 0 1 1 0 2 1 1 0 0 1 0-2M479 92a1 1 0 1 1 0 2 1 1 0 0 1 0-2M493 92a1 1 0 1 1 0 2 1 1 0 0 1 0-2M507 92a1 1 0 1 1 0 2 1 1 0 0 1 0-2M521 92a1 1 0 1 1 0 2 1 1 0 0 1 0-2M535 92a1 1 0 1 1 0 2 1 1 0 0 1 0-2M549 92a1 1 0 1 1 0 2 1 1 0 0 1 0-2M563 92a1 1 0 1 1 0 2 1 1 0 0 1 0-2M577 92a1 1 0 1 1 0 2 1 1 0 0 1 0-2M591 92a1 1 0 1 1 0 2 1 1 0 0 1 0-2M605 92a1 1 0 1 1 0 2 1 1 0 0 1 0-2M619 92a1 1 0 1 1 0 2 1 1 0 0 1 0-2M633 92a1 1 0 1 1 0 2 1 1 0 0 1 0-2M647 92a1 1 0 1 1 0 2 1 1 0 0 1 0-2M661 92a1 1 0 1 1 0 2 1 1 0 0 1 0-2M675 92a1 1 0 1 1 0 2 1 1 0 0 1 0-2M689 92a1 1 0 1 1 0 2 1 1 0 0 1 0-2M703 92a1 1 0 1 1 0 2 1 1 0 0 1 0-2M717 92a1 1 0 1 1 0 2 1 1 0 0 1 0-2M-11 78a1 1 0 1 1 0 2 1 1 0 0 1 0-2M3 78a1 1 0 1 1 0 2 1 1 0 0 1 0-2M17 78a1 1 0 1 1 0 2 1 1 0 0 1 0-2M31 78a1 1 0 1 1 0 2 1 1 0 0 1 0-2M45 78a1 1 0 1 1 0 2 1 1 0 0 1 0-2M59 78a1 1 0 1 1 0 2 1 1 0 0 1 0-2M73 78a1 1 0 1 1 0 2 1 1 0 0 1 0-2M87 78a1 1 0 1 1 0 2 1 1 0 0 1 0-2M101 78a1 1 0 1 1 0 2 1 1 0 0 1 0-2M115 78a1 1 0 1 1 0 2 1 1 0 0 1 0-2M129 78a1 1 0 1 1 0 2 1 1 0 0 1 0-2M143 78a1 1 0 1 1 0 2 1 1 0 0 1 0-2M157 78a1 1 0 1 1 0 2 1 1 0 0 1 0-2M171 78a1 1 0 1 1 0 2 1 1 0 0 1 0-2M185 78a1 1 0 1 1 0 2 1 1 0 0 1 0-2M199 78a1 1 0 1 1 0 2 1 1 0 0 1 0-2M213 78a1 1 0 1 1 0 2 1 1 0 0 1 0-2M227 78a1 1 0 1 1 0 2 1 1 0 0 1 0-2M241 78a1 1 0 1 1 0 2 1 1 0 0 1 0-2M255 78a1 1 0 1 1 0 2 1 1 0 0 1 0-2M269 78a1 1 0 1 1 0 2 1 1 0 0 1 0-2M283 78a1 1 0 1 1 0 2 1 1 0 0 1 0-2M297 78a1 1 0 1 1 0 2 1 1 0 0 1 0-2M311 78a1 1 0 1 1 0 2 1 1 0 0 1 0-2M325 78a1 1 0 1 1 0 2 1 1 0 0 1 0-2M339 78a1 1 0 1 1 0 2 1 1 0 0 1 0-2M353 78a1 1 0 1 1 0 2 1 1 0 0 1 0-2M367 78a1 1 0 1 1 0 2 1 1 0 0 1 0-2M381 78a1 1 0 1 1 0 2 1 1 0 0 1 0-2M395 78a1 1 0 1 1 0 2 1 1 0 0 1 0-2M409 78a1 1 0 1 1 0 2 1 1 0 0 1 0-2M423 78a1 1 0 1 1 0 2 1 1 0 0 1 0-2M437 78a1 1 0 1 1 0 2 1 1 0 0 1 0-2M451 78a1 1 0 1 1 0 2 1 1 0 0 1 0-2M465 78a1 1 0 1 1 0 2 1 1 0 0 1 0-2M479 78a1 1 0 1 1 0 2 1 1 0 0 1 0-2M493 78a1 1 0 1 1 0 2 1 1 0 0 1 0-2M507 78a1 1 0 1 1 0 2 1 1 0 0 1 0-2M521 78a1 1 0 1 1 0 2 1 1 0 0 1 0-2M535 78a1 1 0 1 1 0 2 1 1 0 0 1 0-2M549 78a1 1 0 1 1 0 2 1 1 0 0 1 0-2M563 78a1 1 0 1 1 0 2 1 1 0 0 1 0-2M577 78a1 1 0 1 1 0 2 1 1 0 0 1 0-2M591 78a1 1 0 1 1 0 2 1 1 0 0 1 0-2M605 78a1 1 0 1 1 0 2 1 1 0 0 1 0-2M619 78a1 1 0 1 1 0 2 1 1 0 0 1 0-2M633 78a1 1 0 1 1 0 2 1 1 0 0 1 0-2M647 78a1 1 0 1 1 0 2 1 1 0 0 1 0-2M661 78a1 1 0 1 1 0 2 1 1 0 0 1 0-2M675 78a1 1 0 1 1 0 2 1 1 0 0 1 0-2M689 78a1 1 0 1 1 0 2 1 1 0 0 1 0-2M703 78a1 1 0 1 1 0 2 1 1 0 0 1 0-2M717 78a1 1 0 1 1 0 2 1 1 0 0 1 0-2M-11 64a1 1 0 1 1 0 2 1 1 0 0 1 0-2M3 64a1 1 0 1 1 0 2 1 1 0 0 1 0-2M17 64a1 1 0 1 1 0 2 1 1 0 0 1 0-2M31 64a1 1 0 1 1 0 2 1 1 0 0 1 0-2M45 64a1 1 0 1 1 0 2 1 1 0 0 1 0-2M59 64a1 1 0 1 1 0 2 1 1 0 0 1 0-2M73 64a1 1 0 1 1 0 2 1 1 0 0 1 0-2M87 64a1 1 0 1 1 0 2 1 1 0 0 1 0-2M101 64a1 1 0 1 1 0 2 1 1 0 0 1 0-2M115 64a1 1 0 1 1 0 2 1 1 0 0 1 0-2M129 64a1 1 0 1 1 0 2 1 1 0 0 1 0-2M143 64a1 1 0 1 1 0 2 1 1 0 0 1 0-2M157 64a1 1 0 1 1 0 2 1 1 0 0 1 0-2M171 64a1 1 0 1 1 0 2 1 1 0 0 1 0-2M185 64a1 1 0 1 1 0 2 1 1 0 0 1 0-2M199 64a1 1 0 1 1 0 2 1 1 0 0 1 0-2M213 64a1 1 0 1 1 0 2 1 1 0 0 1 0-2M227 64a1 1 0 1 1 0 2 1 1 0 0 1 0-2M241 64a1 1 0 1 1 0 2 1 1 0 0 1 0-2M255 64a1 1 0 1 1 0 2 1 1 0 0 1 0-2M269 64a1 1 0 1 1 0 2 1 1 0 0 1 0-2M283 64a1 1 0 1 1 0 2 1 1 0 0 1 0-2M297 64a1 1 0 1 1 0 2 1 1 0 0 1 0-2M311 64a1 1 0 1 1 0 2 1 1 0 0 1 0-2M325 64a1 1 0 1 1 0 2 1 1 0 0 1 0-2M339 64a1 1 0 1 1 0 2 1 1 0 0 1 0-2M353 64a1 1 0 1 1 0 2 1 1 0 0 1 0-2M367 64a1 1 0 1 1 0 2 1 1 0 0 1 0-2M381 64a1 1 0 1 1 0 2 1 1 0 0 1 0-2M395 64a1 1 0 1 1 0 2 1 1 0 0 1 0-2M409 64a1 1 0 1 1 0 2 1 1 0 0 1 0-2M423 64a1 1 0 1 1 0 2 1 1 0 0 1 0-2M437 64a1 1 0 1 1 0 2 1 1 0 0 1 0-2M451 64a1 1 0 1 1 0 2 1 1 0 0 1 0-2M465 64a1 1 0 1 1 0 2 1 1 0 0 1 0-2M479 64a1 1 0 1 1 0 2 1 1 0 0 1 0-2M493 64a1 1 0 1 1 0 2 1 1 0 0 1 0-2M507 64a1 1 0 1 1 0 2 1 1 0 0 1 0-2M521 64a1 1 0 1 1 0 2 1 1 0 0 1 0-2M535 64a1 1 0 1 1 0 2 1 1 0 0 1 0-2M549 64a1 1 0 1 1 0 2 1 1 0 0 1 0-2M563 64a1 1 0 1 1 0 2 1 1 0 0 1 0-2M577 64a1 1 0 1 1 0 2 1 1 0 0 1 0-2M591 64a1 1 0 1 1 0 2 1 1 0 0 1 0-2M605 64a1 1 0 1 1 0 2 1 1 0 0 1 0-2M619 64a1 1 0 1 1 0 2 1 1 0 0 1 0-2M633 64a1 1 0 1 1 0 2 1 1 0 0 1 0-2M647 64a1 1 0 1 1 0 2 1 1 0 0 1 0-2M661 64a1 1 0 1 1 0 2 1 1 0 0 1 0-2M675 64a1 1 0 1 1 0 2 1 1 0 0 1 0-2M689 64a1 1 0 1 1 0 2 1 1 0 0 1 0-2M703 64a1 1 0 1 1 0 2 1 1 0 0 1 0-2M717 64a1 1 0 1 1 0 2 1 1 0 0 1 0-2M-11 50a1 1 0 1 1 0 2 1 1 0 0 1 0-2M3 50a1 1 0 1 1 0 2 1 1 0 0 1 0-2M17 50a1 1 0 1 1 0 2 1 1 0 0 1 0-2M31 50a1 1 0 1 1 0 2 1 1 0 0 1 0-2M45 50a1 1 0 1 1 0 2 1 1 0 0 1 0-2M59 50a1 1 0 1 1 0 2 1 1 0 0 1 0-2M73 50a1 1 0 1 1 0 2 1 1 0 0 1 0-2M87 50a1 1 0 1 1 0 2 1 1 0 0 1 0-2M101 50a1 1 0 1 1 0 2 1 1 0 0 1 0-2M115 50a1 1 0 1 1 0 2 1 1 0 0 1 0-2M129 50a1 1 0 1 1 0 2 1 1 0 0 1 0-2M143 50a1 1 0 1 1 0 2 1 1 0 0 1 0-2M157 50a1 1 0 1 1 0 2 1 1 0 0 1 0-2M171 50a1 1 0 1 1 0 2 1 1 0 0 1 0-2M185 50a1 1 0 1 1 0 2 1 1 0 0 1 0-2M199 50a1 1 0 1 1 0 2 1 1 0 0 1 0-2M213 50a1 1 0 1 1 0 2 1 1 0 0 1 0-2M227 50a1 1 0 1 1 0 2 1 1 0 0 1 0-2M241 50a1 1 0 1 1 0 2 1 1 0 0 1 0-2M255 50a1 1 0 1 1 0 2 1 1 0 0 1 0-2M269 50a1 1 0 1 1 0 2 1 1 0 0 1 0-2M283 50a1 1 0 1 1 0 2 1 1 0 0 1 0-2M297 50a1 1 0 1 1 0 2 1 1 0 0 1 0-2M311 50a1 1 0 1 1 0 2 1 1 0 0 1 0-2M325 50a1 1 0 1 1 0 2 1 1 0 0 1 0-2M339 50a1 1 0 1 1 0 2 1 1 0 0 1 0-2M353 50a1 1 0 1 1 0 2 1 1 0 0 1 0-2M367 50a1 1 0 1 1 0 2 1 1 0 0 1 0-2M381 50a1 1 0 1 1 0 2 1 1 0 0 1 0-2M395 50a1 1 0 1 1 0 2 1 1 0 0 1 0-2M409 50a1 1 0 1 1 0 2 1 1 0 0 1 0-2M423 50a1 1 0 1 1 0 2 1 1 0 0 1 0-2M437 50a1 1 0 1 1 0 2 1 1 0 0 1 0-2M451 50a1 1 0 1 1 0 2 1 1 0 0 1 0-2M465 50a1 1 0 1 1 0 2 1 1 0 0 1 0-2M479 50a1 1 0 1 1 0 2 1 1 0 0 1 0-2M493 50a1 1 0 1 1 0 2 1 1 0 0 1 0-2M507 50a1 1 0 1 1 0 2 1 1 0 0 1 0-2M521 50a1 1 0 1 1 0 2 1 1 0 0 1 0-2M535 50a1 1 0 1 1 0 2 1 1 0 0 1 0-2M549 50a1 1 0 1 1 0 2 1 1 0 0 1 0-2M563 50a1 1 0 1 1 0 2 1 1 0 0 1 0-2M577 50a1 1 0 1 1 0 2 1 1 0 0 1 0-2M591 50a1 1 0 1 1 0 2 1 1 0 0 1 0-2M605 50a1 1 0 1 1 0 2 1 1 0 0 1 0-2M619 50a1 1 0 1 1 0 2 1 1 0 0 1 0-2M633 50a1 1 0 1 1 0 2 1 1 0 0 1 0-2M647 50a1 1 0 1 1 0 2 1 1 0 0 1 0-2M661 50a1 1 0 1 1 0 2 1 1 0 0 1 0-2M675 50a1 1 0 1 1 0 2 1 1 0 0 1 0-2M689 50a1 1 0 1 1 0 2 1 1 0 0 1 0-2M703 50a1 1 0 1 1 0 2 1 1 0 0 1 0-2M717 50a1 1 0 1 1 0 2 1 1 0 0 1 0-2M-11 36a1 1 0 1 1 0 2 1 1 0 0 1 0-2M3 36a1 1 0 1 1 0 2 1 1 0 0 1 0-2M17 36a1 1 0 1 1 0 2 1 1 0 0 1 0-2M31 36a1 1 0 1 1 0 2 1 1 0 0 1 0-2M45 36a1 1 0 1 1 0 2 1 1 0 0 1 0-2M59 36a1 1 0 1 1 0 2 1 1 0 0 1 0-2M73 36a1 1 0 1 1 0 2 1 1 0 0 1 0-2M87 36a1 1 0 1 1 0 2 1 1 0 0 1 0-2M101 36a1 1 0 1 1 0 2 1 1 0 0 1 0-2M115 36a1 1 0 1 1 0 2 1 1 0 0 1 0-2M129 36a1 1 0 1 1 0 2 1 1 0 0 1 0-2M143 36a1 1 0 1 1 0 2 1 1 0 0 1 0-2M157 36a1 1 0 1 1 0 2 1 1 0 0 1 0-2M171 36a1 1 0 1 1 0 2 1 1 0 0 1 0-2M185 36a1 1 0 1 1 0 2 1 1 0 0 1 0-2M199 36a1 1 0 1 1 0 2 1 1 0 0 1 0-2M213 36a1 1 0 1 1 0 2 1 1 0 0 1 0-2M227 36a1 1 0 1 1 0 2 1 1 0 0 1 0-2M241 36a1 1 0 1 1 0 2 1 1 0 0 1 0-2M255 36a1 1 0 1 1 0 2 1 1 0 0 1 0-2M269 36a1 1 0 1 1 0 2 1 1 0 0 1 0-2M283 36a1 1 0 1 1 0 2 1 1 0 0 1 0-2M297 36a1 1 0 1 1 0 2 1 1 0 0 1 0-2M311 36a1 1 0 1 1 0 2 1 1 0 0 1 0-2M325 36a1 1 0 1 1 0 2 1 1 0 0 1 0-2M339 36a1 1 0 1 1 0 2 1 1 0 0 1 0-2M353 36a1 1 0 1 1 0 2 1 1 0 0 1 0-2M367 36a1 1 0 1 1 0 2 1 1 0 0 1 0-2M381 36a1 1 0 1 1 0 2 1 1 0 0 1 0-2M395 36a1 1 0 1 1 0 2 1 1 0 0 1 0-2M409 36a1 1 0 1 1 0 2 1 1 0 0 1 0-2M423 36a1 1 0 1 1 0 2 1 1 0 0 1 0-2M437 36a1 1 0 1 1 0 2 1 1 0 0 1 0-2M451 36a1 1 0 1 1 0 2 1 1 0 0 1 0-2M465 36a1 1 0 1 1 0 2 1 1 0 0 1 0-2M479 36a1 1 0 1 1 0 2 1 1 0 0 1 0-2M493 36a1 1 0 1 1 0 2 1 1 0 0 1 0-2M507 36a1 1 0 1 1 0 2 1 1 0 0 1 0-2M521 36a1 1 0 1 1 0 2 1 1 0 0 1 0-2M535 36a1 1 0 1 1 0 2 1 1 0 0 1 0-2M549 36a1 1 0 1 1 0 2 1 1 0 0 1 0-2M563 36a1 1 0 1 1 0 2 1 1 0 0 1 0-2M577 36a1 1 0 1 1 0 2 1 1 0 0 1 0-2M591 36a1 1 0 1 1 0 2 1 1 0 0 1 0-2M605 36a1 1 0 1 1 0 2 1 1 0 0 1 0-2M619 36a1 1 0 1 1 0 2 1 1 0 0 1 0-2M633 36a1 1 0 1 1 0 2 1 1 0 0 1 0-2M647 36a1 1 0 1 1 0 2 1 1 0 0 1 0-2M661 36a1 1 0 1 1 0 2 1 1 0 0 1 0-2M675 36a1 1 0 1 1 0 2 1 1 0 0 1 0-2M689 36a1 1 0 1 1 0 2 1 1 0 0 1 0-2M703 36a1 1 0 1 1 0 2 1 1 0 0 1 0-2M717 36a1 1 0 1 1 0 2 1 1 0 0 1 0-2M-11 22a1 1 0 1 1 0 2 1 1 0 0 1 0-2M3 22a1 1 0 1 1 0 2 1 1 0 0 1 0-2M17 22a1 1 0 1 1 0 2 1 1 0 0 1 0-2M31 22a1 1 0 1 1 0 2 1 1 0 0 1 0-2M45 22a1 1 0 1 1 0 2 1 1 0 0 1 0-2M59 22a1 1 0 1 1 0 2 1 1 0 0 1 0-2M73 22a1 1 0 1 1 0 2 1 1 0 0 1 0-2M87 22a1 1 0 1 1 0 2 1 1 0 0 1 0-2M101 22a1 1 0 1 1 0 2 1 1 0 0 1 0-2M115 22a1 1 0 1 1 0 2 1 1 0 0 1 0-2M129 22a1 1 0 1 1 0 2 1 1 0 0 1 0-2M143 22a1 1 0 1 1 0 2 1 1 0 0 1 0-2M157 22a1 1 0 1 1 0 2 1 1 0 0 1 0-2M171 22a1 1 0 1 1 0 2 1 1 0 0 1 0-2M185 22a1 1 0 1 1 0 2 1 1 0 0 1 0-2M199 22a1 1 0 1 1 0 2 1 1 0 0 1 0-2M213 22a1 1 0 1 1 0 2 1 1 0 0 1 0-2M227 22a1 1 0 1 1 0 2 1 1 0 0 1 0-2M241 22a1 1 0 1 1 0 2 1 1 0 0 1 0-2M255 22a1 1 0 1 1 0 2 1 1 0 0 1 0-2M269 22a1 1 0 1 1 0 2 1 1 0 0 1 0-2M283 22a1 1 0 1 1 0 2 1 1 0 0 1 0-2M297 22a1 1 0 1 1 0 2 1 1 0 0 1 0-2M311 22a1 1 0 1 1 0 2 1 1 0 0 1 0-2M325 22a1 1 0 1 1 0 2 1 1 0 0 1 0-2M339 22a1 1 0 1 1 0 2 1 1 0 0 1 0-2M353 22a1 1 0 1 1 0 2 1 1 0 0 1 0-2M367 22a1 1 0 1 1 0 2 1 1 0 0 1 0-2M381 22a1 1 0 1 1 0 2 1 1 0 0 1 0-2M395 22a1 1 0 1 1 0 2 1 1 0 0 1 0-2M409 22a1 1 0 1 1 0 2 1 1 0 0 1 0-2M423 22a1 1 0 1 1 0 2 1 1 0 0 1 0-2M437 22a1 1 0 1 1 0 2 1 1 0 0 1 0-2M451 22a1 1 0 1 1 0 2 1 1 0 0 1 0-2M465 22a1 1 0 1 1 0 2 1 1 0 0 1 0-2M479 22a1 1 0 1 1 0 2 1 1 0 0 1 0-2M493 22a1 1 0 1 1 0 2 1 1 0 0 1 0-2M507 22a1 1 0 1 1 0 2 1 1 0 0 1 0-2M521 22a1 1 0 1 1 0 2 1 1 0 0 1 0-2M535 22a1 1 0 1 1 0 2 1 1 0 0 1 0-2M549 22a1 1 0 1 1 0 2 1 1 0 0 1 0-2M563 22a1 1 0 1 1 0 2 1 1 0 0 1 0-2M577 22a1 1 0 1 1 0 2 1 1 0 0 1 0-2M591 22a1 1 0 1 1 0 2 1 1 0 0 1 0-2M605 22a1 1 0 1 1 0 2 1 1 0 0 1 0-2M619 22a1 1 0 1 1 0 2 1 1 0 0 1 0-2M633 22a1 1 0 1 1 0 2 1 1 0 0 1 0-2M647 22a1 1 0 1 1 0 2 1 1 0 0 1 0-2M661 22a1 1 0 1 1 0 2 1 1 0 0 1 0-2M675 22a1 1 0 1 1 0 2 1 1 0 0 1 0-2M689 22a1 1 0 1 1 0 2 1 1 0 0 1 0-2M703 22a1 1 0 1 1 0 2 1 1 0 0 1 0-2M717 22a1 1 0 1 1 0 2 1 1 0 0 1 0-2M-11 8a1 1 0 1 1 0 2 1 1 0 0 1 0-2M3 8a1 1 0 1 1 0 2 1 1 0 0 1 0-2M17 8a1 1 0 1 1 0 2 1 1 0 0 1 0-2M31 8a1 1 0 1 1 0 2 1 1 0 0 1 0-2M45 8a1 1 0 1 1 0 2 1 1 0 0 1 0-2M59 8a1 1 0 1 1 0 2 1 1 0 0 1 0-2M73 8a1 1 0 1 1 0 2 1 1 0 0 1 0-2M87 8a1 1 0 1 1 0 2 1 1 0 0 1 0-2M101 8a1 1 0 1 1 0 2 1 1 0 0 1 0-2M115 8a1 1 0 1 1 0 2 1 1 0 0 1 0-2M129 8a1 1 0 1 1 0 2 1 1 0 0 1 0-2M143 8a1 1 0 1 1 0 2 1 1 0 0 1 0-2M157 8a1 1 0 1 1 0 2 1 1 0 0 1 0-2M171 8a1 1 0 1 1 0 2 1 1 0 0 1 0-2M185 8a1 1 0 1 1 0 2 1 1 0 0 1 0-2M199 8a1 1 0 1 1 0 2 1 1 0 0 1 0-2M213 8a1 1 0 1 1 0 2 1 1 0 0 1 0-2M227 8a1 1 0 1 1 0 2 1 1 0 0 1 0-2M241 8a1 1 0 1 1 0 2 1 1 0 0 1 0-2M255 8a1 1 0 1 1 0 2 1 1 0 0 1 0-2M269 8a1 1 0 1 1 0 2 1 1 0 0 1 0-2M283 8a1 1 0 1 1 0 2 1 1 0 0 1 0-2M297 8a1 1 0 1 1 0 2 1 1 0 0 1 0-2M311 8a1 1 0 1 1 0 2 1 1 0 0 1 0-2M325 8a1 1 0 1 1 0 2 1 1 0 0 1 0-2M339 8a1 1 0 1 1 0 2 1 1 0 0 1 0-2M353 8a1 1 0 1 1 0 2 1 1 0 0 1 0-2M367 8a1 1 0 1 1 0 2 1 1 0 0 1 0-2M381 8a1 1 0 1 1 0 2 1 1 0 0 1 0-2M395 8a1 1 0 1 1 0 2 1 1 0 0 1 0-2M409 8a1 1 0 1 1 0 2 1 1 0 0 1 0-2M423 8a1 1 0 1 1 0 2 1 1 0 0 1 0-2M437 8a1 1 0 1 1 0 2 1 1 0 0 1 0-2M451 8a1 1 0 1 1 0 2 1 1 0 0 1 0-2M465 8a1 1 0 1 1 0 2 1 1 0 0 1 0-2M479 8a1 1 0 1 1 0 2 1 1 0 0 1 0-2M493 8a1 1 0 1 1 0 2 1 1 0 0 1 0-2M507 8a1 1 0 1 1 0 2 1 1 0 0 1 0-2M521 8a1 1 0 1 1 0 2 1 1 0 0 1 0-2M535 8a1 1 0 1 1 0 2 1 1 0 0 1 0-2M549 8a1 1 0 1 1 0 2 1 1 0 0 1 0-2M563 8a1 1 0 1 1 0 2 1 1 0 0 1 0-2M577 8a1 1 0 1 1 0 2 1 1 0 0 1 0-2M591 8a1 1 0 1 1 0 2 1 1 0 0 1 0-2M605 8a1 1 0 1 1 0 2 1 1 0 0 1 0-2M619 8a1 1 0 1 1 0 2 1 1 0 0 1 0-2M633 8a1 1 0 1 1 0 2 1 1 0 0 1 0-2M647 8a1 1 0 1 1 0 2 1 1 0 0 1 0-2M661 8a1 1 0 1 1 0 2 1 1 0 0 1 0-2M675 8a1 1 0 1 1 0 2 1 1 0 0 1 0-2M689 8a1 1 0 1 1 0 2 1 1 0 0 1 0-2M703 8a1 1 0 1 1 0 2 1 1 0 0 1 0-2M717 8a1 1 0 1 1 0 2 1 1 0 0 1 0-2M-11-6a1 1 0 1 1 0 2 1 1 0 0 1 0-2M3-6a1 1 0 1 1 0 2 1 1 0 0 1 0-2M17-6a1 1 0 1 1 0 2 1 1 0 0 1 0-2M31-6a1 1 0 1 1 0 2 1 1 0 0 1 0-2M45-6a1 1 0 1 1 0 2 1 1 0 0 1 0-2M59-6a1 1 0 1 1 0 2 1 1 0 0 1 0-2M73-6a1 1 0 1 1 0 2 1 1 0 0 1 0-2M87-6a1 1 0 1 1 0 2 1 1 0 0 1 0-2M101-6a1 1 0 1 1 0 2 1 1 0 0 1 0-2M115-6a1 1 0 1 1 0 2 1 1 0 0 1 0-2M129-6a1 1 0 1 1 0 2 1 1 0 0 1 0-2M143-6a1 1 0 1 1 0 2 1 1 0 0 1 0-2M157-6a1 1 0 1 1 0 2 1 1 0 0 1 0-2M171-6a1 1 0 1 1 0 2 1 1 0 0 1 0-2M185-6a1 1 0 1 1 0 2 1 1 0 0 1 0-2M199-6a1 1 0 1 1 0 2 1 1 0 0 1 0-2M213-6a1 1 0 1 1 0 2 1 1 0 0 1 0-2M227-6a1 1 0 1 1 0 2 1 1 0 0 1 0-2M241-6a1 1 0 1 1 0 2 1 1 0 0 1 0-2M255-6a1 1 0 1 1 0 2 1 1 0 0 1 0-2M269-6a1 1 0 1 1 0 2 1 1 0 0 1 0-2M283-6a1 1 0 1 1 0 2 1 1 0 0 1 0-2M297-6a1 1 0 1 1 0 2 1 1 0 0 1 0-2M311-6a1 1 0 1 1 0 2 1 1 0 0 1 0-2M325-6a1 1 0 1 1 0 2 1 1 0 0 1 0-2M339-6a1 1 0 1 1 0 2 1 1 0 0 1 0-2M353-6a1 1 0 1 1 0 2 1 1 0 0 1 0-2M367-6a1 1 0 1 1 0 2 1 1 0 0 1 0-2M381-6a1 1 0 1 1 0 2 1 1 0 0 1 0-2M395-6a1 1 0 1 1 0 2 1 1 0 0 1 0-2M409-6a1 1 0 1 1 0 2 1 1 0 0 1 0-2M423-6a1 1 0 1 1 0 2 1 1 0 0 1 0-2M437-6a1 1 0 1 1 0 2 1 1 0 0 1 0-2M451-6a1 1 0 1 1 0 2 1 1 0 0 1 0-2M465-6a1 1 0 1 1 0 2 1 1 0 0 1 0-2M479-6a1 1 0 1 1 0 2 1 1 0 0 1 0-2M493-6a1 1 0 1 1 0 2 1 1 0 0 1 0-2M507-6a1 1 0 1 1 0 2 1 1 0 0 1 0-2M521-6a1 1 0 1 1 0 2 1 1 0 0 1 0-2M535-6a1 1 0 1 1 0 2 1 1 0 0 1 0-2M549-6a1 1 0 1 1 0 2 1 1 0 0 1 0-2M563-6a1 1 0 1 1 0 2 1 1 0 0 1 0-2M577-6a1 1 0 1 1 0 2 1 1 0 0 1 0-2M591-6a1 1 0 1 1 0 2 1 1 0 0 1 0-2M605-6a1 1 0 1 1 0 2 1 1 0 0 1 0-2M619-6a1 1 0 1 1 0 2 1 1 0 0 1 0-2M633-6a1 1 0 1 1 0 2 1 1 0 0 1 0-2M647-6a1 1 0 1 1 0 2 1 1 0 0 1 0-2M661-6a1 1 0 1 1 0 2 1 1 0 0 1 0-2M675-6a1 1 0 1 1 0 2 1 1 0 0 1 0-2M689-6a1 1 0 1 1 0 2 1 1 0 0 1 0-2M703-6a1 1 0 1 1 0 2 1 1 0 0 1 0-2M717-6a1 1 0 1 1 0 2 1 1 0 0 1 0-2"/></g><path fill="#3d50f5" fill-opacity=".08" d="M297 48h199v85H297z"/><rect width="59" height="26" x="230.5" y="78.5" fill="#23262f" rx="5.5"/><rect width="59" height="26" x="230.5" y="78.5" stroke="#888c96" rx="5.5"/><path fill="#edeef3" d="M246.001 96.166q-1.052 0-1.806-.532-.75-.537-1.155-1.547-.4-1.015-.401-2.442.004-1.427.405-2.43.405-1.004 1.155-1.533.755-.53 1.802-.529 1.049 0 1.803.529t1.155 1.534q.405 1.005.405 2.429 0 1.431-.405 2.446-.4 1.01-1.155 1.543-.75.532-1.803.532m0-1.334q.819 0 1.292-.805.477-.81.477-2.382 0-1.04-.217-1.747-.218-.708-.614-1.066a1.34 1.34 0 0 0-.938-.362q-.813 0-1.287.81-.472.805-.477 2.365-.004 1.044.209 1.756.217.711.614 1.073.396.359.941.358m8.004 1.334q-1.052 0-1.806-.532-.75-.537-1.155-1.547-.4-1.015-.401-2.442.005-1.427.405-2.43.405-1.004 1.155-1.533.754-.53 1.802-.529 1.049 0 1.803.529.755.529 1.155 1.534.405 1.005.405 2.429 0 1.431-.405 2.446-.4 1.01-1.155 1.543-.75.532-1.803.532m0-1.334q.819 0 1.292-.805.477-.81.477-2.382 0-1.04-.218-1.747-.216-.708-.613-1.066a1.34 1.34 0 0 0-.938-.362q-.813 0-1.287.81-.472.805-.477 2.365-.004 1.044.209 1.756.217.711.614 1.073.396.359.941.358m5.746.12a.91.91 0 0 1-.665-.273.9.9 0 0 1-.273-.665.87.87 0 0 1 .273-.656.91.91 0 0 1 .665-.273.9.9 0 0 1 .652.273.9.9 0 0 1 .149 1.13 1 1 0 0 1-.341.34.9.9 0 0 1-.46.124m0-4.326a.91.91 0 0 1-.665-.272.9.9 0 0 1-.273-.665.87.87 0 0 1 .273-.656.9.9 0 0 1 .665-.277q.375 0 .652.277.28.272.285.656a.978.978 0 0 1-.477.81.87.87 0 0 1-.46.127m5.739 5.54q-1.053 0-1.807-.532-.75-.537-1.155-1.547-.4-1.015-.401-2.442.004-1.427.405-2.43.405-1.004 1.155-1.533.755-.53 1.803-.529 1.048 0 1.802.529t1.155 1.534q.405 1.005.405 2.429 0 1.431-.405 2.446-.4 1.01-1.155 1.543-.75.532-1.802.532m0-1.334q.818 0 1.291-.805.477-.81.477-2.382 0-1.04-.217-1.747-.218-.708-.614-1.066a1.34 1.34 0 0 0-.937-.362q-.814 0-1.287.81-.474.805-.478 2.365-.004 1.044.209 1.756.218.711.614 1.073.396.359.942.358m8.004 1.334q-1.053 0-1.807-.532-.75-.537-1.155-1.547-.4-1.015-.401-2.442.004-1.427.405-2.43.405-1.004 1.155-1.533.754-.53 1.803-.529 1.047 0 1.802.529.754.529 1.155 1.534.405 1.005.405 2.429 0 1.431-.405 2.446-.4 1.01-1.155 1.543-.75.532-1.802.532m0-1.334q.817 0 1.291-.805.477-.81.477-2.382 0-1.04-.217-1.747-.218-.708-.614-1.066a1.34 1.34 0 0 0-.937-.362q-.814 0-1.287.81-.474.805-.478 2.365-.003 1.044.209 1.756.218.711.614 1.073.396.359.942.358"/><path stroke="#888c96" stroke-width="1.5" d="M117.5 133H103M131 133h-14.5M149.5 133H131"/><rect width="8" height="8" x="148.5" y="129" fill="#888c96" rx="4"/><path stroke="#888c96" stroke-width="1.5" d="M174 133h-18.5M192.5 133H174"/><rect width="8" height="8" x="191.5" y="129" fill="#888c96" rx="4"/><path stroke="#888c96" stroke-width="1.5" d="M217 133h-18.5M235.5 133H217"/><rect width="8" height="8" x="234.5" y="129" fill="#888c96" rx="4"/><path stroke="#888c96" stroke-width="1.5" d="M260 133h-18.5M274.5 133H260M288 133h-14.5M306.5 133H288"/><rect width="8" height="8" x="305.5" y="129" fill="#888c96" rx="4"/><path stroke="#888c96" stroke-width="1.5" d="M331 133h-18.5M349.5 133H331"/><rect width="8" height="8" x="348.5" y="129" fill="#888c96" rx="4"/><path stroke="#888c96" stroke-width="1.5" d="M374 133h-18.5M392.5 133H374"/><rect width="8" height="8" x="391.5" y="129" fill="#888c96" rx="4"/><path stroke="#888c96" stroke-width="1.5" d="M417 133h-18.5M435.5 133H417"/><rect width="8" height="8" x="434.5" y="129" fill="#888c96" rx="4"/><path stroke="#888c96" stroke-width="1.5" d="M460 133h-18.5M474.5 133H460M488 133h-14.5M506.5 133H488"/><rect width="8" height="8" x="505.5" y="129" fill="#888c96" rx="4"/><path stroke="#888c96" stroke-width="1.5" d="M531 133h-18.5M549.5 133H531"/><rect width="8" height="8" x="548.5" y="129" fill="#888c96" rx="4"/><path stroke="#888c96" stroke-width="1.5" d="M574 133h-18.5M592.5 133H574"/><rect width="8" height="8" x="591.5" y="129" fill="#888c96" rx="4"/><path stroke="#888c96" stroke-width="1.5" d="M617 133h-18.5"/><path stroke="#888c96" d="M260 149v-32M460 149v-32"/><rect width="57" height="26" x="431.5" y="78.5" fill="#23262f" rx="5.5"/><rect width="57" height="26" x="431.5" y="78.5" stroke="#888c96" rx="5.5"/><path fill="#edeef3" d="M447.001 96.166q-1.052 0-1.806-.532-.75-.537-1.155-1.547-.4-1.015-.401-2.442.004-1.427.405-2.43.405-1.004 1.155-1.533.755-.53 1.802-.529 1.048 0 1.803.529t1.155 1.534q.405 1.005.405 2.429 0 1.431-.405 2.446-.4 1.01-1.155 1.543-.75.532-1.803.532m0-1.334q.819 0 1.292-.805.477-.81.477-2.382 0-1.04-.217-1.747-.218-.708-.614-1.066a1.34 1.34 0 0 0-.938-.362q-.813 0-1.287.81-.472.805-.477 2.365-.004 1.044.209 1.756.217.711.614 1.073.396.359.941.358m8.328-7.56V96h-1.581v-7.189h-.051l-2.041 1.304v-1.449l2.169-1.393zm3.183 7.68a.91.91 0 0 1-.664-.273.9.9 0 0 1-.273-.665.87.87 0 0 1 .273-.656.91.91 0 0 1 .664-.273q.376 0 .652.273a.895.895 0 0 1 .15 1.13 1 1 0 0 1-.341.34.9.9 0 0 1-.461.124m0-4.326a.91.91 0 0 1-.664-.272.9.9 0 0 1-.273-.665.87.87 0 0 1 .273-.656.9.9 0 0 1 .664-.277.9.9 0 0 1 .652.277q.282.272.286.656a.9.9 0 0 1-.136.469 1 1 0 0 1-.341.34.87.87 0 0 1-.461.128m5.739 5.54q-1.052 0-1.806-.532-.75-.537-1.155-1.547-.4-1.015-.401-2.442.004-1.427.405-2.43.405-1.004 1.155-1.533.755-.53 1.802-.529 1.048 0 1.803.529t1.155 1.534q.405 1.005.405 2.429 0 1.431-.405 2.446-.4 1.01-1.155 1.543-.75.532-1.803.532m0-1.334q.819 0 1.292-.805.477-.81.477-2.382 0-1.04-.217-1.747-.218-.708-.614-1.066a1.34 1.34 0 0 0-.938-.362q-.813 0-1.287.81-.472.805-.477 2.365-.004 1.044.209 1.756.217.711.614 1.073.396.359.941.358m8.004 1.334q-1.052 0-1.806-.532-.75-.537-1.155-1.547-.4-1.015-.401-2.442.004-1.427.405-2.43.405-1.004 1.155-1.533.754-.53 1.802-.529 1.048 0 1.803.529t1.155 1.534q.405 1.005.405 2.429 0 1.431-.405 2.446-.4 1.01-1.155 1.543-.75.532-1.803.532m0-1.334q.818 0 1.292-.805.477-.81.477-2.382 0-1.04-.218-1.747-.216-.708-.613-1.066a1.34 1.34 0 0 0-.938-.362q-.813 0-1.287.81-.473.805-.477 2.365-.004 1.044.209 1.756.217.711.614 1.073.396.359.941.358"/><rect width="57" height="26" x="268" y="14.5" fill="#23262f" rx="5.5"/><rect width="57" height="26" x="268" y="14.5" stroke="#3369ff" rx="5.5"/><path fill="#b3c7ff" d="M283.501 32.166q-1.052 0-1.806-.532-.75-.537-1.155-1.547-.4-1.015-.401-2.442.004-1.427.405-2.43.405-1.004 1.155-1.533.755-.529 1.802-.529t1.803.529q.754.529 1.155 1.534.405 1.005.405 2.429 0 1.431-.405 2.446-.4 1.01-1.155 1.543-.75.532-1.803.532m0-1.334q.818 0 1.292-.805.477-.81.477-2.382 0-1.04-.217-1.747-.218-.708-.614-1.066a1.34 1.34 0 0 0-.938-.362q-.813 0-1.287.81-.473.805-.477 2.365-.004 1.044.209 1.756.217.711.614 1.073.396.359.941.358m8.004 1.334q-1.052 0-1.806-.532-.75-.537-1.155-1.547-.4-1.015-.401-2.442.004-1.427.405-2.43.405-1.004 1.155-1.533.754-.529 1.802-.529t1.803.529q.755.529 1.155 1.534.405 1.005.405 2.429 0 1.431-.405 2.446-.4 1.01-1.155 1.543-.75.532-1.803.532m0-1.334q.818 0 1.292-.805.477-.81.477-2.382 0-1.04-.218-1.747-.217-.708-.613-1.066a1.34 1.34 0 0 0-.938-.362q-.813 0-1.287.81-.473.805-.477 2.365-.004 1.044.209 1.756.217.711.614 1.073.396.359.941.358m5.746.12a.91.91 0 0 1-.665-.273.9.9 0 0 1-.273-.665.87.87 0 0 1 .273-.656.91.91 0 0 1 .665-.273.9.9 0 0 1 .652.273.9.9 0 0 1 .149 1.13 1 1 0 0 1-.341.34.9.9 0 0 1-.46.124m0-4.326a.91.91 0 0 1-.665-.272.9.9 0 0 1-.273-.665.87.87 0 0 1 .273-.656.9.9 0 0 1 .665-.277q.375 0 .652.277.28.272.285.656a.978.978 0 0 1-.477.81.87.87 0 0 1-.46.127m6.063-3.353V32h-1.581v-7.189h-.052l-2.041 1.304v-1.449l2.169-1.393zm5.441 8.893q-1.052 0-1.806-.532-.75-.537-1.155-1.547-.4-1.015-.401-2.442.004-1.427.405-2.43.405-1.004 1.155-1.533.754-.529 1.802-.529t1.803.529q.755.529 1.155 1.534.405 1.005.405 2.429 0 1.431-.405 2.446-.4 1.01-1.155 1.543-.75.532-1.803.532m0-1.334q.818 0 1.292-.805.477-.81.477-2.382 0-1.04-.218-1.747-.217-.708-.613-1.066a1.34 1.34 0 0 0-.938-.362q-.813 0-1.287.81-.473.805-.477 2.365-.004 1.044.209 1.756.217.711.614 1.073.396.359.941.358"/><rect width="55" height="26" x="468" y="14.5" fill="#23262f" rx="5.5"/><rect width="55" height="26" x="468" y="14.5" stroke="#3369ff" rx="5.5"/><path fill="#b3c7ff" d="M483.501 32.166q-1.052 0-1.806-.532-.75-.537-1.155-1.547-.4-1.015-.401-2.442.004-1.427.405-2.43.405-1.004 1.155-1.533.755-.529 1.802-.529t1.803.529q.754.529 1.155 1.534.405 1.005.405 2.429 0 1.431-.405 2.446-.4 1.01-1.155 1.543-.75.532-1.803.532m0-1.334q.819 0 1.292-.805.477-.81.477-2.382 0-1.04-.217-1.747-.218-.708-.614-1.066a1.34 1.34 0 0 0-.938-.362q-.813 0-1.287.81-.472.805-.477 2.365-.004 1.044.209 1.756.217.711.614 1.073.396.359.941.358m8.328-7.56V32h-1.581v-7.189h-.051l-2.041 1.304v-1.449l2.169-1.393zm3.183 7.68a.91.91 0 0 1-.664-.273.9.9 0 0 1-.273-.665.87.87 0 0 1 .273-.656.91.91 0 0 1 .664-.273q.376 0 .652.273a.895.895 0 0 1 .15 1.13 1 1 0 0 1-.341.34.9.9 0 0 1-.461.124m0-4.326a.91.91 0 0 1-.664-.272.9.9 0 0 1-.273-.665.87.87 0 0 1 .273-.656.9.9 0 0 1 .664-.277.9.9 0 0 1 .652.277q.282.272.286.656a.9.9 0 0 1-.136.469 1 1 0 0 1-.341.34.87.87 0 0 1-.461.128m6.063-3.353V32h-1.581v-7.189h-.051l-2.041 1.304v-1.449l2.169-1.393zm5.442 8.893q-1.053 0-1.807-.532-.75-.537-1.155-1.547-.4-1.015-.4-2.442.005-1.427.405-2.43.405-1.004 1.154-1.533.754-.529 1.803-.529t1.803.529q.753.529 1.154 1.534.405 1.005.405 2.429 0 1.431-.405 2.446-.4 1.01-1.154 1.543-.75.532-1.803.532m0-1.334q.819 0 1.291-.805.477-.81.478-2.382 0-1.04-.218-1.747-.217-.708-.613-1.066a1.35 1.35 0 0 0-.938-.362q-.815 0-1.287.81-.472.805-.477 2.365-.004 1.044.209 1.756.217.711.613 1.073.396.359.942.358"/><path stroke="#3369ff" stroke-dasharray="6 6" d="M297 48v85M496 48v85"/><path fill="#3369ff" d="M327.646 27.646a.5.5 0 0 0 0 .708l3.182 3.182a.501.501 0 0 0 .708-.708L328.707 28l2.829-2.828a.5.5 0 0 0-.708-.707zM356 28v-.5h-28v1h28z"/><path fill="#b3c7ff" d="M369.486 18.727V26h-1.097v-7.273zm2.465 4.034V26h-1.062v-5.454h1.019v.887h.067a1.56 1.56 0 0 1 .59-.696q.405-.263 1.019-.263.558 0 .977.235.419.23.65.689.23.458.23 1.133V26h-1.061v-3.342q0-.593-.309-.927-.309-.336-.849-.337a1.33 1.33 0 0 0-.657.16 1.15 1.15 0 0 0-.451.469q-.163.305-.163.738m7.351-2.215v.852h-2.98v-.852zm-2.181-1.307h1.062v5.16q0 .308.092.465a.5.5 0 0 0 .238.21q.15.052.323.052.129 0 .224-.017l.149-.029.192.877a2.068 2.068 0 0 1-.689.114 1.9 1.9 0 0 1-.781-.15 1.34 1.34 0 0 1-.586-.482q-.224-.327-.224-.82zm5.537 6.871q-.806 0-1.388-.344a2.34 2.34 0 0 1-.895-.977q-.312-.632-.313-1.48 0-.84.313-1.478.316-.64.881-.998.567-.359 1.328-.359.461 0 .895.153.433.153.777.48t.544.848q.199.519.199 1.26v.377h-4.336v-.795h3.295q0-.42-.17-.742a1.29 1.29 0 0 0-1.197-.703q-.447 0-.781.22a1.5 1.5 0 0 0-.512.568 1.65 1.65 0 0 0-.177.756v.622q0 .546.191.93.196.384.544.586.348.2.813.199.302 0 .55-.085a1.14 1.14 0 0 0 .707-.692l1.005.18q-.12.445-.433.778-.309.33-.778.515-.465.18-1.062.181m3.409-.11v-5.454h1.026v.866h.057q.149-.44.525-.692.38-.256.86-.256a5 5 0 0 1 .451.025v1.015a2 2 0 0 0-.228-.039 2 2 0 0 0-.326-.025 1.4 1.4 0 0 0-.672.16q-.291.156-.461.437a1.2 1.2 0 0 0-.171.632V26zm8.56-5.454L392.649 26h-1.137l-1.981-5.454h1.14l1.381 4.197h.057l1.378-4.197zm2.319 5.575q-.519 0-.938-.192a1.6 1.6 0 0 1-.664-.565q-.241-.37-.241-.905 0-.462.177-.76a1.3 1.3 0 0 1 .48-.472q.302-.174.674-.263a7 7 0 0 1 .76-.135l.796-.093q.305-.039.444-.124.138-.085.138-.277v-.025q0-.465-.263-.72-.26-.256-.774-.256-.536 0-.845.238-.305.234-.423.522l-.997-.228q.177-.497.518-.802.345-.309.792-.448a3.1 3.1 0 0 1 .941-.142q.327 0 .692.079.37.075.689.276.324.203.529.58.207.372.206.969V26H398.6v-.746h-.042a1.5 1.5 0 0 1-.309.405 1.6 1.6 0 0 1-.529.33 2.1 2.1 0 0 1-.774.132m.23-.852q.441 0 .753-.174a1.2 1.2 0 0 0 .48-.455q.167-.285.167-.607v-.704a.6.6 0 0 1-.221.107q-.16.046-.365.082l-.402.06q-.195.024-.326.043a2.7 2.7 0 0 0-.565.131 1 1 0 0 0-.405.267.67.67 0 0 0-.149.454q0 .395.291.597.291.198.742.198m4.827-6.542V26h-1.061v-7.273zM407.041 26l-1.605-5.454h1.097l1.069 4.005h.053l1.073-4.005h1.097l1.065 3.987h.054l1.061-3.988h1.098L411.501 26h-1.083l-1.108-3.938h-.082L408.12 26zM414 26v-5.454h1.062V26zm.537-6.296a.67.67 0 0 1-.476-.185.6.6 0 0 1-.196-.447q0-.263.196-.448a.67.67 0 0 1 .476-.188q.276 0 .472.188a.6.6 0 0 1 .199.448.6.6 0 0 1-.199.447.66.66 0 0 1-.472.185m4.39.841v.853h-2.98v-.852zm-2.181-1.306h1.062v5.16q0 .308.092.465a.5.5 0 0 0 .238.21q.15.052.324.052.127 0 .223-.017l.149-.029.192.877a2.06 2.06 0 0 1-.689.114 1.9 1.9 0 0 1-.781-.15 1.34 1.34 0 0 1-.586-.482q-.224-.327-.224-.82zm4.424 3.522V26h-1.062v-7.273h1.048v2.706h.068q.191-.44.585-.7.395-.259 1.03-.259.561 0 .98.231.423.231.654.69.234.453.234 1.136V26h-1.062v-3.342q0-.6-.309-.93-.309-.334-.859-.334-.376 0-.675.16a1.16 1.16 0 0 0-.465.469q-.167.305-.167.738m-54.627 15.36q-.52 0-.938-.192a1.6 1.6 0 0 1-.664-.565q-.242-.37-.242-.905 0-.462.178-.76.177-.298.479-.472.303-.174.675-.263a7 7 0 0 1 .76-.135l.796-.093q.305-.038.443-.124.14-.085.139-.277v-.025q0-.465-.263-.72-.26-.256-.774-.256-.536 0-.845.238a1.27 1.27 0 0 0-.423.522l-.998-.227q.178-.498.519-.803.344-.309.792-.447a3.1 3.1 0 0 1 .941-.143q.327 0 .692.079.37.075.689.277.324.202.529.578.207.373.206.97V38h-1.037v-.746h-.042a1.5 1.5 0 0 1-.309.405 1.7 1.7 0 0 1-.529.33 2.1 2.1 0 0 1-.774.132m.23-.852q.441 0 .753-.175a1.2 1.2 0 0 0 .48-.454 1.2 1.2 0 0 0 .166-.607v-.703a.55.55 0 0 1-.22.106q-.16.045-.365.082l-.402.06q-.195.024-.326.043-.31.04-.565.131a1 1 0 0 0-.405.267.67.67 0 0 0-.149.454q0 .395.291.597.292.199.742.199m3.766 2.776v-7.5h1.036v.885h.089q.093-.17.267-.395.174-.224.483-.39.308-.17.816-.17.661 0 1.179.333.519.334.813.963.299.629.299 1.512 0 .885-.295 1.517a2.3 2.3 0 0 1-.81.97 2.1 2.1 0 0 1-1.175.336q-.498 0-.813-.166a1.5 1.5 0 0 1-.49-.391 3 3 0 0 1-.274-.398h-.064v2.894zm1.04-4.772q0 .575.167 1.008.166.434.483.678.317.242.774.242.476 0 .795-.252a1.55 1.55 0 0 0 .483-.693q.168-.436.167-.983 0-.54-.163-.97a1.5 1.5 0 0 0-.483-.678q-.32-.249-.799-.249-.462 0-.781.238a1.46 1.46 0 0 0-.48.664 2.8 2.8 0 0 0-.163.995m5.021 4.772v-7.5h1.037v.885h.089q.092-.17.266-.395.174-.224.483-.39.31-.17.817-.17.66 0 1.179.333.519.334.813.963.299.629.299 1.512 0 .885-.295 1.517a2.3 2.3 0 0 1-.81.97 2.1 2.1 0 0 1-1.175.336q-.498 0-.813-.166a1.5 1.5 0 0 1-.49-.391 3 3 0 0 1-.274-.398h-.064v2.894zm1.041-4.772q0 .575.167 1.008t.483.678q.315.242.774.242.475 0 .795-.252.32-.255.483-.693.168-.436.167-.983 0-.54-.163-.97a1.5 1.5 0 0 0-.483-.678q-.32-.249-.799-.249-.462 0-.781.238a1.46 1.46 0 0 0-.48.664 2.8 2.8 0 0 0-.163.995m6.083-4.546V38h-1.062v-7.273zM385.042 38v-5.455h1.062V38zm.537-6.296a.67.67 0 0 1-.476-.185.6.6 0 0 1-.195-.447q0-.263.195-.448a.67.67 0 0 1 .476-.188q.277 0 .472.188a.59.59 0 0 1 .199.448.6.6 0 0 1-.199.447.66.66 0 0 1-.472.185m4.195 6.406q-.807 0-1.389-.344a2.34 2.34 0 0 1-.895-.977q-.312-.632-.312-1.48 0-.84.312-1.478.316-.64.881-.998.568-.359 1.328-.359.462 0 .895.153t.778.48q.343.326.543.848.199.519.199 1.26v.377h-4.336v-.795h3.295q0-.42-.17-.742a1.29 1.29 0 0 0-1.197-.703q-.447 0-.781.22-.33.217-.512.568a1.65 1.65 0 0 0-.177.756v.622q0 .547.192.93.195.384.543.586.348.2.813.199.302 0 .551-.085.248-.09.429-.263a1.14 1.14 0 0 0 .277-.43l1.005.181q-.12.444-.433.778-.309.33-.778.515a2.9 2.9 0 0 1-1.061.181m5.45-.004a2.1 2.1 0 0 1-1.179-.337 2.3 2.3 0 0 1-.81-.97q-.291-.63-.291-1.516 0-.884.295-1.512.298-.63.816-.963a2.13 2.13 0 0 1 1.176-.334q.507 0 .817.17.312.167.483.392.174.223.269.394h.064v-2.703h1.062V38h-1.037v-.849h-.089a2.7 2.7 0 0 1-.277.398q-.177.225-.49.39-.312.168-.809.167m.234-.905q.459 0 .774-.242.32-.245.483-.678a2.8 2.8 0 0 0 .167-1.008q0-.569-.163-.995a1.46 1.46 0 0 0-.48-.664q-.315-.237-.781-.238-.479 0-.799.249a1.5 1.5 0 0 0-.483.678q-.16.43-.16.97 0 .546.164.983.163.437.483.693.322.252.795.252m8.708.91q-.768 0-1.339-.352a2.37 2.37 0 0 1-.888-.984q-.316-.633-.316-1.477 0-.849.316-1.485a2.37 2.37 0 0 1 .888-.987q.571-.352 1.339-.352.767 0 1.338.352.573.351.888.987t.316 1.485q0 .844-.316 1.477a2.36 2.36 0 0 1-.888.983q-.572.352-1.338.352m.003-.892q.497 0 .824-.263.327-.262.483-.7.16-.436.16-.962a2.8 2.8 0 0 0-.16-.959 1.56 1.56 0 0 0-.483-.706q-.327-.267-.824-.267-.501 0-.831.267a1.6 1.6 0 0 0-.486.706q-.156.437-.156.959 0 .525.156.962.159.438.486.7.33.263.831.263m6.21-4.674v.853h-3.082v-.853zM408.142 38v-6.087q0-.51.224-.848.224-.342.593-.508.37-.17.802-.17.32 0 .547.053.227.05.338.092l-.249.86-.192-.05a1 1 0 0 0-.284-.032q-.387 0-.554.191-.163.192-.163.554V38zm5.819-5.455v.853h-3.083v-.853zM411.724 38v-6.087q0-.51.223-.848.224-.342.593-.508.37-.17.803-.17.32 0 .547.053.227.05.337.092l-.248.86-.192-.05a1 1 0 0 0-.284-.032q-.387 0-.554.191-.164.192-.164.554V38zm7.105-4.123-.963.17a1.1 1.1 0 0 0-.192-.351.95.95 0 0 0-.348-.273 1.26 1.26 0 0 0-.55-.107q-.451 0-.753.203-.302.198-.302.514 0 .275.203.44.203.168.653.274l.867.199q.753.174 1.122.536t.369.941q0 .49-.284.874a1.86 1.86 0 0 1-.785.597 2.9 2.9 0 0 1-1.161.216q-.916 0-1.495-.39-.58-.394-.71-1.12l1.026-.155q.096.401.394.607.298.202.778.202.522 0 .834-.216.313-.22.313-.537a.56.56 0 0 0-.192-.43q-.187-.173-.579-.262l-.923-.203q-.763-.174-1.129-.553-.363-.381-.362-.963 0-.483.269-.845.27-.362.746-.565a2.7 2.7 0 0 1 1.09-.206q.885 0 1.392.384.508.38.672 1.02m3.514 4.233q-.806 0-1.388-.344a2.34 2.34 0 0 1-.895-.977q-.312-.632-.312-1.48 0-.84.312-1.478.316-.64.881-.998.568-.359 1.328-.359.462 0 .895.153t.777.48q.345.326.544.848.199.519.199 1.26v.377h-4.336v-.795h3.295q0-.42-.17-.742a1.29 1.29 0 0 0-1.197-.703q-.448 0-.781.22-.33.217-.512.568a1.65 1.65 0 0 0-.177.756v.622q0 .547.192.93.195.384.543.586.348.2.813.199.302 0 .55-.085a1.14 1.14 0 0 0 .707-.692l1.005.18q-.12.444-.433.778-.309.33-.778.515-.465.18-1.062.181m5.955-5.565v.853h-2.98v-.853zm-2.181-1.306h1.062v5.16q0 .307.093.465.091.152.238.21a1 1 0 0 0 .323.052q.127 0 .223-.017l.15-.029.191.877a2.079 2.079 0 0 1-.689.114 1.9 1.9 0 0 1-.781-.15 1.34 1.34 0 0 1-.586-.482q-.224-.327-.224-.82z"/><path fill="#3369ff" d="M465.354 28.354a.5.5 0 0 0 0-.708l-3.182-3.181a.501.501 0 0 0-.708.707L464.293 28l-2.829 2.828a.5.5 0 0 0 .708.707zM465 28v-.5h-28v1h28z"/><path fill="#888c96" d="M264.646 148.646a.5.5 0 0 0 0 .708l3.182 3.182a.502.502 0 0 0 .708-.708L265.707 149l2.829-2.828a.502.502 0 0 0-.708-.708zM312 149v-.5h-47v1h47z"/><path fill="#edeef3" d="M325.135 147.638a1.04 1.04 0 0 0-.469-.781q-.411-.28-1.037-.281-.447 0-.774.142-.327.138-.508.384a.9.9 0 0 0-.177.55q0 .26.12.447.125.189.324.316.202.124.433.21.231.081.444.135l.71.185q.348.084.714.23t.678.384.504.589q.196.352.196.842 0 .618-.32 1.097-.316.48-.92.757-.6.276-1.452.277-.817 0-1.414-.259a2.2 2.2 0 0 1-.934-.736 2.13 2.13 0 0 1-.372-1.136h1.1q.033.394.256.657.228.26.579.387.355.124.778.124.465 0 .827-.145.366-.15.575-.412a.98.98 0 0 0 .21-.622.77.77 0 0 0-.185-.529 1.4 1.4 0 0 0-.493-.341 5 5 0 0 0-.7-.238l-.859-.234q-.874-.238-1.385-.699-.508-.462-.508-1.222 0-.629.341-1.097.34-.47.923-.728a3.15 3.15 0 0 1 1.314-.263q.739 0 1.303.259.568.26.895.714.327.451.341 1.037zm4.82-.093v.853h-2.98v-.853zm-2.181-1.306h1.062v5.159q0 .309.092.466a.5.5 0 0 0 .238.209 1 1 0 0 0 .324.053q.127 0 .223-.017l.149-.029.192.877a1.6 1.6 0 0 1-.263.071 2 2 0 0 1-.426.043 1.9 1.9 0 0 1-.781-.149 1.34 1.34 0 0 1-.586-.483q-.224-.327-.224-.82zm4.833 6.882q-.519 0-.938-.192a1.57 1.57 0 0 1-.664-.565q-.241-.37-.241-.905 0-.462.177-.76.178-.298.48-.472t.674-.263a7 7 0 0 1 .76-.135l.796-.092q.304-.04.444-.125.138-.085.138-.277v-.025q0-.465-.263-.721-.26-.255-.774-.255-.536 0-.845.238-.305.234-.423.522l-.997-.228q.177-.496.518-.802.345-.309.792-.448a3.1 3.1 0 0 1 1.633-.063q.37.074.689.277.324.201.529.578.207.373.206.97V153h-1.037v-.746h-.042a1.5 1.5 0 0 1-.309.405 1.6 1.6 0 0 1-.529.33 2 2 0 0 1-.774.132m.23-.853q.441 0 .753-.174.317-.174.48-.454.167-.284.167-.607v-.703a.6.6 0 0 1-.221.106 3 3 0 0 1-.365.082l-.402.06-.326.043q-.309.04-.565.131a1 1 0 0 0-.405.266.67.67 0 0 0-.149.455q0 .394.291.597.292.198.742.198m4.827-2.507V153h-1.061v-5.455h1.019v.888h.067q.188-.433.59-.696.404-.263 1.019-.263.558 0 .977.235.418.23.649.689t.231 1.133V153h-1.062v-3.342q0-.593-.309-.926-.308-.338-.848-.338-.369 0-.657.16-.285.16-.451.469-.164.305-.164.738m6.847 3.346q-.66 0-1.179-.338a2.3 2.3 0 0 1-.81-.969q-.291-.632-.291-1.517 0-.883.295-1.512.298-.629.817-.963a2.13 2.13 0 0 1 1.175-.334q.508 0 .817.171.312.166.483.391.174.223.27.394h.064v-2.703h1.062V153h-1.037v-.849h-.089a3 3 0 0 1-.277.398 1.6 1.6 0 0 1-.49.391q-.313.167-.81.167m.234-.906q.459 0 .775-.241a1.5 1.5 0 0 0 .483-.679q.166-.433.166-1.008 0-.569-.163-.995a1.47 1.47 0 0 0-.479-.664q-.316-.237-.782-.238-.478 0-.799.249a1.5 1.5 0 0 0-.482.678 2.8 2.8 0 0 0-.16.97q0 .546.163.983t.483.693q.323.252.795.252m5.461.92q-.518 0-.937-.192a1.57 1.57 0 0 1-.664-.565q-.242-.37-.242-.905 0-.462.178-.76.177-.298.479-.472t.675-.263a7 7 0 0 1 .76-.135l.795-.092q.306-.04.444-.125.14-.085.139-.277v-.025q0-.465-.263-.721-.26-.255-.774-.255-.537 0-.845.238-.306.234-.423.522l-.998-.228q.178-.496.519-.802.344-.309.792-.448a3.1 3.1 0 0 1 1.633-.063q.37.074.689.277.323.201.529.578.206.373.206.97V153h-1.037v-.746h-.042a1.5 1.5 0 0 1-.309.405 1.6 1.6 0 0 1-.53.33 2 2 0 0 1-.774.132m.231-.853q.441 0 .753-.174a1.21 1.21 0 0 0 .646-1.061v-.703a.6.6 0 0 1-.22.106 3 3 0 0 1-.366.082l-.401.06-.327.043a2.7 2.7 0 0 0-.564.131 1 1 0 0 0-.405.266.67.67 0 0 0-.149.455q0 .394.291.597.29.198.742.198m3.765.732v-5.455h1.027v.867h.056q.15-.44.526-.693.38-.255.859-.255a4 4 0 0 1 .451.025v1.015a2 2 0 0 0-.227-.039 2 2 0 0 0-.327-.025q-.376 0-.671.16-.291.156-.461.437a1.2 1.2 0 0 0-.171.632V153zm5.575.107a2.1 2.1 0 0 1-1.179-.338 2.3 2.3 0 0 1-.81-.969q-.291-.632-.291-1.517 0-.883.295-1.512.299-.629.816-.963a2.13 2.13 0 0 1 1.176-.334q.507 0 .817.171.312.166.483.391.174.223.27.394h.063v-2.703h1.062V153h-1.037v-.849h-.088a3 3 0 0 1-.277.398 1.6 1.6 0 0 1-.491.391q-.312.167-.809.167m.234-.906q.459 0 .774-.241a1.5 1.5 0 0 0 .483-.679 2.8 2.8 0 0 0 .167-1.008q0-.569-.163-.995a1.46 1.46 0 0 0-.48-.664q-.315-.237-.781-.238-.479 0-.799.249a1.5 1.5 0 0 0-.483.678q-.16.43-.16.97 0 .546.164.983.163.437.483.693.322.252.795.252m6.41.799v-5.455h1.062V153zm.536-6.296a.67.67 0 0 1-.475-.185.6.6 0 0 1-.196-.447q0-.263.196-.448a.67.67 0 0 1 .475-.188.66.66 0 0 1 .473.188.6.6 0 0 1 .199.448.6.6 0 0 1-.199.447.67.67 0 0 1-.473.185m2.906 3.057V153h-1.062v-5.455h1.02v.888h.067q.189-.433.59-.696.404-.263 1.019-.263.557 0 .976.235.42.23.65.689t.231 1.133V153h-1.062v-3.342q0-.593-.309-.926-.309-.338-.849-.338a1.3 1.3 0 0 0-.656.16q-.285.16-.451.469-.164.305-.164.738m7.351-2.216v.853h-2.979v-.853zm-2.18-1.306h1.062v5.159q0 .309.092.466a.5.5 0 0 0 .238.209 1 1 0 0 0 .323.053q.128 0 .224-.017l.149-.029.192.877q-.093.036-.263.071a2 2 0 0 1-.426.043 1.9 1.9 0 0 1-.782-.149 1.35 1.35 0 0 1-.586-.483q-.223-.327-.223-.82zm5.537 6.871q-.805 0-1.389-.344a2.34 2.34 0 0 1-.894-.977q-.313-.632-.313-1.481 0-.837.313-1.477.316-.64.88-.998.569-.359 1.328-.359.462 0 .895.153t.778.48.543.848q.2.519.199 1.261v.376h-4.336v-.795h3.296q0-.419-.171-.742a1.3 1.3 0 0 0-.479-.515 1.34 1.34 0 0 0-.718-.188q-.447 0-.781.22a1.5 1.5 0 0 0-.511.568 1.6 1.6 0 0 0-.178.756v.622q0 .546.192.93.195.384.543.586.348.2.814.199.301 0 .55-.085.249-.089.43-.263.18-.174.277-.43l1.005.181a1.8 1.8 0 0 1-.434.778q-.309.33-.777.515-.465.181-1.062.181m3.408-.11v-5.455h1.026v.867h.057q.15-.44.526-.693.38-.255.859-.255a4 4 0 0 1 .451.025v1.015a2 2 0 0 0-.227-.039 2 2 0 0 0-.327-.025q-.376 0-.671.16a1.19 1.19 0 0 0-.632 1.069V153zm8.56-5.455L390.561 153h-1.136l-1.982-5.455h1.14l1.382 4.198h.057l1.377-4.198zm2.319 5.576q-.518 0-.937-.192a1.57 1.57 0 0 1-.664-.565q-.242-.37-.242-.905 0-.462.178-.76.177-.298.479-.472t.675-.263a7 7 0 0 1 .76-.135l.795-.092q.306-.04.444-.125.14-.085.139-.277v-.025q0-.465-.263-.721-.26-.255-.774-.255-.536 0-.845.238-.306.234-.423.522l-.998-.228q.178-.496.519-.802.344-.309.792-.448a3.1 3.1 0 0 1 1.633-.063q.37.074.689.277.323.201.529.578.206.373.206.97V153h-1.037v-.746h-.043a1.5 1.5 0 0 1-.308.405 1.6 1.6 0 0 1-.53.33 2 2 0 0 1-.774.132m.231-.853q.441 0 .753-.174.316-.174.479-.454.168-.284.167-.607v-.703a.6.6 0 0 1-.22.106 3 3 0 0 1-.366.082l-.401.06-.327.043a2.7 2.7 0 0 0-.564.131 1 1 0 0 0-.405.266.67.67 0 0 0-.149.455q0 .394.291.597.29.198.742.198m4.827-6.541V153h-1.062v-7.273z"/><path fill="#888c96" d="M456.354 149.354a.5.5 0 0 0 0-.708l-3.182-3.182a.502.502 0 0 0-.708.708l2.829 2.828-2.829 2.828a.502.502 0 0 0 .708.708zM456 149v-.5h-47v1h47z"/></g><defs><clipPath id="a"><path fill="#fff" d="M0 0h720v169H0z"/></clipPath><clipPath id="b"><path fill="#fff" d="M0-8h720v314H0z"/></clipPath></defs></svg>