<svg xmlns="http://www.w3.org/2000/svg" width="720" height="469" fill="none" viewBox="0 0 720 469"><g clip-path="url(#a)"><path fill="#fff" d="M0 0h720v469H0z"/><g fill="#c1c3c8" clip-path="url(#b)" opacity=".5"><circle cx="3" cy="17" r="1"/><circle cx="87" cy="17" r="1"/><circle cx="73" cy="17" r="1"/><circle cx="17" cy="17" r="1"/><circle cx="101" cy="17" r="1"/><circle cx="3" cy="3" r="1"/><circle cx="87" cy="3" r="1"/><circle cx="73" cy="3" r="1"/><circle cx="17" cy="3" r="1"/><circle cx="101" cy="3" r="1"/><circle cx="3" cy="31" r="1"/><circle cx="87" cy="31" r="1"/><circle cx="73" cy="31" r="1"/><circle cx="17" cy="31" r="1"/><circle cx="101" cy="31" r="1"/><circle cx="45" cy="17" r="1"/><circle cx="129" cy="17" r="1"/><circle cx="31" cy="17" r="1"/><circle cx="115" cy="17" r="1"/><circle cx="59" cy="17" r="1"/><circle cx="143" cy="17" r="1"/><circle cx="45" cy="3" r="1"/><circle cx="129" cy="3" r="1"/><circle cx="31" cy="3" r="1"/><circle cx="115" cy="3" r="1"/><circle cx="59" cy="3" r="1"/><circle cx="143" cy="3" r="1"/><circle cx="45" cy="31" r="1"/><circle cx="129" cy="31" r="1"/><circle cx="31" cy="31" r="1"/><circle cx="115" cy="31" r="1"/><circle cx="59" cy="31" r="1"/><circle cx="143" cy="31" r="1"/><circle cx="3" cy="59" r="1"/><circle cx="87" cy="59" r="1"/><circle cx="3" cy="101" r="1"/><circle cx="87" cy="101" r="1"/><circle cx="3" cy="143" r="1"/><circle cx="87" cy="143" r="1"/><circle cx="3" cy="185" r="1"/><circle cx="87" cy="185" r="1"/><circle cx="3" cy="227" r="1"/><circle cx="87" cy="227" r="1"/><circle cx="3" cy="269" r="1"/><circle cx="87" cy="269" r="1"/><circle cx="3" cy="311" r="1"/><circle cx="87" cy="311" r="1"/><circle cx="73" cy="59" r="1"/><circle cx="73" cy="101" r="1"/><circle cx="73" cy="143" r="1"/><circle cx="73" cy="185" r="1"/><circle cx="73" cy="227" r="1"/><circle cx="73" cy="269" r="1"/><circle cx="73" cy="311" r="1"/><circle cx="17" cy="59" r="1"/><circle cx="101" cy="59" r="1"/><circle cx="17" cy="101" r="1"/><circle cx="101" cy="101" r="1"/><circle cx="17" cy="143" r="1"/><circle cx="101" cy="143" r="1"/><circle cx="17" cy="185" r="1"/><circle cx="101" cy="185" r="1"/><circle cx="17" cy="227" r="1"/><circle cx="101" cy="227" r="1"/><circle cx="17" cy="269" r="1"/><circle cx="101" cy="269" r="1"/><circle cx="17" cy="311" r="1"/><circle cx="101" cy="311" r="1"/><circle cx="3" cy="45" r="1"/><circle cx="87" cy="45" r="1"/><circle cx="3" cy="87" r="1"/><circle cx="87" cy="87" r="1"/><circle cx="3" cy="129" r="1"/><circle cx="87" cy="129" r="1"/><circle cx="3" cy="171" r="1"/><circle cx="87" cy="171" r="1"/><circle cx="3" cy="213" r="1"/><circle cx="87" cy="213" r="1"/><circle cx="3" cy="255" r="1"/><circle cx="87" cy="255" r="1"/><circle cx="3" cy="297" r="1"/><circle cx="87" cy="297" r="1"/><circle cx="73" cy="45" r="1"/><circle cx="73" cy="87" r="1"/><circle cx="73" cy="129" r="1"/><circle cx="73" cy="171" r="1"/><circle cx="73" cy="213" r="1"/><circle cx="73" cy="255" r="1"/><circle cx="73" cy="297" r="1"/><circle cx="17" cy="45" r="1"/><circle cx="101" cy="45" r="1"/><circle cx="17" cy="87" r="1"/><circle cx="101" cy="87" r="1"/><circle cx="17" cy="129" r="1"/><circle cx="101" cy="129" r="1"/><circle cx="17" cy="171" r="1"/><circle cx="101" cy="171" r="1"/><circle cx="17" cy="213" r="1"/><circle cx="101" cy="213" r="1"/><circle cx="17" cy="255" r="1"/><circle cx="101" cy="255" r="1"/><circle cx="17" cy="297" r="1"/><circle cx="101" cy="297" r="1"/><circle cx="3" cy="73" r="1"/><circle cx="87" cy="73" r="1"/><circle cx="3" cy="115" r="1"/><circle cx="87" cy="115" r="1"/><circle cx="3" cy="157" r="1"/><circle cx="87" cy="157" r="1"/><circle cx="3" cy="199" r="1"/><circle cx="87" cy="199" r="1"/><circle cx="3" cy="241" r="1"/><circle cx="87" cy="241" r="1"/><circle cx="3" cy="283" r="1"/><circle cx="87" cy="283" r="1"/><circle cx="3" cy="325" r="1"/><circle cx="87" cy="325" r="1"/><circle cx="73" cy="73" r="1"/><circle cx="73" cy="115" r="1"/><circle cx="73" cy="157" r="1"/><circle cx="73" cy="199" r="1"/><circle cx="73" cy="241" r="1"/><circle cx="73" cy="283" r="1"/><circle cx="73" cy="325" r="1"/><circle cx="17" cy="73" r="1"/><circle cx="101" cy="73" r="1"/><circle cx="17" cy="115" r="1"/><circle cx="101" cy="115" r="1"/><circle cx="17" cy="157" r="1"/><circle cx="101" cy="157" r="1"/><circle cx="17" cy="199" r="1"/><circle cx="101" cy="199" r="1"/><circle cx="17" cy="241" r="1"/><circle cx="101" cy="241" r="1"/><circle cx="17" cy="283" r="1"/><circle cx="101" cy="283" r="1"/><circle cx="17" cy="325" r="1"/><circle cx="101" cy="325" r="1"/><circle cx="45" cy="59" r="1"/><circle cx="129" cy="59" r="1"/><circle cx="45" cy="101" r="1"/><circle cx="129" cy="101" r="1"/><circle cx="45" cy="143" r="1"/><circle cx="129" cy="143" r="1"/><circle cx="45" cy="185" r="1"/><circle cx="129" cy="185" r="1"/><circle cx="45" cy="227" r="1"/><circle cx="129" cy="227" r="1"/><circle cx="45" cy="269" r="1"/><circle cx="129" cy="269" r="1"/><circle cx="45" cy="311" r="1"/><circle cx="129" cy="311" r="1"/><circle cx="31" cy="59" r="1"/><circle cx="115" cy="59" r="1"/><circle cx="31" cy="101" r="1"/><circle cx="115" cy="101" r="1"/><circle cx="31" cy="143" r="1"/><circle cx="115" cy="143" r="1"/><circle cx="31" cy="185" r="1"/><circle cx="115" cy="185" r="1"/><circle cx="31" cy="227" r="1"/><circle cx="115" cy="227" r="1"/><circle cx="31" cy="269" r="1"/><circle cx="115" cy="269" r="1"/><circle cx="31" cy="311" r="1"/><circle cx="115" cy="311" r="1"/><circle cx="59" cy="59" r="1"/><circle cx="143" cy="59" r="1"/><circle cx="59" cy="101" r="1"/><circle cx="143" cy="101" r="1"/><circle cx="59" cy="143" r="1"/><circle cx="143" cy="143" r="1"/><circle cx="59" cy="185" r="1"/><circle cx="143" cy="185" r="1"/><circle cx="59" cy="227" r="1"/><circle cx="143" cy="227" r="1"/><circle cx="59" cy="269" r="1"/><circle cx="143" cy="269" r="1"/><circle cx="59" cy="311" r="1"/><circle cx="143" cy="311" r="1"/><circle cx="45" cy="45" r="1"/><circle cx="129" cy="45" r="1"/><circle cx="45" cy="87" r="1"/><circle cx="129" cy="87" r="1"/><circle cx="45" cy="129" r="1"/><circle cx="129" cy="129" r="1"/><circle cx="45" cy="171" r="1"/><circle cx="129" cy="171" r="1"/><circle cx="45" cy="213" r="1"/><circle cx="129" cy="213" r="1"/><circle cx="45" cy="255" r="1"/><circle cx="129" cy="255" r="1"/><circle cx="45" cy="297" r="1"/><circle cx="129" cy="297" r="1"/><circle cx="31" cy="45" r="1"/><circle cx="115" cy="45" r="1"/><circle cx="31" cy="87" r="1"/><circle cx="115" cy="87" r="1"/><circle cx="31" cy="129" r="1"/><circle cx="115" cy="129" r="1"/><circle cx="31" cy="171" r="1"/><circle cx="115" cy="171" r="1"/><circle cx="31" cy="213" r="1"/><circle cx="115" cy="213" r="1"/><circle cx="31" cy="255" r="1"/><circle cx="115" cy="255" r="1"/><circle cx="31" cy="297" r="1"/><circle cx="115" cy="297" r="1"/><circle cx="59" cy="45" r="1"/><circle cx="143" cy="45" r="1"/><circle cx="59" cy="87" r="1"/><circle cx="143" cy="87" r="1"/><circle cx="59" cy="129" r="1"/><circle cx="143" cy="129" r="1"/><circle cx="59" cy="171" r="1"/><circle cx="143" cy="171" r="1"/><circle cx="59" cy="213" r="1"/><circle cx="143" cy="213" r="1"/><circle cx="59" cy="255" r="1"/><circle cx="143" cy="255" r="1"/><circle cx="59" cy="297" r="1"/><circle cx="143" cy="297" r="1"/><circle cx="45" cy="73" r="1"/><circle cx="129" cy="73" r="1"/><circle cx="45" cy="115" r="1"/><circle cx="129" cy="115" r="1"/><circle cx="45" cy="157" r="1"/><circle cx="129" cy="157" r="1"/><circle cx="45" cy="199" r="1"/><circle cx="129" cy="199" r="1"/><circle cx="45" cy="241" r="1"/><circle cx="129" cy="241" r="1"/><circle cx="45" cy="283" r="1"/><circle cx="129" cy="283" r="1"/><circle cx="45" cy="325" r="1"/><circle cx="129" cy="325" r="1"/><circle cx="31" cy="73" r="1"/><circle cx="115" cy="73" r="1"/><circle cx="31" cy="115" r="1"/><circle cx="115" cy="115" r="1"/><circle cx="31" cy="157" r="1"/><circle cx="115" cy="157" r="1"/><circle cx="31" cy="199" r="1"/><circle cx="115" cy="199" r="1"/><circle cx="31" cy="241" r="1"/><circle cx="115" cy="241" r="1"/><circle cx="31" cy="283" r="1"/><circle cx="115" cy="283" r="1"/><circle cx="31" cy="325" r="1"/><circle cx="115" cy="325" r="1"/><circle cx="59" cy="73" r="1"/><circle cx="143" cy="73" r="1"/><circle cx="59" cy="115" r="1"/><circle cx="143" cy="115" r="1"/><circle cx="59" cy="157" r="1"/><circle cx="143" cy="157" r="1"/><circle cx="59" cy="199" r="1"/><circle cx="143" cy="199" r="1"/><circle cx="59" cy="241" r="1"/><circle cx="143" cy="241" r="1"/><circle cx="59" cy="283" r="1"/><circle cx="143" cy="283" r="1"/><circle cx="59" cy="325" r="1"/><circle cx="143" cy="325" r="1"/><circle cx="171" cy="17" r="1"/><circle cx="255" cy="17" r="1"/><circle cx="157" cy="17" r="1"/><circle cx="241" cy="17" r="1"/><circle cx="185" cy="17" r="1"/><circle cx="269" cy="17" r="1"/><circle cx="171" cy="3" r="1"/><circle cx="255" cy="3" r="1"/><circle cx="157" cy="3" r="1"/><circle cx="241" cy="3" r="1"/><circle cx="185" cy="3" r="1"/><circle cx="269" cy="3" r="1"/><circle cx="171" cy="31" r="1"/><circle cx="255" cy="31" r="1"/><circle cx="157" cy="31" r="1"/><circle cx="241" cy="31" r="1"/><circle cx="185" cy="31" r="1"/><circle cx="269" cy="31" r="1"/><circle cx="213" cy="17" r="1"/><circle cx="297" cy="17" r="1"/><circle cx="199" cy="17" r="1"/><circle cx="283" cy="17" r="1"/><circle cx="227" cy="17" r="1"/><circle cx="311" cy="17" r="1"/><circle cx="213" cy="3" r="1"/><circle cx="297" cy="3" r="1"/><circle cx="199" cy="3" r="1"/><circle cx="283" cy="3" r="1"/><circle cx="227" cy="3" r="1"/><circle cx="311" cy="3" r="1"/><circle cx="213" cy="31" r="1"/><circle cx="297" cy="31" r="1"/><circle cx="199" cy="31" r="1"/><circle cx="283" cy="31" r="1"/><circle cx="227" cy="31" r="1"/><circle cx="311" cy="31" r="1"/><circle cx="171" cy="59" r="1"/><circle cx="255" cy="59" r="1"/><circle cx="171" cy="101" r="1"/><circle cx="255" cy="101" r="1"/><circle cx="171" cy="143" r="1"/><circle cx="255" cy="143" r="1"/><circle cx="171" cy="185" r="1"/><circle cx="255" cy="185" r="1"/><circle cx="171" cy="227" r="1"/><circle cx="255" cy="227" r="1"/><circle cx="171" cy="269" r="1"/><circle cx="255" cy="269" r="1"/><circle cx="171" cy="311" r="1"/><circle cx="255" cy="311" r="1"/><circle cx="157" cy="59" r="1"/><circle cx="241" cy="59" r="1"/><circle cx="157" cy="101" r="1"/><circle cx="241" cy="101" r="1"/><circle cx="157" cy="143" r="1"/><circle cx="241" cy="143" r="1"/><circle cx="157" cy="185" r="1"/><circle cx="241" cy="185" r="1"/><circle cx="157" cy="227" r="1"/><circle cx="241" cy="227" r="1"/><circle cx="157" cy="269" r="1"/><circle cx="241" cy="269" r="1"/><circle cx="157" cy="311" r="1"/><circle cx="241" cy="311" r="1"/><circle cx="185" cy="59" r="1"/><circle cx="269" cy="59" r="1"/><circle cx="185" cy="101" r="1"/><circle cx="269" cy="101" r="1"/><circle cx="185" cy="143" r="1"/><circle cx="269" cy="143" r="1"/><circle cx="185" cy="185" r="1"/><circle cx="269" cy="185" r="1"/><circle cx="185" cy="227" r="1"/><circle cx="269" cy="227" r="1"/><circle cx="185" cy="269" r="1"/><circle cx="269" cy="269" r="1"/><circle cx="185" cy="311" r="1"/><circle cx="269" cy="311" r="1"/><circle cx="171" cy="45" r="1"/><circle cx="255" cy="45" r="1"/><circle cx="171" cy="87" r="1"/><circle cx="255" cy="87" r="1"/><circle cx="171" cy="129" r="1"/><circle cx="255" cy="129" r="1"/><circle cx="171" cy="171" r="1"/><circle cx="255" cy="171" r="1"/><circle cx="171" cy="213" r="1"/><circle cx="255" cy="213" r="1"/><circle cx="171" cy="255" r="1"/><circle cx="255" cy="255" r="1"/><circle cx="171" cy="297" r="1"/><circle cx="255" cy="297" r="1"/><circle cx="157" cy="45" r="1"/><circle cx="241" cy="45" r="1"/><circle cx="157" cy="87" r="1"/><circle cx="241" cy="87" r="1"/><circle cx="157" cy="129" r="1"/><circle cx="241" cy="129" r="1"/><circle cx="157" cy="171" r="1"/><circle cx="241" cy="171" r="1"/><circle cx="157" cy="213" r="1"/><circle cx="241" cy="213" r="1"/><circle cx="157" cy="255" r="1"/><circle cx="241" cy="255" r="1"/><circle cx="157" cy="297" r="1"/><circle cx="241" cy="297" r="1"/><circle cx="185" cy="45" r="1"/><circle cx="269" cy="45" r="1"/><circle cx="185" cy="87" r="1"/><circle cx="269" cy="87" r="1"/><circle cx="185" cy="129" r="1"/><circle cx="269" cy="129" r="1"/><circle cx="185" cy="171" r="1"/><circle cx="269" cy="171" r="1"/><circle cx="185" cy="213" r="1"/><circle cx="269" cy="213" r="1"/><circle cx="185" cy="255" r="1"/><circle cx="269" cy="255" r="1"/><circle cx="185" cy="297" r="1"/><circle cx="269" cy="297" r="1"/><circle cx="171" cy="73" r="1"/><circle cx="255" cy="73" r="1"/><circle cx="171" cy="115" r="1"/><circle cx="255" cy="115" r="1"/><circle cx="171" cy="157" r="1"/><circle cx="255" cy="157" r="1"/><circle cx="171" cy="199" r="1"/><circle cx="255" cy="199" r="1"/><circle cx="171" cy="241" r="1"/><circle cx="255" cy="241" r="1"/><circle cx="171" cy="283" r="1"/><circle cx="255" cy="283" r="1"/><circle cx="171" cy="325" r="1"/><circle cx="255" cy="325" r="1"/><circle cx="157" cy="73" r="1"/><circle cx="241" cy="73" r="1"/><circle cx="157" cy="115" r="1"/><circle cx="241" cy="115" r="1"/><circle cx="157" cy="157" r="1"/><circle cx="241" cy="157" r="1"/><circle cx="157" cy="199" r="1"/><circle cx="241" cy="199" r="1"/><circle cx="157" cy="241" r="1"/><circle cx="241" cy="241" r="1"/><circle cx="157" cy="283" r="1"/><circle cx="241" cy="283" r="1"/><circle cx="157" cy="325" r="1"/><circle cx="241" cy="325" r="1"/><circle cx="185" cy="73" r="1"/><circle cx="269" cy="73" r="1"/><circle cx="185" cy="115" r="1"/><circle cx="269" cy="115" r="1"/><circle cx="185" cy="157" r="1"/><circle cx="269" cy="157" r="1"/><circle cx="185" cy="199" r="1"/><circle cx="269" cy="199" r="1"/><circle cx="185" cy="241" r="1"/><circle cx="269" cy="241" r="1"/><circle cx="185" cy="283" r="1"/><circle cx="269" cy="283" r="1"/><circle cx="185" cy="325" r="1"/><circle cx="269" cy="325" r="1"/><circle cx="213" cy="59" r="1"/><circle cx="297" cy="59" r="1"/><circle cx="213" cy="101" r="1"/><circle cx="297" cy="101" r="1"/><circle cx="213" cy="143" r="1"/><circle cx="297" cy="143" r="1"/><circle cx="213" cy="185" r="1"/><circle cx="297" cy="185" r="1"/><circle cx="213" cy="227" r="1"/><circle cx="297" cy="227" r="1"/><circle cx="213" cy="269" r="1"/><circle cx="297" cy="269" r="1"/><circle cx="213" cy="311" r="1"/><circle cx="297" cy="311" r="1"/><circle cx="199" cy="59" r="1"/><circle cx="283" cy="59" r="1"/><circle cx="199" cy="101" r="1"/><circle cx="283" cy="101" r="1"/><circle cx="199" cy="143" r="1"/><circle cx="283" cy="143" r="1"/><circle cx="199" cy="185" r="1"/><circle cx="283" cy="185" r="1"/><circle cx="199" cy="227" r="1"/><circle cx="283" cy="227" r="1"/><circle cx="199" cy="269" r="1"/><circle cx="283" cy="269" r="1"/><circle cx="199" cy="311" r="1"/><circle cx="283" cy="311" r="1"/><circle cx="227" cy="59" r="1"/><circle cx="311" cy="59" r="1"/><circle cx="227" cy="101" r="1"/><circle cx="311" cy="101" r="1"/><circle cx="227" cy="143" r="1"/><circle cx="311" cy="143" r="1"/><circle cx="227" cy="185" r="1"/><circle cx="311" cy="185" r="1"/><circle cx="227" cy="227" r="1"/><circle cx="311" cy="227" r="1"/><circle cx="227" cy="269" r="1"/><circle cx="311" cy="269" r="1"/><circle cx="227" cy="311" r="1"/><circle cx="311" cy="311" r="1"/><circle cx="213" cy="45" r="1"/><circle cx="297" cy="45" r="1"/><circle cx="213" cy="87" r="1"/><circle cx="297" cy="87" r="1"/><circle cx="213" cy="129" r="1"/><circle cx="297" cy="129" r="1"/><circle cx="213" cy="171" r="1"/><circle cx="297" cy="171" r="1"/><circle cx="213" cy="213" r="1"/><circle cx="297" cy="213" r="1"/><circle cx="213" cy="255" r="1"/><circle cx="297" cy="255" r="1"/><circle cx="213" cy="297" r="1"/><circle cx="297" cy="297" r="1"/><circle cx="199" cy="45" r="1"/><circle cx="283" cy="45" r="1"/><circle cx="199" cy="87" r="1"/><circle cx="283" cy="87" r="1"/><circle cx="199" cy="129" r="1"/><circle cx="283" cy="129" r="1"/><circle cx="199" cy="171" r="1"/><circle cx="283" cy="171" r="1"/><circle cx="199" cy="213" r="1"/><circle cx="283" cy="213" r="1"/><circle cx="199" cy="255" r="1"/><circle cx="283" cy="255" r="1"/><circle cx="199" cy="297" r="1"/><circle cx="283" cy="297" r="1"/><circle cx="227" cy="45" r="1"/><circle cx="311" cy="45" r="1"/><circle cx="227" cy="87" r="1"/><circle cx="311" cy="87" r="1"/><circle cx="227" cy="129" r="1"/><circle cx="311" cy="129" r="1"/><circle cx="227" cy="171" r="1"/><circle cx="311" cy="171" r="1"/><circle cx="227" cy="213" r="1"/><circle cx="311" cy="213" r="1"/><circle cx="227" cy="255" r="1"/><circle cx="311" cy="255" r="1"/><circle cx="227" cy="297" r="1"/><circle cx="311" cy="297" r="1"/><circle cx="213" cy="73" r="1"/><circle cx="297" cy="73" r="1"/><circle cx="213" cy="115" r="1"/><circle cx="297" cy="115" r="1"/><circle cx="213" cy="157" r="1"/><circle cx="297" cy="157" r="1"/><circle cx="213" cy="199" r="1"/><circle cx="297" cy="199" r="1"/><circle cx="213" cy="241" r="1"/><circle cx="297" cy="241" r="1"/><circle cx="213" cy="283" r="1"/><circle cx="297" cy="283" r="1"/><circle cx="213" cy="325" r="1"/><circle cx="297" cy="325" r="1"/><circle cx="199" cy="73" r="1"/><circle cx="283" cy="73" r="1"/><circle cx="199" cy="115" r="1"/><circle cx="283" cy="115" r="1"/><circle cx="199" cy="157" r="1"/><circle cx="283" cy="157" r="1"/><circle cx="199" cy="199" r="1"/><circle cx="283" cy="199" r="1"/><circle cx="199" cy="241" r="1"/><circle cx="283" cy="241" r="1"/><circle cx="199" cy="283" r="1"/><circle cx="283" cy="283" r="1"/><circle cx="199" cy="325" r="1"/><circle cx="283" cy="325" r="1"/><circle cx="227" cy="73" r="1"/><circle cx="311" cy="73" r="1"/><circle cx="227" cy="115" r="1"/><circle cx="311" cy="115" r="1"/><circle cx="227" cy="157" r="1"/><circle cx="311" cy="157" r="1"/><circle cx="227" cy="199" r="1"/><circle cx="311" cy="199" r="1"/><circle cx="227" cy="241" r="1"/><circle cx="311" cy="241" r="1"/><circle cx="227" cy="283" r="1"/><circle cx="311" cy="283" r="1"/><circle cx="227" cy="325" r="1"/><circle cx="311" cy="325" r="1"/><circle cx="339" cy="17" r="1"/><circle cx="423" cy="17" r="1"/><circle cx="325" cy="17" r="1"/><circle cx="409" cy="17" r="1"/><circle cx="353" cy="17" r="1"/><circle cx="437" cy="17" r="1"/><circle cx="339" cy="3" r="1"/><circle cx="423" cy="3" r="1"/><circle cx="325" cy="3" r="1"/><circle cx="409" cy="3" r="1"/><circle cx="353" cy="3" r="1"/><circle cx="437" cy="3" r="1"/><circle cx="339" cy="31" r="1"/><circle cx="423" cy="31" r="1"/><circle cx="325" cy="31" r="1"/><circle cx="409" cy="31" r="1"/><circle cx="353" cy="31" r="1"/><circle cx="437" cy="31" r="1"/><circle cx="381" cy="17" r="1"/><circle cx="465" cy="17" r="1"/><circle cx="367" cy="17" r="1"/><circle cx="451" cy="17" r="1"/><circle cx="395" cy="17" r="1"/><circle cx="479" cy="17" r="1"/><circle cx="381" cy="3" r="1"/><circle cx="465" cy="3" r="1"/><circle cx="367" cy="3" r="1"/><circle cx="451" cy="3" r="1"/><circle cx="395" cy="3" r="1"/><circle cx="479" cy="3" r="1"/><circle cx="381" cy="31" r="1"/><circle cx="465" cy="31" r="1"/><circle cx="367" cy="31" r="1"/><circle cx="451" cy="31" r="1"/><circle cx="395" cy="31" r="1"/><circle cx="479" cy="31" r="1"/><circle cx="339" cy="59" r="1"/><circle cx="423" cy="59" r="1"/><circle cx="339" cy="101" r="1"/><circle cx="423" cy="101" r="1"/><circle cx="339" cy="143" r="1"/><circle cx="423" cy="143" r="1"/><circle cx="339" cy="185" r="1"/><circle cx="423" cy="185" r="1"/><circle cx="339" cy="227" r="1"/><circle cx="423" cy="227" r="1"/><circle cx="339" cy="269" r="1"/><circle cx="423" cy="269" r="1"/><circle cx="339" cy="311" r="1"/><circle cx="423" cy="311" r="1"/><circle cx="325" cy="59" r="1"/><circle cx="409" cy="59" r="1"/><circle cx="325" cy="101" r="1"/><circle cx="409" cy="101" r="1"/><circle cx="325" cy="143" r="1"/><circle cx="409" cy="143" r="1"/><circle cx="325" cy="185" r="1"/><circle cx="409" cy="185" r="1"/><circle cx="325" cy="227" r="1"/><circle cx="409" cy="227" r="1"/><circle cx="325" cy="269" r="1"/><circle cx="409" cy="269" r="1"/><circle cx="325" cy="311" r="1"/><circle cx="409" cy="311" r="1"/><circle cx="353" cy="59" r="1"/><circle cx="437" cy="59" r="1"/><circle cx="353" cy="101" r="1"/><circle cx="437" cy="101" r="1"/><circle cx="353" cy="143" r="1"/><circle cx="437" cy="143" r="1"/><circle cx="353" cy="185" r="1"/><circle cx="437" cy="185" r="1"/><circle cx="353" cy="227" r="1"/><circle cx="437" cy="227" r="1"/><circle cx="353" cy="269" r="1"/><circle cx="437" cy="269" r="1"/><circle cx="353" cy="311" r="1"/><circle cx="437" cy="311" r="1"/><circle cx="339" cy="45" r="1"/><circle cx="423" cy="45" r="1"/><circle cx="339" cy="87" r="1"/><circle cx="423" cy="87" r="1"/><circle cx="339" cy="129" r="1"/><circle cx="423" cy="129" r="1"/><circle cx="339" cy="171" r="1"/><circle cx="423" cy="171" r="1"/><circle cx="339" cy="213" r="1"/><circle cx="423" cy="213" r="1"/><circle cx="339" cy="255" r="1"/><circle cx="423" cy="255" r="1"/><circle cx="339" cy="297" r="1"/><circle cx="423" cy="297" r="1"/><circle cx="325" cy="45" r="1"/><circle cx="409" cy="45" r="1"/><circle cx="325" cy="87" r="1"/><circle cx="409" cy="87" r="1"/><circle cx="325" cy="129" r="1"/><circle cx="409" cy="129" r="1"/><circle cx="325" cy="171" r="1"/><circle cx="409" cy="171" r="1"/><circle cx="325" cy="213" r="1"/><circle cx="409" cy="213" r="1"/><circle cx="325" cy="255" r="1"/><circle cx="409" cy="255" r="1"/><circle cx="325" cy="297" r="1"/><circle cx="409" cy="297" r="1"/><circle cx="353" cy="45" r="1"/><circle cx="437" cy="45" r="1"/><circle cx="353" cy="87" r="1"/><circle cx="437" cy="87" r="1"/><circle cx="353" cy="129" r="1"/><circle cx="437" cy="129" r="1"/><circle cx="353" cy="171" r="1"/><circle cx="437" cy="171" r="1"/><circle cx="353" cy="213" r="1"/><circle cx="437" cy="213" r="1"/><circle cx="353" cy="255" r="1"/><circle cx="437" cy="255" r="1"/><circle cx="353" cy="297" r="1"/><circle cx="437" cy="297" r="1"/><circle cx="339" cy="73" r="1"/><circle cx="423" cy="73" r="1"/><circle cx="339" cy="115" r="1"/><circle cx="423" cy="115" r="1"/><circle cx="339" cy="157" r="1"/><circle cx="423" cy="157" r="1"/><circle cx="339" cy="199" r="1"/><circle cx="423" cy="199" r="1"/><circle cx="339" cy="241" r="1"/><circle cx="423" cy="241" r="1"/><circle cx="339" cy="283" r="1"/><circle cx="423" cy="283" r="1"/><circle cx="339" cy="325" r="1"/><circle cx="423" cy="325" r="1"/><circle cx="325" cy="73" r="1"/><circle cx="409" cy="73" r="1"/><circle cx="325" cy="115" r="1"/><circle cx="409" cy="115" r="1"/><circle cx="325" cy="157" r="1"/><circle cx="409" cy="157" r="1"/><circle cx="325" cy="199" r="1"/><circle cx="409" cy="199" r="1"/><circle cx="325" cy="241" r="1"/><circle cx="409" cy="241" r="1"/><circle cx="325" cy="283" r="1"/><circle cx="409" cy="283" r="1"/><circle cx="325" cy="325" r="1"/><circle cx="409" cy="325" r="1"/><circle cx="353" cy="73" r="1"/><circle cx="437" cy="73" r="1"/><circle cx="353" cy="115" r="1"/><circle cx="437" cy="115" r="1"/><circle cx="353" cy="157" r="1"/><circle cx="437" cy="157" r="1"/><circle cx="353" cy="199" r="1"/><circle cx="437" cy="199" r="1"/><circle cx="353" cy="241" r="1"/><circle cx="437" cy="241" r="1"/><circle cx="353" cy="283" r="1"/><circle cx="437" cy="283" r="1"/><circle cx="353" cy="325" r="1"/><circle cx="437" cy="325" r="1"/><circle cx="381" cy="59" r="1"/><circle cx="465" cy="59" r="1"/><circle cx="381" cy="101" r="1"/><circle cx="465" cy="101" r="1"/><circle cx="381" cy="143" r="1"/><circle cx="465" cy="143" r="1"/><circle cx="381" cy="185" r="1"/><circle cx="465" cy="185" r="1"/><circle cx="381" cy="227" r="1"/><circle cx="465" cy="227" r="1"/><circle cx="381" cy="269" r="1"/><circle cx="465" cy="269" r="1"/><circle cx="381" cy="311" r="1"/><circle cx="465" cy="311" r="1"/><circle cx="367" cy="59" r="1"/><circle cx="451" cy="59" r="1"/><circle cx="367" cy="101" r="1"/><circle cx="451" cy="101" r="1"/><circle cx="367" cy="143" r="1"/><circle cx="451" cy="143" r="1"/><circle cx="367" cy="185" r="1"/><circle cx="451" cy="185" r="1"/><circle cx="367" cy="227" r="1"/><circle cx="451" cy="227" r="1"/><circle cx="367" cy="269" r="1"/><circle cx="451" cy="269" r="1"/><circle cx="367" cy="311" r="1"/><circle cx="451" cy="311" r="1"/><circle cx="395" cy="59" r="1"/><circle cx="479" cy="59" r="1"/><circle cx="395" cy="101" r="1"/><circle cx="479" cy="101" r="1"/><circle cx="395" cy="143" r="1"/><circle cx="479" cy="143" r="1"/><circle cx="395" cy="185" r="1"/><circle cx="479" cy="185" r="1"/><circle cx="395" cy="227" r="1"/><circle cx="479" cy="227" r="1"/><circle cx="395" cy="269" r="1"/><circle cx="479" cy="269" r="1"/><circle cx="395" cy="311" r="1"/><circle cx="479" cy="311" r="1"/><circle cx="381" cy="45" r="1"/><circle cx="465" cy="45" r="1"/><circle cx="381" cy="87" r="1"/><circle cx="465" cy="87" r="1"/><circle cx="381" cy="129" r="1"/><circle cx="465" cy="129" r="1"/><circle cx="381" cy="171" r="1"/><circle cx="465" cy="171" r="1"/><circle cx="381" cy="213" r="1"/><circle cx="465" cy="213" r="1"/><circle cx="381" cy="255" r="1"/><circle cx="465" cy="255" r="1"/><circle cx="381" cy="297" r="1"/><circle cx="465" cy="297" r="1"/><circle cx="367" cy="45" r="1"/><circle cx="451" cy="45" r="1"/><circle cx="367" cy="87" r="1"/><circle cx="451" cy="87" r="1"/><circle cx="367" cy="129" r="1"/><circle cx="451" cy="129" r="1"/><circle cx="367" cy="171" r="1"/><circle cx="451" cy="171" r="1"/><circle cx="367" cy="213" r="1"/><circle cx="451" cy="213" r="1"/><circle cx="367" cy="255" r="1"/><circle cx="451" cy="255" r="1"/><circle cx="367" cy="297" r="1"/><circle cx="451" cy="297" r="1"/><circle cx="395" cy="45" r="1"/><circle cx="479" cy="45" r="1"/><circle cx="395" cy="87" r="1"/><circle cx="479" cy="87" r="1"/><circle cx="395" cy="129" r="1"/><circle cx="479" cy="129" r="1"/><circle cx="395" cy="171" r="1"/><circle cx="479" cy="171" r="1"/><circle cx="395" cy="213" r="1"/><circle cx="479" cy="213" r="1"/><circle cx="395" cy="255" r="1"/><circle cx="479" cy="255" r="1"/><circle cx="395" cy="297" r="1"/><circle cx="479" cy="297" r="1"/><circle cx="381" cy="73" r="1"/><circle cx="465" cy="73" r="1"/><circle cx="381" cy="115" r="1"/><circle cx="465" cy="115" r="1"/><circle cx="381" cy="157" r="1"/><circle cx="465" cy="157" r="1"/><circle cx="381" cy="199" r="1"/><circle cx="465" cy="199" r="1"/><circle cx="381" cy="241" r="1"/><circle cx="465" cy="241" r="1"/><circle cx="381" cy="283" r="1"/><circle cx="465" cy="283" r="1"/><circle cx="381" cy="325" r="1"/><circle cx="465" cy="325" r="1"/><circle cx="367" cy="73" r="1"/><circle cx="451" cy="73" r="1"/><circle cx="367" cy="115" r="1"/><circle cx="451" cy="115" r="1"/><circle cx="367" cy="157" r="1"/><circle cx="451" cy="157" r="1"/><circle cx="367" cy="199" r="1"/><circle cx="451" cy="199" r="1"/><circle cx="367" cy="241" r="1"/><circle cx="451" cy="241" r="1"/><circle cx="367" cy="283" r="1"/><circle cx="451" cy="283" r="1"/><circle cx="367" cy="325" r="1"/><circle cx="451" cy="325" r="1"/><circle cx="395" cy="73" r="1"/><circle cx="479" cy="73" r="1"/><circle cx="395" cy="115" r="1"/><circle cx="479" cy="115" r="1"/><circle cx="395" cy="157" r="1"/><circle cx="479" cy="157" r="1"/><circle cx="395" cy="199" r="1"/><circle cx="479" cy="199" r="1"/><circle cx="395" cy="241" r="1"/><circle cx="479" cy="241" r="1"/><circle cx="395" cy="283" r="1"/><circle cx="479" cy="283" r="1"/><circle cx="395" cy="325" r="1"/><circle cx="479" cy="325" r="1"/><circle cx="507" cy="17" r="1"/><circle cx="591" cy="17" r="1"/><circle cx="493" cy="17" r="1"/><circle cx="577" cy="17" r="1"/><circle cx="521" cy="17" r="1"/><circle cx="605" cy="17" r="1"/><circle cx="507" cy="3" r="1"/><circle cx="591" cy="3" r="1"/><circle cx="493" cy="3" r="1"/><circle cx="577" cy="3" r="1"/><circle cx="521" cy="3" r="1"/><circle cx="605" cy="3" r="1"/><circle cx="507" cy="31" r="1"/><circle cx="591" cy="31" r="1"/><circle cx="493" cy="31" r="1"/><circle cx="577" cy="31" r="1"/><circle cx="521" cy="31" r="1"/><circle cx="605" cy="31" r="1"/><circle cx="549" cy="17" r="1"/><circle cx="633" cy="17" r="1"/><circle cx="535" cy="17" r="1"/><circle cx="619" cy="17" r="1"/><circle cx="563" cy="17" r="1"/><circle cx="647" cy="17" r="1"/><circle cx="549" cy="3" r="1"/><circle cx="633" cy="3" r="1"/><circle cx="535" cy="3" r="1"/><circle cx="619" cy="3" r="1"/><circle cx="563" cy="3" r="1"/><circle cx="647" cy="3" r="1"/><circle cx="549" cy="31" r="1"/><circle cx="633" cy="31" r="1"/><circle cx="535" cy="31" r="1"/><circle cx="619" cy="31" r="1"/><circle cx="563" cy="31" r="1"/><circle cx="647" cy="31" r="1"/><circle cx="507" cy="59" r="1"/><circle cx="591" cy="59" r="1"/><circle cx="507" cy="101" r="1"/><circle cx="591" cy="101" r="1"/><circle cx="507" cy="143" r="1"/><circle cx="591" cy="143" r="1"/><circle cx="507" cy="185" r="1"/><circle cx="591" cy="185" r="1"/><circle cx="507" cy="227" r="1"/><circle cx="591" cy="227" r="1"/><circle cx="507" cy="269" r="1"/><circle cx="591" cy="269" r="1"/><circle cx="507" cy="311" r="1"/><circle cx="591" cy="311" r="1"/><circle cx="493" cy="59" r="1"/><circle cx="577" cy="59" r="1"/><circle cx="493" cy="101" r="1"/><circle cx="577" cy="101" r="1"/><circle cx="493" cy="143" r="1"/><circle cx="577" cy="143" r="1"/><circle cx="493" cy="185" r="1"/><circle cx="577" cy="185" r="1"/><circle cx="493" cy="227" r="1"/><circle cx="577" cy="227" r="1"/><circle cx="493" cy="269" r="1"/><circle cx="577" cy="269" r="1"/><circle cx="493" cy="311" r="1"/><circle cx="577" cy="311" r="1"/><circle cx="521" cy="59" r="1"/><circle cx="605" cy="59" r="1"/><circle cx="521" cy="101" r="1"/><circle cx="605" cy="101" r="1"/><circle cx="521" cy="143" r="1"/><circle cx="605" cy="143" r="1"/><circle cx="521" cy="185" r="1"/><circle cx="605" cy="185" r="1"/><circle cx="521" cy="227" r="1"/><circle cx="605" cy="227" r="1"/><circle cx="521" cy="269" r="1"/><circle cx="605" cy="269" r="1"/><circle cx="521" cy="311" r="1"/><circle cx="605" cy="311" r="1"/><circle cx="507" cy="45" r="1"/><circle cx="591" cy="45" r="1"/><circle cx="507" cy="87" r="1"/><circle cx="591" cy="87" r="1"/><circle cx="507" cy="129" r="1"/><circle cx="591" cy="129" r="1"/><circle cx="507" cy="171" r="1"/><circle cx="591" cy="171" r="1"/><circle cx="507" cy="213" r="1"/><circle cx="591" cy="213" r="1"/><circle cx="507" cy="255" r="1"/><circle cx="591" cy="255" r="1"/><circle cx="507" cy="297" r="1"/><circle cx="591" cy="297" r="1"/><circle cx="493" cy="45" r="1"/><circle cx="577" cy="45" r="1"/><circle cx="493" cy="87" r="1"/><circle cx="577" cy="87" r="1"/><circle cx="493" cy="129" r="1"/><circle cx="577" cy="129" r="1"/><circle cx="493" cy="171" r="1"/><circle cx="577" cy="171" r="1"/><circle cx="493" cy="213" r="1"/><circle cx="577" cy="213" r="1"/><circle cx="493" cy="255" r="1"/><circle cx="577" cy="255" r="1"/><circle cx="493" cy="297" r="1"/><circle cx="577" cy="297" r="1"/><circle cx="521" cy="45" r="1"/><circle cx="605" cy="45" r="1"/><circle cx="521" cy="87" r="1"/><circle cx="605" cy="87" r="1"/><circle cx="521" cy="129" r="1"/><circle cx="605" cy="129" r="1"/><circle cx="521" cy="171" r="1"/><circle cx="605" cy="171" r="1"/><circle cx="521" cy="213" r="1"/><circle cx="605" cy="213" r="1"/><circle cx="521" cy="255" r="1"/><circle cx="605" cy="255" r="1"/><circle cx="521" cy="297" r="1"/><circle cx="605" cy="297" r="1"/><circle cx="507" cy="73" r="1"/><circle cx="591" cy="73" r="1"/><circle cx="507" cy="115" r="1"/><circle cx="591" cy="115" r="1"/><circle cx="507" cy="157" r="1"/><circle cx="591" cy="157" r="1"/><circle cx="507" cy="199" r="1"/><circle cx="591" cy="199" r="1"/><circle cx="507" cy="241" r="1"/><circle cx="591" cy="241" r="1"/><circle cx="507" cy="283" r="1"/><circle cx="591" cy="283" r="1"/><circle cx="507" cy="325" r="1"/><circle cx="591" cy="325" r="1"/><circle cx="493" cy="73" r="1"/><circle cx="577" cy="73" r="1"/><circle cx="493" cy="115" r="1"/><circle cx="577" cy="115" r="1"/><circle cx="493" cy="157" r="1"/><circle cx="577" cy="157" r="1"/><circle cx="493" cy="199" r="1"/><circle cx="577" cy="199" r="1"/><circle cx="493" cy="241" r="1"/><circle cx="577" cy="241" r="1"/><circle cx="493" cy="283" r="1"/><circle cx="577" cy="283" r="1"/><circle cx="493" cy="325" r="1"/><circle cx="577" cy="325" r="1"/><circle cx="521" cy="73" r="1"/><circle cx="605" cy="73" r="1"/><circle cx="521" cy="115" r="1"/><circle cx="605" cy="115" r="1"/><circle cx="521" cy="157" r="1"/><circle cx="605" cy="157" r="1"/><circle cx="521" cy="199" r="1"/><circle cx="605" cy="199" r="1"/><circle cx="521" cy="241" r="1"/><circle cx="605" cy="241" r="1"/><circle cx="521" cy="283" r="1"/><circle cx="605" cy="283" r="1"/><circle cx="521" cy="325" r="1"/><circle cx="605" cy="325" r="1"/><circle cx="549" cy="59" r="1"/><circle cx="633" cy="59" r="1"/><circle cx="549" cy="101" r="1"/><circle cx="633" cy="101" r="1"/><circle cx="549" cy="143" r="1"/><circle cx="633" cy="143" r="1"/><circle cx="549" cy="185" r="1"/><circle cx="633" cy="185" r="1"/><circle cx="549" cy="227" r="1"/><circle cx="633" cy="227" r="1"/><circle cx="549" cy="269" r="1"/><circle cx="633" cy="269" r="1"/><circle cx="549" cy="311" r="1"/><circle cx="633" cy="311" r="1"/><circle cx="535" cy="59" r="1"/><circle cx="619" cy="59" r="1"/><circle cx="535" cy="101" r="1"/><circle cx="619" cy="101" r="1"/><circle cx="535" cy="143" r="1"/><circle cx="619" cy="143" r="1"/><circle cx="535" cy="185" r="1"/><circle cx="619" cy="185" r="1"/><circle cx="535" cy="227" r="1"/><circle cx="619" cy="227" r="1"/><circle cx="535" cy="269" r="1"/><circle cx="619" cy="269" r="1"/><circle cx="535" cy="311" r="1"/><circle cx="619" cy="311" r="1"/><circle cx="563" cy="59" r="1"/><circle cx="647" cy="59" r="1"/><circle cx="563" cy="101" r="1"/><circle cx="647" cy="101" r="1"/><circle cx="563" cy="143" r="1"/><circle cx="647" cy="143" r="1"/><circle cx="563" cy="185" r="1"/><circle cx="647" cy="185" r="1"/><circle cx="563" cy="227" r="1"/><circle cx="647" cy="227" r="1"/><circle cx="563" cy="269" r="1"/><circle cx="647" cy="269" r="1"/><circle cx="563" cy="311" r="1"/><circle cx="647" cy="311" r="1"/><circle cx="549" cy="45" r="1"/><circle cx="633" cy="45" r="1"/><circle cx="549" cy="87" r="1"/><circle cx="633" cy="87" r="1"/><circle cx="549" cy="129" r="1"/><circle cx="633" cy="129" r="1"/><circle cx="549" cy="171" r="1"/><circle cx="633" cy="171" r="1"/><circle cx="549" cy="213" r="1"/><circle cx="633" cy="213" r="1"/><circle cx="549" cy="255" r="1"/><circle cx="633" cy="255" r="1"/><circle cx="549" cy="297" r="1"/><circle cx="633" cy="297" r="1"/><circle cx="535" cy="45" r="1"/><circle cx="619" cy="45" r="1"/><circle cx="535" cy="87" r="1"/><circle cx="619" cy="87" r="1"/><circle cx="535" cy="129" r="1"/><circle cx="619" cy="129" r="1"/><circle cx="535" cy="171" r="1"/><circle cx="619" cy="171" r="1"/><circle cx="535" cy="213" r="1"/><circle cx="619" cy="213" r="1"/><circle cx="535" cy="255" r="1"/><circle cx="619" cy="255" r="1"/><circle cx="535" cy="297" r="1"/><circle cx="619" cy="297" r="1"/><circle cx="563" cy="45" r="1"/><circle cx="647" cy="45" r="1"/><circle cx="563" cy="87" r="1"/><circle cx="647" cy="87" r="1"/><circle cx="563" cy="129" r="1"/><circle cx="647" cy="129" r="1"/><circle cx="563" cy="171" r="1"/><circle cx="647" cy="171" r="1"/><circle cx="563" cy="213" r="1"/><circle cx="647" cy="213" r="1"/><circle cx="563" cy="255" r="1"/><circle cx="647" cy="255" r="1"/><circle cx="563" cy="297" r="1"/><circle cx="647" cy="297" r="1"/><circle cx="549" cy="73" r="1"/><circle cx="633" cy="73" r="1"/><circle cx="549" cy="115" r="1"/><circle cx="633" cy="115" r="1"/><circle cx="549" cy="157" r="1"/><circle cx="633" cy="157" r="1"/><circle cx="549" cy="199" r="1"/><circle cx="633" cy="199" r="1"/><circle cx="549" cy="241" r="1"/><circle cx="633" cy="241" r="1"/><circle cx="549" cy="283" r="1"/><circle cx="633" cy="283" r="1"/><circle cx="549" cy="325" r="1"/><circle cx="633" cy="325" r="1"/><circle cx="535" cy="73" r="1"/><circle cx="619" cy="73" r="1"/><circle cx="535" cy="115" r="1"/><circle cx="619" cy="115" r="1"/><circle cx="535" cy="157" r="1"/><circle cx="619" cy="157" r="1"/><circle cx="535" cy="199" r="1"/><circle cx="619" cy="199" r="1"/><circle cx="535" cy="241" r="1"/><circle cx="619" cy="241" r="1"/><circle cx="535" cy="283" r="1"/><circle cx="619" cy="283" r="1"/><circle cx="535" cy="325" r="1"/><circle cx="619" cy="325" r="1"/><circle cx="563" cy="73" r="1"/><circle cx="647" cy="73" r="1"/><circle cx="563" cy="115" r="1"/><circle cx="647" cy="115" r="1"/><circle cx="563" cy="157" r="1"/><circle cx="647" cy="157" r="1"/><circle cx="563" cy="199" r="1"/><circle cx="647" cy="199" r="1"/><circle cx="563" cy="241" r="1"/><circle cx="647" cy="241" r="1"/><circle cx="563" cy="283" r="1"/><circle cx="647" cy="283" r="1"/><circle cx="563" cy="325" r="1"/><circle cx="647" cy="325" r="1"/><circle cx="675" cy="17" r="1"/><circle cx="661" cy="17" r="1"/><circle cx="689" cy="17" r="1"/><circle cx="675" cy="3" r="1"/><circle cx="661" cy="3" r="1"/><circle cx="689" cy="3" r="1"/><circle cx="675" cy="31" r="1"/><circle cx="661" cy="31" r="1"/><circle cx="689" cy="31" r="1"/><circle cx="675" cy="59" r="1"/><circle cx="675" cy="101" r="1"/><circle cx="675" cy="143" r="1"/><circle cx="675" cy="185" r="1"/><circle cx="675" cy="227" r="1"/><circle cx="675" cy="269" r="1"/><circle cx="675" cy="311" r="1"/><circle cx="661" cy="59" r="1"/><circle cx="661" cy="101" r="1"/><circle cx="661" cy="143" r="1"/><circle cx="661" cy="185" r="1"/><circle cx="661" cy="227" r="1"/><circle cx="661" cy="269" r="1"/><circle cx="661" cy="311" r="1"/><circle cx="689" cy="59" r="1"/><circle cx="689" cy="101" r="1"/><circle cx="689" cy="143" r="1"/><circle cx="689" cy="185" r="1"/><circle cx="689" cy="227" r="1"/><circle cx="689" cy="269" r="1"/><circle cx="689" cy="311" r="1"/><circle cx="675" cy="45" r="1"/><circle cx="675" cy="87" r="1"/><circle cx="675" cy="129" r="1"/><circle cx="675" cy="171" r="1"/><circle cx="675" cy="213" r="1"/><circle cx="675" cy="255" r="1"/><circle cx="675" cy="297" r="1"/><circle cx="661" cy="45" r="1"/><circle cx="661" cy="87" r="1"/><circle cx="661" cy="129" r="1"/><circle cx="661" cy="171" r="1"/><circle cx="661" cy="213" r="1"/><circle cx="661" cy="255" r="1"/><circle cx="661" cy="297" r="1"/><circle cx="689" cy="45" r="1"/><circle cx="689" cy="87" r="1"/><circle cx="689" cy="129" r="1"/><circle cx="689" cy="171" r="1"/><circle cx="689" cy="213" r="1"/><circle cx="689" cy="255" r="1"/><circle cx="689" cy="297" r="1"/><circle cx="675" cy="73" r="1"/><circle cx="675" cy="115" r="1"/><circle cx="675" cy="157" r="1"/><circle cx="675" cy="199" r="1"/><circle cx="675" cy="241" r="1"/><circle cx="675" cy="283" r="1"/><circle cx="675" cy="325" r="1"/><circle cx="661" cy="73" r="1"/><circle cx="661" cy="115" r="1"/><circle cx="661" cy="157" r="1"/><circle cx="661" cy="199" r="1"/><circle cx="661" cy="241" r="1"/><circle cx="661" cy="283" r="1"/><circle cx="661" cy="325" r="1"/><circle cx="689" cy="73" r="1"/><circle cx="689" cy="115" r="1"/><circle cx="689" cy="157" r="1"/><circle cx="689" cy="199" r="1"/><circle cx="689" cy="241" r="1"/><circle cx="689" cy="283" r="1"/><circle cx="689" cy="325" r="1"/><circle cx="703" cy="17" r="1"/><circle cx="703" cy="3" r="1"/><circle cx="703" cy="31" r="1"/><circle cx="703" cy="59" r="1"/><circle cx="703" cy="101" r="1"/><circle cx="703" cy="143" r="1"/><circle cx="703" cy="185" r="1"/><circle cx="703" cy="227" r="1"/><circle cx="703" cy="269" r="1"/><circle cx="703" cy="311" r="1"/><circle cx="703" cy="45" r="1"/><circle cx="703" cy="87" r="1"/><circle cx="703" cy="129" r="1"/><circle cx="703" cy="171" r="1"/><circle cx="703" cy="213" r="1"/><circle cx="703" cy="255" r="1"/><circle cx="703" cy="297" r="1"/><circle cx="703" cy="73" r="1"/><circle cx="703" cy="115" r="1"/><circle cx="703" cy="157" r="1"/><circle cx="703" cy="199" r="1"/><circle cx="703" cy="241" r="1"/><circle cx="703" cy="283" r="1"/><circle cx="717" cy="17" r="1"/><circle cx="717" cy="3" r="1"/><circle cx="717" cy="31" r="1"/><circle cx="717" cy="59" r="1"/><circle cx="717" cy="101" r="1"/><circle cx="717" cy="143" r="1"/><circle cx="717" cy="185" r="1"/><circle cx="717" cy="227" r="1"/><circle cx="717" cy="269" r="1"/><circle cx="717" cy="311" r="1"/><circle cx="717" cy="45" r="1"/><circle cx="717" cy="87" r="1"/><circle cx="717" cy="129" r="1"/><circle cx="717" cy="171" r="1"/><circle cx="717" cy="213" r="1"/><circle cx="717" cy="255" r="1"/><circle cx="717" cy="297" r="1"/><circle cx="717" cy="73" r="1"/><circle cx="717" cy="115" r="1"/><circle cx="717" cy="157" r="1"/><circle cx="717" cy="199" r="1"/><circle cx="717" cy="241" r="1"/><circle cx="717" cy="283" r="1"/><circle cx="703" cy="325" r="1"/><circle cx="3" cy="339" r="1"/><circle cx="87" cy="339" r="1"/><circle cx="73" cy="339" r="1"/><circle cx="17" cy="339" r="1"/><circle cx="101" cy="339" r="1"/><circle cx="3" cy="325" r="1"/><circle cx="87" cy="325" r="1"/><circle cx="73" cy="325" r="1"/><circle cx="17" cy="325" r="1"/><circle cx="101" cy="325" r="1"/><circle cx="3" cy="353" r="1"/><circle cx="87" cy="353" r="1"/><circle cx="73" cy="353" r="1"/><circle cx="17" cy="353" r="1"/><circle cx="101" cy="353" r="1"/><circle cx="45" cy="339" r="1"/><circle cx="129" cy="339" r="1"/><circle cx="31" cy="339" r="1"/><circle cx="115" cy="339" r="1"/><circle cx="59" cy="339" r="1"/><circle cx="143" cy="339" r="1"/><circle cx="45" cy="325" r="1"/><circle cx="129" cy="325" r="1"/><circle cx="31" cy="325" r="1"/><circle cx="115" cy="325" r="1"/><circle cx="59" cy="325" r="1"/><circle cx="143" cy="325" r="1"/><circle cx="45" cy="353" r="1"/><circle cx="129" cy="353" r="1"/><circle cx="31" cy="353" r="1"/><circle cx="115" cy="353" r="1"/><circle cx="59" cy="353" r="1"/><circle cx="143" cy="353" r="1"/><circle cx="3" cy="381" r="1"/><circle cx="87" cy="381" r="1"/><circle cx="3" cy="423" r="1"/><circle cx="87" cy="423" r="1"/><circle cx="3" cy="465" r="1"/><circle cx="87" cy="465" r="1"/><circle cx="73" cy="381" r="1"/><circle cx="73" cy="423" r="1"/><circle cx="73" cy="465" r="1"/><circle cx="17" cy="381" r="1"/><circle cx="101" cy="381" r="1"/><circle cx="17" cy="423" r="1"/><circle cx="101" cy="423" r="1"/><circle cx="17" cy="465" r="1"/><circle cx="101" cy="465" r="1"/><circle cx="3" cy="367" r="1"/><circle cx="87" cy="367" r="1"/><circle cx="3" cy="409" r="1"/><circle cx="87" cy="409" r="1"/><circle cx="3" cy="451" r="1"/><circle cx="87" cy="451" r="1"/><circle cx="73" cy="367" r="1"/><circle cx="73" cy="409" r="1"/><circle cx="73" cy="451" r="1"/><circle cx="17" cy="367" r="1"/><circle cx="101" cy="367" r="1"/><circle cx="17" cy="409" r="1"/><circle cx="101" cy="409" r="1"/><circle cx="17" cy="451" r="1"/><circle cx="101" cy="451" r="1"/><circle cx="3" cy="395" r="1"/><circle cx="87" cy="395" r="1"/><circle cx="3" cy="437" r="1"/><circle cx="87" cy="437" r="1"/><circle cx="73" cy="395" r="1"/><circle cx="73" cy="437" r="1"/><circle cx="17" cy="395" r="1"/><circle cx="101" cy="395" r="1"/><circle cx="17" cy="437" r="1"/><circle cx="101" cy="437" r="1"/><circle cx="45" cy="381" r="1"/><circle cx="129" cy="381" r="1"/><circle cx="45" cy="423" r="1"/><circle cx="129" cy="423" r="1"/><circle cx="45" cy="465" r="1"/><circle cx="129" cy="465" r="1"/><circle cx="31" cy="381" r="1"/><circle cx="115" cy="381" r="1"/><circle cx="31" cy="423" r="1"/><circle cx="115" cy="423" r="1"/><circle cx="31" cy="465" r="1"/><circle cx="115" cy="465" r="1"/><circle cx="59" cy="381" r="1"/><circle cx="143" cy="381" r="1"/><circle cx="59" cy="423" r="1"/><circle cx="143" cy="423" r="1"/><circle cx="59" cy="465" r="1"/><circle cx="143" cy="465" r="1"/><circle cx="45" cy="367" r="1"/><circle cx="129" cy="367" r="1"/><circle cx="45" cy="409" r="1"/><circle cx="129" cy="409" r="1"/><circle cx="45" cy="451" r="1"/><circle cx="129" cy="451" r="1"/><circle cx="31" cy="367" r="1"/><circle cx="115" cy="367" r="1"/><circle cx="31" cy="409" r="1"/><circle cx="115" cy="409" r="1"/><circle cx="31" cy="451" r="1"/><circle cx="115" cy="451" r="1"/><circle cx="59" cy="367" r="1"/><circle cx="143" cy="367" r="1"/><circle cx="59" cy="409" r="1"/><circle cx="143" cy="409" r="1"/><circle cx="59" cy="451" r="1"/><circle cx="143" cy="451" r="1"/><circle cx="45" cy="395" r="1"/><circle cx="129" cy="395" r="1"/><circle cx="45" cy="437" r="1"/><circle cx="129" cy="437" r="1"/><circle cx="31" cy="395" r="1"/><circle cx="115" cy="395" r="1"/><circle cx="31" cy="437" r="1"/><circle cx="115" cy="437" r="1"/><circle cx="59" cy="395" r="1"/><circle cx="143" cy="395" r="1"/><circle cx="59" cy="437" r="1"/><circle cx="143" cy="437" r="1"/><circle cx="171" cy="339" r="1"/><circle cx="255" cy="339" r="1"/><circle cx="157" cy="339" r="1"/><circle cx="241" cy="339" r="1"/><circle cx="185" cy="339" r="1"/><circle cx="269" cy="339" r="1"/><circle cx="171" cy="325" r="1"/><circle cx="255" cy="325" r="1"/><circle cx="157" cy="325" r="1"/><circle cx="241" cy="325" r="1"/><circle cx="185" cy="325" r="1"/><circle cx="269" cy="325" r="1"/><circle cx="171" cy="353" r="1"/><circle cx="255" cy="353" r="1"/><circle cx="157" cy="353" r="1"/><circle cx="241" cy="353" r="1"/><circle cx="185" cy="353" r="1"/><circle cx="269" cy="353" r="1"/><circle cx="213" cy="339" r="1"/><circle cx="297" cy="339" r="1"/><circle cx="199" cy="339" r="1"/><circle cx="283" cy="339" r="1"/><circle cx="227" cy="339" r="1"/><circle cx="311" cy="339" r="1"/><circle cx="213" cy="325" r="1"/><circle cx="297" cy="325" r="1"/><circle cx="199" cy="325" r="1"/><circle cx="283" cy="325" r="1"/><circle cx="227" cy="325" r="1"/><circle cx="311" cy="325" r="1"/><circle cx="213" cy="353" r="1"/><circle cx="297" cy="353" r="1"/><circle cx="199" cy="353" r="1"/><circle cx="283" cy="353" r="1"/><circle cx="227" cy="353" r="1"/><circle cx="311" cy="353" r="1"/><circle cx="171" cy="381" r="1"/><circle cx="255" cy="381" r="1"/><circle cx="171" cy="423" r="1"/><circle cx="255" cy="423" r="1"/><circle cx="171" cy="465" r="1"/><circle cx="255" cy="465" r="1"/><circle cx="157" cy="381" r="1"/><circle cx="241" cy="381" r="1"/><circle cx="157" cy="423" r="1"/><circle cx="241" cy="423" r="1"/><circle cx="157" cy="465" r="1"/><circle cx="241" cy="465" r="1"/><circle cx="185" cy="381" r="1"/><circle cx="269" cy="381" r="1"/><circle cx="185" cy="423" r="1"/><circle cx="269" cy="423" r="1"/><circle cx="185" cy="465" r="1"/><circle cx="269" cy="465" r="1"/><circle cx="171" cy="367" r="1"/><circle cx="255" cy="367" r="1"/><circle cx="171" cy="409" r="1"/><circle cx="255" cy="409" r="1"/><circle cx="171" cy="451" r="1"/><circle cx="255" cy="451" r="1"/><circle cx="157" cy="367" r="1"/><circle cx="241" cy="367" r="1"/><circle cx="157" cy="409" r="1"/><circle cx="241" cy="409" r="1"/><circle cx="157" cy="451" r="1"/><circle cx="241" cy="451" r="1"/><circle cx="185" cy="367" r="1"/><circle cx="269" cy="367" r="1"/><circle cx="185" cy="409" r="1"/><circle cx="269" cy="409" r="1"/><circle cx="185" cy="451" r="1"/><circle cx="269" cy="451" r="1"/><circle cx="171" cy="395" r="1"/><circle cx="255" cy="395" r="1"/><circle cx="171" cy="437" r="1"/><circle cx="255" cy="437" r="1"/><circle cx="157" cy="395" r="1"/><circle cx="241" cy="395" r="1"/><circle cx="157" cy="437" r="1"/><circle cx="241" cy="437" r="1"/><circle cx="185" cy="395" r="1"/><circle cx="269" cy="395" r="1"/><circle cx="185" cy="437" r="1"/><circle cx="269" cy="437" r="1"/><circle cx="213" cy="381" r="1"/><circle cx="297" cy="381" r="1"/><circle cx="213" cy="423" r="1"/><circle cx="297" cy="423" r="1"/><circle cx="213" cy="465" r="1"/><circle cx="297" cy="465" r="1"/><circle cx="199" cy="381" r="1"/><circle cx="283" cy="381" r="1"/><circle cx="199" cy="423" r="1"/><circle cx="283" cy="423" r="1"/><circle cx="199" cy="465" r="1"/><circle cx="283" cy="465" r="1"/><circle cx="227" cy="381" r="1"/><circle cx="311" cy="381" r="1"/><circle cx="227" cy="423" r="1"/><circle cx="311" cy="423" r="1"/><circle cx="227" cy="465" r="1"/><circle cx="311" cy="465" r="1"/><circle cx="213" cy="367" r="1"/><circle cx="297" cy="367" r="1"/><circle cx="213" cy="409" r="1"/><circle cx="297" cy="409" r="1"/><circle cx="213" cy="451" r="1"/><circle cx="297" cy="451" r="1"/><circle cx="199" cy="367" r="1"/><circle cx="283" cy="367" r="1"/><circle cx="199" cy="409" r="1"/><circle cx="283" cy="409" r="1"/><circle cx="199" cy="451" r="1"/><circle cx="283" cy="451" r="1"/><circle cx="227" cy="367" r="1"/><circle cx="311" cy="367" r="1"/><circle cx="227" cy="409" r="1"/><circle cx="311" cy="409" r="1"/><circle cx="227" cy="451" r="1"/><circle cx="311" cy="451" r="1"/><circle cx="213" cy="395" r="1"/><circle cx="297" cy="395" r="1"/><circle cx="213" cy="437" r="1"/><circle cx="297" cy="437" r="1"/><circle cx="199" cy="395" r="1"/><circle cx="283" cy="395" r="1"/><circle cx="199" cy="437" r="1"/><circle cx="283" cy="437" r="1"/><circle cx="227" cy="395" r="1"/><circle cx="311" cy="395" r="1"/><circle cx="227" cy="437" r="1"/><circle cx="311" cy="437" r="1"/><circle cx="339" cy="339" r="1"/><circle cx="423" cy="339" r="1"/><circle cx="325" cy="339" r="1"/><circle cx="409" cy="339" r="1"/><circle cx="353" cy="339" r="1"/><circle cx="437" cy="339" r="1"/><circle cx="339" cy="325" r="1"/><circle cx="423" cy="325" r="1"/><circle cx="325" cy="325" r="1"/><circle cx="409" cy="325" r="1"/><circle cx="353" cy="325" r="1"/><circle cx="437" cy="325" r="1"/><circle cx="339" cy="353" r="1"/><circle cx="423" cy="353" r="1"/><circle cx="325" cy="353" r="1"/><circle cx="409" cy="353" r="1"/><circle cx="353" cy="353" r="1"/><circle cx="437" cy="353" r="1"/><circle cx="381" cy="339" r="1"/><circle cx="465" cy="339" r="1"/><circle cx="367" cy="339" r="1"/><circle cx="451" cy="339" r="1"/><circle cx="395" cy="339" r="1"/><circle cx="479" cy="339" r="1"/><circle cx="381" cy="325" r="1"/><circle cx="465" cy="325" r="1"/><circle cx="367" cy="325" r="1"/><circle cx="451" cy="325" r="1"/><circle cx="395" cy="325" r="1"/><circle cx="479" cy="325" r="1"/><circle cx="381" cy="353" r="1"/><circle cx="465" cy="353" r="1"/><circle cx="367" cy="353" r="1"/><circle cx="451" cy="353" r="1"/><circle cx="395" cy="353" r="1"/><circle cx="479" cy="353" r="1"/><circle cx="339" cy="381" r="1"/><circle cx="423" cy="381" r="1"/><circle cx="339" cy="423" r="1"/><circle cx="423" cy="423" r="1"/><circle cx="339" cy="465" r="1"/><circle cx="423" cy="465" r="1"/><circle cx="325" cy="381" r="1"/><circle cx="409" cy="381" r="1"/><circle cx="325" cy="423" r="1"/><circle cx="409" cy="423" r="1"/><circle cx="325" cy="465" r="1"/><circle cx="409" cy="465" r="1"/><circle cx="353" cy="381" r="1"/><circle cx="437" cy="381" r="1"/><circle cx="353" cy="423" r="1"/><circle cx="437" cy="423" r="1"/><circle cx="353" cy="465" r="1"/><circle cx="437" cy="465" r="1"/><circle cx="339" cy="367" r="1"/><circle cx="423" cy="367" r="1"/><circle cx="339" cy="409" r="1"/><circle cx="423" cy="409" r="1"/><circle cx="339" cy="451" r="1"/><circle cx="423" cy="451" r="1"/><circle cx="325" cy="367" r="1"/><circle cx="409" cy="367" r="1"/><circle cx="325" cy="409" r="1"/><circle cx="409" cy="409" r="1"/><circle cx="325" cy="451" r="1"/><circle cx="409" cy="451" r="1"/><circle cx="353" cy="367" r="1"/><circle cx="437" cy="367" r="1"/><circle cx="353" cy="409" r="1"/><circle cx="437" cy="409" r="1"/><circle cx="353" cy="451" r="1"/><circle cx="437" cy="451" r="1"/><circle cx="339" cy="395" r="1"/><circle cx="423" cy="395" r="1"/><circle cx="339" cy="437" r="1"/><circle cx="423" cy="437" r="1"/><circle cx="325" cy="395" r="1"/><circle cx="409" cy="395" r="1"/><circle cx="325" cy="437" r="1"/><circle cx="409" cy="437" r="1"/><circle cx="353" cy="395" r="1"/><circle cx="437" cy="395" r="1"/><circle cx="353" cy="437" r="1"/><circle cx="437" cy="437" r="1"/><circle cx="381" cy="381" r="1"/><circle cx="465" cy="381" r="1"/><circle cx="381" cy="423" r="1"/><circle cx="465" cy="423" r="1"/><circle cx="381" cy="465" r="1"/><circle cx="465" cy="465" r="1"/><circle cx="367" cy="381" r="1"/><circle cx="451" cy="381" r="1"/><circle cx="367" cy="423" r="1"/><circle cx="451" cy="423" r="1"/><circle cx="367" cy="465" r="1"/><circle cx="451" cy="465" r="1"/><circle cx="395" cy="381" r="1"/><circle cx="479" cy="381" r="1"/><circle cx="395" cy="423" r="1"/><circle cx="479" cy="423" r="1"/><circle cx="395" cy="465" r="1"/><circle cx="479" cy="465" r="1"/><circle cx="381" cy="367" r="1"/><circle cx="465" cy="367" r="1"/><circle cx="381" cy="409" r="1"/><circle cx="465" cy="409" r="1"/><circle cx="381" cy="451" r="1"/><circle cx="465" cy="451" r="1"/><circle cx="367" cy="367" r="1"/><circle cx="451" cy="367" r="1"/><circle cx="367" cy="409" r="1"/><circle cx="451" cy="409" r="1"/><circle cx="367" cy="451" r="1"/><circle cx="451" cy="451" r="1"/><circle cx="395" cy="367" r="1"/><circle cx="479" cy="367" r="1"/><circle cx="395" cy="409" r="1"/><circle cx="479" cy="409" r="1"/><circle cx="395" cy="451" r="1"/><circle cx="479" cy="451" r="1"/><circle cx="381" cy="395" r="1"/><circle cx="465" cy="395" r="1"/><circle cx="381" cy="437" r="1"/><circle cx="465" cy="437" r="1"/><circle cx="367" cy="395" r="1"/><circle cx="451" cy="395" r="1"/><circle cx="367" cy="437" r="1"/><circle cx="451" cy="437" r="1"/><circle cx="395" cy="395" r="1"/><circle cx="479" cy="395" r="1"/><circle cx="395" cy="437" r="1"/><circle cx="479" cy="437" r="1"/><circle cx="507" cy="339" r="1"/><circle cx="591" cy="339" r="1"/><circle cx="493" cy="339" r="1"/><circle cx="577" cy="339" r="1"/><circle cx="521" cy="339" r="1"/><circle cx="605" cy="339" r="1"/><circle cx="507" cy="325" r="1"/><circle cx="591" cy="325" r="1"/><circle cx="493" cy="325" r="1"/><circle cx="577" cy="325" r="1"/><circle cx="521" cy="325" r="1"/><circle cx="605" cy="325" r="1"/><circle cx="507" cy="353" r="1"/><circle cx="591" cy="353" r="1"/><circle cx="493" cy="353" r="1"/><circle cx="577" cy="353" r="1"/><circle cx="521" cy="353" r="1"/><circle cx="605" cy="353" r="1"/><circle cx="549" cy="339" r="1"/><circle cx="633" cy="339" r="1"/><circle cx="535" cy="339" r="1"/><circle cx="619" cy="339" r="1"/><circle cx="563" cy="339" r="1"/><circle cx="647" cy="339" r="1"/><circle cx="549" cy="325" r="1"/><circle cx="633" cy="325" r="1"/><circle cx="535" cy="325" r="1"/><circle cx="619" cy="325" r="1"/><circle cx="563" cy="325" r="1"/><circle cx="647" cy="325" r="1"/><circle cx="549" cy="353" r="1"/><circle cx="633" cy="353" r="1"/><circle cx="535" cy="353" r="1"/><circle cx="619" cy="353" r="1"/><circle cx="563" cy="353" r="1"/><circle cx="647" cy="353" r="1"/><circle cx="507" cy="381" r="1"/><circle cx="591" cy="381" r="1"/><circle cx="507" cy="423" r="1"/><circle cx="591" cy="423" r="1"/><circle cx="507" cy="465" r="1"/><circle cx="591" cy="465" r="1"/><circle cx="493" cy="381" r="1"/><circle cx="577" cy="381" r="1"/><circle cx="493" cy="423" r="1"/><circle cx="577" cy="423" r="1"/><circle cx="493" cy="465" r="1"/><circle cx="577" cy="465" r="1"/><circle cx="521" cy="381" r="1"/><circle cx="605" cy="381" r="1"/><circle cx="521" cy="423" r="1"/><circle cx="605" cy="423" r="1"/><circle cx="521" cy="465" r="1"/><circle cx="605" cy="465" r="1"/><circle cx="507" cy="367" r="1"/><circle cx="591" cy="367" r="1"/><circle cx="507" cy="409" r="1"/><circle cx="591" cy="409" r="1"/><circle cx="507" cy="451" r="1"/><circle cx="591" cy="451" r="1"/><circle cx="493" cy="367" r="1"/><circle cx="577" cy="367" r="1"/><circle cx="493" cy="409" r="1"/><circle cx="577" cy="409" r="1"/><circle cx="493" cy="451" r="1"/><circle cx="577" cy="451" r="1"/><circle cx="521" cy="367" r="1"/><circle cx="605" cy="367" r="1"/><circle cx="521" cy="409" r="1"/><circle cx="605" cy="409" r="1"/><circle cx="521" cy="451" r="1"/><circle cx="605" cy="451" r="1"/><circle cx="507" cy="395" r="1"/><circle cx="591" cy="395" r="1"/><circle cx="507" cy="437" r="1"/><circle cx="591" cy="437" r="1"/><circle cx="493" cy="395" r="1"/><circle cx="577" cy="395" r="1"/><circle cx="493" cy="437" r="1"/><circle cx="577" cy="437" r="1"/><circle cx="521" cy="395" r="1"/><circle cx="605" cy="395" r="1"/><circle cx="521" cy="437" r="1"/><circle cx="605" cy="437" r="1"/><circle cx="549" cy="381" r="1"/><circle cx="633" cy="381" r="1"/><circle cx="549" cy="423" r="1"/><circle cx="633" cy="423" r="1"/><circle cx="549" cy="465" r="1"/><circle cx="633" cy="465" r="1"/><circle cx="535" cy="381" r="1"/><circle cx="619" cy="381" r="1"/><circle cx="535" cy="423" r="1"/><circle cx="619" cy="423" r="1"/><circle cx="535" cy="465" r="1"/><circle cx="619" cy="465" r="1"/><circle cx="563" cy="381" r="1"/><circle cx="647" cy="381" r="1"/><circle cx="563" cy="423" r="1"/><circle cx="647" cy="423" r="1"/><circle cx="563" cy="465" r="1"/><circle cx="647" cy="465" r="1"/><circle cx="549" cy="367" r="1"/><circle cx="633" cy="367" r="1"/><circle cx="549" cy="409" r="1"/><circle cx="633" cy="409" r="1"/><circle cx="549" cy="451" r="1"/><circle cx="633" cy="451" r="1"/><circle cx="535" cy="367" r="1"/><circle cx="619" cy="367" r="1"/><circle cx="535" cy="409" r="1"/><circle cx="619" cy="409" r="1"/><circle cx="535" cy="451" r="1"/><circle cx="619" cy="451" r="1"/><circle cx="563" cy="367" r="1"/><circle cx="647" cy="367" r="1"/><circle cx="563" cy="409" r="1"/><circle cx="647" cy="409" r="1"/><circle cx="563" cy="451" r="1"/><circle cx="647" cy="451" r="1"/><circle cx="549" cy="395" r="1"/><circle cx="633" cy="395" r="1"/><circle cx="549" cy="437" r="1"/><circle cx="633" cy="437" r="1"/><circle cx="535" cy="395" r="1"/><circle cx="619" cy="395" r="1"/><circle cx="535" cy="437" r="1"/><circle cx="619" cy="437" r="1"/><circle cx="563" cy="395" r="1"/><circle cx="647" cy="395" r="1"/><circle cx="563" cy="437" r="1"/><circle cx="647" cy="437" r="1"/><circle cx="675" cy="339" r="1"/><circle cx="661" cy="339" r="1"/><circle cx="689" cy="339" r="1"/><circle cx="675" cy="325" r="1"/><circle cx="661" cy="325" r="1"/><circle cx="689" cy="325" r="1"/><circle cx="675" cy="353" r="1"/><circle cx="661" cy="353" r="1"/><circle cx="689" cy="353" r="1"/><circle cx="675" cy="381" r="1"/><circle cx="675" cy="423" r="1"/><circle cx="675" cy="465" r="1"/><circle cx="661" cy="381" r="1"/><circle cx="661" cy="423" r="1"/><circle cx="661" cy="465" r="1"/><circle cx="689" cy="381" r="1"/><circle cx="689" cy="423" r="1"/><circle cx="689" cy="465" r="1"/><circle cx="675" cy="367" r="1"/><circle cx="675" cy="409" r="1"/><circle cx="675" cy="451" r="1"/><circle cx="661" cy="367" r="1"/><circle cx="661" cy="409" r="1"/><circle cx="661" cy="451" r="1"/><circle cx="689" cy="367" r="1"/><circle cx="689" cy="409" r="1"/><circle cx="689" cy="451" r="1"/><circle cx="675" cy="395" r="1"/><circle cx="675" cy="437" r="1"/><circle cx="661" cy="395" r="1"/><circle cx="661" cy="437" r="1"/><circle cx="689" cy="395" r="1"/><circle cx="689" cy="437" r="1"/><circle cx="703" cy="339" r="1"/><circle cx="703" cy="325" r="1"/><circle cx="703" cy="353" r="1"/><circle cx="703" cy="381" r="1"/><circle cx="703" cy="423" r="1"/><circle cx="703" cy="465" r="1"/><circle cx="703" cy="367" r="1"/><circle cx="703" cy="409" r="1"/><circle cx="703" cy="451" r="1"/><circle cx="703" cy="395" r="1"/><circle cx="703" cy="437" r="1"/><circle cx="717" cy="339" r="1"/><circle cx="717" cy="325" r="1"/><circle cx="717" cy="353" r="1"/><circle cx="717" cy="381" r="1"/><circle cx="717" cy="423" r="1"/><circle cx="717" cy="465" r="1"/><circle cx="717" cy="367" r="1"/><circle cx="717" cy="409" r="1"/><circle cx="717" cy="451" r="1"/><circle cx="717" cy="395" r="1"/><circle cx="717" cy="437" r="1"/></g><rect width="139" height="55" x="278.5" y="110.5" fill="#fff" rx="9.5"/><rect width="139" height="55" x="278.5" y="110.5" stroke="#00695c" rx="9.5"/><rect width="30" height="30" x="290" y="123" fill="#d6e7e5" rx="4"/><path fill="#00695c" d="M309.6 131.6a1 1 0 0 0-1-1h-7.3a1 1 0 0 0-.9 1v13.7h9.2zm-3.7 6.4a1 1 0 0 1 1.9 0 1 1 0 0 1-1.9 0m5.5 7.3h1.9a1 1 0 0 1 0 1.9h-16.5a1 1 0 1 1 0-1.9h1.8v-13.7a3 3 0 0 1 2.7-2.8h7.4a3 3 0 0 1 2.7 2.8z"/><path fill="#17181c" d="M327.1 135h-1.8l3.3-9.5h2.2l3.3 9.5h-1.8l-2.6-7.5zm.1-3.7h5v1.4h-5zm13.6-1.5-1.6.2-.2-.5-.4-.3-.7-.1q-.5 0-.9.2-.3.2-.3.6l.2.5.8.3 1.2.3q1 .2 1.5.6.5.5.5 1.3a2 2 0 0 1-.4 1.2q-.4.5-1 .8-.7.2-1.6.2-1.3 0-2.1-.5t-1-1.5l1.7-.2q0 .5.4.7.4.3 1 .3t1-.3q.3-.2.3-.6l-.2-.5-.8-.3-1.2-.2q-1-.2-1.5-.7-.5-.6-.5-1.3a2 2 0 0 1 .4-1.2q.4-.5 1-.7.7-.3 1.5-.3 1.3 0 2 .5t.9 1.5m7 0-1.4.1-.3-.4-.4-.3-.6-.1q-.6 0-1 .2-.3.2-.3.6l.3.5q.2.2.7.3l1.2.3q1 .2 1.5.6.5.5.5 1.3l-.3 1.2q-.4.5-1.1.8-.7.2-1.6.2-1.3 0-2-.5-.9-.6-1-1.5l1.6-.2q.1.5.5.7.3.3 1 .3.5 0 .9-.3.3-.2.3-.6l-.2-.5q-.2-.2-.7-.3l-1.2-.2q-1-.2-1.5-.7-.5-.6-.5-1.3l.3-1.2q.4-.5 1-.7.7-.3 1.5-.3 1.3 0 2 .5t.9 1.5m4.7 5.3q-1.1 0-1.9-.4a3 3 0 0 1-1.2-1.3q-.4-.8-.4-1.9t.4-2 1.2-1.2 1.8-.5l1.2.2 1 .7q.5.4.8 1 .2.8.2 1.7v.5H350v-1.1h4.2l-.2-.9-.6-.6-.8-.2q-.5 0-.9.3l-.6.6-.2.9v1q0 .6.2 1t.6.7 1 .2h.6l.6-.4.3-.5 1.5.2-.5 1-1 .8q-.7.2-1.5.2m8-7.2v1.3h-4v-1.3zm-3-1.7h1.7v7.2l.3.2h.9l.3 1.3-.4.1-.6.1-1.1-.2-.8-.6q-.3-.5-.3-1.2zm5.5 8.9-.7-.3-.3-.7.3-.7q.3-.3.7-.3t.7.3a1 1 0 0 1 .2 1.2l-.4.4zm0-5-.7-.4-.3-.7.3-.7q.3-.3.7-.3t.7.3l.3.7-.1.5-.4.4zm-37.2 21v-9.5h3.6q1 0 1.8.4.7.4 1.1 1 .4.8.4 1.7t-.4 1.5l-1.1 1q-.8.4-1.8.4H327v-1.4h2.3q.7 0 1-.2.5-.1.7-.5.2-.3.2-.8t-.2-.9l-.6-.5q-.4-.2-1-.2h-1.7v8zm5-4.3 2.3 4.3h-2l-2.3-4.3zm6.4 4.4q-1 0-1.8-.4a3 3 0 0 1-1.2-1.3q-.4-.8-.4-2 0-1 .4-1.8a3 3 0 0 1 1.2-1.3q.8-.5 1.8-.5t1.8.5 1.2 1.3.4 1.9-.4 1.9a3 3 0 0 1-1.2 1.3q-.8.4-1.8.4m0-1.3q.6 0 1-.3l.5-.8.2-1.2q0-.7-.2-1.2l-.5-.8q-.4-.4-1-.4t-1 .4l-.5.8-.2 1.2.2 1.2q.2.5.6.8t1 .3m7.8 1.3q-1 0-1.8-.4a3 3 0 0 1-1.2-1.3q-.4-.8-.4-2 0-1 .4-1.8a3 3 0 0 1 1.2-1.3q.8-.5 1.8-.5t1.8.5 1.2 1.3.4 1.9-.4 1.9a3 3 0 0 1-1.2 1.3q-.7.4-1.8.4m0-1.3q.6 0 1-.3l.5-.8.2-1.2-.2-1.2-.5-.8q-.4-.4-1-.4t-1 .4l-.5.8-.2 1.2.2 1.2q.2.5.6.8t1 .3m4.7 1.2v-7h1.6v1.1h.1q.2-.6.7-1 .6-.3 1.3-.3t1.2.4.7 1q.3-.7.9-1 .5-.4 1.3-.4 1 0 1.6.6t.6 1.8v4.8h-1.7v-4.5q0-.7-.3-1l-.9-.3q-.6 0-1 .4-.3.4-.3 1v4.4h-1.6v-4.6q0-.5-.3-.8-.4-.4-.9-.4t-.7.2l-.4.5-.2.8v4.3zm18.7-9.5v9.5H367v-7.8l-2.2 1.4v-1.5l2.3-1.6z"/><path d="M290 145h30v21h-30z"/><rect width="139" height="55" x="278.5" y="303.5" fill="#fff" rx="9.5"/><rect width="139" height="55" x="278.5" y="303.5" stroke="#00695c" rx="9.5"/><rect width="30" height="30" x="290" y="316" fill="#d6e7e5" rx="4"/><path fill="#00695c" d="M309.6 324.6a1 1 0 0 0-1-1h-7.3a1 1 0 0 0-.9 1v13.7h9.2zm-3.7 6.4a1 1 0 0 1 1.9 0 1 1 0 0 1-1.9 0m5.5 7.3h1.9a1 1 0 0 1 0 1.9h-16.5a1 1 0 1 1 0-1.9h1.8v-13.7a3 3 0 0 1 2.7-2.8h7.4a3 3 0 0 1 2.7 2.8z"/><path fill="#17181c" d="M327.1 328h-1.8l3.3-9.5h2.2l3.3 9.5h-1.8l-2.6-7.5zm.1-3.7h5v1.4h-5zm13.6-1.5-1.6.2-.2-.5-.4-.3-.7-.1q-.5 0-.9.2-.3.2-.3.6l.2.5.8.3 1.2.3q1 .2 1.5.6.5.5.5 1.3a2 2 0 0 1-.4 1.2q-.4.5-1 .8-.7.2-1.6.2-1.3 0-2.1-.5t-1-1.5l1.7-.2q0 .5.4.7.4.3 1 .3t1-.3q.3-.2.3-.6l-.2-.5-.8-.3-1.2-.2q-1-.2-1.5-.7-.5-.6-.5-1.3a2 2 0 0 1 .4-1.2q.4-.5 1-.7.7-.3 1.5-.3 1.3 0 2 .5t.9 1.5m7 0-1.4.1-.3-.4-.4-.3-.6-.1q-.6 0-1 .2-.3.2-.3.6l.3.5q.2.2.7.3l1.2.3q1 .2 1.5.6.5.5.5 1.3l-.3 1.2q-.4.5-1.1.8-.7.2-1.6.2-1.3 0-2-.5-.9-.6-1-1.5l1.6-.2q.1.5.5.7.3.3 1 .3.5 0 .9-.3.3-.2.3-.6l-.2-.5q-.2-.2-.7-.3l-1.2-.2q-1-.2-1.5-.7-.5-.6-.5-1.3l.3-1.2q.4-.5 1-.7.7-.3 1.5-.3 1.3 0 2 .5t.9 1.5m4.7 5.3q-1.1 0-1.9-.4a3 3 0 0 1-1.2-1.3q-.4-.8-.4-1.9t.4-2 1.2-1.2 1.8-.5l1.2.2 1 .7q.5.4.8 1 .2.8.2 1.7v.5H350v-1.1h4.2l-.2-.9-.6-.6-.8-.2q-.5 0-.9.3l-.6.6-.2.9v1q0 .6.2 1t.6.7 1 .2h.6l.6-.4.3-.5 1.5.2-.5 1-1 .8q-.7.2-1.5.2m8-7.2v1.3h-4v-1.3zm-3-1.7h1.7v7.2l.3.2h.9l.3 1.3-.4.1-.6.1-1.1-.2-.8-.6q-.3-.5-.3-1.2zm5.5 8.9-.7-.3-.3-.7.3-.7q.3-.3.7-.3t.7.3a1 1 0 0 1 .2 1.2l-.4.4zm0-5-.7-.4-.3-.7.3-.7q.3-.3.7-.3t.7.3l.3.7-.1.5-.4.4zm-37.2 21v-9.5h3.6q1 0 1.8.4.7.4 1.1 1 .4.8.4 1.7t-.4 1.5l-1.1 1q-.8.4-1.8.4H327v-1.4h2.3q.7 0 1-.2.5-.1.7-.5.2-.3.2-.8t-.2-.9l-.6-.5q-.4-.2-1-.2h-1.7v8zm5-4.3 2.3 4.3h-2l-2.3-4.3zm6.4 4.4q-1 0-1.8-.4a3 3 0 0 1-1.2-1.3q-.4-.8-.4-2 0-1 .4-1.8a3 3 0 0 1 1.2-1.3q.8-.5 1.8-.5t1.8.5 1.2 1.3.4 1.9-.4 1.9a3 3 0 0 1-1.2 1.3q-.8.4-1.8.4m0-1.3q.6 0 1-.3l.5-.8.2-1.2q0-.7-.2-1.2l-.5-.8q-.4-.4-1-.4t-1 .4l-.5.8-.2 1.2.2 1.2q.2.5.6.8t1 .3m7.8 1.3q-1 0-1.8-.4a3 3 0 0 1-1.2-1.3q-.4-.8-.4-2 0-1 .4-1.8a3 3 0 0 1 1.2-1.3q.8-.5 1.8-.5t1.8.5 1.2 1.3.4 1.9-.4 1.9a3 3 0 0 1-1.2 1.3q-.7.4-1.8.4m0-1.3q.6 0 1-.3l.5-.8.2-1.2-.2-1.2-.5-.8q-.4-.4-1-.4t-1 .4l-.5.8-.2 1.2.2 1.2q.2.5.6.8t1 .3m4.7 1.2v-7h1.6v1.1h.1q.2-.6.7-1 .6-.3 1.3-.3t1.2.4.7 1q.3-.7.9-1 .5-.4 1.3-.4 1 0 1.6.6t.6 1.8v4.8h-1.7v-4.5q0-.7-.3-1l-.9-.3q-.6 0-1 .4-.3.4-.3 1v4.4h-1.6v-4.6q0-.5-.3-.8-.4-.4-.9-.4t-.7.2l-.4.5-.2.8v4.3zm14.9 0v-1.2l3.3-3.3.8-.8.4-.7.2-.8q0-.4-.2-.7l-.6-.5-.8-.2-.8.2-.5.5-.2.9h-1.7q0-1 .5-1.6l1-1q.8-.4 1.8-.4t1.6.4 1.1 1 .4 1.4l-.2 1-.7 1.1q-.5.7-1.4 1.5l-1.6 1.7h4v1.5z"/><path d="M290 338h30v21h-30z"/><rect width="175" height="55" x="528.5" y="206.5" fill="#fff" rx="9.5"/><rect width="175" height="55" x="528.5" y="206.5" stroke="#f5bb3d" rx="9.5"/><rect width="30" height="30" x="540" y="219" fill="#fceac5" rx="4"/><path fill="#73520d" d="M561.4 231.3q0 .8-.9.9h-1.8a1 1 0 0 1-1-1h-.9v9.2h5.5v-9.2zm-13.7-3.7v11h7.3v-7.3a2 2 0 0 1 1.8-1.9h2.8v-1.8zm13.7 1.8h1a2 2 0 0 1 1.8 1.8v9.2a2 2 0 0 1-1.9 1.8h-5.5a2 2 0 0 1-1.8-1.8h-7.3a2 2 0 0 1-1.9-1.8v-11a2 2 0 0 1 1.9-1.8h11.9a2 2 0 0 1 1.8 1.8z"/><path fill="#17181c" d="M579.1 231H576v-9.5h3.3q1.4 0 2.4.6a4 4 0 0 1 1.6 1.6q.5 1 .5 2.6 0 1.4-.5 2.5a4 4 0 0 1-1.6 1.6q-1 .6-2.5.6m-1.5-1.5h1.5q1 0 1.6-.3.7-.4 1-1.1t.3-1.8-.3-1.8a2 2 0 0 0-1-1.1q-.6-.4-1.6-.4h-1.5zm10.8 1.6q-1 0-1.8-.4a3 3 0 0 1-1.2-1.3q-.4-.8-.4-1.9t.4-2 1.2-1.2 1.7-.5q.7 0 1.3.2t1 .7.7 1q.3.8.3 1.7v.5h-5.8v-1.1h4.2l-.2-.9-.6-.6-.8-.2q-.6 0-1 .3l-.6.6-.2.9v1q0 .6.3 1t.6.7 1 .2h.6l.5-.4.3-.5 1.6.2-.6 1-1 .8q-.7.2-1.5.2m10.7-7.2-2.5 7.1h-1.9l-2.5-7h1.8l1.6 5.2h.1l1.6-5.3zm1.2 7.1v-7h1.6v7zm.8-8.1-.7-.3-.3-.6q0-.4.3-.6l.7-.3q.4 0 .7.3l.3.6-.3.6zm5.7 8.2q-1.1 0-1.9-.4a3 3 0 0 1-1.1-1.3q-.4-.8-.4-2 0-1 .4-1.8a3 3 0 0 1 1.1-1.3q.8-.5 1.8-.5t1.6.3 1 1q.4.5.5 1.3h-1.6l-.5-.9q-.3-.3-1-.3l-.8.2q-.4.3-.6.8t-.2 1.3.2 1.2.6.8.9.3l.6-.2q.3-.1.5-.4l.3-.6h1.6q0 .7-.5 1.3l-1 1q-.7.2-1.5.2m7.5 0q-1 0-1.8-.4a3 3 0 0 1-1.2-1.3q-.4-.8-.4-1.9t.4-2 1.1-1.2 1.8-.5q.7 0 1.3.2.5.2 1 .7l.7 1q.3.8.3 1.7v.5h-5.9v-1.1h4.3l-.3-.9-.5-.6-.9-.2q-.5 0-.9.3l-.6.6-.2.9v1q0 .6.2 1t.7.7 1 .2h.6l.5-.4.3-.5 1.6.2-.6 1-1 .8q-.7.2-1.5.2m5.6 0-.7-.3-.3-.7.3-.7q.3-.3.7-.3t.7.3a1 1 0 0 1 .2 1.2l-.4.4zm0-5-.7-.4-.3-.7.3-.7q.3-.3.7-.3t.7.3l.3.7-.1.5-.4.4zm-38.8 14.1a1 1 0 0 0-.6-.9q-.4-.3-1.2-.3l-1 .1-.5.5-.2.6.1.5.4.4.5.2.6.2.9.2 1 .4.9.5q.4.3.6.8t.2 1q0 .9-.4 1.5t-1.2 1-2 .3q-1 0-1.9-.3t-1.2-1q-.5-.7-.5-1.6h1.7q0 .5.3.8t.7.5 1 .2l1-.2.6-.5q.2-.3.2-.7l-.2-.6-.6-.4-.9-.3-1-.3q-1.2-.3-1.9-.9t-.7-1.6q0-.8.5-1.5a3 3 0 0 1 1.2-1q.8-.3 1.8-.3t1.8.4 1.2 1 .4 1.3zm6.3 7q-1 0-1.8-.4a3 3 0 0 1-1.2-1.3q-.4-.8-.4-1.9t.4-2 1.2-1.2 1.8-.5l1.2.2 1 .7q.5.4.7 1 .3.8.3 1.7v.5h-5.8v-1.1h4.2l-.2-.9-.6-.6-.8-.2q-.5 0-1 .3-.3.2-.5.6l-.2.9v1q0 .6.2 1t.6.7 1 .2h.6l.5-.4.4-.5 1.5.2-.5 1-1 .8q-.7.2-1.6.2m6.3-4.3v4.2H592v-7h1.6v1.1q.3-.6.9-1 .5-.3 1.3-.3.7 0 1.3.3.5.3.8 1 .3.5.3 1.4v4.5h-1.6v-4.3q0-.7-.4-1-.4-.5-1-.5t-.8.2q-.3.2-.5.6t-.2.8m11.8-1-1.5.2-.2-.5-.4-.3-.7-.1q-.5 0-.9.2-.3.2-.3.6l.2.5q.2.2.8.3l1.2.3q1 .2 1.5.6.5.5.5 1.3a2 2 0 0 1-.4 1.2q-.4.5-1 .8l-1.6.2q-1.3 0-2.1-.5t-1-1.5l1.6-.2q.2.5.5.7.4.3 1 .3t1-.3q.3-.2.3-.6l-.3-.5q-.2-.2-.7-.3l-1.2-.2q-1-.2-1.5-.7-.5-.6-.5-1.3a2 2 0 0 1 .4-1.2q.3-.5 1-.7.6-.3 1.5-.3 1.2 0 2 .5.7.6.8 1.5m4.7 5.3q-1 0-1.8-.4a3 3 0 0 1-1.2-1.3q-.4-.8-.4-2 0-1 .4-1.8t1.2-1.3q.7-.5 1.8-.5t1.8.5 1.1 1.3.5 1.9-.5 1.9a3 3 0 0 1-1.1 1.3q-.8.4-1.8.4m0-1.3q.5 0 1-.3.3-.3.5-.9l.2-1.1-.2-1.2-.6-.8q-.4-.4-1-.4t-.9.4-.6.8l-.1 1.2.1 1.1q.2.6.6.9t1 .3m4.8 1.2v-7h1.6v1l.7-.9 1.1-.3h.6v1.6h-.3l-.5-.1-.8.2-.5.5q-.3.4-.3.8v4.2z"/><path fill="#00695c" d="M305.8 169.3a.8.8 0 0 0-1.6 0zM305 234h-.7l.7.8zm76.2.8a.8.8 0 0 0 0-1.6zm61.9-1.6a.8.8 0 1 0 0 1.6zm82.2 1.3a1 1 0 0 0 0-1l-4.8-4.8a.7.7 0 1 0-1 1l4.2 4.3-4.3 4.2a.7.7 0 1 0 1.1 1.1zM305 169.3h-.7V234h1.4v-64.7zm0 64.7v.8h76.2v-1.6H305zm138 0v.8h81.7v-1.6h-81.6z"/><path fill="#23262f" d="M395.2 232.1H394a2 2 0 0 0-.8-1.3l-.7-.3-.8-.1-1.3.3q-.6.4-1 1.1-.3.8-.3 1.8 0 1.1.4 1.8.3.8.9 1.1t1.3.4h.8l.7-.4a2 2 0 0 0 .8-1.3h1.3l-.4 1.2-.8.9-1 .6-1.4.2q-1.1 0-2-.5t-1.4-1.6-.5-2.4.5-2.4 1.4-1.5 2-.5q.7 0 1.3.2.6.1 1.1.5t.8 1 .4 1.2m4.1 6q-.9 0-1.6-.4a3 3 0 0 1-1-1.2q-.4-.7-.4-1.7t.4-1.8a3 3 0 0 1 1-1.2q.7-.4 1.6-.4t1.6.4 1.1 1.2.4 1.8-.4 1.7a3 3 0 0 1-1 1.2q-.7.4-1.7.4m0-1q.6 0 1-.4.4-.3.6-.8l.2-1.1q0-.7-.2-1.2l-.6-.8q-.4-.4-1-.4t-1 .4l-.5.8q-.2.5-.2 1.2t.2 1.1.5.8 1 .4m5.6-3v3.9h-1.2v-6.5h1.2v1q.3-.5.8-.8t1.2-.3 1.2.3.8.8q.2.5.2 1.3v4.2H408v-4q0-.7-.4-1.1t-1-.4q-.5 0-.8.2l-.6.5q-.2.4-.2 1m8.9-2.7v1h-3.6v-1zm-2.6-1.6h1.2v6.2l.1.5.3.3h.9l.2 1-.8.2-1-.2-.7-.6q-.2-.4-.2-1zm5.7 8.2q-.6 0-1-.2l-.9-.7q-.3-.4-.3-1t.3-1l.5-.5.8-.3 1-.2.9-.1q.4 0 .5-.2.2 0 .2-.3 0-.6-.3-.9t-1-.3-1 .3l-.5.6-1.2-.3.7-1 1-.5 1-.1h.9l.8.4q.4.2.6.7.3.4.3 1.2v4.3H419v-.9l-.4.5-.6.4zm.3-1q.6 0 1-.2l.5-.5.2-.8v-.8l-.3.1-.4.1h-.5l-.4.1-.6.2q-.4.1-.5.3-.2.2-.2.6t.3.7 1 .2m4.4.9v-6.5h1.3v6.5zm.7-7.6-.6-.2-.2-.5.2-.6.6-.2.6.2.2.6-.2.5zm3.5 3.7v3.9h-1.3v-6.5h1.2v1h.1q.2-.5.7-.8t1.2-.3 1.2.3.8.8.3 1.3v4.2h-1.3v-4q0-.7-.4-1.1t-1-.4l-.8.2-.5.5q-.2.4-.2 1m10.6-1.1-1.1.2-.2-.5-.5-.3-.6-.1q-.6 0-1 .2-.3.3-.3.6l.3.6q.2.2.7.3l1 .2q1 .2 1.4.7.5.4.5 1.1 0 .6-.4 1-.3.5-1 .8-.5.2-1.3.2-1.1 0-1.8-.4t-.8-1.4l1.2-.2q.1.5.5.8.3.2.9.2t1-.3q.4-.2.4-.6l-.3-.5q-.2-.2-.7-.3l-1-.3q-1-.2-1.4-.6-.5-.5-.5-1.2t.4-1 .9-.7l1.3-.2q1 0 1.6.4t.8 1.3"/><rect width="175" height="55" x="528.5" y="399.5" fill="#fff" rx="9.5"/><rect width="175" height="55" x="528.5" y="399.5" stroke="#f5bb3d" rx="9.5"/><rect width="30" height="30" x="540" y="412" fill="#fceac5" rx="4"/><path fill="#73520d" d="M561.4 424.3q0 .8-.9.9h-1.8a1 1 0 0 1-1-1h-.9v9.2h5.5v-9.2zm-13.7-3.7v11h7.3v-7.3a2 2 0 0 1 1.8-1.9h2.8v-1.8zm13.7 1.8h1a2 2 0 0 1 1.8 1.9v9.1a2 2 0 0 1-1.9 1.9h-5.5a2 2 0 0 1-1.8-1.9h-7.3a2 2 0 0 1-1.9-1.8v-11a2 2 0 0 1 1.9-1.8h11.9a2 2 0 0 1 1.8 1.8z"/><path fill="#17181c" d="M579.1 424H576v-9.5h3.3q1.4 0 2.4.6a4 4 0 0 1 1.6 1.6q.5 1 .5 2.6 0 1.4-.5 2.5a4 4 0 0 1-1.6 1.6q-1 .6-2.5.6m-1.5-1.5h1.5q1 0 1.6-.3.7-.4 1-1.1t.3-1.8-.3-1.8a2 2 0 0 0-1-1.1q-.6-.4-1.6-.4h-1.5zm10.8 1.6q-1 0-1.8-.4a3 3 0 0 1-1.2-1.3q-.4-.8-.4-1.9t.4-2 1.2-1.2 1.7-.5q.7 0 1.3.2t1 .7.7 1q.3.8.3 1.7v.5h-5.8v-1.1h4.2l-.2-.9-.6-.6-.8-.2q-.6 0-1 .3l-.6.6-.2.9v1q0 .6.3 1t.6.7 1 .2h.6l.5-.4.3-.5 1.6.2-.6 1-1 .8q-.7.2-1.5.2m10.7-7.2-2.5 7.1h-1.9l-2.5-7h1.8l1.6 5.2h.1l1.6-5.3zm1.2 7.1v-7h1.6v7zm.8-8.1-.7-.3-.3-.6q0-.4.3-.6l.7-.3q.4 0 .7.3l.3.6-.3.6zm5.7 8.2q-1.1 0-1.9-.4a3 3 0 0 1-1.1-1.3q-.4-.8-.4-2 0-1 .4-1.8a3 3 0 0 1 1.1-1.3q.8-.5 1.8-.5t1.6.3 1 1q.4.5.5 1.3h-1.6l-.5-.9q-.3-.3-1-.3l-.8.2q-.4.3-.6.8t-.2 1.3.2 1.2.6.8.9.3l.6-.2q.3-.1.5-.4l.3-.6h1.6q0 .7-.5 1.3l-1 1q-.7.2-1.5.2m7.5 0q-1 0-1.8-.4a3 3 0 0 1-1.2-1.3q-.4-.8-.4-1.9t.4-2 1.1-1.2 1.8-.5q.7 0 1.3.2.5.2 1 .7l.7 1q.3.8.3 1.7v.5h-5.9v-1.1h4.3l-.3-.9-.5-.6-.9-.2q-.5 0-.9.3l-.6.6-.2.9v1q0 .6.2 1t.7.7 1 .2h.6l.5-.4.3-.5 1.6.2-.6 1-1 .8q-.7.2-1.5.2m5.6 0-.7-.3-.3-.7.3-.7q.3-.3.7-.3t.7.3a1 1 0 0 1 .2 1.2l-.4.4zm0-5-.7-.4-.3-.7.3-.7q.3-.3.7-.3t.7.3l.3.7-.1.5-.4.4zm-38.8 14.1a1 1 0 0 0-.6-.9q-.4-.3-1.2-.3l-1 .1-.5.5-.2.6.1.5.4.4.5.2.6.2.9.2 1 .4.9.5q.4.3.6.8t.2 1q0 .9-.4 1.5t-1.2 1-2 .3q-1 0-1.9-.3t-1.2-1q-.5-.7-.5-1.6h1.7q0 .5.3.8t.7.5 1 .2l1-.2.6-.5q.2-.3.2-.7l-.2-.6-.6-.4-.9-.3-1-.3q-1.2-.3-1.9-.9t-.7-1.6q0-.8.5-1.5a3 3 0 0 1 1.2-1q.8-.3 1.8-.3t1.8.4 1.2 1q.4.5.4 1.3zm6.3 7q-1 0-1.8-.4a3 3 0 0 1-1.2-1.3q-.4-.8-.4-1.9t.4-2 1.2-1.2 1.8-.5l1.2.2 1 .7q.5.4.7 1 .3.8.3 1.7v.5h-5.8v-1.1h4.2l-.2-.9-.6-.6-.8-.2q-.5 0-1 .3-.3.2-.5.6l-.2.9v1q0 .6.2 1t.6.7 1 .2h.6l.5-.4.4-.5 1.5.2-.5 1-1 .8q-.7.2-1.6.2m6.3-4.3v4.2H592v-7h1.6v1.1q.3-.6.9-1 .5-.3 1.3-.3.7 0 1.3.3.5.3.8 1 .3.5.3 1.4v4.5h-1.6v-4.3q0-.7-.4-1-.4-.5-1-.5t-.8.2q-.3.2-.5.6t-.2.8m11.8-1-1.5.2-.2-.5-.4-.3-.7-.1q-.5 0-.9.2-.3.2-.3.6l.2.5q.2.2.8.3l1.2.3q1 .2 1.5.6.5.5.5 1.3a2 2 0 0 1-.4 1.2q-.4.5-1 .8l-1.6.2q-1.3 0-2.1-.5t-1-1.5l1.6-.2q.2.5.5.7.4.3 1 .3t1-.3q.3-.2.3-.6l-.3-.5q-.2-.2-.7-.3l-1.2-.2q-1-.2-1.5-.7-.5-.6-.5-1.3a2 2 0 0 1 .4-1.2q.3-.5 1-.7.6-.3 1.5-.3 1.2 0 2 .5.7.6.8 1.5m4.7 5.3q-1 0-1.8-.4a3 3 0 0 1-1.2-1.3q-.4-.8-.4-2 0-1 .4-1.8t1.2-1.3q.7-.5 1.8-.5t1.8.5 1.1 1.3.5 1.9-.5 1.9a3 3 0 0 1-1.1 1.3q-.8.4-1.8.4m0-1.3q.5 0 1-.3l.5-.8.2-1.2-.2-1.2-.6-.8q-.4-.4-1-.4t-.9.4-.6.8l-.1 1.2.1 1.2q.2.5.6.8t1 .3m4.8 1.2v-7h1.6v1l.7-.9 1.1-.3h.6v1.6h-.3l-.5-.1-.8.2-.5.5-.3.8v4.2z"/><path fill="#00695c" d="M305.8 362.3a.8.8 0 0 0-1.6 0zM305 427h-.7l.7.8zm76.2.8a.8.8 0 0 0 0-1.6zm61.9-1.6a.8.8 0 1 0 0 1.6zm82.2 1.3a1 1 0 0 0 0-1l-4.8-4.8a.7.7 0 1 0-1 1l4.2 4.3-4.3 4.2a.7.7 0 1 0 1.1 1.1zM305 362.3h-.7V427h1.4v-64.7zm0 64.7v.8h76.2v-1.6H305zm138 0v.8h81.7v-1.6h-81.6z"/><path fill="#23262f" d="M395.2 425.1H394a2 2 0 0 0-.8-1.3l-.7-.3-.8-.1-1.3.3q-.6.4-1 1.1-.3.8-.3 1.8 0 1.1.4 1.8.3.8.9 1.1t1.3.4h.8l.7-.4a2 2 0 0 0 .8-1.3h1.3l-.4 1.2-.8 1-1 .5-1.4.2q-1.1 0-2-.5t-1.4-1.6-.5-2.4.5-2.4 1.4-1.5 2-.5q.7 0 1.3.2l1.1.5q.5.4.8 1t.4 1.2m4.1 6q-.9 0-1.6-.4a3 3 0 0 1-1-1.2q-.4-.7-.4-1.7t.4-1.8a3 3 0 0 1 1-1.2q.7-.4 1.6-.4t1.6.4 1.1 1.2.4 1.8-.4 1.7a3 3 0 0 1-1 1.2q-.7.4-1.7.4m0-1q.6 0 1-.4.4-.3.6-.8l.2-1.1q0-.7-.2-1.2l-.6-.8q-.4-.4-1-.4t-1 .4l-.5.8q-.2.5-.2 1.2t.2 1.1.5.8 1 .4m5.6-3v3.9h-1.2v-6.5h1.2v1q.3-.5.8-.8t1.2-.3 1.2.3.8.8q.2.5.2 1.3v4.2H408v-4q0-.7-.4-1.1t-1-.4q-.5 0-.8.2l-.6.5q-.2.4-.2 1m8.9-2.7v1h-3.6v-1zm-2.6-1.6h1.2v6.2l.1.5.3.3h.9l.2 1-.8.2-1-.2-.7-.6q-.2-.4-.2-1zm5.7 8.2q-.6 0-1-.2l-.9-.7q-.3-.4-.3-1t.3-1l.5-.5.8-.3 1-.2.9-.1q.4 0 .5-.2.2 0 .2-.3 0-.6-.3-.9t-1-.3-1 .3l-.5.6-1.2-.3.7-1 1-.5 1-.1h.9l.8.4q.4.2.6.7.3.4.3 1.2v4.3H419v-.9l-.4.5-.6.4zm.3-1q.6 0 1-.2l.5-.5.2-.8v-.8l-.3.1-.4.1h-.5l-.4.1-.6.2q-.4.1-.5.3-.2.2-.2.6t.3.7 1 .2m4.4.9v-6.5h1.3v6.5zm.7-7.6-.6-.2-.2-.5.2-.6.6-.2.6.2.2.6-.2.5zm3.5 3.7v3.9h-1.3v-6.5h1.2v1h.1q.2-.5.7-.8t1.2-.3 1.2.3.8.8.3 1.3v4.2h-1.3v-4q0-.7-.4-1.1t-1-.4l-.8.2-.5.5q-.2.4-.2 1m10.6-1.1-1.1.2-.2-.5-.5-.3-.6-.1q-.6 0-1 .2-.3.3-.3.6l.3.6q.2.2.7.3l1 .2q1 .2 1.4.7.5.4.5 1.1 0 .6-.4 1-.3.5-1 .8-.5.2-1.3.2-1.1 0-1.8-.4t-.8-1.4l1.2-.2q.1.5.5.8.3.2.9.2t1-.3q.4-.2.4-.6l-.3-.5q-.2-.2-.7-.3l-1-.3q-1-.2-1.4-.6-.5-.5-.5-1.2t.4-1 .9-.7l1.3-.2q1 0 1.6.4t.8 1.3"/><rect width="139" height="55" x="14.5" y="14.5" fill="#cfd4fc" rx="9.5"/><rect width="139" height="55" x="14.5" y="14.5" stroke="#3d50f5" rx="9.5"/><rect width="30" height="30" x="26" y="27" fill="#3d50f5" rx="4"/><path fill="#fff" d="M46.5 35.6a1 1 0 0 0-1-1h-9a1 1 0 0 0-1 1v13.7h11zm-7.3 9.1a1 1 0 1 1 0 1.9h-1a1 1 0 0 1 0-1.9zm4.6 0a1 1 0 0 1 0 1.9h-1a1 1 0 0 1 0-1.9zm-4.6-3.6a1 1 0 1 1 0 1.8h-1a1 1 0 1 1 0-1.8zm4.6 0a1 1 0 0 1 0 1.8h-1a1 1 0 1 1 0-1.8zm-4.6-3.7a1 1 0 1 1 0 1.9h-1a1 1 0 1 1 0-1.9zm4.6 0a1 1 0 0 1 0 1.9h-1a1 1 0 1 1 0-1.9zm4.5 12h1a1 1 0 0 1 0 1.8H32.8a1 1 0 1 1 0-1.9h.9V35.6a3 3 0 0 1 2.7-2.8h9.2a3 3 0 0 1 2.7 2.8z"/><path fill="#17181c" d="M63.1 39h-1.8l3.3-9.5h2.2L70 39h-1.8l-2.6-7.5zm.1-3.7h5v1.4h-5zm13.6-1.5-1.6.2-.2-.5-.4-.3-.7-.1q-.5 0-.9.2-.3.2-.3.6l.2.5.8.3 1.2.3q1 .2 1.5.6.5.5.5 1.3 0 .6-.4 1.2t-1 .8-1.6.2q-1.3 0-2.1-.5t-1-1.5l1.7-.2q0 .5.4.7.4.3 1 .3t1-.3q.3-.2.3-.6l-.2-.5-.8-.3L73 36q-1-.2-1.5-.7-.5-.6-.5-1.3a2 2 0 0 1 .4-1.2q.4-.5 1-.7.7-.3 1.5-.3 1.2 0 2 .5.7.6.9 1.5m7 0-1.4.2-.3-.5-.4-.3-.6-.1q-.6 0-1 .2-.3.2-.3.6l.3.5q.2.2.7.3l1.2.3q1 .2 1.5.6.5.5.5 1.3 0 .6-.3 1.2-.4.5-1.1.8-.7.2-1.6.2-1.3 0-2-.5-.9-.6-1-1.5l1.6-.2q.1.5.5.7.3.3 1 .3.5 0 .9-.3.3-.2.3-.6l-.2-.5q-.2-.2-.7-.3l-1.2-.2q-1-.2-1.5-.7-.5-.6-.5-1.3l.3-1.2q.4-.5 1-.7.7-.3 1.5-.3 1.3 0 2 .5t.9 1.5m4.7 5.3q-1.1 0-1.9-.4a3 3 0 0 1-1.2-1.3q-.4-.8-.4-1.9t.4-2 1.2-1.2 1.8-.5l1.2.2q.6.2 1 .7t.8 1q.2.8.2 1.7v.5H86v-1.1h4.2l-.2-.9-.6-.6-.8-.2q-.5 0-.9.3t-.6.6l-.2.9v1q0 .6.2 1t.6.7 1 .2h.6l.6-.4.3-.5 1.5.2-.5 1-1 .8q-.7.2-1.5.2m8-7.2v1.3h-4v-1.3zm-3-1.7h1.7v7.2l.3.2h.9l.3 1.3-.4.1-.6.1-1.1-.2-.8-.6q-.3-.5-.3-1.2zm5.5 8.9-.7-.3-.3-.7.3-.7.7-.3q.4 0 .7.3a1 1 0 0 1 .2 1.2l-.4.4zm0-5-.7-.4-.3-.7.3-.7q.3-.3.7-.3t.7.3l.3.7a1 1 0 0 1-.5.9zM61.9 55v-9.5h3.7q1 0 1.7.4.6.3 1 .8.3.6.3 1.3 0 .6-.2 1t-.6.6l-.8.4v.1q.5 0 1 .3t.7.8.3 1.2-.4 1.3-1 1-1.8.3zm1.7-1.4h1.9q1 0 1.3-.4.4-.3.4-1a1.4 1.4 0 0 0-.8-1.2l-.9-.2h-1.9zm0-4h1.7q.5 0 .8-.2t.6-.5.2-.7-.4-.9q-.4-.3-1.1-.3h-1.8zM75 52v-4h1.7v7H75v-1.3h-.1q-.2.6-.8 1-.5.4-1.3.4l-1.3-.3-.8-1q-.3-.5-.3-1.4V48h1.7v4.3q0 .6.3 1 .4.4 1 .4l.7-.1q.4-.2.6-.6t.2-.9m3.4 3v-7H80v7zm.9-8.1-.7-.3-.3-.6q0-.4.3-.6l.7-.3q.4 0 .6.3.3.2.3.6t-.3.6zm4.2-1.4V55h-1.7v-9.5zm4.3 9.6a3 3 0 0 1-1.5-.4q-.6-.4-1-1.3t-.4-2 .4-2q.4-.7 1-1.2t1.5-.4q.7 0 1 .2.5.2.7.5l.4.6v-3.6h1.7V55h-1.6v-1.1h-.1l-.4.5-.7.5q-.4.2-1 .2m.5-1.3q.5 0 .9-.3l.6-.8.2-1.2q0-.7-.2-1.2l-.6-.8q-.4-.3-1-.3t-.8.3l-.6.8-.2 1.2q0 .6.2 1.1t.6.9.9.3m5 1.2v-7H95v7zm1-8.1-.8-.3-.3-.6q0-.4.3-.6l.7-.3q.4 0 .7.3t.3.6-.3.6zm4.2 4V55h-1.6v-7h1.6v1q.3-.6.8-1 .6-.3 1.4-.3t1.2.3.9 1 .3 1.4V55h-1.7v-4.3q0-.7-.3-1-.4-.5-1-.5t-.8.2q-.4.2-.6.6t-.2.8m9.4 7q-1 0-1.6-.2l-1-.7-.6-.9 1.6-.3.2.4.6.3.8.1q.7 0 1.2-.3t.4-1.1v-1.4l-.4.6-.7.4q-.4.2-1 .2a3 3 0 0 1-1.5-.4q-.6-.4-1-1.1t-.4-2 .4-2 1-1.2 1.5-.4 1 .2q.5.2.7.5l.4.6v-1.2h1.7v7.2q0 1-.4 1.5a3 3 0 0 1-1.2 1q-.8.2-1.7.2m0-4.2q.5 0 .9-.3t.6-.7.2-1.2l-.2-1.2-.6-.7q-.4-.3-1-.3t-.8.3-.6.8l-.2 1.1q0 .7.2 1.2t.6.7.9.3m9.5 1.4h-1.8l3.3-9.5h2.1l3.4 9.5h-1.9l-2.5-7.5zm0-3.7h5v1.4h-5z"/><path d="M26 49h30v21H26z"/><path fill="#3d50f5" d="M41.8 73.3a.8.8 0 0 0-1.5 0zM41 331h-.7l.7.8zm83.9.8a.8.8 0 1 0 0-1.6zm61.8-1.6a.8.8 0 0 0 0 1.6zm88.6 1.3a1 1 0 0 0 0-1l-4.8-4.8a.7.7 0 1 0-1 1l4.2 4.3-4.3 4.2a.7.7 0 1 0 1.1 1.1zM41 73.3h-.7V331h1.5V73.3zM41 331v.8h83.9v-1.6H41zm145.7 0v.8h88v-1.6h-88z"/><path fill="#23262f" d="M139 329.1h-1.4a2 2 0 0 0-.8-1.3l-.7-.3-.8-.1q-.7 0-1.3.3-.6.4-1 1.1-.3.8-.3 1.8 0 1.1.3 1.8.4.8 1 1.1t1.3.4h.8l.7-.4.5-.6.3-.7h1.3l-.4 1.2-.8 1-1 .5-1.4.2q-1.1 0-2-.5-1-.6-1.4-1.6-.5-1-.5-2.4t.5-2.4 1.4-1.5 2-.5q.7 0 1.3.2l1 .5q.6.4.9 1t.4 1.2m4.1 6q-1 0-1.6-.4a3 3 0 0 1-1-1.2q-.4-.7-.4-1.7t.3-1.8a3 3 0 0 1 1.1-1.2q.7-.4 1.6-.4t1.6.4 1 1.2q.5.7.5 1.8 0 1-.4 1.7a3 3 0 0 1-1 1.2q-.8.4-1.7.4m0-1q.6 0 1-.4t.6-.8.2-1.1-.2-1.2l-.6-.8q-.4-.4-1-.4t-1 .4l-.6.8q-.2.5-.2 1.2t.2 1.1.6.8 1 .4m5.6-3v3.9h-1.3v-6.5h1.3v1q.3-.5.8-.8t1.2-.3 1.2.3.7.8.3 1.3v4.2h-1.3v-4q0-.7-.3-1.1-.4-.4-1-.4t-.8.2l-.6.5q-.2.4-.2 1m8.8-2.7v1H154v-1zm-2.6-1.6h1.3v6.2l.1.5.3.3h.8l.3 1-.9.2-.9-.2-.7-.6q-.3-.4-.3-1zm5.8 8.2q-.6 0-1.1-.2l-.8-.7q-.3-.4-.3-1t.2-1 .6-.5.8-.3l1-.2.9-.1q.3 0 .5-.2.2 0 .2-.3 0-.6-.3-.9-.4-.3-1-.3t-1 .3-.5.6l-1.2-.3q.2-.6.6-1l1-.5 1.1-.1h.8l.9.4q.4.2.6.7.3.4.3 1.2v4.3h-1.3v-.9l-.4.5-.6.4zm.3-1q.5 0 .9-.2t.6-.5l.2-.8v-.8l-.3.1-.4.1h-.5l-.4.1-.7.2-.5.3-.1.6q0 .4.3.7.4.2.9.2m4.5.9v-6.5h1.3v6.5zm.7-7.6-.6-.2-.2-.5.2-.6.6-.2q.3 0 .5.2l.3.6-.3.5zm3.4 3.7v3.9h-1.2v-6.5h1.2v1q.3-.5.8-.8t1.2-.3 1.2.3.8.8q.2.5.2 1.3v4.2h-1.2v-4q0-.7-.4-1.1t-1-.4-.8.2l-.6.5q-.2.4-.2 1m10.7-1.1-1.1.2-.3-.5-.4-.3-.6-.1q-.6 0-1 .2-.3.3-.3.6 0 .4.2.6l.8.3 1 .2q1 .2 1.4.7t.4 1.1-.3 1q-.3.5-1 .8-.5.2-1.3.2-1.1 0-1.8-.4t-.9-1.4l1.3-.2q0 .5.4.8.4.2 1 .2t1-.3q.3-.2.3-.6l-.2-.5q-.2-.2-.7-.3l-1-.3q-1-.2-1.4-.6-.5-.5-.5-1.2t.3-1l1-.7 1.2-.2q1.1 0 1.7.4t.8 1.3"/><path fill="#3d50f5" d="M41.8 73.3a.8.8 0 0 0-1.5 0zM41 138h-.7l.7.8zm83 .8a.8.8 0 0 0 0-1.6zm62-1.6a.8.8 0 0 0 0 1.6zm89.3 1.3a1 1 0 0 0 0-1l-4.8-4.8a.7.7 0 1 0-1 1l4.2 4.3-4.3 4.2a.7.7 0 1 0 1.1 1.1zM41 73.3h-.7V138h1.5V73.3zm0 64.7v.8h83v-1.6H41zm145 0v.8h88.8v-1.6h-88.9z"/><path fill="#23262f" d="M138.1 136.1h-1.3a2 2 0 0 0-.8-1.3l-.7-.3-.8-.1q-.7 0-1.3.3-.6.4-1 1.1-.3.8-.3 1.8 0 1.1.3 1.8.4.8 1 1.1t1.3.4h.8l.7-.4.5-.6.3-.7h1.3l-.4 1.2-.8.9-1 .6-1.4.2q-1.1 0-2-.5t-1.4-1.6-.5-2.4.5-2.4 1.4-1.5 2-.5q.7 0 1.3.2.6.1 1.1.5t.8 1 .4 1.2m4.1 6q-.9 0-1.6-.4a3 3 0 0 1-1-1.2q-.4-.7-.4-1.7t.3-1.8a3 3 0 0 1 1.1-1.2q.7-.4 1.6-.4t1.6.4 1 1.2q.5.7.5 1.8 0 1-.4 1.7a3 3 0 0 1-1 1.2q-.8.4-1.7.4m0-1q.6 0 1-.4t.6-.8l.2-1.1q0-.7-.2-1.2l-.6-.8q-.4-.4-1-.4t-1 .4l-.6.8-.1 1.2.1 1.1q.2.5.6.8t1 .4m5.6-3v3.9h-1.2v-6.5h1.2v1q.3-.5.8-.8t1.2-.3 1.2.3.7.8.3 1.3v4.2h-1.2v-4q0-.7-.4-1.1t-1-.4-.8.2l-.6.5q-.2.4-.2 1m8.9-2.7v1H153v-1zm-2.7-1.6h1.3v6.2l.1.5.3.3h.8l.3 1-.9.2-.9-.2-.7-.6q-.3-.4-.3-1zm5.8 8.2q-.6 0-1-.2l-.9-.7q-.3-.4-.3-1t.2-1l.6-.5.8-.3 1-.2.9-.1q.4 0 .5-.2.2 0 .2-.3 0-.6-.3-.9t-1-.3-1 .3l-.5.6-1.2-.3q.2-.6.7-1l.9-.5 1.1-.1h.9l.8.4q.4.2.6.7.3.4.3 1.2v4.3h-1.3v-.9l-.4.5-.6.4zm.3-1 1-.2.5-.5.2-.8v-.8l-.3.1-.4.1h-.5l-.4.1-.7.2-.4.3q-.2.2-.2.6t.3.7 1 .2m4.4.9v-6.5h1.3v6.5zm.7-7.6-.6-.2-.2-.5.2-.6.6-.2q.3 0 .5.2l.3.6q0 .3-.3.5zm3.5 3.7v3.9h-1.3v-6.5h1.2v1q.3-.5.8-.8t1.2-.3 1.2.3.8.8.3 1.3v4.2h-1.3v-4q0-.7-.4-1.1t-1-.4-.8.2l-.5.5q-.2.4-.2 1m10.6-1.1-1.1.2-.2-.5-.5-.3-.6-.1q-.6 0-1 .2-.3.3-.3.6l.2.6.8.3 1 .2q1 .2 1.4.7.5.4.5 1.1 0 .6-.4 1-.3.5-1 .8-.5.2-1.3.2-1.1 0-1.8-.4t-.9-1.4l1.3-.2q0 .5.4.8.4.2 1 .2t1-.3q.4-.2.4-.6l-.3-.5q-.2-.2-.7-.3l-1-.3q-1-.2-1.4-.6-.5-.5-.5-1.2t.4-1 .9-.7l1.3-.2q1 0 1.6.4t.8 1.3"/></g><defs><clipPath id="a"><path fill="#fff" d="M0 0h720v469H0z"/></clipPath><clipPath id="b"><path fill="#fff" d="M-12 2h730v646H-12z"/></clipPath></defs></svg>