<svg xmlns="http://www.w3.org/2000/svg" width="720" height="201" fill="none"><g clip-path="url(#a)"><path fill="#17181c" d="M0 0h720v201H0z"/><g fill="#353841" clip-path="url(#b)" opacity=".5"><path d="M-11 324a1 1 0 1 1 0 2 1 1 0 0 1 0-2M3 324a1 1 0 1 1 0 2 1 1 0 0 1 0-2M17 324a1 1 0 1 1 0 2 1 1 0 0 1 0-2M31 324a1 1 0 1 1 0 2 1 1 0 0 1 0-2M45 324a1 1 0 1 1 0 2 1 1 0 0 1 0-2M59 324a1 1 0 1 1 0 2 1 1 0 0 1 0-2M73 324a1 1 0 1 1 0 2 1 1 0 0 1 0-2M87 324a1 1 0 1 1 0 2 1 1 0 0 1 0-2M101 324a1 1 0 1 1 0 2 1 1 0 0 1 0-2M115 324a1 1 0 1 1 0 2 1 1 0 0 1 0-2M129 324a1 1 0 1 1 0 2 1 1 0 0 1 0-2M143 324a1 1 0 1 1 0 2 1 1 0 0 1 0-2M157 324a1 1 0 1 1 0 2 1 1 0 0 1 0-2M171 324a1 1 0 1 1 0 2 1 1 0 0 1 0-2M185 324a1 1 0 1 1 0 2 1 1 0 0 1 0-2M199 324a1 1 0 1 1 0 2 1 1 0 0 1 0-2M213 324a1 1 0 1 1 0 2 1 1 0 0 1 0-2M227 324a1 1 0 1 1 0 2 1 1 0 0 1 0-2M241 324a1 1 0 1 1 0 2 1 1 0 0 1 0-2M255 324a1 1 0 1 1 0 2 1 1 0 0 1 0-2M269 324a1 1 0 1 1 0 2 1 1 0 0 1 0-2M283 324a1 1 0 1 1 0 2 1 1 0 0 1 0-2M297 324a1 1 0 1 1 0 2 1 1 0 0 1 0-2M311 324a1 1 0 1 1 0 2 1 1 0 0 1 0-2M325 324a1 1 0 1 1 0 2 1 1 0 0 1 0-2M339 324a1 1 0 1 1 0 2 1 1 0 0 1 0-2M353 324a1 1 0 1 1 0 2 1 1 0 0 1 0-2M367 324a1 1 0 1 1 0 2 1 1 0 0 1 0-2M381 324a1 1 0 1 1 0 2 1 1 0 0 1 0-2M395 324a1 1 0 1 1 0 2 1 1 0 0 1 0-2M409 324a1 1 0 1 1 0 2 1 1 0 0 1 0-2M423 324a1 1 0 1 1 0 2 1 1 0 0 1 0-2M437 324a1 1 0 1 1 0 2 1 1 0 0 1 0-2M451 324a1 1 0 1 1 0 2 1 1 0 0 1 0-2M465 324a1 1 0 1 1 0 2 1 1 0 0 1 0-2M479 324a1 1 0 1 1 0 2 1 1 0 0 1 0-2M493 324a1 1 0 1 1 0 2 1 1 0 0 1 0-2M507 324a1 1 0 1 1 0 2 1 1 0 0 1 0-2M521 324a1 1 0 1 1 0 2 1 1 0 0 1 0-2M535 324a1 1 0 1 1 0 2 1 1 0 0 1 0-2M549 324a1 1 0 1 1 0 2 1 1 0 0 1 0-2M563 324a1 1 0 1 1 0 2 1 1 0 0 1 0-2M577 324a1 1 0 1 1 0 2 1 1 0 0 1 0-2M591 324a1 1 0 1 1 0 2 1 1 0 0 1 0-2M605 324a1 1 0 1 1 0 2 1 1 0 0 1 0-2M619 324a1 1 0 1 1 0 2 1 1 0 0 1 0-2M633 324a1 1 0 1 1 0 2 1 1 0 0 1 0-2M647 324a1 1 0 1 1 0 2 1 1 0 0 1 0-2M661 324a1 1 0 1 1 0 2 1 1 0 0 1 0-2M675 324a1 1 0 1 1 0 2 1 1 0 0 1 0-2M689 324a1 1 0 1 1 0 2 1 1 0 0 1 0-2M703 324a1 1 0 1 1 0 2 1 1 0 0 1 0-2M-11 310a1 1 0 1 1 0 2 1 1 0 0 1 0-2M3 310a1 1 0 1 1 0 2 1 1 0 0 1 0-2M17 310a1 1 0 1 1 0 2 1 1 0 0 1 0-2M31 310a1 1 0 1 1 0 2 1 1 0 0 1 0-2M45 310a1 1 0 1 1 0 2 1 1 0 0 1 0-2M59 310a1 1 0 1 1 0 2 1 1 0 0 1 0-2M73 310a1 1 0 1 1 0 2 1 1 0 0 1 0-2M87 310a1 1 0 1 1 0 2 1 1 0 0 1 0-2M101 310a1 1 0 1 1 0 2 1 1 0 0 1 0-2M115 310a1 1 0 1 1 0 2 1 1 0 0 1 0-2M129 310a1 1 0 1 1 0 2 1 1 0 0 1 0-2M143 310a1 1 0 1 1 0 2 1 1 0 0 1 0-2M157 310a1 1 0 1 1 0 2 1 1 0 0 1 0-2M171 310a1 1 0 1 1 0 2 1 1 0 0 1 0-2M185 310a1 1 0 1 1 0 2 1 1 0 0 1 0-2M199 310a1 1 0 1 1 0 2 1 1 0 0 1 0-2M213 310a1 1 0 1 1 0 2 1 1 0 0 1 0-2M227 310a1 1 0 1 1 0 2 1 1 0 0 1 0-2M241 310a1 1 0 1 1 0 2 1 1 0 0 1 0-2M255 310a1 1 0 1 1 0 2 1 1 0 0 1 0-2M269 310a1 1 0 1 1 0 2 1 1 0 0 1 0-2M283 310a1 1 0 1 1 0 2 1 1 0 0 1 0-2M297 310a1 1 0 1 1 0 2 1 1 0 0 1 0-2M311 310a1 1 0 1 1 0 2 1 1 0 0 1 0-2M325 310a1 1 0 1 1 0 2 1 1 0 0 1 0-2M339 310a1 1 0 1 1 0 2 1 1 0 0 1 0-2M353 310a1 1 0 1 1 0 2 1 1 0 0 1 0-2M367 310a1 1 0 1 1 0 2 1 1 0 0 1 0-2M381 310a1 1 0 1 1 0 2 1 1 0 0 1 0-2M395 310a1 1 0 1 1 0 2 1 1 0 0 1 0-2M409 310a1 1 0 1 1 0 2 1 1 0 0 1 0-2M423 310a1 1 0 1 1 0 2 1 1 0 0 1 0-2M437 310a1 1 0 1 1 0 2 1 1 0 0 1 0-2M451 310a1 1 0 1 1 0 2 1 1 0 0 1 0-2M465 310a1 1 0 1 1 0 2 1 1 0 0 1 0-2M479 310a1 1 0 1 1 0 2 1 1 0 0 1 0-2M493 310a1 1 0 1 1 0 2 1 1 0 0 1 0-2M507 310a1 1 0 1 1 0 2 1 1 0 0 1 0-2M521 310a1 1 0 1 1 0 2 1 1 0 0 1 0-2M535 310a1 1 0 1 1 0 2 1 1 0 0 1 0-2M549 310a1 1 0 1 1 0 2 1 1 0 0 1 0-2M563 310a1 1 0 1 1 0 2 1 1 0 0 1 0-2M577 310a1 1 0 1 1 0 2 1 1 0 0 1 0-2M591 310a1 1 0 1 1 0 2 1 1 0 0 1 0-2M605 310a1 1 0 1 1 0 2 1 1 0 0 1 0-2M619 310a1 1 0 1 1 0 2 1 1 0 0 1 0-2M633 310a1 1 0 1 1 0 2 1 1 0 0 1 0-2M647 310a1 1 0 1 1 0 2 1 1 0 0 1 0-2M661 310a1 1 0 1 1 0 2 1 1 0 0 1 0-2M675 310a1 1 0 1 1 0 2 1 1 0 0 1 0-2M689 310a1 1 0 1 1 0 2 1 1 0 0 1 0-2M703 310a1 1 0 1 1 0 2 1 1 0 0 1 0-2M717 310a1 1 0 1 1 0 2 1 1 0 0 1 0-2M-11 296a1 1 0 1 1 0 2 1 1 0 0 1 0-2M3 296a1 1 0 1 1 0 2 1 1 0 0 1 0-2M17 296a1 1 0 1 1 0 2 1 1 0 0 1 0-2M31 296a1 1 0 1 1 0 2 1 1 0 0 1 0-2M45 296a1 1 0 1 1 0 2 1 1 0 0 1 0-2M59 296a1 1 0 1 1 0 2 1 1 0 0 1 0-2M73 296a1 1 0 1 1 0 2 1 1 0 0 1 0-2M87 296a1 1 0 1 1 0 2 1 1 0 0 1 0-2M101 296a1 1 0 1 1 0 2 1 1 0 0 1 0-2M115 296a1 1 0 1 1 0 2 1 1 0 0 1 0-2M129 296a1 1 0 1 1 0 2 1 1 0 0 1 0-2M143 296a1 1 0 1 1 0 2 1 1 0 0 1 0-2M157 296a1 1 0 1 1 0 2 1 1 0 0 1 0-2M171 296a1 1 0 1 1 0 2 1 1 0 0 1 0-2M185 296a1 1 0 1 1 0 2 1 1 0 0 1 0-2M199 296a1 1 0 1 1 0 2 1 1 0 0 1 0-2M213 296a1 1 0 1 1 0 2 1 1 0 0 1 0-2M227 296a1 1 0 1 1 0 2 1 1 0 0 1 0-2M241 296a1 1 0 1 1 0 2 1 1 0 0 1 0-2M255 296a1 1 0 1 1 0 2 1 1 0 0 1 0-2M269 296a1 1 0 1 1 0 2 1 1 0 0 1 0-2M283 296a1 1 0 1 1 0 2 1 1 0 0 1 0-2M297 296a1 1 0 1 1 0 2 1 1 0 0 1 0-2M311 296a1 1 0 1 1 0 2 1 1 0 0 1 0-2M325 296a1 1 0 1 1 0 2 1 1 0 0 1 0-2M339 296a1 1 0 1 1 0 2 1 1 0 0 1 0-2M353 296a1 1 0 1 1 0 2 1 1 0 0 1 0-2M367 296a1 1 0 1 1 0 2 1 1 0 0 1 0-2M381 296a1 1 0 1 1 0 2 1 1 0 0 1 0-2M395 296a1 1 0 1 1 0 2 1 1 0 0 1 0-2M409 296a1 1 0 1 1 0 2 1 1 0 0 1 0-2M423 296a1 1 0 1 1 0 2 1 1 0 0 1 0-2M437 296a1 1 0 1 1 0 2 1 1 0 0 1 0-2M451 296a1 1 0 1 1 0 2 1 1 0 0 1 0-2M465 296a1 1 0 1 1 0 2 1 1 0 0 1 0-2M479 296a1 1 0 1 1 0 2 1 1 0 0 1 0-2M493 296a1 1 0 1 1 0 2 1 1 0 0 1 0-2M507 296a1 1 0 1 1 0 2 1 1 0 0 1 0-2M521 296a1 1 0 1 1 0 2 1 1 0 0 1 0-2M535 296a1 1 0 1 1 0 2 1 1 0 0 1 0-2M549 296a1 1 0 1 1 0 2 1 1 0 0 1 0-2M563 296a1 1 0 1 1 0 2 1 1 0 0 1 0-2M577 296a1 1 0 1 1 0 2 1 1 0 0 1 0-2M591 296a1 1 0 1 1 0 2 1 1 0 0 1 0-2M605 296a1 1 0 1 1 0 2 1 1 0 0 1 0-2M619 296a1 1 0 1 1 0 2 1 1 0 0 1 0-2M633 296a1 1 0 1 1 0 2 1 1 0 0 1 0-2M647 296a1 1 0 1 1 0 2 1 1 0 0 1 0-2M661 296a1 1 0 1 1 0 2 1 1 0 0 1 0-2M675 296a1 1 0 1 1 0 2 1 1 0 0 1 0-2M689 296a1 1 0 1 1 0 2 1 1 0 0 1 0-2M703 296a1 1 0 1 1 0 2 1 1 0 0 1 0-2M717 296a1 1 0 1 1 0 2 1 1 0 0 1 0-2M-11 282a1 1 0 1 1 0 2 1 1 0 0 1 0-2M3 282a1 1 0 1 1 0 2 1 1 0 0 1 0-2M17 282a1 1 0 1 1 0 2 1 1 0 0 1 0-2M31 282a1 1 0 1 1 0 2 1 1 0 0 1 0-2M45 282a1 1 0 1 1 0 2 1 1 0 0 1 0-2M59 282a1 1 0 1 1 0 2 1 1 0 0 1 0-2M73 282a1 1 0 1 1 0 2 1 1 0 0 1 0-2M87 282a1 1 0 1 1 0 2 1 1 0 0 1 0-2M101 282a1 1 0 1 1 0 2 1 1 0 0 1 0-2M115 282a1 1 0 1 1 0 2 1 1 0 0 1 0-2M129 282a1 1 0 1 1 0 2 1 1 0 0 1 0-2M143 282a1 1 0 1 1 0 2 1 1 0 0 1 0-2M157 282a1 1 0 1 1 0 2 1 1 0 0 1 0-2M171 282a1 1 0 1 1 0 2 1 1 0 0 1 0-2M185 282a1 1 0 1 1 0 2 1 1 0 0 1 0-2M199 282a1 1 0 1 1 0 2 1 1 0 0 1 0-2M213 282a1 1 0 1 1 0 2 1 1 0 0 1 0-2M227 282a1 1 0 1 1 0 2 1 1 0 0 1 0-2M241 282a1 1 0 1 1 0 2 1 1 0 0 1 0-2M255 282a1 1 0 1 1 0 2 1 1 0 0 1 0-2M269 282a1 1 0 1 1 0 2 1 1 0 0 1 0-2M283 282a1 1 0 1 1 0 2 1 1 0 0 1 0-2M297 282a1 1 0 1 1 0 2 1 1 0 0 1 0-2M311 282a1 1 0 1 1 0 2 1 1 0 0 1 0-2M325 282a1 1 0 1 1 0 2 1 1 0 0 1 0-2M339 282a1 1 0 1 1 0 2 1 1 0 0 1 0-2M353 282a1 1 0 1 1 0 2 1 1 0 0 1 0-2M367 282a1 1 0 1 1 0 2 1 1 0 0 1 0-2M381 282a1 1 0 1 1 0 2 1 1 0 0 1 0-2M395 282a1 1 0 1 1 0 2 1 1 0 0 1 0-2M409 282a1 1 0 1 1 0 2 1 1 0 0 1 0-2M423 282a1 1 0 1 1 0 2 1 1 0 0 1 0-2M437 282a1 1 0 1 1 0 2 1 1 0 0 1 0-2M451 282a1 1 0 1 1 0 2 1 1 0 0 1 0-2M465 282a1 1 0 1 1 0 2 1 1 0 0 1 0-2M479 282a1 1 0 1 1 0 2 1 1 0 0 1 0-2M493 282a1 1 0 1 1 0 2 1 1 0 0 1 0-2M507 282a1 1 0 1 1 0 2 1 1 0 0 1 0-2M521 282a1 1 0 1 1 0 2 1 1 0 0 1 0-2M535 282a1 1 0 1 1 0 2 1 1 0 0 1 0-2M549 282a1 1 0 1 1 0 2 1 1 0 0 1 0-2M563 282a1 1 0 1 1 0 2 1 1 0 0 1 0-2M577 282a1 1 0 1 1 0 2 1 1 0 0 1 0-2M591 282a1 1 0 1 1 0 2 1 1 0 0 1 0-2M605 282a1 1 0 1 1 0 2 1 1 0 0 1 0-2M619 282a1 1 0 1 1 0 2 1 1 0 0 1 0-2M633 282a1 1 0 1 1 0 2 1 1 0 0 1 0-2M647 282a1 1 0 1 1 0 2 1 1 0 0 1 0-2M661 282a1 1 0 1 1 0 2 1 1 0 0 1 0-2M675 282a1 1 0 1 1 0 2 1 1 0 0 1 0-2M689 282a1 1 0 1 1 0 2 1 1 0 0 1 0-2M703 282a1 1 0 1 1 0 2 1 1 0 0 1 0-2M717 282a1 1 0 1 1 0 2 1 1 0 0 1 0-2M-11 268a1 1 0 1 1 0 2 1 1 0 0 1 0-2M3 268a1 1 0 1 1 0 2 1 1 0 0 1 0-2M17 268a1 1 0 1 1 0 2 1 1 0 0 1 0-2M31 268a1 1 0 1 1 0 2 1 1 0 0 1 0-2M45 268a1 1 0 1 1 0 2 1 1 0 0 1 0-2M59 268a1 1 0 1 1 0 2 1 1 0 0 1 0-2M73 268a1 1 0 1 1 0 2 1 1 0 0 1 0-2M87 268a1 1 0 1 1 0 2 1 1 0 0 1 0-2M101 268a1 1 0 1 1 0 2 1 1 0 0 1 0-2M115 268a1 1 0 1 1 0 2 1 1 0 0 1 0-2M129 268a1 1 0 1 1 0 2 1 1 0 0 1 0-2M143 268a1 1 0 1 1 0 2 1 1 0 0 1 0-2M157 268a1 1 0 1 1 0 2 1 1 0 0 1 0-2M171 268a1 1 0 1 1 0 2 1 1 0 0 1 0-2M185 268a1 1 0 1 1 0 2 1 1 0 0 1 0-2M199 268a1 1 0 1 1 0 2 1 1 0 0 1 0-2M213 268a1 1 0 1 1 0 2 1 1 0 0 1 0-2M227 268a1 1 0 1 1 0 2 1 1 0 0 1 0-2M241 268a1 1 0 1 1 0 2 1 1 0 0 1 0-2M255 268a1 1 0 1 1 0 2 1 1 0 0 1 0-2M269 268a1 1 0 1 1 0 2 1 1 0 0 1 0-2M283 268a1 1 0 1 1 0 2 1 1 0 0 1 0-2M297 268a1 1 0 1 1 0 2 1 1 0 0 1 0-2M311 268a1 1 0 1 1 0 2 1 1 0 0 1 0-2M325 268a1 1 0 1 1 0 2 1 1 0 0 1 0-2M339 268a1 1 0 1 1 0 2 1 1 0 0 1 0-2M353 268a1 1 0 1 1 0 2 1 1 0 0 1 0-2M367 268a1 1 0 1 1 0 2 1 1 0 0 1 0-2M381 268a1 1 0 1 1 0 2 1 1 0 0 1 0-2M395 268a1 1 0 1 1 0 2 1 1 0 0 1 0-2M409 268a1 1 0 1 1 0 2 1 1 0 0 1 0-2M423 268a1 1 0 1 1 0 2 1 1 0 0 1 0-2M437 268a1 1 0 1 1 0 2 1 1 0 0 1 0-2M451 268a1 1 0 1 1 0 2 1 1 0 0 1 0-2M465 268a1 1 0 1 1 0 2 1 1 0 0 1 0-2M479 268a1 1 0 1 1 0 2 1 1 0 0 1 0-2M493 268a1 1 0 1 1 0 2 1 1 0 0 1 0-2M507 268a1 1 0 1 1 0 2 1 1 0 0 1 0-2M521 268a1 1 0 1 1 0 2 1 1 0 0 1 0-2M535 268a1 1 0 1 1 0 2 1 1 0 0 1 0-2M549 268a1 1 0 1 1 0 2 1 1 0 0 1 0-2M563 268a1 1 0 1 1 0 2 1 1 0 0 1 0-2M577 268a1 1 0 1 1 0 2 1 1 0 0 1 0-2M591 268a1 1 0 1 1 0 2 1 1 0 0 1 0-2M605 268a1 1 0 1 1 0 2 1 1 0 0 1 0-2M619 268a1 1 0 1 1 0 2 1 1 0 0 1 0-2M633 268a1 1 0 1 1 0 2 1 1 0 0 1 0-2M647 268a1 1 0 1 1 0 2 1 1 0 0 1 0-2M661 268a1 1 0 1 1 0 2 1 1 0 0 1 0-2M675 268a1 1 0 1 1 0 2 1 1 0 0 1 0-2M689 268a1 1 0 1 1 0 2 1 1 0 0 1 0-2M703 268a1 1 0 1 1 0 2 1 1 0 0 1 0-2M717 268a1 1 0 1 1 0 2 1 1 0 0 1 0-2M-11 254a1 1 0 1 1 0 2 1 1 0 0 1 0-2M3 254a1 1 0 1 1 0 2 1 1 0 0 1 0-2M17 254a1 1 0 1 1 0 2 1 1 0 0 1 0-2M31 254a1 1 0 1 1 0 2 1 1 0 0 1 0-2M45 254a1 1 0 1 1 0 2 1 1 0 0 1 0-2M59 254a1 1 0 1 1 0 2 1 1 0 0 1 0-2M73 254a1 1 0 1 1 0 2 1 1 0 0 1 0-2M87 254a1 1 0 1 1 0 2 1 1 0 0 1 0-2M101 254a1 1 0 1 1 0 2 1 1 0 0 1 0-2M115 254a1 1 0 1 1 0 2 1 1 0 0 1 0-2M129 254a1 1 0 1 1 0 2 1 1 0 0 1 0-2M143 254a1 1 0 1 1 0 2 1 1 0 0 1 0-2M157 254a1 1 0 1 1 0 2 1 1 0 0 1 0-2M171 254a1 1 0 1 1 0 2 1 1 0 0 1 0-2M185 254a1 1 0 1 1 0 2 1 1 0 0 1 0-2M199 254a1 1 0 1 1 0 2 1 1 0 0 1 0-2M213 254a1 1 0 1 1 0 2 1 1 0 0 1 0-2M227 254a1 1 0 1 1 0 2 1 1 0 0 1 0-2M241 254a1 1 0 1 1 0 2 1 1 0 0 1 0-2M255 254a1 1 0 1 1 0 2 1 1 0 0 1 0-2M269 254a1 1 0 1 1 0 2 1 1 0 0 1 0-2M283 254a1 1 0 1 1 0 2 1 1 0 0 1 0-2M297 254a1 1 0 1 1 0 2 1 1 0 0 1 0-2M311 254a1 1 0 1 1 0 2 1 1 0 0 1 0-2M325 254a1 1 0 1 1 0 2 1 1 0 0 1 0-2M339 254a1 1 0 1 1 0 2 1 1 0 0 1 0-2M353 254a1 1 0 1 1 0 2 1 1 0 0 1 0-2M367 254a1 1 0 1 1 0 2 1 1 0 0 1 0-2M381 254a1 1 0 1 1 0 2 1 1 0 0 1 0-2M395 254a1 1 0 1 1 0 2 1 1 0 0 1 0-2M409 254a1 1 0 1 1 0 2 1 1 0 0 1 0-2M423 254a1 1 0 1 1 0 2 1 1 0 0 1 0-2M437 254a1 1 0 1 1 0 2 1 1 0 0 1 0-2M451 254a1 1 0 1 1 0 2 1 1 0 0 1 0-2M465 254a1 1 0 1 1 0 2 1 1 0 0 1 0-2M479 254a1 1 0 1 1 0 2 1 1 0 0 1 0-2M493 254a1 1 0 1 1 0 2 1 1 0 0 1 0-2M507 254a1 1 0 1 1 0 2 1 1 0 0 1 0-2M521 254a1 1 0 1 1 0 2 1 1 0 0 1 0-2M535 254a1 1 0 1 1 0 2 1 1 0 0 1 0-2M549 254a1 1 0 1 1 0 2 1 1 0 0 1 0-2M563 254a1 1 0 1 1 0 2 1 1 0 0 1 0-2M577 254a1 1 0 1 1 0 2 1 1 0 0 1 0-2M591 254a1 1 0 1 1 0 2 1 1 0 0 1 0-2M605 254a1 1 0 1 1 0 2 1 1 0 0 1 0-2M619 254a1 1 0 1 1 0 2 1 1 0 0 1 0-2M633 254a1 1 0 1 1 0 2 1 1 0 0 1 0-2M647 254a1 1 0 1 1 0 2 1 1 0 0 1 0-2M661 254a1 1 0 1 1 0 2 1 1 0 0 1 0-2M675 254a1 1 0 1 1 0 2 1 1 0 0 1 0-2M689 254a1 1 0 1 1 0 2 1 1 0 0 1 0-2M703 254a1 1 0 1 1 0 2 1 1 0 0 1 0-2M717 254a1 1 0 1 1 0 2 1 1 0 0 1 0-2M-11 240a1 1 0 1 1 0 2 1 1 0 0 1 0-2M3 240a1 1 0 1 1 0 2 1 1 0 0 1 0-2M17 240a1 1 0 1 1 0 2 1 1 0 0 1 0-2M31 240a1 1 0 1 1 0 2 1 1 0 0 1 0-2M45 240a1 1 0 1 1 0 2 1 1 0 0 1 0-2M59 240a1 1 0 1 1 0 2 1 1 0 0 1 0-2M73 240a1 1 0 1 1 0 2 1 1 0 0 1 0-2M87 240a1 1 0 1 1 0 2 1 1 0 0 1 0-2M101 240a1 1 0 1 1 0 2 1 1 0 0 1 0-2M115 240a1 1 0 1 1 0 2 1 1 0 0 1 0-2M129 240a1 1 0 1 1 0 2 1 1 0 0 1 0-2M143 240a1 1 0 1 1 0 2 1 1 0 0 1 0-2M157 240a1 1 0 1 1 0 2 1 1 0 0 1 0-2M171 240a1 1 0 1 1 0 2 1 1 0 0 1 0-2M185 240a1 1 0 1 1 0 2 1 1 0 0 1 0-2M199 240a1 1 0 1 1 0 2 1 1 0 0 1 0-2M213 240a1 1 0 1 1 0 2 1 1 0 0 1 0-2M227 240a1 1 0 1 1 0 2 1 1 0 0 1 0-2M241 240a1 1 0 1 1 0 2 1 1 0 0 1 0-2M255 240a1 1 0 1 1 0 2 1 1 0 0 1 0-2M269 240a1 1 0 1 1 0 2 1 1 0 0 1 0-2M283 240a1 1 0 1 1 0 2 1 1 0 0 1 0-2M297 240a1 1 0 1 1 0 2 1 1 0 0 1 0-2M311 240a1 1 0 1 1 0 2 1 1 0 0 1 0-2M325 240a1 1 0 1 1 0 2 1 1 0 0 1 0-2M339 240a1 1 0 1 1 0 2 1 1 0 0 1 0-2M353 240a1 1 0 1 1 0 2 1 1 0 0 1 0-2M367 240a1 1 0 1 1 0 2 1 1 0 0 1 0-2M381 240a1 1 0 1 1 0 2 1 1 0 0 1 0-2M395 240a1 1 0 1 1 0 2 1 1 0 0 1 0-2M409 240a1 1 0 1 1 0 2 1 1 0 0 1 0-2M423 240a1 1 0 1 1 0 2 1 1 0 0 1 0-2M437 240a1 1 0 1 1 0 2 1 1 0 0 1 0-2M451 240a1 1 0 1 1 0 2 1 1 0 0 1 0-2M465 240a1 1 0 1 1 0 2 1 1 0 0 1 0-2M479 240a1 1 0 1 1 0 2 1 1 0 0 1 0-2M493 240a1 1 0 1 1 0 2 1 1 0 0 1 0-2M507 240a1 1 0 1 1 0 2 1 1 0 0 1 0-2M521 240a1 1 0 1 1 0 2 1 1 0 0 1 0-2M535 240a1 1 0 1 1 0 2 1 1 0 0 1 0-2M549 240a1 1 0 1 1 0 2 1 1 0 0 1 0-2M563 240a1 1 0 1 1 0 2 1 1 0 0 1 0-2M577 240a1 1 0 1 1 0 2 1 1 0 0 1 0-2M591 240a1 1 0 1 1 0 2 1 1 0 0 1 0-2M605 240a1 1 0 1 1 0 2 1 1 0 0 1 0-2M619 240a1 1 0 1 1 0 2 1 1 0 0 1 0-2M633 240a1 1 0 1 1 0 2 1 1 0 0 1 0-2M647 240a1 1 0 1 1 0 2 1 1 0 0 1 0-2M661 240a1 1 0 1 1 0 2 1 1 0 0 1 0-2M675 240a1 1 0 1 1 0 2 1 1 0 0 1 0-2M689 240a1 1 0 1 1 0 2 1 1 0 0 1 0-2M703 240a1 1 0 1 1 0 2 1 1 0 0 1 0-2M717 240a1 1 0 1 1 0 2 1 1 0 0 1 0-2M-11 226a1 1 0 1 1 0 2 1 1 0 0 1 0-2M3 226a1 1 0 1 1 0 2 1 1 0 0 1 0-2M17 226a1 1 0 1 1 0 2 1 1 0 0 1 0-2M31 226a1 1 0 1 1 0 2 1 1 0 0 1 0-2M45 226a1 1 0 1 1 0 2 1 1 0 0 1 0-2M59 226a1 1 0 1 1 0 2 1 1 0 0 1 0-2M73 226a1 1 0 1 1 0 2 1 1 0 0 1 0-2M87 226a1 1 0 1 1 0 2 1 1 0 0 1 0-2M101 226a1 1 0 1 1 0 2 1 1 0 0 1 0-2M115 226a1 1 0 1 1 0 2 1 1 0 0 1 0-2M129 226a1 1 0 1 1 0 2 1 1 0 0 1 0-2M143 226a1 1 0 1 1 0 2 1 1 0 0 1 0-2M157 226a1 1 0 1 1 0 2 1 1 0 0 1 0-2M171 226a1 1 0 1 1 0 2 1 1 0 0 1 0-2M185 226a1 1 0 1 1 0 2 1 1 0 0 1 0-2M199 226a1 1 0 1 1 0 2 1 1 0 0 1 0-2M213 226a1 1 0 1 1 0 2 1 1 0 0 1 0-2M227 226a1 1 0 1 1 0 2 1 1 0 0 1 0-2M241 226a1 1 0 1 1 0 2 1 1 0 0 1 0-2M255 226a1 1 0 1 1 0 2 1 1 0 0 1 0-2M269 226a1 1 0 1 1 0 2 1 1 0 0 1 0-2M283 226a1 1 0 1 1 0 2 1 1 0 0 1 0-2M297 226a1 1 0 1 1 0 2 1 1 0 0 1 0-2M311 226a1 1 0 1 1 0 2 1 1 0 0 1 0-2M325 226a1 1 0 1 1 0 2 1 1 0 0 1 0-2M339 226a1 1 0 1 1 0 2 1 1 0 0 1 0-2M353 226a1 1 0 1 1 0 2 1 1 0 0 1 0-2M367 226a1 1 0 1 1 0 2 1 1 0 0 1 0-2M381 226a1 1 0 1 1 0 2 1 1 0 0 1 0-2M395 226a1 1 0 1 1 0 2 1 1 0 0 1 0-2M409 226a1 1 0 1 1 0 2 1 1 0 0 1 0-2M423 226a1 1 0 1 1 0 2 1 1 0 0 1 0-2M437 226a1 1 0 1 1 0 2 1 1 0 0 1 0-2M451 226a1 1 0 1 1 0 2 1 1 0 0 1 0-2M465 226a1 1 0 1 1 0 2 1 1 0 0 1 0-2M479 226a1 1 0 1 1 0 2 1 1 0 0 1 0-2M493 226a1 1 0 1 1 0 2 1 1 0 0 1 0-2M507 226a1 1 0 1 1 0 2 1 1 0 0 1 0-2M521 226a1 1 0 1 1 0 2 1 1 0 0 1 0-2M535 226a1 1 0 1 1 0 2 1 1 0 0 1 0-2M549 226a1 1 0 1 1 0 2 1 1 0 0 1 0-2M563 226a1 1 0 1 1 0 2 1 1 0 0 1 0-2M577 226a1 1 0 1 1 0 2 1 1 0 0 1 0-2M591 226a1 1 0 1 1 0 2 1 1 0 0 1 0-2M605 226a1 1 0 1 1 0 2 1 1 0 0 1 0-2M619 226a1 1 0 1 1 0 2 1 1 0 0 1 0-2M633 226a1 1 0 1 1 0 2 1 1 0 0 1 0-2M647 226a1 1 0 1 1 0 2 1 1 0 0 1 0-2M661 226a1 1 0 1 1 0 2 1 1 0 0 1 0-2M675 226a1 1 0 1 1 0 2 1 1 0 0 1 0-2M689 226a1 1 0 1 1 0 2 1 1 0 0 1 0-2M703 226a1 1 0 1 1 0 2 1 1 0 0 1 0-2M717 226a1 1 0 1 1 0 2 1 1 0 0 1 0-2M-11 212a1 1 0 1 1 0 2 1 1 0 0 1 0-2M3 212a1 1 0 1 1 0 2 1 1 0 0 1 0-2M17 212a1 1 0 1 1 0 2 1 1 0 0 1 0-2M31 212a1 1 0 1 1 0 2 1 1 0 0 1 0-2M45 212a1 1 0 1 1 0 2 1 1 0 0 1 0-2M59 212a1 1 0 1 1 0 2 1 1 0 0 1 0-2M73 212a1 1 0 1 1 0 2 1 1 0 0 1 0-2M87 212a1 1 0 1 1 0 2 1 1 0 0 1 0-2M101 212a1 1 0 1 1 0 2 1 1 0 0 1 0-2M115 212a1 1 0 1 1 0 2 1 1 0 0 1 0-2M129 212a1 1 0 1 1 0 2 1 1 0 0 1 0-2M143 212a1 1 0 1 1 0 2 1 1 0 0 1 0-2M157 212a1 1 0 1 1 0 2 1 1 0 0 1 0-2M171 212a1 1 0 1 1 0 2 1 1 0 0 1 0-2M185 212a1 1 0 1 1 0 2 1 1 0 0 1 0-2M199 212a1 1 0 1 1 0 2 1 1 0 0 1 0-2M213 212a1 1 0 1 1 0 2 1 1 0 0 1 0-2M227 212a1 1 0 1 1 0 2 1 1 0 0 1 0-2M241 212a1 1 0 1 1 0 2 1 1 0 0 1 0-2M255 212a1 1 0 1 1 0 2 1 1 0 0 1 0-2M269 212a1 1 0 1 1 0 2 1 1 0 0 1 0-2M283 212a1 1 0 1 1 0 2 1 1 0 0 1 0-2M297 212a1 1 0 1 1 0 2 1 1 0 0 1 0-2M311 212a1 1 0 1 1 0 2 1 1 0 0 1 0-2M325 212a1 1 0 1 1 0 2 1 1 0 0 1 0-2M339 212a1 1 0 1 1 0 2 1 1 0 0 1 0-2M353 212a1 1 0 1 1 0 2 1 1 0 0 1 0-2M367 212a1 1 0 1 1 0 2 1 1 0 0 1 0-2M381 212a1 1 0 1 1 0 2 1 1 0 0 1 0-2M395 212a1 1 0 1 1 0 2 1 1 0 0 1 0-2M409 212a1 1 0 1 1 0 2 1 1 0 0 1 0-2M423 212a1 1 0 1 1 0 2 1 1 0 0 1 0-2M437 212a1 1 0 1 1 0 2 1 1 0 0 1 0-2M451 212a1 1 0 1 1 0 2 1 1 0 0 1 0-2M465 212a1 1 0 1 1 0 2 1 1 0 0 1 0-2M479 212a1 1 0 1 1 0 2 1 1 0 0 1 0-2M493 212a1 1 0 1 1 0 2 1 1 0 0 1 0-2M507 212a1 1 0 1 1 0 2 1 1 0 0 1 0-2M521 212a1 1 0 1 1 0 2 1 1 0 0 1 0-2M535 212a1 1 0 1 1 0 2 1 1 0 0 1 0-2M549 212a1 1 0 1 1 0 2 1 1 0 0 1 0-2M563 212a1 1 0 1 1 0 2 1 1 0 0 1 0-2M577 212a1 1 0 1 1 0 2 1 1 0 0 1 0-2M591 212a1 1 0 1 1 0 2 1 1 0 0 1 0-2M605 212a1 1 0 1 1 0 2 1 1 0 0 1 0-2M619 212a1 1 0 1 1 0 2 1 1 0 0 1 0-2M633 212a1 1 0 1 1 0 2 1 1 0 0 1 0-2M647 212a1 1 0 1 1 0 2 1 1 0 0 1 0-2M661 212a1 1 0 1 1 0 2 1 1 0 0 1 0-2M675 212a1 1 0 1 1 0 2 1 1 0 0 1 0-2M689 212a1 1 0 1 1 0 2 1 1 0 0 1 0-2M703 212a1 1 0 1 1 0 2 1 1 0 0 1 0-2M717 212a1 1 0 1 1 0 2 1 1 0 0 1 0-2M-11 198a1 1 0 1 1 0 2 1 1 0 0 1 0-2M3 198a1 1 0 1 1 0 2 1 1 0 0 1 0-2M17 198a1 1 0 1 1 0 2 1 1 0 0 1 0-2M31 198a1 1 0 1 1 0 2 1 1 0 0 1 0-2M45 198a1 1 0 1 1 0 2 1 1 0 0 1 0-2M59 198a1 1 0 1 1 0 2 1 1 0 0 1 0-2M73 198a1 1 0 1 1 0 2 1 1 0 0 1 0-2M87 198a1 1 0 1 1 0 2 1 1 0 0 1 0-2M101 198a1 1 0 1 1 0 2 1 1 0 0 1 0-2M115 198a1 1 0 1 1 0 2 1 1 0 0 1 0-2M129 198a1 1 0 1 1 0 2 1 1 0 0 1 0-2M143 198a1 1 0 1 1 0 2 1 1 0 0 1 0-2M157 198a1 1 0 1 1 0 2 1 1 0 0 1 0-2M171 198a1 1 0 1 1 0 2 1 1 0 0 1 0-2M185 198a1 1 0 1 1 0 2 1 1 0 0 1 0-2M199 198a1 1 0 1 1 0 2 1 1 0 0 1 0-2M213 198a1 1 0 1 1 0 2 1 1 0 0 1 0-2M227 198a1 1 0 1 1 0 2 1 1 0 0 1 0-2M241 198a1 1 0 1 1 0 2 1 1 0 0 1 0-2M255 198a1 1 0 1 1 0 2 1 1 0 0 1 0-2M269 198a1 1 0 1 1 0 2 1 1 0 0 1 0-2M283 198a1 1 0 1 1 0 2 1 1 0 0 1 0-2M297 198a1 1 0 1 1 0 2 1 1 0 0 1 0-2M311 198a1 1 0 1 1 0 2 1 1 0 0 1 0-2M325 198a1 1 0 1 1 0 2 1 1 0 0 1 0-2M339 198a1 1 0 1 1 0 2 1 1 0 0 1 0-2M353 198a1 1 0 1 1 0 2 1 1 0 0 1 0-2M367 198a1 1 0 1 1 0 2 1 1 0 0 1 0-2M381 198a1 1 0 1 1 0 2 1 1 0 0 1 0-2M395 198a1 1 0 1 1 0 2 1 1 0 0 1 0-2M409 198a1 1 0 1 1 0 2 1 1 0 0 1 0-2M423 198a1 1 0 1 1 0 2 1 1 0 0 1 0-2M437 198a1 1 0 1 1 0 2 1 1 0 0 1 0-2M451 198a1 1 0 1 1 0 2 1 1 0 0 1 0-2M465 198a1 1 0 1 1 0 2 1 1 0 0 1 0-2M479 198a1 1 0 1 1 0 2 1 1 0 0 1 0-2M493 198a1 1 0 1 1 0 2 1 1 0 0 1 0-2M507 198a1 1 0 1 1 0 2 1 1 0 0 1 0-2M521 198a1 1 0 1 1 0 2 1 1 0 0 1 0-2M535 198a1 1 0 1 1 0 2 1 1 0 0 1 0-2M549 198a1 1 0 1 1 0 2 1 1 0 0 1 0-2M563 198a1 1 0 1 1 0 2 1 1 0 0 1 0-2M577 198a1 1 0 1 1 0 2 1 1 0 0 1 0-2M591 198a1 1 0 1 1 0 2 1 1 0 0 1 0-2M605 198a1 1 0 1 1 0 2 1 1 0 0 1 0-2M619 198a1 1 0 1 1 0 2 1 1 0 0 1 0-2M633 198a1 1 0 1 1 0 2 1 1 0 0 1 0-2M647 198a1 1 0 1 1 0 2 1 1 0 0 1 0-2M661 198a1 1 0 1 1 0 2 1 1 0 0 1 0-2M675 198a1 1 0 1 1 0 2 1 1 0 0 1 0-2M689 198a1 1 0 1 1 0 2 1 1 0 0 1 0-2M703 198a1 1 0 1 1 0 2 1 1 0 0 1 0-2M717 198a1 1 0 1 1 0 2 1 1 0 0 1 0-2M-11 184a1 1 0 1 1 0 2 1 1 0 0 1 0-2M3 184a1 1 0 1 1 0 2 1 1 0 0 1 0-2M17 184a1 1 0 1 1 0 2 1 1 0 0 1 0-2M31 184a1 1 0 1 1 0 2 1 1 0 0 1 0-2M45 184a1 1 0 1 1 0 2 1 1 0 0 1 0-2M59 184a1 1 0 1 1 0 2 1 1 0 0 1 0-2M73 184a1 1 0 1 1 0 2 1 1 0 0 1 0-2M87 184a1 1 0 1 1 0 2 1 1 0 0 1 0-2M101 184a1 1 0 1 1 0 2 1 1 0 0 1 0-2M115 184a1 1 0 1 1 0 2 1 1 0 0 1 0-2M129 184a1 1 0 1 1 0 2 1 1 0 0 1 0-2M143 184a1 1 0 1 1 0 2 1 1 0 0 1 0-2M157 184a1 1 0 1 1 0 2 1 1 0 0 1 0-2M171 184a1 1 0 1 1 0 2 1 1 0 0 1 0-2M185 184a1 1 0 1 1 0 2 1 1 0 0 1 0-2M199 184a1 1 0 1 1 0 2 1 1 0 0 1 0-2M213 184a1 1 0 1 1 0 2 1 1 0 0 1 0-2M227 184a1 1 0 1 1 0 2 1 1 0 0 1 0-2M241 184a1 1 0 1 1 0 2 1 1 0 0 1 0-2M255 184a1 1 0 1 1 0 2 1 1 0 0 1 0-2M269 184a1 1 0 1 1 0 2 1 1 0 0 1 0-2M283 184a1 1 0 1 1 0 2 1 1 0 0 1 0-2M297 184a1 1 0 1 1 0 2 1 1 0 0 1 0-2M311 184a1 1 0 1 1 0 2 1 1 0 0 1 0-2M325 184a1 1 0 1 1 0 2 1 1 0 0 1 0-2M339 184a1 1 0 1 1 0 2 1 1 0 0 1 0-2M353 184a1 1 0 1 1 0 2 1 1 0 0 1 0-2M367 184a1 1 0 1 1 0 2 1 1 0 0 1 0-2M381 184a1 1 0 1 1 0 2 1 1 0 0 1 0-2M395 184a1 1 0 1 1 0 2 1 1 0 0 1 0-2M409 184a1 1 0 1 1 0 2 1 1 0 0 1 0-2M423 184a1 1 0 1 1 0 2 1 1 0 0 1 0-2M437 184a1 1 0 1 1 0 2 1 1 0 0 1 0-2M451 184a1 1 0 1 1 0 2 1 1 0 0 1 0-2M465 184a1 1 0 1 1 0 2 1 1 0 0 1 0-2M479 184a1 1 0 1 1 0 2 1 1 0 0 1 0-2M493 184a1 1 0 1 1 0 2 1 1 0 0 1 0-2M507 184a1 1 0 1 1 0 2 1 1 0 0 1 0-2M521 184a1 1 0 1 1 0 2 1 1 0 0 1 0-2M535 184a1 1 0 1 1 0 2 1 1 0 0 1 0-2M549 184a1 1 0 1 1 0 2 1 1 0 0 1 0-2M563 184a1 1 0 1 1 0 2 1 1 0 0 1 0-2M577 184a1 1 0 1 1 0 2 1 1 0 0 1 0-2M591 184a1 1 0 1 1 0 2 1 1 0 0 1 0-2M605 184a1 1 0 1 1 0 2 1 1 0 0 1 0-2M619 184a1 1 0 1 1 0 2 1 1 0 0 1 0-2M633 184a1 1 0 1 1 0 2 1 1 0 0 1 0-2M647 184a1 1 0 1 1 0 2 1 1 0 0 1 0-2M661 184a1 1 0 1 1 0 2 1 1 0 0 1 0-2M675 184a1 1 0 1 1 0 2 1 1 0 0 1 0-2M689 184a1 1 0 1 1 0 2 1 1 0 0 1 0-2M703 184a1 1 0 1 1 0 2 1 1 0 0 1 0-2M717 184a1 1 0 1 1 0 2 1 1 0 0 1 0-2M-11 170a1 1 0 1 1 0 2 1 1 0 0 1 0-2M3 170a1 1 0 1 1 0 2 1 1 0 0 1 0-2M17 170a1 1 0 1 1 0 2 1 1 0 0 1 0-2M31 170a1 1 0 1 1 0 2 1 1 0 0 1 0-2M45 170a1 1 0 1 1 0 2 1 1 0 0 1 0-2M59 170a1 1 0 1 1 0 2 1 1 0 0 1 0-2M73 170a1 1 0 1 1 0 2 1 1 0 0 1 0-2M87 170a1 1 0 1 1 0 2 1 1 0 0 1 0-2M101 170a1 1 0 1 1 0 2 1 1 0 0 1 0-2M115 170a1 1 0 1 1 0 2 1 1 0 0 1 0-2M129 170a1 1 0 1 1 0 2 1 1 0 0 1 0-2M143 170a1 1 0 1 1 0 2 1 1 0 0 1 0-2M157 170a1 1 0 1 1 0 2 1 1 0 0 1 0-2M171 170a1 1 0 1 1 0 2 1 1 0 0 1 0-2M185 170a1 1 0 1 1 0 2 1 1 0 0 1 0-2M199 170a1 1 0 1 1 0 2 1 1 0 0 1 0-2M213 170a1 1 0 1 1 0 2 1 1 0 0 1 0-2M227 170a1 1 0 1 1 0 2 1 1 0 0 1 0-2M241 170a1 1 0 1 1 0 2 1 1 0 0 1 0-2M255 170a1 1 0 1 1 0 2 1 1 0 0 1 0-2M269 170a1 1 0 1 1 0 2 1 1 0 0 1 0-2M283 170a1 1 0 1 1 0 2 1 1 0 0 1 0-2M297 170a1 1 0 1 1 0 2 1 1 0 0 1 0-2M311 170a1 1 0 1 1 0 2 1 1 0 0 1 0-2M325 170a1 1 0 1 1 0 2 1 1 0 0 1 0-2M339 170a1 1 0 1 1 0 2 1 1 0 0 1 0-2M353 170a1 1 0 1 1 0 2 1 1 0 0 1 0-2M367 170a1 1 0 1 1 0 2 1 1 0 0 1 0-2M381 170a1 1 0 1 1 0 2 1 1 0 0 1 0-2M395 170a1 1 0 1 1 0 2 1 1 0 0 1 0-2M409 170a1 1 0 1 1 0 2 1 1 0 0 1 0-2M423 170a1 1 0 1 1 0 2 1 1 0 0 1 0-2M437 170a1 1 0 1 1 0 2 1 1 0 0 1 0-2M451 170a1 1 0 1 1 0 2 1 1 0 0 1 0-2M465 170a1 1 0 1 1 0 2 1 1 0 0 1 0-2M479 170a1 1 0 1 1 0 2 1 1 0 0 1 0-2M493 170a1 1 0 1 1 0 2 1 1 0 0 1 0-2M507 170a1 1 0 1 1 0 2 1 1 0 0 1 0-2M521 170a1 1 0 1 1 0 2 1 1 0 0 1 0-2M535 170a1 1 0 1 1 0 2 1 1 0 0 1 0-2M549 170a1 1 0 1 1 0 2 1 1 0 0 1 0-2M563 170a1 1 0 1 1 0 2 1 1 0 0 1 0-2M577 170a1 1 0 1 1 0 2 1 1 0 0 1 0-2M591 170a1 1 0 1 1 0 2 1 1 0 0 1 0-2M605 170a1 1 0 1 1 0 2 1 1 0 0 1 0-2M619 170a1 1 0 1 1 0 2 1 1 0 0 1 0-2M633 170a1 1 0 1 1 0 2 1 1 0 0 1 0-2M647 170a1 1 0 1 1 0 2 1 1 0 0 1 0-2M661 170a1 1 0 1 1 0 2 1 1 0 0 1 0-2M675 170a1 1 0 1 1 0 2 1 1 0 0 1 0-2M689 170a1 1 0 1 1 0 2 1 1 0 0 1 0-2M703 170a1 1 0 1 1 0 2 1 1 0 0 1 0-2M717 170a1 1 0 1 1 0 2 1 1 0 0 1 0-2M-11 156a1 1 0 1 1 0 2 1 1 0 0 1 0-2M3 156a1 1 0 1 1 0 2 1 1 0 0 1 0-2M17 156a1 1 0 1 1 0 2 1 1 0 0 1 0-2M31 156a1 1 0 1 1 0 2 1 1 0 0 1 0-2M45 156a1 1 0 1 1 0 2 1 1 0 0 1 0-2M59 156a1 1 0 1 1 0 2 1 1 0 0 1 0-2M73 156a1 1 0 1 1 0 2 1 1 0 0 1 0-2M87 156a1 1 0 1 1 0 2 1 1 0 0 1 0-2M101 156a1 1 0 1 1 0 2 1 1 0 0 1 0-2M115 156a1 1 0 1 1 0 2 1 1 0 0 1 0-2M129 156a1 1 0 1 1 0 2 1 1 0 0 1 0-2M143 156a1 1 0 1 1 0 2 1 1 0 0 1 0-2M157 156a1 1 0 1 1 0 2 1 1 0 0 1 0-2M171 156a1 1 0 1 1 0 2 1 1 0 0 1 0-2M185 156a1 1 0 1 1 0 2 1 1 0 0 1 0-2M199 156a1 1 0 1 1 0 2 1 1 0 0 1 0-2M213 156a1 1 0 1 1 0 2 1 1 0 0 1 0-2M227 156a1 1 0 1 1 0 2 1 1 0 0 1 0-2M241 156a1 1 0 1 1 0 2 1 1 0 0 1 0-2M255 156a1 1 0 1 1 0 2 1 1 0 0 1 0-2M269 156a1 1 0 1 1 0 2 1 1 0 0 1 0-2M283 156a1 1 0 1 1 0 2 1 1 0 0 1 0-2M297 156a1 1 0 1 1 0 2 1 1 0 0 1 0-2M311 156a1 1 0 1 1 0 2 1 1 0 0 1 0-2M325 156a1 1 0 1 1 0 2 1 1 0 0 1 0-2M339 156a1 1 0 1 1 0 2 1 1 0 0 1 0-2M353 156a1 1 0 1 1 0 2 1 1 0 0 1 0-2M367 156a1 1 0 1 1 0 2 1 1 0 0 1 0-2M381 156a1 1 0 1 1 0 2 1 1 0 0 1 0-2M395 156a1 1 0 1 1 0 2 1 1 0 0 1 0-2M409 156a1 1 0 1 1 0 2 1 1 0 0 1 0-2M423 156a1 1 0 1 1 0 2 1 1 0 0 1 0-2M437 156a1 1 0 1 1 0 2 1 1 0 0 1 0-2M451 156a1 1 0 1 1 0 2 1 1 0 0 1 0-2M465 156a1 1 0 1 1 0 2 1 1 0 0 1 0-2M479 156a1 1 0 1 1 0 2 1 1 0 0 1 0-2M493 156a1 1 0 1 1 0 2 1 1 0 0 1 0-2M507 156a1 1 0 1 1 0 2 1 1 0 0 1 0-2M521 156a1 1 0 1 1 0 2 1 1 0 0 1 0-2M535 156a1 1 0 1 1 0 2 1 1 0 0 1 0-2M549 156a1 1 0 1 1 0 2 1 1 0 0 1 0-2M563 156a1 1 0 1 1 0 2 1 1 0 0 1 0-2M577 156a1 1 0 1 1 0 2 1 1 0 0 1 0-2M591 156a1 1 0 1 1 0 2 1 1 0 0 1 0-2M605 156a1 1 0 1 1 0 2 1 1 0 0 1 0-2M619 156a1 1 0 1 1 0 2 1 1 0 0 1 0-2M633 156a1 1 0 1 1 0 2 1 1 0 0 1 0-2M647 156a1 1 0 1 1 0 2 1 1 0 0 1 0-2M661 156a1 1 0 1 1 0 2 1 1 0 0 1 0-2M675 156a1 1 0 1 1 0 2 1 1 0 0 1 0-2M689 156a1 1 0 1 1 0 2 1 1 0 0 1 0-2M703 156a1 1 0 1 1 0 2 1 1 0 0 1 0-2M717 156a1 1 0 1 1 0 2 1 1 0 0 1 0-2M-11 142a1 1 0 1 1 0 2 1 1 0 0 1 0-2M3 142a1 1 0 1 1 0 2 1 1 0 0 1 0-2M17 142a1 1 0 1 1 0 2 1 1 0 0 1 0-2M31 142a1 1 0 1 1 0 2 1 1 0 0 1 0-2M45 142a1 1 0 1 1 0 2 1 1 0 0 1 0-2M59 142a1 1 0 1 1 0 2 1 1 0 0 1 0-2M73 142a1 1 0 1 1 0 2 1 1 0 0 1 0-2M87 142a1 1 0 1 1 0 2 1 1 0 0 1 0-2M101 142a1 1 0 1 1 0 2 1 1 0 0 1 0-2M115 142a1 1 0 1 1 0 2 1 1 0 0 1 0-2M129 142a1 1 0 1 1 0 2 1 1 0 0 1 0-2M143 142a1 1 0 1 1 0 2 1 1 0 0 1 0-2M157 142a1 1 0 1 1 0 2 1 1 0 0 1 0-2M171 142a1 1 0 1 1 0 2 1 1 0 0 1 0-2M185 142a1 1 0 1 1 0 2 1 1 0 0 1 0-2M199 142a1 1 0 1 1 0 2 1 1 0 0 1 0-2M213 142a1 1 0 1 1 0 2 1 1 0 0 1 0-2M227 142a1 1 0 1 1 0 2 1 1 0 0 1 0-2M241 142a1 1 0 1 1 0 2 1 1 0 0 1 0-2M255 142a1 1 0 1 1 0 2 1 1 0 0 1 0-2M269 142a1 1 0 1 1 0 2 1 1 0 0 1 0-2M283 142a1 1 0 1 1 0 2 1 1 0 0 1 0-2M297 142a1 1 0 1 1 0 2 1 1 0 0 1 0-2M311 142a1 1 0 1 1 0 2 1 1 0 0 1 0-2M325 142a1 1 0 1 1 0 2 1 1 0 0 1 0-2M339 142a1 1 0 1 1 0 2 1 1 0 0 1 0-2M353 142a1 1 0 1 1 0 2 1 1 0 0 1 0-2M367 142a1 1 0 1 1 0 2 1 1 0 0 1 0-2M381 142a1 1 0 1 1 0 2 1 1 0 0 1 0-2M395 142a1 1 0 1 1 0 2 1 1 0 0 1 0-2M409 142a1 1 0 1 1 0 2 1 1 0 0 1 0-2M423 142a1 1 0 1 1 0 2 1 1 0 0 1 0-2M437 142a1 1 0 1 1 0 2 1 1 0 0 1 0-2M451 142a1 1 0 1 1 0 2 1 1 0 0 1 0-2M465 142a1 1 0 1 1 0 2 1 1 0 0 1 0-2M479 142a1 1 0 1 1 0 2 1 1 0 0 1 0-2M493 142a1 1 0 1 1 0 2 1 1 0 0 1 0-2M507 142a1 1 0 1 1 0 2 1 1 0 0 1 0-2M521 142a1 1 0 1 1 0 2 1 1 0 0 1 0-2M535 142a1 1 0 1 1 0 2 1 1 0 0 1 0-2M549 142a1 1 0 1 1 0 2 1 1 0 0 1 0-2M563 142a1 1 0 1 1 0 2 1 1 0 0 1 0-2M577 142a1 1 0 1 1 0 2 1 1 0 0 1 0-2M591 142a1 1 0 1 1 0 2 1 1 0 0 1 0-2M605 142a1 1 0 1 1 0 2 1 1 0 0 1 0-2M619 142a1 1 0 1 1 0 2 1 1 0 0 1 0-2M633 142a1 1 0 1 1 0 2 1 1 0 0 1 0-2M647 142a1 1 0 1 1 0 2 1 1 0 0 1 0-2M661 142a1 1 0 1 1 0 2 1 1 0 0 1 0-2M675 142a1 1 0 1 1 0 2 1 1 0 0 1 0-2M689 142a1 1 0 1 1 0 2 1 1 0 0 1 0-2M703 142a1 1 0 1 1 0 2 1 1 0 0 1 0-2M717 142a1 1 0 1 1 0 2 1 1 0 0 1 0-2M-11 128a1 1 0 1 1 0 2 1 1 0 0 1 0-2M3 128a1 1 0 1 1 0 2 1 1 0 0 1 0-2M17 128a1 1 0 1 1 0 2 1 1 0 0 1 0-2M31 128a1 1 0 1 1 0 2 1 1 0 0 1 0-2M45 128a1 1 0 1 1 0 2 1 1 0 0 1 0-2M59 128a1 1 0 1 1 0 2 1 1 0 0 1 0-2M73 128a1 1 0 1 1 0 2 1 1 0 0 1 0-2M87 128a1 1 0 1 1 0 2 1 1 0 0 1 0-2M101 128a1 1 0 1 1 0 2 1 1 0 0 1 0-2M115 128a1 1 0 1 1 0 2 1 1 0 0 1 0-2M129 128a1 1 0 1 1 0 2 1 1 0 0 1 0-2M143 128a1 1 0 1 1 0 2 1 1 0 0 1 0-2M157 128a1 1 0 1 1 0 2 1 1 0 0 1 0-2M171 128a1 1 0 1 1 0 2 1 1 0 0 1 0-2M185 128a1 1 0 1 1 0 2 1 1 0 0 1 0-2M199 128a1 1 0 1 1 0 2 1 1 0 0 1 0-2M213 128a1 1 0 1 1 0 2 1 1 0 0 1 0-2M227 128a1 1 0 1 1 0 2 1 1 0 0 1 0-2M241 128a1 1 0 1 1 0 2 1 1 0 0 1 0-2M255 128a1 1 0 1 1 0 2 1 1 0 0 1 0-2M269 128a1 1 0 1 1 0 2 1 1 0 0 1 0-2M283 128a1 1 0 1 1 0 2 1 1 0 0 1 0-2M297 128a1 1 0 1 1 0 2 1 1 0 0 1 0-2M311 128a1 1 0 1 1 0 2 1 1 0 0 1 0-2M325 128a1 1 0 1 1 0 2 1 1 0 0 1 0-2M339 128a1 1 0 1 1 0 2 1 1 0 0 1 0-2M353 128a1 1 0 1 1 0 2 1 1 0 0 1 0-2M367 128a1 1 0 1 1 0 2 1 1 0 0 1 0-2M381 128a1 1 0 1 1 0 2 1 1 0 0 1 0-2M395 128a1 1 0 1 1 0 2 1 1 0 0 1 0-2M409 128a1 1 0 1 1 0 2 1 1 0 0 1 0-2M423 128a1 1 0 1 1 0 2 1 1 0 0 1 0-2M437 128a1 1 0 1 1 0 2 1 1 0 0 1 0-2M451 128a1 1 0 1 1 0 2 1 1 0 0 1 0-2M465 128a1 1 0 1 1 0 2 1 1 0 0 1 0-2M479 128a1 1 0 1 1 0 2 1 1 0 0 1 0-2M493 128a1 1 0 1 1 0 2 1 1 0 0 1 0-2M507 128a1 1 0 1 1 0 2 1 1 0 0 1 0-2M521 128a1 1 0 1 1 0 2 1 1 0 0 1 0-2M535 128a1 1 0 1 1 0 2 1 1 0 0 1 0-2M549 128a1 1 0 1 1 0 2 1 1 0 0 1 0-2M563 128a1 1 0 1 1 0 2 1 1 0 0 1 0-2M577 128a1 1 0 1 1 0 2 1 1 0 0 1 0-2M591 128a1 1 0 1 1 0 2 1 1 0 0 1 0-2M605 128a1 1 0 1 1 0 2 1 1 0 0 1 0-2M619 128a1 1 0 1 1 0 2 1 1 0 0 1 0-2M633 128a1 1 0 1 1 0 2 1 1 0 0 1 0-2M647 128a1 1 0 1 1 0 2 1 1 0 0 1 0-2M661 128a1 1 0 1 1 0 2 1 1 0 0 1 0-2M675 128a1 1 0 1 1 0 2 1 1 0 0 1 0-2M689 128a1 1 0 1 1 0 2 1 1 0 0 1 0-2M703 128a1 1 0 1 1 0 2 1 1 0 0 1 0-2M717 128a1 1 0 1 1 0 2 1 1 0 0 1 0-2M-11 114a1 1 0 1 1 0 2 1 1 0 0 1 0-2M3 114a1 1 0 1 1 0 2 1 1 0 0 1 0-2M17 114a1 1 0 1 1 0 2 1 1 0 0 1 0-2M31 114a1 1 0 1 1 0 2 1 1 0 0 1 0-2M45 114a1 1 0 1 1 0 2 1 1 0 0 1 0-2M59 114a1 1 0 1 1 0 2 1 1 0 0 1 0-2M73 114a1 1 0 1 1 0 2 1 1 0 0 1 0-2M87 114a1 1 0 1 1 0 2 1 1 0 0 1 0-2M101 114a1 1 0 1 1 0 2 1 1 0 0 1 0-2M115 114a1 1 0 1 1 0 2 1 1 0 0 1 0-2M129 114a1 1 0 1 1 0 2 1 1 0 0 1 0-2M143 114a1 1 0 1 1 0 2 1 1 0 0 1 0-2M157 114a1 1 0 1 1 0 2 1 1 0 0 1 0-2M171 114a1 1 0 1 1 0 2 1 1 0 0 1 0-2M185 114a1 1 0 1 1 0 2 1 1 0 0 1 0-2M199 114a1 1 0 1 1 0 2 1 1 0 0 1 0-2M213 114a1 1 0 1 1 0 2 1 1 0 0 1 0-2M227 114a1 1 0 1 1 0 2 1 1 0 0 1 0-2M241 114a1 1 0 1 1 0 2 1 1 0 0 1 0-2M255 114a1 1 0 1 1 0 2 1 1 0 0 1 0-2M269 114a1 1 0 1 1 0 2 1 1 0 0 1 0-2M283 114a1 1 0 1 1 0 2 1 1 0 0 1 0-2M297 114a1 1 0 1 1 0 2 1 1 0 0 1 0-2M311 114a1 1 0 1 1 0 2 1 1 0 0 1 0-2M325 114a1 1 0 1 1 0 2 1 1 0 0 1 0-2M339 114a1 1 0 1 1 0 2 1 1 0 0 1 0-2M353 114a1 1 0 1 1 0 2 1 1 0 0 1 0-2M367 114a1 1 0 1 1 0 2 1 1 0 0 1 0-2M381 114a1 1 0 1 1 0 2 1 1 0 0 1 0-2M395 114a1 1 0 1 1 0 2 1 1 0 0 1 0-2M409 114a1 1 0 1 1 0 2 1 1 0 0 1 0-2M423 114a1 1 0 1 1 0 2 1 1 0 0 1 0-2M437 114a1 1 0 1 1 0 2 1 1 0 0 1 0-2M451 114a1 1 0 1 1 0 2 1 1 0 0 1 0-2M465 114a1 1 0 1 1 0 2 1 1 0 0 1 0-2M479 114a1 1 0 1 1 0 2 1 1 0 0 1 0-2M493 114a1 1 0 1 1 0 2 1 1 0 0 1 0-2M507 114a1 1 0 1 1 0 2 1 1 0 0 1 0-2M521 114a1 1 0 1 1 0 2 1 1 0 0 1 0-2M535 114a1 1 0 1 1 0 2 1 1 0 0 1 0-2M549 114a1 1 0 1 1 0 2 1 1 0 0 1 0-2M563 114a1 1 0 1 1 0 2 1 1 0 0 1 0-2M577 114a1 1 0 1 1 0 2 1 1 0 0 1 0-2M591 114a1 1 0 1 1 0 2 1 1 0 0 1 0-2M605 114a1 1 0 1 1 0 2 1 1 0 0 1 0-2M619 114a1 1 0 1 1 0 2 1 1 0 0 1 0-2M633 114a1 1 0 1 1 0 2 1 1 0 0 1 0-2M647 114a1 1 0 1 1 0 2 1 1 0 0 1 0-2M661 114a1 1 0 1 1 0 2 1 1 0 0 1 0-2M675 114a1 1 0 1 1 0 2 1 1 0 0 1 0-2M689 114a1 1 0 1 1 0 2 1 1 0 0 1 0-2M703 114a1 1 0 1 1 0 2 1 1 0 0 1 0-2M717 114a1 1 0 1 1 0 2 1 1 0 0 1 0-2M-11 100a1 1 0 1 1 0 2 1 1 0 0 1 0-2M3 100a1 1 0 1 1 0 2 1 1 0 0 1 0-2M17 100a1 1 0 1 1 0 2 1 1 0 0 1 0-2M31 100a1 1 0 1 1 0 2 1 1 0 0 1 0-2M45 100a1 1 0 1 1 0 2 1 1 0 0 1 0-2M59 100a1 1 0 1 1 0 2 1 1 0 0 1 0-2M73 100a1 1 0 1 1 0 2 1 1 0 0 1 0-2M87 100a1 1 0 1 1 0 2 1 1 0 0 1 0-2M101 100a1 1 0 1 1 0 2 1 1 0 0 1 0-2M115 100a1 1 0 1 1 0 2 1 1 0 0 1 0-2M129 100a1 1 0 1 1 0 2 1 1 0 0 1 0-2M143 100a1 1 0 1 1 0 2 1 1 0 0 1 0-2M157 100a1 1 0 1 1 0 2 1 1 0 0 1 0-2M171 100a1 1 0 1 1 0 2 1 1 0 0 1 0-2M185 100a1 1 0 1 1 0 2 1 1 0 0 1 0-2M199 100a1 1 0 1 1 0 2 1 1 0 0 1 0-2M213 100a1 1 0 1 1 0 2 1 1 0 0 1 0-2M227 100a1 1 0 1 1 0 2 1 1 0 0 1 0-2M241 100a1 1 0 1 1 0 2 1 1 0 0 1 0-2M255 100a1 1 0 1 1 0 2 1 1 0 0 1 0-2M269 100a1 1 0 1 1 0 2 1 1 0 0 1 0-2M283 100a1 1 0 1 1 0 2 1 1 0 0 1 0-2M297 100a1 1 0 1 1 0 2 1 1 0 0 1 0-2M311 100a1 1 0 1 1 0 2 1 1 0 0 1 0-2M325 100a1 1 0 1 1 0 2 1 1 0 0 1 0-2M339 100a1 1 0 1 1 0 2 1 1 0 0 1 0-2M353 100a1 1 0 1 1 0 2 1 1 0 0 1 0-2M367 100a1 1 0 1 1 0 2 1 1 0 0 1 0-2M381 100a1 1 0 1 1 0 2 1 1 0 0 1 0-2M395 100a1 1 0 1 1 0 2 1 1 0 0 1 0-2M409 100a1 1 0 1 1 0 2 1 1 0 0 1 0-2M423 100a1 1 0 1 1 0 2 1 1 0 0 1 0-2M437 100a1 1 0 1 1 0 2 1 1 0 0 1 0-2M451 100a1 1 0 1 1 0 2 1 1 0 0 1 0-2M465 100a1 1 0 1 1 0 2 1 1 0 0 1 0-2M479 100a1 1 0 1 1 0 2 1 1 0 0 1 0-2M493 100a1 1 0 1 1 0 2 1 1 0 0 1 0-2M507 100a1 1 0 1 1 0 2 1 1 0 0 1 0-2M521 100a1 1 0 1 1 0 2 1 1 0 0 1 0-2M535 100a1 1 0 1 1 0 2 1 1 0 0 1 0-2M549 100a1 1 0 1 1 0 2 1 1 0 0 1 0-2M563 100a1 1 0 1 1 0 2 1 1 0 0 1 0-2M577 100a1 1 0 1 1 0 2 1 1 0 0 1 0-2M591 100a1 1 0 1 1 0 2 1 1 0 0 1 0-2M605 100a1 1 0 1 1 0 2 1 1 0 0 1 0-2M619 100a1 1 0 1 1 0 2 1 1 0 0 1 0-2M633 100a1 1 0 1 1 0 2 1 1 0 0 1 0-2M647 100a1 1 0 1 1 0 2 1 1 0 0 1 0-2M661 100a1 1 0 1 1 0 2 1 1 0 0 1 0-2M675 100a1 1 0 1 1 0 2 1 1 0 0 1 0-2M689 100a1 1 0 1 1 0 2 1 1 0 0 1 0-2M703 100a1 1 0 1 1 0 2 1 1 0 0 1 0-2M717 100a1 1 0 1 1 0 2 1 1 0 0 1 0-2M-11 86a1 1 0 1 1 0 2 1 1 0 0 1 0-2M3 86a1 1 0 1 1 0 2 1 1 0 0 1 0-2M17 86a1 1 0 1 1 0 2 1 1 0 0 1 0-2M31 86a1 1 0 1 1 0 2 1 1 0 0 1 0-2M45 86a1 1 0 1 1 0 2 1 1 0 0 1 0-2M59 86a1 1 0 1 1 0 2 1 1 0 0 1 0-2M73 86a1 1 0 1 1 0 2 1 1 0 0 1 0-2M87 86a1 1 0 1 1 0 2 1 1 0 0 1 0-2M101 86a1 1 0 1 1 0 2 1 1 0 0 1 0-2M115 86a1 1 0 1 1 0 2 1 1 0 0 1 0-2M129 86a1 1 0 1 1 0 2 1 1 0 0 1 0-2M143 86a1 1 0 1 1 0 2 1 1 0 0 1 0-2M157 86a1 1 0 1 1 0 2 1 1 0 0 1 0-2M171 86a1 1 0 1 1 0 2 1 1 0 0 1 0-2M185 86a1 1 0 1 1 0 2 1 1 0 0 1 0-2M199 86a1 1 0 1 1 0 2 1 1 0 0 1 0-2M213 86a1 1 0 1 1 0 2 1 1 0 0 1 0-2M227 86a1 1 0 1 1 0 2 1 1 0 0 1 0-2M241 86a1 1 0 1 1 0 2 1 1 0 0 1 0-2M255 86a1 1 0 1 1 0 2 1 1 0 0 1 0-2M269 86a1 1 0 1 1 0 2 1 1 0 0 1 0-2M283 86a1 1 0 1 1 0 2 1 1 0 0 1 0-2M297 86a1 1 0 1 1 0 2 1 1 0 0 1 0-2M311 86a1 1 0 1 1 0 2 1 1 0 0 1 0-2M325 86a1 1 0 1 1 0 2 1 1 0 0 1 0-2M339 86a1 1 0 1 1 0 2 1 1 0 0 1 0-2M353 86a1 1 0 1 1 0 2 1 1 0 0 1 0-2M367 86a1 1 0 1 1 0 2 1 1 0 0 1 0-2M381 86a1 1 0 1 1 0 2 1 1 0 0 1 0-2M395 86a1 1 0 1 1 0 2 1 1 0 0 1 0-2M409 86a1 1 0 1 1 0 2 1 1 0 0 1 0-2M423 86a1 1 0 1 1 0 2 1 1 0 0 1 0-2M437 86a1 1 0 1 1 0 2 1 1 0 0 1 0-2M451 86a1 1 0 1 1 0 2 1 1 0 0 1 0-2M465 86a1 1 0 1 1 0 2 1 1 0 0 1 0-2M479 86a1 1 0 1 1 0 2 1 1 0 0 1 0-2M493 86a1 1 0 1 1 0 2 1 1 0 0 1 0-2M507 86a1 1 0 1 1 0 2 1 1 0 0 1 0-2M521 86a1 1 0 1 1 0 2 1 1 0 0 1 0-2M535 86a1 1 0 1 1 0 2 1 1 0 0 1 0-2M549 86a1 1 0 1 1 0 2 1 1 0 0 1 0-2M563 86a1 1 0 1 1 0 2 1 1 0 0 1 0-2M577 86a1 1 0 1 1 0 2 1 1 0 0 1 0-2M591 86a1 1 0 1 1 0 2 1 1 0 0 1 0-2M605 86a1 1 0 1 1 0 2 1 1 0 0 1 0-2M619 86a1 1 0 1 1 0 2 1 1 0 0 1 0-2M633 86a1 1 0 1 1 0 2 1 1 0 0 1 0-2M647 86a1 1 0 1 1 0 2 1 1 0 0 1 0-2M661 86a1 1 0 1 1 0 2 1 1 0 0 1 0-2M675 86a1 1 0 1 1 0 2 1 1 0 0 1 0-2M689 86a1 1 0 1 1 0 2 1 1 0 0 1 0-2M703 86a1 1 0 1 1 0 2 1 1 0 0 1 0-2M717 86a1 1 0 1 1 0 2 1 1 0 0 1 0-2M-11 72a1 1 0 1 1 0 2 1 1 0 0 1 0-2M3 72a1 1 0 1 1 0 2 1 1 0 0 1 0-2M17 72a1 1 0 1 1 0 2 1 1 0 0 1 0-2M31 72a1 1 0 1 1 0 2 1 1 0 0 1 0-2M45 72a1 1 0 1 1 0 2 1 1 0 0 1 0-2M59 72a1 1 0 1 1 0 2 1 1 0 0 1 0-2M73 72a1 1 0 1 1 0 2 1 1 0 0 1 0-2M87 72a1 1 0 1 1 0 2 1 1 0 0 1 0-2M101 72a1 1 0 1 1 0 2 1 1 0 0 1 0-2M115 72a1 1 0 1 1 0 2 1 1 0 0 1 0-2M129 72a1 1 0 1 1 0 2 1 1 0 0 1 0-2M143 72a1 1 0 1 1 0 2 1 1 0 0 1 0-2M157 72a1 1 0 1 1 0 2 1 1 0 0 1 0-2M171 72a1 1 0 1 1 0 2 1 1 0 0 1 0-2M185 72a1 1 0 1 1 0 2 1 1 0 0 1 0-2M199 72a1 1 0 1 1 0 2 1 1 0 0 1 0-2M213 72a1 1 0 1 1 0 2 1 1 0 0 1 0-2M227 72a1 1 0 1 1 0 2 1 1 0 0 1 0-2M241 72a1 1 0 1 1 0 2 1 1 0 0 1 0-2M255 72a1 1 0 1 1 0 2 1 1 0 0 1 0-2M269 72a1 1 0 1 1 0 2 1 1 0 0 1 0-2M283 72a1 1 0 1 1 0 2 1 1 0 0 1 0-2M297 72a1 1 0 1 1 0 2 1 1 0 0 1 0-2M311 72a1 1 0 1 1 0 2 1 1 0 0 1 0-2M325 72a1 1 0 1 1 0 2 1 1 0 0 1 0-2M339 72a1 1 0 1 1 0 2 1 1 0 0 1 0-2M353 72a1 1 0 1 1 0 2 1 1 0 0 1 0-2M367 72a1 1 0 1 1 0 2 1 1 0 0 1 0-2M381 72a1 1 0 1 1 0 2 1 1 0 0 1 0-2M395 72a1 1 0 1 1 0 2 1 1 0 0 1 0-2M409 72a1 1 0 1 1 0 2 1 1 0 0 1 0-2M423 72a1 1 0 1 1 0 2 1 1 0 0 1 0-2M437 72a1 1 0 1 1 0 2 1 1 0 0 1 0-2M451 72a1 1 0 1 1 0 2 1 1 0 0 1 0-2M465 72a1 1 0 1 1 0 2 1 1 0 0 1 0-2M479 72a1 1 0 1 1 0 2 1 1 0 0 1 0-2M493 72a1 1 0 1 1 0 2 1 1 0 0 1 0-2M507 72a1 1 0 1 1 0 2 1 1 0 0 1 0-2M521 72a1 1 0 1 1 0 2 1 1 0 0 1 0-2M535 72a1 1 0 1 1 0 2 1 1 0 0 1 0-2M549 72a1 1 0 1 1 0 2 1 1 0 0 1 0-2M563 72a1 1 0 1 1 0 2 1 1 0 0 1 0-2M577 72a1 1 0 1 1 0 2 1 1 0 0 1 0-2M591 72a1 1 0 1 1 0 2 1 1 0 0 1 0-2M605 72a1 1 0 1 1 0 2 1 1 0 0 1 0-2M619 72a1 1 0 1 1 0 2 1 1 0 0 1 0-2M633 72a1 1 0 1 1 0 2 1 1 0 0 1 0-2M647 72a1 1 0 1 1 0 2 1 1 0 0 1 0-2M661 72a1 1 0 1 1 0 2 1 1 0 0 1 0-2M675 72a1 1 0 1 1 0 2 1 1 0 0 1 0-2M689 72a1 1 0 1 1 0 2 1 1 0 0 1 0-2M703 72a1 1 0 1 1 0 2 1 1 0 0 1 0-2M717 72a1 1 0 1 1 0 2 1 1 0 0 1 0-2M-11 58a1 1 0 1 1 0 2 1 1 0 0 1 0-2M3 58a1 1 0 1 1 0 2 1 1 0 0 1 0-2M17 58a1 1 0 1 1 0 2 1 1 0 0 1 0-2M31 58a1 1 0 1 1 0 2 1 1 0 0 1 0-2M45 58a1 1 0 1 1 0 2 1 1 0 0 1 0-2M59 58a1 1 0 1 1 0 2 1 1 0 0 1 0-2M73 58a1 1 0 1 1 0 2 1 1 0 0 1 0-2M87 58a1 1 0 1 1 0 2 1 1 0 0 1 0-2M101 58a1 1 0 1 1 0 2 1 1 0 0 1 0-2M115 58a1 1 0 1 1 0 2 1 1 0 0 1 0-2M129 58a1 1 0 1 1 0 2 1 1 0 0 1 0-2M143 58a1 1 0 1 1 0 2 1 1 0 0 1 0-2M157 58a1 1 0 1 1 0 2 1 1 0 0 1 0-2M171 58a1 1 0 1 1 0 2 1 1 0 0 1 0-2M185 58a1 1 0 1 1 0 2 1 1 0 0 1 0-2M199 58a1 1 0 1 1 0 2 1 1 0 0 1 0-2M213 58a1 1 0 1 1 0 2 1 1 0 0 1 0-2M227 58a1 1 0 1 1 0 2 1 1 0 0 1 0-2M241 58a1 1 0 1 1 0 2 1 1 0 0 1 0-2M255 58a1 1 0 1 1 0 2 1 1 0 0 1 0-2M269 58a1 1 0 1 1 0 2 1 1 0 0 1 0-2M283 58a1 1 0 1 1 0 2 1 1 0 0 1 0-2M297 58a1 1 0 1 1 0 2 1 1 0 0 1 0-2M311 58a1 1 0 1 1 0 2 1 1 0 0 1 0-2M325 58a1 1 0 1 1 0 2 1 1 0 0 1 0-2M339 58a1 1 0 1 1 0 2 1 1 0 0 1 0-2M353 58a1 1 0 1 1 0 2 1 1 0 0 1 0-2M367 58a1 1 0 1 1 0 2 1 1 0 0 1 0-2M381 58a1 1 0 1 1 0 2 1 1 0 0 1 0-2M395 58a1 1 0 1 1 0 2 1 1 0 0 1 0-2M409 58a1 1 0 1 1 0 2 1 1 0 0 1 0-2M423 58a1 1 0 1 1 0 2 1 1 0 0 1 0-2M437 58a1 1 0 1 1 0 2 1 1 0 0 1 0-2M451 58a1 1 0 1 1 0 2 1 1 0 0 1 0-2M465 58a1 1 0 1 1 0 2 1 1 0 0 1 0-2M479 58a1 1 0 1 1 0 2 1 1 0 0 1 0-2M493 58a1 1 0 1 1 0 2 1 1 0 0 1 0-2M507 58a1 1 0 1 1 0 2 1 1 0 0 1 0-2M521 58a1 1 0 1 1 0 2 1 1 0 0 1 0-2M535 58a1 1 0 1 1 0 2 1 1 0 0 1 0-2M549 58a1 1 0 1 1 0 2 1 1 0 0 1 0-2M563 58a1 1 0 1 1 0 2 1 1 0 0 1 0-2M577 58a1 1 0 1 1 0 2 1 1 0 0 1 0-2M591 58a1 1 0 1 1 0 2 1 1 0 0 1 0-2M605 58a1 1 0 1 1 0 2 1 1 0 0 1 0-2M619 58a1 1 0 1 1 0 2 1 1 0 0 1 0-2M633 58a1 1 0 1 1 0 2 1 1 0 0 1 0-2M647 58a1 1 0 1 1 0 2 1 1 0 0 1 0-2M661 58a1 1 0 1 1 0 2 1 1 0 0 1 0-2M675 58a1 1 0 1 1 0 2 1 1 0 0 1 0-2M689 58a1 1 0 1 1 0 2 1 1 0 0 1 0-2M703 58a1 1 0 1 1 0 2 1 1 0 0 1 0-2M717 58a1 1 0 1 1 0 2 1 1 0 0 1 0-2M-11 44a1 1 0 1 1 0 2 1 1 0 0 1 0-2M3 44a1 1 0 1 1 0 2 1 1 0 0 1 0-2M17 44a1 1 0 1 1 0 2 1 1 0 0 1 0-2M31 44a1 1 0 1 1 0 2 1 1 0 0 1 0-2M45 44a1 1 0 1 1 0 2 1 1 0 0 1 0-2M59 44a1 1 0 1 1 0 2 1 1 0 0 1 0-2M73 44a1 1 0 1 1 0 2 1 1 0 0 1 0-2M87 44a1 1 0 1 1 0 2 1 1 0 0 1 0-2M101 44a1 1 0 1 1 0 2 1 1 0 0 1 0-2M115 44a1 1 0 1 1 0 2 1 1 0 0 1 0-2M129 44a1 1 0 1 1 0 2 1 1 0 0 1 0-2M143 44a1 1 0 1 1 0 2 1 1 0 0 1 0-2M157 44a1 1 0 1 1 0 2 1 1 0 0 1 0-2M171 44a1 1 0 1 1 0 2 1 1 0 0 1 0-2M185 44a1 1 0 1 1 0 2 1 1 0 0 1 0-2M199 44a1 1 0 1 1 0 2 1 1 0 0 1 0-2M213 44a1 1 0 1 1 0 2 1 1 0 0 1 0-2M227 44a1 1 0 1 1 0 2 1 1 0 0 1 0-2M241 44a1 1 0 1 1 0 2 1 1 0 0 1 0-2M255 44a1 1 0 1 1 0 2 1 1 0 0 1 0-2M269 44a1 1 0 1 1 0 2 1 1 0 0 1 0-2M283 44a1 1 0 1 1 0 2 1 1 0 0 1 0-2M297 44a1 1 0 1 1 0 2 1 1 0 0 1 0-2M311 44a1 1 0 1 1 0 2 1 1 0 0 1 0-2M325 44a1 1 0 1 1 0 2 1 1 0 0 1 0-2M339 44a1 1 0 1 1 0 2 1 1 0 0 1 0-2M353 44a1 1 0 1 1 0 2 1 1 0 0 1 0-2M367 44a1 1 0 1 1 0 2 1 1 0 0 1 0-2M381 44a1 1 0 1 1 0 2 1 1 0 0 1 0-2M395 44a1 1 0 1 1 0 2 1 1 0 0 1 0-2M409 44a1 1 0 1 1 0 2 1 1 0 0 1 0-2M423 44a1 1 0 1 1 0 2 1 1 0 0 1 0-2M437 44a1 1 0 1 1 0 2 1 1 0 0 1 0-2M451 44a1 1 0 1 1 0 2 1 1 0 0 1 0-2M465 44a1 1 0 1 1 0 2 1 1 0 0 1 0-2M479 44a1 1 0 1 1 0 2 1 1 0 0 1 0-2M493 44a1 1 0 1 1 0 2 1 1 0 0 1 0-2M507 44a1 1 0 1 1 0 2 1 1 0 0 1 0-2M521 44a1 1 0 1 1 0 2 1 1 0 0 1 0-2M535 44a1 1 0 1 1 0 2 1 1 0 0 1 0-2M549 44a1 1 0 1 1 0 2 1 1 0 0 1 0-2M563 44a1 1 0 1 1 0 2 1 1 0 0 1 0-2M577 44a1 1 0 1 1 0 2 1 1 0 0 1 0-2M591 44a1 1 0 1 1 0 2 1 1 0 0 1 0-2M605 44a1 1 0 1 1 0 2 1 1 0 0 1 0-2M619 44a1 1 0 1 1 0 2 1 1 0 0 1 0-2M633 44a1 1 0 1 1 0 2 1 1 0 0 1 0-2M647 44a1 1 0 1 1 0 2 1 1 0 0 1 0-2M661 44a1 1 0 1 1 0 2 1 1 0 0 1 0-2M675 44a1 1 0 1 1 0 2 1 1 0 0 1 0-2M689 44a1 1 0 1 1 0 2 1 1 0 0 1 0-2M703 44a1 1 0 1 1 0 2 1 1 0 0 1 0-2M717 44a1 1 0 1 1 0 2 1 1 0 0 1 0-2M-11 30a1 1 0 1 1 0 2 1 1 0 0 1 0-2M3 30a1 1 0 1 1 0 2 1 1 0 0 1 0-2M17 30a1 1 0 1 1 0 2 1 1 0 0 1 0-2M31 30a1 1 0 1 1 0 2 1 1 0 0 1 0-2M45 30a1 1 0 1 1 0 2 1 1 0 0 1 0-2M59 30a1 1 0 1 1 0 2 1 1 0 0 1 0-2M73 30a1 1 0 1 1 0 2 1 1 0 0 1 0-2M87 30a1 1 0 1 1 0 2 1 1 0 0 1 0-2M101 30a1 1 0 1 1 0 2 1 1 0 0 1 0-2M115 30a1 1 0 1 1 0 2 1 1 0 0 1 0-2M129 30a1 1 0 1 1 0 2 1 1 0 0 1 0-2M143 30a1 1 0 1 1 0 2 1 1 0 0 1 0-2M157 30a1 1 0 1 1 0 2 1 1 0 0 1 0-2M171 30a1 1 0 1 1 0 2 1 1 0 0 1 0-2M185 30a1 1 0 1 1 0 2 1 1 0 0 1 0-2M199 30a1 1 0 1 1 0 2 1 1 0 0 1 0-2M213 30a1 1 0 1 1 0 2 1 1 0 0 1 0-2M227 30a1 1 0 1 1 0 2 1 1 0 0 1 0-2M241 30a1 1 0 1 1 0 2 1 1 0 0 1 0-2M255 30a1 1 0 1 1 0 2 1 1 0 0 1 0-2M269 30a1 1 0 1 1 0 2 1 1 0 0 1 0-2M283 30a1 1 0 1 1 0 2 1 1 0 0 1 0-2M297 30a1 1 0 1 1 0 2 1 1 0 0 1 0-2M311 30a1 1 0 1 1 0 2 1 1 0 0 1 0-2M325 30a1 1 0 1 1 0 2 1 1 0 0 1 0-2M339 30a1 1 0 1 1 0 2 1 1 0 0 1 0-2M353 30a1 1 0 1 1 0 2 1 1 0 0 1 0-2M367 30a1 1 0 1 1 0 2 1 1 0 0 1 0-2M381 30a1 1 0 1 1 0 2 1 1 0 0 1 0-2M395 30a1 1 0 1 1 0 2 1 1 0 0 1 0-2M409 30a1 1 0 1 1 0 2 1 1 0 0 1 0-2M423 30a1 1 0 1 1 0 2 1 1 0 0 1 0-2M437 30a1 1 0 1 1 0 2 1 1 0 0 1 0-2M451 30a1 1 0 1 1 0 2 1 1 0 0 1 0-2M465 30a1 1 0 1 1 0 2 1 1 0 0 1 0-2M479 30a1 1 0 1 1 0 2 1 1 0 0 1 0-2M493 30a1 1 0 1 1 0 2 1 1 0 0 1 0-2M507 30a1 1 0 1 1 0 2 1 1 0 0 1 0-2M521 30a1 1 0 1 1 0 2 1 1 0 0 1 0-2M535 30a1 1 0 1 1 0 2 1 1 0 0 1 0-2M549 30a1 1 0 1 1 0 2 1 1 0 0 1 0-2M563 30a1 1 0 1 1 0 2 1 1 0 0 1 0-2M577 30a1 1 0 1 1 0 2 1 1 0 0 1 0-2M591 30a1 1 0 1 1 0 2 1 1 0 0 1 0-2M605 30a1 1 0 1 1 0 2 1 1 0 0 1 0-2M619 30a1 1 0 1 1 0 2 1 1 0 0 1 0-2M633 30a1 1 0 1 1 0 2 1 1 0 0 1 0-2M647 30a1 1 0 1 1 0 2 1 1 0 0 1 0-2M661 30a1 1 0 1 1 0 2 1 1 0 0 1 0-2M675 30a1 1 0 1 1 0 2 1 1 0 0 1 0-2M689 30a1 1 0 1 1 0 2 1 1 0 0 1 0-2M703 30a1 1 0 1 1 0 2 1 1 0 0 1 0-2M717 30a1 1 0 1 1 0 2 1 1 0 0 1 0-2M-11 16a1 1 0 1 1 0 2 1 1 0 0 1 0-2M3 16a1 1 0 1 1 0 2 1 1 0 0 1 0-2M17 16a1 1 0 1 1 0 2 1 1 0 0 1 0-2M31 16a1 1 0 1 1 0 2 1 1 0 0 1 0-2M45 16a1 1 0 1 1 0 2 1 1 0 0 1 0-2M59 16a1 1 0 1 1 0 2 1 1 0 0 1 0-2M73 16a1 1 0 1 1 0 2 1 1 0 0 1 0-2M87 16a1 1 0 1 1 0 2 1 1 0 0 1 0-2M101 16a1 1 0 1 1 0 2 1 1 0 0 1 0-2M115 16a1 1 0 1 1 0 2 1 1 0 0 1 0-2M129 16a1 1 0 1 1 0 2 1 1 0 0 1 0-2M143 16a1 1 0 1 1 0 2 1 1 0 0 1 0-2M157 16a1 1 0 1 1 0 2 1 1 0 0 1 0-2M171 16a1 1 0 1 1 0 2 1 1 0 0 1 0-2M185 16a1 1 0 1 1 0 2 1 1 0 0 1 0-2M199 16a1 1 0 1 1 0 2 1 1 0 0 1 0-2M213 16a1 1 0 1 1 0 2 1 1 0 0 1 0-2M227 16a1 1 0 1 1 0 2 1 1 0 0 1 0-2M241 16a1 1 0 1 1 0 2 1 1 0 0 1 0-2M255 16a1 1 0 1 1 0 2 1 1 0 0 1 0-2M269 16a1 1 0 1 1 0 2 1 1 0 0 1 0-2M283 16a1 1 0 1 1 0 2 1 1 0 0 1 0-2M297 16a1 1 0 1 1 0 2 1 1 0 0 1 0-2M311 16a1 1 0 1 1 0 2 1 1 0 0 1 0-2M325 16a1 1 0 1 1 0 2 1 1 0 0 1 0-2M339 16a1 1 0 1 1 0 2 1 1 0 0 1 0-2M353 16a1 1 0 1 1 0 2 1 1 0 0 1 0-2M367 16a1 1 0 1 1 0 2 1 1 0 0 1 0-2M381 16a1 1 0 1 1 0 2 1 1 0 0 1 0-2M395 16a1 1 0 1 1 0 2 1 1 0 0 1 0-2M409 16a1 1 0 1 1 0 2 1 1 0 0 1 0-2M423 16a1 1 0 1 1 0 2 1 1 0 0 1 0-2M437 16a1 1 0 1 1 0 2 1 1 0 0 1 0-2M451 16a1 1 0 1 1 0 2 1 1 0 0 1 0-2M465 16a1 1 0 1 1 0 2 1 1 0 0 1 0-2M479 16a1 1 0 1 1 0 2 1 1 0 0 1 0-2M493 16a1 1 0 1 1 0 2 1 1 0 0 1 0-2M507 16a1 1 0 1 1 0 2 1 1 0 0 1 0-2M521 16a1 1 0 1 1 0 2 1 1 0 0 1 0-2M535 16a1 1 0 1 1 0 2 1 1 0 0 1 0-2M549 16a1 1 0 1 1 0 2 1 1 0 0 1 0-2M563 16a1 1 0 1 1 0 2 1 1 0 0 1 0-2M577 16a1 1 0 1 1 0 2 1 1 0 0 1 0-2M591 16a1 1 0 1 1 0 2 1 1 0 0 1 0-2M605 16a1 1 0 1 1 0 2 1 1 0 0 1 0-2M619 16a1 1 0 1 1 0 2 1 1 0 0 1 0-2M633 16a1 1 0 1 1 0 2 1 1 0 0 1 0-2M647 16a1 1 0 1 1 0 2 1 1 0 0 1 0-2M661 16a1 1 0 1 1 0 2 1 1 0 0 1 0-2M675 16a1 1 0 1 1 0 2 1 1 0 0 1 0-2M689 16a1 1 0 1 1 0 2 1 1 0 0 1 0-2M703 16a1 1 0 1 1 0 2 1 1 0 0 1 0-2M717 16a1 1 0 1 1 0 2 1 1 0 0 1 0-2M-11 2a1 1 0 1 1 0 2 1 1 0 0 1 0-2M3 2a1 1 0 1 1 0 2 1 1 0 0 1 0-2M17 2a1 1 0 1 1 0 2 1 1 0 0 1 0-2M31 2a1 1 0 1 1 0 2 1 1 0 0 1 0-2M45 2a1 1 0 1 1 0 2 1 1 0 0 1 0-2M59 2a1 1 0 1 1 0 2 1 1 0 0 1 0-2M73 2a1 1 0 1 1 0 2 1 1 0 0 1 0-2M87 2a1 1 0 1 1 0 2 1 1 0 0 1 0-2M101 2a1 1 0 1 1 0 2 1 1 0 0 1 0-2M115 2a1 1 0 1 1 0 2 1 1 0 0 1 0-2M129 2a1 1 0 1 1 0 2 1 1 0 0 1 0-2M143 2a1 1 0 1 1 0 2 1 1 0 0 1 0-2M157 2a1 1 0 1 1 0 2 1 1 0 0 1 0-2M171 2a1 1 0 1 1 0 2 1 1 0 0 1 0-2M185 2a1 1 0 1 1 0 2 1 1 0 0 1 0-2M199 2a1 1 0 1 1 0 2 1 1 0 0 1 0-2M213 2a1 1 0 1 1 0 2 1 1 0 0 1 0-2M227 2a1 1 0 1 1 0 2 1 1 0 0 1 0-2M241 2a1 1 0 1 1 0 2 1 1 0 0 1 0-2M255 2a1 1 0 1 1 0 2 1 1 0 0 1 0-2M269 2a1 1 0 1 1 0 2 1 1 0 0 1 0-2M283 2a1 1 0 1 1 0 2 1 1 0 0 1 0-2M297 2a1 1 0 1 1 0 2 1 1 0 0 1 0-2M311 2a1 1 0 1 1 0 2 1 1 0 0 1 0-2M325 2a1 1 0 1 1 0 2 1 1 0 0 1 0-2M339 2a1 1 0 1 1 0 2 1 1 0 0 1 0-2M353 2a1 1 0 1 1 0 2 1 1 0 0 1 0-2M367 2a1 1 0 1 1 0 2 1 1 0 0 1 0-2M381 2a1 1 0 1 1 0 2 1 1 0 0 1 0-2M395 2a1 1 0 1 1 0 2 1 1 0 0 1 0-2M409 2a1 1 0 1 1 0 2 1 1 0 0 1 0-2M423 2a1 1 0 1 1 0 2 1 1 0 0 1 0-2M437 2a1 1 0 1 1 0 2 1 1 0 0 1 0-2M451 2a1 1 0 1 1 0 2 1 1 0 0 1 0-2M465 2a1 1 0 1 1 0 2 1 1 0 0 1 0-2M479 2a1 1 0 1 1 0 2 1 1 0 0 1 0-2M493 2a1 1 0 1 1 0 2 1 1 0 0 1 0-2M507 2a1 1 0 1 1 0 2 1 1 0 0 1 0-2M521 2a1 1 0 1 1 0 2 1 1 0 0 1 0-2M535 2a1 1 0 1 1 0 2 1 1 0 0 1 0-2M549 2a1 1 0 1 1 0 2 1 1 0 0 1 0-2M563 2a1 1 0 1 1 0 2 1 1 0 0 1 0-2M577 2a1 1 0 1 1 0 2 1 1 0 0 1 0-2M591 2a1 1 0 1 1 0 2 1 1 0 0 1 0-2M605 2a1 1 0 1 1 0 2 1 1 0 0 1 0-2M619 2a1 1 0 1 1 0 2 1 1 0 0 1 0-2M633 2a1 1 0 1 1 0 2 1 1 0 0 1 0-2M647 2a1 1 0 1 1 0 2 1 1 0 0 1 0-2M661 2a1 1 0 1 1 0 2 1 1 0 0 1 0-2M675 2a1 1 0 1 1 0 2 1 1 0 0 1 0-2M689 2a1 1 0 1 1 0 2 1 1 0 0 1 0-2M703 2a1 1 0 1 1 0 2 1 1 0 0 1 0-2M717 2a1 1 0 1 1 0 2 1 1 0 0 1 0-2"/></g><rect width="179" height="35" x="14.5" y="14.5" fill="#4e4022" rx="5.5"/><rect width="179" height="35" x="14.5" y="14.5" stroke="#eebd53" rx="5.5"/><path fill="#f9e8c3" d="M31.834 32a.833.833 0 0 1 1.667 0v4.655l1.077-1.078a.833.833 0 1 1 1.178 1.179l-2.5 2.5a.833.833 0 0 1-1.178 0l-2.5-2.5a.833.833 0 1 1 1.178-1.178l1.078 1.077zm6.667 0v-4.655l-1.078 1.078a.833.833 0 1 1-1.178-1.179l2.5-2.5.063-.057a.833.833 0 0 1 1.115.057l2.5 2.5a.833.833 0 1 1-1.178 1.178l-1.078-1.077V32a.833.833 0 0 1-1.666 0"/><path fill="#fff" d="M51.517 28.981v-1.436h7.543v1.436h-2.922V37H54.44v-8.019zm11.035 8.157q-1.066 0-1.842-.443a3 3 0 0 1-1.187-1.265q-.415-.82-.415-1.934 0-1.095.415-1.92.42-.831 1.173-1.293.751-.465 1.768-.466.656 0 1.237.212.586.208 1.034.646.453.439.711 1.118.258.674.259 1.606v.513h-5.812v-1.127h4.21a1.8 1.8 0 0 0-.208-.854 1.5 1.5 0 0 0-.568-.595 1.6 1.6 0 0 0-.84-.217q-.513 0-.9.249-.388.244-.605.646a1.86 1.86 0 0 0-.217.873v.983q0 .618.226 1.062.227.438.633.674.405.23.95.23.366 0 .66-.1.297-.108.513-.31.217-.203.328-.503l1.56.175a2.43 2.43 0 0 1-.563 1.08 2.75 2.75 0 0 1-1.052.711q-.642.25-1.468.25m6.238-9.592V37h-1.672v-9.454zm4.857 9.593q-1.066 0-1.842-.444a3 3 0 0 1-1.186-1.265q-.416-.82-.416-1.934 0-1.095.416-1.92.42-.831 1.172-1.293.752-.465 1.769-.466.655 0 1.237.212.585.208 1.034.646.452.439.71 1.118.26.674.26 1.606v.513h-5.813v-1.127h4.21a1.8 1.8 0 0 0-.207-.854 1.5 1.5 0 0 0-.568-.595 1.6 1.6 0 0 0-.84-.217q-.513 0-.9.249-.389.244-.605.646a1.86 1.86 0 0 0-.217.873v.983q0 .618.226 1.062.225.438.632.674.407.23.951.23.365 0 .66-.1.296-.108.513-.31.217-.203.328-.503l1.56.175a2.43 2.43 0 0 1-.563 1.08 2.75 2.75 0 0 1-1.053.711q-.641.25-1.468.25M78.214 37v-7.09h1.597v1.204h.083a1.88 1.88 0 0 1 .735-.951q.512-.345 1.223-.346.72 0 1.214.35.498.347.702.947h.074q.235-.591.794-.942.563-.355 1.334-.355.978 0 1.597.618.62.62.619 1.805V37H86.51v-4.501q0-.66-.35-.965a1.25 1.25 0 0 0-.86-.31q-.604 0-.946.38-.337.373-.337.973V37h-1.639v-4.57q0-.55-.332-.877-.328-.328-.859-.328-.36 0-.655.184-.296.18-.471.513a1.6 1.6 0 0 0-.176.766V37zm14.806.139q-1.066 0-1.842-.444a3 3 0 0 1-1.186-1.265q-.416-.82-.416-1.934 0-1.095.416-1.92.42-.831 1.172-1.293.752-.465 1.769-.466.655 0 1.237.212.585.208 1.034.646.453.439.71 1.118.26.674.26 1.606v.513H90.36v-1.127h4.21a1.8 1.8 0 0 0-.207-.854 1.5 1.5 0 0 0-.568-.595 1.6 1.6 0 0 0-.84-.217q-.513 0-.9.249-.388.244-.605.646a1.86 1.86 0 0 0-.217.873v.983q0 .618.226 1.062.226.438.632.674.406.23.951.23.365 0 .66-.1.296-.108.513-.31a1.3 1.3 0 0 0 .328-.503l1.56.175a2.43 2.43 0 0 1-.563 1.08 2.75 2.75 0 0 1-1.053.711q-.641.25-1.468.25m8.108-7.23v1.293h-4.076v-1.293zm-3.07-1.699h1.671v6.657q0 .337.102.517.105.175.277.24.171.065.378.065.157 0 .287-.023.134-.024.203-.042l.281 1.307q-.134.045-.383.101a3 3 0 0 1-.6.065 2.7 2.7 0 0 1-1.131-.19 1.76 1.76 0 0 1-.799-.655q-.29-.443-.286-1.108zm4.468 8.79v-7.09h1.62v1.18h.074q.194-.613.665-.945a1.83 1.83 0 0 1 1.085-.337q.138 0 .309.013.175.009.291.033v1.537a1.8 1.8 0 0 0-.337-.065 3 3 0 0 0-.439-.032q-.457 0-.822.198-.36.195-.567.54-.208.347-.208.8V37zm6.408 2.66q-.34-.001-.632-.056a2.4 2.4 0 0 1-.457-.12l.388-1.302q.364.105.651.101a.8.8 0 0 0 .503-.18q.222-.17.374-.572l.143-.383-2.571-7.239h1.772l1.635 5.355h.073l1.639-5.355h1.778l-2.84 7.95a3.2 3.2 0 0 1-.526.965q-.327.406-.803.618-.47.217-1.127.217m11.717-2.517a3 3 0 0 1-1.214-.24 2 2 0 0 1-.849-.72q-.31-.475-.31-1.173 0-.6.222-.992.221-.393.605-.628.383-.236.863-.356a7 7 0 0 1 1.002-.18 40 40 0 0 0 1.011-.115q.387-.055.563-.166.18-.116.18-.356v-.027q0-.522-.309-.808-.31-.287-.891-.287-.615 0-.974.268-.355.268-.481.633l-1.56-.222q.184-.645.609-1.08a2.66 2.66 0 0 1 1.039-.656 4 4 0 0 1 1.357-.221q.513 0 1.021.12t.928.397a2 2 0 0 1 .674.743q.258.47.258 1.177V37h-1.606v-.974h-.056a2 2 0 0 1-.429.554 2.1 2.1 0 0 1-.688.41 2.8 2.8 0 0 1-.965.153m.434-1.228q.503 0 .873-.198.369-.204.567-.536a1.36 1.36 0 0 0 .204-.725v-.835a.8.8 0 0 1-.268.12q-.185.055-.416.097-.23.04-.457.074l-.392.055q-.374.052-.67.166a1.1 1.1 0 0 0-.466.323.8.8 0 0 0-.171.527q0 .461.337.697t.859.235m4.99 1.085v-7.09h1.621v1.18h.074q.194-.613.664-.945a1.83 1.83 0 0 1 1.085-.337q.14 0 .31.013.176.009.29.033v1.537a1.8 1.8 0 0 0-.337-.065 3 3 0 0 0-.438-.032 1.7 1.7 0 0 0-.822.198 1.46 1.46 0 0 0-.775 1.34V37zm5.155 0v-7.09h1.62v1.18h.074q.194-.613.665-.945a1.83 1.83 0 0 1 1.085-.337q.138 0 .309.013.175.009.291.033v1.537a1.8 1.8 0 0 0-.337-.065 3 3 0 0 0-.439-.032q-.456 0-.822.198-.36.195-.567.54-.208.347-.208.8V37zm5.154 0v-7.09h1.671V37zm.84-8.097a.98.98 0 0 1-.683-.263.85.85 0 0 1-.286-.642q0-.379.286-.642a.97.97 0 0 1 .683-.268q.402 0 .683.268.287.264.287.642 0 .374-.287.642a.96.96 0 0 1-.683.263m8.884 1.006L143.582 37h-1.846l-2.526-7.09h1.782l1.63 5.266h.074l1.634-5.267zm4.054 7.23q-1.066 0-1.842-.444a3 3 0 0 1-1.186-1.265q-.416-.82-.416-1.934 0-1.095.416-1.92.42-.831 1.172-1.293.753-.465 1.768-.466.656 0 1.237.212.586.208 1.035.646.452.439.71 1.118.26.674.259 1.606v.513h-5.812v-1.127h4.21a1.8 1.8 0 0 0-.208-.854 1.5 1.5 0 0 0-.567-.595 1.6 1.6 0 0 0-.841-.217 1.63 1.63 0 0 0-.9.249q-.387.244-.605.646a1.87 1.87 0 0 0-.217.873v.983q0 .618.227 1.062.225.438.632.674.406.23.951.23.364 0 .66-.1a1.5 1.5 0 0 0 .513-.31q.217-.203.327-.503l1.561.175a2.44 2.44 0 0 1-.563 1.08 2.75 2.75 0 0 1-1.053.711q-.642.25-1.468.25m10.171-5.356-1.523.167a1.2 1.2 0 0 0-.226-.434 1.1 1.1 0 0 0-.425-.328 1.55 1.55 0 0 0-.656-.125q-.521 0-.877.226-.35.227-.346.587a.61.61 0 0 0 .226.503q.236.194.776.318l1.209.259q1.007.217 1.496.688.493.471.499 1.232-.005.67-.393 1.182-.383.508-1.066.794-.684.287-1.57.287-1.301 0-2.096-.545-.794-.55-.946-1.528l1.629-.157q.111.48.471.724.36.245.938.245.595 0 .955-.245.365-.244.365-.604a.63.63 0 0 0-.236-.503q-.231-.199-.72-.305l-1.209-.254q-1.02-.213-1.51-.716-.49-.507-.485-1.283a1.82 1.82 0 0 1 .356-1.136q.365-.484 1.011-.748.651-.267 1.5-.267 1.246 0 1.962.53.72.532.891 1.436"/><path fill="#d9d9d9" fill-opacity=".01" d="M27.17 30h21.951v20H27.17z"/><rect width="179" height="55" x="14.5" y="98.5" fill="#17264f" rx="9.5"/><rect width="179" height="55" x="14.5" y="98.5" stroke="#3369ff" rx="9.5"/><rect width="30" height="30" x="26" y="111" fill="#b3c7ff" rx="4"/><path fill="#23262f" d="M48.603 125.352a.917.917 0 0 1 1.296 1.296l-2.102 2.102 2.102 2.102a.916.916 0 1 1-1.297 1.296l-2.101-2.102-2.102 2.102a.917.917 0 0 1-1.297-1.296l2.102-2.102-2.102-2.102a.916.916 0 1 1 1.297-1.296l2.102 2.102zM41 119.583a.917.917 0 0 0-.917-.916c-.075 0-.159.004-.307.23-.179.273-.351.741-.518 1.465-.164.708-.303 1.563-.461 2.559-.107.671-.223 1.398-.36 2.162h1.646a.917.917 0 0 1 0 1.834h-1.99c-.159.857-.29 1.677-.414 2.45-.156.98-.304 1.901-.484 2.683-.176.765-.405 1.5-.77 2.058-.397.604-1 1.059-1.842 1.059a2.75 2.75 0 0 1-2.75-2.75.916.916 0 1 1 1.833 0 .917.917 0 0 0 .917.916c.074 0 .159-.004.307-.23.179-.273.351-.741.518-1.465.164-.708.303-1.563.461-2.56.107-.67.223-1.397.36-2.161h-1.646a.917.917 0 0 1 0-1.834h1.99c.159-.857.29-1.677.413-2.45.157-.98.304-1.901.485-2.683.176-.765.405-1.5.77-2.058.397-.604 1-1.059 1.842-1.059a2.75 2.75 0 0 1 2.75 2.75.916.916 0 1 1-1.833 0"/><path fill="#fff" d="M70.025 116.735H68.3a2.2 2.2 0 0 0-.273-.752 2.02 2.02 0 0 0-1.168-.909 2.6 2.6 0 0 0-.808-.121q-.77 0-1.366.388-.596.384-.933 1.127-.337.738-.337 1.805 0 1.084.337 1.828.342.738.933 1.117a2.5 2.5 0 0 0 1.362.374q.425 0 .794-.111.374-.115.67-.337.3-.221.502-.545.208-.323.287-.738l1.726.009a3.7 3.7 0 0 1-.42 1.265 3.72 3.72 0 0 1-2.045 1.745 4.5 4.5 0 0 1-1.537.249q-1.247 0-2.225-.577-.98-.577-1.542-1.666-.564-1.09-.563-2.613 0-1.529.567-2.613.568-1.09 1.547-1.667.977-.576 2.216-.577.789 0 1.468.222a3.8 3.8 0 0 1 1.21.651q.53.425.872 1.043.345.614.452 1.403m3.535 6.408q-.674 0-1.214-.24a2 2 0 0 1-.85-.72q-.309-.475-.309-1.173 0-.6.222-.992.222-.393.605-.628a3 3 0 0 1 .863-.356 7 7 0 0 1 1.002-.18q.623-.064 1.01-.115.39-.055.564-.166.18-.116.18-.356v-.027q0-.522-.31-.808-.308-.286-.89-.286-.614 0-.974.267-.356.269-.48.633l-1.56-.222q.184-.647.609-1.08a2.66 2.66 0 0 1 1.038-.656q.614-.22 1.358-.221.511 0 1.02.12.507.12.928.397.42.272.674.743.258.47.258 1.177V123h-1.606v-.974h-.056a2 2 0 0 1-.429.554q-.272.254-.688.411a2.8 2.8 0 0 1-.965.152m.434-1.228q.504 0 .873-.198a1.47 1.47 0 0 0 .568-.536q.203-.332.203-.725v-.835a.8.8 0 0 1-.268.12 4 4 0 0 1-.416.097q-.23.04-.457.074l-.392.055q-.374.05-.67.166a1.1 1.1 0 0 0-.466.323.8.8 0 0 0-.17.527q0 .461.337.697.336.235.858.235m6.662-8.37V123h-1.671v-9.455zm4.811 9.593q-1.06 0-1.823-.466a3.1 3.1 0 0 1-1.168-1.288q-.406-.826-.406-1.902 0-1.08.415-1.906a3.1 3.1 0 0 1 1.173-1.293q.761-.466 1.8-.466.864 0 1.528.318.67.315 1.067.891.396.573.452 1.339h-1.597a1.53 1.53 0 0 0-.462-.854q-.36-.346-.965-.346-.511 0-.9.277-.388.272-.605.785-.212.512-.212 1.228 0 .724.212 1.246.213.517.596.799.387.277.91.277.368 0 .66-.139.294-.142.493-.411.199-.267.273-.651h1.597q-.06.753-.443 1.335a2.6 2.6 0 0 1-1.043.904q-.66.323-1.552.323m8.93-3.12v-4.109h1.67V123h-1.62v-1.26h-.073q-.24.595-.79.974-.544.378-1.343.378-.698 0-1.233-.309a2.15 2.15 0 0 1-.83-.909q-.3-.601-.3-1.45v-4.515h1.67v4.256q0 .675.37 1.072t.97.397q.368 0 .715-.181.346-.18.568-.535.225-.36.226-.9m5.06-6.473V123h-1.67v-9.455zm3.76 9.598q-.675 0-1.215-.24a2 2 0 0 1-.849-.72q-.309-.475-.309-1.173 0-.6.221-.992.222-.393.605-.628.383-.236.863-.356a7 7 0 0 1 1.002-.18 38 38 0 0 0 1.011-.115q.388-.055.563-.166.18-.116.18-.356v-.027q0-.522-.309-.808t-.891-.286q-.614 0-.974.267-.355.269-.48.633l-1.561-.222a2.5 2.5 0 0 1 .61-1.08 2.66 2.66 0 0 1 1.039-.656 4 4 0 0 1 1.357-.221q.512 0 1.02.12t.928.397q.42.272.674.743.258.47.258 1.177V123h-1.606v-.974h-.055a2 2 0 0 1-.43.554 2.1 2.1 0 0 1-.688.411 2.8 2.8 0 0 1-.964.152m.433-1.228q.504 0 .873-.198.369-.203.568-.536.203-.332.203-.725v-.835a.8.8 0 0 1-.268.12 4 4 0 0 1-.415.097q-.231.04-.457.074l-.393.055a3 3 0 0 0-.669.166 1.1 1.1 0 0 0-.466.323.8.8 0 0 0-.171.527q0 .461.337.697t.858.235m8.532-6.006v1.293h-4.077v-1.293zm-3.07-1.699h1.671v6.657q0 .337.101.517a.55.55 0 0 0 .277.24q.172.065.379.065.157 0 .286-.023.135-.023.203-.042l.282 1.307a4 4 0 0 1-.383.101 3 3 0 0 1-.6.065 2.7 2.7 0 0 1-1.131-.189 1.76 1.76 0 0 1-.799-.656q-.29-.443-.286-1.108zm7.53 8.928q-1.067 0-1.842-.443a3 3 0 0 1-1.186-1.265q-.415-.82-.415-1.934 0-1.093.415-1.92.42-.831 1.173-1.293.752-.466 1.768-.466.655 0 1.237.212a2.8 2.8 0 0 1 1.034.646q.453.439.711 1.118.258.673.258 1.606v.513h-5.812v-1.127h4.211a1.8 1.8 0 0 0-.208-.854 1.5 1.5 0 0 0-.568-.595 1.6 1.6 0 0 0-.84-.217q-.513 0-.9.249a1.7 1.7 0 0 0-.605.646 1.86 1.86 0 0 0-.217.873v.983q0 .618.226 1.062.227.438.632.674.406.231.951.231.366 0 .661-.102.295-.106.512-.309a1.3 1.3 0 0 0 .328-.503l1.56.175a2.4 2.4 0 0 1-.563 1.08 2.74 2.74 0 0 1-1.053.711q-.641.249-1.468.249m7.199-.013a2.7 2.7 0 0 1-1.496-.43q-.66-.429-1.043-1.246-.384-.818-.384-1.985 0-1.182.388-1.995.393-.816 1.057-1.232.666-.42 1.482-.42.624 0 1.025.212.402.208.637.503.236.29.365.55h.069v-3.537h1.676V123h-1.644v-1.117h-.101a3 3 0 0 1-.374.549 2.1 2.1 0 0 1-.646.49q-.402.203-1.011.203m.466-1.371q.53 0 .905-.287.373-.29.568-.808.193-.516.193-1.204 0-.689-.193-1.196a1.7 1.7 0 0 0-.564-.79q-.369-.28-.909-.281-.558 0-.933.291a1.76 1.76 0 0 0-.563.803 3.4 3.4 0 0 0-.189 1.173q0 .664.189 1.186.194.517.568.817.378.296.928.296m8.389 1.246v-9.455h6.057v1.436h-4.344v2.567h3.929v1.436h-3.929V123zm7.544 0v-7.091h1.671V123zm.84-8.097a.98.98 0 0 1-.684-.263.85.85 0 0 1-.286-.642q0-.378.286-.642a.97.97 0 0 1 .684-.268q.4 0 .683.268a.84.84 0 0 1 .286.642.85.85 0 0 1-.286.642.97.97 0 0 1-.683.263m5.688 8.235q-1.066 0-1.842-.443a3 3 0 0 1-1.186-1.265q-.416-.82-.416-1.934 0-1.093.416-1.92.42-.831 1.173-1.293.752-.466 1.768-.466.655 0 1.237.212a2.8 2.8 0 0 1 1.034.646q.453.439.711 1.118.258.673.258 1.606v.513h-5.812v-1.127h4.211a1.8 1.8 0 0 0-.208-.854 1.5 1.5 0 0 0-.568-.595 1.6 1.6 0 0 0-.84-.217q-.513 0-.9.249a1.7 1.7 0 0 0-.605.646 1.86 1.86 0 0 0-.217.873v.983q0 .618.226 1.062.227.438.632.674.406.231.951.231.366 0 .661-.102.295-.106.512-.309a1.3 1.3 0 0 0 .328-.503l1.56.175a2.4 2.4 0 0 1-.563 1.08 2.74 2.74 0 0 1-1.053.711q-.641.249-1.468.249m6.238-9.593V123h-1.671v-9.455zm4.35 9.58a2.68 2.68 0 0 1-1.495-.43q-.66-.429-1.044-1.246-.383-.818-.383-1.985 0-1.182.388-1.995.392-.816 1.057-1.232.665-.42 1.482-.42.623 0 1.025.212.401.208.637.503.235.29.365.55h.069v-3.537h1.676V123h-1.644v-1.117h-.101a3 3 0 0 1-.374.549 2.1 2.1 0 0 1-.647.49q-.4.203-1.011.203m.467-1.371q.53 0 .904-.287.375-.29.568-.808.194-.516.194-1.204 0-.689-.194-1.196a1.7 1.7 0 0 0-.563-.79q-.369-.28-.909-.281-.56 0-.933.291a1.76 1.76 0 0 0-.563.803 3.4 3.4 0 0 0-.189 1.173q0 .664.189 1.186.193.517.568.817.378.296.928.296m9.603 1.246h-1.828l3.328-9.455h2.115l3.333 9.455h-1.828l-2.526-7.516h-.073zm.06-3.707h4.986v1.376h-4.986zm9.089 2.571a1 1 0 0 1-.721-.295.97.97 0 0 1-.295-.72.95.95 0 0 1 .295-.711 1 1 0 0 1 .721-.296q.406 0 .706.296a.97.97 0 0 1 .162 1.223 1.06 1.06 0 0 1-.37.369.95.95 0 0 1-.498.134m0-4.685a1 1 0 0 1-.721-.296.97.97 0 0 1-.295-.72.95.95 0 0 1 .295-.711q.301-.3.721-.3.406 0 .706.3a.97.97 0 0 1 .309.711 1 1 0 0 1-.147.508 1.06 1.06 0 0 1-.37.369.94.94 0 0 1-.498.139M65.136 139h-3.203v-9.455H65.2q1.408 0 2.419.568a3.8 3.8 0 0 1 1.56 1.621q.546 1.057.545 2.529 0 1.478-.55 2.54a3.8 3.8 0 0 1-1.573 1.629q-1.025.568-2.466.568m-1.49-1.482h1.407q.988 0 1.648-.36.66-.365.993-1.085.332-.724.332-1.81 0-1.085-.332-1.8a2.27 2.27 0 0 0-.983-1.076q-.647-.36-1.607-.36h-1.459zm10.772 1.62q-1.067 0-1.842-.443a3 3 0 0 1-1.187-1.265q-.415-.82-.415-1.934 0-1.094.415-1.92.42-.831 1.173-1.293.753-.466 1.768-.466.656 0 1.237.212.587.208 1.034.646.453.439.711 1.118.26.673.259 1.606v.513h-5.812v-1.127h4.21a1.8 1.8 0 0 0-.208-.854 1.5 1.5 0 0 0-.568-.595 1.6 1.6 0 0 0-.84-.217 1.63 1.63 0 0 0-.9.249q-.388.244-.605.646a1.86 1.86 0 0 0-.217.873v.983q0 .618.226 1.062.227.438.633.674.406.231.95.231.366 0 .661-.102.296-.107.513-.309.216-.203.327-.503l1.56.175a2.43 2.43 0 0 1-.563 1.08 2.74 2.74 0 0 1-1.052.711q-.642.249-1.468.249M80.41 139l-2.004-7.091h1.704l1.246 4.986h.065l1.274-4.986h1.685l1.274 4.958h.07l1.227-4.958h1.709L86.652 139H84.91l-1.33-4.792h-.096L82.155 139zm12.715 0v-9.455h3.545q1.09 0 1.829.407.743.406 1.121 1.117.384.706.383 1.606 0 .91-.383 1.616a2.74 2.74 0 0 1-1.13 1.113q-.749.401-1.843.401h-2.35v-1.408h2.12q.636 0 1.043-.221.405-.222.6-.61.198-.387.198-.891a1.9 1.9 0 0 0-.198-.886 1.35 1.35 0 0 0-.605-.595q-.405-.217-1.048-.217h-1.57V139zm11.284.138q-1.04 0-1.801-.457a3.1 3.1 0 0 1-1.182-1.278q-.414-.822-.415-1.921 0-1.098.415-1.925a3.1 3.1 0 0 1 1.182-1.283q.762-.457 1.801-.457t1.8.457q.762.456 1.177 1.283.42.827.42 1.925 0 1.1-.42 1.921a3.06 3.06 0 0 1-1.177 1.278q-.762.457-1.8.457m.009-1.338q.563 0 .942-.31.378-.313.563-.84a3.5 3.5 0 0 0 .189-1.172 3.5 3.5 0 0 0-.189-1.178 1.86 1.86 0 0 0-.563-.844q-.38-.315-.942-.314-.578 0-.96.314-.38.313-.568.844a3.6 3.6 0 0 0-.185 1.178q0 .645.185 1.172.189.527.568.84.382.31.96.31m4.807 1.2v-7.091h1.671V139zm.84-8.097a.98.98 0 0 1-.683-.263.85.85 0 0 1-.286-.642.84.84 0 0 1 .286-.642.97.97 0 0 1 .683-.268q.402 0 .683.268.287.264.287.642a.85.85 0 0 1-.287.642.96.96 0 0 1-.683.263m4.221 3.942V139h-1.671v-7.091h1.597v1.205h.083q.245-.595.78-.946.54-.351 1.334-.351.735 0 1.279.314.549.314.849.909.306.596.301 1.445V139h-1.672v-4.256q0-.711-.369-1.113-.364-.402-1.011-.402-.438 0-.78.194-.337.19-.531.55-.189.36-.189.872m9.791-2.936v1.293h-4.076v-1.293zm-3.07-1.699h1.671v6.657q0 .337.102.517a.55.55 0 0 0 .277.24q.17.065.379.065.156 0 .286-.023.134-.023.203-.042l.281 1.307a4 4 0 0 1-.383.101 3 3 0 0 1-.6.065 2.7 2.7 0 0 1-1.131-.189 1.76 1.76 0 0 1-.798-.656q-.291-.443-.287-1.108z"/><rect width="179" height="55" x="314.5" y="98.5" fill="#1d3739" rx="9.5"/><rect width="179" height="55" x="314.5" y="98.5" stroke="#3fd9d1" rx="9.5"/><rect width="30" height="30" x="326" y="111" fill="#3fd9d1" rx="4"/><path fill="#17181c" d="M348.603 125.352a.916.916 0 1 1 1.296 1.296l-2.102 2.102 2.102 2.102a.916.916 0 1 1-1.296 1.296l-2.102-2.102-2.102 2.102a.916.916 0 1 1-1.296-1.296l2.101-2.102-2.101-2.102a.916.916 0 1 1 1.296-1.296l2.102 2.102zm-7.602-5.769a.917.917 0 0 0-.917-.916c-.074 0-.159.004-.307.23-.179.273-.351.741-.518 1.465-.164.708-.303 1.563-.461 2.559-.107.671-.223 1.398-.359 2.162h1.645a.918.918 0 0 1 0 1.834h-1.991c-.158.857-.289 1.677-.413 2.45-.156.98-.304 1.901-.484 2.683-.176.765-.405 1.5-.771 2.058-.396.604-.999 1.059-1.841 1.059a2.75 2.75 0 0 1-2.75-2.75.916.916 0 1 1 1.833 0 .917.917 0 0 0 .917.916c.074 0 .159-.004.307-.23.179-.273.351-.741.518-1.465.164-.708.303-1.563.461-2.56.107-.67.223-1.397.359-2.161h-1.645a.918.918 0 0 1 0-1.834h1.991c.158-.857.289-1.677.413-2.45.156-.98.304-1.901.484-2.683.176-.765.405-1.5.771-2.058.396-.604.999-1.059 1.841-1.059a2.75 2.75 0 0 1 2.75 2.75.916.916 0 1 1-1.833 0"/><path fill="#fff" d="M370.025 116.735h-1.726a2.2 2.2 0 0 0-.273-.752 2 2 0 0 0-1.168-.909 2.6 2.6 0 0 0-.808-.121q-.77 0-1.366.388-.596.384-.933 1.127-.337.738-.337 1.805 0 1.084.337 1.828.342.738.933 1.117a2.5 2.5 0 0 0 1.362.374q.425 0 .794-.111a2.2 2.2 0 0 0 .669-.337q.3-.221.503-.545.208-.323.287-.738l1.726.009a3.7 3.7 0 0 1-.42 1.265 3.7 3.7 0 0 1-.835 1.043 3.8 3.8 0 0 1-1.21.702 4.5 4.5 0 0 1-1.537.249q-1.247 0-2.225-.577-.98-.577-1.542-1.666-.564-1.09-.564-2.613 0-1.529.568-2.613.568-1.09 1.547-1.667.978-.576 2.216-.577a4.7 4.7 0 0 1 1.468.222q.678.221 1.209.651.531.425.873 1.043.346.614.452 1.403m3.535 6.408a3 3 0 0 1-1.214-.24 2 2 0 0 1-.849-.72q-.31-.475-.31-1.173 0-.6.222-.992.221-.393.605-.628.383-.236.863-.356a7 7 0 0 1 1.002-.18q.622-.064 1.011-.115.387-.055.563-.166.18-.116.18-.356v-.027q0-.522-.309-.808t-.891-.286q-.615 0-.974.267-.356.269-.48.633l-1.561-.222a2.5 2.5 0 0 1 .61-1.08 2.66 2.66 0 0 1 1.038-.656q.615-.22 1.358-.221.512 0 1.02.12.507.12.928.397.42.272.674.743.258.47.258 1.177V123h-1.606v-.974h-.056a2.02 2.02 0 0 1-1.117.965 2.8 2.8 0 0 1-.965.152m.434-1.228q.504 0 .873-.198.369-.203.568-.536.203-.332.203-.725v-.835a.8.8 0 0 1-.268.12 4 4 0 0 1-.416.097q-.23.04-.457.074l-.392.055a3 3 0 0 0-.669.166 1.1 1.1 0 0 0-.467.323.8.8 0 0 0-.17.527q0 .461.337.697.336.235.858.235m6.662-8.37V123h-1.671v-9.455zm4.811 9.593q-1.062 0-1.823-.466a3.1 3.1 0 0 1-1.168-1.288q-.406-.826-.406-1.902 0-1.08.415-1.906a3.1 3.1 0 0 1 1.173-1.293q.761-.466 1.8-.466.864 0 1.528.318.67.315 1.067.891.396.573.452 1.339h-1.597a1.53 1.53 0 0 0-.462-.854q-.36-.346-.965-.346-.512 0-.9.277-.388.272-.605.785-.212.512-.212 1.228 0 .724.212 1.246.212.517.596.799.387.277.909.277.369 0 .66-.139.296-.142.494-.411.199-.267.273-.651h1.597q-.06.753-.443 1.335a2.6 2.6 0 0 1-1.044.904q-.66.323-1.551.323m8.93-3.12v-4.109h1.671V123h-1.62v-1.26h-.074q-.24.595-.79.974-.545.378-1.343.378-.697 0-1.233-.309a2.15 2.15 0 0 1-.831-.909q-.3-.601-.3-1.45v-4.515h1.671v4.256q0 .675.37 1.072.369.397.969.397.37 0 .716-.181.346-.18.568-.535.226-.36.226-.9m5.061-6.473V123h-1.672v-9.455zm3.759 9.598q-.675 0-1.215-.24a2 2 0 0 1-.849-.72q-.309-.475-.309-1.173 0-.6.221-.992.222-.393.605-.628.383-.236.863-.356a7 7 0 0 1 1.002-.18 38 38 0 0 0 1.011-.115q.388-.055.563-.166.18-.116.18-.356v-.027q0-.522-.309-.808t-.891-.286q-.614 0-.974.267-.356.269-.48.633l-1.561-.222a2.5 2.5 0 0 1 .61-1.08 2.66 2.66 0 0 1 1.039-.656 4 4 0 0 1 1.357-.221q.512 0 1.02.12t.928.397q.42.272.674.743.258.47.258 1.177V123h-1.606v-.974h-.055a2 2 0 0 1-.43.554 2.1 2.1 0 0 1-.688.411 2.8 2.8 0 0 1-.964.152m.433-1.228q.504 0 .873-.198.369-.203.568-.536.203-.332.203-.725v-.835a.8.8 0 0 1-.268.12 4 4 0 0 1-.415.097q-.231.04-.457.074l-.393.055a3 3 0 0 0-.669.166 1.1 1.1 0 0 0-.466.323.8.8 0 0 0-.171.527q0 .461.337.697t.858.235m8.532-6.006v1.293h-4.077v-1.293zm-3.07-1.699h1.671v6.657q0 .337.101.517a.55.55 0 0 0 .277.24q.171.065.379.065.157 0 .286-.023.135-.023.203-.042l.282 1.307a4 4 0 0 1-.383.101 3 3 0 0 1-.6.065 2.7 2.7 0 0 1-1.131-.189 1.76 1.76 0 0 1-.799-.656q-.29-.443-.286-1.108zm7.53 8.928q-1.067 0-1.842-.443a3 3 0 0 1-1.186-1.265q-.415-.82-.415-1.934 0-1.093.415-1.92.42-.831 1.173-1.293.752-.466 1.768-.466.655 0 1.237.212a2.8 2.8 0 0 1 1.034.646q.453.439.711 1.118.258.673.258 1.606v.513h-5.812v-1.127h4.211a1.8 1.8 0 0 0-.208-.854 1.5 1.5 0 0 0-.568-.595 1.6 1.6 0 0 0-.84-.217q-.513 0-.9.249a1.7 1.7 0 0 0-.605.646 1.86 1.86 0 0 0-.217.873v.983q0 .618.226 1.062.227.438.632.674.406.231.951.231.366 0 .661-.102.295-.106.512-.309a1.3 1.3 0 0 0 .328-.503l1.56.175a2.4 2.4 0 0 1-.563 1.08 2.74 2.74 0 0 1-1.053.711q-.641.249-1.468.249m7.199-.013a2.7 2.7 0 0 1-1.496-.43q-.66-.429-1.043-1.246-.384-.818-.384-1.985 0-1.182.388-1.995.393-.816 1.057-1.232.666-.42 1.482-.42.624 0 1.025.212.402.208.637.503.236.29.365.55h.069v-3.537h1.676V123h-1.644v-1.117h-.101a3 3 0 0 1-.374.549 2.1 2.1 0 0 1-.646.49q-.402.203-1.011.203m.466-1.371q.53 0 .905-.287.373-.29.568-.808.193-.516.193-1.204 0-.689-.193-1.196a1.7 1.7 0 0 0-.564-.79q-.369-.28-.909-.281-.558 0-.933.291a1.76 1.76 0 0 0-.563.803 3.4 3.4 0 0 0-.189 1.173q0 .664.189 1.186.194.517.568.817.379.296.928.296m8.389 1.246v-9.455h6.057v1.436h-4.344v2.567h3.929v1.436h-3.929V123zm7.544 0v-7.091h1.671V123zm.84-8.097a.98.98 0 0 1-.684-.263.85.85 0 0 1-.286-.642q0-.378.286-.642a.97.97 0 0 1 .684-.268q.4 0 .683.268a.84.84 0 0 1 .286.642.85.85 0 0 1-.286.642.97.97 0 0 1-.683.263m5.688 8.235q-1.067 0-1.842-.443a3 3 0 0 1-1.186-1.265q-.416-.82-.416-1.934 0-1.093.416-1.92.42-.831 1.173-1.293.752-.466 1.768-.466.655 0 1.237.212a2.8 2.8 0 0 1 1.034.646q.453.439.711 1.118.258.673.258 1.606v.513h-5.812v-1.127h4.211a1.8 1.8 0 0 0-.208-.854 1.5 1.5 0 0 0-.568-.595 1.6 1.6 0 0 0-.84-.217q-.513 0-.9.249a1.7 1.7 0 0 0-.605.646 1.86 1.86 0 0 0-.217.873v.983q0 .618.226 1.062.227.438.632.674.407.231.951.231.366 0 .661-.102.295-.106.512-.309a1.3 1.3 0 0 0 .328-.503l1.56.175a2.4 2.4 0 0 1-.563 1.08 2.74 2.74 0 0 1-1.053.711q-.641.249-1.468.249m6.238-9.593V123h-1.671v-9.455zm4.35 9.58a2.68 2.68 0 0 1-1.495-.43q-.66-.429-1.044-1.246-.383-.818-.383-1.985 0-1.182.388-1.995.392-.816 1.057-1.232.664-.42 1.482-.42.623 0 1.025.212.401.208.637.503.235.29.365.55h.069v-3.537h1.676V123h-1.644v-1.117h-.101a3 3 0 0 1-.374.549 2.1 2.1 0 0 1-.647.49q-.4.203-1.011.203m.467-1.371q.53 0 .904-.287.375-.29.568-.808.194-.516.194-1.204 0-.689-.194-1.196a1.7 1.7 0 0 0-.563-.79q-.369-.28-.909-.281-.56 0-.933.291a1.76 1.76 0 0 0-.563.803 3.4 3.4 0 0 0-.189 1.173q0 .664.189 1.186.193.517.568.817.378.296.928.296m8.389 1.246v-9.455h3.619q1.024 0 1.704.324.683.318 1.02.872.342.554.341 1.256 0 .577-.221.988a1.86 1.86 0 0 1-.596.66 2.5 2.5 0 0 1-.835.365v.092q.503.027.965.309.465.277.761.785t.296 1.228q0 .734-.356 1.32-.356.582-1.071.919t-1.8.337zm1.713-1.431h1.842q.932 0 1.343-.356.415-.36.415-.923 0-.42-.207-.757a1.43 1.43 0 0 0-.591-.535 1.96 1.96 0 0 0-.914-.199h-1.888zm0-4.003h1.694q.442 0 .798-.161.356-.166.559-.466.208-.306.208-.721a1.17 1.17 0 0 0-.388-.904q-.383-.356-1.14-.356h-1.731zm7.786 4.298a1 1 0 0 1-.72-.295.97.97 0 0 1-.295-.72.95.95 0 0 1 .295-.711 1 1 0 0 1 .72-.296q.407 0 .707.296a.97.97 0 0 1 .161 1.223 1.05 1.05 0 0 1-.369.369.96.96 0 0 1-.499.134m0-4.685a1 1 0 0 1-.72-.296.97.97 0 0 1-.295-.72.95.95 0 0 1 .295-.711q.3-.3.72-.3.407 0 .707.3a.97.97 0 0 1 .309.711.97.97 0 0 1-.148.508 1.05 1.05 0 0 1-.369.369.94.94 0 0 1-.499.139m-114.194 13.802v-1.436h7.543v1.436h-2.922V139h-1.699v-8.019zm10.595 3.864V139h-1.671v-9.455h1.634v3.569h.083q.249-.6.771-.946.526-.351 1.339-.351.738 0 1.288.309.549.31.849.905.305.596.305 1.454V139h-1.671v-4.256q0-.715-.37-1.113-.364-.402-1.024-.402a1.6 1.6 0 0 0-.795.194 1.36 1.36 0 0 0-.544.55q-.195.36-.194.872m6.301 4.155v-7.091h1.621v1.182h.074q.193-.614.664-.946a1.83 1.83 0 0 1 1.085-.337q.14 0 .31.013.174.01.29.033v1.537a1.8 1.8 0 0 0-.337-.065 3 3 0 0 0-.438-.032q-.457 0-.822.199-.36.193-.568.54-.207.346-.207.798V139zm8.002.138q-1.067 0-1.842-.443a3 3 0 0 1-1.187-1.265q-.415-.82-.415-1.934 0-1.094.415-1.92a3.15 3.15 0 0 1 1.173-1.293q.753-.466 1.768-.466.656 0 1.237.212.587.208 1.034.646.453.439.711 1.118.26.673.259 1.606v.513h-5.812v-1.127h4.21a1.8 1.8 0 0 0-.208-.854 1.5 1.5 0 0 0-.568-.595 1.6 1.6 0 0 0-.84-.217q-.512 0-.9.249-.388.244-.605.646a1.9 1.9 0 0 0-.217.873v.983q0 .618.226 1.062.227.438.633.674.406.231.951.231.365 0 .66-.102a1.5 1.5 0 0 0 .513-.309 1.3 1.3 0 0 0 .327-.503l1.561.175a2.44 2.44 0 0 1-.564 1.08 2.7 2.7 0 0 1-1.052.711q-.642.249-1.468.249m10.171-5.355-1.523.167a1.2 1.2 0 0 0-.227-.434 1.1 1.1 0 0 0-.424-.328 1.55 1.55 0 0 0-.656-.125q-.522 0-.877.226-.35.227-.346.587a.61.61 0 0 0 .226.503q.236.194.776.318l1.209.259q1.007.217 1.496.688.493.471.498 1.232a1.92 1.92 0 0 1-.392 1.182q-.383.508-1.066.794-.684.286-1.57.286-1.302 0-2.096-.544-.794-.55-.946-1.528l1.629-.157q.111.48.471.725.36.244.937.244.596 0 .956-.244.365-.246.365-.605a.63.63 0 0 0-.236-.503q-.231-.199-.72-.305l-1.209-.254q-1.021-.212-1.51-.716-.49-.507-.485-1.283a1.82 1.82 0 0 1 .356-1.136q.365-.485 1.011-.747.651-.268 1.5-.268 1.247 0 1.962.531.72.53.891 1.435m3.202 1.062V139h-1.672v-9.455h1.635v3.569h.083q.249-.6.771-.946.526-.351 1.339-.351.738 0 1.288.309.549.31.849.905.305.596.305 1.454V139h-1.672v-4.256q0-.715-.369-1.113-.365-.402-1.025-.402-.443 0-.794.194-.346.19-.544.55-.195.36-.194.872m9.394 4.293q-1.038 0-1.8-.457a3.1 3.1 0 0 1-1.182-1.278q-.416-.822-.416-1.921 0-1.098.416-1.925a3.1 3.1 0 0 1 1.182-1.283q.762-.457 1.8-.457 1.04 0 1.801.457.761.456 1.177 1.283.42.827.42 1.925 0 1.1-.42 1.921a3.07 3.07 0 0 1-1.177 1.278q-.762.457-1.801.457m.009-1.338q.564 0 .942-.31.379-.313.563-.84.19-.527.19-1.172 0-.651-.19-1.178a1.85 1.85 0 0 0-.563-.844q-.378-.315-.942-.314-.576 0-.96.314a1.9 1.9 0 0 0-.568.844 3.6 3.6 0 0 0-.184 1.178q0 .645.184 1.172.19.527.568.84.384.31.96.31m6.478-8.255V139h-1.671v-9.455zm4.35 9.58a2.68 2.68 0 0 1-1.495-.43q-.66-.429-1.044-1.246-.383-.818-.383-1.985 0-1.182.388-1.995.393-.816 1.057-1.232.665-.42 1.482-.42.623 0 1.025.212.402.208.637.503.235.29.365.55h.069v-3.537h1.676V139h-1.644v-1.117h-.101a3 3 0 0 1-.374.549 2.1 2.1 0 0 1-.647.49q-.4.203-1.011.203m.467-1.371q.53 0 .904-.287.375-.29.568-.808.195-.517.194-1.204 0-.689-.194-1.196a1.7 1.7 0 0 0-.563-.79q-.369-.28-.909-.281-.56 0-.933.291a1.76 1.76 0 0 0-.563.803 3.4 3.4 0 0 0-.189 1.173q0 .664.189 1.186.193.517.568.817.378.296.928.296"/><rect width="4" height="4" x="630" y="124" fill="#888c96" rx="2"/><rect width="4" height="4" x="638" y="124" fill="#888c96" rx="2"/><rect width="4" height="4" x="646" y="124" fill="#888c96" rx="2"/><path fill="#3fd9d1" d="M497.25 125.25a.75.75 0 0 0 0 1.5v-1.5m22.918 1.5a.75.75 0 0 0 0-1.5v1.5m65.875-1.5a.75.75 0 0 0 0 1.5v-1.5m25.237 1.28a.75.75 0 0 0 0-1.06l-4.773-4.773a.749.749 0 1 0-1.06 1.06l4.242 4.243-4.242 4.243a.749.749 0 1 0 1.06 1.06zM497.25 126v.75h22.918v-1.5H497.25zm88.793 0v.75h24.707v-1.5h-24.707z"/><path fill="#edeef3" d="M527.733 130h-1.397l3.14-8.727h1.522l3.14 8.727h-1.398l-2.467-7.142h-.068zm.235-3.418h4.534v1.108h-4.534zm8.47-5.309V130h-1.274v-8.727zm4.404 8.859q-.968 0-1.667-.413a2.8 2.8 0 0 1-1.074-1.172q-.375-.759-.375-1.777 0-1.006.375-1.773a2.9 2.9 0 0 1 1.057-1.197q.682-.43 1.594-.431.553 0 1.074.184.52.183.933.575t.652 1.018q.239.622.239 1.513v.452h-5.203v-.955h3.954q0-.503-.204-.89a1.54 1.54 0 0 0-.576-.618 1.6 1.6 0 0 0-.86-.226q-.537 0-.938.264a1.8 1.8 0 0 0-.614.682 2 2 0 0 0-.213.908v.745q0 .657.23 1.117.235.46.652.703.418.239.976.239.363 0 .661-.103.299-.107.515-.315a1.4 1.4 0 0 0 .333-.516l1.206.218q-.145.532-.52.933-.37.396-.933.618a3.5 3.5 0 0 1-1.274.217m4.089-.132v-6.545h1.232v1.039h.068q.18-.528.631-.831a1.8 1.8 0 0 1 1.031-.306 5 5 0 0 1 .541.029v1.219a2 2 0 0 0-.272-.047 2.6 2.6 0 0 0-.392-.03q-.452 0-.806.192-.349.188-.554.524a1.4 1.4 0 0 0-.204.759V130zm7.916-6.545v1.022h-3.575v-1.022zm-2.616-1.569h1.274v6.192q0 .37.111.558a.57.57 0 0 0 .285.252q.179.064.388.064.153 0 .268-.022l.179-.034.23 1.053a2.523 2.523 0 0 1-.826.136 2.2 2.2 0 0 1-.938-.179 1.6 1.6 0 0 1-.703-.579q-.268-.393-.268-.985zm7.04 8.114v-8.727h5.412v1.133h-4.096v2.659h3.708v1.13h-3.708V130zm8.071-8.727V130h-1.274v-8.727zm3.487 8.872q-.622 0-1.125-.23a1.9 1.9 0 0 1-.797-.678q-.29-.442-.29-1.086 0-.555.213-.912.213-.359.575-.567.363-.209.81-.315t.912-.162l.955-.111q.366-.047.532-.149.166-.103.166-.333v-.03q0-.558-.315-.865-.31-.306-.929-.306-.644 0-1.014.285-.367.281-.507.626l-1.198-.272q.214-.597.622-.963.414-.37.951-.537a3.7 3.7 0 0 1 1.129-.171q.391 0 .831.094.443.09.827.332.387.243.635.695.246.447.247 1.163V130h-1.245v-.895h-.051a1.8 1.8 0 0 1-.37.486 2 2 0 0 1-.635.396 2.5 2.5 0 0 1-.929.158m.277-1.023q.528 0 .903-.209.38-.209.575-.545a1.4 1.4 0 0 0 .201-.729v-.844a.65.65 0 0 1-.265.128q-.191.056-.438.098l-.482.073-.392.051a3 3 0 0 0-.678.158q-.302.11-.485.319-.18.205-.179.546 0 .473.349.716.35.238.891.238m7.262 3.469q-.78 0-1.342-.205a2.6 2.6 0 0 1-.912-.541 2.3 2.3 0 0 1-.528-.737l1.095-.452q.115.187.306.397.196.212.529.362.337.149.865.149.724 0 1.197-.354.474-.35.473-1.116v-1.287h-.081a3 3 0 0 1-.332.464 1.8 1.8 0 0 1-.588.443q-.375.188-.976.188-.775 0-1.398-.362-.618-.367-.98-1.078-.358-.716-.358-1.76t.354-1.79q.358-.746.98-1.142a2.55 2.55 0 0 1 1.411-.401q.609 0 .984.205.375.2.584.469.213.268.328.473h.094v-1.061h1.248v6.69q0 .843-.392 1.385a2.3 2.3 0 0 1-1.061.801q-.664.26-1.5.26m-.013-3.746q.55 0 .929-.256a1.6 1.6 0 0 0 .58-.741q.2-.486.2-1.163 0-.66-.196-1.164a1.73 1.73 0 0 0-.575-.784q-.379-.285-.938-.285-.575 0-.958.298a1.8 1.8 0 0 0-.58.801 3.2 3.2 0 0 0-.192 1.134q0 .643.196 1.129t.58.758q.388.273.954.273"/><path fill="#eebd53" d="M104.75 53.25a.75.75 0 0 0-1.5 0h1.5m-1.28 42.03a.75.75 0 0 0 1.06 0l4.773-4.773a.75.75 0 0 0-1.06-1.06L104 93.689l-4.243-4.242a.75.75 0 0 0-1.06 1.06zm.53-42.03h-.75v41.5h1.5v-41.5z"/><path fill="#3369ff" d="M197.25 125.25a.75.75 0 0 0 0 1.5v-1.5m23.918 1.5a.75.75 0 0 0 0-1.5v1.5m63.875-1.5a.75.75 0 0 0 0 1.5v-1.5m26.237 1.28a.75.75 0 0 0 0-1.06l-4.773-4.773a.749.749 0 1 0-1.06 1.06l4.242 4.243-4.242 4.243a.749.749 0 1 0 1.06 1.06zM197.25 126v.75h23.918v-1.5H197.25zm87.793 0v.75h25.707v-1.5h-25.707z"/><path fill="#edeef3" d="M229.927 130.128q-.792 0-1.415-.405-.618-.41-.971-1.163-.35-.76-.35-1.82t.354-1.815q.358-.755.98-1.155a2.55 2.55 0 0 1 1.411-.401q.609 0 .98.205.375.2.579.469.209.268.324.473h.077v-3.243h1.274V130h-1.244v-1.018h-.107a3.4 3.4 0 0 1-.332.477 1.9 1.9 0 0 1-.588.469q-.375.2-.972.2m.281-1.087q.55 0 .929-.29.384-.294.58-.813.2-.52.2-1.211 0-.681-.196-1.193a1.76 1.76 0 0 0-.575-.797q-.38-.285-.938-.285-.575 0-.959.298a1.83 1.83 0 0 0-.579.814 3.3 3.3 0 0 0-.192 1.163q0 .656.196 1.181.196.523.58.831.387.302.954.302m7.469 1.091q-.966 0-1.666-.413a2.8 2.8 0 0 1-1.074-1.172q-.375-.759-.375-1.777 0-1.006.375-1.773a2.9 2.9 0 0 1 1.057-1.197q.682-.43 1.594-.431.553 0 1.074.184.52.183.933.575t.652 1.018q.239.622.239 1.513v.452h-5.203v-.955h3.954q0-.503-.204-.89a1.55 1.55 0 0 0-.576-.618 1.6 1.6 0 0 0-.86-.226q-.537 0-.938.264a1.8 1.8 0 0 0-.614.682 2 2 0 0 0-.213.908v.745q0 .657.23 1.117.235.46.652.703.418.239.976.239.363 0 .661-.103.299-.107.515-.315a1.4 1.4 0 0 0 .333-.516l1.206.218q-.145.532-.52.933-.37.396-.933.618a3.5 3.5 0 0 1-1.275.217m5.498-.132-1.926-6.545h1.316l1.283 4.806h.064l1.287-4.806h1.317l1.278 4.785h.064l1.274-4.785h1.317L248.527 130h-1.3l-1.329-4.726h-.098L244.47 130zm8.453 0v-8.727h3.111q1.019 0 1.688.37.668.372 1.001 1.015.332.639.332 1.44 0 .806-.336 1.449a2.44 2.44 0 0 1-1.006 1.014q-.669.37-1.683.371h-2.139v-1.117h2.02q.643 0 1.044-.221.4-.226.588-.614.187-.387.187-.882t-.187-.878a1.35 1.35 0 0 0-.593-.601q-.4-.217-1.057-.217h-1.653V130zm10.117.132q-.92 0-1.607-.422a2.84 2.84 0 0 1-1.065-1.18q-.38-.759-.379-1.773 0-1.019.379-1.781a2.84 2.84 0 0 1 1.065-1.185q.687-.422 1.607-.422t1.606.422q.687.422 1.066 1.185.38.762.379 1.781 0 1.014-.379 1.773a2.84 2.84 0 0 1-1.066 1.18q-.685.422-1.606.422m.004-1.07q.596 0 .989-.315.392-.315.579-.839a3.3 3.3 0 0 0 .192-1.155q0-.627-.192-1.151a1.9 1.9 0 0 0-.579-.848q-.392-.32-.989-.319-.6 0-.997.319a1.9 1.9 0 0 0-.584.848q-.187.524-.187 1.151 0 .63.187 1.155.192.524.584.839.397.315.997.315m4.337.938v-6.545h1.274V130zm.644-7.555a.8.8 0 0 1-.571-.222.72.72 0 0 1-.235-.537.7.7 0 0 1 .235-.537.8.8 0 0 1 .571-.226q.332 0 .566.226.24.222.239.537a.71.71 0 0 1-.239.537.8.8 0 0 1-.566.222m3.487 3.669V130h-1.274v-6.545h1.223v1.065h.081q.225-.52.707-.835.486-.316 1.223-.316.67 0 1.172.282.503.276.78.826t.277 1.36V130h-1.275v-4.01q0-.711-.37-1.112-.37-.405-1.019-.405-.443 0-.788.192a1.4 1.4 0 0 0-.541.562q-.196.367-.196.887m8.821-2.659v1.022h-3.575v-1.022zm-2.617-1.569h1.274v6.192q0 .37.111.558a.58.58 0 0 0 .286.252q.178.064.388.064.153 0 .268-.022l.179-.034.23 1.053a2.534 2.534 0 0 1-.827.136 2.2 2.2 0 0 1-.937-.179 1.6 1.6 0 0 1-.703-.579q-.269-.393-.269-.985z"/><path fill="#c1c3c8" d="M14.695 185v-8h1.692v6.605h3.43V185zm8.8.117q-.91 0-1.574-.387-.66-.39-1.02-1.085-.36-.7-.359-1.622 0-.929.36-1.625.359-.699 1.019-1.086.664-.39 1.574-.39t1.57.39q.664.387 1.024 1.086.36.696.36 1.625 0 .922-.36 1.622-.36.695-1.023 1.085-.66.387-1.57.387m.008-1.289q.414 0 .691-.234.278-.238.418-.649.145-.41.145-.933t-.145-.934a1.46 1.46 0 0 0-.418-.648 1.02 1.02 0 0 0-.691-.239q-.418 0-.703.239-.282.238-.426.648-.14.41-.14.934 0 .523.14.933.145.41.426.649.285.234.703.234m6.617 1.289q-.91 0-1.574-.387-.66-.39-1.02-1.085-.359-.7-.359-1.622 0-.929.36-1.625.36-.699 1.02-1.086.663-.39 1.573-.39t1.57.39q.664.387 1.024 1.086.36.696.36 1.625 0 .922-.36 1.622-.36.695-1.023 1.085-.66.387-1.57.387m.008-1.289q.414 0 .692-.234.277-.238.418-.649.144-.41.144-.933t-.145-.934a1.46 1.46 0 0 0-.417-.648 1.02 1.02 0 0 0-.692-.239q-.418 0-.703.239-.281.238-.426.648-.14.41-.14.934 0 .523.14.933.146.41.426.649.285.234.703.234m3.907 3.422V179h1.64v1.008h.074q.11-.243.317-.492.21-.254.547-.422.339-.172.843-.172.657 0 1.211.344.555.34.887 1.027.332.683.332 1.715 0 1.004-.324 1.695-.32.687-.875 1.043a2.25 2.25 0 0 1-1.235.352q-.483 0-.824-.161a1.7 1.7 0 0 1-.55-.402 2 2 0 0 1-.329-.496h-.05v3.211zm1.628-5.25q0 .535.149.934.148.398.43.621.28.218.683.218.406 0 .688-.222.28-.227.425-.625.15-.402.149-.926 0-.52-.145-.914a1.36 1.36 0 0 0-.425-.617 1.08 1.08 0 0 0-.692-.223q-.406 0-.687.215a1.35 1.35 0 0 0-.426.609 2.6 2.6 0 0 0-.149.93m10.34 5.375q-.81 0-1.387-.223a2.3 2.3 0 0 1-.914-.597 1.84 1.84 0 0 1-.442-.852l1.54-.207q.069.18.222.336t.402.25q.254.098.617.098.543 0 .895-.266.355-.261.355-.879v-1.098h-.07a1.6 1.6 0 0 1-.328.473q-.219.224-.562.363-.345.141-.82.141-.676 0-1.231-.312-.55-.317-.88-.965-.323-.653-.323-1.649 0-1.019.332-1.703.331-.684.883-1.023.555-.34 1.214-.34.504 0 .844.172.34.168.547.422.21.249.324.492h.063V179h1.652v6.059q0 .765-.375 1.281t-1.039.773q-.66.262-1.52.262m.035-3.711q.401 0 .68-.199.28-.203.429-.578.152-.38.152-.907t-.148-.914a1.34 1.34 0 0 0-.43-.605 1.1 1.1 0 0 0-.683-.215q-.41 0-.692.223-.281.219-.426.609a2.6 2.6 0 0 0-.144.902q0 .52.144.899.15.375.426.582.282.203.692.203m7.949-1.219V179h1.664v6h-1.598v-1.09h-.062q-.203.528-.676.848-.468.32-1.145.32-.6 0-1.058-.273a1.9 1.9 0 0 1-.715-.778q-.254-.504-.258-1.207V179h1.664v3.523q.004.532.286.84.28.309.753.309.3 0 .563-.137.261-.141.422-.414.165-.273.16-.676m4.585 2.668q-.574 0-1.024-.199a1.65 1.65 0 0 1-.71-.598q-.258-.398-.258-.992 0-.5.183-.84.185-.339.5-.547.316-.207.72-.312.406-.106.85-.148.524-.055.844-.102.321-.05.465-.148a.33.33 0 0 0 .145-.29v-.023q0-.371-.235-.574-.23-.203-.656-.203-.45 0-.715.199a.9.9 0 0 0-.351.492l-1.54-.125a2.1 2.1 0 0 1 .462-.945q.343-.402.886-.617a3.4 3.4 0 0 1 1.266-.219q.5 0 .957.117.461.117.816.363.36.246.567.633.207.383.207.918V185h-1.578v-.832h-.047a1.7 1.7 0 0 1-.387.496 1.8 1.8 0 0 1-.582.332 2.4 2.4 0 0 1-.785.117m.476-1.148q.367 0 .649-.145.281-.148.441-.398a1.03 1.03 0 0 0 .16-.567v-.636a.9.9 0 0 1-.214.093 4 4 0 0 1-.301.075q-.168.031-.336.058l-.305.043a2 2 0 0 0-.512.137.8.8 0 0 0-.34.254.62.62 0 0 0-.12.391q0 .339.246.519.249.176.633.176M63.122 185v-6h1.613v1.047h.063q.164-.56.55-.844.387-.29.891-.289a2.4 2.4 0 0 1 .523.059v1.476a2 2 0 0 0-.324-.062 3 3 0 0 0-.379-.028 1.33 1.33 0 0 0-.656.161 1.2 1.2 0 0 0-.453.437q-.165.282-.164.648V185zm6.312.098q-.684 0-1.239-.352-.55-.356-.875-1.043-.32-.692-.32-1.695 0-1.031.332-1.715.332-.687.883-1.027.555-.345 1.215-.344.502 0 .84.172.339.168.546.422.211.249.32.492h.051V177h1.66v8h-1.64v-.961h-.07a2.1 2.1 0 0 1-.332.496q-.212.243-.551.402a1.9 1.9 0 0 1-.82.161m.527-1.325q.402 0 .68-.218.28-.224.43-.621a2.6 2.6 0 0 0 .152-.934q0-.536-.149-.93a1.33 1.33 0 0 0-.43-.609 1.1 1.1 0 0 0-.683-.215q-.41 0-.692.223a1.36 1.36 0 0 0-.425.617 2.7 2.7 0 0 0-.145.914q0 .524.145.926.148.398.425.625.282.222.692.222m5.106 1.329a.91.91 0 0 1-.664-.274.91.91 0 0 1-.273-.664q0-.383.273-.656a.91.91 0 0 1 .664-.274q.376 0 .657.274a.88.88 0 0 1 .28.656.9.9 0 0 1-.132.473q-.13.21-.34.34a.9.9 0 0 1-.465.125m0-4.204a.91.91 0 0 1-.664-.273.9.9 0 0 1-.273-.664.88.88 0 0 1 .273-.652.9.9 0 0 1 .664-.274.9.9 0 0 1 .657.274.87.87 0 0 1 .28.652.9.9 0 0 1-.132.476 1 1 0 0 1-.34.336.9.9 0 0 1-.465.125M80.16 185v-6h1.168v6zm.59-6.926a.74.74 0 0 1-.523-.203.66.66 0 0 1-.215-.492q0-.29.215-.492a.74.74 0 0 1 .523-.207q.304 0 .52.207a.65.65 0 0 1 .218.492q0 .285-.218.492a.73.73 0 0 1-.52.203m4.884.926v.937h-3.39V179zm-2.46 6v-6.695q0-.563.245-.934.246-.375.653-.559a2.1 2.1 0 0 1 .882-.187q.352 0 .602.059.25.054.371.101l-.273.945-.211-.054a1.2 1.2 0 0 0-.313-.035q-.426 0-.61.211-.179.21-.179.609V185zm13.072-5.398h-1.218a1.86 1.86 0 0 0-.73-1.192 2 2 0 0 0-.622-.312 2.4 2.4 0 0 0-.722-.106q-.691 0-1.239.348-.542.347-.86 1.019-.311.672-.312 1.641 0 .977.313 1.648.316.672.863 1.016t1.23.344q.38 0 .72-.102.344-.105.62-.308.278-.204.47-.496.195-.297.269-.68l1.218.004a3.3 3.3 0 0 1-.378 1.086 3 3 0 0 1-.715.851q-.435.356-.992.551-.56.195-1.22.195-1.039 0-1.85-.492-.813-.496-1.282-1.418-.465-.921-.465-2.199 0-1.281.469-2.199.469-.922 1.281-1.414.813-.496 1.848-.496.636 0 1.187.183.555.18.996.531.442.348.73.852.29.5.391 1.145m2.976 5.531q-.57 0-1.031-.211a1.73 1.73 0 0 1-.73-.621q-.267-.406-.266-.996 0-.509.195-.836.195-.328.528-.52.33-.191.742-.289.41-.097.836-.148l.875-.102q.335-.042.488-.137.152-.094.152-.304v-.028q0-.511-.289-.793-.285-.28-.851-.281-.59 0-.93.262a1.4 1.4 0 0 0-.465.574l-1.097-.25q.195-.546.57-.883.379-.339.87-.492a3.4 3.4 0 0 1 1.036-.156q.36 0 .762.086.406.082.758.304.356.223.582.637.226.41.226 1.067V185h-1.14v-.82h-.047a1.7 1.7 0 0 1-.34.445 1.8 1.8 0 0 1-.582.363 2.3 2.3 0 0 1-.852.145m.254-.938q.484 0 .828-.191.348-.192.528-.5a1.3 1.3 0 0 0 .183-.668v-.774a.6.6 0 0 1-.242.118 4 4 0 0 1-.402.09l-.442.066-.36.047a3 3 0 0 0-.62.144 1.1 1.1 0 0 0-.445.293q-.165.188-.165.5 0 .434.32.657.32.218.817.218m5.31-7.195v8h-1.168v-8zm3.977 8.121q-.87 0-1.5-.394a2.6 2.6 0 0 1-.961-1.098q-.335-.699-.335-1.602 0-.914.343-1.613a2.63 2.63 0 0 1 .969-1.098q.625-.394 1.473-.394.683 0 1.218.254.535.25.864.703.332.453.394 1.058h-1.136a1.36 1.36 0 0 0-.43-.726q-.332-.305-.891-.305-.488 0-.855.258a1.66 1.66 0 0 0-.567.727q-.203.468-.203 1.109 0 .656.199 1.133.2.477.563.738.367.262.863.262.332 0 .602-.121a1.24 1.24 0 0 0 .457-.356q.187-.23.262-.554h1.136a2.2 2.2 0 0 1-.379 1.039 2.2 2.2 0 0 1-.847.718q-.528.262-1.239.262m7.394-2.609V179h1.172v6h-1.149v-1.039h-.062q-.207.48-.664.801-.453.316-1.129.316a2.03 2.03 0 0 1-1.023-.254 1.8 1.8 0 0 1-.696-.762q-.25-.503-.25-1.246V179h1.168v3.676q0 .613.34.976.34.364.883.364.328 0 .652-.164.329-.165.543-.497.22-.332.215-.843m3.788-5.512v8h-1.168v-8zm3.197 8.133q-.57 0-1.032-.211a1.74 1.74 0 0 1-.73-.621q-.266-.406-.266-.996 0-.509.196-.836.195-.328.527-.52a2.8 2.8 0 0 1 .742-.289q.41-.097.836-.148l.875-.102q.336-.042.488-.137.153-.094.153-.304v-.028q0-.511-.289-.793-.285-.28-.852-.281-.59 0-.93.262a1.4 1.4 0 0 0-.464.574l-1.098-.25q.195-.546.57-.883a2.3 2.3 0 0 1 .871-.492 3.4 3.4 0 0 1 1.035-.156q.36 0 .762.086.407.082.758.304.355.223.582.637.227.41.227 1.067V185h-1.141v-.82h-.047a1.7 1.7 0 0 1-.34.445 1.8 1.8 0 0 1-.582.363 2.2 2.2 0 0 1-.851.145m.254-.938q.483 0 .828-.191.347-.192.527-.5a1.3 1.3 0 0 0 .184-.668v-.774a.6.6 0 0 1-.243.118 4 4 0 0 1-.402.09l-.441.066-.36.047a3 3 0 0 0-.621.144 1.1 1.1 0 0 0-.445.293q-.165.188-.164.5 0 .434.32.657.32.218.817.218m6.942-5.195v.937h-3.277V179zm-2.398-1.438h1.168v5.676q0 .34.101.512a.53.53 0 0 0 .262.23q.164.06.355.059.141 0 .246-.019l.164-.032.211.965a2 2 0 0 1-.289.078 2.2 2.2 0 0 1-.468.047 2.06 2.06 0 0 1-.86-.164 1.5 1.5 0 0 1-.644-.531q-.246-.36-.246-.903zm6.09 7.559q-.886 0-1.527-.379a2.57 2.57 0 0 1-.984-1.074q-.344-.696-.344-1.629 0-.922.344-1.625.347-.703.969-1.098.624-.394 1.46-.394.508 0 .985.168t.855.527q.38.36.598.934.219.57.219 1.386v.415h-4.77v-.875h3.625q0-.462-.187-.817a1.4 1.4 0 0 0-.528-.566 1.47 1.47 0 0 0-.789-.207q-.492 0-.859.242a1.63 1.63 0 0 0-.563.625q-.195.382-.195.832v.684q0 .602.211 1.023.214.422.598.644.382.219.894.219.332 0 .606-.094.273-.097.472-.289.2-.191.305-.472l1.105.199a2 2 0 0 1-.476.855 2.3 2.3 0 0 1-.856.567q-.511.2-1.168.199m5.996-.004q-.727 0-1.297-.371-.567-.375-.891-1.066-.32-.696-.32-1.668 0-.973.324-1.664.328-.691.899-1.059.57-.367 1.293-.367.558 0 .898.187.344.184.531.43.192.246.297.434h.07V177h1.168v8h-1.14v-.934h-.098a3 3 0 0 1-.305.438q-.195.246-.539.43-.344.183-.89.183m.258-.996q.503 0 .851-.266.352-.269.531-.746.184-.476.184-1.109 0-.625-.18-1.094a1.6 1.6 0 0 0-.527-.73q-.348-.262-.859-.262-.528 0-.879.274-.352.273-.532.746-.175.472-.175 1.066 0 .602.179 1.082.18.48.532.762.354.277.875.277m7.144.879v-8h4.961v1.039h-3.754v2.438h3.399v1.035h-3.399V185zm6.231 0v-6h1.168v6zm.59-6.926a.74.74 0 0 1-.524-.203.66.66 0 0 1-.215-.492q0-.29.215-.492a.74.74 0 0 1 .524-.207.72.72 0 0 1 .519.207.65.65 0 0 1 .219.492q0 .285-.219.492a.73.73 0 0 1-.519.203m4.614 7.047q-.887 0-1.527-.379a2.57 2.57 0 0 1-.985-1.074q-.343-.696-.343-1.629 0-.922.343-1.625.348-.703.969-1.098.625-.394 1.461-.394.508 0 .984.168.477.168.856.527.379.36.597.934.219.57.219 1.386v.415h-4.769v-.875h3.625q0-.462-.188-.817a1.4 1.4 0 0 0-.527-.566 1.47 1.47 0 0 0-.789-.207q-.492 0-.86.242a1.6 1.6 0 0 0-.562.625q-.195.382-.195.832v.684q0 .602.211 1.023.215.422.597.644.383.219.895.219.332 0 .605-.094.273-.097.473-.289t.305-.472l1.105.199a2 2 0 0 1-.477.855 2.3 2.3 0 0 1-.855.567 3.2 3.2 0 0 1-1.168.199M163.78 177v8h-1.168v-8zm3.696 8.117q-.726 0-1.296-.371-.567-.375-.891-1.066-.32-.696-.32-1.668 0-.973.324-1.664.328-.691.898-1.059.57-.367 1.293-.367.559 0 .899.187.344.184.531.43.192.246.297.434h.07V177h1.168v8h-1.141v-.934h-.097a3 3 0 0 1-.305.438q-.195.246-.539.43-.344.183-.891.183m.258-.996q.504 0 .852-.266.351-.269.531-.746a3.1 3.1 0 0 0 .184-1.109q0-.625-.18-1.094a1.6 1.6 0 0 0-.527-.73q-.348-.262-.86-.262-.527 0-.879.274-.351.273-.531.746-.176.472-.176 1.066 0 .602.18 1.082t.531.762q.356.277.875.277m7.821.879h-1.281l2.878-8h1.395l2.879 8h-1.281l-2.262-6.547h-.063zm.215-3.133h4.156v1.016h-4.156zm11.133 3.266q-.57 0-1.032-.211a1.74 1.74 0 0 1-.73-.621q-.266-.406-.266-.996 0-.509.196-.836.195-.328.527-.52a2.8 2.8 0 0 1 .742-.289q.41-.097.836-.148l.875-.102q.336-.042.488-.137.153-.094.153-.304v-.028q0-.511-.289-.793-.286-.28-.852-.281-.59 0-.93.262a1.4 1.4 0 0 0-.464.574l-1.098-.25q.195-.546.57-.883a2.3 2.3 0 0 1 .871-.492 3.4 3.4 0 0 1 1.035-.156q.36 0 .762.086.407.082.758.304.356.223.582.637.227.41.227 1.067V185h-1.141v-.82h-.047a1.7 1.7 0 0 1-.34.445 1.8 1.8 0 0 1-.582.363 2.2 2.2 0 0 1-.851.145m.254-.938q.483 0 .828-.191.347-.192.527-.5a1.3 1.3 0 0 0 .184-.668v-.774a.6.6 0 0 1-.243.118 4 4 0 0 1-.402.09l-.441.066-.36.047a3 3 0 0 0-.621.144 1.1 1.1 0 0 0-.445.293q-.164.188-.164.5 0 .434.32.657.32.218.817.218m4.141 3.055V179h1.141v.973h.097q.102-.188.293-.434a1.7 1.7 0 0 1 .532-.43q.34-.187.898-.187.727 0 1.297.367.57.368.895 1.059.327.691.328 1.664 0 .972-.325 1.668-.324.691-.89 1.066a2.3 2.3 0 0 1-1.293.371q-.547 0-.895-.183a1.7 1.7 0 0 1-.539-.43q-.195-.246-.301-.438h-.07v3.184zm1.145-5.25q0 .633.183 1.109.184.477.532.746.347.266.851.266.524 0 .875-.277.352-.282.531-.762.184-.48.184-1.082 0-.594-.18-1.066a1.62 1.62 0 0 0-.531-.746q-.351-.274-.879-.274-.508 0-.859.262a1.6 1.6 0 0 0-.528.73 3.1 3.1 0 0 0-.179 1.094m5.523 5.25V179h1.141v.973h.098q.1-.188.293-.434.19-.246.531-.43.34-.187.898-.187.727 0 1.297.367.57.368.895 1.059.327.691.328 1.664 0 .972-.324 1.668-.325.691-.891 1.066a2.3 2.3 0 0 1-1.293.371q-.547 0-.895-.183a1.7 1.7 0 0 1-.539-.43q-.195-.246-.3-.438h-.071v3.184zm1.145-5.25q0 .633.183 1.109.184.477.532.746.347.266.851.266.524 0 .875-.277.353-.282.531-.762.184-.48.184-1.082 0-.594-.18-1.066a1.62 1.62 0 0 0-.531-.746q-.351-.274-.879-.274-.507 0-.859.262a1.6 1.6 0 0 0-.528.73 3.1 3.1 0 0 0-.179 1.094m8.109 3.121q-.887 0-1.527-.379a2.56 2.56 0 0 1-.984-1.074q-.344-.696-.344-1.629 0-.922.344-1.625.347-.703.968-1.098.625-.394 1.461-.394.508 0 .985.168a2.4 2.4 0 0 1 .855.527q.38.36.598.934.218.57.218 1.386v.415h-4.769v-.875h3.625q0-.462-.188-.817a1.4 1.4 0 0 0-.527-.566 1.47 1.47 0 0 0-.789-.207q-.492 0-.859.242-.364.238-.563.625-.195.382-.195.832v.684q0 .602.211 1.023.215.422.597.644.384.219.895.219.332 0 .605-.094.274-.097.473-.289t.305-.472l1.105.199a2 2 0 0 1-.476.855 2.3 2.3 0 0 1-.856.567q-.511.2-1.168.199m5.495.012q-.57 0-1.031-.211a1.73 1.73 0 0 1-.73-.621q-.266-.406-.266-.996 0-.509.195-.836.196-.328.528-.52a2.8 2.8 0 0 1 .742-.289q.41-.097.836-.148l.875-.102q.336-.042.488-.137.153-.094.153-.304v-.028q0-.511-.29-.793-.285-.28-.851-.281-.59 0-.93.262a1.4 1.4 0 0 0-.465.574l-1.097-.25q.195-.546.57-.883a2.3 2.3 0 0 1 .871-.492 3.4 3.4 0 0 1 1.035-.156q.36 0 .762.086.406.082.758.304.356.223.582.637.226.41.226 1.067V185h-1.14v-.82h-.047a1.7 1.7 0 0 1-.34.445 1.8 1.8 0 0 1-.582.363 2.25 2.25 0 0 1-.852.145m.254-.938q.484 0 .829-.191.347-.192.527-.5a1.3 1.3 0 0 0 .183-.668v-.774a.6.6 0 0 1-.242.118 4 4 0 0 1-.402.09l-.441.066-.36.047a3 3 0 0 0-.621.144 1.1 1.1 0 0 0-.445.293q-.165.188-.164.5 0 .434.32.657.321.218.816.218m4.142.805v-6h1.129v.953h.062q.165-.484.579-.762.417-.28.945-.281a5 5 0 0 1 .496.027v1.118a2 2 0 0 0-.25-.043 2.3 2.3 0 0 0-.359-.028q-.414 0-.739.176a1.31 1.31 0 0 0-.695 1.176V185zm8.597-4.535-1.059.187a1.2 1.2 0 0 0-.211-.386 1 1 0 0 0-.382-.301 1.4 1.4 0 0 0-.606-.117q-.496 0-.828.222-.332.219-.332.567 0 .3.223.484.222.184.718.301l.953.219q.829.191 1.235.589.406.399.406 1.036 0 .538-.312.961a2.06 2.06 0 0 1-.864.656q-.55.238-1.277.238-1.008 0-1.645-.43-.637-.434-.781-1.23l1.129-.172q.105.441.434.668.328.222.855.223.574 0 .918-.239.344-.242.344-.589a.61.61 0 0 0-.211-.473q-.207-.192-.637-.289l-1.015-.223q-.84-.191-1.243-.609-.398-.419-.398-1.059 0-.531.297-.929.297-.399.82-.622a3 3 0 0 1 1.199-.226q.973 0 1.532.422.558.417.738 1.121m5.816 4.668q-.57 0-1.031-.211a1.73 1.73 0 0 1-.73-.621q-.266-.406-.266-.996 0-.509.195-.836.196-.328.528-.52a2.8 2.8 0 0 1 .742-.289q.41-.097.836-.148l.875-.102q.336-.042.488-.137.153-.094.153-.304v-.028q0-.511-.29-.793-.285-.28-.851-.281-.59 0-.93.262a1.4 1.4 0 0 0-.465.574l-1.097-.25q.195-.546.57-.883a2.3 2.3 0 0 1 .871-.492 3.4 3.4 0 0 1 1.035-.156q.36 0 .762.086.406.082.758.304.356.223.582.637.226.41.226 1.067V185h-1.14v-.82h-.047a1.7 1.7 0 0 1-.34.445 1.8 1.8 0 0 1-.582.363 2.25 2.25 0 0 1-.852.145m.254-.938q.484 0 .828-.191.348-.192.528-.5a1.3 1.3 0 0 0 .183-.668v-.774a.6.6 0 0 1-.242.118 4 4 0 0 1-.402.09l-.442.066-.359.047a3 3 0 0 0-.621.144 1.1 1.1 0 0 0-.445.293q-.165.188-.164.5 0 .434.32.657.32.218.816.218m6.658 3.18q-.715 0-1.231-.187a2.4 2.4 0 0 1-.836-.497 2.1 2.1 0 0 1-.484-.675l1.004-.414q.105.171.281.363.18.195.484.332.309.137.793.137.665 0 1.098-.325.434-.32.434-1.023v-1.18h-.075q-.105.192-.304.426-.195.234-.539.406t-.895.172q-.711 0-1.281-.332a2.36 2.36 0 0 1-.899-.988q-.328-.656-.328-1.613t.325-1.641q.327-.684.898-1.047.57-.367 1.293-.367.558 0 .902.187.344.184.535.43.196.246.301.434h.086V179h1.145v6.133q0 .773-.36 1.269a2.1 2.1 0 0 1-.972.735 3.8 3.8 0 0 1-1.375.238m-.012-3.434q.504 0 .852-.234a1.46 1.46 0 0 0 .531-.68q.183-.445.183-1.066 0-.606-.179-1.066a1.6 1.6 0 0 0-.528-.719q-.347-.262-.859-.262-.528 0-.879.274a1.65 1.65 0 0 0-.531.734q-.176.465-.176 1.039 0 .59.18 1.035.18.446.531.695.356.25.875.25m5.91 1.192q-.57 0-1.031-.211a1.74 1.74 0 0 1-.731-.621q-.265-.406-.265-.996 0-.509.195-.836.195-.328.528-.52.331-.191.742-.289.41-.097.836-.148l.875-.102q.335-.042.488-.137.152-.094.152-.304v-.028q0-.511-.289-.793-.285-.28-.851-.281-.59 0-.93.262a1.4 1.4 0 0 0-.465.574l-1.098-.25q.196-.546.571-.883.379-.339.871-.492a3.4 3.4 0 0 1 1.035-.156q.36 0 .762.086.406.082.758.304.356.223.582.637.226.41.226 1.067V185h-1.14v-.82h-.047a1.7 1.7 0 0 1-.34.445 1.8 1.8 0 0 1-.582.363 2.25 2.25 0 0 1-.852.145m.254-.938q.484 0 .828-.191.348-.192.528-.5a1.3 1.3 0 0 0 .183-.668v-.774a.6.6 0 0 1-.242.118 4 4 0 0 1-.402.09l-.442.066-.359.047a3 3 0 0 0-.621.144 1.1 1.1 0 0 0-.446.293q-.164.188-.164.5 0 .434.321.657.32.218.816.218m4.142.805v-6h1.168v6zm.59-6.926a.74.74 0 0 1-.524-.203.66.66 0 0 1-.215-.492q0-.29.215-.492a.74.74 0 0 1 .524-.207.72.72 0 0 1 .519.207.65.65 0 0 1 .219.492q0 .285-.219.492a.73.73 0 0 1-.519.203m3.196 3.363V185h-1.168v-6h1.121v.977h.074q.207-.477.649-.766.445-.29 1.121-.289.613 0 1.074.258.461.254.715.757.254.504.254 1.247V185h-1.168v-3.676q0-.653-.34-1.019-.34-.371-.934-.371-.405 0-.722.175a1.26 1.26 0 0 0-.496.516 1.7 1.7 0 0 0-.18.812m8.075 3.563v-6h1.168v6zm.59-6.926a.74.74 0 0 1-.523-.203.66.66 0 0 1-.215-.492q0-.29.215-.492a.73.73 0 0 1 .523-.207q.305 0 .52.207a.65.65 0 0 1 .219.492q0 .285-.219.492a.73.73 0 0 1-.52.203m3.197 3.363V185h-1.168v-6h1.121v.977h.074q.207-.477.648-.766.446-.29 1.122-.289.612 0 1.074.258.46.254.715.757.253.504.253 1.247V185h-1.167v-3.676q0-.653-.34-1.019-.34-.371-.934-.371-.406 0-.723.175a1.27 1.27 0 0 0-.496.516 1.7 1.7 0 0 0-.179.812M275.254 179v.937h-3.278V179zm-2.399-1.438h1.168v5.676q0 .34.102.512a.53.53 0 0 0 .262.23q.163.06.355.059.141 0 .246-.019l.164-.032.211.965a2 2 0 0 1-.289.078 2.2 2.2 0 0 1-.469.047 2.05 2.05 0 0 1-.859-.164 1.5 1.5 0 0 1-.645-.531q-.246-.36-.246-.903zm4.867 3.875V185h-1.168v-8h1.152v2.977h.074q.212-.485.645-.77t1.133-.285q.616 0 1.078.254.465.254.718.758.258.5.258 1.25V185h-1.168v-3.676q0-.66-.34-1.023-.339-.367-.945-.367-.414 0-.742.175a1.27 1.27 0 0 0-.512.516 1.7 1.7 0 0 0-.183.812m7.914 3.684q-.886 0-1.528-.379a2.57 2.57 0 0 1-.984-1.074q-.344-.696-.344-1.629 0-.922.344-1.625.348-.703.969-1.098.625-.394 1.461-.394.507 0 .984.168t.856.527q.378.36.597.934.219.57.219 1.386v.415h-4.769v-.875h3.625q0-.462-.188-.817a1.4 1.4 0 0 0-.527-.566 1.47 1.47 0 0 0-.789-.207q-.493 0-.86.242a1.6 1.6 0 0 0-.562.625q-.196.382-.196.832v.684q0 .602.211 1.023.216.422.598.644.382.219.895.219.332 0 .605-.094.273-.097.473-.289.198-.191.304-.472l1.106.199a2 2 0 0 1-.477.855 2.3 2.3 0 0 1-.855.567 3.2 3.2 0 0 1-1.168.199m9.066 0q-.87 0-1.5-.394a2.6 2.6 0 0 1-.961-1.098q-.335-.699-.335-1.602 0-.914.343-1.613a2.63 2.63 0 0 1 .969-1.098q.625-.394 1.473-.394.683 0 1.218.254.535.25.864.703.332.453.394 1.058h-1.136a1.36 1.36 0 0 0-.43-.726q-.332-.305-.891-.305-.488 0-.855.258a1.66 1.66 0 0 0-.567.727q-.203.468-.203 1.109 0 .656.199 1.133.2.477.563.738.368.262.863.262.332 0 .602-.121a1.24 1.24 0 0 0 .457-.356q.187-.23.262-.554h1.136a2.2 2.2 0 0 1-.379 1.039 2.2 2.2 0 0 1-.847.718q-.528.262-1.239.262m4.761-3.684V185h-1.168v-8h1.153v2.977h.074q.21-.485.644-.77t1.133-.285a2.2 2.2 0 0 1 1.078.254q.465.254.719.758.258.5.258 1.25V185h-1.168v-3.676q0-.66-.34-1.023-.34-.367-.945-.367-.415 0-.742.175a1.27 1.27 0 0 0-.512.516 1.67 1.67 0 0 0-.184.812m7.075 3.696q-.57 0-1.032-.211a1.74 1.74 0 0 1-.73-.621q-.266-.406-.266-.996 0-.509.196-.836.195-.328.527-.52a2.8 2.8 0 0 1 .742-.289q.41-.097.836-.148l.875-.102q.336-.042.488-.137.153-.094.153-.304v-.028q0-.511-.289-.793-.286-.28-.852-.281-.59 0-.93.262a1.4 1.4 0 0 0-.465.574l-1.097-.25q.195-.546.57-.883a2.3 2.3 0 0 1 .871-.492 3.4 3.4 0 0 1 1.035-.156q.36 0 .762.086.407.082.758.304.356.223.582.637.227.41.227 1.067V185h-1.141v-.82h-.047a1.7 1.7 0 0 1-.34.445 1.8 1.8 0 0 1-.582.363 2.2 2.2 0 0 1-.851.145m.253-.938q.484 0 .829-.191.347-.192.527-.5a1.3 1.3 0 0 0 .184-.668v-.774a.6.6 0 0 1-.243.118 4 4 0 0 1-.402.09l-.441.066-.36.047a3 3 0 0 0-.621.144 1.1 1.1 0 0 0-.445.293q-.164.188-.164.5 0 .434.32.657.321.218.816.218m4.142.805v-6h1.168v6zm.59-6.926a.74.74 0 0 1-.523-.203.66.66 0 0 1-.215-.492q0-.29.215-.492a.73.73 0 0 1 .523-.207q.304 0 .52.207a.65.65 0 0 1 .218.492q0 .285-.218.492a.73.73 0 0 1-.52.203m3.196 3.363V185h-1.168v-6h1.122v.977h.074q.207-.477.648-.766.446-.29 1.121-.289.613 0 1.074.258.462.254.715.757.255.504.254 1.247V185h-1.168v-3.676q0-.653-.34-1.019-.339-.371-.933-.371-.406 0-.723.175a1.27 1.27 0 0 0-.496.516 1.7 1.7 0 0 0-.18.812m13.06 3.708-.703-.696 2.441-2.441h-6.132v-1.016h6.132l-2.441-2.437.703-.7 3.645 3.645zm12.43-5.844a.99.99 0 0 0-.402-.735q-.356-.261-.965-.261-.414 0-.699.117a1 1 0 0 0-.438.316.76.76 0 0 0-.148.461.65.65 0 0 0 .09.375.9.9 0 0 0 .277.278q.175.112.406.199.231.081.492.14l.719.172q.523.117.961.313.437.195.758.48.32.285.496.672.18.387.184.887-.004.734-.375 1.273-.367.535-1.063.832-.691.293-1.668.293-.969 0-1.687-.297a2.47 2.47 0 0 1-1.118-.879q-.398-.585-.418-1.449h1.637q.027.403.231.672.207.266.55.402.348.133.786.133.43 0 .746-.125.32-.125.496-.347a.8.8 0 0 0 .175-.512.66.66 0 0 0-.16-.453 1.2 1.2 0 0 0-.461-.313 4.6 4.6 0 0 0-.738-.234l-.871-.219q-1.011-.246-1.598-.769-.585-.523-.582-1.411a2.1 2.1 0 0 1 .387-1.269 2.6 2.6 0 0 1 1.082-.848q.687-.304 1.563-.304.89 0 1.554.304.669.305 1.039.848.371.543.383 1.258zm5.907-.301v1.25h-3.613V179zm-2.793-1.438h1.664v5.594q0 .231.071.36a.4.4 0 0 0 .195.175.8.8 0 0 0 .297.051q.117 0 .234-.019l.18-.036.262 1.239a5 5 0 0 1-.352.09 3 3 0 0 1-.551.066 2.5 2.5 0 0 1-1.054-.16 1.5 1.5 0 0 1-.7-.57q-.249-.387-.246-.977zm6.403 7.555q-.91 0-1.574-.387a2.65 2.65 0 0 1-1.02-1.085q-.36-.7-.359-1.622 0-.929.359-1.625.36-.699 1.02-1.086.663-.39 1.574-.39.91 0 1.57.39.664.387 1.024 1.086.359.696.359 1.625 0 .922-.359 1.622a2.64 2.64 0 0 1-1.024 1.085q-.66.387-1.57.387m.008-1.289q.414 0 .691-.234.277-.238.418-.649.144-.41.145-.933 0-.523-.145-.934a1.46 1.46 0 0 0-.418-.648 1.02 1.02 0 0 0-.691-.239q-.418 0-.703.239a1.46 1.46 0 0 0-.426.648 2.9 2.9 0 0 0-.141.934q0 .523.141.933.144.41.426.649.285.234.703.234m3.906 3.422V179h1.641v1.008h.074q.11-.243.316-.492.211-.254.547-.422.34-.172.844-.172.656 0 1.211.344.554.34.887 1.027.332.683.332 1.715 0 1.004-.325 1.695-.32.687-.875 1.043a2.25 2.25 0 0 1-1.234.352q-.485 0-.824-.161a1.7 1.7 0 0 1-.551-.402 2 2 0 0 1-.328-.496h-.051v3.211zm1.629-5.25q0 .535.148.934.149.398.43.621.281.218.684.218.406 0 .687-.222.282-.227.426-.625.148-.402.148-.926 0-.52-.144-.914a1.36 1.36 0 0 0-.426-.617 1.08 1.08 0 0 0-.691-.223q-.406 0-.688.215a1.35 1.35 0 0 0-.426.609 2.6 2.6 0 0 0-.148.93"/></g><defs><clipPath id="a"><path fill="#fff" d="M0 0h720v201H0z"/></clipPath><clipPath id="b"><path fill="#fff" d="M0 0h720v314H0z"/></clipPath></defs></svg>
