<svg xmlns="http://www.w3.org/2000/svg" width="720" height="442" fill="none" viewBox="0 0 720 442"><g clip-path="url(#a)"><path fill="#fff" d="M0 0h720v442H0z"/><g fill="#c1c3c8" clip-path="url(#b)" opacity=".5"><circle cx="3" cy="15" r="1"/><circle cx="87" cy="15" r="1"/><circle cx="73" cy="15" r="1"/><circle cx="17" cy="15" r="1"/><circle cx="101" cy="15" r="1"/><circle cx="3" cy="1" r="1"/><circle cx="87" cy="1" r="1"/><circle cx="73" cy="1" r="1"/><circle cx="17" cy="1" r="1"/><circle cx="101" cy="1" r="1"/><circle cx="3" cy="29" r="1"/><circle cx="87" cy="29" r="1"/><circle cx="73" cy="29" r="1"/><circle cx="17" cy="29" r="1"/><circle cx="101" cy="29" r="1"/><circle cx="45" cy="15" r="1"/><circle cx="129" cy="15" r="1"/><circle cx="31" cy="15" r="1"/><circle cx="115" cy="15" r="1"/><circle cx="59" cy="15" r="1"/><circle cx="143" cy="15" r="1"/><circle cx="45" cy="1" r="1"/><circle cx="129" cy="1" r="1"/><circle cx="31" cy="1" r="1"/><circle cx="115" cy="1" r="1"/><circle cx="59" cy="1" r="1"/><circle cx="143" cy="1" r="1"/><circle cx="45" cy="29" r="1"/><circle cx="129" cy="29" r="1"/><circle cx="31" cy="29" r="1"/><circle cx="115" cy="29" r="1"/><circle cx="59" cy="29" r="1"/><circle cx="143" cy="29" r="1"/><circle cx="3" cy="57" r="1"/><circle cx="87" cy="57" r="1"/><circle cx="3" cy="99" r="1"/><circle cx="87" cy="99" r="1"/><circle cx="3" cy="141" r="1"/><circle cx="87" cy="141" r="1"/><circle cx="3" cy="183" r="1"/><circle cx="87" cy="183" r="1"/><circle cx="3" cy="225" r="1"/><circle cx="87" cy="225" r="1"/><circle cx="3" cy="267" r="1"/><circle cx="87" cy="267" r="1"/><circle cx="3" cy="309" r="1"/><circle cx="87" cy="309" r="1"/><circle cx="73" cy="57" r="1"/><circle cx="73" cy="99" r="1"/><circle cx="73" cy="141" r="1"/><circle cx="73" cy="183" r="1"/><circle cx="73" cy="225" r="1"/><circle cx="73" cy="267" r="1"/><circle cx="73" cy="309" r="1"/><circle cx="17" cy="57" r="1"/><circle cx="101" cy="57" r="1"/><circle cx="17" cy="99" r="1"/><circle cx="101" cy="99" r="1"/><circle cx="17" cy="141" r="1"/><circle cx="101" cy="141" r="1"/><circle cx="17" cy="183" r="1"/><circle cx="101" cy="183" r="1"/><circle cx="17" cy="225" r="1"/><circle cx="101" cy="225" r="1"/><circle cx="17" cy="267" r="1"/><circle cx="101" cy="267" r="1"/><circle cx="17" cy="309" r="1"/><circle cx="101" cy="309" r="1"/><circle cx="3" cy="43" r="1"/><circle cx="87" cy="43" r="1"/><circle cx="3" cy="85" r="1"/><circle cx="87" cy="85" r="1"/><circle cx="3" cy="127" r="1"/><circle cx="87" cy="127" r="1"/><circle cx="3" cy="169" r="1"/><circle cx="87" cy="169" r="1"/><circle cx="3" cy="211" r="1"/><circle cx="87" cy="211" r="1"/><circle cx="3" cy="253" r="1"/><circle cx="87" cy="253" r="1"/><circle cx="3" cy="295" r="1"/><circle cx="87" cy="295" r="1"/><circle cx="73" cy="43" r="1"/><circle cx="73" cy="85" r="1"/><circle cx="73" cy="127" r="1"/><circle cx="73" cy="169" r="1"/><circle cx="73" cy="211" r="1"/><circle cx="73" cy="253" r="1"/><circle cx="73" cy="295" r="1"/><circle cx="17" cy="43" r="1"/><circle cx="101" cy="43" r="1"/><circle cx="17" cy="85" r="1"/><circle cx="101" cy="85" r="1"/><circle cx="17" cy="127" r="1"/><circle cx="101" cy="127" r="1"/><circle cx="17" cy="169" r="1"/><circle cx="101" cy="169" r="1"/><circle cx="17" cy="211" r="1"/><circle cx="101" cy="211" r="1"/><circle cx="17" cy="253" r="1"/><circle cx="101" cy="253" r="1"/><circle cx="17" cy="295" r="1"/><circle cx="101" cy="295" r="1"/><circle cx="3" cy="71" r="1"/><circle cx="87" cy="71" r="1"/><circle cx="3" cy="113" r="1"/><circle cx="87" cy="113" r="1"/><circle cx="3" cy="155" r="1"/><circle cx="87" cy="155" r="1"/><circle cx="3" cy="197" r="1"/><circle cx="87" cy="197" r="1"/><circle cx="3" cy="239" r="1"/><circle cx="87" cy="239" r="1"/><circle cx="3" cy="281" r="1"/><circle cx="87" cy="281" r="1"/><circle cx="3" cy="323" r="1"/><circle cx="87" cy="323" r="1"/><circle cx="73" cy="71" r="1"/><circle cx="73" cy="113" r="1"/><circle cx="73" cy="155" r="1"/><circle cx="73" cy="197" r="1"/><circle cx="73" cy="239" r="1"/><circle cx="73" cy="281" r="1"/><circle cx="73" cy="323" r="1"/><circle cx="17" cy="71" r="1"/><circle cx="101" cy="71" r="1"/><circle cx="17" cy="113" r="1"/><circle cx="101" cy="113" r="1"/><circle cx="17" cy="155" r="1"/><circle cx="101" cy="155" r="1"/><circle cx="17" cy="197" r="1"/><circle cx="101" cy="197" r="1"/><circle cx="17" cy="239" r="1"/><circle cx="101" cy="239" r="1"/><circle cx="17" cy="281" r="1"/><circle cx="101" cy="281" r="1"/><circle cx="17" cy="323" r="1"/><circle cx="101" cy="323" r="1"/><circle cx="45" cy="57" r="1"/><circle cx="129" cy="57" r="1"/><circle cx="45" cy="99" r="1"/><circle cx="129" cy="99" r="1"/><circle cx="45" cy="141" r="1"/><circle cx="129" cy="141" r="1"/><circle cx="45" cy="183" r="1"/><circle cx="129" cy="183" r="1"/><circle cx="45" cy="225" r="1"/><circle cx="129" cy="225" r="1"/><circle cx="45" cy="267" r="1"/><circle cx="129" cy="267" r="1"/><circle cx="45" cy="309" r="1"/><circle cx="129" cy="309" r="1"/><circle cx="31" cy="57" r="1"/><circle cx="115" cy="57" r="1"/><circle cx="31" cy="99" r="1"/><circle cx="115" cy="99" r="1"/><circle cx="31" cy="141" r="1"/><circle cx="115" cy="141" r="1"/><circle cx="31" cy="183" r="1"/><circle cx="115" cy="183" r="1"/><circle cx="31" cy="225" r="1"/><circle cx="115" cy="225" r="1"/><circle cx="31" cy="267" r="1"/><circle cx="115" cy="267" r="1"/><circle cx="31" cy="309" r="1"/><circle cx="115" cy="309" r="1"/><circle cx="59" cy="57" r="1"/><circle cx="143" cy="57" r="1"/><circle cx="59" cy="99" r="1"/><circle cx="143" cy="99" r="1"/><circle cx="59" cy="141" r="1"/><circle cx="143" cy="141" r="1"/><circle cx="59" cy="183" r="1"/><circle cx="143" cy="183" r="1"/><circle cx="59" cy="225" r="1"/><circle cx="143" cy="225" r="1"/><circle cx="59" cy="267" r="1"/><circle cx="143" cy="267" r="1"/><circle cx="59" cy="309" r="1"/><circle cx="143" cy="309" r="1"/><circle cx="45" cy="43" r="1"/><circle cx="129" cy="43" r="1"/><circle cx="45" cy="85" r="1"/><circle cx="129" cy="85" r="1"/><circle cx="45" cy="127" r="1"/><circle cx="129" cy="127" r="1"/><circle cx="45" cy="169" r="1"/><circle cx="129" cy="169" r="1"/><circle cx="45" cy="211" r="1"/><circle cx="129" cy="211" r="1"/><circle cx="45" cy="253" r="1"/><circle cx="129" cy="253" r="1"/><circle cx="45" cy="295" r="1"/><circle cx="129" cy="295" r="1"/><circle cx="31" cy="43" r="1"/><circle cx="115" cy="43" r="1"/><circle cx="31" cy="85" r="1"/><circle cx="115" cy="85" r="1"/><circle cx="31" cy="127" r="1"/><circle cx="115" cy="127" r="1"/><circle cx="31" cy="169" r="1"/><circle cx="115" cy="169" r="1"/><circle cx="31" cy="211" r="1"/><circle cx="115" cy="211" r="1"/><circle cx="31" cy="253" r="1"/><circle cx="115" cy="253" r="1"/><circle cx="31" cy="295" r="1"/><circle cx="115" cy="295" r="1"/><circle cx="59" cy="43" r="1"/><circle cx="143" cy="43" r="1"/><circle cx="59" cy="85" r="1"/><circle cx="143" cy="85" r="1"/><circle cx="59" cy="127" r="1"/><circle cx="143" cy="127" r="1"/><circle cx="59" cy="169" r="1"/><circle cx="143" cy="169" r="1"/><circle cx="59" cy="211" r="1"/><circle cx="143" cy="211" r="1"/><circle cx="59" cy="253" r="1"/><circle cx="143" cy="253" r="1"/><circle cx="59" cy="295" r="1"/><circle cx="143" cy="295" r="1"/><circle cx="45" cy="71" r="1"/><circle cx="129" cy="71" r="1"/><circle cx="45" cy="113" r="1"/><circle cx="129" cy="113" r="1"/><circle cx="45" cy="155" r="1"/><circle cx="129" cy="155" r="1"/><circle cx="45" cy="197" r="1"/><circle cx="129" cy="197" r="1"/><circle cx="45" cy="239" r="1"/><circle cx="129" cy="239" r="1"/><circle cx="45" cy="281" r="1"/><circle cx="129" cy="281" r="1"/><circle cx="45" cy="323" r="1"/><circle cx="129" cy="323" r="1"/><circle cx="31" cy="71" r="1"/><circle cx="115" cy="71" r="1"/><circle cx="31" cy="113" r="1"/><circle cx="115" cy="113" r="1"/><circle cx="31" cy="155" r="1"/><circle cx="115" cy="155" r="1"/><circle cx="31" cy="197" r="1"/><circle cx="115" cy="197" r="1"/><circle cx="31" cy="239" r="1"/><circle cx="115" cy="239" r="1"/><circle cx="31" cy="281" r="1"/><circle cx="115" cy="281" r="1"/><circle cx="31" cy="323" r="1"/><circle cx="115" cy="323" r="1"/><circle cx="59" cy="71" r="1"/><circle cx="143" cy="71" r="1"/><circle cx="59" cy="113" r="1"/><circle cx="143" cy="113" r="1"/><circle cx="59" cy="155" r="1"/><circle cx="143" cy="155" r="1"/><circle cx="59" cy="197" r="1"/><circle cx="143" cy="197" r="1"/><circle cx="59" cy="239" r="1"/><circle cx="143" cy="239" r="1"/><circle cx="59" cy="281" r="1"/><circle cx="143" cy="281" r="1"/><circle cx="59" cy="323" r="1"/><circle cx="143" cy="323" r="1"/><circle cx="171" cy="15" r="1"/><circle cx="255" cy="15" r="1"/><circle cx="157" cy="15" r="1"/><circle cx="241" cy="15" r="1"/><circle cx="185" cy="15" r="1"/><circle cx="269" cy="15" r="1"/><circle cx="171" cy="1" r="1"/><circle cx="255" cy="1" r="1"/><circle cx="157" cy="1" r="1"/><circle cx="241" cy="1" r="1"/><circle cx="185" cy="1" r="1"/><circle cx="269" cy="1" r="1"/><circle cx="171" cy="29" r="1"/><circle cx="255" cy="29" r="1"/><circle cx="157" cy="29" r="1"/><circle cx="241" cy="29" r="1"/><circle cx="185" cy="29" r="1"/><circle cx="269" cy="29" r="1"/><circle cx="213" cy="15" r="1"/><circle cx="297" cy="15" r="1"/><circle cx="199" cy="15" r="1"/><circle cx="283" cy="15" r="1"/><circle cx="227" cy="15" r="1"/><circle cx="311" cy="15" r="1"/><circle cx="213" cy="1" r="1"/><circle cx="297" cy="1" r="1"/><circle cx="199" cy="1" r="1"/><circle cx="283" cy="1" r="1"/><circle cx="227" cy="1" r="1"/><circle cx="311" cy="1" r="1"/><circle cx="213" cy="29" r="1"/><circle cx="297" cy="29" r="1"/><circle cx="199" cy="29" r="1"/><circle cx="283" cy="29" r="1"/><circle cx="227" cy="29" r="1"/><circle cx="311" cy="29" r="1"/><circle cx="171" cy="57" r="1"/><circle cx="255" cy="57" r="1"/><circle cx="171" cy="99" r="1"/><circle cx="255" cy="99" r="1"/><circle cx="171" cy="141" r="1"/><circle cx="255" cy="141" r="1"/><circle cx="171" cy="183" r="1"/><circle cx="255" cy="183" r="1"/><circle cx="171" cy="225" r="1"/><circle cx="255" cy="225" r="1"/><circle cx="171" cy="267" r="1"/><circle cx="255" cy="267" r="1"/><circle cx="171" cy="309" r="1"/><circle cx="255" cy="309" r="1"/><circle cx="157" cy="57" r="1"/><circle cx="241" cy="57" r="1"/><circle cx="157" cy="99" r="1"/><circle cx="241" cy="99" r="1"/><circle cx="157" cy="141" r="1"/><circle cx="241" cy="141" r="1"/><circle cx="157" cy="183" r="1"/><circle cx="241" cy="183" r="1"/><circle cx="157" cy="225" r="1"/><circle cx="241" cy="225" r="1"/><circle cx="157" cy="267" r="1"/><circle cx="241" cy="267" r="1"/><circle cx="157" cy="309" r="1"/><circle cx="241" cy="309" r="1"/><circle cx="185" cy="57" r="1"/><circle cx="269" cy="57" r="1"/><circle cx="185" cy="99" r="1"/><circle cx="269" cy="99" r="1"/><circle cx="185" cy="141" r="1"/><circle cx="269" cy="141" r="1"/><circle cx="185" cy="183" r="1"/><circle cx="269" cy="183" r="1"/><circle cx="185" cy="225" r="1"/><circle cx="269" cy="225" r="1"/><circle cx="185" cy="267" r="1"/><circle cx="269" cy="267" r="1"/><circle cx="185" cy="309" r="1"/><circle cx="269" cy="309" r="1"/><circle cx="171" cy="43" r="1"/><circle cx="255" cy="43" r="1"/><circle cx="171" cy="85" r="1"/><circle cx="255" cy="85" r="1"/><circle cx="171" cy="127" r="1"/><circle cx="255" cy="127" r="1"/><circle cx="171" cy="169" r="1"/><circle cx="255" cy="169" r="1"/><circle cx="171" cy="211" r="1"/><circle cx="255" cy="211" r="1"/><circle cx="171" cy="253" r="1"/><circle cx="255" cy="253" r="1"/><circle cx="171" cy="295" r="1"/><circle cx="255" cy="295" r="1"/><circle cx="157" cy="43" r="1"/><circle cx="241" cy="43" r="1"/><circle cx="157" cy="85" r="1"/><circle cx="241" cy="85" r="1"/><circle cx="157" cy="127" r="1"/><circle cx="241" cy="127" r="1"/><circle cx="157" cy="169" r="1"/><circle cx="241" cy="169" r="1"/><circle cx="157" cy="211" r="1"/><circle cx="241" cy="211" r="1"/><circle cx="157" cy="253" r="1"/><circle cx="241" cy="253" r="1"/><circle cx="157" cy="295" r="1"/><circle cx="241" cy="295" r="1"/><circle cx="185" cy="43" r="1"/><circle cx="269" cy="43" r="1"/><circle cx="185" cy="85" r="1"/><circle cx="269" cy="85" r="1"/><circle cx="185" cy="127" r="1"/><circle cx="269" cy="127" r="1"/><circle cx="185" cy="169" r="1"/><circle cx="269" cy="169" r="1"/><circle cx="185" cy="211" r="1"/><circle cx="269" cy="211" r="1"/><circle cx="185" cy="253" r="1"/><circle cx="269" cy="253" r="1"/><circle cx="185" cy="295" r="1"/><circle cx="269" cy="295" r="1"/><circle cx="171" cy="71" r="1"/><circle cx="255" cy="71" r="1"/><circle cx="171" cy="113" r="1"/><circle cx="255" cy="113" r="1"/><circle cx="171" cy="155" r="1"/><circle cx="255" cy="155" r="1"/><circle cx="171" cy="197" r="1"/><circle cx="255" cy="197" r="1"/><circle cx="171" cy="239" r="1"/><circle cx="255" cy="239" r="1"/><circle cx="171" cy="281" r="1"/><circle cx="255" cy="281" r="1"/><circle cx="171" cy="323" r="1"/><circle cx="255" cy="323" r="1"/><circle cx="157" cy="71" r="1"/><circle cx="241" cy="71" r="1"/><circle cx="157" cy="113" r="1"/><circle cx="241" cy="113" r="1"/><circle cx="157" cy="155" r="1"/><circle cx="241" cy="155" r="1"/><circle cx="157" cy="197" r="1"/><circle cx="241" cy="197" r="1"/><circle cx="157" cy="239" r="1"/><circle cx="241" cy="239" r="1"/><circle cx="157" cy="281" r="1"/><circle cx="241" cy="281" r="1"/><circle cx="157" cy="323" r="1"/><circle cx="241" cy="323" r="1"/><circle cx="185" cy="71" r="1"/><circle cx="269" cy="71" r="1"/><circle cx="185" cy="113" r="1"/><circle cx="269" cy="113" r="1"/><circle cx="185" cy="155" r="1"/><circle cx="269" cy="155" r="1"/><circle cx="185" cy="197" r="1"/><circle cx="269" cy="197" r="1"/><circle cx="185" cy="239" r="1"/><circle cx="269" cy="239" r="1"/><circle cx="185" cy="281" r="1"/><circle cx="269" cy="281" r="1"/><circle cx="185" cy="323" r="1"/><circle cx="269" cy="323" r="1"/><circle cx="213" cy="57" r="1"/><circle cx="297" cy="57" r="1"/><circle cx="213" cy="99" r="1"/><circle cx="297" cy="99" r="1"/><circle cx="213" cy="141" r="1"/><circle cx="297" cy="141" r="1"/><circle cx="213" cy="183" r="1"/><circle cx="297" cy="183" r="1"/><circle cx="213" cy="225" r="1"/><circle cx="297" cy="225" r="1"/><circle cx="213" cy="267" r="1"/><circle cx="297" cy="267" r="1"/><circle cx="213" cy="309" r="1"/><circle cx="297" cy="309" r="1"/><circle cx="199" cy="57" r="1"/><circle cx="283" cy="57" r="1"/><circle cx="199" cy="99" r="1"/><circle cx="283" cy="99" r="1"/><circle cx="199" cy="141" r="1"/><circle cx="283" cy="141" r="1"/><circle cx="199" cy="183" r="1"/><circle cx="283" cy="183" r="1"/><circle cx="199" cy="225" r="1"/><circle cx="283" cy="225" r="1"/><circle cx="199" cy="267" r="1"/><circle cx="283" cy="267" r="1"/><circle cx="199" cy="309" r="1"/><circle cx="283" cy="309" r="1"/><circle cx="227" cy="57" r="1"/><circle cx="311" cy="57" r="1"/><circle cx="227" cy="99" r="1"/><circle cx="311" cy="99" r="1"/><circle cx="227" cy="141" r="1"/><circle cx="311" cy="141" r="1"/><circle cx="227" cy="183" r="1"/><circle cx="311" cy="183" r="1"/><circle cx="227" cy="225" r="1"/><circle cx="311" cy="225" r="1"/><circle cx="227" cy="267" r="1"/><circle cx="311" cy="267" r="1"/><circle cx="227" cy="309" r="1"/><circle cx="311" cy="309" r="1"/><circle cx="213" cy="43" r="1"/><circle cx="297" cy="43" r="1"/><circle cx="213" cy="85" r="1"/><circle cx="297" cy="85" r="1"/><circle cx="213" cy="127" r="1"/><circle cx="297" cy="127" r="1"/><circle cx="213" cy="169" r="1"/><circle cx="297" cy="169" r="1"/><circle cx="213" cy="211" r="1"/><circle cx="297" cy="211" r="1"/><circle cx="213" cy="253" r="1"/><circle cx="297" cy="253" r="1"/><circle cx="213" cy="295" r="1"/><circle cx="297" cy="295" r="1"/><circle cx="199" cy="43" r="1"/><circle cx="283" cy="43" r="1"/><circle cx="199" cy="85" r="1"/><circle cx="283" cy="85" r="1"/><circle cx="199" cy="127" r="1"/><circle cx="283" cy="127" r="1"/><circle cx="199" cy="169" r="1"/><circle cx="283" cy="169" r="1"/><circle cx="199" cy="211" r="1"/><circle cx="283" cy="211" r="1"/><circle cx="199" cy="253" r="1"/><circle cx="283" cy="253" r="1"/><circle cx="199" cy="295" r="1"/><circle cx="283" cy="295" r="1"/><circle cx="227" cy="43" r="1"/><circle cx="311" cy="43" r="1"/><circle cx="227" cy="85" r="1"/><circle cx="311" cy="85" r="1"/><circle cx="227" cy="127" r="1"/><circle cx="311" cy="127" r="1"/><circle cx="227" cy="169" r="1"/><circle cx="311" cy="169" r="1"/><circle cx="227" cy="211" r="1"/><circle cx="311" cy="211" r="1"/><circle cx="227" cy="253" r="1"/><circle cx="311" cy="253" r="1"/><circle cx="227" cy="295" r="1"/><circle cx="311" cy="295" r="1"/><circle cx="213" cy="71" r="1"/><circle cx="297" cy="71" r="1"/><circle cx="213" cy="113" r="1"/><circle cx="297" cy="113" r="1"/><circle cx="213" cy="155" r="1"/><circle cx="297" cy="155" r="1"/><circle cx="213" cy="197" r="1"/><circle cx="297" cy="197" r="1"/><circle cx="213" cy="239" r="1"/><circle cx="297" cy="239" r="1"/><circle cx="213" cy="281" r="1"/><circle cx="297" cy="281" r="1"/><circle cx="213" cy="323" r="1"/><circle cx="297" cy="323" r="1"/><circle cx="199" cy="71" r="1"/><circle cx="283" cy="71" r="1"/><circle cx="199" cy="113" r="1"/><circle cx="283" cy="113" r="1"/><circle cx="199" cy="155" r="1"/><circle cx="283" cy="155" r="1"/><circle cx="199" cy="197" r="1"/><circle cx="283" cy="197" r="1"/><circle cx="199" cy="239" r="1"/><circle cx="283" cy="239" r="1"/><circle cx="199" cy="281" r="1"/><circle cx="283" cy="281" r="1"/><circle cx="199" cy="323" r="1"/><circle cx="283" cy="323" r="1"/><circle cx="227" cy="71" r="1"/><circle cx="311" cy="71" r="1"/><circle cx="227" cy="113" r="1"/><circle cx="311" cy="113" r="1"/><circle cx="227" cy="155" r="1"/><circle cx="311" cy="155" r="1"/><circle cx="227" cy="197" r="1"/><circle cx="311" cy="197" r="1"/><circle cx="227" cy="239" r="1"/><circle cx="311" cy="239" r="1"/><circle cx="227" cy="281" r="1"/><circle cx="311" cy="281" r="1"/><circle cx="227" cy="323" r="1"/><circle cx="311" cy="323" r="1"/><circle cx="339" cy="15" r="1"/><circle cx="423" cy="15" r="1"/><circle cx="325" cy="15" r="1"/><circle cx="409" cy="15" r="1"/><circle cx="353" cy="15" r="1"/><circle cx="437" cy="15" r="1"/><circle cx="339" cy="1" r="1"/><circle cx="423" cy="1" r="1"/><circle cx="325" cy="1" r="1"/><circle cx="409" cy="1" r="1"/><circle cx="353" cy="1" r="1"/><circle cx="437" cy="1" r="1"/><circle cx="339" cy="29" r="1"/><circle cx="423" cy="29" r="1"/><circle cx="325" cy="29" r="1"/><circle cx="409" cy="29" r="1"/><circle cx="353" cy="29" r="1"/><circle cx="437" cy="29" r="1"/><circle cx="381" cy="15" r="1"/><circle cx="465" cy="15" r="1"/><circle cx="367" cy="15" r="1"/><circle cx="451" cy="15" r="1"/><circle cx="395" cy="15" r="1"/><circle cx="479" cy="15" r="1"/><circle cx="381" cy="1" r="1"/><circle cx="465" cy="1" r="1"/><circle cx="367" cy="1" r="1"/><circle cx="451" cy="1" r="1"/><circle cx="395" cy="1" r="1"/><circle cx="479" cy="1" r="1"/><circle cx="381" cy="29" r="1"/><circle cx="465" cy="29" r="1"/><circle cx="367" cy="29" r="1"/><circle cx="451" cy="29" r="1"/><circle cx="395" cy="29" r="1"/><circle cx="479" cy="29" r="1"/><circle cx="339" cy="57" r="1"/><circle cx="423" cy="57" r="1"/><circle cx="339" cy="99" r="1"/><circle cx="423" cy="99" r="1"/><circle cx="339" cy="141" r="1"/><circle cx="423" cy="141" r="1"/><circle cx="339" cy="183" r="1"/><circle cx="423" cy="183" r="1"/><circle cx="339" cy="225" r="1"/><circle cx="423" cy="225" r="1"/><circle cx="339" cy="267" r="1"/><circle cx="423" cy="267" r="1"/><circle cx="339" cy="309" r="1"/><circle cx="423" cy="309" r="1"/><circle cx="325" cy="57" r="1"/><circle cx="409" cy="57" r="1"/><circle cx="325" cy="99" r="1"/><circle cx="409" cy="99" r="1"/><circle cx="325" cy="141" r="1"/><circle cx="409" cy="141" r="1"/><circle cx="325" cy="183" r="1"/><circle cx="409" cy="183" r="1"/><circle cx="325" cy="225" r="1"/><circle cx="409" cy="225" r="1"/><circle cx="325" cy="267" r="1"/><circle cx="409" cy="267" r="1"/><circle cx="325" cy="309" r="1"/><circle cx="409" cy="309" r="1"/><circle cx="353" cy="57" r="1"/><circle cx="437" cy="57" r="1"/><circle cx="353" cy="99" r="1"/><circle cx="437" cy="99" r="1"/><circle cx="353" cy="141" r="1"/><circle cx="437" cy="141" r="1"/><circle cx="353" cy="183" r="1"/><circle cx="437" cy="183" r="1"/><circle cx="353" cy="225" r="1"/><circle cx="437" cy="225" r="1"/><circle cx="353" cy="267" r="1"/><circle cx="437" cy="267" r="1"/><circle cx="353" cy="309" r="1"/><circle cx="437" cy="309" r="1"/><circle cx="339" cy="43" r="1"/><circle cx="423" cy="43" r="1"/><circle cx="339" cy="85" r="1"/><circle cx="423" cy="85" r="1"/><circle cx="339" cy="127" r="1"/><circle cx="423" cy="127" r="1"/><circle cx="339" cy="169" r="1"/><circle cx="423" cy="169" r="1"/><circle cx="339" cy="211" r="1"/><circle cx="423" cy="211" r="1"/><circle cx="339" cy="253" r="1"/><circle cx="423" cy="253" r="1"/><circle cx="339" cy="295" r="1"/><circle cx="423" cy="295" r="1"/><circle cx="325" cy="43" r="1"/><circle cx="409" cy="43" r="1"/><circle cx="325" cy="85" r="1"/><circle cx="409" cy="85" r="1"/><circle cx="325" cy="127" r="1"/><circle cx="409" cy="127" r="1"/><circle cx="325" cy="169" r="1"/><circle cx="409" cy="169" r="1"/><circle cx="325" cy="211" r="1"/><circle cx="409" cy="211" r="1"/><circle cx="325" cy="253" r="1"/><circle cx="409" cy="253" r="1"/><circle cx="325" cy="295" r="1"/><circle cx="409" cy="295" r="1"/><circle cx="353" cy="43" r="1"/><circle cx="437" cy="43" r="1"/><circle cx="353" cy="85" r="1"/><circle cx="437" cy="85" r="1"/><circle cx="353" cy="127" r="1"/><circle cx="437" cy="127" r="1"/><circle cx="353" cy="169" r="1"/><circle cx="437" cy="169" r="1"/><circle cx="353" cy="211" r="1"/><circle cx="437" cy="211" r="1"/><circle cx="353" cy="253" r="1"/><circle cx="437" cy="253" r="1"/><circle cx="353" cy="295" r="1"/><circle cx="437" cy="295" r="1"/><circle cx="339" cy="71" r="1"/><circle cx="423" cy="71" r="1"/><circle cx="339" cy="113" r="1"/><circle cx="423" cy="113" r="1"/><circle cx="339" cy="155" r="1"/><circle cx="423" cy="155" r="1"/><circle cx="339" cy="197" r="1"/><circle cx="423" cy="197" r="1"/><circle cx="339" cy="239" r="1"/><circle cx="423" cy="239" r="1"/><circle cx="339" cy="281" r="1"/><circle cx="423" cy="281" r="1"/><circle cx="339" cy="323" r="1"/><circle cx="423" cy="323" r="1"/><circle cx="325" cy="71" r="1"/><circle cx="409" cy="71" r="1"/><circle cx="325" cy="113" r="1"/><circle cx="409" cy="113" r="1"/><circle cx="325" cy="155" r="1"/><circle cx="409" cy="155" r="1"/><circle cx="325" cy="197" r="1"/><circle cx="409" cy="197" r="1"/><circle cx="325" cy="239" r="1"/><circle cx="409" cy="239" r="1"/><circle cx="325" cy="281" r="1"/><circle cx="409" cy="281" r="1"/><circle cx="325" cy="323" r="1"/><circle cx="409" cy="323" r="1"/><circle cx="353" cy="71" r="1"/><circle cx="437" cy="71" r="1"/><circle cx="353" cy="113" r="1"/><circle cx="437" cy="113" r="1"/><circle cx="353" cy="155" r="1"/><circle cx="437" cy="155" r="1"/><circle cx="353" cy="197" r="1"/><circle cx="437" cy="197" r="1"/><circle cx="353" cy="239" r="1"/><circle cx="437" cy="239" r="1"/><circle cx="353" cy="281" r="1"/><circle cx="437" cy="281" r="1"/><circle cx="353" cy="323" r="1"/><circle cx="437" cy="323" r="1"/><circle cx="381" cy="57" r="1"/><circle cx="465" cy="57" r="1"/><circle cx="381" cy="99" r="1"/><circle cx="465" cy="99" r="1"/><circle cx="381" cy="141" r="1"/><circle cx="465" cy="141" r="1"/><circle cx="381" cy="183" r="1"/><circle cx="465" cy="183" r="1"/><circle cx="381" cy="225" r="1"/><circle cx="465" cy="225" r="1"/><circle cx="381" cy="267" r="1"/><circle cx="465" cy="267" r="1"/><circle cx="381" cy="309" r="1"/><circle cx="465" cy="309" r="1"/><circle cx="367" cy="57" r="1"/><circle cx="451" cy="57" r="1"/><circle cx="367" cy="99" r="1"/><circle cx="451" cy="99" r="1"/><circle cx="367" cy="141" r="1"/><circle cx="451" cy="141" r="1"/><circle cx="367" cy="183" r="1"/><circle cx="451" cy="183" r="1"/><circle cx="367" cy="225" r="1"/><circle cx="451" cy="225" r="1"/><circle cx="367" cy="267" r="1"/><circle cx="451" cy="267" r="1"/><circle cx="367" cy="309" r="1"/><circle cx="451" cy="309" r="1"/><circle cx="395" cy="57" r="1"/><circle cx="479" cy="57" r="1"/><circle cx="395" cy="99" r="1"/><circle cx="479" cy="99" r="1"/><circle cx="395" cy="141" r="1"/><circle cx="479" cy="141" r="1"/><circle cx="395" cy="183" r="1"/><circle cx="479" cy="183" r="1"/><circle cx="395" cy="225" r="1"/><circle cx="479" cy="225" r="1"/><circle cx="395" cy="267" r="1"/><circle cx="479" cy="267" r="1"/><circle cx="395" cy="309" r="1"/><circle cx="479" cy="309" r="1"/><circle cx="381" cy="43" r="1"/><circle cx="465" cy="43" r="1"/><circle cx="381" cy="85" r="1"/><circle cx="465" cy="85" r="1"/><circle cx="381" cy="127" r="1"/><circle cx="465" cy="127" r="1"/><circle cx="381" cy="169" r="1"/><circle cx="465" cy="169" r="1"/><circle cx="381" cy="211" r="1"/><circle cx="465" cy="211" r="1"/><circle cx="381" cy="253" r="1"/><circle cx="465" cy="253" r="1"/><circle cx="381" cy="295" r="1"/><circle cx="465" cy="295" r="1"/><circle cx="367" cy="43" r="1"/><circle cx="451" cy="43" r="1"/><circle cx="367" cy="85" r="1"/><circle cx="451" cy="85" r="1"/><circle cx="367" cy="127" r="1"/><circle cx="451" cy="127" r="1"/><circle cx="367" cy="169" r="1"/><circle cx="451" cy="169" r="1"/><circle cx="367" cy="211" r="1"/><circle cx="451" cy="211" r="1"/><circle cx="367" cy="253" r="1"/><circle cx="451" cy="253" r="1"/><circle cx="367" cy="295" r="1"/><circle cx="451" cy="295" r="1"/><circle cx="395" cy="43" r="1"/><circle cx="479" cy="43" r="1"/><circle cx="395" cy="85" r="1"/><circle cx="479" cy="85" r="1"/><circle cx="395" cy="127" r="1"/><circle cx="479" cy="127" r="1"/><circle cx="395" cy="169" r="1"/><circle cx="479" cy="169" r="1"/><circle cx="395" cy="211" r="1"/><circle cx="479" cy="211" r="1"/><circle cx="395" cy="253" r="1"/><circle cx="479" cy="253" r="1"/><circle cx="395" cy="295" r="1"/><circle cx="479" cy="295" r="1"/><circle cx="381" cy="71" r="1"/><circle cx="465" cy="71" r="1"/><circle cx="381" cy="113" r="1"/><circle cx="465" cy="113" r="1"/><circle cx="381" cy="155" r="1"/><circle cx="465" cy="155" r="1"/><circle cx="381" cy="197" r="1"/><circle cx="465" cy="197" r="1"/><circle cx="381" cy="239" r="1"/><circle cx="465" cy="239" r="1"/><circle cx="381" cy="281" r="1"/><circle cx="465" cy="281" r="1"/><circle cx="381" cy="323" r="1"/><circle cx="465" cy="323" r="1"/><circle cx="367" cy="71" r="1"/><circle cx="451" cy="71" r="1"/><circle cx="367" cy="113" r="1"/><circle cx="451" cy="113" r="1"/><circle cx="367" cy="155" r="1"/><circle cx="451" cy="155" r="1"/><circle cx="367" cy="197" r="1"/><circle cx="451" cy="197" r="1"/><circle cx="367" cy="239" r="1"/><circle cx="451" cy="239" r="1"/><circle cx="367" cy="281" r="1"/><circle cx="451" cy="281" r="1"/><circle cx="367" cy="323" r="1"/><circle cx="451" cy="323" r="1"/><circle cx="395" cy="71" r="1"/><circle cx="479" cy="71" r="1"/><circle cx="395" cy="113" r="1"/><circle cx="479" cy="113" r="1"/><circle cx="395" cy="155" r="1"/><circle cx="479" cy="155" r="1"/><circle cx="395" cy="197" r="1"/><circle cx="479" cy="197" r="1"/><circle cx="395" cy="239" r="1"/><circle cx="479" cy="239" r="1"/><circle cx="395" cy="281" r="1"/><circle cx="479" cy="281" r="1"/><circle cx="395" cy="323" r="1"/><circle cx="479" cy="323" r="1"/><circle cx="507" cy="15" r="1"/><circle cx="591" cy="15" r="1"/><circle cx="493" cy="15" r="1"/><circle cx="577" cy="15" r="1"/><circle cx="521" cy="15" r="1"/><circle cx="605" cy="15" r="1"/><circle cx="507" cy="1" r="1"/><circle cx="591" cy="1" r="1"/><circle cx="493" cy="1" r="1"/><circle cx="577" cy="1" r="1"/><circle cx="521" cy="1" r="1"/><circle cx="605" cy="1" r="1"/><circle cx="507" cy="29" r="1"/><circle cx="591" cy="29" r="1"/><circle cx="493" cy="29" r="1"/><circle cx="577" cy="29" r="1"/><circle cx="521" cy="29" r="1"/><circle cx="605" cy="29" r="1"/><circle cx="549" cy="15" r="1"/><circle cx="633" cy="15" r="1"/><circle cx="535" cy="15" r="1"/><circle cx="619" cy="15" r="1"/><circle cx="563" cy="15" r="1"/><circle cx="647" cy="15" r="1"/><circle cx="549" cy="1" r="1"/><circle cx="633" cy="1" r="1"/><circle cx="535" cy="1" r="1"/><circle cx="619" cy="1" r="1"/><circle cx="563" cy="1" r="1"/><circle cx="647" cy="1" r="1"/><circle cx="549" cy="29" r="1"/><circle cx="633" cy="29" r="1"/><circle cx="535" cy="29" r="1"/><circle cx="619" cy="29" r="1"/><circle cx="563" cy="29" r="1"/><circle cx="647" cy="29" r="1"/><circle cx="507" cy="57" r="1"/><circle cx="591" cy="57" r="1"/><circle cx="507" cy="99" r="1"/><circle cx="591" cy="99" r="1"/><circle cx="507" cy="141" r="1"/><circle cx="591" cy="141" r="1"/><circle cx="507" cy="183" r="1"/><circle cx="591" cy="183" r="1"/><circle cx="507" cy="225" r="1"/><circle cx="591" cy="225" r="1"/><circle cx="507" cy="267" r="1"/><circle cx="591" cy="267" r="1"/><circle cx="507" cy="309" r="1"/><circle cx="591" cy="309" r="1"/><circle cx="493" cy="57" r="1"/><circle cx="577" cy="57" r="1"/><circle cx="493" cy="99" r="1"/><circle cx="577" cy="99" r="1"/><circle cx="493" cy="141" r="1"/><circle cx="577" cy="141" r="1"/><circle cx="493" cy="183" r="1"/><circle cx="577" cy="183" r="1"/><circle cx="493" cy="225" r="1"/><circle cx="577" cy="225" r="1"/><circle cx="493" cy="267" r="1"/><circle cx="577" cy="267" r="1"/><circle cx="493" cy="309" r="1"/><circle cx="577" cy="309" r="1"/><circle cx="521" cy="57" r="1"/><circle cx="605" cy="57" r="1"/><circle cx="521" cy="99" r="1"/><circle cx="605" cy="99" r="1"/><circle cx="521" cy="141" r="1"/><circle cx="605" cy="141" r="1"/><circle cx="521" cy="183" r="1"/><circle cx="605" cy="183" r="1"/><circle cx="521" cy="225" r="1"/><circle cx="605" cy="225" r="1"/><circle cx="521" cy="267" r="1"/><circle cx="605" cy="267" r="1"/><circle cx="521" cy="309" r="1"/><circle cx="605" cy="309" r="1"/><circle cx="507" cy="43" r="1"/><circle cx="591" cy="43" r="1"/><circle cx="507" cy="85" r="1"/><circle cx="591" cy="85" r="1"/><circle cx="507" cy="127" r="1"/><circle cx="591" cy="127" r="1"/><circle cx="507" cy="169" r="1"/><circle cx="591" cy="169" r="1"/><circle cx="507" cy="211" r="1"/><circle cx="591" cy="211" r="1"/><circle cx="507" cy="253" r="1"/><circle cx="591" cy="253" r="1"/><circle cx="507" cy="295" r="1"/><circle cx="591" cy="295" r="1"/><circle cx="493" cy="43" r="1"/><circle cx="577" cy="43" r="1"/><circle cx="493" cy="85" r="1"/><circle cx="577" cy="85" r="1"/><circle cx="493" cy="127" r="1"/><circle cx="577" cy="127" r="1"/><circle cx="493" cy="169" r="1"/><circle cx="577" cy="169" r="1"/><circle cx="493" cy="211" r="1"/><circle cx="577" cy="211" r="1"/><circle cx="493" cy="253" r="1"/><circle cx="577" cy="253" r="1"/><circle cx="493" cy="295" r="1"/><circle cx="577" cy="295" r="1"/><circle cx="521" cy="43" r="1"/><circle cx="605" cy="43" r="1"/><circle cx="521" cy="85" r="1"/><circle cx="605" cy="85" r="1"/><circle cx="521" cy="127" r="1"/><circle cx="605" cy="127" r="1"/><circle cx="521" cy="169" r="1"/><circle cx="605" cy="169" r="1"/><circle cx="521" cy="211" r="1"/><circle cx="605" cy="211" r="1"/><circle cx="521" cy="253" r="1"/><circle cx="605" cy="253" r="1"/><circle cx="521" cy="295" r="1"/><circle cx="605" cy="295" r="1"/><circle cx="507" cy="71" r="1"/><circle cx="591" cy="71" r="1"/><circle cx="507" cy="113" r="1"/><circle cx="591" cy="113" r="1"/><circle cx="507" cy="155" r="1"/><circle cx="591" cy="155" r="1"/><circle cx="507" cy="197" r="1"/><circle cx="591" cy="197" r="1"/><circle cx="507" cy="239" r="1"/><circle cx="591" cy="239" r="1"/><circle cx="507" cy="281" r="1"/><circle cx="591" cy="281" r="1"/><circle cx="507" cy="323" r="1"/><circle cx="591" cy="323" r="1"/><circle cx="493" cy="71" r="1"/><circle cx="577" cy="71" r="1"/><circle cx="493" cy="113" r="1"/><circle cx="577" cy="113" r="1"/><circle cx="493" cy="155" r="1"/><circle cx="577" cy="155" r="1"/><circle cx="493" cy="197" r="1"/><circle cx="577" cy="197" r="1"/><circle cx="493" cy="239" r="1"/><circle cx="577" cy="239" r="1"/><circle cx="493" cy="281" r="1"/><circle cx="577" cy="281" r="1"/><circle cx="493" cy="323" r="1"/><circle cx="577" cy="323" r="1"/><circle cx="521" cy="71" r="1"/><circle cx="605" cy="71" r="1"/><circle cx="521" cy="113" r="1"/><circle cx="605" cy="113" r="1"/><circle cx="521" cy="155" r="1"/><circle cx="605" cy="155" r="1"/><circle cx="521" cy="197" r="1"/><circle cx="605" cy="197" r="1"/><circle cx="521" cy="239" r="1"/><circle cx="605" cy="239" r="1"/><circle cx="521" cy="281" r="1"/><circle cx="605" cy="281" r="1"/><circle cx="521" cy="323" r="1"/><circle cx="605" cy="323" r="1"/><circle cx="549" cy="57" r="1"/><circle cx="633" cy="57" r="1"/><circle cx="549" cy="99" r="1"/><circle cx="633" cy="99" r="1"/><circle cx="549" cy="141" r="1"/><circle cx="633" cy="141" r="1"/><circle cx="549" cy="183" r="1"/><circle cx="633" cy="183" r="1"/><circle cx="549" cy="225" r="1"/><circle cx="633" cy="225" r="1"/><circle cx="549" cy="267" r="1"/><circle cx="633" cy="267" r="1"/><circle cx="549" cy="309" r="1"/><circle cx="633" cy="309" r="1"/><circle cx="535" cy="57" r="1"/><circle cx="619" cy="57" r="1"/><circle cx="535" cy="99" r="1"/><circle cx="619" cy="99" r="1"/><circle cx="535" cy="141" r="1"/><circle cx="619" cy="141" r="1"/><circle cx="535" cy="183" r="1"/><circle cx="619" cy="183" r="1"/><circle cx="535" cy="225" r="1"/><circle cx="619" cy="225" r="1"/><circle cx="535" cy="267" r="1"/><circle cx="619" cy="267" r="1"/><circle cx="535" cy="309" r="1"/><circle cx="619" cy="309" r="1"/><circle cx="563" cy="57" r="1"/><circle cx="647" cy="57" r="1"/><circle cx="563" cy="99" r="1"/><circle cx="647" cy="99" r="1"/><circle cx="563" cy="141" r="1"/><circle cx="647" cy="141" r="1"/><circle cx="563" cy="183" r="1"/><circle cx="647" cy="183" r="1"/><circle cx="563" cy="225" r="1"/><circle cx="647" cy="225" r="1"/><circle cx="563" cy="267" r="1"/><circle cx="647" cy="267" r="1"/><circle cx="563" cy="309" r="1"/><circle cx="647" cy="309" r="1"/><circle cx="549" cy="43" r="1"/><circle cx="633" cy="43" r="1"/><circle cx="549" cy="85" r="1"/><circle cx="633" cy="85" r="1"/><circle cx="549" cy="127" r="1"/><circle cx="633" cy="127" r="1"/><circle cx="549" cy="169" r="1"/><circle cx="633" cy="169" r="1"/><circle cx="549" cy="211" r="1"/><circle cx="633" cy="211" r="1"/><circle cx="549" cy="253" r="1"/><circle cx="633" cy="253" r="1"/><circle cx="549" cy="295" r="1"/><circle cx="633" cy="295" r="1"/><circle cx="535" cy="43" r="1"/><circle cx="619" cy="43" r="1"/><circle cx="535" cy="85" r="1"/><circle cx="619" cy="85" r="1"/><circle cx="535" cy="127" r="1"/><circle cx="619" cy="127" r="1"/><circle cx="535" cy="169" r="1"/><circle cx="619" cy="169" r="1"/><circle cx="535" cy="211" r="1"/><circle cx="619" cy="211" r="1"/><circle cx="535" cy="253" r="1"/><circle cx="619" cy="253" r="1"/><circle cx="535" cy="295" r="1"/><circle cx="619" cy="295" r="1"/><circle cx="563" cy="43" r="1"/><circle cx="647" cy="43" r="1"/><circle cx="563" cy="85" r="1"/><circle cx="647" cy="85" r="1"/><circle cx="563" cy="127" r="1"/><circle cx="647" cy="127" r="1"/><circle cx="563" cy="169" r="1"/><circle cx="647" cy="169" r="1"/><circle cx="563" cy="211" r="1"/><circle cx="647" cy="211" r="1"/><circle cx="563" cy="253" r="1"/><circle cx="647" cy="253" r="1"/><circle cx="563" cy="295" r="1"/><circle cx="647" cy="295" r="1"/><circle cx="549" cy="71" r="1"/><circle cx="633" cy="71" r="1"/><circle cx="549" cy="113" r="1"/><circle cx="633" cy="113" r="1"/><circle cx="549" cy="155" r="1"/><circle cx="633" cy="155" r="1"/><circle cx="549" cy="197" r="1"/><circle cx="633" cy="197" r="1"/><circle cx="549" cy="239" r="1"/><circle cx="633" cy="239" r="1"/><circle cx="549" cy="281" r="1"/><circle cx="633" cy="281" r="1"/><circle cx="549" cy="323" r="1"/><circle cx="633" cy="323" r="1"/><circle cx="535" cy="71" r="1"/><circle cx="619" cy="71" r="1"/><circle cx="535" cy="113" r="1"/><circle cx="619" cy="113" r="1"/><circle cx="535" cy="155" r="1"/><circle cx="619" cy="155" r="1"/><circle cx="535" cy="197" r="1"/><circle cx="619" cy="197" r="1"/><circle cx="535" cy="239" r="1"/><circle cx="619" cy="239" r="1"/><circle cx="535" cy="281" r="1"/><circle cx="619" cy="281" r="1"/><circle cx="535" cy="323" r="1"/><circle cx="619" cy="323" r="1"/><circle cx="563" cy="71" r="1"/><circle cx="647" cy="71" r="1"/><circle cx="563" cy="113" r="1"/><circle cx="647" cy="113" r="1"/><circle cx="563" cy="155" r="1"/><circle cx="647" cy="155" r="1"/><circle cx="563" cy="197" r="1"/><circle cx="647" cy="197" r="1"/><circle cx="563" cy="239" r="1"/><circle cx="647" cy="239" r="1"/><circle cx="563" cy="281" r="1"/><circle cx="647" cy="281" r="1"/><circle cx="563" cy="323" r="1"/><circle cx="647" cy="323" r="1"/><circle cx="675" cy="15" r="1"/><circle cx="661" cy="15" r="1"/><circle cx="689" cy="15" r="1"/><circle cx="675" cy="1" r="1"/><circle cx="661" cy="1" r="1"/><circle cx="689" cy="1" r="1"/><circle cx="675" cy="29" r="1"/><circle cx="661" cy="29" r="1"/><circle cx="689" cy="29" r="1"/><circle cx="675" cy="57" r="1"/><circle cx="675" cy="99" r="1"/><circle cx="675" cy="141" r="1"/><circle cx="675" cy="183" r="1"/><circle cx="675" cy="225" r="1"/><circle cx="675" cy="267" r="1"/><circle cx="675" cy="309" r="1"/><circle cx="661" cy="57" r="1"/><circle cx="661" cy="99" r="1"/><circle cx="661" cy="141" r="1"/><circle cx="661" cy="183" r="1"/><circle cx="661" cy="225" r="1"/><circle cx="661" cy="267" r="1"/><circle cx="661" cy="309" r="1"/><circle cx="689" cy="57" r="1"/><circle cx="689" cy="99" r="1"/><circle cx="689" cy="141" r="1"/><circle cx="689" cy="183" r="1"/><circle cx="689" cy="225" r="1"/><circle cx="689" cy="267" r="1"/><circle cx="689" cy="309" r="1"/><circle cx="675" cy="43" r="1"/><circle cx="675" cy="85" r="1"/><circle cx="675" cy="127" r="1"/><circle cx="675" cy="169" r="1"/><circle cx="675" cy="211" r="1"/><circle cx="675" cy="253" r="1"/><circle cx="675" cy="295" r="1"/><circle cx="661" cy="43" r="1"/><circle cx="661" cy="85" r="1"/><circle cx="661" cy="127" r="1"/><circle cx="661" cy="169" r="1"/><circle cx="661" cy="211" r="1"/><circle cx="661" cy="253" r="1"/><circle cx="661" cy="295" r="1"/><circle cx="689" cy="43" r="1"/><circle cx="689" cy="85" r="1"/><circle cx="689" cy="127" r="1"/><circle cx="689" cy="169" r="1"/><circle cx="689" cy="211" r="1"/><circle cx="689" cy="253" r="1"/><circle cx="689" cy="295" r="1"/><circle cx="675" cy="71" r="1"/><circle cx="675" cy="113" r="1"/><circle cx="675" cy="155" r="1"/><circle cx="675" cy="197" r="1"/><circle cx="675" cy="239" r="1"/><circle cx="675" cy="281" r="1"/><circle cx="675" cy="323" r="1"/><circle cx="661" cy="71" r="1"/><circle cx="661" cy="113" r="1"/><circle cx="661" cy="155" r="1"/><circle cx="661" cy="197" r="1"/><circle cx="661" cy="239" r="1"/><circle cx="661" cy="281" r="1"/><circle cx="661" cy="323" r="1"/><circle cx="689" cy="71" r="1"/><circle cx="689" cy="113" r="1"/><circle cx="689" cy="155" r="1"/><circle cx="689" cy="197" r="1"/><circle cx="689" cy="239" r="1"/><circle cx="689" cy="281" r="1"/><circle cx="689" cy="323" r="1"/><circle cx="703" cy="15" r="1"/><circle cx="703" cy="1" r="1"/><circle cx="703" cy="29" r="1"/><circle cx="703" cy="57" r="1"/><circle cx="703" cy="99" r="1"/><circle cx="703" cy="141" r="1"/><circle cx="703" cy="183" r="1"/><circle cx="703" cy="225" r="1"/><circle cx="703" cy="267" r="1"/><circle cx="703" cy="309" r="1"/><circle cx="703" cy="43" r="1"/><circle cx="703" cy="85" r="1"/><circle cx="703" cy="127" r="1"/><circle cx="703" cy="169" r="1"/><circle cx="703" cy="211" r="1"/><circle cx="703" cy="253" r="1"/><circle cx="703" cy="295" r="1"/><circle cx="703" cy="71" r="1"/><circle cx="703" cy="113" r="1"/><circle cx="703" cy="155" r="1"/><circle cx="703" cy="197" r="1"/><circle cx="703" cy="239" r="1"/><circle cx="703" cy="281" r="1"/><circle cx="717" cy="15" r="1"/><circle cx="717" cy="1" r="1"/><circle cx="717" cy="29" r="1"/><circle cx="717" cy="57" r="1"/><circle cx="717" cy="99" r="1"/><circle cx="717" cy="141" r="1"/><circle cx="717" cy="183" r="1"/><circle cx="717" cy="225" r="1"/><circle cx="717" cy="267" r="1"/><circle cx="717" cy="309" r="1"/><circle cx="717" cy="43" r="1"/><circle cx="717" cy="85" r="1"/><circle cx="717" cy="127" r="1"/><circle cx="717" cy="169" r="1"/><circle cx="717" cy="211" r="1"/><circle cx="717" cy="253" r="1"/><circle cx="717" cy="295" r="1"/><circle cx="717" cy="71" r="1"/><circle cx="717" cy="113" r="1"/><circle cx="717" cy="155" r="1"/><circle cx="717" cy="197" r="1"/><circle cx="717" cy="239" r="1"/><circle cx="717" cy="281" r="1"/><circle cx="703" cy="323" r="1"/><circle cx="3" cy="337" r="1"/><circle cx="87" cy="337" r="1"/><circle cx="73" cy="337" r="1"/><circle cx="17" cy="337" r="1"/><circle cx="101" cy="337" r="1"/><circle cx="3" cy="323" r="1"/><circle cx="87" cy="323" r="1"/><circle cx="73" cy="323" r="1"/><circle cx="17" cy="323" r="1"/><circle cx="101" cy="323" r="1"/><circle cx="3" cy="351" r="1"/><circle cx="87" cy="351" r="1"/><circle cx="73" cy="351" r="1"/><circle cx="17" cy="351" r="1"/><circle cx="101" cy="351" r="1"/><circle cx="45" cy="337" r="1"/><circle cx="129" cy="337" r="1"/><circle cx="31" cy="337" r="1"/><circle cx="115" cy="337" r="1"/><circle cx="59" cy="337" r="1"/><circle cx="143" cy="337" r="1"/><circle cx="45" cy="323" r="1"/><circle cx="129" cy="323" r="1"/><circle cx="31" cy="323" r="1"/><circle cx="115" cy="323" r="1"/><circle cx="59" cy="323" r="1"/><circle cx="143" cy="323" r="1"/><circle cx="45" cy="351" r="1"/><circle cx="129" cy="351" r="1"/><circle cx="31" cy="351" r="1"/><circle cx="115" cy="351" r="1"/><circle cx="59" cy="351" r="1"/><circle cx="143" cy="351" r="1"/><circle cx="3" cy="379" r="1"/><circle cx="87" cy="379" r="1"/><circle cx="3" cy="421" r="1"/><circle cx="87" cy="421" r="1"/><circle cx="73" cy="379" r="1"/><circle cx="73" cy="421" r="1"/><circle cx="17" cy="379" r="1"/><circle cx="101" cy="379" r="1"/><circle cx="17" cy="421" r="1"/><circle cx="101" cy="421" r="1"/><circle cx="3" cy="365" r="1"/><circle cx="87" cy="365" r="1"/><circle cx="3" cy="407" r="1"/><circle cx="87" cy="407" r="1"/><circle cx="73" cy="365" r="1"/><circle cx="73" cy="407" r="1"/><circle cx="17" cy="365" r="1"/><circle cx="101" cy="365" r="1"/><circle cx="17" cy="407" r="1"/><circle cx="101" cy="407" r="1"/><circle cx="3" cy="393" r="1"/><circle cx="87" cy="393" r="1"/><circle cx="3" cy="435" r="1"/><circle cx="87" cy="435" r="1"/><circle cx="73" cy="393" r="1"/><circle cx="73" cy="435" r="1"/><circle cx="17" cy="393" r="1"/><circle cx="101" cy="393" r="1"/><circle cx="17" cy="435" r="1"/><circle cx="101" cy="435" r="1"/><circle cx="45" cy="379" r="1"/><circle cx="129" cy="379" r="1"/><circle cx="45" cy="421" r="1"/><circle cx="129" cy="421" r="1"/><circle cx="31" cy="379" r="1"/><circle cx="115" cy="379" r="1"/><circle cx="31" cy="421" r="1"/><circle cx="115" cy="421" r="1"/><circle cx="59" cy="379" r="1"/><circle cx="143" cy="379" r="1"/><circle cx="59" cy="421" r="1"/><circle cx="143" cy="421" r="1"/><circle cx="45" cy="365" r="1"/><circle cx="129" cy="365" r="1"/><circle cx="45" cy="407" r="1"/><circle cx="129" cy="407" r="1"/><circle cx="31" cy="365" r="1"/><circle cx="115" cy="365" r="1"/><circle cx="31" cy="407" r="1"/><circle cx="115" cy="407" r="1"/><circle cx="59" cy="365" r="1"/><circle cx="143" cy="365" r="1"/><circle cx="59" cy="407" r="1"/><circle cx="143" cy="407" r="1"/><circle cx="45" cy="393" r="1"/><circle cx="129" cy="393" r="1"/><circle cx="45" cy="435" r="1"/><circle cx="129" cy="435" r="1"/><circle cx="31" cy="393" r="1"/><circle cx="115" cy="393" r="1"/><circle cx="31" cy="435" r="1"/><circle cx="115" cy="435" r="1"/><circle cx="59" cy="393" r="1"/><circle cx="143" cy="393" r="1"/><circle cx="59" cy="435" r="1"/><circle cx="143" cy="435" r="1"/><circle cx="171" cy="337" r="1"/><circle cx="255" cy="337" r="1"/><circle cx="157" cy="337" r="1"/><circle cx="241" cy="337" r="1"/><circle cx="185" cy="337" r="1"/><circle cx="269" cy="337" r="1"/><circle cx="171" cy="323" r="1"/><circle cx="255" cy="323" r="1"/><circle cx="157" cy="323" r="1"/><circle cx="241" cy="323" r="1"/><circle cx="185" cy="323" r="1"/><circle cx="269" cy="323" r="1"/><circle cx="171" cy="351" r="1"/><circle cx="255" cy="351" r="1"/><circle cx="157" cy="351" r="1"/><circle cx="241" cy="351" r="1"/><circle cx="185" cy="351" r="1"/><circle cx="269" cy="351" r="1"/><circle cx="213" cy="337" r="1"/><circle cx="297" cy="337" r="1"/><circle cx="199" cy="337" r="1"/><circle cx="283" cy="337" r="1"/><circle cx="227" cy="337" r="1"/><circle cx="311" cy="337" r="1"/><circle cx="213" cy="323" r="1"/><circle cx="297" cy="323" r="1"/><circle cx="199" cy="323" r="1"/><circle cx="283" cy="323" r="1"/><circle cx="227" cy="323" r="1"/><circle cx="311" cy="323" r="1"/><circle cx="213" cy="351" r="1"/><circle cx="297" cy="351" r="1"/><circle cx="199" cy="351" r="1"/><circle cx="283" cy="351" r="1"/><circle cx="227" cy="351" r="1"/><circle cx="311" cy="351" r="1"/><circle cx="171" cy="379" r="1"/><circle cx="255" cy="379" r="1"/><circle cx="171" cy="421" r="1"/><circle cx="255" cy="421" r="1"/><circle cx="157" cy="379" r="1"/><circle cx="241" cy="379" r="1"/><circle cx="157" cy="421" r="1"/><circle cx="241" cy="421" r="1"/><circle cx="185" cy="379" r="1"/><circle cx="269" cy="379" r="1"/><circle cx="185" cy="421" r="1"/><circle cx="269" cy="421" r="1"/><circle cx="171" cy="365" r="1"/><circle cx="255" cy="365" r="1"/><circle cx="171" cy="407" r="1"/><circle cx="255" cy="407" r="1"/><circle cx="157" cy="365" r="1"/><circle cx="241" cy="365" r="1"/><circle cx="157" cy="407" r="1"/><circle cx="241" cy="407" r="1"/><circle cx="185" cy="365" r="1"/><circle cx="269" cy="365" r="1"/><circle cx="185" cy="407" r="1"/><circle cx="269" cy="407" r="1"/><circle cx="171" cy="393" r="1"/><circle cx="255" cy="393" r="1"/><circle cx="171" cy="435" r="1"/><circle cx="255" cy="435" r="1"/><circle cx="157" cy="393" r="1"/><circle cx="241" cy="393" r="1"/><circle cx="157" cy="435" r="1"/><circle cx="241" cy="435" r="1"/><circle cx="185" cy="393" r="1"/><circle cx="269" cy="393" r="1"/><circle cx="185" cy="435" r="1"/><circle cx="269" cy="435" r="1"/><circle cx="213" cy="379" r="1"/><circle cx="297" cy="379" r="1"/><circle cx="213" cy="421" r="1"/><circle cx="297" cy="421" r="1"/><circle cx="199" cy="379" r="1"/><circle cx="283" cy="379" r="1"/><circle cx="199" cy="421" r="1"/><circle cx="283" cy="421" r="1"/><circle cx="227" cy="379" r="1"/><circle cx="311" cy="379" r="1"/><circle cx="227" cy="421" r="1"/><circle cx="311" cy="421" r="1"/><circle cx="213" cy="365" r="1"/><circle cx="297" cy="365" r="1"/><circle cx="213" cy="407" r="1"/><circle cx="297" cy="407" r="1"/><circle cx="199" cy="365" r="1"/><circle cx="283" cy="365" r="1"/><circle cx="199" cy="407" r="1"/><circle cx="283" cy="407" r="1"/><circle cx="227" cy="365" r="1"/><circle cx="311" cy="365" r="1"/><circle cx="227" cy="407" r="1"/><circle cx="311" cy="407" r="1"/><circle cx="213" cy="393" r="1"/><circle cx="297" cy="393" r="1"/><circle cx="213" cy="435" r="1"/><circle cx="297" cy="435" r="1"/><circle cx="199" cy="393" r="1"/><circle cx="283" cy="393" r="1"/><circle cx="199" cy="435" r="1"/><circle cx="283" cy="435" r="1"/><circle cx="227" cy="393" r="1"/><circle cx="311" cy="393" r="1"/><circle cx="227" cy="435" r="1"/><circle cx="311" cy="435" r="1"/><circle cx="339" cy="337" r="1"/><circle cx="423" cy="337" r="1"/><circle cx="325" cy="337" r="1"/><circle cx="409" cy="337" r="1"/><circle cx="353" cy="337" r="1"/><circle cx="437" cy="337" r="1"/><circle cx="339" cy="323" r="1"/><circle cx="423" cy="323" r="1"/><circle cx="325" cy="323" r="1"/><circle cx="409" cy="323" r="1"/><circle cx="353" cy="323" r="1"/><circle cx="437" cy="323" r="1"/><circle cx="339" cy="351" r="1"/><circle cx="423" cy="351" r="1"/><circle cx="325" cy="351" r="1"/><circle cx="409" cy="351" r="1"/><circle cx="353" cy="351" r="1"/><circle cx="437" cy="351" r="1"/><circle cx="381" cy="337" r="1"/><circle cx="465" cy="337" r="1"/><circle cx="367" cy="337" r="1"/><circle cx="451" cy="337" r="1"/><circle cx="395" cy="337" r="1"/><circle cx="479" cy="337" r="1"/><circle cx="381" cy="323" r="1"/><circle cx="465" cy="323" r="1"/><circle cx="367" cy="323" r="1"/><circle cx="451" cy="323" r="1"/><circle cx="395" cy="323" r="1"/><circle cx="479" cy="323" r="1"/><circle cx="381" cy="351" r="1"/><circle cx="465" cy="351" r="1"/><circle cx="367" cy="351" r="1"/><circle cx="451" cy="351" r="1"/><circle cx="395" cy="351" r="1"/><circle cx="479" cy="351" r="1"/><circle cx="339" cy="379" r="1"/><circle cx="423" cy="379" r="1"/><circle cx="339" cy="421" r="1"/><circle cx="423" cy="421" r="1"/><circle cx="325" cy="379" r="1"/><circle cx="409" cy="379" r="1"/><circle cx="325" cy="421" r="1"/><circle cx="409" cy="421" r="1"/><circle cx="353" cy="379" r="1"/><circle cx="437" cy="379" r="1"/><circle cx="353" cy="421" r="1"/><circle cx="437" cy="421" r="1"/><circle cx="339" cy="365" r="1"/><circle cx="423" cy="365" r="1"/><circle cx="339" cy="407" r="1"/><circle cx="423" cy="407" r="1"/><circle cx="325" cy="365" r="1"/><circle cx="409" cy="365" r="1"/><circle cx="325" cy="407" r="1"/><circle cx="409" cy="407" r="1"/><circle cx="353" cy="365" r="1"/><circle cx="437" cy="365" r="1"/><circle cx="353" cy="407" r="1"/><circle cx="437" cy="407" r="1"/><circle cx="339" cy="393" r="1"/><circle cx="423" cy="393" r="1"/><circle cx="339" cy="435" r="1"/><circle cx="423" cy="435" r="1"/><circle cx="325" cy="393" r="1"/><circle cx="409" cy="393" r="1"/><circle cx="325" cy="435" r="1"/><circle cx="409" cy="435" r="1"/><circle cx="353" cy="393" r="1"/><circle cx="437" cy="393" r="1"/><circle cx="353" cy="435" r="1"/><circle cx="437" cy="435" r="1"/><circle cx="381" cy="379" r="1"/><circle cx="465" cy="379" r="1"/><circle cx="381" cy="421" r="1"/><circle cx="465" cy="421" r="1"/><circle cx="367" cy="379" r="1"/><circle cx="451" cy="379" r="1"/><circle cx="367" cy="421" r="1"/><circle cx="451" cy="421" r="1"/><circle cx="395" cy="379" r="1"/><circle cx="479" cy="379" r="1"/><circle cx="395" cy="421" r="1"/><circle cx="479" cy="421" r="1"/><circle cx="381" cy="365" r="1"/><circle cx="465" cy="365" r="1"/><circle cx="381" cy="407" r="1"/><circle cx="465" cy="407" r="1"/><circle cx="367" cy="365" r="1"/><circle cx="451" cy="365" r="1"/><circle cx="367" cy="407" r="1"/><circle cx="451" cy="407" r="1"/><circle cx="395" cy="365" r="1"/><circle cx="479" cy="365" r="1"/><circle cx="395" cy="407" r="1"/><circle cx="479" cy="407" r="1"/><circle cx="381" cy="393" r="1"/><circle cx="465" cy="393" r="1"/><circle cx="381" cy="435" r="1"/><circle cx="465" cy="435" r="1"/><circle cx="367" cy="393" r="1"/><circle cx="451" cy="393" r="1"/><circle cx="367" cy="435" r="1"/><circle cx="451" cy="435" r="1"/><circle cx="395" cy="393" r="1"/><circle cx="479" cy="393" r="1"/><circle cx="395" cy="435" r="1"/><circle cx="479" cy="435" r="1"/><circle cx="507" cy="337" r="1"/><circle cx="591" cy="337" r="1"/><circle cx="493" cy="337" r="1"/><circle cx="577" cy="337" r="1"/><circle cx="521" cy="337" r="1"/><circle cx="605" cy="337" r="1"/><circle cx="507" cy="323" r="1"/><circle cx="591" cy="323" r="1"/><circle cx="493" cy="323" r="1"/><circle cx="577" cy="323" r="1"/><circle cx="521" cy="323" r="1"/><circle cx="605" cy="323" r="1"/><circle cx="507" cy="351" r="1"/><circle cx="591" cy="351" r="1"/><circle cx="493" cy="351" r="1"/><circle cx="577" cy="351" r="1"/><circle cx="521" cy="351" r="1"/><circle cx="605" cy="351" r="1"/><circle cx="549" cy="337" r="1"/><circle cx="633" cy="337" r="1"/><circle cx="535" cy="337" r="1"/><circle cx="619" cy="337" r="1"/><circle cx="563" cy="337" r="1"/><circle cx="647" cy="337" r="1"/><circle cx="549" cy="323" r="1"/><circle cx="633" cy="323" r="1"/><circle cx="535" cy="323" r="1"/><circle cx="619" cy="323" r="1"/><circle cx="563" cy="323" r="1"/><circle cx="647" cy="323" r="1"/><circle cx="549" cy="351" r="1"/><circle cx="633" cy="351" r="1"/><circle cx="535" cy="351" r="1"/><circle cx="619" cy="351" r="1"/><circle cx="563" cy="351" r="1"/><circle cx="647" cy="351" r="1"/><circle cx="507" cy="379" r="1"/><circle cx="591" cy="379" r="1"/><circle cx="507" cy="421" r="1"/><circle cx="591" cy="421" r="1"/><circle cx="493" cy="379" r="1"/><circle cx="577" cy="379" r="1"/><circle cx="493" cy="421" r="1"/><circle cx="577" cy="421" r="1"/><circle cx="521" cy="379" r="1"/><circle cx="605" cy="379" r="1"/><circle cx="521" cy="421" r="1"/><circle cx="605" cy="421" r="1"/><circle cx="507" cy="365" r="1"/><circle cx="591" cy="365" r="1"/><circle cx="507" cy="407" r="1"/><circle cx="591" cy="407" r="1"/><circle cx="493" cy="365" r="1"/><circle cx="577" cy="365" r="1"/><circle cx="493" cy="407" r="1"/><circle cx="577" cy="407" r="1"/><circle cx="521" cy="365" r="1"/><circle cx="605" cy="365" r="1"/><circle cx="521" cy="407" r="1"/><circle cx="605" cy="407" r="1"/><circle cx="507" cy="393" r="1"/><circle cx="591" cy="393" r="1"/><circle cx="507" cy="435" r="1"/><circle cx="591" cy="435" r="1"/><circle cx="493" cy="393" r="1"/><circle cx="577" cy="393" r="1"/><circle cx="493" cy="435" r="1"/><circle cx="577" cy="435" r="1"/><circle cx="521" cy="393" r="1"/><circle cx="605" cy="393" r="1"/><circle cx="521" cy="435" r="1"/><circle cx="605" cy="435" r="1"/><circle cx="549" cy="379" r="1"/><circle cx="633" cy="379" r="1"/><circle cx="549" cy="421" r="1"/><circle cx="633" cy="421" r="1"/><circle cx="535" cy="379" r="1"/><circle cx="619" cy="379" r="1"/><circle cx="535" cy="421" r="1"/><circle cx="619" cy="421" r="1"/><circle cx="563" cy="379" r="1"/><circle cx="647" cy="379" r="1"/><circle cx="563" cy="421" r="1"/><circle cx="647" cy="421" r="1"/><circle cx="549" cy="365" r="1"/><circle cx="633" cy="365" r="1"/><circle cx="549" cy="407" r="1"/><circle cx="633" cy="407" r="1"/><circle cx="535" cy="365" r="1"/><circle cx="619" cy="365" r="1"/><circle cx="535" cy="407" r="1"/><circle cx="619" cy="407" r="1"/><circle cx="563" cy="365" r="1"/><circle cx="647" cy="365" r="1"/><circle cx="563" cy="407" r="1"/><circle cx="647" cy="407" r="1"/><circle cx="549" cy="393" r="1"/><circle cx="633" cy="393" r="1"/><circle cx="549" cy="435" r="1"/><circle cx="633" cy="435" r="1"/><circle cx="535" cy="393" r="1"/><circle cx="619" cy="393" r="1"/><circle cx="535" cy="435" r="1"/><circle cx="619" cy="435" r="1"/><circle cx="563" cy="393" r="1"/><circle cx="647" cy="393" r="1"/><circle cx="563" cy="435" r="1"/><circle cx="647" cy="435" r="1"/><circle cx="675" cy="337" r="1"/><circle cx="661" cy="337" r="1"/><circle cx="689" cy="337" r="1"/><circle cx="675" cy="323" r="1"/><circle cx="661" cy="323" r="1"/><circle cx="689" cy="323" r="1"/><circle cx="675" cy="351" r="1"/><circle cx="661" cy="351" r="1"/><circle cx="689" cy="351" r="1"/><circle cx="675" cy="379" r="1"/><circle cx="675" cy="421" r="1"/><circle cx="661" cy="379" r="1"/><circle cx="661" cy="421" r="1"/><circle cx="689" cy="379" r="1"/><circle cx="689" cy="421" r="1"/><circle cx="675" cy="365" r="1"/><circle cx="675" cy="407" r="1"/><circle cx="661" cy="365" r="1"/><circle cx="661" cy="407" r="1"/><circle cx="689" cy="365" r="1"/><circle cx="689" cy="407" r="1"/><circle cx="675" cy="393" r="1"/><circle cx="675" cy="435" r="1"/><circle cx="661" cy="393" r="1"/><circle cx="661" cy="435" r="1"/><circle cx="689" cy="393" r="1"/><circle cx="689" cy="435" r="1"/><circle cx="703" cy="337" r="1"/><circle cx="703" cy="323" r="1"/><circle cx="703" cy="351" r="1"/><circle cx="703" cy="379" r="1"/><circle cx="703" cy="421" r="1"/><circle cx="703" cy="365" r="1"/><circle cx="703" cy="407" r="1"/><circle cx="703" cy="393" r="1"/><circle cx="703" cy="435" r="1"/><circle cx="717" cy="337" r="1"/><circle cx="717" cy="323" r="1"/><circle cx="717" cy="351" r="1"/><circle cx="717" cy="379" r="1"/><circle cx="717" cy="421" r="1"/><circle cx="717" cy="365" r="1"/><circle cx="717" cy="407" r="1"/><circle cx="717" cy="393" r="1"/><circle cx="717" cy="435" r="1"/></g><rect width="372.5" height="67.5" x="16.3" y="30.3" rx="3.8"/><rect width="372.5" height="67.5" x="16.3" y="30.3" stroke="#f53d7d" stroke-dasharray="6 6" stroke-width=".5" rx="3.8"/><rect width="72.5" height="15.5" x="28.3" y="22.3" fill="#4e2232" rx="1.8"/><rect width="72.5" height="15.5" x="28.3" y="22.3" stroke="#ee5389" stroke-width=".5" rx="1.8"/><path fill="#fff" d="M34 26.7V34h-1.3v-7.3zm3.8 7.4q-.8 0-1.4-.3a2 2 0 0 1-1-1q-.2-.7-.2-1.5t.3-1.5q.3-.6.9-1 .6-.3 1.4-.3t1.4.3.9 1 .3 1.5-.3 1.5-1 1q-.5.3-1.3.3m0-1q.4 0 .7-.3t.4-.6.2-1l-.2-.8-.4-.7-.7-.2q-.5 0-.7.2l-.5.7-.1.9.1.9q.2.4.5.6.2.3.7.3m3-5.3v-1h5.8v1h-2.2V34H43v-6.2zm9.4 6.2v-7.3H53q.8 0 1.4.3.5.4.8.9t.3 1.2-.3 1.3l-.8.8q-.6.3-1.5.3h-1.8v-1h1.7l.8-.2q.3-.2.4-.5t.2-.7-.2-.6-.4-.5l-.8-.2h-1.3V34zm7.7-7.3V34h-1.3v-7.3zm2.9 7.4-1-.2-.6-.5q-.2-.4-.2-1l.1-.7.5-.5.7-.3h.7l.8-.2.4-.1q.2 0 .2-.3 0-.4-.3-.6t-.6-.2-.8.2-.4.5l-1.2-.2.5-.9.8-.5 1-.1h.8l.7.4q.4.2.6.5.2.4.2 1V34h-1.3v-.7l-.3.4-.6.3zm.3-1h.7l.4-.5.2-.6v-.6h-.2l-.3.2h-.7l-.5.2-.4.2-.1.4q0 .4.3.6t.6.2m6.6-4.7v1h-3.2v-1zm-2.4-1.3h1.3v5.6l.3.1h.7l.2 1-.3.1h-1.3l-.7-.6q-.2-.3-.2-.8zm6.2 1.3v1h-3.2v-1zM69.1 34v-6q0-.5.2-.9t.6-.5.9-.2h.6l.4.1-.3 1H71l-.5.1-.1.5V34zm5.6.1q-.8 0-1.4-.3l-.9-1q-.3-.7-.3-1.5t.3-1.5q.3-.6 1-1 .5-.3 1.3-.3t1.4.3.9 1 .3 1.5-.3 1.5-1 1-1.3.3m0-1q.4 0 .7-.3t.5-.6l.1-1-.1-.8-.5-.7-.7-.2q-.4 0-.7.2l-.5.7-.1.9.1.9q.2.4.5.6.3.3.7.3m3.7.9v-5.5h1.2v1h.1a1.4 1.4 0 0 1 1.4-1h.4v1.2h-1.2l-.5.5-.1.6V34zm4 0v-5.5h1.2v1q.2-.5.6-.8l1-.2q.5 0 .9.2t.5.8h.1l.6-.8q.4-.2 1-.2.8 0 1.3.5t.4 1.3V34h-1.3v-3.5q0-.5-.2-.7l-.7-.2q-.4 0-.7.2t-.3.8V34h-1.2v-3.5q0-.4-.3-.7t-.6-.2l-.5.1-.4.4-.1.6V34zm13.3-4-1.2.1-.2-.3-.3-.3h-.5l-.7.1q-.3.2-.3.5l.2.3.6.3 1 .2q.7.2 1 .5.5.4.5 1l-.3.9q-.3.4-.8.6t-1.3.2q-1 0-1.6-.4a2 2 0 0 1-.7-1.2l1.3-.1.3.6.7.1.8-.1q.3-.2.3-.5l-.2-.4q-.2-.2-.6-.2l-1-.2q-.7-.2-1-.6t-.4-1l.2-.8.8-.6 1.2-.2q1 0 1.5.4t.7 1"/><rect width="196.5" height="395.5" x="506.3" y="30.3" rx="3.8"/><rect width="196.5" height="395.5" x="506.3" y="30.3" stroke="#3d50f5" stroke-dasharray="6 6" stroke-width=".5" rx="3.8"/><rect width="107.5" height="15.5" x="518.3" y="22.3" fill="#171d4f" rx="1.8"/><rect width="107.5" height="15.5" x="518.3" y="22.3" stroke="#3369ff" stroke-width=".5" rx="1.8"/><path fill="#fff" d="M522.4 27.8v-1h5.8v1H526V34h-1.4v-6.2zm8.1 3V34h-1.2v-7.3h1.2v2.8q.3-.5.7-.8.4-.2 1-.2t1 .2.6.7.3 1.1V34h-1.3v-3.3q0-.5-.3-.8t-.8-.3l-.6.1-.4.4q-.2.3-.2.7m4.9 3.2v-5.5h1.3V34zm.6-6.2-.5-.2-.2-.5q0-.3.2-.5l.5-.2.6.2q.2.2.2.5l-.2.5zm3.3 3V34H538v-5.5h1.2v1q.3-.5.7-.8.4-.2 1-.2t1 .2l.7.7q.2.5.2 1.1V34h-1.3v-3.3q0-.5-.3-.8t-.8-.3l-.6.1-.4.4zm7.2 5.4q-.7 0-1.2-.2l-.8-.5-.4-.7 1.1-.3.2.3.4.3h.7q.5 0 .9-.2t.4-.8v-1h-.1l-.3.3-.5.4-.8.1q-.6 0-1.1-.3l-.8-.9q-.3-.6-.3-1.4 0-1 .3-1.6t.8-.9l1.1-.3.8.1.5.4.3.4v-.9h1.3v5.6q0 .7-.3 1.1l-1 .7zm0-3.3q.4 0 .7-.2t.4-.6.2-.9-.2-.9l-.4-.6-.7-.2q-.5 0-.7.3-.3.2-.5.6l-.1.8.1 1 .5.5q.3.2.7.2m8.2-3-1.2.2-.2-.3-.3-.3h-.5l-.7.1q-.3.2-.3.5l.2.3.6.3 1 .2q.7.2 1 .5.5.4.5 1l-.3.9q-.3.4-.8.6t-1.3.2q-1 0-1.6-.4a2 2 0 0 1-.7-1.2l1.3-.1.3.5q.3.2.7.2.5 0 .8-.2.3-.1.3-.4l-.2-.4q-.2-.2-.6-.2l-1-.2q-.7-.2-1-.6t-.4-1l.2-.8.8-.6 1.2-.2q1 0 1.5.4t.7 1m1.2 4.1v-7.3h2.8q.8 0 1.3.3t.8.6l.2 1-.1.8-.5.5-.6.3q.3 0 .7.3t.6.6.2 1-.3 1q-.2.4-.8.6t-1.4.3zm1.3-1.1h1.4q.7 0 1-.3l.4-.7a1 1 0 0 0-.6-1l-.7-.1h-1.5zm0-3h1.3q.4 0 .6-.2a1 1 0 0 0 .6-1q0-.3-.3-.6t-.9-.3h-1.3zm7.6 4.2q-.8 0-1.4-.3a2 2 0 0 1-1-1q-.2-.7-.2-1.5t.3-1.5q.3-.6.9-1 .6-.3 1.4-.3t1.4.3.9 1 .3 1.5-.3 1.5-1 1q-.5.3-1.3.3m0-1q.4 0 .7-.3t.5-.6l.1-1-.1-.8-.5-.7-.7-.2q-.5 0-.7.2l-.5.7-.1.9.1.9q.2.4.5.6.2.3.7.3m5.3 1q-.6 0-1-.2l-.6-.5q-.3-.4-.3-1 0-.4.2-.7l.5-.5.6-.2.8-.2h.8l.4-.2q.2 0 .2-.3 0-.4-.3-.6t-.7-.2-.7.2-.4.5l-1.2-.2.5-.9.8-.5 1-.1h.8q.4 0 .7.4l.5.5q.2.4.2 1V34h-1.2v-.7l-.9.7zm.3-1h.7l.4-.5.2-.6v-.6h-.2l-.4.2h-.6l-.5.2-.4.2-.1.4q0 .4.2.6t.7.2m3.8.8v-5.5h1.3v1a1.4 1.4 0 0 1 1.4-1h.4v1.2h-1.2q-.3.2-.4.5t-.2.6V34zm5.8.1q-.6 0-1.2-.3-.5-.4-.8-1t-.3-1.5.3-1.6.9-.9l1.1-.3.8.1.5.4.3.4v-2.7h1.3V34h-1.3v-.9l-.3.5-.5.3q-.3.2-.8.2m.4-1q.4 0 .7-.3l.4-.6.1-1-.1-.8-.4-.7-.7-.2q-.5 0-.8.3l-.4.6-.1.9.1.9.4.6q.3.2.8.2m12.6-3.8h-1.3l-.2-.6-.4-.4-.5-.3h-.6q-.6 0-1 .2t-.8.9-.3 1.4.3 1.4.7.8 1 .3h.7l.5-.3.4-.4.2-.6h1.3q0 .5-.3 1a3 3 0 0 1-1.6 1.3l-1.1.2q-1 0-1.8-.4a3 3 0 0 1-1.1-1.3q-.5-.9-.5-2t.5-2a3 3 0 0 1 1.2-1.3 3 3 0 0 1 1.7-.5q.6 0 1 .2t1 .5.7.8.3 1m2.5-2.4V34h-1.3v-7.3zm4.8 5v-3.2h1.3V34h-1.3v-1l-.7.8q-.4.3-1 .3t-1-.3l-.6-.7q-.2-.4-.2-1v-3.6h1.3v3.3q0 .5.3.8t.7.3h.6l.4-.5q.2-.3.2-.7m6.9-1.7-1.2.1-.2-.3-.3-.3h-.5l-.7.1q-.2.2-.2.5l.1.3.6.3 1 .2q.7.2 1.1.5.4.4.4 1l-.3.9q-.3.4-.8.6l-1.2.2q-1 0-1.6-.4a2 2 0 0 1-.8-1.2l1.3-.1.4.5q.2.2.7.2t.7-.2.3-.4l-.2-.4q-.2-.2-.5-.2l-1-.2q-.8-.2-1.1-.6t-.4-1l.3-.8q.2-.4.7-.6l1.2-.2q1 0 1.5.4t.7 1m3.9-1.4v1H608v-1zm-2.4-1.3h1.3v5.6l.3.1h.7l.2 1-.3.1h-1.3l-.7-.6q-.2-.3-.2-.8zm5.8 7q-.8 0-1.4-.4t-1-1-.2-1.5.3-1.5l.9-1q.6-.3 1.4-.3l.9.1.8.5.5.9q.2.5.2 1.2v.4h-4.4v-.8h3.2l-.1-.7-.5-.5-.6-.1q-.4 0-.7.2l-.5.5-.2.6v.8q0 .5.2.8l.5.5q.3.2.7.2h.5l.4-.3.3-.4 1.2.1q-.1.5-.4.9l-.9.5zm3.4-.1v-5.5h1.3v1a1.4 1.4 0 0 1 1.4-1h.4v1.2h-1q-.3.2-.4.5t-.2.6V34z"/><rect width="372.5" height="59.5" x="16.3" y="254.3" rx="3.8"/><rect width="372.5" height="59.5" x="16.3" y="254.3" stroke="#bb3df5" stroke-dasharray="6 6" stroke-width=".5" rx="3.8"/><rect width="99.5" height="15.5" x="28.3" y="246.3" fill="#40224e" rx="1.8"/><rect width="99.5" height="15.5" x="28.3" y="246.3" stroke="#bd53ee" stroke-width=".5" rx="1.8"/><path fill="#fff" d="M32.7 258v-7.3H34v6.2h3.2v1.1zm8 .1q-.8 0-1.4-.3l-.9-1q-.3-.7-.3-1.5t.3-1.5 1-1q.5-.3 1.3-.3t1.4.3.9 1 .3 1.5-.3 1.5-1 1-1.3.3m0-1q.4 0 .7-.3t.5-.6l.1-1-.1-.8-.5-.7-.7-.2q-.4 0-.7.2l-.5.7-.1.9.1.9q.2.4.5.6.3.3.7.3m3.8.9v-7.3h2.7q.8 0 1.4.3t.9.8.3 1.3-.3 1.2a2 2 0 0 1-1 .8q-.5.2-1.3.2h-2v-1H47q.5 0 .8-.2l.5-.4.1-.6-.1-.7-.5-.4q-.3-.2-.8-.2h-1.2v6.2zm3.7-3.3L50 258h-1.4l-1.8-3.3zm4.3 3.4-1-.2-.6-.5q-.2-.4-.2-1l.1-.7.5-.5q.3-.2.7-.2l.7-.2h.8l.4-.2q.2 0 .2-.3 0-.4-.3-.6t-.6-.2-.8.2-.4.5l-1.2-.2.5-.9.8-.5 1-.1h.8l.7.4q.4.2.6.5.2.4.2 1v3.6H54v-.7l-.3.4-.6.3zm.3-1h.7q.3-.2.4-.5l.2-.6v-.6h-.2l-.3.2h-.7l-.5.2-.4.2-.1.4q0 .4.3.6t.6.2m5 .8-2.1-7.3H57l1.3 5.4 1.5-5.4h1.3l1.4 5.4 1.3-5.4h1.5l-2 7.3H62l-1.4-5.1h-.1L59 258zm8.7 0h-1.4l2.6-7.3h1.6l2.6 7.3h-1.4l-2-5.8zm0-2.9h3.9v1.1h-3.8zm12.3-4.4v7.3h-1.2l-3.4-5v5h-1.4v-7.3H74l3.4 5v-5zm9.9 0v7.3h-1.2l-3.4-5v5h-1.4v-7.3H84l3.4 5v-5zm3.8 7.4q-.8 0-1.4-.3-.6-.4-1-1-.3-.6-.3-1.5t.4-1.5.9-1 1.3-.3l1 .1.8.5.5.9q.2.5.2 1.2v.4h-4.5v-.8h3.3l-.2-.7-.4-.5-.7-.1q-.4 0-.7.2l-.4.5-.2.6v.8q0 .5.2.8l.5.5q.3.2.7.2h.5l.4-.3.3-.4 1.2.1-.5.9-.8.5q-.5.2-1.1.2m6.2-5.6v1h-3.1v-1zm-2.3-1.3h1.2v5.2l.1.4.2.1h.7l.2 1-.7.2-.9-.2-.6-.5q-.2-.3-.2-.8zm4.5 6.8-1.5-5.5h1.3l1 3.9 1-3.9h1.3l1 3.9 1-3.9h1.3l-1.6 5.5h-1.3l-1-3.7h-.1l-1 3.7zm9.5.1q-.8 0-1.4-.3l-.9-1q-.3-.7-.3-1.5t.3-1.5 1-1q.5-.3 1.3-.3t1.4.3.9 1 .3 1.5-.3 1.5-1 1-1.3.3m0-1q.4 0 .7-.3t.5-.6l.1-1-.1-.8-.5-.7-.7-.2q-.4 0-.7.2l-.5.7-.1.9.1.9q.2.4.5.6.3.3.7.3m3.7.9v-5.5h1.2v1h.1q.1-.5.5-.8l.8-.2h.5v1.2H116l-.5.5-.1.6v3.2zm5.1-1.7v-1.6h.2l2-2.2h1.5l-2.4 2.7h-.3zm-1.1 1.7v-7.3h1.2v7.3zm3.4 0-1.8-2.5.9-.9 2.4 3.4z"/><rect width="66" height="26" x="28.5" y="50.5" fill="#f9c3d6" rx="3.5"/><rect width="66" height="26" x="28.5" y="50.5" stroke="#f53d7d" rx="3.5"/><path fill="#17181c" d="M38 68h-1.7l3-8.7h2l3.1 8.7h-1.7l-2.3-7zm0-3.4h4.6v1.2H38zm8.6 3.4L44 59.3h1.7l1.6 6.4 1.7-6.4h1.6l1.7 6.4 1.6-6.4h1.7L53.2 68h-1.5l-1.8-6.1L48 68zm14.9-6.3a1 1 0 0 0-.5-.9q-.5-.3-1.2-.3l-.8.1-.5.4-.2.6v.5l.4.3.5.3.5.1.9.2 1 .3.7.5q.4.3.6.8t.2 1q0 .7-.4 1.3t-1.1 1-1.8.2-1.8-.3l-1-.8q-.4-.6-.5-1.5H58q0 .5.3.8t.6.4 1 .2l.8-.2q.4-.1.6-.4l.2-.7-.2-.5-.5-.4-.8-.3-1-.2q-1-.3-1.7-.9-.6-.5-.6-1.5 0-.7.4-1.3l1.1-1q.7-.2 1.7-.2t1.6.3q.7.3 1.1.9.4.5.4 1.3zm7.6-2.4V68h-1.6v-8.7zm4.5 8.8q-1 0-1.7-.4a3 3 0 0 1-1-1.2q-.4-.7-.4-1.7t.3-1.8a3 3 0 0 1 1.1-1.2q.7-.4 1.7-.4t1.7.4 1 1.2.4 1.8-.4 1.7-1 1.2-1.7.4m0-1.2q.5 0 .9-.3l.5-.8.2-1q0-.7-.2-1.1l-.5-.8q-.4-.3-.9-.3t-.9.3l-.5.8q-.2.4-.2 1t.2 1.1l.5.8q.4.3.9.3m3.6-6.3v-1.3h7v1.3h-2.7V68H80v-7.4z"/><rect width="86" height="26" x="147.5" y="50.5" fill="#f9c3d6" rx="3.5"/><rect width="86" height="26" x="147.5" y="50.5" stroke="#f53d7d" rx="3.5"/><path fill="#17181c" d="M157.4 59.3V68H156v-8.7zm1.8 8.7v-8.7h3.3q1 0 1.6.3t1 .8q.2.5.2 1.1t-.2 1l-.5.6q-.3.3-.8.3.5.1.9.4.4.2.7.7t.3 1.1-.4 1.2-1 .9-1.6.3zm1.5-1.3h1.7q.9 0 1.3-.3.4-.4.4-.9a1 1 0 0 0-.8-1.2l-.8-.2h-1.8zm0-3.7h1.6q.4 0 .7-.2.4-.1.6-.4l.1-.7q0-.5-.3-.8-.4-.3-1-.3h-1.7zm6.3-3.7h2l2.6 6.3 2.7-6.3h1.9V68h-1.5v-6h-.1l-2.4 6H171l-2.5-6v6H167zm15.7 8.7-2.4-8.7h1.7l1.5 6.4h.1l1.7-6.4h1.5l1.7 6.4h.1l1.6-6.4h1.7l-2.5 8.7H188l-1.8-6.1-1.8 6.1zm11.4.1L193 68l-.8-.7q-.3-.4-.3-1t.2-1 .6-.5l.8-.4 1-.1.8-.1q.4 0 .6-.2l.1-.3q0-.5-.3-.8-.2-.2-.8-.2-.5 0-.9.2l-.4.6-1.5-.2q.2-.6.6-1t1-.6l1.2-.2h1l.8.4q.4.3.6.7.3.5.3 1.1V68H196v-.9l-.5.5-.6.4zm.4-1.1q.5 0 .8-.2t.6-.5l.1-.6v-.8h-.2l-.4.2h-.4l-.4.1-.6.2q-.3 0-.4.3l-.2.4q0 .5.3.7t.8.2m7.9-5.5v1.1h-3.8v-1.1zm-2.8-1.6h1.5V66l.1.5q.1.2.3.2h.8l.2 1.2-.3.1h-1.6l-.8-.7q-.2-.4-.2-1zm9.2 3.3-1.4.1-.2-.4-.4-.3h-.6l-.9.1q-.3.2-.3.6l.2.4.8.3 1 .3q1 .2 1.4.6.5.4.5 1.1l-.4 1.1q-.3.5-1 .8-.6.2-1.4.2-1.2 0-2-.5a2 2 0 0 1-.8-1.4l1.5-.1q.1.4.4.6.4.3 1 .3t.8-.3.3-.5l-.2-.5q-.2-.2-.7-.3l-1-.2q-1-.2-1.5-.7t-.4-1.1l.3-1q.4-.5 1-.8.5-.2 1.3-.2 1.2 0 1.8.5t.9 1.3m4.2 5q-1 0-1.6-.5a3 3 0 0 1-1.1-1.2q-.4-.7-.4-1.7t.4-1.8a3 3 0 0 1 1-1.2q.8-.4 1.7-.4t1.7.4 1 1.2q.5.7.5 1.8t-.4 1.7q-.4.8-1.1 1.2t-1.7.4m0-1.2q.6 0 1-.3.3-.3.4-.8l.2-1q0-.7-.2-1.1l-.5-.8q-.3-.3-.9-.3-.5 0-.8.3l-.6.8-.1 1 .1 1.1q.2.5.6.8t.8.3m6-2.7V68h-1.5v-6.5h1.5v1q.3-.5.8-.8t1.2-.3 1.2.3.7.8.3 1.3V68h-1.5v-4q0-.6-.4-1-.3-.3-.9-.3-.4 0-.7.2l-.5.5q-.2.3-.2.8"/><rect width="110" height="26" x="266.5" y="50.5" fill="#f9c3d6" rx="3.5"/><rect width="110" height="26" x="266.5" y="50.5" stroke="#f53d7d" rx="3.5"/><path fill="#17181c" d="M274.9 59.3h1.9l2.6 6.3 2.7-6.3h2V68h-1.6v-6l-2.5 6h-1.1l-2.4-6h-.1v6h-1.5zm10.8 8.7v-6.5h1.5V68zm.7-7.5-.6-.2-.3-.6q0-.4.3-.6l.6-.2q.4 0 .7.2t.2.6l-.2.6zm5.3 7.6q-1 0-1.7-.4a3 3 0 0 1-1.1-1.2q-.4-.8-.4-1.7 0-1 .4-1.8t1-1.2q.8-.4 1.7-.4t1.5.3 1 .8.4 1.2H293l-.4-.8q-.4-.3-1-.3-.4 0-.8.3-.3.2-.5.7t-.2 1.1.2 1.2.5.7q.4.3.9.3l.6-.2q.2 0 .4-.3l.3-.6h1.5L294 67l-1 .8q-.5.3-1.3.3m4-.1v-6.5h1.5v1q.3-.5.7-.8l1-.3h.6v1.4h-.8l-.7.1q-.4.2-.5.5l-.2.8V68zm7.4.1q-1 0-1.7-.4a3 3 0 0 1-1-1.2q-.5-.7-.5-1.7t.4-1.8a3 3 0 0 1 1.1-1.2q.7-.4 1.7-.4t1.6.4a3 3 0 0 1 1.1 1.2q.4.7.4 1.8t-.4 1.7q-.4.8-1 1.2t-1.7.4m0-1.2q.5 0 .8-.3t.6-.8l.1-1-.1-1.1-.6-.8q-.3-.3-.8-.3t-1 .3l-.4.8-.2 1q0 .6.2 1.1.1.5.5.8.3.3.9.3m9.6-3.7-1.4.1-.2-.4-.4-.3h-.6l-.8.1q-.4.2-.4.6l.3.4q.2.2.7.3l1 .3q1 .2 1.5.6t.4 1.1l-.3 1.1q-.4.5-1 .8-.7.2-1.5.2-1.2 0-2-.5a2 2 0 0 1-.8-1.4l1.5-.1q.1.4.5.6.3.3.8.3t1-.3q.2-.2.2-.5l-.2-.5-.6-.3-1.2-.2q-.9-.2-1.3-.7t-.5-1.1l.3-1q.4-.5 1-.8.6-.2 1.4-.2 1.1 0 1.8.5t.8 1.3m4.3 5q-1 0-1.7-.5a3 3 0 0 1-1.1-1.2q-.4-.7-.4-1.7t.4-1.8a3 3 0 0 1 1-1.2q.8-.4 1.8-.4t1.6.4 1.1 1.2.4 1.8-.4 1.7-1 1.2-1.7.4m0-1.2q.5 0 .8-.3t.5-.8l.2-1q0-.7-.2-1.1l-.5-.8q-.3-.3-.8-.3t-1 .3l-.5.8-.1 1 .1 1.1q.2.5.6.8t.9.3m7.7-5.4v1.1h-3.9v-1.1zm-2.9 6.5v-7.2q0-.6.3-1t.7-.7l1-.2h.8l.4.1-.3 1.2h-.6q-.4 0-.6.2l-.1.5V68zm7.4-6.5v1.1h-3.8v-1.1zm-2.8-1.6h1.5v6.6l.3.2h.8l.3 1.2-.3.1h-1.6l-.8-.7q-.2-.4-.2-1zm8.2 8.1H333l3-8.7h2l3 8.7h-1.6l-2.4-7zm.1-3.4h4.6v1.2h-4.6zm7.4 3.4v-1l3.3-4.2h-3.2v-1.3h5.1v1l-3.2 4.2h3.3V68zm11-2.8v-3.7h1.5V68H353v-1.2a2 2 0 0 1-.8 1q-.5.3-1.2.3t-1.2-.3l-.7-.8q-.3-.6-.3-1.4v-4.1h1.5v3.9q0 .6.4 1 .3.3.9.3l.6-.1.5-.5q.3-.4.3-.9m3 2.8v-6.5h1.6v1q.2-.5.7-.8l1-.3h.5v1.4h-.7l-.8.1-.5.5-.2.8V68zm7.5.1q-1 0-1.7-.4a3 3 0 0 1-1.1-1.1q-.4-.8-.4-1.8t.4-1.8 1-1.2 1.7-.4q.6 0 1.1.2t1 .6.6 1 .3 1.5v.4H361v-1h3.9l-.2-.8-.5-.5-.8-.2-.8.2-.6.6-.2.8v1q0 .5.2.9t.6.6.9.2h.6l.5-.4.3-.4 1.4.1q-.1.6-.5 1t-1 .7-1.3.2"/><rect width="110" height="26" x="28.5" y="274.5" fill="#edd1fa" rx="3.5"/><rect width="110" height="26" x="28.5" y="274.5" stroke="#bb3df5" rx="3.5"/><path fill="#17181c" d="M36.5 284.6v-1.3h7v1.3h-2.8v7.4h-1.5v-7.4zm9.8 3.6v3.8h-1.6v-8.7h1.5v3.3h.1q.2-.6.7-1 .5-.2 1.2-.2t1.2.3q.5.2.8.8.3.5.3 1.3v4.2H49v-4q0-.6-.4-1-.3-.3-1-.3l-.7.2-.5.5zM52 292v-6.5h1.5v6.5zm.7-7.5-.6-.2-.2-.6q0-.4.2-.6l.6-.2.7.2.2.6-.2.6zm4 3.7v3.8h-1.6v-6.5h1.5v1q.3-.5.8-.8t1.2-.3 1.2.3.8.8.2 1.3v4.2h-1.5v-4q0-.6-.3-1-.4-.3-1-.3-.4 0-.7.2-.3.1-.5.5-.2.3-.2.8m8.7 6.4q-.9 0-1.5-.2l-1-.6-.4-.9 1.4-.3.2.4.5.3.8.1q.6 0 1-.3t.5-1v-1.3l-.4.5q-.2.3-.6.4t-1 .2q-.7 0-1.3-.3-.6-.4-1-1.1t-.4-1.8.4-1.8 1-1.1 1.3-.4q.6 0 1 .2l.6.4.3.5h.1v-1h1.5v6.6q0 .8-.4 1.4t-1 .8-1.6.3m0-3.9q.5 0 .8-.2t.5-.7.2-1.1-.2-1l-.5-.8q-.3-.3-.8-.3t-.9.3l-.5.7-.2 1.1q0 .6.2 1t.5.7.9.3M70 292v-8.7h3.3q1 0 1.6.3.7.4 1 1t.4 1.6-.3 1.5l-1 1q-.8.4-1.8.4h-2.1v-1.3h2q.5 0 .9-.3t.5-.5l.2-.8-.2-.9-.5-.5q-.4-.2-1-.2h-1.4v7.4zm9.4.1q-.6 0-1.1-.2l-.8-.7q-.3-.4-.3-1t.2-1 .6-.5.8-.4l.9-.1 1-.1q.3 0 .5-.2l.1-.3q0-.5-.3-.8-.3-.2-.8-.2t-.9.2l-.4.6-1.5-.2q.2-.6.6-1l1-.6 1.2-.2h1l.8.4q.4.3.6.7.3.5.3 1.1v4.4h-1.5v-.9a2 2 0 0 1-1.1.9zm.4-1.1q.5 0 .8-.2t.5-.5l.2-.6v-.8h-.2l-.4.2h-.4l-.4.1-.6.2-.4.3-.2.4q0 .5.3.7t.8.2m4.6 1v-6.5H86v1q.3-.5.7-.8l1-.3h.5v1.4h-.7l-.7.1a1.4 1.4 0 0 0-.7 1.3v3.8zm6.2-2v-2h.2l2.4-2.5H95l-3 3.2zm-1.4 2v-8.7h1.5v8.7zm4 0-2-3 1-1 3 4z"/><rect width="110" height="26" x="147.5" y="274.5" fill="#edd1fa" rx="3.5"/><rect width="110" height="26" x="147.5" y="274.5" stroke="#bb3df5" rx="3.5"/><path fill="#17181c" d="M155.5 284.6v-1.3h7v1.3h-2.8v7.4h-1.5v-7.4zm9.8 3.6v3.8h-1.6v-8.7h1.5v3.3h.1q.2-.6.7-1 .5-.2 1.2-.2t1.2.3q.5.2.8.8.3.5.3 1.3v4.2H168v-4q0-.6-.4-1-.3-.3-1-.3l-.7.2-.5.5zm8.7 4q-1 0-1.7-.5a3 3 0 0 1-1.1-1.1q-.4-.8-.4-1.8t.4-1.8a3 3 0 0 1 1-1.2q.8-.4 1.7-.4.6 0 1.1.2t1 .6.6 1 .3 1.5v.4h-5.4v-1h3.9l-.2-.8-.5-.5-.8-.2q-.5 0-.8.2t-.6.6l-.2.8v1q0 .5.2.9t.6.6.9.2h.6l.5-.4q.2-.1.3-.4l1.4.1-.5 1q-.4.5-1 .7t-1.3.2m6.8-7.5v-1.3h7v1.3h-2.7v7.4h-1.6v-7.4zm9.8 3.6v3.8h-1.5v-8.7h1.5v3.3q.3-.6.8-1 .5-.2 1.2-.2t1.2.3q.5.2.8.8.3.5.3 1.3v4.2h-1.6v-4q0-.6-.3-1-.3-.3-1-.3-.4 0-.7.2l-.5.5q-.2.3-.2.8m5.8 3.8v-6.5h1.6v6.5zm.8-7.5-.6-.2-.3-.6q0-.4.3-.6l.6-.2q.4 0 .7.2l.2.6-.2.6zm4 3.7v3.8h-1.6v-6.5h1.4v1h.1q.3-.5.7-.8.5-.3 1.3-.3.7 0 1.2.3t.7.8.3 1.3v4.2h-1.5v-4q0-.6-.4-1-.3-.3-.9-.3-.4 0-.7.2-.3.1-.5.5zm8.6 6.4q-.8 0-1.4-.2l-1-.6-.5-.9 1.4-.3.3.4.5.3.8.1q.6 0 1-.3t.5-1v-1.3h-.1l-.4.5q-.2.3-.6.4t-.9.2l-1.4-.3q-.6-.4-1-1.1-.3-.7-.3-1.8 0-1 .4-1.8.3-.8 1-1.1l1.3-.4q.6 0 1 .2l.6.4.3.5v-1h1.6v6.6q0 .8-.4 1.4t-1 .8-1.7.3m0-3.9q.5 0 .9-.2l.5-.7q.2-.5.2-1.1t-.2-1l-.5-.8q-.4-.3-.9-.3t-.8.3-.5.7l-.2 1.1q0 .6.2 1 .1.5.5.7.3.3.8.3m9.9-3.5-1.4.1a1 1 0 0 0-.6-.7h-.7l-.8.1q-.3.2-.3.6l.2.4q.2.2.7.3l1.2.3q.9.2 1.3.6t.5 1.1l-.4 1.1q-.3.5-1 .8-.6.2-1.4.2-1.2 0-2-.5a2 2 0 0 1-.8-1.4l1.5-.1q.1.4.4.6.4.3.9.3t.9-.3q.3-.2.3-.5l-.2-.5q-.2-.2-.7-.3l-1-.2q-1-.2-1.5-.7t-.4-1.1l.3-1q.3-.5 1-.8.5-.2 1.3-.2 1.2 0 1.8.5t.9 1.3m11.6-4v8.8h-1.4l-4.1-6h-.1v6H224v-8.7h1.4l4.1 6h.1v-6zm4.5 9q-1 0-1.7-.5l-1-1.1q-.4-.8-.4-1.8t.3-1.8a3 3 0 0 1 1.1-1.2q.7-.4 1.7-.4.6 0 1.1.2l1 .6q.4.4.6 1 .3.6.3 1.5v.4h-5.4v-1h3.9l-.2-.8-.5-.5-.8-.2q-.5 0-.8.2l-.6.6-.2.8v1q0 .5.2.9t.6.6.9.2h.6l.4-.4.3-.4 1.5.1-.5 1q-.4.5-1 .7zm7.5-6.6v1.1h-3.7v-1.1zm-2.8-1.6h1.5v6.1l.1.5q.1.2.3.2h.8l.2 1.2-.3.1h-1.6l-.7-.7q-.3-.4-.3-1z"/><rect width="110" height="26" x="266.5" y="274.5" fill="#edd1fa" rx="3.5"/><rect width="110" height="26" x="266.5" y="274.5" stroke="#bb3df5" rx="3.5"/><path fill="#17181c" d="M274.5 284.6v-1.3h7v1.3h-2.8v7.4h-1.5v-7.4zm8.3 7.4v-8.7h5.7v1.3h-4.1v2.4h3.8v1.3h-3.8v2.4h4v1.3zm7.3 0v-8.7h1.6v4l3.5-4h1.9l-3.4 3.9 3.4 4.8h-1.9l-2.6-3.7-1 1.1v2.6zm7.7-7.4v-1.3h7v1.3H302v7.4h-1.6v-7.4zm8.3 7.4v-8.7h5.7v1.3h-4.1v2.4h3.8v1.3h-3.8v2.4h4.1v1.3zm7.3 0v-8.7h1.6v7.4h3.8v1.3zm8.4-8.7v8.7h-1.6v-8.7zm9.2 3h-1.6l-.3-.8-.4-.5-.7-.3-.7-.1q-.7 0-1.3.3-.5.4-.8 1-.3.8-.3 1.7 0 1 .3 1.7t.8 1 1.3.4l.7-.1.6-.3.5-.5.3-.7h1.6l-.4 1.2-.8 1-1.1.6-1.4.2q-1.2 0-2-.5-1-.5-1.5-1.6t-.5-2.4.5-2.4q.5-1 1.4-1.5t2-.5q.8 0 1.4.2.7.2 1.1.6t.8 1 .5 1.2"/><rect width="133" height="55" x="136.5" y="370.5" fill="#fff" rx="9.5"/><rect width="133" height="55" x="136.5" y="370.5" stroke="#bb3df5" rx="9.5"/><rect width="30" height="30" x="148" y="383" fill="#edd1fa" rx="4"/><path fill="#660891" d="M169.4 395.3q0 .8-.9.9h-1.8a1 1 0 0 1-1-1h-.9v9.2h5.5v-9.2zm-13.7-3.7v11h7.3v-7.3a2 2 0 0 1 1.8-1.9h2.8v-1.8zm13.7 1.8h1a2 2 0 0 1 1.8 1.9v9.1a2 2 0 0 1-1.9 1.9h-5.5a2 2 0 0 1-1.8-1.9h-7.3a2 2 0 0 1-1.9-1.8v-11a2 2 0 0 1 1.9-1.8h11.9a2 2 0 0 1 1.8 1.8z"/><path fill="#17181c" d="M187.1 403H184v-9.5h3.3q1.4 0 2.4.6a4 4 0 0 1 1.6 1.6q.5 1 .5 2.6 0 1.4-.5 2.5a4 4 0 0 1-1.6 1.6q-1 .6-2.5.6m-1.5-1.5h1.5q1 0 1.6-.3.7-.4 1-1.1t.3-1.8-.3-1.8a2 2 0 0 0-1-1.1q-.6-.4-1.6-.4h-1.5zm10.8 1.6q-1 0-1.8-.4a3 3 0 0 1-1.2-1.3q-.4-.8-.4-1.9t.4-2 1.2-1.2 1.7-.5q.7 0 1.3.2t1 .7.7 1q.3.8.3 1.7v.5h-5.8v-1.1h4.2l-.2-.9-.6-.6-.8-.2q-.6 0-1 .3l-.6.6-.2.9v1q0 .6.3 1t.6.7 1 .2h.6l.5-.4.3-.5 1.6.2-.6 1-1 .8q-.7.2-1.5.2m10.7-7.2-2.5 7.1h-1.9l-2.5-7h1.8l1.6 5.2h.1l1.6-5.3zm1.2 7.1v-7h1.6v7zm.8-8.1-.7-.3-.3-.6q0-.4.3-.6l.7-.3q.4 0 .7.3l.3.6-.3.6zm5.7 8.2q-1.1 0-1.9-.4a3 3 0 0 1-1.1-1.3q-.4-.8-.4-2 0-1 .4-1.8a3 3 0 0 1 1.1-1.3q.8-.5 1.8-.5t1.6.3 1 1q.4.5.5 1.3h-1.6l-.5-.9q-.3-.3-1-.3l-.8.2q-.4.3-.6.8t-.2 1.3.2 1.2.6.8.9.3l.6-.2q.3-.1.5-.4l.3-.6h1.6q0 .7-.5 1.3l-1 1q-.7.2-1.5.2m7.5 0q-1 0-1.8-.4a3 3 0 0 1-1.2-1.3q-.4-.8-.4-1.9t.4-2 1.1-1.2 1.8-.5q.7 0 1.3.2.5.2 1 .7l.7 1q.3.8.3 1.7v.5h-5.9v-1.1h4.3l-.3-.9-.5-.6-.9-.2q-.5 0-.9.3l-.6.6-.2.9v1q0 .6.2 1t.7.7 1 .2h.6l.5-.4.3-.5 1.6.2-.6 1-1 .8q-.7.2-1.5.2m10.2-5.3-1.5.1-.3-.4-.4-.3-.7-.1q-.5 0-.8.2t-.4.6l.2.5.8.3 1.2.3q1 .2 1.5.6.5.5.5 1.3a2 2 0 0 1-.4 1.2q-.3.5-1 .8t-1.6.2q-1.3 0-2.1-.5t-1-1.5l1.7-.2q.1.5.5.7.3.3.9.3t1-.3.3-.6l-.2-.5-.7-.3-1.3-.2q-1-.2-1.5-.7-.5-.6-.4-1.3l.3-1.2q.4-.5 1-.7.7-.3 1.5-.3 1.3 0 2 .5t.9 1.5"/><rect width="133" height="55" x="135.5" y="154.5" fill="#fff" rx="9.5"/><rect width="133" height="55" x="135.5" y="154.5" stroke="#f53d7d" rx="9.5"/><rect width="30" height="30" x="147" y="167" fill="#f9c3d6" rx="4"/><path fill="#8a0f3a" d="M168.4 179.3q0 .8-.9.9h-1.8a1 1 0 0 1-1-1h-.9v9.2h5.5v-9.2zm-13.7-3.7v11h7.3v-7.3a2 2 0 0 1 1.8-1.9h2.8v-1.8zm13.7 1.8h1a2 2 0 0 1 1.8 1.8v9.2a2 2 0 0 1-1.9 1.8h-5.5a2 2 0 0 1-1.8-1.8h-7.3a2 2 0 0 1-1.9-1.8v-11a2 2 0 0 1 1.9-1.8h11.9a2 2 0 0 1 1.8 1.8z"/><path fill="#17181c" d="M186.1 187H183v-9.5h3.3q1.4 0 2.4.6a4 4 0 0 1 1.6 1.6q.5 1 .5 2.6 0 1.4-.5 2.5a4 4 0 0 1-1.6 1.6q-1 .6-2.5.6m-1.5-1.5h1.5q1 0 1.6-.3.7-.4 1-1.1t.3-1.8-.3-1.8a2 2 0 0 0-1-1.1q-.6-.4-1.6-.4h-1.5zm10.8 1.6q-1 0-1.8-.4a3 3 0 0 1-1.2-1.3q-.4-.8-.4-1.9t.4-2 1.2-1.2 1.7-.5q.7 0 1.3.2t1 .7.7 1q.3.8.3 1.7v.5h-5.8v-1.1h4.2l-.2-.9-.6-.6-.8-.2q-.6 0-1 .3l-.6.6-.2.9v1q0 .6.3 1t.6.7 1 .2h.6l.5-.4.3-.5 1.6.2-.6 1-1 .8q-.7.2-1.5.2m10.7-7.2-2.5 7.1h-1.9l-2.5-7h1.8l1.6 5.2h.1l1.6-5.3zm1.2 7.1v-7h1.6v7zm.8-8.1-.7-.3-.3-.6q0-.4.3-.6l.7-.3q.4 0 .7.3l.3.6-.3.6zm5.7 8.2q-1.1 0-1.9-.4a3 3 0 0 1-1.1-1.3q-.4-.8-.4-2 0-1 .4-1.8a3 3 0 0 1 1.1-1.3q.8-.5 1.8-.5t1.6.3 1 1q.4.5.5 1.3h-1.6l-.5-.9q-.3-.3-1-.3l-.8.2q-.4.3-.6.8t-.2 1.3.2 1.2.6.8.9.3l.6-.2q.3-.1.5-.4l.3-.6h1.6q0 .7-.5 1.3l-1 1q-.7.2-1.5.2m7.5 0q-1 0-1.8-.4a3 3 0 0 1-1.2-1.3q-.4-.8-.4-1.9t.4-2 1.1-1.2 1.8-.5q.7 0 1.3.2.5.2 1 .7l.7 1q.3.8.3 1.7v.5h-5.9v-1.1h4.3l-.3-.9-.5-.6-.9-.2q-.5 0-.9.3l-.6.6-.2.9v1q0 .6.2 1t.7.7 1 .2h.6l.5-.4.3-.5 1.6.2-.6 1-1 .8q-.7.2-1.5.2m10.2-5.3-1.5.1-.3-.4-.4-.3-.7-.1q-.5 0-.8.2t-.4.6l.2.5.8.3 1.2.3q1 .2 1.5.6.5.5.5 1.3a2 2 0 0 1-.4 1.2q-.3.5-1 .8t-1.6.2q-1.3 0-2.1-.5t-1-1.5l1.7-.2q.1.5.5.7.3.3.9.3t1-.3.3-.6l-.2-.5-.7-.3-1.3-.2q-1-.2-1.5-.7-.5-.6-.4-1.3l.3-1.2q.4-.5 1-.7.7-.3 1.5-.3 1.3 0 2 .5t.9 1.5"/><path fill="#f53d7d" d="M201.8 150.8a.8.8 0 0 0 1.4 0zm1.4-10a.8.8 0 0 0-1.4 0zm-1.4-28.8a.8.8 0 0 0 1.4 0zm1.2-11.3a1 1 0 0 0-1 0l-4.8 4.8a.7.7 0 1 0 1 1l4.3-4.2 4.2 4.3a.7.7 0 1 0 1.1-1.1zm-.5 50h.8v-9.9h-1.6v10zm0-38.7h.8v-10.7h-1.6V112z"/><path fill="#353841" d="M186 121.7h1.6l2.8 6.7h.1l2.8-6.7h1.6v8.7h-1.3V124l-2.6 6.3h-1l-2.6-6.3h-.1v6.3H186zm13.9 5.9h1.3l.9 1.1.4.6 1.5 1.9h-1.4l-1-1.3-.3-.5zm4.4-1.6q0 1.4-.6 2.4t-1.4 1.6-2 .5-2-.5-1.4-1.6-.5-2.4.5-2.4 1.4-1.5 2-.6 2 .6q1 .5 1.4 1.5.6 1 .6 2.4m-1.4 0q0-1-.3-1.8-.3-.7-1-1a2 2 0 0 0-1.3-.5l-1.3.4q-.6.4-1 1.1-.3.8-.3 1.8t.3 1.8 1 1.1 1.3.4 1.4-.4q.6-.3.9-1 .3-.8.3-1.9m2-3.2v-1.1h6.8v1.1H209v7.6h-1.3v-7.6zm7.7 0v-1.1h6.8v1.1h-2.7v7.6h-1.3v-7.6z"/><path fill="#bb3df5" d="M201.8 366.8a.8.8 0 0 0 1.4 0zm1.4-10a.8.8 0 0 0-1.4 0zm-1.4-28.8a.8.8 0 0 0 1.4 0zm1.2-11.3a1 1 0 0 0-1 0l-4.8 4.8a.7.7 0 1 0 1 1l4.3-4.2 4.2 4.3a.7.7 0 1 0 1.1-1.1zm-.5 50h.8v-9.9h-1.6v10zm0-38.7h.8v-10.7h-1.6V328z"/><path fill="#353841" d="M175.7 346.4v-8.7h1.3v7.6h4v1zm9.3.1q-1 0-1.6-.4a3 3 0 0 1-1-1.2q-.5-.7-.5-1.8 0-1 .4-1.7a3 3 0 0 1 1-1.2q.8-.4 1.7-.4t1.6.4 1 1.2q.4.7.4 1.7t-.3 1.8a3 3 0 0 1-1.1 1.2q-.7.4-1.6.4m0-1q.6 0 1-.4.4-.3.6-.8t.2-1.2-.2-1.1l-.6-.9q-.4-.3-1-.3t-1 .3l-.6.9-.2 1.1q0 .7.2 1.2t.6.8 1 .4m4.4.9v-8.7h3.2q1 0 1.6.3.7.4 1 1t.4 1.4-.4 1.4a2 2 0 0 1-1 1q-.6.3-1.7.3h-2.3V342h2.2q.7 0 1-.2.5-.2.7-.6t.1-.8l-.1-.9-.6-.5q-.4-.2-1-.2h-1.7v7.6zm4.3-4 2.2 4h-1.5l-2.1-4zm5.1 4.1q-.6 0-1-.2l-.9-.7q-.3-.4-.3-1t.2-1 .6-.5l.8-.4 1-.1.9-.1q.4 0 .5-.2t.2-.3q0-.6-.3-.9t-1-.3-1 .3l-.5.6-1.2-.3q.2-.6.7-1l1-.5 1-.1h.9l.8.4q.4.2.6.7.3.4.3 1.1v4.4h-1.3v-.9l-.4.5-.6.4zm.3-1q.6 0 1-.2l.5-.5.2-.8v-.8l-.3.1-.4.1h-.5l-.4.1-.7.2-.4.3q-.2.2-.2.6t.3.7 1 .2m5.6.9-2.4-8.7h1.4l1.7 6.7 1.9-6.7h1.3l1.8 6.7 1.8-6.7h1.4l-2.5 8.7H210l-1.8-6.5-2 6.5zm10 0h-1.5l3.2-8.7h1.5l3.1 8.7h-1.4l-2.4-7.2h-.1zm.2-3.4h4.5v1H215zm14.3-5.3v8.7h-1.2l-4.5-6.4v6.4h-1.3v-8.7h1.2l4.4 6.4v-6.4z"/><path fill="#f53d7d" d="M392.3 37.3a.8.8 0 0 0 0 1.5zm8.4 1.5a.8.8 0 1 0 0-1.5zm91.9-1.5a.8.8 0 0 0 0 1.5zm10.7 1.2a1 1 0 0 0 0-1l-4.8-4.8a.8.8 0 1 0-1 1l4.2 4.3-4.3 4.2a.8.8 0 0 0 1.1 1.1zm-111-.5v.8h8.4v-1.5h-8.5zm100.3 0v.8h10.2v-1.5h-10.2z"/><path fill="#353841" d="M407.2 33.3h1.6l2.8 6.8 2.9-6.8h1.6V42h-1.3v-6.3l-2.6 6.3h-1l-2.7-6.3V42h-1.3zm13.9 5.9h1.2l1 1.2.4.5 1.4 1.9h-1.3l-1-1.3-.3-.4zm4.3-1.6q0 1.4-.5 2.4t-1.4 1.6-2 .5-2-.5q-1-.6-1.4-1.6-.5-1-.5-2.4t.5-2.4 1.4-1.5 2-.5 2 .5 1.4 1.5.5 2.4m-1.3 0q0-1-.3-1.8-.4-.7-1-1l-1.3-.4q-.8 0-1.3.3-.6.4-1 1.1-.3.8-.3 1.8 0 1.1.3 1.8.4.8 1 1.1t1.3.4 1.3-.4q.6-.3 1-1 .3-.8.3-1.9m2-3.2v-1.1h6.8v1.1h-2.7V42h-1.3v-7.6zm7.7 0v-1.1h6.8v1.1h-2.8V42h-1.3v-7.6zm14.4-1.5-2.8 10.4h-1.2l2.9-10.4zM453 42h-1.4l3.2-8.7h1.5l3.1 8.7H458l-2.4-7.1h-.1zm.3-3.4h4.5v1h-4.5zm7.3-5.3h1.6l2.7 6.8h.1l2.8-6.8h1.6V42h-1.2v-6.3h-.1l-2.6 6.3h-1l-2.6-6.3V42h-1.3zm13.8 5.9h1.3l1 1.2.3.5 1.5 1.9h-1.3l-1-1.3-.4-.4zm4.4-1.6q0 1.4-.5 2.4t-1.4 1.6q-1 .5-2 .5-1.2 0-2-.5-1-.6-1.5-1.6t-.5-2.4.5-2.4 1.4-1.5q1-.5 2-.5 1.2 0 2 .5 1 .5 1.5 1.5t.5 2.4m-1.3 0q0-1-.4-1.8-.3-.7-1-1l-1.2-.4a2 2 0 0 0-1.4.3q-.6.4-1 1.1-.3.8-.3 1.8 0 1.1.4 1.8.3.8 1 1.1.5.4 1.3.4.7 0 1.3-.4.6-.3 1-1 .3-.8.3-1.9m2.8 4.4v-8.7h3.1q1 0 1.7.3.7.4 1 1t.3 1.5-.3 1.4a2 2 0 0 1-1 1q-.7.4-1.7.4h-2.1v-1h2q.6 0 1-.3t.6-.6.2-.9-.2-.9l-.6-.6q-.4-.2-1-.2h-1.7V42z"/><path fill="#f53d7d" d="M392.3 89.3a.8.8 0 0 0 0 1.5zm30.9 1.5a.8.8 0 1 0 0-1.5zm46.9-1.5a.8.8 0 0 0 0 1.5zm33.2 1.2a1 1 0 0 0 0-1l-4.8-4.8a.8.8 0 1 0-1 1l4.2 4.3-4.3 4.2a.8.8 0 0 0 1.1 1.1zm-111-.5v.8h30.9v-1.5h-31zm77.8 0v.8h32.7v-1.5H470z"/><path fill="#353841" d="M434.7 87.6a1 1 0 0 0-.5-1q-.5-.3-1.3-.3l-.9.2q-.4.1-.6.4l-.2.7.1.5.4.4.5.2.6.2.8.2.9.3.8.5q.4.3.6.7t.2 1-.4 1.3q-.3.6-1 1-.8.2-1.8.2t-1.7-.3-1.1-.8-.5-1.4h1.4q0 .5.3.8t.7.4.9.2 1-.2l.7-.5q.2-.3.2-.7l-.2-.7-.6-.4-.8-.3-1-.2q-1.1-.3-1.7-.9-.6-.5-.6-1.4t.4-1.4l1-.8q.8-.3 1.7-.3t1.5.3 1.1.8q.4.6.4 1.3zm2.8 6.4v-6.5h1.2V94zm.6-7.6-.6-.2-.2-.5.2-.6.6-.2.6.2.2.6-.2.5zm5 10.2q-.8 0-1.4-.2l-.9-.6-.5-.7 1-.4.4.4.5.3q.4.2.9.2.7 0 1.2-.4.5-.3.5-1.1v-1.3h-.1l-.4.5-.5.4q-.4.2-1 .2-.8 0-1.4-.4-.6-.3-1-1-.4-.8-.4-1.8t.4-1.8 1-1.1l1.4-.4q.6 0 1 .2l.6.4.3.5v-1h1.3V94q0 .9-.4 1.4t-1 .8zm0-3.8q.5 0 .9-.2t.6-.8.2-1.1-.2-1.2l-.6-.8q-.4-.2-1-.2t-.9.2l-.6.9-.2 1q0 .7.2 1.2t.6.8 1 .2m7.6-5.3v1H447v-1zM448 94v-7.3q0-.6.3-1t.7-.6l1-.2h.6l.4.1-.3 1h-.5q-.5 0-.7.2t-.2.7V94zm6.4.1q-1 0-1.6-.4a3 3 0 0 1-1-1.2q-.5-.7-.5-1.7t.4-1.8a3 3 0 0 1 1-1.2q.8-.4 1.7-.4 1 0 1.6.4t1 1.2.4 1.8-.3 1.7-1 1.2-1.7.4m0-1q.6 0 1-.4t.6-.8l.2-1.1q0-.7-.2-1.2l-.6-.8q-.4-.4-1-.4t-1 .4l-.6.8q-.2.5-.2 1.2t.2 1.1.6.8 1 .4m5-5.6L461 90l1.5-2.5h1.4l-2 3.2 2 3.3h-1.4l-1.5-2.4-1.4 2.4H458l2-3.3-2-3.2z"/><path fill="#bb3df5" d="M392.3 261.3a.8.8 0 0 0 0 1.4zm10.4 1.4a.8.8 0 1 0 0-1.4zm87.9-1.4a.8.8 0 0 0 0 1.4zm12.7 1.2a1 1 0 0 0 0-1l-4.8-4.8a.7.7 0 1 0-1 1l4.2 4.3-4.3 4.2a.7.7 0 1 0 1.1 1.1zm-111-.5v.8h10.4v-1.6h-10.4zm98.3 0v.8h12.2v-1.6h-12.2z"/><path fill="#353841" d="M409.1 257.3h1.6l2.8 6.8h.1l2.8-6.8h1.6v8.7h-1.3v-6.3L414 266h-1l-2.6-6.3h-.1v6.3H409zm13.9 5.9h1.3l.9 1.2.4.5 1.5 1.9h-1.4l-1-1.3-.3-.4zm4.4-1.6q0 1.4-.6 2.4t-1.4 1.6-2 .5-2-.5-1.4-1.6-.5-2.4.5-2.4 1.4-1.5 2-.5 2 .5q1 .5 1.4 1.5.6 1 .6 2.4m-1.3 0q0-1-.4-1.8-.3-.7-1-1l-1.3-.4q-.7 0-1.3.3-.6.4-1 1.1-.3.8-.3 1.8 0 1.1.3 1.8.4.8 1 1.1t1.3.4 1.4-.4q.6-.3 1-1 .3-.8.3-1.9m2-3.2v-1.1h6.7v1.1h-2.7v7.6h-1.3v-7.6zm7.6 0v-1.1h6.8v1.1h-2.7v7.6h-1.3v-7.6zm14.4-1.5-2.8 10.4h-1.1L449 257zm4.1 9.1v-8.7h1.3v3.8h4.4v-3.8h1.3v8.7H460v-3.8h-4.4v3.8zm8.4-7.6v-1.1h6.7v1.1h-2.7v7.6h-1.3v-7.6zm7.6 0v-1.1h6.8v1.1h-2.7v7.6H473v-7.6zm8.2 7.6v-8.7h3q1 0 1.8.3.6.4 1 1 .3.7.3 1.5t-.3 1.4a2 2 0 0 1-1 1q-.7.4-1.7.4h-2.2v-1h2q.7 0 1.1-.3t.6-.6.2-.9-.2-.9l-.6-.6q-.4-.2-1-.2h-1.7v7.6z"/><path fill="#bb3df5" d="M392.3 305.3a.8.8 0 0 0 0 1.4zm24.9 1.4a.8.8 0 1 0 0-1.4zm58.9-1.4a.8.8 0 0 0 0 1.4zm27.2 1.2a1 1 0 0 0 0-1l-4.8-4.8a.7.7 0 1 0-1 1l4.2 4.3-4.3 4.2a.7.7 0 1 0 1.1 1.1zm-111-.5v.8h24.9v-1.6h-25zm83.8 0v.8h26.7v-1.6H476z"/><path fill="#353841" d="M431.2 305.6q0 1.4-.5 2.4t-1.4 1.6-2 .5-2-.5q-1-.6-1.4-1.6t-.5-2.4q0-1.4.5-2.4t1.4-1.5 2-.5 2 .5q1 .5 1.4 1.5.5 1 .5 2.4m-1.3 0q0-1-.3-1.8-.4-.7-1-1l-1.3-.4q-.7 0-1.3.3-.6.4-1 1.1-.3.8-.3 1.8 0 1.1.3 1.8.4.8 1 1.1t1.3.4 1.3-.4q.6-.3 1-1 .3-.8.3-1.9m2.8 4.4v-8.7h3.2q1 0 1.6.3.7.4 1 1t.4 1.5-.4 1.4a2 2 0 0 1-1 1q-.6.4-1.6.4h-2.2v-1h2q.7 0 1-.3.5-.2.7-.6t.2-.9-.2-.9l-.6-.6q-.4-.2-1-.2H434v7.6zm14.8-5.9h-1.3l-.3-.7a2 2 0 0 0-1.2-1h-.8q-.7 0-1.3.3-.6.4-1 1.1-.3.8-.3 1.8 0 1.1.4 1.8.3.8.9 1.1t1.3.4h.8l.7-.4a2 2 0 0 0 .8-1.3h1.3l-.4 1.2-.8 1-1 .5-1.4.2q-1.1 0-2-.5t-1.4-1.6-.5-2.4.5-2.4 1.4-1.5 2-.5q.7 0 1.3.2l1.1.5q.5.4.8 1t.4 1.2m5.2 1v1H449v-1zm7.3-3.8h1.3v5.7q0 1-.4 1.6t-1.2 1.1-1.8.4-1.9-.4a3 3 0 0 1-1.2-1q-.4-.8-.4-1.7v-5.7h1.3v5.6q0 .6.3 1t.7.8 1.2.2 1.1-.2.8-.7l.2-1zm3.9 8.7h-1.4l3.1-8.7h1.5l3.2 8.7h-1.4l-2.5-7.1zm.2-3.4h4.5v1h-4.5z"/><rect width="133" height="55" x="538.5" y="178.5" fill="#cfd4fc" rx="9.5"/><rect width="133" height="55" x="538.5" y="178.5" stroke="#3d50f5" rx="9.5"/><rect width="30" height="30" x="550" y="191" fill="#3d50f5" rx="4"/><path fill="#cfd4fc" d="M569.9 208.1a1 1 0 0 1 1.2 0l2.8 2.8a1 1 0 0 1 0 1.2l-2.8 2.8a1 1 0 1 1-1.2-1.3l1.1-1.2h-13.3a1 1 0 1 1 0-1.8H571l-1.1-1.2a1 1 0 0 1 0-1.3m1.5-2.1v-5.5a1 1 0 0 0-.9-1h-11a1 1 0 0 0-1 1v7.3a1 1 0 1 1-1.8 0v-7.3q0-1 .9-2a3 3 0 0 1 1.9-.7h11a2.7 2.7 0 0 1 2.8 2.7v5.5a1 1 0 1 1-1.9 0"/><path fill="#17181c" d="M587.6 201.5v9.5H586v-9.5zm3.5 5.3v4.2h-1.7v-7h1.6v1.1h.1q.3-.6.8-1 .5-.3 1.3-.3t1.3.3.8 1 .3 1.4v4.5H594v-4.3q0-.7-.4-1-.4-.5-1-.5l-.8.2q-.3.2-.5.6t-.2.8m9.8-2.9v1.3h-4v-1.3zm-3-1.7h1.6v7.2l.4.2h.8l.3 1.3-.4.1-.6.1-1.1-.2-.8-.6q-.3-.5-.3-1.2zm7.4 9q-1 0-1.8-.5a3 3 0 0 1-1.2-1.3q-.4-.8-.4-1.9t.4-2 1.2-1.2 1.8-.5l1.2.2 1 .7q.5.4.7 1 .3.8.3 1.7v.5h-5.8v-1.1h4.2l-.2-.9-.6-.6-.8-.2q-.5 0-1 .3l-.5.6-.2.9v1q0 .6.2 1t.6.7 1 .2h.6l.5-.4.4-.5 1.5.2-.5 1-1 .8q-.7.2-1.6.2m7.7 2.7q-.9 0-1.5-.2t-1-.7l-.6-.9 1.5-.3q0 .2.3.4l.5.3.8.1q.7 0 1.2-.3t.5-1.1v-1.4h-.1l-.4.6-.6.4q-.4.2-1 .2a3 3 0 0 1-1.5-.4q-.7-.4-1-1.1-.5-.8-.5-2t.4-2q.4-.7 1-1.2t1.6-.4q.6 0 1 .2t.6.5l.4.6v-1.2h1.7v7.2q0 1-.4 1.5t-1.2 1q-.7.2-1.7.2m0-4.2q.5 0 1-.3.3-.2.5-.7t.2-1.2l-.2-1.2-.6-.7q-.3-.3-.9-.3-.5 0-1 .3l-.5.8-.2 1.1q0 .7.2 1.2t.6.7 1 .3m5 1.4v-7h1.6v1q.2-.5.7-.9l1-.3h.7v1.6h-.4l-.4-.1-.8.2q-.4.2-.6.5l-.2.8v4.2zm7 .1-1.2-.2-.9-.7q-.3-.5-.3-1.2t.3-1 .6-.6l.8-.4 1-.1 1-.2.6-.1q.2-.1.2-.4 0-.5-.3-.8t-1-.3-.9.3l-.5.6-1.5-.2q.2-.7.6-1.1l1-.7 1.4-.2 1 .1 1 .4.6.8q.3.4.3 1.2v4.7h-1.7v-1l-.4.6-.7.4zm.4-1.2 1-.2.5-.5.2-.7v-.9l-.3.1-.4.1-.5.1h-.3l-.7.2-.5.4-.2.5q0 .4.4.7t.8.2m8.6-6v1.3H630v-1.3zm-3.1-1.7h1.7v7.2l.4.2h.8l.3 1.3-.4.1-.6.1-1.1-.2-.8-.6q-.3-.5-.3-1.2zm4.5 8.8v-7h1.6v7zm.8-8.1-.7-.3-.3-.6.3-.6.7-.3q.4 0 .7.3t.3.6l-.3.6zm5.7 8.2q-1 0-1.8-.4a3 3 0 0 1-1.2-1.3q-.4-.8-.4-2 0-1 .4-1.8a3 3 0 0 1 1.2-1.3q.7-.5 1.8-.5t1.8.5 1.1 1.3.5 1.9-.5 1.9a3 3 0 0 1-1.1 1.3q-.8.4-1.8.4m0-1.3q.5 0 1-.3.3-.3.5-.9l.2-1.1-.2-1.2-.6-.8q-.4-.4-1-.4t-.9.4-.6.8l-.1 1.2.1 1.1q.2.6.6.9t1 .3m6.4-3v4.2h-1.6v-7h1.6v1.1q.3-.6.8-1 .6-.3 1.4-.3t1.2.3.9 1 .3 1.4v4.5h-1.7v-4.3q0-.7-.3-1-.4-.5-1-.5t-.8.2q-.4.2-.6.6t-.2.8m11.9-1-1.5.2-.3-.5-.4-.3-.6-.1q-.6 0-1 .2-.3.2-.3.6l.3.5q.2.2.7.3l1.3.3q1 .2 1.5.6.4.5.4 1.3l-.3 1.2q-.4.5-1.1.8-.7.2-1.6.2-1.3 0-2-.5-.9-.6-1-1.5l1.6-.2q.1.5.5.7.3.3 1 .3.5 0 .9-.3.3-.2.3-.6l-.2-.5q-.2-.2-.7-.3l-1.2-.2q-1-.2-1.5-.7-.5-.6-.5-1.3l.3-1.2q.4-.5 1-.7.7-.3 1.5-.3 1.3 0 2 .5t.9 1.5"/><path fill="#0f1c8a" d="M550 275v-8.7h5.4v1.1h-4.1v2.7h3.8v1h-3.8v2.8h4.2v1.1zm7 0v-6.5h1.2v1q.3-.5.7-.8.5-.3 1.1-.3t1.1.3.7.8q.3-.5.8-.8t1.2-.3q1 0 1.5.5t.6 1.7v4.4h-1.3v-4.3q0-.6-.4-1l-.8-.2q-.7 0-1 .4-.4.3-.4 1v4.1h-1.2v-4.4q0-.5-.4-.8t-.8-.3l-.7.2-.5.5-.2.8v4zm10.5 0v-8.7h1.3v3.2l.4-.5.6-.4q.4-.2 1-.2.8 0 1.4.4t1 1.1.3 1.8-.3 1.9-1 1.1-1.4.4-1-.2l-.6-.4-.3-.5h-.1v1zm1.3-3.3q0 .7.2 1.2t.6.9q.3.2.9.2t1-.3l.5-.8.2-1.2q0-.6-.2-1.1l-.6-.9q-.3-.2-1-.2-.5 0-.8.2l-.6.8zm8.8 3.4q-1 0-1.6-.4a3 3 0 0 1-1.1-1.2q-.4-.7-.4-1.7t.4-1.8 1-1.2 1.6-.4q.6 0 1.1.2.5.1 1 .5t.6 1q.2.7.2 1.6v.4h-5.2v-1h4l-.2-.8-.6-.7-.9-.2q-.5 0-.9.3l-.6.7-.2.9v.7q0 .7.2 1.1t.7.7 1 .3l.6-.1.5-.3.4-.6 1.2.3-.6.9q-.3.4-.9.6zm6.6 0q-.8 0-1.4-.4-.7-.4-1-1.1t-.4-1.9.4-1.8q.3-.7 1-1.1l1.4-.4q.6 0 1 .2l.5.4.4.5v-3.2h1.3v8.7h-1.2v-1h-.1l-.4.5-.6.4q-.3.2-1 .2m.4-1q.5 0 .9-.3t.6-.9.2-1.2-.2-1.2l-.6-.8q-.4-.2-1-.2l-1 .2q-.3.3-.5.9l-.2 1.1q0 .7.2 1.2t.6.8 1 .3m7 1.1q-.7 0-1.4-.4t-1-1.1-.3-1.9.4-1.8 1-1.1l1.4-.4q.6 0 1 .2l.5.4.3.5h.1v-3.2h1.3v8.7h-1.3v-1l-.4.5-.6.4q-.4.2-1 .2m.3-1q.6 0 1-.3.3-.3.5-.9.2-.5.2-1.2t-.2-1.2l-.5-.8q-.4-.2-1-.2l-1 .2q-.3.3-.5.9l-.2 1.1q0 .7.2 1.2t.6.8 1 .3m7.4 1.1q-1 0-1.7-.4a3 3 0 0 1-1-1.2q-.4-.7-.4-1.7t.4-1.8a3 3 0 0 1 1-1.2q.7-.4 1.6-.4.6 0 1 .2.6.1 1 .5t.7 1q.2.7.2 1.6v.4H597v-1h4l-.2-.8-.6-.7-.9-.2q-.5 0-1 .3l-.5.7-.2.9v.7q0 .7.2 1.1t.6.7 1 .3l.7-.1.5-.3.3-.6 1.2.3q-.1.5-.5.9t-1 .6zm6.5 0q-.8 0-1.4-.4t-1-1.1-.3-1.9.4-1.8 1-1.1l1.3-.4q.7 0 1 .2l.6.4.3.5h.1v-3.2h1.3v8.7h-1.3v-1l-.4.5-.6.4q-.4.2-1 .2m.3-1q.6 0 1-.3.3-.3.5-.9.2-.5.2-1.2t-.2-1.2l-.5-.8q-.4-.2-1-.2t-1 .2q-.3.3-.5.9l-.2 1.1q0 .7.2 1.2t.6.8 1 .3m7.6 1v-6.5h1.3v6.5zm.7-7.6-.6-.2-.2-.5.2-.6.6-.2q.3 0 .5.2l.3.6q0 .3-.3.5zm3.4 3.7v3.9h-1.2v-6.5h1.2v1q.3-.5.8-.8t1.2-.3 1.2.3.8.8.2 1.3v4.2H621v-4q0-.7-.4-1.1t-1-.4q-.5 0-.8.2l-.6.5q-.2.4-.2 1m13.8-1.1-1.2.2-.2-.5-.4-.3-.7-.1-1 .2q-.3.3-.3.6l.3.6q.2.2.8.3l1 .2q.9.2 1.3.7t.5 1.1-.4 1q-.3.5-.9.8-.6.2-1.4.2-1 0-1.8-.4-.7-.5-.8-1.4l1.2-.2q.1.5.5.8.3.2.9.2t1-.3q.4-.2.4-.6l-.3-.5-.6-.3-1.2-.3q-.9-.2-1.3-.6-.4-.5-.4-1.2t.3-1 .9-.7q.5-.2 1.3-.2 1 0 1.7.4t.8 1.3m4.2 5q-1 0-1.7-.4a3 3 0 0 1-1-1.2q-.4-.7-.4-1.7t.3-1.8a3 3 0 0 1 1-1.2q.8-.4 1.7-.4l1 .2q.6.1 1 .5t.6 1 .3 1.6v.4h-5.2v-1h4q0-.4-.3-.8l-.5-.7-1-.2q-.4 0-.8.3l-.7.7-.2.9v.7q0 .7.3 1.1t.6.7 1 .3l.6-.1.6-.3.3-.6 1.2.3q-.1.5-.5.9t-1 .6zm4-.1v-6.5h1.3v1q.2-.5.7-.8l1-.3h.6v1.2h-.7l-.8.1q-.4.2-.6.5l-.2.8v4zm10.3-6.5L648 275h-1.4l-2.4-6.5h1.4l1.6 5h.1l1.7-5zm3.7 6.6q-1 0-1.7-.4a3 3 0 0 1-1-1.2q-.4-.7-.4-1.7t.4-1.8a3 3 0 0 1 1-1.2q.7-.4 1.6-.4.6 0 1 .2.6.1 1 .5t.7 1q.2.7.2 1.6v.4h-5.2v-1h4l-.2-.8-.6-.7-.9-.2q-.5 0-1 .3l-.5.7-.2.9v.7q0 .7.2 1.1t.6.7 1 .3l.7-.1.5-.3.3-.6 1.2.3q-.1.5-.5.9t-1 .6zm4-.1v-6.5h1.3v1q.3-.5.7-.8l1-.3h.6v1.2h-.7l-.8.1a1.4 1.4 0 0 0-.7 1.3v4z"/><path stroke="#0f1c8a" stroke-linecap="round" stroke-linejoin="bevel" stroke-width="1.5" d="M605.5 237.3v22.4"/></g><defs><clipPath id="a"><path fill="#fff" d="M0 0h720v442H0z"/></clipPath><clipPath id="b"><path fill="#fff" d="M-12 0h730v646H-12z"/></clipPath></defs></svg>