<svg xmlns="http://www.w3.org/2000/svg" width="720" height="479" fill="none" viewBox="0 0 720 479"><g clip-path="url(#a)"><path fill="#17181c" d="M0 0h720v479H0z"/><g fill="#353841" clip-path="url(#b)" opacity=".5"><circle cx="3" cy="17" r="1"/><circle cx="87" cy="17" r="1"/><circle cx="73" cy="17" r="1"/><circle cx="17" cy="17" r="1"/><circle cx="101" cy="17" r="1"/><circle cx="3" cy="3" r="1"/><circle cx="87" cy="3" r="1"/><circle cx="73" cy="3" r="1"/><circle cx="17" cy="3" r="1"/><circle cx="101" cy="3" r="1"/><circle cx="3" cy="31" r="1"/><circle cx="87" cy="31" r="1"/><circle cx="73" cy="31" r="1"/><circle cx="17" cy="31" r="1"/><circle cx="101" cy="31" r="1"/><circle cx="45" cy="17" r="1"/><circle cx="129" cy="17" r="1"/><circle cx="31" cy="17" r="1"/><circle cx="115" cy="17" r="1"/><circle cx="59" cy="17" r="1"/><circle cx="143" cy="17" r="1"/><circle cx="45" cy="3" r="1"/><circle cx="129" cy="3" r="1"/><circle cx="31" cy="3" r="1"/><circle cx="115" cy="3" r="1"/><circle cx="59" cy="3" r="1"/><circle cx="143" cy="3" r="1"/><circle cx="45" cy="31" r="1"/><circle cx="129" cy="31" r="1"/><circle cx="31" cy="31" r="1"/><circle cx="115" cy="31" r="1"/><circle cx="59" cy="31" r="1"/><circle cx="143" cy="31" r="1"/><circle cx="3" cy="59" r="1"/><circle cx="87" cy="59" r="1"/><circle cx="3" cy="101" r="1"/><circle cx="87" cy="101" r="1"/><circle cx="3" cy="143" r="1"/><circle cx="87" cy="143" r="1"/><circle cx="3" cy="185" r="1"/><circle cx="87" cy="185" r="1"/><circle cx="3" cy="227" r="1"/><circle cx="87" cy="227" r="1"/><circle cx="3" cy="269" r="1"/><circle cx="87" cy="269" r="1"/><circle cx="3" cy="311" r="1"/><circle cx="87" cy="311" r="1"/><circle cx="73" cy="59" r="1"/><circle cx="73" cy="101" r="1"/><circle cx="73" cy="143" r="1"/><circle cx="73" cy="185" r="1"/><circle cx="73" cy="227" r="1"/><circle cx="73" cy="269" r="1"/><circle cx="73" cy="311" r="1"/><circle cx="17" cy="59" r="1"/><circle cx="101" cy="59" r="1"/><circle cx="17" cy="101" r="1"/><circle cx="101" cy="101" r="1"/><circle cx="17" cy="143" r="1"/><circle cx="101" cy="143" r="1"/><circle cx="17" cy="185" r="1"/><circle cx="101" cy="185" r="1"/><circle cx="17" cy="227" r="1"/><circle cx="101" cy="227" r="1"/><circle cx="17" cy="269" r="1"/><circle cx="101" cy="269" r="1"/><circle cx="17" cy="311" r="1"/><circle cx="101" cy="311" r="1"/><circle cx="3" cy="45" r="1"/><circle cx="87" cy="45" r="1"/><circle cx="3" cy="87" r="1"/><circle cx="87" cy="87" r="1"/><circle cx="3" cy="129" r="1"/><circle cx="87" cy="129" r="1"/><circle cx="3" cy="171" r="1"/><circle cx="87" cy="171" r="1"/><circle cx="3" cy="213" r="1"/><circle cx="87" cy="213" r="1"/><circle cx="3" cy="255" r="1"/><circle cx="87" cy="255" r="1"/><circle cx="3" cy="297" r="1"/><circle cx="87" cy="297" r="1"/><circle cx="73" cy="45" r="1"/><circle cx="73" cy="87" r="1"/><circle cx="73" cy="129" r="1"/><circle cx="73" cy="171" r="1"/><circle cx="73" cy="213" r="1"/><circle cx="73" cy="255" r="1"/><circle cx="73" cy="297" r="1"/><circle cx="17" cy="45" r="1"/><circle cx="101" cy="45" r="1"/><circle cx="17" cy="87" r="1"/><circle cx="101" cy="87" r="1"/><circle cx="17" cy="129" r="1"/><circle cx="101" cy="129" r="1"/><circle cx="17" cy="171" r="1"/><circle cx="101" cy="171" r="1"/><circle cx="17" cy="213" r="1"/><circle cx="101" cy="213" r="1"/><circle cx="17" cy="255" r="1"/><circle cx="101" cy="255" r="1"/><circle cx="17" cy="297" r="1"/><circle cx="101" cy="297" r="1"/><circle cx="3" cy="73" r="1"/><circle cx="87" cy="73" r="1"/><circle cx="3" cy="115" r="1"/><circle cx="87" cy="115" r="1"/><circle cx="3" cy="157" r="1"/><circle cx="87" cy="157" r="1"/><circle cx="3" cy="199" r="1"/><circle cx="87" cy="199" r="1"/><circle cx="3" cy="241" r="1"/><circle cx="87" cy="241" r="1"/><circle cx="3" cy="283" r="1"/><circle cx="87" cy="283" r="1"/><circle cx="3" cy="325" r="1"/><circle cx="87" cy="325" r="1"/><circle cx="73" cy="73" r="1"/><circle cx="73" cy="115" r="1"/><circle cx="73" cy="157" r="1"/><circle cx="73" cy="199" r="1"/><circle cx="73" cy="241" r="1"/><circle cx="73" cy="283" r="1"/><circle cx="73" cy="325" r="1"/><circle cx="17" cy="73" r="1"/><circle cx="101" cy="73" r="1"/><circle cx="17" cy="115" r="1"/><circle cx="101" cy="115" r="1"/><circle cx="17" cy="157" r="1"/><circle cx="101" cy="157" r="1"/><circle cx="17" cy="199" r="1"/><circle cx="101" cy="199" r="1"/><circle cx="17" cy="241" r="1"/><circle cx="101" cy="241" r="1"/><circle cx="17" cy="283" r="1"/><circle cx="101" cy="283" r="1"/><circle cx="17" cy="325" r="1"/><circle cx="101" cy="325" r="1"/><circle cx="45" cy="59" r="1"/><circle cx="129" cy="59" r="1"/><circle cx="45" cy="101" r="1"/><circle cx="129" cy="101" r="1"/><circle cx="45" cy="143" r="1"/><circle cx="129" cy="143" r="1"/><circle cx="45" cy="185" r="1"/><circle cx="129" cy="185" r="1"/><circle cx="45" cy="227" r="1"/><circle cx="129" cy="227" r="1"/><circle cx="45" cy="269" r="1"/><circle cx="129" cy="269" r="1"/><circle cx="45" cy="311" r="1"/><circle cx="129" cy="311" r="1"/><circle cx="31" cy="59" r="1"/><circle cx="115" cy="59" r="1"/><circle cx="31" cy="101" r="1"/><circle cx="115" cy="101" r="1"/><circle cx="31" cy="143" r="1"/><circle cx="115" cy="143" r="1"/><circle cx="31" cy="185" r="1"/><circle cx="115" cy="185" r="1"/><circle cx="31" cy="227" r="1"/><circle cx="115" cy="227" r="1"/><circle cx="31" cy="269" r="1"/><circle cx="115" cy="269" r="1"/><circle cx="31" cy="311" r="1"/><circle cx="115" cy="311" r="1"/><circle cx="59" cy="59" r="1"/><circle cx="143" cy="59" r="1"/><circle cx="59" cy="101" r="1"/><circle cx="143" cy="101" r="1"/><circle cx="59" cy="143" r="1"/><circle cx="143" cy="143" r="1"/><circle cx="59" cy="185" r="1"/><circle cx="143" cy="185" r="1"/><circle cx="59" cy="227" r="1"/><circle cx="143" cy="227" r="1"/><circle cx="59" cy="269" r="1"/><circle cx="143" cy="269" r="1"/><circle cx="59" cy="311" r="1"/><circle cx="143" cy="311" r="1"/><circle cx="45" cy="45" r="1"/><circle cx="129" cy="45" r="1"/><circle cx="45" cy="87" r="1"/><circle cx="129" cy="87" r="1"/><circle cx="45" cy="129" r="1"/><circle cx="129" cy="129" r="1"/><circle cx="45" cy="171" r="1"/><circle cx="129" cy="171" r="1"/><circle cx="45" cy="213" r="1"/><circle cx="129" cy="213" r="1"/><circle cx="45" cy="255" r="1"/><circle cx="129" cy="255" r="1"/><circle cx="45" cy="297" r="1"/><circle cx="129" cy="297" r="1"/><circle cx="31" cy="45" r="1"/><circle cx="115" cy="45" r="1"/><circle cx="31" cy="87" r="1"/><circle cx="115" cy="87" r="1"/><circle cx="31" cy="129" r="1"/><circle cx="115" cy="129" r="1"/><circle cx="31" cy="171" r="1"/><circle cx="115" cy="171" r="1"/><circle cx="31" cy="213" r="1"/><circle cx="115" cy="213" r="1"/><circle cx="31" cy="255" r="1"/><circle cx="115" cy="255" r="1"/><circle cx="31" cy="297" r="1"/><circle cx="115" cy="297" r="1"/><circle cx="59" cy="45" r="1"/><circle cx="143" cy="45" r="1"/><circle cx="59" cy="87" r="1"/><circle cx="143" cy="87" r="1"/><circle cx="59" cy="129" r="1"/><circle cx="143" cy="129" r="1"/><circle cx="59" cy="171" r="1"/><circle cx="143" cy="171" r="1"/><circle cx="59" cy="213" r="1"/><circle cx="143" cy="213" r="1"/><circle cx="59" cy="255" r="1"/><circle cx="143" cy="255" r="1"/><circle cx="59" cy="297" r="1"/><circle cx="143" cy="297" r="1"/><circle cx="45" cy="73" r="1"/><circle cx="129" cy="73" r="1"/><circle cx="45" cy="115" r="1"/><circle cx="129" cy="115" r="1"/><circle cx="45" cy="157" r="1"/><circle cx="129" cy="157" r="1"/><circle cx="45" cy="199" r="1"/><circle cx="129" cy="199" r="1"/><circle cx="45" cy="241" r="1"/><circle cx="129" cy="241" r="1"/><circle cx="45" cy="283" r="1"/><circle cx="129" cy="283" r="1"/><circle cx="45" cy="325" r="1"/><circle cx="129" cy="325" r="1"/><circle cx="31" cy="73" r="1"/><circle cx="115" cy="73" r="1"/><circle cx="31" cy="115" r="1"/><circle cx="115" cy="115" r="1"/><circle cx="31" cy="157" r="1"/><circle cx="115" cy="157" r="1"/><circle cx="31" cy="199" r="1"/><circle cx="115" cy="199" r="1"/><circle cx="31" cy="241" r="1"/><circle cx="115" cy="241" r="1"/><circle cx="31" cy="283" r="1"/><circle cx="115" cy="283" r="1"/><circle cx="31" cy="325" r="1"/><circle cx="115" cy="325" r="1"/><circle cx="59" cy="73" r="1"/><circle cx="143" cy="73" r="1"/><circle cx="59" cy="115" r="1"/><circle cx="143" cy="115" r="1"/><circle cx="59" cy="157" r="1"/><circle cx="143" cy="157" r="1"/><circle cx="59" cy="199" r="1"/><circle cx="143" cy="199" r="1"/><circle cx="59" cy="241" r="1"/><circle cx="143" cy="241" r="1"/><circle cx="59" cy="283" r="1"/><circle cx="143" cy="283" r="1"/><circle cx="59" cy="325" r="1"/><circle cx="143" cy="325" r="1"/><circle cx="171" cy="17" r="1"/><circle cx="255" cy="17" r="1"/><circle cx="157" cy="17" r="1"/><circle cx="241" cy="17" r="1"/><circle cx="185" cy="17" r="1"/><circle cx="269" cy="17" r="1"/><circle cx="171" cy="3" r="1"/><circle cx="255" cy="3" r="1"/><circle cx="157" cy="3" r="1"/><circle cx="241" cy="3" r="1"/><circle cx="185" cy="3" r="1"/><circle cx="269" cy="3" r="1"/><circle cx="171" cy="31" r="1"/><circle cx="255" cy="31" r="1"/><circle cx="157" cy="31" r="1"/><circle cx="241" cy="31" r="1"/><circle cx="185" cy="31" r="1"/><circle cx="269" cy="31" r="1"/><circle cx="213" cy="17" r="1"/><circle cx="297" cy="17" r="1"/><circle cx="199" cy="17" r="1"/><circle cx="283" cy="17" r="1"/><circle cx="227" cy="17" r="1"/><circle cx="311" cy="17" r="1"/><circle cx="213" cy="3" r="1"/><circle cx="297" cy="3" r="1"/><circle cx="199" cy="3" r="1"/><circle cx="283" cy="3" r="1"/><circle cx="227" cy="3" r="1"/><circle cx="311" cy="3" r="1"/><circle cx="213" cy="31" r="1"/><circle cx="297" cy="31" r="1"/><circle cx="199" cy="31" r="1"/><circle cx="283" cy="31" r="1"/><circle cx="227" cy="31" r="1"/><circle cx="311" cy="31" r="1"/><circle cx="171" cy="59" r="1"/><circle cx="255" cy="59" r="1"/><circle cx="171" cy="101" r="1"/><circle cx="255" cy="101" r="1"/><circle cx="171" cy="143" r="1"/><circle cx="255" cy="143" r="1"/><circle cx="171" cy="185" r="1"/><circle cx="255" cy="185" r="1"/><circle cx="171" cy="227" r="1"/><circle cx="255" cy="227" r="1"/><circle cx="171" cy="269" r="1"/><circle cx="255" cy="269" r="1"/><circle cx="171" cy="311" r="1"/><circle cx="255" cy="311" r="1"/><circle cx="157" cy="59" r="1"/><circle cx="241" cy="59" r="1"/><circle cx="157" cy="101" r="1"/><circle cx="241" cy="101" r="1"/><circle cx="157" cy="143" r="1"/><circle cx="241" cy="143" r="1"/><circle cx="157" cy="185" r="1"/><circle cx="241" cy="185" r="1"/><circle cx="157" cy="227" r="1"/><circle cx="241" cy="227" r="1"/><circle cx="157" cy="269" r="1"/><circle cx="241" cy="269" r="1"/><circle cx="157" cy="311" r="1"/><circle cx="241" cy="311" r="1"/><circle cx="185" cy="59" r="1"/><circle cx="269" cy="59" r="1"/><circle cx="185" cy="101" r="1"/><circle cx="269" cy="101" r="1"/><circle cx="185" cy="143" r="1"/><circle cx="269" cy="143" r="1"/><circle cx="185" cy="185" r="1"/><circle cx="269" cy="185" r="1"/><circle cx="185" cy="227" r="1"/><circle cx="269" cy="227" r="1"/><circle cx="185" cy="269" r="1"/><circle cx="269" cy="269" r="1"/><circle cx="185" cy="311" r="1"/><circle cx="269" cy="311" r="1"/><circle cx="171" cy="45" r="1"/><circle cx="255" cy="45" r="1"/><circle cx="171" cy="87" r="1"/><circle cx="255" cy="87" r="1"/><circle cx="171" cy="129" r="1"/><circle cx="255" cy="129" r="1"/><circle cx="171" cy="171" r="1"/><circle cx="255" cy="171" r="1"/><circle cx="171" cy="213" r="1"/><circle cx="255" cy="213" r="1"/><circle cx="171" cy="255" r="1"/><circle cx="255" cy="255" r="1"/><circle cx="171" cy="297" r="1"/><circle cx="255" cy="297" r="1"/><circle cx="157" cy="45" r="1"/><circle cx="241" cy="45" r="1"/><circle cx="157" cy="87" r="1"/><circle cx="241" cy="87" r="1"/><circle cx="157" cy="129" r="1"/><circle cx="241" cy="129" r="1"/><circle cx="157" cy="171" r="1"/><circle cx="241" cy="171" r="1"/><circle cx="157" cy="213" r="1"/><circle cx="241" cy="213" r="1"/><circle cx="157" cy="255" r="1"/><circle cx="241" cy="255" r="1"/><circle cx="157" cy="297" r="1"/><circle cx="241" cy="297" r="1"/><circle cx="185" cy="45" r="1"/><circle cx="269" cy="45" r="1"/><circle cx="185" cy="87" r="1"/><circle cx="269" cy="87" r="1"/><circle cx="185" cy="129" r="1"/><circle cx="269" cy="129" r="1"/><circle cx="185" cy="171" r="1"/><circle cx="269" cy="171" r="1"/><circle cx="185" cy="213" r="1"/><circle cx="269" cy="213" r="1"/><circle cx="185" cy="255" r="1"/><circle cx="269" cy="255" r="1"/><circle cx="185" cy="297" r="1"/><circle cx="269" cy="297" r="1"/><circle cx="171" cy="73" r="1"/><circle cx="255" cy="73" r="1"/><circle cx="171" cy="115" r="1"/><circle cx="255" cy="115" r="1"/><circle cx="171" cy="157" r="1"/><circle cx="255" cy="157" r="1"/><circle cx="171" cy="199" r="1"/><circle cx="255" cy="199" r="1"/><circle cx="171" cy="241" r="1"/><circle cx="255" cy="241" r="1"/><circle cx="171" cy="283" r="1"/><circle cx="255" cy="283" r="1"/><circle cx="171" cy="325" r="1"/><circle cx="255" cy="325" r="1"/><circle cx="157" cy="73" r="1"/><circle cx="241" cy="73" r="1"/><circle cx="157" cy="115" r="1"/><circle cx="241" cy="115" r="1"/><circle cx="157" cy="157" r="1"/><circle cx="241" cy="157" r="1"/><circle cx="157" cy="199" r="1"/><circle cx="241" cy="199" r="1"/><circle cx="157" cy="241" r="1"/><circle cx="241" cy="241" r="1"/><circle cx="157" cy="283" r="1"/><circle cx="241" cy="283" r="1"/><circle cx="157" cy="325" r="1"/><circle cx="241" cy="325" r="1"/><circle cx="185" cy="73" r="1"/><circle cx="269" cy="73" r="1"/><circle cx="185" cy="115" r="1"/><circle cx="269" cy="115" r="1"/><circle cx="185" cy="157" r="1"/><circle cx="269" cy="157" r="1"/><circle cx="185" cy="199" r="1"/><circle cx="269" cy="199" r="1"/><circle cx="185" cy="241" r="1"/><circle cx="269" cy="241" r="1"/><circle cx="185" cy="283" r="1"/><circle cx="269" cy="283" r="1"/><circle cx="185" cy="325" r="1"/><circle cx="269" cy="325" r="1"/><circle cx="213" cy="59" r="1"/><circle cx="297" cy="59" r="1"/><circle cx="213" cy="101" r="1"/><circle cx="297" cy="101" r="1"/><circle cx="213" cy="143" r="1"/><circle cx="297" cy="143" r="1"/><circle cx="213" cy="185" r="1"/><circle cx="297" cy="185" r="1"/><circle cx="213" cy="227" r="1"/><circle cx="297" cy="227" r="1"/><circle cx="213" cy="269" r="1"/><circle cx="297" cy="269" r="1"/><circle cx="213" cy="311" r="1"/><circle cx="297" cy="311" r="1"/><circle cx="199" cy="59" r="1"/><circle cx="283" cy="59" r="1"/><circle cx="199" cy="101" r="1"/><circle cx="283" cy="101" r="1"/><circle cx="199" cy="143" r="1"/><circle cx="283" cy="143" r="1"/><circle cx="199" cy="185" r="1"/><circle cx="283" cy="185" r="1"/><circle cx="199" cy="227" r="1"/><circle cx="283" cy="227" r="1"/><circle cx="199" cy="269" r="1"/><circle cx="283" cy="269" r="1"/><circle cx="199" cy="311" r="1"/><circle cx="283" cy="311" r="1"/><circle cx="227" cy="59" r="1"/><circle cx="311" cy="59" r="1"/><circle cx="227" cy="101" r="1"/><circle cx="311" cy="101" r="1"/><circle cx="227" cy="143" r="1"/><circle cx="311" cy="143" r="1"/><circle cx="227" cy="185" r="1"/><circle cx="311" cy="185" r="1"/><circle cx="227" cy="227" r="1"/><circle cx="311" cy="227" r="1"/><circle cx="227" cy="269" r="1"/><circle cx="311" cy="269" r="1"/><circle cx="227" cy="311" r="1"/><circle cx="311" cy="311" r="1"/><circle cx="213" cy="45" r="1"/><circle cx="297" cy="45" r="1"/><circle cx="213" cy="87" r="1"/><circle cx="297" cy="87" r="1"/><circle cx="213" cy="129" r="1"/><circle cx="297" cy="129" r="1"/><circle cx="213" cy="171" r="1"/><circle cx="297" cy="171" r="1"/><circle cx="213" cy="213" r="1"/><circle cx="297" cy="213" r="1"/><circle cx="213" cy="255" r="1"/><circle cx="297" cy="255" r="1"/><circle cx="213" cy="297" r="1"/><circle cx="297" cy="297" r="1"/><circle cx="199" cy="45" r="1"/><circle cx="283" cy="45" r="1"/><circle cx="199" cy="87" r="1"/><circle cx="283" cy="87" r="1"/><circle cx="199" cy="129" r="1"/><circle cx="283" cy="129" r="1"/><circle cx="199" cy="171" r="1"/><circle cx="283" cy="171" r="1"/><circle cx="199" cy="213" r="1"/><circle cx="283" cy="213" r="1"/><circle cx="199" cy="255" r="1"/><circle cx="283" cy="255" r="1"/><circle cx="199" cy="297" r="1"/><circle cx="283" cy="297" r="1"/><circle cx="227" cy="45" r="1"/><circle cx="311" cy="45" r="1"/><circle cx="227" cy="87" r="1"/><circle cx="311" cy="87" r="1"/><circle cx="227" cy="129" r="1"/><circle cx="311" cy="129" r="1"/><circle cx="227" cy="171" r="1"/><circle cx="311" cy="171" r="1"/><circle cx="227" cy="213" r="1"/><circle cx="311" cy="213" r="1"/><circle cx="227" cy="255" r="1"/><circle cx="311" cy="255" r="1"/><circle cx="227" cy="297" r="1"/><circle cx="311" cy="297" r="1"/><circle cx="213" cy="73" r="1"/><circle cx="297" cy="73" r="1"/><circle cx="213" cy="115" r="1"/><circle cx="297" cy="115" r="1"/><circle cx="213" cy="157" r="1"/><circle cx="297" cy="157" r="1"/><circle cx="213" cy="199" r="1"/><circle cx="297" cy="199" r="1"/><circle cx="213" cy="241" r="1"/><circle cx="297" cy="241" r="1"/><circle cx="213" cy="283" r="1"/><circle cx="297" cy="283" r="1"/><circle cx="213" cy="325" r="1"/><circle cx="297" cy="325" r="1"/><circle cx="199" cy="73" r="1"/><circle cx="283" cy="73" r="1"/><circle cx="199" cy="115" r="1"/><circle cx="283" cy="115" r="1"/><circle cx="199" cy="157" r="1"/><circle cx="283" cy="157" r="1"/><circle cx="199" cy="199" r="1"/><circle cx="283" cy="199" r="1"/><circle cx="199" cy="241" r="1"/><circle cx="283" cy="241" r="1"/><circle cx="199" cy="283" r="1"/><circle cx="283" cy="283" r="1"/><circle cx="199" cy="325" r="1"/><circle cx="283" cy="325" r="1"/><circle cx="227" cy="73" r="1"/><circle cx="311" cy="73" r="1"/><circle cx="227" cy="115" r="1"/><circle cx="311" cy="115" r="1"/><circle cx="227" cy="157" r="1"/><circle cx="311" cy="157" r="1"/><circle cx="227" cy="199" r="1"/><circle cx="311" cy="199" r="1"/><circle cx="227" cy="241" r="1"/><circle cx="311" cy="241" r="1"/><circle cx="227" cy="283" r="1"/><circle cx="311" cy="283" r="1"/><circle cx="227" cy="325" r="1"/><circle cx="311" cy="325" r="1"/><circle cx="339" cy="17" r="1"/><circle cx="423" cy="17" r="1"/><circle cx="325" cy="17" r="1"/><circle cx="409" cy="17" r="1"/><circle cx="353" cy="17" r="1"/><circle cx="437" cy="17" r="1"/><circle cx="339" cy="3" r="1"/><circle cx="423" cy="3" r="1"/><circle cx="325" cy="3" r="1"/><circle cx="409" cy="3" r="1"/><circle cx="353" cy="3" r="1"/><circle cx="437" cy="3" r="1"/><circle cx="339" cy="31" r="1"/><circle cx="423" cy="31" r="1"/><circle cx="325" cy="31" r="1"/><circle cx="409" cy="31" r="1"/><circle cx="353" cy="31" r="1"/><circle cx="437" cy="31" r="1"/><circle cx="381" cy="17" r="1"/><circle cx="465" cy="17" r="1"/><circle cx="367" cy="17" r="1"/><circle cx="451" cy="17" r="1"/><circle cx="395" cy="17" r="1"/><circle cx="479" cy="17" r="1"/><circle cx="381" cy="3" r="1"/><circle cx="465" cy="3" r="1"/><circle cx="367" cy="3" r="1"/><circle cx="451" cy="3" r="1"/><circle cx="395" cy="3" r="1"/><circle cx="479" cy="3" r="1"/><circle cx="381" cy="31" r="1"/><circle cx="465" cy="31" r="1"/><circle cx="367" cy="31" r="1"/><circle cx="451" cy="31" r="1"/><circle cx="395" cy="31" r="1"/><circle cx="479" cy="31" r="1"/><circle cx="339" cy="59" r="1"/><circle cx="423" cy="59" r="1"/><circle cx="339" cy="101" r="1"/><circle cx="423" cy="101" r="1"/><circle cx="339" cy="143" r="1"/><circle cx="423" cy="143" r="1"/><circle cx="339" cy="185" r="1"/><circle cx="423" cy="185" r="1"/><circle cx="339" cy="227" r="1"/><circle cx="423" cy="227" r="1"/><circle cx="339" cy="269" r="1"/><circle cx="423" cy="269" r="1"/><circle cx="339" cy="311" r="1"/><circle cx="423" cy="311" r="1"/><circle cx="325" cy="59" r="1"/><circle cx="409" cy="59" r="1"/><circle cx="325" cy="101" r="1"/><circle cx="409" cy="101" r="1"/><circle cx="325" cy="143" r="1"/><circle cx="409" cy="143" r="1"/><circle cx="325" cy="185" r="1"/><circle cx="409" cy="185" r="1"/><circle cx="325" cy="227" r="1"/><circle cx="409" cy="227" r="1"/><circle cx="325" cy="269" r="1"/><circle cx="409" cy="269" r="1"/><circle cx="325" cy="311" r="1"/><circle cx="409" cy="311" r="1"/><circle cx="353" cy="59" r="1"/><circle cx="437" cy="59" r="1"/><circle cx="353" cy="101" r="1"/><circle cx="437" cy="101" r="1"/><circle cx="353" cy="143" r="1"/><circle cx="437" cy="143" r="1"/><circle cx="353" cy="185" r="1"/><circle cx="437" cy="185" r="1"/><circle cx="353" cy="227" r="1"/><circle cx="437" cy="227" r="1"/><circle cx="353" cy="269" r="1"/><circle cx="437" cy="269" r="1"/><circle cx="353" cy="311" r="1"/><circle cx="437" cy="311" r="1"/><circle cx="339" cy="45" r="1"/><circle cx="423" cy="45" r="1"/><circle cx="339" cy="87" r="1"/><circle cx="423" cy="87" r="1"/><circle cx="339" cy="129" r="1"/><circle cx="423" cy="129" r="1"/><circle cx="339" cy="171" r="1"/><circle cx="423" cy="171" r="1"/><circle cx="339" cy="213" r="1"/><circle cx="423" cy="213" r="1"/><circle cx="339" cy="255" r="1"/><circle cx="423" cy="255" r="1"/><circle cx="339" cy="297" r="1"/><circle cx="423" cy="297" r="1"/><circle cx="325" cy="45" r="1"/><circle cx="409" cy="45" r="1"/><circle cx="325" cy="87" r="1"/><circle cx="409" cy="87" r="1"/><circle cx="325" cy="129" r="1"/><circle cx="409" cy="129" r="1"/><circle cx="325" cy="171" r="1"/><circle cx="409" cy="171" r="1"/><circle cx="325" cy="213" r="1"/><circle cx="409" cy="213" r="1"/><circle cx="325" cy="255" r="1"/><circle cx="409" cy="255" r="1"/><circle cx="325" cy="297" r="1"/><circle cx="409" cy="297" r="1"/><circle cx="353" cy="45" r="1"/><circle cx="437" cy="45" r="1"/><circle cx="353" cy="87" r="1"/><circle cx="437" cy="87" r="1"/><circle cx="353" cy="129" r="1"/><circle cx="437" cy="129" r="1"/><circle cx="353" cy="171" r="1"/><circle cx="437" cy="171" r="1"/><circle cx="353" cy="213" r="1"/><circle cx="437" cy="213" r="1"/><circle cx="353" cy="255" r="1"/><circle cx="437" cy="255" r="1"/><circle cx="353" cy="297" r="1"/><circle cx="437" cy="297" r="1"/><circle cx="339" cy="73" r="1"/><circle cx="423" cy="73" r="1"/><circle cx="339" cy="115" r="1"/><circle cx="423" cy="115" r="1"/><circle cx="339" cy="157" r="1"/><circle cx="423" cy="157" r="1"/><circle cx="339" cy="199" r="1"/><circle cx="423" cy="199" r="1"/><circle cx="339" cy="241" r="1"/><circle cx="423" cy="241" r="1"/><circle cx="339" cy="283" r="1"/><circle cx="423" cy="283" r="1"/><circle cx="339" cy="325" r="1"/><circle cx="423" cy="325" r="1"/><circle cx="325" cy="73" r="1"/><circle cx="409" cy="73" r="1"/><circle cx="325" cy="115" r="1"/><circle cx="409" cy="115" r="1"/><circle cx="325" cy="157" r="1"/><circle cx="409" cy="157" r="1"/><circle cx="325" cy="199" r="1"/><circle cx="409" cy="199" r="1"/><circle cx="325" cy="241" r="1"/><circle cx="409" cy="241" r="1"/><circle cx="325" cy="283" r="1"/><circle cx="409" cy="283" r="1"/><circle cx="325" cy="325" r="1"/><circle cx="409" cy="325" r="1"/><circle cx="353" cy="73" r="1"/><circle cx="437" cy="73" r="1"/><circle cx="353" cy="115" r="1"/><circle cx="437" cy="115" r="1"/><circle cx="353" cy="157" r="1"/><circle cx="437" cy="157" r="1"/><circle cx="353" cy="199" r="1"/><circle cx="437" cy="199" r="1"/><circle cx="353" cy="241" r="1"/><circle cx="437" cy="241" r="1"/><circle cx="353" cy="283" r="1"/><circle cx="437" cy="283" r="1"/><circle cx="353" cy="325" r="1"/><circle cx="437" cy="325" r="1"/><circle cx="381" cy="59" r="1"/><circle cx="465" cy="59" r="1"/><circle cx="381" cy="101" r="1"/><circle cx="465" cy="101" r="1"/><circle cx="381" cy="143" r="1"/><circle cx="465" cy="143" r="1"/><circle cx="381" cy="185" r="1"/><circle cx="465" cy="185" r="1"/><circle cx="381" cy="227" r="1"/><circle cx="465" cy="227" r="1"/><circle cx="381" cy="269" r="1"/><circle cx="465" cy="269" r="1"/><circle cx="381" cy="311" r="1"/><circle cx="465" cy="311" r="1"/><circle cx="367" cy="59" r="1"/><circle cx="451" cy="59" r="1"/><circle cx="367" cy="101" r="1"/><circle cx="451" cy="101" r="1"/><circle cx="367" cy="143" r="1"/><circle cx="451" cy="143" r="1"/><circle cx="367" cy="185" r="1"/><circle cx="451" cy="185" r="1"/><circle cx="367" cy="227" r="1"/><circle cx="451" cy="227" r="1"/><circle cx="367" cy="269" r="1"/><circle cx="451" cy="269" r="1"/><circle cx="367" cy="311" r="1"/><circle cx="451" cy="311" r="1"/><circle cx="395" cy="59" r="1"/><circle cx="479" cy="59" r="1"/><circle cx="395" cy="101" r="1"/><circle cx="479" cy="101" r="1"/><circle cx="395" cy="143" r="1"/><circle cx="479" cy="143" r="1"/><circle cx="395" cy="185" r="1"/><circle cx="479" cy="185" r="1"/><circle cx="395" cy="227" r="1"/><circle cx="479" cy="227" r="1"/><circle cx="395" cy="269" r="1"/><circle cx="479" cy="269" r="1"/><circle cx="395" cy="311" r="1"/><circle cx="479" cy="311" r="1"/><circle cx="381" cy="45" r="1"/><circle cx="465" cy="45" r="1"/><circle cx="381" cy="87" r="1"/><circle cx="465" cy="87" r="1"/><circle cx="381" cy="129" r="1"/><circle cx="465" cy="129" r="1"/><circle cx="381" cy="171" r="1"/><circle cx="465" cy="171" r="1"/><circle cx="381" cy="213" r="1"/><circle cx="465" cy="213" r="1"/><circle cx="381" cy="255" r="1"/><circle cx="465" cy="255" r="1"/><circle cx="381" cy="297" r="1"/><circle cx="465" cy="297" r="1"/><circle cx="367" cy="45" r="1"/><circle cx="451" cy="45" r="1"/><circle cx="367" cy="87" r="1"/><circle cx="451" cy="87" r="1"/><circle cx="367" cy="129" r="1"/><circle cx="451" cy="129" r="1"/><circle cx="367" cy="171" r="1"/><circle cx="451" cy="171" r="1"/><circle cx="367" cy="213" r="1"/><circle cx="451" cy="213" r="1"/><circle cx="367" cy="255" r="1"/><circle cx="451" cy="255" r="1"/><circle cx="367" cy="297" r="1"/><circle cx="451" cy="297" r="1"/><circle cx="395" cy="45" r="1"/><circle cx="479" cy="45" r="1"/><circle cx="395" cy="87" r="1"/><circle cx="479" cy="87" r="1"/><circle cx="395" cy="129" r="1"/><circle cx="479" cy="129" r="1"/><circle cx="395" cy="171" r="1"/><circle cx="479" cy="171" r="1"/><circle cx="395" cy="213" r="1"/><circle cx="479" cy="213" r="1"/><circle cx="395" cy="255" r="1"/><circle cx="479" cy="255" r="1"/><circle cx="395" cy="297" r="1"/><circle cx="479" cy="297" r="1"/><circle cx="381" cy="73" r="1"/><circle cx="465" cy="73" r="1"/><circle cx="381" cy="115" r="1"/><circle cx="465" cy="115" r="1"/><circle cx="381" cy="157" r="1"/><circle cx="465" cy="157" r="1"/><circle cx="381" cy="199" r="1"/><circle cx="465" cy="199" r="1"/><circle cx="381" cy="241" r="1"/><circle cx="465" cy="241" r="1"/><circle cx="381" cy="283" r="1"/><circle cx="465" cy="283" r="1"/><circle cx="381" cy="325" r="1"/><circle cx="465" cy="325" r="1"/><circle cx="367" cy="73" r="1"/><circle cx="451" cy="73" r="1"/><circle cx="367" cy="115" r="1"/><circle cx="451" cy="115" r="1"/><circle cx="367" cy="157" r="1"/><circle cx="451" cy="157" r="1"/><circle cx="367" cy="199" r="1"/><circle cx="451" cy="199" r="1"/><circle cx="367" cy="241" r="1"/><circle cx="451" cy="241" r="1"/><circle cx="367" cy="283" r="1"/><circle cx="451" cy="283" r="1"/><circle cx="367" cy="325" r="1"/><circle cx="451" cy="325" r="1"/><circle cx="395" cy="73" r="1"/><circle cx="479" cy="73" r="1"/><circle cx="395" cy="115" r="1"/><circle cx="479" cy="115" r="1"/><circle cx="395" cy="157" r="1"/><circle cx="479" cy="157" r="1"/><circle cx="395" cy="199" r="1"/><circle cx="479" cy="199" r="1"/><circle cx="395" cy="241" r="1"/><circle cx="479" cy="241" r="1"/><circle cx="395" cy="283" r="1"/><circle cx="479" cy="283" r="1"/><circle cx="395" cy="325" r="1"/><circle cx="479" cy="325" r="1"/><circle cx="507" cy="17" r="1"/><circle cx="591" cy="17" r="1"/><circle cx="493" cy="17" r="1"/><circle cx="577" cy="17" r="1"/><circle cx="521" cy="17" r="1"/><circle cx="605" cy="17" r="1"/><circle cx="507" cy="3" r="1"/><circle cx="591" cy="3" r="1"/><circle cx="493" cy="3" r="1"/><circle cx="577" cy="3" r="1"/><circle cx="521" cy="3" r="1"/><circle cx="605" cy="3" r="1"/><circle cx="507" cy="31" r="1"/><circle cx="591" cy="31" r="1"/><circle cx="493" cy="31" r="1"/><circle cx="577" cy="31" r="1"/><circle cx="521" cy="31" r="1"/><circle cx="605" cy="31" r="1"/><circle cx="549" cy="17" r="1"/><circle cx="633" cy="17" r="1"/><circle cx="535" cy="17" r="1"/><circle cx="619" cy="17" r="1"/><circle cx="563" cy="17" r="1"/><circle cx="647" cy="17" r="1"/><circle cx="549" cy="3" r="1"/><circle cx="633" cy="3" r="1"/><circle cx="535" cy="3" r="1"/><circle cx="619" cy="3" r="1"/><circle cx="563" cy="3" r="1"/><circle cx="647" cy="3" r="1"/><circle cx="549" cy="31" r="1"/><circle cx="633" cy="31" r="1"/><circle cx="535" cy="31" r="1"/><circle cx="619" cy="31" r="1"/><circle cx="563" cy="31" r="1"/><circle cx="647" cy="31" r="1"/><circle cx="507" cy="59" r="1"/><circle cx="591" cy="59" r="1"/><circle cx="507" cy="101" r="1"/><circle cx="591" cy="101" r="1"/><circle cx="507" cy="143" r="1"/><circle cx="591" cy="143" r="1"/><circle cx="507" cy="185" r="1"/><circle cx="591" cy="185" r="1"/><circle cx="507" cy="227" r="1"/><circle cx="591" cy="227" r="1"/><circle cx="507" cy="269" r="1"/><circle cx="591" cy="269" r="1"/><circle cx="507" cy="311" r="1"/><circle cx="591" cy="311" r="1"/><circle cx="493" cy="59" r="1"/><circle cx="577" cy="59" r="1"/><circle cx="493" cy="101" r="1"/><circle cx="577" cy="101" r="1"/><circle cx="493" cy="143" r="1"/><circle cx="577" cy="143" r="1"/><circle cx="493" cy="185" r="1"/><circle cx="577" cy="185" r="1"/><circle cx="493" cy="227" r="1"/><circle cx="577" cy="227" r="1"/><circle cx="493" cy="269" r="1"/><circle cx="577" cy="269" r="1"/><circle cx="493" cy="311" r="1"/><circle cx="577" cy="311" r="1"/><circle cx="521" cy="59" r="1"/><circle cx="605" cy="59" r="1"/><circle cx="521" cy="101" r="1"/><circle cx="605" cy="101" r="1"/><circle cx="521" cy="143" r="1"/><circle cx="605" cy="143" r="1"/><circle cx="521" cy="185" r="1"/><circle cx="605" cy="185" r="1"/><circle cx="521" cy="227" r="1"/><circle cx="605" cy="227" r="1"/><circle cx="521" cy="269" r="1"/><circle cx="605" cy="269" r="1"/><circle cx="521" cy="311" r="1"/><circle cx="605" cy="311" r="1"/><circle cx="507" cy="45" r="1"/><circle cx="591" cy="45" r="1"/><circle cx="507" cy="87" r="1"/><circle cx="591" cy="87" r="1"/><circle cx="507" cy="129" r="1"/><circle cx="591" cy="129" r="1"/><circle cx="507" cy="171" r="1"/><circle cx="591" cy="171" r="1"/><circle cx="507" cy="213" r="1"/><circle cx="591" cy="213" r="1"/><circle cx="507" cy="255" r="1"/><circle cx="591" cy="255" r="1"/><circle cx="507" cy="297" r="1"/><circle cx="591" cy="297" r="1"/><circle cx="493" cy="45" r="1"/><circle cx="577" cy="45" r="1"/><circle cx="493" cy="87" r="1"/><circle cx="577" cy="87" r="1"/><circle cx="493" cy="129" r="1"/><circle cx="577" cy="129" r="1"/><circle cx="493" cy="171" r="1"/><circle cx="577" cy="171" r="1"/><circle cx="493" cy="213" r="1"/><circle cx="577" cy="213" r="1"/><circle cx="493" cy="255" r="1"/><circle cx="577" cy="255" r="1"/><circle cx="493" cy="297" r="1"/><circle cx="577" cy="297" r="1"/><circle cx="521" cy="45" r="1"/><circle cx="605" cy="45" r="1"/><circle cx="521" cy="87" r="1"/><circle cx="605" cy="87" r="1"/><circle cx="521" cy="129" r="1"/><circle cx="605" cy="129" r="1"/><circle cx="521" cy="171" r="1"/><circle cx="605" cy="171" r="1"/><circle cx="521" cy="213" r="1"/><circle cx="605" cy="213" r="1"/><circle cx="521" cy="255" r="1"/><circle cx="605" cy="255" r="1"/><circle cx="521" cy="297" r="1"/><circle cx="605" cy="297" r="1"/><circle cx="507" cy="73" r="1"/><circle cx="591" cy="73" r="1"/><circle cx="507" cy="115" r="1"/><circle cx="591" cy="115" r="1"/><circle cx="507" cy="157" r="1"/><circle cx="591" cy="157" r="1"/><circle cx="507" cy="199" r="1"/><circle cx="591" cy="199" r="1"/><circle cx="507" cy="241" r="1"/><circle cx="591" cy="241" r="1"/><circle cx="507" cy="283" r="1"/><circle cx="591" cy="283" r="1"/><circle cx="507" cy="325" r="1"/><circle cx="591" cy="325" r="1"/><circle cx="493" cy="73" r="1"/><circle cx="577" cy="73" r="1"/><circle cx="493" cy="115" r="1"/><circle cx="577" cy="115" r="1"/><circle cx="493" cy="157" r="1"/><circle cx="577" cy="157" r="1"/><circle cx="493" cy="199" r="1"/><circle cx="577" cy="199" r="1"/><circle cx="493" cy="241" r="1"/><circle cx="577" cy="241" r="1"/><circle cx="493" cy="283" r="1"/><circle cx="577" cy="283" r="1"/><circle cx="493" cy="325" r="1"/><circle cx="577" cy="325" r="1"/><circle cx="521" cy="73" r="1"/><circle cx="605" cy="73" r="1"/><circle cx="521" cy="115" r="1"/><circle cx="605" cy="115" r="1"/><circle cx="521" cy="157" r="1"/><circle cx="605" cy="157" r="1"/><circle cx="521" cy="199" r="1"/><circle cx="605" cy="199" r="1"/><circle cx="521" cy="241" r="1"/><circle cx="605" cy="241" r="1"/><circle cx="521" cy="283" r="1"/><circle cx="605" cy="283" r="1"/><circle cx="521" cy="325" r="1"/><circle cx="605" cy="325" r="1"/><circle cx="549" cy="59" r="1"/><circle cx="633" cy="59" r="1"/><circle cx="549" cy="101" r="1"/><circle cx="633" cy="101" r="1"/><circle cx="549" cy="143" r="1"/><circle cx="633" cy="143" r="1"/><circle cx="549" cy="185" r="1"/><circle cx="633" cy="185" r="1"/><circle cx="549" cy="227" r="1"/><circle cx="633" cy="227" r="1"/><circle cx="549" cy="269" r="1"/><circle cx="633" cy="269" r="1"/><circle cx="549" cy="311" r="1"/><circle cx="633" cy="311" r="1"/><circle cx="535" cy="59" r="1"/><circle cx="619" cy="59" r="1"/><circle cx="535" cy="101" r="1"/><circle cx="619" cy="101" r="1"/><circle cx="535" cy="143" r="1"/><circle cx="619" cy="143" r="1"/><circle cx="535" cy="185" r="1"/><circle cx="619" cy="185" r="1"/><circle cx="535" cy="227" r="1"/><circle cx="619" cy="227" r="1"/><circle cx="535" cy="269" r="1"/><circle cx="619" cy="269" r="1"/><circle cx="535" cy="311" r="1"/><circle cx="619" cy="311" r="1"/><circle cx="563" cy="59" r="1"/><circle cx="647" cy="59" r="1"/><circle cx="563" cy="101" r="1"/><circle cx="647" cy="101" r="1"/><circle cx="563" cy="143" r="1"/><circle cx="647" cy="143" r="1"/><circle cx="563" cy="185" r="1"/><circle cx="647" cy="185" r="1"/><circle cx="563" cy="227" r="1"/><circle cx="647" cy="227" r="1"/><circle cx="563" cy="269" r="1"/><circle cx="647" cy="269" r="1"/><circle cx="563" cy="311" r="1"/><circle cx="647" cy="311" r="1"/><circle cx="549" cy="45" r="1"/><circle cx="633" cy="45" r="1"/><circle cx="549" cy="87" r="1"/><circle cx="633" cy="87" r="1"/><circle cx="549" cy="129" r="1"/><circle cx="633" cy="129" r="1"/><circle cx="549" cy="171" r="1"/><circle cx="633" cy="171" r="1"/><circle cx="549" cy="213" r="1"/><circle cx="633" cy="213" r="1"/><circle cx="549" cy="255" r="1"/><circle cx="633" cy="255" r="1"/><circle cx="549" cy="297" r="1"/><circle cx="633" cy="297" r="1"/><circle cx="535" cy="45" r="1"/><circle cx="619" cy="45" r="1"/><circle cx="535" cy="87" r="1"/><circle cx="619" cy="87" r="1"/><circle cx="535" cy="129" r="1"/><circle cx="619" cy="129" r="1"/><circle cx="535" cy="171" r="1"/><circle cx="619" cy="171" r="1"/><circle cx="535" cy="213" r="1"/><circle cx="619" cy="213" r="1"/><circle cx="535" cy="255" r="1"/><circle cx="619" cy="255" r="1"/><circle cx="535" cy="297" r="1"/><circle cx="619" cy="297" r="1"/><circle cx="563" cy="45" r="1"/><circle cx="647" cy="45" r="1"/><circle cx="563" cy="87" r="1"/><circle cx="647" cy="87" r="1"/><circle cx="563" cy="129" r="1"/><circle cx="647" cy="129" r="1"/><circle cx="563" cy="171" r="1"/><circle cx="647" cy="171" r="1"/><circle cx="563" cy="213" r="1"/><circle cx="647" cy="213" r="1"/><circle cx="563" cy="255" r="1"/><circle cx="647" cy="255" r="1"/><circle cx="563" cy="297" r="1"/><circle cx="647" cy="297" r="1"/><circle cx="549" cy="73" r="1"/><circle cx="633" cy="73" r="1"/><circle cx="549" cy="115" r="1"/><circle cx="633" cy="115" r="1"/><circle cx="549" cy="157" r="1"/><circle cx="633" cy="157" r="1"/><circle cx="549" cy="199" r="1"/><circle cx="633" cy="199" r="1"/><circle cx="549" cy="241" r="1"/><circle cx="633" cy="241" r="1"/><circle cx="549" cy="283" r="1"/><circle cx="633" cy="283" r="1"/><circle cx="549" cy="325" r="1"/><circle cx="633" cy="325" r="1"/><circle cx="535" cy="73" r="1"/><circle cx="619" cy="73" r="1"/><circle cx="535" cy="115" r="1"/><circle cx="619" cy="115" r="1"/><circle cx="535" cy="157" r="1"/><circle cx="619" cy="157" r="1"/><circle cx="535" cy="199" r="1"/><circle cx="619" cy="199" r="1"/><circle cx="535" cy="241" r="1"/><circle cx="619" cy="241" r="1"/><circle cx="535" cy="283" r="1"/><circle cx="619" cy="283" r="1"/><circle cx="535" cy="325" r="1"/><circle cx="619" cy="325" r="1"/><circle cx="563" cy="73" r="1"/><circle cx="647" cy="73" r="1"/><circle cx="563" cy="115" r="1"/><circle cx="647" cy="115" r="1"/><circle cx="563" cy="157" r="1"/><circle cx="647" cy="157" r="1"/><circle cx="563" cy="199" r="1"/><circle cx="647" cy="199" r="1"/><circle cx="563" cy="241" r="1"/><circle cx="647" cy="241" r="1"/><circle cx="563" cy="283" r="1"/><circle cx="647" cy="283" r="1"/><circle cx="563" cy="325" r="1"/><circle cx="647" cy="325" r="1"/><circle cx="675" cy="17" r="1"/><circle cx="661" cy="17" r="1"/><circle cx="689" cy="17" r="1"/><circle cx="675" cy="3" r="1"/><circle cx="661" cy="3" r="1"/><circle cx="689" cy="3" r="1"/><circle cx="675" cy="31" r="1"/><circle cx="661" cy="31" r="1"/><circle cx="689" cy="31" r="1"/><circle cx="675" cy="59" r="1"/><circle cx="675" cy="101" r="1"/><circle cx="675" cy="143" r="1"/><circle cx="675" cy="185" r="1"/><circle cx="675" cy="227" r="1"/><circle cx="675" cy="269" r="1"/><circle cx="675" cy="311" r="1"/><circle cx="661" cy="59" r="1"/><circle cx="661" cy="101" r="1"/><circle cx="661" cy="143" r="1"/><circle cx="661" cy="185" r="1"/><circle cx="661" cy="227" r="1"/><circle cx="661" cy="269" r="1"/><circle cx="661" cy="311" r="1"/><circle cx="689" cy="59" r="1"/><circle cx="689" cy="101" r="1"/><circle cx="689" cy="143" r="1"/><circle cx="689" cy="185" r="1"/><circle cx="689" cy="227" r="1"/><circle cx="689" cy="269" r="1"/><circle cx="689" cy="311" r="1"/><circle cx="675" cy="45" r="1"/><circle cx="675" cy="87" r="1"/><circle cx="675" cy="129" r="1"/><circle cx="675" cy="171" r="1"/><circle cx="675" cy="213" r="1"/><circle cx="675" cy="255" r="1"/><circle cx="675" cy="297" r="1"/><circle cx="661" cy="45" r="1"/><circle cx="661" cy="87" r="1"/><circle cx="661" cy="129" r="1"/><circle cx="661" cy="171" r="1"/><circle cx="661" cy="213" r="1"/><circle cx="661" cy="255" r="1"/><circle cx="661" cy="297" r="1"/><circle cx="689" cy="45" r="1"/><circle cx="689" cy="87" r="1"/><circle cx="689" cy="129" r="1"/><circle cx="689" cy="171" r="1"/><circle cx="689" cy="213" r="1"/><circle cx="689" cy="255" r="1"/><circle cx="689" cy="297" r="1"/><circle cx="675" cy="73" r="1"/><circle cx="675" cy="115" r="1"/><circle cx="675" cy="157" r="1"/><circle cx="675" cy="199" r="1"/><circle cx="675" cy="241" r="1"/><circle cx="675" cy="283" r="1"/><circle cx="675" cy="325" r="1"/><circle cx="661" cy="73" r="1"/><circle cx="661" cy="115" r="1"/><circle cx="661" cy="157" r="1"/><circle cx="661" cy="199" r="1"/><circle cx="661" cy="241" r="1"/><circle cx="661" cy="283" r="1"/><circle cx="661" cy="325" r="1"/><circle cx="689" cy="73" r="1"/><circle cx="689" cy="115" r="1"/><circle cx="689" cy="157" r="1"/><circle cx="689" cy="199" r="1"/><circle cx="689" cy="241" r="1"/><circle cx="689" cy="283" r="1"/><circle cx="689" cy="325" r="1"/><circle cx="703" cy="17" r="1"/><circle cx="703" cy="3" r="1"/><circle cx="703" cy="31" r="1"/><circle cx="703" cy="59" r="1"/><circle cx="703" cy="101" r="1"/><circle cx="703" cy="143" r="1"/><circle cx="703" cy="185" r="1"/><circle cx="703" cy="227" r="1"/><circle cx="703" cy="269" r="1"/><circle cx="703" cy="311" r="1"/><circle cx="703" cy="45" r="1"/><circle cx="703" cy="87" r="1"/><circle cx="703" cy="129" r="1"/><circle cx="703" cy="171" r="1"/><circle cx="703" cy="213" r="1"/><circle cx="703" cy="255" r="1"/><circle cx="703" cy="297" r="1"/><circle cx="703" cy="73" r="1"/><circle cx="703" cy="115" r="1"/><circle cx="703" cy="157" r="1"/><circle cx="703" cy="199" r="1"/><circle cx="703" cy="241" r="1"/><circle cx="703" cy="283" r="1"/><circle cx="717" cy="17" r="1"/><circle cx="717" cy="3" r="1"/><circle cx="717" cy="31" r="1"/><circle cx="717" cy="59" r="1"/><circle cx="717" cy="101" r="1"/><circle cx="717" cy="143" r="1"/><circle cx="717" cy="185" r="1"/><circle cx="717" cy="227" r="1"/><circle cx="717" cy="269" r="1"/><circle cx="717" cy="311" r="1"/><circle cx="717" cy="45" r="1"/><circle cx="717" cy="87" r="1"/><circle cx="717" cy="129" r="1"/><circle cx="717" cy="171" r="1"/><circle cx="717" cy="213" r="1"/><circle cx="717" cy="255" r="1"/><circle cx="717" cy="297" r="1"/><circle cx="717" cy="73" r="1"/><circle cx="717" cy="115" r="1"/><circle cx="717" cy="157" r="1"/><circle cx="717" cy="199" r="1"/><circle cx="717" cy="241" r="1"/><circle cx="717" cy="283" r="1"/><circle cx="703" cy="325" r="1"/><circle cx="3" cy="339" r="1"/><circle cx="87" cy="339" r="1"/><circle cx="73" cy="339" r="1"/><circle cx="17" cy="339" r="1"/><circle cx="101" cy="339" r="1"/><circle cx="3" cy="325" r="1"/><circle cx="87" cy="325" r="1"/><circle cx="73" cy="325" r="1"/><circle cx="17" cy="325" r="1"/><circle cx="101" cy="325" r="1"/><circle cx="3" cy="353" r="1"/><circle cx="87" cy="353" r="1"/><circle cx="73" cy="353" r="1"/><circle cx="17" cy="353" r="1"/><circle cx="101" cy="353" r="1"/><circle cx="45" cy="339" r="1"/><circle cx="129" cy="339" r="1"/><circle cx="31" cy="339" r="1"/><circle cx="115" cy="339" r="1"/><circle cx="59" cy="339" r="1"/><circle cx="143" cy="339" r="1"/><circle cx="45" cy="325" r="1"/><circle cx="129" cy="325" r="1"/><circle cx="31" cy="325" r="1"/><circle cx="115" cy="325" r="1"/><circle cx="59" cy="325" r="1"/><circle cx="143" cy="325" r="1"/><circle cx="45" cy="353" r="1"/><circle cx="129" cy="353" r="1"/><circle cx="31" cy="353" r="1"/><circle cx="115" cy="353" r="1"/><circle cx="59" cy="353" r="1"/><circle cx="143" cy="353" r="1"/><circle cx="3" cy="381" r="1"/><circle cx="87" cy="381" r="1"/><circle cx="3" cy="423" r="1"/><circle cx="87" cy="423" r="1"/><circle cx="3" cy="465" r="1"/><circle cx="87" cy="465" r="1"/><circle cx="73" cy="381" r="1"/><circle cx="73" cy="423" r="1"/><circle cx="73" cy="465" r="1"/><circle cx="17" cy="381" r="1"/><circle cx="101" cy="381" r="1"/><circle cx="17" cy="423" r="1"/><circle cx="101" cy="423" r="1"/><circle cx="17" cy="465" r="1"/><circle cx="101" cy="465" r="1"/><circle cx="3" cy="367" r="1"/><circle cx="87" cy="367" r="1"/><circle cx="3" cy="409" r="1"/><circle cx="87" cy="409" r="1"/><circle cx="3" cy="451" r="1"/><circle cx="87" cy="451" r="1"/><circle cx="73" cy="367" r="1"/><circle cx="73" cy="409" r="1"/><circle cx="73" cy="451" r="1"/><circle cx="17" cy="367" r="1"/><circle cx="101" cy="367" r="1"/><circle cx="17" cy="409" r="1"/><circle cx="101" cy="409" r="1"/><circle cx="17" cy="451" r="1"/><circle cx="101" cy="451" r="1"/><circle cx="3" cy="395" r="1"/><circle cx="87" cy="395" r="1"/><circle cx="3" cy="437" r="1"/><circle cx="87" cy="437" r="1"/><circle cx="3" cy="479" r="1"/><circle cx="87" cy="479" r="1"/><circle cx="73" cy="395" r="1"/><circle cx="73" cy="437" r="1"/><circle cx="73" cy="479" r="1"/><circle cx="17" cy="395" r="1"/><circle cx="101" cy="395" r="1"/><circle cx="17" cy="437" r="1"/><circle cx="101" cy="437" r="1"/><circle cx="17" cy="479" r="1"/><circle cx="101" cy="479" r="1"/><circle cx="45" cy="381" r="1"/><circle cx="129" cy="381" r="1"/><circle cx="45" cy="423" r="1"/><circle cx="129" cy="423" r="1"/><circle cx="45" cy="465" r="1"/><circle cx="129" cy="465" r="1"/><circle cx="31" cy="381" r="1"/><circle cx="115" cy="381" r="1"/><circle cx="31" cy="423" r="1"/><circle cx="115" cy="423" r="1"/><circle cx="31" cy="465" r="1"/><circle cx="115" cy="465" r="1"/><circle cx="59" cy="381" r="1"/><circle cx="143" cy="381" r="1"/><circle cx="59" cy="423" r="1"/><circle cx="143" cy="423" r="1"/><circle cx="59" cy="465" r="1"/><circle cx="143" cy="465" r="1"/><circle cx="45" cy="367" r="1"/><circle cx="129" cy="367" r="1"/><circle cx="45" cy="409" r="1"/><circle cx="129" cy="409" r="1"/><circle cx="45" cy="451" r="1"/><circle cx="129" cy="451" r="1"/><circle cx="31" cy="367" r="1"/><circle cx="115" cy="367" r="1"/><circle cx="31" cy="409" r="1"/><circle cx="115" cy="409" r="1"/><circle cx="31" cy="451" r="1"/><circle cx="115" cy="451" r="1"/><circle cx="59" cy="367" r="1"/><circle cx="143" cy="367" r="1"/><circle cx="59" cy="409" r="1"/><circle cx="143" cy="409" r="1"/><circle cx="59" cy="451" r="1"/><circle cx="143" cy="451" r="1"/><circle cx="45" cy="395" r="1"/><circle cx="129" cy="395" r="1"/><circle cx="45" cy="437" r="1"/><circle cx="129" cy="437" r="1"/><circle cx="45" cy="479" r="1"/><circle cx="129" cy="479" r="1"/><circle cx="31" cy="395" r="1"/><circle cx="115" cy="395" r="1"/><circle cx="31" cy="437" r="1"/><circle cx="115" cy="437" r="1"/><circle cx="31" cy="479" r="1"/><circle cx="115" cy="479" r="1"/><circle cx="59" cy="395" r="1"/><circle cx="143" cy="395" r="1"/><circle cx="59" cy="437" r="1"/><circle cx="143" cy="437" r="1"/><circle cx="59" cy="479" r="1"/><circle cx="143" cy="479" r="1"/><circle cx="171" cy="339" r="1"/><circle cx="255" cy="339" r="1"/><circle cx="157" cy="339" r="1"/><circle cx="241" cy="339" r="1"/><circle cx="185" cy="339" r="1"/><circle cx="269" cy="339" r="1"/><circle cx="171" cy="325" r="1"/><circle cx="255" cy="325" r="1"/><circle cx="157" cy="325" r="1"/><circle cx="241" cy="325" r="1"/><circle cx="185" cy="325" r="1"/><circle cx="269" cy="325" r="1"/><circle cx="171" cy="353" r="1"/><circle cx="255" cy="353" r="1"/><circle cx="157" cy="353" r="1"/><circle cx="241" cy="353" r="1"/><circle cx="185" cy="353" r="1"/><circle cx="269" cy="353" r="1"/><circle cx="213" cy="339" r="1"/><circle cx="297" cy="339" r="1"/><circle cx="199" cy="339" r="1"/><circle cx="283" cy="339" r="1"/><circle cx="227" cy="339" r="1"/><circle cx="311" cy="339" r="1"/><circle cx="213" cy="325" r="1"/><circle cx="297" cy="325" r="1"/><circle cx="199" cy="325" r="1"/><circle cx="283" cy="325" r="1"/><circle cx="227" cy="325" r="1"/><circle cx="311" cy="325" r="1"/><circle cx="213" cy="353" r="1"/><circle cx="297" cy="353" r="1"/><circle cx="199" cy="353" r="1"/><circle cx="283" cy="353" r="1"/><circle cx="227" cy="353" r="1"/><circle cx="311" cy="353" r="1"/><circle cx="171" cy="381" r="1"/><circle cx="255" cy="381" r="1"/><circle cx="171" cy="423" r="1"/><circle cx="255" cy="423" r="1"/><circle cx="171" cy="465" r="1"/><circle cx="255" cy="465" r="1"/><circle cx="157" cy="381" r="1"/><circle cx="241" cy="381" r="1"/><circle cx="157" cy="423" r="1"/><circle cx="241" cy="423" r="1"/><circle cx="157" cy="465" r="1"/><circle cx="241" cy="465" r="1"/><circle cx="185" cy="381" r="1"/><circle cx="269" cy="381" r="1"/><circle cx="185" cy="423" r="1"/><circle cx="269" cy="423" r="1"/><circle cx="185" cy="465" r="1"/><circle cx="269" cy="465" r="1"/><circle cx="171" cy="367" r="1"/><circle cx="255" cy="367" r="1"/><circle cx="171" cy="409" r="1"/><circle cx="255" cy="409" r="1"/><circle cx="171" cy="451" r="1"/><circle cx="255" cy="451" r="1"/><circle cx="157" cy="367" r="1"/><circle cx="241" cy="367" r="1"/><circle cx="157" cy="409" r="1"/><circle cx="241" cy="409" r="1"/><circle cx="157" cy="451" r="1"/><circle cx="241" cy="451" r="1"/><circle cx="185" cy="367" r="1"/><circle cx="269" cy="367" r="1"/><circle cx="185" cy="409" r="1"/><circle cx="269" cy="409" r="1"/><circle cx="185" cy="451" r="1"/><circle cx="269" cy="451" r="1"/><circle cx="171" cy="395" r="1"/><circle cx="255" cy="395" r="1"/><circle cx="171" cy="437" r="1"/><circle cx="255" cy="437" r="1"/><circle cx="171" cy="479" r="1"/><circle cx="255" cy="479" r="1"/><circle cx="157" cy="395" r="1"/><circle cx="241" cy="395" r="1"/><circle cx="157" cy="437" r="1"/><circle cx="241" cy="437" r="1"/><circle cx="157" cy="479" r="1"/><circle cx="241" cy="479" r="1"/><circle cx="185" cy="395" r="1"/><circle cx="269" cy="395" r="1"/><circle cx="185" cy="437" r="1"/><circle cx="269" cy="437" r="1"/><circle cx="185" cy="479" r="1"/><circle cx="269" cy="479" r="1"/><circle cx="213" cy="381" r="1"/><circle cx="297" cy="381" r="1"/><circle cx="213" cy="423" r="1"/><circle cx="297" cy="423" r="1"/><circle cx="213" cy="465" r="1"/><circle cx="297" cy="465" r="1"/><circle cx="199" cy="381" r="1"/><circle cx="283" cy="381" r="1"/><circle cx="199" cy="423" r="1"/><circle cx="283" cy="423" r="1"/><circle cx="199" cy="465" r="1"/><circle cx="283" cy="465" r="1"/><circle cx="227" cy="381" r="1"/><circle cx="311" cy="381" r="1"/><circle cx="227" cy="423" r="1"/><circle cx="311" cy="423" r="1"/><circle cx="227" cy="465" r="1"/><circle cx="311" cy="465" r="1"/><circle cx="213" cy="367" r="1"/><circle cx="297" cy="367" r="1"/><circle cx="213" cy="409" r="1"/><circle cx="297" cy="409" r="1"/><circle cx="213" cy="451" r="1"/><circle cx="297" cy="451" r="1"/><circle cx="199" cy="367" r="1"/><circle cx="283" cy="367" r="1"/><circle cx="199" cy="409" r="1"/><circle cx="283" cy="409" r="1"/><circle cx="199" cy="451" r="1"/><circle cx="283" cy="451" r="1"/><circle cx="227" cy="367" r="1"/><circle cx="311" cy="367" r="1"/><circle cx="227" cy="409" r="1"/><circle cx="311" cy="409" r="1"/><circle cx="227" cy="451" r="1"/><circle cx="311" cy="451" r="1"/><circle cx="213" cy="395" r="1"/><circle cx="297" cy="395" r="1"/><circle cx="213" cy="437" r="1"/><circle cx="297" cy="437" r="1"/><circle cx="213" cy="479" r="1"/><circle cx="297" cy="479" r="1"/><circle cx="199" cy="395" r="1"/><circle cx="283" cy="395" r="1"/><circle cx="199" cy="437" r="1"/><circle cx="283" cy="437" r="1"/><circle cx="199" cy="479" r="1"/><circle cx="283" cy="479" r="1"/><circle cx="227" cy="395" r="1"/><circle cx="311" cy="395" r="1"/><circle cx="227" cy="437" r="1"/><circle cx="311" cy="437" r="1"/><circle cx="227" cy="479" r="1"/><circle cx="311" cy="479" r="1"/><circle cx="339" cy="339" r="1"/><circle cx="423" cy="339" r="1"/><circle cx="325" cy="339" r="1"/><circle cx="409" cy="339" r="1"/><circle cx="353" cy="339" r="1"/><circle cx="437" cy="339" r="1"/><circle cx="339" cy="325" r="1"/><circle cx="423" cy="325" r="1"/><circle cx="325" cy="325" r="1"/><circle cx="409" cy="325" r="1"/><circle cx="353" cy="325" r="1"/><circle cx="437" cy="325" r="1"/><circle cx="339" cy="353" r="1"/><circle cx="423" cy="353" r="1"/><circle cx="325" cy="353" r="1"/><circle cx="409" cy="353" r="1"/><circle cx="353" cy="353" r="1"/><circle cx="437" cy="353" r="1"/><circle cx="381" cy="339" r="1"/><circle cx="465" cy="339" r="1"/><circle cx="367" cy="339" r="1"/><circle cx="451" cy="339" r="1"/><circle cx="395" cy="339" r="1"/><circle cx="479" cy="339" r="1"/><circle cx="381" cy="325" r="1"/><circle cx="465" cy="325" r="1"/><circle cx="367" cy="325" r="1"/><circle cx="451" cy="325" r="1"/><circle cx="395" cy="325" r="1"/><circle cx="479" cy="325" r="1"/><circle cx="381" cy="353" r="1"/><circle cx="465" cy="353" r="1"/><circle cx="367" cy="353" r="1"/><circle cx="451" cy="353" r="1"/><circle cx="395" cy="353" r="1"/><circle cx="479" cy="353" r="1"/><circle cx="339" cy="381" r="1"/><circle cx="423" cy="381" r="1"/><circle cx="339" cy="423" r="1"/><circle cx="423" cy="423" r="1"/><circle cx="339" cy="465" r="1"/><circle cx="423" cy="465" r="1"/><circle cx="325" cy="381" r="1"/><circle cx="409" cy="381" r="1"/><circle cx="325" cy="423" r="1"/><circle cx="409" cy="423" r="1"/><circle cx="325" cy="465" r="1"/><circle cx="409" cy="465" r="1"/><circle cx="353" cy="381" r="1"/><circle cx="437" cy="381" r="1"/><circle cx="353" cy="423" r="1"/><circle cx="437" cy="423" r="1"/><circle cx="353" cy="465" r="1"/><circle cx="437" cy="465" r="1"/><circle cx="339" cy="367" r="1"/><circle cx="423" cy="367" r="1"/><circle cx="339" cy="409" r="1"/><circle cx="423" cy="409" r="1"/><circle cx="339" cy="451" r="1"/><circle cx="423" cy="451" r="1"/><circle cx="325" cy="367" r="1"/><circle cx="409" cy="367" r="1"/><circle cx="325" cy="409" r="1"/><circle cx="409" cy="409" r="1"/><circle cx="325" cy="451" r="1"/><circle cx="409" cy="451" r="1"/><circle cx="353" cy="367" r="1"/><circle cx="437" cy="367" r="1"/><circle cx="353" cy="409" r="1"/><circle cx="437" cy="409" r="1"/><circle cx="353" cy="451" r="1"/><circle cx="437" cy="451" r="1"/><circle cx="339" cy="395" r="1"/><circle cx="423" cy="395" r="1"/><circle cx="339" cy="437" r="1"/><circle cx="423" cy="437" r="1"/><circle cx="339" cy="479" r="1"/><circle cx="423" cy="479" r="1"/><circle cx="325" cy="395" r="1"/><circle cx="409" cy="395" r="1"/><circle cx="325" cy="437" r="1"/><circle cx="409" cy="437" r="1"/><circle cx="325" cy="479" r="1"/><circle cx="409" cy="479" r="1"/><circle cx="353" cy="395" r="1"/><circle cx="437" cy="395" r="1"/><circle cx="353" cy="437" r="1"/><circle cx="437" cy="437" r="1"/><circle cx="353" cy="479" r="1"/><circle cx="437" cy="479" r="1"/><circle cx="381" cy="381" r="1"/><circle cx="465" cy="381" r="1"/><circle cx="381" cy="423" r="1"/><circle cx="465" cy="423" r="1"/><circle cx="381" cy="465" r="1"/><circle cx="465" cy="465" r="1"/><circle cx="367" cy="381" r="1"/><circle cx="451" cy="381" r="1"/><circle cx="367" cy="423" r="1"/><circle cx="451" cy="423" r="1"/><circle cx="367" cy="465" r="1"/><circle cx="451" cy="465" r="1"/><circle cx="395" cy="381" r="1"/><circle cx="479" cy="381" r="1"/><circle cx="395" cy="423" r="1"/><circle cx="479" cy="423" r="1"/><circle cx="395" cy="465" r="1"/><circle cx="479" cy="465" r="1"/><circle cx="381" cy="367" r="1"/><circle cx="465" cy="367" r="1"/><circle cx="381" cy="409" r="1"/><circle cx="465" cy="409" r="1"/><circle cx="381" cy="451" r="1"/><circle cx="465" cy="451" r="1"/><circle cx="367" cy="367" r="1"/><circle cx="451" cy="367" r="1"/><circle cx="367" cy="409" r="1"/><circle cx="451" cy="409" r="1"/><circle cx="367" cy="451" r="1"/><circle cx="451" cy="451" r="1"/><circle cx="395" cy="367" r="1"/><circle cx="479" cy="367" r="1"/><circle cx="395" cy="409" r="1"/><circle cx="479" cy="409" r="1"/><circle cx="395" cy="451" r="1"/><circle cx="479" cy="451" r="1"/><circle cx="381" cy="395" r="1"/><circle cx="465" cy="395" r="1"/><circle cx="381" cy="437" r="1"/><circle cx="465" cy="437" r="1"/><circle cx="381" cy="479" r="1"/><circle cx="465" cy="479" r="1"/><circle cx="367" cy="395" r="1"/><circle cx="451" cy="395" r="1"/><circle cx="367" cy="437" r="1"/><circle cx="451" cy="437" r="1"/><circle cx="367" cy="479" r="1"/><circle cx="451" cy="479" r="1"/><circle cx="395" cy="395" r="1"/><circle cx="479" cy="395" r="1"/><circle cx="395" cy="437" r="1"/><circle cx="479" cy="437" r="1"/><circle cx="395" cy="479" r="1"/><circle cx="479" cy="479" r="1"/><circle cx="507" cy="339" r="1"/><circle cx="591" cy="339" r="1"/><circle cx="493" cy="339" r="1"/><circle cx="577" cy="339" r="1"/><circle cx="521" cy="339" r="1"/><circle cx="605" cy="339" r="1"/><circle cx="507" cy="325" r="1"/><circle cx="591" cy="325" r="1"/><circle cx="493" cy="325" r="1"/><circle cx="577" cy="325" r="1"/><circle cx="521" cy="325" r="1"/><circle cx="605" cy="325" r="1"/><circle cx="507" cy="353" r="1"/><circle cx="591" cy="353" r="1"/><circle cx="493" cy="353" r="1"/><circle cx="577" cy="353" r="1"/><circle cx="521" cy="353" r="1"/><circle cx="605" cy="353" r="1"/><circle cx="549" cy="339" r="1"/><circle cx="633" cy="339" r="1"/><circle cx="535" cy="339" r="1"/><circle cx="619" cy="339" r="1"/><circle cx="563" cy="339" r="1"/><circle cx="647" cy="339" r="1"/><circle cx="549" cy="325" r="1"/><circle cx="633" cy="325" r="1"/><circle cx="535" cy="325" r="1"/><circle cx="619" cy="325" r="1"/><circle cx="563" cy="325" r="1"/><circle cx="647" cy="325" r="1"/><circle cx="549" cy="353" r="1"/><circle cx="633" cy="353" r="1"/><circle cx="535" cy="353" r="1"/><circle cx="619" cy="353" r="1"/><circle cx="563" cy="353" r="1"/><circle cx="647" cy="353" r="1"/><circle cx="507" cy="381" r="1"/><circle cx="591" cy="381" r="1"/><circle cx="507" cy="423" r="1"/><circle cx="591" cy="423" r="1"/><circle cx="507" cy="465" r="1"/><circle cx="591" cy="465" r="1"/><circle cx="493" cy="381" r="1"/><circle cx="577" cy="381" r="1"/><circle cx="493" cy="423" r="1"/><circle cx="577" cy="423" r="1"/><circle cx="493" cy="465" r="1"/><circle cx="577" cy="465" r="1"/><circle cx="521" cy="381" r="1"/><circle cx="605" cy="381" r="1"/><circle cx="521" cy="423" r="1"/><circle cx="605" cy="423" r="1"/><circle cx="521" cy="465" r="1"/><circle cx="605" cy="465" r="1"/><circle cx="507" cy="367" r="1"/><circle cx="591" cy="367" r="1"/><circle cx="507" cy="409" r="1"/><circle cx="591" cy="409" r="1"/><circle cx="507" cy="451" r="1"/><circle cx="591" cy="451" r="1"/><circle cx="493" cy="367" r="1"/><circle cx="577" cy="367" r="1"/><circle cx="493" cy="409" r="1"/><circle cx="577" cy="409" r="1"/><circle cx="493" cy="451" r="1"/><circle cx="577" cy="451" r="1"/><circle cx="521" cy="367" r="1"/><circle cx="605" cy="367" r="1"/><circle cx="521" cy="409" r="1"/><circle cx="605" cy="409" r="1"/><circle cx="521" cy="451" r="1"/><circle cx="605" cy="451" r="1"/><circle cx="507" cy="395" r="1"/><circle cx="591" cy="395" r="1"/><circle cx="507" cy="437" r="1"/><circle cx="591" cy="437" r="1"/><circle cx="507" cy="479" r="1"/><circle cx="591" cy="479" r="1"/><circle cx="493" cy="395" r="1"/><circle cx="577" cy="395" r="1"/><circle cx="493" cy="437" r="1"/><circle cx="577" cy="437" r="1"/><circle cx="493" cy="479" r="1"/><circle cx="577" cy="479" r="1"/><circle cx="521" cy="395" r="1"/><circle cx="605" cy="395" r="1"/><circle cx="521" cy="437" r="1"/><circle cx="605" cy="437" r="1"/><circle cx="521" cy="479" r="1"/><circle cx="605" cy="479" r="1"/><circle cx="549" cy="381" r="1"/><circle cx="633" cy="381" r="1"/><circle cx="549" cy="423" r="1"/><circle cx="633" cy="423" r="1"/><circle cx="549" cy="465" r="1"/><circle cx="633" cy="465" r="1"/><circle cx="535" cy="381" r="1"/><circle cx="619" cy="381" r="1"/><circle cx="535" cy="423" r="1"/><circle cx="619" cy="423" r="1"/><circle cx="535" cy="465" r="1"/><circle cx="619" cy="465" r="1"/><circle cx="563" cy="381" r="1"/><circle cx="647" cy="381" r="1"/><circle cx="563" cy="423" r="1"/><circle cx="647" cy="423" r="1"/><circle cx="563" cy="465" r="1"/><circle cx="647" cy="465" r="1"/><circle cx="549" cy="367" r="1"/><circle cx="633" cy="367" r="1"/><circle cx="549" cy="409" r="1"/><circle cx="633" cy="409" r="1"/><circle cx="549" cy="451" r="1"/><circle cx="633" cy="451" r="1"/><circle cx="535" cy="367" r="1"/><circle cx="619" cy="367" r="1"/><circle cx="535" cy="409" r="1"/><circle cx="619" cy="409" r="1"/><circle cx="535" cy="451" r="1"/><circle cx="619" cy="451" r="1"/><circle cx="563" cy="367" r="1"/><circle cx="647" cy="367" r="1"/><circle cx="563" cy="409" r="1"/><circle cx="647" cy="409" r="1"/><circle cx="563" cy="451" r="1"/><circle cx="647" cy="451" r="1"/><circle cx="549" cy="395" r="1"/><circle cx="633" cy="395" r="1"/><circle cx="549" cy="437" r="1"/><circle cx="633" cy="437" r="1"/><circle cx="549" cy="479" r="1"/><circle cx="633" cy="479" r="1"/><circle cx="535" cy="395" r="1"/><circle cx="619" cy="395" r="1"/><circle cx="535" cy="437" r="1"/><circle cx="619" cy="437" r="1"/><circle cx="535" cy="479" r="1"/><circle cx="619" cy="479" r="1"/><circle cx="563" cy="395" r="1"/><circle cx="647" cy="395" r="1"/><circle cx="563" cy="437" r="1"/><circle cx="647" cy="437" r="1"/><circle cx="563" cy="479" r="1"/><circle cx="647" cy="479" r="1"/><circle cx="675" cy="339" r="1"/><circle cx="661" cy="339" r="1"/><circle cx="689" cy="339" r="1"/><circle cx="675" cy="325" r="1"/><circle cx="661" cy="325" r="1"/><circle cx="689" cy="325" r="1"/><circle cx="675" cy="353" r="1"/><circle cx="661" cy="353" r="1"/><circle cx="689" cy="353" r="1"/><circle cx="675" cy="381" r="1"/><circle cx="675" cy="423" r="1"/><circle cx="675" cy="465" r="1"/><circle cx="661" cy="381" r="1"/><circle cx="661" cy="423" r="1"/><circle cx="661" cy="465" r="1"/><circle cx="689" cy="381" r="1"/><circle cx="689" cy="423" r="1"/><circle cx="689" cy="465" r="1"/><circle cx="675" cy="367" r="1"/><circle cx="675" cy="409" r="1"/><circle cx="675" cy="451" r="1"/><circle cx="661" cy="367" r="1"/><circle cx="661" cy="409" r="1"/><circle cx="661" cy="451" r="1"/><circle cx="689" cy="367" r="1"/><circle cx="689" cy="409" r="1"/><circle cx="689" cy="451" r="1"/><circle cx="675" cy="395" r="1"/><circle cx="675" cy="437" r="1"/><circle cx="675" cy="479" r="1"/><circle cx="661" cy="395" r="1"/><circle cx="661" cy="437" r="1"/><circle cx="661" cy="479" r="1"/><circle cx="689" cy="395" r="1"/><circle cx="689" cy="437" r="1"/><circle cx="689" cy="479" r="1"/><circle cx="703" cy="339" r="1"/><circle cx="703" cy="325" r="1"/><circle cx="703" cy="353" r="1"/><circle cx="703" cy="381" r="1"/><circle cx="703" cy="423" r="1"/><circle cx="703" cy="465" r="1"/><circle cx="703" cy="367" r="1"/><circle cx="703" cy="409" r="1"/><circle cx="703" cy="451" r="1"/><circle cx="703" cy="395" r="1"/><circle cx="703" cy="437" r="1"/><circle cx="703" cy="479" r="1"/><circle cx="717" cy="339" r="1"/><circle cx="717" cy="325" r="1"/><circle cx="717" cy="353" r="1"/><circle cx="717" cy="381" r="1"/><circle cx="717" cy="423" r="1"/><circle cx="717" cy="465" r="1"/><circle cx="717" cy="367" r="1"/><circle cx="717" cy="409" r="1"/><circle cx="717" cy="451" r="1"/><circle cx="717" cy="395" r="1"/><circle cx="717" cy="437" r="1"/><circle cx="717" cy="479" r="1"/></g><rect width="522.5" height="87.5" x="99.3" y="20.3" rx="3.8"/><rect width="522.5" height="87.5" x="99.3" y="20.3" stroke="#3d50f5" stroke-dasharray="6 6" stroke-width=".5" rx="3.8"/><rect width="128.5" height="15.5" x="111.3" y="12.3" fill="#0f1c8a" rx="1.8"/><rect width="128.5" height="15.5" x="111.3" y="12.3" stroke="#3d50f5" stroke-width=".5" rx="1.8"/><path fill="#fff" d="M115.4 17.8v-1h5.8v1H119V24h-1.4v-6.2zm8.1 3V24h-1.2v-7.3h1.2v2.8q.3-.5.7-.8.4-.2 1-.2t1 .2.6.7q.3.5.3 1.1V24h-1.3v-3.3q0-.5-.3-.8t-.8-.3l-.6.1-.4.4q-.2.3-.2.7m4.9 3.2v-5.5h1.3V24zm.6-6.2-.5-.2-.2-.5q0-.3.2-.5l.5-.2.6.2q.2.2.2.5l-.2.5zm3.3 3V24H131v-5.5h1.2v1h.1q.2-.5.6-.8.4-.2 1-.2t1 .2l.7.7q.2.5.2 1.1V24h-1.3v-3.3q0-.5-.3-.8t-.8-.3l-.6.1-.4.4zm7.2 5.4q-.7 0-1.2-.2l-.8-.5-.4-.7 1.1-.3.2.3.4.3h.7q.5 0 .9-.2t.4-.8v-1h-.1l-.3.3-.5.4-.8.1q-.6 0-1.1-.3l-.8-.9q-.3-.6-.3-1.4 0-1 .3-1.6t.8-.9l1.1-.3.8.1.5.4.3.4v-.9h1.3v5.6q0 .7-.3 1.1l-1 .7zm0-3.3q.4 0 .7-.2t.4-.6.2-.9-.2-.9l-.4-.6-.7-.2q-.5 0-.7.3-.3.2-.5.6l-.1.8.1 1 .5.5q.3.2.7.2m8.2-3-1.2.2-.2-.3-.3-.3h-.5l-.7.1q-.3.2-.3.5l.2.3.6.3 1 .2q.7.2 1 .5.5.4.5 1l-.3.9q-.3.4-.8.6t-1.3.2q-1 0-1.6-.4a2 2 0 0 1-.7-1.2l1.3-.1.3.5q.3.2.7.2.5 0 .8-.2.3-.1.3-.4l-.2-.4q-.2-.2-.6-.2l-1-.2q-.7-.2-1-.6t-.4-1l.2-.8.8-.6 1.2-.2q1 0 1.5.4t.7 1m1.2 4.1v-7.3h2.8q.8 0 1.3.3t.8.6l.2 1-.1.8-.5.5-.6.3q.3 0 .7.3t.6.6.2 1-.3 1-.8.6-1.4.3zm1.3-1.1h1.4q.7 0 1-.3l.4-.7a1 1 0 0 0-.6-1l-.7-.1h-1.5zm0-3h1.3q.4 0 .6-.2a1 1 0 0 0 .6-1q0-.3-.3-.6t-.9-.3h-1.3zm7.6 4.2q-.8 0-1.4-.3a2 2 0 0 1-1-1q-.2-.7-.2-1.5t.3-1.5.9-1 1.4-.3 1.4.3.9 1 .3 1.5-.3 1.5-1 1q-.5.3-1.3.3m0-1q.4 0 .7-.3t.5-.6l.1-1-.1-.8-.5-.7-.7-.2q-.5 0-.7.2l-.5.7-.1.9.1.9q.2.4.5.6.2.3.7.3m5.3 1q-.6 0-1-.2l-.6-.5q-.3-.4-.3-1 0-.4.2-.7l.5-.5.6-.2.8-.2h.8l.4-.2q.2 0 .2-.3 0-.4-.3-.6t-.7-.2-.7.2-.4.5l-1.2-.2.5-.9.8-.5 1-.1h.8q.4 0 .7.4l.5.5q.2.4.2 1V24h-1.2v-.7l-.9.7zm.3-1h.7q.3-.2.4-.5l.2-.6v-.6h-.2l-.4.2h-.6l-.5.2-.4.2-.1.4q0 .4.2.6t.7.2m3.8.8v-5.5h1.3v1a1.4 1.4 0 0 1 1.4-1h.4v1.2h-1.2q-.3.2-.4.5t-.2.6V24zm5.8.1q-.6 0-1.2-.3t-.8-1l-.3-1.5q0-1 .3-1.6.4-.6.9-.9l1.1-.3.8.1.5.4.3.4v-2.7h1.3V24h-1.3v-.9l-.3.5-.5.3q-.3.2-.8.2m.4-1q.4 0 .7-.3l.4-.6.1-1-.1-.8-.4-.7-.7-.2q-.5 0-.8.3l-.4.6-.1.9.1.9.4.6q.3.2.8.2m6.4 1v-7.3h2.7q.9 0 1.4.3.6.3 1 .8.2.6.2 1.3t-.3 1.2-.9.8-1.4.2h-2v-1h1.8q.5 0 .8-.2l.5-.4.2-.6-.2-.7-.5-.4q-.3-.2-.8-.2h-1.2V24zm3.8-3.3 1.8 3.3h-1.5l-1.8-3.3zm6.1 1v-3.2h1.3V24h-1.2v-1l-.7.8q-.4.3-1 .3t-1-.3l-.6-.7q-.2-.4-.2-1v-3.6h1.2v3.3q0 .5.3.8t.8.3h.5l.5-.5zm4-5V24h-1.4v-7.3zm3.7 7.4q-.9 0-1.5-.3a2 2 0 0 1-.9-1q-.3-.6-.3-1.5t.3-1.5 1-1q.5-.3 1.3-.3l1 .1.7.5q.4.4.6.9t.2 1.2v.4h-4.5v-.8h3.3l-.2-.7-.4-.5-.7-.1q-.4 0-.7.2l-.4.5-.2.6v.8q0 .5.2.8.1.3.4.5l.8.2h.5l.4-.3.2-.4 1.2.1-.4.9-.8.5zm6-.1v-7.3h4.7v1.1h-3.4v2h3.2V21h-3.2v2h3.5v1zm7.3-3.2V24h-1.3v-5.5h1.3v1q.2-.5.6-.8.4-.2 1-.2t1 .2q.5.3.7.7.2.5.2 1.1V24H213v-3.3q0-.5-.3-.8t-.7-.3l-.6.1-.4.4zm7.2 5.4q-.7 0-1.2-.2l-.8-.5-.4-.7 1.1-.3.3.3q.1.2.4.3h.6q.6 0 1-.2.3-.2.3-.8v-1l-.4.3-.5.4-.8.1q-.6 0-1-.3-.6-.3-.9-.9t-.3-1.4q0-1 .3-1.6t.8-.9 1.2-.3l.7.1.5.4.3.4v-.9h1.4v5.6q0 .7-.4 1.1l-.9.7zm0-3.3q.4 0 .7-.2t.4-.6.2-.9-.2-.9l-.4-.6-.7-.2q-.4 0-.7.3t-.4.6l-.2.8.2 1q.1.3.4.5t.7.2m3.9 1.1v-5.5h1.3V24zm.6-6.2-.5-.2-.2-.5q0-.3.2-.5l.5-.2q.3 0 .5.2t.3.5l-.3.5zm3.3 3V24h-1.3v-5.5h1.2v1q.3-.5.7-.8.4-.2 1-.2t1 .2.6.7q.3.5.3 1.1V24h-1.3v-3.3q0-.5-.3-.8t-.8-.3l-.6.1-.4.4zm7.2 3.3q-.8 0-1.4-.3-.6-.4-1-1-.3-.6-.3-1.5t.4-1.5l.9-1q.5-.3 1.3-.3l1 .1.8.5.5.9q.2.5.2 1.2v.4h-4.5v-.8h3.3l-.2-.7-.4-.5-.7-.1q-.4 0-.7.2l-.4.5-.2.6v.8q0 .5.2.8l.5.5q.3.2.7.2h.5l.4-.3.3-.4 1.2.1-.5.9-.8.5z"/><rect width="214" height="55" x="253.5" y="292.5" fill="#17181c" rx="9.5"/><rect width="214" height="55" x="253.5" y="292.5" stroke="#eebd53" rx="9.5"/><rect width="30" height="30" x="265" y="305" fill="#4e4022" rx="4"/><path fill="#f9e8c3" d="M284.9 322.1a1 1 0 0 1 1.2 0l2.8 2.8a1 1 0 0 1 0 1.2l-2.8 2.8a1 1 0 1 1-1.2-1.3l1.1-1.2h-13.3a1 1 0 1 1 0-1.8H286l-1.1-1.2a1 1 0 0 1 0-1.3m1.5-2.1v-5.5a1 1 0 0 0-.9-1h-11a1 1 0 0 0-1 1v7.3a1 1 0 1 1-1.7 0v-7.3q0-1 .8-2a3 3 0 0 1 1.9-.8h11a2.7 2.7 0 0 1 2.8 2.8v5.5a1 1 0 1 1-1.9 0"/><path fill="#fff" d="M300.5 317v-1.5h7.6v1.5h-3v8h-1.7v-8zm10.6 3.8v4.2h-1.7v-9.5h1.7v3.6q.3-.6.8-1 .6-.3 1.4-.3t1.3.3.8 1 .3 1.4v4.5H314v-4.3q0-.7-.3-1-.4-.5-1-.5l-.8.2-.6.6q-.2.3-.2.8m6.3 4.2v-7h1.7v7zm.9-8.1-.7-.3-.3-.6.3-.6.7-.3q.4 0 .6.3l.3.6-.3.6zm4.2 4v4.1h-1.7v-7h1.6v1.1q.3-.6.9-1 .5-.3 1.3-.3.7 0 1.3.3.5.3.8 1 .3.5.3 1.4v4.5h-1.6v-4.3q0-.7-.4-1-.4-.5-1-.5t-.8.2q-.3.2-.5.6t-.2.8m9.3 7q-.9 0-1.5-.2t-1-.7l-.6-.9 1.5-.3q0 .2.3.4l.5.3.8.1q.7 0 1.2-.3t.5-1.1v-1.4h-.1l-.4.6-.6.4q-.4.2-1 .2a3 3 0 0 1-1.5-.4q-.7-.4-1-1.1-.5-.8-.5-2t.4-2q.4-.7 1-1.2t1.6-.4q.6 0 1 .2t.6.5l.4.6v-1.2h1.7v7.2q0 1-.4 1.5a3 3 0 0 1-1.2 1q-.7.2-1.7.2m0-4.2q.6 0 1-.3.3-.2.5-.7t.2-1.2-.2-1.1l-.6-.8q-.3-.3-.9-.3-.5 0-1 .3l-.5.8-.2 1.1q0 .7.2 1.2t.6.7 1 .3m10.6-3.8-1.6.2-.2-.5-.4-.3-.7-.1q-.5 0-.9.2-.3.2-.3.6l.2.5.8.3 1.2.3q1 .2 1.5.6.5.5.5 1.3a2 2 0 0 1-.4 1.2q-.4.5-1 .8-.7.2-1.6.2-1.3 0-2.1-.5t-1-1.5l1.7-.2q0 .5.4.7.4.3 1 .3t1-.3q.3-.2.3-.6l-.2-.5-.8-.3-1.2-.2q-1-.2-1.5-.7-.5-.6-.5-1.3a2 2 0 0 1 .4-1.2q.4-.5 1-.7.7-.3 1.5-.3 1.2 0 2 .5.7.6.9 1.5m1.6 5.2v-9.5h3.6q1 0 1.7.4.7.3 1 .8t.3 1.3-.2 1l-.6.6-.8.4v.1q.5 0 1 .3t.7.8.3 1.2-.3 1.3-1.1 1-1.8.3zm1.7-1.4h1.8q1 0 1.4-.4.4-.3.4-1a1.4 1.4 0 0 0-.8-1.2q-.4-.2-1-.2h-1.8zm0-4h1.7l.8-.2.5-.5q.2-.3.2-.7 0-.5-.4-.9-.3-.3-1.1-.3h-1.7zm9.8 5.5q-1 0-1.8-.4a3 3 0 0 1-1.2-1.3q-.4-.8-.4-2 0-1 .4-1.8a3 3 0 0 1 1.2-1.3q.8-.5 1.8-.5t1.8.5 1.2 1.3.4 1.9-.4 1.9a3 3 0 0 1-1.2 1.3q-.7.4-1.8.4m0-1.3q.6 0 1-.3t.5-.9l.2-1.1-.2-1.2-.5-.8q-.4-.4-1-.4t-1 .4l-.5.8-.2 1.2q0 .6.2 1.1t.6.9 1 .3m6.8 1.3-1.2-.2-.9-.7q-.3-.5-.3-1.2t.2-1 .6-.6l.9-.4 1-.1 1-.2.6-.1q.2-.1.2-.4 0-.5-.4-.8t-.8-.3q-.7 0-1 .3t-.5.6l-1.6-.2.6-1.1 1-.7 1.4-.2 1 .1 1 .4q.4.3.7.8t.2 1.2v4.7h-1.6v-1a2 2 0 0 1-1.2 1zm.5-1.2q.5 0 .9-.2t.6-.5l.2-.7v-.9l-.3.1-.4.1-.5.1h-.4l-.6.2-.5.4-.2.5q0 .4.4.7.3.2.8.2m5 1.1v-7h1.6v1h.1q.2-.5.7-.9l1-.3h.6v1.6h-.3l-.4-.1q-.5 0-.9.2l-.5.5-.2.8v4.2zm7.5.1a3 3 0 0 1-1.5-.4q-.7-.4-1-1.3t-.4-2 .4-2q.4-.7 1-1.2t1.5-.4q.6 0 1 .2l.7.5.3.6h.1v-3.6h1.7v9.5h-1.7v-1.1l-.4.5-.7.5q-.4.2-1 .2m.5-1.3q.5 0 .9-.3l.5-.8.2-1.2q0-.7-.2-1.2l-.5-.8q-.4-.3-1-.3t-.9.3l-.5.8-.2 1.2q0 .6.2 1.1t.5.9 1 .3m10-8.3v9.5h-1.6v-9.5zm3.5 5.3v4.2h-1.7v-7h1.6v1.1h.1q.3-.6.8-1 .5-.3 1.3-.3t1.3.3q.6.3.9 1 .3.5.3 1.4v4.5h-1.7v-4.3q0-.7-.4-1-.3-.5-1-.5l-.8.2q-.3.2-.5.6t-.2.8m9.8-2.9v1.3h-4v-1.3zm-3-1.7h1.6v6.7l.1.5.3.2h.9l.2 1.3-.3.1-.6.1-1.2-.2-.8-.6q-.3-.5-.3-1.2zm7.5 9q-1.1 0-1.9-.5a3 3 0 0 1-1.2-1.3q-.4-.8-.4-1.9t.4-2 1.2-1.2 1.8-.5l1.2.2q.6.2 1 .7t.8 1q.2.8.2 1.7v.5H401v-1.1h4.2l-.2-.9-.6-.6-.8-.2q-.5 0-.9.3t-.6.6l-.2.9v1q0 .6.2 1t.6.7 1 .2h.7l.5-.4.3-.5 1.6.2-.6 1-1 .8q-.7.2-1.5.2m7.6 2.7q-.9 0-1.5-.2t-1-.7l-.6-.9 1.5-.3.3.4.5.3.8.1q.8 0 1.2-.3.5-.3.5-1.1v-1.4l-.5.6-.6.4q-.4.2-1 .2a3 3 0 0 1-1.5-.4q-.7-.4-1-1.1-.5-.8-.5-2t.4-2q.4-.7 1-1.2.8-.4 1.6-.4.6 0 1 .2t.6.5l.4.6h.1v-1.2h1.6v7.2q0 1-.4 1.5a3 3 0 0 1-1.2 1q-.7.2-1.7.2m0-4.2q.6 0 1-.3.3-.2.5-.7t.2-1.2-.2-1.1l-.6-.8q-.3-.3-.9-.3-.5 0-.9.3t-.6.8l-.2 1.1q0 .7.2 1.2t.6.7 1 .3m5 1.4v-7h1.6v1q.2-.5.7-.9l1.1-.3h.6v1.6h-.3l-.5-.1-.8.2q-.4.2-.6.5l-.2.8v4.2zm7 .1-1.2-.2-.8-.7q-.3-.5-.3-1.2t.2-1 .6-.6l.8-.4 1-.1 1-.2.6-.1q.2-.1.2-.4 0-.5-.3-.8t-.9-.3-1 .3-.5.6l-1.5-.2.6-1.1 1-.7q.6-.2 1.4-.2l1 .1 1 .4q.4.3.6.8.3.4.3 1.2v4.7h-1.6v-1a2 2 0 0 1-1.2 1zm.5-1.2q.5 0 .8-.2t.6-.5l.2-.7v-.9l-.3.1-.4.1-.4.1h-.4l-.7.2-.5.4-.1.5q0 .4.3.7t.9.2m8.5-6v1.3h-4v-1.3zm-3-1.7h1.6v6.7l.1.5.3.2h.8l.3 1.3-.4.1-.6.1-1-.2-.9-.6q-.3-.5-.3-1.2zm4.4 8.8v-7h1.7v7zm.8-8.1-.7-.3-.2-.6.2-.6.7-.3.7.3.3.6-.3.6zm5.7 8.2q-1 0-1.8-.4a3 3 0 0 1-1.2-1.3q-.4-.8-.4-2 0-1 .4-1.8a3 3 0 0 1 1.2-1.3q.7-.5 1.8-.5 1 0 1.8.5.7.4 1.2 1.3t.4 1.9-.4 1.9q-.5.8-1.2 1.3-.8.4-1.8.4m0-1.3q.5 0 1-.3l.5-.8.2-1.2-.2-1.2-.6-.8q-.4-.4-1-.4t-.9.4-.5.8l-.2 1.2.2 1.2q.1.5.5.8t1 .3m6.5-3v4.2H445v-7h1.6v1.1q.3-.6.9-1 .5-.3 1.3-.3.7 0 1.3.3.5.3.8 1 .3.5.3 1.4v4.5h-1.7v-4.3q0-.7-.3-1-.4-.5-1-.5t-.8.2q-.4.2-.5.6-.2.3-.2.8"/><rect width="229" height="55" x="245.5" y="403.5" fill="#17181c" rx="9.5"/><rect width="229" height="55" x="245.5" y="403.5" stroke="#888c96" rx="9.5"/><rect width="30" height="30" x="257" y="416" fill="#23262f" rx="4"/><path fill="#888c96" d="M278.4 428.3q0 .8-.9.9h-1.8a1 1 0 0 1-1-1h-.9v9.2h5.5v-9.2zm-13.7-3.7v11h7.3v-7.3a2 2 0 0 1 1.8-1.9h2.8v-1.8zm13.7 1.8h1a2 2 0 0 1 1.8 1.9v9.1a2 2 0 0 1-1.9 1.9h-5.5a2 2 0 0 1-1.8-1.9h-7.3a2 2 0 0 1-1.9-1.8v-11a2 2 0 0 1 1.9-1.8h11.9a2 2 0 0 1 1.8 1.8z"/><path fill="#fff" d="M299.4 436v-9.5h6.1v1.5h-4.4v2.5h4.1v1.5h-4.1v2.6h4.5v1.4zm9.2-7 1.4 2.5 1.5-2.6h1.7l-2.1 3.6 2.2 3.5h-1.8l-1.5-2.6-1.5 2.6h-1.8l2.2-3.5-2.1-3.6zm9.5 0v1.2H314v-1.3zm-3.1-1.8h1.7v7.2l.3.2h.9l.3 1.3-.4.1-.6.1-1.1-.2-.8-.6q-.3-.5-.3-1.2zm7.5 9q-1 0-1.8-.5a3 3 0 0 1-1.2-1.3q-.4-.8-.4-1.9t.4-2 1.2-1.2 1.7-.5q.7 0 1.3.2l1 .7q.5.4.7 1 .3.8.3 1.7v.5h-5.8v-1.1h4.2l-.2-.9-.6-.6-.8-.2q-.6 0-1 .3l-.6.6-.2.9v1q0 .6.3 1t.6.7 1 .2h.6l.5-.4.3-.5 1.6.2-.6 1-1 .8q-.7.2-1.5.2m4.6-.1v-7h1.6v1l.7-.9 1.1-.3h.6v1.6h-.3l-.4-.1q-.5 0-.9.2l-.5.5q-.2.3-.2.8v4.2zm6.8-4.2v4.2h-1.7v-7h1.6v1.1h.1q.3-.6.8-1 .5-.3 1.3-.3t1.3.3q.6.3.9 1 .3.5.3 1.4v4.5h-1.7v-4.3q0-.7-.4-1-.3-.5-1-.5l-.8.2q-.3.2-.5.6t-.2.8m8.3 4.3-1.2-.2-.9-.7q-.3-.5-.3-1.2t.3-1 .6-.6l.8-.4 1-.1 1-.2.6-.1q.2-.1.2-.4 0-.5-.3-.8t-1-.3-.9.3-.5.6l-1.5-.2q.1-.7.6-1.1l1-.7 1.4-.2 1 .1 1 .4.6.8q.2.4.2 1.2v4.7h-1.6v-1l-.4.6-.7.4zm.4-1.2 1-.2.5-.5.2-.7v-.9l-.3.1-.4.1-.5.1h-.4l-.6.2-.5.4-.2.5q0 .4.4.7t.8.2m6.7-8.4v9.5h-1.7v-9.5zm5 9.5v-9.5h3.6q1 0 1.8.5.7.4 1.1 1 .4.8.4 1.7t-.4 1.6a3 3 0 0 1-1.1 1.1q-.8.4-1.9.4h-2.3v-1.4h2.1q.6 0 1-.2t.6-.6.2-1l-.2-.8-.6-.6q-.4-.2-1-.2H356v8zm10-9.5v9.5h-1.7v-9.5zm3.7 9.6-1.2-.2-.8-.7q-.3-.5-.3-1.2t.2-1 .6-.6l.9-.4 1-.1 1-.2.5-.1q.2-.1.2-.4 0-.5-.3-.8t-.9-.3-1 .3-.4.6l-1.6-.2q.2-.7.6-1.1l1-.7 1.4-.2 1 .1 1 .4q.4.3.6.8.3.4.3 1.2v4.7h-1.6v-1l-.5.6-.7.4zm.5-1.2q.5 0 .8-.2t.6-.5l.2-.7v-.9l-.3.1-.4.1-.4.1h-.4l-.7.2-.5.4-.1.5q0 .4.3.7t.9.2m8.5-6v1.3h-4v-1.3zm-3-1.7h1.6v6.7l.1.5.3.2h.8l.3 1.3-.4.1-.6.1-1-.2-.9-.6q-.3-.5-.3-1.2zm8 1.7v1.3h-4.2v-1.3zm-3.2 7.1v-7.8q0-.7.3-1.2t.8-.7l1.2-.2h.7l.5.2-.3 1.3h-.3l-.3-.1q-.5 0-.7.2t-.2.7v7.6zm7.3.1q-1 0-1.8-.4a3 3 0 0 1-1.2-1.3q-.4-.8-.4-2 0-1 .4-1.8a3 3 0 0 1 1.2-1.3q.8-.5 1.8-.5t1.8.5 1.2 1.3.4 1.9-.4 1.9a3 3 0 0 1-1.2 1.3q-.7.4-1.8.4m0-1.3q.6 0 1-.3t.5-.9l.2-1.1-.2-1.2-.5-.8q-.4-.4-1-.4t-1 .4l-.5.8-.2 1.2q0 .6.2 1.1t.6.9 1 .3m4.7 1.2v-7h1.7v1q.2-.5.7-.9l1-.3h.7v1.6h-.3l-.5-.1-.8.2q-.4.2-.6.5l-.2.8v4.2zm5.2 0v-7h1.6v1.1q.3-.6.8-1 .5-.3 1.2-.3.8 0 1.2.4.5.3.8 1 .3-.7.8-1t1.4-.4q1 0 1.5.6.7.7.7 1.8v4.8h-1.7v-4.5q0-.7-.4-1l-.8-.3q-.6 0-1 .4-.3.4-.3 1v4.4h-1.6v-4.6q0-.5-.4-.8-.3-.4-.8-.4t-.7.2l-.5.5-.1.8v4.3zm18.7-9.9-3 11.3h-1.5l3-11.3zm7.6 9.9h-3.2v-9.5h3.3q1.4 0 2.4.6a4 4 0 0 1 1.6 1.6q.5 1 .5 2.6 0 1.4-.5 2.5a4 4 0 0 1-1.6 1.6q-1 .6-2.5.6m-1.5-1.5h1.4q1 0 1.7-.3a2 2 0 0 0 1-1.1q.3-.8.3-1.8 0-1.1-.3-1.8a2 2 0 0 0-1-1.1q-.7-.4-1.6-.4h-1.5zm10.8 1.6q-1 0-1.8-.4a3 3 0 0 1-1.2-1.3q-.4-.8-.4-1.9t.4-2 1.1-1.2 1.8-.5q.7 0 1.2.2t1 .7.8 1q.3.8.3 1.7v.5H429v-1.1h4.2l-.2-.9-.5-.6-.9-.2q-.5 0-.9.3t-.6.6l-.2.9v1q0 .6.2 1t.7.7 1 .2h.6l.5-.4.3-.5 1.6.2-.6 1-1 .8q-.7.2-1.5.2m10.7-7.2-2.5 7.1H438l-2.5-7h1.8l1.6 5.2 1.7-5.3zm1.2 7.1v-7h1.6v7zm.8-8.1-.7-.3-.3-.6.3-.6.7-.3q.4 0 .7.3t.3.6l-.3.6zm5.6 8.2q-1 0-1.8-.4a3 3 0 0 1-1.2-1.3q-.4-.8-.4-2 0-1 .5-1.8a3 3 0 0 1 1.1-1.3q.8-.5 1.8-.5t1.6.3 1 1q.4.5.5 1.3h-1.6l-.5-.9q-.3-.3-1-.3l-.9.2-.6.8q-.2.5-.2 1.3 0 .7.2 1.2l.6.8q.4.3 1 .3l.6-.2q.3-.1.5-.4l.3-.6h1.6q0 .7-.5 1.3l-1 1q-.7.2-1.6.2m7.6 0q-1 0-1.9-.4a3 3 0 0 1-1.1-1.3q-.5-.8-.5-1.9t.5-2 1.1-1.2 1.8-.5q.7 0 1.2.2t1 .7.8 1q.2.8.2 1.7v.5H455v-1.1h4.2l-.2-.9-.5-.6-.9-.2q-.5 0-.9.3t-.6.6l-.2.9v1q0 .6.2 1t.7.7 1 .2h.6l.5-.4.3-.5 1.6.2-.6 1-1 .8q-.7.2-1.5.2"/><rect width="133" height="55" x="115.5" y="36.5" fill="#17181c" rx="9.5"/><rect width="133" height="55" x="115.5" y="36.5" stroke="#3369ff" rx="9.5"/><rect width="30" height="30" x="127" y="49" fill="#17264f" rx="4"/><path fill="#b3c7ff" d="M132.8 55.8a1 1 0 1 1 1.9 0V62q1-.1 1.7-.5.8-.5 1.4-1.4l1.6-1.7a4 4 0 0 1 2.6-1 4 4 0 0 1 2.7 1l1.5 1.7q.6.9 1.4 1.4t2.7.6a1 1 0 0 1 0 1.8 7 7 0 0 1-3.6-.8 7 7 0 0 1-2-1.8l-1.2-1.5q-.5-.5-1.5-.5c-1 0-1.1.2-1.5.5l-1.2 1.5a7 7 0 0 1-2 1.8q-1 .6-2.6.8v7.3h2.7v-3.6a1 1 0 0 1 1.9 0v3.6h1.8V65a1 1 0 1 1 1.8 0v6.4h1.9v-3.6a1 1 0 1 1 1.8 0v3.6h1.8v-1.8a1 1 0 0 1 1.9 0v1.8a1 1 0 0 1 0 1.9h-16.5a1 1 0 0 1-1-1z"/><path fill="#fff" d="M162.5 61v-1.5h7.6V61h-3v8h-1.7v-8zm11 8.1q-1 0-1.8-.4a3 3 0 0 1-1.2-1.3q-.4-.8-.4-1.9t.4-2a3 3 0 0 1 1.2-1.2q.7-.5 1.8-.5l1.2.2 1 .7q.5.4.7 1 .3.8.3 1.7v.5h-5.8v-1.1h4.2l-.2-.9-.6-.6-.8-.2q-.5 0-1 .3-.3.2-.5.6l-.2.9v1q0 .6.2 1t.6.7 1 .2h.6l.5-.4q.3-.2.4-.5l1.5.2-.5 1-1 .8q-.7.2-1.5.2m6.2-9.6V69H178v-9.5zm4.8 9.6q-1 0-1.8-.4a3 3 0 0 1-1.2-1.3q-.4-.8-.4-1.9t.4-2 1.2-1.2 1.8-.5l1.2.2q.6.2 1 .7t.7 1q.3.8.3 1.7v.5H182v-1.1h4.2l-.2-.9-.6-.6-.8-.2-1 .3q-.3.2-.5.6l-.2.9v1q0 .6.2 1t.6.7 1 .2h.6l.5-.4q.3-.2.4-.5l1.5.2-.5 1-1 .8q-.7.2-1.6.2m4.6-.1v-7h1.6v1q.3-.6.8-1 .5-.3 1.3-.3.7 0 1.2.4.5.3.7 1 .3-.7.8-1t1.4-.4q1 0 1.6.6t.6 1.8V69h-1.7v-4.5q0-.7-.3-1l-.9-.3q-.6 0-1 .4-.3.4-.3 1V69h-1.6v-4.6q0-.5-.4-.8-.3-.4-.8-.4t-.7.2l-.4.5-.2.8V69zm14.8.1q-1 0-1.8-.4a3 3 0 0 1-1.2-1.3q-.4-.8-.4-1.9t.4-2a3 3 0 0 1 1.2-1.2q.7-.5 1.7-.5.7 0 1.3.2t1 .7.7 1.1.3 1.6v.5h-5.8v-1.1h4.2l-.2-.9-.6-.6-.8-.2-1 .3q-.3.2-.5.6l-.3.9v1q0 .6.3 1t.6.7 1 .2h.6l.5-.4.3-.5 1.6.2-.6 1-1 .8q-.7.2-1.5.2m8.1-7.2v1.3h-4V62zm-3-1.7h1.6V67l.1.5.3.2h.9l.3 1.3-.4.1-.6.1-1.2-.2-.8-.6q-.2-.5-.2-1.2zm4.4 8.8v-7h1.6v1h.1q.2-.5.7-.9l1-.3h.7v1.6h-.4l-.4-.1q-.5 0-.8.2t-.6.5l-.2.8V69zm6.4 2.7h-.6l-.5-.2.4-1.3h1.2l.4-.7.1-.3-2.6-7.3h1.8l1.6 5.4h.1l1.7-5.4h1.7l-2.8 8-.5 1-.8.5q-.5.3-1.2.3"/><rect width="133" height="55" x="294" y="36.5" fill="#17181c" rx="9.5"/><rect width="133" height="55" x="294" y="36.5" stroke="#3369ff" rx="9.5"/><rect width="30" height="30" x="305.5" y="49" fill="#17264f" rx="4"/><path fill="#b3c7ff" d="M313.2 69.5a1 1 0 1 1 1.8 0 1 1 0 1 1-1.8 0m14.6-1a1 1 0 0 1 0 2h-10a1 1 0 0 1 0-2zM313.2 64a1 1 0 1 1 1.8 0 1 1 0 1 1-1.8 0m14.6-1a1 1 0 0 1 0 2h-10a1 1 0 0 1 0-2zm-14.6-4.5a1 1 0 1 1 1.8 0 1 1 0 1 1-1.8 0m14.6-1a1 1 0 0 1 0 2h-10a1 1 0 0 1 0-2z"/><path fill="#fff" d="M342.6 69h-1.8l3.3-9.5h2.2l3.3 9.5h-1.8l-2.6-7.5zm.1-3.7h5v1.4h-5zm11.2-3.4v1.3h-4.1v-1.3zm-3.1-1.7h1.7v7.2l.3.2h.9l.3 1.3-.4.1-.6.1-1.1-.2-.8-.6q-.3-.5-.3-1.2zm8 1.7v1.3h-4v-1.3zm-3-1.7h1.6V67l.1.5q.1.2.3.2h.8l.3 1.3-.4.1-.6.1-1-.2-.9-.6q-.3-.5-.3-1.2zm4.4 8.8v-7h1.6v1q.3-.5.8-.9l1-.3h.6v1.6h-.3l-.4-.1-.9.2a2 2 0 0 0-.7 1.3V69zm5.2 0v-7h1.6v7zm.8-8.1-.7-.3-.3-.6q0-.4.3-.6l.7-.3q.4 0 .7.3t.3.6-.3.6zm2.6 8.1v-9.5h1.7v3.6l.4-.6.7-.5q.4-.2 1-.2.8 0 1.5.4t1 1.3.4 2-.4 2-1 1.2-1.5.4q-.6 0-1-.2l-.7-.5-.3-.5h-.1V69zm1.7-3.5.1 1.2q.2.5.6.8t1 .3.8-.3.6-.9.2-1.1-.2-1.2l-.5-.8q-.4-.3-1-.3t-.9.3-.6.8zm11 .5v-4h1.6v7h-1.6v-1.3q-.3.6-.9 1-.5.4-1.3.4l-1.2-.3a2 2 0 0 1-.9-1q-.3-.5-.3-1.4V62h1.7v4.3q0 .6.4 1 .3.4 1 .4l.7-.1.5-.6q.2-.3.2-.9m7-4v1.2h-4.1V62zm-3-1.8h1.6v7.2l.4.2h.8l.3 1.3-.4.1-.6.1-1.1-.2-.8-.6q-.3-.5-.3-1.2zm7.4 9q-1 0-1.8-.5a3 3 0 0 1-1.2-1.3q-.4-.8-.4-1.9t.4-2a3 3 0 0 1 1.2-1.2q.7-.5 1.8-.5l1.2.2 1 .7q.5.4.7 1 .3.8.3 1.7v.5h-5.8v-1.1h4.2l-.2-.9-.6-.6-.8-.2q-.5 0-1 .3-.3.2-.5.6l-.2.9v1q0 .6.2 1t.6.7 1 .2h.6l.5-.4q.3-.2.4-.5l1.5.2-.5 1-1 .8q-.7.2-1.6.2m10.2-5.3-1.5.2-.2-.5-.5-.3-.6-.1q-.5 0-.9.2-.3.2-.3.6l.2.5q.2.2.8.3l1.2.3q1 .2 1.5.6.5.5.5 1.3a2 2 0 0 1-.4 1.2q-.4.5-1 .8t-1.7.2q-1.3 0-2-.5-.9-.6-1-1.5l1.6-.2q.1.5.5.7.4.3 1 .3t.9-.3.4-.6l-.3-.5q-.2-.2-.7-.3l-1.2-.2q-1-.2-1.5-.7-.5-.6-.5-1.3l.3-1.2q.4-.5 1-.7.7-.3 1.6-.3 1.2 0 2 .5.6.6.8 1.5"/><rect width="133" height="55" x="472.5" y="36.5" fill="#17181c" rx="9.5"/><rect width="133" height="55" x="472.5" y="36.5" stroke="#3369ff" rx="9.5"/><rect width="30" height="30" x="484" y="49" fill="#17264f" rx="4"/><path fill="#b3c7ff" d="M503.9 65.2a1 1 0 0 1 1.2 0l2.8 2.7a1 1 0 0 1 0 1.3l-2.8 2.8a1 1 0 1 1-1.2-1.3l1.1-1.2h-14.2a1 1 0 1 1 0-1.8H505l-1.1-1.2a1 1 0 0 1 0-1.3m-11-9.2a1 1 0 1 1 1.2 1.3l-1.1 1.2h14.3a1 1 0 0 1 0 1.8H493l1.1 1.2a1 1 0 1 1-1.2 1.3l-2.8-2.7a1 1 0 0 1 0-1.3z"/><path fill="#fff" d="M520 69v-9.5h3.5q1 0 1.8.4.7.4 1.1 1 .4.8.4 1.7t-.4 1.5l-1.1 1q-.8.4-1.8.4h-2.6v-1.4h2.3q.7 0 1-.2.5-.1.7-.5.2-.3.2-.8t-.2-.9l-.6-.5q-.4-.2-1-.2h-1.7v8zm4.8-4.3 2.4 4.3h-2l-2.3-4.3zm3.6 4.3v-9.5h3.5q1.1 0 1.9.5t1 1q.5.8.5 1.7t-.4 1.6-1.1 1.1-1.9.4h-2.3v-1.4h2q.7 0 1.1-.2t.6-.6.2-1l-.2-.8-.6-.6q-.4-.2-1-.2H530v8zm16.4-6.3h-1.7l-.3-.7-.4-.6-.7-.3-.8-.1q-.8 0-1.4.3-.6.4-1 1.2-.3.7-.3 1.8 0 1 .4 1.8.3.7.9 1.1t1.4.4l.8-.1.6-.4.5-.5.3-.7h1.7q0 .6-.4 1.2-.3.6-.8 1l-1.2.8q-.7.2-1.6.2-1.2 0-2.2-.5t-1.5-1.7-.6-2.6.6-2.6q.5-1.1 1.5-1.7t2.2-.6q.8 0 1.5.2l1.2.7q.6.4.9 1t.4 1.4"/><rect width="251.5" height="55.5" x="96.3" y="172.3" rx="3.8"/><rect width="251.5" height="55.5" x="96.3" y="172.3" stroke="#bd53ee" stroke-dasharray="6 6" stroke-width=".5" rx="3.8"/><rect width="88.5" height="15.5" x="108.3" y="164.3" fill="#40224e" rx="1.8"/><rect width="88.5" height="15.5" x="108.3" y="164.3" stroke="#bd53ee" stroke-width=".5" rx="1.8"/><path fill="#fff" d="M117.3 168.7h1.3v4.8q0 .8-.3 1.4l-1 .9q-.7.3-1.6.3t-1.6-.3l-1-1q-.4-.5-.4-1.3v-4.8h1.3v4.7l.2.8q.2.3.6.5t.9.2.8-.2l.6-.5.2-.8zm2.7 9.3v-7.5h1.3v1l.3-.5.5-.4.8-.1q.6 0 1.1.3t.8 1 .3 1.5-.3 1.5-.8 1-1.1.3-.8-.2l-.5-.3-.3-.5v3zm1.3-4.7.1.9.4.6q.3.2.7.2.5 0 .8-.2l.4-.6.1-1-.1-.8-.4-.6q-.3-.3-.8-.3t-.7.2l-.4.7zm6.2-4.6v7.3h-1.3v-7.3zm1.4 7.3v-5.5h1.2v5.5zm.6-6.2-.5-.2-.2-.5q0-.3.2-.5l.5-.2q.3 0 .5.2t.2.5l-.2.5zm3.2 3v3.2h-1.2v-5.5h1.2v1q.2-.5.7-.8.4-.2 1-.2l1 .2q.4.3.6.7.3.5.2 1.1v3.5H135v-3.3q0-.5-.3-.8t-.8-.3l-.6.1-.4.4zm6 1.5v-1.6h.2l2-2.2h1.5l-2.4 2.7h-.3zm-1.1 1.7v-7.3h1.2v7.3zm3.4 0-1.8-2.5.9-.9 2.4 3.4zm7.1.1q-.8 0-1.4-.4l-.9-1q-.3-.6-.3-1.4t.3-1.5 1-1 1.3-.3 1.2.2.8.7.3 1h-1.2l-.3-.6q-.3-.3-.8-.3t-.7.2-.4.6l-.2 1 .2 1q.1.3.4.5t.7.3l.5-.1.4-.4q.2-.2.2-.5h1.2l-.3 1-.8.8q-.5.2-1.2.2m5.8 0q-.8 0-1.4-.3a2 2 0 0 1-1-1q-.2-.7-.2-1.5t.3-1.5.9-1 1.4-.3 1.4.3.9 1 .3 1.5-.3 1.5-1 1q-.5.3-1.3.3m0-1q.4 0 .7-.3t.4-.6.2-1l-.2-.8-.4-.7-.7-.2q-.5 0-.8.2l-.4.7-.1.9.1.9.4.6q.3.3.8.3m5-2.3v3.2h-1.3v-5.5h1.2v1q.3-.5.7-.8.4-.2 1-.2t1 .2.6.7q.3.5.3 1.1v3.5H161v-3.3q0-.5-.3-.8t-.8-.3l-.6.1-.4.4zm9.5-2.3-2 5.5H165l-2-5.5h1.4l1.3 4.1 1.3-4zm3 5.6q-.7 0-1.3-.3-.6-.4-1-1-.3-.6-.3-1.5t.3-1.5 1-1q.5-.3 1.3-.3l1 .1.8.5.5.9q.2.5.2 1.2v.4h-4.5v-.8h3.3l-.2-.7-.4-.5-.7-.1q-.4 0-.7.2l-.4.5-.2.6v.8q0 .5.2.8.1.3.5.5.3.2.7.2h.5l.4-.3.2-.4 1.2.1q0 .5-.4.9l-.8.5zm3.5-.1v-5.5h1.2v1q.2-.5.6-.8l.8-.2h.5v1.2h-1.2l-.5.5-.1.6v3.2zm7-5.5v1h-3.2v-1zm-2.4-1.3h1.3v5.6l.3.1h.6l.3 1-.8.2-.9-.2-.6-.5q-.2-.3-.2-.8zm5.8 7q-.8 0-1.4-.4t-1-1-.3-1.5.4-1.5.9-1 1.3-.3l1 .1.8.5.5.9q.2.5.2 1.2v.4h-4.4v-.8h3.2l-.2-.7-.4-.5-.7-.1-.6.2-.5.5-.2.6v.8q0 .5.2.8l.5.5q.3.2.7.2h.5l.4-.3.3-.4 1.2.1q-.1.5-.5.9l-.8.5zm3.5-.1v-5.5h1.3v1l.5-.8q.4-.2.9-.2h.4v1.2h-1.2q-.3.2-.4.5t-.2.6v3.2z"/><rect width="57" height="23" x="112.5" y="188.5" fill="#23262f" rx="5.5"/><rect width="57" height="23" x="112.5" y="188.5" stroke="#bd53ee" rx="5.5"/><path fill="#fff" d="M127.2 204h-2.5v-7.3h2.5q1.1 0 1.9.5t1.2 1.2.4 2q0 1-.4 2a3 3 0 0 1-1.2 1.2q-.8.4-2 .4m-1-1.1h1q.8 0 1.3-.3t.7-.9.3-1.3-.3-1.4l-.7-.9q-.5-.2-1.2-.2H126zm8.2 1.2q-.8 0-1.4-.3a2 2 0 0 1-1-1q-.2-.6-.2-1.5t.3-1.5.9-1 1.4-.3l1 .1.7.5.5.9q.2.5.2 1.2v.4h-4.4v-.8h3.2l-.1-.7-.5-.5-.6-.1q-.4 0-.7.2l-.5.5-.2.6v.8q0 .5.2.8l.5.5q.3.2.7.2h.5l.4-.3.3-.4 1.2.1-.4.9-.8.5zm8.2-5.6-1.9 5.5h-1.4l-2-5.5h1.4l1.3 4.1 1.3-4zm1 5.5v-5.5h1.2v5.5zm.6-6.2-.5-.2-.3-.5q0-.3.3-.5l.5-.2q.3 0 .5.2t.2.5l-.2.5zm4.3 6.3q-.8 0-1.4-.4l-.9-1q-.3-.6-.3-1.4t.3-1.5 1-1 1.3-.3 1.2.2.8.7.4 1h-1.3l-.3-.6q-.3-.3-.8-.3l-.7.2q-.3.2-.4.6l-.2 1 .2 1 .4.5q.3.3.7.3l.5-.1.4-.4.2-.5h1.3l-.4 1-.8.8q-.5.2-1.2.2m5.8 0q-.8 0-1.4-.3-.6-.4-.9-1t-.3-1.5.3-1.5 1-1 1.3-.3l1 .1.7.5q.4.4.6.9t.2 1.2v.4h-4.5v-.8h3.2l-.1-.7-.5-.5-.6-.1q-.4 0-.7.2l-.5.5-.1.6v.8l.1.8.5.5q.3.2.8.2h.5l.4-.3.2-.4 1.2.1-.4.9-.8.5z"/><rect width="122" height="23" x="209.5" y="188.5" fill="#23262f" rx="5.5"/><rect width="122" height="23" x="209.5" y="188.5" stroke="#bd53ee" rx="5.5"/><path fill="#fff" d="M221.4 197.8v-1h5.8v1H225v6.2h-1.4v-6.2zm8.1 3v3.2h-1.2v-7.3h1.2v2.8q.3-.5.7-.8.4-.2 1-.2t1 .2l.7.7q.2.5.2 1.1v3.5h-1.3v-3.3q0-.5-.3-.8t-.8-.3l-.6.1-.4.4zm4.9 3.2v-5.5h1.3v5.5zm.6-6.2-.5-.2-.2-.5q0-.3.2-.5l.5-.2.6.2q.2.2.2.5l-.2.5zm3.3 3v3.2H237v-5.5h1.2v1h.1q.2-.5.6-.8.4-.2 1-.2t1 .2l.7.7q.2.5.2 1.1v3.5h-1.3v-3.3q0-.5-.3-.8t-.8-.3l-.6.1-.4.4zm7.2 5.4q-.7 0-1.2-.2l-.8-.5-.4-.7 1.1-.3.2.3.4.3h.7q.5 0 .9-.2t.4-.8v-1h-.1l-.3.3-.5.4-.8.1q-.6 0-1.1-.3l-.8-.9q-.3-.6-.3-1.4 0-1 .3-1.6t.8-.9l1.1-.3.8.1.5.4.3.4v-.9h1.3v5.6q0 .7-.3 1.1l-1 .7zm0-3.3q.4 0 .7-.2t.4-.6l.2-.9q0-.5-.2-.9l-.4-.6-.7-.2q-.5 0-.7.3l-.5.6-.1.8.1 1 .5.5zm8.2-3-1.2.2-.2-.3-.3-.3h-.5l-.7.1q-.3.2-.3.5l.2.3.6.3 1 .2q.7.2 1 .5.5.4.5 1l-.3.9q-.3.4-.8.6t-1.3.2q-1 0-1.6-.4a2 2 0 0 1-.7-1.2l1.3-.1.3.5q.3.2.7.2.5 0 .8-.2.3-.1.3-.4l-.2-.4q-.2-.2-.6-.2l-1-.2q-.7-.2-1-.6t-.4-1l.2-.8.8-.6 1.2-.2q1 0 1.5.4t.7 1m1.2 4.1v-7.3h2.8q.8 0 1.3.3t.8.6l.2 1-.1.8-.5.5-.6.3q.3 0 .7.3t.6.6.2 1-.3 1q-.2.4-.8.6t-1.4.3zm1.3-1.1h1.4q.7 0 1-.3l.4-.7a1 1 0 0 0-.6-1l-.7-.1h-1.5zm0-3h1.3q.4 0 .6-.2.3-.1.5-.4l.1-.5q0-.4-.3-.7t-.9-.3h-1.3zm7.6 4.2q-.8 0-1.4-.3a2 2 0 0 1-1-1q-.2-.7-.2-1.5t.3-1.5.9-1 1.4-.3 1.4.3.9 1 .3 1.5-.3 1.5-1 1q-.5.3-1.3.3m0-1q.4 0 .7-.3t.5-.6l.1-1-.1-.8-.5-.7-.7-.2q-.5 0-.7.2l-.5.7-.1.9.1.9q.2.4.5.6.2.3.7.3m5.3 1q-.6 0-1-.2l-.6-.5q-.3-.4-.3-1 0-.4.2-.7t.5-.5l.6-.2.8-.2h.8l.4-.2q.2 0 .2-.3 0-.4-.3-.6t-.7-.2-.7.2-.4.5l-1.2-.2.5-.9.8-.5 1-.1h.8l.7.4.5.5q.2.4.2 1v3.6h-1.2v-.7l-.9.7zm.3-1h.7l.4-.5.2-.6v-.6h-.2l-.4.2h-.6l-.5.2-.4.2-.1.4q0 .4.2.6t.7.2m3.8.8v-5.5h1.3v1l.5-.8q.4-.2.9-.2h.4v1.2h-1.2q-.3.2-.4.5t-.2.6v3.2zm5.8.1q-.6 0-1.2-.3-.5-.4-.8-1t-.3-1.5.3-1.6.9-.9l1.1-.3.8.1.5.4.3.4v-2.7h1.3v7.3h-1.3v-.9l-.3.5-.5.3q-.3.2-.8.2m.4-1q.4 0 .7-.3l.4-.6.1-1-.1-.8-.4-.7-.7-.2q-.5 0-.8.3l-.4.6-.1.9.1.9.4.6q.3.2.8.2m6.4 1v-7.3h4.7v1.1H287v2h3v1.1h-3v3.1zm7.8.1q-.8 0-1.4-.3l-.9-1q-.3-.7-.3-1.5t.3-1.5 1-1q.5-.3 1.3-.3t1.4.3.9 1 .3 1.5-.3 1.5-1 1q-.5.3-1.3.3m0-1q.4 0 .7-.3t.5-.6l.1-1-.1-.8-.5-.7-.7-.2q-.4 0-.7.2l-.5.7-.1.9.1.9q.2.4.5.6.3.3.7.3m3.7.9v-5.5h1.2v1h.1q.1-.5.5-.8l.8-.2h.5v1.2h-1.2l-.5.5-.1.6v3.2zm4 0v-5.5h1.2v1q.2-.5.6-.8l1-.2q.5 0 .9.2t.5.8l.7-.8 1-.2q.8 0 1.3.4t.4 1.4v3.7h-1.3v-3.5q0-.5-.2-.7l-.7-.2q-.5 0-.7.2-.3.3-.3.8v3.4h-1.2v-3.5q0-.4-.3-.7t-.7-.2l-.5.1-.3.4q-.2.2-.2.6v3.3zm10.5.1-1-.2-.6-.5q-.2-.4-.2-1l.1-.7.5-.5.7-.3h.7l.8-.2.5-.1.1-.3q0-.4-.2-.6t-.7-.2-.8.2l-.3.5-1.2-.2q.1-.5.4-.9l.8-.5 1-.1h.9l.7.4.5.5q.2.4.2 1v3.6h-1.3v-.7l-.3.4-.6.3zm.3-1h.7q.3-.2.4-.5l.2-.6v-.6h-.2l-.3.2h-.7l-.5.2-.4.2v.4q0 .4.2.6t.6.2m6.6-4.7v1h-3.1v-1zm-2.4-1.3h1.3v5.2l.1.4.2.1h.7l.2 1-.8.2-.8-.2-.6-.5q-.3-.3-.3-.8z"/><path fill="#bd53ee" d="M173.3 199.3a.8.8 0 0 0 0 1.4zm33 1.2a1 1 0 0 0 0-1l-4.8-4.8a.7.7 0 1 0-1 1l4.2 4.3-4.3 4.2a.7.7 0 1 0 1.1 1.1zm-33-.5v.8h32.4v-1.6h-32.4z"/><rect width="243.5" height="55.5" x="380.3" y="172.3" rx="3.8"/><rect width="243.5" height="55.5" x="380.3" y="172.3" stroke="#ee5389" stroke-dasharray="6 6" stroke-width=".5" rx="3.8"/><rect width="102.5" height="15.5" x="392.3" y="164.3" fill="#4e2232" rx="1.8"/><rect width="102.5" height="15.5" x="392.3" y="164.3" stroke="#ee5389" stroke-width=".5" rx="1.8"/><path fill="#fff" d="M399.2 176h-2.5v-7.3h2.5q1.1 0 1.9.5t1.2 1.2.4 2q0 1-.4 2a3 3 0 0 1-1.2 1.2q-.8.4-2 .4m-1-1.1h1q.8 0 1.3-.3t.7-.9.3-1.3-.3-1.4l-.7-.9q-.5-.2-1.2-.2H398zm8.2 1.2q-.8 0-1.4-.3a2 2 0 0 1-1-1q-.2-.7-.2-1.5t.3-1.5.9-1 1.4-.3 1.4.3.9 1 .3 1.5-.3 1.5-1 1q-.5.3-1.3.3m0-1q.4 0 .7-.3t.5-.6l.1-1-.1-.8-.5-.7-.7-.2q-.5 0-.7.2l-.5.7-.1.9.1.9q.2.4.5.6.2.3.7.3m4.7.9-1.6-5.5h1.3l1 3.9 1-3.9h1.3l1 3.9 1-3.9h1.3l-1.5 5.5h-1.4l-1-3.7-1.1 3.7zm8.5-3.2v3.2h-1.3v-5.5h1.2v1h.1q.2-.5.6-.8.4-.2 1-.2t1 .2l.7.7q.2.5.2 1.1v3.5h-1.3v-3.3q0-.5-.3-.8t-.8-.3l-.6.1-.4.4zm6-4v7.2h-1.2v-7.3zm1.4 7.2v-5.5h1.3v5.5zm.7-6.2-.6-.2-.2-.5q0-.3.2-.5l.6-.2q.3 0 .5.2t.2.5l-.2.5zm3.2 3v3.2h-1.3v-5.5h1.2v1h.1q.2-.5.6-.8.4-.2 1-.2t1 .2l.7.7q.2.5.2 1.1v3.5H433v-3.3q0-.5-.3-.8t-.7-.3l-.6.1-.5.4zm6 1.5v-1.6h.2l2-2.2h1.4l-2.4 2.7h-.2zm-1.2 1.7v-7.3h1.3v7.3zm3.4 0-1.7-2.5.8-.9 2.5 3.4zm7.2.1q-.9 0-1.4-.4a2 2 0 0 1-1-1q-.3-.6-.3-1.4t.4-1.5.9-1 1.4-.3q.6 0 1.1.2t.8.7.4 1h-1.2l-.4-.6q-.3-.3-.7-.3t-.7.2-.5.6l-.2 1 .2 1 .5.5q.3.3.7.3l.5-.1.4-.4.2-.5h1.2l-.3 1-.8.8zm5.7 0q-.8 0-1.4-.3l-.9-1q-.3-.7-.3-1.5t.3-1.5 1-1q.5-.3 1.3-.3t1.4.3 1 1q.2.6.2 1.5t-.3 1.5-.9 1-1.4.3m0-1q.5 0 .8-.3t.4-.6l.1-1-.1-.8-.4-.7-.8-.2q-.4 0-.7.2l-.4.7q-.2.4-.2.9t.2.9.4.6.7.3m5-2.3v3.2h-1.3v-5.5h1.3v1q.2-.5.6-.8.4-.2 1-.2t1 .2q.5.3.7.7.2.5.2 1.1v3.5h-1.3v-3.3q0-.5-.2-.8t-.8-.3l-.6.1-.4.4zm9.5-2.3-2 5.5H463l-1.9-5.5h1.4l1.2 4.1 1.3-4zm3.1 5.6q-.8 0-1.4-.3-.6-.4-.9-1t-.3-1.5.3-1.5.9-1 1.4-.3l1 .1.7.5q.4.4.6.9t.2 1.2v.4h-4.5v-.8h3.2l-.1-.7-.5-.5-.6-.1q-.4 0-.7.2l-.5.5-.1.6v.8l.1.8.5.5q.3.2.7.2h.6l.3-.3.3-.4 1.2.1-.4.9-.8.5zm3.5-.1v-5.5h1.3v1q.2-.5.6-.8.3-.2.8-.2h.4v1.2H475q-.3.2-.4.5t-.2.6v3.2zm7-5.5v1h-3v-1zm-2.3-1.3h1.2v5.2l.1.4.2.1h.7l.2 1-.7.2-1-.2-.5-.5q-.2-.3-.2-.8zm5.8 7q-.9 0-1.5-.4a2 2 0 0 1-.9-1q-.3-.6-.3-1.5t.3-1.5 1-1q.5-.3 1.3-.3l1 .1.7.5q.4.4.6.9t.2 1.2v.4h-4.5v-.8h3.2l-.1-.7-.5-.5-.6-.1q-.4 0-.7.2l-.5.5-.1.6v.8q0 .5.2.8.1.3.4.5t.8.2h.5l.4-.3.2-.4 1.2.1q0 .5-.4.9l-.8.5q-.5.2-1.1.2m3.5-.1v-5.5h1.2v1q.2-.5.6-.8.3-.2.8-.2h.5v1.2h-1.3l-.4.5q-.2.2-.2.6v3.2z"/><rect width="85" height="23" x="396.5" y="188.5" fill="#23262f" rx="5.5"/><rect width="85" height="23" x="396.5" y="188.5" stroke="#ee5389" rx="5.5"/><path fill="#fff" d="M408.4 197.8v-1h5.8v1H412v6.2h-1.4v-6.2zm8.1 3v3.2h-1.2v-7.3h1.2v2.8q.3-.5.7-.8.4-.2 1-.2t1 .2l.7.7q.2.5.2 1.1v3.5h-1.3v-3.3q0-.5-.3-.8t-.8-.3l-.6.1-.4.4zm4.9 3.2v-5.5h1.3v5.5zm.6-6.2-.5-.2-.2-.5q0-.3.2-.5l.5-.2q.4 0 .6.2t.2.5l-.2.5zm3.3 3v3.2H424v-5.5h1.2v1h.1q.2-.5.6-.8.4-.2 1-.2t1 .2l.7.7q.2.5.2 1.1v3.5h-1.3v-3.3q0-.5-.3-.8t-.8-.3l-.6.1-.4.4zm7.2 5.4q-.7 0-1.2-.2l-.8-.5-.4-.7 1.1-.3.2.3.4.3h.7q.5 0 .9-.2t.4-.8v-1h-.1l-.3.3-.5.4-.8.1q-.6 0-1.1-.3l-.8-.9q-.3-.6-.3-1.4 0-1 .3-1.6t.8-.9l1.1-.3.8.1.5.4.3.4v-.9h1.3v5.6q0 .7-.3 1.1l-1 .7zm0-3.3q.4 0 .7-.2t.4-.6l.2-.9q0-.5-.2-.9l-.4-.6-.7-.2q-.5 0-.7.3l-.5.6-.1.8.1 1 .5.5zm8.2-3-1.2.2-.2-.3-.3-.3h-.5l-.7.1q-.3.2-.3.5l.2.3.6.3 1 .2q.7.2 1 .5.5.4.5 1l-.3.9q-.3.4-.8.6t-1.3.2q-1 0-1.6-.4a2 2 0 0 1-.7-1.2l1.3-.1.3.5q.3.2.7.2.5 0 .8-.2.3-.1.3-.4l-.2-.4q-.2-.2-.6-.2l-1-.2q-.7-.2-1-.6t-.4-1l.2-.8.8-.6 1.2-.2q1 0 1.5.4t.7 1m1.2 4.1v-7.3h2.8q.8 0 1.3.3t.8.6l.2 1-.1.8-.5.5-.6.3q.3 0 .7.3t.6.6.2 1-.3 1q-.2.4-.8.6t-1.4.3zm1.3-1.1h1.4q.7 0 1-.3l.4-.7a1 1 0 0 0-.6-1l-.7-.1h-1.5zm0-3h1.3q.4 0 .6-.2.3-.1.5-.4l.1-.5q0-.4-.3-.7t-.9-.3h-1.3zm7.6 4.2q-.8 0-1.4-.3a2 2 0 0 1-1-1q-.2-.7-.2-1.5t.3-1.5.9-1 1.4-.3 1.4.3.9 1 .3 1.5-.3 1.5-1 1q-.5.3-1.3.3m0-1q.4 0 .7-.3t.5-.6l.1-1-.1-.8-.5-.7-.7-.2q-.5 0-.7.2l-.5.7-.1.9.1.9q.2.4.5.6.2.3.7.3m5.3 1q-.6 0-1-.2l-.6-.5q-.3-.4-.3-1 0-.4.2-.7t.5-.5l.6-.2.8-.2h.8l.4-.2q.2 0 .2-.3 0-.4-.3-.6t-.7-.2-.7.2-.4.5l-1.2-.2.5-.9.8-.5 1-.1h.8l.7.4.5.5q.2.4.2 1v3.6h-1.2v-.7l-.9.7zm.3-1h.7l.4-.5.2-.6v-.6h-.2l-.4.2h-.6l-.5.2-.4.2-.1.4q0 .4.2.6t.7.2m3.8.8v-5.5h1.3v1l.5-.8q.4-.2.9-.2h.4v1.2h-1.2q-.3.2-.4.5t-.2.6v3.2zm5.8.1q-.6 0-1.2-.3-.5-.4-.8-1t-.3-1.5.3-1.6.9-.9l1.1-.3.8.1.5.4.3.4v-2.7h1.3v7.3h-1.3v-.9l-.3.5-.5.3q-.3.2-.8.2m.4-1q.4 0 .7-.3l.4-.6.1-1-.1-.8-.4-.7-.7-.2q-.5 0-.8.3l-.4.6-.1.9.1.9.4.6q.3.2.8.2"/><rect width="93" height="23" x="514.5" y="188.5" fill="#23262f" rx="5.5"/><rect width="93" height="23" x="514.5" y="188.5" stroke="#ee5389" rx="5.5"/><path fill="#fff" d="M529.2 204h-2.5v-7.3h2.5q1.1 0 1.9.5t1.2 1.2.4 2q0 1-.4 2a3 3 0 0 1-1.2 1.2q-.8.4-2 .4m-1-1.1h1q.8 0 1.3-.3t.7-.9.3-1.3-.3-1.4l-.7-.9q-.5-.2-1.2-.2H528zm8.2 1.2q-.8 0-1.4-.3a2 2 0 0 1-1-1q-.2-.6-.2-1.5t.3-1.5.9-1 1.4-.3l1 .1.7.5.5.9q.2.5.2 1.2v.4h-4.4v-.8h3.2l-.1-.7-.5-.5-.6-.1q-.4 0-.7.2l-.5.5-.2.6v.8q0 .5.2.8l.5.5q.3.2.7.2h.5l.4-.3.3-.4 1.2.1-.4.9-.8.5zm8.2-5.6-1.9 5.5h-1.4l-2-5.5h1.4l1.3 4.1 1.3-4zm1 5.5v-5.5h1.2v5.5zm.6-6.2-.5-.2-.3-.5q0-.3.3-.5l.5-.2q.3 0 .5.2t.2.5l-.2.5zm4.3 6.3q-.8 0-1.4-.4l-.9-1q-.3-.6-.3-1.4t.3-1.5 1-1 1.3-.3q.7 0 1.2.2t.8.7.4 1h-1.3l-.3-.6q-.3-.3-.8-.3l-.7.2q-.3.2-.4.6l-.2 1 .2 1 .4.5q.3.3.7.3l.5-.1.4-.4.2-.5h1.3l-.4 1-.8.8q-.5.2-1.2.2m5.8 0q-.8 0-1.4-.3-.6-.4-.9-1t-.3-1.5.3-1.5 1-1 1.3-.3l1 .1.7.5q.4.4.6.9t.2 1.2v.4h-4.5v-.8h3.2l-.1-.7-.5-.5-.6-.1q-.4 0-.7.2l-.5.5-.1.6v.8l.1.8.5.5q.3.2.8.2h.5l.4-.3.2-.4 1.2.1-.4.9-.8.5zm6-.1v-7.3h4.7v1.1h-3.3v2h3v1.1h-3v3.1zm7.9.1q-.8 0-1.4-.3a2 2 0 0 1-1-1q-.2-.7-.2-1.5t.3-1.5.9-1 1.4-.3 1.3.3 1 1 .3 1.5-.3 1.5-1 1q-.5.3-1.3.3m0-1q.4 0 .7-.3t.4-.6.2-1l-.2-.8-.4-.7-.7-.2q-.5 0-.8.2l-.4.7-.1.9.1.9q.1.4.4.6.3.3.8.3m3.7.9v-5.5h1.2v1q.2-.5.6-.8.3-.2.8-.2h.5v1.2h-1.2l-.5.5-.1.6v3.2zm4 0v-5.5h1.2v1q.2-.5.6-.8.4-.2 1-.2t.9.2.5.8q.2-.5.7-.8l1-.2q.8 0 1.2.4.5.5.5 1.4v3.7h-1.3v-3.5q0-.5-.3-.7l-.6-.2q-.5 0-.7.2-.3.3-.3.8v3.4h-1.3v-3.5q0-.4-.2-.7t-.7-.2l-.5.1-.3.4q-.2.2-.2.6v3.3zm10.5.1-1-.2-.6-.5q-.2-.4-.2-1l.1-.7.5-.5.7-.3h.7l.8-.2.4-.1q.2-.1.2-.3 0-.4-.3-.6t-.7-.2-.7.2-.4.5l-1.2-.2.5-.9.8-.5 1-.1h.8l.7.4q.4.2.6.5.2.4.2 1v3.6h-1.3v-.7l-.4.4-.5.3zm.3-1h.7q.3-.2.4-.5l.2-.6v-.6h-.2l-.3.2h-.7l-.5.2-.4.2-.1.4q0 .4.3.6t.6.2m6.6-4.7v1H592v-1zm-2.4-1.3h1.3v5.6l.3.1h.7l.2 1-.8.2-.9-.2-.6-.5q-.2-.3-.2-.8z"/><path fill="#ee5389" d="M485.3 199.3a.8.8 0 0 0 0 1.4zm26 1.2a1 1 0 0 0 0-1l-4.8-4.8a.7.7 0 1 0-1 1l4.2 4.3-4.3 4.2a.7.7 0 1 0 1.1 1.1zm-26-.5v.8h25.4v-1.6h-25.4zm-262.8 30.7a1 1 0 0 0-1 0l-4.8 4.8a.7.7 0 1 0 1 1l4.3-4.2 4.2 4.3a.7.7 0 1 0 1.1-1.1zm280.3.6a.8.8 0 0 0-1.6 0zm-280.8 0h-.7v4.7h1.4v-4.7zm24 28.7v.8h232v-1.6H246zm256-24h.8v-4.7h-1.6v4.7zm-24 24v.8a25 25 0 0 0 24.8-24.8h-1.6a23 23 0 0 1-23.2 23.3zm-256-24h-.7c0 13.7 11 24.8 24.7 24.8v-1.6a23 23 0 0 1-23.2-23.2z"/><path fill="#bd53ee" d="M221.8 168.8a.8.8 0 0 0 1.4 0zm1.2-53a1 1 0 0 0-1 0l-4.8 4.7a.7.7 0 1 0 1 1l4.3-4.2 4.2 4.3a.7.7 0 1 0 1.1-1.1zm-.5 53h.8v-52.6h-1.6v52.6z"/><path fill="#ee5389" d="M502.8 116.3a.8.8 0 0 0-1.6 0zm-1.3 53a1 1 0 0 0 1 0l4.8-4.8a.7.7 0 1 0-1-1l-4.3 4.2-4.2-4.3a.7.7 0 1 0-1.1 1.1zm.5-53h-.7v52.5h1.4v-52.6z"/><path fill="#888c96" d="M359.8 399.8a.8.8 0 0 0 1.4 0zm1.2-49a1 1 0 0 0-1 0l-4.8 4.7a.7.7 0 1 0 1 1l4.3-4.2 4.2 4.3a.7.7 0 1 0 1.1-1.1zm-.5 49h.8v-48.6h-1.6v48.6z"/><path stroke="#f9e8c3" stroke-linecap="round" d="M475 320.5h24"/><path fill="#f9e8c3" d="M503.2 321.4q0-1.6.4-3a9 9 0 0 1 1.3-2.5h1.1l-.5 1-.5 1.4-.3 1.5-.2 1.6.2 2 .6 2q.3.9.7 1.4h-1a9 9 0 0 1-1.3-2.5q-.4-1.3-.4-3m9.7-2.8-2.4 6.5H509l-2.4-6.5h1.4l1.7 5 1.7-5zm2.7 6.6q-.6 0-1-.2l-.9-.7q-.3-.4-.3-1t.2-1l.6-.5.8-.3 1-.2.9-.1q.4 0 .5-.2.2 0 .2-.3 0-.6-.3-.9t-1-.3-1 .3l-.5.6-1.2-.3q.2-.6.7-1l.9-.5 1.1-.1h.9l.8.4q.4.2.6.7.3.4.3 1.2v4.3h-1.3v-.9l-.4.5-.6.4zm.3-1 1-.2.5-.5.2-.8v-.8l-.3.1-.4.1h-.5l-.4.1-.7.2-.4.3q-.2.2-.2.6t.3.7q.4.2 1 .2m5.7-7.8v8.7h-1.3v-8.7zm1.6 8.7v-6.5h1.3v6.5zm.6-7.6-.5-.2-.3-.5q0-.3.3-.6l.5-.2q.4 0 .6.2l.2.6-.2.5zm4.7 7.7q-.8 0-1.4-.4t-1-1.1-.3-1.9.3-1.8 1-1.1l1.4-.4q.6 0 1 .2l.6.4.3.5v-3.2h1.3v8.7h-1.2v-1h-.1l-.3.5-.6.4q-.4.2-1 .2m.3-1q.5 0 1-.3.3-.3.5-.9.2-.5.2-1.2t-.2-1.2l-.6-.8q-.4-.2-1-.2t-.9.2l-.6.9-.1 1.1.1 1.2q.2.5.6.8t1 .3m6.5 1.1q-.6 0-1-.2l-.9-.7q-.3-.4-.3-1t.2-1 .6-.5l.8-.3 1-.2.9-.1q.4 0 .5-.2.2 0 .2-.3 0-.6-.3-.9t-1-.3-1 .3l-.5.6-1.2-.3q.2-.6.6-1l1-.5 1.1-.1h.9l.8.4q.4.2.6.7.3.4.3 1.2v4.3h-1.3v-.9l-.4.5-.6.4zm.3-1 1-.2.5-.5.2-.8v-.8l-.3.1-.4.1h-.5l-.4.1-.7.2-.4.3q-.2.2-.2.6t.3.7q.4.2 1 .2m7.5-5.6v1h-3.6v-1zm-2.6-1.6h1.2v6.2q0 .3.2.5l.2.3h.9l.2 1-.8.2-1-.2-.7-.6q-.2-.4-.2-1zm6.6 8.2q-1 0-1.7-.4a3 3 0 0 1-1-1.2q-.4-.7-.4-1.7t.4-1.8 1-1.2 1.6-.4q.6 0 1.1.2.5.1 1 .5l.6 1q.2.7.2 1.6v.4H545v-1h4l-.2-.8-.6-.7-.9-.2q-.5 0-1 .3l-.5.7-.2.9v.7q0 .7.2 1.1t.7.7 1 .3l.6-.1a1 1 0 0 0 .8-.9l1.2.3q-.1.5-.5.9-.3.4-1 .6zm9-5-1.1.2-.3-.5-.4-.3-.7-.1q-.5 0-.9.2-.3.3-.3.6l.2.6.8.3 1 .2q1 .2 1.4.7t.4 1.1-.3 1q-.3.5-1 .8-.5.2-1.3.2-1.1 0-1.8-.4t-.9-1.4l1.2-.2.5.8q.4.2 1 .2t1-.3q.3-.2.3-.6l-.2-.5q-.2-.2-.7-.3l-1.1-.3q-1-.2-1.4-.6-.4-.5-.4-1.2t.3-1 1-.7q.5-.2 1.2-.2 1 0 1.7.4t.8 1.3m4.4 7.4v-9h1.3v1h.1l.3-.5.6-.4q.4-.2 1-.2.8 0 1.4.4t1 1.1.3 1.8-.3 1.9-1 1.1-1.4.4-1-.2l-.6-.4-.3-.5v3.5zm1.3-5.8q0 .7.2 1.2t.6.9q.4.2 1 .2t.9-.3l.5-.8q.2-.5.2-1.2t-.2-1.1l-.5-.9q-.4-.2-1-.2l-1 .2-.5.8zm8 3.4q-.7 0-1.2-.2l-.8-.7q-.3-.4-.3-1t.2-1 .6-.5l.8-.3 1-.2.9-.1q.3 0 .5-.2.2 0 .2-.3 0-.6-.3-.9t-1-.3-1 .3l-.5.6-1.2-.3q.2-.6.6-1l1-.5 1.1-.1h.8l.9.4q.4.2.6.7.3.4.3 1.2v4.3H572v-.9l-.4.5-.6.4zm.3-1 1-.2.5-.5.2-.8v-.8l-.3.1-.4.1h-.5l-.4.1-.7.2-.5.3-.1.6q0 .4.3.7.4.2.9.2m5 3.4-.8-.2.3-1h.7l.4-.2q.2-.1.4-.6l.2-.4-2.4-6.6h1.3l1.7 5 1.7-5h1.4l-2.7 7.4-.5.8-.7.6zm7.2-11.2v8.7h-1.2v-8.7zm4.4 8.8q-1 0-1.6-.4a3 3 0 0 1-1.1-1.2q-.4-.7-.4-1.7t.4-1.8a3 3 0 0 1 1-1.2q.7-.4 1.7-.4t1.6.4 1 1.2.4 1.8-.4 1.7a3 3 0 0 1-1 1.2q-.7.4-1.6.4m0-1q.6 0 1-.4.4-.3.5-.8l.2-1.1q0-.7-.2-1.2l-.5-.8q-.4-.4-1-.4t-1 .4l-.6.8q-.2.5-.2 1.2t.2 1.1.6.8 1 .4m6.2 1q-.6 0-1.1-.2l-.8-.7q-.3-.4-.3-1t.2-1 .6-.5l.8-.3 1-.2.9-.1q.3 0 .5-.2.2 0 .2-.3 0-.6-.4-.9-.3-.3-.9-.3t-1 .3-.5.6l-1.2-.3q.2-.6.6-1l1-.5 1.1-.1h.8l.9.4.6.7q.2.4.2 1.2v4.3H595v-.9l-.4.5-.7.4zm.3-1q.5 0 .9-.2t.6-.5l.2-.8v-.8l-.3.1-.4.1h-.5l-.4.1-.7.2-.5.3q-.2.2-.1.6 0 .4.3.7t.9.2m7 1q-.8 0-1.5-.4t-1-1.1-.3-1.9.4-1.8 1-1.1l1.4-.4q.6 0 1 .2l.5.4.4.5v-3.2h1.3v8.7h-1.2v-1h-.1l-.4.5-.6.4q-.3.2-1 .2m.3-1q.6 0 1-.3t.5-.9.2-1.2l-.1-1.2-.6-.8q-.4-.2-1-.2l-1 .2q-.3.3-.5.9l-.2 1.1q0 .7.2 1.2t.6.8 1 .3m10.2 1.1q-1 0-1.5-.3l-1-.9-.4-1.2q0-.6.3-1t.6-.7l.9-.7 1.4-1 .6-.5q.2-.3.2-.7t-.3-.6-.7-.3l-.5.2q-.3.1-.4.4l-.1.5.1.6.5.6.5.7 4 4.8h-1.4l-3.3-4q-.5-.4-.8-.9l-.6-.9-.2-1q0-.6.2-1l.8-.8q.5-.2 1.2-.2t1.1.2.8.7l.2 1q0 .6-.3 1l-.8 1-1.8 1.2q-.5.4-.7.8l-.2.5q0 .4.2.7.2.4.5.6l.9.1 1-.2.8-.6.6-1q.3-.5.2-1.2h1.1q0 .9-.2 1.5l-.4 1-.5.5-.2.1-.1.1-1 .7zm13-5-1 .2-.3-.5-.4-.3-.7-.1q-.5 0-.9.2t-.4.6l.3.6q.2.2.8.3l1 .2q1 .2 1.3.7.5.4.5 1.1 0 .6-.3 1-.4.5-1 .8-.6.2-1.4.2-1 0-1.8-.4-.7-.5-.8-1.4l1.2-.2q.1.5.5.8.3.2 1 .2.5 0 1-.3.3-.2.3-.6l-.2-.5-.7-.3-1.1-.3q-1-.2-1.4-.6-.4-.5-.4-1.2t.3-1 .9-.7l1.3-.2q1 0 1.7.4t.8 1.3m4.2 5q-1 0-1.7-.4a3 3 0 0 1-1-1.2q-.4-.7-.4-1.7t.3-1.8q.4-.8 1.1-1.2t1.6-.4l1 .2q.6.1 1 .5l.7 1q.2.7.2 1.6v.4h-5.2v-1h4l-.3-.8-.5-.7-.9-.2q-.5 0-1 .3l-.6.7-.2.9v.7q0 .7.3 1.1t.6.7 1 .3l.7-.1a1 1 0 0 0 .8-.9l1.2.3-.5.9q-.4.4-1 .6zm6.8 0q-1 0-1.6-.4a3 3 0 0 1-1-1.2q-.4-.8-.4-1.7 0-1 .4-1.8.3-.8 1-1.2t1.6-.4 1.3.2q.6.3 1 .8t.4 1.2h-1.2l-.5-.8q-.4-.4-1-.4l-.9.3q-.4.3-.6.8t-.2 1.2.2 1.3.6.8 1 .3l.6-.2q.3-.1.5-.4l.3-.6h1.2l-.4 1.2q-.3.5-1 .7-.5.3-1.3.3m8.1-2.8v-3.8h1.3v6.5H643v-1.1q-.3.5-.8.8t-1.2.4l-1.1-.3-.8-.8q-.3-.6-.3-1.4v-4.1h1.3v4q0 .6.4 1t1 .4l.7-.2q.3-.1.6-.5t.2-1m2.9 2.8v-6.5h1.2v1q.2-.5.7-.8l1-.3h.6v1.2h-.7l-.8.1a1.4 1.4 0 0 0-.8 1.3v4zm4.4 0v-6.5h1.3v6.5zm.7-7.6-.6-.2-.2-.5.2-.6.6-.2q.3 0 .5.2l.3.6q0 .3-.3.5zm5.2 1v1h-3.5v-1zm-2.6-1.5h1.3v6.2l.1.5.3.3h.8l.3 1-.9.2-1-.2-.6-.6q-.3-.4-.3-1zm4.7 10.6-.8-.2.3-1h.6l.5-.2q.2-.1.3-.6l.2-.4-2.4-6.6h1.4l1.6 5 1.7-5h1.4l-2.7 7.4-.5.8-.6.6zm8.3-6.1q0 1.6-.4 3a9 9 0 0 1-1.2 2.4h-1.2l.6-1 .5-1.4.3-1.5.1-1.5-.2-2-.5-2-.8-1.5h1.2q.8 1.2 1.2 2.5t.4 3"/><path fill="#eebd53" d="M359.8 288.8a.8.8 0 0 0 1.4 0zm-137.3-58a1 1 0 0 0-1 0l-4.8 4.7a.7.7 0 1 0 1 1l4.3-4.2 4.2 4.3a.7.7 0 1 0 1.1-1.1zm138 58h.8V284h-1.6v4.8zm-24-28.8v-.7H246v1.4h90.5zM222 236h.8v-4.7h-1.6v4.7zm24 24v-.7a23 23 0 0 1-23.2-23.3h-1.6a25 25 0 0 0 24.8 24.8zm114.5 24h.8a24.7 24.7 0 0 0-24.8-24.7v1.4a23 23 0 0 1 23.3 23.3z"/></g><defs><clipPath id="a"><path fill="#fff" d="M0 0h720v479H0z"/></clipPath><clipPath id="b"><path fill="#fff" d="M-12 2h730v646H-12z"/></clipPath></defs></svg>