<svg xmlns="http://www.w3.org/2000/svg" width="720" height="314" fill="none"><g clip-path="url(#a)"><path fill="#fff" d="M0 0h720v314H0z"/><g fill="#c1c3c8" clip-path="url(#b)" opacity=".5"><path d="M-11 324a1 1 0 1 1 0 2 1 1 0 0 1 0-2M3 324a1 1 0 1 1 0 2 1 1 0 0 1 0-2M17 324a1 1 0 1 1 0 2 1 1 0 0 1 0-2M31 324a1 1 0 1 1 0 2 1 1 0 0 1 0-2M45 324a1 1 0 1 1 0 2 1 1 0 0 1 0-2M59 324a1 1 0 1 1 0 2 1 1 0 0 1 0-2M73 324a1 1 0 1 1 0 2 1 1 0 0 1 0-2M87 324a1 1 0 1 1 0 2 1 1 0 0 1 0-2M101 324a1 1 0 1 1 0 2 1 1 0 0 1 0-2M115 324a1 1 0 1 1 0 2 1 1 0 0 1 0-2M129 324a1 1 0 1 1 0 2 1 1 0 0 1 0-2M143 324a1 1 0 1 1 0 2 1 1 0 0 1 0-2M157 324a1 1 0 1 1 0 2 1 1 0 0 1 0-2M171 324a1 1 0 1 1 0 2 1 1 0 0 1 0-2M185 324a1 1 0 1 1 0 2 1 1 0 0 1 0-2M199 324a1 1 0 1 1 0 2 1 1 0 0 1 0-2M213 324a1 1 0 1 1 0 2 1 1 0 0 1 0-2M227 324a1 1 0 1 1 0 2 1 1 0 0 1 0-2M241 324a1 1 0 1 1 0 2 1 1 0 0 1 0-2M255 324a1 1 0 1 1 0 2 1 1 0 0 1 0-2M269 324a1 1 0 1 1 0 2 1 1 0 0 1 0-2M283 324a1 1 0 1 1 0 2 1 1 0 0 1 0-2M297 324a1 1 0 1 1 0 2 1 1 0 0 1 0-2M311 324a1 1 0 1 1 0 2 1 1 0 0 1 0-2M325 324a1 1 0 1 1 0 2 1 1 0 0 1 0-2M339 324a1 1 0 1 1 0 2 1 1 0 0 1 0-2M353 324a1 1 0 1 1 0 2 1 1 0 0 1 0-2M367 324a1 1 0 1 1 0 2 1 1 0 0 1 0-2M381 324a1 1 0 1 1 0 2 1 1 0 0 1 0-2M395 324a1 1 0 1 1 0 2 1 1 0 0 1 0-2M409 324a1 1 0 1 1 0 2 1 1 0 0 1 0-2M423 324a1 1 0 1 1 0 2 1 1 0 0 1 0-2M437 324a1 1 0 1 1 0 2 1 1 0 0 1 0-2M451 324a1 1 0 1 1 0 2 1 1 0 0 1 0-2M465 324a1 1 0 1 1 0 2 1 1 0 0 1 0-2M479 324a1 1 0 1 1 0 2 1 1 0 0 1 0-2M493 324a1 1 0 1 1 0 2 1 1 0 0 1 0-2M507 324a1 1 0 1 1 0 2 1 1 0 0 1 0-2M521 324a1 1 0 1 1 0 2 1 1 0 0 1 0-2M535 324a1 1 0 1 1 0 2 1 1 0 0 1 0-2M549 324a1 1 0 1 1 0 2 1 1 0 0 1 0-2M563 324a1 1 0 1 1 0 2 1 1 0 0 1 0-2M577 324a1 1 0 1 1 0 2 1 1 0 0 1 0-2M591 324a1 1 0 1 1 0 2 1 1 0 0 1 0-2M605 324a1 1 0 1 1 0 2 1 1 0 0 1 0-2M619 324a1 1 0 1 1 0 2 1 1 0 0 1 0-2M633 324a1 1 0 1 1 0 2 1 1 0 0 1 0-2M647 324a1 1 0 1 1 0 2 1 1 0 0 1 0-2M661 324a1 1 0 1 1 0 2 1 1 0 0 1 0-2M675 324a1 1 0 1 1 0 2 1 1 0 0 1 0-2M689 324a1 1 0 1 1 0 2 1 1 0 0 1 0-2M703 324a1 1 0 1 1 0 2 1 1 0 0 1 0-2M-11 310a1 1 0 1 1 0 2 1 1 0 0 1 0-2M3 310a1 1 0 1 1 0 2 1 1 0 0 1 0-2M17 310a1 1 0 1 1 0 2 1 1 0 0 1 0-2M31 310a1 1 0 1 1 0 2 1 1 0 0 1 0-2M45 310a1 1 0 1 1 0 2 1 1 0 0 1 0-2M59 310a1 1 0 1 1 0 2 1 1 0 0 1 0-2M73 310a1 1 0 1 1 0 2 1 1 0 0 1 0-2M87 310a1 1 0 1 1 0 2 1 1 0 0 1 0-2M101 310a1 1 0 1 1 0 2 1 1 0 0 1 0-2M115 310a1 1 0 1 1 0 2 1 1 0 0 1 0-2M129 310a1 1 0 1 1 0 2 1 1 0 0 1 0-2M143 310a1 1 0 1 1 0 2 1 1 0 0 1 0-2M157 310a1 1 0 1 1 0 2 1 1 0 0 1 0-2M171 310a1 1 0 1 1 0 2 1 1 0 0 1 0-2M185 310a1 1 0 1 1 0 2 1 1 0 0 1 0-2M199 310a1 1 0 1 1 0 2 1 1 0 0 1 0-2M213 310a1 1 0 1 1 0 2 1 1 0 0 1 0-2M227 310a1 1 0 1 1 0 2 1 1 0 0 1 0-2M241 310a1 1 0 1 1 0 2 1 1 0 0 1 0-2M255 310a1 1 0 1 1 0 2 1 1 0 0 1 0-2M269 310a1 1 0 1 1 0 2 1 1 0 0 1 0-2M283 310a1 1 0 1 1 0 2 1 1 0 0 1 0-2M297 310a1 1 0 1 1 0 2 1 1 0 0 1 0-2M311 310a1 1 0 1 1 0 2 1 1 0 0 1 0-2M325 310a1 1 0 1 1 0 2 1 1 0 0 1 0-2M339 310a1 1 0 1 1 0 2 1 1 0 0 1 0-2M353 310a1 1 0 1 1 0 2 1 1 0 0 1 0-2M367 310a1 1 0 1 1 0 2 1 1 0 0 1 0-2M381 310a1 1 0 1 1 0 2 1 1 0 0 1 0-2M395 310a1 1 0 1 1 0 2 1 1 0 0 1 0-2M409 310a1 1 0 1 1 0 2 1 1 0 0 1 0-2M423 310a1 1 0 1 1 0 2 1 1 0 0 1 0-2M437 310a1 1 0 1 1 0 2 1 1 0 0 1 0-2M451 310a1 1 0 1 1 0 2 1 1 0 0 1 0-2M465 310a1 1 0 1 1 0 2 1 1 0 0 1 0-2M479 310a1 1 0 1 1 0 2 1 1 0 0 1 0-2M493 310a1 1 0 1 1 0 2 1 1 0 0 1 0-2M507 310a1 1 0 1 1 0 2 1 1 0 0 1 0-2M521 310a1 1 0 1 1 0 2 1 1 0 0 1 0-2M535 310a1 1 0 1 1 0 2 1 1 0 0 1 0-2M549 310a1 1 0 1 1 0 2 1 1 0 0 1 0-2M563 310a1 1 0 1 1 0 2 1 1 0 0 1 0-2M577 310a1 1 0 1 1 0 2 1 1 0 0 1 0-2M591 310a1 1 0 1 1 0 2 1 1 0 0 1 0-2M605 310a1 1 0 1 1 0 2 1 1 0 0 1 0-2M619 310a1 1 0 1 1 0 2 1 1 0 0 1 0-2M633 310a1 1 0 1 1 0 2 1 1 0 0 1 0-2M647 310a1 1 0 1 1 0 2 1 1 0 0 1 0-2M661 310a1 1 0 1 1 0 2 1 1 0 0 1 0-2M675 310a1 1 0 1 1 0 2 1 1 0 0 1 0-2M689 310a1 1 0 1 1 0 2 1 1 0 0 1 0-2M703 310a1 1 0 1 1 0 2 1 1 0 0 1 0-2M717 310a1 1 0 1 1 0 2 1 1 0 0 1 0-2M-11 296a1 1 0 1 1 0 2 1 1 0 0 1 0-2M3 296a1 1 0 1 1 0 2 1 1 0 0 1 0-2M17 296a1 1 0 1 1 0 2 1 1 0 0 1 0-2M31 296a1 1 0 1 1 0 2 1 1 0 0 1 0-2M45 296a1 1 0 1 1 0 2 1 1 0 0 1 0-2M59 296a1 1 0 1 1 0 2 1 1 0 0 1 0-2M73 296a1 1 0 1 1 0 2 1 1 0 0 1 0-2M87 296a1 1 0 1 1 0 2 1 1 0 0 1 0-2M101 296a1 1 0 1 1 0 2 1 1 0 0 1 0-2M115 296a1 1 0 1 1 0 2 1 1 0 0 1 0-2M129 296a1 1 0 1 1 0 2 1 1 0 0 1 0-2M143 296a1 1 0 1 1 0 2 1 1 0 0 1 0-2M157 296a1 1 0 1 1 0 2 1 1 0 0 1 0-2M171 296a1 1 0 1 1 0 2 1 1 0 0 1 0-2M185 296a1 1 0 1 1 0 2 1 1 0 0 1 0-2M199 296a1 1 0 1 1 0 2 1 1 0 0 1 0-2M213 296a1 1 0 1 1 0 2 1 1 0 0 1 0-2M227 296a1 1 0 1 1 0 2 1 1 0 0 1 0-2M241 296a1 1 0 1 1 0 2 1 1 0 0 1 0-2M255 296a1 1 0 1 1 0 2 1 1 0 0 1 0-2M269 296a1 1 0 1 1 0 2 1 1 0 0 1 0-2M283 296a1 1 0 1 1 0 2 1 1 0 0 1 0-2M297 296a1 1 0 1 1 0 2 1 1 0 0 1 0-2M311 296a1 1 0 1 1 0 2 1 1 0 0 1 0-2M325 296a1 1 0 1 1 0 2 1 1 0 0 1 0-2M339 296a1 1 0 1 1 0 2 1 1 0 0 1 0-2M353 296a1 1 0 1 1 0 2 1 1 0 0 1 0-2M367 296a1 1 0 1 1 0 2 1 1 0 0 1 0-2M381 296a1 1 0 1 1 0 2 1 1 0 0 1 0-2M395 296a1 1 0 1 1 0 2 1 1 0 0 1 0-2M409 296a1 1 0 1 1 0 2 1 1 0 0 1 0-2M423 296a1 1 0 1 1 0 2 1 1 0 0 1 0-2M437 296a1 1 0 1 1 0 2 1 1 0 0 1 0-2M451 296a1 1 0 1 1 0 2 1 1 0 0 1 0-2M465 296a1 1 0 1 1 0 2 1 1 0 0 1 0-2M479 296a1 1 0 1 1 0 2 1 1 0 0 1 0-2M493 296a1 1 0 1 1 0 2 1 1 0 0 1 0-2M507 296a1 1 0 1 1 0 2 1 1 0 0 1 0-2M521 296a1 1 0 1 1 0 2 1 1 0 0 1 0-2M535 296a1 1 0 1 1 0 2 1 1 0 0 1 0-2M549 296a1 1 0 1 1 0 2 1 1 0 0 1 0-2M563 296a1 1 0 1 1 0 2 1 1 0 0 1 0-2M577 296a1 1 0 1 1 0 2 1 1 0 0 1 0-2M591 296a1 1 0 1 1 0 2 1 1 0 0 1 0-2M605 296a1 1 0 1 1 0 2 1 1 0 0 1 0-2M619 296a1 1 0 1 1 0 2 1 1 0 0 1 0-2M633 296a1 1 0 1 1 0 2 1 1 0 0 1 0-2M647 296a1 1 0 1 1 0 2 1 1 0 0 1 0-2M661 296a1 1 0 1 1 0 2 1 1 0 0 1 0-2M675 296a1 1 0 1 1 0 2 1 1 0 0 1 0-2M689 296a1 1 0 1 1 0 2 1 1 0 0 1 0-2M703 296a1 1 0 1 1 0 2 1 1 0 0 1 0-2M717 296a1 1 0 1 1 0 2 1 1 0 0 1 0-2M-11 282a1 1 0 1 1 0 2 1 1 0 0 1 0-2M3 282a1 1 0 1 1 0 2 1 1 0 0 1 0-2M17 282a1 1 0 1 1 0 2 1 1 0 0 1 0-2M31 282a1 1 0 1 1 0 2 1 1 0 0 1 0-2M45 282a1 1 0 1 1 0 2 1 1 0 0 1 0-2M59 282a1 1 0 1 1 0 2 1 1 0 0 1 0-2M73 282a1 1 0 1 1 0 2 1 1 0 0 1 0-2M87 282a1 1 0 1 1 0 2 1 1 0 0 1 0-2M101 282a1 1 0 1 1 0 2 1 1 0 0 1 0-2M115 282a1 1 0 1 1 0 2 1 1 0 0 1 0-2M129 282a1 1 0 1 1 0 2 1 1 0 0 1 0-2M143 282a1 1 0 1 1 0 2 1 1 0 0 1 0-2M157 282a1 1 0 1 1 0 2 1 1 0 0 1 0-2M171 282a1 1 0 1 1 0 2 1 1 0 0 1 0-2M185 282a1 1 0 1 1 0 2 1 1 0 0 1 0-2M199 282a1 1 0 1 1 0 2 1 1 0 0 1 0-2M213 282a1 1 0 1 1 0 2 1 1 0 0 1 0-2M227 282a1 1 0 1 1 0 2 1 1 0 0 1 0-2M241 282a1 1 0 1 1 0 2 1 1 0 0 1 0-2M255 282a1 1 0 1 1 0 2 1 1 0 0 1 0-2M269 282a1 1 0 1 1 0 2 1 1 0 0 1 0-2M283 282a1 1 0 1 1 0 2 1 1 0 0 1 0-2M297 282a1 1 0 1 1 0 2 1 1 0 0 1 0-2M311 282a1 1 0 1 1 0 2 1 1 0 0 1 0-2M325 282a1 1 0 1 1 0 2 1 1 0 0 1 0-2M339 282a1 1 0 1 1 0 2 1 1 0 0 1 0-2M353 282a1 1 0 1 1 0 2 1 1 0 0 1 0-2M367 282a1 1 0 1 1 0 2 1 1 0 0 1 0-2M381 282a1 1 0 1 1 0 2 1 1 0 0 1 0-2M395 282a1 1 0 1 1 0 2 1 1 0 0 1 0-2M409 282a1 1 0 1 1 0 2 1 1 0 0 1 0-2M423 282a1 1 0 1 1 0 2 1 1 0 0 1 0-2M437 282a1 1 0 1 1 0 2 1 1 0 0 1 0-2M451 282a1 1 0 1 1 0 2 1 1 0 0 1 0-2M465 282a1 1 0 1 1 0 2 1 1 0 0 1 0-2M479 282a1 1 0 1 1 0 2 1 1 0 0 1 0-2M493 282a1 1 0 1 1 0 2 1 1 0 0 1 0-2M507 282a1 1 0 1 1 0 2 1 1 0 0 1 0-2M521 282a1 1 0 1 1 0 2 1 1 0 0 1 0-2M535 282a1 1 0 1 1 0 2 1 1 0 0 1 0-2M549 282a1 1 0 1 1 0 2 1 1 0 0 1 0-2M563 282a1 1 0 1 1 0 2 1 1 0 0 1 0-2M577 282a1 1 0 1 1 0 2 1 1 0 0 1 0-2M591 282a1 1 0 1 1 0 2 1 1 0 0 1 0-2M605 282a1 1 0 1 1 0 2 1 1 0 0 1 0-2M619 282a1 1 0 1 1 0 2 1 1 0 0 1 0-2M633 282a1 1 0 1 1 0 2 1 1 0 0 1 0-2M647 282a1 1 0 1 1 0 2 1 1 0 0 1 0-2M661 282a1 1 0 1 1 0 2 1 1 0 0 1 0-2M675 282a1 1 0 1 1 0 2 1 1 0 0 1 0-2M689 282a1 1 0 1 1 0 2 1 1 0 0 1 0-2M703 282a1 1 0 1 1 0 2 1 1 0 0 1 0-2M717 282a1 1 0 1 1 0 2 1 1 0 0 1 0-2M-11 268a1 1 0 1 1 0 2 1 1 0 0 1 0-2M3 268a1 1 0 1 1 0 2 1 1 0 0 1 0-2M17 268a1 1 0 1 1 0 2 1 1 0 0 1 0-2M31 268a1 1 0 1 1 0 2 1 1 0 0 1 0-2M45 268a1 1 0 1 1 0 2 1 1 0 0 1 0-2M59 268a1 1 0 1 1 0 2 1 1 0 0 1 0-2M73 268a1 1 0 1 1 0 2 1 1 0 0 1 0-2M87 268a1 1 0 1 1 0 2 1 1 0 0 1 0-2M101 268a1 1 0 1 1 0 2 1 1 0 0 1 0-2M115 268a1 1 0 1 1 0 2 1 1 0 0 1 0-2M129 268a1 1 0 1 1 0 2 1 1 0 0 1 0-2M143 268a1 1 0 1 1 0 2 1 1 0 0 1 0-2M157 268a1 1 0 1 1 0 2 1 1 0 0 1 0-2M171 268a1 1 0 1 1 0 2 1 1 0 0 1 0-2M185 268a1 1 0 1 1 0 2 1 1 0 0 1 0-2M199 268a1 1 0 1 1 0 2 1 1 0 0 1 0-2M213 268a1 1 0 1 1 0 2 1 1 0 0 1 0-2M227 268a1 1 0 1 1 0 2 1 1 0 0 1 0-2M241 268a1 1 0 1 1 0 2 1 1 0 0 1 0-2M255 268a1 1 0 1 1 0 2 1 1 0 0 1 0-2M269 268a1 1 0 1 1 0 2 1 1 0 0 1 0-2M283 268a1 1 0 1 1 0 2 1 1 0 0 1 0-2M297 268a1 1 0 1 1 0 2 1 1 0 0 1 0-2M311 268a1 1 0 1 1 0 2 1 1 0 0 1 0-2M325 268a1 1 0 1 1 0 2 1 1 0 0 1 0-2M339 268a1 1 0 1 1 0 2 1 1 0 0 1 0-2M353 268a1 1 0 1 1 0 2 1 1 0 0 1 0-2M367 268a1 1 0 1 1 0 2 1 1 0 0 1 0-2M381 268a1 1 0 1 1 0 2 1 1 0 0 1 0-2M395 268a1 1 0 1 1 0 2 1 1 0 0 1 0-2M409 268a1 1 0 1 1 0 2 1 1 0 0 1 0-2M423 268a1 1 0 1 1 0 2 1 1 0 0 1 0-2M437 268a1 1 0 1 1 0 2 1 1 0 0 1 0-2M451 268a1 1 0 1 1 0 2 1 1 0 0 1 0-2M465 268a1 1 0 1 1 0 2 1 1 0 0 1 0-2M479 268a1 1 0 1 1 0 2 1 1 0 0 1 0-2M493 268a1 1 0 1 1 0 2 1 1 0 0 1 0-2M507 268a1 1 0 1 1 0 2 1 1 0 0 1 0-2M521 268a1 1 0 1 1 0 2 1 1 0 0 1 0-2M535 268a1 1 0 1 1 0 2 1 1 0 0 1 0-2M549 268a1 1 0 1 1 0 2 1 1 0 0 1 0-2M563 268a1 1 0 1 1 0 2 1 1 0 0 1 0-2M577 268a1 1 0 1 1 0 2 1 1 0 0 1 0-2M591 268a1 1 0 1 1 0 2 1 1 0 0 1 0-2M605 268a1 1 0 1 1 0 2 1 1 0 0 1 0-2M619 268a1 1 0 1 1 0 2 1 1 0 0 1 0-2M633 268a1 1 0 1 1 0 2 1 1 0 0 1 0-2M647 268a1 1 0 1 1 0 2 1 1 0 0 1 0-2M661 268a1 1 0 1 1 0 2 1 1 0 0 1 0-2M675 268a1 1 0 1 1 0 2 1 1 0 0 1 0-2M689 268a1 1 0 1 1 0 2 1 1 0 0 1 0-2M703 268a1 1 0 1 1 0 2 1 1 0 0 1 0-2M717 268a1 1 0 1 1 0 2 1 1 0 0 1 0-2M-11 254a1 1 0 1 1 0 2 1 1 0 0 1 0-2M3 254a1 1 0 1 1 0 2 1 1 0 0 1 0-2M17 254a1 1 0 1 1 0 2 1 1 0 0 1 0-2M31 254a1 1 0 1 1 0 2 1 1 0 0 1 0-2M45 254a1 1 0 1 1 0 2 1 1 0 0 1 0-2M59 254a1 1 0 1 1 0 2 1 1 0 0 1 0-2M73 254a1 1 0 1 1 0 2 1 1 0 0 1 0-2M87 254a1 1 0 1 1 0 2 1 1 0 0 1 0-2M101 254a1 1 0 1 1 0 2 1 1 0 0 1 0-2M115 254a1 1 0 1 1 0 2 1 1 0 0 1 0-2M129 254a1 1 0 1 1 0 2 1 1 0 0 1 0-2M143 254a1 1 0 1 1 0 2 1 1 0 0 1 0-2M157 254a1 1 0 1 1 0 2 1 1 0 0 1 0-2M171 254a1 1 0 1 1 0 2 1 1 0 0 1 0-2M185 254a1 1 0 1 1 0 2 1 1 0 0 1 0-2M199 254a1 1 0 1 1 0 2 1 1 0 0 1 0-2M213 254a1 1 0 1 1 0 2 1 1 0 0 1 0-2M227 254a1 1 0 1 1 0 2 1 1 0 0 1 0-2M241 254a1 1 0 1 1 0 2 1 1 0 0 1 0-2M255 254a1 1 0 1 1 0 2 1 1 0 0 1 0-2M269 254a1 1 0 1 1 0 2 1 1 0 0 1 0-2M283 254a1 1 0 1 1 0 2 1 1 0 0 1 0-2M297 254a1 1 0 1 1 0 2 1 1 0 0 1 0-2M311 254a1 1 0 1 1 0 2 1 1 0 0 1 0-2M325 254a1 1 0 1 1 0 2 1 1 0 0 1 0-2M339 254a1 1 0 1 1 0 2 1 1 0 0 1 0-2M353 254a1 1 0 1 1 0 2 1 1 0 0 1 0-2M367 254a1 1 0 1 1 0 2 1 1 0 0 1 0-2M381 254a1 1 0 1 1 0 2 1 1 0 0 1 0-2M395 254a1 1 0 1 1 0 2 1 1 0 0 1 0-2M409 254a1 1 0 1 1 0 2 1 1 0 0 1 0-2M423 254a1 1 0 1 1 0 2 1 1 0 0 1 0-2M437 254a1 1 0 1 1 0 2 1 1 0 0 1 0-2M451 254a1 1 0 1 1 0 2 1 1 0 0 1 0-2M465 254a1 1 0 1 1 0 2 1 1 0 0 1 0-2M479 254a1 1 0 1 1 0 2 1 1 0 0 1 0-2M493 254a1 1 0 1 1 0 2 1 1 0 0 1 0-2M507 254a1 1 0 1 1 0 2 1 1 0 0 1 0-2M521 254a1 1 0 1 1 0 2 1 1 0 0 1 0-2M535 254a1 1 0 1 1 0 2 1 1 0 0 1 0-2M549 254a1 1 0 1 1 0 2 1 1 0 0 1 0-2M563 254a1 1 0 1 1 0 2 1 1 0 0 1 0-2M577 254a1 1 0 1 1 0 2 1 1 0 0 1 0-2M591 254a1 1 0 1 1 0 2 1 1 0 0 1 0-2M605 254a1 1 0 1 1 0 2 1 1 0 0 1 0-2M619 254a1 1 0 1 1 0 2 1 1 0 0 1 0-2M633 254a1 1 0 1 1 0 2 1 1 0 0 1 0-2M647 254a1 1 0 1 1 0 2 1 1 0 0 1 0-2M661 254a1 1 0 1 1 0 2 1 1 0 0 1 0-2M675 254a1 1 0 1 1 0 2 1 1 0 0 1 0-2M689 254a1 1 0 1 1 0 2 1 1 0 0 1 0-2M703 254a1 1 0 1 1 0 2 1 1 0 0 1 0-2M717 254a1 1 0 1 1 0 2 1 1 0 0 1 0-2M-11 240a1 1 0 1 1 0 2 1 1 0 0 1 0-2M3 240a1 1 0 1 1 0 2 1 1 0 0 1 0-2M17 240a1 1 0 1 1 0 2 1 1 0 0 1 0-2M31 240a1 1 0 1 1 0 2 1 1 0 0 1 0-2M45 240a1 1 0 1 1 0 2 1 1 0 0 1 0-2M59 240a1 1 0 1 1 0 2 1 1 0 0 1 0-2M73 240a1 1 0 1 1 0 2 1 1 0 0 1 0-2M87 240a1 1 0 1 1 0 2 1 1 0 0 1 0-2M101 240a1 1 0 1 1 0 2 1 1 0 0 1 0-2M115 240a1 1 0 1 1 0 2 1 1 0 0 1 0-2M129 240a1 1 0 1 1 0 2 1 1 0 0 1 0-2M143 240a1 1 0 1 1 0 2 1 1 0 0 1 0-2M157 240a1 1 0 1 1 0 2 1 1 0 0 1 0-2M171 240a1 1 0 1 1 0 2 1 1 0 0 1 0-2M185 240a1 1 0 1 1 0 2 1 1 0 0 1 0-2M199 240a1 1 0 1 1 0 2 1 1 0 0 1 0-2M213 240a1 1 0 1 1 0 2 1 1 0 0 1 0-2M227 240a1 1 0 1 1 0 2 1 1 0 0 1 0-2M241 240a1 1 0 1 1 0 2 1 1 0 0 1 0-2M255 240a1 1 0 1 1 0 2 1 1 0 0 1 0-2M269 240a1 1 0 1 1 0 2 1 1 0 0 1 0-2M283 240a1 1 0 1 1 0 2 1 1 0 0 1 0-2M297 240a1 1 0 1 1 0 2 1 1 0 0 1 0-2M311 240a1 1 0 1 1 0 2 1 1 0 0 1 0-2M325 240a1 1 0 1 1 0 2 1 1 0 0 1 0-2M339 240a1 1 0 1 1 0 2 1 1 0 0 1 0-2M353 240a1 1 0 1 1 0 2 1 1 0 0 1 0-2M367 240a1 1 0 1 1 0 2 1 1 0 0 1 0-2M381 240a1 1 0 1 1 0 2 1 1 0 0 1 0-2M395 240a1 1 0 1 1 0 2 1 1 0 0 1 0-2M409 240a1 1 0 1 1 0 2 1 1 0 0 1 0-2M423 240a1 1 0 1 1 0 2 1 1 0 0 1 0-2M437 240a1 1 0 1 1 0 2 1 1 0 0 1 0-2M451 240a1 1 0 1 1 0 2 1 1 0 0 1 0-2M465 240a1 1 0 1 1 0 2 1 1 0 0 1 0-2M479 240a1 1 0 1 1 0 2 1 1 0 0 1 0-2M493 240a1 1 0 1 1 0 2 1 1 0 0 1 0-2M507 240a1 1 0 1 1 0 2 1 1 0 0 1 0-2M521 240a1 1 0 1 1 0 2 1 1 0 0 1 0-2M535 240a1 1 0 1 1 0 2 1 1 0 0 1 0-2M549 240a1 1 0 1 1 0 2 1 1 0 0 1 0-2M563 240a1 1 0 1 1 0 2 1 1 0 0 1 0-2M577 240a1 1 0 1 1 0 2 1 1 0 0 1 0-2M591 240a1 1 0 1 1 0 2 1 1 0 0 1 0-2M605 240a1 1 0 1 1 0 2 1 1 0 0 1 0-2M619 240a1 1 0 1 1 0 2 1 1 0 0 1 0-2M633 240a1 1 0 1 1 0 2 1 1 0 0 1 0-2M647 240a1 1 0 1 1 0 2 1 1 0 0 1 0-2M661 240a1 1 0 1 1 0 2 1 1 0 0 1 0-2M675 240a1 1 0 1 1 0 2 1 1 0 0 1 0-2M689 240a1 1 0 1 1 0 2 1 1 0 0 1 0-2M703 240a1 1 0 1 1 0 2 1 1 0 0 1 0-2M717 240a1 1 0 1 1 0 2 1 1 0 0 1 0-2M-11 226a1 1 0 1 1 0 2 1 1 0 0 1 0-2M3 226a1 1 0 1 1 0 2 1 1 0 0 1 0-2M17 226a1 1 0 1 1 0 2 1 1 0 0 1 0-2M31 226a1 1 0 1 1 0 2 1 1 0 0 1 0-2M45 226a1 1 0 1 1 0 2 1 1 0 0 1 0-2M59 226a1 1 0 1 1 0 2 1 1 0 0 1 0-2M73 226a1 1 0 1 1 0 2 1 1 0 0 1 0-2M87 226a1 1 0 1 1 0 2 1 1 0 0 1 0-2M101 226a1 1 0 1 1 0 2 1 1 0 0 1 0-2M115 226a1 1 0 1 1 0 2 1 1 0 0 1 0-2M129 226a1 1 0 1 1 0 2 1 1 0 0 1 0-2M143 226a1 1 0 1 1 0 2 1 1 0 0 1 0-2M157 226a1 1 0 1 1 0 2 1 1 0 0 1 0-2M171 226a1 1 0 1 1 0 2 1 1 0 0 1 0-2M185 226a1 1 0 1 1 0 2 1 1 0 0 1 0-2M199 226a1 1 0 1 1 0 2 1 1 0 0 1 0-2M213 226a1 1 0 1 1 0 2 1 1 0 0 1 0-2M227 226a1 1 0 1 1 0 2 1 1 0 0 1 0-2M241 226a1 1 0 1 1 0 2 1 1 0 0 1 0-2M255 226a1 1 0 1 1 0 2 1 1 0 0 1 0-2M269 226a1 1 0 1 1 0 2 1 1 0 0 1 0-2M283 226a1 1 0 1 1 0 2 1 1 0 0 1 0-2M297 226a1 1 0 1 1 0 2 1 1 0 0 1 0-2M311 226a1 1 0 1 1 0 2 1 1 0 0 1 0-2M325 226a1 1 0 1 1 0 2 1 1 0 0 1 0-2M339 226a1 1 0 1 1 0 2 1 1 0 0 1 0-2M353 226a1 1 0 1 1 0 2 1 1 0 0 1 0-2M367 226a1 1 0 1 1 0 2 1 1 0 0 1 0-2M381 226a1 1 0 1 1 0 2 1 1 0 0 1 0-2M395 226a1 1 0 1 1 0 2 1 1 0 0 1 0-2M409 226a1 1 0 1 1 0 2 1 1 0 0 1 0-2M423 226a1 1 0 1 1 0 2 1 1 0 0 1 0-2M437 226a1 1 0 1 1 0 2 1 1 0 0 1 0-2M451 226a1 1 0 1 1 0 2 1 1 0 0 1 0-2M465 226a1 1 0 1 1 0 2 1 1 0 0 1 0-2M479 226a1 1 0 1 1 0 2 1 1 0 0 1 0-2M493 226a1 1 0 1 1 0 2 1 1 0 0 1 0-2M507 226a1 1 0 1 1 0 2 1 1 0 0 1 0-2M521 226a1 1 0 1 1 0 2 1 1 0 0 1 0-2M535 226a1 1 0 1 1 0 2 1 1 0 0 1 0-2M549 226a1 1 0 1 1 0 2 1 1 0 0 1 0-2M563 226a1 1 0 1 1 0 2 1 1 0 0 1 0-2M577 226a1 1 0 1 1 0 2 1 1 0 0 1 0-2M591 226a1 1 0 1 1 0 2 1 1 0 0 1 0-2M605 226a1 1 0 1 1 0 2 1 1 0 0 1 0-2M619 226a1 1 0 1 1 0 2 1 1 0 0 1 0-2M633 226a1 1 0 1 1 0 2 1 1 0 0 1 0-2M647 226a1 1 0 1 1 0 2 1 1 0 0 1 0-2M661 226a1 1 0 1 1 0 2 1 1 0 0 1 0-2M675 226a1 1 0 1 1 0 2 1 1 0 0 1 0-2M689 226a1 1 0 1 1 0 2 1 1 0 0 1 0-2M703 226a1 1 0 1 1 0 2 1 1 0 0 1 0-2M717 226a1 1 0 1 1 0 2 1 1 0 0 1 0-2M-11 212a1 1 0 1 1 0 2 1 1 0 0 1 0-2M3 212a1 1 0 1 1 0 2 1 1 0 0 1 0-2M17 212a1 1 0 1 1 0 2 1 1 0 0 1 0-2M31 212a1 1 0 1 1 0 2 1 1 0 0 1 0-2M45 212a1 1 0 1 1 0 2 1 1 0 0 1 0-2M59 212a1 1 0 1 1 0 2 1 1 0 0 1 0-2M73 212a1 1 0 1 1 0 2 1 1 0 0 1 0-2M87 212a1 1 0 1 1 0 2 1 1 0 0 1 0-2M101 212a1 1 0 1 1 0 2 1 1 0 0 1 0-2M115 212a1 1 0 1 1 0 2 1 1 0 0 1 0-2M129 212a1 1 0 1 1 0 2 1 1 0 0 1 0-2M143 212a1 1 0 1 1 0 2 1 1 0 0 1 0-2M157 212a1 1 0 1 1 0 2 1 1 0 0 1 0-2M171 212a1 1 0 1 1 0 2 1 1 0 0 1 0-2M185 212a1 1 0 1 1 0 2 1 1 0 0 1 0-2M199 212a1 1 0 1 1 0 2 1 1 0 0 1 0-2M213 212a1 1 0 1 1 0 2 1 1 0 0 1 0-2M227 212a1 1 0 1 1 0 2 1 1 0 0 1 0-2M241 212a1 1 0 1 1 0 2 1 1 0 0 1 0-2M255 212a1 1 0 1 1 0 2 1 1 0 0 1 0-2M269 212a1 1 0 1 1 0 2 1 1 0 0 1 0-2M283 212a1 1 0 1 1 0 2 1 1 0 0 1 0-2M297 212a1 1 0 1 1 0 2 1 1 0 0 1 0-2M311 212a1 1 0 1 1 0 2 1 1 0 0 1 0-2M325 212a1 1 0 1 1 0 2 1 1 0 0 1 0-2M339 212a1 1 0 1 1 0 2 1 1 0 0 1 0-2M353 212a1 1 0 1 1 0 2 1 1 0 0 1 0-2M367 212a1 1 0 1 1 0 2 1 1 0 0 1 0-2M381 212a1 1 0 1 1 0 2 1 1 0 0 1 0-2M395 212a1 1 0 1 1 0 2 1 1 0 0 1 0-2M409 212a1 1 0 1 1 0 2 1 1 0 0 1 0-2M423 212a1 1 0 1 1 0 2 1 1 0 0 1 0-2M437 212a1 1 0 1 1 0 2 1 1 0 0 1 0-2M451 212a1 1 0 1 1 0 2 1 1 0 0 1 0-2M465 212a1 1 0 1 1 0 2 1 1 0 0 1 0-2M479 212a1 1 0 1 1 0 2 1 1 0 0 1 0-2M493 212a1 1 0 1 1 0 2 1 1 0 0 1 0-2M507 212a1 1 0 1 1 0 2 1 1 0 0 1 0-2M521 212a1 1 0 1 1 0 2 1 1 0 0 1 0-2M535 212a1 1 0 1 1 0 2 1 1 0 0 1 0-2M549 212a1 1 0 1 1 0 2 1 1 0 0 1 0-2M563 212a1 1 0 1 1 0 2 1 1 0 0 1 0-2M577 212a1 1 0 1 1 0 2 1 1 0 0 1 0-2M591 212a1 1 0 1 1 0 2 1 1 0 0 1 0-2M605 212a1 1 0 1 1 0 2 1 1 0 0 1 0-2M619 212a1 1 0 1 1 0 2 1 1 0 0 1 0-2M633 212a1 1 0 1 1 0 2 1 1 0 0 1 0-2M647 212a1 1 0 1 1 0 2 1 1 0 0 1 0-2M661 212a1 1 0 1 1 0 2 1 1 0 0 1 0-2M675 212a1 1 0 1 1 0 2 1 1 0 0 1 0-2M689 212a1 1 0 1 1 0 2 1 1 0 0 1 0-2M703 212a1 1 0 1 1 0 2 1 1 0 0 1 0-2M717 212a1 1 0 1 1 0 2 1 1 0 0 1 0-2M-11 198a1 1 0 1 1 0 2 1 1 0 0 1 0-2M3 198a1 1 0 1 1 0 2 1 1 0 0 1 0-2M17 198a1 1 0 1 1 0 2 1 1 0 0 1 0-2M31 198a1 1 0 1 1 0 2 1 1 0 0 1 0-2M45 198a1 1 0 1 1 0 2 1 1 0 0 1 0-2M59 198a1 1 0 1 1 0 2 1 1 0 0 1 0-2M73 198a1 1 0 1 1 0 2 1 1 0 0 1 0-2M87 198a1 1 0 1 1 0 2 1 1 0 0 1 0-2M101 198a1 1 0 1 1 0 2 1 1 0 0 1 0-2M115 198a1 1 0 1 1 0 2 1 1 0 0 1 0-2M129 198a1 1 0 1 1 0 2 1 1 0 0 1 0-2M143 198a1 1 0 1 1 0 2 1 1 0 0 1 0-2M157 198a1 1 0 1 1 0 2 1 1 0 0 1 0-2M171 198a1 1 0 1 1 0 2 1 1 0 0 1 0-2M185 198a1 1 0 1 1 0 2 1 1 0 0 1 0-2M199 198a1 1 0 1 1 0 2 1 1 0 0 1 0-2M213 198a1 1 0 1 1 0 2 1 1 0 0 1 0-2M227 198a1 1 0 1 1 0 2 1 1 0 0 1 0-2M241 198a1 1 0 1 1 0 2 1 1 0 0 1 0-2M255 198a1 1 0 1 1 0 2 1 1 0 0 1 0-2M269 198a1 1 0 1 1 0 2 1 1 0 0 1 0-2M283 198a1 1 0 1 1 0 2 1 1 0 0 1 0-2M297 198a1 1 0 1 1 0 2 1 1 0 0 1 0-2M311 198a1 1 0 1 1 0 2 1 1 0 0 1 0-2M325 198a1 1 0 1 1 0 2 1 1 0 0 1 0-2M339 198a1 1 0 1 1 0 2 1 1 0 0 1 0-2M353 198a1 1 0 1 1 0 2 1 1 0 0 1 0-2M367 198a1 1 0 1 1 0 2 1 1 0 0 1 0-2M381 198a1 1 0 1 1 0 2 1 1 0 0 1 0-2M395 198a1 1 0 1 1 0 2 1 1 0 0 1 0-2M409 198a1 1 0 1 1 0 2 1 1 0 0 1 0-2M423 198a1 1 0 1 1 0 2 1 1 0 0 1 0-2M437 198a1 1 0 1 1 0 2 1 1 0 0 1 0-2M451 198a1 1 0 1 1 0 2 1 1 0 0 1 0-2M465 198a1 1 0 1 1 0 2 1 1 0 0 1 0-2M479 198a1 1 0 1 1 0 2 1 1 0 0 1 0-2M493 198a1 1 0 1 1 0 2 1 1 0 0 1 0-2M507 198a1 1 0 1 1 0 2 1 1 0 0 1 0-2M521 198a1 1 0 1 1 0 2 1 1 0 0 1 0-2M535 198a1 1 0 1 1 0 2 1 1 0 0 1 0-2M549 198a1 1 0 1 1 0 2 1 1 0 0 1 0-2M563 198a1 1 0 1 1 0 2 1 1 0 0 1 0-2M577 198a1 1 0 1 1 0 2 1 1 0 0 1 0-2M591 198a1 1 0 1 1 0 2 1 1 0 0 1 0-2M605 198a1 1 0 1 1 0 2 1 1 0 0 1 0-2M619 198a1 1 0 1 1 0 2 1 1 0 0 1 0-2M633 198a1 1 0 1 1 0 2 1 1 0 0 1 0-2M647 198a1 1 0 1 1 0 2 1 1 0 0 1 0-2M661 198a1 1 0 1 1 0 2 1 1 0 0 1 0-2M675 198a1 1 0 1 1 0 2 1 1 0 0 1 0-2M689 198a1 1 0 1 1 0 2 1 1 0 0 1 0-2M703 198a1 1 0 1 1 0 2 1 1 0 0 1 0-2M717 198a1 1 0 1 1 0 2 1 1 0 0 1 0-2M-11 184a1 1 0 1 1 0 2 1 1 0 0 1 0-2M3 184a1 1 0 1 1 0 2 1 1 0 0 1 0-2M17 184a1 1 0 1 1 0 2 1 1 0 0 1 0-2M31 184a1 1 0 1 1 0 2 1 1 0 0 1 0-2M45 184a1 1 0 1 1 0 2 1 1 0 0 1 0-2M59 184a1 1 0 1 1 0 2 1 1 0 0 1 0-2M73 184a1 1 0 1 1 0 2 1 1 0 0 1 0-2M87 184a1 1 0 1 1 0 2 1 1 0 0 1 0-2M101 184a1 1 0 1 1 0 2 1 1 0 0 1 0-2M115 184a1 1 0 1 1 0 2 1 1 0 0 1 0-2M129 184a1 1 0 1 1 0 2 1 1 0 0 1 0-2M143 184a1 1 0 1 1 0 2 1 1 0 0 1 0-2M157 184a1 1 0 1 1 0 2 1 1 0 0 1 0-2M171 184a1 1 0 1 1 0 2 1 1 0 0 1 0-2M185 184a1 1 0 1 1 0 2 1 1 0 0 1 0-2M199 184a1 1 0 1 1 0 2 1 1 0 0 1 0-2M213 184a1 1 0 1 1 0 2 1 1 0 0 1 0-2M227 184a1 1 0 1 1 0 2 1 1 0 0 1 0-2M241 184a1 1 0 1 1 0 2 1 1 0 0 1 0-2M255 184a1 1 0 1 1 0 2 1 1 0 0 1 0-2M269 184a1 1 0 1 1 0 2 1 1 0 0 1 0-2M283 184a1 1 0 1 1 0 2 1 1 0 0 1 0-2M297 184a1 1 0 1 1 0 2 1 1 0 0 1 0-2M311 184a1 1 0 1 1 0 2 1 1 0 0 1 0-2M325 184a1 1 0 1 1 0 2 1 1 0 0 1 0-2M339 184a1 1 0 1 1 0 2 1 1 0 0 1 0-2M353 184a1 1 0 1 1 0 2 1 1 0 0 1 0-2M367 184a1 1 0 1 1 0 2 1 1 0 0 1 0-2M381 184a1 1 0 1 1 0 2 1 1 0 0 1 0-2M395 184a1 1 0 1 1 0 2 1 1 0 0 1 0-2M409 184a1 1 0 1 1 0 2 1 1 0 0 1 0-2M423 184a1 1 0 1 1 0 2 1 1 0 0 1 0-2M437 184a1 1 0 1 1 0 2 1 1 0 0 1 0-2M451 184a1 1 0 1 1 0 2 1 1 0 0 1 0-2M465 184a1 1 0 1 1 0 2 1 1 0 0 1 0-2M479 184a1 1 0 1 1 0 2 1 1 0 0 1 0-2M493 184a1 1 0 1 1 0 2 1 1 0 0 1 0-2M507 184a1 1 0 1 1 0 2 1 1 0 0 1 0-2M521 184a1 1 0 1 1 0 2 1 1 0 0 1 0-2M535 184a1 1 0 1 1 0 2 1 1 0 0 1 0-2M549 184a1 1 0 1 1 0 2 1 1 0 0 1 0-2M563 184a1 1 0 1 1 0 2 1 1 0 0 1 0-2M577 184a1 1 0 1 1 0 2 1 1 0 0 1 0-2M591 184a1 1 0 1 1 0 2 1 1 0 0 1 0-2M605 184a1 1 0 1 1 0 2 1 1 0 0 1 0-2M619 184a1 1 0 1 1 0 2 1 1 0 0 1 0-2M633 184a1 1 0 1 1 0 2 1 1 0 0 1 0-2M647 184a1 1 0 1 1 0 2 1 1 0 0 1 0-2M661 184a1 1 0 1 1 0 2 1 1 0 0 1 0-2M675 184a1 1 0 1 1 0 2 1 1 0 0 1 0-2M689 184a1 1 0 1 1 0 2 1 1 0 0 1 0-2M703 184a1 1 0 1 1 0 2 1 1 0 0 1 0-2M717 184a1 1 0 1 1 0 2 1 1 0 0 1 0-2M-11 170a1 1 0 1 1 0 2 1 1 0 0 1 0-2M3 170a1 1 0 1 1 0 2 1 1 0 0 1 0-2M17 170a1 1 0 1 1 0 2 1 1 0 0 1 0-2M31 170a1 1 0 1 1 0 2 1 1 0 0 1 0-2M45 170a1 1 0 1 1 0 2 1 1 0 0 1 0-2M59 170a1 1 0 1 1 0 2 1 1 0 0 1 0-2M73 170a1 1 0 1 1 0 2 1 1 0 0 1 0-2M87 170a1 1 0 1 1 0 2 1 1 0 0 1 0-2M101 170a1 1 0 1 1 0 2 1 1 0 0 1 0-2M115 170a1 1 0 1 1 0 2 1 1 0 0 1 0-2M129 170a1 1 0 1 1 0 2 1 1 0 0 1 0-2M143 170a1 1 0 1 1 0 2 1 1 0 0 1 0-2M157 170a1 1 0 1 1 0 2 1 1 0 0 1 0-2M171 170a1 1 0 1 1 0 2 1 1 0 0 1 0-2M185 170a1 1 0 1 1 0 2 1 1 0 0 1 0-2M199 170a1 1 0 1 1 0 2 1 1 0 0 1 0-2M213 170a1 1 0 1 1 0 2 1 1 0 0 1 0-2M227 170a1 1 0 1 1 0 2 1 1 0 0 1 0-2M241 170a1 1 0 1 1 0 2 1 1 0 0 1 0-2M255 170a1 1 0 1 1 0 2 1 1 0 0 1 0-2M269 170a1 1 0 1 1 0 2 1 1 0 0 1 0-2M283 170a1 1 0 1 1 0 2 1 1 0 0 1 0-2M297 170a1 1 0 1 1 0 2 1 1 0 0 1 0-2M311 170a1 1 0 1 1 0 2 1 1 0 0 1 0-2M325 170a1 1 0 1 1 0 2 1 1 0 0 1 0-2M339 170a1 1 0 1 1 0 2 1 1 0 0 1 0-2M353 170a1 1 0 1 1 0 2 1 1 0 0 1 0-2M367 170a1 1 0 1 1 0 2 1 1 0 0 1 0-2M381 170a1 1 0 1 1 0 2 1 1 0 0 1 0-2M395 170a1 1 0 1 1 0 2 1 1 0 0 1 0-2M409 170a1 1 0 1 1 0 2 1 1 0 0 1 0-2M423 170a1 1 0 1 1 0 2 1 1 0 0 1 0-2M437 170a1 1 0 1 1 0 2 1 1 0 0 1 0-2M451 170a1 1 0 1 1 0 2 1 1 0 0 1 0-2M465 170a1 1 0 1 1 0 2 1 1 0 0 1 0-2M479 170a1 1 0 1 1 0 2 1 1 0 0 1 0-2M493 170a1 1 0 1 1 0 2 1 1 0 0 1 0-2M507 170a1 1 0 1 1 0 2 1 1 0 0 1 0-2M521 170a1 1 0 1 1 0 2 1 1 0 0 1 0-2M535 170a1 1 0 1 1 0 2 1 1 0 0 1 0-2M549 170a1 1 0 1 1 0 2 1 1 0 0 1 0-2M563 170a1 1 0 1 1 0 2 1 1 0 0 1 0-2M577 170a1 1 0 1 1 0 2 1 1 0 0 1 0-2M591 170a1 1 0 1 1 0 2 1 1 0 0 1 0-2M605 170a1 1 0 1 1 0 2 1 1 0 0 1 0-2M619 170a1 1 0 1 1 0 2 1 1 0 0 1 0-2M633 170a1 1 0 1 1 0 2 1 1 0 0 1 0-2M647 170a1 1 0 1 1 0 2 1 1 0 0 1 0-2M661 170a1 1 0 1 1 0 2 1 1 0 0 1 0-2M675 170a1 1 0 1 1 0 2 1 1 0 0 1 0-2M689 170a1 1 0 1 1 0 2 1 1 0 0 1 0-2M703 170a1 1 0 1 1 0 2 1 1 0 0 1 0-2M717 170a1 1 0 1 1 0 2 1 1 0 0 1 0-2M-11 156a1 1 0 1 1 0 2 1 1 0 0 1 0-2M3 156a1 1 0 1 1 0 2 1 1 0 0 1 0-2M17 156a1 1 0 1 1 0 2 1 1 0 0 1 0-2M31 156a1 1 0 1 1 0 2 1 1 0 0 1 0-2M45 156a1 1 0 1 1 0 2 1 1 0 0 1 0-2M59 156a1 1 0 1 1 0 2 1 1 0 0 1 0-2M73 156a1 1 0 1 1 0 2 1 1 0 0 1 0-2M87 156a1 1 0 1 1 0 2 1 1 0 0 1 0-2M101 156a1 1 0 1 1 0 2 1 1 0 0 1 0-2M115 156a1 1 0 1 1 0 2 1 1 0 0 1 0-2M129 156a1 1 0 1 1 0 2 1 1 0 0 1 0-2M143 156a1 1 0 1 1 0 2 1 1 0 0 1 0-2M157 156a1 1 0 1 1 0 2 1 1 0 0 1 0-2M171 156a1 1 0 1 1 0 2 1 1 0 0 1 0-2M185 156a1 1 0 1 1 0 2 1 1 0 0 1 0-2M199 156a1 1 0 1 1 0 2 1 1 0 0 1 0-2M213 156a1 1 0 1 1 0 2 1 1 0 0 1 0-2M227 156a1 1 0 1 1 0 2 1 1 0 0 1 0-2M241 156a1 1 0 1 1 0 2 1 1 0 0 1 0-2M255 156a1 1 0 1 1 0 2 1 1 0 0 1 0-2M269 156a1 1 0 1 1 0 2 1 1 0 0 1 0-2M283 156a1 1 0 1 1 0 2 1 1 0 0 1 0-2M297 156a1 1 0 1 1 0 2 1 1 0 0 1 0-2M311 156a1 1 0 1 1 0 2 1 1 0 0 1 0-2M325 156a1 1 0 1 1 0 2 1 1 0 0 1 0-2M339 156a1 1 0 1 1 0 2 1 1 0 0 1 0-2M353 156a1 1 0 1 1 0 2 1 1 0 0 1 0-2M367 156a1 1 0 1 1 0 2 1 1 0 0 1 0-2M381 156a1 1 0 1 1 0 2 1 1 0 0 1 0-2M395 156a1 1 0 1 1 0 2 1 1 0 0 1 0-2M409 156a1 1 0 1 1 0 2 1 1 0 0 1 0-2M423 156a1 1 0 1 1 0 2 1 1 0 0 1 0-2M437 156a1 1 0 1 1 0 2 1 1 0 0 1 0-2M451 156a1 1 0 1 1 0 2 1 1 0 0 1 0-2M465 156a1 1 0 1 1 0 2 1 1 0 0 1 0-2M479 156a1 1 0 1 1 0 2 1 1 0 0 1 0-2M493 156a1 1 0 1 1 0 2 1 1 0 0 1 0-2M507 156a1 1 0 1 1 0 2 1 1 0 0 1 0-2M521 156a1 1 0 1 1 0 2 1 1 0 0 1 0-2M535 156a1 1 0 1 1 0 2 1 1 0 0 1 0-2M549 156a1 1 0 1 1 0 2 1 1 0 0 1 0-2M563 156a1 1 0 1 1 0 2 1 1 0 0 1 0-2M577 156a1 1 0 1 1 0 2 1 1 0 0 1 0-2M591 156a1 1 0 1 1 0 2 1 1 0 0 1 0-2M605 156a1 1 0 1 1 0 2 1 1 0 0 1 0-2M619 156a1 1 0 1 1 0 2 1 1 0 0 1 0-2M633 156a1 1 0 1 1 0 2 1 1 0 0 1 0-2M647 156a1 1 0 1 1 0 2 1 1 0 0 1 0-2M661 156a1 1 0 1 1 0 2 1 1 0 0 1 0-2M675 156a1 1 0 1 1 0 2 1 1 0 0 1 0-2M689 156a1 1 0 1 1 0 2 1 1 0 0 1 0-2M703 156a1 1 0 1 1 0 2 1 1 0 0 1 0-2M717 156a1 1 0 1 1 0 2 1 1 0 0 1 0-2M-11 142a1 1 0 1 1 0 2 1 1 0 0 1 0-2M3 142a1 1 0 1 1 0 2 1 1 0 0 1 0-2M17 142a1 1 0 1 1 0 2 1 1 0 0 1 0-2M31 142a1 1 0 1 1 0 2 1 1 0 0 1 0-2M45 142a1 1 0 1 1 0 2 1 1 0 0 1 0-2M59 142a1 1 0 1 1 0 2 1 1 0 0 1 0-2M73 142a1 1 0 1 1 0 2 1 1 0 0 1 0-2M87 142a1 1 0 1 1 0 2 1 1 0 0 1 0-2M101 142a1 1 0 1 1 0 2 1 1 0 0 1 0-2M115 142a1 1 0 1 1 0 2 1 1 0 0 1 0-2M129 142a1 1 0 1 1 0 2 1 1 0 0 1 0-2M143 142a1 1 0 1 1 0 2 1 1 0 0 1 0-2M157 142a1 1 0 1 1 0 2 1 1 0 0 1 0-2M171 142a1 1 0 1 1 0 2 1 1 0 0 1 0-2M185 142a1 1 0 1 1 0 2 1 1 0 0 1 0-2M199 142a1 1 0 1 1 0 2 1 1 0 0 1 0-2M213 142a1 1 0 1 1 0 2 1 1 0 0 1 0-2M227 142a1 1 0 1 1 0 2 1 1 0 0 1 0-2M241 142a1 1 0 1 1 0 2 1 1 0 0 1 0-2M255 142a1 1 0 1 1 0 2 1 1 0 0 1 0-2M269 142a1 1 0 1 1 0 2 1 1 0 0 1 0-2M283 142a1 1 0 1 1 0 2 1 1 0 0 1 0-2M297 142a1 1 0 1 1 0 2 1 1 0 0 1 0-2M311 142a1 1 0 1 1 0 2 1 1 0 0 1 0-2M325 142a1 1 0 1 1 0 2 1 1 0 0 1 0-2M339 142a1 1 0 1 1 0 2 1 1 0 0 1 0-2M353 142a1 1 0 1 1 0 2 1 1 0 0 1 0-2M367 142a1 1 0 1 1 0 2 1 1 0 0 1 0-2M381 142a1 1 0 1 1 0 2 1 1 0 0 1 0-2M395 142a1 1 0 1 1 0 2 1 1 0 0 1 0-2M409 142a1 1 0 1 1 0 2 1 1 0 0 1 0-2M423 142a1 1 0 1 1 0 2 1 1 0 0 1 0-2M437 142a1 1 0 1 1 0 2 1 1 0 0 1 0-2M451 142a1 1 0 1 1 0 2 1 1 0 0 1 0-2M465 142a1 1 0 1 1 0 2 1 1 0 0 1 0-2M479 142a1 1 0 1 1 0 2 1 1 0 0 1 0-2M493 142a1 1 0 1 1 0 2 1 1 0 0 1 0-2M507 142a1 1 0 1 1 0 2 1 1 0 0 1 0-2M521 142a1 1 0 1 1 0 2 1 1 0 0 1 0-2M535 142a1 1 0 1 1 0 2 1 1 0 0 1 0-2M549 142a1 1 0 1 1 0 2 1 1 0 0 1 0-2M563 142a1 1 0 1 1 0 2 1 1 0 0 1 0-2M577 142a1 1 0 1 1 0 2 1 1 0 0 1 0-2M591 142a1 1 0 1 1 0 2 1 1 0 0 1 0-2M605 142a1 1 0 1 1 0 2 1 1 0 0 1 0-2M619 142a1 1 0 1 1 0 2 1 1 0 0 1 0-2M633 142a1 1 0 1 1 0 2 1 1 0 0 1 0-2M647 142a1 1 0 1 1 0 2 1 1 0 0 1 0-2M661 142a1 1 0 1 1 0 2 1 1 0 0 1 0-2M675 142a1 1 0 1 1 0 2 1 1 0 0 1 0-2M689 142a1 1 0 1 1 0 2 1 1 0 0 1 0-2M703 142a1 1 0 1 1 0 2 1 1 0 0 1 0-2M717 142a1 1 0 1 1 0 2 1 1 0 0 1 0-2M-11 128a1 1 0 1 1 0 2 1 1 0 0 1 0-2M3 128a1 1 0 1 1 0 2 1 1 0 0 1 0-2M17 128a1 1 0 1 1 0 2 1 1 0 0 1 0-2M31 128a1 1 0 1 1 0 2 1 1 0 0 1 0-2M45 128a1 1 0 1 1 0 2 1 1 0 0 1 0-2M59 128a1 1 0 1 1 0 2 1 1 0 0 1 0-2M73 128a1 1 0 1 1 0 2 1 1 0 0 1 0-2M87 128a1 1 0 1 1 0 2 1 1 0 0 1 0-2M101 128a1 1 0 1 1 0 2 1 1 0 0 1 0-2M115 128a1 1 0 1 1 0 2 1 1 0 0 1 0-2M129 128a1 1 0 1 1 0 2 1 1 0 0 1 0-2M143 128a1 1 0 1 1 0 2 1 1 0 0 1 0-2M157 128a1 1 0 1 1 0 2 1 1 0 0 1 0-2M171 128a1 1 0 1 1 0 2 1 1 0 0 1 0-2M185 128a1 1 0 1 1 0 2 1 1 0 0 1 0-2M199 128a1 1 0 1 1 0 2 1 1 0 0 1 0-2M213 128a1 1 0 1 1 0 2 1 1 0 0 1 0-2M227 128a1 1 0 1 1 0 2 1 1 0 0 1 0-2M241 128a1 1 0 1 1 0 2 1 1 0 0 1 0-2M255 128a1 1 0 1 1 0 2 1 1 0 0 1 0-2M269 128a1 1 0 1 1 0 2 1 1 0 0 1 0-2M283 128a1 1 0 1 1 0 2 1 1 0 0 1 0-2M297 128a1 1 0 1 1 0 2 1 1 0 0 1 0-2M311 128a1 1 0 1 1 0 2 1 1 0 0 1 0-2M325 128a1 1 0 1 1 0 2 1 1 0 0 1 0-2M339 128a1 1 0 1 1 0 2 1 1 0 0 1 0-2M353 128a1 1 0 1 1 0 2 1 1 0 0 1 0-2M367 128a1 1 0 1 1 0 2 1 1 0 0 1 0-2M381 128a1 1 0 1 1 0 2 1 1 0 0 1 0-2M395 128a1 1 0 1 1 0 2 1 1 0 0 1 0-2M409 128a1 1 0 1 1 0 2 1 1 0 0 1 0-2M423 128a1 1 0 1 1 0 2 1 1 0 0 1 0-2M437 128a1 1 0 1 1 0 2 1 1 0 0 1 0-2M451 128a1 1 0 1 1 0 2 1 1 0 0 1 0-2M465 128a1 1 0 1 1 0 2 1 1 0 0 1 0-2M479 128a1 1 0 1 1 0 2 1 1 0 0 1 0-2M493 128a1 1 0 1 1 0 2 1 1 0 0 1 0-2M507 128a1 1 0 1 1 0 2 1 1 0 0 1 0-2M521 128a1 1 0 1 1 0 2 1 1 0 0 1 0-2M535 128a1 1 0 1 1 0 2 1 1 0 0 1 0-2M549 128a1 1 0 1 1 0 2 1 1 0 0 1 0-2M563 128a1 1 0 1 1 0 2 1 1 0 0 1 0-2M577 128a1 1 0 1 1 0 2 1 1 0 0 1 0-2M591 128a1 1 0 1 1 0 2 1 1 0 0 1 0-2M605 128a1 1 0 1 1 0 2 1 1 0 0 1 0-2M619 128a1 1 0 1 1 0 2 1 1 0 0 1 0-2M633 128a1 1 0 1 1 0 2 1 1 0 0 1 0-2M647 128a1 1 0 1 1 0 2 1 1 0 0 1 0-2M661 128a1 1 0 1 1 0 2 1 1 0 0 1 0-2M675 128a1 1 0 1 1 0 2 1 1 0 0 1 0-2M689 128a1 1 0 1 1 0 2 1 1 0 0 1 0-2M703 128a1 1 0 1 1 0 2 1 1 0 0 1 0-2M717 128a1 1 0 1 1 0 2 1 1 0 0 1 0-2M-11 114a1 1 0 1 1 0 2 1 1 0 0 1 0-2M3 114a1 1 0 1 1 0 2 1 1 0 0 1 0-2M17 114a1 1 0 1 1 0 2 1 1 0 0 1 0-2M31 114a1 1 0 1 1 0 2 1 1 0 0 1 0-2M45 114a1 1 0 1 1 0 2 1 1 0 0 1 0-2M59 114a1 1 0 1 1 0 2 1 1 0 0 1 0-2M73 114a1 1 0 1 1 0 2 1 1 0 0 1 0-2M87 114a1 1 0 1 1 0 2 1 1 0 0 1 0-2M101 114a1 1 0 1 1 0 2 1 1 0 0 1 0-2M115 114a1 1 0 1 1 0 2 1 1 0 0 1 0-2M129 114a1 1 0 1 1 0 2 1 1 0 0 1 0-2M143 114a1 1 0 1 1 0 2 1 1 0 0 1 0-2M157 114a1 1 0 1 1 0 2 1 1 0 0 1 0-2M171 114a1 1 0 1 1 0 2 1 1 0 0 1 0-2M185 114a1 1 0 1 1 0 2 1 1 0 0 1 0-2M199 114a1 1 0 1 1 0 2 1 1 0 0 1 0-2M213 114a1 1 0 1 1 0 2 1 1 0 0 1 0-2M227 114a1 1 0 1 1 0 2 1 1 0 0 1 0-2M241 114a1 1 0 1 1 0 2 1 1 0 0 1 0-2M255 114a1 1 0 1 1 0 2 1 1 0 0 1 0-2M269 114a1 1 0 1 1 0 2 1 1 0 0 1 0-2M283 114a1 1 0 1 1 0 2 1 1 0 0 1 0-2M297 114a1 1 0 1 1 0 2 1 1 0 0 1 0-2M311 114a1 1 0 1 1 0 2 1 1 0 0 1 0-2M325 114a1 1 0 1 1 0 2 1 1 0 0 1 0-2M339 114a1 1 0 1 1 0 2 1 1 0 0 1 0-2M353 114a1 1 0 1 1 0 2 1 1 0 0 1 0-2M367 114a1 1 0 1 1 0 2 1 1 0 0 1 0-2M381 114a1 1 0 1 1 0 2 1 1 0 0 1 0-2M395 114a1 1 0 1 1 0 2 1 1 0 0 1 0-2M409 114a1 1 0 1 1 0 2 1 1 0 0 1 0-2M423 114a1 1 0 1 1 0 2 1 1 0 0 1 0-2M437 114a1 1 0 1 1 0 2 1 1 0 0 1 0-2M451 114a1 1 0 1 1 0 2 1 1 0 0 1 0-2M465 114a1 1 0 1 1 0 2 1 1 0 0 1 0-2M479 114a1 1 0 1 1 0 2 1 1 0 0 1 0-2M493 114a1 1 0 1 1 0 2 1 1 0 0 1 0-2M507 114a1 1 0 1 1 0 2 1 1 0 0 1 0-2M521 114a1 1 0 1 1 0 2 1 1 0 0 1 0-2M535 114a1 1 0 1 1 0 2 1 1 0 0 1 0-2M549 114a1 1 0 1 1 0 2 1 1 0 0 1 0-2M563 114a1 1 0 1 1 0 2 1 1 0 0 1 0-2M577 114a1 1 0 1 1 0 2 1 1 0 0 1 0-2M591 114a1 1 0 1 1 0 2 1 1 0 0 1 0-2M605 114a1 1 0 1 1 0 2 1 1 0 0 1 0-2M619 114a1 1 0 1 1 0 2 1 1 0 0 1 0-2M633 114a1 1 0 1 1 0 2 1 1 0 0 1 0-2M647 114a1 1 0 1 1 0 2 1 1 0 0 1 0-2M661 114a1 1 0 1 1 0 2 1 1 0 0 1 0-2M675 114a1 1 0 1 1 0 2 1 1 0 0 1 0-2M689 114a1 1 0 1 1 0 2 1 1 0 0 1 0-2M703 114a1 1 0 1 1 0 2 1 1 0 0 1 0-2M717 114a1 1 0 1 1 0 2 1 1 0 0 1 0-2M-11 100a1 1 0 1 1 0 2 1 1 0 0 1 0-2M3 100a1 1 0 1 1 0 2 1 1 0 0 1 0-2M17 100a1 1 0 1 1 0 2 1 1 0 0 1 0-2M31 100a1 1 0 1 1 0 2 1 1 0 0 1 0-2M45 100a1 1 0 1 1 0 2 1 1 0 0 1 0-2M59 100a1 1 0 1 1 0 2 1 1 0 0 1 0-2M73 100a1 1 0 1 1 0 2 1 1 0 0 1 0-2M87 100a1 1 0 1 1 0 2 1 1 0 0 1 0-2M101 100a1 1 0 1 1 0 2 1 1 0 0 1 0-2M115 100a1 1 0 1 1 0 2 1 1 0 0 1 0-2M129 100a1 1 0 1 1 0 2 1 1 0 0 1 0-2M143 100a1 1 0 1 1 0 2 1 1 0 0 1 0-2M157 100a1 1 0 1 1 0 2 1 1 0 0 1 0-2M171 100a1 1 0 1 1 0 2 1 1 0 0 1 0-2M185 100a1 1 0 1 1 0 2 1 1 0 0 1 0-2M199 100a1 1 0 1 1 0 2 1 1 0 0 1 0-2M213 100a1 1 0 1 1 0 2 1 1 0 0 1 0-2M227 100a1 1 0 1 1 0 2 1 1 0 0 1 0-2M241 100a1 1 0 1 1 0 2 1 1 0 0 1 0-2M255 100a1 1 0 1 1 0 2 1 1 0 0 1 0-2M269 100a1 1 0 1 1 0 2 1 1 0 0 1 0-2M283 100a1 1 0 1 1 0 2 1 1 0 0 1 0-2M297 100a1 1 0 1 1 0 2 1 1 0 0 1 0-2M311 100a1 1 0 1 1 0 2 1 1 0 0 1 0-2M325 100a1 1 0 1 1 0 2 1 1 0 0 1 0-2M339 100a1 1 0 1 1 0 2 1 1 0 0 1 0-2M353 100a1 1 0 1 1 0 2 1 1 0 0 1 0-2M367 100a1 1 0 1 1 0 2 1 1 0 0 1 0-2M381 100a1 1 0 1 1 0 2 1 1 0 0 1 0-2M395 100a1 1 0 1 1 0 2 1 1 0 0 1 0-2M409 100a1 1 0 1 1 0 2 1 1 0 0 1 0-2M423 100a1 1 0 1 1 0 2 1 1 0 0 1 0-2M437 100a1 1 0 1 1 0 2 1 1 0 0 1 0-2M451 100a1 1 0 1 1 0 2 1 1 0 0 1 0-2M465 100a1 1 0 1 1 0 2 1 1 0 0 1 0-2M479 100a1 1 0 1 1 0 2 1 1 0 0 1 0-2M493 100a1 1 0 1 1 0 2 1 1 0 0 1 0-2M507 100a1 1 0 1 1 0 2 1 1 0 0 1 0-2M521 100a1 1 0 1 1 0 2 1 1 0 0 1 0-2M535 100a1 1 0 1 1 0 2 1 1 0 0 1 0-2M549 100a1 1 0 1 1 0 2 1 1 0 0 1 0-2M563 100a1 1 0 1 1 0 2 1 1 0 0 1 0-2M577 100a1 1 0 1 1 0 2 1 1 0 0 1 0-2M591 100a1 1 0 1 1 0 2 1 1 0 0 1 0-2M605 100a1 1 0 1 1 0 2 1 1 0 0 1 0-2M619 100a1 1 0 1 1 0 2 1 1 0 0 1 0-2M633 100a1 1 0 1 1 0 2 1 1 0 0 1 0-2M647 100a1 1 0 1 1 0 2 1 1 0 0 1 0-2M661 100a1 1 0 1 1 0 2 1 1 0 0 1 0-2M675 100a1 1 0 1 1 0 2 1 1 0 0 1 0-2M689 100a1 1 0 1 1 0 2 1 1 0 0 1 0-2M703 100a1 1 0 1 1 0 2 1 1 0 0 1 0-2M717 100a1 1 0 1 1 0 2 1 1 0 0 1 0-2M-11 86a1 1 0 1 1 0 2 1 1 0 0 1 0-2M3 86a1 1 0 1 1 0 2 1 1 0 0 1 0-2M17 86a1 1 0 1 1 0 2 1 1 0 0 1 0-2M31 86a1 1 0 1 1 0 2 1 1 0 0 1 0-2M45 86a1 1 0 1 1 0 2 1 1 0 0 1 0-2M59 86a1 1 0 1 1 0 2 1 1 0 0 1 0-2M73 86a1 1 0 1 1 0 2 1 1 0 0 1 0-2M87 86a1 1 0 1 1 0 2 1 1 0 0 1 0-2M101 86a1 1 0 1 1 0 2 1 1 0 0 1 0-2M115 86a1 1 0 1 1 0 2 1 1 0 0 1 0-2M129 86a1 1 0 1 1 0 2 1 1 0 0 1 0-2M143 86a1 1 0 1 1 0 2 1 1 0 0 1 0-2M157 86a1 1 0 1 1 0 2 1 1 0 0 1 0-2M171 86a1 1 0 1 1 0 2 1 1 0 0 1 0-2M185 86a1 1 0 1 1 0 2 1 1 0 0 1 0-2M199 86a1 1 0 1 1 0 2 1 1 0 0 1 0-2M213 86a1 1 0 1 1 0 2 1 1 0 0 1 0-2M227 86a1 1 0 1 1 0 2 1 1 0 0 1 0-2M241 86a1 1 0 1 1 0 2 1 1 0 0 1 0-2M255 86a1 1 0 1 1 0 2 1 1 0 0 1 0-2M269 86a1 1 0 1 1 0 2 1 1 0 0 1 0-2M283 86a1 1 0 1 1 0 2 1 1 0 0 1 0-2M297 86a1 1 0 1 1 0 2 1 1 0 0 1 0-2M311 86a1 1 0 1 1 0 2 1 1 0 0 1 0-2M325 86a1 1 0 1 1 0 2 1 1 0 0 1 0-2M339 86a1 1 0 1 1 0 2 1 1 0 0 1 0-2M353 86a1 1 0 1 1 0 2 1 1 0 0 1 0-2M367 86a1 1 0 1 1 0 2 1 1 0 0 1 0-2M381 86a1 1 0 1 1 0 2 1 1 0 0 1 0-2M395 86a1 1 0 1 1 0 2 1 1 0 0 1 0-2M409 86a1 1 0 1 1 0 2 1 1 0 0 1 0-2M423 86a1 1 0 1 1 0 2 1 1 0 0 1 0-2M437 86a1 1 0 1 1 0 2 1 1 0 0 1 0-2M451 86a1 1 0 1 1 0 2 1 1 0 0 1 0-2M465 86a1 1 0 1 1 0 2 1 1 0 0 1 0-2M479 86a1 1 0 1 1 0 2 1 1 0 0 1 0-2M493 86a1 1 0 1 1 0 2 1 1 0 0 1 0-2M507 86a1 1 0 1 1 0 2 1 1 0 0 1 0-2M521 86a1 1 0 1 1 0 2 1 1 0 0 1 0-2M535 86a1 1 0 1 1 0 2 1 1 0 0 1 0-2M549 86a1 1 0 1 1 0 2 1 1 0 0 1 0-2M563 86a1 1 0 1 1 0 2 1 1 0 0 1 0-2M577 86a1 1 0 1 1 0 2 1 1 0 0 1 0-2M591 86a1 1 0 1 1 0 2 1 1 0 0 1 0-2M605 86a1 1 0 1 1 0 2 1 1 0 0 1 0-2M619 86a1 1 0 1 1 0 2 1 1 0 0 1 0-2M633 86a1 1 0 1 1 0 2 1 1 0 0 1 0-2M647 86a1 1 0 1 1 0 2 1 1 0 0 1 0-2M661 86a1 1 0 1 1 0 2 1 1 0 0 1 0-2M675 86a1 1 0 1 1 0 2 1 1 0 0 1 0-2M689 86a1 1 0 1 1 0 2 1 1 0 0 1 0-2M703 86a1 1 0 1 1 0 2 1 1 0 0 1 0-2M717 86a1 1 0 1 1 0 2 1 1 0 0 1 0-2M-11 72a1 1 0 1 1 0 2 1 1 0 0 1 0-2M3 72a1 1 0 1 1 0 2 1 1 0 0 1 0-2M17 72a1 1 0 1 1 0 2 1 1 0 0 1 0-2M31 72a1 1 0 1 1 0 2 1 1 0 0 1 0-2M45 72a1 1 0 1 1 0 2 1 1 0 0 1 0-2M59 72a1 1 0 1 1 0 2 1 1 0 0 1 0-2M73 72a1 1 0 1 1 0 2 1 1 0 0 1 0-2M87 72a1 1 0 1 1 0 2 1 1 0 0 1 0-2M101 72a1 1 0 1 1 0 2 1 1 0 0 1 0-2M115 72a1 1 0 1 1 0 2 1 1 0 0 1 0-2M129 72a1 1 0 1 1 0 2 1 1 0 0 1 0-2M143 72a1 1 0 1 1 0 2 1 1 0 0 1 0-2M157 72a1 1 0 1 1 0 2 1 1 0 0 1 0-2M171 72a1 1 0 1 1 0 2 1 1 0 0 1 0-2M185 72a1 1 0 1 1 0 2 1 1 0 0 1 0-2M199 72a1 1 0 1 1 0 2 1 1 0 0 1 0-2M213 72a1 1 0 1 1 0 2 1 1 0 0 1 0-2M227 72a1 1 0 1 1 0 2 1 1 0 0 1 0-2M241 72a1 1 0 1 1 0 2 1 1 0 0 1 0-2M255 72a1 1 0 1 1 0 2 1 1 0 0 1 0-2M269 72a1 1 0 1 1 0 2 1 1 0 0 1 0-2M283 72a1 1 0 1 1 0 2 1 1 0 0 1 0-2M297 72a1 1 0 1 1 0 2 1 1 0 0 1 0-2M311 72a1 1 0 1 1 0 2 1 1 0 0 1 0-2M325 72a1 1 0 1 1 0 2 1 1 0 0 1 0-2M339 72a1 1 0 1 1 0 2 1 1 0 0 1 0-2M353 72a1 1 0 1 1 0 2 1 1 0 0 1 0-2M367 72a1 1 0 1 1 0 2 1 1 0 0 1 0-2M381 72a1 1 0 1 1 0 2 1 1 0 0 1 0-2M395 72a1 1 0 1 1 0 2 1 1 0 0 1 0-2M409 72a1 1 0 1 1 0 2 1 1 0 0 1 0-2M423 72a1 1 0 1 1 0 2 1 1 0 0 1 0-2M437 72a1 1 0 1 1 0 2 1 1 0 0 1 0-2M451 72a1 1 0 1 1 0 2 1 1 0 0 1 0-2M465 72a1 1 0 1 1 0 2 1 1 0 0 1 0-2M479 72a1 1 0 1 1 0 2 1 1 0 0 1 0-2M493 72a1 1 0 1 1 0 2 1 1 0 0 1 0-2M507 72a1 1 0 1 1 0 2 1 1 0 0 1 0-2M521 72a1 1 0 1 1 0 2 1 1 0 0 1 0-2M535 72a1 1 0 1 1 0 2 1 1 0 0 1 0-2M549 72a1 1 0 1 1 0 2 1 1 0 0 1 0-2M563 72a1 1 0 1 1 0 2 1 1 0 0 1 0-2M577 72a1 1 0 1 1 0 2 1 1 0 0 1 0-2M591 72a1 1 0 1 1 0 2 1 1 0 0 1 0-2M605 72a1 1 0 1 1 0 2 1 1 0 0 1 0-2M619 72a1 1 0 1 1 0 2 1 1 0 0 1 0-2M633 72a1 1 0 1 1 0 2 1 1 0 0 1 0-2M647 72a1 1 0 1 1 0 2 1 1 0 0 1 0-2M661 72a1 1 0 1 1 0 2 1 1 0 0 1 0-2M675 72a1 1 0 1 1 0 2 1 1 0 0 1 0-2M689 72a1 1 0 1 1 0 2 1 1 0 0 1 0-2M703 72a1 1 0 1 1 0 2 1 1 0 0 1 0-2M717 72a1 1 0 1 1 0 2 1 1 0 0 1 0-2M-11 58a1 1 0 1 1 0 2 1 1 0 0 1 0-2M3 58a1 1 0 1 1 0 2 1 1 0 0 1 0-2M17 58a1 1 0 1 1 0 2 1 1 0 0 1 0-2M31 58a1 1 0 1 1 0 2 1 1 0 0 1 0-2M45 58a1 1 0 1 1 0 2 1 1 0 0 1 0-2M59 58a1 1 0 1 1 0 2 1 1 0 0 1 0-2M73 58a1 1 0 1 1 0 2 1 1 0 0 1 0-2M87 58a1 1 0 1 1 0 2 1 1 0 0 1 0-2M101 58a1 1 0 1 1 0 2 1 1 0 0 1 0-2M115 58a1 1 0 1 1 0 2 1 1 0 0 1 0-2M129 58a1 1 0 1 1 0 2 1 1 0 0 1 0-2M143 58a1 1 0 1 1 0 2 1 1 0 0 1 0-2M157 58a1 1 0 1 1 0 2 1 1 0 0 1 0-2M171 58a1 1 0 1 1 0 2 1 1 0 0 1 0-2M185 58a1 1 0 1 1 0 2 1 1 0 0 1 0-2M199 58a1 1 0 1 1 0 2 1 1 0 0 1 0-2M213 58a1 1 0 1 1 0 2 1 1 0 0 1 0-2M227 58a1 1 0 1 1 0 2 1 1 0 0 1 0-2M241 58a1 1 0 1 1 0 2 1 1 0 0 1 0-2M255 58a1 1 0 1 1 0 2 1 1 0 0 1 0-2M269 58a1 1 0 1 1 0 2 1 1 0 0 1 0-2M283 58a1 1 0 1 1 0 2 1 1 0 0 1 0-2M297 58a1 1 0 1 1 0 2 1 1 0 0 1 0-2M311 58a1 1 0 1 1 0 2 1 1 0 0 1 0-2M325 58a1 1 0 1 1 0 2 1 1 0 0 1 0-2M339 58a1 1 0 1 1 0 2 1 1 0 0 1 0-2M353 58a1 1 0 1 1 0 2 1 1 0 0 1 0-2M367 58a1 1 0 1 1 0 2 1 1 0 0 1 0-2M381 58a1 1 0 1 1 0 2 1 1 0 0 1 0-2M395 58a1 1 0 1 1 0 2 1 1 0 0 1 0-2M409 58a1 1 0 1 1 0 2 1 1 0 0 1 0-2M423 58a1 1 0 1 1 0 2 1 1 0 0 1 0-2M437 58a1 1 0 1 1 0 2 1 1 0 0 1 0-2M451 58a1 1 0 1 1 0 2 1 1 0 0 1 0-2M465 58a1 1 0 1 1 0 2 1 1 0 0 1 0-2M479 58a1 1 0 1 1 0 2 1 1 0 0 1 0-2M493 58a1 1 0 1 1 0 2 1 1 0 0 1 0-2M507 58a1 1 0 1 1 0 2 1 1 0 0 1 0-2M521 58a1 1 0 1 1 0 2 1 1 0 0 1 0-2M535 58a1 1 0 1 1 0 2 1 1 0 0 1 0-2M549 58a1 1 0 1 1 0 2 1 1 0 0 1 0-2M563 58a1 1 0 1 1 0 2 1 1 0 0 1 0-2M577 58a1 1 0 1 1 0 2 1 1 0 0 1 0-2M591 58a1 1 0 1 1 0 2 1 1 0 0 1 0-2M605 58a1 1 0 1 1 0 2 1 1 0 0 1 0-2M619 58a1 1 0 1 1 0 2 1 1 0 0 1 0-2M633 58a1 1 0 1 1 0 2 1 1 0 0 1 0-2M647 58a1 1 0 1 1 0 2 1 1 0 0 1 0-2M661 58a1 1 0 1 1 0 2 1 1 0 0 1 0-2M675 58a1 1 0 1 1 0 2 1 1 0 0 1 0-2M689 58a1 1 0 1 1 0 2 1 1 0 0 1 0-2M703 58a1 1 0 1 1 0 2 1 1 0 0 1 0-2M717 58a1 1 0 1 1 0 2 1 1 0 0 1 0-2M-11 44a1 1 0 1 1 0 2 1 1 0 0 1 0-2M3 44a1 1 0 1 1 0 2 1 1 0 0 1 0-2M17 44a1 1 0 1 1 0 2 1 1 0 0 1 0-2M31 44a1 1 0 1 1 0 2 1 1 0 0 1 0-2M45 44a1 1 0 1 1 0 2 1 1 0 0 1 0-2M59 44a1 1 0 1 1 0 2 1 1 0 0 1 0-2M73 44a1 1 0 1 1 0 2 1 1 0 0 1 0-2M87 44a1 1 0 1 1 0 2 1 1 0 0 1 0-2M101 44a1 1 0 1 1 0 2 1 1 0 0 1 0-2M115 44a1 1 0 1 1 0 2 1 1 0 0 1 0-2M129 44a1 1 0 1 1 0 2 1 1 0 0 1 0-2M143 44a1 1 0 1 1 0 2 1 1 0 0 1 0-2M157 44a1 1 0 1 1 0 2 1 1 0 0 1 0-2M171 44a1 1 0 1 1 0 2 1 1 0 0 1 0-2M185 44a1 1 0 1 1 0 2 1 1 0 0 1 0-2M199 44a1 1 0 1 1 0 2 1 1 0 0 1 0-2M213 44a1 1 0 1 1 0 2 1 1 0 0 1 0-2M227 44a1 1 0 1 1 0 2 1 1 0 0 1 0-2M241 44a1 1 0 1 1 0 2 1 1 0 0 1 0-2M255 44a1 1 0 1 1 0 2 1 1 0 0 1 0-2M269 44a1 1 0 1 1 0 2 1 1 0 0 1 0-2M283 44a1 1 0 1 1 0 2 1 1 0 0 1 0-2M297 44a1 1 0 1 1 0 2 1 1 0 0 1 0-2M311 44a1 1 0 1 1 0 2 1 1 0 0 1 0-2M325 44a1 1 0 1 1 0 2 1 1 0 0 1 0-2M339 44a1 1 0 1 1 0 2 1 1 0 0 1 0-2M353 44a1 1 0 1 1 0 2 1 1 0 0 1 0-2M367 44a1 1 0 1 1 0 2 1 1 0 0 1 0-2M381 44a1 1 0 1 1 0 2 1 1 0 0 1 0-2M395 44a1 1 0 1 1 0 2 1 1 0 0 1 0-2M409 44a1 1 0 1 1 0 2 1 1 0 0 1 0-2M423 44a1 1 0 1 1 0 2 1 1 0 0 1 0-2M437 44a1 1 0 1 1 0 2 1 1 0 0 1 0-2M451 44a1 1 0 1 1 0 2 1 1 0 0 1 0-2M465 44a1 1 0 1 1 0 2 1 1 0 0 1 0-2M479 44a1 1 0 1 1 0 2 1 1 0 0 1 0-2M493 44a1 1 0 1 1 0 2 1 1 0 0 1 0-2M507 44a1 1 0 1 1 0 2 1 1 0 0 1 0-2M521 44a1 1 0 1 1 0 2 1 1 0 0 1 0-2M535 44a1 1 0 1 1 0 2 1 1 0 0 1 0-2M549 44a1 1 0 1 1 0 2 1 1 0 0 1 0-2M563 44a1 1 0 1 1 0 2 1 1 0 0 1 0-2M577 44a1 1 0 1 1 0 2 1 1 0 0 1 0-2M591 44a1 1 0 1 1 0 2 1 1 0 0 1 0-2M605 44a1 1 0 1 1 0 2 1 1 0 0 1 0-2M619 44a1 1 0 1 1 0 2 1 1 0 0 1 0-2M633 44a1 1 0 1 1 0 2 1 1 0 0 1 0-2M647 44a1 1 0 1 1 0 2 1 1 0 0 1 0-2M661 44a1 1 0 1 1 0 2 1 1 0 0 1 0-2M675 44a1 1 0 1 1 0 2 1 1 0 0 1 0-2M689 44a1 1 0 1 1 0 2 1 1 0 0 1 0-2M703 44a1 1 0 1 1 0 2 1 1 0 0 1 0-2M717 44a1 1 0 1 1 0 2 1 1 0 0 1 0-2M-11 30a1 1 0 1 1 0 2 1 1 0 0 1 0-2M3 30a1 1 0 1 1 0 2 1 1 0 0 1 0-2M17 30a1 1 0 1 1 0 2 1 1 0 0 1 0-2M31 30a1 1 0 1 1 0 2 1 1 0 0 1 0-2M45 30a1 1 0 1 1 0 2 1 1 0 0 1 0-2M59 30a1 1 0 1 1 0 2 1 1 0 0 1 0-2M73 30a1 1 0 1 1 0 2 1 1 0 0 1 0-2M87 30a1 1 0 1 1 0 2 1 1 0 0 1 0-2M101 30a1 1 0 1 1 0 2 1 1 0 0 1 0-2M115 30a1 1 0 1 1 0 2 1 1 0 0 1 0-2M129 30a1 1 0 1 1 0 2 1 1 0 0 1 0-2M143 30a1 1 0 1 1 0 2 1 1 0 0 1 0-2M157 30a1 1 0 1 1 0 2 1 1 0 0 1 0-2M171 30a1 1 0 1 1 0 2 1 1 0 0 1 0-2M185 30a1 1 0 1 1 0 2 1 1 0 0 1 0-2M199 30a1 1 0 1 1 0 2 1 1 0 0 1 0-2M213 30a1 1 0 1 1 0 2 1 1 0 0 1 0-2M227 30a1 1 0 1 1 0 2 1 1 0 0 1 0-2M241 30a1 1 0 1 1 0 2 1 1 0 0 1 0-2M255 30a1 1 0 1 1 0 2 1 1 0 0 1 0-2M269 30a1 1 0 1 1 0 2 1 1 0 0 1 0-2M283 30a1 1 0 1 1 0 2 1 1 0 0 1 0-2M297 30a1 1 0 1 1 0 2 1 1 0 0 1 0-2M311 30a1 1 0 1 1 0 2 1 1 0 0 1 0-2M325 30a1 1 0 1 1 0 2 1 1 0 0 1 0-2M339 30a1 1 0 1 1 0 2 1 1 0 0 1 0-2M353 30a1 1 0 1 1 0 2 1 1 0 0 1 0-2M367 30a1 1 0 1 1 0 2 1 1 0 0 1 0-2M381 30a1 1 0 1 1 0 2 1 1 0 0 1 0-2M395 30a1 1 0 1 1 0 2 1 1 0 0 1 0-2M409 30a1 1 0 1 1 0 2 1 1 0 0 1 0-2M423 30a1 1 0 1 1 0 2 1 1 0 0 1 0-2M437 30a1 1 0 1 1 0 2 1 1 0 0 1 0-2M451 30a1 1 0 1 1 0 2 1 1 0 0 1 0-2M465 30a1 1 0 1 1 0 2 1 1 0 0 1 0-2M479 30a1 1 0 1 1 0 2 1 1 0 0 1 0-2M493 30a1 1 0 1 1 0 2 1 1 0 0 1 0-2M507 30a1 1 0 1 1 0 2 1 1 0 0 1 0-2M521 30a1 1 0 1 1 0 2 1 1 0 0 1 0-2M535 30a1 1 0 1 1 0 2 1 1 0 0 1 0-2M549 30a1 1 0 1 1 0 2 1 1 0 0 1 0-2M563 30a1 1 0 1 1 0 2 1 1 0 0 1 0-2M577 30a1 1 0 1 1 0 2 1 1 0 0 1 0-2M591 30a1 1 0 1 1 0 2 1 1 0 0 1 0-2M605 30a1 1 0 1 1 0 2 1 1 0 0 1 0-2M619 30a1 1 0 1 1 0 2 1 1 0 0 1 0-2M633 30a1 1 0 1 1 0 2 1 1 0 0 1 0-2M647 30a1 1 0 1 1 0 2 1 1 0 0 1 0-2M661 30a1 1 0 1 1 0 2 1 1 0 0 1 0-2M675 30a1 1 0 1 1 0 2 1 1 0 0 1 0-2M689 30a1 1 0 1 1 0 2 1 1 0 0 1 0-2M703 30a1 1 0 1 1 0 2 1 1 0 0 1 0-2M717 30a1 1 0 1 1 0 2 1 1 0 0 1 0-2M-11 16a1 1 0 1 1 0 2 1 1 0 0 1 0-2M3 16a1 1 0 1 1 0 2 1 1 0 0 1 0-2M17 16a1 1 0 1 1 0 2 1 1 0 0 1 0-2M31 16a1 1 0 1 1 0 2 1 1 0 0 1 0-2M45 16a1 1 0 1 1 0 2 1 1 0 0 1 0-2M59 16a1 1 0 1 1 0 2 1 1 0 0 1 0-2M73 16a1 1 0 1 1 0 2 1 1 0 0 1 0-2M87 16a1 1 0 1 1 0 2 1 1 0 0 1 0-2M101 16a1 1 0 1 1 0 2 1 1 0 0 1 0-2M115 16a1 1 0 1 1 0 2 1 1 0 0 1 0-2M129 16a1 1 0 1 1 0 2 1 1 0 0 1 0-2M143 16a1 1 0 1 1 0 2 1 1 0 0 1 0-2M157 16a1 1 0 1 1 0 2 1 1 0 0 1 0-2M171 16a1 1 0 1 1 0 2 1 1 0 0 1 0-2M185 16a1 1 0 1 1 0 2 1 1 0 0 1 0-2M199 16a1 1 0 1 1 0 2 1 1 0 0 1 0-2M213 16a1 1 0 1 1 0 2 1 1 0 0 1 0-2M227 16a1 1 0 1 1 0 2 1 1 0 0 1 0-2M241 16a1 1 0 1 1 0 2 1 1 0 0 1 0-2M255 16a1 1 0 1 1 0 2 1 1 0 0 1 0-2M269 16a1 1 0 1 1 0 2 1 1 0 0 1 0-2M283 16a1 1 0 1 1 0 2 1 1 0 0 1 0-2M297 16a1 1 0 1 1 0 2 1 1 0 0 1 0-2M311 16a1 1 0 1 1 0 2 1 1 0 0 1 0-2M325 16a1 1 0 1 1 0 2 1 1 0 0 1 0-2M339 16a1 1 0 1 1 0 2 1 1 0 0 1 0-2M353 16a1 1 0 1 1 0 2 1 1 0 0 1 0-2M367 16a1 1 0 1 1 0 2 1 1 0 0 1 0-2M381 16a1 1 0 1 1 0 2 1 1 0 0 1 0-2M395 16a1 1 0 1 1 0 2 1 1 0 0 1 0-2M409 16a1 1 0 1 1 0 2 1 1 0 0 1 0-2M423 16a1 1 0 1 1 0 2 1 1 0 0 1 0-2M437 16a1 1 0 1 1 0 2 1 1 0 0 1 0-2M451 16a1 1 0 1 1 0 2 1 1 0 0 1 0-2M465 16a1 1 0 1 1 0 2 1 1 0 0 1 0-2M479 16a1 1 0 1 1 0 2 1 1 0 0 1 0-2M493 16a1 1 0 1 1 0 2 1 1 0 0 1 0-2M507 16a1 1 0 1 1 0 2 1 1 0 0 1 0-2M521 16a1 1 0 1 1 0 2 1 1 0 0 1 0-2M535 16a1 1 0 1 1 0 2 1 1 0 0 1 0-2M549 16a1 1 0 1 1 0 2 1 1 0 0 1 0-2M563 16a1 1 0 1 1 0 2 1 1 0 0 1 0-2M577 16a1 1 0 1 1 0 2 1 1 0 0 1 0-2M591 16a1 1 0 1 1 0 2 1 1 0 0 1 0-2M605 16a1 1 0 1 1 0 2 1 1 0 0 1 0-2M619 16a1 1 0 1 1 0 2 1 1 0 0 1 0-2M633 16a1 1 0 1 1 0 2 1 1 0 0 1 0-2M647 16a1 1 0 1 1 0 2 1 1 0 0 1 0-2M661 16a1 1 0 1 1 0 2 1 1 0 0 1 0-2M675 16a1 1 0 1 1 0 2 1 1 0 0 1 0-2M689 16a1 1 0 1 1 0 2 1 1 0 0 1 0-2M703 16a1 1 0 1 1 0 2 1 1 0 0 1 0-2M717 16a1 1 0 1 1 0 2 1 1 0 0 1 0-2M-11 2a1 1 0 1 1 0 2 1 1 0 0 1 0-2M3 2a1 1 0 1 1 0 2 1 1 0 0 1 0-2M17 2a1 1 0 1 1 0 2 1 1 0 0 1 0-2M31 2a1 1 0 1 1 0 2 1 1 0 0 1 0-2M45 2a1 1 0 1 1 0 2 1 1 0 0 1 0-2M59 2a1 1 0 1 1 0 2 1 1 0 0 1 0-2M73 2a1 1 0 1 1 0 2 1 1 0 0 1 0-2M87 2a1 1 0 1 1 0 2 1 1 0 0 1 0-2M101 2a1 1 0 1 1 0 2 1 1 0 0 1 0-2M115 2a1 1 0 1 1 0 2 1 1 0 0 1 0-2M129 2a1 1 0 1 1 0 2 1 1 0 0 1 0-2M143 2a1 1 0 1 1 0 2 1 1 0 0 1 0-2M157 2a1 1 0 1 1 0 2 1 1 0 0 1 0-2M171 2a1 1 0 1 1 0 2 1 1 0 0 1 0-2M185 2a1 1 0 1 1 0 2 1 1 0 0 1 0-2M199 2a1 1 0 1 1 0 2 1 1 0 0 1 0-2M213 2a1 1 0 1 1 0 2 1 1 0 0 1 0-2M227 2a1 1 0 1 1 0 2 1 1 0 0 1 0-2M241 2a1 1 0 1 1 0 2 1 1 0 0 1 0-2M255 2a1 1 0 1 1 0 2 1 1 0 0 1 0-2M269 2a1 1 0 1 1 0 2 1 1 0 0 1 0-2M283 2a1 1 0 1 1 0 2 1 1 0 0 1 0-2M297 2a1 1 0 1 1 0 2 1 1 0 0 1 0-2M311 2a1 1 0 1 1 0 2 1 1 0 0 1 0-2M325 2a1 1 0 1 1 0 2 1 1 0 0 1 0-2M339 2a1 1 0 1 1 0 2 1 1 0 0 1 0-2M353 2a1 1 0 1 1 0 2 1 1 0 0 1 0-2M367 2a1 1 0 1 1 0 2 1 1 0 0 1 0-2M381 2a1 1 0 1 1 0 2 1 1 0 0 1 0-2M395 2a1 1 0 1 1 0 2 1 1 0 0 1 0-2M409 2a1 1 0 1 1 0 2 1 1 0 0 1 0-2M423 2a1 1 0 1 1 0 2 1 1 0 0 1 0-2M437 2a1 1 0 1 1 0 2 1 1 0 0 1 0-2M451 2a1 1 0 1 1 0 2 1 1 0 0 1 0-2M465 2a1 1 0 1 1 0 2 1 1 0 0 1 0-2M479 2a1 1 0 1 1 0 2 1 1 0 0 1 0-2M493 2a1 1 0 1 1 0 2 1 1 0 0 1 0-2M507 2a1 1 0 1 1 0 2 1 1 0 0 1 0-2M521 2a1 1 0 1 1 0 2 1 1 0 0 1 0-2M535 2a1 1 0 1 1 0 2 1 1 0 0 1 0-2M549 2a1 1 0 1 1 0 2 1 1 0 0 1 0-2M563 2a1 1 0 1 1 0 2 1 1 0 0 1 0-2M577 2a1 1 0 1 1 0 2 1 1 0 0 1 0-2M591 2a1 1 0 1 1 0 2 1 1 0 0 1 0-2M605 2a1 1 0 1 1 0 2 1 1 0 0 1 0-2M619 2a1 1 0 1 1 0 2 1 1 0 0 1 0-2M633 2a1 1 0 1 1 0 2 1 1 0 0 1 0-2M647 2a1 1 0 1 1 0 2 1 1 0 0 1 0-2M661 2a1 1 0 1 1 0 2 1 1 0 0 1 0-2M675 2a1 1 0 1 1 0 2 1 1 0 0 1 0-2M689 2a1 1 0 1 1 0 2 1 1 0 0 1 0-2M703 2a1 1 0 1 1 0 2 1 1 0 0 1 0-2M717 2a1 1 0 1 1 0 2 1 1 0 0 1 0-2"/></g><rect width="222.5" height="214" x="14.25" y="44.25" fill="#3d50f5" fill-opacity=".04" rx="3.75"/><rect width="222.5" height="214" x="14.25" y="44.25" stroke="#3d50f5" stroke-dasharray="6 6" stroke-width=".5" rx="3.75"/><rect width="88.5" height="88.5" x="30.5" y="60.5" fill="#cfd4fc" rx="9.5"/><rect width="88.5" height="88.5" x="30.5" y="60.5" stroke="#3d50f5" rx="9.5"/><rect width="88.5" height="88.5" x="132" y="60.5" fill="#cfd4fc" rx="9.5"/><rect width="88.5" height="88.5" x="132" y="60.5" stroke="#3d50f5" rx="9.5"/><rect width="190" height="80" x="30.5" y="162" fill="#cfd4fc" rx="9.5"/><rect width="190" height="80" x="30.5" y="162" stroke="#3d50f5" rx="9.5"/><rect width="222.5" height="214" x="248.25" y="44.25" fill="#00695c" fill-opacity=".04" rx="3.75"/><rect width="222.5" height="214" x="248.25" y="44.25" stroke="#00695c" stroke-dasharray="6 6" stroke-width=".5" rx="3.75"/><mask id="c" fill="#fff"><path d="M445 60c5.35 0 9.719 4.202 9.987 9.485q.013.255.013.515v162c0 5.523-4.477 10-10 10H274c-5.523 0-10-4.477-10-10v-60c0-5.523 4.477-10 10-10h133v-54H274c-5.523 0-10-4.477-10-10V70c0-5.523 4.477-10 10-10z"/></mask><path fill="#d6e7e5" d="M445 60c5.35 0 9.719 4.202 9.987 9.485q.013.255.013.515v162c0 5.523-4.477 10-10 10H274c-5.523 0-10-4.477-10-10v-60c0-5.523 4.477-10 10-10h133v-54H274c-5.523 0-10-4.477-10-10V70c0-5.523 4.477-10 10-10z"/><path fill="#00695c" d="m454.987 69.485-.998.051zM455 70h1zm-48 92v1h1v-1zm0-54h1v-1h-1zm38-48v1a9 9 0 0 1 8.989 8.536l.998-.05.999-.051C455.691 63.622 450.886 59 445 59zm9.987 9.485-.998.051q.01.228.011.464h2q0-.282-.014-.565zM455 70h-1v162h2V70zm0 162h-1a9 9 0 0 1-9 9v2c6.075 0 11-4.925 11-11zm-10 10v-1H274v2h171zm-171 0v-1a9 9 0 0 1-9-9h-2c0 6.075 4.925 11 11 11zm-10-10h1v-60h-2v60zm0-60h1a9 9 0 0 1 9-9v-2c-6.075 0-11 4.925-11 11zm10-10v1h133v-2H274zm133 0h1v-54h-2v54zm0-54v-1H274v2h133zm-133 0v-1a9 9 0 0 1-9-9h-2c0 6.075 4.925 11 11 11zm-10-10h1V70h-2v28zm0-28h1a9 9 0 0 1 9-9v-2c-6.075 0-11 4.925-11 11zm10-10v1h171v-2H274z" mask="url(#c)"/><path fill="#bb3df5" fill-opacity=".04" d="M590.757 44v.25h2.743v2.736h.25v5.972h-.25v5.973h.25v5.971h-.25v5.973h.25v5.973h-.25v5.971h.25v5.973h-.25v5.972h.25v5.972h-.25v5.972h.25v5.973h-.25v5.971h.25v5.973h-.25v5.973h.25v5.971h-.25v5.973h.25v5.972h-.25v5.972h.25v5.972h-.25v5.973h.25v5.971h-.25v5.973h.25v5.973h-.25v5.971h.25v5.973h-.25v5.972h.25v5.972h-.25v5.972h.25v5.973h-.25v5.971h.25v5.973h-.25v5.973h.25v5.971h-.25v5.973h.25v5.972h-.25v2.736h-2.743v.25h-5.986v-.25h-5.986v.25h-5.986v-.25h-5.987v.25h-5.986v-.25h-5.986v.25h-5.986v-.25h-5.986v.25h-5.986v-.25h-5.986v.25h-5.986v-.25h-5.986v.25h-5.986v-.25h-5.987v.25h-5.986v-.25h-5.986v.25h-5.986v-.25H486c-.509 0-.994-.101-1.436-.284l-.095.229a4 4 0 0 1-2.165-2.165l.23-.094a3.75 3.75 0 0 1-.284-1.436v-3.044H482v-6.088h.25v-6.089H482v-6.088h.25v-6.088H482v-6.088h.25v-6.088H482v-6.089h.25v-6.088H482v-6.088h.25v-6.089H482v-6.088h.25v-6.088H482v-6.088h.25v-6.088H482v-6.088h.25v-6.089H482v-6.088h.25v-6.089H482v-6.088h.25v-6.088H482v-6.088h.25v-6.088H482v-6.088h.25v-6.089H482V99.75h.25v-6.088H482v-6.089h.25v-6.088H482v-6.088h.25V69.31H482V63.22h.25v-6.088H482v-6.09h.25V48c0-.509.101-.994.284-1.435l-.23-.096a4 4 0 0 1 2.165-2.165l.095.23c.387-.16.807-.257 1.247-.28l.189-.004h2.993V44h5.986v.25h5.986V44h5.986v.25h5.987V44h5.986v.25h5.986V44h5.986v.25h5.986V44h5.986v.25h5.986V44h5.986v.25h5.986V44h5.986v.25h5.987V44h5.986v.25h5.986V44z"/><path stroke="#bb3df5" stroke-dasharray="6 6" stroke-width=".5" d="M590.757 44v.25h2.743v2.736h.25v5.972h-.25v5.973h.25v5.971h-.25v5.973h.25v5.973h-.25v5.971h.25v5.973h-.25v5.972h.25v5.972h-.25v5.972h.25v5.973h-.25v5.971h.25v5.973h-.25v5.973h.25v5.971h-.25v5.973h.25v5.972h-.25v5.972h.25v5.972h-.25v5.973h.25v5.971h-.25v5.973h.25v5.973h-.25v5.971h.25v5.973h-.25v5.972h.25v5.972h-.25v5.972h.25v5.973h-.25v5.971h.25v5.973h-.25v5.973h.25v5.971h-.25v5.973h.25v5.972h-.25v2.736h-2.743v.25h-5.986v-.25h-5.986v.25h-5.986v-.25h-5.987v.25h-5.986v-.25h-5.986v.25h-5.986v-.25h-5.986v.25h-5.986v-.25h-5.986v.25h-5.986v-.25h-5.986v.25h-5.986v-.25h-5.987v.25h-5.986v-.25h-5.986v.25h-5.986v-.25H486c-.509 0-.994-.101-1.436-.284l-.095.229a4 4 0 0 1-2.165-2.165l.23-.094a3.75 3.75 0 0 1-.284-1.436v-3.044H482v-6.088h.25v-6.089H482v-6.088h.25v-6.088H482v-6.088h.25v-6.088H482v-6.089h.25v-6.088H482v-6.088h.25v-6.089H482v-6.088h.25v-6.088H482v-6.088h.25v-6.088H482v-6.088h.25v-6.089H482v-6.088h.25v-6.089H482v-6.088h.25v-6.088H482v-6.088h.25v-6.088H482v-6.088h.25v-6.089H482V99.75h.25v-6.088H482v-6.089h.25v-6.088H482v-6.088h.25V69.31H482V63.22h.25v-6.088H482v-6.09h.25V48c0-.509.101-.994.284-1.435l-.23-.096a4 4 0 0 1 2.165-2.165l.095.23c.387-.16.807-.257 1.247-.28l.189-.004h2.993V44h5.986v.25h5.986V44h5.986v.25h5.987V44h5.986v.25h5.986V44h5.986v.25h5.986V44h5.986v.25h5.986V44h5.986v.25h5.986V44h5.986v.25h5.987V44h5.986v.25h5.986V44z"/><rect width="79" height="182" x="498.5" y="60.5" fill="#edd1fa" rx="9.5"/><rect width="79" height="182" x="498.5" y="60.5" stroke="#bb3df5" rx="9.5"/><path fill="#660891" d="M509.189 156v-8.727h1.317v7.593h3.955V156zm9.492.132q-.966 0-1.666-.413a2.8 2.8 0 0 1-1.074-1.172q-.375-.759-.375-1.777 0-1.006.375-1.773a2.9 2.9 0 0 1 1.057-1.197q.682-.43 1.594-.431.554 0 1.074.184.52.183.933.575t.652 1.018q.239.622.239 1.513v.452h-5.203v-.955h3.954q0-.503-.204-.89a1.55 1.55 0 0 0-.576-.618 1.6 1.6 0 0 0-.861-.226q-.536 0-.937.264a1.8 1.8 0 0 0-.614.682 2 2 0 0 0-.213.908v.745q0 .657.23 1.117.235.46.652.703.418.239.976.239.363 0 .661-.103.298-.107.515-.315a1.4 1.4 0 0 0 .333-.516l1.206.218q-.145.532-.52.933-.37.396-.933.618a3.5 3.5 0 0 1-1.275.217m7.337-6.677v1.022h-3.698v-1.022zM523.334 156v-7.304q0-.614.268-1.018.268-.41.712-.61.442-.204.963-.204.384 0 .656.064.273.059.405.11l-.298 1.032-.23-.06a1.3 1.3 0 0 0-.341-.038q-.464 0-.665.23-.196.23-.196.664V156zm7.054-6.545v1.022h-3.575v-1.022zm-2.616-1.569h1.274v6.192q0 .37.111.558a.58.58 0 0 0 .285.252q.18.064.388.064.154 0 .269-.022l.179-.034.23 1.053a2.516 2.516 0 0 1-.827.136 2.2 2.2 0 0 1-.937-.179 1.6 1.6 0 0 1-.704-.579q-.268-.393-.268-.985zm7.304 8.114v-8.727h3.111q1.018 0 1.687.37.669.372 1.002 1.015.332.639.332 1.44 0 .805-.337 1.449a2.43 2.43 0 0 1-1.005 1.014q-.669.37-1.683.371h-2.14v-1.117h2.02q.644 0 1.044-.221.4-.226.588-.614.188-.387.188-.882t-.188-.878a1.34 1.34 0 0 0-.592-.601q-.4-.217-1.057-.217h-1.653V156zm9.42.145q-.623 0-1.125-.23a1.9 1.9 0 0 1-.797-.678q-.29-.442-.29-1.086 0-.555.213-.912.213-.359.575-.567.363-.209.81-.315t.912-.162l.955-.111q.366-.047.532-.149.166-.103.166-.333v-.03q0-.558-.315-.865-.31-.306-.929-.306-.644 0-1.014.285-.366.281-.507.626l-1.198-.272q.213-.597.623-.963.413-.37.95-.537a3.7 3.7 0 0 1 1.129-.171q.391 0 .831.094.444.09.827.332.387.243.635.695.246.447.247 1.163V156h-1.244v-.895h-.052a1.8 1.8 0 0 1-.37.486 2 2 0 0 1-.635.396 2.5 2.5 0 0 1-.929.158m.277-1.023q.528 0 .903-.209.38-.209.575-.545a1.4 1.4 0 0 0 .201-.729v-.844a.65.65 0 0 1-.264.128q-.192.056-.439.098l-.482.073-.392.051a3 3 0 0 0-.678.158q-.302.11-.485.319-.18.205-.179.546 0 .473.349.716.35.238.891.238m5.924-3.008V156h-1.274v-6.545h1.223v1.065h.081q.225-.52.707-.835.486-.316 1.223-.316.67 0 1.172.282.503.276.78.826t.277 1.36V156h-1.274v-4.01q0-.711-.371-1.112-.371-.405-1.018-.405-.444 0-.789.192a1.4 1.4 0 0 0-.541.562q-.196.367-.196.887m8.719 4.018q-.967 0-1.666-.413a2.8 2.8 0 0 1-1.074-1.172q-.375-.759-.375-1.777 0-1.006.375-1.773.38-.766 1.057-1.197.681-.43 1.593-.431.555 0 1.074.184.52.183.933.575t.652 1.018q.24.622.239 1.513v.452h-5.203v-.955h3.954q0-.503-.204-.89a1.54 1.54 0 0 0-.575-.618 1.6 1.6 0 0 0-.861-.226q-.537 0-.938.264a1.8 1.8 0 0 0-.613.682 2 2 0 0 0-.213.908v.745q0 .657.23 1.117.234.46.652.703.417.239.976.239.361 0 .66-.103a1.368 1.368 0 0 0 .848-.831l1.206.218q-.144.532-.52.933-.37.396-.933.618a3.5 3.5 0 0 1-1.274.217m5.496-8.859V156h-1.274v-8.727z"/><path fill="#bb3df5" fill-opacity=".04" d="M698.007 44v.25H701c.509 0 .994.101 1.436.284l.094-.23a4 4 0 0 1 2.165 2.165l-.229.096c.183.441.284.926.284 1.435v3.044h.25v6.088h-.25v6.089h.25v6.088h-.25v6.088h.25v6.088h-.25v6.088h.25v6.09h-.25v6.087h.25v6.088h-.25v6.089h.25v6.088h-.25v6.088h.25v6.088h-.25v6.088h.25v6.088h-.25v6.089h.25v6.088h-.25v6.089h.25v6.088h-.25v6.088h.25v6.088h-.25v6.088h.25v6.088h-.25v6.089h.25v6.088h-.25v6.088h.25v6.089h-.25v6.088h.25v6.088h-.25v6.088h.25v6.088h-.25v6.088h.25v6.089h-.25V255c0 .509-.101.994-.284 1.436l.229.094a4 4 0 0 1-2.165 2.165l-.094-.229a3.75 3.75 0 0 1-1.436.284h-2.993v.25h-5.986v-.25h-5.986v.25h-5.986v-.25h-5.987v.25h-5.986v-.25h-5.986v.25h-5.986v-.25h-5.986v.25h-5.986v-.25h-5.986v.25h-5.986v-.25h-5.986v.25h-5.986v-.25h-5.987v.25h-5.986v-.25h-5.986v.25h-5.986v-.25H593.5v-2.736h-.25v-5.972h.25v-5.973h-.25v-5.971h.25v-5.973h-.25v-5.973h.25v-5.971h-.25v-5.973h.25v-5.972h-.25v-5.972h.25v-5.972h-.25v-5.973h.25v-5.971h-.25v-5.973h.25v-5.973h-.25v-5.971h.25v-5.973h-.25v-5.972h.25v-5.972h-.25v-5.972h.25v-5.973h-.25v-5.971h.25v-5.973h-.25v-5.973h.25v-5.971h-.25v-5.973h.25v-5.972h-.25v-5.972h.25v-5.972h-.25v-5.973h.25v-5.971h-.25v-5.973h.25v-5.973h-.25v-5.971h.25v-5.973h-.25v-5.972h.25V44.25h2.743V44h5.986v.25h5.986V44h5.986v.25h5.987V44h5.986v.25h5.986V44h5.986v.25h5.986V44h5.986v.25h5.986V44h5.986v.25h5.986V44h5.986v.25h5.987V44h5.986v.25h5.986V44z"/><path stroke="#bb3df5" stroke-dasharray="6 6" stroke-width=".5" d="M698.007 44v.25H701c.509 0 .994.101 1.436.284l.094-.23a4 4 0 0 1 2.165 2.165l-.229.096c.183.441.284.926.284 1.435v3.044h.25v6.088h-.25v6.089h.25v6.088h-.25v6.088h.25v6.088h-.25v6.088h.25v6.09h-.25v6.087h.25v6.088h-.25v6.089h.25v6.088h-.25v6.088h.25v6.088h-.25v6.088h.25v6.088h-.25v6.089h.25v6.088h-.25v6.089h.25v6.088h-.25v6.088h.25v6.088h-.25v6.088h.25v6.088h-.25v6.089h.25v6.088h-.25v6.088h.25v6.089h-.25v6.088h.25v6.088h-.25v6.088h.25v6.088h-.25v6.088h.25v6.089h-.25V255c0 .509-.101.994-.284 1.436l.229.094a4 4 0 0 1-2.165 2.165l-.094-.229a3.75 3.75 0 0 1-1.436.284h-2.993v.25h-5.986v-.25h-5.986v.25h-5.986v-.25h-5.987v.25h-5.986v-.25h-5.986v.25h-5.986v-.25h-5.986v.25h-5.986v-.25h-5.986v.25h-5.986v-.25h-5.986v.25h-5.986v-.25h-5.987v.25h-5.986v-.25h-5.986v.25h-5.986v-.25H593.5v-2.736h-.25v-5.972h.25v-5.973h-.25v-5.971h.25v-5.973h-.25v-5.973h.25v-5.971h-.25v-5.973h.25v-5.972h-.25v-5.972h.25v-5.972h-.25v-5.973h.25v-5.971h-.25v-5.973h.25v-5.973h-.25v-5.971h.25v-5.973h-.25v-5.972h.25v-5.972h-.25v-5.972h.25v-5.973h-.25v-5.971h.25v-5.973h-.25v-5.973h.25v-5.971h-.25v-5.973h.25v-5.972h-.25v-5.972h.25v-5.972h-.25v-5.973h.25v-5.971h-.25v-5.973h.25v-5.973h-.25v-5.971h.25v-5.973h-.25v-5.972h.25V44.25h2.743V44h5.986v.25h5.986V44h5.986v.25h5.987V44h5.986v.25h5.986V44h5.986v.25h5.986V44h5.986v.25h5.986V44h5.986v.25h5.986V44h5.986v.25h5.987V44h5.986v.25h5.986V44z"/><rect width="79" height="182" x="609.5" y="60.5" fill="#edd1fa" rx="9.5"/><rect width="79" height="182" x="609.5" y="60.5" stroke="#bb3df5" rx="9.5"/><path fill="#660891" d="M617.138 156v-8.727h3.111q1.014 0 1.684.349.673.35 1.005.967.333.615.333 1.42 0 .801-.337 1.41a2.27 2.27 0 0 1-1.006.942q-.669.336-1.683.336h-2.357v-1.133h2.238q.639 0 1.039-.183.405-.183.593-.533t.187-.839q0-.495-.191-.857a1.24 1.24 0 0 0-.593-.554q-.4-.196-1.052-.196h-1.654V156zm4.309-3.938 2.156 3.938h-1.5l-2.114-3.938zm3.324 3.938v-6.545h1.274V156zm.643-7.555a.8.8 0 0 1-.571-.222.72.72 0 0 1-.234-.537q0-.315.234-.537a.8.8 0 0 1 .571-.226q.333 0 .567.226a.7.7 0 0 1 .238.537.72.72 0 0 1-.238.537.8.8 0 0 1-.567.222m5.089 10.146q-.78 0-1.342-.205a2.6 2.6 0 0 1-.912-.541 2.3 2.3 0 0 1-.528-.737l1.095-.452q.115.187.307.397.195.212.528.362.337.149.865.149.724 0 1.197-.354.474-.35.473-1.116v-1.287h-.081a3 3 0 0 1-.332.464 1.8 1.8 0 0 1-.588.443q-.375.188-.976.188-.776 0-1.398-.362-.617-.367-.98-1.078-.357-.716-.358-1.76 0-1.044.354-1.79.358-.746.98-1.142a2.55 2.55 0 0 1 1.411-.401q.609 0 .984.205.375.2.584.469.213.268.328.473h.094v-1.061h1.248v6.69q0 .843-.392 1.385a2.3 2.3 0 0 1-1.061.801q-.664.26-1.5.26m-.013-3.746q.55 0 .929-.256a1.6 1.6 0 0 0 .58-.741q.2-.486.2-1.163 0-.66-.196-1.164a1.73 1.73 0 0 0-.575-.784q-.379-.285-.938-.285-.575 0-.958.298a1.8 1.8 0 0 0-.58.801 3.2 3.2 0 0 0-.192 1.134q0 .643.196 1.129t.58.758q.388.273.954.273m5.949-2.731V156h-1.274v-8.727h1.257v3.247h.081q.23-.528.703-.84.474-.31 1.236-.311.673 0 1.176.277.508.278.784.827.282.546.282 1.364V156h-1.275v-4.01q0-.72-.37-1.116-.37-.4-1.032-.401-.452 0-.809.192a1.4 1.4 0 0 0-.558.562q-.201.367-.201.887m9-2.659v1.022h-3.575v-1.022zm-2.616-1.569h1.274v6.192q0 .37.111.558a.58.58 0 0 0 .285.252q.18.064.388.064.153 0 .269-.022l.178-.034.231 1.053a2.523 2.523 0 0 1-.827.136 2.24 2.24 0 0 1-.938-.179 1.6 1.6 0 0 1-.703-.579q-.268-.393-.268-.985zm7.304 8.114v-8.727h3.111q1.018 0 1.687.37.67.372 1.001 1.015.333.639.333 1.44 0 .805-.337 1.449a2.44 2.44 0 0 1-1.005 1.014q-.67.37-1.684.371h-2.139v-1.117h2.02q.644 0 1.044-.221.4-.226.588-.614.188-.387.188-.882t-.188-.878a1.34 1.34 0 0 0-.592-.601q-.401-.217-1.057-.217h-1.653V156zm9.42.145q-.622 0-1.125-.23a1.9 1.9 0 0 1-.797-.678q-.29-.442-.29-1.086 0-.555.213-.912.213-.359.575-.567.363-.209.81-.315t.912-.162l.954-.111q.367-.047.533-.149.166-.103.166-.333v-.03q0-.558-.315-.865-.312-.306-.929-.306-.644 0-1.014.285-.368.281-.507.626l-1.198-.272q.214-.597.622-.963.414-.37.951-.537a3.7 3.7 0 0 1 1.129-.171q.391 0 .831.094.443.09.827.332.388.243.634.695.248.447.248 1.163V156h-1.245v-.895h-.051a1.8 1.8 0 0 1-.371.486 2 2 0 0 1-.635.396 2.5 2.5 0 0 1-.928.158m.277-1.023q.528 0 .903-.209.38-.209.575-.545.2-.34.2-.729v-.844q-.067.07-.264.128-.192.056-.439.098-.246.039-.481.073l-.392.051a3 3 0 0 0-.678.158q-.302.11-.486.319-.179.205-.179.546 0 .473.35.716.35.238.891.238m5.924-3.008V156h-1.274v-6.545h1.223v1.065h.081q.225-.52.707-.835.486-.316 1.223-.316.67 0 1.172.282.503.276.78.826t.277 1.36V156h-1.274v-4.01q0-.711-.371-1.112-.37-.405-1.019-.405-.443 0-.788.192a1.4 1.4 0 0 0-.541.562q-.196.367-.196.887m8.719 4.018q-.968 0-1.667-.413a2.8 2.8 0 0 1-1.073-1.172q-.375-.759-.375-1.777 0-1.006.375-1.773a2.9 2.9 0 0 1 1.056-1.197q.682-.43 1.594-.431.553 0 1.074.184.52.183.933.575t.652 1.018q.239.622.239 1.513v.452h-5.203v-.955h3.954q0-.503-.204-.89a1.54 1.54 0 0 0-.576-.618 1.6 1.6 0 0 0-.86-.226q-.537 0-.938.264a1.77 1.77 0 0 0-.613.682 1.96 1.96 0 0 0-.214.908v.745q0 .657.231 1.117.234.46.652.703.417.239.975.239.363 0 .661-.103a1.4 1.4 0 0 0 .516-.315 1.4 1.4 0 0 0 .332-.516l1.206.218q-.145.532-.52.933-.37.396-.933.618a3.5 3.5 0 0 1-1.274.217m5.496-8.859V156h-1.274v-8.727z"/><path fill="#d9d9d9" fill-opacity=".01" d="M578 238h32v21h-32z"/><path fill="#23262f" d="M103.773 28h-3.697V17.09h3.771q1.625.001 2.791.656a4.38 4.38 0 0 1 1.801 1.87q.628 1.22.628 2.919 0 1.704-.633 2.93a4.4 4.4 0 0 1-1.817 1.88q-1.182.655-2.844.655m-1.721-1.71h1.625q1.14 0 1.901-.415a2.66 2.66 0 0 0 1.146-1.252q.383-.837.383-2.088t-.383-2.078q-.384-.83-1.135-1.24-.745-.416-1.854-.416h-1.683zm12.43 1.87q-1.23 0-2.125-.512a3.46 3.46 0 0 1-1.369-1.46q-.48-.947-.48-2.231 0-1.263.48-2.216a3.6 3.6 0 0 1 1.353-1.491q.868-.538 2.04-.538.756 0 1.427.245.676.24 1.194.745.522.506.82 1.29.298.777.298 1.853v.591h-6.706v-1.3h4.858a2.1 2.1 0 0 0-.24-.985 1.75 1.75 0 0 0-.655-.687q-.415-.25-.97-.25-.591 0-1.038.287a2 2 0 0 0-.698.746q-.245.459-.25 1.007v1.134q0 .714.261 1.226.261.505.729.777.47.267 1.098.267.42 0 .761-.117.342-.123.592-.357.25-.235.378-.581l1.8.202q-.17.714-.65 1.247-.474.527-1.214.82-.74.288-1.694.288m9.414-8.342v1.492h-4.837v-1.492zM120.268 28v-8.954q0-.826.341-1.374.347-.55.927-.82a3 3 0 0 1 1.289-.273q.5 0 .89.08.389.081.575.144l-.384 1.492a3 3 0 0 0-.309-.075 2 2 0 0 0-.415-.042q-.538 0-.762.26-.218.256-.218.736V28zm7.214.165a3.4 3.4 0 0 1-1.401-.277 2.3 2.3 0 0 1-.98-.83q-.357-.55-.357-1.354 0-.692.256-1.145a2 2 0 0 1 .697-.725 3.5 3.5 0 0 1 .997-.41 8 8 0 0 1 1.155-.207 45 45 0 0 0 1.167-.133q.447-.065.65-.192.207-.134.208-.41v-.032q0-.602-.357-.933-.357-.33-1.028-.33-.709 0-1.124.31a1.53 1.53 0 0 0-.554.729l-1.801-.256q.213-.745.703-1.246.49-.507 1.199-.757.708-.255 1.566-.255.592 0 1.177.138t1.071.458q.484.315.778.858.297.543.298 1.358V28h-1.854v-1.124h-.064q-.175.34-.495.64-.314.293-.794.473a3.2 3.2 0 0 1-1.113.176m.501-1.417q.58 0 1.006-.229.426-.234.656-.618.234-.383.234-.836v-.964a.9.9 0 0 1-.309.138q-.213.064-.479.112-.267.048-.528.085t-.453.064a3.4 3.4 0 0 0-.772.192 1.3 1.3 0 0 0-.538.373q-.197.234-.197.607 0 .533.389.805.388.27.991.271m10.973-2.19v-4.74h1.928V28h-1.87v-1.454h-.085a2.46 2.46 0 0 1-.911 1.124q-.629.435-1.55.436-.804 0-1.422-.356a2.5 2.5 0 0 1-.959-1.05q-.346-.692-.346-1.672v-5.21h1.928v4.911q0 .778.426 1.236.426.459 1.119.458.426 0 .825-.207a1.7 1.7 0 0 0 .656-.618q.261-.416.261-1.04m5.839-7.467V28h-1.928V17.09zm6.068 2.727v1.492h-4.703v-1.492zm-3.542-1.96h1.928v7.681q0 .39.118.597a.63.63 0 0 0 .319.277q.197.074.437.074.181 0 .33-.026.154-.027.235-.048l.325 1.507a4 4 0 0 1-.443.117 3.6 3.6 0 0 1-.692.075 3.14 3.14 0 0 1-1.305-.218 2.04 2.04 0 0 1-.922-.757q-.334-.51-.33-1.278zM340.005 20.09a1.46 1.46 0 0 0-.629-1.087q-.55-.389-1.427-.389-.618 0-1.061.187a1.57 1.57 0 0 0-.676.506 1.24 1.24 0 0 0-.24.73q0 .34.155.59.16.252.431.427.272.171.602.288t.666.197l1.023.255q.618.144 1.188.39.575.245 1.028.617.458.373.724.9.266.528.266 1.236 0 .96-.49 1.689-.49.724-1.417 1.134-.921.405-2.231.405-1.273 0-2.211-.394-.932-.394-1.46-1.15-.522-.758-.564-1.844h1.944q.043.57.352.948t.804.565q.501.186 1.119.187a3.1 3.1 0 0 0 1.129-.192q.49-.198.767-.544.278-.35.282-.82a1.04 1.04 0 0 0-.25-.703 1.85 1.85 0 0 0-.687-.469 6.6 6.6 0 0 0-1.023-.34l-1.241-.32q-1.348-.346-2.131-1.05-.778-.708-.778-1.88 0-.965.522-1.688.528-.725 1.433-1.124.906-.405 2.051-.405 1.161 0 2.035.405.879.399 1.38 1.113.5.708.516 1.63zm13.15.682h-1.992a2.5 2.5 0 0 0-.315-.869 2.3 2.3 0 0 0-1.347-1.049 3 3 0 0 0-.932-.138q-.89 0-1.577.447-.687.442-1.076 1.3-.389.852-.389 2.082 0 1.252.389 2.11.394.852 1.076 1.289.687.432 1.571.431.49 0 .916-.128.432-.133.773-.388.346-.255.58-.629.24-.373.331-.852l1.992.01a4.3 4.3 0 0 1-.485 1.46 4.3 4.3 0 0 1-.964 1.204 4.5 4.5 0 0 1-1.396.81 5.2 5.2 0 0 1-1.773.287q-1.439 0-2.568-.666t-1.779-1.923-.65-3.014q0-1.763.655-3.015.656-1.258 1.785-1.923 1.13-.666 2.557-.666a5.4 5.4 0 0 1 1.694.255q.783.255 1.395.752.613.489 1.007 1.203.399.709.522 1.62M356.234 28h-2.11l3.841-10.91h2.44L364.25 28h-2.109l-2.914-8.672h-.085zm.069-4.277h5.753v1.587h-5.753zM369.384 28h-3.697V17.09h3.772q1.624.001 2.791.656a4.4 4.4 0 0 1 1.8 1.87q.629 1.22.629 2.919 0 1.704-.634 2.93a4.4 4.4 0 0 1-1.816 1.88q-1.183.655-2.845.655m-1.72-1.71h1.624q1.14 0 1.902-.415.762-.42 1.145-1.252.384-.837.384-2.088t-.384-2.078q-.384-.83-1.135-1.24-.746-.416-1.853-.416h-1.683zm9.707 1.71h-2.109l3.841-10.91h2.439L385.388 28h-2.109l-2.914-8.672h-.085zm.07-4.277h5.753v1.587h-5.753zM572.773 28h-3.697V17.09h3.771q1.625.001 2.791.656a4.38 4.38 0 0 1 1.801 1.87q.628 1.22.628 2.919 0 1.704-.633 2.93a4.4 4.4 0 0 1-1.817 1.88q-1.182.655-2.844.655m-1.721-1.71h1.625q1.14 0 1.901-.415a2.66 2.66 0 0 0 1.146-1.252q.383-.837.383-2.088t-.383-2.078q-.384-.83-1.135-1.24-.745-.416-1.854-.416h-1.683zM579.86 28v-8.182h1.928V28zm.969-9.343q-.458 0-.788-.304a.98.98 0 0 1-.33-.74q0-.437.33-.74.33-.31.788-.31.464 0 .789.31.33.303.33.74 0 .431-.33.74-.326.304-.789.304m10.25 1.161L588.166 28h-2.131l-2.914-8.182h2.056l1.881 6.078h.085l1.885-6.078zM592.414 28v-8.182h1.928V28zm.969-9.343q-.458 0-.788-.304a.98.98 0 0 1-.331-.74.97.97 0 0 1 .331-.74q.33-.31.788-.31a1.1 1.1 0 0 1 .788.31q.331.303.331.74 0 .431-.331.74a1.1 1.1 0 0 1-.788.304m5.978 9.487a3.1 3.1 0 0 1-1.726-.496q-.762-.495-1.204-1.438t-.442-2.29q0-1.364.448-2.301.452-.943 1.219-1.423a3.14 3.14 0 0 1 1.71-.484q.72 0 1.183.245.463.24.735.58.271.336.421.634h.08v-4.08h1.933V28h-1.896v-1.29h-.117q-.15.3-.432.635-.283.33-.745.564-.463.235-1.167.235m.538-1.582q.612 0 1.044-.33.432-.336.655-.933.224-.595.224-1.39 0-.793-.224-1.38-.218-.585-.65-.91-.426-.325-1.049-.325-.644 0-1.076.335-.432.336-.65.927a3.9 3.9 0 0 0-.218 1.353q0 .768.218 1.37.224.595.655.942.437.34 1.071.34m9.496 1.598q-1.23 0-2.125-.512a3.46 3.46 0 0 1-1.369-1.46q-.48-.947-.48-2.231 0-1.263.48-2.216a3.6 3.6 0 0 1 1.353-1.491q.869-.538 2.04-.538.756 0 1.428.245.675.24 1.193.745.522.506.82 1.29.298.777.298 1.853v.591h-6.706v-1.3h4.858a2.1 2.1 0 0 0-.24-.985 1.74 1.74 0 0 0-.655-.687q-.416-.25-.969-.25-.592 0-1.039.287a2 2 0 0 0-.698.746q-.245.459-.25 1.007v1.134q0 .714.261 1.226.261.505.729.777.47.267 1.098.267.42 0 .762-.117.34-.123.591-.357.25-.235.378-.581l1.8.202q-.17.714-.649 1.247a3.2 3.2 0 0 1-1.215.82q-.74.288-1.694.288m5.27-.16v-8.182h1.869v1.364h.085q.224-.709.768-1.092.548-.39 1.251-.389.16 0 .357.016.202.011.336.037v1.774a2 2 0 0 0-.389-.075 4 4 0 0 0-.506-.037q-.528 0-.948.23a1.67 1.67 0 0 0-.655.622q-.24.4-.24.922V28z"/><path fill="#0f1c8a" d="M100.878 289.102h-1.219a1.86 1.86 0 0 0-.73-1.192 2 2 0 0 0-.621-.312 2.4 2.4 0 0 0-.723-.106q-.692 0-1.238.348-.543.348-.86 1.019-.312.672-.312 1.641 0 .977.312 1.648.316.672.864 1.016.546.344 1.23.344.379 0 .719-.102.344-.105.62-.308.279-.204.47-.496.195-.297.27-.68l1.218.004a3.3 3.3 0 0 1-.379 1.086 3 3 0 0 1-.715.851q-.434.356-.992.551-.559.195-1.219.195-1.039 0-1.851-.492-.814-.496-1.282-1.418-.465-.921-.464-2.199 0-1.281.468-2.199.47-.922 1.282-1.414.812-.496 1.847-.496.637 0 1.188.183.555.18.996.531.441.348.73.852.29.5.391 1.145m3.878 5.519q-.845 0-1.473-.387a2.6 2.6 0 0 1-.976-1.082q-.348-.695-.348-1.625 0-.933.348-1.632.347-.7.976-1.086.628-.387 1.473-.387.843 0 1.473.387.628.386.976 1.086.348.699.348 1.632 0 .93-.348 1.625a2.6 2.6 0 0 1-.976 1.082q-.63.387-1.473.387m.004-.98q.546 0 .906-.289.36-.29.531-.77.176-.48.176-1.059 0-.573-.176-1.054a1.7 1.7 0 0 0-.531-.778q-.36-.293-.906-.293-.55 0-.914.293-.36.294-.535.778a3.1 3.1 0 0 0-.172 1.054q0 .579.172 1.059.175.48.535.77.363.288.914.289m5.264-7.141v8h-1.168v-8zm5.372 5.512V288.5h1.172v6h-1.148v-1.039h-.063q-.207.48-.664.801-.453.316-1.129.316-.577 0-1.023-.254a1.8 1.8 0 0 1-.695-.762q-.25-.503-.25-1.246V288.5h1.168v3.676q0 .613.34.976.339.364.882.364a1.44 1.44 0 0 0 1.196-.661q.218-.332.214-.843m2.742 2.488v-6h1.121v.977h.074a1.55 1.55 0 0 1 .613-.774q.426-.28 1.02-.281.602 0 1.008.281.41.281.605.774h.063q.215-.481.683-.766.47-.29 1.117-.289.818 0 1.332.512.52.511.52 1.543v4.023h-1.168v-3.914q0-.61-.332-.883a1.2 1.2 0 0 0-.793-.273q-.57 0-.887.351-.316.348-.316.895v3.824h-1.164v-3.988q0-.49-.305-.785-.304-.297-.793-.297-.332 0-.613.175a1.3 1.3 0 0 0-.449.481 1.5 1.5 0 0 0-.168.715v3.699zm10.889-3.563v3.563h-1.168v-6h1.121v.977h.075q.207-.477.648-.766.446-.29 1.121-.289.613 0 1.074.258.462.254.715.757.255.504.254 1.247v3.816h-1.168v-3.676q0-.653-.34-1.019-.339-.371-.933-.371-.406 0-.723.175a1.27 1.27 0 0 0-.496.516 1.7 1.7 0 0 0-.18.812m13.826-1.91a2.5 2.5 0 0 0-.305-.636 2 2 0 0 0-.449-.485 1.9 1.9 0 0 0-.598-.308 2.4 2.4 0 0 0-.73-.106 2.2 2.2 0 0 0-1.219.348q-.543.348-.86 1.019-.312.669-.312 1.637 0 .973.316 1.645.316.671.867 1.019.552.348 1.254.348.653 0 1.137-.266.489-.266.754-.75.27-.488.27-1.148l.312.058h-2.289v-.996h3.145v.91q0 1.008-.43 1.75a2.9 2.9 0 0 1-1.18 1.141q-.75.402-1.719.402-1.086 0-1.906-.5a3.4 3.4 0 0 1-1.273-1.418q-.457-.921-.457-2.187 0-.957.265-1.719.266-.762.746-1.293a3.25 3.25 0 0 1 1.137-.816q.656-.285 1.434-.285.648 0 1.207.191.562.192 1 .543a3.08 3.08 0 0 1 1.121 1.902zm2.731 5.473v-6h1.129v.953h.062a1.45 1.45 0 0 1 .579-.762q.417-.28.945-.281a5 5 0 0 1 .496.027v1.118a2 2 0 0 0-.25-.043 2.3 2.3 0 0 0-.359-.028q-.415 0-.739.176a1.31 1.31 0 0 0-.695 1.176v3.664zm4.222 0v-6h1.168v6zm.59-6.926a.74.74 0 0 1-.524-.203.66.66 0 0 1-.215-.492q0-.29.215-.492a.74.74 0 0 1 .524-.207.72.72 0 0 1 .519.207.65.65 0 0 1 .219.492q0 .285-.219.492a.73.73 0 0 1-.519.203m4.395 7.043q-.727 0-1.297-.371-.566-.375-.89-1.066-.321-.696-.321-1.668 0-.973.324-1.664.329-.691.899-1.059.57-.367 1.293-.367.559 0 .898.187.344.184.532.43.19.246.296.434h.071V286.5h1.168v8h-1.141v-.934h-.098q-.105.192-.304.438-.196.246-.539.43-.344.183-.891.183m.258-.996q.504 0 .851-.266.352-.269.532-.746a3.1 3.1 0 0 0 .183-1.109q0-.625-.179-1.094a1.6 1.6 0 0 0-.528-.73q-.348-.262-.859-.262-.528 0-.879.274a1.66 1.66 0 0 0-.531.746q-.176.472-.176 1.066 0 .602.18 1.082.179.48.531.762.355.277.875.277"/><path fill="#00423a" d="M318.567 288.602a1.14 1.14 0 0 0-.516-.86q-.453-.308-1.14-.308-.492 0-.852.156-.36.152-.559.422a1 1 0 0 0-.195.605q0 .285.133.492.137.207.355.348.224.137.477.231.254.089.488.148l.782.203q.382.094.785.254.402.16.746.422.344.261.554.648.216.387.215.926 0 .68-.351 1.207-.348.528-1.012.832-.66.305-1.598.305-.899 0-1.554-.285-.656-.285-1.028-.809a2.35 2.35 0 0 1-.41-1.25h1.211q.036.433.281.723.25.285.637.425.391.137.856.137.511 0 .91-.16.402-.163.633-.453.23-.293.23-.684a.84.84 0 0 0-.203-.582 1.5 1.5 0 0 0-.543-.375 5 5 0 0 0-.77-.261l-.945-.258q-.961-.262-1.523-.77-.56-.507-.559-1.344a2 2 0 0 1 .375-1.207q.375-.515 1.016-.8a3.5 3.5 0 0 1 1.445-.289q.813 0 1.434.285.624.285.984.785.36.496.375 1.141zm5.208 6.019q-.887 0-1.527-.379a2.57 2.57 0 0 1-.985-1.074q-.344-.696-.344-1.629 0-.922.344-1.625.348-.703.969-1.098.625-.394 1.461-.394.508 0 .984.168.477.168.856.527.379.36.597.934.219.57.219 1.386v.415h-4.769v-.875h3.625q0-.462-.188-.817a1.4 1.4 0 0 0-.527-.566 1.47 1.47 0 0 0-.789-.207q-.492 0-.86.242a1.6 1.6 0 0 0-.562.625q-.196.382-.196.832v.684q0 .601.211 1.023.216.422.598.644.382.219.895.219.332 0 .605-.094.273-.097.473-.289t.304-.472l1.106.199a2 2 0 0 1-.477.855 2.3 2.3 0 0 1-.855.567 3.2 3.2 0 0 1-1.168.199m5.616.012q-.57 0-1.031-.211a1.74 1.74 0 0 1-.731-.621q-.265-.406-.265-.996 0-.509.195-.836.195-.328.527-.52.332-.191.743-.289.41-.097.836-.148l.875-.102q.335-.042.488-.137.152-.094.152-.304v-.028q0-.511-.289-.793-.285-.28-.851-.281-.591 0-.93.262a1.4 1.4 0 0 0-.465.574l-1.098-.25q.196-.546.571-.883.378-.339.871-.492a3.4 3.4 0 0 1 1.035-.156q.36 0 .762.086.406.082.757.304.356.223.582.637.227.41.227 1.067v3.984h-1.141v-.82h-.046a1.7 1.7 0 0 1-.34.445 1.8 1.8 0 0 1-.582.363 2.25 2.25 0 0 1-.852.145m.254-.938q.485 0 .828-.191.348-.191.527-.5a1.3 1.3 0 0 0 .184-.668v-.774a.6.6 0 0 1-.242.118 4 4 0 0 1-.402.09l-.442.066-.359.047a3 3 0 0 0-.621.144 1.1 1.1 0 0 0-.446.293q-.164.188-.164.5 0 .434.321.657.32.218.816.218m4.263.805v-6h1.121v.977h.074a1.55 1.55 0 0 1 .613-.774q.426-.28 1.02-.281.602 0 1.008.281.41.281.605.774h.063q.215-.481.683-.766.47-.29 1.117-.289.817 0 1.332.512.52.511.52 1.543v4.023h-1.168v-3.914q0-.61-.332-.883a1.2 1.2 0 0 0-.793-.273q-.57 0-.887.351-.316.348-.316.895v3.824h-1.164v-3.988q0-.49-.305-.785-.304-.297-.793-.297-.332 0-.613.175a1.3 1.3 0 0 0-.449.481 1.5 1.5 0 0 0-.168.715v3.699zm10.889-8v8h-1.168v-8zm4.158 8.121q-.888 0-1.528-.379a2.57 2.57 0 0 1-.984-1.074q-.344-.696-.344-1.629 0-.922.344-1.625.348-.703.969-1.098.624-.394 1.461-.394.507 0 .984.168t.855.527q.38.36.598.934.219.57.219 1.386v.415h-4.77v-.875h3.625q0-.462-.187-.817a1.4 1.4 0 0 0-.528-.566 1.47 1.47 0 0 0-.789-.207q-.492 0-.859.242a1.63 1.63 0 0 0-.563.625q-.195.382-.195.832v.684q0 .601.211 1.023.215.422.598.644.382.219.894.219.332 0 .606-.094.274-.097.472-.289.2-.191.305-.472l1.106.199a2 2 0 0 1-.477.855 2.3 2.3 0 0 1-.855.567 3.2 3.2 0 0 1-1.168.199m8.366-4.656-1.059.187a1.2 1.2 0 0 0-.211-.386 1 1 0 0 0-.383-.301 1.4 1.4 0 0 0-.605-.117q-.497 0-.828.222-.332.219-.332.567 0 .3.222.484.224.183.719.301l.953.219q.828.191 1.235.589.406.399.406 1.036 0 .538-.313.961a2.05 2.05 0 0 1-.863.656q-.55.238-1.277.238-1.008 0-1.645-.43-.636-.434-.781-1.23l1.129-.172q.105.441.434.668.327.222.855.223.575 0 .918-.239.344-.242.344-.589a.62.62 0 0 0-.211-.473q-.207-.192-.637-.289l-1.016-.223q-.839-.191-1.242-.609-.398-.419-.398-1.059 0-.531.297-.929.297-.399.82-.622a3 3 0 0 1 1.199-.226q.973 0 1.532.422.558.417.738 1.121m5.897 0-1.058.187a1.3 1.3 0 0 0-.211-.386 1.04 1.04 0 0 0-.383-.301 1.4 1.4 0 0 0-.606-.117q-.495 0-.828.222-.332.219-.332.567 0 .3.223.484.222.183.719.301l.953.219q.828.191 1.234.589.406.399.406 1.036 0 .538-.312.961a2.06 2.06 0 0 1-.863.656q-.551.238-1.278.238-1.008 0-1.644-.43-.637-.434-.781-1.23l1.128-.172q.106.441.434.668.328.222.856.223.573 0 .917-.239.345-.242.344-.589a.61.61 0 0 0-.211-.473q-.207-.192-.636-.289l-1.016-.223q-.84-.191-1.242-.609-.399-.419-.399-1.059 0-.531.297-.929a1.95 1.95 0 0 1 .821-.622 3 3 0 0 1 1.199-.226q.973 0 1.531.422.558.417.738 1.121m11.051-.863h-1.219a1.9 1.9 0 0 0-.261-.688 1.9 1.9 0 0 0-.469-.504 2 2 0 0 0-.621-.312 2.4 2.4 0 0 0-.723-.106q-.692 0-1.238.348-.543.348-.86 1.019-.312.672-.312 1.641 0 .977.312 1.648.317.672.864 1.016t1.23.344q.379 0 .719-.102.343-.105.621-.308a1.868 1.868 0 0 0 .738-1.176l1.219.004a3.3 3.3 0 0 1-.379 1.086 3 3 0 0 1-.715.851 3.2 3.2 0 0 1-.992.551q-.558.195-1.219.195-1.039 0-1.851-.492-.813-.496-1.281-1.418-.465-.921-.465-2.199 0-1.281.468-2.199.47-.922 1.282-1.414.812-.496 1.847-.496.637 0 1.188.183.555.18.996.531.441.348.73.852.29.5.391 1.145m3.097 5.531q-.57 0-1.032-.211a1.74 1.74 0 0 1-.73-.621q-.266-.406-.266-.996 0-.509.196-.836.195-.328.527-.52a2.8 2.8 0 0 1 .742-.289q.41-.097.836-.148l.875-.102q.336-.042.488-.137.153-.094.153-.304v-.028q0-.511-.289-.793-.285-.28-.852-.281-.59 0-.93.262a1.4 1.4 0 0 0-.464.574l-1.098-.25q.195-.546.57-.883a2.3 2.3 0 0 1 .871-.492 3.4 3.4 0 0 1 1.036-.156q.359 0 .761.086.407.082.758.304.355.223.582.637.227.41.227 1.067v3.984h-1.141v-.82h-.047a1.7 1.7 0 0 1-.34.445 1.8 1.8 0 0 1-.582.363 2.2 2.2 0 0 1-.851.145m.254-.938q.484 0 .828-.191a1.34 1.34 0 0 0 .527-.5 1.3 1.3 0 0 0 .184-.668v-.774a.6.6 0 0 1-.242.118 4 4 0 0 1-.403.09l-.441.066-.36.047a3 3 0 0 0-.621.144 1.1 1.1 0 0 0-.445.293q-.164.188-.164.5 0 .434.32.657.32.218.817.218m5.43-2.758v3.563h-1.168v-6h1.121v.977h.075q.207-.477.648-.766.446-.29 1.121-.289.613 0 1.074.258.462.254.715.757.255.504.254 1.247v3.816h-1.168v-3.676q0-.653-.34-1.019-.339-.371-.933-.371-.406 0-.723.175a1.27 1.27 0 0 0-.496.516 1.7 1.7 0 0 0-.18.812m10.325-2.437-2.176 6h-1.25l-2.18-6h1.254l1.519 4.617h.063l1.516-4.617zm2.671 6.133q-.57 0-1.031-.211a1.73 1.73 0 0 1-.73-.621q-.266-.406-.266-.996 0-.509.195-.836.196-.328.528-.52.331-.191.742-.289.41-.097.836-.148l.875-.102q.336-.042.488-.137.152-.094.152-.304v-.028q0-.511-.289-.793-.285-.28-.851-.281-.59 0-.93.262a1.4 1.4 0 0 0-.465.574l-1.097-.25q.195-.546.57-.883a2.3 2.3 0 0 1 .871-.492 3.4 3.4 0 0 1 1.035-.156q.36 0 .762.086.406.082.758.304.355.223.582.637.226.41.226 1.067v3.984h-1.14v-.82h-.047a1.7 1.7 0 0 1-.34.445 1.8 1.8 0 0 1-.582.363 2.25 2.25 0 0 1-.852.145m.254-.938q.485 0 .828-.191.348-.191.528-.5a1.3 1.3 0 0 0 .183-.668v-.774a.6.6 0 0 1-.242.118 4 4 0 0 1-.402.09l-.442.066-.359.047a3 3 0 0 0-.621.144 1.1 1.1 0 0 0-.445.293q-.164.188-.164.5 0 .434.32.657.32.218.816.218m8.759-3.73-1.059.187a1.3 1.3 0 0 0-.21-.386 1.04 1.04 0 0 0-.383-.301 1.4 1.4 0 0 0-.606-.117q-.496 0-.828.222-.332.219-.332.567 0 .3.223.484.222.183.719.301l.953.219q.828.191 1.234.589.406.399.406 1.036 0 .538-.312.961a2.06 2.06 0 0 1-.864.656q-.55.238-1.277.238-1.008 0-1.644-.43-.637-.434-.782-1.23l1.129-.172q.106.441.434.668.329.222.855.223.575 0 .918-.239.344-.242.344-.589a.61.61 0 0 0-.211-.473q-.207-.192-.637-.289l-1.015-.223q-.84-.191-1.242-.609-.399-.419-.399-1.059 0-.531.297-.929.297-.399.82-.622a3 3 0 0 1 1.2-.226q.972 0 1.531.422.558.417.738 1.121"/><path stroke="#0f1c8a" stroke-linecap="round" stroke-linejoin="bevel" d="M125.5 279.5v-18"/><path stroke="#00423a" stroke-linecap="round" stroke-linejoin="bevel" d="M359.5 279.5v-18"/><path fill="#660891" d="M568.611 289.102a1.14 1.14 0 0 0-.516-.86q-.453-.308-1.14-.308-.493 0-.852.156-.36.152-.559.422a1 1 0 0 0-.195.605q0 .285.133.492.137.207.355.348.224.137.477.231.254.089.488.148l.781.203q.383.094.786.254.402.16.746.422.344.261.554.648.216.387.215.926 0 .68-.351 1.207-.348.528-1.012.832-.66.305-1.598.305-.899 0-1.554-.285-.656-.285-1.028-.809a2.35 2.35 0 0 1-.41-1.25h1.211q.035.433.281.723.25.285.637.425.39.137.856.137.511 0 .91-.16.402-.163.632-.453.231-.293.231-.684a.84.84 0 0 0-.203-.582 1.5 1.5 0 0 0-.543-.375 5 5 0 0 0-.77-.261l-.945-.258q-.961-.262-1.523-.77-.56-.507-.559-1.344a2 2 0 0 1 .375-1.207q.375-.515 1.016-.8a3.5 3.5 0 0 1 1.445-.289q.812 0 1.434.285.624.285.984.785.358.496.375 1.141zm2.622 8.148V289h1.141v.973h.097q.102-.188.293-.434.192-.246.531-.43.34-.187.899-.187.727 0 1.297.367.57.368.894 1.059.328.691.328 1.664 0 .972-.324 1.668-.324.691-.89 1.066a2.3 2.3 0 0 1-1.293.371q-.547 0-.895-.183a1.7 1.7 0 0 1-.539-.43q-.195-.246-.301-.438h-.07v3.184zm1.144-5.25q0 .633.184 1.109.184.477.531.746.348.266.852.266.523 0 .875-.277.351-.282.531-.762a3 3 0 0 0 .184-1.082q0-.594-.18-1.066a1.62 1.62 0 0 0-.531-.746q-.353-.274-.879-.274-.508 0-.86.262a1.6 1.6 0 0 0-.527.73q-.18.469-.18 1.094m6.813-5v8h-1.168v-8zm1.571 8v-6h1.168v6zm.59-6.926a.74.74 0 0 1-.523-.203.66.66 0 0 1-.215-.492q0-.29.215-.492a.73.73 0 0 1 .523-.207q.304 0 .52.207a.65.65 0 0 1 .218.492q0 .285-.218.492a.73.73 0 0 1-.52.203m4.95.926v.937h-3.277V289zm-2.398-1.438h1.168v5.676q0 .34.101.512a.53.53 0 0 0 .262.23q.164.06.356.059.14 0 .246-.019l.164-.032.211.965a2 2 0 0 1-.289.078 2.2 2.2 0 0 1-.469.047 2.1 2.1 0 0 1-.86-.164 1.5 1.5 0 0 1-.644-.531q-.246-.36-.246-.903zm6.695 7.438v-8h2.852q.933 0 1.547.34.612.339.918.93.304.585.304 1.32 0 .738-.308 1.328-.305.586-.922.93-.613.34-1.543.34h-1.961v-1.024h1.851q.591 0 .957-.203a1.3 1.3 0 0 0 .54-.563 1.84 1.84 0 0 0 .171-.808q0-.453-.171-.805a1.24 1.24 0 0 0-.543-.551q-.368-.199-.969-.199h-1.516V295zm8.635.133q-.57 0-1.031-.211a1.73 1.73 0 0 1-.731-.621q-.265-.406-.265-.996 0-.509.195-.836.195-.328.527-.52.333-.191.742-.289.41-.097.836-.148l.875-.102q.336-.042.489-.137.152-.094.152-.304v-.028q0-.511-.289-.793-.285-.28-.852-.281-.59 0-.929.262a1.4 1.4 0 0 0-.465.574l-1.098-.25q.195-.546.57-.883.379-.339.872-.492a3.4 3.4 0 0 1 1.035-.156q.359 0 .761.086.407.082.758.304.356.223.582.637.227.41.227 1.067V295h-1.141v-.82h-.047a1.7 1.7 0 0 1-.339.445 1.8 1.8 0 0 1-.583.363 2.2 2.2 0 0 1-.851.145m.254-.938q.485 0 .828-.191a1.34 1.34 0 0 0 .527-.5 1.3 1.3 0 0 0 .184-.668v-.774a.6.6 0 0 1-.242.118 4 4 0 0 1-.403.09l-.441.066-.359.047a3 3 0 0 0-.622.144 1.1 1.1 0 0 0-.445.293q-.164.188-.164.5 0 .434.32.657.32.218.817.218m5.43-2.758V295h-1.167v-6h1.121v.977h.074q.207-.477.648-.766.446-.29 1.121-.289.613 0 1.075.258.46.254.714.757.255.504.254 1.247V295h-1.168v-3.676q0-.653-.339-1.019-.34-.371-.934-.371-.406 0-.723.175a1.27 1.27 0 0 0-.496.516 1.7 1.7 0 0 0-.18.812m7.993 3.684q-.887 0-1.528-.379a2.57 2.57 0 0 1-.984-1.074q-.344-.696-.344-1.629 0-.922.344-1.625.348-.703.969-1.098.624-.394 1.461-.394.507 0 .984.168t.855.527q.38.36.598.934.219.57.219 1.386v.415h-4.77v-.875h3.625q0-.462-.187-.817a1.4 1.4 0 0 0-.527-.566 1.5 1.5 0 0 0-.79-.207q-.492 0-.859.242-.363.238-.562.625a1.8 1.8 0 0 0-.196.832v.684q0 .601.211 1.023.215.422.598.644.382.219.894.219.333 0 .606-.094.273-.097.473-.289.198-.191.304-.472l1.106.199a2 2 0 0 1-.477.855 2.3 2.3 0 0 1-.855.567 3.2 3.2 0 0 1-1.168.199m5.038-8.121v8h-1.168v-8zm6.067 3.465-1.058.187a1.3 1.3 0 0 0-.211-.386 1.04 1.04 0 0 0-.383-.301 1.4 1.4 0 0 0-.606-.117q-.495 0-.828.222-.332.219-.332.567 0 .3.223.484.222.183.719.301l.953.219q.828.191 1.234.589.406.399.406 1.036 0 .538-.312.961a2.06 2.06 0 0 1-.863.656q-.551.238-1.278.238-1.008 0-1.644-.43-.637-.434-.782-1.23l1.129-.172q.106.441.434.668.329.222.855.223.574 0 .918-.239.345-.242.344-.589a.61.61 0 0 0-.211-.473q-.207-.192-.637-.289l-1.015-.223q-.84-.191-1.242-.609-.399-.419-.399-1.059 0-.531.297-.929.297-.399.82-.622a3 3 0 0 1 1.2-.226q.972 0 1.531.422.558.417.738 1.121"/><path stroke="#660891" stroke-linecap="round" stroke-linejoin="bevel" d="M594 280v-18"/></g><defs><clipPath id="a"><path fill="#fff" d="M0 0h720v314H0z"/></clipPath><clipPath id="b"><path fill="#fff" d="M0 0h720v314H0z"/></clipPath></defs></svg>