<svg xmlns="http://www.w3.org/2000/svg" width="720" height="284" fill="none" viewBox="0 0 720 284"><g clip-path="url(#a)"><path fill="#fff" d="M0 0h720v284H0z"/><g fill="#c1c3c8" clip-path="url(#b)" opacity=".5"><path d="M-11 324a1 1 0 1 1 0 2 1 1 0 0 1 0-2m14 0a1 1 0 1 1 0 2 1 1 0 0 1 0-2m14 0a1 1 0 1 1 0 2 1 1 0 0 1 0-2m14 0a1 1 0 1 1 0 2 1 1 0 0 1 0-2m14 0a1 1 0 1 1 0 2 1 1 0 0 1 0-2m14 0a1 1 0 1 1 0 2 1 1 0 0 1 0-2m14 0a1 1 0 1 1 0 2 1 1 0 0 1 0-2m14 0a1 1 0 1 1 0 2 1 1 0 0 1 0-2m14 0a1 1 0 1 1 0 2 1 1 0 0 1 0-2m14 0a1 1 0 1 1 0 2 1 1 0 0 1 0-2m14 0a1 1 0 1 1 0 2 1 1 0 0 1 0-2m14 0a1 1 0 1 1 0 2 1 1 0 0 1 0-2m14 0a1 1 0 1 1 0 2 1 1 0 0 1 0-2m14 0a1 1 0 1 1 0 2 1 1 0 0 1 0-2m14 0a1 1 0 1 1 0 2 1 1 0 0 1 0-2m14 0a1 1 0 1 1 0 2 1 1 0 0 1 0-2m14 0a1 1 0 1 1 0 2 1 1 0 0 1 0-2m14 0a1 1 0 1 1 0 2 1 1 0 0 1 0-2m14 0a1 1 0 1 1 0 2 1 1 0 0 1 0-2m14 0a1 1 0 1 1 0 2 1 1 0 0 1 0-2m14 0a1 1 0 1 1 0 2 1 1 0 0 1 0-2m14 0a1 1 0 1 1 0 2 1 1 0 0 1 0-2m14 0a1 1 0 1 1 0 2 1 1 0 0 1 0-2m14 0a1 1 0 1 1 0 2 1 1 0 0 1 0-2m14 0a1 1 0 1 1 0 2 1 1 0 0 1 0-2m14 0a1 1 0 1 1 0 2 1 1 0 0 1 0-2m14 0a1 1 0 1 1 0 2 1 1 0 0 1 0-2m14 0a1 1 0 1 1 0 2 1 1 0 0 1 0-2m14 0a1 1 0 1 1 0 2 1 1 0 0 1 0-2m14 0a1 1 0 1 1 0 2 1 1 0 0 1 0-2m14 0a1 1 0 1 1 0 2 1 1 0 0 1 0-2m14 0a1 1 0 1 1 0 2 1 1 0 0 1 0-2m14 0a1 1 0 1 1 0 2 1 1 0 0 1 0-2m14 0a1 1 0 1 1 0 2 1 1 0 0 1 0-2m14 0a1 1 0 1 1 0 2 1 1 0 0 1 0-2m14 0a1 1 0 1 1 0 2 1 1 0 0 1 0-2m14 0a1 1 0 1 1 0 2 1 1 0 0 1 0-2m14 0a1 1 0 1 1 0 2 1 1 0 0 1 0-2m14 0a1 1 0 1 1 0 2 1 1 0 0 1 0-2m14 0a1 1 0 1 1 0 2 1 1 0 0 1 0-2m14 0a1 1 0 1 1 0 2 1 1 0 0 1 0-2m14 0a1 1 0 1 1 0 2 1 1 0 0 1 0-2m14 0a1 1 0 1 1 0 2 1 1 0 0 1 0-2m14 0a1 1 0 1 1 0 2 1 1 0 0 1 0-2m14 0a1 1 0 1 1 0 2 1 1 0 0 1 0-2m14 0a1 1 0 1 1 0 2 1 1 0 0 1 0-2m14 0a1 1 0 1 1 0 2 1 1 0 0 1 0-2m14 0a1 1 0 1 1 0 2 1 1 0 0 1 0-2m14 0a1 1 0 1 1 0 2 1 1 0 0 1 0-2m14 0a1 1 0 1 1 0 2 1 1 0 0 1 0-2m14 0a1 1 0 1 1 0 2 1 1 0 0 1 0-2m14 0a1 1 0 1 1 0 2 1 1 0 0 1 0-2m-714-14a1 1 0 1 1 0 2 1 1 0 0 1 0-2m14 0a1 1 0 1 1 0 2 1 1 0 0 1 0-2m14 0a1 1 0 1 1 0 2 1 1 0 0 1 0-2m14 0a1 1 0 1 1 0 2 1 1 0 0 1 0-2m14 0a1 1 0 1 1 0 2 1 1 0 0 1 0-2m14 0a1 1 0 1 1 0 2 1 1 0 0 1 0-2m14 0a1 1 0 1 1 0 2 1 1 0 0 1 0-2m14 0a1 1 0 1 1 0 2 1 1 0 0 1 0-2m14 0a1 1 0 1 1 0 2 1 1 0 0 1 0-2m14 0a1 1 0 1 1 0 2 1 1 0 0 1 0-2m14 0a1 1 0 1 1 0 2 1 1 0 0 1 0-2m14 0a1 1 0 1 1 0 2 1 1 0 0 1 0-2m14 0a1 1 0 1 1 0 2 1 1 0 0 1 0-2m14 0a1 1 0 1 1 0 2 1 1 0 0 1 0-2m14 0a1 1 0 1 1 0 2 1 1 0 0 1 0-2m14 0a1 1 0 1 1 0 2 1 1 0 0 1 0-2m14 0a1 1 0 1 1 0 2 1 1 0 0 1 0-2m14 0a1 1 0 1 1 0 2 1 1 0 0 1 0-2m14 0a1 1 0 1 1 0 2 1 1 0 0 1 0-2m14 0a1 1 0 1 1 0 2 1 1 0 0 1 0-2m14 0a1 1 0 1 1 0 2 1 1 0 0 1 0-2m14 0a1 1 0 1 1 0 2 1 1 0 0 1 0-2m14 0a1 1 0 1 1 0 2 1 1 0 0 1 0-2m14 0a1 1 0 1 1 0 2 1 1 0 0 1 0-2m14 0a1 1 0 1 1 0 2 1 1 0 0 1 0-2m14 0a1 1 0 1 1 0 2 1 1 0 0 1 0-2m14 0a1 1 0 1 1 0 2 1 1 0 0 1 0-2m14 0a1 1 0 1 1 0 2 1 1 0 0 1 0-2m14 0a1 1 0 1 1 0 2 1 1 0 0 1 0-2m14 0a1 1 0 1 1 0 2 1 1 0 0 1 0-2m14 0a1 1 0 1 1 0 2 1 1 0 0 1 0-2m14 0a1 1 0 1 1 0 2 1 1 0 0 1 0-2m14 0a1 1 0 1 1 0 2 1 1 0 0 1 0-2m14 0a1 1 0 1 1 0 2 1 1 0 0 1 0-2m14 0a1 1 0 1 1 0 2 1 1 0 0 1 0-2m14 0a1 1 0 1 1 0 2 1 1 0 0 1 0-2m14 0a1 1 0 1 1 0 2 1 1 0 0 1 0-2m14 0a1 1 0 1 1 0 2 1 1 0 0 1 0-2m14 0a1 1 0 1 1 0 2 1 1 0 0 1 0-2m14 0a1 1 0 1 1 0 2 1 1 0 0 1 0-2m14 0a1 1 0 1 1 0 2 1 1 0 0 1 0-2m14 0a1 1 0 1 1 0 2 1 1 0 0 1 0-2m14 0a1 1 0 1 1 0 2 1 1 0 0 1 0-2m14 0a1 1 0 1 1 0 2 1 1 0 0 1 0-2m14 0a1 1 0 1 1 0 2 1 1 0 0 1 0-2m14 0a1 1 0 1 1 0 2 1 1 0 0 1 0-2m14 0a1 1 0 1 1 0 2 1 1 0 0 1 0-2m14 0a1 1 0 1 1 0 2 1 1 0 0 1 0-2m14 0a1 1 0 1 1 0 2 1 1 0 0 1 0-2m14 0a1 1 0 1 1 0 2 1 1 0 0 1 0-2m14 0a1 1 0 1 1 0 2 1 1 0 0 1 0-2m14 0a1 1 0 1 1 0 2 1 1 0 0 1 0-2m14 0a1 1 0 1 1 0 2 1 1 0 0 1 0-2m-728-14a1 1 0 1 1 0 2 1 1 0 0 1 0-2m14 0a1 1 0 1 1 0 2 1 1 0 0 1 0-2m14 0a1 1 0 1 1 0 2 1 1 0 0 1 0-2m14 0a1 1 0 1 1 0 2 1 1 0 0 1 0-2m14 0a1 1 0 1 1 0 2 1 1 0 0 1 0-2m14 0a1 1 0 1 1 0 2 1 1 0 0 1 0-2m14 0a1 1 0 1 1 0 2 1 1 0 0 1 0-2m14 0a1 1 0 1 1 0 2 1 1 0 0 1 0-2m14 0a1 1 0 1 1 0 2 1 1 0 0 1 0-2m14 0a1 1 0 1 1 0 2 1 1 0 0 1 0-2m14 0a1 1 0 1 1 0 2 1 1 0 0 1 0-2m14 0a1 1 0 1 1 0 2 1 1 0 0 1 0-2m14 0a1 1 0 1 1 0 2 1 1 0 0 1 0-2m14 0a1 1 0 1 1 0 2 1 1 0 0 1 0-2m14 0a1 1 0 1 1 0 2 1 1 0 0 1 0-2m14 0a1 1 0 1 1 0 2 1 1 0 0 1 0-2m14 0a1 1 0 1 1 0 2 1 1 0 0 1 0-2m14 0a1 1 0 1 1 0 2 1 1 0 0 1 0-2m14 0a1 1 0 1 1 0 2 1 1 0 0 1 0-2m14 0a1 1 0 1 1 0 2 1 1 0 0 1 0-2m14 0a1 1 0 1 1 0 2 1 1 0 0 1 0-2m14 0a1 1 0 1 1 0 2 1 1 0 0 1 0-2m14 0a1 1 0 1 1 0 2 1 1 0 0 1 0-2m14 0a1 1 0 1 1 0 2 1 1 0 0 1 0-2m14 0a1 1 0 1 1 0 2 1 1 0 0 1 0-2m14 0a1 1 0 1 1 0 2 1 1 0 0 1 0-2m14 0a1 1 0 1 1 0 2 1 1 0 0 1 0-2m14 0a1 1 0 1 1 0 2 1 1 0 0 1 0-2m14 0a1 1 0 1 1 0 2 1 1 0 0 1 0-2m14 0a1 1 0 1 1 0 2 1 1 0 0 1 0-2m14 0a1 1 0 1 1 0 2 1 1 0 0 1 0-2m14 0a1 1 0 1 1 0 2 1 1 0 0 1 0-2m14 0a1 1 0 1 1 0 2 1 1 0 0 1 0-2m14 0a1 1 0 1 1 0 2 1 1 0 0 1 0-2m14 0a1 1 0 1 1 0 2 1 1 0 0 1 0-2m14 0a1 1 0 1 1 0 2 1 1 0 0 1 0-2m14 0a1 1 0 1 1 0 2 1 1 0 0 1 0-2m14 0a1 1 0 1 1 0 2 1 1 0 0 1 0-2m14 0a1 1 0 1 1 0 2 1 1 0 0 1 0-2m14 0a1 1 0 1 1 0 2 1 1 0 0 1 0-2m14 0a1 1 0 1 1 0 2 1 1 0 0 1 0-2m14 0a1 1 0 1 1 0 2 1 1 0 0 1 0-2m14 0a1 1 0 1 1 0 2 1 1 0 0 1 0-2m14 0a1 1 0 1 1 0 2 1 1 0 0 1 0-2m14 0a1 1 0 1 1 0 2 1 1 0 0 1 0-2m14 0a1 1 0 1 1 0 2 1 1 0 0 1 0-2m14 0a1 1 0 1 1 0 2 1 1 0 0 1 0-2m14 0a1 1 0 1 1 0 2 1 1 0 0 1 0-2m14 0a1 1 0 1 1 0 2 1 1 0 0 1 0-2m14 0a1 1 0 1 1 0 2 1 1 0 0 1 0-2m14 0a1 1 0 1 1 0 2 1 1 0 0 1 0-2m14 0a1 1 0 1 1 0 2 1 1 0 0 1 0-2m14 0a1 1 0 1 1 0 2 1 1 0 0 1 0-2m-728-14a1 1 0 1 1 0 2 1 1 0 0 1 0-2m14 0a1 1 0 1 1 0 2 1 1 0 0 1 0-2m14 0a1 1 0 1 1 0 2 1 1 0 0 1 0-2m14 0a1 1 0 1 1 0 2 1 1 0 0 1 0-2m14 0a1 1 0 1 1 0 2 1 1 0 0 1 0-2m14 0a1 1 0 1 1 0 2 1 1 0 0 1 0-2m14 0a1 1 0 1 1 0 2 1 1 0 0 1 0-2m14 0a1 1 0 1 1 0 2 1 1 0 0 1 0-2m14 0a1 1 0 1 1 0 2 1 1 0 0 1 0-2m14 0a1 1 0 1 1 0 2 1 1 0 0 1 0-2m14 0a1 1 0 1 1 0 2 1 1 0 0 1 0-2m14 0a1 1 0 1 1 0 2 1 1 0 0 1 0-2m14 0a1 1 0 1 1 0 2 1 1 0 0 1 0-2m14 0a1 1 0 1 1 0 2 1 1 0 0 1 0-2m14 0a1 1 0 1 1 0 2 1 1 0 0 1 0-2m14 0a1 1 0 1 1 0 2 1 1 0 0 1 0-2m14 0a1 1 0 1 1 0 2 1 1 0 0 1 0-2m14 0a1 1 0 1 1 0 2 1 1 0 0 1 0-2m14 0a1 1 0 1 1 0 2 1 1 0 0 1 0-2m14 0a1 1 0 1 1 0 2 1 1 0 0 1 0-2m14 0a1 1 0 1 1 0 2 1 1 0 0 1 0-2m14 0a1 1 0 1 1 0 2 1 1 0 0 1 0-2m14 0a1 1 0 1 1 0 2 1 1 0 0 1 0-2m14 0a1 1 0 1 1 0 2 1 1 0 0 1 0-2m14 0a1 1 0 1 1 0 2 1 1 0 0 1 0-2m14 0a1 1 0 1 1 0 2 1 1 0 0 1 0-2m14 0a1 1 0 1 1 0 2 1 1 0 0 1 0-2m14 0a1 1 0 1 1 0 2 1 1 0 0 1 0-2m14 0a1 1 0 1 1 0 2 1 1 0 0 1 0-2m14 0a1 1 0 1 1 0 2 1 1 0 0 1 0-2m14 0a1 1 0 1 1 0 2 1 1 0 0 1 0-2m14 0a1 1 0 1 1 0 2 1 1 0 0 1 0-2m14 0a1 1 0 1 1 0 2 1 1 0 0 1 0-2m14 0a1 1 0 1 1 0 2 1 1 0 0 1 0-2m14 0a1 1 0 1 1 0 2 1 1 0 0 1 0-2m14 0a1 1 0 1 1 0 2 1 1 0 0 1 0-2m14 0a1 1 0 1 1 0 2 1 1 0 0 1 0-2m14 0a1 1 0 1 1 0 2 1 1 0 0 1 0-2m14 0a1 1 0 1 1 0 2 1 1 0 0 1 0-2m14 0a1 1 0 1 1 0 2 1 1 0 0 1 0-2m14 0a1 1 0 1 1 0 2 1 1 0 0 1 0-2m14 0a1 1 0 1 1 0 2 1 1 0 0 1 0-2m14 0a1 1 0 1 1 0 2 1 1 0 0 1 0-2m14 0a1 1 0 1 1 0 2 1 1 0 0 1 0-2m14 0a1 1 0 1 1 0 2 1 1 0 0 1 0-2m14 0a1 1 0 1 1 0 2 1 1 0 0 1 0-2m14 0a1 1 0 1 1 0 2 1 1 0 0 1 0-2m14 0a1 1 0 1 1 0 2 1 1 0 0 1 0-2m14 0a1 1 0 1 1 0 2 1 1 0 0 1 0-2m14 0a1 1 0 1 1 0 2 1 1 0 0 1 0-2m14 0a1 1 0 1 1 0 2 1 1 0 0 1 0-2m14 0a1 1 0 1 1 0 2 1 1 0 0 1 0-2m14 0a1 1 0 1 1 0 2 1 1 0 0 1 0-2m-728-14a1 1 0 1 1 0 2 1 1 0 0 1 0-2m14 0a1 1 0 1 1 0 2 1 1 0 0 1 0-2m14 0a1 1 0 1 1 0 2 1 1 0 0 1 0-2m14 0a1 1 0 1 1 0 2 1 1 0 0 1 0-2m14 0a1 1 0 1 1 0 2 1 1 0 0 1 0-2m14 0a1 1 0 1 1 0 2 1 1 0 0 1 0-2m14 0a1 1 0 1 1 0 2 1 1 0 0 1 0-2m14 0a1 1 0 1 1 0 2 1 1 0 0 1 0-2m14 0a1 1 0 1 1 0 2 1 1 0 0 1 0-2m14 0a1 1 0 1 1 0 2 1 1 0 0 1 0-2m14 0a1 1 0 1 1 0 2 1 1 0 0 1 0-2m14 0a1 1 0 1 1 0 2 1 1 0 0 1 0-2m14 0a1 1 0 1 1 0 2 1 1 0 0 1 0-2m14 0a1 1 0 1 1 0 2 1 1 0 0 1 0-2m14 0a1 1 0 1 1 0 2 1 1 0 0 1 0-2m14 0a1 1 0 1 1 0 2 1 1 0 0 1 0-2m14 0a1 1 0 1 1 0 2 1 1 0 0 1 0-2m14 0a1 1 0 1 1 0 2 1 1 0 0 1 0-2m14 0a1 1 0 1 1 0 2 1 1 0 0 1 0-2m14 0a1 1 0 1 1 0 2 1 1 0 0 1 0-2m14 0a1 1 0 1 1 0 2 1 1 0 0 1 0-2m14 0a1 1 0 1 1 0 2 1 1 0 0 1 0-2m14 0a1 1 0 1 1 0 2 1 1 0 0 1 0-2m14 0a1 1 0 1 1 0 2 1 1 0 0 1 0-2m14 0a1 1 0 1 1 0 2 1 1 0 0 1 0-2m14 0a1 1 0 1 1 0 2 1 1 0 0 1 0-2m14 0a1 1 0 1 1 0 2 1 1 0 0 1 0-2m14 0a1 1 0 1 1 0 2 1 1 0 0 1 0-2m14 0a1 1 0 1 1 0 2 1 1 0 0 1 0-2m14 0a1 1 0 1 1 0 2 1 1 0 0 1 0-2m14 0a1 1 0 1 1 0 2 1 1 0 0 1 0-2m14 0a1 1 0 1 1 0 2 1 1 0 0 1 0-2m14 0a1 1 0 1 1 0 2 1 1 0 0 1 0-2m14 0a1 1 0 1 1 0 2 1 1 0 0 1 0-2m14 0a1 1 0 1 1 0 2 1 1 0 0 1 0-2m14 0a1 1 0 1 1 0 2 1 1 0 0 1 0-2m14 0a1 1 0 1 1 0 2 1 1 0 0 1 0-2m14 0a1 1 0 1 1 0 2 1 1 0 0 1 0-2m14 0a1 1 0 1 1 0 2 1 1 0 0 1 0-2m14 0a1 1 0 1 1 0 2 1 1 0 0 1 0-2m14 0a1 1 0 1 1 0 2 1 1 0 0 1 0-2m14 0a1 1 0 1 1 0 2 1 1 0 0 1 0-2m14 0a1 1 0 1 1 0 2 1 1 0 0 1 0-2m14 0a1 1 0 1 1 0 2 1 1 0 0 1 0-2m14 0a1 1 0 1 1 0 2 1 1 0 0 1 0-2m14 0a1 1 0 1 1 0 2 1 1 0 0 1 0-2m14 0a1 1 0 1 1 0 2 1 1 0 0 1 0-2m14 0a1 1 0 1 1 0 2 1 1 0 0 1 0-2m14 0a1 1 0 1 1 0 2 1 1 0 0 1 0-2m14 0a1 1 0 1 1 0 2 1 1 0 0 1 0-2m14 0a1 1 0 1 1 0 2 1 1 0 0 1 0-2m14 0a1 1 0 1 1 0 2 1 1 0 0 1 0-2m14 0a1 1 0 1 1 0 2 1 1 0 0 1 0-2m-728-14a1 1 0 1 1 0 2 1 1 0 0 1 0-2m14 0a1 1 0 1 1 0 2 1 1 0 0 1 0-2m14 0a1 1 0 1 1 0 2 1 1 0 0 1 0-2m14 0a1 1 0 1 1 0 2 1 1 0 0 1 0-2m14 0a1 1 0 1 1 0 2 1 1 0 0 1 0-2m14 0a1 1 0 1 1 0 2 1 1 0 0 1 0-2m14 0a1 1 0 1 1 0 2 1 1 0 0 1 0-2m14 0a1 1 0 1 1 0 2 1 1 0 0 1 0-2m14 0a1 1 0 1 1 0 2 1 1 0 0 1 0-2m14 0a1 1 0 1 1 0 2 1 1 0 0 1 0-2m14 0a1 1 0 1 1 0 2 1 1 0 0 1 0-2m14 0a1 1 0 1 1 0 2 1 1 0 0 1 0-2m14 0a1 1 0 1 1 0 2 1 1 0 0 1 0-2m14 0a1 1 0 1 1 0 2 1 1 0 0 1 0-2m14 0a1 1 0 1 1 0 2 1 1 0 0 1 0-2m14 0a1 1 0 1 1 0 2 1 1 0 0 1 0-2m14 0a1 1 0 1 1 0 2 1 1 0 0 1 0-2m14 0a1 1 0 1 1 0 2 1 1 0 0 1 0-2m14 0a1 1 0 1 1 0 2 1 1 0 0 1 0-2m14 0a1 1 0 1 1 0 2 1 1 0 0 1 0-2m14 0a1 1 0 1 1 0 2 1 1 0 0 1 0-2m14 0a1 1 0 1 1 0 2 1 1 0 0 1 0-2m14 0a1 1 0 1 1 0 2 1 1 0 0 1 0-2m14 0a1 1 0 1 1 0 2 1 1 0 0 1 0-2m14 0a1 1 0 1 1 0 2 1 1 0 0 1 0-2m14 0a1 1 0 1 1 0 2 1 1 0 0 1 0-2m14 0a1 1 0 1 1 0 2 1 1 0 0 1 0-2m14 0a1 1 0 1 1 0 2 1 1 0 0 1 0-2m14 0a1 1 0 1 1 0 2 1 1 0 0 1 0-2m14 0a1 1 0 1 1 0 2 1 1 0 0 1 0-2m14 0a1 1 0 1 1 0 2 1 1 0 0 1 0-2m14 0a1 1 0 1 1 0 2 1 1 0 0 1 0-2m14 0a1 1 0 1 1 0 2 1 1 0 0 1 0-2m14 0a1 1 0 1 1 0 2 1 1 0 0 1 0-2m14 0a1 1 0 1 1 0 2 1 1 0 0 1 0-2m14 0a1 1 0 1 1 0 2 1 1 0 0 1 0-2m14 0a1 1 0 1 1 0 2 1 1 0 0 1 0-2m14 0a1 1 0 1 1 0 2 1 1 0 0 1 0-2m14 0a1 1 0 1 1 0 2 1 1 0 0 1 0-2m14 0a1 1 0 1 1 0 2 1 1 0 0 1 0-2m14 0a1 1 0 1 1 0 2 1 1 0 0 1 0-2m14 0a1 1 0 1 1 0 2 1 1 0 0 1 0-2m14 0a1 1 0 1 1 0 2 1 1 0 0 1 0-2m14 0a1 1 0 1 1 0 2 1 1 0 0 1 0-2m14 0a1 1 0 1 1 0 2 1 1 0 0 1 0-2m14 0a1 1 0 1 1 0 2 1 1 0 0 1 0-2m14 0a1 1 0 1 1 0 2 1 1 0 0 1 0-2m14 0a1 1 0 1 1 0 2 1 1 0 0 1 0-2m14 0a1 1 0 1 1 0 2 1 1 0 0 1 0-2m14 0a1 1 0 1 1 0 2 1 1 0 0 1 0-2m14 0a1 1 0 1 1 0 2 1 1 0 0 1 0-2m14 0a1 1 0 1 1 0 2 1 1 0 0 1 0-2m14 0a1 1 0 1 1 0 2 1 1 0 0 1 0-2m-728-14a1 1 0 1 1 0 2 1 1 0 0 1 0-2m14 0a1 1 0 1 1 0 2 1 1 0 0 1 0-2m14 0a1 1 0 1 1 0 2 1 1 0 0 1 0-2m14 0a1 1 0 1 1 0 2 1 1 0 0 1 0-2m14 0a1 1 0 1 1 0 2 1 1 0 0 1 0-2m14 0a1 1 0 1 1 0 2 1 1 0 0 1 0-2m14 0a1 1 0 1 1 0 2 1 1 0 0 1 0-2m14 0a1 1 0 1 1 0 2 1 1 0 0 1 0-2m14 0a1 1 0 1 1 0 2 1 1 0 0 1 0-2m14 0a1 1 0 1 1 0 2 1 1 0 0 1 0-2m14 0a1 1 0 1 1 0 2 1 1 0 0 1 0-2m14 0a1 1 0 1 1 0 2 1 1 0 0 1 0-2m14 0a1 1 0 1 1 0 2 1 1 0 0 1 0-2m14 0a1 1 0 1 1 0 2 1 1 0 0 1 0-2m14 0a1 1 0 1 1 0 2 1 1 0 0 1 0-2m14 0a1 1 0 1 1 0 2 1 1 0 0 1 0-2m14 0a1 1 0 1 1 0 2 1 1 0 0 1 0-2m14 0a1 1 0 1 1 0 2 1 1 0 0 1 0-2m14 0a1 1 0 1 1 0 2 1 1 0 0 1 0-2m14 0a1 1 0 1 1 0 2 1 1 0 0 1 0-2m14 0a1 1 0 1 1 0 2 1 1 0 0 1 0-2m14 0a1 1 0 1 1 0 2 1 1 0 0 1 0-2m14 0a1 1 0 1 1 0 2 1 1 0 0 1 0-2m14 0a1 1 0 1 1 0 2 1 1 0 0 1 0-2m14 0a1 1 0 1 1 0 2 1 1 0 0 1 0-2m14 0a1 1 0 1 1 0 2 1 1 0 0 1 0-2m14 0a1 1 0 1 1 0 2 1 1 0 0 1 0-2m14 0a1 1 0 1 1 0 2 1 1 0 0 1 0-2m14 0a1 1 0 1 1 0 2 1 1 0 0 1 0-2m14 0a1 1 0 1 1 0 2 1 1 0 0 1 0-2m14 0a1 1 0 1 1 0 2 1 1 0 0 1 0-2m14 0a1 1 0 1 1 0 2 1 1 0 0 1 0-2m14 0a1 1 0 1 1 0 2 1 1 0 0 1 0-2m14 0a1 1 0 1 1 0 2 1 1 0 0 1 0-2m14 0a1 1 0 1 1 0 2 1 1 0 0 1 0-2m14 0a1 1 0 1 1 0 2 1 1 0 0 1 0-2m14 0a1 1 0 1 1 0 2 1 1 0 0 1 0-2m14 0a1 1 0 1 1 0 2 1 1 0 0 1 0-2m14 0a1 1 0 1 1 0 2 1 1 0 0 1 0-2m14 0a1 1 0 1 1 0 2 1 1 0 0 1 0-2m14 0a1 1 0 1 1 0 2 1 1 0 0 1 0-2m14 0a1 1 0 1 1 0 2 1 1 0 0 1 0-2m14 0a1 1 0 1 1 0 2 1 1 0 0 1 0-2m14 0a1 1 0 1 1 0 2 1 1 0 0 1 0-2m14 0a1 1 0 1 1 0 2 1 1 0 0 1 0-2m14 0a1 1 0 1 1 0 2 1 1 0 0 1 0-2m14 0a1 1 0 1 1 0 2 1 1 0 0 1 0-2m14 0a1 1 0 1 1 0 2 1 1 0 0 1 0-2m14 0a1 1 0 1 1 0 2 1 1 0 0 1 0-2m14 0a1 1 0 1 1 0 2 1 1 0 0 1 0-2m14 0a1 1 0 1 1 0 2 1 1 0 0 1 0-2m14 0a1 1 0 1 1 0 2 1 1 0 0 1 0-2m14 0a1 1 0 1 1 0 2 1 1 0 0 1 0-2m-728-14a1 1 0 1 1 0 2 1 1 0 0 1 0-2m14 0a1 1 0 1 1 0 2 1 1 0 0 1 0-2m14 0a1 1 0 1 1 0 2 1 1 0 0 1 0-2m14 0a1 1 0 1 1 0 2 1 1 0 0 1 0-2m14 0a1 1 0 1 1 0 2 1 1 0 0 1 0-2m14 0a1 1 0 1 1 0 2 1 1 0 0 1 0-2m14 0a1 1 0 1 1 0 2 1 1 0 0 1 0-2m14 0a1 1 0 1 1 0 2 1 1 0 0 1 0-2m14 0a1 1 0 1 1 0 2 1 1 0 0 1 0-2m14 0a1 1 0 1 1 0 2 1 1 0 0 1 0-2m14 0a1 1 0 1 1 0 2 1 1 0 0 1 0-2m14 0a1 1 0 1 1 0 2 1 1 0 0 1 0-2m14 0a1 1 0 1 1 0 2 1 1 0 0 1 0-2m14 0a1 1 0 1 1 0 2 1 1 0 0 1 0-2m14 0a1 1 0 1 1 0 2 1 1 0 0 1 0-2m14 0a1 1 0 1 1 0 2 1 1 0 0 1 0-2m14 0a1 1 0 1 1 0 2 1 1 0 0 1 0-2m14 0a1 1 0 1 1 0 2 1 1 0 0 1 0-2m14 0a1 1 0 1 1 0 2 1 1 0 0 1 0-2m14 0a1 1 0 1 1 0 2 1 1 0 0 1 0-2m14 0a1 1 0 1 1 0 2 1 1 0 0 1 0-2m14 0a1 1 0 1 1 0 2 1 1 0 0 1 0-2m14 0a1 1 0 1 1 0 2 1 1 0 0 1 0-2m14 0a1 1 0 1 1 0 2 1 1 0 0 1 0-2m14 0a1 1 0 1 1 0 2 1 1 0 0 1 0-2m14 0a1 1 0 1 1 0 2 1 1 0 0 1 0-2m14 0a1 1 0 1 1 0 2 1 1 0 0 1 0-2m14 0a1 1 0 1 1 0 2 1 1 0 0 1 0-2m14 0a1 1 0 1 1 0 2 1 1 0 0 1 0-2m14 0a1 1 0 1 1 0 2 1 1 0 0 1 0-2m14 0a1 1 0 1 1 0 2 1 1 0 0 1 0-2m14 0a1 1 0 1 1 0 2 1 1 0 0 1 0-2m14 0a1 1 0 1 1 0 2 1 1 0 0 1 0-2m14 0a1 1 0 1 1 0 2 1 1 0 0 1 0-2m14 0a1 1 0 1 1 0 2 1 1 0 0 1 0-2m14 0a1 1 0 1 1 0 2 1 1 0 0 1 0-2m14 0a1 1 0 1 1 0 2 1 1 0 0 1 0-2m14 0a1 1 0 1 1 0 2 1 1 0 0 1 0-2m14 0a1 1 0 1 1 0 2 1 1 0 0 1 0-2m14 0a1 1 0 1 1 0 2 1 1 0 0 1 0-2m14 0a1 1 0 1 1 0 2 1 1 0 0 1 0-2m14 0a1 1 0 1 1 0 2 1 1 0 0 1 0-2m14 0a1 1 0 1 1 0 2 1 1 0 0 1 0-2m14 0a1 1 0 1 1 0 2 1 1 0 0 1 0-2m14 0a1 1 0 1 1 0 2 1 1 0 0 1 0-2m14 0a1 1 0 1 1 0 2 1 1 0 0 1 0-2m14 0a1 1 0 1 1 0 2 1 1 0 0 1 0-2m14 0a1 1 0 1 1 0 2 1 1 0 0 1 0-2m14 0a1 1 0 1 1 0 2 1 1 0 0 1 0-2m14 0a1 1 0 1 1 0 2 1 1 0 0 1 0-2m14 0a1 1 0 1 1 0 2 1 1 0 0 1 0-2m14 0a1 1 0 1 1 0 2 1 1 0 0 1 0-2m14 0a1 1 0 1 1 0 2 1 1 0 0 1 0-2m-728-14a1 1 0 1 1 0 2 1 1 0 0 1 0-2m14 0a1 1 0 1 1 0 2 1 1 0 0 1 0-2m14 0a1 1 0 1 1 0 2 1 1 0 0 1 0-2m14 0a1 1 0 1 1 0 2 1 1 0 0 1 0-2m14 0a1 1 0 1 1 0 2 1 1 0 0 1 0-2m14 0a1 1 0 1 1 0 2 1 1 0 0 1 0-2m14 0a1 1 0 1 1 0 2 1 1 0 0 1 0-2m14 0a1 1 0 1 1 0 2 1 1 0 0 1 0-2m14 0a1 1 0 1 1 0 2 1 1 0 0 1 0-2m14 0a1 1 0 1 1 0 2 1 1 0 0 1 0-2m14 0a1 1 0 1 1 0 2 1 1 0 0 1 0-2m14 0a1 1 0 1 1 0 2 1 1 0 0 1 0-2m14 0a1 1 0 1 1 0 2 1 1 0 0 1 0-2m14 0a1 1 0 1 1 0 2 1 1 0 0 1 0-2m14 0a1 1 0 1 1 0 2 1 1 0 0 1 0-2m14 0a1 1 0 1 1 0 2 1 1 0 0 1 0-2m14 0a1 1 0 1 1 0 2 1 1 0 0 1 0-2m14 0a1 1 0 1 1 0 2 1 1 0 0 1 0-2m14 0a1 1 0 1 1 0 2 1 1 0 0 1 0-2m14 0a1 1 0 1 1 0 2 1 1 0 0 1 0-2m14 0a1 1 0 1 1 0 2 1 1 0 0 1 0-2m14 0a1 1 0 1 1 0 2 1 1 0 0 1 0-2m14 0a1 1 0 1 1 0 2 1 1 0 0 1 0-2m14 0a1 1 0 1 1 0 2 1 1 0 0 1 0-2m14 0a1 1 0 1 1 0 2 1 1 0 0 1 0-2m14 0a1 1 0 1 1 0 2 1 1 0 0 1 0-2m14 0a1 1 0 1 1 0 2 1 1 0 0 1 0-2m14 0a1 1 0 1 1 0 2 1 1 0 0 1 0-2m14 0a1 1 0 1 1 0 2 1 1 0 0 1 0-2m14 0a1 1 0 1 1 0 2 1 1 0 0 1 0-2m14 0a1 1 0 1 1 0 2 1 1 0 0 1 0-2m14 0a1 1 0 1 1 0 2 1 1 0 0 1 0-2m14 0a1 1 0 1 1 0 2 1 1 0 0 1 0-2m14 0a1 1 0 1 1 0 2 1 1 0 0 1 0-2m14 0a1 1 0 1 1 0 2 1 1 0 0 1 0-2m14 0a1 1 0 1 1 0 2 1 1 0 0 1 0-2m14 0a1 1 0 1 1 0 2 1 1 0 0 1 0-2m14 0a1 1 0 1 1 0 2 1 1 0 0 1 0-2m14 0a1 1 0 1 1 0 2 1 1 0 0 1 0-2m14 0a1 1 0 1 1 0 2 1 1 0 0 1 0-2m14 0a1 1 0 1 1 0 2 1 1 0 0 1 0-2m14 0a1 1 0 1 1 0 2 1 1 0 0 1 0-2m14 0a1 1 0 1 1 0 2 1 1 0 0 1 0-2m14 0a1 1 0 1 1 0 2 1 1 0 0 1 0-2m14 0a1 1 0 1 1 0 2 1 1 0 0 1 0-2m14 0a1 1 0 1 1 0 2 1 1 0 0 1 0-2m14 0a1 1 0 1 1 0 2 1 1 0 0 1 0-2m14 0a1 1 0 1 1 0 2 1 1 0 0 1 0-2m14 0a1 1 0 1 1 0 2 1 1 0 0 1 0-2m14 0a1 1 0 1 1 0 2 1 1 0 0 1 0-2m14 0a1 1 0 1 1 0 2 1 1 0 0 1 0-2m14 0a1 1 0 1 1 0 2 1 1 0 0 1 0-2m14 0a1 1 0 1 1 0 2 1 1 0 0 1 0-2m-728-14a1 1 0 1 1 0 2 1 1 0 0 1 0-2m14 0a1 1 0 1 1 0 2 1 1 0 0 1 0-2m14 0a1 1 0 1 1 0 2 1 1 0 0 1 0-2m14 0a1 1 0 1 1 0 2 1 1 0 0 1 0-2m14 0a1 1 0 1 1 0 2 1 1 0 0 1 0-2m14 0a1 1 0 1 1 0 2 1 1 0 0 1 0-2m14 0a1 1 0 1 1 0 2 1 1 0 0 1 0-2m14 0a1 1 0 1 1 0 2 1 1 0 0 1 0-2m14 0a1 1 0 1 1 0 2 1 1 0 0 1 0-2m14 0a1 1 0 1 1 0 2 1 1 0 0 1 0-2m14 0a1 1 0 1 1 0 2 1 1 0 0 1 0-2m14 0a1 1 0 1 1 0 2 1 1 0 0 1 0-2m14 0a1 1 0 1 1 0 2 1 1 0 0 1 0-2m14 0a1 1 0 1 1 0 2 1 1 0 0 1 0-2m14 0a1 1 0 1 1 0 2 1 1 0 0 1 0-2m14 0a1 1 0 1 1 0 2 1 1 0 0 1 0-2m14 0a1 1 0 1 1 0 2 1 1 0 0 1 0-2m14 0a1 1 0 1 1 0 2 1 1 0 0 1 0-2m14 0a1 1 0 1 1 0 2 1 1 0 0 1 0-2m14 0a1 1 0 1 1 0 2 1 1 0 0 1 0-2m14 0a1 1 0 1 1 0 2 1 1 0 0 1 0-2m14 0a1 1 0 1 1 0 2 1 1 0 0 1 0-2m14 0a1 1 0 1 1 0 2 1 1 0 0 1 0-2m14 0a1 1 0 1 1 0 2 1 1 0 0 1 0-2m14 0a1 1 0 1 1 0 2 1 1 0 0 1 0-2m14 0a1 1 0 1 1 0 2 1 1 0 0 1 0-2m14 0a1 1 0 1 1 0 2 1 1 0 0 1 0-2m14 0a1 1 0 1 1 0 2 1 1 0 0 1 0-2m14 0a1 1 0 1 1 0 2 1 1 0 0 1 0-2m14 0a1 1 0 1 1 0 2 1 1 0 0 1 0-2m14 0a1 1 0 1 1 0 2 1 1 0 0 1 0-2m14 0a1 1 0 1 1 0 2 1 1 0 0 1 0-2m14 0a1 1 0 1 1 0 2 1 1 0 0 1 0-2m14 0a1 1 0 1 1 0 2 1 1 0 0 1 0-2m14 0a1 1 0 1 1 0 2 1 1 0 0 1 0-2m14 0a1 1 0 1 1 0 2 1 1 0 0 1 0-2m14 0a1 1 0 1 1 0 2 1 1 0 0 1 0-2m14 0a1 1 0 1 1 0 2 1 1 0 0 1 0-2m14 0a1 1 0 1 1 0 2 1 1 0 0 1 0-2m14 0a1 1 0 1 1 0 2 1 1 0 0 1 0-2m14 0a1 1 0 1 1 0 2 1 1 0 0 1 0-2m14 0a1 1 0 1 1 0 2 1 1 0 0 1 0-2m14 0a1 1 0 1 1 0 2 1 1 0 0 1 0-2m14 0a1 1 0 1 1 0 2 1 1 0 0 1 0-2m14 0a1 1 0 1 1 0 2 1 1 0 0 1 0-2m14 0a1 1 0 1 1 0 2 1 1 0 0 1 0-2m14 0a1 1 0 1 1 0 2 1 1 0 0 1 0-2m14 0a1 1 0 1 1 0 2 1 1 0 0 1 0-2m14 0a1 1 0 1 1 0 2 1 1 0 0 1 0-2m14 0a1 1 0 1 1 0 2 1 1 0 0 1 0-2m14 0a1 1 0 1 1 0 2 1 1 0 0 1 0-2m14 0a1 1 0 1 1 0 2 1 1 0 0 1 0-2m14 0a1 1 0 1 1 0 2 1 1 0 0 1 0-2m-728-14a1 1 0 1 1 0 2 1 1 0 0 1 0-2m14 0a1 1 0 1 1 0 2 1 1 0 0 1 0-2m14 0a1 1 0 1 1 0 2 1 1 0 0 1 0-2m14 0a1 1 0 1 1 0 2 1 1 0 0 1 0-2m14 0a1 1 0 1 1 0 2 1 1 0 0 1 0-2m14 0a1 1 0 1 1 0 2 1 1 0 0 1 0-2m14 0a1 1 0 1 1 0 2 1 1 0 0 1 0-2m14 0a1 1 0 1 1 0 2 1 1 0 0 1 0-2m14 0a1 1 0 1 1 0 2 1 1 0 0 1 0-2m14 0a1 1 0 1 1 0 2 1 1 0 0 1 0-2m14 0a1 1 0 1 1 0 2 1 1 0 0 1 0-2m14 0a1 1 0 1 1 0 2 1 1 0 0 1 0-2m14 0a1 1 0 1 1 0 2 1 1 0 0 1 0-2m14 0a1 1 0 1 1 0 2 1 1 0 0 1 0-2m14 0a1 1 0 1 1 0 2 1 1 0 0 1 0-2m14 0a1 1 0 1 1 0 2 1 1 0 0 1 0-2m14 0a1 1 0 1 1 0 2 1 1 0 0 1 0-2m14 0a1 1 0 1 1 0 2 1 1 0 0 1 0-2m14 0a1 1 0 1 1 0 2 1 1 0 0 1 0-2m14 0a1 1 0 1 1 0 2 1 1 0 0 1 0-2m14 0a1 1 0 1 1 0 2 1 1 0 0 1 0-2m14 0a1 1 0 1 1 0 2 1 1 0 0 1 0-2m14 0a1 1 0 1 1 0 2 1 1 0 0 1 0-2m14 0a1 1 0 1 1 0 2 1 1 0 0 1 0-2m14 0a1 1 0 1 1 0 2 1 1 0 0 1 0-2m14 0a1 1 0 1 1 0 2 1 1 0 0 1 0-2m14 0a1 1 0 1 1 0 2 1 1 0 0 1 0-2m14 0a1 1 0 1 1 0 2 1 1 0 0 1 0-2m14 0a1 1 0 1 1 0 2 1 1 0 0 1 0-2m14 0a1 1 0 1 1 0 2 1 1 0 0 1 0-2m14 0a1 1 0 1 1 0 2 1 1 0 0 1 0-2m14 0a1 1 0 1 1 0 2 1 1 0 0 1 0-2m14 0a1 1 0 1 1 0 2 1 1 0 0 1 0-2m14 0a1 1 0 1 1 0 2 1 1 0 0 1 0-2m14 0a1 1 0 1 1 0 2 1 1 0 0 1 0-2m14 0a1 1 0 1 1 0 2 1 1 0 0 1 0-2m14 0a1 1 0 1 1 0 2 1 1 0 0 1 0-2m14 0a1 1 0 1 1 0 2 1 1 0 0 1 0-2m14 0a1 1 0 1 1 0 2 1 1 0 0 1 0-2m14 0a1 1 0 1 1 0 2 1 1 0 0 1 0-2m14 0a1 1 0 1 1 0 2 1 1 0 0 1 0-2m14 0a1 1 0 1 1 0 2 1 1 0 0 1 0-2m14 0a1 1 0 1 1 0 2 1 1 0 0 1 0-2m14 0a1 1 0 1 1 0 2 1 1 0 0 1 0-2m14 0a1 1 0 1 1 0 2 1 1 0 0 1 0-2m14 0a1 1 0 1 1 0 2 1 1 0 0 1 0-2m14 0a1 1 0 1 1 0 2 1 1 0 0 1 0-2m14 0a1 1 0 1 1 0 2 1 1 0 0 1 0-2m14 0a1 1 0 1 1 0 2 1 1 0 0 1 0-2m14 0a1 1 0 1 1 0 2 1 1 0 0 1 0-2m14 0a1 1 0 1 1 0 2 1 1 0 0 1 0-2m14 0a1 1 0 1 1 0 2 1 1 0 0 1 0-2m14 0a1 1 0 1 1 0 2 1 1 0 0 1 0-2m-728-14a1 1 0 1 1 0 2 1 1 0 0 1 0-2m14 0a1 1 0 1 1 0 2 1 1 0 0 1 0-2m14 0a1 1 0 1 1 0 2 1 1 0 0 1 0-2m14 0a1 1 0 1 1 0 2 1 1 0 0 1 0-2m14 0a1 1 0 1 1 0 2 1 1 0 0 1 0-2m14 0a1 1 0 1 1 0 2 1 1 0 0 1 0-2m14 0a1 1 0 1 1 0 2 1 1 0 0 1 0-2m14 0a1 1 0 1 1 0 2 1 1 0 0 1 0-2m14 0a1 1 0 1 1 0 2 1 1 0 0 1 0-2m14 0a1 1 0 1 1 0 2 1 1 0 0 1 0-2m14 0a1 1 0 1 1 0 2 1 1 0 0 1 0-2m14 0a1 1 0 1 1 0 2 1 1 0 0 1 0-2m14 0a1 1 0 1 1 0 2 1 1 0 0 1 0-2m14 0a1 1 0 1 1 0 2 1 1 0 0 1 0-2m14 0a1 1 0 1 1 0 2 1 1 0 0 1 0-2m14 0a1 1 0 1 1 0 2 1 1 0 0 1 0-2m14 0a1 1 0 1 1 0 2 1 1 0 0 1 0-2m14 0a1 1 0 1 1 0 2 1 1 0 0 1 0-2m14 0a1 1 0 1 1 0 2 1 1 0 0 1 0-2m14 0a1 1 0 1 1 0 2 1 1 0 0 1 0-2m14 0a1 1 0 1 1 0 2 1 1 0 0 1 0-2m14 0a1 1 0 1 1 0 2 1 1 0 0 1 0-2m14 0a1 1 0 1 1 0 2 1 1 0 0 1 0-2m14 0a1 1 0 1 1 0 2 1 1 0 0 1 0-2m14 0a1 1 0 1 1 0 2 1 1 0 0 1 0-2m14 0a1 1 0 1 1 0 2 1 1 0 0 1 0-2m14 0a1 1 0 1 1 0 2 1 1 0 0 1 0-2m14 0a1 1 0 1 1 0 2 1 1 0 0 1 0-2m14 0a1 1 0 1 1 0 2 1 1 0 0 1 0-2m14 0a1 1 0 1 1 0 2 1 1 0 0 1 0-2m14 0a1 1 0 1 1 0 2 1 1 0 0 1 0-2m14 0a1 1 0 1 1 0 2 1 1 0 0 1 0-2m14 0a1 1 0 1 1 0 2 1 1 0 0 1 0-2m14 0a1 1 0 1 1 0 2 1 1 0 0 1 0-2m14 0a1 1 0 1 1 0 2 1 1 0 0 1 0-2m14 0a1 1 0 1 1 0 2 1 1 0 0 1 0-2m14 0a1 1 0 1 1 0 2 1 1 0 0 1 0-2m14 0a1 1 0 1 1 0 2 1 1 0 0 1 0-2m14 0a1 1 0 1 1 0 2 1 1 0 0 1 0-2m14 0a1 1 0 1 1 0 2 1 1 0 0 1 0-2m14 0a1 1 0 1 1 0 2 1 1 0 0 1 0-2m14 0a1 1 0 1 1 0 2 1 1 0 0 1 0-2m14 0a1 1 0 1 1 0 2 1 1 0 0 1 0-2m14 0a1 1 0 1 1 0 2 1 1 0 0 1 0-2m14 0a1 1 0 1 1 0 2 1 1 0 0 1 0-2m14 0a1 1 0 1 1 0 2 1 1 0 0 1 0-2m14 0a1 1 0 1 1 0 2 1 1 0 0 1 0-2m14 0a1 1 0 1 1 0 2 1 1 0 0 1 0-2m14 0a1 1 0 1 1 0 2 1 1 0 0 1 0-2m14 0a1 1 0 1 1 0 2 1 1 0 0 1 0-2m14 0a1 1 0 1 1 0 2 1 1 0 0 1 0-2m14 0a1 1 0 1 1 0 2 1 1 0 0 1 0-2m14 0a1 1 0 1 1 0 2 1 1 0 0 1 0-2m-728-14a1 1 0 1 1 0 2 1 1 0 0 1 0-2m14 0a1 1 0 1 1 0 2 1 1 0 0 1 0-2m14 0a1 1 0 1 1 0 2 1 1 0 0 1 0-2m14 0a1 1 0 1 1 0 2 1 1 0 0 1 0-2m14 0a1 1 0 1 1 0 2 1 1 0 0 1 0-2m14 0a1 1 0 1 1 0 2 1 1 0 0 1 0-2m14 0a1 1 0 1 1 0 2 1 1 0 0 1 0-2m14 0a1 1 0 1 1 0 2 1 1 0 0 1 0-2m14 0a1 1 0 1 1 0 2 1 1 0 0 1 0-2m14 0a1 1 0 1 1 0 2 1 1 0 0 1 0-2m14 0a1 1 0 1 1 0 2 1 1 0 0 1 0-2m14 0a1 1 0 1 1 0 2 1 1 0 0 1 0-2m14 0a1 1 0 1 1 0 2 1 1 0 0 1 0-2m14 0a1 1 0 1 1 0 2 1 1 0 0 1 0-2m14 0a1 1 0 1 1 0 2 1 1 0 0 1 0-2m14 0a1 1 0 1 1 0 2 1 1 0 0 1 0-2m14 0a1 1 0 1 1 0 2 1 1 0 0 1 0-2m14 0a1 1 0 1 1 0 2 1 1 0 0 1 0-2m14 0a1 1 0 1 1 0 2 1 1 0 0 1 0-2m14 0a1 1 0 1 1 0 2 1 1 0 0 1 0-2m14 0a1 1 0 1 1 0 2 1 1 0 0 1 0-2m14 0a1 1 0 1 1 0 2 1 1 0 0 1 0-2m14 0a1 1 0 1 1 0 2 1 1 0 0 1 0-2m14 0a1 1 0 1 1 0 2 1 1 0 0 1 0-2m14 0a1 1 0 1 1 0 2 1 1 0 0 1 0-2m14 0a1 1 0 1 1 0 2 1 1 0 0 1 0-2m14 0a1 1 0 1 1 0 2 1 1 0 0 1 0-2m14 0a1 1 0 1 1 0 2 1 1 0 0 1 0-2m14 0a1 1 0 1 1 0 2 1 1 0 0 1 0-2m14 0a1 1 0 1 1 0 2 1 1 0 0 1 0-2m14 0a1 1 0 1 1 0 2 1 1 0 0 1 0-2m14 0a1 1 0 1 1 0 2 1 1 0 0 1 0-2m14 0a1 1 0 1 1 0 2 1 1 0 0 1 0-2m14 0a1 1 0 1 1 0 2 1 1 0 0 1 0-2m14 0a1 1 0 1 1 0 2 1 1 0 0 1 0-2m14 0a1 1 0 1 1 0 2 1 1 0 0 1 0-2m14 0a1 1 0 1 1 0 2 1 1 0 0 1 0-2m14 0a1 1 0 1 1 0 2 1 1 0 0 1 0-2m14 0a1 1 0 1 1 0 2 1 1 0 0 1 0-2m14 0a1 1 0 1 1 0 2 1 1 0 0 1 0-2m14 0a1 1 0 1 1 0 2 1 1 0 0 1 0-2m14 0a1 1 0 1 1 0 2 1 1 0 0 1 0-2m14 0a1 1 0 1 1 0 2 1 1 0 0 1 0-2m14 0a1 1 0 1 1 0 2 1 1 0 0 1 0-2m14 0a1 1 0 1 1 0 2 1 1 0 0 1 0-2m14 0a1 1 0 1 1 0 2 1 1 0 0 1 0-2m14 0a1 1 0 1 1 0 2 1 1 0 0 1 0-2m14 0a1 1 0 1 1 0 2 1 1 0 0 1 0-2m14 0a1 1 0 1 1 0 2 1 1 0 0 1 0-2m14 0a1 1 0 1 1 0 2 1 1 0 0 1 0-2m14 0a1 1 0 1 1 0 2 1 1 0 0 1 0-2m14 0a1 1 0 1 1 0 2 1 1 0 0 1 0-2m14 0a1 1 0 1 1 0 2 1 1 0 0 1 0-2m-728-14a1 1 0 1 1 0 2 1 1 0 0 1 0-2m14 0a1 1 0 1 1 0 2 1 1 0 0 1 0-2m14 0a1 1 0 1 1 0 2 1 1 0 0 1 0-2m14 0a1 1 0 1 1 0 2 1 1 0 0 1 0-2m14 0a1 1 0 1 1 0 2 1 1 0 0 1 0-2m14 0a1 1 0 1 1 0 2 1 1 0 0 1 0-2m14 0a1 1 0 1 1 0 2 1 1 0 0 1 0-2m14 0a1 1 0 1 1 0 2 1 1 0 0 1 0-2m14 0a1 1 0 1 1 0 2 1 1 0 0 1 0-2m14 0a1 1 0 1 1 0 2 1 1 0 0 1 0-2m14 0a1 1 0 1 1 0 2 1 1 0 0 1 0-2m14 0a1 1 0 1 1 0 2 1 1 0 0 1 0-2m14 0a1 1 0 1 1 0 2 1 1 0 0 1 0-2m14 0a1 1 0 1 1 0 2 1 1 0 0 1 0-2m14 0a1 1 0 1 1 0 2 1 1 0 0 1 0-2m14 0a1 1 0 1 1 0 2 1 1 0 0 1 0-2m14 0a1 1 0 1 1 0 2 1 1 0 0 1 0-2m14 0a1 1 0 1 1 0 2 1 1 0 0 1 0-2m14 0a1 1 0 1 1 0 2 1 1 0 0 1 0-2m14 0a1 1 0 1 1 0 2 1 1 0 0 1 0-2m14 0a1 1 0 1 1 0 2 1 1 0 0 1 0-2m14 0a1 1 0 1 1 0 2 1 1 0 0 1 0-2m14 0a1 1 0 1 1 0 2 1 1 0 0 1 0-2m14 0a1 1 0 1 1 0 2 1 1 0 0 1 0-2m14 0a1 1 0 1 1 0 2 1 1 0 0 1 0-2m14 0a1 1 0 1 1 0 2 1 1 0 0 1 0-2m14 0a1 1 0 1 1 0 2 1 1 0 0 1 0-2m14 0a1 1 0 1 1 0 2 1 1 0 0 1 0-2m14 0a1 1 0 1 1 0 2 1 1 0 0 1 0-2m14 0a1 1 0 1 1 0 2 1 1 0 0 1 0-2m14 0a1 1 0 1 1 0 2 1 1 0 0 1 0-2m14 0a1 1 0 1 1 0 2 1 1 0 0 1 0-2m14 0a1 1 0 1 1 0 2 1 1 0 0 1 0-2m14 0a1 1 0 1 1 0 2 1 1 0 0 1 0-2m14 0a1 1 0 1 1 0 2 1 1 0 0 1 0-2m14 0a1 1 0 1 1 0 2 1 1 0 0 1 0-2m14 0a1 1 0 1 1 0 2 1 1 0 0 1 0-2m14 0a1 1 0 1 1 0 2 1 1 0 0 1 0-2m14 0a1 1 0 1 1 0 2 1 1 0 0 1 0-2m14 0a1 1 0 1 1 0 2 1 1 0 0 1 0-2m14 0a1 1 0 1 1 0 2 1 1 0 0 1 0-2m14 0a1 1 0 1 1 0 2 1 1 0 0 1 0-2m14 0a1 1 0 1 1 0 2 1 1 0 0 1 0-2m14 0a1 1 0 1 1 0 2 1 1 0 0 1 0-2m14 0a1 1 0 1 1 0 2 1 1 0 0 1 0-2m14 0a1 1 0 1 1 0 2 1 1 0 0 1 0-2m14 0a1 1 0 1 1 0 2 1 1 0 0 1 0-2m14 0a1 1 0 1 1 0 2 1 1 0 0 1 0-2m14 0a1 1 0 1 1 0 2 1 1 0 0 1 0-2m14 0a1 1 0 1 1 0 2 1 1 0 0 1 0-2m14 0a1 1 0 1 1 0 2 1 1 0 0 1 0-2m14 0a1 1 0 1 1 0 2 1 1 0 0 1 0-2m14 0a1 1 0 1 1 0 2 1 1 0 0 1 0-2m-728-14a1 1 0 1 1 0 2 1 1 0 0 1 0-2m14 0a1 1 0 1 1 0 2 1 1 0 0 1 0-2m14 0a1 1 0 1 1 0 2 1 1 0 0 1 0-2m14 0a1 1 0 1 1 0 2 1 1 0 0 1 0-2m14 0a1 1 0 1 1 0 2 1 1 0 0 1 0-2m14 0a1 1 0 1 1 0 2 1 1 0 0 1 0-2m14 0a1 1 0 1 1 0 2 1 1 0 0 1 0-2m14 0a1 1 0 1 1 0 2 1 1 0 0 1 0-2m14 0a1 1 0 1 1 0 2 1 1 0 0 1 0-2m14 0a1 1 0 1 1 0 2 1 1 0 0 1 0-2m14 0a1 1 0 1 1 0 2 1 1 0 0 1 0-2m14 0a1 1 0 1 1 0 2 1 1 0 0 1 0-2m14 0a1 1 0 1 1 0 2 1 1 0 0 1 0-2m14 0a1 1 0 1 1 0 2 1 1 0 0 1 0-2m14 0a1 1 0 1 1 0 2 1 1 0 0 1 0-2m14 0a1 1 0 1 1 0 2 1 1 0 0 1 0-2m14 0a1 1 0 1 1 0 2 1 1 0 0 1 0-2m14 0a1 1 0 1 1 0 2 1 1 0 0 1 0-2m14 0a1 1 0 1 1 0 2 1 1 0 0 1 0-2m14 0a1 1 0 1 1 0 2 1 1 0 0 1 0-2m14 0a1 1 0 1 1 0 2 1 1 0 0 1 0-2m14 0a1 1 0 1 1 0 2 1 1 0 0 1 0-2m14 0a1 1 0 1 1 0 2 1 1 0 0 1 0-2m14 0a1 1 0 1 1 0 2 1 1 0 0 1 0-2m14 0a1 1 0 1 1 0 2 1 1 0 0 1 0-2m14 0a1 1 0 1 1 0 2 1 1 0 0 1 0-2m14 0a1 1 0 1 1 0 2 1 1 0 0 1 0-2m14 0a1 1 0 1 1 0 2 1 1 0 0 1 0-2m14 0a1 1 0 1 1 0 2 1 1 0 0 1 0-2m14 0a1 1 0 1 1 0 2 1 1 0 0 1 0-2m14 0a1 1 0 1 1 0 2 1 1 0 0 1 0-2m14 0a1 1 0 1 1 0 2 1 1 0 0 1 0-2m14 0a1 1 0 1 1 0 2 1 1 0 0 1 0-2m14 0a1 1 0 1 1 0 2 1 1 0 0 1 0-2m14 0a1 1 0 1 1 0 2 1 1 0 0 1 0-2m14 0a1 1 0 1 1 0 2 1 1 0 0 1 0-2m14 0a1 1 0 1 1 0 2 1 1 0 0 1 0-2m14 0a1 1 0 1 1 0 2 1 1 0 0 1 0-2m14 0a1 1 0 1 1 0 2 1 1 0 0 1 0-2m14 0a1 1 0 1 1 0 2 1 1 0 0 1 0-2m14 0a1 1 0 1 1 0 2 1 1 0 0 1 0-2m14 0a1 1 0 1 1 0 2 1 1 0 0 1 0-2m14 0a1 1 0 1 1 0 2 1 1 0 0 1 0-2m14 0a1 1 0 1 1 0 2 1 1 0 0 1 0-2m14 0a1 1 0 1 1 0 2 1 1 0 0 1 0-2m14 0a1 1 0 1 1 0 2 1 1 0 0 1 0-2m14 0a1 1 0 1 1 0 2 1 1 0 0 1 0-2m14 0a1 1 0 1 1 0 2 1 1 0 0 1 0-2m14 0a1 1 0 1 1 0 2 1 1 0 0 1 0-2m14 0a1 1 0 1 1 0 2 1 1 0 0 1 0-2m14 0a1 1 0 1 1 0 2 1 1 0 0 1 0-2m14 0a1 1 0 1 1 0 2 1 1 0 0 1 0-2m14 0a1 1 0 1 1 0 2 1 1 0 0 1 0-2m-728-14a1 1 0 1 1 0 2 1 1 0 0 1 0-2m14 0a1 1 0 1 1 0 2 1 1 0 0 1 0-2m14 0a1 1 0 1 1 0 2 1 1 0 0 1 0-2m14 0a1 1 0 1 1 0 2 1 1 0 0 1 0-2m14 0a1 1 0 1 1 0 2 1 1 0 0 1 0-2m14 0a1 1 0 1 1 0 2 1 1 0 0 1 0-2m14 0a1 1 0 1 1 0 2 1 1 0 0 1 0-2m14 0a1 1 0 1 1 0 2 1 1 0 0 1 0-2m14 0a1 1 0 1 1 0 2 1 1 0 0 1 0-2m14 0a1 1 0 1 1 0 2 1 1 0 0 1 0-2m14 0a1 1 0 1 1 0 2 1 1 0 0 1 0-2m14 0a1 1 0 1 1 0 2 1 1 0 0 1 0-2m14 0a1 1 0 1 1 0 2 1 1 0 0 1 0-2m14 0a1 1 0 1 1 0 2 1 1 0 0 1 0-2m14 0a1 1 0 1 1 0 2 1 1 0 0 1 0-2m14 0a1 1 0 1 1 0 2 1 1 0 0 1 0-2m14 0a1 1 0 1 1 0 2 1 1 0 0 1 0-2m14 0a1 1 0 1 1 0 2 1 1 0 0 1 0-2m14 0a1 1 0 1 1 0 2 1 1 0 0 1 0-2m14 0a1 1 0 1 1 0 2 1 1 0 0 1 0-2m14 0a1 1 0 1 1 0 2 1 1 0 0 1 0-2m14 0a1 1 0 1 1 0 2 1 1 0 0 1 0-2m14 0a1 1 0 1 1 0 2 1 1 0 0 1 0-2m14 0a1 1 0 1 1 0 2 1 1 0 0 1 0-2m14 0a1 1 0 1 1 0 2 1 1 0 0 1 0-2m14 0a1 1 0 1 1 0 2 1 1 0 0 1 0-2m14 0a1 1 0 1 1 0 2 1 1 0 0 1 0-2m14 0a1 1 0 1 1 0 2 1 1 0 0 1 0-2m14 0a1 1 0 1 1 0 2 1 1 0 0 1 0-2m14 0a1 1 0 1 1 0 2 1 1 0 0 1 0-2m14 0a1 1 0 1 1 0 2 1 1 0 0 1 0-2m14 0a1 1 0 1 1 0 2 1 1 0 0 1 0-2m14 0a1 1 0 1 1 0 2 1 1 0 0 1 0-2m14 0a1 1 0 1 1 0 2 1 1 0 0 1 0-2m14 0a1 1 0 1 1 0 2 1 1 0 0 1 0-2m14 0a1 1 0 1 1 0 2 1 1 0 0 1 0-2m14 0a1 1 0 1 1 0 2 1 1 0 0 1 0-2m14 0a1 1 0 1 1 0 2 1 1 0 0 1 0-2m14 0a1 1 0 1 1 0 2 1 1 0 0 1 0-2m14 0a1 1 0 1 1 0 2 1 1 0 0 1 0-2m14 0a1 1 0 1 1 0 2 1 1 0 0 1 0-2m14 0a1 1 0 1 1 0 2 1 1 0 0 1 0-2m14 0a1 1 0 1 1 0 2 1 1 0 0 1 0-2m14 0a1 1 0 1 1 0 2 1 1 0 0 1 0-2m14 0a1 1 0 1 1 0 2 1 1 0 0 1 0-2m14 0a1 1 0 1 1 0 2 1 1 0 0 1 0-2m14 0a1 1 0 1 1 0 2 1 1 0 0 1 0-2m14 0a1 1 0 1 1 0 2 1 1 0 0 1 0-2m14 0a1 1 0 1 1 0 2 1 1 0 0 1 0-2m14 0a1 1 0 1 1 0 2 1 1 0 0 1 0-2m14 0a1 1 0 1 1 0 2 1 1 0 0 1 0-2m14 0a1 1 0 1 1 0 2 1 1 0 0 1 0-2m14 0a1 1 0 1 1 0 2 1 1 0 0 1 0-2m-728-14a1 1 0 1 1 0 2 1 1 0 0 1 0-2m14 0a1 1 0 1 1 0 2 1 1 0 0 1 0-2m14 0a1 1 0 1 1 0 2 1 1 0 0 1 0-2m14 0a1 1 0 1 1 0 2 1 1 0 0 1 0-2m14 0a1 1 0 1 1 0 2 1 1 0 0 1 0-2m14 0a1 1 0 1 1 0 2 1 1 0 0 1 0-2m14 0a1 1 0 1 1 0 2 1 1 0 0 1 0-2m14 0a1 1 0 1 1 0 2 1 1 0 0 1 0-2m14 0a1 1 0 1 1 0 2 1 1 0 0 1 0-2m14 0a1 1 0 1 1 0 2 1 1 0 0 1 0-2m14 0a1 1 0 1 1 0 2 1 1 0 0 1 0-2m14 0a1 1 0 1 1 0 2 1 1 0 0 1 0-2m14 0a1 1 0 1 1 0 2 1 1 0 0 1 0-2m14 0a1 1 0 1 1 0 2 1 1 0 0 1 0-2m14 0a1 1 0 1 1 0 2 1 1 0 0 1 0-2m14 0a1 1 0 1 1 0 2 1 1 0 0 1 0-2m14 0a1 1 0 1 1 0 2 1 1 0 0 1 0-2m14 0a1 1 0 1 1 0 2 1 1 0 0 1 0-2m14 0a1 1 0 1 1 0 2 1 1 0 0 1 0-2m14 0a1 1 0 1 1 0 2 1 1 0 0 1 0-2m14 0a1 1 0 1 1 0 2 1 1 0 0 1 0-2m14 0a1 1 0 1 1 0 2 1 1 0 0 1 0-2m14 0a1 1 0 1 1 0 2 1 1 0 0 1 0-2m14 0a1 1 0 1 1 0 2 1 1 0 0 1 0-2m14 0a1 1 0 1 1 0 2 1 1 0 0 1 0-2m14 0a1 1 0 1 1 0 2 1 1 0 0 1 0-2m14 0a1 1 0 1 1 0 2 1 1 0 0 1 0-2m14 0a1 1 0 1 1 0 2 1 1 0 0 1 0-2m14 0a1 1 0 1 1 0 2 1 1 0 0 1 0-2m14 0a1 1 0 1 1 0 2 1 1 0 0 1 0-2m14 0a1 1 0 1 1 0 2 1 1 0 0 1 0-2m14 0a1 1 0 1 1 0 2 1 1 0 0 1 0-2m14 0a1 1 0 1 1 0 2 1 1 0 0 1 0-2m14 0a1 1 0 1 1 0 2 1 1 0 0 1 0-2m14 0a1 1 0 1 1 0 2 1 1 0 0 1 0-2m14 0a1 1 0 1 1 0 2 1 1 0 0 1 0-2m14 0a1 1 0 1 1 0 2 1 1 0 0 1 0-2m14 0a1 1 0 1 1 0 2 1 1 0 0 1 0-2m14 0a1 1 0 1 1 0 2 1 1 0 0 1 0-2m14 0a1 1 0 1 1 0 2 1 1 0 0 1 0-2m14 0a1 1 0 1 1 0 2 1 1 0 0 1 0-2m14 0a1 1 0 1 1 0 2 1 1 0 0 1 0-2m14 0a1 1 0 1 1 0 2 1 1 0 0 1 0-2m14 0a1 1 0 1 1 0 2 1 1 0 0 1 0-2m14 0a1 1 0 1 1 0 2 1 1 0 0 1 0-2m14 0a1 1 0 1 1 0 2 1 1 0 0 1 0-2m14 0a1 1 0 1 1 0 2 1 1 0 0 1 0-2m14 0a1 1 0 1 1 0 2 1 1 0 0 1 0-2m14 0a1 1 0 1 1 0 2 1 1 0 0 1 0-2m14 0a1 1 0 1 1 0 2 1 1 0 0 1 0-2m14 0a1 1 0 1 1 0 2 1 1 0 0 1 0-2m14 0a1 1 0 1 1 0 2 1 1 0 0 1 0-2m14 0a1 1 0 1 1 0 2 1 1 0 0 1 0-2M-11 86a1 1 0 1 1 0 2 1 1 0 0 1 0-2m14 0a1 1 0 1 1 0 2 1 1 0 0 1 0-2m14 0a1 1 0 1 1 0 2 1 1 0 0 1 0-2m14 0a1 1 0 1 1 0 2 1 1 0 0 1 0-2m14 0a1 1 0 1 1 0 2 1 1 0 0 1 0-2m14 0a1 1 0 1 1 0 2 1 1 0 0 1 0-2m14 0a1 1 0 1 1 0 2 1 1 0 0 1 0-2m14 0a1 1 0 1 1 0 2 1 1 0 0 1 0-2m14 0a1 1 0 1 1 0 2 1 1 0 0 1 0-2m14 0a1 1 0 1 1 0 2 1 1 0 0 1 0-2m14 0a1 1 0 1 1 0 2 1 1 0 0 1 0-2m14 0a1 1 0 1 1 0 2 1 1 0 0 1 0-2m14 0a1 1 0 1 1 0 2 1 1 0 0 1 0-2m14 0a1 1 0 1 1 0 2 1 1 0 0 1 0-2m14 0a1 1 0 1 1 0 2 1 1 0 0 1 0-2m14 0a1 1 0 1 1 0 2 1 1 0 0 1 0-2m14 0a1 1 0 1 1 0 2 1 1 0 0 1 0-2m14 0a1 1 0 1 1 0 2 1 1 0 0 1 0-2m14 0a1 1 0 1 1 0 2 1 1 0 0 1 0-2m14 0a1 1 0 1 1 0 2 1 1 0 0 1 0-2m14 0a1 1 0 1 1 0 2 1 1 0 0 1 0-2m14 0a1 1 0 1 1 0 2 1 1 0 0 1 0-2m14 0a1 1 0 1 1 0 2 1 1 0 0 1 0-2m14 0a1 1 0 1 1 0 2 1 1 0 0 1 0-2m14 0a1 1 0 1 1 0 2 1 1 0 0 1 0-2m14 0a1 1 0 1 1 0 2 1 1 0 0 1 0-2m14 0a1 1 0 1 1 0 2 1 1 0 0 1 0-2m14 0a1 1 0 1 1 0 2 1 1 0 0 1 0-2m14 0a1 1 0 1 1 0 2 1 1 0 0 1 0-2m14 0a1 1 0 1 1 0 2 1 1 0 0 1 0-2m14 0a1 1 0 1 1 0 2 1 1 0 0 1 0-2m14 0a1 1 0 1 1 0 2 1 1 0 0 1 0-2m14 0a1 1 0 1 1 0 2 1 1 0 0 1 0-2m14 0a1 1 0 1 1 0 2 1 1 0 0 1 0-2m14 0a1 1 0 1 1 0 2 1 1 0 0 1 0-2m14 0a1 1 0 1 1 0 2 1 1 0 0 1 0-2m14 0a1 1 0 1 1 0 2 1 1 0 0 1 0-2m14 0a1 1 0 1 1 0 2 1 1 0 0 1 0-2m14 0a1 1 0 1 1 0 2 1 1 0 0 1 0-2m14 0a1 1 0 1 1 0 2 1 1 0 0 1 0-2m14 0a1 1 0 1 1 0 2 1 1 0 0 1 0-2m14 0a1 1 0 1 1 0 2 1 1 0 0 1 0-2m14 0a1 1 0 1 1 0 2 1 1 0 0 1 0-2m14 0a1 1 0 1 1 0 2 1 1 0 0 1 0-2m14 0a1 1 0 1 1 0 2 1 1 0 0 1 0-2m14 0a1 1 0 1 1 0 2 1 1 0 0 1 0-2m14 0a1 1 0 1 1 0 2 1 1 0 0 1 0-2m14 0a1 1 0 1 1 0 2 1 1 0 0 1 0-2m14 0a1 1 0 1 1 0 2 1 1 0 0 1 0-2m14 0a1 1 0 1 1 0 2 1 1 0 0 1 0-2m14 0a1 1 0 1 1 0 2 1 1 0 0 1 0-2m14 0a1 1 0 1 1 0 2 1 1 0 0 1 0-2m14 0a1 1 0 1 1 0 2 1 1 0 0 1 0-2M-11 72a1 1 0 1 1 0 2 1 1 0 0 1 0-2m14 0a1 1 0 1 1 0 2 1 1 0 0 1 0-2m14 0a1 1 0 1 1 0 2 1 1 0 0 1 0-2m14 0a1 1 0 1 1 0 2 1 1 0 0 1 0-2m14 0a1 1 0 1 1 0 2 1 1 0 0 1 0-2m14 0a1 1 0 1 1 0 2 1 1 0 0 1 0-2m14 0a1 1 0 1 1 0 2 1 1 0 0 1 0-2m14 0a1 1 0 1 1 0 2 1 1 0 0 1 0-2m14 0a1 1 0 1 1 0 2 1 1 0 0 1 0-2m14 0a1 1 0 1 1 0 2 1 1 0 0 1 0-2m14 0a1 1 0 1 1 0 2 1 1 0 0 1 0-2m14 0a1 1 0 1 1 0 2 1 1 0 0 1 0-2m14 0a1 1 0 1 1 0 2 1 1 0 0 1 0-2m14 0a1 1 0 1 1 0 2 1 1 0 0 1 0-2m14 0a1 1 0 1 1 0 2 1 1 0 0 1 0-2m14 0a1 1 0 1 1 0 2 1 1 0 0 1 0-2m14 0a1 1 0 1 1 0 2 1 1 0 0 1 0-2m14 0a1 1 0 1 1 0 2 1 1 0 0 1 0-2m14 0a1 1 0 1 1 0 2 1 1 0 0 1 0-2m14 0a1 1 0 1 1 0 2 1 1 0 0 1 0-2m14 0a1 1 0 1 1 0 2 1 1 0 0 1 0-2m14 0a1 1 0 1 1 0 2 1 1 0 0 1 0-2m14 0a1 1 0 1 1 0 2 1 1 0 0 1 0-2m14 0a1 1 0 1 1 0 2 1 1 0 0 1 0-2m14 0a1 1 0 1 1 0 2 1 1 0 0 1 0-2m14 0a1 1 0 1 1 0 2 1 1 0 0 1 0-2m14 0a1 1 0 1 1 0 2 1 1 0 0 1 0-2m14 0a1 1 0 1 1 0 2 1 1 0 0 1 0-2m14 0a1 1 0 1 1 0 2 1 1 0 0 1 0-2m14 0a1 1 0 1 1 0 2 1 1 0 0 1 0-2m14 0a1 1 0 1 1 0 2 1 1 0 0 1 0-2m14 0a1 1 0 1 1 0 2 1 1 0 0 1 0-2m14 0a1 1 0 1 1 0 2 1 1 0 0 1 0-2m14 0a1 1 0 1 1 0 2 1 1 0 0 1 0-2m14 0a1 1 0 1 1 0 2 1 1 0 0 1 0-2m14 0a1 1 0 1 1 0 2 1 1 0 0 1 0-2m14 0a1 1 0 1 1 0 2 1 1 0 0 1 0-2m14 0a1 1 0 1 1 0 2 1 1 0 0 1 0-2m14 0a1 1 0 1 1 0 2 1 1 0 0 1 0-2m14 0a1 1 0 1 1 0 2 1 1 0 0 1 0-2m14 0a1 1 0 1 1 0 2 1 1 0 0 1 0-2m14 0a1 1 0 1 1 0 2 1 1 0 0 1 0-2m14 0a1 1 0 1 1 0 2 1 1 0 0 1 0-2m14 0a1 1 0 1 1 0 2 1 1 0 0 1 0-2m14 0a1 1 0 1 1 0 2 1 1 0 0 1 0-2m14 0a1 1 0 1 1 0 2 1 1 0 0 1 0-2m14 0a1 1 0 1 1 0 2 1 1 0 0 1 0-2m14 0a1 1 0 1 1 0 2 1 1 0 0 1 0-2m14 0a1 1 0 1 1 0 2 1 1 0 0 1 0-2m14 0a1 1 0 1 1 0 2 1 1 0 0 1 0-2m14 0a1 1 0 1 1 0 2 1 1 0 0 1 0-2m14 0a1 1 0 1 1 0 2 1 1 0 0 1 0-2m14 0a1 1 0 1 1 0 2 1 1 0 0 1 0-2M-11 58a1 1 0 1 1 0 2 1 1 0 0 1 0-2m14 0a1 1 0 1 1 0 2 1 1 0 0 1 0-2m14 0a1 1 0 1 1 0 2 1 1 0 0 1 0-2m14 0a1 1 0 1 1 0 2 1 1 0 0 1 0-2m14 0a1 1 0 1 1 0 2 1 1 0 0 1 0-2m14 0a1 1 0 1 1 0 2 1 1 0 0 1 0-2m14 0a1 1 0 1 1 0 2 1 1 0 0 1 0-2m14 0a1 1 0 1 1 0 2 1 1 0 0 1 0-2m14 0a1 1 0 1 1 0 2 1 1 0 0 1 0-2m14 0a1 1 0 1 1 0 2 1 1 0 0 1 0-2m14 0a1 1 0 1 1 0 2 1 1 0 0 1 0-2m14 0a1 1 0 1 1 0 2 1 1 0 0 1 0-2m14 0a1 1 0 1 1 0 2 1 1 0 0 1 0-2m14 0a1 1 0 1 1 0 2 1 1 0 0 1 0-2m14 0a1 1 0 1 1 0 2 1 1 0 0 1 0-2m14 0a1 1 0 1 1 0 2 1 1 0 0 1 0-2m14 0a1 1 0 1 1 0 2 1 1 0 0 1 0-2m14 0a1 1 0 1 1 0 2 1 1 0 0 1 0-2m14 0a1 1 0 1 1 0 2 1 1 0 0 1 0-2m14 0a1 1 0 1 1 0 2 1 1 0 0 1 0-2m14 0a1 1 0 1 1 0 2 1 1 0 0 1 0-2m14 0a1 1 0 1 1 0 2 1 1 0 0 1 0-2m14 0a1 1 0 1 1 0 2 1 1 0 0 1 0-2m14 0a1 1 0 1 1 0 2 1 1 0 0 1 0-2m14 0a1 1 0 1 1 0 2 1 1 0 0 1 0-2m14 0a1 1 0 1 1 0 2 1 1 0 0 1 0-2m14 0a1 1 0 1 1 0 2 1 1 0 0 1 0-2m14 0a1 1 0 1 1 0 2 1 1 0 0 1 0-2m14 0a1 1 0 1 1 0 2 1 1 0 0 1 0-2m14 0a1 1 0 1 1 0 2 1 1 0 0 1 0-2m14 0a1 1 0 1 1 0 2 1 1 0 0 1 0-2m14 0a1 1 0 1 1 0 2 1 1 0 0 1 0-2m14 0a1 1 0 1 1 0 2 1 1 0 0 1 0-2m14 0a1 1 0 1 1 0 2 1 1 0 0 1 0-2m14 0a1 1 0 1 1 0 2 1 1 0 0 1 0-2m14 0a1 1 0 1 1 0 2 1 1 0 0 1 0-2m14 0a1 1 0 1 1 0 2 1 1 0 0 1 0-2m14 0a1 1 0 1 1 0 2 1 1 0 0 1 0-2m14 0a1 1 0 1 1 0 2 1 1 0 0 1 0-2m14 0a1 1 0 1 1 0 2 1 1 0 0 1 0-2m14 0a1 1 0 1 1 0 2 1 1 0 0 1 0-2m14 0a1 1 0 1 1 0 2 1 1 0 0 1 0-2m14 0a1 1 0 1 1 0 2 1 1 0 0 1 0-2m14 0a1 1 0 1 1 0 2 1 1 0 0 1 0-2m14 0a1 1 0 1 1 0 2 1 1 0 0 1 0-2m14 0a1 1 0 1 1 0 2 1 1 0 0 1 0-2m14 0a1 1 0 1 1 0 2 1 1 0 0 1 0-2m14 0a1 1 0 1 1 0 2 1 1 0 0 1 0-2m14 0a1 1 0 1 1 0 2 1 1 0 0 1 0-2m14 0a1 1 0 1 1 0 2 1 1 0 0 1 0-2m14 0a1 1 0 1 1 0 2 1 1 0 0 1 0-2m14 0a1 1 0 1 1 0 2 1 1 0 0 1 0-2m14 0a1 1 0 1 1 0 2 1 1 0 0 1 0-2M-11 44a1 1 0 1 1 0 2 1 1 0 0 1 0-2m14 0a1 1 0 1 1 0 2 1 1 0 0 1 0-2m14 0a1 1 0 1 1 0 2 1 1 0 0 1 0-2m14 0a1 1 0 1 1 0 2 1 1 0 0 1 0-2m14 0a1 1 0 1 1 0 2 1 1 0 0 1 0-2m14 0a1 1 0 1 1 0 2 1 1 0 0 1 0-2m14 0a1 1 0 1 1 0 2 1 1 0 0 1 0-2m14 0a1 1 0 1 1 0 2 1 1 0 0 1 0-2m14 0a1 1 0 1 1 0 2 1 1 0 0 1 0-2m14 0a1 1 0 1 1 0 2 1 1 0 0 1 0-2m14 0a1 1 0 1 1 0 2 1 1 0 0 1 0-2m14 0a1 1 0 1 1 0 2 1 1 0 0 1 0-2m14 0a1 1 0 1 1 0 2 1 1 0 0 1 0-2m14 0a1 1 0 1 1 0 2 1 1 0 0 1 0-2m14 0a1 1 0 1 1 0 2 1 1 0 0 1 0-2m14 0a1 1 0 1 1 0 2 1 1 0 0 1 0-2m14 0a1 1 0 1 1 0 2 1 1 0 0 1 0-2m14 0a1 1 0 1 1 0 2 1 1 0 0 1 0-2m14 0a1 1 0 1 1 0 2 1 1 0 0 1 0-2m14 0a1 1 0 1 1 0 2 1 1 0 0 1 0-2m14 0a1 1 0 1 1 0 2 1 1 0 0 1 0-2m14 0a1 1 0 1 1 0 2 1 1 0 0 1 0-2m14 0a1 1 0 1 1 0 2 1 1 0 0 1 0-2m14 0a1 1 0 1 1 0 2 1 1 0 0 1 0-2m14 0a1 1 0 1 1 0 2 1 1 0 0 1 0-2m14 0a1 1 0 1 1 0 2 1 1 0 0 1 0-2m14 0a1 1 0 1 1 0 2 1 1 0 0 1 0-2m14 0a1 1 0 1 1 0 2 1 1 0 0 1 0-2m14 0a1 1 0 1 1 0 2 1 1 0 0 1 0-2m14 0a1 1 0 1 1 0 2 1 1 0 0 1 0-2m14 0a1 1 0 1 1 0 2 1 1 0 0 1 0-2m14 0a1 1 0 1 1 0 2 1 1 0 0 1 0-2m14 0a1 1 0 1 1 0 2 1 1 0 0 1 0-2m14 0a1 1 0 1 1 0 2 1 1 0 0 1 0-2m14 0a1 1 0 1 1 0 2 1 1 0 0 1 0-2m14 0a1 1 0 1 1 0 2 1 1 0 0 1 0-2m14 0a1 1 0 1 1 0 2 1 1 0 0 1 0-2m14 0a1 1 0 1 1 0 2 1 1 0 0 1 0-2m14 0a1 1 0 1 1 0 2 1 1 0 0 1 0-2m14 0a1 1 0 1 1 0 2 1 1 0 0 1 0-2m14 0a1 1 0 1 1 0 2 1 1 0 0 1 0-2m14 0a1 1 0 1 1 0 2 1 1 0 0 1 0-2m14 0a1 1 0 1 1 0 2 1 1 0 0 1 0-2m14 0a1 1 0 1 1 0 2 1 1 0 0 1 0-2m14 0a1 1 0 1 1 0 2 1 1 0 0 1 0-2m14 0a1 1 0 1 1 0 2 1 1 0 0 1 0-2m14 0a1 1 0 1 1 0 2 1 1 0 0 1 0-2m14 0a1 1 0 1 1 0 2 1 1 0 0 1 0-2m14 0a1 1 0 1 1 0 2 1 1 0 0 1 0-2m14 0a1 1 0 1 1 0 2 1 1 0 0 1 0-2m14 0a1 1 0 1 1 0 2 1 1 0 0 1 0-2m14 0a1 1 0 1 1 0 2 1 1 0 0 1 0-2m14 0a1 1 0 1 1 0 2 1 1 0 0 1 0-2M-11 30a1 1 0 1 1 0 2 1 1 0 0 1 0-2m14 0a1 1 0 1 1 0 2 1 1 0 0 1 0-2m14 0a1 1 0 1 1 0 2 1 1 0 0 1 0-2m14 0a1 1 0 1 1 0 2 1 1 0 0 1 0-2m14 0a1 1 0 1 1 0 2 1 1 0 0 1 0-2m14 0a1 1 0 1 1 0 2 1 1 0 0 1 0-2m14 0a1 1 0 1 1 0 2 1 1 0 0 1 0-2m14 0a1 1 0 1 1 0 2 1 1 0 0 1 0-2m14 0a1 1 0 1 1 0 2 1 1 0 0 1 0-2m14 0a1 1 0 1 1 0 2 1 1 0 0 1 0-2m14 0a1 1 0 1 1 0 2 1 1 0 0 1 0-2m14 0a1 1 0 1 1 0 2 1 1 0 0 1 0-2m14 0a1 1 0 1 1 0 2 1 1 0 0 1 0-2m14 0a1 1 0 1 1 0 2 1 1 0 0 1 0-2m14 0a1 1 0 1 1 0 2 1 1 0 0 1 0-2m14 0a1 1 0 1 1 0 2 1 1 0 0 1 0-2m14 0a1 1 0 1 1 0 2 1 1 0 0 1 0-2m14 0a1 1 0 1 1 0 2 1 1 0 0 1 0-2m14 0a1 1 0 1 1 0 2 1 1 0 0 1 0-2m14 0a1 1 0 1 1 0 2 1 1 0 0 1 0-2m14 0a1 1 0 1 1 0 2 1 1 0 0 1 0-2m14 0a1 1 0 1 1 0 2 1 1 0 0 1 0-2m14 0a1 1 0 1 1 0 2 1 1 0 0 1 0-2m14 0a1 1 0 1 1 0 2 1 1 0 0 1 0-2m14 0a1 1 0 1 1 0 2 1 1 0 0 1 0-2m14 0a1 1 0 1 1 0 2 1 1 0 0 1 0-2m14 0a1 1 0 1 1 0 2 1 1 0 0 1 0-2m14 0a1 1 0 1 1 0 2 1 1 0 0 1 0-2m14 0a1 1 0 1 1 0 2 1 1 0 0 1 0-2m14 0a1 1 0 1 1 0 2 1 1 0 0 1 0-2m14 0a1 1 0 1 1 0 2 1 1 0 0 1 0-2m14 0a1 1 0 1 1 0 2 1 1 0 0 1 0-2m14 0a1 1 0 1 1 0 2 1 1 0 0 1 0-2m14 0a1 1 0 1 1 0 2 1 1 0 0 1 0-2m14 0a1 1 0 1 1 0 2 1 1 0 0 1 0-2m14 0a1 1 0 1 1 0 2 1 1 0 0 1 0-2m14 0a1 1 0 1 1 0 2 1 1 0 0 1 0-2m14 0a1 1 0 1 1 0 2 1 1 0 0 1 0-2m14 0a1 1 0 1 1 0 2 1 1 0 0 1 0-2m14 0a1 1 0 1 1 0 2 1 1 0 0 1 0-2m14 0a1 1 0 1 1 0 2 1 1 0 0 1 0-2m14 0a1 1 0 1 1 0 2 1 1 0 0 1 0-2m14 0a1 1 0 1 1 0 2 1 1 0 0 1 0-2m14 0a1 1 0 1 1 0 2 1 1 0 0 1 0-2m14 0a1 1 0 1 1 0 2 1 1 0 0 1 0-2m14 0a1 1 0 1 1 0 2 1 1 0 0 1 0-2m14 0a1 1 0 1 1 0 2 1 1 0 0 1 0-2m14 0a1 1 0 1 1 0 2 1 1 0 0 1 0-2m14 0a1 1 0 1 1 0 2 1 1 0 0 1 0-2m14 0a1 1 0 1 1 0 2 1 1 0 0 1 0-2m14 0a1 1 0 1 1 0 2 1 1 0 0 1 0-2m14 0a1 1 0 1 1 0 2 1 1 0 0 1 0-2m14 0a1 1 0 1 1 0 2 1 1 0 0 1 0-2M-11 16a1 1 0 1 1 0 2 1 1 0 0 1 0-2m14 0a1 1 0 1 1 0 2 1 1 0 0 1 0-2m14 0a1 1 0 1 1 0 2 1 1 0 0 1 0-2m14 0a1 1 0 1 1 0 2 1 1 0 0 1 0-2m14 0a1 1 0 1 1 0 2 1 1 0 0 1 0-2m14 0a1 1 0 1 1 0 2 1 1 0 0 1 0-2m14 0a1 1 0 1 1 0 2 1 1 0 0 1 0-2m14 0a1 1 0 1 1 0 2 1 1 0 0 1 0-2m14 0a1 1 0 1 1 0 2 1 1 0 0 1 0-2m14 0a1 1 0 1 1 0 2 1 1 0 0 1 0-2m14 0a1 1 0 1 1 0 2 1 1 0 0 1 0-2m14 0a1 1 0 1 1 0 2 1 1 0 0 1 0-2m14 0a1 1 0 1 1 0 2 1 1 0 0 1 0-2m14 0a1 1 0 1 1 0 2 1 1 0 0 1 0-2m14 0a1 1 0 1 1 0 2 1 1 0 0 1 0-2m14 0a1 1 0 1 1 0 2 1 1 0 0 1 0-2m14 0a1 1 0 1 1 0 2 1 1 0 0 1 0-2m14 0a1 1 0 1 1 0 2 1 1 0 0 1 0-2m14 0a1 1 0 1 1 0 2 1 1 0 0 1 0-2m14 0a1 1 0 1 1 0 2 1 1 0 0 1 0-2m14 0a1 1 0 1 1 0 2 1 1 0 0 1 0-2m14 0a1 1 0 1 1 0 2 1 1 0 0 1 0-2m14 0a1 1 0 1 1 0 2 1 1 0 0 1 0-2m14 0a1 1 0 1 1 0 2 1 1 0 0 1 0-2m14 0a1 1 0 1 1 0 2 1 1 0 0 1 0-2m14 0a1 1 0 1 1 0 2 1 1 0 0 1 0-2m14 0a1 1 0 1 1 0 2 1 1 0 0 1 0-2m14 0a1 1 0 1 1 0 2 1 1 0 0 1 0-2m14 0a1 1 0 1 1 0 2 1 1 0 0 1 0-2m14 0a1 1 0 1 1 0 2 1 1 0 0 1 0-2m14 0a1 1 0 1 1 0 2 1 1 0 0 1 0-2m14 0a1 1 0 1 1 0 2 1 1 0 0 1 0-2m14 0a1 1 0 1 1 0 2 1 1 0 0 1 0-2m14 0a1 1 0 1 1 0 2 1 1 0 0 1 0-2m14 0a1 1 0 1 1 0 2 1 1 0 0 1 0-2m14 0a1 1 0 1 1 0 2 1 1 0 0 1 0-2m14 0a1 1 0 1 1 0 2 1 1 0 0 1 0-2m14 0a1 1 0 1 1 0 2 1 1 0 0 1 0-2m14 0a1 1 0 1 1 0 2 1 1 0 0 1 0-2m14 0a1 1 0 1 1 0 2 1 1 0 0 1 0-2m14 0a1 1 0 1 1 0 2 1 1 0 0 1 0-2m14 0a1 1 0 1 1 0 2 1 1 0 0 1 0-2m14 0a1 1 0 1 1 0 2 1 1 0 0 1 0-2m14 0a1 1 0 1 1 0 2 1 1 0 0 1 0-2m14 0a1 1 0 1 1 0 2 1 1 0 0 1 0-2m14 0a1 1 0 1 1 0 2 1 1 0 0 1 0-2m14 0a1 1 0 1 1 0 2 1 1 0 0 1 0-2m14 0a1 1 0 1 1 0 2 1 1 0 0 1 0-2m14 0a1 1 0 1 1 0 2 1 1 0 0 1 0-2m14 0a1 1 0 1 1 0 2 1 1 0 0 1 0-2m14 0a1 1 0 1 1 0 2 1 1 0 0 1 0-2m14 0a1 1 0 1 1 0 2 1 1 0 0 1 0-2m14 0a1 1 0 1 1 0 2 1 1 0 0 1 0-2M-11 2a1 1 0 1 1 0 2 1 1 0 0 1 0-2M3 2a1 1 0 1 1 0 2 1 1 0 0 1 0-2m14 0a1 1 0 1 1 0 2 1 1 0 0 1 0-2m14 0a1 1 0 1 1 0 2 1 1 0 0 1 0-2m14 0a1 1 0 1 1 0 2 1 1 0 0 1 0-2m14 0a1 1 0 1 1 0 2 1 1 0 0 1 0-2m14 0a1 1 0 1 1 0 2 1 1 0 0 1 0-2m14 0a1 1 0 1 1 0 2 1 1 0 0 1 0-2m14 0a1 1 0 1 1 0 2 1 1 0 0 1 0-2m14 0a1 1 0 1 1 0 2 1 1 0 0 1 0-2m14 0a1 1 0 1 1 0 2 1 1 0 0 1 0-2m14 0a1 1 0 1 1 0 2 1 1 0 0 1 0-2m14 0a1 1 0 1 1 0 2 1 1 0 0 1 0-2m14 0a1 1 0 1 1 0 2 1 1 0 0 1 0-2m14 0a1 1 0 1 1 0 2 1 1 0 0 1 0-2m14 0a1 1 0 1 1 0 2 1 1 0 0 1 0-2m14 0a1 1 0 1 1 0 2 1 1 0 0 1 0-2m14 0a1 1 0 1 1 0 2 1 1 0 0 1 0-2m14 0a1 1 0 1 1 0 2 1 1 0 0 1 0-2m14 0a1 1 0 1 1 0 2 1 1 0 0 1 0-2m14 0a1 1 0 1 1 0 2 1 1 0 0 1 0-2m14 0a1 1 0 1 1 0 2 1 1 0 0 1 0-2m14 0a1 1 0 1 1 0 2 1 1 0 0 1 0-2m14 0a1 1 0 1 1 0 2 1 1 0 0 1 0-2m14 0a1 1 0 1 1 0 2 1 1 0 0 1 0-2m14 0a1 1 0 1 1 0 2 1 1 0 0 1 0-2m14 0a1 1 0 1 1 0 2 1 1 0 0 1 0-2m14 0a1 1 0 1 1 0 2 1 1 0 0 1 0-2m14 0a1 1 0 1 1 0 2 1 1 0 0 1 0-2m14 0a1 1 0 1 1 0 2 1 1 0 0 1 0-2m14 0a1 1 0 1 1 0 2 1 1 0 0 1 0-2m14 0a1 1 0 1 1 0 2 1 1 0 0 1 0-2m14 0a1 1 0 1 1 0 2 1 1 0 0 1 0-2m14 0a1 1 0 1 1 0 2 1 1 0 0 1 0-2m14 0a1 1 0 1 1 0 2 1 1 0 0 1 0-2m14 0a1 1 0 1 1 0 2 1 1 0 0 1 0-2m14 0a1 1 0 1 1 0 2 1 1 0 0 1 0-2m14 0a1 1 0 1 1 0 2 1 1 0 0 1 0-2m14 0a1 1 0 1 1 0 2 1 1 0 0 1 0-2m14 0a1 1 0 1 1 0 2 1 1 0 0 1 0-2m14 0a1 1 0 1 1 0 2 1 1 0 0 1 0-2m14 0a1 1 0 1 1 0 2 1 1 0 0 1 0-2m14 0a1 1 0 1 1 0 2 1 1 0 0 1 0-2m14 0a1 1 0 1 1 0 2 1 1 0 0 1 0-2m14 0a1 1 0 1 1 0 2 1 1 0 0 1 0-2m14 0a1 1 0 1 1 0 2 1 1 0 0 1 0-2m14 0a1 1 0 1 1 0 2 1 1 0 0 1 0-2m14 0a1 1 0 1 1 0 2 1 1 0 0 1 0-2m14 0a1 1 0 1 1 0 2 1 1 0 0 1 0-2m14 0a1 1 0 1 1 0 2 1 1 0 0 1 0-2m14 0a1 1 0 1 1 0 2 1 1 0 0 1 0-2m14 0a1 1 0 1 1 0 2 1 1 0 0 1 0-2m14 0a1 1 0 1 1 0 2 1 1 0 0 1 0-2"/></g><rect width="162" height="55" x="121.5" y="16.5" fill="#defbd0" rx="9.5"/><rect width="162" height="55" x="121.5" y="16.5" stroke="#4fdf0c" rx="9.5"/><rect width="30" height="30" x="133" y="29" fill="#28650b" rx="4"/><path fill="#defbd0" d="M145.517 42.435a.916.916 0 1 1 1.296 1.296l-1.185 1.186 1.454 1.453 1.185-1.185a.916.916 0 1 1 1.296 1.296l-1.185 1.186.269.268a.916.916 0 0 1 0 1.296l-1.375 1.375a4.17 4.17 0 0 1-2.944 1.255 4.16 4.16 0 0 1-2.253-.642l-1.678 1.68a.916.916 0 1 1-1.296-1.297l1.678-1.68a4.15 4.15 0 0 1-.306-3.856c.217-.507.534-.966.93-1.35l1.364-1.364.067-.061a.92.92 0 0 1 1.229.06l.269.27zm-2.839 3.599a2.33 2.33 0 0 0-.535 2.551q.127.308.336.569a.9.9 0 0 1 .365.365 2.32 2.32 0 0 0 1.47.51 2.32 2.32 0 0 0 1.651-.708l.737-.738-3.287-3.287zm12.923-10.932a.916.916 0 1 1 1.296 1.296l-1.68 1.678a4.16 4.16 0 0 1 .643 2.254 4.14 4.14 0 0 1-1.256 2.942l.001.001-1.375 1.375a.916.916 0 0 1-1.296 0l-4.583-4.583a.916.916 0 0 1 0-1.296l1.375-1.375a4.14 4.14 0 0 1 2.943-1.255 4.15 4.15 0 0 1 2.252.641zm-3.918 2.87a2.32 2.32 0 0 0-1.651.707l-.737.738 3.287 3.287.738-.738a2.34 2.34 0 0 0 .707-1.65 2.3 2.3 0 0 0-.51-1.47.9.9 0 0 1-.365-.366 2.3 2.3 0 0 0-1.469-.508"/><path fill="#17181c" d="M177.025 42.735h-1.726a2.2 2.2 0 0 0-.273-.752 2.02 2.02 0 0 0-1.168-.91 2.6 2.6 0 0 0-.808-.12q-.77 0-1.366.388-.595.384-.933 1.127-.336.738-.337 1.805 0 1.084.337 1.828.342.739.933 1.117.595.374 1.362.374.425 0 .794-.11.374-.117.669-.338.3-.222.503-.545a2.1 2.1 0 0 0 .287-.738l1.726.009q-.096.675-.42 1.265a3.7 3.7 0 0 1-.835 1.043 3.9 3.9 0 0 1-1.21.702q-.693.25-1.537.25-1.247 0-2.225-.578-.98-.577-1.542-1.666-.564-1.09-.564-2.613 0-1.529.568-2.613.568-1.09 1.547-1.667.978-.577 2.216-.577.789 0 1.468.222.678.221 1.209.65.531.426.873 1.044.346.614.452 1.403m4.588 6.404q-1.04 0-1.801-.458a3.1 3.1 0 0 1-1.181-1.278q-.416-.822-.416-1.92 0-1.1.416-1.926a3.1 3.1 0 0 1 1.181-1.283q.762-.457 1.801-.457t1.8.457 1.177 1.283q.421.827.421 1.925 0 1.1-.421 1.92a3.07 3.07 0 0 1-1.177 1.28q-.762.456-1.8.456m.009-1.34q.563 0 .942-.309.378-.313.563-.84a3.5 3.5 0 0 0 .189-1.172q0-.651-.189-1.178a1.87 1.87 0 0 0-.563-.844q-.379-.315-.942-.314-.578 0-.96.314-.38.313-.568.844-.185.527-.185 1.178 0 .645.185 1.172.189.526.568.84.382.31.96.31m6.478-2.954V49h-1.671v-7.09h1.597v1.204h.083q.245-.595.781-.946.54-.351 1.334-.351.733 0 1.278.314.55.313.85.91.304.594.3 1.444V49h-1.671v-4.256q0-.711-.369-1.113-.366-.402-1.012-.402-.438 0-.78.194-.336.19-.531.55-.189.36-.189.872m7.922 0V49h-1.671v-7.09h1.597v1.204h.083q.245-.595.78-.946.54-.351 1.335-.351.734 0 1.278.314.55.313.85.91.305.594.3 1.444V49h-1.671v-4.256q0-.711-.37-1.113-.364-.402-1.011-.402-.438 0-.78.194-.336.19-.531.55-.189.36-.189.872m9.39 4.294q-1.066 0-1.842-.444a3 3 0 0 1-1.186-1.265q-.416-.82-.416-1.934 0-1.095.416-1.92.42-.831 1.172-1.293.753-.466 1.768-.466.656 0 1.237.212.586.208 1.035.646.452.439.71 1.118.26.674.259 1.606v.513h-5.812v-1.127h4.21a1.8 1.8 0 0 0-.208-.854 1.5 1.5 0 0 0-.567-.595 1.6 1.6 0 0 0-.841-.217 1.63 1.63 0 0 0-.9.249q-.387.244-.605.646a1.9 1.9 0 0 0-.217.873v.983q0 .618.227 1.062.225.438.632.674.406.23.951.23.364 0 .66-.1a1.5 1.5 0 0 0 .513-.31q.217-.204.327-.503l1.561.175a2.44 2.44 0 0 1-.563 1.08 2.75 2.75 0 0 1-1.053.711q-.642.25-1.468.25m7.66 0q-1.062 0-1.824-.467a3.1 3.1 0 0 1-1.168-1.288q-.405-.826-.406-1.902 0-1.08.416-1.906a3.1 3.1 0 0 1 1.172-1.293q.762-.466 1.801-.466.862 0 1.528.318.669.315 1.066.891.398.573.452 1.34h-1.597a1.52 1.52 0 0 0-.461-.855q-.361-.345-.965-.346-.513 0-.901.277a1.77 1.77 0 0 0-.604.785q-.213.511-.213 1.228 0 .724.213 1.246.212.517.595.799.388.276.91.277.369 0 .66-.139.295-.143.494-.41.198-.269.272-.652h1.597q-.06.753-.443 1.334a2.6 2.6 0 0 1-1.043.905q-.66.324-1.551.324m7.951-7.23v1.293h-4.077v-1.293zm-3.07-1.699h1.671v6.657q0 .337.101.517a.55.55 0 0 0 .277.24q.17.065.379.065.156 0 .286-.023.134-.024.203-.042l.282 1.307q-.134.045-.383.101a3 3 0 0 1-.6.065 2.7 2.7 0 0 1-1.132-.19 1.76 1.76 0 0 1-.798-.655q-.29-.443-.286-1.108z"/><rect width="194.5" height="147.5" x="105.25" y="120.25" fill="#84ee53" fill-opacity=".04" rx="3.75"/><rect width="194.5" height="147.5" x="105.25" y="120.25" stroke="#4fdf0c" stroke-dasharray="6 6" stroke-width=".5" rx="3.75"/><rect width="162" height="27" x="121.5" y="136.5" fill="#fff" rx="3.5"/><rect width="162" height="27" x="121.5" y="136.5" stroke="#c1c3c8" rx="3.5"/><path fill="#17181c" d="M139.863 146.195a.668.668 0 0 1 .943.943l-6.667 6.667a.666.666 0 0 1-.942 0l-3.334-3.334a.666.666 0 1 1 .943-.942l2.862 2.862zm13.741 1.977a1.17 1.17 0 0 0-.503-.869q-.439-.312-1.142-.312-.495 0-.848.15a1.25 1.25 0 0 0-.541.404 1 1 0 0 0-.192.584q0 .273.123.473.129.2.346.341.217.137.481.23.264.094.533.158l.818.205q.495.114.95.311.46.195.823.494.366.298.579.72t.213.989q0 .766-.392 1.351-.392.579-1.133.907-.738.324-1.786.324-1.018 0-1.768-.315a2.63 2.63 0 0 1-1.168-.921q-.417-.605-.452-1.474h1.556q.034.456.281.758.247.303.644.452.4.15.894.149.516 0 .904-.153.392-.157.614-.435.221-.28.225-.656a.83.83 0 0 0-.2-.563 1.5 1.5 0 0 0-.55-.375 5 5 0 0 0-.818-.272l-.993-.256q-1.078-.277-1.704-.839-.622-.567-.622-1.505 0-.77.417-1.351a2.77 2.77 0 0 1 1.146-.899q.724-.324 1.641-.324.929 0 1.628.324.703.32 1.104.891.4.567.413 1.304zm5.879 6.456q-.984 0-1.7-.409a2.8 2.8 0 0 1-1.095-1.168q-.384-.759-.384-1.785 0-1.011.384-1.773a2.9 2.9 0 0 1 1.082-1.193q.694-.43 1.632-.431.606 0 1.142.196.541.192.955.597.417.405.656 1.031.239.622.239 1.483v.473h-5.365v-1.04h3.886a1.66 1.66 0 0 0-.192-.788 1.4 1.4 0 0 0-.524-.55q-.332-.2-.775-.2-.474 0-.831.23-.358.226-.559.597-.195.367-.2.805v.908q0 .57.209.98.209.405.584.622.375.213.878.213.336 0 .609-.094.273-.098.473-.285.2-.188.303-.465l1.44.162a2.24 2.24 0 0 1-.52.997q-.38.422-.972.657-.591.23-1.355.23m9.389-4.943-1.406.153a1.12 1.12 0 0 0-.601-.703 1.4 1.4 0 0 0-.605-.115q-.481 0-.81.209-.324.208-.319.541a.56.56 0 0 0 .208.464q.218.18.716.294l1.117.239q.928.2 1.381.635.456.435.46 1.138a1.8 1.8 0 0 1-.362 1.091q-.354.468-.985.733-.63.264-1.449.264-1.202 0-1.934-.503-.733-.507-.874-1.411l1.504-.144q.103.442.435.669.333.225.865.225.55 0 .882-.225.337-.226.337-.559a.58.58 0 0 0-.218-.464q-.213-.183-.664-.281l-1.117-.235q-.942-.196-1.393-.66-.452-.47-.448-1.185a1.68 1.68 0 0 1 .328-1.048q.337-.448.934-.691.6-.246 1.385-.247 1.15 0 1.811.49.665.49.822 1.326m6.586 0-1.406.153a1.1 1.1 0 0 0-.209-.4 1 1 0 0 0-.392-.303 1.4 1.4 0 0 0-.605-.115q-.481 0-.81.209-.324.208-.319.541a.56.56 0 0 0 .208.464q.218.18.716.294l1.117.239q.929.2 1.38.635.456.435.461 1.138a1.8 1.8 0 0 1-.362 1.091q-.354.468-.985.733-.63.264-1.449.264-1.202 0-1.934-.503-.733-.507-.874-1.411l1.504-.144q.102.442.435.669.333.225.865.225.55 0 .882-.225.337-.226.337-.559a.58.58 0 0 0-.218-.464q-.213-.183-.664-.281l-1.117-.235q-.942-.196-1.393-.66-.452-.47-.448-1.185a1.68 1.68 0 0 1 .328-1.048q.337-.448.934-.691.6-.246 1.385-.247 1.15 0 1.811.49.665.49.822 1.326m1.413 4.815v-6.545h1.542v6.545zm.775-7.474a.9.9 0 0 1-.63-.243.78.78 0 0 1-.265-.593q0-.35.265-.592a.9.9 0 0 1 .63-.247q.371 0 .631.247a.77.77 0 0 1 .264.592q0 .345-.264.593a.9.9 0 0 1-.631.243m5.209 7.602q-.959 0-1.662-.422a2.86 2.86 0 0 1-1.091-1.18q-.384-.759-.384-1.773t.384-1.777a2.85 2.85 0 0 1 1.091-1.185q.703-.422 1.662-.422.958 0 1.662.422.703.421 1.086 1.185.388.762.388 1.777t-.388 1.773a2.84 2.84 0 0 1-1.086 1.18q-.704.422-1.662.422m.008-1.236q.52 0 .87-.285a1.7 1.7 0 0 0 .519-.776q.175-.486.175-1.082 0-.601-.175-1.087a1.7 1.7 0 0 0-.519-.78q-.35-.29-.87-.29-.532 0-.886.29a1.74 1.74 0 0 0-.524.78 3.3 3.3 0 0 0-.171 1.087q0 .596.171 1.082.174.486.524.776.354.285.886.285m5.98-2.727v3.835H187.3v-6.545h1.475v1.112h.077q.225-.55.72-.874.498-.324 1.231-.324.677 0 1.181.29.507.29.784.84.281.55.277 1.333v4.168h-1.543v-3.929q0-.656-.341-1.027-.336-.37-.933-.371-.405 0-.72.179a1.24 1.24 0 0 0-.49.507q-.175.333-.175.806m16.285-1.948h-1.594a2 2 0 0 0-.251-.694 1.86 1.86 0 0 0-1.078-.84 2.4 2.4 0 0 0-.746-.111q-.712 0-1.262.358-.55.354-.86 1.04-.311.682-.311 1.666 0 1.002.311 1.688.315.681.86 1.031.55.345 1.258.345.391 0 .733-.102.345-.107.617-.311.278-.204.465-.503a1.9 1.9 0 0 0 .264-.682l1.594.009q-.09.623-.388 1.167a3.4 3.4 0 0 1-.771.963 3.6 3.6 0 0 1-1.117.648 4.2 4.2 0 0 1-1.419.23q-1.15 0-2.054-.532t-1.423-1.539q-.52-1.005-.52-2.412 0-1.41.524-2.412.525-1.005 1.428-1.538t2.045-.533q.73 0 1.355.205.627.204 1.117.601.49.392.805.963.32.567.418 1.295m1.379 5.783v-6.545h1.496v1.09h.068q.18-.566.614-.873a1.7 1.7 0 0 1 1.001-.311q.129 0 .286.013.162.008.268.029v1.419a1.7 1.7 0 0 0-.311-.059 3 3 0 0 0-.404-.03 1.56 1.56 0 0 0-.759.183q-.332.18-.524.499a1.4 1.4 0 0 0-.192.737v3.848zm7.386.128q-.984 0-1.7-.409a2.8 2.8 0 0 1-1.095-1.168q-.384-.759-.384-1.785 0-1.011.384-1.773a2.9 2.9 0 0 1 1.082-1.193q.695-.43 1.632-.431.606 0 1.143.196.54.192.954.597.418.405.656 1.031.239.622.239 1.483v.473h-5.365v-1.04h3.886a1.66 1.66 0 0 0-.191-.788 1.4 1.4 0 0 0-.525-.55q-.332-.2-.775-.2-.474 0-.831.23-.359.226-.558.597a1.7 1.7 0 0 0-.201.805v.908q0 .57.209.98.209.405.584.622.375.213.878.213.336 0 .609-.094.273-.098.473-.285.201-.188.303-.465l1.44.162a2.24 2.24 0 0 1-.52.997q-.38.422-.971.657-.593.23-1.356.23m6.1.004q-.623 0-1.121-.221a1.83 1.83 0 0 1-.784-.665q-.286-.44-.286-1.083 0-.553.205-.916.204-.362.558-.579.353-.218.797-.329.447-.115.925-.166.574-.059.933-.106.357-.05.52-.154.166-.106.166-.328v-.025q0-.482-.286-.746-.285-.264-.822-.264-.567 0-.899.247a1.2 1.2 0 0 0-.443.584l-1.441-.205q.17-.597.563-.997.392-.405.959-.605a3.7 3.7 0 0 1 1.252-.205q.474 0 .942.111.469.11.857.367.388.25.622.686.239.434.239 1.086v4.381h-1.483v-.899h-.052a1.85 1.85 0 0 1-1.031.89q-.38.141-.89.141m.4-1.133q.465 0 .806-.184.34-.187.524-.494a1.26 1.26 0 0 0 .187-.669v-.771a.7.7 0 0 1-.247.11 3 3 0 0 1-.384.09q-.213.038-.421.068l-.363.051q-.345.048-.618.154-.272.106-.43.298a.73.73 0 0 0-.158.486q0 .426.311.643.312.218.793.218m7.875-5.544v1.193h-3.763v-1.193zm-2.834-1.569h1.543v6.145q0 .312.094.478.097.16.255.221.158.06.35.06.144 0 .264-.022.124-.021.187-.038l.26 1.206q-.123.043-.353.094a3 3 0 0 1-.554.059 2.5 2.5 0 0 1-1.044-.174 1.6 1.6 0 0 1-.737-.605q-.269-.41-.265-1.023zm6.952 8.242q-.985 0-1.701-.409a2.8 2.8 0 0 1-1.095-1.168q-.383-.759-.383-1.785 0-1.011.383-1.773.388-.767 1.083-1.193.695-.43 1.632-.431.605 0 1.142.196.541.192.954.597.418.405.657 1.031.238.622.238 1.483v.473h-5.365v-1.04h3.886a1.65 1.65 0 0 0-.191-.788 1.4 1.4 0 0 0-.524-.55 1.5 1.5 0 0 0-.776-.2q-.472 0-.831.23-.358.226-.558.597a1.7 1.7 0 0 0-.2.805v.908q0 .57.208.98.21.405.584.622.375.213.878.213.337 0 .609-.094.273-.098.473-.285.201-.188.303-.465l1.44.162a2.24 2.24 0 0 1-.52.997q-.378.422-.971.657-.593.23-1.355.23m6.644-.013q-.771 0-1.38-.396-.61-.396-.964-1.151-.353-.754-.353-1.832 0-1.09.358-1.841.361-.754.976-1.138a2.5 2.5 0 0 1 1.367-.388q.576 0 .946.196.372.192.589.465.217.268.336.507h.064v-3.264h1.547v8.727h-1.517v-1.031h-.094a2.6 2.6 0 0 1-.345.507 1.9 1.9 0 0 1-.597.452q-.37.187-.933.187m.431-1.266q.49 0 .835-.264.345-.268.524-.746.179-.476.179-1.112 0-.635-.179-1.103a1.57 1.57 0 0 0-.52-.729q-.34-.26-.839-.26-.516 0-.861.268-.345.269-.52.742a3.1 3.1 0 0 0-.175 1.082q0 .614.175 1.095.179.478.524.755.35.272.857.272"/><rect width="162" height="27" x="121.5" y="180.5" fill="#fff" rx="3.5"/><rect width="162" height="27" x="121.5" y="180.5" stroke="#c1c3c8" rx="3.5"/><path fill="#17181c" d="M140.529 196.862a.666.666 0 1 1 .942.943l-2.666 2.666a.666.666 0 0 1-.943 0l-1.333-1.333a.666.666 0 1 1 .942-.943l.862.862zM132.333 198h-2.666a.667.667 0 0 1-.329-1.247 2 2 0 0 0 .995-1.469v-1.951l.001-.031a5.34 5.34 0 0 1 2.714-4.4 2 2 0 0 1 1.952-1.569 2 2 0 0 1 1.951 1.569 5.33 5.33 0 0 1 2.715 4.4l.001.031v1.949a2 2 0 0 0 .027.161.667.667 0 1 1-1.301.289 3 3 0 0 1-.055-.317l-.005-.082v-1.977a4 4 0 0 0-2.285-3.42.67.67 0 0 1-.381-.603.668.668 0 0 0-1.334 0 .67.67 0 0 1-.381.603 4 4 0 0 0-2.285 3.42v1.977l-.005.08a3.3 3.3 0 0 1-.416 1.254h3.421a.666.666 0 1 1 0 1.333h-1a1.33 1.33 0 0 0 1.112 1.315.667.667 0 0 1-.222 1.315 2.664 2.664 0 0 1-2.224-2.63m21.271-5.828a1.17 1.17 0 0 0-.503-.869q-.439-.312-1.142-.312-.495 0-.848.15a1.25 1.25 0 0 0-.541.404 1 1 0 0 0-.192.584q0 .273.123.473.129.2.346.341.217.137.481.23.264.094.533.158l.818.205q.495.114.95.311.46.195.823.494.366.299.579.72.213.422.213.989 0 .766-.392 1.351-.392.579-1.133.907-.738.324-1.786.324-1.018 0-1.768-.315a2.63 2.63 0 0 1-1.168-.921q-.417-.605-.452-1.474h1.556q.034.456.281.758.247.303.644.452.4.15.894.149.516 0 .904-.153.392-.157.614-.435.221-.28.225-.656a.83.83 0 0 0-.2-.563 1.5 1.5 0 0 0-.55-.375 5 5 0 0 0-.818-.272l-.993-.256q-1.078-.277-1.704-.839-.622-.567-.622-1.505 0-.77.417-1.351a2.77 2.77 0 0 1 1.146-.899q.724-.324 1.641-.324.929 0 1.628.324.703.32 1.104.891.4.566.413 1.304zm7.153 3.575v-3.792h1.543v6.545h-1.496v-1.163h-.068q-.221.55-.729.899-.502.35-1.24.349-.643 0-1.137-.285a2 2 0 0 1-.767-.84q-.277-.554-.277-1.338v-4.167h1.542v3.929q0 .621.341.988.341.366.895.367.34 0 .661-.167a1.34 1.34 0 0 0 .524-.494q.208-.331.208-.831m3.198 2.753v-8.727h1.542v3.264h.064q.12-.239.337-.507a1.8 1.8 0 0 1 .588-.465q.37-.195.946-.196a2.5 2.5 0 0 1 1.368.388q.614.384.971 1.138.363.75.363 1.841 0 1.078-.354 1.832-.354.755-.963 1.151a2.5 2.5 0 0 1-1.381.396q-.563 0-.933-.187a1.9 1.9 0 0 1-.597-.452 3 3 0 0 1-.345-.507h-.089v1.031zm1.512-3.273q0 .636.179 1.112.183.478.524.746.346.264.836.264.511 0 .856-.272.345-.277.52-.755.179-.481.179-1.095 0-.61-.175-1.082a1.6 1.6 0 0 0-.52-.742q-.345-.268-.86-.268-.495 0-.84.26t-.524.729q-.175.468-.175 1.103m11.151-1.542-1.406.153a1.12 1.12 0 0 0-.601-.703 1.4 1.4 0 0 0-.605-.115q-.481 0-.81.209-.324.208-.319.541a.56.56 0 0 0 .209.464q.216.18.715.294l1.117.239q.929.2 1.381.635.456.435.46 1.138a1.8 1.8 0 0 1-.362 1.091q-.354.468-.985.733-.63.264-1.449.264-1.202 0-1.934-.503-.733-.507-.874-1.411l1.504-.144q.103.442.435.669.333.225.865.225.55 0 .882-.225.337-.226.337-.559a.58.58 0 0 0-.217-.464q-.213-.183-.665-.281l-1.117-.235q-.942-.196-1.393-.66-.451-.47-.448-1.185a1.68 1.68 0 0 1 .329-1.048q.336-.448.933-.691.6-.246 1.385-.247 1.15 0 1.811.49.665.49.822 1.326m4.268 4.943q-.98 0-1.683-.431a2.86 2.86 0 0 1-1.078-1.188q-.375-.763-.375-1.756 0-.998.383-1.76a2.87 2.87 0 0 1 1.083-1.193q.702-.43 1.661-.431.798 0 1.411.294.618.29.984.823.367.528.418 1.236h-1.474a1.4 1.4 0 0 0-.427-.789q-.332-.32-.89-.319-.474 0-.831.255a1.63 1.63 0 0 0-.558.725q-.196.473-.196 1.133 0 .67.196 1.151.196.477.549.737.359.256.84.256.34 0 .609-.128.273-.132.456-.379t.252-.601h1.474a2.6 2.6 0 0 1-.409 1.231 2.43 2.43 0 0 1-.963.836q-.61.297-1.432.298m4.071-.128v-6.545h1.495v1.09h.069q.178-.566.613-.873a1.7 1.7 0 0 1 1.002-.311q.128 0 .285.013.162.008.269.029v1.419a1.7 1.7 0 0 0-.311-.059q-.21-.03-.405-.03-.422 0-.759.183a1.35 1.35 0 0 0-.716 1.236v3.848zm4.757 0v-6.545h1.543v6.545zm.776-7.474a.9.9 0 0 1-.631-.243.8.8 0 0 1-.264-.593q0-.35.264-.592a.9.9 0 0 1 .631-.247q.37 0 .631.247a.77.77 0 0 1 .264.592q0 .345-.264.593a.9.9 0 0 1-.631.243m2.353 9.929v-9h1.517v1.082h.09a2.8 2.8 0 0 1 .337-.507q.216-.273.588-.465.37-.195.946-.196.757 0 1.368.388.614.384.971 1.138.362.75.362 1.841 0 1.078-.353 1.832-.354.755-.963 1.151a2.5 2.5 0 0 1-1.381.396q-.563 0-.933-.187a1.9 1.9 0 0 1-.597-.452 3 3 0 0 1-.345-.507h-.064v3.486zm1.513-5.728q0 .636.179 1.112.183.478.524.746.345.264.836.264.51 0 .856-.272.345-.277.52-.755.179-.481.179-1.095 0-.61-.175-1.082a1.63 1.63 0 0 0-.52-.742q-.345-.268-.86-.268-.495 0-.84.26t-.524.729a3.1 3.1 0 0 0-.175 1.103m9.256-3.272v1.193h-3.763v-1.193zm-2.834-1.569h1.543v6.145q0 .312.093.478a.5.5 0 0 0 .256.221q.158.06.35.06.144 0 .264-.022.124-.021.187-.038l.26 1.206q-.123.043-.354.094-.226.051-.553.059a2.5 2.5 0 0 1-1.045-.174 1.63 1.63 0 0 1-.737-.605q-.269-.41-.264-1.023zm4.124 8.114v-6.545h1.543v6.545zm.776-7.474a.9.9 0 0 1-.631-.243.8.8 0 0 1-.264-.593q0-.35.264-.592a.9.9 0 0 1 .631-.247q.37 0 .63.247a.77.77 0 0 1 .264.592q0 .345-.264.593a.9.9 0 0 1-.63.243m5.208 7.602q-.958 0-1.662-.422a2.87 2.87 0 0 1-1.091-1.18q-.383-.759-.383-1.773t.383-1.777a2.86 2.86 0 0 1 1.091-1.185q.704-.422 1.662-.422.959 0 1.662.422.703.421 1.087 1.185.387.762.387 1.777t-.387 1.773a2.84 2.84 0 0 1-1.087 1.18q-.703.422-1.662.422m.009-1.236q.52 0 .869-.285.35-.29.52-.776.174-.486.174-1.082 0-.601-.174-1.087a1.7 1.7 0 0 0-.52-.78q-.35-.29-.869-.29-.534 0-.887.29a1.74 1.74 0 0 0-.524.78q-.17.486-.17 1.087 0 .596.17 1.082.174.486.524.776.353.285.887.285m5.979-2.727v3.835h-1.542v-6.545h1.474v1.112h.077q.225-.55.72-.874.498-.324 1.232-.324.677 0 1.18.29.507.29.784.84.282.55.277 1.333v4.168h-1.543v-3.929q0-.656-.341-1.027-.336-.37-.933-.371-.405 0-.72.179a1.25 1.25 0 0 0-.49.507 1.7 1.7 0 0 0-.175.806m10.943-.98-1.406.153a1.12 1.12 0 0 0-.601-.703 1.4 1.4 0 0 0-.605-.115q-.482 0-.809.209-.324.208-.32.541a.56.56 0 0 0 .209.464q.217.18.716.294l1.116.239q.93.2 1.381.635.456.435.46 1.138a1.78 1.78 0 0 1-.362 1.091q-.354.468-.984.733-.631.264-1.449.264-1.202 0-1.935-.503-.733-.507-.874-1.411l1.505-.144q.102.442.434.669.333.225.865.225.55 0 .882-.225.337-.226.337-.559a.58.58 0 0 0-.217-.464q-.213-.183-.665-.281l-1.116-.235q-.942-.196-1.394-.66-.451-.47-.447-1.185a1.67 1.67 0 0 1 .328-1.048q.336-.448.933-.691.601-.246 1.385-.247 1.15 0 1.811.49.665.49.822 1.326m9.201-1.513a1.17 1.17 0 0 0-.503-.869q-.439-.312-1.142-.312-.495 0-.848.15a1.25 1.25 0 0 0-.541.404 1 1 0 0 0-.192.584q0 .273.123.473.129.2.346.341.217.137.481.23.264.094.533.158l.818.205q.494.114.95.311.46.195.823.494.366.299.579.72.213.422.213.989 0 .766-.392 1.351-.392.579-1.133.907-.738.324-1.786.324-1.018 0-1.768-.315a2.63 2.63 0 0 1-1.168-.921q-.418-.605-.451-1.474h1.555q.034.456.281.758.247.303.644.452.4.15.895.149.514 0 .903-.153.392-.157.614-.435.221-.28.225-.656a.83.83 0 0 0-.2-.563 1.5 1.5 0 0 0-.55-.375 5 5 0 0 0-.818-.272l-.993-.256q-1.078-.277-1.704-.839-.622-.567-.622-1.505 0-.77.417-1.351a2.76 2.76 0 0 1 1.147-.899q.724-.324 1.64-.324.929 0 1.628.324.704.32 1.104.891.4.566.413 1.304zm5.879 6.456q-.984 0-1.7-.409a2.8 2.8 0 0 1-1.095-1.168q-.384-.759-.384-1.785 0-1.011.384-1.773a2.9 2.9 0 0 1 1.082-1.193q.695-.43 1.632-.431.605 0 1.142.196.541.192.955.597.417.405.656 1.031.239.622.239 1.483v.473h-5.365v-1.04h3.886a1.66 1.66 0 0 0-.192-.788 1.4 1.4 0 0 0-.524-.55q-.332-.2-.775-.2-.474 0-.831.23-.359.226-.558.597a1.7 1.7 0 0 0-.201.805v.908q0 .57.209.98.209.405.584.622.375.213.878.213.336 0 .609-.094.273-.098.473-.285.2-.188.303-.465l1.44.162a2.24 2.24 0 0 1-.52.997q-.38.422-.972.657-.591.23-1.355.23m7.484-6.673v1.193h-3.762v-1.193zm-2.833-1.569h1.542v6.145q0 .312.094.478a.5.5 0 0 0 .256.221q.157.06.349.06.146 0 .264-.022.124-.021.188-.038l.26 1.206q-.124.043-.354.094a3 3 0 0 1-.554.059 2.5 2.5 0 0 1-1.044-.174 1.63 1.63 0 0 1-.737-.605q-.269-.41-.264-1.023z"/><rect width="162" height="27" x="121.5" y="224.5" fill="#fff" rx="3.5"/><rect width="162" height="27" x="121.5" y="224.5" stroke="#c1c3c8" rx="3.5"/><path fill="#17181c" d="M140.527 240.862a.668.668 0 0 1 .943.943l-2.667 2.666a.665.665 0 0 1-.942 0l-1.334-1.333a.668.668 0 0 1 .943-.943l.862.862zM136.332 238a.667.667 0 1 1 0 1.333h-4a.667.667 0 1 1 0-1.333zm4 .667v-4a1.334 1.334 0 0 0-1.333-1.334h-8a1.334 1.334 0 0 0-1.334 1.334V240a1.334 1.334 0 0 0 1.334 1.333h2c.177 0 .346.071.471.196l2 2a.666.666 0 1 1-.943.942l-1.804-1.804h-1.724a2.666 2.666 0 0 1-2.667-2.667v-5.333a2.666 2.666 0 0 1 2.667-2.667h8a2.666 2.666 0 0 1 2.666 2.667v4a.666.666 0 1 1-1.333 0m-2.667-3.334a.667.667 0 1 1 0 1.334h-5.333a.667.667 0 0 1 0-1.334zm11.196-1.56h1.934l2.591 6.324h.103l2.591-6.324h1.934v8.727h-1.517v-5.996h-.081l-2.412 5.97h-1.133l-2.412-5.983h-.081v6.009h-1.517zm13.704 8.855q-.984 0-1.7-.409a2.8 2.8 0 0 1-1.095-1.168q-.384-.759-.384-1.785 0-1.011.384-1.773a2.9 2.9 0 0 1 1.082-1.193q.694-.43 1.632-.431.605 0 1.142.196.541.192.955.597.417.405.656 1.031.239.622.239 1.483v.473h-5.365v-1.04h3.886a1.66 1.66 0 0 0-.192-.788 1.4 1.4 0 0 0-.524-.55q-.332-.2-.775-.2-.474 0-.831.23-.358.226-.559.597-.195.366-.2.805v.908q0 .57.209.98.209.405.584.622.375.213.878.213.336 0 .609-.094.273-.098.473-.285.2-.188.303-.465l1.44.162a2.24 2.24 0 0 1-.52.997q-.38.422-.972.657-.591.23-1.355.23m9.389-4.943-1.406.153a1.12 1.12 0 0 0-.601-.703 1.4 1.4 0 0 0-.605-.115q-.482 0-.81.209-.324.208-.319.541a.56.56 0 0 0 .209.464q.216.18.715.294l1.117.239q.928.2 1.381.635.456.435.46 1.138a1.8 1.8 0 0 1-.362 1.091q-.354.468-.985.733-.63.264-1.449.264-1.202 0-1.934-.503-.733-.507-.874-1.411l1.504-.144q.103.442.435.669.333.225.865.225.55 0 .882-.225.337-.226.337-.559a.58.58 0 0 0-.217-.464q-.214-.183-.665-.281l-1.117-.235q-.942-.196-1.393-.66-.451-.47-.448-1.185a1.7 1.7 0 0 1 .328-1.048q.337-.448.934-.691.6-.246 1.385-.247 1.15 0 1.811.49.665.49.822 1.326m6.586 0-1.406.153a1.12 1.12 0 0 0-.601-.703 1.4 1.4 0 0 0-.605-.115q-.481 0-.81.209-.324.208-.319.541a.56.56 0 0 0 .208.464q.218.18.716.294l1.117.239q.928.2 1.381.635.456.435.46 1.138a1.8 1.8 0 0 1-.362 1.091q-.354.468-.985.733-.63.264-1.449.264-1.202 0-1.934-.503-.733-.507-.874-1.411l1.504-.144q.103.442.435.669.333.225.865.225.55 0 .882-.225.337-.226.337-.559a.58.58 0 0 0-.218-.464q-.213-.183-.664-.281l-1.117-.235q-.942-.196-1.393-.66-.452-.47-.448-1.185a1.68 1.68 0 0 1 .328-1.048q.337-.448.934-.691.6-.246 1.385-.247 1.15 0 1.811.49.665.49.822 1.326m3.296 4.947a2.7 2.7 0 0 1-1.12-.221 1.84 1.84 0 0 1-.785-.665q-.285-.44-.285-1.083 0-.553.204-.916.205-.362.559-.579.353-.218.797-.329.447-.115.924-.166.576-.059.934-.106.357-.05.519-.154.167-.106.167-.328v-.025q0-.482-.286-.746-.285-.264-.822-.264-.567 0-.899.247a1.23 1.23 0 0 0-.444.584l-1.44-.205q.17-.597.563-.997.391-.405.958-.605a3.7 3.7 0 0 1 1.253-.205q.473 0 .942.111.469.11.856.367.388.25.623.686.238.434.238 1.086v4.381h-1.483v-.899h-.051a1.9 1.9 0 0 1-.396.511 1.9 1.9 0 0 1-.635.379q-.38.141-.891.141m.401-1.133q.465 0 .805-.184.341-.187.524-.494.188-.308.188-.669v-.771a.7.7 0 0 1-.247.11 3 3 0 0 1-.384.09q-.213.038-.422.068l-.362.051q-.345.048-.618.154a1 1 0 0 0-.43.298.73.73 0 0 0-.158.486q0 .426.311.643.312.218.793.218m7.453 3.592q-.831 0-1.428-.226-.596-.222-.958-.597a2.1 2.1 0 0 1-.503-.83l1.389-.337q.093.192.273.379.179.192.481.315.307.129.772.128.656 0 1.086-.319.43-.316.431-1.04v-1.24h-.077a2.2 2.2 0 0 1-.35.49q-.225.252-.6.422-.372.17-.934.17-.753 0-1.368-.353-.61-.358-.971-1.066-.358-.711-.358-1.781 0-1.078.358-1.82.362-.745.976-1.129a2.5 2.5 0 0 1 1.368-.388q.574 0 .946.196.375.192.596.465.222.268.337.507h.085v-1.082h1.521v6.652q0 .839-.4 1.389-.4.549-1.095.822t-1.577.273m.013-3.895q.49 0 .835-.239.345-.238.524-.686.179-.447.179-1.074 0-.617-.179-1.082-.175-.465-.52-.72-.34-.26-.839-.26-.516 0-.861.268-.345.269-.52.738a3 3 0 0 0-.175 1.056q0 .602.175 1.053.179.447.524.699.35.247.857.247m7.538 1.432q-.984 0-1.7-.409a2.77 2.77 0 0 1-1.095-1.168q-.384-.759-.384-1.785 0-1.011.384-1.773a2.9 2.9 0 0 1 1.082-1.193q.695-.43 1.632-.431.606 0 1.142.196.541.192.955.597.417.405.656 1.031.239.622.239 1.483v.473h-5.365v-1.04h3.886a1.66 1.66 0 0 0-.192-.788 1.4 1.4 0 0 0-.524-.55 1.5 1.5 0 0 0-.776-.2q-.472 0-.831.23a1.6 1.6 0 0 0-.558.597q-.195.366-.2.805v.908q0 .57.209.98.209.405.584.622.375.213.877.213.337 0 .61-.094.272-.098.473-.285.2-.188.302-.465l1.441.162a2.24 2.24 0 0 1-.52.997q-.38.422-.972.657a3.7 3.7 0 0 1-1.355.23m9.389-4.943-1.406.153a1.1 1.1 0 0 0-.209-.4 1 1 0 0 0-.392-.303 1.4 1.4 0 0 0-.605-.115q-.482 0-.81.209-.323.208-.32.541a.57.57 0 0 0 .209.464q.218.18.716.294l1.117.239q.929.2 1.38.635.456.435.461 1.138a1.78 1.78 0 0 1-.363 1.091q-.353.468-.984.733-.63.264-1.449.264-1.201 0-1.935-.503a2.02 2.02 0 0 1-.873-1.411l1.504-.144q.102.442.435.669.332.225.865.225.549 0 .882-.225.336-.226.337-.559a.58.58 0 0 0-.218-.464q-.213-.183-.664-.281l-1.117-.235q-.942-.196-1.393-.66-.453-.47-.448-1.185a1.68 1.68 0 0 1 .328-1.048q.337-.448.934-.691.6-.246 1.384-.247 1.15 0 1.812.49.665.49.822 1.326m7.415 4.815h-2.958v-8.727h3.017q1.3 0 2.233.524a3.5 3.5 0 0 1 1.441 1.496q.503.976.503 2.335 0 1.363-.508 2.344a3.5 3.5 0 0 1-1.453 1.504q-.946.524-2.275.524m-1.377-1.368h1.3q.912 0 1.521-.332.61-.337.917-1.002.306-.67.306-1.67 0-1.002-.306-1.662a2.1 2.1 0 0 0-.908-.993q-.597-.333-1.483-.332h-1.347zm9.944 1.496q-.984 0-1.7-.409a2.77 2.77 0 0 1-1.095-1.168q-.384-.759-.384-1.785 0-1.011.384-1.773a2.9 2.9 0 0 1 1.082-1.193q.695-.43 1.632-.431.606 0 1.142.196.541.192.955.597.417.405.656 1.031.239.622.239 1.483v.473h-5.365v-1.04h3.886a1.66 1.66 0 0 0-.192-.788 1.4 1.4 0 0 0-.524-.55q-.332-.2-.775-.2-.474 0-.831.23-.358.226-.559.597-.195.366-.2.805v.908q0 .57.209.98.209.405.584.622.375.213.878.213.336 0 .609-.094.272-.098.473-.285.2-.188.302-.465l1.441.162a2.24 2.24 0 0 1-.52.997q-.38.422-.972.657a3.7 3.7 0 0 1-1.355.23m5.758-8.855v8.727h-1.542v-8.727zm1.587 8.727v-6.545h1.542v6.545zm.775-7.474a.9.9 0 0 1-.63-.243.78.78 0 0 1-.265-.593q0-.35.265-.592a.9.9 0 0 1 .63-.247q.371 0 .631.247a.77.77 0 0 1 .264.592q0 .345-.264.593a.9.9 0 0 1-.631.243m8.2.929-2.331 6.545h-1.704l-2.331-6.545h1.645l1.504 4.862h.068l1.509-4.862zm3.743 6.673q-.985 0-1.701-.409a2.8 2.8 0 0 1-1.095-1.168q-.383-.759-.383-1.785 0-1.011.383-1.773.388-.767 1.083-1.193.695-.43 1.632-.431.605 0 1.142.196.541.192.954.597.418.405.657 1.031.238.622.238 1.483v.473h-5.365v-1.04h3.887a1.66 1.66 0 0 0-.192-.788 1.4 1.4 0 0 0-.524-.55 1.5 1.5 0 0 0-.776-.2q-.472 0-.831.23-.358.226-.558.597a1.7 1.7 0 0 0-.2.805v.908q0 .57.208.98.21.405.584.622.375.213.878.213.337 0 .609-.094.273-.098.473-.285.201-.188.303-.465l1.44.162a2.24 2.24 0 0 1-.52.997q-.378.422-.971.657-.593.23-1.355.23m4.215-.128v-6.545h1.496v1.09h.068q.18-.566.614-.873a1.7 1.7 0 0 1 1.001-.311q.128 0 .286.013.162.008.268.029v1.419a1.7 1.7 0 0 0-.311-.059 3 3 0 0 0-.405-.03 1.56 1.56 0 0 0-.758.183q-.333.18-.524.499a1.4 1.4 0 0 0-.192.737v3.848zm7.386.128q-.984 0-1.7-.409a2.8 2.8 0 0 1-1.095-1.168q-.384-.759-.384-1.785 0-1.011.384-1.773a2.9 2.9 0 0 1 1.082-1.193q.695-.43 1.632-.431.606 0 1.142.196.541.192.955.597.417.405.656 1.031.239.622.239 1.483v.473h-5.365v-1.04h3.886a1.66 1.66 0 0 0-.192-.788 1.4 1.4 0 0 0-.524-.55q-.332-.2-.775-.2-.474 0-.831.23-.358.226-.559.597-.195.366-.2.805v.908q0 .57.209.98.209.405.584.622.375.213.878.213.336 0 .609-.094.273-.098.473-.285.2-.188.303-.465l1.44.162a2.24 2.24 0 0 1-.52.997q-.38.422-.972.657-.591.23-1.355.23m6.645-.013q-.772 0-1.381-.396t-.963-1.151-.354-1.832q0-1.09.358-1.841.363-.754.976-1.138a2.5 2.5 0 0 1 1.368-.388q.576 0 .946.196.37.192.588.465.217.268.337.507h.064v-3.264h1.547v8.727h-1.517v-1.031h-.094q-.12.238-.345.507a1.9 1.9 0 0 1-.597.452q-.37.187-.933.187m.43-1.266q.49 0 .835-.264.346-.268.525-.746.179-.476.179-1.112 0-.635-.179-1.103a1.57 1.57 0 0 0-.52-.729q-.341-.26-.84-.26-.515 0-.861.268-.345.269-.519.742a3.1 3.1 0 0 0-.175 1.082q0 .614.175 1.095.179.478.524.755.35.272.856.272"/><path fill="#4fdf0c" d="M201.97 117.28a.75.75 0 0 0 1.06 0l4.773-4.773a.749.749 0 1 0-1.06-1.06l-4.243 4.242-4.243-4.242a.749.749 0 1 0-1.06 1.06zm1.28-42.03a.75.75 0 0 0-1.5 0zm-.75 41.5h.75v-41.5h-1.5v41.5z"/><rect width="171" height="55" x="442.5" y="16.5" fill="#f9c3d6" rx="9.5"/><rect width="171" height="55" x="442.5" y="16.5" stroke="#f53d7d" rx="9.5"/><rect width="30" height="30" x="454" y="29" fill="#8a0f3a" rx="4"/><path fill="#f9c3d6" d="M466.517 42.435a.916.916 0 1 1 1.296 1.296l-1.185 1.186 1.454 1.453 1.185-1.185a.916.916 0 1 1 1.296 1.296l-1.185 1.186.269.268a.916.916 0 0 1 0 1.296l-1.375 1.375a4.17 4.17 0 0 1-2.944 1.255 4.16 4.16 0 0 1-2.253-.642l-1.678 1.68a.916.916 0 1 1-1.296-1.297l1.678-1.68a4.15 4.15 0 0 1-.306-3.856c.217-.507.534-.966.93-1.35l1.364-1.364.067-.061a.92.92 0 0 1 1.229.06l.269.27zm9.167 4.584a.916.916 0 1 1 1.296 1.296l-1.185 1.185 1.185 1.185a.916.916 0 1 1-1.296 1.296l-1.185-1.185-1.186 1.185a.916.916 0 1 1-1.296-1.296l1.185-1.185-1.185-1.185a.916.916 0 1 1 1.296-1.296l1.186 1.185zm-12.006-.985a2.33 2.33 0 0 0-.535 2.551q.127.308.336.569a.9.9 0 0 1 .365.365 2.32 2.32 0 0 0 1.47.51 2.32 2.32 0 0 0 1.651-.708l.737-.738-3.287-3.287zm12.923-10.932a.916.916 0 1 1 1.296 1.296l-1.68 1.678a4.16 4.16 0 0 1 .643 2.254 4.14 4.14 0 0 1-1.256 2.942l.001.001-1.375 1.375a.916.916 0 0 1-1.296 0l-4.583-4.583a.916.916 0 0 1 0-1.296l1.375-1.375a4.14 4.14 0 0 1 2.943-1.255 4.15 4.15 0 0 1 2.252.641zm-3.918 2.87a2.32 2.32 0 0 0-1.651.707l-.737.738 3.287 3.287.738-.738a2.34 2.34 0 0 0 .707-1.65 2.3 2.3 0 0 0-.51-1.47.9.9 0 0 1-.365-.366 2.3 2.3 0 0 0-1.469-.508"/><path fill="#17181c" d="M493.136 49h-3.203v-9.455h3.268q1.408 0 2.419.568a3.8 3.8 0 0 1 1.56 1.62q.546 1.058.545 2.53 0 1.478-.549 2.54a3.8 3.8 0 0 1-1.574 1.63q-1.025.567-2.466.567m-1.491-1.482h1.408q.988 0 1.648-.36.66-.365.993-1.085.332-.724.332-1.81 0-1.084-.332-1.8a2.27 2.27 0 0 0-.983-1.076q-.647-.36-1.607-.36h-1.459zM499.279 49v-7.09h1.671V49zm.84-8.097a.97.97 0 0 1-.683-.263.85.85 0 0 1-.287-.642q0-.378.287-.642a.96.96 0 0 1 .683-.268q.401 0 .683.268.286.264.286.642 0 .374-.286.642a.96.96 0 0 1-.683.263m8.154 2.88-1.524.167a1.2 1.2 0 0 0-.226-.434 1.1 1.1 0 0 0-.425-.328 1.55 1.55 0 0 0-.655-.125q-.522 0-.877.226-.351.227-.347.587a.61.61 0 0 0 .227.503q.235.194.775.318l1.21.259q1.006.217 1.495.688.495.471.499 1.232a1.93 1.93 0 0 1-.392 1.182q-.383.508-1.067.794t-1.569.287q-1.302 0-2.096-.545-.794-.55-.947-1.528l1.63-.157q.111.48.471.724.36.245.937.245.596 0 .956-.245.364-.244.364-.604a.63.63 0 0 0-.235-.503q-.231-.199-.72-.305l-1.21-.254q-1.02-.213-1.509-.716-.49-.507-.485-1.283a1.82 1.82 0 0 1 .355-1.136q.364-.484 1.011-.748.65-.267 1.501-.267 1.247 0 1.962.53.72.532.891 1.436m4.623 5.355q-1.062 0-1.823-.466a3.1 3.1 0 0 1-1.168-1.288q-.407-.826-.407-1.902 0-1.08.416-1.906a3.1 3.1 0 0 1 1.172-1.293q.762-.466 1.801-.466.863 0 1.528.318.67.315 1.066.891.398.573.453 1.34h-1.598a1.52 1.52 0 0 0-.461-.855q-.36-.345-.965-.346-.513 0-.9.277-.388.272-.605.785-.212.511-.212 1.228 0 .724.212 1.246.212.517.595.799.388.276.91.277.369 0 .66-.139.296-.143.494-.41.198-.269.272-.652h1.598a2.8 2.8 0 0 1-.443 1.334 2.63 2.63 0 0 1-1.044.905q-.66.324-1.551.324m7.503 0q-1.04 0-1.8-.456a3.1 3.1 0 0 1-1.182-1.28q-.416-.82-.416-1.92 0-1.098.416-1.925.42-.826 1.182-1.283.76-.457 1.8-.457 1.039 0 1.8.457.762.456 1.178 1.283.42.827.42 1.925 0 1.1-.42 1.92-.416.822-1.178 1.28-.761.456-1.8.456m.009-1.338q.564 0 .942-.31.378-.313.563-.84a3.5 3.5 0 0 0 .189-1.172q0-.651-.189-1.178a1.87 1.87 0 0 0-.563-.844q-.378-.315-.942-.314-.577 0-.96.314-.378.313-.568.844-.185.527-.185 1.178 0 .645.185 1.172.19.526.568.84.383.31.96.31m6.478-2.955V49h-1.671v-7.09h1.597v1.204h.084q.245-.595.78-.946.54-.351 1.334-.351.733 0 1.279.314.549.313.849.91.305.594.3 1.444V49h-1.671v-4.256q0-.711-.369-1.113-.365-.402-1.011-.402-.44 0-.781.194-.336.19-.53.55-.19.36-.19.872m7.922 0V49h-1.671v-7.09h1.597v1.204h.083q.245-.595.781-.946.54-.351 1.334-.351.734 0 1.278.314.55.313.85.91.304.594.3 1.444V49h-1.671v-4.256q0-.711-.369-1.113-.366-.402-1.011-.402-.44 0-.781.194-.336.19-.531.55-.189.36-.189.872m9.39 4.294q-1.067 0-1.842-.444a3 3 0 0 1-1.186-1.265q-.416-.82-.416-1.934 0-1.095.416-1.92.42-.831 1.172-1.293.753-.466 1.768-.466.656 0 1.238.212.585.208 1.034.646.452.439.711 1.118.258.674.258 1.606v.513h-5.812v-1.127h4.21a1.8 1.8 0 0 0-.208-.854 1.5 1.5 0 0 0-.567-.595 1.6 1.6 0 0 0-.841-.217 1.63 1.63 0 0 0-.9.249q-.387.244-.605.646a1.9 1.9 0 0 0-.217.873v.983q0 .618.227 1.062.226.438.632.674.406.23.951.23.365 0 .66-.1a1.5 1.5 0 0 0 .513-.31q.216-.204.328-.503l1.56.175a2.44 2.44 0 0 1-.563 1.08 2.75 2.75 0 0 1-1.053.711q-.642.25-1.468.25m7.66 0q-1.062 0-1.824-.467a3.1 3.1 0 0 1-1.168-1.288q-.405-.826-.406-1.902 0-1.08.416-1.906a3.1 3.1 0 0 1 1.172-1.293q.762-.466 1.801-.466.863 0 1.528.318.67.315 1.066.891.398.573.453 1.34h-1.598a1.52 1.52 0 0 0-.461-.855q-.36-.345-.965-.346-.513 0-.9.277a1.77 1.77 0 0 0-.605.785q-.213.511-.213 1.228 0 .724.213 1.246.212.517.595.799.388.276.91.277.369 0 .66-.139.296-.143.494-.41.198-.269.272-.652h1.598a2.8 2.8 0 0 1-.444 1.334 2.6 2.6 0 0 1-1.043.905q-.66.324-1.551.324m7.951-7.23v1.293h-4.077v-1.293zm-3.07-1.699h1.671v6.657q0 .337.101.517a.55.55 0 0 0 .277.24q.17.065.379.065.157 0 .286-.023.134-.024.203-.042l.282 1.307q-.134.045-.383.101a3 3 0 0 1-.6.065 2.7 2.7 0 0 1-1.131-.19 1.76 1.76 0 0 1-.799-.655q-.29-.443-.286-1.108z"/><rect width="202.5" height="146.5" x="426.25" y="120.25" fill="#ee5389" fill-opacity=".04" rx="3.75"/><rect width="202.5" height="146.5" x="426.25" y="120.25" stroke="#f53d7d" stroke-dasharray="6 6" stroke-width=".5" rx="3.75"/><rect width="170" height="27" x="442.5" y="135.5" fill="#fff" rx="3.5"/><rect width="170" height="27" x="442.5" y="135.5" stroke="#c1c3c8" rx="3.5"/><path fill="#17181c" d="M459.527 144.529a.666.666 0 1 1 .943.942L456.941 149l3.529 3.529a.666.666 0 1 1-.943.942l-3.528-3.528-3.529 3.528a.666.666 0 1 1-.943-.942l3.529-3.529-3.529-3.529a.666.666 0 1 1 .943-.942l3.529 3.528zm15.077 2.643a1.17 1.17 0 0 0-.503-.869q-.439-.312-1.142-.312-.494 0-.848.15a1.25 1.25 0 0 0-.541.404 1 1 0 0 0-.192.584q0 .273.123.473.129.2.346.341.216.137.481.23.264.094.533.158l.818.205q.495.114.95.311.46.195.823.494.366.298.579.72t.213.989q0 .766-.392 1.351-.392.579-1.133.907-.738.324-1.786.324-1.018 0-1.768-.315a2.63 2.63 0 0 1-1.168-.921q-.417-.605-.452-1.474h1.556q.034.456.281.758.247.303.644.452.4.15.894.149.516 0 .904-.153.392-.157.614-.435.221-.28.225-.656a.83.83 0 0 0-.2-.563 1.5 1.5 0 0 0-.55-.375 5 5 0 0 0-.818-.272l-.993-.256q-1.078-.277-1.704-.839-.622-.567-.622-1.505 0-.77.417-1.351a2.77 2.77 0 0 1 1.146-.899q.724-.324 1.641-.324.929 0 1.628.324.704.32 1.104.891.4.567.413 1.304zm5.879 6.456q-.984 0-1.7-.409a2.8 2.8 0 0 1-1.095-1.168q-.384-.759-.384-1.785 0-1.011.384-1.773a2.9 2.9 0 0 1 1.082-1.193q.695-.43 1.632-.431.605 0 1.142.196.541.192.955.597.417.405.656 1.031.239.622.239 1.483v.473h-5.365v-1.04h3.886a1.66 1.66 0 0 0-.192-.788 1.4 1.4 0 0 0-.524-.55q-.332-.2-.775-.2-.474 0-.831.23-.358.226-.559.597-.195.367-.2.805v.908q0 .57.209.98.209.405.584.622.375.213.878.213.336 0 .609-.094.272-.098.473-.285.2-.188.303-.465l1.44.162a2.24 2.24 0 0 1-.52.997q-.38.422-.972.657-.591.23-1.355.23m9.389-4.943-1.406.153a1.12 1.12 0 0 0-.601-.703 1.4 1.4 0 0 0-.605-.115q-.481 0-.81.209-.324.208-.319.541a.56.56 0 0 0 .208.464q.218.18.716.294l1.117.239q.928.2 1.381.635.456.435.46 1.138a1.8 1.8 0 0 1-.362 1.091q-.354.468-.985.733-.63.264-1.449.264-1.202 0-1.934-.503-.733-.507-.874-1.411l1.504-.144q.103.442.435.669.333.225.865.225.55 0 .882-.225.337-.226.337-.559a.58.58 0 0 0-.218-.464q-.213-.183-.664-.281l-1.117-.235q-.942-.196-1.393-.66-.452-.47-.448-1.185a1.68 1.68 0 0 1 .328-1.048q.337-.448.934-.691.6-.246 1.385-.247 1.15 0 1.811.49.664.49.822 1.326m6.586 0-1.406.153a1.1 1.1 0 0 0-.209-.4 1 1 0 0 0-.392-.303 1.4 1.4 0 0 0-.605-.115q-.482 0-.81.209-.324.208-.319.541a.56.56 0 0 0 .208.464q.218.18.716.294l1.117.239q.929.2 1.38.635.456.435.461 1.138a1.8 1.8 0 0 1-.362 1.091q-.354.468-.985.733-.63.264-1.449.264-1.202 0-1.934-.503-.733-.507-.874-1.411l1.504-.144q.102.442.435.669.333.225.865.225.55 0 .882-.225.337-.226.337-.559a.58.58 0 0 0-.218-.464q-.213-.183-.664-.281l-1.117-.235q-.942-.196-1.393-.66-.452-.47-.448-1.185a1.68 1.68 0 0 1 .328-1.048q.337-.448.934-.691.6-.246 1.385-.247 1.15 0 1.811.49.664.49.822 1.326m1.413 4.815v-6.545h1.542v6.545zm.775-7.474a.9.9 0 0 1-.63-.243.78.78 0 0 1-.265-.593q0-.35.265-.592a.9.9 0 0 1 .63-.247q.371 0 .631.247a.77.77 0 0 1 .264.592q0 .345-.264.593a.9.9 0 0 1-.631.243m5.209 7.602q-.958 0-1.662-.422a2.86 2.86 0 0 1-1.091-1.18q-.384-.759-.384-1.773t.384-1.777a2.85 2.85 0 0 1 1.091-1.185q.704-.422 1.662-.422t1.662.422q.703.421 1.086 1.185.388.762.388 1.777t-.388 1.773a2.84 2.84 0 0 1-1.086 1.18q-.704.422-1.662.422m.008-1.236q.52 0 .87-.285a1.7 1.7 0 0 0 .519-.776q.175-.486.175-1.082 0-.601-.175-1.087a1.7 1.7 0 0 0-.519-.78q-.35-.29-.87-.29-.532 0-.886.29a1.74 1.74 0 0 0-.524.78 3.3 3.3 0 0 0-.171 1.087q0 .596.171 1.082.174.486.524.776.354.285.886.285m5.98-2.727v3.835H508.3v-6.545h1.475v1.112h.077q.225-.55.72-.874.498-.324 1.231-.324.678 0 1.181.29.507.29.784.84.281.55.277 1.333v4.168h-1.543v-3.929q0-.656-.341-1.027-.336-.37-.933-.371-.405 0-.72.179a1.24 1.24 0 0 0-.49.507q-.175.333-.175.806m11.772 3.835h-2.957v-8.727h3.017q1.3 0 2.233.524a3.5 3.5 0 0 1 1.44 1.496q.503.976.503 2.335 0 1.363-.507 2.344a3.5 3.5 0 0 1-1.453 1.504q-.947.524-2.276.524m-1.376-1.368h1.299q.912 0 1.522-.332.609-.337.916-1.002.307-.67.307-1.67 0-1.002-.307-1.662a2.1 2.1 0 0 0-.908-.993q-.597-.332-1.483-.332h-1.346zm9.944 1.496q-.985 0-1.701-.409a2.8 2.8 0 0 1-1.095-1.168q-.383-.759-.383-1.785 0-1.011.383-1.773a2.9 2.9 0 0 1 1.082-1.193q.696-.43 1.633-.431.605 0 1.142.196.54.192.954.597.418.405.656 1.031.239.622.239 1.483v.473h-5.365v-1.04h3.886a1.65 1.65 0 0 0-.191-.788 1.4 1.4 0 0 0-.525-.55q-.332-.2-.775-.2-.472 0-.831.23-.358.226-.558.597a1.7 1.7 0 0 0-.201.805v.908q0 .57.209.98.209.405.584.622.375.213.878.213.336 0 .609-.094.273-.098.473-.285.201-.188.303-.465l1.44.162a2.24 2.24 0 0 1-.52.997q-.379.422-.971.657-.593.23-1.355.23m9.388-4.943-1.406.153a1.12 1.12 0 0 0-.601-.703 1.4 1.4 0 0 0-.605-.115q-.482 0-.809.209-.324.208-.32.541a.56.56 0 0 0 .209.464q.217.18.716.294l1.116.239q.929.2 1.381.635.456.435.46 1.138a1.8 1.8 0 0 1-.362 1.091q-.354.468-.985.733-.63.264-1.448.264-1.202 0-1.935-.503-.733-.507-.874-1.411l1.505-.144q.102.442.434.669.333.225.865.225.55 0 .882-.225.337-.226.337-.559a.58.58 0 0 0-.217-.464q-.213-.183-.665-.281l-1.117-.235q-.941-.196-1.393-.66-.452-.47-.447-1.185a1.67 1.67 0 0 1 .328-1.048q.336-.448.933-.691.6-.246 1.385-.247 1.15 0 1.811.49.665.49.822 1.326m4.681-1.73v1.193h-3.762v-1.193zm-2.833-1.569h1.542v6.145q0 .312.094.478a.5.5 0 0 0 .256.221q.157.06.349.06.145 0 .264-.022.124-.021.188-.038l.26 1.206q-.124.043-.354.094-.225.051-.554.059a2.5 2.5 0 0 1-1.044-.174 1.63 1.63 0 0 1-.737-.605q-.269-.41-.264-1.023zm4.124 8.114v-6.545h1.495v1.09h.069q.178-.566.613-.873a1.7 1.7 0 0 1 1.002-.311q.127 0 .285.013.162.008.269.029v1.419a1.7 1.7 0 0 0-.312-.059 3 3 0 0 0-.404-.03q-.422 0-.759.183a1.35 1.35 0 0 0-.716 1.236v3.848zm7.343.128q-.958 0-1.662-.422a2.87 2.87 0 0 1-1.091-1.18q-.383-.759-.383-1.773t.383-1.777a2.86 2.86 0 0 1 1.091-1.185q.703-.422 1.662-.422.958 0 1.662.422.703.421 1.087 1.185.387.762.387 1.777t-.387 1.773a2.84 2.84 0 0 1-1.087 1.18q-.704.422-1.662.422m.009-1.236q.52 0 .869-.285.35-.29.52-.776.174-.486.174-1.082 0-.601-.174-1.087a1.7 1.7 0 0 0-.52-.78q-.35-.29-.869-.29-.534 0-.887.29a1.74 1.74 0 0 0-.524.78q-.17.486-.17 1.087 0 .596.17 1.082.174.486.524.776.353.285.887.285m5.173 3.563a3 3 0 0 1-.584-.052 2.2 2.2 0 0 1-.422-.11l.358-1.202q.337.098.601.094a.74.74 0 0 0 .464-.167q.205-.157.346-.528l.132-.354-2.374-6.681h1.636l1.509 4.943h.068l1.513-4.943h1.641l-2.621 7.338a2.9 2.9 0 0 1-.486.89q-.303.375-.741.571-.435.201-1.04.201m8.63-2.327q-.984 0-1.7-.409a2.77 2.77 0 0 1-1.095-1.168q-.384-.759-.384-1.785 0-1.011.384-1.773a2.9 2.9 0 0 1 1.082-1.193q.694-.43 1.632-.431.606 0 1.142.196.541.192.955.597.417.405.656 1.031.239.622.239 1.483v.473h-5.365v-1.04h3.886a1.66 1.66 0 0 0-.192-.788 1.4 1.4 0 0 0-.524-.55 1.5 1.5 0 0 0-.776-.2q-.473 0-.83.23-.358.226-.559.597-.195.367-.2.805v.908q0 .57.209.98.209.405.584.622.375.213.877.213.337 0 .61-.094.273-.098.473-.285.2-.188.302-.465l1.441.162a2.24 2.24 0 0 1-.52.997q-.38.422-.972.657a3.7 3.7 0 0 1-1.355.23m6.645-.013q-.772 0-1.381-.396t-.963-1.151-.354-1.832q0-1.09.358-1.841.363-.754.976-1.138a2.5 2.5 0 0 1 1.368-.388q.575 0 .946.196.37.192.588.465.217.268.337.507h.064v-3.264h1.546v8.727h-1.517v-1.031h-.093q-.12.238-.345.507a1.9 1.9 0 0 1-.597.452q-.37.187-.933.187m.43-1.266q.49 0 .835-.264.345-.268.524-.746a3.1 3.1 0 0 0 .179-1.112q0-.635-.179-1.103a1.56 1.56 0 0 0-.519-.729q-.342-.26-.84-.26-.516 0-.861.268-.345.269-.52.742a3.1 3.1 0 0 0-.174 1.082q0 .614.174 1.095.18.478.525.755.35.272.856.272"/><rect width="170" height="27" x="442.5" y="179.5" fill="#fff" rx="3.5"/><rect width="170" height="27" x="442.5" y="179.5" stroke="#c1c3c8" rx="3.5"/><g clip-path="url(#c)"><path fill="#17181c" d="M462.195 195.862a.668.668 0 0 1 .943.943L461.943 198l1.195 1.195a.668.668 0 0 1-.943.943L461 198.943l-1.195 1.195a.668.668 0 0 1-.943-.943l1.195-1.195-1.195-1.195a.668.668 0 0 1 .943-.943l1.195 1.195zm-2.862-2.195v-1.311a4 4 0 0 0-2.285-3.42.67.67 0 0 1-.381-.603.668.668 0 0 0-1.334 0 .67.67 0 0 1-.381.603 4 4 0 0 0-2.285 3.42v1.977l-.005.08a3.3 3.3 0 0 1-.416 1.254h4.421a.666.666 0 1 1 0 1.333h-2a1.34 1.34 0 0 0 .601 1.115 1.33 1.33 0 0 0 1.263.109.666.666 0 1 1 .53 1.223 2.67 2.67 0 0 1-3.728-2.447h-2.666a.667.667 0 0 1-.329-1.247 2 2 0 0 0 .995-1.469v-1.951l.001-.031a5.34 5.34 0 0 1 2.714-4.4 2 2 0 0 1 1.952-1.569 2 2 0 0 1 1.951 1.569 5.33 5.33 0 0 1 2.715 4.4l.001.031v1.334a.667.667 0 0 1-1.334 0"/></g><path fill="#17181c" d="M474.604 191.172a1.17 1.17 0 0 0-.503-.869q-.439-.312-1.142-.312-.494 0-.848.15a1.25 1.25 0 0 0-.541.404 1 1 0 0 0-.192.584q0 .273.123.473.129.2.346.341.216.137.481.23.264.094.533.158l.818.205q.495.114.95.311.46.195.823.494.366.299.579.72.213.422.213.989 0 .766-.392 1.351-.392.579-1.133.907-.738.324-1.786.324-1.018 0-1.768-.315a2.63 2.63 0 0 1-1.168-.921q-.417-.605-.452-1.474h1.556q.034.456.281.758.247.303.644.452.4.15.894.149.516 0 .904-.153.392-.157.614-.435.221-.28.225-.656a.83.83 0 0 0-.2-.563 1.5 1.5 0 0 0-.55-.375 5 5 0 0 0-.818-.272l-.993-.256q-1.078-.277-1.704-.839-.622-.567-.622-1.505 0-.77.417-1.351a2.77 2.77 0 0 1 1.146-.899q.724-.324 1.641-.324.929 0 1.628.324.704.32 1.104.891.4.566.413 1.304zm7.153 3.575v-3.792h1.543v6.545h-1.496v-1.163h-.068q-.221.55-.729.899-.502.35-1.24.349-.643 0-1.137-.285a2 2 0 0 1-.767-.84q-.277-.554-.277-1.338v-4.167h1.542v3.929q0 .621.341.988.341.366.895.367.34 0 .661-.167a1.34 1.34 0 0 0 .524-.494q.208-.331.208-.831m3.198 2.753v-8.727h1.542v3.264h.064q.12-.239.337-.507a1.8 1.8 0 0 1 .588-.465q.37-.195.946-.196a2.5 2.5 0 0 1 1.368.388q.614.384.971 1.138.363.75.363 1.841 0 1.078-.354 1.832-.354.755-.963 1.151a2.5 2.5 0 0 1-1.381.396q-.562 0-.933-.187a1.9 1.9 0 0 1-.597-.452 3 3 0 0 1-.345-.507h-.089v1.031zm1.512-3.273q0 .636.179 1.112.183.478.524.746.346.264.836.264.511 0 .856-.272.345-.277.52-.755.179-.481.179-1.095 0-.61-.175-1.082a1.6 1.6 0 0 0-.52-.742q-.345-.268-.86-.268-.495 0-.84.26t-.524.729q-.175.468-.175 1.103m11.151-1.542-1.406.153a1.12 1.12 0 0 0-.601-.703 1.4 1.4 0 0 0-.605-.115q-.481 0-.81.209-.324.208-.319.541a.56.56 0 0 0 .209.464q.216.18.715.294l1.117.239q.929.2 1.381.635.456.435.46 1.138a1.8 1.8 0 0 1-.362 1.091q-.354.468-.985.733-.63.264-1.449.264-1.202 0-1.934-.503-.733-.507-.874-1.411l1.504-.144q.103.442.435.669.333.225.865.225.55 0 .882-.225.337-.226.337-.559a.58.58 0 0 0-.217-.464q-.213-.183-.665-.281l-1.117-.235q-.942-.196-1.393-.66-.451-.47-.448-1.185a1.68 1.68 0 0 1 .329-1.048q.336-.448.933-.691.6-.246 1.385-.247 1.15 0 1.811.49.664.49.822 1.326m4.268 4.943q-.98 0-1.683-.431a2.86 2.86 0 0 1-1.078-1.188q-.375-.763-.375-1.756 0-.998.383-1.76a2.87 2.87 0 0 1 1.083-1.193q.702-.43 1.661-.431.798 0 1.411.294.618.29.984.823.367.528.418 1.236h-1.474a1.4 1.4 0 0 0-.427-.789q-.332-.32-.89-.319-.474 0-.831.255a1.63 1.63 0 0 0-.558.725q-.196.473-.196 1.133 0 .67.196 1.151.196.477.549.737.358.256.84.256.34 0 .609-.128.273-.132.456-.379t.252-.601h1.474a2.6 2.6 0 0 1-.409 1.231 2.43 2.43 0 0 1-.963.836q-.61.297-1.432.298m4.071-.128v-6.545h1.495v1.09h.069q.178-.566.613-.873a1.7 1.7 0 0 1 1.002-.311q.127 0 .285.013.162.008.269.029v1.419a1.7 1.7 0 0 0-.311-.059q-.21-.03-.405-.03-.422 0-.759.183a1.35 1.35 0 0 0-.716 1.236v3.848zm4.757 0v-6.545h1.543v6.545zm.776-7.474a.9.9 0 0 1-.631-.243.8.8 0 0 1-.264-.593q0-.35.264-.592a.9.9 0 0 1 .631-.247q.37 0 .631.247a.77.77 0 0 1 .264.592q0 .345-.264.593a.9.9 0 0 1-.631.243m2.353 9.929v-9h1.517v1.082h.09a2.8 2.8 0 0 1 .337-.507q.216-.273.588-.465.37-.195.946-.196.758 0 1.368.388.614.384.971 1.138.362.75.362 1.841 0 1.078-.353 1.832-.354.755-.963 1.151a2.5 2.5 0 0 1-1.381.396q-.562 0-.933-.187a1.9 1.9 0 0 1-.597-.452 3 3 0 0 1-.345-.507h-.064v3.486zm1.513-5.728q0 .636.179 1.112.183.478.524.746.345.264.836.264.51 0 .856-.272.345-.277.52-.755.179-.481.179-1.095 0-.61-.175-1.082a1.63 1.63 0 0 0-.52-.742q-.345-.268-.86-.268-.495 0-.84.26t-.524.729a3.1 3.1 0 0 0-.175 1.103m9.256-3.272v1.193h-3.763v-1.193zm-2.834-1.569h1.543v6.145q0 .312.093.478a.5.5 0 0 0 .256.221q.158.06.35.06.144 0 .264-.022.123-.021.187-.038l.26 1.206q-.123.043-.354.094-.226.051-.553.059a2.5 2.5 0 0 1-1.045-.174 1.63 1.63 0 0 1-.737-.605q-.269-.41-.264-1.023zm4.124 8.114v-6.545h1.543v6.545zm.776-7.474a.9.9 0 0 1-.631-.243.8.8 0 0 1-.264-.593q0-.35.264-.592a.9.9 0 0 1 .631-.247q.37 0 .63.247a.77.77 0 0 1 .264.592q0 .345-.264.593a.9.9 0 0 1-.63.243m5.208 7.602q-.958 0-1.662-.422a2.87 2.87 0 0 1-1.091-1.18q-.383-.759-.383-1.773t.383-1.777a2.86 2.86 0 0 1 1.091-1.185q.703-.422 1.662-.422.958 0 1.662.422.703.421 1.087 1.185.387.762.387 1.777t-.387 1.773a2.84 2.84 0 0 1-1.087 1.18q-.704.422-1.662.422m.009-1.236q.52 0 .869-.285.35-.29.52-.776.174-.486.174-1.082 0-.601-.174-1.087a1.7 1.7 0 0 0-.52-.78q-.35-.29-.869-.29-.534 0-.887.29a1.74 1.74 0 0 0-.524.78q-.17.486-.17 1.087 0 .596.17 1.082.174.486.524.776.353.285.887.285m5.979-2.727v3.835h-1.542v-6.545h1.474v1.112h.077q.225-.55.72-.874.498-.324 1.232-.324.677 0 1.18.29.507.29.784.84.282.55.277 1.333v4.168h-1.543v-3.929q0-.656-.341-1.027-.336-.37-.933-.371-.405 0-.72.179a1.25 1.25 0 0 0-.49.507 1.7 1.7 0 0 0-.175.806m10.943-.98-1.406.153a1.12 1.12 0 0 0-.601-.703 1.4 1.4 0 0 0-.605-.115q-.482 0-.809.209-.324.208-.32.541a.56.56 0 0 0 .209.464q.217.18.716.294l1.116.239q.93.2 1.381.635.456.435.46 1.138a1.78 1.78 0 0 1-.362 1.091q-.354.468-.984.733-.632.264-1.449.264-1.202 0-1.935-.503-.733-.507-.874-1.411l1.505-.144q.102.442.434.669.333.225.865.225.55 0 .882-.225.337-.226.337-.559a.58.58 0 0 0-.217-.464q-.213-.183-.665-.281l-1.116-.235q-.942-.196-1.394-.66-.452-.47-.447-1.185a1.67 1.67 0 0 1 .328-1.048q.336-.448.933-.691.601-.246 1.385-.247 1.15 0 1.811.49.664.49.822 1.326m4.458 4.815v-8.727h1.581v7.402h3.844v1.325zm9.584.128q-.96 0-1.662-.422a2.86 2.86 0 0 1-1.091-1.18q-.384-.759-.384-1.773t.384-1.777a2.85 2.85 0 0 1 1.091-1.185q.702-.422 1.662-.422.958 0 1.662.422.703.421 1.086 1.185.388.762.388 1.777t-.388 1.773a2.84 2.84 0 0 1-1.086 1.18q-.704.422-1.662.422m.008-1.236q.52 0 .87-.285.349-.29.519-.776.175-.486.175-1.082 0-.601-.175-1.087a1.7 1.7 0 0 0-.519-.78q-.35-.29-.87-.29-.532 0-.886.29a1.74 1.74 0 0 0-.524.78 3.3 3.3 0 0 0-.171 1.087q0 .596.171 1.082.174.486.524.776.354.285.886.285m9.611-3.707-1.407.153a1.11 1.11 0 0 0-.6-.703 1.4 1.4 0 0 0-.606-.115q-.481 0-.809.209-.324.208-.32.541a.56.56 0 0 0 .209.464q.217.18.716.294l1.116.239q.93.2 1.381.635.456.435.46 1.138a1.78 1.78 0 0 1-.362 1.091q-.354.468-.984.733-.632.264-1.449.264-1.202 0-1.935-.503a2.02 2.02 0 0 1-.873-1.411l1.504-.144q.102.442.434.669.332.225.866.225.549 0 .882-.225.336-.226.336-.559a.58.58 0 0 0-.217-.464q-.213-.183-.665-.281l-1.116-.235q-.942-.196-1.394-.66-.452-.47-.447-1.185a1.67 1.67 0 0 1 .328-1.048q.336-.448.933-.691.601-.246 1.385-.247 1.15 0 1.811.49.665.49.823 1.326m4.681-1.73v1.193h-3.763v-1.193zm-2.834-1.569h1.543v6.145q0 .312.093.478a.5.5 0 0 0 .256.221q.158.06.349.06.145 0 .265-.022.123-.021.187-.038l.26 1.206q-.123.043-.354.094-.225.051-.554.059a2.5 2.5 0 0 1-1.044-.174 1.63 1.63 0 0 1-.737-.605q-.269-.41-.264-1.023z"/><rect width="170" height="27" x="442.5" y="223.5" fill="#fff" rx="3.5"/><rect width="170" height="27" x="442.5" y="223.5" stroke="#c1c3c8" rx="3.5"/><g clip-path="url(#d)"><path fill="#17181c" d="M462.194 239.862a.668.668 0 0 1 .943.943L461.941 242l1.196 1.195a.668.668 0 0 1-.943.943l-1.195-1.195-1.196 1.195a.666.666 0 1 1-.942-.943l1.195-1.195-1.195-1.195a.666.666 0 1 1 .942-.943l1.196 1.195zM457.332 237a.667.667 0 1 1 0 1.333h-4a.667.667 0 1 1 0-1.333zm4 .667v-4a1.334 1.334 0 0 0-1.333-1.334h-8a1.334 1.334 0 0 0-1.334 1.334V239a1.334 1.334 0 0 0 1.334 1.333h2c.177 0 .346.071.471.196l1.529 1.528.528-.528a.666.666 0 1 1 .943.942l-1 1a.666.666 0 0 1-.943 0l-1.804-1.804h-1.724a2.666 2.666 0 0 1-2.667-2.667v-5.333a2.666 2.666 0 0 1 2.667-2.667h8a2.666 2.666 0 0 1 2.666 2.667v4a.666.666 0 1 1-1.333 0m-2.667-3.334a.667.667 0 1 1 0 1.334h-5.333a.667.667 0 0 1 0-1.334z"/></g><path fill="#17181c" d="M473.112 238.568h1.432l.848 1.1.605.716 1.453 1.866h-1.534l-.988-1.253-.422-.596zm4.547-1.432q0 1.411-.528 2.417-.525 1.001-1.432 1.534-.903.532-2.05.532t-2.054-.532q-.903-.537-1.432-1.539-.524-1.005-.524-2.412 0-1.41.524-2.412.53-1.005 1.432-1.538.908-.533 2.054-.533t2.05.533q.907.533 1.432 1.538.528 1.002.528 2.412m-1.589 0q0-.993-.311-1.674-.307-.687-.853-1.036a2.25 2.25 0 0 0-1.257-.354q-.711 0-1.257.354-.546.35-.856 1.036-.307.681-.307 1.674t.307 1.679q.31.682.856 1.036a2.3 2.3 0 0 0 1.257.349q.712 0 1.257-.349.546-.354.853-1.036.31-.686.311-1.679m7.199 1.611v-3.792h1.543v6.545h-1.496v-1.163h-.068a1.97 1.97 0 0 1-.729.899q-.502.35-1.24.349-.643 0-1.138-.285a2 2 0 0 1-.767-.84q-.276-.554-.277-1.338v-4.167h1.543v3.929q0 .621.341.988.34.366.895.367.34 0 .66-.167.32-.165.524-.494.21-.331.209-.831m6.027 2.881q-.984 0-1.7-.409a2.77 2.77 0 0 1-1.096-1.168q-.383-.759-.383-1.785 0-1.011.383-1.773.389-.767 1.083-1.193.695-.43 1.632-.431.605 0 1.142.196.541.192.954.597.419.405.657 1.031.238.622.238 1.483v.473h-5.365v-1.04h3.887a1.66 1.66 0 0 0-.192-.788 1.4 1.4 0 0 0-.524-.55 1.5 1.5 0 0 0-.776-.2q-.472 0-.831.23-.358.226-.558.597a1.7 1.7 0 0 0-.2.805v.908q0 .57.208.98.21.405.584.622.375.213.878.213.338 0 .609-.094.273-.098.474-.285.2-.188.302-.465l1.44.162a2.25 2.25 0 0 1-.519.997q-.38.422-.972.657-.593.23-1.355.23m8.387-2.881v-3.792h1.543v6.545h-1.496v-1.163h-.068a1.97 1.97 0 0 1-.729.899q-.502.35-1.24.349-.643 0-1.138-.285a2 2 0 0 1-.767-.84q-.276-.554-.277-1.338v-4.167h1.543v3.929q0 .621.341.988.34.366.895.367.34 0 .66-.167.32-.165.524-.494.21-.331.209-.831m6.027 2.881q-.984 0-1.7-.409a2.77 2.77 0 0 1-1.096-1.168q-.383-.759-.383-1.785 0-1.011.383-1.773.388-.767 1.083-1.193.695-.43 1.632-.431.605 0 1.142.196.541.192.954.597.418.405.657 1.031.238.622.238 1.483v.473h-5.365v-1.04h3.887a1.66 1.66 0 0 0-.192-.788 1.4 1.4 0 0 0-.524-.55 1.5 1.5 0 0 0-.776-.2q-.472 0-.831.23a1.6 1.6 0 0 0-.558.597 1.7 1.7 0 0 0-.2.805v.908q0 .57.209.98.208.405.583.622.375.213.878.213.337 0 .61-.094.272-.098.473-.285.2-.188.302-.465l1.44.162q-.136.571-.519.997-.38.422-.972.657-.593.23-1.355.23m6.644-.013q-.771 0-1.38-.396-.61-.396-.963-1.151-.354-.754-.354-1.832 0-1.09.358-1.841.362-.754.976-1.138a2.5 2.5 0 0 1 1.368-.388q.575 0 .946.196.37.192.588.465.218.268.336.507h.064v-3.264h1.547v8.727h-1.517v-1.031h-.094a2.6 2.6 0 0 1-.345.507q-.225.264-.596.452-.372.187-.934.187m.431-1.266q.49 0 .835-.264.345-.268.524-.746.179-.476.179-1.112 0-.635-.179-1.103a1.57 1.57 0 0 0-.52-.729q-.34-.26-.839-.26-.516 0-.861.268-.345.269-.52.742a3.1 3.1 0 0 0-.175 1.082q0 .614.175 1.095.179.478.524.755.35.272.857.272m7.744-7.576h1.934l2.591 6.324h.103l2.591-6.324h1.934v8.727h-1.517v-5.996h-.081l-2.412 5.97h-1.133l-2.412-5.983h-.081v6.009h-1.517zm13.704 8.855q-.984 0-1.7-.409a2.8 2.8 0 0 1-1.095-1.168q-.384-.759-.384-1.785 0-1.011.384-1.773a2.9 2.9 0 0 1 1.082-1.193q.694-.43 1.632-.431.605 0 1.142.196.541.192.955.597.417.405.656 1.031.239.622.239 1.483v.473h-5.365v-1.04h3.886a1.66 1.66 0 0 0-.192-.788 1.4 1.4 0 0 0-.524-.55q-.332-.2-.775-.2-.474 0-.831.23-.358.226-.559.597-.195.366-.2.805v.908q0 .57.209.98.209.405.584.622.375.213.878.213.336 0 .609-.094.273-.098.473-.285.2-.188.303-.465l1.44.162a2.24 2.24 0 0 1-.52.997q-.38.422-.972.657-.591.23-1.355.23m9.389-4.943-1.406.153a1.12 1.12 0 0 0-.601-.703 1.4 1.4 0 0 0-.605-.115q-.481 0-.81.209-.324.208-.319.541a.56.56 0 0 0 .208.464q.218.18.716.294l1.117.239q.928.2 1.381.635.456.435.46 1.138a1.8 1.8 0 0 1-.362 1.091q-.354.468-.985.733-.63.264-1.449.264-1.202 0-1.934-.503-.733-.507-.874-1.411l1.504-.144q.103.442.435.669.333.225.865.225.55 0 .882-.225.337-.226.337-.559a.58.58 0 0 0-.218-.464q-.213-.183-.664-.281l-1.117-.235q-.942-.196-1.393-.66-.452-.47-.448-1.185a1.68 1.68 0 0 1 .328-1.048q.337-.448.934-.691.6-.246 1.385-.247 1.15 0 1.811.49.665.49.822 1.326m6.586 0-1.406.153a1.1 1.1 0 0 0-.209-.4 1 1 0 0 0-.392-.303 1.4 1.4 0 0 0-.605-.115q-.482 0-.81.209-.324.208-.319.541a.56.56 0 0 0 .208.464q.218.18.716.294l1.117.239q.928.2 1.38.635.456.435.461 1.138a1.8 1.8 0 0 1-.362 1.091q-.354.468-.985.733-.63.264-1.449.264-1.202 0-1.934-.503-.733-.507-.874-1.411l1.504-.144q.102.442.435.669.333.225.865.225.55 0 .882-.225.337-.226.337-.559a.58.58 0 0 0-.218-.464q-.213-.183-.664-.281l-1.117-.235q-.942-.196-1.393-.66-.452-.47-.448-1.185a1.68 1.68 0 0 1 .328-1.048q.337-.448.934-.691.6-.246 1.385-.247 1.15 0 1.811.49.664.49.822 1.326m3.296 4.947q-.622 0-1.12-.221a1.84 1.84 0 0 1-.785-.665q-.285-.44-.285-1.083 0-.553.204-.916.205-.362.559-.579.353-.218.797-.329.447-.115.924-.166.576-.059.934-.106.357-.05.519-.154.167-.106.167-.328v-.025q0-.482-.286-.746-.285-.264-.822-.264-.567 0-.899.247a1.23 1.23 0 0 0-.444.584l-1.44-.205q.17-.597.562-.997.393-.405.959-.605a3.7 3.7 0 0 1 1.253-.205q.473 0 .942.111.468.11.856.367.388.25.623.686.238.434.238 1.086v4.381h-1.483v-.899h-.051a1.9 1.9 0 0 1-.396.511 1.9 1.9 0 0 1-.635.379q-.38.141-.891.141m.401-1.133q.464 0 .805-.184.341-.187.524-.494.188-.308.188-.669v-.771a.7.7 0 0 1-.247.11 3 3 0 0 1-.384.09q-.213.038-.422.068l-.362.051q-.345.048-.618.154a1 1 0 0 0-.43.298.73.73 0 0 0-.158.486q0 .426.311.643.312.218.793.218m7.453 3.592q-.831 0-1.428-.226-.596-.222-.958-.597a2.06 2.06 0 0 1-.503-.83l1.389-.337q.093.192.273.379.179.192.481.315.307.129.772.128.656 0 1.086-.319.43-.316.431-1.04v-1.24h-.077a2.2 2.2 0 0 1-.35.49q-.225.252-.6.422-.372.17-.934.17-.753 0-1.368-.353-.61-.358-.971-1.066-.358-.711-.358-1.781 0-1.078.358-1.82.362-.745.976-1.129a2.5 2.5 0 0 1 1.368-.388q.574 0 .946.196.374.192.596.465.222.268.337.507h.085v-1.082h1.521v6.652q0 .839-.4 1.389-.4.549-1.095.822t-1.577.273m.013-3.895q.49 0 .835-.239.345-.238.524-.686.179-.447.179-1.074 0-.617-.179-1.082-.174-.465-.52-.72-.34-.26-.839-.26-.516 0-.861.268-.345.269-.52.738a3 3 0 0 0-.175 1.056q0 .602.175 1.053.179.447.524.699.35.247.857.247m7.538 1.432q-.984 0-1.7-.409a2.77 2.77 0 0 1-1.095-1.168q-.384-.759-.384-1.785 0-1.011.384-1.773a2.9 2.9 0 0 1 1.082-1.193q.694-.43 1.632-.431.605 0 1.142.196.541.192.955.597.417.405.656 1.031.239.622.239 1.483v.473h-5.365v-1.04h3.886a1.66 1.66 0 0 0-.192-.788 1.4 1.4 0 0 0-.524-.55 1.5 1.5 0 0 0-.776-.2q-.473 0-.831.23a1.6 1.6 0 0 0-.558.597q-.195.366-.2.805v.908q0 .57.209.98.209.405.584.622.375.213.877.213.337 0 .61-.094.273-.098.473-.285.2-.188.302-.465l1.441.162a2.25 2.25 0 0 1-.52.997q-.38.422-.972.657a3.7 3.7 0 0 1-1.355.23m9.389-4.943-1.406.153a1.1 1.1 0 0 0-.209-.4 1 1 0 0 0-.392-.303 1.4 1.4 0 0 0-.605-.115q-.481 0-.81.209-.323.208-.32.541a.57.57 0 0 0 .209.464q.218.18.716.294l1.117.239q.928.2 1.38.635.456.435.461 1.138a1.78 1.78 0 0 1-.363 1.091q-.353.468-.984.733-.63.264-1.449.264-1.202 0-1.935-.503a2.02 2.02 0 0 1-.873-1.411l1.504-.144q.102.442.435.669.332.225.865.225.549 0 .882-.225.337-.226.337-.559a.58.58 0 0 0-.218-.464q-.213-.183-.665-.281l-1.116-.235q-.942-.196-1.393-.66-.453-.47-.448-1.185a1.68 1.68 0 0 1 .328-1.048 2.16 2.16 0 0 1 .933-.691q.602-.246 1.385-.247 1.15 0 1.811.49.666.49.823 1.326m4.457 4.815v-8.727h1.581v7.402h3.844v1.325zm9.584.128q-.959 0-1.662-.422a2.87 2.87 0 0 1-1.091-1.18q-.383-.759-.383-1.773t.383-1.777a2.86 2.86 0 0 1 1.091-1.185q.703-.422 1.662-.422.958 0 1.662.422.703.421 1.087 1.185.387.762.387 1.777t-.387 1.773a2.84 2.84 0 0 1-1.087 1.18q-.704.422-1.662.422m.009-1.236q.52 0 .869-.285.35-.29.52-.776.174-.486.175-1.082 0-.601-.175-1.087a1.7 1.7 0 0 0-.52-.78q-.35-.29-.869-.29-.533 0-.887.29a1.75 1.75 0 0 0-.524.78q-.17.486-.17 1.087 0 .596.17 1.082.175.486.524.776.354.285.887.285m9.61-3.707-1.406.153a1.1 1.1 0 0 0-.209-.4 1 1 0 0 0-.392-.303 1.4 1.4 0 0 0-.605-.115q-.482 0-.81.209-.324.208-.319.541a.56.56 0 0 0 .208.464q.218.18.716.294l1.117.239q.928.2 1.38.635.456.435.461 1.138a1.8 1.8 0 0 1-.362 1.091q-.354.468-.985.733-.63.264-1.449.264-1.202 0-1.934-.503-.733-.507-.874-1.411l1.504-.144q.102.442.435.669.333.225.865.225.55 0 .882-.225.337-.226.337-.559a.58.58 0 0 0-.218-.464q-.213-.183-.664-.281l-1.117-.235q-.942-.196-1.393-.66-.452-.47-.448-1.185a1.68 1.68 0 0 1 .328-1.048q.337-.448.934-.691.6-.246 1.385-.247 1.15 0 1.811.49.664.49.822 1.326m4.681-1.73v1.193h-3.763v-1.193zm-2.834-1.569h1.543v6.145q0 .312.094.478.097.16.255.221.159.06.35.06.145 0 .264-.022.123-.021.188-.038l.26 1.206q-.124.043-.354.094a3 3 0 0 1-.554.059 2.5 2.5 0 0 1-1.044-.174 1.6 1.6 0 0 1-.737-.605q-.268-.41-.265-1.023z"/><path fill="#f53d7d" d="M527.47 117.28a.75.75 0 0 0 1.06 0l4.773-4.773a.749.749 0 1 0-1.06-1.06L528 115.689l-4.243-4.242a.749.749 0 1 0-1.06 1.06zm1.28-42.03a.75.75 0 0 0-1.5 0zm-.75 41.5h.75v-41.5h-1.5v41.5z"/></g><defs><clipPath id="a"><path fill="#fff" d="M0 0h720v284H0z"/></clipPath><clipPath id="b"><path fill="#fff" d="M0 0h720v314H0z"/></clipPath><clipPath id="c"><path fill="#fff" d="M448 185h16v16h-16z"/></clipPath><clipPath id="d"><path fill="#fff" d="M448 229h16v16h-16z"/></clipPath></defs></svg>