<svg xmlns="http://www.w3.org/2000/svg" width="720" height="142" fill="none"><g clip-path="url(#a)"><path fill="#fff" d="M0 0h720v142H0z"/><path fill="#3d50f5" fill-opacity=".08" d="M100 57h304v32H100z"/><path fill="#888c96" fill-opacity=".08" d="M404 57h216v32H404z"/><g fill="#c1c3c8" clip-path="url(#b)" opacity=".5"><path d="M-11 316a1 1 0 1 1 0 2 1 1 0 0 1 0-2M3 316a1 1 0 1 1 0 2 1 1 0 0 1 0-2M17 316a1 1 0 1 1 0 2 1 1 0 0 1 0-2M31 316a1 1 0 1 1 0 2 1 1 0 0 1 0-2M45 316a1 1 0 1 1 0 2 1 1 0 0 1 0-2M59 316a1 1 0 1 1 0 2 1 1 0 0 1 0-2M73 316a1 1 0 1 1 0 2 1 1 0 0 1 0-2M87 316a1 1 0 1 1 0 2 1 1 0 0 1 0-2M101 316a1 1 0 1 1 0 2 1 1 0 0 1 0-2M115 316a1 1 0 1 1 0 2 1 1 0 0 1 0-2M129 316a1 1 0 1 1 0 2 1 1 0 0 1 0-2M143 316a1 1 0 1 1 0 2 1 1 0 0 1 0-2M157 316a1 1 0 1 1 0 2 1 1 0 0 1 0-2M171 316a1 1 0 1 1 0 2 1 1 0 0 1 0-2M185 316a1 1 0 1 1 0 2 1 1 0 0 1 0-2M199 316a1 1 0 1 1 0 2 1 1 0 0 1 0-2M213 316a1 1 0 1 1 0 2 1 1 0 0 1 0-2M227 316a1 1 0 1 1 0 2 1 1 0 0 1 0-2M241 316a1 1 0 1 1 0 2 1 1 0 0 1 0-2M255 316a1 1 0 1 1 0 2 1 1 0 0 1 0-2M269 316a1 1 0 1 1 0 2 1 1 0 0 1 0-2M283 316a1 1 0 1 1 0 2 1 1 0 0 1 0-2M297 316a1 1 0 1 1 0 2 1 1 0 0 1 0-2M311 316a1 1 0 1 1 0 2 1 1 0 0 1 0-2M325 316a1 1 0 1 1 0 2 1 1 0 0 1 0-2M339 316a1 1 0 1 1 0 2 1 1 0 0 1 0-2M353 316a1 1 0 1 1 0 2 1 1 0 0 1 0-2M367 316a1 1 0 1 1 0 2 1 1 0 0 1 0-2M381 316a1 1 0 1 1 0 2 1 1 0 0 1 0-2M395 316a1 1 0 1 1 0 2 1 1 0 0 1 0-2M409 316a1 1 0 1 1 0 2 1 1 0 0 1 0-2M423 316a1 1 0 1 1 0 2 1 1 0 0 1 0-2M437 316a1 1 0 1 1 0 2 1 1 0 0 1 0-2M451 316a1 1 0 1 1 0 2 1 1 0 0 1 0-2M465 316a1 1 0 1 1 0 2 1 1 0 0 1 0-2M479 316a1 1 0 1 1 0 2 1 1 0 0 1 0-2M493 316a1 1 0 1 1 0 2 1 1 0 0 1 0-2M507 316a1 1 0 1 1 0 2 1 1 0 0 1 0-2M521 316a1 1 0 1 1 0 2 1 1 0 0 1 0-2M535 316a1 1 0 1 1 0 2 1 1 0 0 1 0-2M549 316a1 1 0 1 1 0 2 1 1 0 0 1 0-2M563 316a1 1 0 1 1 0 2 1 1 0 0 1 0-2M577 316a1 1 0 1 1 0 2 1 1 0 0 1 0-2M591 316a1 1 0 1 1 0 2 1 1 0 0 1 0-2M605 316a1 1 0 1 1 0 2 1 1 0 0 1 0-2M619 316a1 1 0 1 1 0 2 1 1 0 0 1 0-2M633 316a1 1 0 1 1 0 2 1 1 0 0 1 0-2M647 316a1 1 0 1 1 0 2 1 1 0 0 1 0-2M661 316a1 1 0 1 1 0 2 1 1 0 0 1 0-2M675 316a1 1 0 1 1 0 2 1 1 0 0 1 0-2M689 316a1 1 0 1 1 0 2 1 1 0 0 1 0-2M703 316a1 1 0 1 1 0 2 1 1 0 0 1 0-2M-11 302a1 1 0 1 1 0 2 1 1 0 0 1 0-2M3 302a1 1 0 1 1 0 2 1 1 0 0 1 0-2M17 302a1 1 0 1 1 0 2 1 1 0 0 1 0-2M31 302a1 1 0 1 1 0 2 1 1 0 0 1 0-2M45 302a1 1 0 1 1 0 2 1 1 0 0 1 0-2M59 302a1 1 0 1 1 0 2 1 1 0 0 1 0-2M73 302a1 1 0 1 1 0 2 1 1 0 0 1 0-2M87 302a1 1 0 1 1 0 2 1 1 0 0 1 0-2M101 302a1 1 0 1 1 0 2 1 1 0 0 1 0-2M115 302a1 1 0 1 1 0 2 1 1 0 0 1 0-2M129 302a1 1 0 1 1 0 2 1 1 0 0 1 0-2M143 302a1 1 0 1 1 0 2 1 1 0 0 1 0-2M157 302a1 1 0 1 1 0 2 1 1 0 0 1 0-2M171 302a1 1 0 1 1 0 2 1 1 0 0 1 0-2M185 302a1 1 0 1 1 0 2 1 1 0 0 1 0-2M199 302a1 1 0 1 1 0 2 1 1 0 0 1 0-2M213 302a1 1 0 1 1 0 2 1 1 0 0 1 0-2M227 302a1 1 0 1 1 0 2 1 1 0 0 1 0-2M241 302a1 1 0 1 1 0 2 1 1 0 0 1 0-2M255 302a1 1 0 1 1 0 2 1 1 0 0 1 0-2M269 302a1 1 0 1 1 0 2 1 1 0 0 1 0-2M283 302a1 1 0 1 1 0 2 1 1 0 0 1 0-2M297 302a1 1 0 1 1 0 2 1 1 0 0 1 0-2M311 302a1 1 0 1 1 0 2 1 1 0 0 1 0-2M325 302a1 1 0 1 1 0 2 1 1 0 0 1 0-2M339 302a1 1 0 1 1 0 2 1 1 0 0 1 0-2M353 302a1 1 0 1 1 0 2 1 1 0 0 1 0-2M367 302a1 1 0 1 1 0 2 1 1 0 0 1 0-2M381 302a1 1 0 1 1 0 2 1 1 0 0 1 0-2M395 302a1 1 0 1 1 0 2 1 1 0 0 1 0-2M409 302a1 1 0 1 1 0 2 1 1 0 0 1 0-2M423 302a1 1 0 1 1 0 2 1 1 0 0 1 0-2M437 302a1 1 0 1 1 0 2 1 1 0 0 1 0-2M451 302a1 1 0 1 1 0 2 1 1 0 0 1 0-2M465 302a1 1 0 1 1 0 2 1 1 0 0 1 0-2M479 302a1 1 0 1 1 0 2 1 1 0 0 1 0-2M493 302a1 1 0 1 1 0 2 1 1 0 0 1 0-2M507 302a1 1 0 1 1 0 2 1 1 0 0 1 0-2M521 302a1 1 0 1 1 0 2 1 1 0 0 1 0-2M535 302a1 1 0 1 1 0 2 1 1 0 0 1 0-2M549 302a1 1 0 1 1 0 2 1 1 0 0 1 0-2M563 302a1 1 0 1 1 0 2 1 1 0 0 1 0-2M577 302a1 1 0 1 1 0 2 1 1 0 0 1 0-2M591 302a1 1 0 1 1 0 2 1 1 0 0 1 0-2M605 302a1 1 0 1 1 0 2 1 1 0 0 1 0-2M619 302a1 1 0 1 1 0 2 1 1 0 0 1 0-2M633 302a1 1 0 1 1 0 2 1 1 0 0 1 0-2M647 302a1 1 0 1 1 0 2 1 1 0 0 1 0-2M661 302a1 1 0 1 1 0 2 1 1 0 0 1 0-2M675 302a1 1 0 1 1 0 2 1 1 0 0 1 0-2M689 302a1 1 0 1 1 0 2 1 1 0 0 1 0-2M703 302a1 1 0 1 1 0 2 1 1 0 0 1 0-2M717 302a1 1 0 1 1 0 2 1 1 0 0 1 0-2M-11 288a1 1 0 1 1 0 2 1 1 0 0 1 0-2M3 288a1 1 0 1 1 0 2 1 1 0 0 1 0-2M17 288a1 1 0 1 1 0 2 1 1 0 0 1 0-2M31 288a1 1 0 1 1 0 2 1 1 0 0 1 0-2M45 288a1 1 0 1 1 0 2 1 1 0 0 1 0-2M59 288a1 1 0 1 1 0 2 1 1 0 0 1 0-2M73 288a1 1 0 1 1 0 2 1 1 0 0 1 0-2M87 288a1 1 0 1 1 0 2 1 1 0 0 1 0-2M101 288a1 1 0 1 1 0 2 1 1 0 0 1 0-2M115 288a1 1 0 1 1 0 2 1 1 0 0 1 0-2M129 288a1 1 0 1 1 0 2 1 1 0 0 1 0-2M143 288a1 1 0 1 1 0 2 1 1 0 0 1 0-2M157 288a1 1 0 1 1 0 2 1 1 0 0 1 0-2M171 288a1 1 0 1 1 0 2 1 1 0 0 1 0-2M185 288a1 1 0 1 1 0 2 1 1 0 0 1 0-2M199 288a1 1 0 1 1 0 2 1 1 0 0 1 0-2M213 288a1 1 0 1 1 0 2 1 1 0 0 1 0-2M227 288a1 1 0 1 1 0 2 1 1 0 0 1 0-2M241 288a1 1 0 1 1 0 2 1 1 0 0 1 0-2M255 288a1 1 0 1 1 0 2 1 1 0 0 1 0-2M269 288a1 1 0 1 1 0 2 1 1 0 0 1 0-2M283 288a1 1 0 1 1 0 2 1 1 0 0 1 0-2M297 288a1 1 0 1 1 0 2 1 1 0 0 1 0-2M311 288a1 1 0 1 1 0 2 1 1 0 0 1 0-2M325 288a1 1 0 1 1 0 2 1 1 0 0 1 0-2M339 288a1 1 0 1 1 0 2 1 1 0 0 1 0-2M353 288a1 1 0 1 1 0 2 1 1 0 0 1 0-2M367 288a1 1 0 1 1 0 2 1 1 0 0 1 0-2M381 288a1 1 0 1 1 0 2 1 1 0 0 1 0-2M395 288a1 1 0 1 1 0 2 1 1 0 0 1 0-2M409 288a1 1 0 1 1 0 2 1 1 0 0 1 0-2M423 288a1 1 0 1 1 0 2 1 1 0 0 1 0-2M437 288a1 1 0 1 1 0 2 1 1 0 0 1 0-2M451 288a1 1 0 1 1 0 2 1 1 0 0 1 0-2M465 288a1 1 0 1 1 0 2 1 1 0 0 1 0-2M479 288a1 1 0 1 1 0 2 1 1 0 0 1 0-2M493 288a1 1 0 1 1 0 2 1 1 0 0 1 0-2M507 288a1 1 0 1 1 0 2 1 1 0 0 1 0-2M521 288a1 1 0 1 1 0 2 1 1 0 0 1 0-2M535 288a1 1 0 1 1 0 2 1 1 0 0 1 0-2M549 288a1 1 0 1 1 0 2 1 1 0 0 1 0-2M563 288a1 1 0 1 1 0 2 1 1 0 0 1 0-2M577 288a1 1 0 1 1 0 2 1 1 0 0 1 0-2M591 288a1 1 0 1 1 0 2 1 1 0 0 1 0-2M605 288a1 1 0 1 1 0 2 1 1 0 0 1 0-2M619 288a1 1 0 1 1 0 2 1 1 0 0 1 0-2M633 288a1 1 0 1 1 0 2 1 1 0 0 1 0-2M647 288a1 1 0 1 1 0 2 1 1 0 0 1 0-2M661 288a1 1 0 1 1 0 2 1 1 0 0 1 0-2M675 288a1 1 0 1 1 0 2 1 1 0 0 1 0-2M689 288a1 1 0 1 1 0 2 1 1 0 0 1 0-2M703 288a1 1 0 1 1 0 2 1 1 0 0 1 0-2M717 288a1 1 0 1 1 0 2 1 1 0 0 1 0-2M-11 274a1 1 0 1 1 0 2 1 1 0 0 1 0-2M3 274a1 1 0 1 1 0 2 1 1 0 0 1 0-2M17 274a1 1 0 1 1 0 2 1 1 0 0 1 0-2M31 274a1 1 0 1 1 0 2 1 1 0 0 1 0-2M45 274a1 1 0 1 1 0 2 1 1 0 0 1 0-2M59 274a1 1 0 1 1 0 2 1 1 0 0 1 0-2M73 274a1 1 0 1 1 0 2 1 1 0 0 1 0-2M87 274a1 1 0 1 1 0 2 1 1 0 0 1 0-2M101 274a1 1 0 1 1 0 2 1 1 0 0 1 0-2M115 274a1 1 0 1 1 0 2 1 1 0 0 1 0-2M129 274a1 1 0 1 1 0 2 1 1 0 0 1 0-2M143 274a1 1 0 1 1 0 2 1 1 0 0 1 0-2M157 274a1 1 0 1 1 0 2 1 1 0 0 1 0-2M171 274a1 1 0 1 1 0 2 1 1 0 0 1 0-2M185 274a1 1 0 1 1 0 2 1 1 0 0 1 0-2M199 274a1 1 0 1 1 0 2 1 1 0 0 1 0-2M213 274a1 1 0 1 1 0 2 1 1 0 0 1 0-2M227 274a1 1 0 1 1 0 2 1 1 0 0 1 0-2M241 274a1 1 0 1 1 0 2 1 1 0 0 1 0-2M255 274a1 1 0 1 1 0 2 1 1 0 0 1 0-2M269 274a1 1 0 1 1 0 2 1 1 0 0 1 0-2M283 274a1 1 0 1 1 0 2 1 1 0 0 1 0-2M297 274a1 1 0 1 1 0 2 1 1 0 0 1 0-2M311 274a1 1 0 1 1 0 2 1 1 0 0 1 0-2M325 274a1 1 0 1 1 0 2 1 1 0 0 1 0-2M339 274a1 1 0 1 1 0 2 1 1 0 0 1 0-2M353 274a1 1 0 1 1 0 2 1 1 0 0 1 0-2M367 274a1 1 0 1 1 0 2 1 1 0 0 1 0-2M381 274a1 1 0 1 1 0 2 1 1 0 0 1 0-2M395 274a1 1 0 1 1 0 2 1 1 0 0 1 0-2M409 274a1 1 0 1 1 0 2 1 1 0 0 1 0-2M423 274a1 1 0 1 1 0 2 1 1 0 0 1 0-2M437 274a1 1 0 1 1 0 2 1 1 0 0 1 0-2M451 274a1 1 0 1 1 0 2 1 1 0 0 1 0-2M465 274a1 1 0 1 1 0 2 1 1 0 0 1 0-2M479 274a1 1 0 1 1 0 2 1 1 0 0 1 0-2M493 274a1 1 0 1 1 0 2 1 1 0 0 1 0-2M507 274a1 1 0 1 1 0 2 1 1 0 0 1 0-2M521 274a1 1 0 1 1 0 2 1 1 0 0 1 0-2M535 274a1 1 0 1 1 0 2 1 1 0 0 1 0-2M549 274a1 1 0 1 1 0 2 1 1 0 0 1 0-2M563 274a1 1 0 1 1 0 2 1 1 0 0 1 0-2M577 274a1 1 0 1 1 0 2 1 1 0 0 1 0-2M591 274a1 1 0 1 1 0 2 1 1 0 0 1 0-2M605 274a1 1 0 1 1 0 2 1 1 0 0 1 0-2M619 274a1 1 0 1 1 0 2 1 1 0 0 1 0-2M633 274a1 1 0 1 1 0 2 1 1 0 0 1 0-2M647 274a1 1 0 1 1 0 2 1 1 0 0 1 0-2M661 274a1 1 0 1 1 0 2 1 1 0 0 1 0-2M675 274a1 1 0 1 1 0 2 1 1 0 0 1 0-2M689 274a1 1 0 1 1 0 2 1 1 0 0 1 0-2M703 274a1 1 0 1 1 0 2 1 1 0 0 1 0-2M717 274a1 1 0 1 1 0 2 1 1 0 0 1 0-2M-11 260a1 1 0 1 1 0 2 1 1 0 0 1 0-2M3 260a1 1 0 1 1 0 2 1 1 0 0 1 0-2M17 260a1 1 0 1 1 0 2 1 1 0 0 1 0-2M31 260a1 1 0 1 1 0 2 1 1 0 0 1 0-2M45 260a1 1 0 1 1 0 2 1 1 0 0 1 0-2M59 260a1 1 0 1 1 0 2 1 1 0 0 1 0-2M73 260a1 1 0 1 1 0 2 1 1 0 0 1 0-2M87 260a1 1 0 1 1 0 2 1 1 0 0 1 0-2M101 260a1 1 0 1 1 0 2 1 1 0 0 1 0-2M115 260a1 1 0 1 1 0 2 1 1 0 0 1 0-2M129 260a1 1 0 1 1 0 2 1 1 0 0 1 0-2M143 260a1 1 0 1 1 0 2 1 1 0 0 1 0-2M157 260a1 1 0 1 1 0 2 1 1 0 0 1 0-2M171 260a1 1 0 1 1 0 2 1 1 0 0 1 0-2M185 260a1 1 0 1 1 0 2 1 1 0 0 1 0-2M199 260a1 1 0 1 1 0 2 1 1 0 0 1 0-2M213 260a1 1 0 1 1 0 2 1 1 0 0 1 0-2M227 260a1 1 0 1 1 0 2 1 1 0 0 1 0-2M241 260a1 1 0 1 1 0 2 1 1 0 0 1 0-2M255 260a1 1 0 1 1 0 2 1 1 0 0 1 0-2M269 260a1 1 0 1 1 0 2 1 1 0 0 1 0-2M283 260a1 1 0 1 1 0 2 1 1 0 0 1 0-2M297 260a1 1 0 1 1 0 2 1 1 0 0 1 0-2M311 260a1 1 0 1 1 0 2 1 1 0 0 1 0-2M325 260a1 1 0 1 1 0 2 1 1 0 0 1 0-2M339 260a1 1 0 1 1 0 2 1 1 0 0 1 0-2M353 260a1 1 0 1 1 0 2 1 1 0 0 1 0-2M367 260a1 1 0 1 1 0 2 1 1 0 0 1 0-2M381 260a1 1 0 1 1 0 2 1 1 0 0 1 0-2M395 260a1 1 0 1 1 0 2 1 1 0 0 1 0-2M409 260a1 1 0 1 1 0 2 1 1 0 0 1 0-2M423 260a1 1 0 1 1 0 2 1 1 0 0 1 0-2M437 260a1 1 0 1 1 0 2 1 1 0 0 1 0-2M451 260a1 1 0 1 1 0 2 1 1 0 0 1 0-2M465 260a1 1 0 1 1 0 2 1 1 0 0 1 0-2M479 260a1 1 0 1 1 0 2 1 1 0 0 1 0-2M493 260a1 1 0 1 1 0 2 1 1 0 0 1 0-2M507 260a1 1 0 1 1 0 2 1 1 0 0 1 0-2M521 260a1 1 0 1 1 0 2 1 1 0 0 1 0-2M535 260a1 1 0 1 1 0 2 1 1 0 0 1 0-2M549 260a1 1 0 1 1 0 2 1 1 0 0 1 0-2M563 260a1 1 0 1 1 0 2 1 1 0 0 1 0-2M577 260a1 1 0 1 1 0 2 1 1 0 0 1 0-2M591 260a1 1 0 1 1 0 2 1 1 0 0 1 0-2M605 260a1 1 0 1 1 0 2 1 1 0 0 1 0-2M619 260a1 1 0 1 1 0 2 1 1 0 0 1 0-2M633 260a1 1 0 1 1 0 2 1 1 0 0 1 0-2M647 260a1 1 0 1 1 0 2 1 1 0 0 1 0-2M661 260a1 1 0 1 1 0 2 1 1 0 0 1 0-2M675 260a1 1 0 1 1 0 2 1 1 0 0 1 0-2M689 260a1 1 0 1 1 0 2 1 1 0 0 1 0-2M703 260a1 1 0 1 1 0 2 1 1 0 0 1 0-2M717 260a1 1 0 1 1 0 2 1 1 0 0 1 0-2M-11 246a1 1 0 1 1 0 2 1 1 0 0 1 0-2M3 246a1 1 0 1 1 0 2 1 1 0 0 1 0-2M17 246a1 1 0 1 1 0 2 1 1 0 0 1 0-2M31 246a1 1 0 1 1 0 2 1 1 0 0 1 0-2M45 246a1 1 0 1 1 0 2 1 1 0 0 1 0-2M59 246a1 1 0 1 1 0 2 1 1 0 0 1 0-2M73 246a1 1 0 1 1 0 2 1 1 0 0 1 0-2M87 246a1 1 0 1 1 0 2 1 1 0 0 1 0-2M101 246a1 1 0 1 1 0 2 1 1 0 0 1 0-2M115 246a1 1 0 1 1 0 2 1 1 0 0 1 0-2M129 246a1 1 0 1 1 0 2 1 1 0 0 1 0-2M143 246a1 1 0 1 1 0 2 1 1 0 0 1 0-2M157 246a1 1 0 1 1 0 2 1 1 0 0 1 0-2M171 246a1 1 0 1 1 0 2 1 1 0 0 1 0-2M185 246a1 1 0 1 1 0 2 1 1 0 0 1 0-2M199 246a1 1 0 1 1 0 2 1 1 0 0 1 0-2M213 246a1 1 0 1 1 0 2 1 1 0 0 1 0-2M227 246a1 1 0 1 1 0 2 1 1 0 0 1 0-2M241 246a1 1 0 1 1 0 2 1 1 0 0 1 0-2M255 246a1 1 0 1 1 0 2 1 1 0 0 1 0-2M269 246a1 1 0 1 1 0 2 1 1 0 0 1 0-2M283 246a1 1 0 1 1 0 2 1 1 0 0 1 0-2M297 246a1 1 0 1 1 0 2 1 1 0 0 1 0-2M311 246a1 1 0 1 1 0 2 1 1 0 0 1 0-2M325 246a1 1 0 1 1 0 2 1 1 0 0 1 0-2M339 246a1 1 0 1 1 0 2 1 1 0 0 1 0-2M353 246a1 1 0 1 1 0 2 1 1 0 0 1 0-2M367 246a1 1 0 1 1 0 2 1 1 0 0 1 0-2M381 246a1 1 0 1 1 0 2 1 1 0 0 1 0-2M395 246a1 1 0 1 1 0 2 1 1 0 0 1 0-2M409 246a1 1 0 1 1 0 2 1 1 0 0 1 0-2M423 246a1 1 0 1 1 0 2 1 1 0 0 1 0-2M437 246a1 1 0 1 1 0 2 1 1 0 0 1 0-2M451 246a1 1 0 1 1 0 2 1 1 0 0 1 0-2M465 246a1 1 0 1 1 0 2 1 1 0 0 1 0-2M479 246a1 1 0 1 1 0 2 1 1 0 0 1 0-2M493 246a1 1 0 1 1 0 2 1 1 0 0 1 0-2M507 246a1 1 0 1 1 0 2 1 1 0 0 1 0-2M521 246a1 1 0 1 1 0 2 1 1 0 0 1 0-2M535 246a1 1 0 1 1 0 2 1 1 0 0 1 0-2M549 246a1 1 0 1 1 0 2 1 1 0 0 1 0-2M563 246a1 1 0 1 1 0 2 1 1 0 0 1 0-2M577 246a1 1 0 1 1 0 2 1 1 0 0 1 0-2M591 246a1 1 0 1 1 0 2 1 1 0 0 1 0-2M605 246a1 1 0 1 1 0 2 1 1 0 0 1 0-2M619 246a1 1 0 1 1 0 2 1 1 0 0 1 0-2M633 246a1 1 0 1 1 0 2 1 1 0 0 1 0-2M647 246a1 1 0 1 1 0 2 1 1 0 0 1 0-2M661 246a1 1 0 1 1 0 2 1 1 0 0 1 0-2M675 246a1 1 0 1 1 0 2 1 1 0 0 1 0-2M689 246a1 1 0 1 1 0 2 1 1 0 0 1 0-2M703 246a1 1 0 1 1 0 2 1 1 0 0 1 0-2M717 246a1 1 0 1 1 0 2 1 1 0 0 1 0-2M-11 232a1 1 0 1 1 0 2 1 1 0 0 1 0-2M3 232a1 1 0 1 1 0 2 1 1 0 0 1 0-2M17 232a1 1 0 1 1 0 2 1 1 0 0 1 0-2M31 232a1 1 0 1 1 0 2 1 1 0 0 1 0-2M45 232a1 1 0 1 1 0 2 1 1 0 0 1 0-2M59 232a1 1 0 1 1 0 2 1 1 0 0 1 0-2M73 232a1 1 0 1 1 0 2 1 1 0 0 1 0-2M87 232a1 1 0 1 1 0 2 1 1 0 0 1 0-2M101 232a1 1 0 1 1 0 2 1 1 0 0 1 0-2M115 232a1 1 0 1 1 0 2 1 1 0 0 1 0-2M129 232a1 1 0 1 1 0 2 1 1 0 0 1 0-2M143 232a1 1 0 1 1 0 2 1 1 0 0 1 0-2M157 232a1 1 0 1 1 0 2 1 1 0 0 1 0-2M171 232a1 1 0 1 1 0 2 1 1 0 0 1 0-2M185 232a1 1 0 1 1 0 2 1 1 0 0 1 0-2M199 232a1 1 0 1 1 0 2 1 1 0 0 1 0-2M213 232a1 1 0 1 1 0 2 1 1 0 0 1 0-2M227 232a1 1 0 1 1 0 2 1 1 0 0 1 0-2M241 232a1 1 0 1 1 0 2 1 1 0 0 1 0-2M255 232a1 1 0 1 1 0 2 1 1 0 0 1 0-2M269 232a1 1 0 1 1 0 2 1 1 0 0 1 0-2M283 232a1 1 0 1 1 0 2 1 1 0 0 1 0-2M297 232a1 1 0 1 1 0 2 1 1 0 0 1 0-2M311 232a1 1 0 1 1 0 2 1 1 0 0 1 0-2M325 232a1 1 0 1 1 0 2 1 1 0 0 1 0-2M339 232a1 1 0 1 1 0 2 1 1 0 0 1 0-2M353 232a1 1 0 1 1 0 2 1 1 0 0 1 0-2M367 232a1 1 0 1 1 0 2 1 1 0 0 1 0-2M381 232a1 1 0 1 1 0 2 1 1 0 0 1 0-2M395 232a1 1 0 1 1 0 2 1 1 0 0 1 0-2M409 232a1 1 0 1 1 0 2 1 1 0 0 1 0-2M423 232a1 1 0 1 1 0 2 1 1 0 0 1 0-2M437 232a1 1 0 1 1 0 2 1 1 0 0 1 0-2M451 232a1 1 0 1 1 0 2 1 1 0 0 1 0-2M465 232a1 1 0 1 1 0 2 1 1 0 0 1 0-2M479 232a1 1 0 1 1 0 2 1 1 0 0 1 0-2M493 232a1 1 0 1 1 0 2 1 1 0 0 1 0-2M507 232a1 1 0 1 1 0 2 1 1 0 0 1 0-2M521 232a1 1 0 1 1 0 2 1 1 0 0 1 0-2M535 232a1 1 0 1 1 0 2 1 1 0 0 1 0-2M549 232a1 1 0 1 1 0 2 1 1 0 0 1 0-2M563 232a1 1 0 1 1 0 2 1 1 0 0 1 0-2M577 232a1 1 0 1 1 0 2 1 1 0 0 1 0-2M591 232a1 1 0 1 1 0 2 1 1 0 0 1 0-2M605 232a1 1 0 1 1 0 2 1 1 0 0 1 0-2M619 232a1 1 0 1 1 0 2 1 1 0 0 1 0-2M633 232a1 1 0 1 1 0 2 1 1 0 0 1 0-2M647 232a1 1 0 1 1 0 2 1 1 0 0 1 0-2M661 232a1 1 0 1 1 0 2 1 1 0 0 1 0-2M675 232a1 1 0 1 1 0 2 1 1 0 0 1 0-2M689 232a1 1 0 1 1 0 2 1 1 0 0 1 0-2M703 232a1 1 0 1 1 0 2 1 1 0 0 1 0-2M717 232a1 1 0 1 1 0 2 1 1 0 0 1 0-2M-11 218a1 1 0 1 1 0 2 1 1 0 0 1 0-2M3 218a1 1 0 1 1 0 2 1 1 0 0 1 0-2M17 218a1 1 0 1 1 0 2 1 1 0 0 1 0-2M31 218a1 1 0 1 1 0 2 1 1 0 0 1 0-2M45 218a1 1 0 1 1 0 2 1 1 0 0 1 0-2M59 218a1 1 0 1 1 0 2 1 1 0 0 1 0-2M73 218a1 1 0 1 1 0 2 1 1 0 0 1 0-2M87 218a1 1 0 1 1 0 2 1 1 0 0 1 0-2M101 218a1 1 0 1 1 0 2 1 1 0 0 1 0-2M115 218a1 1 0 1 1 0 2 1 1 0 0 1 0-2M129 218a1 1 0 1 1 0 2 1 1 0 0 1 0-2M143 218a1 1 0 1 1 0 2 1 1 0 0 1 0-2M157 218a1 1 0 1 1 0 2 1 1 0 0 1 0-2M171 218a1 1 0 1 1 0 2 1 1 0 0 1 0-2M185 218a1 1 0 1 1 0 2 1 1 0 0 1 0-2M199 218a1 1 0 1 1 0 2 1 1 0 0 1 0-2M213 218a1 1 0 1 1 0 2 1 1 0 0 1 0-2M227 218a1 1 0 1 1 0 2 1 1 0 0 1 0-2M241 218a1 1 0 1 1 0 2 1 1 0 0 1 0-2M255 218a1 1 0 1 1 0 2 1 1 0 0 1 0-2M269 218a1 1 0 1 1 0 2 1 1 0 0 1 0-2M283 218a1 1 0 1 1 0 2 1 1 0 0 1 0-2M297 218a1 1 0 1 1 0 2 1 1 0 0 1 0-2M311 218a1 1 0 1 1 0 2 1 1 0 0 1 0-2M325 218a1 1 0 1 1 0 2 1 1 0 0 1 0-2M339 218a1 1 0 1 1 0 2 1 1 0 0 1 0-2M353 218a1 1 0 1 1 0 2 1 1 0 0 1 0-2M367 218a1 1 0 1 1 0 2 1 1 0 0 1 0-2M381 218a1 1 0 1 1 0 2 1 1 0 0 1 0-2M395 218a1 1 0 1 1 0 2 1 1 0 0 1 0-2M409 218a1 1 0 1 1 0 2 1 1 0 0 1 0-2M423 218a1 1 0 1 1 0 2 1 1 0 0 1 0-2M437 218a1 1 0 1 1 0 2 1 1 0 0 1 0-2M451 218a1 1 0 1 1 0 2 1 1 0 0 1 0-2M465 218a1 1 0 1 1 0 2 1 1 0 0 1 0-2M479 218a1 1 0 1 1 0 2 1 1 0 0 1 0-2M493 218a1 1 0 1 1 0 2 1 1 0 0 1 0-2M507 218a1 1 0 1 1 0 2 1 1 0 0 1 0-2M521 218a1 1 0 1 1 0 2 1 1 0 0 1 0-2M535 218a1 1 0 1 1 0 2 1 1 0 0 1 0-2M549 218a1 1 0 1 1 0 2 1 1 0 0 1 0-2M563 218a1 1 0 1 1 0 2 1 1 0 0 1 0-2M577 218a1 1 0 1 1 0 2 1 1 0 0 1 0-2M591 218a1 1 0 1 1 0 2 1 1 0 0 1 0-2M605 218a1 1 0 1 1 0 2 1 1 0 0 1 0-2M619 218a1 1 0 1 1 0 2 1 1 0 0 1 0-2M633 218a1 1 0 1 1 0 2 1 1 0 0 1 0-2M647 218a1 1 0 1 1 0 2 1 1 0 0 1 0-2M661 218a1 1 0 1 1 0 2 1 1 0 0 1 0-2M675 218a1 1 0 1 1 0 2 1 1 0 0 1 0-2M689 218a1 1 0 1 1 0 2 1 1 0 0 1 0-2M703 218a1 1 0 1 1 0 2 1 1 0 0 1 0-2M717 218a1 1 0 1 1 0 2 1 1 0 0 1 0-2M-11 204a1 1 0 1 1 0 2 1 1 0 0 1 0-2M3 204a1 1 0 1 1 0 2 1 1 0 0 1 0-2M17 204a1 1 0 1 1 0 2 1 1 0 0 1 0-2M31 204a1 1 0 1 1 0 2 1 1 0 0 1 0-2M45 204a1 1 0 1 1 0 2 1 1 0 0 1 0-2M59 204a1 1 0 1 1 0 2 1 1 0 0 1 0-2M73 204a1 1 0 1 1 0 2 1 1 0 0 1 0-2M87 204a1 1 0 1 1 0 2 1 1 0 0 1 0-2M101 204a1 1 0 1 1 0 2 1 1 0 0 1 0-2M115 204a1 1 0 1 1 0 2 1 1 0 0 1 0-2M129 204a1 1 0 1 1 0 2 1 1 0 0 1 0-2M143 204a1 1 0 1 1 0 2 1 1 0 0 1 0-2M157 204a1 1 0 1 1 0 2 1 1 0 0 1 0-2M171 204a1 1 0 1 1 0 2 1 1 0 0 1 0-2M185 204a1 1 0 1 1 0 2 1 1 0 0 1 0-2M199 204a1 1 0 1 1 0 2 1 1 0 0 1 0-2M213 204a1 1 0 1 1 0 2 1 1 0 0 1 0-2M227 204a1 1 0 1 1 0 2 1 1 0 0 1 0-2M241 204a1 1 0 1 1 0 2 1 1 0 0 1 0-2M255 204a1 1 0 1 1 0 2 1 1 0 0 1 0-2M269 204a1 1 0 1 1 0 2 1 1 0 0 1 0-2M283 204a1 1 0 1 1 0 2 1 1 0 0 1 0-2M297 204a1 1 0 1 1 0 2 1 1 0 0 1 0-2M311 204a1 1 0 1 1 0 2 1 1 0 0 1 0-2M325 204a1 1 0 1 1 0 2 1 1 0 0 1 0-2M339 204a1 1 0 1 1 0 2 1 1 0 0 1 0-2M353 204a1 1 0 1 1 0 2 1 1 0 0 1 0-2M367 204a1 1 0 1 1 0 2 1 1 0 0 1 0-2M381 204a1 1 0 1 1 0 2 1 1 0 0 1 0-2M395 204a1 1 0 1 1 0 2 1 1 0 0 1 0-2M409 204a1 1 0 1 1 0 2 1 1 0 0 1 0-2M423 204a1 1 0 1 1 0 2 1 1 0 0 1 0-2M437 204a1 1 0 1 1 0 2 1 1 0 0 1 0-2M451 204a1 1 0 1 1 0 2 1 1 0 0 1 0-2M465 204a1 1 0 1 1 0 2 1 1 0 0 1 0-2M479 204a1 1 0 1 1 0 2 1 1 0 0 1 0-2M493 204a1 1 0 1 1 0 2 1 1 0 0 1 0-2M507 204a1 1 0 1 1 0 2 1 1 0 0 1 0-2M521 204a1 1 0 1 1 0 2 1 1 0 0 1 0-2M535 204a1 1 0 1 1 0 2 1 1 0 0 1 0-2M549 204a1 1 0 1 1 0 2 1 1 0 0 1 0-2M563 204a1 1 0 1 1 0 2 1 1 0 0 1 0-2M577 204a1 1 0 1 1 0 2 1 1 0 0 1 0-2M591 204a1 1 0 1 1 0 2 1 1 0 0 1 0-2M605 204a1 1 0 1 1 0 2 1 1 0 0 1 0-2M619 204a1 1 0 1 1 0 2 1 1 0 0 1 0-2M633 204a1 1 0 1 1 0 2 1 1 0 0 1 0-2M647 204a1 1 0 1 1 0 2 1 1 0 0 1 0-2M661 204a1 1 0 1 1 0 2 1 1 0 0 1 0-2M675 204a1 1 0 1 1 0 2 1 1 0 0 1 0-2M689 204a1 1 0 1 1 0 2 1 1 0 0 1 0-2M703 204a1 1 0 1 1 0 2 1 1 0 0 1 0-2M717 204a1 1 0 1 1 0 2 1 1 0 0 1 0-2M-11 190a1 1 0 1 1 0 2 1 1 0 0 1 0-2M3 190a1 1 0 1 1 0 2 1 1 0 0 1 0-2M17 190a1 1 0 1 1 0 2 1 1 0 0 1 0-2M31 190a1 1 0 1 1 0 2 1 1 0 0 1 0-2M45 190a1 1 0 1 1 0 2 1 1 0 0 1 0-2M59 190a1 1 0 1 1 0 2 1 1 0 0 1 0-2M73 190a1 1 0 1 1 0 2 1 1 0 0 1 0-2M87 190a1 1 0 1 1 0 2 1 1 0 0 1 0-2M101 190a1 1 0 1 1 0 2 1 1 0 0 1 0-2M115 190a1 1 0 1 1 0 2 1 1 0 0 1 0-2M129 190a1 1 0 1 1 0 2 1 1 0 0 1 0-2M143 190a1 1 0 1 1 0 2 1 1 0 0 1 0-2M157 190a1 1 0 1 1 0 2 1 1 0 0 1 0-2M171 190a1 1 0 1 1 0 2 1 1 0 0 1 0-2M185 190a1 1 0 1 1 0 2 1 1 0 0 1 0-2M199 190a1 1 0 1 1 0 2 1 1 0 0 1 0-2M213 190a1 1 0 1 1 0 2 1 1 0 0 1 0-2M227 190a1 1 0 1 1 0 2 1 1 0 0 1 0-2M241 190a1 1 0 1 1 0 2 1 1 0 0 1 0-2M255 190a1 1 0 1 1 0 2 1 1 0 0 1 0-2M269 190a1 1 0 1 1 0 2 1 1 0 0 1 0-2M283 190a1 1 0 1 1 0 2 1 1 0 0 1 0-2M297 190a1 1 0 1 1 0 2 1 1 0 0 1 0-2M311 190a1 1 0 1 1 0 2 1 1 0 0 1 0-2M325 190a1 1 0 1 1 0 2 1 1 0 0 1 0-2M339 190a1 1 0 1 1 0 2 1 1 0 0 1 0-2M353 190a1 1 0 1 1 0 2 1 1 0 0 1 0-2M367 190a1 1 0 1 1 0 2 1 1 0 0 1 0-2M381 190a1 1 0 1 1 0 2 1 1 0 0 1 0-2M395 190a1 1 0 1 1 0 2 1 1 0 0 1 0-2M409 190a1 1 0 1 1 0 2 1 1 0 0 1 0-2M423 190a1 1 0 1 1 0 2 1 1 0 0 1 0-2M437 190a1 1 0 1 1 0 2 1 1 0 0 1 0-2M451 190a1 1 0 1 1 0 2 1 1 0 0 1 0-2M465 190a1 1 0 1 1 0 2 1 1 0 0 1 0-2M479 190a1 1 0 1 1 0 2 1 1 0 0 1 0-2M493 190a1 1 0 1 1 0 2 1 1 0 0 1 0-2M507 190a1 1 0 1 1 0 2 1 1 0 0 1 0-2M521 190a1 1 0 1 1 0 2 1 1 0 0 1 0-2M535 190a1 1 0 1 1 0 2 1 1 0 0 1 0-2M549 190a1 1 0 1 1 0 2 1 1 0 0 1 0-2M563 190a1 1 0 1 1 0 2 1 1 0 0 1 0-2M577 190a1 1 0 1 1 0 2 1 1 0 0 1 0-2M591 190a1 1 0 1 1 0 2 1 1 0 0 1 0-2M605 190a1 1 0 1 1 0 2 1 1 0 0 1 0-2M619 190a1 1 0 1 1 0 2 1 1 0 0 1 0-2M633 190a1 1 0 1 1 0 2 1 1 0 0 1 0-2M647 190a1 1 0 1 1 0 2 1 1 0 0 1 0-2M661 190a1 1 0 1 1 0 2 1 1 0 0 1 0-2M675 190a1 1 0 1 1 0 2 1 1 0 0 1 0-2M689 190a1 1 0 1 1 0 2 1 1 0 0 1 0-2M703 190a1 1 0 1 1 0 2 1 1 0 0 1 0-2M717 190a1 1 0 1 1 0 2 1 1 0 0 1 0-2M-11 176a1 1 0 1 1 0 2 1 1 0 0 1 0-2M3 176a1 1 0 1 1 0 2 1 1 0 0 1 0-2M17 176a1 1 0 1 1 0 2 1 1 0 0 1 0-2M31 176a1 1 0 1 1 0 2 1 1 0 0 1 0-2M45 176a1 1 0 1 1 0 2 1 1 0 0 1 0-2M59 176a1 1 0 1 1 0 2 1 1 0 0 1 0-2M73 176a1 1 0 1 1 0 2 1 1 0 0 1 0-2M87 176a1 1 0 1 1 0 2 1 1 0 0 1 0-2M101 176a1 1 0 1 1 0 2 1 1 0 0 1 0-2M115 176a1 1 0 1 1 0 2 1 1 0 0 1 0-2M129 176a1 1 0 1 1 0 2 1 1 0 0 1 0-2M143 176a1 1 0 1 1 0 2 1 1 0 0 1 0-2M157 176a1 1 0 1 1 0 2 1 1 0 0 1 0-2M171 176a1 1 0 1 1 0 2 1 1 0 0 1 0-2M185 176a1 1 0 1 1 0 2 1 1 0 0 1 0-2M199 176a1 1 0 1 1 0 2 1 1 0 0 1 0-2M213 176a1 1 0 1 1 0 2 1 1 0 0 1 0-2M227 176a1 1 0 1 1 0 2 1 1 0 0 1 0-2M241 176a1 1 0 1 1 0 2 1 1 0 0 1 0-2M255 176a1 1 0 1 1 0 2 1 1 0 0 1 0-2M269 176a1 1 0 1 1 0 2 1 1 0 0 1 0-2M283 176a1 1 0 1 1 0 2 1 1 0 0 1 0-2M297 176a1 1 0 1 1 0 2 1 1 0 0 1 0-2M311 176a1 1 0 1 1 0 2 1 1 0 0 1 0-2M325 176a1 1 0 1 1 0 2 1 1 0 0 1 0-2M339 176a1 1 0 1 1 0 2 1 1 0 0 1 0-2M353 176a1 1 0 1 1 0 2 1 1 0 0 1 0-2M367 176a1 1 0 1 1 0 2 1 1 0 0 1 0-2M381 176a1 1 0 1 1 0 2 1 1 0 0 1 0-2M395 176a1 1 0 1 1 0 2 1 1 0 0 1 0-2M409 176a1 1 0 1 1 0 2 1 1 0 0 1 0-2M423 176a1 1 0 1 1 0 2 1 1 0 0 1 0-2M437 176a1 1 0 1 1 0 2 1 1 0 0 1 0-2M451 176a1 1 0 1 1 0 2 1 1 0 0 1 0-2M465 176a1 1 0 1 1 0 2 1 1 0 0 1 0-2M479 176a1 1 0 1 1 0 2 1 1 0 0 1 0-2M493 176a1 1 0 1 1 0 2 1 1 0 0 1 0-2M507 176a1 1 0 1 1 0 2 1 1 0 0 1 0-2M521 176a1 1 0 1 1 0 2 1 1 0 0 1 0-2M535 176a1 1 0 1 1 0 2 1 1 0 0 1 0-2M549 176a1 1 0 1 1 0 2 1 1 0 0 1 0-2M563 176a1 1 0 1 1 0 2 1 1 0 0 1 0-2M577 176a1 1 0 1 1 0 2 1 1 0 0 1 0-2M591 176a1 1 0 1 1 0 2 1 1 0 0 1 0-2M605 176a1 1 0 1 1 0 2 1 1 0 0 1 0-2M619 176a1 1 0 1 1 0 2 1 1 0 0 1 0-2M633 176a1 1 0 1 1 0 2 1 1 0 0 1 0-2M647 176a1 1 0 1 1 0 2 1 1 0 0 1 0-2M661 176a1 1 0 1 1 0 2 1 1 0 0 1 0-2M675 176a1 1 0 1 1 0 2 1 1 0 0 1 0-2M689 176a1 1 0 1 1 0 2 1 1 0 0 1 0-2M703 176a1 1 0 1 1 0 2 1 1 0 0 1 0-2M717 176a1 1 0 1 1 0 2 1 1 0 0 1 0-2M-11 162a1 1 0 1 1 0 2 1 1 0 0 1 0-2M3 162a1 1 0 1 1 0 2 1 1 0 0 1 0-2M17 162a1 1 0 1 1 0 2 1 1 0 0 1 0-2M31 162a1 1 0 1 1 0 2 1 1 0 0 1 0-2M45 162a1 1 0 1 1 0 2 1 1 0 0 1 0-2M59 162a1 1 0 1 1 0 2 1 1 0 0 1 0-2M73 162a1 1 0 1 1 0 2 1 1 0 0 1 0-2M87 162a1 1 0 1 1 0 2 1 1 0 0 1 0-2M101 162a1 1 0 1 1 0 2 1 1 0 0 1 0-2M115 162a1 1 0 1 1 0 2 1 1 0 0 1 0-2M129 162a1 1 0 1 1 0 2 1 1 0 0 1 0-2M143 162a1 1 0 1 1 0 2 1 1 0 0 1 0-2M157 162a1 1 0 1 1 0 2 1 1 0 0 1 0-2M171 162a1 1 0 1 1 0 2 1 1 0 0 1 0-2M185 162a1 1 0 1 1 0 2 1 1 0 0 1 0-2M199 162a1 1 0 1 1 0 2 1 1 0 0 1 0-2M213 162a1 1 0 1 1 0 2 1 1 0 0 1 0-2M227 162a1 1 0 1 1 0 2 1 1 0 0 1 0-2M241 162a1 1 0 1 1 0 2 1 1 0 0 1 0-2M255 162a1 1 0 1 1 0 2 1 1 0 0 1 0-2M269 162a1 1 0 1 1 0 2 1 1 0 0 1 0-2M283 162a1 1 0 1 1 0 2 1 1 0 0 1 0-2M297 162a1 1 0 1 1 0 2 1 1 0 0 1 0-2M311 162a1 1 0 1 1 0 2 1 1 0 0 1 0-2M325 162a1 1 0 1 1 0 2 1 1 0 0 1 0-2M339 162a1 1 0 1 1 0 2 1 1 0 0 1 0-2M353 162a1 1 0 1 1 0 2 1 1 0 0 1 0-2M367 162a1 1 0 1 1 0 2 1 1 0 0 1 0-2M381 162a1 1 0 1 1 0 2 1 1 0 0 1 0-2M395 162a1 1 0 1 1 0 2 1 1 0 0 1 0-2M409 162a1 1 0 1 1 0 2 1 1 0 0 1 0-2M423 162a1 1 0 1 1 0 2 1 1 0 0 1 0-2M437 162a1 1 0 1 1 0 2 1 1 0 0 1 0-2M451 162a1 1 0 1 1 0 2 1 1 0 0 1 0-2M465 162a1 1 0 1 1 0 2 1 1 0 0 1 0-2M479 162a1 1 0 1 1 0 2 1 1 0 0 1 0-2M493 162a1 1 0 1 1 0 2 1 1 0 0 1 0-2M507 162a1 1 0 1 1 0 2 1 1 0 0 1 0-2M521 162a1 1 0 1 1 0 2 1 1 0 0 1 0-2M535 162a1 1 0 1 1 0 2 1 1 0 0 1 0-2M549 162a1 1 0 1 1 0 2 1 1 0 0 1 0-2M563 162a1 1 0 1 1 0 2 1 1 0 0 1 0-2M577 162a1 1 0 1 1 0 2 1 1 0 0 1 0-2M591 162a1 1 0 1 1 0 2 1 1 0 0 1 0-2M605 162a1 1 0 1 1 0 2 1 1 0 0 1 0-2M619 162a1 1 0 1 1 0 2 1 1 0 0 1 0-2M633 162a1 1 0 1 1 0 2 1 1 0 0 1 0-2M647 162a1 1 0 1 1 0 2 1 1 0 0 1 0-2M661 162a1 1 0 1 1 0 2 1 1 0 0 1 0-2M675 162a1 1 0 1 1 0 2 1 1 0 0 1 0-2M689 162a1 1 0 1 1 0 2 1 1 0 0 1 0-2M703 162a1 1 0 1 1 0 2 1 1 0 0 1 0-2M717 162a1 1 0 1 1 0 2 1 1 0 0 1 0-2M-11 148a1 1 0 1 1 0 2 1 1 0 0 1 0-2M3 148a1 1 0 1 1 0 2 1 1 0 0 1 0-2M17 148a1 1 0 1 1 0 2 1 1 0 0 1 0-2M31 148a1 1 0 1 1 0 2 1 1 0 0 1 0-2M45 148a1 1 0 1 1 0 2 1 1 0 0 1 0-2M59 148a1 1 0 1 1 0 2 1 1 0 0 1 0-2M73 148a1 1 0 1 1 0 2 1 1 0 0 1 0-2M87 148a1 1 0 1 1 0 2 1 1 0 0 1 0-2M101 148a1 1 0 1 1 0 2 1 1 0 0 1 0-2M115 148a1 1 0 1 1 0 2 1 1 0 0 1 0-2M129 148a1 1 0 1 1 0 2 1 1 0 0 1 0-2M143 148a1 1 0 1 1 0 2 1 1 0 0 1 0-2M157 148a1 1 0 1 1 0 2 1 1 0 0 1 0-2M171 148a1 1 0 1 1 0 2 1 1 0 0 1 0-2M185 148a1 1 0 1 1 0 2 1 1 0 0 1 0-2M199 148a1 1 0 1 1 0 2 1 1 0 0 1 0-2M213 148a1 1 0 1 1 0 2 1 1 0 0 1 0-2M227 148a1 1 0 1 1 0 2 1 1 0 0 1 0-2M241 148a1 1 0 1 1 0 2 1 1 0 0 1 0-2M255 148a1 1 0 1 1 0 2 1 1 0 0 1 0-2M269 148a1 1 0 1 1 0 2 1 1 0 0 1 0-2M283 148a1 1 0 1 1 0 2 1 1 0 0 1 0-2M297 148a1 1 0 1 1 0 2 1 1 0 0 1 0-2M311 148a1 1 0 1 1 0 2 1 1 0 0 1 0-2M325 148a1 1 0 1 1 0 2 1 1 0 0 1 0-2M339 148a1 1 0 1 1 0 2 1 1 0 0 1 0-2M353 148a1 1 0 1 1 0 2 1 1 0 0 1 0-2M367 148a1 1 0 1 1 0 2 1 1 0 0 1 0-2M381 148a1 1 0 1 1 0 2 1 1 0 0 1 0-2M395 148a1 1 0 1 1 0 2 1 1 0 0 1 0-2M409 148a1 1 0 1 1 0 2 1 1 0 0 1 0-2M423 148a1 1 0 1 1 0 2 1 1 0 0 1 0-2M437 148a1 1 0 1 1 0 2 1 1 0 0 1 0-2M451 148a1 1 0 1 1 0 2 1 1 0 0 1 0-2M465 148a1 1 0 1 1 0 2 1 1 0 0 1 0-2M479 148a1 1 0 1 1 0 2 1 1 0 0 1 0-2M493 148a1 1 0 1 1 0 2 1 1 0 0 1 0-2M507 148a1 1 0 1 1 0 2 1 1 0 0 1 0-2M521 148a1 1 0 1 1 0 2 1 1 0 0 1 0-2M535 148a1 1 0 1 1 0 2 1 1 0 0 1 0-2M549 148a1 1 0 1 1 0 2 1 1 0 0 1 0-2M563 148a1 1 0 1 1 0 2 1 1 0 0 1 0-2M577 148a1 1 0 1 1 0 2 1 1 0 0 1 0-2M591 148a1 1 0 1 1 0 2 1 1 0 0 1 0-2M605 148a1 1 0 1 1 0 2 1 1 0 0 1 0-2M619 148a1 1 0 1 1 0 2 1 1 0 0 1 0-2M633 148a1 1 0 1 1 0 2 1 1 0 0 1 0-2M647 148a1 1 0 1 1 0 2 1 1 0 0 1 0-2M661 148a1 1 0 1 1 0 2 1 1 0 0 1 0-2M675 148a1 1 0 1 1 0 2 1 1 0 0 1 0-2M689 148a1 1 0 1 1 0 2 1 1 0 0 1 0-2M703 148a1 1 0 1 1 0 2 1 1 0 0 1 0-2M717 148a1 1 0 1 1 0 2 1 1 0 0 1 0-2M-11 134a1 1 0 1 1 0 2 1 1 0 0 1 0-2M3 134a1 1 0 1 1 0 2 1 1 0 0 1 0-2M17 134a1 1 0 1 1 0 2 1 1 0 0 1 0-2M31 134a1 1 0 1 1 0 2 1 1 0 0 1 0-2M45 134a1 1 0 1 1 0 2 1 1 0 0 1 0-2M59 134a1 1 0 1 1 0 2 1 1 0 0 1 0-2M73 134a1 1 0 1 1 0 2 1 1 0 0 1 0-2M87 134a1 1 0 1 1 0 2 1 1 0 0 1 0-2M101 134a1 1 0 1 1 0 2 1 1 0 0 1 0-2M115 134a1 1 0 1 1 0 2 1 1 0 0 1 0-2M129 134a1 1 0 1 1 0 2 1 1 0 0 1 0-2M143 134a1 1 0 1 1 0 2 1 1 0 0 1 0-2M157 134a1 1 0 1 1 0 2 1 1 0 0 1 0-2M171 134a1 1 0 1 1 0 2 1 1 0 0 1 0-2M185 134a1 1 0 1 1 0 2 1 1 0 0 1 0-2M199 134a1 1 0 1 1 0 2 1 1 0 0 1 0-2M213 134a1 1 0 1 1 0 2 1 1 0 0 1 0-2M227 134a1 1 0 1 1 0 2 1 1 0 0 1 0-2M241 134a1 1 0 1 1 0 2 1 1 0 0 1 0-2M255 134a1 1 0 1 1 0 2 1 1 0 0 1 0-2M269 134a1 1 0 1 1 0 2 1 1 0 0 1 0-2M283 134a1 1 0 1 1 0 2 1 1 0 0 1 0-2M297 134a1 1 0 1 1 0 2 1 1 0 0 1 0-2M311 134a1 1 0 1 1 0 2 1 1 0 0 1 0-2M325 134a1 1 0 1 1 0 2 1 1 0 0 1 0-2M339 134a1 1 0 1 1 0 2 1 1 0 0 1 0-2M353 134a1 1 0 1 1 0 2 1 1 0 0 1 0-2M367 134a1 1 0 1 1 0 2 1 1 0 0 1 0-2M381 134a1 1 0 1 1 0 2 1 1 0 0 1 0-2M395 134a1 1 0 1 1 0 2 1 1 0 0 1 0-2M409 134a1 1 0 1 1 0 2 1 1 0 0 1 0-2M423 134a1 1 0 1 1 0 2 1 1 0 0 1 0-2M437 134a1 1 0 1 1 0 2 1 1 0 0 1 0-2M451 134a1 1 0 1 1 0 2 1 1 0 0 1 0-2M465 134a1 1 0 1 1 0 2 1 1 0 0 1 0-2M479 134a1 1 0 1 1 0 2 1 1 0 0 1 0-2M493 134a1 1 0 1 1 0 2 1 1 0 0 1 0-2M507 134a1 1 0 1 1 0 2 1 1 0 0 1 0-2M521 134a1 1 0 1 1 0 2 1 1 0 0 1 0-2M535 134a1 1 0 1 1 0 2 1 1 0 0 1 0-2M549 134a1 1 0 1 1 0 2 1 1 0 0 1 0-2M563 134a1 1 0 1 1 0 2 1 1 0 0 1 0-2M577 134a1 1 0 1 1 0 2 1 1 0 0 1 0-2M591 134a1 1 0 1 1 0 2 1 1 0 0 1 0-2M605 134a1 1 0 1 1 0 2 1 1 0 0 1 0-2M619 134a1 1 0 1 1 0 2 1 1 0 0 1 0-2M633 134a1 1 0 1 1 0 2 1 1 0 0 1 0-2M647 134a1 1 0 1 1 0 2 1 1 0 0 1 0-2M661 134a1 1 0 1 1 0 2 1 1 0 0 1 0-2M675 134a1 1 0 1 1 0 2 1 1 0 0 1 0-2M689 134a1 1 0 1 1 0 2 1 1 0 0 1 0-2M703 134a1 1 0 1 1 0 2 1 1 0 0 1 0-2M717 134a1 1 0 1 1 0 2 1 1 0 0 1 0-2M-11 120a1 1 0 1 1 0 2 1 1 0 0 1 0-2M3 120a1 1 0 1 1 0 2 1 1 0 0 1 0-2M17 120a1 1 0 1 1 0 2 1 1 0 0 1 0-2M31 120a1 1 0 1 1 0 2 1 1 0 0 1 0-2M45 120a1 1 0 1 1 0 2 1 1 0 0 1 0-2M59 120a1 1 0 1 1 0 2 1 1 0 0 1 0-2M73 120a1 1 0 1 1 0 2 1 1 0 0 1 0-2M87 120a1 1 0 1 1 0 2 1 1 0 0 1 0-2M101 120a1 1 0 1 1 0 2 1 1 0 0 1 0-2M115 120a1 1 0 1 1 0 2 1 1 0 0 1 0-2M129 120a1 1 0 1 1 0 2 1 1 0 0 1 0-2M143 120a1 1 0 1 1 0 2 1 1 0 0 1 0-2M157 120a1 1 0 1 1 0 2 1 1 0 0 1 0-2M171 120a1 1 0 1 1 0 2 1 1 0 0 1 0-2M185 120a1 1 0 1 1 0 2 1 1 0 0 1 0-2M199 120a1 1 0 1 1 0 2 1 1 0 0 1 0-2M213 120a1 1 0 1 1 0 2 1 1 0 0 1 0-2M227 120a1 1 0 1 1 0 2 1 1 0 0 1 0-2M241 120a1 1 0 1 1 0 2 1 1 0 0 1 0-2M255 120a1 1 0 1 1 0 2 1 1 0 0 1 0-2M269 120a1 1 0 1 1 0 2 1 1 0 0 1 0-2M283 120a1 1 0 1 1 0 2 1 1 0 0 1 0-2M297 120a1 1 0 1 1 0 2 1 1 0 0 1 0-2M311 120a1 1 0 1 1 0 2 1 1 0 0 1 0-2M325 120a1 1 0 1 1 0 2 1 1 0 0 1 0-2M339 120a1 1 0 1 1 0 2 1 1 0 0 1 0-2M353 120a1 1 0 1 1 0 2 1 1 0 0 1 0-2M367 120a1 1 0 1 1 0 2 1 1 0 0 1 0-2M381 120a1 1 0 1 1 0 2 1 1 0 0 1 0-2M395 120a1 1 0 1 1 0 2 1 1 0 0 1 0-2M409 120a1 1 0 1 1 0 2 1 1 0 0 1 0-2M423 120a1 1 0 1 1 0 2 1 1 0 0 1 0-2M437 120a1 1 0 1 1 0 2 1 1 0 0 1 0-2M451 120a1 1 0 1 1 0 2 1 1 0 0 1 0-2M465 120a1 1 0 1 1 0 2 1 1 0 0 1 0-2M479 120a1 1 0 1 1 0 2 1 1 0 0 1 0-2M493 120a1 1 0 1 1 0 2 1 1 0 0 1 0-2M507 120a1 1 0 1 1 0 2 1 1 0 0 1 0-2M521 120a1 1 0 1 1 0 2 1 1 0 0 1 0-2M535 120a1 1 0 1 1 0 2 1 1 0 0 1 0-2M549 120a1 1 0 1 1 0 2 1 1 0 0 1 0-2M563 120a1 1 0 1 1 0 2 1 1 0 0 1 0-2M577 120a1 1 0 1 1 0 2 1 1 0 0 1 0-2M591 120a1 1 0 1 1 0 2 1 1 0 0 1 0-2M605 120a1 1 0 1 1 0 2 1 1 0 0 1 0-2M619 120a1 1 0 1 1 0 2 1 1 0 0 1 0-2M633 120a1 1 0 1 1 0 2 1 1 0 0 1 0-2M647 120a1 1 0 1 1 0 2 1 1 0 0 1 0-2M661 120a1 1 0 1 1 0 2 1 1 0 0 1 0-2M675 120a1 1 0 1 1 0 2 1 1 0 0 1 0-2M689 120a1 1 0 1 1 0 2 1 1 0 0 1 0-2M703 120a1 1 0 1 1 0 2 1 1 0 0 1 0-2M717 120a1 1 0 1 1 0 2 1 1 0 0 1 0-2M-11 106a1 1 0 1 1 0 2 1 1 0 0 1 0-2M3 106a1 1 0 1 1 0 2 1 1 0 0 1 0-2M17 106a1 1 0 1 1 0 2 1 1 0 0 1 0-2M31 106a1 1 0 1 1 0 2 1 1 0 0 1 0-2M45 106a1 1 0 1 1 0 2 1 1 0 0 1 0-2M59 106a1 1 0 1 1 0 2 1 1 0 0 1 0-2M73 106a1 1 0 1 1 0 2 1 1 0 0 1 0-2M87 106a1 1 0 1 1 0 2 1 1 0 0 1 0-2M101 106a1 1 0 1 1 0 2 1 1 0 0 1 0-2M115 106a1 1 0 1 1 0 2 1 1 0 0 1 0-2M129 106a1 1 0 1 1 0 2 1 1 0 0 1 0-2M143 106a1 1 0 1 1 0 2 1 1 0 0 1 0-2M157 106a1 1 0 1 1 0 2 1 1 0 0 1 0-2M171 106a1 1 0 1 1 0 2 1 1 0 0 1 0-2M185 106a1 1 0 1 1 0 2 1 1 0 0 1 0-2M199 106a1 1 0 1 1 0 2 1 1 0 0 1 0-2M213 106a1 1 0 1 1 0 2 1 1 0 0 1 0-2M227 106a1 1 0 1 1 0 2 1 1 0 0 1 0-2M241 106a1 1 0 1 1 0 2 1 1 0 0 1 0-2M255 106a1 1 0 1 1 0 2 1 1 0 0 1 0-2M269 106a1 1 0 1 1 0 2 1 1 0 0 1 0-2M283 106a1 1 0 1 1 0 2 1 1 0 0 1 0-2M297 106a1 1 0 1 1 0 2 1 1 0 0 1 0-2M311 106a1 1 0 1 1 0 2 1 1 0 0 1 0-2M325 106a1 1 0 1 1 0 2 1 1 0 0 1 0-2M339 106a1 1 0 1 1 0 2 1 1 0 0 1 0-2M353 106a1 1 0 1 1 0 2 1 1 0 0 1 0-2M367 106a1 1 0 1 1 0 2 1 1 0 0 1 0-2M381 106a1 1 0 1 1 0 2 1 1 0 0 1 0-2M395 106a1 1 0 1 1 0 2 1 1 0 0 1 0-2M409 106a1 1 0 1 1 0 2 1 1 0 0 1 0-2M423 106a1 1 0 1 1 0 2 1 1 0 0 1 0-2M437 106a1 1 0 1 1 0 2 1 1 0 0 1 0-2M451 106a1 1 0 1 1 0 2 1 1 0 0 1 0-2M465 106a1 1 0 1 1 0 2 1 1 0 0 1 0-2M479 106a1 1 0 1 1 0 2 1 1 0 0 1 0-2M493 106a1 1 0 1 1 0 2 1 1 0 0 1 0-2M507 106a1 1 0 1 1 0 2 1 1 0 0 1 0-2M521 106a1 1 0 1 1 0 2 1 1 0 0 1 0-2M535 106a1 1 0 1 1 0 2 1 1 0 0 1 0-2M549 106a1 1 0 1 1 0 2 1 1 0 0 1 0-2M563 106a1 1 0 1 1 0 2 1 1 0 0 1 0-2M577 106a1 1 0 1 1 0 2 1 1 0 0 1 0-2M591 106a1 1 0 1 1 0 2 1 1 0 0 1 0-2M605 106a1 1 0 1 1 0 2 1 1 0 0 1 0-2M619 106a1 1 0 1 1 0 2 1 1 0 0 1 0-2M633 106a1 1 0 1 1 0 2 1 1 0 0 1 0-2M647 106a1 1 0 1 1 0 2 1 1 0 0 1 0-2M661 106a1 1 0 1 1 0 2 1 1 0 0 1 0-2M675 106a1 1 0 1 1 0 2 1 1 0 0 1 0-2M689 106a1 1 0 1 1 0 2 1 1 0 0 1 0-2M703 106a1 1 0 1 1 0 2 1 1 0 0 1 0-2M717 106a1 1 0 1 1 0 2 1 1 0 0 1 0-2M-11 92a1 1 0 1 1 0 2 1 1 0 0 1 0-2M3 92a1 1 0 1 1 0 2 1 1 0 0 1 0-2M17 92a1 1 0 1 1 0 2 1 1 0 0 1 0-2M31 92a1 1 0 1 1 0 2 1 1 0 0 1 0-2M45 92a1 1 0 1 1 0 2 1 1 0 0 1 0-2M59 92a1 1 0 1 1 0 2 1 1 0 0 1 0-2M73 92a1 1 0 1 1 0 2 1 1 0 0 1 0-2M87 92a1 1 0 1 1 0 2 1 1 0 0 1 0-2M101 92a1 1 0 1 1 0 2 1 1 0 0 1 0-2M115 92a1 1 0 1 1 0 2 1 1 0 0 1 0-2M129 92a1 1 0 1 1 0 2 1 1 0 0 1 0-2M143 92a1 1 0 1 1 0 2 1 1 0 0 1 0-2M157 92a1 1 0 1 1 0 2 1 1 0 0 1 0-2M171 92a1 1 0 1 1 0 2 1 1 0 0 1 0-2M185 92a1 1 0 1 1 0 2 1 1 0 0 1 0-2M199 92a1 1 0 1 1 0 2 1 1 0 0 1 0-2M213 92a1 1 0 1 1 0 2 1 1 0 0 1 0-2M227 92a1 1 0 1 1 0 2 1 1 0 0 1 0-2M241 92a1 1 0 1 1 0 2 1 1 0 0 1 0-2M255 92a1 1 0 1 1 0 2 1 1 0 0 1 0-2M269 92a1 1 0 1 1 0 2 1 1 0 0 1 0-2M283 92a1 1 0 1 1 0 2 1 1 0 0 1 0-2M297 92a1 1 0 1 1 0 2 1 1 0 0 1 0-2M311 92a1 1 0 1 1 0 2 1 1 0 0 1 0-2M325 92a1 1 0 1 1 0 2 1 1 0 0 1 0-2M339 92a1 1 0 1 1 0 2 1 1 0 0 1 0-2M353 92a1 1 0 1 1 0 2 1 1 0 0 1 0-2M367 92a1 1 0 1 1 0 2 1 1 0 0 1 0-2M381 92a1 1 0 1 1 0 2 1 1 0 0 1 0-2M395 92a1 1 0 1 1 0 2 1 1 0 0 1 0-2M409 92a1 1 0 1 1 0 2 1 1 0 0 1 0-2M423 92a1 1 0 1 1 0 2 1 1 0 0 1 0-2M437 92a1 1 0 1 1 0 2 1 1 0 0 1 0-2M451 92a1 1 0 1 1 0 2 1 1 0 0 1 0-2M465 92a1 1 0 1 1 0 2 1 1 0 0 1 0-2M479 92a1 1 0 1 1 0 2 1 1 0 0 1 0-2M493 92a1 1 0 1 1 0 2 1 1 0 0 1 0-2M507 92a1 1 0 1 1 0 2 1 1 0 0 1 0-2M521 92a1 1 0 1 1 0 2 1 1 0 0 1 0-2M535 92a1 1 0 1 1 0 2 1 1 0 0 1 0-2M549 92a1 1 0 1 1 0 2 1 1 0 0 1 0-2M563 92a1 1 0 1 1 0 2 1 1 0 0 1 0-2M577 92a1 1 0 1 1 0 2 1 1 0 0 1 0-2M591 92a1 1 0 1 1 0 2 1 1 0 0 1 0-2M605 92a1 1 0 1 1 0 2 1 1 0 0 1 0-2M619 92a1 1 0 1 1 0 2 1 1 0 0 1 0-2M633 92a1 1 0 1 1 0 2 1 1 0 0 1 0-2M647 92a1 1 0 1 1 0 2 1 1 0 0 1 0-2M661 92a1 1 0 1 1 0 2 1 1 0 0 1 0-2M675 92a1 1 0 1 1 0 2 1 1 0 0 1 0-2M689 92a1 1 0 1 1 0 2 1 1 0 0 1 0-2M703 92a1 1 0 1 1 0 2 1 1 0 0 1 0-2M717 92a1 1 0 1 1 0 2 1 1 0 0 1 0-2M-11 78a1 1 0 1 1 0 2 1 1 0 0 1 0-2M3 78a1 1 0 1 1 0 2 1 1 0 0 1 0-2M17 78a1 1 0 1 1 0 2 1 1 0 0 1 0-2M31 78a1 1 0 1 1 0 2 1 1 0 0 1 0-2M45 78a1 1 0 1 1 0 2 1 1 0 0 1 0-2M59 78a1 1 0 1 1 0 2 1 1 0 0 1 0-2M73 78a1 1 0 1 1 0 2 1 1 0 0 1 0-2M87 78a1 1 0 1 1 0 2 1 1 0 0 1 0-2M101 78a1 1 0 1 1 0 2 1 1 0 0 1 0-2M115 78a1 1 0 1 1 0 2 1 1 0 0 1 0-2M129 78a1 1 0 1 1 0 2 1 1 0 0 1 0-2M143 78a1 1 0 1 1 0 2 1 1 0 0 1 0-2M157 78a1 1 0 1 1 0 2 1 1 0 0 1 0-2M171 78a1 1 0 1 1 0 2 1 1 0 0 1 0-2M185 78a1 1 0 1 1 0 2 1 1 0 0 1 0-2M199 78a1 1 0 1 1 0 2 1 1 0 0 1 0-2M213 78a1 1 0 1 1 0 2 1 1 0 0 1 0-2M227 78a1 1 0 1 1 0 2 1 1 0 0 1 0-2M241 78a1 1 0 1 1 0 2 1 1 0 0 1 0-2M255 78a1 1 0 1 1 0 2 1 1 0 0 1 0-2M269 78a1 1 0 1 1 0 2 1 1 0 0 1 0-2M283 78a1 1 0 1 1 0 2 1 1 0 0 1 0-2M297 78a1 1 0 1 1 0 2 1 1 0 0 1 0-2M311 78a1 1 0 1 1 0 2 1 1 0 0 1 0-2M325 78a1 1 0 1 1 0 2 1 1 0 0 1 0-2M339 78a1 1 0 1 1 0 2 1 1 0 0 1 0-2M353 78a1 1 0 1 1 0 2 1 1 0 0 1 0-2M367 78a1 1 0 1 1 0 2 1 1 0 0 1 0-2M381 78a1 1 0 1 1 0 2 1 1 0 0 1 0-2M395 78a1 1 0 1 1 0 2 1 1 0 0 1 0-2M409 78a1 1 0 1 1 0 2 1 1 0 0 1 0-2M423 78a1 1 0 1 1 0 2 1 1 0 0 1 0-2M437 78a1 1 0 1 1 0 2 1 1 0 0 1 0-2M451 78a1 1 0 1 1 0 2 1 1 0 0 1 0-2M465 78a1 1 0 1 1 0 2 1 1 0 0 1 0-2M479 78a1 1 0 1 1 0 2 1 1 0 0 1 0-2M493 78a1 1 0 1 1 0 2 1 1 0 0 1 0-2M507 78a1 1 0 1 1 0 2 1 1 0 0 1 0-2M521 78a1 1 0 1 1 0 2 1 1 0 0 1 0-2M535 78a1 1 0 1 1 0 2 1 1 0 0 1 0-2M549 78a1 1 0 1 1 0 2 1 1 0 0 1 0-2M563 78a1 1 0 1 1 0 2 1 1 0 0 1 0-2M577 78a1 1 0 1 1 0 2 1 1 0 0 1 0-2M591 78a1 1 0 1 1 0 2 1 1 0 0 1 0-2M605 78a1 1 0 1 1 0 2 1 1 0 0 1 0-2M619 78a1 1 0 1 1 0 2 1 1 0 0 1 0-2M633 78a1 1 0 1 1 0 2 1 1 0 0 1 0-2M647 78a1 1 0 1 1 0 2 1 1 0 0 1 0-2M661 78a1 1 0 1 1 0 2 1 1 0 0 1 0-2M675 78a1 1 0 1 1 0 2 1 1 0 0 1 0-2M689 78a1 1 0 1 1 0 2 1 1 0 0 1 0-2M703 78a1 1 0 1 1 0 2 1 1 0 0 1 0-2M717 78a1 1 0 1 1 0 2 1 1 0 0 1 0-2M-11 64a1 1 0 1 1 0 2 1 1 0 0 1 0-2M3 64a1 1 0 1 1 0 2 1 1 0 0 1 0-2M17 64a1 1 0 1 1 0 2 1 1 0 0 1 0-2M31 64a1 1 0 1 1 0 2 1 1 0 0 1 0-2M45 64a1 1 0 1 1 0 2 1 1 0 0 1 0-2M59 64a1 1 0 1 1 0 2 1 1 0 0 1 0-2M73 64a1 1 0 1 1 0 2 1 1 0 0 1 0-2M87 64a1 1 0 1 1 0 2 1 1 0 0 1 0-2M101 64a1 1 0 1 1 0 2 1 1 0 0 1 0-2M115 64a1 1 0 1 1 0 2 1 1 0 0 1 0-2M129 64a1 1 0 1 1 0 2 1 1 0 0 1 0-2M143 64a1 1 0 1 1 0 2 1 1 0 0 1 0-2M157 64a1 1 0 1 1 0 2 1 1 0 0 1 0-2M171 64a1 1 0 1 1 0 2 1 1 0 0 1 0-2M185 64a1 1 0 1 1 0 2 1 1 0 0 1 0-2M199 64a1 1 0 1 1 0 2 1 1 0 0 1 0-2M213 64a1 1 0 1 1 0 2 1 1 0 0 1 0-2M227 64a1 1 0 1 1 0 2 1 1 0 0 1 0-2M241 64a1 1 0 1 1 0 2 1 1 0 0 1 0-2M255 64a1 1 0 1 1 0 2 1 1 0 0 1 0-2M269 64a1 1 0 1 1 0 2 1 1 0 0 1 0-2M283 64a1 1 0 1 1 0 2 1 1 0 0 1 0-2M297 64a1 1 0 1 1 0 2 1 1 0 0 1 0-2M311 64a1 1 0 1 1 0 2 1 1 0 0 1 0-2M325 64a1 1 0 1 1 0 2 1 1 0 0 1 0-2M339 64a1 1 0 1 1 0 2 1 1 0 0 1 0-2M353 64a1 1 0 1 1 0 2 1 1 0 0 1 0-2M367 64a1 1 0 1 1 0 2 1 1 0 0 1 0-2M381 64a1 1 0 1 1 0 2 1 1 0 0 1 0-2M395 64a1 1 0 1 1 0 2 1 1 0 0 1 0-2M409 64a1 1 0 1 1 0 2 1 1 0 0 1 0-2M423 64a1 1 0 1 1 0 2 1 1 0 0 1 0-2M437 64a1 1 0 1 1 0 2 1 1 0 0 1 0-2M451 64a1 1 0 1 1 0 2 1 1 0 0 1 0-2M465 64a1 1 0 1 1 0 2 1 1 0 0 1 0-2M479 64a1 1 0 1 1 0 2 1 1 0 0 1 0-2M493 64a1 1 0 1 1 0 2 1 1 0 0 1 0-2M507 64a1 1 0 1 1 0 2 1 1 0 0 1 0-2M521 64a1 1 0 1 1 0 2 1 1 0 0 1 0-2M535 64a1 1 0 1 1 0 2 1 1 0 0 1 0-2M549 64a1 1 0 1 1 0 2 1 1 0 0 1 0-2M563 64a1 1 0 1 1 0 2 1 1 0 0 1 0-2M577 64a1 1 0 1 1 0 2 1 1 0 0 1 0-2M591 64a1 1 0 1 1 0 2 1 1 0 0 1 0-2M605 64a1 1 0 1 1 0 2 1 1 0 0 1 0-2M619 64a1 1 0 1 1 0 2 1 1 0 0 1 0-2M633 64a1 1 0 1 1 0 2 1 1 0 0 1 0-2M647 64a1 1 0 1 1 0 2 1 1 0 0 1 0-2M661 64a1 1 0 1 1 0 2 1 1 0 0 1 0-2M675 64a1 1 0 1 1 0 2 1 1 0 0 1 0-2M689 64a1 1 0 1 1 0 2 1 1 0 0 1 0-2M703 64a1 1 0 1 1 0 2 1 1 0 0 1 0-2M717 64a1 1 0 1 1 0 2 1 1 0 0 1 0-2M-11 50a1 1 0 1 1 0 2 1 1 0 0 1 0-2M3 50a1 1 0 1 1 0 2 1 1 0 0 1 0-2M17 50a1 1 0 1 1 0 2 1 1 0 0 1 0-2M31 50a1 1 0 1 1 0 2 1 1 0 0 1 0-2M45 50a1 1 0 1 1 0 2 1 1 0 0 1 0-2M59 50a1 1 0 1 1 0 2 1 1 0 0 1 0-2M73 50a1 1 0 1 1 0 2 1 1 0 0 1 0-2M87 50a1 1 0 1 1 0 2 1 1 0 0 1 0-2M101 50a1 1 0 1 1 0 2 1 1 0 0 1 0-2M115 50a1 1 0 1 1 0 2 1 1 0 0 1 0-2M129 50a1 1 0 1 1 0 2 1 1 0 0 1 0-2M143 50a1 1 0 1 1 0 2 1 1 0 0 1 0-2M157 50a1 1 0 1 1 0 2 1 1 0 0 1 0-2M171 50a1 1 0 1 1 0 2 1 1 0 0 1 0-2M185 50a1 1 0 1 1 0 2 1 1 0 0 1 0-2M199 50a1 1 0 1 1 0 2 1 1 0 0 1 0-2M213 50a1 1 0 1 1 0 2 1 1 0 0 1 0-2M227 50a1 1 0 1 1 0 2 1 1 0 0 1 0-2M241 50a1 1 0 1 1 0 2 1 1 0 0 1 0-2M255 50a1 1 0 1 1 0 2 1 1 0 0 1 0-2M269 50a1 1 0 1 1 0 2 1 1 0 0 1 0-2M283 50a1 1 0 1 1 0 2 1 1 0 0 1 0-2M297 50a1 1 0 1 1 0 2 1 1 0 0 1 0-2M311 50a1 1 0 1 1 0 2 1 1 0 0 1 0-2M325 50a1 1 0 1 1 0 2 1 1 0 0 1 0-2M339 50a1 1 0 1 1 0 2 1 1 0 0 1 0-2M353 50a1 1 0 1 1 0 2 1 1 0 0 1 0-2M367 50a1 1 0 1 1 0 2 1 1 0 0 1 0-2M381 50a1 1 0 1 1 0 2 1 1 0 0 1 0-2M395 50a1 1 0 1 1 0 2 1 1 0 0 1 0-2M409 50a1 1 0 1 1 0 2 1 1 0 0 1 0-2M423 50a1 1 0 1 1 0 2 1 1 0 0 1 0-2M437 50a1 1 0 1 1 0 2 1 1 0 0 1 0-2M451 50a1 1 0 1 1 0 2 1 1 0 0 1 0-2M465 50a1 1 0 1 1 0 2 1 1 0 0 1 0-2M479 50a1 1 0 1 1 0 2 1 1 0 0 1 0-2M493 50a1 1 0 1 1 0 2 1 1 0 0 1 0-2M507 50a1 1 0 1 1 0 2 1 1 0 0 1 0-2M521 50a1 1 0 1 1 0 2 1 1 0 0 1 0-2M535 50a1 1 0 1 1 0 2 1 1 0 0 1 0-2M549 50a1 1 0 1 1 0 2 1 1 0 0 1 0-2M563 50a1 1 0 1 1 0 2 1 1 0 0 1 0-2M577 50a1 1 0 1 1 0 2 1 1 0 0 1 0-2M591 50a1 1 0 1 1 0 2 1 1 0 0 1 0-2M605 50a1 1 0 1 1 0 2 1 1 0 0 1 0-2M619 50a1 1 0 1 1 0 2 1 1 0 0 1 0-2M633 50a1 1 0 1 1 0 2 1 1 0 0 1 0-2M647 50a1 1 0 1 1 0 2 1 1 0 0 1 0-2M661 50a1 1 0 1 1 0 2 1 1 0 0 1 0-2M675 50a1 1 0 1 1 0 2 1 1 0 0 1 0-2M689 50a1 1 0 1 1 0 2 1 1 0 0 1 0-2M703 50a1 1 0 1 1 0 2 1 1 0 0 1 0-2M717 50a1 1 0 1 1 0 2 1 1 0 0 1 0-2M-11 36a1 1 0 1 1 0 2 1 1 0 0 1 0-2M3 36a1 1 0 1 1 0 2 1 1 0 0 1 0-2M17 36a1 1 0 1 1 0 2 1 1 0 0 1 0-2M31 36a1 1 0 1 1 0 2 1 1 0 0 1 0-2M45 36a1 1 0 1 1 0 2 1 1 0 0 1 0-2M59 36a1 1 0 1 1 0 2 1 1 0 0 1 0-2M73 36a1 1 0 1 1 0 2 1 1 0 0 1 0-2M87 36a1 1 0 1 1 0 2 1 1 0 0 1 0-2M101 36a1 1 0 1 1 0 2 1 1 0 0 1 0-2M115 36a1 1 0 1 1 0 2 1 1 0 0 1 0-2M129 36a1 1 0 1 1 0 2 1 1 0 0 1 0-2M143 36a1 1 0 1 1 0 2 1 1 0 0 1 0-2M157 36a1 1 0 1 1 0 2 1 1 0 0 1 0-2M171 36a1 1 0 1 1 0 2 1 1 0 0 1 0-2M185 36a1 1 0 1 1 0 2 1 1 0 0 1 0-2M199 36a1 1 0 1 1 0 2 1 1 0 0 1 0-2M213 36a1 1 0 1 1 0 2 1 1 0 0 1 0-2M227 36a1 1 0 1 1 0 2 1 1 0 0 1 0-2M241 36a1 1 0 1 1 0 2 1 1 0 0 1 0-2M255 36a1 1 0 1 1 0 2 1 1 0 0 1 0-2M269 36a1 1 0 1 1 0 2 1 1 0 0 1 0-2M283 36a1 1 0 1 1 0 2 1 1 0 0 1 0-2M297 36a1 1 0 1 1 0 2 1 1 0 0 1 0-2M311 36a1 1 0 1 1 0 2 1 1 0 0 1 0-2M325 36a1 1 0 1 1 0 2 1 1 0 0 1 0-2M339 36a1 1 0 1 1 0 2 1 1 0 0 1 0-2M353 36a1 1 0 1 1 0 2 1 1 0 0 1 0-2M367 36a1 1 0 1 1 0 2 1 1 0 0 1 0-2M381 36a1 1 0 1 1 0 2 1 1 0 0 1 0-2M395 36a1 1 0 1 1 0 2 1 1 0 0 1 0-2M409 36a1 1 0 1 1 0 2 1 1 0 0 1 0-2M423 36a1 1 0 1 1 0 2 1 1 0 0 1 0-2M437 36a1 1 0 1 1 0 2 1 1 0 0 1 0-2M451 36a1 1 0 1 1 0 2 1 1 0 0 1 0-2M465 36a1 1 0 1 1 0 2 1 1 0 0 1 0-2M479 36a1 1 0 1 1 0 2 1 1 0 0 1 0-2M493 36a1 1 0 1 1 0 2 1 1 0 0 1 0-2M507 36a1 1 0 1 1 0 2 1 1 0 0 1 0-2M521 36a1 1 0 1 1 0 2 1 1 0 0 1 0-2M535 36a1 1 0 1 1 0 2 1 1 0 0 1 0-2M549 36a1 1 0 1 1 0 2 1 1 0 0 1 0-2M563 36a1 1 0 1 1 0 2 1 1 0 0 1 0-2M577 36a1 1 0 1 1 0 2 1 1 0 0 1 0-2M591 36a1 1 0 1 1 0 2 1 1 0 0 1 0-2M605 36a1 1 0 1 1 0 2 1 1 0 0 1 0-2M619 36a1 1 0 1 1 0 2 1 1 0 0 1 0-2M633 36a1 1 0 1 1 0 2 1 1 0 0 1 0-2M647 36a1 1 0 1 1 0 2 1 1 0 0 1 0-2M661 36a1 1 0 1 1 0 2 1 1 0 0 1 0-2M675 36a1 1 0 1 1 0 2 1 1 0 0 1 0-2M689 36a1 1 0 1 1 0 2 1 1 0 0 1 0-2M703 36a1 1 0 1 1 0 2 1 1 0 0 1 0-2M717 36a1 1 0 1 1 0 2 1 1 0 0 1 0-2M-11 22a1 1 0 1 1 0 2 1 1 0 0 1 0-2M3 22a1 1 0 1 1 0 2 1 1 0 0 1 0-2M17 22a1 1 0 1 1 0 2 1 1 0 0 1 0-2M31 22a1 1 0 1 1 0 2 1 1 0 0 1 0-2M45 22a1 1 0 1 1 0 2 1 1 0 0 1 0-2M59 22a1 1 0 1 1 0 2 1 1 0 0 1 0-2M73 22a1 1 0 1 1 0 2 1 1 0 0 1 0-2M87 22a1 1 0 1 1 0 2 1 1 0 0 1 0-2M101 22a1 1 0 1 1 0 2 1 1 0 0 1 0-2M115 22a1 1 0 1 1 0 2 1 1 0 0 1 0-2M129 22a1 1 0 1 1 0 2 1 1 0 0 1 0-2M143 22a1 1 0 1 1 0 2 1 1 0 0 1 0-2M157 22a1 1 0 1 1 0 2 1 1 0 0 1 0-2M171 22a1 1 0 1 1 0 2 1 1 0 0 1 0-2M185 22a1 1 0 1 1 0 2 1 1 0 0 1 0-2M199 22a1 1 0 1 1 0 2 1 1 0 0 1 0-2M213 22a1 1 0 1 1 0 2 1 1 0 0 1 0-2M227 22a1 1 0 1 1 0 2 1 1 0 0 1 0-2M241 22a1 1 0 1 1 0 2 1 1 0 0 1 0-2M255 22a1 1 0 1 1 0 2 1 1 0 0 1 0-2M269 22a1 1 0 1 1 0 2 1 1 0 0 1 0-2M283 22a1 1 0 1 1 0 2 1 1 0 0 1 0-2M297 22a1 1 0 1 1 0 2 1 1 0 0 1 0-2M311 22a1 1 0 1 1 0 2 1 1 0 0 1 0-2M325 22a1 1 0 1 1 0 2 1 1 0 0 1 0-2M339 22a1 1 0 1 1 0 2 1 1 0 0 1 0-2M353 22a1 1 0 1 1 0 2 1 1 0 0 1 0-2M367 22a1 1 0 1 1 0 2 1 1 0 0 1 0-2M381 22a1 1 0 1 1 0 2 1 1 0 0 1 0-2M395 22a1 1 0 1 1 0 2 1 1 0 0 1 0-2M409 22a1 1 0 1 1 0 2 1 1 0 0 1 0-2M423 22a1 1 0 1 1 0 2 1 1 0 0 1 0-2M437 22a1 1 0 1 1 0 2 1 1 0 0 1 0-2M451 22a1 1 0 1 1 0 2 1 1 0 0 1 0-2M465 22a1 1 0 1 1 0 2 1 1 0 0 1 0-2M479 22a1 1 0 1 1 0 2 1 1 0 0 1 0-2M493 22a1 1 0 1 1 0 2 1 1 0 0 1 0-2M507 22a1 1 0 1 1 0 2 1 1 0 0 1 0-2M521 22a1 1 0 1 1 0 2 1 1 0 0 1 0-2M535 22a1 1 0 1 1 0 2 1 1 0 0 1 0-2M549 22a1 1 0 1 1 0 2 1 1 0 0 1 0-2M563 22a1 1 0 1 1 0 2 1 1 0 0 1 0-2M577 22a1 1 0 1 1 0 2 1 1 0 0 1 0-2M591 22a1 1 0 1 1 0 2 1 1 0 0 1 0-2M605 22a1 1 0 1 1 0 2 1 1 0 0 1 0-2M619 22a1 1 0 1 1 0 2 1 1 0 0 1 0-2M633 22a1 1 0 1 1 0 2 1 1 0 0 1 0-2M647 22a1 1 0 1 1 0 2 1 1 0 0 1 0-2M661 22a1 1 0 1 1 0 2 1 1 0 0 1 0-2M675 22a1 1 0 1 1 0 2 1 1 0 0 1 0-2M689 22a1 1 0 1 1 0 2 1 1 0 0 1 0-2M703 22a1 1 0 1 1 0 2 1 1 0 0 1 0-2M717 22a1 1 0 1 1 0 2 1 1 0 0 1 0-2M-11 8a1 1 0 1 1 0 2 1 1 0 0 1 0-2M3 8a1 1 0 1 1 0 2 1 1 0 0 1 0-2M17 8a1 1 0 1 1 0 2 1 1 0 0 1 0-2M31 8a1 1 0 1 1 0 2 1 1 0 0 1 0-2M45 8a1 1 0 1 1 0 2 1 1 0 0 1 0-2M59 8a1 1 0 1 1 0 2 1 1 0 0 1 0-2M73 8a1 1 0 1 1 0 2 1 1 0 0 1 0-2M87 8a1 1 0 1 1 0 2 1 1 0 0 1 0-2M101 8a1 1 0 1 1 0 2 1 1 0 0 1 0-2M115 8a1 1 0 1 1 0 2 1 1 0 0 1 0-2M129 8a1 1 0 1 1 0 2 1 1 0 0 1 0-2M143 8a1 1 0 1 1 0 2 1 1 0 0 1 0-2M157 8a1 1 0 1 1 0 2 1 1 0 0 1 0-2M171 8a1 1 0 1 1 0 2 1 1 0 0 1 0-2M185 8a1 1 0 1 1 0 2 1 1 0 0 1 0-2M199 8a1 1 0 1 1 0 2 1 1 0 0 1 0-2M213 8a1 1 0 1 1 0 2 1 1 0 0 1 0-2M227 8a1 1 0 1 1 0 2 1 1 0 0 1 0-2M241 8a1 1 0 1 1 0 2 1 1 0 0 1 0-2M255 8a1 1 0 1 1 0 2 1 1 0 0 1 0-2M269 8a1 1 0 1 1 0 2 1 1 0 0 1 0-2M283 8a1 1 0 1 1 0 2 1 1 0 0 1 0-2M297 8a1 1 0 1 1 0 2 1 1 0 0 1 0-2M311 8a1 1 0 1 1 0 2 1 1 0 0 1 0-2M325 8a1 1 0 1 1 0 2 1 1 0 0 1 0-2M339 8a1 1 0 1 1 0 2 1 1 0 0 1 0-2M353 8a1 1 0 1 1 0 2 1 1 0 0 1 0-2M367 8a1 1 0 1 1 0 2 1 1 0 0 1 0-2M381 8a1 1 0 1 1 0 2 1 1 0 0 1 0-2M395 8a1 1 0 1 1 0 2 1 1 0 0 1 0-2M409 8a1 1 0 1 1 0 2 1 1 0 0 1 0-2M423 8a1 1 0 1 1 0 2 1 1 0 0 1 0-2M437 8a1 1 0 1 1 0 2 1 1 0 0 1 0-2M451 8a1 1 0 1 1 0 2 1 1 0 0 1 0-2M465 8a1 1 0 1 1 0 2 1 1 0 0 1 0-2M479 8a1 1 0 1 1 0 2 1 1 0 0 1 0-2M493 8a1 1 0 1 1 0 2 1 1 0 0 1 0-2M507 8a1 1 0 1 1 0 2 1 1 0 0 1 0-2M521 8a1 1 0 1 1 0 2 1 1 0 0 1 0-2M535 8a1 1 0 1 1 0 2 1 1 0 0 1 0-2M549 8a1 1 0 1 1 0 2 1 1 0 0 1 0-2M563 8a1 1 0 1 1 0 2 1 1 0 0 1 0-2M577 8a1 1 0 1 1 0 2 1 1 0 0 1 0-2M591 8a1 1 0 1 1 0 2 1 1 0 0 1 0-2M605 8a1 1 0 1 1 0 2 1 1 0 0 1 0-2M619 8a1 1 0 1 1 0 2 1 1 0 0 1 0-2M633 8a1 1 0 1 1 0 2 1 1 0 0 1 0-2M647 8a1 1 0 1 1 0 2 1 1 0 0 1 0-2M661 8a1 1 0 1 1 0 2 1 1 0 0 1 0-2M675 8a1 1 0 1 1 0 2 1 1 0 0 1 0-2M689 8a1 1 0 1 1 0 2 1 1 0 0 1 0-2M703 8a1 1 0 1 1 0 2 1 1 0 0 1 0-2M717 8a1 1 0 1 1 0 2 1 1 0 0 1 0-2M-11-6a1 1 0 1 1 0 2 1 1 0 0 1 0-2M3-6a1 1 0 1 1 0 2 1 1 0 0 1 0-2M17-6a1 1 0 1 1 0 2 1 1 0 0 1 0-2M31-6a1 1 0 1 1 0 2 1 1 0 0 1 0-2M45-6a1 1 0 1 1 0 2 1 1 0 0 1 0-2M59-6a1 1 0 1 1 0 2 1 1 0 0 1 0-2M73-6a1 1 0 1 1 0 2 1 1 0 0 1 0-2M87-6a1 1 0 1 1 0 2 1 1 0 0 1 0-2M101-6a1 1 0 1 1 0 2 1 1 0 0 1 0-2M115-6a1 1 0 1 1 0 2 1 1 0 0 1 0-2M129-6a1 1 0 1 1 0 2 1 1 0 0 1 0-2M143-6a1 1 0 1 1 0 2 1 1 0 0 1 0-2M157-6a1 1 0 1 1 0 2 1 1 0 0 1 0-2M171-6a1 1 0 1 1 0 2 1 1 0 0 1 0-2M185-6a1 1 0 1 1 0 2 1 1 0 0 1 0-2M199-6a1 1 0 1 1 0 2 1 1 0 0 1 0-2M213-6a1 1 0 1 1 0 2 1 1 0 0 1 0-2M227-6a1 1 0 1 1 0 2 1 1 0 0 1 0-2M241-6a1 1 0 1 1 0 2 1 1 0 0 1 0-2M255-6a1 1 0 1 1 0 2 1 1 0 0 1 0-2M269-6a1 1 0 1 1 0 2 1 1 0 0 1 0-2M283-6a1 1 0 1 1 0 2 1 1 0 0 1 0-2M297-6a1 1 0 1 1 0 2 1 1 0 0 1 0-2M311-6a1 1 0 1 1 0 2 1 1 0 0 1 0-2M325-6a1 1 0 1 1 0 2 1 1 0 0 1 0-2M339-6a1 1 0 1 1 0 2 1 1 0 0 1 0-2M353-6a1 1 0 1 1 0 2 1 1 0 0 1 0-2M367-6a1 1 0 1 1 0 2 1 1 0 0 1 0-2M381-6a1 1 0 1 1 0 2 1 1 0 0 1 0-2M395-6a1 1 0 1 1 0 2 1 1 0 0 1 0-2M409-6a1 1 0 1 1 0 2 1 1 0 0 1 0-2M423-6a1 1 0 1 1 0 2 1 1 0 0 1 0-2M437-6a1 1 0 1 1 0 2 1 1 0 0 1 0-2M451-6a1 1 0 1 1 0 2 1 1 0 0 1 0-2M465-6a1 1 0 1 1 0 2 1 1 0 0 1 0-2M479-6a1 1 0 1 1 0 2 1 1 0 0 1 0-2M493-6a1 1 0 1 1 0 2 1 1 0 0 1 0-2M507-6a1 1 0 1 1 0 2 1 1 0 0 1 0-2M521-6a1 1 0 1 1 0 2 1 1 0 0 1 0-2M535-6a1 1 0 1 1 0 2 1 1 0 0 1 0-2M549-6a1 1 0 1 1 0 2 1 1 0 0 1 0-2M563-6a1 1 0 1 1 0 2 1 1 0 0 1 0-2M577-6a1 1 0 1 1 0 2 1 1 0 0 1 0-2M591-6a1 1 0 1 1 0 2 1 1 0 0 1 0-2M605-6a1 1 0 1 1 0 2 1 1 0 0 1 0-2M619-6a1 1 0 1 1 0 2 1 1 0 0 1 0-2M633-6a1 1 0 1 1 0 2 1 1 0 0 1 0-2M647-6a1 1 0 1 1 0 2 1 1 0 0 1 0-2M661-6a1 1 0 1 1 0 2 1 1 0 0 1 0-2M675-6a1 1 0 1 1 0 2 1 1 0 0 1 0-2M689-6a1 1 0 1 1 0 2 1 1 0 0 1 0-2M703-6a1 1 0 1 1 0 2 1 1 0 0 1 0-2M717-6a1 1 0 1 1 0 2 1 1 0 0 1 0-2"/></g><path stroke="#3d50f5" stroke-width="1.5" d="M140.333 73H100"/><rect width="8" height="8" x="139.333" y="69" fill="#3d50f5" rx="1"/><path stroke="#3d50f5" stroke-width="1.5" d="M186.666 73h-40.333M227 73h-40.333"/><rect width="8" height="8" x="226" y="69" fill="#3d50f5" rx="1"/><path stroke="#3d50f5" stroke-width="1.5" d="M273.333 73H233M313.666 73h-40.333"/><rect width="8" height="8" x="312.666" y="69" fill="#3d50f5" rx="1"/><path stroke="#3d50f5" stroke-width="1.5" d="M359.999 73h-40.333"/><path stroke="#555962" stroke-width="1.5" d="M446.666 73h-40.333"/><rect width="8" height="8" x="399.333" y="69" fill="#3d50f5" rx="1"/><path stroke="#3d50f5" stroke-width="1.5" d="M400.333 73H360"/><path stroke="#555962" stroke-width="1.5" d="M487 73h-40.333"/><rect width="8" height="8" x="486" y="69" fill="#555962" rx="1"/><path stroke="#555962" stroke-width="1.5" d="M533.333 73H493M573.666 73h-40.333"/><rect width="8" height="8" x="572.666" y="69" fill="#555962" rx="1"/><path stroke="#555962" stroke-width="1.5" d="M619.999 73h-40.333"/><path stroke="#555962" d="M100 89V57M620 89V57"/><rect width="96" height="26" x="356" y="6.5" fill="#fff" rx="5.5"/><rect width="96" height="26" x="356" y="6.5" stroke="#3d50f5" rx="5.5"/><path fill="#0f1c8a" d="M375.533 15.273V24h-1.407l-4.112-5.945h-.072V24h-1.581v-8.727h1.415l4.108 5.949h.076v-5.95zm4.509 8.855q-.959 0-1.662-.422a2.87 2.87 0 0 1-1.091-1.18q-.383-.759-.383-1.773t.383-1.777a2.87 2.87 0 0 1 1.091-1.185q.704-.422 1.662-.422.959 0 1.662.422.703.421 1.087 1.185.387.762.388 1.777 0 1.014-.388 1.773-.384.758-1.087 1.18-.704.422-1.662.422m.009-1.236q.52 0 .869-.285.35-.29.52-.776.174-.486.175-1.082 0-.601-.175-1.087a1.7 1.7 0 0 0-.52-.78q-.35-.29-.869-.29-.533 0-.887.29a1.75 1.75 0 0 0-.524.78q-.17.486-.17 1.087 0 .596.17 1.082.175.486.524.776.354.285.887.285m5.6 1.108-1.849-6.546h1.572l1.151 4.603h.06l1.176-4.602h1.555l1.176 4.576h.064l1.134-4.576h1.576L391.413 24h-1.607l-1.227-4.423h-.09L387.262 24zm15.636-4.999v1.27h-3.929v-1.27zm7.808 5.165q-1.053 0-1.807-.532-.75-.537-1.154-1.547-.401-1.015-.401-2.442.005-1.427.405-2.43.405-1.004 1.155-1.533.753-.53 1.802-.529 1.048 0 1.803.529.754.528 1.155 1.534.404 1.005.404 2.429 0 1.431-.404 2.446-.4 1.01-1.155 1.543-.75.532-1.803.532m0-1.334q.819 0 1.291-.805.478-.81.478-2.382 0-1.04-.218-1.747-.217-.708-.613-1.066a1.35 1.35 0 0 0-.938-.362q-.813 0-1.287.81-.472.805-.477 2.365-.004 1.044.209 1.756.217.711.613 1.073.397.359.942.358m8.004 1.334q-1.053 0-1.807-.532-.75-.537-1.155-1.547-.4-1.015-.4-2.442.004-1.427.405-2.43.405-1.004 1.155-1.533.753-.53 1.802-.529 1.049 0 1.803.529.753.528 1.154 1.534.405 1.005.405 2.429 0 1.431-.405 2.446-.4 1.01-1.154 1.543-.75.532-1.803.532m0-1.334q.819 0 1.291-.805.477-.81.478-2.382 0-1.04-.218-1.747-.217-.708-.613-1.066a1.35 1.35 0 0 0-.938-.362q-.815 0-1.287.81-.472.805-.477 2.365-.004 1.044.209 1.756.217.711.613 1.073.397.359.942.358m5.745.12a.91.91 0 0 1-.664-.273.9.9 0 0 1-.273-.665.87.87 0 0 1 .273-.656.91.91 0 0 1 .664-.273q.376 0 .652.273a.895.895 0 0 1 .15 1.13 1 1 0 0 1-.341.34.9.9 0 0 1-.461.124m0-4.326a.91.91 0 0 1-.664-.272.9.9 0 0 1-.273-.665.87.87 0 0 1 .273-.656.9.9 0 0 1 .664-.277.9.9 0 0 1 .652.277q.282.272.286.656a.9.9 0 0 1-.136.469 1 1 0 0 1-.341.34.87.87 0 0 1-.461.128m5.646 5.493q-.92 0-1.637-.315a2.74 2.74 0 0 1-1.125-.878 2.3 2.3 0 0 1-.439-1.3h1.603q.021.354.234.618.213.261.567.405t.792.145q.47 0 .831-.162a1.36 1.36 0 0 0 .567-.46q.205-.294.2-.678a1.18 1.18 0 0 0-.204-.698 1.37 1.37 0 0 0-.605-.474q-.393-.17-.946-.17h-.772v-1.219h.772q.455 0 .797-.157.345-.158.541-.444.196-.29.192-.669a1.17 1.17 0 0 0-.167-.643 1.1 1.1 0 0 0-.473-.43 1.55 1.55 0 0 0-.711-.154q-.4 0-.742.145-.34.145-.549.413a1.04 1.04 0 0 0-.222.631h-1.521a2.2 2.2 0 0 1 .422-1.287 2.7 2.7 0 0 1 1.09-.87q.682-.315 1.53-.315.874 0 1.517.329.648.323 1.002.873t.353 1.215q.004.737-.434 1.235-.435.5-1.142.652v.069q.92.128 1.41.681.495.55.49 1.368 0 .733-.417 1.313-.414.575-1.142.903-.724.328-1.662.328m7.718 0q-.853 0-1.525-.32a2.7 2.7 0 0 1-1.07-.886 2.35 2.35 0 0 1-.418-1.287h1.534q.043.537.465.878.422.337 1.014.337a1.6 1.6 0 0 0 .827-.213q.362-.213.571-.593.209-.378.204-.864a1.74 1.74 0 0 0-.208-.878 1.56 1.56 0 0 0-.584-.601 1.63 1.63 0 0 0-.853-.222 2 2 0 0 0-.771.145q-.38.15-.601.392l-1.427-.234.456-4.5h5.062v1.32h-3.754l-.251 2.315h.051q.242-.285.686-.473.443-.192.971-.192.793 0 1.415.375.623.37.98 1.023.358.651.358 1.491 0 .865-.4 1.543a2.84 2.84 0 0 1-1.104 1.06q-.703.384-1.628.384M364.181 125h-1.688l3.073-8.727h1.951l3.077 8.727h-1.687l-2.331-6.938h-.069zm.055-3.422h4.602v1.27h-4.602zm12.466-3.123L374.371 125h-1.705l-2.331-6.545h1.645l1.504 4.862h.069l1.508-4.862zm3.742 6.673q-.984 0-1.7-.409a2.77 2.77 0 0 1-1.095-1.168q-.384-.759-.384-1.785 0-1.011.384-1.773a2.9 2.9 0 0 1 1.082-1.193q.695-.43 1.632-.431.605 0 1.142.196.541.192.955.597.417.405.656 1.031.239.622.239 1.483v.473h-5.365v-1.04h3.886a1.66 1.66 0 0 0-.192-.788 1.4 1.4 0 0 0-.524-.55q-.332-.2-.775-.2-.474 0-.831.23-.358.227-.559.597-.195.367-.2.805v.908q0 .57.209.98.209.405.584.622.374.213.878.213.336 0 .609-.094.272-.097.473-.285t.302-.465l1.441.162a2.24 2.24 0 0 1-.52.997q-.38.422-.972.657a3.7 3.7 0 0 1-1.355.23m4.216-.128v-6.545h1.496v1.09h.068a1.63 1.63 0 0 1 1.615-1.184q.127 0 .285.013.162.008.269.029v1.419a1.7 1.7 0 0 0-.311-.059q-.21-.03-.405-.03-.421 0-.759.183a1.35 1.35 0 0 0-.716 1.236V125zm6.524.132q-.622 0-1.121-.221a1.84 1.84 0 0 1-.784-.665q-.285-.44-.285-1.083 0-.553.204-.916a1.6 1.6 0 0 1 .558-.579q.354-.218.797-.329.448-.115.925-.166.576-.059.933-.106.358-.05.52-.154.166-.106.166-.328v-.025q0-.482-.285-.746-.286-.264-.823-.264-.566 0-.899.247a1.23 1.23 0 0 0-.443.584l-1.44-.205q.17-.597.562-.997.393-.405.959-.605a3.7 3.7 0 0 1 1.253-.205q.472 0 .942.111.469.11.856.367.388.25.622.686.239.434.239 1.086V125h-1.483v-.899h-.051a1.9 1.9 0 0 1-.396.511q-.252.234-.635.379-.38.141-.891.141m.401-1.133q.464 0 .805-.184.34-.187.524-.494.188-.308.188-.669v-.771a.8.8 0 0 1-.248.11 3 3 0 0 1-.383.09q-.213.038-.422.068l-.362.051q-.345.048-.618.154a1.03 1.03 0 0 0-.431.298.73.73 0 0 0-.157.486q0 .426.311.643.31.218.793.218m7.453 3.592q-.831 0-1.428-.226-.596-.222-.959-.597a2.1 2.1 0 0 1-.503-.83l1.39-.337q.093.192.272.379.18.192.482.315.307.129.771.128.657 0 1.087-.319.43-.316.43-1.04v-1.24h-.076a2.2 2.2 0 0 1-.35.49q-.225.252-.601.422-.37.17-.933.17-.755 0-1.368-.353-.61-.358-.971-1.066-.358-.711-.358-1.781 0-1.078.358-1.82.361-.745.975-1.129a2.5 2.5 0 0 1 1.368-.388q.576 0 .946.196.375.192.597.465.222.269.337.507h.085v-1.082h1.521v6.652q0 .839-.4 1.389-.402.549-1.096.822t-1.576.273m.012-3.895q.49 0 .836-.239.345-.238.524-.686.179-.447.179-1.074 0-.617-.179-1.082-.175-.465-.52-.72-.34-.26-.84-.26-.515 0-.86.268-.346.269-.52.738a3 3 0 0 0-.175 1.056q0 .601.175 1.053.179.447.524.699.35.247.856.247m7.539 1.432q-.984 0-1.701-.409a2.78 2.78 0 0 1-1.095-1.168q-.383-.759-.383-1.785 0-1.011.383-1.773.389-.767 1.083-1.193.695-.43 1.632-.431.605 0 1.142.196.541.192.954.597.418.405.657 1.031.238.622.238 1.483v.473h-5.365v-1.04h3.887a1.66 1.66 0 0 0-.192-.788 1.4 1.4 0 0 0-.524-.55 1.5 1.5 0 0 0-.776-.2q-.472 0-.831.23-.358.227-.558.597a1.7 1.7 0 0 0-.2.805v.908q0 .57.208.98.21.405.584.622.375.213.878.213.337 0 .609-.094.273-.097.473-.285.201-.187.303-.465l1.44.162a2.24 2.24 0 0 1-.52.997q-.378.422-.971.657-.593.23-1.355.23m12.365-4.943-1.406.153a1.12 1.12 0 0 0-.601-.703 1.4 1.4 0 0 0-.605-.115q-.481 0-.81.209-.324.208-.319.541a.56.56 0 0 0 .209.464q.216.18.715.294l1.117.239q.928.2 1.381.635.456.435.46 1.138a1.8 1.8 0 0 1-.362 1.091q-.354.468-.985.733-.63.264-1.449.264-1.202 0-1.934-.503-.733-.507-.874-1.411l1.504-.144q.103.443.435.669.333.225.865.225.55 0 .882-.225.337-.226.337-.559a.58.58 0 0 0-.217-.464q-.214-.183-.665-.281l-1.117-.235q-.942-.196-1.393-.66-.451-.47-.448-1.185a1.7 1.7 0 0 1 .328-1.048q.337-.448.934-.691.6-.247 1.385-.247 1.15 0 1.811.49.664.49.822 1.326m4.268 4.943q-.959 0-1.662-.422a2.87 2.87 0 0 1-1.091-1.18q-.383-.759-.383-1.773t.383-1.777a2.86 2.86 0 0 1 1.091-1.185q.704-.422 1.662-.422.959 0 1.662.422t1.087 1.185q.387.763.387 1.777t-.387 1.773a2.84 2.84 0 0 1-1.087 1.18q-.703.422-1.662.422m.008-1.236q.52 0 .87-.285.35-.29.52-.776.174-.486.174-1.082 0-.601-.174-1.087a1.7 1.7 0 0 0-.52-.78q-.35-.29-.87-.29-.532 0-.886.29a1.74 1.74 0 0 0-.524.78q-.17.486-.17 1.087 0 .596.17 1.082.174.485.524.776.354.285.886.285m10.73-5.437v1.193h-3.87v-1.193zM431.058 125v-7.163q0-.661.272-1.1a1.73 1.73 0 0 1 .742-.656 2.4 2.4 0 0 1 1.031-.217q.4 0 .712.064.31.063.46.115l-.307 1.193a3 3 0 0 0-.247-.06q-.15-.034-.333-.034-.43 0-.609.209-.175.204-.175.588V125zm5.77.132a2.7 2.7 0 0 1-1.12-.221 1.83 1.83 0 0 1-.784-.665q-.286-.44-.286-1.083 0-.553.205-.916.204-.362.558-.579.353-.218.797-.329.447-.115.925-.166.575-.059.933-.106.358-.05.52-.154.166-.106.166-.328v-.025q0-.482-.286-.746-.285-.264-.822-.264-.567 0-.899.247a1.2 1.2 0 0 0-.443.584l-1.441-.205q.17-.597.563-.997.392-.405.959-.605a3.7 3.7 0 0 1 1.252-.205q.474 0 .942.111.469.11.857.367.387.25.622.686.238.434.238 1.086V125h-1.483v-.899h-.051a1.85 1.85 0 0 1-1.031.89q-.38.141-.891.141m.401-1.133q.465 0 .805-.184.341-.187.525-.494a1.26 1.26 0 0 0 .187-.669v-.771a.7.7 0 0 1-.247.11 3 3 0 0 1-.384.09q-.213.038-.421.068l-.363.051q-.345.048-.618.154-.272.106-.43.298a.73.73 0 0 0-.158.486q0 .426.311.643.312.218.793.218m4.607 1.001v-6.545h1.495v1.09h.069q.178-.566.613-.873a1.7 1.7 0 0 1 1.002-.311q.128 0 .285.013.162.008.269.029v1.419a1.7 1.7 0 0 0-.312-.059 3 3 0 0 0-.404-.03q-.422 0-.759.183a1.35 1.35 0 0 0-.716 1.236V125z"/><path fill="#555962" d="M582.22 109v-8.727h5.591v1.325h-4.01v2.369h3.627v1.326h-3.627V109zm6.963 0v-6.545h1.543V109zm.776-7.474a.9.9 0 0 1-.631-.243.79.79 0 0 1-.264-.593q0-.35.264-.592a.9.9 0 0 1 .631-.247.88.88 0 0 1 .63.247.77.77 0 0 1 .265.592q0 .345-.265.593a.9.9 0 0 1-.63.243m3.896 3.639V109h-1.543v-6.545h1.475v1.112h.076q.226-.55.72-.874.499-.324 1.232-.324.678 0 1.18.29.508.29.784.84.282.55.277 1.333V109h-1.542v-3.929q0-.656-.341-1.027-.337-.37-.933-.371-.405 0-.72.179a1.25 1.25 0 0 0-.491.507 1.7 1.7 0 0 0-.174.806m7.653 3.967q-.622 0-1.121-.221a1.84 1.84 0 0 1-.784-.665q-.285-.44-.285-1.083 0-.553.204-.916.205-.362.559-.579.353-.218.796-.329.448-.115.925-.166.576-.059.933-.106.358-.05.52-.154.167-.106.167-.328v-.025q0-.482-.286-.746-.285-.264-.822-.264-.567 0-.9.247a1.23 1.23 0 0 0-.443.584l-1.44-.205q.17-.597.562-.997.393-.405.959-.605a3.7 3.7 0 0 1 1.253-.205q.473 0 .942.111.468.11.856.367.388.25.622.686.24.434.239 1.086V109h-1.483v-.899h-.051a1.9 1.9 0 0 1-.396.511q-.252.234-.635.379-.38.141-.891.141m.401-1.133q.464 0 .805-.184.34-.187.524-.494.188-.308.188-.669v-.771a.8.8 0 0 1-.247.11 3 3 0 0 1-.384.09q-.213.038-.422.068l-.362.051q-.345.048-.618.154a1 1 0 0 0-.43.298.73.73 0 0 0-.158.486q0 .426.311.643.312.218.793.218m6.149-7.726V109h-1.543v-8.727zM613.81 109h-1.688l3.073-8.727h1.951l3.077 8.727h-1.687l-2.331-6.938h-.069zm.055-3.422h4.602v1.27h-4.602zm12.466-3.123L624 109h-1.705l-2.331-6.545h1.645l1.504 4.862h.068l1.509-4.862zm3.742 6.673q-.984 0-1.7-.409a2.77 2.77 0 0 1-1.095-1.168q-.384-.759-.384-1.785 0-1.011.384-1.773a2.9 2.9 0 0 1 1.082-1.193q.694-.43 1.632-.431.606 0 1.142.196.541.192.955.597.417.405.656 1.031.239.622.239 1.483v.473h-5.365v-1.04h3.886a1.66 1.66 0 0 0-.192-.788 1.4 1.4 0 0 0-.524-.55 1.5 1.5 0 0 0-.776-.2q-.473 0-.83.23-.358.227-.559.597-.195.367-.2.805v.908q0 .57.209.98.209.405.584.622.375.213.877.213.337 0 .61-.094.273-.097.473-.285t.302-.465l1.441.162a2.24 2.24 0 0 1-.52.997q-.38.422-.972.657a3.7 3.7 0 0 1-1.355.23m4.216-.128v-6.545h1.495v1.09h.069q.178-.566.613-.873a1.7 1.7 0 0 1 1.002-.311q.128 0 .285.013.162.008.269.029v1.419a1.7 1.7 0 0 0-.311-.059q-.21-.03-.405-.03-.421 0-.759.183a1.35 1.35 0 0 0-.716 1.236V109zm6.524.132q-.622 0-1.121-.221a1.84 1.84 0 0 1-.784-.665q-.285-.44-.285-1.083 0-.553.204-.916.205-.362.558-.579.354-.218.797-.329.447-.115.925-.166.574-.059.933-.106.358-.05.52-.154.166-.106.166-.328v-.025q0-.482-.285-.746-.286-.264-.823-.264-.567 0-.899.247a1.23 1.23 0 0 0-.443.584l-1.44-.205q.17-.597.562-.997.392-.405.959-.605a3.7 3.7 0 0 1 1.253-.205q.473 0 .941.111.47.11.857.367.388.25.622.686.239.434.239 1.086V109h-1.483v-.899h-.051a1.88 1.88 0 0 1-1.032.89 2.6 2.6 0 0 1-.89.141m.4-1.133q.465 0 .806-.184.34-.187.524-.494a1.26 1.26 0 0 0 .187-.669v-.771a.7.7 0 0 1-.247.11 3 3 0 0 1-.383.09q-.213.038-.422.068l-.362.051q-.345.048-.618.154a1.03 1.03 0 0 0-.431.298.73.73 0 0 0-.157.486q0 .426.311.643.31.218.792.218m7.454 3.592q-.831 0-1.428-.226-.596-.222-.959-.597a2.1 2.1 0 0 1-.503-.83l1.39-.337q.093.192.272.379.18.192.482.315.306.129.771.128.657 0 1.087-.319.43-.316.43-1.04v-1.24h-.077a2.2 2.2 0 0 1-.349.49 1.8 1.8 0 0 1-.601.422q-.37.17-.933.17-.755 0-1.368-.353-.609-.358-.972-1.066-.357-.711-.358-1.781 0-1.078.358-1.82.363-.745.976-1.129a2.5 2.5 0 0 1 1.368-.388q.576 0 .946.196.375.192.597.465.222.269.336.507h.086v-1.082h1.521v6.652q0 .839-.401 1.389-.4.549-1.095.822-.694.273-1.576.273m.012-3.895q.49 0 .836-.239.345-.238.524-.686.179-.447.179-1.074 0-.617-.179-1.082-.175-.465-.52-.72-.34-.26-.84-.26-.515 0-.86.268a1.6 1.6 0 0 0-.52.738 3 3 0 0 0-.175 1.056q0 .601.175 1.053.179.447.524.699.35.247.856.247m7.539 1.432q-.985 0-1.701-.409a2.78 2.78 0 0 1-1.095-1.168q-.383-.759-.383-1.785 0-1.011.383-1.773.389-.767 1.083-1.193.694-.43 1.632-.431.605 0 1.142.196.542.192.954.597.418.405.657 1.031.238.622.238 1.483v.473h-5.365v-1.04h3.887a1.66 1.66 0 0 0-.192-.788 1.4 1.4 0 0 0-.524-.55 1.5 1.5 0 0 0-.776-.2q-.472 0-.831.23-.359.227-.558.597a1.7 1.7 0 0 0-.2.805v.908q0 .57.208.98.21.405.584.622.375.213.878.213.337 0 .609-.094.273-.097.473-.285.201-.187.303-.465l1.44.162a2.24 2.24 0 0 1-.52.997q-.378.422-.971.657-.593.23-1.355.23"/><path stroke="#3d50f5" stroke-dasharray="6 6" d="M403.5 105V41"/><rect width="59" height="26" x="70.5" y="22.5" fill="#fff" rx="5.5"/><rect width="59" height="26" x="70.5" y="22.5" stroke="#555962" rx="5.5"/><path fill="#23262f" d="M86.001 40.166q-1.052 0-1.806-.532-.75-.537-1.155-1.547-.4-1.015-.4-2.442.003-1.428.404-2.43.405-1.004 1.155-1.533.755-.529 1.802-.529 1.05 0 1.803.529.755.528 1.155 1.534.405 1.005.405 2.429 0 1.432-.405 2.446-.4 1.01-1.155 1.542-.75.534-1.803.533m0-1.334q.819 0 1.292-.805.477-.81.477-2.382 0-1.04-.217-1.747-.218-.708-.614-1.066A1.34 1.34 0 0 0 86 32.47q-.813 0-1.287.81-.472.805-.477 2.365-.004 1.044.209 1.756.218.711.614 1.073.396.359.941.358m8.004 1.334q-1.052 0-1.806-.532-.75-.537-1.155-1.547-.4-1.015-.4-2.442.003-1.428.404-2.43.405-1.004 1.155-1.533.754-.529 1.802-.529 1.05 0 1.803.529.755.528 1.155 1.534.405 1.005.405 2.429 0 1.432-.405 2.446-.4 1.01-1.155 1.542-.75.534-1.803.533m0-1.334q.819 0 1.291-.805.478-.81.478-2.382 0-1.04-.218-1.747-.217-.708-.613-1.066a1.34 1.34 0 0 0-.938-.362q-.813 0-1.287.81-.472.805-.477 2.365-.004 1.044.209 1.756.218.711.614 1.073.396.359.941.358m5.746.12a.91.91 0 0 1-.665-.273.9.9 0 0 1-.273-.665.87.87 0 0 1 .273-.656.91.91 0 0 1 .665-.273.9.9 0 0 1 .652.273.9.9 0 0 1 .149 1.13 1 1 0 0 1-.341.34.9.9 0 0 1-.46.124m0-4.326a.91.91 0 0 1-.665-.272.9.9 0 0 1-.273-.665.87.87 0 0 1 .273-.656.9.9 0 0 1 .665-.277q.375 0 .652.277.28.272.285.656a.978.978 0 0 1-.477.81.86.86 0 0 1-.46.127m5.739 5.54q-1.053 0-1.807-.532-.75-.537-1.155-1.547-.4-1.015-.401-2.442.005-1.428.405-2.43.405-1.004 1.155-1.533.754-.529 1.803-.529t1.802.529q.755.528 1.155 1.534.405 1.005.405 2.429 0 1.432-.405 2.446-.4 1.01-1.155 1.542-.75.534-1.802.533m0-1.334q.818 0 1.291-.805.477-.81.477-2.382 0-1.04-.217-1.747-.218-.708-.614-1.066a1.34 1.34 0 0 0-.937-.362q-.815 0-1.287.81-.474.805-.478 2.365-.004 1.044.209 1.756.218.711.614 1.073.396.359.942.358m8.004 1.334q-1.053 0-1.807-.532-.75-.537-1.155-1.547-.4-1.015-.401-2.442.005-1.428.405-2.43.405-1.004 1.155-1.533.754-.529 1.803-.529 1.047 0 1.802.529.755.528 1.155 1.534.405 1.005.405 2.429 0 1.432-.405 2.446-.4 1.01-1.155 1.542-.75.534-1.802.533m0-1.334q.817 0 1.291-.805.477-.81.477-2.382 0-1.04-.217-1.747-.218-.708-.614-1.066a1.34 1.34 0 0 0-.937-.362q-.815 0-1.287.81-.474.805-.478 2.365-.003 1.044.209 1.756.218.711.614 1.073.396.359.942.358"/><rect width="57" height="26" x="591.5" y="22.5" fill="#fff" rx="5.5"/><rect width="57" height="26" x="591.5" y="22.5" stroke="#555962" rx="5.5"/><path fill="#23262f" d="M607.001 40.166q-1.052 0-1.806-.532-.75-.537-1.155-1.547-.4-1.015-.401-2.442.005-1.428.405-2.43.405-1.004 1.155-1.533.755-.529 1.802-.529t1.803.529 1.155 1.534q.405 1.005.405 2.429 0 1.432-.405 2.446-.4 1.01-1.155 1.542-.75.534-1.803.533m0-1.334q.819 0 1.292-.805.477-.81.477-2.382 0-1.04-.217-1.747-.218-.708-.614-1.066a1.34 1.34 0 0 0-.938-.362q-.813 0-1.287.81-.472.805-.477 2.365-.004 1.044.209 1.756.217.711.614 1.073.396.359.941.358m8.328-7.56V40h-1.581v-7.189h-.051l-2.041 1.304v-1.449l2.169-1.393zm3.183 7.68a.91.91 0 0 1-.664-.273.9.9 0 0 1-.273-.665.87.87 0 0 1 .273-.656.91.91 0 0 1 .664-.273q.375 0 .652.273a.895.895 0 0 1 .15 1.13 1 1 0 0 1-.341.34.9.9 0 0 1-.461.124m0-4.326a.91.91 0 0 1-.664-.272.9.9 0 0 1-.273-.665.87.87 0 0 1 .273-.656.9.9 0 0 1 .664-.277.9.9 0 0 1 .652.277q.282.272.286.656a.9.9 0 0 1-.136.469 1 1 0 0 1-.341.34.87.87 0 0 1-.461.128m5.739 5.54q-1.052 0-1.806-.532-.75-.537-1.155-1.547-.4-1.015-.401-2.442.005-1.428.405-2.43.405-1.004 1.155-1.533.755-.529 1.802-.529t1.803.529 1.155 1.534q.405 1.005.405 2.429 0 1.432-.405 2.446-.4 1.01-1.155 1.542-.75.534-1.803.533m0-1.334q.819 0 1.292-.805.477-.81.477-2.382 0-1.04-.217-1.747-.218-.708-.614-1.066a1.34 1.34 0 0 0-.938-.362q-.813 0-1.287.81-.472.805-.477 2.365-.004 1.044.209 1.756.217.711.614 1.073.396.359.941.358m8.004 1.334q-1.052 0-1.806-.532-.75-.537-1.155-1.547-.4-1.015-.401-2.442.005-1.428.405-2.43.405-1.004 1.155-1.533.754-.529 1.802-.529t1.803.529 1.155 1.534q.405 1.005.405 2.429 0 1.432-.405 2.446-.4 1.01-1.155 1.542-.75.534-1.803.533m0-1.334q.818 0 1.292-.805.477-.81.477-2.382 0-1.04-.218-1.747-.216-.708-.613-1.066a1.34 1.34 0 0 0-.938-.362q-.813 0-1.287.81-.472.805-.477 2.365-.004 1.044.209 1.756.217.711.614 1.073.396.359.941.358"/><path fill="#0f1c8a" d="M177.048 43.727V51h-1.098v-7.273zm2.574 4.034V51h-1.062v-5.455h1.02v.888h.067a1.56 1.56 0 0 1 .59-.696q.404-.263 1.019-.263.557 0 .976.235.42.23.65.689t.231 1.133V51h-1.062v-3.342q0-.593-.309-.927-.31-.337-.848-.337-.37 0-.657.16-.285.16-.451.469-.164.305-.164.738m7.461-2.216v.853h-2.979v-.853zm-2.18-1.306h1.062v5.16q0 .307.092.465a.48.48 0 0 0 .238.21 1 1 0 0 0 .323.052q.128 0 .224-.017l.149-.029.192.877a2.076 2.076 0 0 1-.689.114q-.42.008-.782-.15a1.34 1.34 0 0 1-.585-.482q-.224-.327-.224-.82zm5.647 6.871q-.805 0-1.389-.344a2.34 2.34 0 0 1-.894-.977q-.313-.632-.313-1.48 0-.84.313-1.478.316-.64.88-.998.569-.359 1.328-.359.462 0 .895.153t.778.48.543.848q.2.519.199 1.26v.377h-4.336v-.795h3.296q0-.42-.171-.742a1.3 1.3 0 0 0-.479-.515 1.34 1.34 0 0 0-.717-.188q-.448 0-.782.22a1.5 1.5 0 0 0-.511.568 1.65 1.65 0 0 0-.178.756v.622q0 .547.192.93.195.384.543.586.349.2.814.199.301 0 .55-.085a1.2 1.2 0 0 0 .43-.263q.18-.174.277-.43l1.005.181a1.8 1.8 0 0 1-.434.778q-.308.33-.777.515-.465.18-1.062.181m3.518-.11v-5.455h1.027v.867h.056q.15-.44.526-.693.38-.255.859-.255a5 5 0 0 1 .451.025v1.015a2 2 0 0 0-.227-.039 2 2 0 0 0-.327-.025q-.376 0-.671.16-.291.156-.461.437a1.2 1.2 0 0 0-.171.632V51zm3.838 0v-5.455h1.019v.888h.068q.17-.45.557-.703.387-.255.927-.256.547 0 .916.256.373.256.551.703h.057q.195-.437.621-.696.426-.263 1.016-.263.741 0 1.211.466.472.465.472 1.402V51h-1.062v-3.558q0-.554-.302-.803a1.1 1.1 0 0 0-.721-.248q-.518 0-.806.32-.287.315-.287.812V51h-1.059v-3.626q0-.444-.277-.714t-.72-.27a1.03 1.03 0 0 0-.558.16q-.252.157-.408.437a1.34 1.34 0 0 0-.153.65V51zm11.189.11q-.806 0-1.389-.344a2.34 2.34 0 0 1-.894-.977q-.313-.632-.313-1.48 0-.84.313-1.478.315-.64.88-.998.569-.359 1.328-.359.462 0 .895.153t.778.48.543.848q.2.519.199 1.26v.377h-4.336v-.795h3.296q0-.42-.171-.742a1.3 1.3 0 0 0-.479-.515 1.34 1.34 0 0 0-.718-.188q-.447 0-.781.22a1.5 1.5 0 0 0-.511.568 1.6 1.6 0 0 0-.178.756v.622q0 .547.192.93.195.384.543.586.348.2.814.199.301 0 .55-.085a1.2 1.2 0 0 0 .43-.263q.18-.174.277-.43l1.005.181a1.8 1.8 0 0 1-.434.778q-.309.33-.777.515-.465.18-1.062.181m5.56-.004q-.66 0-1.179-.337a2.3 2.3 0 0 1-.81-.97q-.291-.63-.291-1.516 0-.884.295-1.512.298-.63.817-.963a2.1 2.1 0 0 1 1.175-.334q.508 0 .817.17.312.167.483.392.174.223.27.394h.064v-2.703h1.062V51h-1.037v-.849h-.089a3 3 0 0 1-.277.398q-.178.225-.49.39-.313.167-.81.167m.234-.905q.459 0 .775-.242.32-.244.483-.678.166-.434.166-1.008 0-.569-.163-.995a1.47 1.47 0 0 0-.479-.664q-.316-.238-.782-.238-.478 0-.799.249a1.5 1.5 0 0 0-.482.678q-.16.43-.16.97 0 .546.163.983t.483.693q.323.252.795.252m3.984.799v-5.455h1.062V51zm.536-6.296a.68.68 0 0 1-.476-.185.6.6 0 0 1-.195-.447q0-.263.195-.448a.67.67 0 0 1 .476-.188q.277 0 .472.188a.59.59 0 0 1 .199.448.6.6 0 0 1-.199.447.66.66 0 0 1-.472.185m3.542 6.417q-.52 0-.938-.192a1.6 1.6 0 0 1-.664-.565q-.241-.37-.241-.905 0-.462.177-.76t.479-.472.675-.263a7 7 0 0 1 .76-.135l.796-.093q.305-.038.443-.124.14-.085.139-.277v-.025q0-.465-.263-.72-.26-.256-.774-.256-.536 0-.845.238a1.27 1.27 0 0 0-.423.522l-.998-.227q.178-.498.519-.803.344-.309.792-.447a3.1 3.1 0 0 1 .941-.143q.326 0 .692.079.37.075.689.277.324.202.529.578.206.373.206.97V51h-1.037v-.746h-.042a1.5 1.5 0 0 1-.309.405 1.6 1.6 0 0 1-.529.33 2.1 2.1 0 0 1-.774.132m.23-.852q.441 0 .753-.175a1.2 1.2 0 0 0 .48-.454q.167-.285.167-.607v-.703a.6.6 0 0 1-.221.106q-.16.045-.365.082l-.402.06q-.195.024-.326.043-.31.04-.565.131a1 1 0 0 0-.405.267.67.67 0 0 0-.149.454q0 .395.291.597.292.199.742.199m6.422-4.724v.853h-2.98v-.853zm-2.181-1.306h1.062v5.16q0 .307.092.465a.5.5 0 0 0 .238.21q.15.052.324.052.127 0 .223-.017l.149-.029.192.877a2.06 2.06 0 0 1-.689.114 1.9 1.9 0 0 1-.781-.15 1.34 1.34 0 0 1-.586-.482q-.224-.327-.224-.82zm5.648 6.871q-.807 0-1.389-.344a2.34 2.34 0 0 1-.895-.977q-.312-.632-.312-1.48 0-.84.312-1.478.316-.64.881-.998.568-.359 1.328-.359.462 0 .895.153t.778.48q.344.326.543.848.198.519.199 1.26v.377h-4.336v-.795h3.295q0-.42-.17-.742a1.29 1.29 0 0 0-1.197-.703q-.447 0-.781.22-.33.217-.512.568a1.65 1.65 0 0 0-.177.756v.622q0 .547.192.93.195.384.543.586.348.2.813.199.302 0 .551-.085.248-.09.429-.263a1.14 1.14 0 0 0 .277-.43l1.005.181q-.12.444-.433.778-.309.33-.778.515a2.9 2.9 0 0 1-1.061.181m6.25-.11v-7.273h2.592q.845 0 1.403.292.56.29.838.806.276.51.277 1.182 0 .668-.281 1.175a1.9 1.9 0 0 1-.838.785q-.558.28-1.403.28h-1.963v-.944h1.864q.533 0 .866-.152.338-.153.494-.444t.156-.7a1.5 1.5 0 0 0-.16-.714 1.03 1.03 0 0 0-.493-.461q-.334-.165-.877-.164h-1.378V51zm3.59-3.281L244.707 51h-1.25l-1.762-3.281zm5.052 3.391q-.806 0-1.388-.344a2.33 2.33 0 0 1-.895-.977q-.313-.632-.313-1.48 0-.84.313-1.478.316-.64.88-.998.569-.359 1.329-.359.461 0 .894.153t.778.48.543.848q.2.519.199 1.26v.377h-4.336v-.795h3.296q0-.42-.171-.742a1.3 1.3 0 0 0-.479-.515 1.34 1.34 0 0 0-.717-.188q-.448 0-.782.22a1.5 1.5 0 0 0-.511.568 1.65 1.65 0 0 0-.178.756v.622q0 .547.192.93.196.384.544.586.348.2.813.199.301 0 .55-.085a1.14 1.14 0 0 0 .707-.692l1.005.18a1.8 1.8 0 0 1-.433.778q-.31.33-.778.515-.465.18-1.062.181m7.606-4.233-.963.17a1.2 1.2 0 0 0-.191-.351.96.96 0 0 0-.348-.273 1.3 1.3 0 0 0-.551-.107q-.45 0-.753.203-.302.199-.302.514 0 .275.203.44.203.168.653.274l.867.199q.753.174 1.122.536t.369.941q0 .49-.284.874a1.86 1.86 0 0 1-.785.597 2.9 2.9 0 0 1-1.161.216q-.916 0-1.495-.39-.58-.394-.71-1.12l1.026-.155q.096.401.394.607.298.202.778.202.522 0 .835-.216.312-.22.312-.537a.56.56 0 0 0-.192-.43q-.187-.173-.579-.262l-.923-.203q-.763-.174-1.129-.553-.362-.381-.362-.963 0-.483.27-.845t.745-.565a2.7 2.7 0 0 1 1.091-.206q.883 0 1.392.384.507.38.671 1.02m4.729 1.86v-3.192h1.065V51h-1.044v-.945h-.057a1.7 1.7 0 0 1-.603.728q-.412.288-1.027.288-.525 0-.93-.23a1.63 1.63 0 0 1-.632-.693q-.228-.459-.227-1.133v-3.47h1.061v3.342q0 .558.309.888.31.33.803.33a1.3 1.3 0 0 0 .593-.149q.298-.15.494-.451.198-.302.195-.767m3.554-5.01V51h-1.062v-7.273zm3.974 1.819v.852h-2.979v-.853zm-2.18-1.307h1.062v5.16q0 .307.092.465a.5.5 0 0 0 .238.21 1 1 0 0 0 .323.052q.128 0 .224-.017l.149-.029.192.877a2.076 2.076 0 0 1-.689.114 1.9 1.9 0 0 1-.781-.15 1.34 1.34 0 0 1-.586-.482q-.224-.327-.224-.82zm12.127 1.853h-1.108A1.68 1.68 0 0 0 276 45.01a1.8 1.8 0 0 0-.565-.284 2.2 2.2 0 0 0-.657-.096 2.05 2.05 0 0 0-1.125.316q-.494.317-.781.927-.285.61-.285 1.492 0 .888.285 1.498.287.61.784.923t1.119.313q.345 0 .653-.092.313-.096.565-.28a1.72 1.72 0 0 0 .671-1.07l1.108.004a3 3 0 0 1-.344.987 2.7 2.7 0 0 1-.65.774 3 3 0 0 1-.902.5 3.3 3.3 0 0 1-1.108.178q-.945 0-1.683-.447-.74-.45-1.165-1.29-.423-.837-.423-1.998 0-1.165.426-2a3.1 3.1 0 0 1 1.165-1.285 3.16 3.16 0 0 1 1.68-.451q.58 0 1.079.167.505.163.906.483.401.315.664.774.263.455.355 1.04m2.815 5.029q-.518 0-.937-.192a1.57 1.57 0 0 1-.664-.565q-.242-.37-.242-.905 0-.462.178-.76.177-.298.479-.472.301-.174.675-.263a7 7 0 0 1 .76-.135l.795-.093q.306-.038.444-.124.14-.085.139-.277v-.025q0-.465-.263-.72-.26-.256-.774-.256-.536 0-.845.238a1.27 1.27 0 0 0-.423.522l-.998-.227a1.9 1.9 0 0 1 .519-.803q.344-.309.792-.447.447-.143.941-.143.326 0 .692.079.37.075.689.277.323.202.529.578.206.373.206.97V51h-1.037v-.746h-.043a1.5 1.5 0 0 1-.308.405 1.7 1.7 0 0 1-.53.33 2 2 0 0 1-.774.132m.231-.852q.441 0 .753-.175.316-.174.479-.454.168-.285.167-.607v-.703a.55.55 0 0 1-.22.106q-.159.045-.366.082l-.401.06q-.195.024-.327.043-.309.04-.564.131a1 1 0 0 0-.405.267.66.66 0 0 0-.149.454q0 .395.291.597.29.199.742.199m4.937-6.542V51h-1.062v-7.273zm3.726 7.383q-.792 0-1.364-.359a2.38 2.38 0 0 1-.873-.997q-.306-.636-.306-1.456 0-.831.313-1.467a2.4 2.4 0 0 1 .881-.998q.568-.359 1.338-.359.622 0 1.108.231.487.228.785.64.302.411.359.962h-1.034a1.24 1.24 0 0 0-.39-.66q-.302-.278-.81-.278a1.32 1.32 0 0 0-.778.235q-.33.231-.514.66-.185.426-.185 1.009 0 .595.181 1.03.181.433.511.67.335.24.785.239.302 0 .547-.11.248-.114.416-.324.17-.21.237-.504h1.034a2 2 0 0 1-.345.945 2 2 0 0 1-.77.653q-.48.238-1.126.238m6.832-2.372v-3.193h1.065V51h-1.044v-.945h-.057a1.7 1.7 0 0 1-.604.728q-.411.288-1.026.288-.525 0-.93-.23a1.6 1.6 0 0 1-.632-.693q-.228-.459-.228-1.133v-3.47h1.062v3.342q0 .558.309.888.31.33.803.33a1.3 1.3 0 0 0 1.086-.6q.2-.302.196-.767m3.553-5.01V51h-1.061v-7.273zm3.016 7.393q-.518 0-.937-.192a1.57 1.57 0 0 1-.664-.565q-.242-.37-.242-.905 0-.462.178-.76.177-.298.479-.472.301-.174.675-.263a7 7 0 0 1 .76-.135l.795-.093q.306-.038.444-.124.139-.085.139-.277v-.025q0-.465-.263-.72-.26-.256-.774-.256-.537 0-.845.238a1.27 1.27 0 0 0-.423.522l-.998-.227a1.9 1.9 0 0 1 .519-.803q.344-.309.791-.447.448-.143.941-.143.327 0 .693.079.37.075.689.277.323.202.529.578.206.373.206.97V51h-1.037v-.746h-.043a1.5 1.5 0 0 1-.309.405 1.6 1.6 0 0 1-.529.33 2 2 0 0 1-.774.132m.231-.852q.441 0 .753-.175.316-.174.479-.454.168-.285.167-.607v-.703a.55.55 0 0 1-.22.106q-.16.045-.366.082l-.401.06q-.195.024-.327.043-.309.04-.564.131a1 1 0 0 0-.405.267.66.66 0 0 0-.149.454q0 .395.291.597.29.199.742.199m6.421-4.724v.853h-2.979v-.853zm-2.18-1.306h1.062v5.16q0 .307.092.465a.5.5 0 0 0 .238.21 1 1 0 0 0 .323.052q.128 0 .224-.017l.149-.029.192.877a2.076 2.076 0 0 1-.689.114 1.9 1.9 0 0 1-.781-.15 1.34 1.34 0 0 1-.586-.482q-.224-.327-.224-.82zM310.709 51v-5.455h1.062V51zm.536-6.296a.68.68 0 0 1-.476-.185.6.6 0 0 1-.195-.447q0-.263.195-.448a.67.67 0 0 1 .476-.188q.277 0 .472.188a.59.59 0 0 1 .199.448.6.6 0 0 1-.199.447.66.66 0 0 1-.472.185m4.252 6.406q-.768 0-1.339-.352a2.37 2.37 0 0 1-.888-.983q-.316-.633-.316-1.477 0-.849.316-1.485a2.37 2.37 0 0 1 .888-.987q.571-.351 1.339-.352.767 0 1.338.352.573.351.888.987t.316 1.485q0 .844-.316 1.477a2.36 2.36 0 0 1-.888.983q-.571.352-1.338.352m.003-.891q.497 0 .824-.263.327-.262.483-.7.16-.436.16-.962a2.8 2.8 0 0 0-.16-.959 1.56 1.56 0 0 0-.483-.706q-.327-.267-.824-.267-.501 0-.831.267a1.6 1.6 0 0 0-.486.706q-.156.437-.156.959 0 .525.156.962.159.438.486.7.33.263.831.263m4.786-2.458V51h-1.061v-5.455h1.019v.888h.067a1.56 1.56 0 0 1 .59-.696q.404-.263 1.019-.263.558 0 .976.235.42.23.65.689t.231 1.133V51h-1.062v-3.342q0-.593-.309-.927-.31-.337-.848-.337-.37 0-.657.16-.285.16-.451.469-.164.305-.164.738m9.002-.884-.962.17a1.1 1.1 0 0 0-.192-.351.95.95 0 0 0-.348-.273 1.26 1.26 0 0 0-.55-.107q-.452 0-.753.203-.302.199-.302.514 0 .275.203.44.202.168.653.274l.866.199q.753.174 1.123.536.369.362.369.941 0 .49-.284.874a1.86 1.86 0 0 1-.785.597 2.9 2.9 0 0 1-1.161.216q-.916 0-1.495-.39-.58-.394-.71-1.12l1.026-.155q.096.401.394.607.298.202.778.202.522 0 .834-.216.313-.22.313-.537a.56.56 0 0 0-.192-.43q-.188-.173-.579-.262l-.923-.203q-.764-.174-1.129-.553-.363-.381-.363-.963 0-.483.27-.845t.746-.565a2.7 2.7 0 0 1 1.09-.206q.885 0 1.392.384.509.38.671 1.02"/><path fill="#555962" d="M485.991 51v-7.273h4.51v.945h-3.412v2.216h3.089v.94h-3.089V51zm8.888-2.262v-3.193h1.065V51H494.9v-.945h-.057a1.7 1.7 0 0 1-.603.728q-.413.288-1.026.288-.526 0-.931-.23a1.63 1.63 0 0 1-.632-.693q-.227-.459-.227-1.133v-3.47h1.062v3.342q0 .558.308.888.31.33.803.33a1.3 1.3 0 0 0 .593-.149q.298-.15.494-.451.198-.302.195-.767m5.038-3.193v.853h-2.979v-.853zm-2.18-1.306h1.062v5.16q0 .307.092.465a.48.48 0 0 0 .238.21 1 1 0 0 0 .323.052q.128 0 .224-.017l.149-.029.192.877a2.076 2.076 0 0 1-.689.114q-.42.008-.782-.15a1.35 1.35 0 0 1-.586-.482q-.223-.327-.223-.82zm6.81 4.499v-3.193h1.065V51h-1.044v-.945h-.057a1.7 1.7 0 0 1-.603.728q-.412.288-1.027.288-.525 0-.93-.23a1.63 1.63 0 0 1-.632-.693q-.227-.459-.227-1.133v-3.47h1.061v3.342q0 .558.309.888.31.33.803.33a1.3 1.3 0 0 0 .593-.149q.298-.15.494-.451.198-.302.195-.767M507.039 51v-5.455h1.026v.867h.057q.15-.44.526-.693a1.5 1.5 0 0 1 .859-.255 5 5 0 0 1 .451.025v1.015a2 2 0 0 0-.227-.039 2 2 0 0 0-.327-.025q-.377 0-.671.16a1.19 1.19 0 0 0-.632 1.069V51zm5.993.11q-.806 0-1.388-.344a2.34 2.34 0 0 1-.895-.977q-.312-.632-.312-1.48 0-.84.312-1.478.316-.64.881-.998.567-.359 1.328-.359.462 0 .895.153t.777.48.544.848q.198.519.199 1.26v.377h-4.336v-.795h3.295q0-.42-.17-.742a1.29 1.29 0 0 0-1.197-.703q-.447 0-.781.22-.33.217-.512.568a1.65 1.65 0 0 0-.177.756v.622q0 .547.192.93.195.384.543.586.348.2.813.199.302 0 .55-.085a1.14 1.14 0 0 0 .707-.692l1.005.18q-.12.444-.433.778-.309.33-.778.515-.465.18-1.062.181m8.605-.11h-2.355v-7.273h2.429q1.07 0 1.836.437a2.9 2.9 0 0 1 1.176 1.246q.412.81.412 1.943 0 1.137-.416 1.953a2.9 2.9 0 0 1-1.193 1.257q-.782.437-1.889.437m-1.257-.959h1.196q.831 0 1.382-.312.55-.316.824-.913.273-.6.273-1.463 0-.856-.273-1.452-.27-.597-.806-.906-.537-.309-1.332-.309h-1.264zm7.621 1.08q-.518 0-.937-.192a1.57 1.57 0 0 1-.664-.565q-.242-.37-.242-.905 0-.462.178-.76.177-.298.479-.472t.675-.263a7 7 0 0 1 .76-.135l.795-.093q.306-.038.444-.124.14-.085.139-.277v-.025q0-.465-.263-.72-.26-.256-.774-.256-.536 0-.845.238a1.27 1.27 0 0 0-.423.522l-.998-.227a1.9 1.9 0 0 1 .519-.803q.344-.309.792-.447a3.1 3.1 0 0 1 .941-.143q.326 0 .692.079.37.075.689.277.323.202.529.578.206.373.206.97V51h-1.037v-.746h-.042a1.5 1.5 0 0 1-.309.405 1.7 1.7 0 0 1-.53.33 2 2 0 0 1-.774.132m.231-.852q.441 0 .753-.175.316-.174.479-.454.168-.285.167-.607v-.703a.55.55 0 0 1-.22.106q-.159.045-.366.082l-.401.06q-.195.024-.327.043-.309.04-.564.131a1 1 0 0 0-.405.267.66.66 0 0 0-.149.454q0 .395.291.597.29.199.742.199m6.421-4.724v.853h-2.979v-.853zm-2.18-1.306h1.062v5.16q0 .307.092.465a.5.5 0 0 0 .238.21q.15.052.323.052.128 0 .224-.017l.149-.029.192.877a2.068 2.068 0 0 1-.689.114 1.9 1.9 0 0 1-.781-.15 1.34 1.34 0 0 1-.586-.482q-.224-.327-.224-.82zm4.942 6.882q-.518 0-.937-.192a1.6 1.6 0 0 1-.664-.565q-.242-.37-.242-.905 0-.462.178-.76.177-.298.479-.472a2.5 2.5 0 0 1 .675-.263 7 7 0 0 1 .76-.135l.795-.093q.306-.038.444-.124.14-.085.139-.277v-.025q0-.465-.263-.72-.26-.256-.774-.256-.536 0-.845.238a1.27 1.27 0 0 0-.423.522l-.998-.227a1.9 1.9 0 0 1 .519-.803q.343-.309.792-.447a3.1 3.1 0 0 1 .941-.143q.326 0 .692.079.37.075.689.277.324.202.529.578.207.373.206.97V51h-1.037v-.746h-.042a1.5 1.5 0 0 1-.309.405 1.7 1.7 0 0 1-.529.33 2.1 2.1 0 0 1-.775.132m.231-.852q.441 0 .753-.175a1.21 1.21 0 0 0 .646-1.061v-.703a.55.55 0 0 1-.22.106q-.159.045-.366.082l-.401.06q-.195.024-.327.043-.309.04-.564.131a1 1 0 0 0-.405.267.67.67 0 0 0-.149.454q0 .395.291.597.292.199.742.199"/></g><defs><clipPath id="a"><path fill="#fff" d="M0 0h720v142H0z"/></clipPath><clipPath id="b"><path fill="#fff" d="M0-8h720v314H0z"/></clipPath></defs></svg>