<svg xmlns="http://www.w3.org/2000/svg" width="720" height="280" fill="none" viewBox="0 0 720 280"><g clip-path="url(#a)"><path fill="#17181c" d="M0 0h720v280H0z"/><path fill="#84ee53" d="M240.28 203.53a.75.75 0 0 0 0-1.06l-4.773-4.773a.749.749 0 1 0-1.06 1.06l4.242 4.243-4.242 4.243a.749.749 0 1 0 1.06 1.06zm-48.03-1.28a.75.75 0 0 0 0 1.5zm47.5.75v-.75h-47.5v1.5h47.5z"/><path fill="#bd53ee" d="M524.28 203.53a.75.75 0 0 0 0-1.06l-4.773-4.773a.749.749 0 1 0-1.06 1.06l4.242 4.243-4.242 4.243a.749.749 0 1 0 1.06 1.06zm-48.03-1.28a.75.75 0 0 0 0 1.5zm47.5.75v-.75h-47.5v1.5h47.5z"/><g fill="#353841" clip-path="url(#b)" opacity=".5"><path d="M-11 324a1 1 0 1 1 0 2 1 1 0 0 1 0-2m14 0a1 1 0 1 1 0 2 1 1 0 0 1 0-2m14 0a1 1 0 1 1 0 2 1 1 0 0 1 0-2m14 0a1 1 0 1 1 0 2 1 1 0 0 1 0-2m14 0a1 1 0 1 1 0 2 1 1 0 0 1 0-2m14 0a1 1 0 1 1 0 2 1 1 0 0 1 0-2m14 0a1 1 0 1 1 0 2 1 1 0 0 1 0-2m14 0a1 1 0 1 1 0 2 1 1 0 0 1 0-2m14 0a1 1 0 1 1 0 2 1 1 0 0 1 0-2m14 0a1 1 0 1 1 0 2 1 1 0 0 1 0-2m14 0a1 1 0 1 1 0 2 1 1 0 0 1 0-2m14 0a1 1 0 1 1 0 2 1 1 0 0 1 0-2m14 0a1 1 0 1 1 0 2 1 1 0 0 1 0-2m14 0a1 1 0 1 1 0 2 1 1 0 0 1 0-2m14 0a1 1 0 1 1 0 2 1 1 0 0 1 0-2m14 0a1 1 0 1 1 0 2 1 1 0 0 1 0-2m14 0a1 1 0 1 1 0 2 1 1 0 0 1 0-2m14 0a1 1 0 1 1 0 2 1 1 0 0 1 0-2m14 0a1 1 0 1 1 0 2 1 1 0 0 1 0-2m14 0a1 1 0 1 1 0 2 1 1 0 0 1 0-2m14 0a1 1 0 1 1 0 2 1 1 0 0 1 0-2m14 0a1 1 0 1 1 0 2 1 1 0 0 1 0-2m14 0a1 1 0 1 1 0 2 1 1 0 0 1 0-2m14 0a1 1 0 1 1 0 2 1 1 0 0 1 0-2m14 0a1 1 0 1 1 0 2 1 1 0 0 1 0-2m14 0a1 1 0 1 1 0 2 1 1 0 0 1 0-2m14 0a1 1 0 1 1 0 2 1 1 0 0 1 0-2m14 0a1 1 0 1 1 0 2 1 1 0 0 1 0-2m14 0a1 1 0 1 1 0 2 1 1 0 0 1 0-2m14 0a1 1 0 1 1 0 2 1 1 0 0 1 0-2m14 0a1 1 0 1 1 0 2 1 1 0 0 1 0-2m14 0a1 1 0 1 1 0 2 1 1 0 0 1 0-2m14 0a1 1 0 1 1 0 2 1 1 0 0 1 0-2m14 0a1 1 0 1 1 0 2 1 1 0 0 1 0-2m14 0a1 1 0 1 1 0 2 1 1 0 0 1 0-2m14 0a1 1 0 1 1 0 2 1 1 0 0 1 0-2m14 0a1 1 0 1 1 0 2 1 1 0 0 1 0-2m14 0a1 1 0 1 1 0 2 1 1 0 0 1 0-2m14 0a1 1 0 1 1 0 2 1 1 0 0 1 0-2m14 0a1 1 0 1 1 0 2 1 1 0 0 1 0-2m14 0a1 1 0 1 1 0 2 1 1 0 0 1 0-2m14 0a1 1 0 1 1 0 2 1 1 0 0 1 0-2m14 0a1 1 0 1 1 0 2 1 1 0 0 1 0-2m14 0a1 1 0 1 1 0 2 1 1 0 0 1 0-2m14 0a1 1 0 1 1 0 2 1 1 0 0 1 0-2m14 0a1 1 0 1 1 0 2 1 1 0 0 1 0-2m14 0a1 1 0 1 1 0 2 1 1 0 0 1 0-2m14 0a1 1 0 1 1 0 2 1 1 0 0 1 0-2m14 0a1 1 0 1 1 0 2 1 1 0 0 1 0-2m14 0a1 1 0 1 1 0 2 1 1 0 0 1 0-2m14 0a1 1 0 1 1 0 2 1 1 0 0 1 0-2m14 0a1 1 0 1 1 0 2 1 1 0 0 1 0-2m-714-14a1 1 0 1 1 0 2 1 1 0 0 1 0-2m14 0a1 1 0 1 1 0 2 1 1 0 0 1 0-2m14 0a1 1 0 1 1 0 2 1 1 0 0 1 0-2m14 0a1 1 0 1 1 0 2 1 1 0 0 1 0-2m14 0a1 1 0 1 1 0 2 1 1 0 0 1 0-2m14 0a1 1 0 1 1 0 2 1 1 0 0 1 0-2m14 0a1 1 0 1 1 0 2 1 1 0 0 1 0-2m14 0a1 1 0 1 1 0 2 1 1 0 0 1 0-2m14 0a1 1 0 1 1 0 2 1 1 0 0 1 0-2m14 0a1 1 0 1 1 0 2 1 1 0 0 1 0-2m14 0a1 1 0 1 1 0 2 1 1 0 0 1 0-2m14 0a1 1 0 1 1 0 2 1 1 0 0 1 0-2m14 0a1 1 0 1 1 0 2 1 1 0 0 1 0-2m14 0a1 1 0 1 1 0 2 1 1 0 0 1 0-2m14 0a1 1 0 1 1 0 2 1 1 0 0 1 0-2m14 0a1 1 0 1 1 0 2 1 1 0 0 1 0-2m14 0a1 1 0 1 1 0 2 1 1 0 0 1 0-2m14 0a1 1 0 1 1 0 2 1 1 0 0 1 0-2m14 0a1 1 0 1 1 0 2 1 1 0 0 1 0-2m14 0a1 1 0 1 1 0 2 1 1 0 0 1 0-2m14 0a1 1 0 1 1 0 2 1 1 0 0 1 0-2m14 0a1 1 0 1 1 0 2 1 1 0 0 1 0-2m14 0a1 1 0 1 1 0 2 1 1 0 0 1 0-2m14 0a1 1 0 1 1 0 2 1 1 0 0 1 0-2m14 0a1 1 0 1 1 0 2 1 1 0 0 1 0-2m14 0a1 1 0 1 1 0 2 1 1 0 0 1 0-2m14 0a1 1 0 1 1 0 2 1 1 0 0 1 0-2m14 0a1 1 0 1 1 0 2 1 1 0 0 1 0-2m14 0a1 1 0 1 1 0 2 1 1 0 0 1 0-2m14 0a1 1 0 1 1 0 2 1 1 0 0 1 0-2m14 0a1 1 0 1 1 0 2 1 1 0 0 1 0-2m14 0a1 1 0 1 1 0 2 1 1 0 0 1 0-2m14 0a1 1 0 1 1 0 2 1 1 0 0 1 0-2m14 0a1 1 0 1 1 0 2 1 1 0 0 1 0-2m14 0a1 1 0 1 1 0 2 1 1 0 0 1 0-2m14 0a1 1 0 1 1 0 2 1 1 0 0 1 0-2m14 0a1 1 0 1 1 0 2 1 1 0 0 1 0-2m14 0a1 1 0 1 1 0 2 1 1 0 0 1 0-2m14 0a1 1 0 1 1 0 2 1 1 0 0 1 0-2m14 0a1 1 0 1 1 0 2 1 1 0 0 1 0-2m14 0a1 1 0 1 1 0 2 1 1 0 0 1 0-2m14 0a1 1 0 1 1 0 2 1 1 0 0 1 0-2m14 0a1 1 0 1 1 0 2 1 1 0 0 1 0-2m14 0a1 1 0 1 1 0 2 1 1 0 0 1 0-2m14 0a1 1 0 1 1 0 2 1 1 0 0 1 0-2m14 0a1 1 0 1 1 0 2 1 1 0 0 1 0-2m14 0a1 1 0 1 1 0 2 1 1 0 0 1 0-2m14 0a1 1 0 1 1 0 2 1 1 0 0 1 0-2m14 0a1 1 0 1 1 0 2 1 1 0 0 1 0-2m14 0a1 1 0 1 1 0 2 1 1 0 0 1 0-2m14 0a1 1 0 1 1 0 2 1 1 0 0 1 0-2m14 0a1 1 0 1 1 0 2 1 1 0 0 1 0-2m14 0a1 1 0 1 1 0 2 1 1 0 0 1 0-2m-728-14a1 1 0 1 1 0 2 1 1 0 0 1 0-2m14 0a1 1 0 1 1 0 2 1 1 0 0 1 0-2m14 0a1 1 0 1 1 0 2 1 1 0 0 1 0-2m14 0a1 1 0 1 1 0 2 1 1 0 0 1 0-2m14 0a1 1 0 1 1 0 2 1 1 0 0 1 0-2m14 0a1 1 0 1 1 0 2 1 1 0 0 1 0-2m14 0a1 1 0 1 1 0 2 1 1 0 0 1 0-2m14 0a1 1 0 1 1 0 2 1 1 0 0 1 0-2m14 0a1 1 0 1 1 0 2 1 1 0 0 1 0-2m14 0a1 1 0 1 1 0 2 1 1 0 0 1 0-2m14 0a1 1 0 1 1 0 2 1 1 0 0 1 0-2m14 0a1 1 0 1 1 0 2 1 1 0 0 1 0-2m14 0a1 1 0 1 1 0 2 1 1 0 0 1 0-2m14 0a1 1 0 1 1 0 2 1 1 0 0 1 0-2m14 0a1 1 0 1 1 0 2 1 1 0 0 1 0-2m14 0a1 1 0 1 1 0 2 1 1 0 0 1 0-2m14 0a1 1 0 1 1 0 2 1 1 0 0 1 0-2m14 0a1 1 0 1 1 0 2 1 1 0 0 1 0-2m14 0a1 1 0 1 1 0 2 1 1 0 0 1 0-2m14 0a1 1 0 1 1 0 2 1 1 0 0 1 0-2m14 0a1 1 0 1 1 0 2 1 1 0 0 1 0-2m14 0a1 1 0 1 1 0 2 1 1 0 0 1 0-2m14 0a1 1 0 1 1 0 2 1 1 0 0 1 0-2m14 0a1 1 0 1 1 0 2 1 1 0 0 1 0-2m14 0a1 1 0 1 1 0 2 1 1 0 0 1 0-2m14 0a1 1 0 1 1 0 2 1 1 0 0 1 0-2m14 0a1 1 0 1 1 0 2 1 1 0 0 1 0-2m14 0a1 1 0 1 1 0 2 1 1 0 0 1 0-2m14 0a1 1 0 1 1 0 2 1 1 0 0 1 0-2m14 0a1 1 0 1 1 0 2 1 1 0 0 1 0-2m14 0a1 1 0 1 1 0 2 1 1 0 0 1 0-2m14 0a1 1 0 1 1 0 2 1 1 0 0 1 0-2m14 0a1 1 0 1 1 0 2 1 1 0 0 1 0-2m14 0a1 1 0 1 1 0 2 1 1 0 0 1 0-2m14 0a1 1 0 1 1 0 2 1 1 0 0 1 0-2m14 0a1 1 0 1 1 0 2 1 1 0 0 1 0-2m14 0a1 1 0 1 1 0 2 1 1 0 0 1 0-2m14 0a1 1 0 1 1 0 2 1 1 0 0 1 0-2m14 0a1 1 0 1 1 0 2 1 1 0 0 1 0-2m14 0a1 1 0 1 1 0 2 1 1 0 0 1 0-2m14 0a1 1 0 1 1 0 2 1 1 0 0 1 0-2m14 0a1 1 0 1 1 0 2 1 1 0 0 1 0-2m14 0a1 1 0 1 1 0 2 1 1 0 0 1 0-2m14 0a1 1 0 1 1 0 2 1 1 0 0 1 0-2m14 0a1 1 0 1 1 0 2 1 1 0 0 1 0-2m14 0a1 1 0 1 1 0 2 1 1 0 0 1 0-2m14 0a1 1 0 1 1 0 2 1 1 0 0 1 0-2m14 0a1 1 0 1 1 0 2 1 1 0 0 1 0-2m14 0a1 1 0 1 1 0 2 1 1 0 0 1 0-2m14 0a1 1 0 1 1 0 2 1 1 0 0 1 0-2m14 0a1 1 0 1 1 0 2 1 1 0 0 1 0-2m14 0a1 1 0 1 1 0 2 1 1 0 0 1 0-2m14 0a1 1 0 1 1 0 2 1 1 0 0 1 0-2m-728-14a1 1 0 1 1 0 2 1 1 0 0 1 0-2m14 0a1 1 0 1 1 0 2 1 1 0 0 1 0-2m14 0a1 1 0 1 1 0 2 1 1 0 0 1 0-2m14 0a1 1 0 1 1 0 2 1 1 0 0 1 0-2m14 0a1 1 0 1 1 0 2 1 1 0 0 1 0-2m14 0a1 1 0 1 1 0 2 1 1 0 0 1 0-2m14 0a1 1 0 1 1 0 2 1 1 0 0 1 0-2m14 0a1 1 0 1 1 0 2 1 1 0 0 1 0-2m14 0a1 1 0 1 1 0 2 1 1 0 0 1 0-2m14 0a1 1 0 1 1 0 2 1 1 0 0 1 0-2m14 0a1 1 0 1 1 0 2 1 1 0 0 1 0-2m14 0a1 1 0 1 1 0 2 1 1 0 0 1 0-2m14 0a1 1 0 1 1 0 2 1 1 0 0 1 0-2m14 0a1 1 0 1 1 0 2 1 1 0 0 1 0-2m14 0a1 1 0 1 1 0 2 1 1 0 0 1 0-2m14 0a1 1 0 1 1 0 2 1 1 0 0 1 0-2m14 0a1 1 0 1 1 0 2 1 1 0 0 1 0-2m14 0a1 1 0 1 1 0 2 1 1 0 0 1 0-2m14 0a1 1 0 1 1 0 2 1 1 0 0 1 0-2m14 0a1 1 0 1 1 0 2 1 1 0 0 1 0-2m14 0a1 1 0 1 1 0 2 1 1 0 0 1 0-2m14 0a1 1 0 1 1 0 2 1 1 0 0 1 0-2m14 0a1 1 0 1 1 0 2 1 1 0 0 1 0-2m14 0a1 1 0 1 1 0 2 1 1 0 0 1 0-2m14 0a1 1 0 1 1 0 2 1 1 0 0 1 0-2m14 0a1 1 0 1 1 0 2 1 1 0 0 1 0-2m14 0a1 1 0 1 1 0 2 1 1 0 0 1 0-2m14 0a1 1 0 1 1 0 2 1 1 0 0 1 0-2m14 0a1 1 0 1 1 0 2 1 1 0 0 1 0-2m14 0a1 1 0 1 1 0 2 1 1 0 0 1 0-2m14 0a1 1 0 1 1 0 2 1 1 0 0 1 0-2m14 0a1 1 0 1 1 0 2 1 1 0 0 1 0-2m14 0a1 1 0 1 1 0 2 1 1 0 0 1 0-2m14 0a1 1 0 1 1 0 2 1 1 0 0 1 0-2m14 0a1 1 0 1 1 0 2 1 1 0 0 1 0-2m14 0a1 1 0 1 1 0 2 1 1 0 0 1 0-2m14 0a1 1 0 1 1 0 2 1 1 0 0 1 0-2m14 0a1 1 0 1 1 0 2 1 1 0 0 1 0-2m14 0a1 1 0 1 1 0 2 1 1 0 0 1 0-2m14 0a1 1 0 1 1 0 2 1 1 0 0 1 0-2m14 0a1 1 0 1 1 0 2 1 1 0 0 1 0-2m14 0a1 1 0 1 1 0 2 1 1 0 0 1 0-2m14 0a1 1 0 1 1 0 2 1 1 0 0 1 0-2m14 0a1 1 0 1 1 0 2 1 1 0 0 1 0-2m14 0a1 1 0 1 1 0 2 1 1 0 0 1 0-2m14 0a1 1 0 1 1 0 2 1 1 0 0 1 0-2m14 0a1 1 0 1 1 0 2 1 1 0 0 1 0-2m14 0a1 1 0 1 1 0 2 1 1 0 0 1 0-2m14 0a1 1 0 1 1 0 2 1 1 0 0 1 0-2m14 0a1 1 0 1 1 0 2 1 1 0 0 1 0-2m14 0a1 1 0 1 1 0 2 1 1 0 0 1 0-2m14 0a1 1 0 1 1 0 2 1 1 0 0 1 0-2m14 0a1 1 0 1 1 0 2 1 1 0 0 1 0-2m-728-14a1 1 0 1 1 0 2 1 1 0 0 1 0-2m14 0a1 1 0 1 1 0 2 1 1 0 0 1 0-2m14 0a1 1 0 1 1 0 2 1 1 0 0 1 0-2m14 0a1 1 0 1 1 0 2 1 1 0 0 1 0-2m14 0a1 1 0 1 1 0 2 1 1 0 0 1 0-2m14 0a1 1 0 1 1 0 2 1 1 0 0 1 0-2m14 0a1 1 0 1 1 0 2 1 1 0 0 1 0-2m14 0a1 1 0 1 1 0 2 1 1 0 0 1 0-2m14 0a1 1 0 1 1 0 2 1 1 0 0 1 0-2m14 0a1 1 0 1 1 0 2 1 1 0 0 1 0-2m14 0a1 1 0 1 1 0 2 1 1 0 0 1 0-2m14 0a1 1 0 1 1 0 2 1 1 0 0 1 0-2m14 0a1 1 0 1 1 0 2 1 1 0 0 1 0-2m14 0a1 1 0 1 1 0 2 1 1 0 0 1 0-2m14 0a1 1 0 1 1 0 2 1 1 0 0 1 0-2m14 0a1 1 0 1 1 0 2 1 1 0 0 1 0-2m14 0a1 1 0 1 1 0 2 1 1 0 0 1 0-2m14 0a1 1 0 1 1 0 2 1 1 0 0 1 0-2m14 0a1 1 0 1 1 0 2 1 1 0 0 1 0-2m14 0a1 1 0 1 1 0 2 1 1 0 0 1 0-2m14 0a1 1 0 1 1 0 2 1 1 0 0 1 0-2m14 0a1 1 0 1 1 0 2 1 1 0 0 1 0-2m14 0a1 1 0 1 1 0 2 1 1 0 0 1 0-2m14 0a1 1 0 1 1 0 2 1 1 0 0 1 0-2m14 0a1 1 0 1 1 0 2 1 1 0 0 1 0-2m14 0a1 1 0 1 1 0 2 1 1 0 0 1 0-2m14 0a1 1 0 1 1 0 2 1 1 0 0 1 0-2m14 0a1 1 0 1 1 0 2 1 1 0 0 1 0-2m14 0a1 1 0 1 1 0 2 1 1 0 0 1 0-2m14 0a1 1 0 1 1 0 2 1 1 0 0 1 0-2m14 0a1 1 0 1 1 0 2 1 1 0 0 1 0-2m14 0a1 1 0 1 1 0 2 1 1 0 0 1 0-2m14 0a1 1 0 1 1 0 2 1 1 0 0 1 0-2m14 0a1 1 0 1 1 0 2 1 1 0 0 1 0-2m14 0a1 1 0 1 1 0 2 1 1 0 0 1 0-2m14 0a1 1 0 1 1 0 2 1 1 0 0 1 0-2m14 0a1 1 0 1 1 0 2 1 1 0 0 1 0-2m14 0a1 1 0 1 1 0 2 1 1 0 0 1 0-2m14 0a1 1 0 1 1 0 2 1 1 0 0 1 0-2m14 0a1 1 0 1 1 0 2 1 1 0 0 1 0-2m14 0a1 1 0 1 1 0 2 1 1 0 0 1 0-2m14 0a1 1 0 1 1 0 2 1 1 0 0 1 0-2m14 0a1 1 0 1 1 0 2 1 1 0 0 1 0-2m14 0a1 1 0 1 1 0 2 1 1 0 0 1 0-2m14 0a1 1 0 1 1 0 2 1 1 0 0 1 0-2m14 0a1 1 0 1 1 0 2 1 1 0 0 1 0-2m14 0a1 1 0 1 1 0 2 1 1 0 0 1 0-2m14 0a1 1 0 1 1 0 2 1 1 0 0 1 0-2m14 0a1 1 0 1 1 0 2 1 1 0 0 1 0-2m14 0a1 1 0 1 1 0 2 1 1 0 0 1 0-2m14 0a1 1 0 1 1 0 2 1 1 0 0 1 0-2m14 0a1 1 0 1 1 0 2 1 1 0 0 1 0-2m14 0a1 1 0 1 1 0 2 1 1 0 0 1 0-2m-728-14a1 1 0 1 1 0 2 1 1 0 0 1 0-2m14 0a1 1 0 1 1 0 2 1 1 0 0 1 0-2m14 0a1 1 0 1 1 0 2 1 1 0 0 1 0-2m14 0a1 1 0 1 1 0 2 1 1 0 0 1 0-2m14 0a1 1 0 1 1 0 2 1 1 0 0 1 0-2m14 0a1 1 0 1 1 0 2 1 1 0 0 1 0-2m14 0a1 1 0 1 1 0 2 1 1 0 0 1 0-2m14 0a1 1 0 1 1 0 2 1 1 0 0 1 0-2m14 0a1 1 0 1 1 0 2 1 1 0 0 1 0-2m14 0a1 1 0 1 1 0 2 1 1 0 0 1 0-2m14 0a1 1 0 1 1 0 2 1 1 0 0 1 0-2m14 0a1 1 0 1 1 0 2 1 1 0 0 1 0-2m14 0a1 1 0 1 1 0 2 1 1 0 0 1 0-2m14 0a1 1 0 1 1 0 2 1 1 0 0 1 0-2m14 0a1 1 0 1 1 0 2 1 1 0 0 1 0-2m14 0a1 1 0 1 1 0 2 1 1 0 0 1 0-2m14 0a1 1 0 1 1 0 2 1 1 0 0 1 0-2m14 0a1 1 0 1 1 0 2 1 1 0 0 1 0-2m14 0a1 1 0 1 1 0 2 1 1 0 0 1 0-2m14 0a1 1 0 1 1 0 2 1 1 0 0 1 0-2m14 0a1 1 0 1 1 0 2 1 1 0 0 1 0-2m14 0a1 1 0 1 1 0 2 1 1 0 0 1 0-2m14 0a1 1 0 1 1 0 2 1 1 0 0 1 0-2m14 0a1 1 0 1 1 0 2 1 1 0 0 1 0-2m14 0a1 1 0 1 1 0 2 1 1 0 0 1 0-2m14 0a1 1 0 1 1 0 2 1 1 0 0 1 0-2m14 0a1 1 0 1 1 0 2 1 1 0 0 1 0-2m14 0a1 1 0 1 1 0 2 1 1 0 0 1 0-2m14 0a1 1 0 1 1 0 2 1 1 0 0 1 0-2m14 0a1 1 0 1 1 0 2 1 1 0 0 1 0-2m14 0a1 1 0 1 1 0 2 1 1 0 0 1 0-2m14 0a1 1 0 1 1 0 2 1 1 0 0 1 0-2m14 0a1 1 0 1 1 0 2 1 1 0 0 1 0-2m14 0a1 1 0 1 1 0 2 1 1 0 0 1 0-2m14 0a1 1 0 1 1 0 2 1 1 0 0 1 0-2m14 0a1 1 0 1 1 0 2 1 1 0 0 1 0-2m14 0a1 1 0 1 1 0 2 1 1 0 0 1 0-2m14 0a1 1 0 1 1 0 2 1 1 0 0 1 0-2m14 0a1 1 0 1 1 0 2 1 1 0 0 1 0-2m14 0a1 1 0 1 1 0 2 1 1 0 0 1 0-2m14 0a1 1 0 1 1 0 2 1 1 0 0 1 0-2m14 0a1 1 0 1 1 0 2 1 1 0 0 1 0-2m14 0a1 1 0 1 1 0 2 1 1 0 0 1 0-2m14 0a1 1 0 1 1 0 2 1 1 0 0 1 0-2m14 0a1 1 0 1 1 0 2 1 1 0 0 1 0-2m14 0a1 1 0 1 1 0 2 1 1 0 0 1 0-2m14 0a1 1 0 1 1 0 2 1 1 0 0 1 0-2m14 0a1 1 0 1 1 0 2 1 1 0 0 1 0-2m14 0a1 1 0 1 1 0 2 1 1 0 0 1 0-2m14 0a1 1 0 1 1 0 2 1 1 0 0 1 0-2m14 0a1 1 0 1 1 0 2 1 1 0 0 1 0-2m14 0a1 1 0 1 1 0 2 1 1 0 0 1 0-2m14 0a1 1 0 1 1 0 2 1 1 0 0 1 0-2m-728-14a1 1 0 1 1 0 2 1 1 0 0 1 0-2m14 0a1 1 0 1 1 0 2 1 1 0 0 1 0-2m14 0a1 1 0 1 1 0 2 1 1 0 0 1 0-2m14 0a1 1 0 1 1 0 2 1 1 0 0 1 0-2m14 0a1 1 0 1 1 0 2 1 1 0 0 1 0-2m14 0a1 1 0 1 1 0 2 1 1 0 0 1 0-2m14 0a1 1 0 1 1 0 2 1 1 0 0 1 0-2m14 0a1 1 0 1 1 0 2 1 1 0 0 1 0-2m14 0a1 1 0 1 1 0 2 1 1 0 0 1 0-2m14 0a1 1 0 1 1 0 2 1 1 0 0 1 0-2m14 0a1 1 0 1 1 0 2 1 1 0 0 1 0-2m14 0a1 1 0 1 1 0 2 1 1 0 0 1 0-2m14 0a1 1 0 1 1 0 2 1 1 0 0 1 0-2m14 0a1 1 0 1 1 0 2 1 1 0 0 1 0-2m14 0a1 1 0 1 1 0 2 1 1 0 0 1 0-2m14 0a1 1 0 1 1 0 2 1 1 0 0 1 0-2m14 0a1 1 0 1 1 0 2 1 1 0 0 1 0-2m14 0a1 1 0 1 1 0 2 1 1 0 0 1 0-2m14 0a1 1 0 1 1 0 2 1 1 0 0 1 0-2m14 0a1 1 0 1 1 0 2 1 1 0 0 1 0-2m14 0a1 1 0 1 1 0 2 1 1 0 0 1 0-2m14 0a1 1 0 1 1 0 2 1 1 0 0 1 0-2m14 0a1 1 0 1 1 0 2 1 1 0 0 1 0-2m14 0a1 1 0 1 1 0 2 1 1 0 0 1 0-2m14 0a1 1 0 1 1 0 2 1 1 0 0 1 0-2m14 0a1 1 0 1 1 0 2 1 1 0 0 1 0-2m14 0a1 1 0 1 1 0 2 1 1 0 0 1 0-2m14 0a1 1 0 1 1 0 2 1 1 0 0 1 0-2m14 0a1 1 0 1 1 0 2 1 1 0 0 1 0-2m14 0a1 1 0 1 1 0 2 1 1 0 0 1 0-2m14 0a1 1 0 1 1 0 2 1 1 0 0 1 0-2m14 0a1 1 0 1 1 0 2 1 1 0 0 1 0-2m14 0a1 1 0 1 1 0 2 1 1 0 0 1 0-2m14 0a1 1 0 1 1 0 2 1 1 0 0 1 0-2m14 0a1 1 0 1 1 0 2 1 1 0 0 1 0-2m14 0a1 1 0 1 1 0 2 1 1 0 0 1 0-2m14 0a1 1 0 1 1 0 2 1 1 0 0 1 0-2m14 0a1 1 0 1 1 0 2 1 1 0 0 1 0-2m14 0a1 1 0 1 1 0 2 1 1 0 0 1 0-2m14 0a1 1 0 1 1 0 2 1 1 0 0 1 0-2m14 0a1 1 0 1 1 0 2 1 1 0 0 1 0-2m14 0a1 1 0 1 1 0 2 1 1 0 0 1 0-2m14 0a1 1 0 1 1 0 2 1 1 0 0 1 0-2m14 0a1 1 0 1 1 0 2 1 1 0 0 1 0-2m14 0a1 1 0 1 1 0 2 1 1 0 0 1 0-2m14 0a1 1 0 1 1 0 2 1 1 0 0 1 0-2m14 0a1 1 0 1 1 0 2 1 1 0 0 1 0-2m14 0a1 1 0 1 1 0 2 1 1 0 0 1 0-2m14 0a1 1 0 1 1 0 2 1 1 0 0 1 0-2m14 0a1 1 0 1 1 0 2 1 1 0 0 1 0-2m14 0a1 1 0 1 1 0 2 1 1 0 0 1 0-2m14 0a1 1 0 1 1 0 2 1 1 0 0 1 0-2m14 0a1 1 0 1 1 0 2 1 1 0 0 1 0-2m-728-14a1 1 0 1 1 0 2 1 1 0 0 1 0-2m14 0a1 1 0 1 1 0 2 1 1 0 0 1 0-2m14 0a1 1 0 1 1 0 2 1 1 0 0 1 0-2m14 0a1 1 0 1 1 0 2 1 1 0 0 1 0-2m14 0a1 1 0 1 1 0 2 1 1 0 0 1 0-2m14 0a1 1 0 1 1 0 2 1 1 0 0 1 0-2m14 0a1 1 0 1 1 0 2 1 1 0 0 1 0-2m14 0a1 1 0 1 1 0 2 1 1 0 0 1 0-2m14 0a1 1 0 1 1 0 2 1 1 0 0 1 0-2m14 0a1 1 0 1 1 0 2 1 1 0 0 1 0-2m14 0a1 1 0 1 1 0 2 1 1 0 0 1 0-2m14 0a1 1 0 1 1 0 2 1 1 0 0 1 0-2m14 0a1 1 0 1 1 0 2 1 1 0 0 1 0-2m14 0a1 1 0 1 1 0 2 1 1 0 0 1 0-2m14 0a1 1 0 1 1 0 2 1 1 0 0 1 0-2m14 0a1 1 0 1 1 0 2 1 1 0 0 1 0-2m14 0a1 1 0 1 1 0 2 1 1 0 0 1 0-2m14 0a1 1 0 1 1 0 2 1 1 0 0 1 0-2m14 0a1 1 0 1 1 0 2 1 1 0 0 1 0-2m14 0a1 1 0 1 1 0 2 1 1 0 0 1 0-2m14 0a1 1 0 1 1 0 2 1 1 0 0 1 0-2m14 0a1 1 0 1 1 0 2 1 1 0 0 1 0-2m14 0a1 1 0 1 1 0 2 1 1 0 0 1 0-2m14 0a1 1 0 1 1 0 2 1 1 0 0 1 0-2m14 0a1 1 0 1 1 0 2 1 1 0 0 1 0-2m14 0a1 1 0 1 1 0 2 1 1 0 0 1 0-2m14 0a1 1 0 1 1 0 2 1 1 0 0 1 0-2m14 0a1 1 0 1 1 0 2 1 1 0 0 1 0-2m14 0a1 1 0 1 1 0 2 1 1 0 0 1 0-2m14 0a1 1 0 1 1 0 2 1 1 0 0 1 0-2m14 0a1 1 0 1 1 0 2 1 1 0 0 1 0-2m14 0a1 1 0 1 1 0 2 1 1 0 0 1 0-2m14 0a1 1 0 1 1 0 2 1 1 0 0 1 0-2m14 0a1 1 0 1 1 0 2 1 1 0 0 1 0-2m14 0a1 1 0 1 1 0 2 1 1 0 0 1 0-2m14 0a1 1 0 1 1 0 2 1 1 0 0 1 0-2m14 0a1 1 0 1 1 0 2 1 1 0 0 1 0-2m14 0a1 1 0 1 1 0 2 1 1 0 0 1 0-2m14 0a1 1 0 1 1 0 2 1 1 0 0 1 0-2m14 0a1 1 0 1 1 0 2 1 1 0 0 1 0-2m14 0a1 1 0 1 1 0 2 1 1 0 0 1 0-2m14 0a1 1 0 1 1 0 2 1 1 0 0 1 0-2m14 0a1 1 0 1 1 0 2 1 1 0 0 1 0-2m14 0a1 1 0 1 1 0 2 1 1 0 0 1 0-2m14 0a1 1 0 1 1 0 2 1 1 0 0 1 0-2m14 0a1 1 0 1 1 0 2 1 1 0 0 1 0-2m14 0a1 1 0 1 1 0 2 1 1 0 0 1 0-2m14 0a1 1 0 1 1 0 2 1 1 0 0 1 0-2m14 0a1 1 0 1 1 0 2 1 1 0 0 1 0-2m14 0a1 1 0 1 1 0 2 1 1 0 0 1 0-2m14 0a1 1 0 1 1 0 2 1 1 0 0 1 0-2m14 0a1 1 0 1 1 0 2 1 1 0 0 1 0-2m14 0a1 1 0 1 1 0 2 1 1 0 0 1 0-2m-728-14a1 1 0 1 1 0 2 1 1 0 0 1 0-2m14 0a1 1 0 1 1 0 2 1 1 0 0 1 0-2m14 0a1 1 0 1 1 0 2 1 1 0 0 1 0-2m14 0a1 1 0 1 1 0 2 1 1 0 0 1 0-2m14 0a1 1 0 1 1 0 2 1 1 0 0 1 0-2m14 0a1 1 0 1 1 0 2 1 1 0 0 1 0-2m14 0a1 1 0 1 1 0 2 1 1 0 0 1 0-2m14 0a1 1 0 1 1 0 2 1 1 0 0 1 0-2m14 0a1 1 0 1 1 0 2 1 1 0 0 1 0-2m14 0a1 1 0 1 1 0 2 1 1 0 0 1 0-2m14 0a1 1 0 1 1 0 2 1 1 0 0 1 0-2m14 0a1 1 0 1 1 0 2 1 1 0 0 1 0-2m14 0a1 1 0 1 1 0 2 1 1 0 0 1 0-2m14 0a1 1 0 1 1 0 2 1 1 0 0 1 0-2m14 0a1 1 0 1 1 0 2 1 1 0 0 1 0-2m14 0a1 1 0 1 1 0 2 1 1 0 0 1 0-2m14 0a1 1 0 1 1 0 2 1 1 0 0 1 0-2m14 0a1 1 0 1 1 0 2 1 1 0 0 1 0-2m14 0a1 1 0 1 1 0 2 1 1 0 0 1 0-2m14 0a1 1 0 1 1 0 2 1 1 0 0 1 0-2m14 0a1 1 0 1 1 0 2 1 1 0 0 1 0-2m14 0a1 1 0 1 1 0 2 1 1 0 0 1 0-2m14 0a1 1 0 1 1 0 2 1 1 0 0 1 0-2m14 0a1 1 0 1 1 0 2 1 1 0 0 1 0-2m14 0a1 1 0 1 1 0 2 1 1 0 0 1 0-2m14 0a1 1 0 1 1 0 2 1 1 0 0 1 0-2m14 0a1 1 0 1 1 0 2 1 1 0 0 1 0-2m14 0a1 1 0 1 1 0 2 1 1 0 0 1 0-2m14 0a1 1 0 1 1 0 2 1 1 0 0 1 0-2m14 0a1 1 0 1 1 0 2 1 1 0 0 1 0-2m14 0a1 1 0 1 1 0 2 1 1 0 0 1 0-2m14 0a1 1 0 1 1 0 2 1 1 0 0 1 0-2m14 0a1 1 0 1 1 0 2 1 1 0 0 1 0-2m14 0a1 1 0 1 1 0 2 1 1 0 0 1 0-2m14 0a1 1 0 1 1 0 2 1 1 0 0 1 0-2m14 0a1 1 0 1 1 0 2 1 1 0 0 1 0-2m14 0a1 1 0 1 1 0 2 1 1 0 0 1 0-2m14 0a1 1 0 1 1 0 2 1 1 0 0 1 0-2m14 0a1 1 0 1 1 0 2 1 1 0 0 1 0-2m14 0a1 1 0 1 1 0 2 1 1 0 0 1 0-2m14 0a1 1 0 1 1 0 2 1 1 0 0 1 0-2m14 0a1 1 0 1 1 0 2 1 1 0 0 1 0-2m14 0a1 1 0 1 1 0 2 1 1 0 0 1 0-2m14 0a1 1 0 1 1 0 2 1 1 0 0 1 0-2m14 0a1 1 0 1 1 0 2 1 1 0 0 1 0-2m14 0a1 1 0 1 1 0 2 1 1 0 0 1 0-2m14 0a1 1 0 1 1 0 2 1 1 0 0 1 0-2m14 0a1 1 0 1 1 0 2 1 1 0 0 1 0-2m14 0a1 1 0 1 1 0 2 1 1 0 0 1 0-2m14 0a1 1 0 1 1 0 2 1 1 0 0 1 0-2m14 0a1 1 0 1 1 0 2 1 1 0 0 1 0-2m14 0a1 1 0 1 1 0 2 1 1 0 0 1 0-2m14 0a1 1 0 1 1 0 2 1 1 0 0 1 0-2m-728-14a1 1 0 1 1 0 2 1 1 0 0 1 0-2m14 0a1 1 0 1 1 0 2 1 1 0 0 1 0-2m14 0a1 1 0 1 1 0 2 1 1 0 0 1 0-2m14 0a1 1 0 1 1 0 2 1 1 0 0 1 0-2m14 0a1 1 0 1 1 0 2 1 1 0 0 1 0-2m14 0a1 1 0 1 1 0 2 1 1 0 0 1 0-2m14 0a1 1 0 1 1 0 2 1 1 0 0 1 0-2m14 0a1 1 0 1 1 0 2 1 1 0 0 1 0-2m14 0a1 1 0 1 1 0 2 1 1 0 0 1 0-2m14 0a1 1 0 1 1 0 2 1 1 0 0 1 0-2m14 0a1 1 0 1 1 0 2 1 1 0 0 1 0-2m14 0a1 1 0 1 1 0 2 1 1 0 0 1 0-2m14 0a1 1 0 1 1 0 2 1 1 0 0 1 0-2m14 0a1 1 0 1 1 0 2 1 1 0 0 1 0-2m14 0a1 1 0 1 1 0 2 1 1 0 0 1 0-2m14 0a1 1 0 1 1 0 2 1 1 0 0 1 0-2m14 0a1 1 0 1 1 0 2 1 1 0 0 1 0-2m14 0a1 1 0 1 1 0 2 1 1 0 0 1 0-2m14 0a1 1 0 1 1 0 2 1 1 0 0 1 0-2m14 0a1 1 0 1 1 0 2 1 1 0 0 1 0-2m14 0a1 1 0 1 1 0 2 1 1 0 0 1 0-2m14 0a1 1 0 1 1 0 2 1 1 0 0 1 0-2m14 0a1 1 0 1 1 0 2 1 1 0 0 1 0-2m14 0a1 1 0 1 1 0 2 1 1 0 0 1 0-2m14 0a1 1 0 1 1 0 2 1 1 0 0 1 0-2m14 0a1 1 0 1 1 0 2 1 1 0 0 1 0-2m14 0a1 1 0 1 1 0 2 1 1 0 0 1 0-2m14 0a1 1 0 1 1 0 2 1 1 0 0 1 0-2m14 0a1 1 0 1 1 0 2 1 1 0 0 1 0-2m14 0a1 1 0 1 1 0 2 1 1 0 0 1 0-2m14 0a1 1 0 1 1 0 2 1 1 0 0 1 0-2m14 0a1 1 0 1 1 0 2 1 1 0 0 1 0-2m14 0a1 1 0 1 1 0 2 1 1 0 0 1 0-2m14 0a1 1 0 1 1 0 2 1 1 0 0 1 0-2m14 0a1 1 0 1 1 0 2 1 1 0 0 1 0-2m14 0a1 1 0 1 1 0 2 1 1 0 0 1 0-2m14 0a1 1 0 1 1 0 2 1 1 0 0 1 0-2m14 0a1 1 0 1 1 0 2 1 1 0 0 1 0-2m14 0a1 1 0 1 1 0 2 1 1 0 0 1 0-2m14 0a1 1 0 1 1 0 2 1 1 0 0 1 0-2m14 0a1 1 0 1 1 0 2 1 1 0 0 1 0-2m14 0a1 1 0 1 1 0 2 1 1 0 0 1 0-2m14 0a1 1 0 1 1 0 2 1 1 0 0 1 0-2m14 0a1 1 0 1 1 0 2 1 1 0 0 1 0-2m14 0a1 1 0 1 1 0 2 1 1 0 0 1 0-2m14 0a1 1 0 1 1 0 2 1 1 0 0 1 0-2m14 0a1 1 0 1 1 0 2 1 1 0 0 1 0-2m14 0a1 1 0 1 1 0 2 1 1 0 0 1 0-2m14 0a1 1 0 1 1 0 2 1 1 0 0 1 0-2m14 0a1 1 0 1 1 0 2 1 1 0 0 1 0-2m14 0a1 1 0 1 1 0 2 1 1 0 0 1 0-2m14 0a1 1 0 1 1 0 2 1 1 0 0 1 0-2m14 0a1 1 0 1 1 0 2 1 1 0 0 1 0-2m-728-14a1 1 0 1 1 0 2 1 1 0 0 1 0-2m14 0a1 1 0 1 1 0 2 1 1 0 0 1 0-2m14 0a1 1 0 1 1 0 2 1 1 0 0 1 0-2m14 0a1 1 0 1 1 0 2 1 1 0 0 1 0-2m14 0a1 1 0 1 1 0 2 1 1 0 0 1 0-2m14 0a1 1 0 1 1 0 2 1 1 0 0 1 0-2m14 0a1 1 0 1 1 0 2 1 1 0 0 1 0-2m14 0a1 1 0 1 1 0 2 1 1 0 0 1 0-2m14 0a1 1 0 1 1 0 2 1 1 0 0 1 0-2m14 0a1 1 0 1 1 0 2 1 1 0 0 1 0-2m14 0a1 1 0 1 1 0 2 1 1 0 0 1 0-2m14 0a1 1 0 1 1 0 2 1 1 0 0 1 0-2m14 0a1 1 0 1 1 0 2 1 1 0 0 1 0-2m14 0a1 1 0 1 1 0 2 1 1 0 0 1 0-2m14 0a1 1 0 1 1 0 2 1 1 0 0 1 0-2m14 0a1 1 0 1 1 0 2 1 1 0 0 1 0-2m14 0a1 1 0 1 1 0 2 1 1 0 0 1 0-2m14 0a1 1 0 1 1 0 2 1 1 0 0 1 0-2m14 0a1 1 0 1 1 0 2 1 1 0 0 1 0-2m14 0a1 1 0 1 1 0 2 1 1 0 0 1 0-2m14 0a1 1 0 1 1 0 2 1 1 0 0 1 0-2m14 0a1 1 0 1 1 0 2 1 1 0 0 1 0-2m14 0a1 1 0 1 1 0 2 1 1 0 0 1 0-2m14 0a1 1 0 1 1 0 2 1 1 0 0 1 0-2m14 0a1 1 0 1 1 0 2 1 1 0 0 1 0-2m14 0a1 1 0 1 1 0 2 1 1 0 0 1 0-2m14 0a1 1 0 1 1 0 2 1 1 0 0 1 0-2m14 0a1 1 0 1 1 0 2 1 1 0 0 1 0-2m14 0a1 1 0 1 1 0 2 1 1 0 0 1 0-2m14 0a1 1 0 1 1 0 2 1 1 0 0 1 0-2m14 0a1 1 0 1 1 0 2 1 1 0 0 1 0-2m14 0a1 1 0 1 1 0 2 1 1 0 0 1 0-2m14 0a1 1 0 1 1 0 2 1 1 0 0 1 0-2m14 0a1 1 0 1 1 0 2 1 1 0 0 1 0-2m14 0a1 1 0 1 1 0 2 1 1 0 0 1 0-2m14 0a1 1 0 1 1 0 2 1 1 0 0 1 0-2m14 0a1 1 0 1 1 0 2 1 1 0 0 1 0-2m14 0a1 1 0 1 1 0 2 1 1 0 0 1 0-2m14 0a1 1 0 1 1 0 2 1 1 0 0 1 0-2m14 0a1 1 0 1 1 0 2 1 1 0 0 1 0-2m14 0a1 1 0 1 1 0 2 1 1 0 0 1 0-2m14 0a1 1 0 1 1 0 2 1 1 0 0 1 0-2m14 0a1 1 0 1 1 0 2 1 1 0 0 1 0-2m14 0a1 1 0 1 1 0 2 1 1 0 0 1 0-2m14 0a1 1 0 1 1 0 2 1 1 0 0 1 0-2m14 0a1 1 0 1 1 0 2 1 1 0 0 1 0-2m14 0a1 1 0 1 1 0 2 1 1 0 0 1 0-2m14 0a1 1 0 1 1 0 2 1 1 0 0 1 0-2m14 0a1 1 0 1 1 0 2 1 1 0 0 1 0-2m14 0a1 1 0 1 1 0 2 1 1 0 0 1 0-2m14 0a1 1 0 1 1 0 2 1 1 0 0 1 0-2m14 0a1 1 0 1 1 0 2 1 1 0 0 1 0-2m14 0a1 1 0 1 1 0 2 1 1 0 0 1 0-2m-728-14a1 1 0 1 1 0 2 1 1 0 0 1 0-2m14 0a1 1 0 1 1 0 2 1 1 0 0 1 0-2m14 0a1 1 0 1 1 0 2 1 1 0 0 1 0-2m14 0a1 1 0 1 1 0 2 1 1 0 0 1 0-2m14 0a1 1 0 1 1 0 2 1 1 0 0 1 0-2m14 0a1 1 0 1 1 0 2 1 1 0 0 1 0-2m14 0a1 1 0 1 1 0 2 1 1 0 0 1 0-2m14 0a1 1 0 1 1 0 2 1 1 0 0 1 0-2m14 0a1 1 0 1 1 0 2 1 1 0 0 1 0-2m14 0a1 1 0 1 1 0 2 1 1 0 0 1 0-2m14 0a1 1 0 1 1 0 2 1 1 0 0 1 0-2m14 0a1 1 0 1 1 0 2 1 1 0 0 1 0-2m14 0a1 1 0 1 1 0 2 1 1 0 0 1 0-2m14 0a1 1 0 1 1 0 2 1 1 0 0 1 0-2m14 0a1 1 0 1 1 0 2 1 1 0 0 1 0-2m14 0a1 1 0 1 1 0 2 1 1 0 0 1 0-2m14 0a1 1 0 1 1 0 2 1 1 0 0 1 0-2m14 0a1 1 0 1 1 0 2 1 1 0 0 1 0-2m14 0a1 1 0 1 1 0 2 1 1 0 0 1 0-2m14 0a1 1 0 1 1 0 2 1 1 0 0 1 0-2m14 0a1 1 0 1 1 0 2 1 1 0 0 1 0-2m14 0a1 1 0 1 1 0 2 1 1 0 0 1 0-2m14 0a1 1 0 1 1 0 2 1 1 0 0 1 0-2m14 0a1 1 0 1 1 0 2 1 1 0 0 1 0-2m14 0a1 1 0 1 1 0 2 1 1 0 0 1 0-2m14 0a1 1 0 1 1 0 2 1 1 0 0 1 0-2m14 0a1 1 0 1 1 0 2 1 1 0 0 1 0-2m14 0a1 1 0 1 1 0 2 1 1 0 0 1 0-2m14 0a1 1 0 1 1 0 2 1 1 0 0 1 0-2m14 0a1 1 0 1 1 0 2 1 1 0 0 1 0-2m14 0a1 1 0 1 1 0 2 1 1 0 0 1 0-2m14 0a1 1 0 1 1 0 2 1 1 0 0 1 0-2m14 0a1 1 0 1 1 0 2 1 1 0 0 1 0-2m14 0a1 1 0 1 1 0 2 1 1 0 0 1 0-2m14 0a1 1 0 1 1 0 2 1 1 0 0 1 0-2m14 0a1 1 0 1 1 0 2 1 1 0 0 1 0-2m14 0a1 1 0 1 1 0 2 1 1 0 0 1 0-2m14 0a1 1 0 1 1 0 2 1 1 0 0 1 0-2m14 0a1 1 0 1 1 0 2 1 1 0 0 1 0-2m14 0a1 1 0 1 1 0 2 1 1 0 0 1 0-2m14 0a1 1 0 1 1 0 2 1 1 0 0 1 0-2m14 0a1 1 0 1 1 0 2 1 1 0 0 1 0-2m14 0a1 1 0 1 1 0 2 1 1 0 0 1 0-2m14 0a1 1 0 1 1 0 2 1 1 0 0 1 0-2m14 0a1 1 0 1 1 0 2 1 1 0 0 1 0-2m14 0a1 1 0 1 1 0 2 1 1 0 0 1 0-2m14 0a1 1 0 1 1 0 2 1 1 0 0 1 0-2m14 0a1 1 0 1 1 0 2 1 1 0 0 1 0-2m14 0a1 1 0 1 1 0 2 1 1 0 0 1 0-2m14 0a1 1 0 1 1 0 2 1 1 0 0 1 0-2m14 0a1 1 0 1 1 0 2 1 1 0 0 1 0-2m14 0a1 1 0 1 1 0 2 1 1 0 0 1 0-2m14 0a1 1 0 1 1 0 2 1 1 0 0 1 0-2m-728-14a1 1 0 1 1 0 2 1 1 0 0 1 0-2m14 0a1 1 0 1 1 0 2 1 1 0 0 1 0-2m14 0a1 1 0 1 1 0 2 1 1 0 0 1 0-2m14 0a1 1 0 1 1 0 2 1 1 0 0 1 0-2m14 0a1 1 0 1 1 0 2 1 1 0 0 1 0-2m14 0a1 1 0 1 1 0 2 1 1 0 0 1 0-2m14 0a1 1 0 1 1 0 2 1 1 0 0 1 0-2m14 0a1 1 0 1 1 0 2 1 1 0 0 1 0-2m14 0a1 1 0 1 1 0 2 1 1 0 0 1 0-2m14 0a1 1 0 1 1 0 2 1 1 0 0 1 0-2m14 0a1 1 0 1 1 0 2 1 1 0 0 1 0-2m14 0a1 1 0 1 1 0 2 1 1 0 0 1 0-2m14 0a1 1 0 1 1 0 2 1 1 0 0 1 0-2m14 0a1 1 0 1 1 0 2 1 1 0 0 1 0-2m14 0a1 1 0 1 1 0 2 1 1 0 0 1 0-2m14 0a1 1 0 1 1 0 2 1 1 0 0 1 0-2m14 0a1 1 0 1 1 0 2 1 1 0 0 1 0-2m14 0a1 1 0 1 1 0 2 1 1 0 0 1 0-2m14 0a1 1 0 1 1 0 2 1 1 0 0 1 0-2m14 0a1 1 0 1 1 0 2 1 1 0 0 1 0-2m14 0a1 1 0 1 1 0 2 1 1 0 0 1 0-2m14 0a1 1 0 1 1 0 2 1 1 0 0 1 0-2m14 0a1 1 0 1 1 0 2 1 1 0 0 1 0-2m14 0a1 1 0 1 1 0 2 1 1 0 0 1 0-2m14 0a1 1 0 1 1 0 2 1 1 0 0 1 0-2m14 0a1 1 0 1 1 0 2 1 1 0 0 1 0-2m14 0a1 1 0 1 1 0 2 1 1 0 0 1 0-2m14 0a1 1 0 1 1 0 2 1 1 0 0 1 0-2m14 0a1 1 0 1 1 0 2 1 1 0 0 1 0-2m14 0a1 1 0 1 1 0 2 1 1 0 0 1 0-2m14 0a1 1 0 1 1 0 2 1 1 0 0 1 0-2m14 0a1 1 0 1 1 0 2 1 1 0 0 1 0-2m14 0a1 1 0 1 1 0 2 1 1 0 0 1 0-2m14 0a1 1 0 1 1 0 2 1 1 0 0 1 0-2m14 0a1 1 0 1 1 0 2 1 1 0 0 1 0-2m14 0a1 1 0 1 1 0 2 1 1 0 0 1 0-2m14 0a1 1 0 1 1 0 2 1 1 0 0 1 0-2m14 0a1 1 0 1 1 0 2 1 1 0 0 1 0-2m14 0a1 1 0 1 1 0 2 1 1 0 0 1 0-2m14 0a1 1 0 1 1 0 2 1 1 0 0 1 0-2m14 0a1 1 0 1 1 0 2 1 1 0 0 1 0-2m14 0a1 1 0 1 1 0 2 1 1 0 0 1 0-2m14 0a1 1 0 1 1 0 2 1 1 0 0 1 0-2m14 0a1 1 0 1 1 0 2 1 1 0 0 1 0-2m14 0a1 1 0 1 1 0 2 1 1 0 0 1 0-2m14 0a1 1 0 1 1 0 2 1 1 0 0 1 0-2m14 0a1 1 0 1 1 0 2 1 1 0 0 1 0-2m14 0a1 1 0 1 1 0 2 1 1 0 0 1 0-2m14 0a1 1 0 1 1 0 2 1 1 0 0 1 0-2m14 0a1 1 0 1 1 0 2 1 1 0 0 1 0-2m14 0a1 1 0 1 1 0 2 1 1 0 0 1 0-2m14 0a1 1 0 1 1 0 2 1 1 0 0 1 0-2m14 0a1 1 0 1 1 0 2 1 1 0 0 1 0-2m-728-14a1 1 0 1 1 0 2 1 1 0 0 1 0-2m14 0a1 1 0 1 1 0 2 1 1 0 0 1 0-2m14 0a1 1 0 1 1 0 2 1 1 0 0 1 0-2m14 0a1 1 0 1 1 0 2 1 1 0 0 1 0-2m14 0a1 1 0 1 1 0 2 1 1 0 0 1 0-2m14 0a1 1 0 1 1 0 2 1 1 0 0 1 0-2m14 0a1 1 0 1 1 0 2 1 1 0 0 1 0-2m14 0a1 1 0 1 1 0 2 1 1 0 0 1 0-2m14 0a1 1 0 1 1 0 2 1 1 0 0 1 0-2m14 0a1 1 0 1 1 0 2 1 1 0 0 1 0-2m14 0a1 1 0 1 1 0 2 1 1 0 0 1 0-2m14 0a1 1 0 1 1 0 2 1 1 0 0 1 0-2m14 0a1 1 0 1 1 0 2 1 1 0 0 1 0-2m14 0a1 1 0 1 1 0 2 1 1 0 0 1 0-2m14 0a1 1 0 1 1 0 2 1 1 0 0 1 0-2m14 0a1 1 0 1 1 0 2 1 1 0 0 1 0-2m14 0a1 1 0 1 1 0 2 1 1 0 0 1 0-2m14 0a1 1 0 1 1 0 2 1 1 0 0 1 0-2m14 0a1 1 0 1 1 0 2 1 1 0 0 1 0-2m14 0a1 1 0 1 1 0 2 1 1 0 0 1 0-2m14 0a1 1 0 1 1 0 2 1 1 0 0 1 0-2m14 0a1 1 0 1 1 0 2 1 1 0 0 1 0-2m14 0a1 1 0 1 1 0 2 1 1 0 0 1 0-2m14 0a1 1 0 1 1 0 2 1 1 0 0 1 0-2m14 0a1 1 0 1 1 0 2 1 1 0 0 1 0-2m14 0a1 1 0 1 1 0 2 1 1 0 0 1 0-2m14 0a1 1 0 1 1 0 2 1 1 0 0 1 0-2m14 0a1 1 0 1 1 0 2 1 1 0 0 1 0-2m14 0a1 1 0 1 1 0 2 1 1 0 0 1 0-2m14 0a1 1 0 1 1 0 2 1 1 0 0 1 0-2m14 0a1 1 0 1 1 0 2 1 1 0 0 1 0-2m14 0a1 1 0 1 1 0 2 1 1 0 0 1 0-2m14 0a1 1 0 1 1 0 2 1 1 0 0 1 0-2m14 0a1 1 0 1 1 0 2 1 1 0 0 1 0-2m14 0a1 1 0 1 1 0 2 1 1 0 0 1 0-2m14 0a1 1 0 1 1 0 2 1 1 0 0 1 0-2m14 0a1 1 0 1 1 0 2 1 1 0 0 1 0-2m14 0a1 1 0 1 1 0 2 1 1 0 0 1 0-2m14 0a1 1 0 1 1 0 2 1 1 0 0 1 0-2m14 0a1 1 0 1 1 0 2 1 1 0 0 1 0-2m14 0a1 1 0 1 1 0 2 1 1 0 0 1 0-2m14 0a1 1 0 1 1 0 2 1 1 0 0 1 0-2m14 0a1 1 0 1 1 0 2 1 1 0 0 1 0-2m14 0a1 1 0 1 1 0 2 1 1 0 0 1 0-2m14 0a1 1 0 1 1 0 2 1 1 0 0 1 0-2m14 0a1 1 0 1 1 0 2 1 1 0 0 1 0-2m14 0a1 1 0 1 1 0 2 1 1 0 0 1 0-2m14 0a1 1 0 1 1 0 2 1 1 0 0 1 0-2m14 0a1 1 0 1 1 0 2 1 1 0 0 1 0-2m14 0a1 1 0 1 1 0 2 1 1 0 0 1 0-2m14 0a1 1 0 1 1 0 2 1 1 0 0 1 0-2m14 0a1 1 0 1 1 0 2 1 1 0 0 1 0-2m14 0a1 1 0 1 1 0 2 1 1 0 0 1 0-2m-728-14a1 1 0 1 1 0 2 1 1 0 0 1 0-2m14 0a1 1 0 1 1 0 2 1 1 0 0 1 0-2m14 0a1 1 0 1 1 0 2 1 1 0 0 1 0-2m14 0a1 1 0 1 1 0 2 1 1 0 0 1 0-2m14 0a1 1 0 1 1 0 2 1 1 0 0 1 0-2m14 0a1 1 0 1 1 0 2 1 1 0 0 1 0-2m14 0a1 1 0 1 1 0 2 1 1 0 0 1 0-2m14 0a1 1 0 1 1 0 2 1 1 0 0 1 0-2m14 0a1 1 0 1 1 0 2 1 1 0 0 1 0-2m14 0a1 1 0 1 1 0 2 1 1 0 0 1 0-2m14 0a1 1 0 1 1 0 2 1 1 0 0 1 0-2m14 0a1 1 0 1 1 0 2 1 1 0 0 1 0-2m14 0a1 1 0 1 1 0 2 1 1 0 0 1 0-2m14 0a1 1 0 1 1 0 2 1 1 0 0 1 0-2m14 0a1 1 0 1 1 0 2 1 1 0 0 1 0-2m14 0a1 1 0 1 1 0 2 1 1 0 0 1 0-2m14 0a1 1 0 1 1 0 2 1 1 0 0 1 0-2m14 0a1 1 0 1 1 0 2 1 1 0 0 1 0-2m14 0a1 1 0 1 1 0 2 1 1 0 0 1 0-2m14 0a1 1 0 1 1 0 2 1 1 0 0 1 0-2m14 0a1 1 0 1 1 0 2 1 1 0 0 1 0-2m14 0a1 1 0 1 1 0 2 1 1 0 0 1 0-2m14 0a1 1 0 1 1 0 2 1 1 0 0 1 0-2m14 0a1 1 0 1 1 0 2 1 1 0 0 1 0-2m14 0a1 1 0 1 1 0 2 1 1 0 0 1 0-2m14 0a1 1 0 1 1 0 2 1 1 0 0 1 0-2m14 0a1 1 0 1 1 0 2 1 1 0 0 1 0-2m14 0a1 1 0 1 1 0 2 1 1 0 0 1 0-2m14 0a1 1 0 1 1 0 2 1 1 0 0 1 0-2m14 0a1 1 0 1 1 0 2 1 1 0 0 1 0-2m14 0a1 1 0 1 1 0 2 1 1 0 0 1 0-2m14 0a1 1 0 1 1 0 2 1 1 0 0 1 0-2m14 0a1 1 0 1 1 0 2 1 1 0 0 1 0-2m14 0a1 1 0 1 1 0 2 1 1 0 0 1 0-2m14 0a1 1 0 1 1 0 2 1 1 0 0 1 0-2m14 0a1 1 0 1 1 0 2 1 1 0 0 1 0-2m14 0a1 1 0 1 1 0 2 1 1 0 0 1 0-2m14 0a1 1 0 1 1 0 2 1 1 0 0 1 0-2m14 0a1 1 0 1 1 0 2 1 1 0 0 1 0-2m14 0a1 1 0 1 1 0 2 1 1 0 0 1 0-2m14 0a1 1 0 1 1 0 2 1 1 0 0 1 0-2m14 0a1 1 0 1 1 0 2 1 1 0 0 1 0-2m14 0a1 1 0 1 1 0 2 1 1 0 0 1 0-2m14 0a1 1 0 1 1 0 2 1 1 0 0 1 0-2m14 0a1 1 0 1 1 0 2 1 1 0 0 1 0-2m14 0a1 1 0 1 1 0 2 1 1 0 0 1 0-2m14 0a1 1 0 1 1 0 2 1 1 0 0 1 0-2m14 0a1 1 0 1 1 0 2 1 1 0 0 1 0-2m14 0a1 1 0 1 1 0 2 1 1 0 0 1 0-2m14 0a1 1 0 1 1 0 2 1 1 0 0 1 0-2m14 0a1 1 0 1 1 0 2 1 1 0 0 1 0-2m14 0a1 1 0 1 1 0 2 1 1 0 0 1 0-2m14 0a1 1 0 1 1 0 2 1 1 0 0 1 0-2m-728-14a1 1 0 1 1 0 2 1 1 0 0 1 0-2m14 0a1 1 0 1 1 0 2 1 1 0 0 1 0-2m14 0a1 1 0 1 1 0 2 1 1 0 0 1 0-2m14 0a1 1 0 1 1 0 2 1 1 0 0 1 0-2m14 0a1 1 0 1 1 0 2 1 1 0 0 1 0-2m14 0a1 1 0 1 1 0 2 1 1 0 0 1 0-2m14 0a1 1 0 1 1 0 2 1 1 0 0 1 0-2m14 0a1 1 0 1 1 0 2 1 1 0 0 1 0-2m14 0a1 1 0 1 1 0 2 1 1 0 0 1 0-2m14 0a1 1 0 1 1 0 2 1 1 0 0 1 0-2m14 0a1 1 0 1 1 0 2 1 1 0 0 1 0-2m14 0a1 1 0 1 1 0 2 1 1 0 0 1 0-2m14 0a1 1 0 1 1 0 2 1 1 0 0 1 0-2m14 0a1 1 0 1 1 0 2 1 1 0 0 1 0-2m14 0a1 1 0 1 1 0 2 1 1 0 0 1 0-2m14 0a1 1 0 1 1 0 2 1 1 0 0 1 0-2m14 0a1 1 0 1 1 0 2 1 1 0 0 1 0-2m14 0a1 1 0 1 1 0 2 1 1 0 0 1 0-2m14 0a1 1 0 1 1 0 2 1 1 0 0 1 0-2m14 0a1 1 0 1 1 0 2 1 1 0 0 1 0-2m14 0a1 1 0 1 1 0 2 1 1 0 0 1 0-2m14 0a1 1 0 1 1 0 2 1 1 0 0 1 0-2m14 0a1 1 0 1 1 0 2 1 1 0 0 1 0-2m14 0a1 1 0 1 1 0 2 1 1 0 0 1 0-2m14 0a1 1 0 1 1 0 2 1 1 0 0 1 0-2m14 0a1 1 0 1 1 0 2 1 1 0 0 1 0-2m14 0a1 1 0 1 1 0 2 1 1 0 0 1 0-2m14 0a1 1 0 1 1 0 2 1 1 0 0 1 0-2m14 0a1 1 0 1 1 0 2 1 1 0 0 1 0-2m14 0a1 1 0 1 1 0 2 1 1 0 0 1 0-2m14 0a1 1 0 1 1 0 2 1 1 0 0 1 0-2m14 0a1 1 0 1 1 0 2 1 1 0 0 1 0-2m14 0a1 1 0 1 1 0 2 1 1 0 0 1 0-2m14 0a1 1 0 1 1 0 2 1 1 0 0 1 0-2m14 0a1 1 0 1 1 0 2 1 1 0 0 1 0-2m14 0a1 1 0 1 1 0 2 1 1 0 0 1 0-2m14 0a1 1 0 1 1 0 2 1 1 0 0 1 0-2m14 0a1 1 0 1 1 0 2 1 1 0 0 1 0-2m14 0a1 1 0 1 1 0 2 1 1 0 0 1 0-2m14 0a1 1 0 1 1 0 2 1 1 0 0 1 0-2m14 0a1 1 0 1 1 0 2 1 1 0 0 1 0-2m14 0a1 1 0 1 1 0 2 1 1 0 0 1 0-2m14 0a1 1 0 1 1 0 2 1 1 0 0 1 0-2m14 0a1 1 0 1 1 0 2 1 1 0 0 1 0-2m14 0a1 1 0 1 1 0 2 1 1 0 0 1 0-2m14 0a1 1 0 1 1 0 2 1 1 0 0 1 0-2m14 0a1 1 0 1 1 0 2 1 1 0 0 1 0-2m14 0a1 1 0 1 1 0 2 1 1 0 0 1 0-2m14 0a1 1 0 1 1 0 2 1 1 0 0 1 0-2m14 0a1 1 0 1 1 0 2 1 1 0 0 1 0-2m14 0a1 1 0 1 1 0 2 1 1 0 0 1 0-2m14 0a1 1 0 1 1 0 2 1 1 0 0 1 0-2m14 0a1 1 0 1 1 0 2 1 1 0 0 1 0-2m-728-14a1 1 0 1 1 0 2 1 1 0 0 1 0-2m14 0a1 1 0 1 1 0 2 1 1 0 0 1 0-2m14 0a1 1 0 1 1 0 2 1 1 0 0 1 0-2m14 0a1 1 0 1 1 0 2 1 1 0 0 1 0-2m14 0a1 1 0 1 1 0 2 1 1 0 0 1 0-2m14 0a1 1 0 1 1 0 2 1 1 0 0 1 0-2m14 0a1 1 0 1 1 0 2 1 1 0 0 1 0-2m14 0a1 1 0 1 1 0 2 1 1 0 0 1 0-2m14 0a1 1 0 1 1 0 2 1 1 0 0 1 0-2m14 0a1 1 0 1 1 0 2 1 1 0 0 1 0-2m14 0a1 1 0 1 1 0 2 1 1 0 0 1 0-2m14 0a1 1 0 1 1 0 2 1 1 0 0 1 0-2m14 0a1 1 0 1 1 0 2 1 1 0 0 1 0-2m14 0a1 1 0 1 1 0 2 1 1 0 0 1 0-2m14 0a1 1 0 1 1 0 2 1 1 0 0 1 0-2m14 0a1 1 0 1 1 0 2 1 1 0 0 1 0-2m14 0a1 1 0 1 1 0 2 1 1 0 0 1 0-2m14 0a1 1 0 1 1 0 2 1 1 0 0 1 0-2m14 0a1 1 0 1 1 0 2 1 1 0 0 1 0-2m14 0a1 1 0 1 1 0 2 1 1 0 0 1 0-2m14 0a1 1 0 1 1 0 2 1 1 0 0 1 0-2m14 0a1 1 0 1 1 0 2 1 1 0 0 1 0-2m14 0a1 1 0 1 1 0 2 1 1 0 0 1 0-2m14 0a1 1 0 1 1 0 2 1 1 0 0 1 0-2m14 0a1 1 0 1 1 0 2 1 1 0 0 1 0-2m14 0a1 1 0 1 1 0 2 1 1 0 0 1 0-2m14 0a1 1 0 1 1 0 2 1 1 0 0 1 0-2m14 0a1 1 0 1 1 0 2 1 1 0 0 1 0-2m14 0a1 1 0 1 1 0 2 1 1 0 0 1 0-2m14 0a1 1 0 1 1 0 2 1 1 0 0 1 0-2m14 0a1 1 0 1 1 0 2 1 1 0 0 1 0-2m14 0a1 1 0 1 1 0 2 1 1 0 0 1 0-2m14 0a1 1 0 1 1 0 2 1 1 0 0 1 0-2m14 0a1 1 0 1 1 0 2 1 1 0 0 1 0-2m14 0a1 1 0 1 1 0 2 1 1 0 0 1 0-2m14 0a1 1 0 1 1 0 2 1 1 0 0 1 0-2m14 0a1 1 0 1 1 0 2 1 1 0 0 1 0-2m14 0a1 1 0 1 1 0 2 1 1 0 0 1 0-2m14 0a1 1 0 1 1 0 2 1 1 0 0 1 0-2m14 0a1 1 0 1 1 0 2 1 1 0 0 1 0-2m14 0a1 1 0 1 1 0 2 1 1 0 0 1 0-2m14 0a1 1 0 1 1 0 2 1 1 0 0 1 0-2m14 0a1 1 0 1 1 0 2 1 1 0 0 1 0-2m14 0a1 1 0 1 1 0 2 1 1 0 0 1 0-2m14 0a1 1 0 1 1 0 2 1 1 0 0 1 0-2m14 0a1 1 0 1 1 0 2 1 1 0 0 1 0-2m14 0a1 1 0 1 1 0 2 1 1 0 0 1 0-2m14 0a1 1 0 1 1 0 2 1 1 0 0 1 0-2m14 0a1 1 0 1 1 0 2 1 1 0 0 1 0-2m14 0a1 1 0 1 1 0 2 1 1 0 0 1 0-2m14 0a1 1 0 1 1 0 2 1 1 0 0 1 0-2m14 0a1 1 0 1 1 0 2 1 1 0 0 1 0-2m14 0a1 1 0 1 1 0 2 1 1 0 0 1 0-2M-11 86a1 1 0 1 1 0 2 1 1 0 0 1 0-2m14 0a1 1 0 1 1 0 2 1 1 0 0 1 0-2m14 0a1 1 0 1 1 0 2 1 1 0 0 1 0-2m14 0a1 1 0 1 1 0 2 1 1 0 0 1 0-2m14 0a1 1 0 1 1 0 2 1 1 0 0 1 0-2m14 0a1 1 0 1 1 0 2 1 1 0 0 1 0-2m14 0a1 1 0 1 1 0 2 1 1 0 0 1 0-2m14 0a1 1 0 1 1 0 2 1 1 0 0 1 0-2m14 0a1 1 0 1 1 0 2 1 1 0 0 1 0-2m14 0a1 1 0 1 1 0 2 1 1 0 0 1 0-2m14 0a1 1 0 1 1 0 2 1 1 0 0 1 0-2m14 0a1 1 0 1 1 0 2 1 1 0 0 1 0-2m14 0a1 1 0 1 1 0 2 1 1 0 0 1 0-2m14 0a1 1 0 1 1 0 2 1 1 0 0 1 0-2m14 0a1 1 0 1 1 0 2 1 1 0 0 1 0-2m14 0a1 1 0 1 1 0 2 1 1 0 0 1 0-2m14 0a1 1 0 1 1 0 2 1 1 0 0 1 0-2m14 0a1 1 0 1 1 0 2 1 1 0 0 1 0-2m14 0a1 1 0 1 1 0 2 1 1 0 0 1 0-2m14 0a1 1 0 1 1 0 2 1 1 0 0 1 0-2m14 0a1 1 0 1 1 0 2 1 1 0 0 1 0-2m14 0a1 1 0 1 1 0 2 1 1 0 0 1 0-2m14 0a1 1 0 1 1 0 2 1 1 0 0 1 0-2m14 0a1 1 0 1 1 0 2 1 1 0 0 1 0-2m14 0a1 1 0 1 1 0 2 1 1 0 0 1 0-2m14 0a1 1 0 1 1 0 2 1 1 0 0 1 0-2m14 0a1 1 0 1 1 0 2 1 1 0 0 1 0-2m14 0a1 1 0 1 1 0 2 1 1 0 0 1 0-2m14 0a1 1 0 1 1 0 2 1 1 0 0 1 0-2m14 0a1 1 0 1 1 0 2 1 1 0 0 1 0-2m14 0a1 1 0 1 1 0 2 1 1 0 0 1 0-2m14 0a1 1 0 1 1 0 2 1 1 0 0 1 0-2m14 0a1 1 0 1 1 0 2 1 1 0 0 1 0-2m14 0a1 1 0 1 1 0 2 1 1 0 0 1 0-2m14 0a1 1 0 1 1 0 2 1 1 0 0 1 0-2m14 0a1 1 0 1 1 0 2 1 1 0 0 1 0-2m14 0a1 1 0 1 1 0 2 1 1 0 0 1 0-2m14 0a1 1 0 1 1 0 2 1 1 0 0 1 0-2m14 0a1 1 0 1 1 0 2 1 1 0 0 1 0-2m14 0a1 1 0 1 1 0 2 1 1 0 0 1 0-2m14 0a1 1 0 1 1 0 2 1 1 0 0 1 0-2m14 0a1 1 0 1 1 0 2 1 1 0 0 1 0-2m14 0a1 1 0 1 1 0 2 1 1 0 0 1 0-2m14 0a1 1 0 1 1 0 2 1 1 0 0 1 0-2m14 0a1 1 0 1 1 0 2 1 1 0 0 1 0-2m14 0a1 1 0 1 1 0 2 1 1 0 0 1 0-2m14 0a1 1 0 1 1 0 2 1 1 0 0 1 0-2m14 0a1 1 0 1 1 0 2 1 1 0 0 1 0-2m14 0a1 1 0 1 1 0 2 1 1 0 0 1 0-2m14 0a1 1 0 1 1 0 2 1 1 0 0 1 0-2m14 0a1 1 0 1 1 0 2 1 1 0 0 1 0-2m14 0a1 1 0 1 1 0 2 1 1 0 0 1 0-2m14 0a1 1 0 1 1 0 2 1 1 0 0 1 0-2M-11 72a1 1 0 1 1 0 2 1 1 0 0 1 0-2m14 0a1 1 0 1 1 0 2 1 1 0 0 1 0-2m14 0a1 1 0 1 1 0 2 1 1 0 0 1 0-2m14 0a1 1 0 1 1 0 2 1 1 0 0 1 0-2m14 0a1 1 0 1 1 0 2 1 1 0 0 1 0-2m14 0a1 1 0 1 1 0 2 1 1 0 0 1 0-2m14 0a1 1 0 1 1 0 2 1 1 0 0 1 0-2m14 0a1 1 0 1 1 0 2 1 1 0 0 1 0-2m14 0a1 1 0 1 1 0 2 1 1 0 0 1 0-2m14 0a1 1 0 1 1 0 2 1 1 0 0 1 0-2m14 0a1 1 0 1 1 0 2 1 1 0 0 1 0-2m14 0a1 1 0 1 1 0 2 1 1 0 0 1 0-2m14 0a1 1 0 1 1 0 2 1 1 0 0 1 0-2m14 0a1 1 0 1 1 0 2 1 1 0 0 1 0-2m14 0a1 1 0 1 1 0 2 1 1 0 0 1 0-2m14 0a1 1 0 1 1 0 2 1 1 0 0 1 0-2m14 0a1 1 0 1 1 0 2 1 1 0 0 1 0-2m14 0a1 1 0 1 1 0 2 1 1 0 0 1 0-2m14 0a1 1 0 1 1 0 2 1 1 0 0 1 0-2m14 0a1 1 0 1 1 0 2 1 1 0 0 1 0-2m14 0a1 1 0 1 1 0 2 1 1 0 0 1 0-2m14 0a1 1 0 1 1 0 2 1 1 0 0 1 0-2m14 0a1 1 0 1 1 0 2 1 1 0 0 1 0-2m14 0a1 1 0 1 1 0 2 1 1 0 0 1 0-2m14 0a1 1 0 1 1 0 2 1 1 0 0 1 0-2m14 0a1 1 0 1 1 0 2 1 1 0 0 1 0-2m14 0a1 1 0 1 1 0 2 1 1 0 0 1 0-2m14 0a1 1 0 1 1 0 2 1 1 0 0 1 0-2m14 0a1 1 0 1 1 0 2 1 1 0 0 1 0-2m14 0a1 1 0 1 1 0 2 1 1 0 0 1 0-2m14 0a1 1 0 1 1 0 2 1 1 0 0 1 0-2m14 0a1 1 0 1 1 0 2 1 1 0 0 1 0-2m14 0a1 1 0 1 1 0 2 1 1 0 0 1 0-2m14 0a1 1 0 1 1 0 2 1 1 0 0 1 0-2m14 0a1 1 0 1 1 0 2 1 1 0 0 1 0-2m14 0a1 1 0 1 1 0 2 1 1 0 0 1 0-2m14 0a1 1 0 1 1 0 2 1 1 0 0 1 0-2m14 0a1 1 0 1 1 0 2 1 1 0 0 1 0-2m14 0a1 1 0 1 1 0 2 1 1 0 0 1 0-2m14 0a1 1 0 1 1 0 2 1 1 0 0 1 0-2m14 0a1 1 0 1 1 0 2 1 1 0 0 1 0-2m14 0a1 1 0 1 1 0 2 1 1 0 0 1 0-2m14 0a1 1 0 1 1 0 2 1 1 0 0 1 0-2m14 0a1 1 0 1 1 0 2 1 1 0 0 1 0-2m14 0a1 1 0 1 1 0 2 1 1 0 0 1 0-2m14 0a1 1 0 1 1 0 2 1 1 0 0 1 0-2m14 0a1 1 0 1 1 0 2 1 1 0 0 1 0-2m14 0a1 1 0 1 1 0 2 1 1 0 0 1 0-2m14 0a1 1 0 1 1 0 2 1 1 0 0 1 0-2m14 0a1 1 0 1 1 0 2 1 1 0 0 1 0-2m14 0a1 1 0 1 1 0 2 1 1 0 0 1 0-2m14 0a1 1 0 1 1 0 2 1 1 0 0 1 0-2m14 0a1 1 0 1 1 0 2 1 1 0 0 1 0-2M-11 58a1 1 0 1 1 0 2 1 1 0 0 1 0-2m14 0a1 1 0 1 1 0 2 1 1 0 0 1 0-2m14 0a1 1 0 1 1 0 2 1 1 0 0 1 0-2m14 0a1 1 0 1 1 0 2 1 1 0 0 1 0-2m14 0a1 1 0 1 1 0 2 1 1 0 0 1 0-2m14 0a1 1 0 1 1 0 2 1 1 0 0 1 0-2m14 0a1 1 0 1 1 0 2 1 1 0 0 1 0-2m14 0a1 1 0 1 1 0 2 1 1 0 0 1 0-2m14 0a1 1 0 1 1 0 2 1 1 0 0 1 0-2m14 0a1 1 0 1 1 0 2 1 1 0 0 1 0-2m14 0a1 1 0 1 1 0 2 1 1 0 0 1 0-2m14 0a1 1 0 1 1 0 2 1 1 0 0 1 0-2m14 0a1 1 0 1 1 0 2 1 1 0 0 1 0-2m14 0a1 1 0 1 1 0 2 1 1 0 0 1 0-2m14 0a1 1 0 1 1 0 2 1 1 0 0 1 0-2m14 0a1 1 0 1 1 0 2 1 1 0 0 1 0-2m14 0a1 1 0 1 1 0 2 1 1 0 0 1 0-2m14 0a1 1 0 1 1 0 2 1 1 0 0 1 0-2m14 0a1 1 0 1 1 0 2 1 1 0 0 1 0-2m14 0a1 1 0 1 1 0 2 1 1 0 0 1 0-2m14 0a1 1 0 1 1 0 2 1 1 0 0 1 0-2m14 0a1 1 0 1 1 0 2 1 1 0 0 1 0-2m14 0a1 1 0 1 1 0 2 1 1 0 0 1 0-2m14 0a1 1 0 1 1 0 2 1 1 0 0 1 0-2m14 0a1 1 0 1 1 0 2 1 1 0 0 1 0-2m14 0a1 1 0 1 1 0 2 1 1 0 0 1 0-2m14 0a1 1 0 1 1 0 2 1 1 0 0 1 0-2m14 0a1 1 0 1 1 0 2 1 1 0 0 1 0-2m14 0a1 1 0 1 1 0 2 1 1 0 0 1 0-2m14 0a1 1 0 1 1 0 2 1 1 0 0 1 0-2m14 0a1 1 0 1 1 0 2 1 1 0 0 1 0-2m14 0a1 1 0 1 1 0 2 1 1 0 0 1 0-2m14 0a1 1 0 1 1 0 2 1 1 0 0 1 0-2m14 0a1 1 0 1 1 0 2 1 1 0 0 1 0-2m14 0a1 1 0 1 1 0 2 1 1 0 0 1 0-2m14 0a1 1 0 1 1 0 2 1 1 0 0 1 0-2m14 0a1 1 0 1 1 0 2 1 1 0 0 1 0-2m14 0a1 1 0 1 1 0 2 1 1 0 0 1 0-2m14 0a1 1 0 1 1 0 2 1 1 0 0 1 0-2m14 0a1 1 0 1 1 0 2 1 1 0 0 1 0-2m14 0a1 1 0 1 1 0 2 1 1 0 0 1 0-2m14 0a1 1 0 1 1 0 2 1 1 0 0 1 0-2m14 0a1 1 0 1 1 0 2 1 1 0 0 1 0-2m14 0a1 1 0 1 1 0 2 1 1 0 0 1 0-2m14 0a1 1 0 1 1 0 2 1 1 0 0 1 0-2m14 0a1 1 0 1 1 0 2 1 1 0 0 1 0-2m14 0a1 1 0 1 1 0 2 1 1 0 0 1 0-2m14 0a1 1 0 1 1 0 2 1 1 0 0 1 0-2m14 0a1 1 0 1 1 0 2 1 1 0 0 1 0-2m14 0a1 1 0 1 1 0 2 1 1 0 0 1 0-2m14 0a1 1 0 1 1 0 2 1 1 0 0 1 0-2m14 0a1 1 0 1 1 0 2 1 1 0 0 1 0-2m14 0a1 1 0 1 1 0 2 1 1 0 0 1 0-2M-11 44a1 1 0 1 1 0 2 1 1 0 0 1 0-2m14 0a1 1 0 1 1 0 2 1 1 0 0 1 0-2m14 0a1 1 0 1 1 0 2 1 1 0 0 1 0-2m14 0a1 1 0 1 1 0 2 1 1 0 0 1 0-2m14 0a1 1 0 1 1 0 2 1 1 0 0 1 0-2m14 0a1 1 0 1 1 0 2 1 1 0 0 1 0-2m14 0a1 1 0 1 1 0 2 1 1 0 0 1 0-2m14 0a1 1 0 1 1 0 2 1 1 0 0 1 0-2m14 0a1 1 0 1 1 0 2 1 1 0 0 1 0-2m14 0a1 1 0 1 1 0 2 1 1 0 0 1 0-2m14 0a1 1 0 1 1 0 2 1 1 0 0 1 0-2m14 0a1 1 0 1 1 0 2 1 1 0 0 1 0-2m14 0a1 1 0 1 1 0 2 1 1 0 0 1 0-2m14 0a1 1 0 1 1 0 2 1 1 0 0 1 0-2m14 0a1 1 0 1 1 0 2 1 1 0 0 1 0-2m14 0a1 1 0 1 1 0 2 1 1 0 0 1 0-2m14 0a1 1 0 1 1 0 2 1 1 0 0 1 0-2m14 0a1 1 0 1 1 0 2 1 1 0 0 1 0-2m14 0a1 1 0 1 1 0 2 1 1 0 0 1 0-2m14 0a1 1 0 1 1 0 2 1 1 0 0 1 0-2m14 0a1 1 0 1 1 0 2 1 1 0 0 1 0-2m14 0a1 1 0 1 1 0 2 1 1 0 0 1 0-2m14 0a1 1 0 1 1 0 2 1 1 0 0 1 0-2m14 0a1 1 0 1 1 0 2 1 1 0 0 1 0-2m14 0a1 1 0 1 1 0 2 1 1 0 0 1 0-2m14 0a1 1 0 1 1 0 2 1 1 0 0 1 0-2m14 0a1 1 0 1 1 0 2 1 1 0 0 1 0-2m14 0a1 1 0 1 1 0 2 1 1 0 0 1 0-2m14 0a1 1 0 1 1 0 2 1 1 0 0 1 0-2m14 0a1 1 0 1 1 0 2 1 1 0 0 1 0-2m14 0a1 1 0 1 1 0 2 1 1 0 0 1 0-2m14 0a1 1 0 1 1 0 2 1 1 0 0 1 0-2m14 0a1 1 0 1 1 0 2 1 1 0 0 1 0-2m14 0a1 1 0 1 1 0 2 1 1 0 0 1 0-2m14 0a1 1 0 1 1 0 2 1 1 0 0 1 0-2m14 0a1 1 0 1 1 0 2 1 1 0 0 1 0-2m14 0a1 1 0 1 1 0 2 1 1 0 0 1 0-2m14 0a1 1 0 1 1 0 2 1 1 0 0 1 0-2m14 0a1 1 0 1 1 0 2 1 1 0 0 1 0-2m14 0a1 1 0 1 1 0 2 1 1 0 0 1 0-2m14 0a1 1 0 1 1 0 2 1 1 0 0 1 0-2m14 0a1 1 0 1 1 0 2 1 1 0 0 1 0-2m14 0a1 1 0 1 1 0 2 1 1 0 0 1 0-2m14 0a1 1 0 1 1 0 2 1 1 0 0 1 0-2m14 0a1 1 0 1 1 0 2 1 1 0 0 1 0-2m14 0a1 1 0 1 1 0 2 1 1 0 0 1 0-2m14 0a1 1 0 1 1 0 2 1 1 0 0 1 0-2m14 0a1 1 0 1 1 0 2 1 1 0 0 1 0-2m14 0a1 1 0 1 1 0 2 1 1 0 0 1 0-2m14 0a1 1 0 1 1 0 2 1 1 0 0 1 0-2m14 0a1 1 0 1 1 0 2 1 1 0 0 1 0-2m14 0a1 1 0 1 1 0 2 1 1 0 0 1 0-2m14 0a1 1 0 1 1 0 2 1 1 0 0 1 0-2M-11 30a1 1 0 1 1 0 2 1 1 0 0 1 0-2m14 0a1 1 0 1 1 0 2 1 1 0 0 1 0-2m14 0a1 1 0 1 1 0 2 1 1 0 0 1 0-2m14 0a1 1 0 1 1 0 2 1 1 0 0 1 0-2m14 0a1 1 0 1 1 0 2 1 1 0 0 1 0-2m14 0a1 1 0 1 1 0 2 1 1 0 0 1 0-2m14 0a1 1 0 1 1 0 2 1 1 0 0 1 0-2m14 0a1 1 0 1 1 0 2 1 1 0 0 1 0-2m14 0a1 1 0 1 1 0 2 1 1 0 0 1 0-2m14 0a1 1 0 1 1 0 2 1 1 0 0 1 0-2m14 0a1 1 0 1 1 0 2 1 1 0 0 1 0-2m14 0a1 1 0 1 1 0 2 1 1 0 0 1 0-2m14 0a1 1 0 1 1 0 2 1 1 0 0 1 0-2m14 0a1 1 0 1 1 0 2 1 1 0 0 1 0-2m14 0a1 1 0 1 1 0 2 1 1 0 0 1 0-2m14 0a1 1 0 1 1 0 2 1 1 0 0 1 0-2m14 0a1 1 0 1 1 0 2 1 1 0 0 1 0-2m14 0a1 1 0 1 1 0 2 1 1 0 0 1 0-2m14 0a1 1 0 1 1 0 2 1 1 0 0 1 0-2m14 0a1 1 0 1 1 0 2 1 1 0 0 1 0-2m14 0a1 1 0 1 1 0 2 1 1 0 0 1 0-2m14 0a1 1 0 1 1 0 2 1 1 0 0 1 0-2m14 0a1 1 0 1 1 0 2 1 1 0 0 1 0-2m14 0a1 1 0 1 1 0 2 1 1 0 0 1 0-2m14 0a1 1 0 1 1 0 2 1 1 0 0 1 0-2m14 0a1 1 0 1 1 0 2 1 1 0 0 1 0-2m14 0a1 1 0 1 1 0 2 1 1 0 0 1 0-2m14 0a1 1 0 1 1 0 2 1 1 0 0 1 0-2m14 0a1 1 0 1 1 0 2 1 1 0 0 1 0-2m14 0a1 1 0 1 1 0 2 1 1 0 0 1 0-2m14 0a1 1 0 1 1 0 2 1 1 0 0 1 0-2m14 0a1 1 0 1 1 0 2 1 1 0 0 1 0-2m14 0a1 1 0 1 1 0 2 1 1 0 0 1 0-2m14 0a1 1 0 1 1 0 2 1 1 0 0 1 0-2m14 0a1 1 0 1 1 0 2 1 1 0 0 1 0-2m14 0a1 1 0 1 1 0 2 1 1 0 0 1 0-2m14 0a1 1 0 1 1 0 2 1 1 0 0 1 0-2m14 0a1 1 0 1 1 0 2 1 1 0 0 1 0-2m14 0a1 1 0 1 1 0 2 1 1 0 0 1 0-2m14 0a1 1 0 1 1 0 2 1 1 0 0 1 0-2m14 0a1 1 0 1 1 0 2 1 1 0 0 1 0-2m14 0a1 1 0 1 1 0 2 1 1 0 0 1 0-2m14 0a1 1 0 1 1 0 2 1 1 0 0 1 0-2m14 0a1 1 0 1 1 0 2 1 1 0 0 1 0-2m14 0a1 1 0 1 1 0 2 1 1 0 0 1 0-2m14 0a1 1 0 1 1 0 2 1 1 0 0 1 0-2m14 0a1 1 0 1 1 0 2 1 1 0 0 1 0-2m14 0a1 1 0 1 1 0 2 1 1 0 0 1 0-2m14 0a1 1 0 1 1 0 2 1 1 0 0 1 0-2m14 0a1 1 0 1 1 0 2 1 1 0 0 1 0-2m14 0a1 1 0 1 1 0 2 1 1 0 0 1 0-2m14 0a1 1 0 1 1 0 2 1 1 0 0 1 0-2m14 0a1 1 0 1 1 0 2 1 1 0 0 1 0-2M-11 16a1 1 0 1 1 0 2 1 1 0 0 1 0-2m14 0a1 1 0 1 1 0 2 1 1 0 0 1 0-2m14 0a1 1 0 1 1 0 2 1 1 0 0 1 0-2m14 0a1 1 0 1 1 0 2 1 1 0 0 1 0-2m14 0a1 1 0 1 1 0 2 1 1 0 0 1 0-2m14 0a1 1 0 1 1 0 2 1 1 0 0 1 0-2m14 0a1 1 0 1 1 0 2 1 1 0 0 1 0-2m14 0a1 1 0 1 1 0 2 1 1 0 0 1 0-2m14 0a1 1 0 1 1 0 2 1 1 0 0 1 0-2m14 0a1 1 0 1 1 0 2 1 1 0 0 1 0-2m14 0a1 1 0 1 1 0 2 1 1 0 0 1 0-2m14 0a1 1 0 1 1 0 2 1 1 0 0 1 0-2m14 0a1 1 0 1 1 0 2 1 1 0 0 1 0-2m14 0a1 1 0 1 1 0 2 1 1 0 0 1 0-2m14 0a1 1 0 1 1 0 2 1 1 0 0 1 0-2m14 0a1 1 0 1 1 0 2 1 1 0 0 1 0-2m14 0a1 1 0 1 1 0 2 1 1 0 0 1 0-2m14 0a1 1 0 1 1 0 2 1 1 0 0 1 0-2m14 0a1 1 0 1 1 0 2 1 1 0 0 1 0-2m14 0a1 1 0 1 1 0 2 1 1 0 0 1 0-2m14 0a1 1 0 1 1 0 2 1 1 0 0 1 0-2m14 0a1 1 0 1 1 0 2 1 1 0 0 1 0-2m14 0a1 1 0 1 1 0 2 1 1 0 0 1 0-2m14 0a1 1 0 1 1 0 2 1 1 0 0 1 0-2m14 0a1 1 0 1 1 0 2 1 1 0 0 1 0-2m14 0a1 1 0 1 1 0 2 1 1 0 0 1 0-2m14 0a1 1 0 1 1 0 2 1 1 0 0 1 0-2m14 0a1 1 0 1 1 0 2 1 1 0 0 1 0-2m14 0a1 1 0 1 1 0 2 1 1 0 0 1 0-2m14 0a1 1 0 1 1 0 2 1 1 0 0 1 0-2m14 0a1 1 0 1 1 0 2 1 1 0 0 1 0-2m14 0a1 1 0 1 1 0 2 1 1 0 0 1 0-2m14 0a1 1 0 1 1 0 2 1 1 0 0 1 0-2m14 0a1 1 0 1 1 0 2 1 1 0 0 1 0-2m14 0a1 1 0 1 1 0 2 1 1 0 0 1 0-2m14 0a1 1 0 1 1 0 2 1 1 0 0 1 0-2m14 0a1 1 0 1 1 0 2 1 1 0 0 1 0-2m14 0a1 1 0 1 1 0 2 1 1 0 0 1 0-2m14 0a1 1 0 1 1 0 2 1 1 0 0 1 0-2m14 0a1 1 0 1 1 0 2 1 1 0 0 1 0-2m14 0a1 1 0 1 1 0 2 1 1 0 0 1 0-2m14 0a1 1 0 1 1 0 2 1 1 0 0 1 0-2m14 0a1 1 0 1 1 0 2 1 1 0 0 1 0-2m14 0a1 1 0 1 1 0 2 1 1 0 0 1 0-2m14 0a1 1 0 1 1 0 2 1 1 0 0 1 0-2m14 0a1 1 0 1 1 0 2 1 1 0 0 1 0-2m14 0a1 1 0 1 1 0 2 1 1 0 0 1 0-2m14 0a1 1 0 1 1 0 2 1 1 0 0 1 0-2m14 0a1 1 0 1 1 0 2 1 1 0 0 1 0-2m14 0a1 1 0 1 1 0 2 1 1 0 0 1 0-2m14 0a1 1 0 1 1 0 2 1 1 0 0 1 0-2m14 0a1 1 0 1 1 0 2 1 1 0 0 1 0-2m14 0a1 1 0 1 1 0 2 1 1 0 0 1 0-2M-11 2a1 1 0 1 1 0 2 1 1 0 0 1 0-2M3 2a1 1 0 1 1 0 2 1 1 0 0 1 0-2m14 0a1 1 0 1 1 0 2 1 1 0 0 1 0-2m14 0a1 1 0 1 1 0 2 1 1 0 0 1 0-2m14 0a1 1 0 1 1 0 2 1 1 0 0 1 0-2m14 0a1 1 0 1 1 0 2 1 1 0 0 1 0-2m14 0a1 1 0 1 1 0 2 1 1 0 0 1 0-2m14 0a1 1 0 1 1 0 2 1 1 0 0 1 0-2m14 0a1 1 0 1 1 0 2 1 1 0 0 1 0-2m14 0a1 1 0 1 1 0 2 1 1 0 0 1 0-2m14 0a1 1 0 1 1 0 2 1 1 0 0 1 0-2m14 0a1 1 0 1 1 0 2 1 1 0 0 1 0-2m14 0a1 1 0 1 1 0 2 1 1 0 0 1 0-2m14 0a1 1 0 1 1 0 2 1 1 0 0 1 0-2m14 0a1 1 0 1 1 0 2 1 1 0 0 1 0-2m14 0a1 1 0 1 1 0 2 1 1 0 0 1 0-2m14 0a1 1 0 1 1 0 2 1 1 0 0 1 0-2m14 0a1 1 0 1 1 0 2 1 1 0 0 1 0-2m14 0a1 1 0 1 1 0 2 1 1 0 0 1 0-2m14 0a1 1 0 1 1 0 2 1 1 0 0 1 0-2m14 0a1 1 0 1 1 0 2 1 1 0 0 1 0-2m14 0a1 1 0 1 1 0 2 1 1 0 0 1 0-2m14 0a1 1 0 1 1 0 2 1 1 0 0 1 0-2m14 0a1 1 0 1 1 0 2 1 1 0 0 1 0-2m14 0a1 1 0 1 1 0 2 1 1 0 0 1 0-2m14 0a1 1 0 1 1 0 2 1 1 0 0 1 0-2m14 0a1 1 0 1 1 0 2 1 1 0 0 1 0-2m14 0a1 1 0 1 1 0 2 1 1 0 0 1 0-2m14 0a1 1 0 1 1 0 2 1 1 0 0 1 0-2m14 0a1 1 0 1 1 0 2 1 1 0 0 1 0-2m14 0a1 1 0 1 1 0 2 1 1 0 0 1 0-2m14 0a1 1 0 1 1 0 2 1 1 0 0 1 0-2m14 0a1 1 0 1 1 0 2 1 1 0 0 1 0-2m14 0a1 1 0 1 1 0 2 1 1 0 0 1 0-2m14 0a1 1 0 1 1 0 2 1 1 0 0 1 0-2m14 0a1 1 0 1 1 0 2 1 1 0 0 1 0-2m14 0a1 1 0 1 1 0 2 1 1 0 0 1 0-2m14 0a1 1 0 1 1 0 2 1 1 0 0 1 0-2m14 0a1 1 0 1 1 0 2 1 1 0 0 1 0-2m14 0a1 1 0 1 1 0 2 1 1 0 0 1 0-2m14 0a1 1 0 1 1 0 2 1 1 0 0 1 0-2m14 0a1 1 0 1 1 0 2 1 1 0 0 1 0-2m14 0a1 1 0 1 1 0 2 1 1 0 0 1 0-2m14 0a1 1 0 1 1 0 2 1 1 0 0 1 0-2m14 0a1 1 0 1 1 0 2 1 1 0 0 1 0-2m14 0a1 1 0 1 1 0 2 1 1 0 0 1 0-2m14 0a1 1 0 1 1 0 2 1 1 0 0 1 0-2m14 0a1 1 0 1 1 0 2 1 1 0 0 1 0-2m14 0a1 1 0 1 1 0 2 1 1 0 0 1 0-2m14 0a1 1 0 1 1 0 2 1 1 0 0 1 0-2m14 0a1 1 0 1 1 0 2 1 1 0 0 1 0-2m14 0a1 1 0 1 1 0 2 1 1 0 0 1 0-2m14 0a1 1 0 1 1 0 2 1 1 0 0 1 0-2"/></g><rect width="645.5" height="105.5" x="35.25" y="150.25" fill="#3369ff" fill-opacity=".04" rx="3.75"/><rect width="645.5" height="105.5" x="35.25" y="150.25" stroke="#3369ff" stroke-dasharray="6 6" stroke-width=".5" rx="3.75"/><rect width="110.5" height="15.5" x="47.25" y="142.25" fill="#171d4f" rx="1.75"/><rect width="110.5" height="15.5" x="47.25" y="142.25" stroke="#3369ff" stroke-width=".5" rx="1.75"/><path fill="#fff" d="m53.248 154-2.053-7.273h1.417l1.31 5.345h.068l1.4-5.345h1.288l1.403 5.348h.064l1.31-5.348h1.417L58.82 154h-1.3l-1.456-5.103h-.057L54.547 154zm8.48 0v-5.455h1.286V154zm.647-6.229a.75.75 0 0 1-.525-.202.65.65 0 0 1-.22-.494q0-.29.22-.493a.74.74 0 0 1 .525-.206q.309 0 .526.206.22.202.22.493a.65.65 0 0 1-.22.494.74.74 0 0 1-.526.202m4.685.774v.995h-3.136v-.995zm-2.362-1.306h1.286v5.12q0 .26.078.398.083.135.213.185a.8.8 0 0 0 .291.049q.12 0 .22-.017.104-.018.157-.032l.216 1.005a2.5 2.5 0 0 1-.756.128 2.1 2.1 0 0 1-.87-.146 1.36 1.36 0 0 1-.614-.504q-.225-.342-.22-.853zm4.84 3.565V154h-1.286v-7.273h1.257v2.745h.064q.192-.46.593-.728.406-.27 1.03-.27.569 0 .991.238t.653.696q.235.459.235 1.119V154h-1.286v-3.274q0-.55-.284-.856-.28-.309-.788-.309-.34 0-.611.149a1.04 1.04 0 0 0-.419.423q-.15.276-.15.671M76.922 154v-7.273h2.728q.837 0 1.406.313.572.313.863.859.294.543.295 1.236 0 .7-.295 1.243a2.1 2.1 0 0 1-.87.856q-.576.309-1.417.309h-1.808v-1.083h1.63q.49 0 .803-.171.312-.17.462-.469.152-.298.152-.685t-.152-.682a1.04 1.04 0 0 0-.466-.458q-.312-.167-.806-.167H78.24V154zm6.436 0v-7.273h2.727q.838 0 1.407.291.57.292.862.817.295.522.295 1.218 0 .7-.298 1.215a1.97 1.97 0 0 1-.87.792q-.576.276-1.413.277h-1.943v-1.094h1.765q.49 0 .802-.135a.95.95 0 0 0 .462-.401q.153-.267.153-.654t-.153-.66a.97.97 0 0 0-.465-.419q-.312-.146-.806-.146h-1.208V154zm3.757-3.295 1.8 3.295h-1.47l-1.768-3.295zm9.245-.341q0 1.174-.44 2.013a3.1 3.1 0 0 1-1.193 1.279 3.3 3.3 0 0 1-1.708.443 3.3 3.3 0 0 1-1.712-.443 3.2 3.2 0 0 1-1.193-1.282q-.437-.839-.437-2.01 0-1.176.437-2.01a3.14 3.14 0 0 1 1.193-1.282 3.3 3.3 0 0 1 1.712-.444q.955 0 1.708.444.756.444 1.193 1.282.44.834.44 2.01m-1.324 0q0-.828-.26-1.396-.255-.572-.71-.863a1.9 1.9 0 0 0-1.047-.295q-.593 0-1.048.295-.454.291-.714.863-.255.568-.255 1.396 0 .827.255 1.399.26.568.714.863a1.9 1.9 0 0 0 1.048.291 1.9 1.9 0 0 0 1.047-.291q.455-.295.71-.863.26-.572.26-1.399m3.407-3.637 1.602 2.664h.057l1.608-2.664h1.502l-2.24 3.637 2.276 3.636h-1.527l-1.619-2.646h-.057L98.425 154h-1.52l2.298-3.636-2.27-3.637zm5.306 0h1.488l1.78 3.218h.071l1.779-3.218h1.488l-2.646 4.56V154h-1.314v-2.713zM113.768 154v-7.273h2.727q.839 0 1.407.313.571.313.863.859.294.543.294 1.236 0 .7-.294 1.243a2.1 2.1 0 0 1-.87.856q-.576.309-1.417.309h-1.808v-1.083h1.63q.49 0 .803-.171.312-.17.461-.469a1.5 1.5 0 0 0 .153-.685q0-.387-.153-.682a1.04 1.04 0 0 0-.465-.458q-.312-.167-.806-.167h-1.207V154zm6.379 0v-5.455h1.246v.91h.057a1.36 1.36 0 0 1 1.346-.988q.106 0 .238.011.135.007.224.025v1.182a1.4 1.4 0 0 0-.26-.049 2 2 0 0 0-.337-.025 1.3 1.3 0 0 0-.632.152q-.277.15-.437.416-.16.267-.16.614V154zm6.119.107q-.798 0-1.385-.352a2.4 2.4 0 0 1-.909-.984q-.32-.632-.319-1.477 0-.845.319-1.481.324-.636.909-.987.587-.352 1.385-.352.8 0 1.385.352.587.351.906.987.323.636.323 1.481t-.323 1.477q-.32.633-.906.984-.585.352-1.385.352m.007-1.03q.434 0 .725-.238.29-.242.433-.647.146-.404.146-.902 0-.5-.146-.905a1.44 1.44 0 0 0-.433-.65 1.1 1.1 0 0 0-.725-.241q-.443 0-.738.241a1.46 1.46 0 0 0-.437.65q-.142.405-.142.905 0 .498.142.902.146.405.437.647.295.238.738.238m6.422-4.532v.995h-3.136v-.995zm-2.362-1.306h1.286v5.12q0 .26.078.398.081.135.213.185a.8.8 0 0 0 .291.049q.121 0 .22-.017.103-.018.157-.032l.216 1.005a2.5 2.5 0 0 1-.756.128 2.1 2.1 0 0 1-.87-.146 1.36 1.36 0 0 1-.615-.504q-.223-.342-.22-.853zm5.758 6.868q-.8 0-1.385-.352a2.4 2.4 0 0 1-.909-.984q-.32-.632-.32-1.477t.32-1.481q.323-.636.909-.987.585-.352 1.385-.352.798 0 1.384.352.587.351.906.987.323.636.323 1.481t-.323 1.477q-.32.633-.906.984-.585.352-1.384.352m.007-1.03q.433 0 .724-.238.291-.242.433-.647.146-.404.146-.902 0-.5-.146-.905a1.43 1.43 0 0 0-.433-.65 1.1 1.1 0 0 0-.724-.241q-.444 0-.739.241a1.46 1.46 0 0 0-.437.65 2.7 2.7 0 0 0-.142.905q0 .498.142.902.146.405.437.647.295.238.739.238m6.077 1.03q-.818 0-1.403-.359a2.4 2.4 0 0 1-.899-.991q-.312-.635-.312-1.463 0-.831.32-1.467.32-.639.901-.994.587-.359 1.385-.359.665 0 1.176.245.515.242.82.686.306.44.348 1.03h-1.229a1.17 1.17 0 0 0-.355-.657q-.276-.267-.742-.267a1.16 1.16 0 0 0-.692.213q-.299.21-.465.604a2.5 2.5 0 0 0-.164.945q0 .557.164.959.162.397.458.614.298.213.699.213.285 0 .508-.107.227-.11.38-.316t.209-.5h1.229a2.14 2.14 0 0 1-.341 1.026 2 2 0 0 1-.802.696q-.509.249-1.193.249m5.771 0q-.799 0-1.385-.352a2.4 2.4 0 0 1-.909-.984q-.32-.632-.32-1.477t.32-1.481q.323-.636.909-.987.586-.352 1.385-.352t1.385.352q.586.351.906.987.323.636.323 1.481t-.323 1.477q-.32.633-.906.984-.586.352-1.385.352m.007-1.03q.433 0 .725-.238.29-.242.433-.647.145-.404.145-.902 0-.5-.145-.905a1.44 1.44 0 0 0-.433-.65 1.1 1.1 0 0 0-.725-.241q-.444 0-.739.241a1.46 1.46 0 0 0-.436.65q-.142.405-.142.905 0 .498.142.902.145.405.436.647.295.238.739.238m4.983-6.35V154h-1.285v-7.273z"/><rect width="645.5" height="103.5" x="35.25" y="24.25" fill="#3369ff" fill-opacity=".04" rx="3.75"/><rect width="645.5" height="103.5" x="35.25" y="24.25" stroke="#3369ff" stroke-dasharray="6 6" stroke-width=".5" rx="3.75"/><rect width="126.5" height="15.5" x="47.25" y="16.25" fill="#171d4f" rx="1.75"/><rect width="126.5" height="15.5" x="47.25" y="16.25" stroke="#3369ff" stroke-width=".5" rx="1.75"/><path fill="#fff" d="m53.248 28-2.053-7.273h1.417l1.31 5.345h.068l1.4-5.345h1.288l1.403 5.348h.064l1.31-5.348h1.417L58.82 28h-1.3l-1.456-5.103h-.057L54.547 28zm8.48 0v-5.454h1.286V28zm.647-6.229a.75.75 0 0 1-.525-.202.65.65 0 0 1-.22-.494q0-.29.22-.493a.74.74 0 0 1 .525-.206q.309 0 .526.206.22.203.22.493a.65.65 0 0 1-.22.494.74.74 0 0 1-.526.202m4.685.774v.995h-3.136v-.994zm-2.362-1.306h1.286v5.12q0 .26.078.398.083.135.213.185.132.05.291.05.12 0 .22-.018.104-.018.157-.032l.216 1.005a2.4 2.4 0 0 1-.756.128q-.483.013-.87-.146a1.35 1.35 0 0 1-.614-.504q-.225-.342-.22-.853zm4.84 3.565V28h-1.286v-7.273h1.257v2.745h.064q.192-.462.593-.728.406-.27 1.03-.27.569 0 .991.238.423.239.653.696.235.459.235 1.119V28h-1.286v-3.274q0-.55-.284-.856-.28-.309-.788-.309-.34 0-.611.15a1.04 1.04 0 0 0-.419.422q-.15.276-.15.671m7.226 3.303q-.798 0-1.385-.352a2.4 2.4 0 0 1-.909-.984q-.32-.631-.32-1.477 0-.845.32-1.48.324-.637.91-.988.585-.352 1.384-.352.8 0 1.385.352.587.351.906.987.323.636.323 1.481t-.323 1.477q-.32.633-.906.984-.585.352-1.385.352m.008-1.03q.432 0 .724-.238.291-.242.433-.646.146-.405.146-.902 0-.501-.146-.906a1.43 1.43 0 0 0-.433-.65 1.1 1.1 0 0 0-.724-.241q-.444 0-.74.241-.29.242-.436.65-.142.405-.142.906 0 .496.142.901.146.405.437.647.294.238.739.238m7.174-1.371v-3.16h1.285V28h-1.246v-.97h-.057a1.64 1.64 0 0 1-.607.75q-.42.291-1.034.291-.535 0-.948-.238a1.65 1.65 0 0 1-.64-.7q-.23-.461-.23-1.114v-3.473h1.286v3.274q0 .518.284.823.285.306.745.306.285 0 .55-.139a1.1 1.1 0 0 0 .438-.412q.174-.276.174-.692m5.33-3.16v.994H86.14v-.994zm-2.36-1.307H88.2v5.12q0 .26.078.398.081.135.213.185t.291.05q.12 0 .22-.018.103-.018.157-.032l.216 1.005a2.4 2.4 0 0 1-.756.128q-.483.013-.87-.146a1.35 1.35 0 0 1-.615-.504q-.223-.342-.22-.853zM92.888 28v-7.273h2.728q.837 0 1.406.313.571.312.863.86.294.542.294 1.235 0 .699-.294 1.243a2.1 2.1 0 0 1-.87.856q-.576.309-1.417.309H93.79v-1.084h1.63q.49 0 .803-.17.312-.17.461-.469.153-.298.153-.685t-.153-.682q-.15-.295-.465-.458-.312-.167-.806-.167h-1.207V28zm6.436 0v-7.273h2.727q.838 0 1.406.291.572.292.863.817.295.522.295 1.218 0 .7-.298 1.215-.295.51-.87.792-.576.276-1.414.277h-1.942v-1.094h1.765q.49 0 .802-.135a.96.96 0 0 0 .462-.401q.153-.267.153-.654t-.153-.66a.97.97 0 0 0-.465-.42q-.313-.145-.806-.145h-1.208V28zm3.757-3.296 1.8 3.296h-1.47l-1.768-3.296zm9.245-.34q0 1.174-.44 2.013a3.1 3.1 0 0 1-1.193 1.279q-.754.444-1.708.443a3.3 3.3 0 0 1-1.712-.444 3.17 3.17 0 0 1-1.193-1.281q-.437-.84-.437-2.01 0-1.176.437-2.01a3.14 3.14 0 0 1 1.193-1.282 3.3 3.3 0 0 1 1.712-.444q.954 0 1.708.444.756.444 1.193 1.282.44.834.44 2.01m-1.324 0q0-.828-.26-1.396-.255-.572-.71-.863a1.9 1.9 0 0 0-1.047-.295q-.594 0-1.048.295-.454.291-.714.863-.255.568-.255 1.396 0 .827.255 1.399.26.568.714.863a1.9 1.9 0 0 0 1.048.29q.593 0 1.047-.29.455-.295.71-.863.26-.572.26-1.4m3.407-3.637 1.602 2.664h.056l1.609-2.664h1.502l-2.241 3.637L119.215 28h-1.527l-1.62-2.646h-.056L114.392 28h-1.52l2.298-3.636-2.269-3.637zm5.306 0h1.488l1.779 3.218h.071l1.779-3.218h1.488l-2.645 4.56V28h-1.314v-2.713zM129.735 28v-7.273h2.727q.839 0 1.406.313.572.312.863.86.295.542.295 1.235 0 .699-.295 1.243a2.1 2.1 0 0 1-.87.856q-.574.309-1.417.309h-1.807v-1.084h1.63q.49 0 .802-.17a1.07 1.07 0 0 0 .462-.469q.153-.298.153-.685a1.46 1.46 0 0 0-.153-.682 1.03 1.03 0 0 0-.465-.458q-.312-.167-.806-.167h-1.208V28zm6.379 0v-5.454h1.246v.909h.057a1.36 1.36 0 0 1 1.346-.988q.106 0 .238.011.135.007.223.025v1.182a1.3 1.3 0 0 0-.259-.05 2.4 2.4 0 0 0-.337-.024q-.352 0-.632.152-.278.15-.437.416-.16.266-.16.614V28zm6.119.107q-.799 0-1.385-.352a2.4 2.4 0 0 1-.909-.984q-.32-.631-.32-1.477 0-.845.32-1.48a2.4 2.4 0 0 1 .909-.988q.586-.352 1.385-.352t1.385.352.906.987q.323.636.323 1.481t-.323 1.477q-.32.633-.906.984-.586.352-1.385.352m.007-1.03q.434 0 .725-.238.29-.242.433-.646.146-.405.146-.902 0-.501-.146-.906a1.44 1.44 0 0 0-.433-.65 1.1 1.1 0 0 0-.725-.241q-.444 0-.738.241a1.45 1.45 0 0 0-.437.65q-.142.405-.142.906 0 .496.142.901.145.405.437.647.294.238.738.238m6.422-4.532v.995h-3.136v-.994zM146.3 21.24h1.286v5.12q0 .26.078.398.081.135.213.185.13.05.291.05.12 0 .22-.018.103-.018.156-.032l.217 1.005q-.103.035-.295.078a2.4 2.4 0 0 1-.461.05q-.483.013-.87-.146a1.36 1.36 0 0 1-.615-.504q-.223-.342-.22-.853zm5.757 6.868q-.798 0-1.385-.352a2.4 2.4 0 0 1-.909-.984q-.32-.631-.319-1.477 0-.845.319-1.48a2.4 2.4 0 0 1 .909-.988q.587-.352 1.385-.352.8 0 1.385.352.587.351.906.987.323.636.323 1.481t-.323 1.477q-.32.633-.906.984-.585.352-1.385.352m.007-1.03q.434 0 .725-.238.29-.242.433-.646.146-.405.146-.902 0-.501-.146-.906a1.44 1.44 0 0 0-.433-.65 1.1 1.1 0 0 0-.725-.241q-.443 0-.738.241-.291.242-.437.65-.142.405-.142.906 0 .496.142.901.146.405.437.647.295.238.738.238m6.077 1.03q-.817 0-1.402-.36a2.4 2.4 0 0 1-.899-.99q-.312-.636-.312-1.463 0-.831.319-1.467.32-.639.902-.994.587-.359 1.385-.359.665 0 1.176.245.514.242.82.686.306.44.348 1.03h-1.229a1.17 1.17 0 0 0-.355-.657q-.276-.267-.742-.267-.395 0-.692.213a1.37 1.37 0 0 0-.466.604 2.5 2.5 0 0 0-.163.945q0 .557.163.959.164.398.458.614.298.213.7.213.284 0 .508-.107.227-.11.38-.316.152-.206.209-.5h1.229a2.14 2.14 0 0 1-.341 1.026 2 2 0 0 1-.802.696q-.508.249-1.194.248m5.772 0q-.799 0-1.385-.352a2.4 2.4 0 0 1-.909-.984q-.32-.631-.32-1.477 0-.845.32-1.48.323-.637.909-.988.586-.352 1.385-.352.798 0 1.385.352.585.351.905.987.324.636.323 1.481 0 .846-.323 1.477-.32.633-.905.984-.587.352-1.385.352m.007-1.03q.433 0 .724-.238.291-.242.434-.646.145-.405.145-.902 0-.501-.145-.906a1.44 1.44 0 0 0-.434-.65 1.1 1.1 0 0 0-.724-.241q-.444 0-.739.241a1.47 1.47 0 0 0-.437.65 2.7 2.7 0 0 0-.142.906q0 .496.142.901.147.405.437.647.295.238.739.238m4.983-6.35V28h-1.285v-7.273z"/><rect width="127.921" height="54.721" x="59.639" y="48.639" fill="#304e22" rx="9.59"/><rect width="127.921" height="54.721" x="59.639" y="48.639" stroke="#84ee53" stroke-width="1.279" rx="9.59"/><rect width="30.689" height="30.689" x="71.785" y="61.443" fill="#bdf6a2" rx="3.836"/><path fill="#304e22" d="M85.211 76.787a3.836 3.836 0 0 0-3.836-3.836h-2.877a.959.959 0 1 1 0-1.918h2.877a5.754 5.754 0 0 1 5.754 5.754 3.836 3.836 0 0 0 3.836 3.836h2.48l-1.24-1.24a.959.959 0 1 1 1.356-1.356l2.877 2.877a.96.96 0 0 1 0 1.356l-2.877 2.877a.959.959 0 1 1-1.356-1.356l1.24-1.24h-2.48a5.753 5.753 0 0 1-5.754-5.754m-1.535 3.07a.96.96 0 0 1 1.152 1.533 5.74 5.74 0 0 1-3.453 1.15v.001h-2.877a.959.959 0 1 1 0-1.918h2.878a3.82 3.82 0 0 0 2.3-.767m8.53-11.42a.96.96 0 0 1 1.355 0l2.877 2.877a.96.96 0 0 1 0 1.356l-2.877 2.877a.959.959 0 1 1-1.356-1.356l1.24-1.24h-2.482a3.8 3.8 0 0 0-2.298.766.96.96 0 0 1-1.154-1.532 5.74 5.74 0 0 1 3.454-1.152h2.48l-1.24-1.24a.96.96 0 0 1 0-1.356"/><path fill="#fff" d="M108.522 81.631v-9.454h1.713v8.018h4.164v1.436zm10.383.139q-1.04 0-1.801-.457a3.1 3.1 0 0 1-1.181-1.28q-.416-.82-.416-1.92 0-1.098.416-1.925a3.1 3.1 0 0 1 1.181-1.283q.762-.457 1.801-.457t1.8.457q.762.457 1.177 1.283.421.827.421 1.925 0 1.1-.421 1.92a3.07 3.07 0 0 1-1.177 1.28q-.762.457-1.8.457m.009-1.34q.563 0 .942-.309.378-.314.563-.84a3.5 3.5 0 0 0 .189-1.172q0-.651-.189-1.177a1.87 1.87 0 0 0-.563-.845q-.379-.314-.942-.314-.578 0-.96.314-.38.313-.568.844-.185.527-.185 1.178 0 .646.185 1.172.189.526.568.84.382.31.96.31m6.847 1.344a3 3 0 0 1-1.214-.24 2 2 0 0 1-.849-.72q-.309-.475-.309-1.173 0-.6.221-.992.222-.393.605-.628t.863-.356a7 7 0 0 1 1.002-.18 40 40 0 0 0 1.011-.115q.388-.055.563-.166.18-.115.18-.356v-.027q0-.522-.309-.808t-.891-.286q-.614 0-.974.267-.356.269-.48.633l-1.561-.222q.186-.645.61-1.08.425-.437 1.038-.656.614-.22 1.358-.221.511 0 1.02.12.508.12.928.397.42.273.674.743.258.471.258 1.177v4.746h-1.606v-.974h-.056a2.02 2.02 0 0 1-1.117.965 2.8 2.8 0 0 1-.965.152m.434-1.228q.504 0 .873-.198.369-.203.568-.536.203-.332.203-.725v-.835a.8.8 0 0 1-.268.12q-.184.056-.415.097a13 13 0 0 1-.457.074l-.393.055q-.373.052-.669.166a1.1 1.1 0 0 0-.466.323.8.8 0 0 0-.171.527q0 .461.337.697t.858.235m7.622 1.21a2.7 2.7 0 0 1-1.496-.43q-.66-.429-1.043-1.246t-.383-1.985q0-1.182.388-1.994.392-.818 1.057-1.233.665-.42 1.482-.42.623 0 1.025.212.401.208.637.503.235.29.364.55h.07v-3.536h1.675v9.454h-1.643v-1.117h-.102q-.129.258-.373.55-.245.285-.647.489-.402.203-1.011.203m.466-1.371q.531 0 .905-.287.375-.29.568-.808a3.4 3.4 0 0 0 .194-1.204q0-.689-.194-1.196a1.7 1.7 0 0 0-.563-.79q-.369-.28-.91-.281-.558 0-.932.29a1.76 1.76 0 0 0-.563.804q-.19.513-.19 1.173 0 .664.19 1.186.193.517.568.817.378.296.927.296M108.522 97.63v-9.454h1.672v3.536h.069a3 3 0 0 1 .364-.55q.236-.295.638-.503.401-.212 1.024-.212.822 0 1.482.42.664.416 1.053 1.233.392.812.392 1.994 0 1.168-.383 1.985t-1.043 1.246-1.496.43q-.609 0-1.011-.203a2.1 2.1 0 0 1-.646-.49 3 3 0 0 1-.374-.55h-.097v1.118zm1.639-3.545q0 .688.194 1.204.198.517.568.808.374.287.905.287.553 0 .928-.296.374-.3.563-.817.194-.522.194-1.186 0-.66-.189-1.173a1.76 1.76 0 0 0-.564-.803q-.374-.291-.932-.291-.535 0-.91.282-.373.28-.568.789-.189.507-.189 1.196m8.516 3.688a3 3 0 0 1-1.214-.24 2 2 0 0 1-.849-.72q-.309-.475-.309-1.173 0-.6.221-.992.222-.393.605-.628t.863-.356a7 7 0 0 1 1.002-.18 40 40 0 0 0 1.011-.115q.388-.055.563-.166.18-.115.18-.356v-.027q0-.522-.309-.808t-.891-.286q-.614 0-.974.267-.356.269-.48.633l-1.561-.222q.186-.645.61-1.08.424-.437 1.039-.656a4 4 0 0 1 1.357-.221q.511 0 1.02.12.508.12.928.397.42.273.674.743.258.471.258 1.177v4.746h-1.606v-.974h-.056a2.02 2.02 0 0 1-1.117.965 2.8 2.8 0 0 1-.965.152m.434-1.228q.504 0 .873-.198.369-.203.568-.536.203-.332.203-.725v-.835a.8.8 0 0 1-.268.12q-.184.056-.415.097a13 13 0 0 1-.457.074l-.393.055q-.373.052-.669.166a1.1 1.1 0 0 0-.466.323.8.8 0 0 0-.171.527q0 .461.337.697t.858.235m6.662-8.37v9.455h-1.671v-9.454zm3.759 9.598a3 3 0 0 1-1.214-.24 2 2 0 0 1-.85-.72q-.309-.475-.309-1.173 0-.6.222-.992.221-.393.604-.628.384-.235.864-.356a7 7 0 0 1 1.001-.18q.624-.064 1.012-.115.387-.055.563-.166.18-.115.18-.356v-.027q0-.522-.31-.808-.309-.286-.891-.286-.614 0-.974.267-.356.269-.48.633l-1.56-.222q.184-.645.609-1.08.425-.437 1.039-.656a4 4 0 0 1 1.357-.221q.513 0 1.02.12.508.12.928.397.42.273.674.743.26.471.259 1.177v4.746h-1.607v-.974h-.055a2 2 0 0 1-.429.554 2.1 2.1 0 0 1-.688.41 2.8 2.8 0 0 1-.965.153m.434-1.228q.503 0 .872-.198a1.46 1.46 0 0 0 .568-.536q.203-.332.203-.725v-.835a.8.8 0 0 1-.267.12q-.185.056-.416.097-.23.042-.457.074l-.392.055q-.375.052-.67.166a1.1 1.1 0 0 0-.466.323.8.8 0 0 0-.171.527q0 .461.337.697t.859.235m6.661-3.07v4.155h-1.671v-7.09h1.598v1.204h.083q.245-.595.78-.946.54-.351 1.334-.351.734 0 1.279.314.549.314.849.91.304.594.3 1.444v4.515h-1.671v-4.256q0-.711-.369-1.113-.365-.401-1.011-.401-.44 0-.78.193a1.34 1.34 0 0 0-.531.55q-.19.36-.19.872m9.344 4.294q-1.061 0-1.823-.467a3.1 3.1 0 0 1-1.168-1.288q-.406-.826-.406-1.902 0-1.08.415-1.906a3.1 3.1 0 0 1 1.173-1.293q.761-.466 1.8-.466.864 0 1.528.318.67.315 1.066.891.397.572.453 1.34h-1.597a1.53 1.53 0 0 0-.462-.855q-.36-.346-.965-.346-.513 0-.9.277-.388.272-.605.785-.212.511-.212 1.228 0 .724.212 1.246.213.517.596.799.387.277.909.277.369 0 .66-.139.296-.143.494-.41a1.6 1.6 0 0 0 .273-.651h1.597a2.8 2.8 0 0 1-.443 1.334 2.63 2.63 0 0 1-1.044.904q-.66.324-1.551.324m7.549 0q-1.066 0-1.842-.444a3 3 0 0 1-1.186-1.264q-.416-.822-.416-1.935 0-1.095.416-1.92a3.14 3.14 0 0 1 1.173-1.293q.752-.466 1.768-.466.655 0 1.237.212a2.8 2.8 0 0 1 1.034.647q.453.438.711 1.117.258.675.258 1.606v.513h-5.812v-1.127h4.21a1.8 1.8 0 0 0-.207-.854 1.5 1.5 0 0 0-.568-.595 1.6 1.6 0 0 0-.84-.217 1.63 1.63 0 0 0-.901.249q-.388.245-.604.646a1.85 1.85 0 0 0-.217.873v.983q0 .618.226 1.062.227.438.632.674.406.23.951.23.366 0 .661-.1.295-.108.512-.31.217-.203.328-.503l1.56.175a2.4 2.4 0 0 1-.563 1.08 2.75 2.75 0 0 1-1.053.711q-.641.25-1.468.25m4.567-.139v-7.09h1.621v1.181h.073q.195-.615.665-.946a1.83 1.83 0 0 1 1.085-.337q.138 0 .309.014.175.009.291.032v1.537a2 2 0 0 0-.337-.065 3 3 0 0 0-.438-.032 1.7 1.7 0 0 0-.822.199q-.36.193-.568.54-.208.346-.208.798v4.17z"/><rect width="127.921" height="54.721" x="527.76" y="48.639" fill="#17264f" rx="9.59"/><rect width="127.921" height="54.721" x="527.76" y="48.639" stroke="#3369ff" stroke-width="1.279" rx="9.59"/><rect width="30.689" height="30.689" x="539.906" y="60.787" fill="#b3c7ff" rx="3.836"/><g fill="#171d4f" clip-path="url(#c)"><path fill-rule="evenodd" d="M555.248 80.744a4.613 4.613 0 1 0 0-9.225 4.613 4.613 0 0 0 0 9.225m0 .838a5.45 5.45 0 1 0 0-10.901 5.45 5.45 0 0 0 0 10.901" clip-rule="evenodd"/><path fill-rule="evenodd" d="M557.766 79.8a1.153 1.153 0 1 1 2.306 0 1.153 1.153 0 0 1-2.306 0m-7.34-7.338a1.153 1.153 0 1 1 2.306 0 1.153 1.153 0 0 1-2.306 0" clip-rule="evenodd"/><path fill-rule="evenodd" d="M552.303 72.58a4.6 4.6 0 0 1 2.945-1.061.419.419 0 1 0 0-.84 5.43 5.43 0 0 0-3.327 1.134.73.73 0 0 1 .382.768m-.605.606a.73.73 0 0 1-.768-.382 5.42 5.42 0 0 0-1.133 3.327.42.42 0 0 0 .839 0 4.6 4.6 0 0 1 1.062-2.945m6.494 6.493a4.6 4.6 0 0 1-2.945 1.063.42.42 0 0 0 0 .839 5.43 5.43 0 0 0 3.328-1.133.73.73 0 0 1-.383-.768m.606-.605a.73.73 0 0 1 .768.382 5.43 5.43 0 0 0 1.133-3.326.42.42 0 0 0-.839 0c0 1.12-.399 2.145-1.062 2.944m-6.843-2.711 3.565-3.443a.43.43 0 0 1 .593 0l2.538 2.45a.395.395 0 0 1 0 .573l-3.565 3.443a.43.43 0 0 1-.593 0l-2.538-2.45a.395.395 0 0 1 0-.573m4.362-1.724a.315.315 0 0 0-.381-.221.304.304 0 0 0-.229.368l.184.708-1.732.836a.3.3 0 0 0-.164.345l.245.945a.315.315 0 0 0 .381.221.303.303 0 0 0 .229-.368l-.184-.709 1.732-.835a.3.3 0 0 0 .164-.346z" clip-rule="evenodd"/><path d="m553.567 79.436.489-.472v-.472h-.489l-.489.472a.326.326 0 0 0 0 .472c.135.13.354.13.489 0m3.181-1.181-.489-.472h-.489v.472l.489.473c.135.13.354.13.489 0a.326.326 0 0 0 0-.473m-4.404.003.49-.472v-.472h-.49l-.489.472a.326.326 0 0 0 0 .472c.135.13.354.13.489 0m5.627-1.181-.49-.472h-.489v.472l.489.473c.136.13.355.13.49 0a.326.326 0 0 0 0-.473m-5.381-1.892.489.473h.489v-.473l-.489-.472a.354.354 0 0 0-.489 0 .326.326 0 0 0 0 .472m5.626-1.181-.489.473v.472h.489l.489-.472a.326.326 0 0 0 0-.473.355.355 0 0 0-.489 0m-4.404.006.489.472h.49v-.472l-.49-.473a.354.354 0 0 0-.489 0 .326.326 0 0 0 0 .473m3.181-1.184-.489.473v.472h.489l.489-.472a.326.326 0 0 0 0-.473.355.355 0 0 0-.489 0"/><path fill-rule="evenodd" d="M562.839 71.338a.425.425 0 0 1 .565.145l2.694 4.451.007.014a.4.4 0 0 1 .038.1q.015.064.008.126l-.005.023-.01.049-.01.023a.4.4 0 0 1-.027.057l-.001.003-2.694 4.45a.425.425 0 0 1-.565.144l-.717-.394a.386.386 0 0 1-.152-.54l2.336-3.859-2.336-3.856a.385.385 0 0 1 .151-.54zm-15.74.146a.426.426 0 0 1 .566-.145l.717.395c.198.11.266.351.151.54l-2.336 3.856 2.336 3.859a.385.385 0 0 1-.151.54l-.717.394a.425.425 0 0 1-.566-.144l-2.694-4.45-.002-.005a.4.4 0 0 1-.027-.059l-.006-.014a.4.4 0 0 1-.013-.062l-.003-.014q-.003-.024-.002-.05l.001-.03q.002-.026.009-.052l.004-.018a.3.3 0 0 1 .02-.05q.004-.013.011-.024l.007-.017z" clip-rule="evenodd"/></g><path fill="#fff" d="M576.228 73.112v-1.435h7.543v1.435h-2.922v8.02h-1.699v-8.02zm8.997 8.02v-9.455h3.62q1.025 0 1.703.323.684.318 1.021.872.34.554.341 1.256 0 .577-.221.988a1.9 1.9 0 0 1-.596.66q-.374.254-.836.365v.092q.504.028.965.31.467.276.762.784t.295 1.228q0 .735-.355 1.32-.356.582-1.071.92-.715.336-1.8.336zm1.713-1.432h1.842q.933 0 1.344-.356.415-.36.415-.923a1.41 1.41 0 0 0-.799-1.292 1.96 1.96 0 0 0-.914-.199h-1.888zm0-4.002h1.694q.444 0 .799-.162a1.35 1.35 0 0 0 .559-.466 1.25 1.25 0 0 0 .207-.72q0-.55-.387-.905-.384-.356-1.141-.356h-1.731zm6.831-4.021h2.096l2.807 6.85h.111l2.807-6.85h2.096v9.454h-1.644v-6.495h-.088l-2.612 6.467h-1.228l-2.613-6.481h-.088v6.51h-1.644zm15.304 6.278h1.551l.919 1.191.655.776 1.575 2.022h-1.662l-1.071-1.358-.457-.646zm4.926-1.551q0 1.528-.573 2.617-.567 1.086-1.551 1.662-.978.577-2.22.577t-2.225-.577q-.98-.582-1.552-1.666-.567-1.09-.567-2.613 0-1.528.567-2.613.573-1.09 1.552-1.667.983-.576 2.225-.577 1.242 0 2.22.577.984.577 1.551 1.667.573 1.084.573 2.613m-1.722 0q0-1.076-.337-1.814-.332-.744-.923-1.122a2.45 2.45 0 0 0-1.362-.383q-.771 0-1.362.383-.59.378-.928 1.122-.332.738-.332 1.814 0 1.075.332 1.819.337.738.928 1.121a2.47 2.47 0 0 0 1.362.38 2.47 2.47 0 0 0 1.362-.38q.59-.383.923-1.121.337-.743.337-1.82"/><rect width="195.782" height="26" x="260.258" y="62.5" fill="#17181c" rx="3.5"/><rect width="195.782" height="26" x="260.258" y="62.5" stroke="#353841" rx="3.5"/><path fill="#fff" d="M266.619 71.273h1.934l2.591 6.324h.102l2.591-6.324h1.935V80h-1.517v-5.996h-.081l-2.412 5.97h-1.133l-2.412-5.983h-.081V80h-1.517zm14.126 5.795h1.432l.848 1.1.605.715 1.453 1.867h-1.534l-.989-1.253-.422-.596zm4.547-1.432q0 1.41-.529 2.417-.523 1-1.431 1.534-.904.532-2.05.532t-2.054-.532q-.903-.537-1.432-1.539-.524-1.005-.524-2.412 0-1.41.524-2.412.528-1.005 1.432-1.538.908-.533 2.054-.533t2.05.533q.908.533 1.431 1.538.53 1.002.529 2.412m-1.59 0q0-.993-.311-1.674-.306-.687-.852-1.036a2.26 2.26 0 0 0-1.257-.354q-.712 0-1.257.354-.545.35-.857 1.036-.306.681-.306 1.674t.306 1.68q.312.682.857 1.035.545.35 1.257.35t1.257-.35q.546-.354.852-1.036.312-.686.311-1.679m2.326-3.038v-1.325h6.963v1.325h-2.697V80h-1.569v-7.402zm7.922 0v-1.325h6.963v1.325h-2.697V80h-1.569v-7.402zm18.752 1.62h-1.594a2 2 0 0 0-.251-.695 1.86 1.86 0 0 0-1.078-.84 2.4 2.4 0 0 0-.746-.11q-.712 0-1.261.357-.55.354-.861 1.04-.312.682-.311 1.666 0 1.002.311 1.688.315.681.861 1.031.549.345 1.257.345.391 0 .733-.102a2 2 0 0 0 .618-.311q.276-.204.464-.503a1.9 1.9 0 0 0 .264-.682l1.594.009q-.09.623-.388 1.167a3.4 3.4 0 0 1-.771.963q-.477.414-1.117.648-.639.23-1.419.23-1.15 0-2.054-.532-.903-.533-1.423-1.539t-.52-2.412q0-1.41.524-2.412.525-1.005 1.428-1.538t2.045-.533q.729 0 1.356.205.625.205 1.116.6.49.393.805.964.32.567.418 1.295m9.246 1.418q0 1.41-.528 2.417-.525 1-1.432 1.534-.903.532-2.05.532t-2.054-.532q-.903-.537-1.432-1.539-.524-1.005-.524-2.412 0-1.41.524-2.412.53-1.005 1.432-1.538.908-.533 2.054-.533t2.05.533q.907.533 1.432 1.538.528 1.002.528 2.412m-1.589 0q0-.993-.311-1.674-.307-.687-.853-1.036a2.26 2.26 0 0 0-1.257-.354 2.26 2.26 0 0 0-1.257.354q-.546.35-.856 1.036-.307.681-.307 1.674t.307 1.68q.31.682.856 1.035.546.35 1.257.35.712 0 1.257-.35.546-.354.853-1.036.31-.686.311-1.679m10.256-4.363V80h-1.407l-4.112-5.945h-.072V80h-1.581v-8.727h1.415l4.108 5.949h.076v-5.95zm8.894 0V80h-1.406l-4.112-5.945h-.073V80h-1.581v-8.727h1.415l4.108 5.949h.077v-5.95zM341.232 80v-8.727h5.676v1.325h-4.095v2.37h3.801v1.325h-3.801v2.382h4.129V80zm14.759-5.783h-1.594a2 2 0 0 0-.251-.694 1.86 1.86 0 0 0-1.078-.84 2.4 2.4 0 0 0-.746-.11q-.712 0-1.261.357-.55.354-.861 1.04-.31.682-.311 1.666 0 1.002.311 1.688.315.681.861 1.031.549.345 1.257.345.392 0 .733-.102a2 2 0 0 0 .618-.311q.276-.204.464-.503a1.9 1.9 0 0 0 .264-.682l1.594.009q-.09.623-.388 1.167a3.4 3.4 0 0 1-.771.963q-.477.414-1.116.648-.64.23-1.419.23-1.151 0-2.054-.532-.904-.533-1.424-1.539t-.52-2.412q0-1.41.525-2.412.524-1.005 1.427-1.538t2.046-.533q.728 0 1.355.205.625.205 1.116.6.49.393.806.964.32.567.417 1.295m1.064-1.619v-1.325h6.963v1.325h-2.697V80h-1.568v-7.402zm11.214 9.856v-9h1.517v1.083h.09q.118-.24.336-.507a1.8 1.8 0 0 1 .588-.465q.372-.195.946-.196.759 0 1.368.388.613.384.972 1.138.362.75.362 1.84 0 1.08-.354 1.833-.353.754-.963 1.15a2.47 2.47 0 0 1-1.38.397q-.562 0-.934-.187a1.9 1.9 0 0 1-.596-.452 3 3 0 0 1-.345-.507h-.064v3.486zm1.513-5.727q0 .636.179 1.112.183.478.524.746.346.264.835.264.512 0 .857-.272.345-.277.52-.755.179-.48.179-1.095 0-.61-.175-1.082a1.6 1.6 0 0 0-.52-.742q-.345-.268-.861-.268-.494 0-.839.26t-.524.729q-.175.468-.175 1.103m7.871 3.405a2.7 2.7 0 0 1-1.121-.222 1.83 1.83 0 0 1-.784-.664q-.286-.44-.286-1.083 0-.553.205-.916.204-.361.558-.58.354-.216.797-.328.448-.114.925-.166.575-.06.933-.106.358-.05.52-.154.166-.106.166-.328v-.025q0-.482-.285-.746-.286-.264-.823-.264-.566 0-.899.247a1.2 1.2 0 0 0-.443.584l-1.441-.205q.171-.597.563-.997.392-.405.959-.605a3.7 3.7 0 0 1 1.253-.205q.473 0 .941.111.469.11.857.367.387.25.622.686.239.435.239 1.086V80h-1.483v-.9h-.051a1.88 1.88 0 0 1-1.032.892q-.379.14-.89.14m.4-1.133q.465 0 .806-.184.34-.188.524-.494.187-.306.187-.669v-.771a.7.7 0 0 1-.247.11 4 4 0 0 1-.383.09q-.213.038-.422.068l-.362.051a2.7 2.7 0 0 0-.618.154q-.273.105-.431.298a.73.73 0 0 0-.157.486q0 .426.311.643.31.218.792.218m7.462 1.129q-.98 0-1.683-.43a2.87 2.87 0 0 1-1.078-1.19q-.375-.762-.375-1.755 0-.998.383-1.76a2.87 2.87 0 0 1 1.082-1.193q.704-.43 1.662-.43.798 0 1.411.293.618.29.984.823.367.528.418 1.236h-1.475a1.4 1.4 0 0 0-.426-.789q-.332-.32-.89-.32a1.4 1.4 0 0 0-.831.256 1.64 1.64 0 0 0-.559.725q-.196.473-.196 1.133 0 .67.196 1.15t.55.738q.359.255.84.256a1.4 1.4 0 0 0 .609-.128q.273-.132.456-.38.183-.246.251-.6h1.475a2.6 2.6 0 0 1-.409 1.231 2.4 2.4 0 0 1-.963.835q-.61.3-1.432.299m5.477-2.182-.004-1.862h.247l2.352-2.63h1.803l-2.894 3.222h-.32zM389.586 80v-8.727h1.542V80zm4.108 0-2.131-2.979 1.04-1.086L395.539 80zm5.352.128q-.984 0-1.7-.41a2.77 2.77 0 0 1-1.096-1.167q-.383-.757-.383-1.785 0-1.011.383-1.773.389-.767 1.083-1.193.695-.43 1.632-.43.605 0 1.142.195.541.192.954.597.419.405.657 1.031.238.623.238 1.483v.473h-5.365v-1.04h3.887a1.66 1.66 0 0 0-.192-.788 1.4 1.4 0 0 0-.524-.55q-.332-.2-.776-.2-.472 0-.831.23-.358.226-.558.597a1.7 1.7 0 0 0-.2.805v.908q0 .57.208.98.21.405.584.622.375.213.878.213.338 0 .609-.094.273-.097.474-.285t.302-.465l1.44.162q-.137.571-.519.998-.38.421-.972.656-.593.23-1.355.23m7.484-6.674v1.194h-3.763v-1.194zm-2.834-1.568h1.543v6.145q0 .312.093.477a.5.5 0 0 0 .256.222q.158.06.35.06.144 0 .264-.022.123-.02.187-.038l.26 1.206q-.123.043-.354.094-.225.051-.554.06a2.5 2.5 0 0 1-1.044-.175 1.63 1.63 0 0 1-.737-.605q-.268-.41-.264-1.023z"/><path fill="#888c96" d="M524.401 76.03a.75.75 0 0 0 0-1.06l-4.773-4.773a.75.75 0 1 0-1.06 1.06l4.242 4.243-4.242 4.243a.75.75 0 0 0 1.06 1.06zm-64.612-1.28a.75.75 0 0 0 0 1.5zm64.082.75v-.75h-64.082v1.5h64.082z"/><path fill="#84ee53" d="M257.037 76.53a.75.75 0 0 0 0-1.06l-4.773-4.773a.75.75 0 1 0-1.06 1.06L255.446 76l-4.242 4.243a.75.75 0 0 0 1.06 1.06zm-65.588-1.28a.75.75 0 0 0 0 1.5zm65.058.75v-.75h-65.058v1.5h65.058z"/><rect width="128.721" height="54.721" x="527.639" y="175.639" fill="#17264f" rx="9.59"/><rect width="128.721" height="54.721" x="527.639" y="175.639" stroke="#3369ff" stroke-width="1.279" rx="9.59"/><rect width="30.689" height="30.689" x="539.785" y="187.787" fill="#b3c7ff" rx="3.836"/><g fill="#171d4f" clip-path="url(#d)"><path fill-rule="evenodd" d="M555.127 207.744a4.613 4.613 0 1 0 0-9.226 4.613 4.613 0 0 0 0 9.226m0 .838a5.45 5.45 0 1 0 0-10.902 5.451 5.451 0 0 0 0 10.902" clip-rule="evenodd"/><path fill-rule="evenodd" d="M557.645 206.8a1.153 1.153 0 1 1 2.305 0 1.153 1.153 0 0 1-2.305 0m-7.34-7.338a1.153 1.153 0 1 1 2.305 0 1.153 1.153 0 0 1-2.305 0" clip-rule="evenodd"/><path fill-rule="evenodd" d="M552.182 199.581a4.6 4.6 0 0 1 2.945-1.062.42.42 0 0 0 0-.839 5.42 5.42 0 0 0-3.327 1.133.73.73 0 0 1 .382.768m-.605.605a.73.73 0 0 1-.768-.382 5.43 5.43 0 0 0-1.133 3.327.42.42 0 1 0 .838 0c0-1.119.399-2.146 1.063-2.945m6.494 6.495a4.6 4.6 0 0 1-2.945 1.062.42.42 0 0 0 0 .839 5.43 5.43 0 0 0 3.327-1.133.73.73 0 0 1-.382-.768m.606-.606a.735.735 0 0 1 .768.383 5.43 5.43 0 0 0 1.133-3.327.42.42 0 1 0-.839 0 4.6 4.6 0 0 1-1.062 2.944m-6.843-2.71 3.565-3.443a.43.43 0 0 1 .593 0l2.538 2.45a.395.395 0 0 1 0 .573l-3.565 3.443a.43.43 0 0 1-.593 0l-2.538-2.451a.394.394 0 0 1 0-.572m4.362-1.724a.314.314 0 0 0-.381-.221.303.303 0 0 0-.229.368l.184.708-1.732.836a.3.3 0 0 0-.164.345l.245.945a.314.314 0 0 0 .381.221.303.303 0 0 0 .229-.368l-.184-.709 1.732-.835a.3.3 0 0 0 .164-.346z" clip-rule="evenodd"/><path d="m553.446 206.436.489-.472v-.472h-.489l-.489.472a.326.326 0 0 0 0 .472.353.353 0 0 0 .489 0m3.181-1.181-.489-.472h-.49v.472l.49.473c.135.13.354.13.489 0a.327.327 0 0 0 0-.473m-4.404.003.49-.472v-.472h-.49l-.489.472a.326.326 0 0 0 0 .472.353.353 0 0 0 .489 0m5.627-1.181-.49-.472h-.489v.472l.489.473c.135.13.354.13.49 0a.327.327 0 0 0 0-.473m-5.382-1.892.49.473h.489v-.473l-.489-.472a.357.357 0 0 0-.49 0 .326.326 0 0 0 0 .472m5.627-1.181-.49.473v.472h.49l.489-.472a.327.327 0 0 0 0-.473.355.355 0 0 0-.489 0m-4.404.006.489.472h.49v-.472l-.49-.473a.355.355 0 0 0-.489 0 .327.327 0 0 0 0 .473m3.181-1.184-.489.473v.472h.489l.489-.472a.327.327 0 0 0 0-.473.355.355 0 0 0-.489 0"/><path fill-rule="evenodd" d="M562.718 198.338a.425.425 0 0 1 .565.145l2.694 4.451.007.014a.4.4 0 0 1 .031.07l.007.03a.4.4 0 0 1 .008.126l-.005.023-.01.049-.01.023q-.011.03-.027.057l-.002.003-2.693 4.45a.425.425 0 0 1-.565.144l-.717-.394a.386.386 0 0 1-.153-.54l2.336-3.859-2.336-3.856a.386.386 0 0 1 .152-.54zm-15.74.146a.426.426 0 0 1 .566-.146l.717.396a.385.385 0 0 1 .151.54l-2.336 3.856 2.336 3.859a.385.385 0 0 1-.151.54l-.717.394a.424.424 0 0 1-.566-.144l-2.694-4.449-.002-.006q-.016-.029-.027-.059l-.006-.014q-.01-.031-.014-.062l-.002-.014a.3.3 0 0 1-.002-.049q-.001-.016.001-.032.002-.025.009-.05l.004-.019.02-.051.01-.023.008-.017z" clip-rule="evenodd"/></g><path fill="#fff" d="M576.107 200.112v-1.435h7.543v1.435h-2.922v8.019h-1.699v-8.019zm8.997 8.019v-9.454h3.62q1.025 0 1.703.323.684.318 1.02.872.342.555.342 1.256 0 .577-.222.988a1.85 1.85 0 0 1-.595.66 2.5 2.5 0 0 1-.836.365v.092q.504.028.965.309.467.278.762.785.295.508.295 1.228 0 .734-.355 1.32-.356.582-1.071.919t-1.801.337zm1.713-1.431h1.842q.933 0 1.343-.355.416-.36.416-.924a1.41 1.41 0 0 0-.799-1.292q-.383-.2-.914-.199h-1.888zm0-4.002h1.694q.444 0 .799-.162.355-.166.559-.466.207-.305.207-.721 0-.549-.387-.904-.384-.356-1.141-.356h-1.731zm6.831-4.021h2.096l2.807 6.85h.111l2.807-6.85h2.096v9.454h-1.644v-6.495h-.088l-2.613 6.467h-1.228l-2.612-6.481h-.088v6.509h-1.644zm15.304 6.278h1.551l.919 1.191.655.776 1.575 2.022h-1.662l-1.071-1.358-.457-.646zm4.926-1.551q0 1.528-.573 2.617-.567 1.086-1.551 1.662-.978.577-2.22.577t-2.225-.577q-.98-.581-1.552-1.666-.567-1.09-.567-2.613 0-1.529.567-2.613.573-1.09 1.552-1.667.983-.577 2.225-.577t2.22.577q.984.578 1.551 1.667.573 1.084.573 2.613m-1.722 0q0-1.076-.337-1.814-.333-.744-.923-1.122a2.44 2.44 0 0 0-1.362-.383q-.771 0-1.362.383-.59.378-.928 1.122-.333.738-.333 1.814 0 1.075.333 1.819.337.738.928 1.122.591.378 1.362.378t1.362-.378q.59-.384.923-1.122.337-.744.337-1.819"/><rect width="128.721" height="54.721" x="59.639" y="175.639" fill="#304e22" rx="9.59"/><rect width="128.721" height="54.721" x="59.639" y="175.639" stroke="#84ee53" stroke-width="1.279" rx="9.59"/><rect width="30.689" height="30.689" x="71.785" y="188.443" fill="#bdf6a2" rx="3.836"/><path fill="#304e22" d="M85.211 203.787a3.835 3.835 0 0 0-3.836-3.836h-2.877a.959.959 0 1 1 0-1.918h2.877a5.754 5.754 0 0 1 5.754 5.754 3.835 3.835 0 0 0 3.836 3.836h2.48l-1.24-1.24a.959.959 0 1 1 1.356-1.356l2.877 2.877a.96.96 0 0 1 0 1.356l-2.877 2.877a.958.958 0 1 1-1.356-1.356l1.24-1.24h-2.48a5.753 5.753 0 0 1-5.754-5.754m-1.535 3.069a.96.96 0 0 1 1.152 1.534 5.74 5.74 0 0 1-3.453 1.15v.001h-2.877a.959.959 0 1 1 0-1.918h2.878a3.8 3.8 0 0 0 2.3-.767m8.53-11.419a.96.96 0 0 1 1.355 0l2.877 2.877a.96.96 0 0 1 0 1.356l-2.877 2.877a.958.958 0 1 1-1.356-1.356l1.24-1.24h-2.482a3.8 3.8 0 0 0-2.298.766.96.96 0 0 1-1.154-1.532 5.73 5.73 0 0 1 3.454-1.152h2.48l-1.24-1.24a.96.96 0 0 1 0-1.356"/><path fill="#fff" d="M108.522 208.631v-9.454h1.713v8.018h4.164v1.436zm10.383.139q-1.04 0-1.801-.457a3.1 3.1 0 0 1-1.181-1.279q-.416-.822-.416-1.921 0-1.098.416-1.925a3.1 3.1 0 0 1 1.181-1.283q.762-.457 1.801-.457t1.8.457q.762.457 1.177 1.283.421.827.421 1.925 0 1.1-.421 1.921a3.07 3.07 0 0 1-1.177 1.279q-.762.457-1.8.457m.009-1.339q.563 0 .942-.309.378-.315.563-.841.189-.526.189-1.172a3.5 3.5 0 0 0-.189-1.177 1.86 1.86 0 0 0-.563-.845q-.379-.315-.942-.314-.578 0-.96.314a1.9 1.9 0 0 0-.568.845q-.185.525-.185 1.177 0 .646.185 1.172.189.526.568.841.382.309.96.309m6.847 1.343a3 3 0 0 1-1.214-.24 2 2 0 0 1-.849-.72q-.309-.475-.309-1.173 0-.6.221-.992.222-.393.605-.628t.863-.355a7 7 0 0 1 1.002-.18q.623-.066 1.011-.116.388-.055.563-.166.18-.116.18-.356v-.027q0-.522-.309-.808t-.891-.286q-.614 0-.974.267-.356.268-.48.633l-1.561-.222a2.5 2.5 0 0 1 .61-1.08 2.66 2.66 0 0 1 1.038-.656q.614-.22 1.358-.221.511 0 1.02.12.508.12.928.397.42.272.674.743.258.47.258 1.177v4.746h-1.606v-.974h-.056a2.02 2.02 0 0 1-1.117.965 2.8 2.8 0 0 1-.965.152m.434-1.228q.504 0 .873-.198.369-.203.568-.536.203-.332.203-.725v-.835a.8.8 0 0 1-.268.12 4 4 0 0 1-.415.097q-.231.041-.457.074l-.393.055a3 3 0 0 0-.669.166 1.1 1.1 0 0 0-.466.323.8.8 0 0 0-.171.527q0 .461.337.697t.858.235m7.622 1.21a2.7 2.7 0 0 1-1.496-.43q-.66-.429-1.043-1.246t-.383-1.985q0-1.182.388-1.994.392-.817 1.057-1.233.665-.42 1.482-.42.623 0 1.025.212.401.208.637.503.235.29.364.55h.07v-3.536h1.675v9.454h-1.643v-1.117h-.102q-.129.258-.373.549a2.1 2.1 0 0 1-.647.49q-.402.203-1.011.203m.466-1.371q.531 0 .905-.287.375-.29.568-.807.194-.518.194-1.205t-.194-1.196a1.7 1.7 0 0 0-.563-.789q-.369-.282-.91-.282-.558 0-.932.291a1.76 1.76 0 0 0-.563.803 3.4 3.4 0 0 0-.19 1.173q0 .664.19 1.186.193.517.568.817.378.296.927.296m-25.761 17.246v-9.454h1.672v3.536h.069q.13-.26.364-.55.236-.295.638-.503.401-.212 1.024-.212.822 0 1.482.42.664.415 1.053 1.233.392.812.392 1.994 0 1.168-.383 1.985t-1.043 1.246q-.66.43-1.496.43-.609 0-1.011-.203a2.1 2.1 0 0 1-.646-.49 3.2 3.2 0 0 1-.374-.549h-.097v1.117zm1.639-3.545q0 .687.194 1.205.198.517.568.807.374.287.905.287.553 0 .928-.296.374-.3.563-.817.194-.522.194-1.186 0-.66-.189-1.173a1.76 1.76 0 0 0-.564-.803q-.374-.291-.932-.291-.535 0-.91.282-.373.28-.568.789-.189.508-.189 1.196m8.516 3.688a3 3 0 0 1-1.214-.24 2 2 0 0 1-.849-.72q-.309-.475-.309-1.173 0-.6.221-.992.222-.393.605-.628t.863-.355a7 7 0 0 1 1.002-.18q.623-.066 1.011-.116.388-.055.563-.166.18-.116.18-.356v-.027q0-.522-.309-.808t-.891-.286q-.614 0-.974.267-.356.268-.48.633l-1.561-.222a2.5 2.5 0 0 1 .61-1.08 2.66 2.66 0 0 1 1.039-.656 4 4 0 0 1 1.357-.221q.511 0 1.02.12.508.12.928.397.42.272.674.743.258.47.258 1.177v4.746h-1.606v-.974h-.056a2.02 2.02 0 0 1-1.117.965 2.8 2.8 0 0 1-.965.152m.434-1.228q.504 0 .873-.198.369-.203.568-.536.203-.332.203-.725v-.835a.8.8 0 0 1-.268.12 4 4 0 0 1-.415.097q-.231.041-.457.074l-.393.055a3 3 0 0 0-.669.166 1.1 1.1 0 0 0-.466.323.8.8 0 0 0-.171.527q0 .461.337.697t.858.235m6.662-8.369v9.454h-1.671v-9.454zm3.759 9.597a3 3 0 0 1-1.214-.24 2 2 0 0 1-.85-.72q-.309-.475-.309-1.173 0-.6.222-.992.221-.393.604-.628a3 3 0 0 1 .864-.355 7 7 0 0 1 1.001-.18q.624-.066 1.012-.116.387-.055.563-.166.18-.116.18-.356v-.027q0-.522-.31-.808-.309-.286-.891-.286-.614 0-.974.267-.356.268-.48.633l-1.56-.222q.184-.646.609-1.08.425-.438 1.039-.656a4 4 0 0 1 1.357-.221q.513 0 1.02.12.508.12.928.397.42.272.674.743.26.47.259 1.177v4.746h-1.607v-.974h-.055a2 2 0 0 1-.429.554 2.1 2.1 0 0 1-.688.411 2.8 2.8 0 0 1-.965.152m.434-1.228q.503 0 .872-.198.37-.203.568-.536.203-.332.203-.725v-.835a.8.8 0 0 1-.267.12 4 4 0 0 1-.416.097q-.23.041-.457.074l-.392.055a3 3 0 0 0-.67.166 1.1 1.1 0 0 0-.466.323.8.8 0 0 0-.171.527q0 .461.337.697t.859.235m6.661-3.07v4.155h-1.671v-7.091h1.598v1.205h.083q.245-.595.78-.946.54-.351 1.334-.351.734 0 1.279.314.549.314.849.909.304.596.3 1.445v4.515h-1.671v-4.256q0-.711-.369-1.113-.365-.401-1.011-.401a1.55 1.55 0 0 0-.78.193q-.337.19-.531.55-.19.36-.19.872m9.344 4.294q-1.061 0-1.823-.467a3.1 3.1 0 0 1-1.168-1.288q-.406-.826-.406-1.902 0-1.08.415-1.906a3.1 3.1 0 0 1 1.173-1.293q.761-.466 1.8-.466.864 0 1.528.318.67.315 1.066.891.397.573.453 1.339h-1.597a1.53 1.53 0 0 0-.462-.854q-.36-.346-.965-.346-.513 0-.9.277-.388.272-.605.785-.212.512-.212 1.228 0 .724.212 1.246.213.517.596.799.387.276.909.277.369 0 .66-.139.296-.142.494-.411.199-.267.273-.651h1.597q-.06.753-.443 1.335a2.63 2.63 0 0 1-1.044.904q-.66.324-1.551.324m7.549 0q-1.066 0-1.842-.444a3 3 0 0 1-1.186-1.264q-.416-.822-.416-1.935 0-1.094.416-1.92.42-.831 1.173-1.293.752-.466 1.768-.466.655 0 1.237.212.586.208 1.034.647.453.438.711 1.117.258.674.258 1.606v.513h-5.812v-1.127h4.21a1.8 1.8 0 0 0-.207-.854 1.5 1.5 0 0 0-.568-.595 1.6 1.6 0 0 0-.84-.217q-.513 0-.901.249-.388.245-.604.646a1.86 1.86 0 0 0-.217.873v.983q0 .619.226 1.062.227.438.632.674.406.231.951.231.366 0 .661-.102.295-.107.512-.309a1.3 1.3 0 0 0 .328-.503l1.56.175a2.4 2.4 0 0 1-.563 1.08 2.74 2.74 0 0 1-1.053.711q-.641.25-1.468.25m4.567-.139v-7.091h1.621v1.182h.073q.195-.614.665-.946a1.83 1.83 0 0 1 1.085-.337q.138 0 .309.013.175.01.291.033v1.537a2 2 0 0 0-.337-.065 3 3 0 0 0-.438-.032q-.458 0-.822.199-.36.194-.568.54a1.53 1.53 0 0 0-.208.798v4.169z"/><rect width="229.5" height="57.5" x="243.25" y="174.25" fill="#bb3df5" fill-opacity=".04" rx="3.75"/><rect width="229.5" height="57.5" x="243.25" y="174.25" stroke="#bd53ee" stroke-dasharray="6 6" stroke-width=".5" rx="3.75"/><rect width="197" height="26" x="259.5" y="189.5" fill="#17181c" rx="3.5"/><rect width="197" height="26" x="259.5" y="189.5" stroke="#353841" rx="3.5"/><path fill="#fff" d="M265.861 198.273h1.934l2.591 6.324h.103l2.591-6.324h1.934V207h-1.517v-5.996h-.081l-2.412 5.97h-1.133l-2.412-5.983h-.081V207h-1.517zm14.126 5.795h1.432l.848 1.1.605.716 1.453 1.866h-1.534l-.988-1.253-.422-.596zm4.547-1.432q0 1.411-.528 2.417-.525 1.001-1.432 1.534-.903.532-2.05.532t-2.054-.532q-.903-.537-1.432-1.539-.524-1.005-.524-2.412 0-1.41.524-2.412.53-1.005 1.432-1.538.908-.533 2.054-.533t2.05.533q.907.533 1.432 1.538.528 1.002.528 2.412m-1.589 0q0-.993-.311-1.674-.307-.687-.853-1.036a2.25 2.25 0 0 0-1.257-.354q-.711 0-1.257.354-.546.35-.856 1.036-.307.681-.307 1.674t.307 1.679q.31.682.856 1.036a2.3 2.3 0 0 0 1.257.349q.712 0 1.257-.349.546-.354.853-1.036.31-.686.311-1.679m2.325-3.038v-1.325h6.963v1.325h-2.697V207h-1.568v-7.402zm7.922 0v-1.325h6.963v1.325h-2.697V207h-1.568v-7.402zm18.752 1.619h-1.594a2 2 0 0 0-.251-.694 1.86 1.86 0 0 0-1.078-.84 2.4 2.4 0 0 0-.746-.111q-.712 0-1.261.358-.55.354-.861 1.04-.31.682-.311 1.666 0 1.002.311 1.688.315.681.861 1.031.549.345 1.257.345.392 0 .733-.102.345-.107.618-.311a1.9 1.9 0 0 0 .728-1.185l1.594.009a3.4 3.4 0 0 1-.388 1.167 3.43 3.43 0 0 1-1.887 1.611 4.2 4.2 0 0 1-1.419.23q-1.15 0-2.054-.532t-1.424-1.539q-.52-1.005-.52-2.412 0-1.41.525-2.412.524-1.005 1.427-1.538t2.046-.533q.728 0 1.355.205.626.204 1.116.601.49.392.806.963.32.567.417 1.295m9.246 1.419q0 1.411-.528 2.417-.524 1.001-1.432 1.534-.903.532-2.05.532-1.145 0-2.054-.532-.903-.537-1.431-1.539-.525-1.005-.525-2.412 0-1.41.525-2.412.528-1.005 1.431-1.538.909-.533 2.054-.533 1.147 0 2.05.533.908.533 1.432 1.538.528 1.002.528 2.412m-1.589 0q0-.993-.311-1.674-.307-.687-.852-1.036a2.26 2.26 0 0 0-1.258-.354q-.711 0-1.257.354-.545.35-.856 1.036-.307.681-.307 1.674t.307 1.679q.311.682.856 1.036a2.3 2.3 0 0 0 1.257.349q.712 0 1.258-.349.544-.354.852-1.036.31-.686.311-1.679m10.256-4.363V207h-1.406l-4.113-5.945h-.072V207h-1.581v-8.727h1.415l4.108 5.949h.076v-5.949zm8.894 0V207h-1.406l-4.112-5.945h-.072V207h-1.581v-8.727h1.414l4.108 5.949h.077v-5.949zm1.723 8.727v-8.727h5.676v1.325h-4.095v2.369h3.801v1.326h-3.801v2.382h4.129V207zm14.759-5.783h-1.593a2 2 0 0 0-.252-.694 1.86 1.86 0 0 0-1.078-.84 2.4 2.4 0 0 0-.746-.111q-.712 0-1.261.358-.55.354-.861 1.04-.31.682-.311 1.666 0 1.002.311 1.688.315.681.861 1.031.549.345 1.257.345.392 0 .733-.102.345-.107.618-.311.277-.204.464-.503a1.9 1.9 0 0 0 .265-.682l1.593.009a3.4 3.4 0 0 1-.387 1.167 3.44 3.44 0 0 1-1.888 1.611 4.2 4.2 0 0 1-1.419.23q-1.15 0-2.054-.532t-1.424-1.539q-.519-1.005-.519-2.412 0-1.41.524-2.412.524-1.005 1.427-1.538.904-.533 2.046-.533.728 0 1.355.205.626.204 1.116.601.49.392.806.963.32.567.417 1.295m1.065-1.619v-1.325h6.963v1.325h-2.698V207h-1.568v-7.402zm11.213 9.857v-9h1.517v1.082h.09a2.8 2.8 0 0 1 .337-.507q.216-.273.588-.465.37-.195.946-.196.757 0 1.368.388.613.384.971 1.138.363.75.362 1.841 0 1.078-.353 1.832-.354.755-.963 1.151a2.5 2.5 0 0 1-1.381.396q-.562 0-.933-.187a1.9 1.9 0 0 1-.597-.452 3 3 0 0 1-.345-.507h-.064v3.486zm1.513-5.728q0 .636.179 1.112.183.478.524.746.346.264.835.264.512 0 .857-.272.345-.277.52-.755.179-.481.179-1.095 0-.61-.175-1.082a1.63 1.63 0 0 0-.52-.742q-.345-.268-.861-.268-.494 0-.839.26t-.524.729a3.1 3.1 0 0 0-.175 1.103m7.871 3.405q-.622 0-1.121-.221a1.84 1.84 0 0 1-.784-.665q-.285-.44-.285-1.083 0-.553.204-.916.205-.362.558-.579.354-.218.797-.329.448-.115.925-.166.575-.059.933-.106.358-.05.52-.154.166-.106.166-.328v-.025q0-.482-.285-.746-.286-.264-.823-.264-.567 0-.899.247a1.23 1.23 0 0 0-.443.584l-1.44-.205q.17-.597.562-.997.392-.405.959-.605a3.7 3.7 0 0 1 1.253-.205q.473 0 .942.111.469.11.856.367.388.25.622.686.239.434.239 1.086V207h-1.483v-.899h-.051a1.88 1.88 0 0 1-1.031.89q-.38.141-.891.141m.4-1.133q.465 0 .806-.184.34-.187.524-.494a1.26 1.26 0 0 0 .187-.669v-.771a.7.7 0 0 1-.247.11 3 3 0 0 1-.383.09q-.213.038-.422.068l-.362.051q-.345.048-.618.154a1.03 1.03 0 0 0-.431.298.73.73 0 0 0-.157.486q0 .426.311.643.31.218.792.218m7.462 1.129q-.98 0-1.683-.431a2.87 2.87 0 0 1-1.078-1.188q-.375-.763-.375-1.756 0-.998.383-1.76a2.87 2.87 0 0 1 1.083-1.193q.702-.43 1.662-.431.796 0 1.41.294.618.29.984.823.367.528.418 1.236h-1.474a1.4 1.4 0 0 0-.426-.789q-.333-.32-.891-.319-.472 0-.831.255a1.63 1.63 0 0 0-.558.725q-.196.473-.196 1.133 0 .67.196 1.151.196.477.549.737.358.256.84.256.34 0 .609-.128.273-.132.456-.379t.252-.601h1.474a2.6 2.6 0 0 1-.409 1.231 2.43 2.43 0 0 1-.963.836q-.61.297-1.432.298m5.477-2.182-.004-1.862h.247l2.352-2.629h1.803l-2.894 3.221h-.319zM388.828 207v-8.727h1.542V207zm4.108 0-2.131-2.979 1.04-1.086 2.936 4.065zm5.352.128q-.984 0-1.7-.409a2.77 2.77 0 0 1-1.095-1.168q-.384-.759-.384-1.785 0-1.011.384-1.773a2.9 2.9 0 0 1 1.082-1.193q.695-.43 1.632-.431.605 0 1.142.196.541.192.955.597.417.405.656 1.031.239.622.239 1.483v.473h-5.366v-1.04h3.887a1.66 1.66 0 0 0-.192-.788 1.4 1.4 0 0 0-.524-.55 1.5 1.5 0 0 0-.776-.2q-.472 0-.831.23a1.6 1.6 0 0 0-.558.597 1.7 1.7 0 0 0-.2.805v.908q0 .57.209.98.208.405.583.622.375.213.878.213.337 0 .61-.094.272-.098.473-.285.2-.188.302-.465l1.441.162a2.25 2.25 0 0 1-.52.997q-.38.422-.972.657a3.7 3.7 0 0 1-1.355.23m7.484-6.673v1.193h-3.763v-1.193zm-2.834-1.569h1.543v6.145q0 .312.094.478.098.16.255.221.158.06.35.06.144 0 .264-.022.123-.021.187-.038l.26 1.206q-.123.043-.353.094a3 3 0 0 1-.554.059 2.5 2.5 0 0 1-1.044-.174 1.63 1.63 0 0 1-.738-.605q-.269-.41-.264-1.023z"/><rect width="143.5" height="15.5" x="251.25" y="166.25" fill="#40224e" rx="1.75"/><rect width="143.5" height="15.5" x="251.25" y="166.25" stroke="#bd53ee" stroke-width=".5" rx="1.75"/><path fill="#fff" d="M255.717 178v-7.273h2.728q.837 0 1.406.313.572.313.863.859.295.543.295 1.236 0 .7-.295 1.243a2.1 2.1 0 0 1-.87.856q-.576.309-1.417.309h-1.808v-1.083h1.63q.49 0 .803-.171.312-.17.461-.469a1.5 1.5 0 0 0 .153-.685q0-.387-.153-.682a1.04 1.04 0 0 0-.465-.458q-.312-.167-.806-.167h-1.207V178zm6.436 0v-7.273h2.727q.839 0 1.406.291.573.292.863.817.295.522.295 1.218 0 .7-.298 1.215a1.97 1.97 0 0 1-.87.792q-.576.276-1.414.277h-1.942v-1.094h1.765q.49 0 .802-.135a.95.95 0 0 0 .462-.401q.153-.267.153-.654a1.33 1.33 0 0 0-.153-.66.97.97 0 0 0-.465-.419q-.312-.146-.806-.146h-1.208V178zm3.757-3.295 1.8 3.295h-1.47l-1.768-3.295zm9.245-.341q0 1.174-.44 2.013a3.1 3.1 0 0 1-1.193 1.279 3.3 3.3 0 0 1-1.708.443 3.33 3.33 0 0 1-1.712-.443 3.2 3.2 0 0 1-1.193-1.282q-.437-.839-.437-2.01 0-1.176.437-2.01a3.14 3.14 0 0 1 1.193-1.282 3.3 3.3 0 0 1 1.712-.444q.955 0 1.708.444.756.444 1.193 1.282.44.834.44 2.01m-1.324 0q0-.828-.259-1.396-.257-.572-.711-.863a1.9 1.9 0 0 0-1.047-.295q-.594 0-1.048.295-.454.291-.714.863-.255.568-.255 1.396 0 .827.255 1.399.26.568.714.863a1.9 1.9 0 0 0 1.048.291 1.9 1.9 0 0 0 1.047-.291q.454-.295.711-.863.259-.572.259-1.399m3.407-3.637 1.602 2.664h.056l1.609-2.664h1.502l-2.24 3.637 2.276 3.636h-1.527l-1.62-2.646h-.056L277.22 178h-1.52l2.298-3.636-2.269-3.637zm5.306 0h1.488l1.779 3.218h.071l1.78-3.218h1.488l-2.646 4.56V178h-1.314v-2.713zm9.962 9.318v-7.5h1.264v.902h.075q.1-.198.281-.422.18-.228.49-.387.308-.164.788-.164.631 0 1.14.324.511.32.81.948.301.625.301 1.534 0 .898-.294 1.527-.295.628-.803.959-.507.33-1.151.33-.468 0-.777-.156a1.6 1.6 0 0 1-.497-.377 2.5 2.5 0 0 1-.288-.422h-.053v2.904zm1.261-4.772q0 .528.149.927.152.397.437.621.288.22.696.22.426 0 .714-.227.287-.23.433-.629.149-.4.149-.912 0-.508-.146-.902a1.35 1.35 0 0 0-.433-.618 1.14 1.14 0 0 0-.717-.224q-.412 0-.7.217a1.33 1.33 0 0 0-.437.607q-.145.39-.145.92m4.989 2.727v-5.455h1.247v.91h.056q.15-.473.512-.728.366-.26.834-.26.107 0 .238.011.135.007.224.025v1.182a1.3 1.3 0 0 0-.259-.049 2 2 0 0 0-.338-.025 1.3 1.3 0 0 0-.632.152q-.276.15-.436.416-.16.267-.16.614V178zm6.12.107q-.8 0-1.385-.352a2.4 2.4 0 0 1-.909-.984q-.32-.632-.32-1.477t.32-1.481q.322-.636.909-.987.585-.352 1.385-.352.798 0 1.385.352.585.351.905.987.323.636.323 1.481t-.323 1.477q-.32.633-.905.984-.587.352-1.385.352m.007-1.03q.433 0 .724-.238.291-.242.433-.647.147-.404.146-.902a2.6 2.6 0 0 0-.146-.905 1.43 1.43 0 0 0-.433-.65 1.1 1.1 0 0 0-.724-.241q-.444 0-.739.241a1.46 1.46 0 0 0-.437.65 2.7 2.7 0 0 0-.142.905q0 .498.142.902.146.405.437.647.295.238.739.238m6.421-4.532v.995h-3.135v-.995zm-2.361-1.306h1.285v5.12q0 .26.078.398.082.135.213.185a.8.8 0 0 0 .292.049q.12 0 .22-.017.102-.018.156-.032l.217 1.005a2.5 2.5 0 0 1-.757.128 2.1 2.1 0 0 1-.87-.146 1.35 1.35 0 0 1-.614-.504q-.224-.342-.22-.853zm5.757 6.868q-.799 0-1.385-.352a2.4 2.4 0 0 1-.909-.984q-.32-.632-.32-1.477t.32-1.481q.322-.636.909-.987.586-.352 1.385-.352t1.385.352q.585.351.905.987.324.636.324 1.481t-.324 1.477q-.32.633-.905.984-.586.352-1.385.352m.007-1.03q.433 0 .724-.238.292-.242.434-.647.145-.404.145-.902 0-.5-.145-.905a1.43 1.43 0 0 0-.434-.65 1.1 1.1 0 0 0-.724-.241q-.444 0-.739.241a1.46 1.46 0 0 0-.436.65q-.142.405-.142.905 0 .498.142.902.145.405.436.647.295.238.739.238m6.077 1.03q-.817 0-1.403-.359a2.4 2.4 0 0 1-.898-.991q-.313-.635-.313-1.463 0-.831.32-1.467.32-.639.902-.994.585-.359 1.385-.359.664 0 1.175.245.515.242.821.686.304.44.348 1.03h-1.229a1.18 1.18 0 0 0-.355-.657q-.277-.267-.742-.267-.394 0-.693.213-.298.21-.465.604a2.5 2.5 0 0 0-.163.945q0 .557.163.959.163.397.458.614.298.213.7.213.284 0 .507-.107.228-.11.38-.316.153-.206.21-.5h1.229a2.15 2.15 0 0 1-.341 1.026 2 2 0 0 1-.803.696q-.507.249-1.193.249m5.771 0q-.798 0-1.385-.352a2.4 2.4 0 0 1-.909-.984q-.32-.632-.319-1.477 0-.845.319-1.481.324-.636.909-.987.587-.352 1.385-.352.8 0 1.385.352.587.351.906.987.323.636.323 1.481t-.323 1.477q-.32.633-.906.984-.585.352-1.385.352m.007-1.03q.434 0 .725-.238.29-.242.433-.647.146-.404.146-.902 0-.5-.146-.905a1.44 1.44 0 0 0-.433-.65 1.1 1.1 0 0 0-.725-.241q-.443 0-.738.241a1.46 1.46 0 0 0-.437.65q-.142.405-.142.905 0 .498.142.902.146.405.437.647.295.238.738.238m4.984-6.35V178h-1.286v-7.273zm3.802 7.273v-5.455h1.286V178zm.646-6.229a.75.75 0 0 1-.525-.202.65.65 0 0 1-.22-.494q0-.29.22-.493a.74.74 0 0 1 .525-.206q.309 0 .526.206.22.202.22.493a.65.65 0 0 1-.22.494.74.74 0 0 1-.526.202m3.247 3.033V178h-1.286v-5.455h1.229v.927h.064q.189-.458.6-.728.416-.27 1.026-.27.566 0 .984.242.423.242.654.699.234.458.23 1.112V178h-1.285v-3.274q0-.547-.284-.856-.28-.309-.778-.309-.338 0-.6.149a1.03 1.03 0 0 0-.408.423 1.4 1.4 0 0 0-.146.671m7.571-2.259v.995h-3.224v-.995zM344.394 178v-5.969q0-.55.227-.917.231-.365.618-.547.387-.18.859-.181.334 0 .593.054.26.053.384.096l-.256.994a2 2 0 0 0-.206-.05 1.2 1.2 0 0 0-.277-.028q-.358 0-.508.174-.145.17-.145.49V178zm5.599.107q-.799 0-1.385-.352a2.4 2.4 0 0 1-.909-.984q-.32-.632-.32-1.477t.32-1.481q.322-.636.909-.987.586-.352 1.385-.352t1.385.352q.585.351.905.987.324.636.324 1.481t-.324 1.477q-.32.633-.905.984-.586.352-1.385.352m.007-1.03q.433 0 .724-.238.292-.242.434-.647.145-.404.145-.902 0-.5-.145-.905a1.43 1.43 0 0 0-.434-.65 1.1 1.1 0 0 0-.724-.241q-.444 0-.739.241a1.46 1.46 0 0 0-.436.65q-.142.405-.142.905 0 .498.142.902.145.405.436.647.295.238.739.238m3.698.923v-5.455h1.246v.91h.057q.149-.473.511-.728.366-.26.835-.26.106 0 .238.011.135.007.223.025v1.182a1.3 1.3 0 0 0-.259-.049 2 2 0 0 0-.337-.025q-.352 0-.632.152-.278.15-.437.416-.16.267-.16.614V178zm3.964 0v-5.455h1.229v.927h.064q.17-.468.565-.731.393-.267.941-.267.553 0 .934.27.383.267.539.728h.057q.182-.454.611-.724a1.9 1.9 0 0 1 1.026-.274q.753 0 1.229.476t.476 1.389V178h-1.289v-3.462q0-.508-.27-.743a.97.97 0 0 0-.661-.237q-.464 0-.728.291-.259.287-.259.749V178h-1.26v-3.516q0-.422-.256-.674-.252-.252-.661-.252a.93.93 0 0 0-.504.142 1 1 0 0 0-.362.394q-.135.252-.135.589V178zm10.545.11a2.3 2.3 0 0 1-.934-.185 1.5 1.5 0 0 1-.654-.554q-.238-.365-.238-.902 0-.461.171-.763.17-.302.465-.483a2.3 2.3 0 0 1 .664-.273q.373-.096.771-.139.48-.05.777-.089.299-.042.434-.128.138-.089.138-.273v-.021q0-.402-.238-.622-.237-.22-.685-.22-.473 0-.749.206a1 1 0 0 0-.37.487l-1.2-.171q.142-.496.469-.831.327-.337.799-.504a3 3 0 0 1 1.044-.171q.394 0 .785.093.39.092.713.305.324.21.519.572.199.362.199.905V178h-1.236v-.749h-.043a1.6 1.6 0 0 1-.33.426q-.21.195-.529.316a2.1 2.1 0 0 1-.742.117m.333-.945q.388 0 .672-.152.284-.156.436-.412.157-.256.157-.558v-.642a.6.6 0 0 1-.206.092 3 3 0 0 1-.32.074 8 8 0 0 1-.351.057l-.302.043a2.2 2.2 0 0 0-.515.128.86.86 0 0 0-.359.248.6.6 0 0 0-.131.405q0 .356.259.536.26.181.66.181m6.563-4.62v.995h-3.136v-.995zm-2.362-1.306h1.286v5.12q0 .26.078.398.082.135.213.185a.8.8 0 0 0 .291.049q.121 0 .221-.017.102-.018.156-.032l.216 1.005a2.5 2.5 0 0 1-.756.128 2.1 2.1 0 0 1-.87-.146 1.35 1.35 0 0 1-.614-.504q-.224-.342-.221-.853zm3.437 6.761v-5.455h1.286V178zm.646-6.229a.75.75 0 0 1-.525-.202.65.65 0 0 1-.22-.494q0-.29.22-.493a.74.74 0 0 1 .525-.206q.31 0 .526.206.22.202.22.493a.65.65 0 0 1-.22.494.74.74 0 0 1-.526.202m4.341 6.336q-.8 0-1.385-.352a2.4 2.4 0 0 1-.909-.984q-.32-.632-.32-1.477t.32-1.481q.322-.636.909-.987.585-.352 1.385-.352.798 0 1.385.352.585.351.905.987.323.636.323 1.481t-.323 1.477q-.32.633-.905.984-.587.352-1.385.352m.007-1.03q.433 0 .724-.238a1.44 1.44 0 0 0 .434-.647q.145-.404.145-.902 0-.5-.145-.905a1.44 1.44 0 0 0-.434-.65 1.1 1.1 0 0 0-.724-.241q-.444 0-.739.241a1.47 1.47 0 0 0-.437.65 2.7 2.7 0 0 0-.142.905q0 .498.142.902.146.405.437.647.295.238.739.238m4.983-2.273V178h-1.286v-5.455h1.229v.927h.064q.189-.458.6-.728.415-.27 1.027-.27.564 0 .983.242.423.242.654.699.234.458.23 1.112V178h-1.285v-3.274q0-.547-.284-.856-.28-.309-.778-.309-.338 0-.6.149a1.03 1.03 0 0 0-.408.423 1.4 1.4 0 0 0-.146.671"/></g><defs><clipPath id="a"><path fill="#fff" d="M0 0h720v280H0z"/></clipPath><clipPath id="b"><path fill="#fff" d="M0 0h720v314H0z"/></clipPath><clipPath id="c"><path fill="#fff" d="M543.742 64.623h23.016v23.016h-23.016z"/></clipPath><clipPath id="d"><path fill="#fff" d="M543.621 191.623h23.016v23.016h-23.016z"/></clipPath></defs></svg>