<svg xmlns="http://www.w3.org/2000/svg" width="720" height="316" fill="none" viewBox="0 0 720 316"><g clip-path="url(#a)"><path fill="#fff" d="M0 0h720v316H0z"/><g fill="#c1c3c8" clip-path="url(#b)" opacity=".5"><path d="M-11 324a1 1 0 1 1 0 2 1 1 0 0 1 0-2m14 0a1 1 0 1 1 0 2 1 1 0 0 1 0-2m14 0a1 1 0 1 1 0 2 1 1 0 0 1 0-2m14 0a1 1 0 1 1 0 2 1 1 0 0 1 0-2m14 0a1 1 0 1 1 0 2 1 1 0 0 1 0-2m14 0a1 1 0 1 1 0 2 1 1 0 0 1 0-2m14 0a1 1 0 1 1 0 2 1 1 0 0 1 0-2m14 0a1 1 0 1 1 0 2 1 1 0 0 1 0-2m14 0a1 1 0 1 1 0 2 1 1 0 0 1 0-2m14 0a1 1 0 1 1 0 2 1 1 0 0 1 0-2m14 0a1 1 0 1 1 0 2 1 1 0 0 1 0-2m14 0a1 1 0 1 1 0 2 1 1 0 0 1 0-2m14 0a1 1 0 1 1 0 2 1 1 0 0 1 0-2m14 0a1 1 0 1 1 0 2 1 1 0 0 1 0-2m14 0a1 1 0 1 1 0 2 1 1 0 0 1 0-2m14 0a1 1 0 1 1 0 2 1 1 0 0 1 0-2m14 0a1 1 0 1 1 0 2 1 1 0 0 1 0-2m14 0a1 1 0 1 1 0 2 1 1 0 0 1 0-2m14 0a1 1 0 1 1 0 2 1 1 0 0 1 0-2m14 0a1 1 0 1 1 0 2 1 1 0 0 1 0-2m14 0a1 1 0 1 1 0 2 1 1 0 0 1 0-2m14 0a1 1 0 1 1 0 2 1 1 0 0 1 0-2m14 0a1 1 0 1 1 0 2 1 1 0 0 1 0-2m14 0a1 1 0 1 1 0 2 1 1 0 0 1 0-2m14 0a1 1 0 1 1 0 2 1 1 0 0 1 0-2m14 0a1 1 0 1 1 0 2 1 1 0 0 1 0-2m14 0a1 1 0 1 1 0 2 1 1 0 0 1 0-2m14 0a1 1 0 1 1 0 2 1 1 0 0 1 0-2m14 0a1 1 0 1 1 0 2 1 1 0 0 1 0-2m14 0a1 1 0 1 1 0 2 1 1 0 0 1 0-2m14 0a1 1 0 1 1 0 2 1 1 0 0 1 0-2m14 0a1 1 0 1 1 0 2 1 1 0 0 1 0-2m14 0a1 1 0 1 1 0 2 1 1 0 0 1 0-2m14 0a1 1 0 1 1 0 2 1 1 0 0 1 0-2m14 0a1 1 0 1 1 0 2 1 1 0 0 1 0-2m14 0a1 1 0 1 1 0 2 1 1 0 0 1 0-2m14 0a1 1 0 1 1 0 2 1 1 0 0 1 0-2m14 0a1 1 0 1 1 0 2 1 1 0 0 1 0-2m14 0a1 1 0 1 1 0 2 1 1 0 0 1 0-2m14 0a1 1 0 1 1 0 2 1 1 0 0 1 0-2m14 0a1 1 0 1 1 0 2 1 1 0 0 1 0-2m14 0a1 1 0 1 1 0 2 1 1 0 0 1 0-2m14 0a1 1 0 1 1 0 2 1 1 0 0 1 0-2m14 0a1 1 0 1 1 0 2 1 1 0 0 1 0-2m14 0a1 1 0 1 1 0 2 1 1 0 0 1 0-2m14 0a1 1 0 1 1 0 2 1 1 0 0 1 0-2m14 0a1 1 0 1 1 0 2 1 1 0 0 1 0-2m14 0a1 1 0 1 1 0 2 1 1 0 0 1 0-2m14 0a1 1 0 1 1 0 2 1 1 0 0 1 0-2m14 0a1 1 0 1 1 0 2 1 1 0 0 1 0-2m14 0a1 1 0 1 1 0 2 1 1 0 0 1 0-2m14 0a1 1 0 1 1 0 2 1 1 0 0 1 0-2m-714-14a1 1 0 1 1 0 2 1 1 0 0 1 0-2m14 0a1 1 0 1 1 0 2 1 1 0 0 1 0-2m14 0a1 1 0 1 1 0 2 1 1 0 0 1 0-2m14 0a1 1 0 1 1 0 2 1 1 0 0 1 0-2m14 0a1 1 0 1 1 0 2 1 1 0 0 1 0-2m14 0a1 1 0 1 1 0 2 1 1 0 0 1 0-2m14 0a1 1 0 1 1 0 2 1 1 0 0 1 0-2m14 0a1 1 0 1 1 0 2 1 1 0 0 1 0-2m14 0a1 1 0 1 1 0 2 1 1 0 0 1 0-2m14 0a1 1 0 1 1 0 2 1 1 0 0 1 0-2m14 0a1 1 0 1 1 0 2 1 1 0 0 1 0-2m14 0a1 1 0 1 1 0 2 1 1 0 0 1 0-2m14 0a1 1 0 1 1 0 2 1 1 0 0 1 0-2m14 0a1 1 0 1 1 0 2 1 1 0 0 1 0-2m14 0a1 1 0 1 1 0 2 1 1 0 0 1 0-2m14 0a1 1 0 1 1 0 2 1 1 0 0 1 0-2m14 0a1 1 0 1 1 0 2 1 1 0 0 1 0-2m14 0a1 1 0 1 1 0 2 1 1 0 0 1 0-2m14 0a1 1 0 1 1 0 2 1 1 0 0 1 0-2m14 0a1 1 0 1 1 0 2 1 1 0 0 1 0-2m14 0a1 1 0 1 1 0 2 1 1 0 0 1 0-2m14 0a1 1 0 1 1 0 2 1 1 0 0 1 0-2m14 0a1 1 0 1 1 0 2 1 1 0 0 1 0-2m14 0a1 1 0 1 1 0 2 1 1 0 0 1 0-2m14 0a1 1 0 1 1 0 2 1 1 0 0 1 0-2m14 0a1 1 0 1 1 0 2 1 1 0 0 1 0-2m14 0a1 1 0 1 1 0 2 1 1 0 0 1 0-2m14 0a1 1 0 1 1 0 2 1 1 0 0 1 0-2m14 0a1 1 0 1 1 0 2 1 1 0 0 1 0-2m14 0a1 1 0 1 1 0 2 1 1 0 0 1 0-2m14 0a1 1 0 1 1 0 2 1 1 0 0 1 0-2m14 0a1 1 0 1 1 0 2 1 1 0 0 1 0-2m14 0a1 1 0 1 1 0 2 1 1 0 0 1 0-2m14 0a1 1 0 1 1 0 2 1 1 0 0 1 0-2m14 0a1 1 0 1 1 0 2 1 1 0 0 1 0-2m14 0a1 1 0 1 1 0 2 1 1 0 0 1 0-2m14 0a1 1 0 1 1 0 2 1 1 0 0 1 0-2m14 0a1 1 0 1 1 0 2 1 1 0 0 1 0-2m14 0a1 1 0 1 1 0 2 1 1 0 0 1 0-2m14 0a1 1 0 1 1 0 2 1 1 0 0 1 0-2m14 0a1 1 0 1 1 0 2 1 1 0 0 1 0-2m14 0a1 1 0 1 1 0 2 1 1 0 0 1 0-2m14 0a1 1 0 1 1 0 2 1 1 0 0 1 0-2m14 0a1 1 0 1 1 0 2 1 1 0 0 1 0-2m14 0a1 1 0 1 1 0 2 1 1 0 0 1 0-2m14 0a1 1 0 1 1 0 2 1 1 0 0 1 0-2m14 0a1 1 0 1 1 0 2 1 1 0 0 1 0-2m14 0a1 1 0 1 1 0 2 1 1 0 0 1 0-2m14 0a1 1 0 1 1 0 2 1 1 0 0 1 0-2m14 0a1 1 0 1 1 0 2 1 1 0 0 1 0-2m14 0a1 1 0 1 1 0 2 1 1 0 0 1 0-2m14 0a1 1 0 1 1 0 2 1 1 0 0 1 0-2m14 0a1 1 0 1 1 0 2 1 1 0 0 1 0-2m-728-14a1 1 0 1 1 0 2 1 1 0 0 1 0-2m14 0a1 1 0 1 1 0 2 1 1 0 0 1 0-2m14 0a1 1 0 1 1 0 2 1 1 0 0 1 0-2m14 0a1 1 0 1 1 0 2 1 1 0 0 1 0-2m14 0a1 1 0 1 1 0 2 1 1 0 0 1 0-2m14 0a1 1 0 1 1 0 2 1 1 0 0 1 0-2m14 0a1 1 0 1 1 0 2 1 1 0 0 1 0-2m14 0a1 1 0 1 1 0 2 1 1 0 0 1 0-2m14 0a1 1 0 1 1 0 2 1 1 0 0 1 0-2m14 0a1 1 0 1 1 0 2 1 1 0 0 1 0-2m14 0a1 1 0 1 1 0 2 1 1 0 0 1 0-2m14 0a1 1 0 1 1 0 2 1 1 0 0 1 0-2m14 0a1 1 0 1 1 0 2 1 1 0 0 1 0-2m14 0a1 1 0 1 1 0 2 1 1 0 0 1 0-2m14 0a1 1 0 1 1 0 2 1 1 0 0 1 0-2m14 0a1 1 0 1 1 0 2 1 1 0 0 1 0-2m14 0a1 1 0 1 1 0 2 1 1 0 0 1 0-2m14 0a1 1 0 1 1 0 2 1 1 0 0 1 0-2m14 0a1 1 0 1 1 0 2 1 1 0 0 1 0-2m14 0a1 1 0 1 1 0 2 1 1 0 0 1 0-2m14 0a1 1 0 1 1 0 2 1 1 0 0 1 0-2m14 0a1 1 0 1 1 0 2 1 1 0 0 1 0-2m14 0a1 1 0 1 1 0 2 1 1 0 0 1 0-2m14 0a1 1 0 1 1 0 2 1 1 0 0 1 0-2m14 0a1 1 0 1 1 0 2 1 1 0 0 1 0-2m14 0a1 1 0 1 1 0 2 1 1 0 0 1 0-2m14 0a1 1 0 1 1 0 2 1 1 0 0 1 0-2m14 0a1 1 0 1 1 0 2 1 1 0 0 1 0-2m14 0a1 1 0 1 1 0 2 1 1 0 0 1 0-2m14 0a1 1 0 1 1 0 2 1 1 0 0 1 0-2m14 0a1 1 0 1 1 0 2 1 1 0 0 1 0-2m14 0a1 1 0 1 1 0 2 1 1 0 0 1 0-2m14 0a1 1 0 1 1 0 2 1 1 0 0 1 0-2m14 0a1 1 0 1 1 0 2 1 1 0 0 1 0-2m14 0a1 1 0 1 1 0 2 1 1 0 0 1 0-2m14 0a1 1 0 1 1 0 2 1 1 0 0 1 0-2m14 0a1 1 0 1 1 0 2 1 1 0 0 1 0-2m14 0a1 1 0 1 1 0 2 1 1 0 0 1 0-2m14 0a1 1 0 1 1 0 2 1 1 0 0 1 0-2m14 0a1 1 0 1 1 0 2 1 1 0 0 1 0-2m14 0a1 1 0 1 1 0 2 1 1 0 0 1 0-2m14 0a1 1 0 1 1 0 2 1 1 0 0 1 0-2m14 0a1 1 0 1 1 0 2 1 1 0 0 1 0-2m14 0a1 1 0 1 1 0 2 1 1 0 0 1 0-2m14 0a1 1 0 1 1 0 2 1 1 0 0 1 0-2m14 0a1 1 0 1 1 0 2 1 1 0 0 1 0-2m14 0a1 1 0 1 1 0 2 1 1 0 0 1 0-2m14 0a1 1 0 1 1 0 2 1 1 0 0 1 0-2m14 0a1 1 0 1 1 0 2 1 1 0 0 1 0-2m14 0a1 1 0 1 1 0 2 1 1 0 0 1 0-2m14 0a1 1 0 1 1 0 2 1 1 0 0 1 0-2m14 0a1 1 0 1 1 0 2 1 1 0 0 1 0-2m14 0a1 1 0 1 1 0 2 1 1 0 0 1 0-2m-728-14a1 1 0 1 1 0 2 1 1 0 0 1 0-2m14 0a1 1 0 1 1 0 2 1 1 0 0 1 0-2m14 0a1 1 0 1 1 0 2 1 1 0 0 1 0-2m14 0a1 1 0 1 1 0 2 1 1 0 0 1 0-2m14 0a1 1 0 1 1 0 2 1 1 0 0 1 0-2m14 0a1 1 0 1 1 0 2 1 1 0 0 1 0-2m14 0a1 1 0 1 1 0 2 1 1 0 0 1 0-2m14 0a1 1 0 1 1 0 2 1 1 0 0 1 0-2m14 0a1 1 0 1 1 0 2 1 1 0 0 1 0-2m14 0a1 1 0 1 1 0 2 1 1 0 0 1 0-2m14 0a1 1 0 1 1 0 2 1 1 0 0 1 0-2m14 0a1 1 0 1 1 0 2 1 1 0 0 1 0-2m14 0a1 1 0 1 1 0 2 1 1 0 0 1 0-2m14 0a1 1 0 1 1 0 2 1 1 0 0 1 0-2m14 0a1 1 0 1 1 0 2 1 1 0 0 1 0-2m14 0a1 1 0 1 1 0 2 1 1 0 0 1 0-2m14 0a1 1 0 1 1 0 2 1 1 0 0 1 0-2m14 0a1 1 0 1 1 0 2 1 1 0 0 1 0-2m14 0a1 1 0 1 1 0 2 1 1 0 0 1 0-2m14 0a1 1 0 1 1 0 2 1 1 0 0 1 0-2m14 0a1 1 0 1 1 0 2 1 1 0 0 1 0-2m14 0a1 1 0 1 1 0 2 1 1 0 0 1 0-2m14 0a1 1 0 1 1 0 2 1 1 0 0 1 0-2m14 0a1 1 0 1 1 0 2 1 1 0 0 1 0-2m14 0a1 1 0 1 1 0 2 1 1 0 0 1 0-2m14 0a1 1 0 1 1 0 2 1 1 0 0 1 0-2m14 0a1 1 0 1 1 0 2 1 1 0 0 1 0-2m14 0a1 1 0 1 1 0 2 1 1 0 0 1 0-2m14 0a1 1 0 1 1 0 2 1 1 0 0 1 0-2m14 0a1 1 0 1 1 0 2 1 1 0 0 1 0-2m14 0a1 1 0 1 1 0 2 1 1 0 0 1 0-2m14 0a1 1 0 1 1 0 2 1 1 0 0 1 0-2m14 0a1 1 0 1 1 0 2 1 1 0 0 1 0-2m14 0a1 1 0 1 1 0 2 1 1 0 0 1 0-2m14 0a1 1 0 1 1 0 2 1 1 0 0 1 0-2m14 0a1 1 0 1 1 0 2 1 1 0 0 1 0-2m14 0a1 1 0 1 1 0 2 1 1 0 0 1 0-2m14 0a1 1 0 1 1 0 2 1 1 0 0 1 0-2m14 0a1 1 0 1 1 0 2 1 1 0 0 1 0-2m14 0a1 1 0 1 1 0 2 1 1 0 0 1 0-2m14 0a1 1 0 1 1 0 2 1 1 0 0 1 0-2m14 0a1 1 0 1 1 0 2 1 1 0 0 1 0-2m14 0a1 1 0 1 1 0 2 1 1 0 0 1 0-2m14 0a1 1 0 1 1 0 2 1 1 0 0 1 0-2m14 0a1 1 0 1 1 0 2 1 1 0 0 1 0-2m14 0a1 1 0 1 1 0 2 1 1 0 0 1 0-2m14 0a1 1 0 1 1 0 2 1 1 0 0 1 0-2m14 0a1 1 0 1 1 0 2 1 1 0 0 1 0-2m14 0a1 1 0 1 1 0 2 1 1 0 0 1 0-2m14 0a1 1 0 1 1 0 2 1 1 0 0 1 0-2m14 0a1 1 0 1 1 0 2 1 1 0 0 1 0-2m14 0a1 1 0 1 1 0 2 1 1 0 0 1 0-2m14 0a1 1 0 1 1 0 2 1 1 0 0 1 0-2m-728-14a1 1 0 1 1 0 2 1 1 0 0 1 0-2m14 0a1 1 0 1 1 0 2 1 1 0 0 1 0-2m14 0a1 1 0 1 1 0 2 1 1 0 0 1 0-2m14 0a1 1 0 1 1 0 2 1 1 0 0 1 0-2m14 0a1 1 0 1 1 0 2 1 1 0 0 1 0-2m14 0a1 1 0 1 1 0 2 1 1 0 0 1 0-2m14 0a1 1 0 1 1 0 2 1 1 0 0 1 0-2m14 0a1 1 0 1 1 0 2 1 1 0 0 1 0-2m14 0a1 1 0 1 1 0 2 1 1 0 0 1 0-2m14 0a1 1 0 1 1 0 2 1 1 0 0 1 0-2m14 0a1 1 0 1 1 0 2 1 1 0 0 1 0-2m14 0a1 1 0 1 1 0 2 1 1 0 0 1 0-2m14 0a1 1 0 1 1 0 2 1 1 0 0 1 0-2m14 0a1 1 0 1 1 0 2 1 1 0 0 1 0-2m14 0a1 1 0 1 1 0 2 1 1 0 0 1 0-2m14 0a1 1 0 1 1 0 2 1 1 0 0 1 0-2m14 0a1 1 0 1 1 0 2 1 1 0 0 1 0-2m14 0a1 1 0 1 1 0 2 1 1 0 0 1 0-2m14 0a1 1 0 1 1 0 2 1 1 0 0 1 0-2m14 0a1 1 0 1 1 0 2 1 1 0 0 1 0-2m14 0a1 1 0 1 1 0 2 1 1 0 0 1 0-2m14 0a1 1 0 1 1 0 2 1 1 0 0 1 0-2m14 0a1 1 0 1 1 0 2 1 1 0 0 1 0-2m14 0a1 1 0 1 1 0 2 1 1 0 0 1 0-2m14 0a1 1 0 1 1 0 2 1 1 0 0 1 0-2m14 0a1 1 0 1 1 0 2 1 1 0 0 1 0-2m14 0a1 1 0 1 1 0 2 1 1 0 0 1 0-2m14 0a1 1 0 1 1 0 2 1 1 0 0 1 0-2m14 0a1 1 0 1 1 0 2 1 1 0 0 1 0-2m14 0a1 1 0 1 1 0 2 1 1 0 0 1 0-2m14 0a1 1 0 1 1 0 2 1 1 0 0 1 0-2m14 0a1 1 0 1 1 0 2 1 1 0 0 1 0-2m14 0a1 1 0 1 1 0 2 1 1 0 0 1 0-2m14 0a1 1 0 1 1 0 2 1 1 0 0 1 0-2m14 0a1 1 0 1 1 0 2 1 1 0 0 1 0-2m14 0a1 1 0 1 1 0 2 1 1 0 0 1 0-2m14 0a1 1 0 1 1 0 2 1 1 0 0 1 0-2m14 0a1 1 0 1 1 0 2 1 1 0 0 1 0-2m14 0a1 1 0 1 1 0 2 1 1 0 0 1 0-2m14 0a1 1 0 1 1 0 2 1 1 0 0 1 0-2m14 0a1 1 0 1 1 0 2 1 1 0 0 1 0-2m14 0a1 1 0 1 1 0 2 1 1 0 0 1 0-2m14 0a1 1 0 1 1 0 2 1 1 0 0 1 0-2m14 0a1 1 0 1 1 0 2 1 1 0 0 1 0-2m14 0a1 1 0 1 1 0 2 1 1 0 0 1 0-2m14 0a1 1 0 1 1 0 2 1 1 0 0 1 0-2m14 0a1 1 0 1 1 0 2 1 1 0 0 1 0-2m14 0a1 1 0 1 1 0 2 1 1 0 0 1 0-2m14 0a1 1 0 1 1 0 2 1 1 0 0 1 0-2m14 0a1 1 0 1 1 0 2 1 1 0 0 1 0-2m14 0a1 1 0 1 1 0 2 1 1 0 0 1 0-2m14 0a1 1 0 1 1 0 2 1 1 0 0 1 0-2m14 0a1 1 0 1 1 0 2 1 1 0 0 1 0-2m-728-14a1 1 0 1 1 0 2 1 1 0 0 1 0-2m14 0a1 1 0 1 1 0 2 1 1 0 0 1 0-2m14 0a1 1 0 1 1 0 2 1 1 0 0 1 0-2m14 0a1 1 0 1 1 0 2 1 1 0 0 1 0-2m14 0a1 1 0 1 1 0 2 1 1 0 0 1 0-2m14 0a1 1 0 1 1 0 2 1 1 0 0 1 0-2m14 0a1 1 0 1 1 0 2 1 1 0 0 1 0-2m14 0a1 1 0 1 1 0 2 1 1 0 0 1 0-2m14 0a1 1 0 1 1 0 2 1 1 0 0 1 0-2m14 0a1 1 0 1 1 0 2 1 1 0 0 1 0-2m14 0a1 1 0 1 1 0 2 1 1 0 0 1 0-2m14 0a1 1 0 1 1 0 2 1 1 0 0 1 0-2m14 0a1 1 0 1 1 0 2 1 1 0 0 1 0-2m14 0a1 1 0 1 1 0 2 1 1 0 0 1 0-2m14 0a1 1 0 1 1 0 2 1 1 0 0 1 0-2m14 0a1 1 0 1 1 0 2 1 1 0 0 1 0-2m14 0a1 1 0 1 1 0 2 1 1 0 0 1 0-2m14 0a1 1 0 1 1 0 2 1 1 0 0 1 0-2m14 0a1 1 0 1 1 0 2 1 1 0 0 1 0-2m14 0a1 1 0 1 1 0 2 1 1 0 0 1 0-2m14 0a1 1 0 1 1 0 2 1 1 0 0 1 0-2m14 0a1 1 0 1 1 0 2 1 1 0 0 1 0-2m14 0a1 1 0 1 1 0 2 1 1 0 0 1 0-2m14 0a1 1 0 1 1 0 2 1 1 0 0 1 0-2m14 0a1 1 0 1 1 0 2 1 1 0 0 1 0-2m14 0a1 1 0 1 1 0 2 1 1 0 0 1 0-2m14 0a1 1 0 1 1 0 2 1 1 0 0 1 0-2m14 0a1 1 0 1 1 0 2 1 1 0 0 1 0-2m14 0a1 1 0 1 1 0 2 1 1 0 0 1 0-2m14 0a1 1 0 1 1 0 2 1 1 0 0 1 0-2m14 0a1 1 0 1 1 0 2 1 1 0 0 1 0-2m14 0a1 1 0 1 1 0 2 1 1 0 0 1 0-2m14 0a1 1 0 1 1 0 2 1 1 0 0 1 0-2m14 0a1 1 0 1 1 0 2 1 1 0 0 1 0-2m14 0a1 1 0 1 1 0 2 1 1 0 0 1 0-2m14 0a1 1 0 1 1 0 2 1 1 0 0 1 0-2m14 0a1 1 0 1 1 0 2 1 1 0 0 1 0-2m14 0a1 1 0 1 1 0 2 1 1 0 0 1 0-2m14 0a1 1 0 1 1 0 2 1 1 0 0 1 0-2m14 0a1 1 0 1 1 0 2 1 1 0 0 1 0-2m14 0a1 1 0 1 1 0 2 1 1 0 0 1 0-2m14 0a1 1 0 1 1 0 2 1 1 0 0 1 0-2m14 0a1 1 0 1 1 0 2 1 1 0 0 1 0-2m14 0a1 1 0 1 1 0 2 1 1 0 0 1 0-2m14 0a1 1 0 1 1 0 2 1 1 0 0 1 0-2m14 0a1 1 0 1 1 0 2 1 1 0 0 1 0-2m14 0a1 1 0 1 1 0 2 1 1 0 0 1 0-2m14 0a1 1 0 1 1 0 2 1 1 0 0 1 0-2m14 0a1 1 0 1 1 0 2 1 1 0 0 1 0-2m14 0a1 1 0 1 1 0 2 1 1 0 0 1 0-2m14 0a1 1 0 1 1 0 2 1 1 0 0 1 0-2m14 0a1 1 0 1 1 0 2 1 1 0 0 1 0-2m14 0a1 1 0 1 1 0 2 1 1 0 0 1 0-2m-728-14a1 1 0 1 1 0 2 1 1 0 0 1 0-2m14 0a1 1 0 1 1 0 2 1 1 0 0 1 0-2m14 0a1 1 0 1 1 0 2 1 1 0 0 1 0-2m14 0a1 1 0 1 1 0 2 1 1 0 0 1 0-2m14 0a1 1 0 1 1 0 2 1 1 0 0 1 0-2m14 0a1 1 0 1 1 0 2 1 1 0 0 1 0-2m14 0a1 1 0 1 1 0 2 1 1 0 0 1 0-2m14 0a1 1 0 1 1 0 2 1 1 0 0 1 0-2m14 0a1 1 0 1 1 0 2 1 1 0 0 1 0-2m14 0a1 1 0 1 1 0 2 1 1 0 0 1 0-2m14 0a1 1 0 1 1 0 2 1 1 0 0 1 0-2m14 0a1 1 0 1 1 0 2 1 1 0 0 1 0-2m14 0a1 1 0 1 1 0 2 1 1 0 0 1 0-2m14 0a1 1 0 1 1 0 2 1 1 0 0 1 0-2m14 0a1 1 0 1 1 0 2 1 1 0 0 1 0-2m14 0a1 1 0 1 1 0 2 1 1 0 0 1 0-2m14 0a1 1 0 1 1 0 2 1 1 0 0 1 0-2m14 0a1 1 0 1 1 0 2 1 1 0 0 1 0-2m14 0a1 1 0 1 1 0 2 1 1 0 0 1 0-2m14 0a1 1 0 1 1 0 2 1 1 0 0 1 0-2m14 0a1 1 0 1 1 0 2 1 1 0 0 1 0-2m14 0a1 1 0 1 1 0 2 1 1 0 0 1 0-2m14 0a1 1 0 1 1 0 2 1 1 0 0 1 0-2m14 0a1 1 0 1 1 0 2 1 1 0 0 1 0-2m14 0a1 1 0 1 1 0 2 1 1 0 0 1 0-2m14 0a1 1 0 1 1 0 2 1 1 0 0 1 0-2m14 0a1 1 0 1 1 0 2 1 1 0 0 1 0-2m14 0a1 1 0 1 1 0 2 1 1 0 0 1 0-2m14 0a1 1 0 1 1 0 2 1 1 0 0 1 0-2m14 0a1 1 0 1 1 0 2 1 1 0 0 1 0-2m14 0a1 1 0 1 1 0 2 1 1 0 0 1 0-2m14 0a1 1 0 1 1 0 2 1 1 0 0 1 0-2m14 0a1 1 0 1 1 0 2 1 1 0 0 1 0-2m14 0a1 1 0 1 1 0 2 1 1 0 0 1 0-2m14 0a1 1 0 1 1 0 2 1 1 0 0 1 0-2m14 0a1 1 0 1 1 0 2 1 1 0 0 1 0-2m14 0a1 1 0 1 1 0 2 1 1 0 0 1 0-2m14 0a1 1 0 1 1 0 2 1 1 0 0 1 0-2m14 0a1 1 0 1 1 0 2 1 1 0 0 1 0-2m14 0a1 1 0 1 1 0 2 1 1 0 0 1 0-2m14 0a1 1 0 1 1 0 2 1 1 0 0 1 0-2m14 0a1 1 0 1 1 0 2 1 1 0 0 1 0-2m14 0a1 1 0 1 1 0 2 1 1 0 0 1 0-2m14 0a1 1 0 1 1 0 2 1 1 0 0 1 0-2m14 0a1 1 0 1 1 0 2 1 1 0 0 1 0-2m14 0a1 1 0 1 1 0 2 1 1 0 0 1 0-2m14 0a1 1 0 1 1 0 2 1 1 0 0 1 0-2m14 0a1 1 0 1 1 0 2 1 1 0 0 1 0-2m14 0a1 1 0 1 1 0 2 1 1 0 0 1 0-2m14 0a1 1 0 1 1 0 2 1 1 0 0 1 0-2m14 0a1 1 0 1 1 0 2 1 1 0 0 1 0-2m14 0a1 1 0 1 1 0 2 1 1 0 0 1 0-2m14 0a1 1 0 1 1 0 2 1 1 0 0 1 0-2m-728-14a1 1 0 1 1 0 2 1 1 0 0 1 0-2m14 0a1 1 0 1 1 0 2 1 1 0 0 1 0-2m14 0a1 1 0 1 1 0 2 1 1 0 0 1 0-2m14 0a1 1 0 1 1 0 2 1 1 0 0 1 0-2m14 0a1 1 0 1 1 0 2 1 1 0 0 1 0-2m14 0a1 1 0 1 1 0 2 1 1 0 0 1 0-2m14 0a1 1 0 1 1 0 2 1 1 0 0 1 0-2m14 0a1 1 0 1 1 0 2 1 1 0 0 1 0-2m14 0a1 1 0 1 1 0 2 1 1 0 0 1 0-2m14 0a1 1 0 1 1 0 2 1 1 0 0 1 0-2m14 0a1 1 0 1 1 0 2 1 1 0 0 1 0-2m14 0a1 1 0 1 1 0 2 1 1 0 0 1 0-2m14 0a1 1 0 1 1 0 2 1 1 0 0 1 0-2m14 0a1 1 0 1 1 0 2 1 1 0 0 1 0-2m14 0a1 1 0 1 1 0 2 1 1 0 0 1 0-2m14 0a1 1 0 1 1 0 2 1 1 0 0 1 0-2m14 0a1 1 0 1 1 0 2 1 1 0 0 1 0-2m14 0a1 1 0 1 1 0 2 1 1 0 0 1 0-2m14 0a1 1 0 1 1 0 2 1 1 0 0 1 0-2m14 0a1 1 0 1 1 0 2 1 1 0 0 1 0-2m14 0a1 1 0 1 1 0 2 1 1 0 0 1 0-2m14 0a1 1 0 1 1 0 2 1 1 0 0 1 0-2m14 0a1 1 0 1 1 0 2 1 1 0 0 1 0-2m14 0a1 1 0 1 1 0 2 1 1 0 0 1 0-2m14 0a1 1 0 1 1 0 2 1 1 0 0 1 0-2m14 0a1 1 0 1 1 0 2 1 1 0 0 1 0-2m14 0a1 1 0 1 1 0 2 1 1 0 0 1 0-2m14 0a1 1 0 1 1 0 2 1 1 0 0 1 0-2m14 0a1 1 0 1 1 0 2 1 1 0 0 1 0-2m14 0a1 1 0 1 1 0 2 1 1 0 0 1 0-2m14 0a1 1 0 1 1 0 2 1 1 0 0 1 0-2m14 0a1 1 0 1 1 0 2 1 1 0 0 1 0-2m14 0a1 1 0 1 1 0 2 1 1 0 0 1 0-2m14 0a1 1 0 1 1 0 2 1 1 0 0 1 0-2m14 0a1 1 0 1 1 0 2 1 1 0 0 1 0-2m14 0a1 1 0 1 1 0 2 1 1 0 0 1 0-2m14 0a1 1 0 1 1 0 2 1 1 0 0 1 0-2m14 0a1 1 0 1 1 0 2 1 1 0 0 1 0-2m14 0a1 1 0 1 1 0 2 1 1 0 0 1 0-2m14 0a1 1 0 1 1 0 2 1 1 0 0 1 0-2m14 0a1 1 0 1 1 0 2 1 1 0 0 1 0-2m14 0a1 1 0 1 1 0 2 1 1 0 0 1 0-2m14 0a1 1 0 1 1 0 2 1 1 0 0 1 0-2m14 0a1 1 0 1 1 0 2 1 1 0 0 1 0-2m14 0a1 1 0 1 1 0 2 1 1 0 0 1 0-2m14 0a1 1 0 1 1 0 2 1 1 0 0 1 0-2m14 0a1 1 0 1 1 0 2 1 1 0 0 1 0-2m14 0a1 1 0 1 1 0 2 1 1 0 0 1 0-2m14 0a1 1 0 1 1 0 2 1 1 0 0 1 0-2m14 0a1 1 0 1 1 0 2 1 1 0 0 1 0-2m14 0a1 1 0 1 1 0 2 1 1 0 0 1 0-2m14 0a1 1 0 1 1 0 2 1 1 0 0 1 0-2m14 0a1 1 0 1 1 0 2 1 1 0 0 1 0-2m-728-14a1 1 0 1 1 0 2 1 1 0 0 1 0-2m14 0a1 1 0 1 1 0 2 1 1 0 0 1 0-2m14 0a1 1 0 1 1 0 2 1 1 0 0 1 0-2m14 0a1 1 0 1 1 0 2 1 1 0 0 1 0-2m14 0a1 1 0 1 1 0 2 1 1 0 0 1 0-2m14 0a1 1 0 1 1 0 2 1 1 0 0 1 0-2m14 0a1 1 0 1 1 0 2 1 1 0 0 1 0-2m14 0a1 1 0 1 1 0 2 1 1 0 0 1 0-2m14 0a1 1 0 1 1 0 2 1 1 0 0 1 0-2m14 0a1 1 0 1 1 0 2 1 1 0 0 1 0-2m14 0a1 1 0 1 1 0 2 1 1 0 0 1 0-2m14 0a1 1 0 1 1 0 2 1 1 0 0 1 0-2m14 0a1 1 0 1 1 0 2 1 1 0 0 1 0-2m14 0a1 1 0 1 1 0 2 1 1 0 0 1 0-2m14 0a1 1 0 1 1 0 2 1 1 0 0 1 0-2m14 0a1 1 0 1 1 0 2 1 1 0 0 1 0-2m14 0a1 1 0 1 1 0 2 1 1 0 0 1 0-2m14 0a1 1 0 1 1 0 2 1 1 0 0 1 0-2m14 0a1 1 0 1 1 0 2 1 1 0 0 1 0-2m14 0a1 1 0 1 1 0 2 1 1 0 0 1 0-2m14 0a1 1 0 1 1 0 2 1 1 0 0 1 0-2m14 0a1 1 0 1 1 0 2 1 1 0 0 1 0-2m14 0a1 1 0 1 1 0 2 1 1 0 0 1 0-2m14 0a1 1 0 1 1 0 2 1 1 0 0 1 0-2m14 0a1 1 0 1 1 0 2 1 1 0 0 1 0-2m14 0a1 1 0 1 1 0 2 1 1 0 0 1 0-2m14 0a1 1 0 1 1 0 2 1 1 0 0 1 0-2m14 0a1 1 0 1 1 0 2 1 1 0 0 1 0-2m14 0a1 1 0 1 1 0 2 1 1 0 0 1 0-2m14 0a1 1 0 1 1 0 2 1 1 0 0 1 0-2m14 0a1 1 0 1 1 0 2 1 1 0 0 1 0-2m14 0a1 1 0 1 1 0 2 1 1 0 0 1 0-2m14 0a1 1 0 1 1 0 2 1 1 0 0 1 0-2m14 0a1 1 0 1 1 0 2 1 1 0 0 1 0-2m14 0a1 1 0 1 1 0 2 1 1 0 0 1 0-2m14 0a1 1 0 1 1 0 2 1 1 0 0 1 0-2m14 0a1 1 0 1 1 0 2 1 1 0 0 1 0-2m14 0a1 1 0 1 1 0 2 1 1 0 0 1 0-2m14 0a1 1 0 1 1 0 2 1 1 0 0 1 0-2m14 0a1 1 0 1 1 0 2 1 1 0 0 1 0-2m14 0a1 1 0 1 1 0 2 1 1 0 0 1 0-2m14 0a1 1 0 1 1 0 2 1 1 0 0 1 0-2m14 0a1 1 0 1 1 0 2 1 1 0 0 1 0-2m14 0a1 1 0 1 1 0 2 1 1 0 0 1 0-2m14 0a1 1 0 1 1 0 2 1 1 0 0 1 0-2m14 0a1 1 0 1 1 0 2 1 1 0 0 1 0-2m14 0a1 1 0 1 1 0 2 1 1 0 0 1 0-2m14 0a1 1 0 1 1 0 2 1 1 0 0 1 0-2m14 0a1 1 0 1 1 0 2 1 1 0 0 1 0-2m14 0a1 1 0 1 1 0 2 1 1 0 0 1 0-2m14 0a1 1 0 1 1 0 2 1 1 0 0 1 0-2m14 0a1 1 0 1 1 0 2 1 1 0 0 1 0-2m14 0a1 1 0 1 1 0 2 1 1 0 0 1 0-2m-728-14a1 1 0 1 1 0 2 1 1 0 0 1 0-2m14 0a1 1 0 1 1 0 2 1 1 0 0 1 0-2m14 0a1 1 0 1 1 0 2 1 1 0 0 1 0-2m14 0a1 1 0 1 1 0 2 1 1 0 0 1 0-2m14 0a1 1 0 1 1 0 2 1 1 0 0 1 0-2m14 0a1 1 0 1 1 0 2 1 1 0 0 1 0-2m14 0a1 1 0 1 1 0 2 1 1 0 0 1 0-2m14 0a1 1 0 1 1 0 2 1 1 0 0 1 0-2m14 0a1 1 0 1 1 0 2 1 1 0 0 1 0-2m14 0a1 1 0 1 1 0 2 1 1 0 0 1 0-2m14 0a1 1 0 1 1 0 2 1 1 0 0 1 0-2m14 0a1 1 0 1 1 0 2 1 1 0 0 1 0-2m14 0a1 1 0 1 1 0 2 1 1 0 0 1 0-2m14 0a1 1 0 1 1 0 2 1 1 0 0 1 0-2m14 0a1 1 0 1 1 0 2 1 1 0 0 1 0-2m14 0a1 1 0 1 1 0 2 1 1 0 0 1 0-2m14 0a1 1 0 1 1 0 2 1 1 0 0 1 0-2m14 0a1 1 0 1 1 0 2 1 1 0 0 1 0-2m14 0a1 1 0 1 1 0 2 1 1 0 0 1 0-2m14 0a1 1 0 1 1 0 2 1 1 0 0 1 0-2m14 0a1 1 0 1 1 0 2 1 1 0 0 1 0-2m14 0a1 1 0 1 1 0 2 1 1 0 0 1 0-2m14 0a1 1 0 1 1 0 2 1 1 0 0 1 0-2m14 0a1 1 0 1 1 0 2 1 1 0 0 1 0-2m14 0a1 1 0 1 1 0 2 1 1 0 0 1 0-2m14 0a1 1 0 1 1 0 2 1 1 0 0 1 0-2m14 0a1 1 0 1 1 0 2 1 1 0 0 1 0-2m14 0a1 1 0 1 1 0 2 1 1 0 0 1 0-2m14 0a1 1 0 1 1 0 2 1 1 0 0 1 0-2m14 0a1 1 0 1 1 0 2 1 1 0 0 1 0-2m14 0a1 1 0 1 1 0 2 1 1 0 0 1 0-2m14 0a1 1 0 1 1 0 2 1 1 0 0 1 0-2m14 0a1 1 0 1 1 0 2 1 1 0 0 1 0-2m14 0a1 1 0 1 1 0 2 1 1 0 0 1 0-2m14 0a1 1 0 1 1 0 2 1 1 0 0 1 0-2m14 0a1 1 0 1 1 0 2 1 1 0 0 1 0-2m14 0a1 1 0 1 1 0 2 1 1 0 0 1 0-2m14 0a1 1 0 1 1 0 2 1 1 0 0 1 0-2m14 0a1 1 0 1 1 0 2 1 1 0 0 1 0-2m14 0a1 1 0 1 1 0 2 1 1 0 0 1 0-2m14 0a1 1 0 1 1 0 2 1 1 0 0 1 0-2m14 0a1 1 0 1 1 0 2 1 1 0 0 1 0-2m14 0a1 1 0 1 1 0 2 1 1 0 0 1 0-2m14 0a1 1 0 1 1 0 2 1 1 0 0 1 0-2m14 0a1 1 0 1 1 0 2 1 1 0 0 1 0-2m14 0a1 1 0 1 1 0 2 1 1 0 0 1 0-2m14 0a1 1 0 1 1 0 2 1 1 0 0 1 0-2m14 0a1 1 0 1 1 0 2 1 1 0 0 1 0-2m14 0a1 1 0 1 1 0 2 1 1 0 0 1 0-2m14 0a1 1 0 1 1 0 2 1 1 0 0 1 0-2m14 0a1 1 0 1 1 0 2 1 1 0 0 1 0-2m14 0a1 1 0 1 1 0 2 1 1 0 0 1 0-2m14 0a1 1 0 1 1 0 2 1 1 0 0 1 0-2m-728-14a1 1 0 1 1 0 2 1 1 0 0 1 0-2m14 0a1 1 0 1 1 0 2 1 1 0 0 1 0-2m14 0a1 1 0 1 1 0 2 1 1 0 0 1 0-2m14 0a1 1 0 1 1 0 2 1 1 0 0 1 0-2m14 0a1 1 0 1 1 0 2 1 1 0 0 1 0-2m14 0a1 1 0 1 1 0 2 1 1 0 0 1 0-2m14 0a1 1 0 1 1 0 2 1 1 0 0 1 0-2m14 0a1 1 0 1 1 0 2 1 1 0 0 1 0-2m14 0a1 1 0 1 1 0 2 1 1 0 0 1 0-2m14 0a1 1 0 1 1 0 2 1 1 0 0 1 0-2m14 0a1 1 0 1 1 0 2 1 1 0 0 1 0-2m14 0a1 1 0 1 1 0 2 1 1 0 0 1 0-2m14 0a1 1 0 1 1 0 2 1 1 0 0 1 0-2m14 0a1 1 0 1 1 0 2 1 1 0 0 1 0-2m14 0a1 1 0 1 1 0 2 1 1 0 0 1 0-2m14 0a1 1 0 1 1 0 2 1 1 0 0 1 0-2m14 0a1 1 0 1 1 0 2 1 1 0 0 1 0-2m14 0a1 1 0 1 1 0 2 1 1 0 0 1 0-2m14 0a1 1 0 1 1 0 2 1 1 0 0 1 0-2m14 0a1 1 0 1 1 0 2 1 1 0 0 1 0-2m14 0a1 1 0 1 1 0 2 1 1 0 0 1 0-2m14 0a1 1 0 1 1 0 2 1 1 0 0 1 0-2m14 0a1 1 0 1 1 0 2 1 1 0 0 1 0-2m14 0a1 1 0 1 1 0 2 1 1 0 0 1 0-2m14 0a1 1 0 1 1 0 2 1 1 0 0 1 0-2m14 0a1 1 0 1 1 0 2 1 1 0 0 1 0-2m14 0a1 1 0 1 1 0 2 1 1 0 0 1 0-2m14 0a1 1 0 1 1 0 2 1 1 0 0 1 0-2m14 0a1 1 0 1 1 0 2 1 1 0 0 1 0-2m14 0a1 1 0 1 1 0 2 1 1 0 0 1 0-2m14 0a1 1 0 1 1 0 2 1 1 0 0 1 0-2m14 0a1 1 0 1 1 0 2 1 1 0 0 1 0-2m14 0a1 1 0 1 1 0 2 1 1 0 0 1 0-2m14 0a1 1 0 1 1 0 2 1 1 0 0 1 0-2m14 0a1 1 0 1 1 0 2 1 1 0 0 1 0-2m14 0a1 1 0 1 1 0 2 1 1 0 0 1 0-2m14 0a1 1 0 1 1 0 2 1 1 0 0 1 0-2m14 0a1 1 0 1 1 0 2 1 1 0 0 1 0-2m14 0a1 1 0 1 1 0 2 1 1 0 0 1 0-2m14 0a1 1 0 1 1 0 2 1 1 0 0 1 0-2m14 0a1 1 0 1 1 0 2 1 1 0 0 1 0-2m14 0a1 1 0 1 1 0 2 1 1 0 0 1 0-2m14 0a1 1 0 1 1 0 2 1 1 0 0 1 0-2m14 0a1 1 0 1 1 0 2 1 1 0 0 1 0-2m14 0a1 1 0 1 1 0 2 1 1 0 0 1 0-2m14 0a1 1 0 1 1 0 2 1 1 0 0 1 0-2m14 0a1 1 0 1 1 0 2 1 1 0 0 1 0-2m14 0a1 1 0 1 1 0 2 1 1 0 0 1 0-2m14 0a1 1 0 1 1 0 2 1 1 0 0 1 0-2m14 0a1 1 0 1 1 0 2 1 1 0 0 1 0-2m14 0a1 1 0 1 1 0 2 1 1 0 0 1 0-2m14 0a1 1 0 1 1 0 2 1 1 0 0 1 0-2m14 0a1 1 0 1 1 0 2 1 1 0 0 1 0-2m-728-14a1 1 0 1 1 0 2 1 1 0 0 1 0-2m14 0a1 1 0 1 1 0 2 1 1 0 0 1 0-2m14 0a1 1 0 1 1 0 2 1 1 0 0 1 0-2m14 0a1 1 0 1 1 0 2 1 1 0 0 1 0-2m14 0a1 1 0 1 1 0 2 1 1 0 0 1 0-2m14 0a1 1 0 1 1 0 2 1 1 0 0 1 0-2m14 0a1 1 0 1 1 0 2 1 1 0 0 1 0-2m14 0a1 1 0 1 1 0 2 1 1 0 0 1 0-2m14 0a1 1 0 1 1 0 2 1 1 0 0 1 0-2m14 0a1 1 0 1 1 0 2 1 1 0 0 1 0-2m14 0a1 1 0 1 1 0 2 1 1 0 0 1 0-2m14 0a1 1 0 1 1 0 2 1 1 0 0 1 0-2m14 0a1 1 0 1 1 0 2 1 1 0 0 1 0-2m14 0a1 1 0 1 1 0 2 1 1 0 0 1 0-2m14 0a1 1 0 1 1 0 2 1 1 0 0 1 0-2m14 0a1 1 0 1 1 0 2 1 1 0 0 1 0-2m14 0a1 1 0 1 1 0 2 1 1 0 0 1 0-2m14 0a1 1 0 1 1 0 2 1 1 0 0 1 0-2m14 0a1 1 0 1 1 0 2 1 1 0 0 1 0-2m14 0a1 1 0 1 1 0 2 1 1 0 0 1 0-2m14 0a1 1 0 1 1 0 2 1 1 0 0 1 0-2m14 0a1 1 0 1 1 0 2 1 1 0 0 1 0-2m14 0a1 1 0 1 1 0 2 1 1 0 0 1 0-2m14 0a1 1 0 1 1 0 2 1 1 0 0 1 0-2m14 0a1 1 0 1 1 0 2 1 1 0 0 1 0-2m14 0a1 1 0 1 1 0 2 1 1 0 0 1 0-2m14 0a1 1 0 1 1 0 2 1 1 0 0 1 0-2m14 0a1 1 0 1 1 0 2 1 1 0 0 1 0-2m14 0a1 1 0 1 1 0 2 1 1 0 0 1 0-2m14 0a1 1 0 1 1 0 2 1 1 0 0 1 0-2m14 0a1 1 0 1 1 0 2 1 1 0 0 1 0-2m14 0a1 1 0 1 1 0 2 1 1 0 0 1 0-2m14 0a1 1 0 1 1 0 2 1 1 0 0 1 0-2m14 0a1 1 0 1 1 0 2 1 1 0 0 1 0-2m14 0a1 1 0 1 1 0 2 1 1 0 0 1 0-2m14 0a1 1 0 1 1 0 2 1 1 0 0 1 0-2m14 0a1 1 0 1 1 0 2 1 1 0 0 1 0-2m14 0a1 1 0 1 1 0 2 1 1 0 0 1 0-2m14 0a1 1 0 1 1 0 2 1 1 0 0 1 0-2m14 0a1 1 0 1 1 0 2 1 1 0 0 1 0-2m14 0a1 1 0 1 1 0 2 1 1 0 0 1 0-2m14 0a1 1 0 1 1 0 2 1 1 0 0 1 0-2m14 0a1 1 0 1 1 0 2 1 1 0 0 1 0-2m14 0a1 1 0 1 1 0 2 1 1 0 0 1 0-2m14 0a1 1 0 1 1 0 2 1 1 0 0 1 0-2m14 0a1 1 0 1 1 0 2 1 1 0 0 1 0-2m14 0a1 1 0 1 1 0 2 1 1 0 0 1 0-2m14 0a1 1 0 1 1 0 2 1 1 0 0 1 0-2m14 0a1 1 0 1 1 0 2 1 1 0 0 1 0-2m14 0a1 1 0 1 1 0 2 1 1 0 0 1 0-2m14 0a1 1 0 1 1 0 2 1 1 0 0 1 0-2m14 0a1 1 0 1 1 0 2 1 1 0 0 1 0-2m14 0a1 1 0 1 1 0 2 1 1 0 0 1 0-2m-728-14a1 1 0 1 1 0 2 1 1 0 0 1 0-2m14 0a1 1 0 1 1 0 2 1 1 0 0 1 0-2m14 0a1 1 0 1 1 0 2 1 1 0 0 1 0-2m14 0a1 1 0 1 1 0 2 1 1 0 0 1 0-2m14 0a1 1 0 1 1 0 2 1 1 0 0 1 0-2m14 0a1 1 0 1 1 0 2 1 1 0 0 1 0-2m14 0a1 1 0 1 1 0 2 1 1 0 0 1 0-2m14 0a1 1 0 1 1 0 2 1 1 0 0 1 0-2m14 0a1 1 0 1 1 0 2 1 1 0 0 1 0-2m14 0a1 1 0 1 1 0 2 1 1 0 0 1 0-2m14 0a1 1 0 1 1 0 2 1 1 0 0 1 0-2m14 0a1 1 0 1 1 0 2 1 1 0 0 1 0-2m14 0a1 1 0 1 1 0 2 1 1 0 0 1 0-2m14 0a1 1 0 1 1 0 2 1 1 0 0 1 0-2m14 0a1 1 0 1 1 0 2 1 1 0 0 1 0-2m14 0a1 1 0 1 1 0 2 1 1 0 0 1 0-2m14 0a1 1 0 1 1 0 2 1 1 0 0 1 0-2m14 0a1 1 0 1 1 0 2 1 1 0 0 1 0-2m14 0a1 1 0 1 1 0 2 1 1 0 0 1 0-2m14 0a1 1 0 1 1 0 2 1 1 0 0 1 0-2m14 0a1 1 0 1 1 0 2 1 1 0 0 1 0-2m14 0a1 1 0 1 1 0 2 1 1 0 0 1 0-2m14 0a1 1 0 1 1 0 2 1 1 0 0 1 0-2m14 0a1 1 0 1 1 0 2 1 1 0 0 1 0-2m14 0a1 1 0 1 1 0 2 1 1 0 0 1 0-2m14 0a1 1 0 1 1 0 2 1 1 0 0 1 0-2m14 0a1 1 0 1 1 0 2 1 1 0 0 1 0-2m14 0a1 1 0 1 1 0 2 1 1 0 0 1 0-2m14 0a1 1 0 1 1 0 2 1 1 0 0 1 0-2m14 0a1 1 0 1 1 0 2 1 1 0 0 1 0-2m14 0a1 1 0 1 1 0 2 1 1 0 0 1 0-2m14 0a1 1 0 1 1 0 2 1 1 0 0 1 0-2m14 0a1 1 0 1 1 0 2 1 1 0 0 1 0-2m14 0a1 1 0 1 1 0 2 1 1 0 0 1 0-2m14 0a1 1 0 1 1 0 2 1 1 0 0 1 0-2m14 0a1 1 0 1 1 0 2 1 1 0 0 1 0-2m14 0a1 1 0 1 1 0 2 1 1 0 0 1 0-2m14 0a1 1 0 1 1 0 2 1 1 0 0 1 0-2m14 0a1 1 0 1 1 0 2 1 1 0 0 1 0-2m14 0a1 1 0 1 1 0 2 1 1 0 0 1 0-2m14 0a1 1 0 1 1 0 2 1 1 0 0 1 0-2m14 0a1 1 0 1 1 0 2 1 1 0 0 1 0-2m14 0a1 1 0 1 1 0 2 1 1 0 0 1 0-2m14 0a1 1 0 1 1 0 2 1 1 0 0 1 0-2m14 0a1 1 0 1 1 0 2 1 1 0 0 1 0-2m14 0a1 1 0 1 1 0 2 1 1 0 0 1 0-2m14 0a1 1 0 1 1 0 2 1 1 0 0 1 0-2m14 0a1 1 0 1 1 0 2 1 1 0 0 1 0-2m14 0a1 1 0 1 1 0 2 1 1 0 0 1 0-2m14 0a1 1 0 1 1 0 2 1 1 0 0 1 0-2m14 0a1 1 0 1 1 0 2 1 1 0 0 1 0-2m14 0a1 1 0 1 1 0 2 1 1 0 0 1 0-2m14 0a1 1 0 1 1 0 2 1 1 0 0 1 0-2m-728-14a1 1 0 1 1 0 2 1 1 0 0 1 0-2m14 0a1 1 0 1 1 0 2 1 1 0 0 1 0-2m14 0a1 1 0 1 1 0 2 1 1 0 0 1 0-2m14 0a1 1 0 1 1 0 2 1 1 0 0 1 0-2m14 0a1 1 0 1 1 0 2 1 1 0 0 1 0-2m14 0a1 1 0 1 1 0 2 1 1 0 0 1 0-2m14 0a1 1 0 1 1 0 2 1 1 0 0 1 0-2m14 0a1 1 0 1 1 0 2 1 1 0 0 1 0-2m14 0a1 1 0 1 1 0 2 1 1 0 0 1 0-2m14 0a1 1 0 1 1 0 2 1 1 0 0 1 0-2m14 0a1 1 0 1 1 0 2 1 1 0 0 1 0-2m14 0a1 1 0 1 1 0 2 1 1 0 0 1 0-2m14 0a1 1 0 1 1 0 2 1 1 0 0 1 0-2m14 0a1 1 0 1 1 0 2 1 1 0 0 1 0-2m14 0a1 1 0 1 1 0 2 1 1 0 0 1 0-2m14 0a1 1 0 1 1 0 2 1 1 0 0 1 0-2m14 0a1 1 0 1 1 0 2 1 1 0 0 1 0-2m14 0a1 1 0 1 1 0 2 1 1 0 0 1 0-2m14 0a1 1 0 1 1 0 2 1 1 0 0 1 0-2m14 0a1 1 0 1 1 0 2 1 1 0 0 1 0-2m14 0a1 1 0 1 1 0 2 1 1 0 0 1 0-2m14 0a1 1 0 1 1 0 2 1 1 0 0 1 0-2m14 0a1 1 0 1 1 0 2 1 1 0 0 1 0-2m14 0a1 1 0 1 1 0 2 1 1 0 0 1 0-2m14 0a1 1 0 1 1 0 2 1 1 0 0 1 0-2m14 0a1 1 0 1 1 0 2 1 1 0 0 1 0-2m14 0a1 1 0 1 1 0 2 1 1 0 0 1 0-2m14 0a1 1 0 1 1 0 2 1 1 0 0 1 0-2m14 0a1 1 0 1 1 0 2 1 1 0 0 1 0-2m14 0a1 1 0 1 1 0 2 1 1 0 0 1 0-2m14 0a1 1 0 1 1 0 2 1 1 0 0 1 0-2m14 0a1 1 0 1 1 0 2 1 1 0 0 1 0-2m14 0a1 1 0 1 1 0 2 1 1 0 0 1 0-2m14 0a1 1 0 1 1 0 2 1 1 0 0 1 0-2m14 0a1 1 0 1 1 0 2 1 1 0 0 1 0-2m14 0a1 1 0 1 1 0 2 1 1 0 0 1 0-2m14 0a1 1 0 1 1 0 2 1 1 0 0 1 0-2m14 0a1 1 0 1 1 0 2 1 1 0 0 1 0-2m14 0a1 1 0 1 1 0 2 1 1 0 0 1 0-2m14 0a1 1 0 1 1 0 2 1 1 0 0 1 0-2m14 0a1 1 0 1 1 0 2 1 1 0 0 1 0-2m14 0a1 1 0 1 1 0 2 1 1 0 0 1 0-2m14 0a1 1 0 1 1 0 2 1 1 0 0 1 0-2m14 0a1 1 0 1 1 0 2 1 1 0 0 1 0-2m14 0a1 1 0 1 1 0 2 1 1 0 0 1 0-2m14 0a1 1 0 1 1 0 2 1 1 0 0 1 0-2m14 0a1 1 0 1 1 0 2 1 1 0 0 1 0-2m14 0a1 1 0 1 1 0 2 1 1 0 0 1 0-2m14 0a1 1 0 1 1 0 2 1 1 0 0 1 0-2m14 0a1 1 0 1 1 0 2 1 1 0 0 1 0-2m14 0a1 1 0 1 1 0 2 1 1 0 0 1 0-2m14 0a1 1 0 1 1 0 2 1 1 0 0 1 0-2m14 0a1 1 0 1 1 0 2 1 1 0 0 1 0-2m-728-14a1 1 0 1 1 0 2 1 1 0 0 1 0-2m14 0a1 1 0 1 1 0 2 1 1 0 0 1 0-2m14 0a1 1 0 1 1 0 2 1 1 0 0 1 0-2m14 0a1 1 0 1 1 0 2 1 1 0 0 1 0-2m14 0a1 1 0 1 1 0 2 1 1 0 0 1 0-2m14 0a1 1 0 1 1 0 2 1 1 0 0 1 0-2m14 0a1 1 0 1 1 0 2 1 1 0 0 1 0-2m14 0a1 1 0 1 1 0 2 1 1 0 0 1 0-2m14 0a1 1 0 1 1 0 2 1 1 0 0 1 0-2m14 0a1 1 0 1 1 0 2 1 1 0 0 1 0-2m14 0a1 1 0 1 1 0 2 1 1 0 0 1 0-2m14 0a1 1 0 1 1 0 2 1 1 0 0 1 0-2m14 0a1 1 0 1 1 0 2 1 1 0 0 1 0-2m14 0a1 1 0 1 1 0 2 1 1 0 0 1 0-2m14 0a1 1 0 1 1 0 2 1 1 0 0 1 0-2m14 0a1 1 0 1 1 0 2 1 1 0 0 1 0-2m14 0a1 1 0 1 1 0 2 1 1 0 0 1 0-2m14 0a1 1 0 1 1 0 2 1 1 0 0 1 0-2m14 0a1 1 0 1 1 0 2 1 1 0 0 1 0-2m14 0a1 1 0 1 1 0 2 1 1 0 0 1 0-2m14 0a1 1 0 1 1 0 2 1 1 0 0 1 0-2m14 0a1 1 0 1 1 0 2 1 1 0 0 1 0-2m14 0a1 1 0 1 1 0 2 1 1 0 0 1 0-2m14 0a1 1 0 1 1 0 2 1 1 0 0 1 0-2m14 0a1 1 0 1 1 0 2 1 1 0 0 1 0-2m14 0a1 1 0 1 1 0 2 1 1 0 0 1 0-2m14 0a1 1 0 1 1 0 2 1 1 0 0 1 0-2m14 0a1 1 0 1 1 0 2 1 1 0 0 1 0-2m14 0a1 1 0 1 1 0 2 1 1 0 0 1 0-2m14 0a1 1 0 1 1 0 2 1 1 0 0 1 0-2m14 0a1 1 0 1 1 0 2 1 1 0 0 1 0-2m14 0a1 1 0 1 1 0 2 1 1 0 0 1 0-2m14 0a1 1 0 1 1 0 2 1 1 0 0 1 0-2m14 0a1 1 0 1 1 0 2 1 1 0 0 1 0-2m14 0a1 1 0 1 1 0 2 1 1 0 0 1 0-2m14 0a1 1 0 1 1 0 2 1 1 0 0 1 0-2m14 0a1 1 0 1 1 0 2 1 1 0 0 1 0-2m14 0a1 1 0 1 1 0 2 1 1 0 0 1 0-2m14 0a1 1 0 1 1 0 2 1 1 0 0 1 0-2m14 0a1 1 0 1 1 0 2 1 1 0 0 1 0-2m14 0a1 1 0 1 1 0 2 1 1 0 0 1 0-2m14 0a1 1 0 1 1 0 2 1 1 0 0 1 0-2m14 0a1 1 0 1 1 0 2 1 1 0 0 1 0-2m14 0a1 1 0 1 1 0 2 1 1 0 0 1 0-2m14 0a1 1 0 1 1 0 2 1 1 0 0 1 0-2m14 0a1 1 0 1 1 0 2 1 1 0 0 1 0-2m14 0a1 1 0 1 1 0 2 1 1 0 0 1 0-2m14 0a1 1 0 1 1 0 2 1 1 0 0 1 0-2m14 0a1 1 0 1 1 0 2 1 1 0 0 1 0-2m14 0a1 1 0 1 1 0 2 1 1 0 0 1 0-2m14 0a1 1 0 1 1 0 2 1 1 0 0 1 0-2m14 0a1 1 0 1 1 0 2 1 1 0 0 1 0-2m14 0a1 1 0 1 1 0 2 1 1 0 0 1 0-2m-728-14a1 1 0 1 1 0 2 1 1 0 0 1 0-2m14 0a1 1 0 1 1 0 2 1 1 0 0 1 0-2m14 0a1 1 0 1 1 0 2 1 1 0 0 1 0-2m14 0a1 1 0 1 1 0 2 1 1 0 0 1 0-2m14 0a1 1 0 1 1 0 2 1 1 0 0 1 0-2m14 0a1 1 0 1 1 0 2 1 1 0 0 1 0-2m14 0a1 1 0 1 1 0 2 1 1 0 0 1 0-2m14 0a1 1 0 1 1 0 2 1 1 0 0 1 0-2m14 0a1 1 0 1 1 0 2 1 1 0 0 1 0-2m14 0a1 1 0 1 1 0 2 1 1 0 0 1 0-2m14 0a1 1 0 1 1 0 2 1 1 0 0 1 0-2m14 0a1 1 0 1 1 0 2 1 1 0 0 1 0-2m14 0a1 1 0 1 1 0 2 1 1 0 0 1 0-2m14 0a1 1 0 1 1 0 2 1 1 0 0 1 0-2m14 0a1 1 0 1 1 0 2 1 1 0 0 1 0-2m14 0a1 1 0 1 1 0 2 1 1 0 0 1 0-2m14 0a1 1 0 1 1 0 2 1 1 0 0 1 0-2m14 0a1 1 0 1 1 0 2 1 1 0 0 1 0-2m14 0a1 1 0 1 1 0 2 1 1 0 0 1 0-2m14 0a1 1 0 1 1 0 2 1 1 0 0 1 0-2m14 0a1 1 0 1 1 0 2 1 1 0 0 1 0-2m14 0a1 1 0 1 1 0 2 1 1 0 0 1 0-2m14 0a1 1 0 1 1 0 2 1 1 0 0 1 0-2m14 0a1 1 0 1 1 0 2 1 1 0 0 1 0-2m14 0a1 1 0 1 1 0 2 1 1 0 0 1 0-2m14 0a1 1 0 1 1 0 2 1 1 0 0 1 0-2m14 0a1 1 0 1 1 0 2 1 1 0 0 1 0-2m14 0a1 1 0 1 1 0 2 1 1 0 0 1 0-2m14 0a1 1 0 1 1 0 2 1 1 0 0 1 0-2m14 0a1 1 0 1 1 0 2 1 1 0 0 1 0-2m14 0a1 1 0 1 1 0 2 1 1 0 0 1 0-2m14 0a1 1 0 1 1 0 2 1 1 0 0 1 0-2m14 0a1 1 0 1 1 0 2 1 1 0 0 1 0-2m14 0a1 1 0 1 1 0 2 1 1 0 0 1 0-2m14 0a1 1 0 1 1 0 2 1 1 0 0 1 0-2m14 0a1 1 0 1 1 0 2 1 1 0 0 1 0-2m14 0a1 1 0 1 1 0 2 1 1 0 0 1 0-2m14 0a1 1 0 1 1 0 2 1 1 0 0 1 0-2m14 0a1 1 0 1 1 0 2 1 1 0 0 1 0-2m14 0a1 1 0 1 1 0 2 1 1 0 0 1 0-2m14 0a1 1 0 1 1 0 2 1 1 0 0 1 0-2m14 0a1 1 0 1 1 0 2 1 1 0 0 1 0-2m14 0a1 1 0 1 1 0 2 1 1 0 0 1 0-2m14 0a1 1 0 1 1 0 2 1 1 0 0 1 0-2m14 0a1 1 0 1 1 0 2 1 1 0 0 1 0-2m14 0a1 1 0 1 1 0 2 1 1 0 0 1 0-2m14 0a1 1 0 1 1 0 2 1 1 0 0 1 0-2m14 0a1 1 0 1 1 0 2 1 1 0 0 1 0-2m14 0a1 1 0 1 1 0 2 1 1 0 0 1 0-2m14 0a1 1 0 1 1 0 2 1 1 0 0 1 0-2m14 0a1 1 0 1 1 0 2 1 1 0 0 1 0-2m14 0a1 1 0 1 1 0 2 1 1 0 0 1 0-2m14 0a1 1 0 1 1 0 2 1 1 0 0 1 0-2m-728-14a1 1 0 1 1 0 2 1 1 0 0 1 0-2m14 0a1 1 0 1 1 0 2 1 1 0 0 1 0-2m14 0a1 1 0 1 1 0 2 1 1 0 0 1 0-2m14 0a1 1 0 1 1 0 2 1 1 0 0 1 0-2m14 0a1 1 0 1 1 0 2 1 1 0 0 1 0-2m14 0a1 1 0 1 1 0 2 1 1 0 0 1 0-2m14 0a1 1 0 1 1 0 2 1 1 0 0 1 0-2m14 0a1 1 0 1 1 0 2 1 1 0 0 1 0-2m14 0a1 1 0 1 1 0 2 1 1 0 0 1 0-2m14 0a1 1 0 1 1 0 2 1 1 0 0 1 0-2m14 0a1 1 0 1 1 0 2 1 1 0 0 1 0-2m14 0a1 1 0 1 1 0 2 1 1 0 0 1 0-2m14 0a1 1 0 1 1 0 2 1 1 0 0 1 0-2m14 0a1 1 0 1 1 0 2 1 1 0 0 1 0-2m14 0a1 1 0 1 1 0 2 1 1 0 0 1 0-2m14 0a1 1 0 1 1 0 2 1 1 0 0 1 0-2m14 0a1 1 0 1 1 0 2 1 1 0 0 1 0-2m14 0a1 1 0 1 1 0 2 1 1 0 0 1 0-2m14 0a1 1 0 1 1 0 2 1 1 0 0 1 0-2m14 0a1 1 0 1 1 0 2 1 1 0 0 1 0-2m14 0a1 1 0 1 1 0 2 1 1 0 0 1 0-2m14 0a1 1 0 1 1 0 2 1 1 0 0 1 0-2m14 0a1 1 0 1 1 0 2 1 1 0 0 1 0-2m14 0a1 1 0 1 1 0 2 1 1 0 0 1 0-2m14 0a1 1 0 1 1 0 2 1 1 0 0 1 0-2m14 0a1 1 0 1 1 0 2 1 1 0 0 1 0-2m14 0a1 1 0 1 1 0 2 1 1 0 0 1 0-2m14 0a1 1 0 1 1 0 2 1 1 0 0 1 0-2m14 0a1 1 0 1 1 0 2 1 1 0 0 1 0-2m14 0a1 1 0 1 1 0 2 1 1 0 0 1 0-2m14 0a1 1 0 1 1 0 2 1 1 0 0 1 0-2m14 0a1 1 0 1 1 0 2 1 1 0 0 1 0-2m14 0a1 1 0 1 1 0 2 1 1 0 0 1 0-2m14 0a1 1 0 1 1 0 2 1 1 0 0 1 0-2m14 0a1 1 0 1 1 0 2 1 1 0 0 1 0-2m14 0a1 1 0 1 1 0 2 1 1 0 0 1 0-2m14 0a1 1 0 1 1 0 2 1 1 0 0 1 0-2m14 0a1 1 0 1 1 0 2 1 1 0 0 1 0-2m14 0a1 1 0 1 1 0 2 1 1 0 0 1 0-2m14 0a1 1 0 1 1 0 2 1 1 0 0 1 0-2m14 0a1 1 0 1 1 0 2 1 1 0 0 1 0-2m14 0a1 1 0 1 1 0 2 1 1 0 0 1 0-2m14 0a1 1 0 1 1 0 2 1 1 0 0 1 0-2m14 0a1 1 0 1 1 0 2 1 1 0 0 1 0-2m14 0a1 1 0 1 1 0 2 1 1 0 0 1 0-2m14 0a1 1 0 1 1 0 2 1 1 0 0 1 0-2m14 0a1 1 0 1 1 0 2 1 1 0 0 1 0-2m14 0a1 1 0 1 1 0 2 1 1 0 0 1 0-2m14 0a1 1 0 1 1 0 2 1 1 0 0 1 0-2m14 0a1 1 0 1 1 0 2 1 1 0 0 1 0-2m14 0a1 1 0 1 1 0 2 1 1 0 0 1 0-2m14 0a1 1 0 1 1 0 2 1 1 0 0 1 0-2m14 0a1 1 0 1 1 0 2 1 1 0 0 1 0-2M-11 86a1 1 0 1 1 0 2 1 1 0 0 1 0-2m14 0a1 1 0 1 1 0 2 1 1 0 0 1 0-2m14 0a1 1 0 1 1 0 2 1 1 0 0 1 0-2m14 0a1 1 0 1 1 0 2 1 1 0 0 1 0-2m14 0a1 1 0 1 1 0 2 1 1 0 0 1 0-2m14 0a1 1 0 1 1 0 2 1 1 0 0 1 0-2m14 0a1 1 0 1 1 0 2 1 1 0 0 1 0-2m14 0a1 1 0 1 1 0 2 1 1 0 0 1 0-2m14 0a1 1 0 1 1 0 2 1 1 0 0 1 0-2m14 0a1 1 0 1 1 0 2 1 1 0 0 1 0-2m14 0a1 1 0 1 1 0 2 1 1 0 0 1 0-2m14 0a1 1 0 1 1 0 2 1 1 0 0 1 0-2m14 0a1 1 0 1 1 0 2 1 1 0 0 1 0-2m14 0a1 1 0 1 1 0 2 1 1 0 0 1 0-2m14 0a1 1 0 1 1 0 2 1 1 0 0 1 0-2m14 0a1 1 0 1 1 0 2 1 1 0 0 1 0-2m14 0a1 1 0 1 1 0 2 1 1 0 0 1 0-2m14 0a1 1 0 1 1 0 2 1 1 0 0 1 0-2m14 0a1 1 0 1 1 0 2 1 1 0 0 1 0-2m14 0a1 1 0 1 1 0 2 1 1 0 0 1 0-2m14 0a1 1 0 1 1 0 2 1 1 0 0 1 0-2m14 0a1 1 0 1 1 0 2 1 1 0 0 1 0-2m14 0a1 1 0 1 1 0 2 1 1 0 0 1 0-2m14 0a1 1 0 1 1 0 2 1 1 0 0 1 0-2m14 0a1 1 0 1 1 0 2 1 1 0 0 1 0-2m14 0a1 1 0 1 1 0 2 1 1 0 0 1 0-2m14 0a1 1 0 1 1 0 2 1 1 0 0 1 0-2m14 0a1 1 0 1 1 0 2 1 1 0 0 1 0-2m14 0a1 1 0 1 1 0 2 1 1 0 0 1 0-2m14 0a1 1 0 1 1 0 2 1 1 0 0 1 0-2m14 0a1 1 0 1 1 0 2 1 1 0 0 1 0-2m14 0a1 1 0 1 1 0 2 1 1 0 0 1 0-2m14 0a1 1 0 1 1 0 2 1 1 0 0 1 0-2m14 0a1 1 0 1 1 0 2 1 1 0 0 1 0-2m14 0a1 1 0 1 1 0 2 1 1 0 0 1 0-2m14 0a1 1 0 1 1 0 2 1 1 0 0 1 0-2m14 0a1 1 0 1 1 0 2 1 1 0 0 1 0-2m14 0a1 1 0 1 1 0 2 1 1 0 0 1 0-2m14 0a1 1 0 1 1 0 2 1 1 0 0 1 0-2m14 0a1 1 0 1 1 0 2 1 1 0 0 1 0-2m14 0a1 1 0 1 1 0 2 1 1 0 0 1 0-2m14 0a1 1 0 1 1 0 2 1 1 0 0 1 0-2m14 0a1 1 0 1 1 0 2 1 1 0 0 1 0-2m14 0a1 1 0 1 1 0 2 1 1 0 0 1 0-2m14 0a1 1 0 1 1 0 2 1 1 0 0 1 0-2m14 0a1 1 0 1 1 0 2 1 1 0 0 1 0-2m14 0a1 1 0 1 1 0 2 1 1 0 0 1 0-2m14 0a1 1 0 1 1 0 2 1 1 0 0 1 0-2m14 0a1 1 0 1 1 0 2 1 1 0 0 1 0-2m14 0a1 1 0 1 1 0 2 1 1 0 0 1 0-2m14 0a1 1 0 1 1 0 2 1 1 0 0 1 0-2m14 0a1 1 0 1 1 0 2 1 1 0 0 1 0-2m14 0a1 1 0 1 1 0 2 1 1 0 0 1 0-2M-11 72a1 1 0 1 1 0 2 1 1 0 0 1 0-2m14 0a1 1 0 1 1 0 2 1 1 0 0 1 0-2m14 0a1 1 0 1 1 0 2 1 1 0 0 1 0-2m14 0a1 1 0 1 1 0 2 1 1 0 0 1 0-2m14 0a1 1 0 1 1 0 2 1 1 0 0 1 0-2m14 0a1 1 0 1 1 0 2 1 1 0 0 1 0-2m14 0a1 1 0 1 1 0 2 1 1 0 0 1 0-2m14 0a1 1 0 1 1 0 2 1 1 0 0 1 0-2m14 0a1 1 0 1 1 0 2 1 1 0 0 1 0-2m14 0a1 1 0 1 1 0 2 1 1 0 0 1 0-2m14 0a1 1 0 1 1 0 2 1 1 0 0 1 0-2m14 0a1 1 0 1 1 0 2 1 1 0 0 1 0-2m14 0a1 1 0 1 1 0 2 1 1 0 0 1 0-2m14 0a1 1 0 1 1 0 2 1 1 0 0 1 0-2m14 0a1 1 0 1 1 0 2 1 1 0 0 1 0-2m14 0a1 1 0 1 1 0 2 1 1 0 0 1 0-2m14 0a1 1 0 1 1 0 2 1 1 0 0 1 0-2m14 0a1 1 0 1 1 0 2 1 1 0 0 1 0-2m14 0a1 1 0 1 1 0 2 1 1 0 0 1 0-2m14 0a1 1 0 1 1 0 2 1 1 0 0 1 0-2m14 0a1 1 0 1 1 0 2 1 1 0 0 1 0-2m14 0a1 1 0 1 1 0 2 1 1 0 0 1 0-2m14 0a1 1 0 1 1 0 2 1 1 0 0 1 0-2m14 0a1 1 0 1 1 0 2 1 1 0 0 1 0-2m14 0a1 1 0 1 1 0 2 1 1 0 0 1 0-2m14 0a1 1 0 1 1 0 2 1 1 0 0 1 0-2m14 0a1 1 0 1 1 0 2 1 1 0 0 1 0-2m14 0a1 1 0 1 1 0 2 1 1 0 0 1 0-2m14 0a1 1 0 1 1 0 2 1 1 0 0 1 0-2m14 0a1 1 0 1 1 0 2 1 1 0 0 1 0-2m14 0a1 1 0 1 1 0 2 1 1 0 0 1 0-2m14 0a1 1 0 1 1 0 2 1 1 0 0 1 0-2m14 0a1 1 0 1 1 0 2 1 1 0 0 1 0-2m14 0a1 1 0 1 1 0 2 1 1 0 0 1 0-2m14 0a1 1 0 1 1 0 2 1 1 0 0 1 0-2m14 0a1 1 0 1 1 0 2 1 1 0 0 1 0-2m14 0a1 1 0 1 1 0 2 1 1 0 0 1 0-2m14 0a1 1 0 1 1 0 2 1 1 0 0 1 0-2m14 0a1 1 0 1 1 0 2 1 1 0 0 1 0-2m14 0a1 1 0 1 1 0 2 1 1 0 0 1 0-2m14 0a1 1 0 1 1 0 2 1 1 0 0 1 0-2m14 0a1 1 0 1 1 0 2 1 1 0 0 1 0-2m14 0a1 1 0 1 1 0 2 1 1 0 0 1 0-2m14 0a1 1 0 1 1 0 2 1 1 0 0 1 0-2m14 0a1 1 0 1 1 0 2 1 1 0 0 1 0-2m14 0a1 1 0 1 1 0 2 1 1 0 0 1 0-2m14 0a1 1 0 1 1 0 2 1 1 0 0 1 0-2m14 0a1 1 0 1 1 0 2 1 1 0 0 1 0-2m14 0a1 1 0 1 1 0 2 1 1 0 0 1 0-2m14 0a1 1 0 1 1 0 2 1 1 0 0 1 0-2m14 0a1 1 0 1 1 0 2 1 1 0 0 1 0-2m14 0a1 1 0 1 1 0 2 1 1 0 0 1 0-2m14 0a1 1 0 1 1 0 2 1 1 0 0 1 0-2M-11 58a1 1 0 1 1 0 2 1 1 0 0 1 0-2m14 0a1 1 0 1 1 0 2 1 1 0 0 1 0-2m14 0a1 1 0 1 1 0 2 1 1 0 0 1 0-2m14 0a1 1 0 1 1 0 2 1 1 0 0 1 0-2m14 0a1 1 0 1 1 0 2 1 1 0 0 1 0-2m14 0a1 1 0 1 1 0 2 1 1 0 0 1 0-2m14 0a1 1 0 1 1 0 2 1 1 0 0 1 0-2m14 0a1 1 0 1 1 0 2 1 1 0 0 1 0-2m14 0a1 1 0 1 1 0 2 1 1 0 0 1 0-2m14 0a1 1 0 1 1 0 2 1 1 0 0 1 0-2m14 0a1 1 0 1 1 0 2 1 1 0 0 1 0-2m14 0a1 1 0 1 1 0 2 1 1 0 0 1 0-2m14 0a1 1 0 1 1 0 2 1 1 0 0 1 0-2m14 0a1 1 0 1 1 0 2 1 1 0 0 1 0-2m14 0a1 1 0 1 1 0 2 1 1 0 0 1 0-2m14 0a1 1 0 1 1 0 2 1 1 0 0 1 0-2m14 0a1 1 0 1 1 0 2 1 1 0 0 1 0-2m14 0a1 1 0 1 1 0 2 1 1 0 0 1 0-2m14 0a1 1 0 1 1 0 2 1 1 0 0 1 0-2m14 0a1 1 0 1 1 0 2 1 1 0 0 1 0-2m14 0a1 1 0 1 1 0 2 1 1 0 0 1 0-2m14 0a1 1 0 1 1 0 2 1 1 0 0 1 0-2m14 0a1 1 0 1 1 0 2 1 1 0 0 1 0-2m14 0a1 1 0 1 1 0 2 1 1 0 0 1 0-2m14 0a1 1 0 1 1 0 2 1 1 0 0 1 0-2m14 0a1 1 0 1 1 0 2 1 1 0 0 1 0-2m14 0a1 1 0 1 1 0 2 1 1 0 0 1 0-2m14 0a1 1 0 1 1 0 2 1 1 0 0 1 0-2m14 0a1 1 0 1 1 0 2 1 1 0 0 1 0-2m14 0a1 1 0 1 1 0 2 1 1 0 0 1 0-2m14 0a1 1 0 1 1 0 2 1 1 0 0 1 0-2m14 0a1 1 0 1 1 0 2 1 1 0 0 1 0-2m14 0a1 1 0 1 1 0 2 1 1 0 0 1 0-2m14 0a1 1 0 1 1 0 2 1 1 0 0 1 0-2m14 0a1 1 0 1 1 0 2 1 1 0 0 1 0-2m14 0a1 1 0 1 1 0 2 1 1 0 0 1 0-2m14 0a1 1 0 1 1 0 2 1 1 0 0 1 0-2m14 0a1 1 0 1 1 0 2 1 1 0 0 1 0-2m14 0a1 1 0 1 1 0 2 1 1 0 0 1 0-2m14 0a1 1 0 1 1 0 2 1 1 0 0 1 0-2m14 0a1 1 0 1 1 0 2 1 1 0 0 1 0-2m14 0a1 1 0 1 1 0 2 1 1 0 0 1 0-2m14 0a1 1 0 1 1 0 2 1 1 0 0 1 0-2m14 0a1 1 0 1 1 0 2 1 1 0 0 1 0-2m14 0a1 1 0 1 1 0 2 1 1 0 0 1 0-2m14 0a1 1 0 1 1 0 2 1 1 0 0 1 0-2m14 0a1 1 0 1 1 0 2 1 1 0 0 1 0-2m14 0a1 1 0 1 1 0 2 1 1 0 0 1 0-2m14 0a1 1 0 1 1 0 2 1 1 0 0 1 0-2m14 0a1 1 0 1 1 0 2 1 1 0 0 1 0-2m14 0a1 1 0 1 1 0 2 1 1 0 0 1 0-2m14 0a1 1 0 1 1 0 2 1 1 0 0 1 0-2m14 0a1 1 0 1 1 0 2 1 1 0 0 1 0-2M-11 44a1 1 0 1 1 0 2 1 1 0 0 1 0-2m14 0a1 1 0 1 1 0 2 1 1 0 0 1 0-2m14 0a1 1 0 1 1 0 2 1 1 0 0 1 0-2m14 0a1 1 0 1 1 0 2 1 1 0 0 1 0-2m14 0a1 1 0 1 1 0 2 1 1 0 0 1 0-2m14 0a1 1 0 1 1 0 2 1 1 0 0 1 0-2m14 0a1 1 0 1 1 0 2 1 1 0 0 1 0-2m14 0a1 1 0 1 1 0 2 1 1 0 0 1 0-2m14 0a1 1 0 1 1 0 2 1 1 0 0 1 0-2m14 0a1 1 0 1 1 0 2 1 1 0 0 1 0-2m14 0a1 1 0 1 1 0 2 1 1 0 0 1 0-2m14 0a1 1 0 1 1 0 2 1 1 0 0 1 0-2m14 0a1 1 0 1 1 0 2 1 1 0 0 1 0-2m14 0a1 1 0 1 1 0 2 1 1 0 0 1 0-2m14 0a1 1 0 1 1 0 2 1 1 0 0 1 0-2m14 0a1 1 0 1 1 0 2 1 1 0 0 1 0-2m14 0a1 1 0 1 1 0 2 1 1 0 0 1 0-2m14 0a1 1 0 1 1 0 2 1 1 0 0 1 0-2m14 0a1 1 0 1 1 0 2 1 1 0 0 1 0-2m14 0a1 1 0 1 1 0 2 1 1 0 0 1 0-2m14 0a1 1 0 1 1 0 2 1 1 0 0 1 0-2m14 0a1 1 0 1 1 0 2 1 1 0 0 1 0-2m14 0a1 1 0 1 1 0 2 1 1 0 0 1 0-2m14 0a1 1 0 1 1 0 2 1 1 0 0 1 0-2m14 0a1 1 0 1 1 0 2 1 1 0 0 1 0-2m14 0a1 1 0 1 1 0 2 1 1 0 0 1 0-2m14 0a1 1 0 1 1 0 2 1 1 0 0 1 0-2m14 0a1 1 0 1 1 0 2 1 1 0 0 1 0-2m14 0a1 1 0 1 1 0 2 1 1 0 0 1 0-2m14 0a1 1 0 1 1 0 2 1 1 0 0 1 0-2m14 0a1 1 0 1 1 0 2 1 1 0 0 1 0-2m14 0a1 1 0 1 1 0 2 1 1 0 0 1 0-2m14 0a1 1 0 1 1 0 2 1 1 0 0 1 0-2m14 0a1 1 0 1 1 0 2 1 1 0 0 1 0-2m14 0a1 1 0 1 1 0 2 1 1 0 0 1 0-2m14 0a1 1 0 1 1 0 2 1 1 0 0 1 0-2m14 0a1 1 0 1 1 0 2 1 1 0 0 1 0-2m14 0a1 1 0 1 1 0 2 1 1 0 0 1 0-2m14 0a1 1 0 1 1 0 2 1 1 0 0 1 0-2m14 0a1 1 0 1 1 0 2 1 1 0 0 1 0-2m14 0a1 1 0 1 1 0 2 1 1 0 0 1 0-2m14 0a1 1 0 1 1 0 2 1 1 0 0 1 0-2m14 0a1 1 0 1 1 0 2 1 1 0 0 1 0-2m14 0a1 1 0 1 1 0 2 1 1 0 0 1 0-2m14 0a1 1 0 1 1 0 2 1 1 0 0 1 0-2m14 0a1 1 0 1 1 0 2 1 1 0 0 1 0-2m14 0a1 1 0 1 1 0 2 1 1 0 0 1 0-2m14 0a1 1 0 1 1 0 2 1 1 0 0 1 0-2m14 0a1 1 0 1 1 0 2 1 1 0 0 1 0-2m14 0a1 1 0 1 1 0 2 1 1 0 0 1 0-2m14 0a1 1 0 1 1 0 2 1 1 0 0 1 0-2m14 0a1 1 0 1 1 0 2 1 1 0 0 1 0-2m14 0a1 1 0 1 1 0 2 1 1 0 0 1 0-2M-11 30a1 1 0 1 1 0 2 1 1 0 0 1 0-2m14 0a1 1 0 1 1 0 2 1 1 0 0 1 0-2m14 0a1 1 0 1 1 0 2 1 1 0 0 1 0-2m14 0a1 1 0 1 1 0 2 1 1 0 0 1 0-2m14 0a1 1 0 1 1 0 2 1 1 0 0 1 0-2m14 0a1 1 0 1 1 0 2 1 1 0 0 1 0-2m14 0a1 1 0 1 1 0 2 1 1 0 0 1 0-2m14 0a1 1 0 1 1 0 2 1 1 0 0 1 0-2m14 0a1 1 0 1 1 0 2 1 1 0 0 1 0-2m14 0a1 1 0 1 1 0 2 1 1 0 0 1 0-2m14 0a1 1 0 1 1 0 2 1 1 0 0 1 0-2m14 0a1 1 0 1 1 0 2 1 1 0 0 1 0-2m14 0a1 1 0 1 1 0 2 1 1 0 0 1 0-2m14 0a1 1 0 1 1 0 2 1 1 0 0 1 0-2m14 0a1 1 0 1 1 0 2 1 1 0 0 1 0-2m14 0a1 1 0 1 1 0 2 1 1 0 0 1 0-2m14 0a1 1 0 1 1 0 2 1 1 0 0 1 0-2m14 0a1 1 0 1 1 0 2 1 1 0 0 1 0-2m14 0a1 1 0 1 1 0 2 1 1 0 0 1 0-2m14 0a1 1 0 1 1 0 2 1 1 0 0 1 0-2m14 0a1 1 0 1 1 0 2 1 1 0 0 1 0-2m14 0a1 1 0 1 1 0 2 1 1 0 0 1 0-2m14 0a1 1 0 1 1 0 2 1 1 0 0 1 0-2m14 0a1 1 0 1 1 0 2 1 1 0 0 1 0-2m14 0a1 1 0 1 1 0 2 1 1 0 0 1 0-2m14 0a1 1 0 1 1 0 2 1 1 0 0 1 0-2m14 0a1 1 0 1 1 0 2 1 1 0 0 1 0-2m14 0a1 1 0 1 1 0 2 1 1 0 0 1 0-2m14 0a1 1 0 1 1 0 2 1 1 0 0 1 0-2m14 0a1 1 0 1 1 0 2 1 1 0 0 1 0-2m14 0a1 1 0 1 1 0 2 1 1 0 0 1 0-2m14 0a1 1 0 1 1 0 2 1 1 0 0 1 0-2m14 0a1 1 0 1 1 0 2 1 1 0 0 1 0-2m14 0a1 1 0 1 1 0 2 1 1 0 0 1 0-2m14 0a1 1 0 1 1 0 2 1 1 0 0 1 0-2m14 0a1 1 0 1 1 0 2 1 1 0 0 1 0-2m14 0a1 1 0 1 1 0 2 1 1 0 0 1 0-2m14 0a1 1 0 1 1 0 2 1 1 0 0 1 0-2m14 0a1 1 0 1 1 0 2 1 1 0 0 1 0-2m14 0a1 1 0 1 1 0 2 1 1 0 0 1 0-2m14 0a1 1 0 1 1 0 2 1 1 0 0 1 0-2m14 0a1 1 0 1 1 0 2 1 1 0 0 1 0-2m14 0a1 1 0 1 1 0 2 1 1 0 0 1 0-2m14 0a1 1 0 1 1 0 2 1 1 0 0 1 0-2m14 0a1 1 0 1 1 0 2 1 1 0 0 1 0-2m14 0a1 1 0 1 1 0 2 1 1 0 0 1 0-2m14 0a1 1 0 1 1 0 2 1 1 0 0 1 0-2m14 0a1 1 0 1 1 0 2 1 1 0 0 1 0-2m14 0a1 1 0 1 1 0 2 1 1 0 0 1 0-2m14 0a1 1 0 1 1 0 2 1 1 0 0 1 0-2m14 0a1 1 0 1 1 0 2 1 1 0 0 1 0-2m14 0a1 1 0 1 1 0 2 1 1 0 0 1 0-2m14 0a1 1 0 1 1 0 2 1 1 0 0 1 0-2M-11 16a1 1 0 1 1 0 2 1 1 0 0 1 0-2m14 0a1 1 0 1 1 0 2 1 1 0 0 1 0-2m14 0a1 1 0 1 1 0 2 1 1 0 0 1 0-2m14 0a1 1 0 1 1 0 2 1 1 0 0 1 0-2m14 0a1 1 0 1 1 0 2 1 1 0 0 1 0-2m14 0a1 1 0 1 1 0 2 1 1 0 0 1 0-2m14 0a1 1 0 1 1 0 2 1 1 0 0 1 0-2m14 0a1 1 0 1 1 0 2 1 1 0 0 1 0-2m14 0a1 1 0 1 1 0 2 1 1 0 0 1 0-2m14 0a1 1 0 1 1 0 2 1 1 0 0 1 0-2m14 0a1 1 0 1 1 0 2 1 1 0 0 1 0-2m14 0a1 1 0 1 1 0 2 1 1 0 0 1 0-2m14 0a1 1 0 1 1 0 2 1 1 0 0 1 0-2m14 0a1 1 0 1 1 0 2 1 1 0 0 1 0-2m14 0a1 1 0 1 1 0 2 1 1 0 0 1 0-2m14 0a1 1 0 1 1 0 2 1 1 0 0 1 0-2m14 0a1 1 0 1 1 0 2 1 1 0 0 1 0-2m14 0a1 1 0 1 1 0 2 1 1 0 0 1 0-2m14 0a1 1 0 1 1 0 2 1 1 0 0 1 0-2m14 0a1 1 0 1 1 0 2 1 1 0 0 1 0-2m14 0a1 1 0 1 1 0 2 1 1 0 0 1 0-2m14 0a1 1 0 1 1 0 2 1 1 0 0 1 0-2m14 0a1 1 0 1 1 0 2 1 1 0 0 1 0-2m14 0a1 1 0 1 1 0 2 1 1 0 0 1 0-2m14 0a1 1 0 1 1 0 2 1 1 0 0 1 0-2m14 0a1 1 0 1 1 0 2 1 1 0 0 1 0-2m14 0a1 1 0 1 1 0 2 1 1 0 0 1 0-2m14 0a1 1 0 1 1 0 2 1 1 0 0 1 0-2m14 0a1 1 0 1 1 0 2 1 1 0 0 1 0-2m14 0a1 1 0 1 1 0 2 1 1 0 0 1 0-2m14 0a1 1 0 1 1 0 2 1 1 0 0 1 0-2m14 0a1 1 0 1 1 0 2 1 1 0 0 1 0-2m14 0a1 1 0 1 1 0 2 1 1 0 0 1 0-2m14 0a1 1 0 1 1 0 2 1 1 0 0 1 0-2m14 0a1 1 0 1 1 0 2 1 1 0 0 1 0-2m14 0a1 1 0 1 1 0 2 1 1 0 0 1 0-2m14 0a1 1 0 1 1 0 2 1 1 0 0 1 0-2m14 0a1 1 0 1 1 0 2 1 1 0 0 1 0-2m14 0a1 1 0 1 1 0 2 1 1 0 0 1 0-2m14 0a1 1 0 1 1 0 2 1 1 0 0 1 0-2m14 0a1 1 0 1 1 0 2 1 1 0 0 1 0-2m14 0a1 1 0 1 1 0 2 1 1 0 0 1 0-2m14 0a1 1 0 1 1 0 2 1 1 0 0 1 0-2m14 0a1 1 0 1 1 0 2 1 1 0 0 1 0-2m14 0a1 1 0 1 1 0 2 1 1 0 0 1 0-2m14 0a1 1 0 1 1 0 2 1 1 0 0 1 0-2m14 0a1 1 0 1 1 0 2 1 1 0 0 1 0-2m14 0a1 1 0 1 1 0 2 1 1 0 0 1 0-2m14 0a1 1 0 1 1 0 2 1 1 0 0 1 0-2m14 0a1 1 0 1 1 0 2 1 1 0 0 1 0-2m14 0a1 1 0 1 1 0 2 1 1 0 0 1 0-2m14 0a1 1 0 1 1 0 2 1 1 0 0 1 0-2m14 0a1 1 0 1 1 0 2 1 1 0 0 1 0-2M-11 2a1 1 0 1 1 0 2 1 1 0 0 1 0-2M3 2a1 1 0 1 1 0 2 1 1 0 0 1 0-2m14 0a1 1 0 1 1 0 2 1 1 0 0 1 0-2m14 0a1 1 0 1 1 0 2 1 1 0 0 1 0-2m14 0a1 1 0 1 1 0 2 1 1 0 0 1 0-2m14 0a1 1 0 1 1 0 2 1 1 0 0 1 0-2m14 0a1 1 0 1 1 0 2 1 1 0 0 1 0-2m14 0a1 1 0 1 1 0 2 1 1 0 0 1 0-2m14 0a1 1 0 1 1 0 2 1 1 0 0 1 0-2m14 0a1 1 0 1 1 0 2 1 1 0 0 1 0-2m14 0a1 1 0 1 1 0 2 1 1 0 0 1 0-2m14 0a1 1 0 1 1 0 2 1 1 0 0 1 0-2m14 0a1 1 0 1 1 0 2 1 1 0 0 1 0-2m14 0a1 1 0 1 1 0 2 1 1 0 0 1 0-2m14 0a1 1 0 1 1 0 2 1 1 0 0 1 0-2m14 0a1 1 0 1 1 0 2 1 1 0 0 1 0-2m14 0a1 1 0 1 1 0 2 1 1 0 0 1 0-2m14 0a1 1 0 1 1 0 2 1 1 0 0 1 0-2m14 0a1 1 0 1 1 0 2 1 1 0 0 1 0-2m14 0a1 1 0 1 1 0 2 1 1 0 0 1 0-2m14 0a1 1 0 1 1 0 2 1 1 0 0 1 0-2m14 0a1 1 0 1 1 0 2 1 1 0 0 1 0-2m14 0a1 1 0 1 1 0 2 1 1 0 0 1 0-2m14 0a1 1 0 1 1 0 2 1 1 0 0 1 0-2m14 0a1 1 0 1 1 0 2 1 1 0 0 1 0-2m14 0a1 1 0 1 1 0 2 1 1 0 0 1 0-2m14 0a1 1 0 1 1 0 2 1 1 0 0 1 0-2m14 0a1 1 0 1 1 0 2 1 1 0 0 1 0-2m14 0a1 1 0 1 1 0 2 1 1 0 0 1 0-2m14 0a1 1 0 1 1 0 2 1 1 0 0 1 0-2m14 0a1 1 0 1 1 0 2 1 1 0 0 1 0-2m14 0a1 1 0 1 1 0 2 1 1 0 0 1 0-2m14 0a1 1 0 1 1 0 2 1 1 0 0 1 0-2m14 0a1 1 0 1 1 0 2 1 1 0 0 1 0-2m14 0a1 1 0 1 1 0 2 1 1 0 0 1 0-2m14 0a1 1 0 1 1 0 2 1 1 0 0 1 0-2m14 0a1 1 0 1 1 0 2 1 1 0 0 1 0-2m14 0a1 1 0 1 1 0 2 1 1 0 0 1 0-2m14 0a1 1 0 1 1 0 2 1 1 0 0 1 0-2m14 0a1 1 0 1 1 0 2 1 1 0 0 1 0-2m14 0a1 1 0 1 1 0 2 1 1 0 0 1 0-2m14 0a1 1 0 1 1 0 2 1 1 0 0 1 0-2m14 0a1 1 0 1 1 0 2 1 1 0 0 1 0-2m14 0a1 1 0 1 1 0 2 1 1 0 0 1 0-2m14 0a1 1 0 1 1 0 2 1 1 0 0 1 0-2m14 0a1 1 0 1 1 0 2 1 1 0 0 1 0-2m14 0a1 1 0 1 1 0 2 1 1 0 0 1 0-2m14 0a1 1 0 1 1 0 2 1 1 0 0 1 0-2m14 0a1 1 0 1 1 0 2 1 1 0 0 1 0-2m14 0a1 1 0 1 1 0 2 1 1 0 0 1 0-2m14 0a1 1 0 1 1 0 2 1 1 0 0 1 0-2m14 0a1 1 0 1 1 0 2 1 1 0 0 1 0-2m14 0a1 1 0 1 1 0 2 1 1 0 0 1 0-2"/></g><rect width="127" height="55" x="160.5" y="16.5" fill="#edeef3" rx="9.5"/><rect width="127" height="55" x="160.5" y="16.5" stroke="#555962" rx="9.5"/><rect width="30" height="30" x="172" y="29" fill="#555962" rx="4"/><path fill="#edeef3" d="M181.499 38.5v11h11v-11zm8.25 1.833c.506 0 .916.41.916.917v5.5c0 .506-.41.917-.916.917h-5.5a.916.916 0 0 1-.917-.917v-5.5c0-.506.41-.917.917-.917zm-4.584 5.5h3.667v-3.666h-3.667zm9.167-4.583h.917a.916.916 0 0 1 0 1.833h-.917v1.834h.917a.916.916 0 0 1 0 1.833h-.917v2.75a1.83 1.83 0 0 1-1.833 1.833h-2.75v.917a.917.917 0 0 1-1.834 0v-.917h-1.833v.917a.916.916 0 1 1-1.833 0v-.917h-2.75a1.834 1.834 0 0 1-1.834-1.833v-2.75h-.916a.916.916 0 1 1 0-1.833h.916v-1.834h-.916a.917.917 0 1 1 0-1.833h.916V38.5a1.836 1.836 0 0 1 1.834-1.833h2.75v-.917a.916.916 0 1 1 1.833 0v.917h1.833v-.917a.917.917 0 0 1 1.834 0v.917h2.75a1.833 1.833 0 0 1 1.833 1.833z"/><path fill="#17181c" d="M207.933 49v-9.455h3.545q1.09 0 1.828.407.744.406 1.122 1.117.383.706.383 1.606 0 .91-.383 1.616-.384.706-1.131 1.113-.749.4-1.842.401h-2.35v-1.408h2.119q.638 0 1.043-.221.406-.222.601-.61.198-.387.198-.89 0-.504-.198-.887a1.35 1.35 0 0 0-.605-.596q-.406-.216-1.048-.216h-1.57V49zm12.811-2.982v-4.109h1.672V49h-1.621v-1.26h-.074q-.24.595-.789.974-.545.378-1.343.378a2.4 2.4 0 0 1-1.233-.309 2.15 2.15 0 0 1-.831-.91q-.3-.6-.3-1.449v-4.515h1.671v4.257q0 .674.369 1.07.37.398.97.398.37 0 .715-.18.346-.181.568-.536.226-.36.226-.9M224.208 49v-9.455h1.671v3.537h.069a3 3 0 0 1 .365-.55q.235-.295.637-.503.401-.213 1.025-.212.822 0 1.482.42.665.416 1.052 1.232.393.813.393 1.995 0 1.167-.383 1.985-.384.817-1.044 1.246a2.7 2.7 0 0 1-1.495.43q-.61 0-1.011-.203a2.1 2.1 0 0 1-.647-.49 3.2 3.2 0 0 1-.374-.55h-.097V49zm1.639-3.545q0 .688.194 1.204.198.517.567.808.375.287.905.287.555 0 .928-.296.374-.3.563-.817.194-.522.194-1.186 0-.66-.189-1.173a1.76 1.76 0 0 0-.563-.803q-.374-.291-.933-.291-.536 0-.909.281-.374.282-.568.79-.189.507-.189 1.196m8.147-5.91V49h-1.671v-9.455zM235.712 49v-7.09h1.671V49zm.84-8.097a.98.98 0 0 1-.683-.263.85.85 0 0 1-.286-.642q0-.378.286-.642a.97.97 0 0 1 .683-.268q.402 0 .684.268.286.264.286.642a.85.85 0 0 1-.286.642.97.97 0 0 1-.684.263m8.154 2.88-1.523.167a1.2 1.2 0 0 0-.226-.434 1.1 1.1 0 0 0-.425-.328 1.55 1.55 0 0 0-.656-.125q-.521 0-.877.226-.35.227-.346.587a.61.61 0 0 0 .226.503q.236.194.776.318l1.209.259q1.007.217 1.496.688.493.471.499 1.232-.005.67-.393 1.182-.383.508-1.066.794-.684.287-1.57.287-1.302 0-2.096-.545-.794-.55-.946-1.528l1.63-.157q.11.48.47.724.36.245.938.245.595 0 .955-.245.365-.244.365-.604a.63.63 0 0 0-.236-.503q-.23-.199-.72-.305l-1.209-.254q-1.02-.213-1.51-.716-.49-.507-.485-1.283a1.82 1.82 0 0 1 .356-1.136q.364-.484 1.011-.748.651-.267 1.5-.267 1.247 0 1.962.53.72.532.891 1.436m3.202 1.062V49h-1.671v-9.455h1.634v3.569h.083q.249-.6.771-.946.526-.351 1.339-.351.738 0 1.288.31.549.308.849.904.305.596.305 1.454V49h-1.671v-4.256q0-.715-.37-1.113-.364-.402-1.025-.402-.443 0-.794.194-.345.19-.544.55-.194.36-.194.872m9.44 4.294q-1.065 0-1.842-.444a3 3 0 0 1-1.186-1.265q-.415-.82-.415-1.934 0-1.095.415-1.92a3.14 3.14 0 0 1 1.173-1.293q.752-.466 1.768-.466.655 0 1.237.212a2.8 2.8 0 0 1 1.034.646q.453.439.711 1.118.259.674.259 1.606v.513h-5.813v-1.127h4.211a1.8 1.8 0 0 0-.208-.854 1.5 1.5 0 0 0-.568-.595 1.6 1.6 0 0 0-.84-.217q-.513 0-.9.249-.388.244-.605.646a1.85 1.85 0 0 0-.217.873v.983q0 .618.226 1.062.226.438.633.674.405.23.951.23.364 0 .66-.1.295-.108.512-.31.217-.204.328-.503l1.56.175a2.4 2.4 0 0 1-.563 1.08 2.75 2.75 0 0 1-1.053.711q-.641.25-1.468.25m4.567-.139v-7.09h1.621v1.18h.074q.193-.612.664-.946a1.83 1.83 0 0 1 1.085-.337q.14 0 .31.014.174.01.29.033v1.537a2 2 0 0 0-.337-.065 3 3 0 0 0-.438-.032 1.7 1.7 0 0 0-.822.199q-.36.193-.568.54-.207.346-.208.798V49z"/><path stroke="#555962" stroke-width="1.5" d="M224 71v215"/><rect width="17" height="47" x="215.5" y="116.5" fill="#edeef3" rx="3.5"/><rect width="17" height="47" x="215.5" y="116.5" stroke="#555962" rx="3.5"/><rect width="127" height="55" x="426.5" y="16.5" fill="#cfd4fc" rx="9.5"/><rect width="127" height="55" x="426.5" y="16.5" stroke="#3d50f5" rx="9.5"/><rect width="30" height="30" x="438" y="29" fill="#3d50f5" rx="4"/><path fill="#cfd4fc" d="M450.249 36.667c.506 0 .916.41.916.916v12.834c0 .506-.41.916-.916.916h-5.5a.916.916 0 0 1-.917-.916V37.583c0-.506.41-.916.917-.916zm11.916 3.666c.507 0 .917.41.917.917v6.417c0 .506-.41.916-.917.916h-3.666v.917h1.833a.917.917 0 0 1 0 1.833h-5.5a.917.917 0 0 1 0-1.833h1.833v-.917h-3.666a.916.916 0 0 1-.917-.916V41.25c0-.506.41-.917.917-.917zm-16.5 9.167h3.667v-11h-3.667zm.917-1.824v-.01a.916.916 0 1 1 1.833 0v.01a.916.916 0 1 1-1.833 0m7.333-.926h7.334v-4.583h-7.334zm-7.333-1.824v-.01a.916.916 0 1 1 1.833 0v.01a.916.916 0 1 1-1.833 0"/><path fill="#17181c" d="M479.071 42.145a1.26 1.26 0 0 0-.545-.942q-.475-.337-1.237-.337-.536 0-.919.161a1.36 1.36 0 0 0-.586.439 1.06 1.06 0 0 0-.208.632q0 .296.134.513.138.216.374.37.236.146.521.248.287.102.578.171l.886.222q.536.124 1.029.337.5.212.891.535.397.324.628.78.231.457.231 1.072 0 .83-.425 1.463-.424.628-1.228.983-.798.351-1.934.351-1.103 0-1.916-.342-.807-.341-1.265-.997-.451-.656-.489-1.597h1.685q.037.494.305.822.267.327.697.49.433.16.969.16.56 0 .979-.166.425-.17.665-.47.24-.304.244-.711a.9.9 0 0 0-.217-.61 1.6 1.6 0 0 0-.595-.406 6 6 0 0 0-.887-.295l-1.075-.277q-1.168-.3-1.847-.91-.674-.614-.674-1.63 0-.834.453-1.463a3 3 0 0 1 1.241-.974q.785-.35 1.778-.35 1.007 0 1.763.35.762.345 1.196.965.434.614.448 1.413zm7.75 3.873v-4.109h1.671V49h-1.621v-1.26h-.074q-.24.595-.789.974-.545.378-1.343.378a2.4 2.4 0 0 1-1.233-.309 2.15 2.15 0 0 1-.831-.91q-.3-.6-.3-1.449v-4.515h1.671v4.257q0 .674.37 1.07.369.398.969.398.37 0 .716-.18.346-.181.567-.536.227-.36.227-.9M490.284 49v-9.455h1.671v3.537h.07q.129-.26.364-.55.236-.295.637-.503.402-.213 1.025-.212.822 0 1.482.42.664.416 1.053 1.232.392.813.392 1.995 0 1.167-.383 1.985-.383.817-1.044 1.246a2.7 2.7 0 0 1-1.495.43q-.609 0-1.011-.203a2.1 2.1 0 0 1-.647-.49 3 3 0 0 1-.373-.55h-.097V49zm1.639-3.545q0 .688.194 1.204.198.517.568.808.374.287.904.287.555 0 .928-.296.374-.3.564-.817.194-.522.194-1.186 0-.66-.19-1.173a1.76 1.76 0 0 0-.563-.803q-.373-.291-.933-.291-.536 0-.909.281-.374.282-.568.79-.189.507-.189 1.196m12.08-1.672-1.523.167a1.2 1.2 0 0 0-.227-.434 1.1 1.1 0 0 0-.424-.328 1.55 1.55 0 0 0-.656-.125q-.522 0-.877.226-.35.227-.346.587a.61.61 0 0 0 .226.503q.236.194.776.318l1.209.259q1.007.217 1.496.688.494.471.498 1.232-.004.67-.392 1.182-.383.508-1.066.794-.684.287-1.57.287-1.301 0-2.096-.545-.794-.55-.946-1.528l1.629-.157q.111.48.471.724.36.245.937.245.596 0 .956-.245.365-.244.365-.604a.63.63 0 0 0-.236-.503q-.231-.199-.72-.305l-1.209-.254q-1.021-.213-1.51-.716-.49-.507-.485-1.283a1.82 1.82 0 0 1 .356-1.136q.364-.484 1.011-.748.651-.267 1.5-.267 1.247 0 1.962.53.72.532.891 1.436m4.624 5.355q-1.062 0-1.824-.466a3.1 3.1 0 0 1-1.168-1.288q-.406-.826-.406-1.902 0-1.08.415-1.906a3.1 3.1 0 0 1 1.173-1.293q.762-.466 1.8-.466.864 0 1.528.318.67.315 1.067.891.396.573.452 1.34h-1.597a1.53 1.53 0 0 0-.462-.855q-.36-.345-.965-.346a1.5 1.5 0 0 0-.9.277q-.387.272-.605.785-.212.511-.212 1.228 0 .724.212 1.246.212.517.596.799.388.276.909.277.37 0 .661-.139a1.3 1.3 0 0 0 .493-.41q.2-.269.273-.652h1.597a2.8 2.8 0 0 1-.443 1.334 2.6 2.6 0 0 1-1.043.905q-.66.324-1.551.324m4.409-.138v-7.09h1.621v1.18h.074q.193-.612.664-.946a1.83 1.83 0 0 1 1.085-.337q.14 0 .31.014.175.01.29.033v1.537a2 2 0 0 0-.337-.065 3 3 0 0 0-.438-.032 1.7 1.7 0 0 0-.822.199 1.46 1.46 0 0 0-.775 1.338V49zm5.155 0v-7.09h1.671V49zm.84-8.097a.97.97 0 0 1-.683-.263.85.85 0 0 1-.287-.642q0-.378.287-.642a.96.96 0 0 1 .683-.268q.402 0 .683.268.286.264.286.642 0 .374-.286.642a.96.96 0 0 1-.683.263M521.654 49v-9.455h1.671v3.537h.07q.129-.26.364-.55.236-.295.637-.503.402-.213 1.025-.212.822 0 1.482.42.664.416 1.053 1.232.392.813.392 1.995 0 1.167-.383 1.985-.383.817-1.043 1.246t-1.496.43q-.609 0-1.011-.203a2.1 2.1 0 0 1-.646-.49 3 3 0 0 1-.374-.55h-.097V49zm1.639-3.545q0 .688.194 1.204.198.517.568.808.374.287.905.287.553 0 .928-.296.374-.3.563-.817.194-.522.194-1.186 0-.66-.19-1.173a1.76 1.76 0 0 0-.563-.803q-.374-.291-.932-.291-.536 0-.91.281-.373.282-.568.79-.189.507-.189 1.196m9.615 3.684q-1.067 0-1.842-.444a3 3 0 0 1-1.186-1.265q-.416-.82-.416-1.934 0-1.095.416-1.92.42-.831 1.172-1.293.753-.466 1.768-.466.656 0 1.238.212.585.208 1.034.646.452.439.711 1.118.258.674.258 1.606v.513h-5.812v-1.127h4.21a1.8 1.8 0 0 0-.208-.854 1.5 1.5 0 0 0-.567-.595 1.6 1.6 0 0 0-.841-.217 1.63 1.63 0 0 0-.9.249q-.387.244-.605.646a1.9 1.9 0 0 0-.217.873v.983q0 .618.227 1.062.225.438.632.674.406.23.951.23.365 0 .66-.1a1.5 1.5 0 0 0 .513-.31q.217-.204.327-.503l1.561.175a2.44 2.44 0 0 1-.563 1.08 2.75 2.75 0 0 1-1.053.711q-.642.25-1.468.25m4.567-.139v-7.09h1.62v1.18h.074q.194-.612.665-.946a1.83 1.83 0 0 1 1.085-.337q.138 0 .309.014.175.01.291.033v1.537a2 2 0 0 0-.337-.065 3 3 0 0 0-.439-.032 1.7 1.7 0 0 0-.821.199q-.36.193-.568.54-.208.346-.208.798V49z"/><path stroke="#3d50f5" stroke-width="1.5" d="M490 72v214"/><rect width="17" height="47" x="481.5" y="116.5" fill="#cfd4fc" rx="3.5"/><rect width="17" height="47" x="481.5" y="116.5" stroke="#3d50f5" rx="3.5"/><rect width="17" height="47" x="481.5" y="188.5" fill="#cfd4fc" rx="3.5"/><rect width="17" height="47" x="481.5" y="188.5" stroke="#3d50f5" rx="3.5"/><path fill="#555962" d="M478.28 140.53a.75.75 0 0 0 0-1.06l-4.773-4.773a.749.749 0 1 0-1.06 1.06l4.242 4.243-4.242 4.243a.749.749 0 1 0 1.06 1.06zm-88.44-1.28a.75.75 0 0 0 0 1.5zm-61.875 1.5a.75.75 0 0 0 0-1.5zm-91.715-1.5a.75.75 0 0 0 0 1.5zm241.5.75v-.75h-87.91v1.5h87.91zm-149.785 0v-.75H236.25v1.5h91.715z"/><path fill="#353841" d="M334.751 144v-8.727h3.111q1.019 0 1.688.37.669.372 1.001 1.015.332.639.332 1.44 0 .805-.336 1.449a2.44 2.44 0 0 1-1.006 1.014q-.669.37-1.683.371h-2.139v-1.117h2.02q.642 0 1.044-.221.4-.226.588-.614.187-.387.187-.882t-.187-.878a1.35 1.35 0 0 0-.593-.601q-.4-.217-1.057-.217h-1.653V144zm13.156-8.727h1.321v5.74q0 .916-.43 1.623-.43.703-1.21 1.108-.78.4-1.828.401-1.044 0-1.824-.401a3 3 0 0 1-1.211-1.108q-.43-.707-.43-1.623v-5.74h1.317v5.633q0 .593.26 1.053.263.46.746.724.481.26 1.142.26.664 0 1.146-.26.486-.264.741-.724.26-.46.26-1.053zm3.104 8.727v-8.727h3.196q.929 0 1.538.307.609.302.912.822.303.516.303 1.163 0 .546-.201.921a1.6 1.6 0 0 1-.537.596 2.4 2.4 0 0 1-.733.324v.085q.435.022.848.282.418.255.691.728.273.474.273 1.151 0 .67-.316 1.202-.31.528-.963.839-.652.307-1.666.307zm1.316-1.129h1.901q.946 0 1.355-.367.41-.366.409-.916 0-.413-.209-.758a1.5 1.5 0 0 0-.596-.55 1.9 1.9 0 0 0-.912-.205h-1.948zm0-3.823h1.765q.443 0 .797-.17.357-.171.566-.477.213-.312.213-.733a1.2 1.2 0 0 0-.379-.908q-.379-.367-1.163-.367h-1.799zM358.73 144v-8.727h1.317v7.593h3.955V144zm7.958-8.727V144h-1.316v-8.727zm6.546 2.292a1.24 1.24 0 0 0-.562-.937q-.495-.337-1.245-.337-.536 0-.929.171-.392.166-.609.46a1.1 1.1 0 0 0-.213.66q0 .312.145.537a1.3 1.3 0 0 0 .387.38q.243.149.52.251.278.097.533.162l.852.222q.418.102.857.277.438.174.814.46.374.285.605.707.234.422.234 1.01 0 .741-.383 1.317-.38.575-1.104.907-.72.333-1.743.333-.98 0-1.696-.311-.716-.312-1.121-.882-.405-.575-.447-1.364h1.321q.039.473.307.788.273.312.694.465.426.149.934.149.558 0 .993-.175.438-.179.69-.494.25-.32.251-.746a.92.92 0 0 0-.221-.635 1.65 1.65 0 0 0-.593-.409 6 6 0 0 0-.839-.285l-1.031-.282q-1.048-.285-1.662-.839-.61-.554-.61-1.466 0-.755.409-1.317a2.7 2.7 0 0 1 1.108-.873 3.8 3.8 0 0 1 1.577-.316q.886 0 1.564.311a2.64 2.64 0 0 1 1.074.857q.392.542.409 1.244zm2.831 6.435v-8.727h1.317v3.792h4.35v-3.792h1.321V144h-1.321v-3.805h-4.35V144z"/><rect width="17" height="47" x="215.5" y="188.5" fill="#edeef3" rx="3.5"/><rect width="17" height="47" x="215.5" y="188.5" stroke="#555962" rx="3.5"/><path fill="#3d50f5" d="M477.75 212.75a.75.75 0 0 0 0-1.5zm-88.91-1.5a.75.75 0 0 0 0 1.5zm-59.875 1.5a.75.75 0 0 0 0-1.5zm-93.245-1.28a.75.75 0 0 0 0 1.06l4.773 4.773a.749.749 0 1 0 1.06-1.06L237.311 212l4.242-4.243a.749.749 0 1 0-1.06-1.06zm242.03.53v-.75h-88.91v1.5h88.91zm-148.785 0v-.75H236.25v1.5h92.715z"/><path fill="#353841" d="M335.611 216v-8.727h3.111q1.018 0 1.687.37.669.372 1.002 1.015.332.639.332 1.44 0 .805-.336 1.449a2.44 2.44 0 0 1-1.006 1.014q-.669.37-1.683.371h-2.14v-1.117h2.02q.643 0 1.044-.221.4-.226.588-.614.188-.387.188-.882t-.188-.878a1.34 1.34 0 0 0-.592-.601q-.4-.217-1.057-.217h-1.653V216zm13.156-8.727h1.321v5.74q0 .916-.43 1.623a3 3 0 0 1-1.211 1.108q-.779.4-1.828.401-1.044 0-1.824-.401a3 3 0 0 1-1.21-1.108q-.43-.707-.43-1.623v-5.74h1.317v5.633q0 .593.26 1.053.264.46.745.724.482.26 1.142.26.666 0 1.147-.26.486-.264.741-.724.26-.46.26-1.053zm3.104 8.727v-8.727h3.196q.929 0 1.538.307.609.301.912.822.303.516.302 1.163 0 .546-.2.921a1.6 1.6 0 0 1-.537.596 2.4 2.4 0 0 1-.733.324v.085q.435.022.848.282.418.255.691.728.272.474.272 1.151 0 .67-.315 1.202-.31.528-.963.839-.652.307-1.666.307zm1.316-1.129h1.901q.946 0 1.355-.367.41-.366.409-.916 0-.413-.209-.758a1.5 1.5 0 0 0-.596-.55 1.9 1.9 0 0 0-.912-.205h-1.948zm0-3.823h1.764q.444 0 .797-.17.358-.171.567-.477.213-.312.213-.733a1.2 1.2 0 0 0-.379-.908q-.38-.367-1.163-.367h-1.799zm7.14 4.952h-1.397l3.14-8.727h1.521l3.141 8.727h-1.398l-2.467-7.142h-.068zm.235-3.418h4.534v1.108h-4.534zm14.137-2.471h-1.33a2.04 2.04 0 0 0-.797-1.3 2.2 2.2 0 0 0-.677-.341 2.6 2.6 0 0 0-.788-.115 2.47 2.47 0 0 0-1.351.379q-.593.38-.938 1.113-.34.733-.341 1.789 0 1.066.341 1.799.345.733.942 1.108t1.342.375q.414 0 .784-.111.375-.115.678-.337a2.06 2.06 0 0 0 .805-1.282l1.33.004a3.5 3.5 0 0 1-.414 1.184 3.3 3.3 0 0 1-.779.929 3.5 3.5 0 0 1-1.083.601 4 4 0 0 1-1.329.213q-1.134 0-2.02-.537-.887-.54-1.398-1.546-.507-1.007-.507-2.4 0-1.397.511-2.399.512-1.005 1.398-1.542.887-.542 2.016-.542.695 0 1.295.201.606.196 1.087.579.481.38.797.929.315.546.426 1.249m1.443 5.889v-8.727h1.317v4.167h.107l3.66-4.167h1.658l-3.52 3.929 3.533 4.798h-1.585l-2.822-3.899-1.031 1.185V216z"/></g><defs><clipPath id="a"><path fill="#fff" d="M0 0h720v316H0z"/></clipPath><clipPath id="b"><path fill="#fff" d="M0 0h720v314H0z"/></clipPath></defs></svg>