<svg xmlns="http://www.w3.org/2000/svg" width="720" height="240" fill="none"><g clip-path="url(#a)"><path fill="#fff" d="M0 0h720v240H0z"/><g fill="#c1c3c8" clip-path="url(#b)" opacity=".5"><path d="M-11 324a1 1 0 1 1 0 2 1 1 0 0 1 0-2M3 324a1 1 0 1 1 0 2 1 1 0 0 1 0-2M17 324a1 1 0 1 1 0 2 1 1 0 0 1 0-2M31 324a1 1 0 1 1 0 2 1 1 0 0 1 0-2M45 324a1 1 0 1 1 0 2 1 1 0 0 1 0-2M59 324a1 1 0 1 1 0 2 1 1 0 0 1 0-2M73 324a1 1 0 1 1 0 2 1 1 0 0 1 0-2M87 324a1 1 0 1 1 0 2 1 1 0 0 1 0-2M101 324a1 1 0 1 1 0 2 1 1 0 0 1 0-2M115 324a1 1 0 1 1 0 2 1 1 0 0 1 0-2M129 324a1 1 0 1 1 0 2 1 1 0 0 1 0-2M143 324a1 1 0 1 1 0 2 1 1 0 0 1 0-2M157 324a1 1 0 1 1 0 2 1 1 0 0 1 0-2M171 324a1 1 0 1 1 0 2 1 1 0 0 1 0-2M185 324a1 1 0 1 1 0 2 1 1 0 0 1 0-2M199 324a1 1 0 1 1 0 2 1 1 0 0 1 0-2M213 324a1 1 0 1 1 0 2 1 1 0 0 1 0-2M227 324a1 1 0 1 1 0 2 1 1 0 0 1 0-2M241 324a1 1 0 1 1 0 2 1 1 0 0 1 0-2M255 324a1 1 0 1 1 0 2 1 1 0 0 1 0-2M269 324a1 1 0 1 1 0 2 1 1 0 0 1 0-2M283 324a1 1 0 1 1 0 2 1 1 0 0 1 0-2M297 324a1 1 0 1 1 0 2 1 1 0 0 1 0-2M311 324a1 1 0 1 1 0 2 1 1 0 0 1 0-2M325 324a1 1 0 1 1 0 2 1 1 0 0 1 0-2M339 324a1 1 0 1 1 0 2 1 1 0 0 1 0-2M353 324a1 1 0 1 1 0 2 1 1 0 0 1 0-2M367 324a1 1 0 1 1 0 2 1 1 0 0 1 0-2M381 324a1 1 0 1 1 0 2 1 1 0 0 1 0-2M395 324a1 1 0 1 1 0 2 1 1 0 0 1 0-2M409 324a1 1 0 1 1 0 2 1 1 0 0 1 0-2M423 324a1 1 0 1 1 0 2 1 1 0 0 1 0-2M437 324a1 1 0 1 1 0 2 1 1 0 0 1 0-2M451 324a1 1 0 1 1 0 2 1 1 0 0 1 0-2M465 324a1 1 0 1 1 0 2 1 1 0 0 1 0-2M479 324a1 1 0 1 1 0 2 1 1 0 0 1 0-2M493 324a1 1 0 1 1 0 2 1 1 0 0 1 0-2M507 324a1 1 0 1 1 0 2 1 1 0 0 1 0-2M521 324a1 1 0 1 1 0 2 1 1 0 0 1 0-2M535 324a1 1 0 1 1 0 2 1 1 0 0 1 0-2M549 324a1 1 0 1 1 0 2 1 1 0 0 1 0-2M563 324a1 1 0 1 1 0 2 1 1 0 0 1 0-2M577 324a1 1 0 1 1 0 2 1 1 0 0 1 0-2M591 324a1 1 0 1 1 0 2 1 1 0 0 1 0-2M605 324a1 1 0 1 1 0 2 1 1 0 0 1 0-2M619 324a1 1 0 1 1 0 2 1 1 0 0 1 0-2M633 324a1 1 0 1 1 0 2 1 1 0 0 1 0-2M647 324a1 1 0 1 1 0 2 1 1 0 0 1 0-2M661 324a1 1 0 1 1 0 2 1 1 0 0 1 0-2M675 324a1 1 0 1 1 0 2 1 1 0 0 1 0-2M689 324a1 1 0 1 1 0 2 1 1 0 0 1 0-2M703 324a1 1 0 1 1 0 2 1 1 0 0 1 0-2M-11 310a1 1 0 1 1 0 2 1 1 0 0 1 0-2M3 310a1 1 0 1 1 0 2 1 1 0 0 1 0-2M17 310a1 1 0 1 1 0 2 1 1 0 0 1 0-2M31 310a1 1 0 1 1 0 2 1 1 0 0 1 0-2M45 310a1 1 0 1 1 0 2 1 1 0 0 1 0-2M59 310a1 1 0 1 1 0 2 1 1 0 0 1 0-2M73 310a1 1 0 1 1 0 2 1 1 0 0 1 0-2M87 310a1 1 0 1 1 0 2 1 1 0 0 1 0-2M101 310a1 1 0 1 1 0 2 1 1 0 0 1 0-2M115 310a1 1 0 1 1 0 2 1 1 0 0 1 0-2M129 310a1 1 0 1 1 0 2 1 1 0 0 1 0-2M143 310a1 1 0 1 1 0 2 1 1 0 0 1 0-2M157 310a1 1 0 1 1 0 2 1 1 0 0 1 0-2M171 310a1 1 0 1 1 0 2 1 1 0 0 1 0-2M185 310a1 1 0 1 1 0 2 1 1 0 0 1 0-2M199 310a1 1 0 1 1 0 2 1 1 0 0 1 0-2M213 310a1 1 0 1 1 0 2 1 1 0 0 1 0-2M227 310a1 1 0 1 1 0 2 1 1 0 0 1 0-2M241 310a1 1 0 1 1 0 2 1 1 0 0 1 0-2M255 310a1 1 0 1 1 0 2 1 1 0 0 1 0-2M269 310a1 1 0 1 1 0 2 1 1 0 0 1 0-2M283 310a1 1 0 1 1 0 2 1 1 0 0 1 0-2M297 310a1 1 0 1 1 0 2 1 1 0 0 1 0-2M311 310a1 1 0 1 1 0 2 1 1 0 0 1 0-2M325 310a1 1 0 1 1 0 2 1 1 0 0 1 0-2M339 310a1 1 0 1 1 0 2 1 1 0 0 1 0-2M353 310a1 1 0 1 1 0 2 1 1 0 0 1 0-2M367 310a1 1 0 1 1 0 2 1 1 0 0 1 0-2M381 310a1 1 0 1 1 0 2 1 1 0 0 1 0-2M395 310a1 1 0 1 1 0 2 1 1 0 0 1 0-2M409 310a1 1 0 1 1 0 2 1 1 0 0 1 0-2M423 310a1 1 0 1 1 0 2 1 1 0 0 1 0-2M437 310a1 1 0 1 1 0 2 1 1 0 0 1 0-2M451 310a1 1 0 1 1 0 2 1 1 0 0 1 0-2M465 310a1 1 0 1 1 0 2 1 1 0 0 1 0-2M479 310a1 1 0 1 1 0 2 1 1 0 0 1 0-2M493 310a1 1 0 1 1 0 2 1 1 0 0 1 0-2M507 310a1 1 0 1 1 0 2 1 1 0 0 1 0-2M521 310a1 1 0 1 1 0 2 1 1 0 0 1 0-2M535 310a1 1 0 1 1 0 2 1 1 0 0 1 0-2M549 310a1 1 0 1 1 0 2 1 1 0 0 1 0-2M563 310a1 1 0 1 1 0 2 1 1 0 0 1 0-2M577 310a1 1 0 1 1 0 2 1 1 0 0 1 0-2M591 310a1 1 0 1 1 0 2 1 1 0 0 1 0-2M605 310a1 1 0 1 1 0 2 1 1 0 0 1 0-2M619 310a1 1 0 1 1 0 2 1 1 0 0 1 0-2M633 310a1 1 0 1 1 0 2 1 1 0 0 1 0-2M647 310a1 1 0 1 1 0 2 1 1 0 0 1 0-2M661 310a1 1 0 1 1 0 2 1 1 0 0 1 0-2M675 310a1 1 0 1 1 0 2 1 1 0 0 1 0-2M689 310a1 1 0 1 1 0 2 1 1 0 0 1 0-2M703 310a1 1 0 1 1 0 2 1 1 0 0 1 0-2M717 310a1 1 0 1 1 0 2 1 1 0 0 1 0-2M-11 296a1 1 0 1 1 0 2 1 1 0 0 1 0-2M3 296a1 1 0 1 1 0 2 1 1 0 0 1 0-2M17 296a1 1 0 1 1 0 2 1 1 0 0 1 0-2M31 296a1 1 0 1 1 0 2 1 1 0 0 1 0-2M45 296a1 1 0 1 1 0 2 1 1 0 0 1 0-2M59 296a1 1 0 1 1 0 2 1 1 0 0 1 0-2M73 296a1 1 0 1 1 0 2 1 1 0 0 1 0-2M87 296a1 1 0 1 1 0 2 1 1 0 0 1 0-2M101 296a1 1 0 1 1 0 2 1 1 0 0 1 0-2M115 296a1 1 0 1 1 0 2 1 1 0 0 1 0-2M129 296a1 1 0 1 1 0 2 1 1 0 0 1 0-2M143 296a1 1 0 1 1 0 2 1 1 0 0 1 0-2M157 296a1 1 0 1 1 0 2 1 1 0 0 1 0-2M171 296a1 1 0 1 1 0 2 1 1 0 0 1 0-2M185 296a1 1 0 1 1 0 2 1 1 0 0 1 0-2M199 296a1 1 0 1 1 0 2 1 1 0 0 1 0-2M213 296a1 1 0 1 1 0 2 1 1 0 0 1 0-2M227 296a1 1 0 1 1 0 2 1 1 0 0 1 0-2M241 296a1 1 0 1 1 0 2 1 1 0 0 1 0-2M255 296a1 1 0 1 1 0 2 1 1 0 0 1 0-2M269 296a1 1 0 1 1 0 2 1 1 0 0 1 0-2M283 296a1 1 0 1 1 0 2 1 1 0 0 1 0-2M297 296a1 1 0 1 1 0 2 1 1 0 0 1 0-2M311 296a1 1 0 1 1 0 2 1 1 0 0 1 0-2M325 296a1 1 0 1 1 0 2 1 1 0 0 1 0-2M339 296a1 1 0 1 1 0 2 1 1 0 0 1 0-2M353 296a1 1 0 1 1 0 2 1 1 0 0 1 0-2M367 296a1 1 0 1 1 0 2 1 1 0 0 1 0-2M381 296a1 1 0 1 1 0 2 1 1 0 0 1 0-2M395 296a1 1 0 1 1 0 2 1 1 0 0 1 0-2M409 296a1 1 0 1 1 0 2 1 1 0 0 1 0-2M423 296a1 1 0 1 1 0 2 1 1 0 0 1 0-2M437 296a1 1 0 1 1 0 2 1 1 0 0 1 0-2M451 296a1 1 0 1 1 0 2 1 1 0 0 1 0-2M465 296a1 1 0 1 1 0 2 1 1 0 0 1 0-2M479 296a1 1 0 1 1 0 2 1 1 0 0 1 0-2M493 296a1 1 0 1 1 0 2 1 1 0 0 1 0-2M507 296a1 1 0 1 1 0 2 1 1 0 0 1 0-2M521 296a1 1 0 1 1 0 2 1 1 0 0 1 0-2M535 296a1 1 0 1 1 0 2 1 1 0 0 1 0-2M549 296a1 1 0 1 1 0 2 1 1 0 0 1 0-2M563 296a1 1 0 1 1 0 2 1 1 0 0 1 0-2M577 296a1 1 0 1 1 0 2 1 1 0 0 1 0-2M591 296a1 1 0 1 1 0 2 1 1 0 0 1 0-2M605 296a1 1 0 1 1 0 2 1 1 0 0 1 0-2M619 296a1 1 0 1 1 0 2 1 1 0 0 1 0-2M633 296a1 1 0 1 1 0 2 1 1 0 0 1 0-2M647 296a1 1 0 1 1 0 2 1 1 0 0 1 0-2M661 296a1 1 0 1 1 0 2 1 1 0 0 1 0-2M675 296a1 1 0 1 1 0 2 1 1 0 0 1 0-2M689 296a1 1 0 1 1 0 2 1 1 0 0 1 0-2M703 296a1 1 0 1 1 0 2 1 1 0 0 1 0-2M717 296a1 1 0 1 1 0 2 1 1 0 0 1 0-2M-11 282a1 1 0 1 1 0 2 1 1 0 0 1 0-2M3 282a1 1 0 1 1 0 2 1 1 0 0 1 0-2M17 282a1 1 0 1 1 0 2 1 1 0 0 1 0-2M31 282a1 1 0 1 1 0 2 1 1 0 0 1 0-2M45 282a1 1 0 1 1 0 2 1 1 0 0 1 0-2M59 282a1 1 0 1 1 0 2 1 1 0 0 1 0-2M73 282a1 1 0 1 1 0 2 1 1 0 0 1 0-2M87 282a1 1 0 1 1 0 2 1 1 0 0 1 0-2M101 282a1 1 0 1 1 0 2 1 1 0 0 1 0-2M115 282a1 1 0 1 1 0 2 1 1 0 0 1 0-2M129 282a1 1 0 1 1 0 2 1 1 0 0 1 0-2M143 282a1 1 0 1 1 0 2 1 1 0 0 1 0-2M157 282a1 1 0 1 1 0 2 1 1 0 0 1 0-2M171 282a1 1 0 1 1 0 2 1 1 0 0 1 0-2M185 282a1 1 0 1 1 0 2 1 1 0 0 1 0-2M199 282a1 1 0 1 1 0 2 1 1 0 0 1 0-2M213 282a1 1 0 1 1 0 2 1 1 0 0 1 0-2M227 282a1 1 0 1 1 0 2 1 1 0 0 1 0-2M241 282a1 1 0 1 1 0 2 1 1 0 0 1 0-2M255 282a1 1 0 1 1 0 2 1 1 0 0 1 0-2M269 282a1 1 0 1 1 0 2 1 1 0 0 1 0-2M283 282a1 1 0 1 1 0 2 1 1 0 0 1 0-2M297 282a1 1 0 1 1 0 2 1 1 0 0 1 0-2M311 282a1 1 0 1 1 0 2 1 1 0 0 1 0-2M325 282a1 1 0 1 1 0 2 1 1 0 0 1 0-2M339 282a1 1 0 1 1 0 2 1 1 0 0 1 0-2M353 282a1 1 0 1 1 0 2 1 1 0 0 1 0-2M367 282a1 1 0 1 1 0 2 1 1 0 0 1 0-2M381 282a1 1 0 1 1 0 2 1 1 0 0 1 0-2M395 282a1 1 0 1 1 0 2 1 1 0 0 1 0-2M409 282a1 1 0 1 1 0 2 1 1 0 0 1 0-2M423 282a1 1 0 1 1 0 2 1 1 0 0 1 0-2M437 282a1 1 0 1 1 0 2 1 1 0 0 1 0-2M451 282a1 1 0 1 1 0 2 1 1 0 0 1 0-2M465 282a1 1 0 1 1 0 2 1 1 0 0 1 0-2M479 282a1 1 0 1 1 0 2 1 1 0 0 1 0-2M493 282a1 1 0 1 1 0 2 1 1 0 0 1 0-2M507 282a1 1 0 1 1 0 2 1 1 0 0 1 0-2M521 282a1 1 0 1 1 0 2 1 1 0 0 1 0-2M535 282a1 1 0 1 1 0 2 1 1 0 0 1 0-2M549 282a1 1 0 1 1 0 2 1 1 0 0 1 0-2M563 282a1 1 0 1 1 0 2 1 1 0 0 1 0-2M577 282a1 1 0 1 1 0 2 1 1 0 0 1 0-2M591 282a1 1 0 1 1 0 2 1 1 0 0 1 0-2M605 282a1 1 0 1 1 0 2 1 1 0 0 1 0-2M619 282a1 1 0 1 1 0 2 1 1 0 0 1 0-2M633 282a1 1 0 1 1 0 2 1 1 0 0 1 0-2M647 282a1 1 0 1 1 0 2 1 1 0 0 1 0-2M661 282a1 1 0 1 1 0 2 1 1 0 0 1 0-2M675 282a1 1 0 1 1 0 2 1 1 0 0 1 0-2M689 282a1 1 0 1 1 0 2 1 1 0 0 1 0-2M703 282a1 1 0 1 1 0 2 1 1 0 0 1 0-2M717 282a1 1 0 1 1 0 2 1 1 0 0 1 0-2M-11 268a1 1 0 1 1 0 2 1 1 0 0 1 0-2M3 268a1 1 0 1 1 0 2 1 1 0 0 1 0-2M17 268a1 1 0 1 1 0 2 1 1 0 0 1 0-2M31 268a1 1 0 1 1 0 2 1 1 0 0 1 0-2M45 268a1 1 0 1 1 0 2 1 1 0 0 1 0-2M59 268a1 1 0 1 1 0 2 1 1 0 0 1 0-2M73 268a1 1 0 1 1 0 2 1 1 0 0 1 0-2M87 268a1 1 0 1 1 0 2 1 1 0 0 1 0-2M101 268a1 1 0 1 1 0 2 1 1 0 0 1 0-2M115 268a1 1 0 1 1 0 2 1 1 0 0 1 0-2M129 268a1 1 0 1 1 0 2 1 1 0 0 1 0-2M143 268a1 1 0 1 1 0 2 1 1 0 0 1 0-2M157 268a1 1 0 1 1 0 2 1 1 0 0 1 0-2M171 268a1 1 0 1 1 0 2 1 1 0 0 1 0-2M185 268a1 1 0 1 1 0 2 1 1 0 0 1 0-2M199 268a1 1 0 1 1 0 2 1 1 0 0 1 0-2M213 268a1 1 0 1 1 0 2 1 1 0 0 1 0-2M227 268a1 1 0 1 1 0 2 1 1 0 0 1 0-2M241 268a1 1 0 1 1 0 2 1 1 0 0 1 0-2M255 268a1 1 0 1 1 0 2 1 1 0 0 1 0-2M269 268a1 1 0 1 1 0 2 1 1 0 0 1 0-2M283 268a1 1 0 1 1 0 2 1 1 0 0 1 0-2M297 268a1 1 0 1 1 0 2 1 1 0 0 1 0-2M311 268a1 1 0 1 1 0 2 1 1 0 0 1 0-2M325 268a1 1 0 1 1 0 2 1 1 0 0 1 0-2M339 268a1 1 0 1 1 0 2 1 1 0 0 1 0-2M353 268a1 1 0 1 1 0 2 1 1 0 0 1 0-2M367 268a1 1 0 1 1 0 2 1 1 0 0 1 0-2M381 268a1 1 0 1 1 0 2 1 1 0 0 1 0-2M395 268a1 1 0 1 1 0 2 1 1 0 0 1 0-2M409 268a1 1 0 1 1 0 2 1 1 0 0 1 0-2M423 268a1 1 0 1 1 0 2 1 1 0 0 1 0-2M437 268a1 1 0 1 1 0 2 1 1 0 0 1 0-2M451 268a1 1 0 1 1 0 2 1 1 0 0 1 0-2M465 268a1 1 0 1 1 0 2 1 1 0 0 1 0-2M479 268a1 1 0 1 1 0 2 1 1 0 0 1 0-2M493 268a1 1 0 1 1 0 2 1 1 0 0 1 0-2M507 268a1 1 0 1 1 0 2 1 1 0 0 1 0-2M521 268a1 1 0 1 1 0 2 1 1 0 0 1 0-2M535 268a1 1 0 1 1 0 2 1 1 0 0 1 0-2M549 268a1 1 0 1 1 0 2 1 1 0 0 1 0-2M563 268a1 1 0 1 1 0 2 1 1 0 0 1 0-2M577 268a1 1 0 1 1 0 2 1 1 0 0 1 0-2M591 268a1 1 0 1 1 0 2 1 1 0 0 1 0-2M605 268a1 1 0 1 1 0 2 1 1 0 0 1 0-2M619 268a1 1 0 1 1 0 2 1 1 0 0 1 0-2M633 268a1 1 0 1 1 0 2 1 1 0 0 1 0-2M647 268a1 1 0 1 1 0 2 1 1 0 0 1 0-2M661 268a1 1 0 1 1 0 2 1 1 0 0 1 0-2M675 268a1 1 0 1 1 0 2 1 1 0 0 1 0-2M689 268a1 1 0 1 1 0 2 1 1 0 0 1 0-2M703 268a1 1 0 1 1 0 2 1 1 0 0 1 0-2M717 268a1 1 0 1 1 0 2 1 1 0 0 1 0-2M-11 254a1 1 0 1 1 0 2 1 1 0 0 1 0-2M3 254a1 1 0 1 1 0 2 1 1 0 0 1 0-2M17 254a1 1 0 1 1 0 2 1 1 0 0 1 0-2M31 254a1 1 0 1 1 0 2 1 1 0 0 1 0-2M45 254a1 1 0 1 1 0 2 1 1 0 0 1 0-2M59 254a1 1 0 1 1 0 2 1 1 0 0 1 0-2M73 254a1 1 0 1 1 0 2 1 1 0 0 1 0-2M87 254a1 1 0 1 1 0 2 1 1 0 0 1 0-2M101 254a1 1 0 1 1 0 2 1 1 0 0 1 0-2M115 254a1 1 0 1 1 0 2 1 1 0 0 1 0-2M129 254a1 1 0 1 1 0 2 1 1 0 0 1 0-2M143 254a1 1 0 1 1 0 2 1 1 0 0 1 0-2M157 254a1 1 0 1 1 0 2 1 1 0 0 1 0-2M171 254a1 1 0 1 1 0 2 1 1 0 0 1 0-2M185 254a1 1 0 1 1 0 2 1 1 0 0 1 0-2M199 254a1 1 0 1 1 0 2 1 1 0 0 1 0-2M213 254a1 1 0 1 1 0 2 1 1 0 0 1 0-2M227 254a1 1 0 1 1 0 2 1 1 0 0 1 0-2M241 254a1 1 0 1 1 0 2 1 1 0 0 1 0-2M255 254a1 1 0 1 1 0 2 1 1 0 0 1 0-2M269 254a1 1 0 1 1 0 2 1 1 0 0 1 0-2M283 254a1 1 0 1 1 0 2 1 1 0 0 1 0-2M297 254a1 1 0 1 1 0 2 1 1 0 0 1 0-2M311 254a1 1 0 1 1 0 2 1 1 0 0 1 0-2M325 254a1 1 0 1 1 0 2 1 1 0 0 1 0-2M339 254a1 1 0 1 1 0 2 1 1 0 0 1 0-2M353 254a1 1 0 1 1 0 2 1 1 0 0 1 0-2M367 254a1 1 0 1 1 0 2 1 1 0 0 1 0-2M381 254a1 1 0 1 1 0 2 1 1 0 0 1 0-2M395 254a1 1 0 1 1 0 2 1 1 0 0 1 0-2M409 254a1 1 0 1 1 0 2 1 1 0 0 1 0-2M423 254a1 1 0 1 1 0 2 1 1 0 0 1 0-2M437 254a1 1 0 1 1 0 2 1 1 0 0 1 0-2M451 254a1 1 0 1 1 0 2 1 1 0 0 1 0-2M465 254a1 1 0 1 1 0 2 1 1 0 0 1 0-2M479 254a1 1 0 1 1 0 2 1 1 0 0 1 0-2M493 254a1 1 0 1 1 0 2 1 1 0 0 1 0-2M507 254a1 1 0 1 1 0 2 1 1 0 0 1 0-2M521 254a1 1 0 1 1 0 2 1 1 0 0 1 0-2M535 254a1 1 0 1 1 0 2 1 1 0 0 1 0-2M549 254a1 1 0 1 1 0 2 1 1 0 0 1 0-2M563 254a1 1 0 1 1 0 2 1 1 0 0 1 0-2M577 254a1 1 0 1 1 0 2 1 1 0 0 1 0-2M591 254a1 1 0 1 1 0 2 1 1 0 0 1 0-2M605 254a1 1 0 1 1 0 2 1 1 0 0 1 0-2M619 254a1 1 0 1 1 0 2 1 1 0 0 1 0-2M633 254a1 1 0 1 1 0 2 1 1 0 0 1 0-2M647 254a1 1 0 1 1 0 2 1 1 0 0 1 0-2M661 254a1 1 0 1 1 0 2 1 1 0 0 1 0-2M675 254a1 1 0 1 1 0 2 1 1 0 0 1 0-2M689 254a1 1 0 1 1 0 2 1 1 0 0 1 0-2M703 254a1 1 0 1 1 0 2 1 1 0 0 1 0-2M717 254a1 1 0 1 1 0 2 1 1 0 0 1 0-2M-11 240a1 1 0 1 1 0 2 1 1 0 0 1 0-2M3 240a1 1 0 1 1 0 2 1 1 0 0 1 0-2M17 240a1 1 0 1 1 0 2 1 1 0 0 1 0-2M31 240a1 1 0 1 1 0 2 1 1 0 0 1 0-2M45 240a1 1 0 1 1 0 2 1 1 0 0 1 0-2M59 240a1 1 0 1 1 0 2 1 1 0 0 1 0-2M73 240a1 1 0 1 1 0 2 1 1 0 0 1 0-2M87 240a1 1 0 1 1 0 2 1 1 0 0 1 0-2M101 240a1 1 0 1 1 0 2 1 1 0 0 1 0-2M115 240a1 1 0 1 1 0 2 1 1 0 0 1 0-2M129 240a1 1 0 1 1 0 2 1 1 0 0 1 0-2M143 240a1 1 0 1 1 0 2 1 1 0 0 1 0-2M157 240a1 1 0 1 1 0 2 1 1 0 0 1 0-2M171 240a1 1 0 1 1 0 2 1 1 0 0 1 0-2M185 240a1 1 0 1 1 0 2 1 1 0 0 1 0-2M199 240a1 1 0 1 1 0 2 1 1 0 0 1 0-2M213 240a1 1 0 1 1 0 2 1 1 0 0 1 0-2M227 240a1 1 0 1 1 0 2 1 1 0 0 1 0-2M241 240a1 1 0 1 1 0 2 1 1 0 0 1 0-2M255 240a1 1 0 1 1 0 2 1 1 0 0 1 0-2M269 240a1 1 0 1 1 0 2 1 1 0 0 1 0-2M283 240a1 1 0 1 1 0 2 1 1 0 0 1 0-2M297 240a1 1 0 1 1 0 2 1 1 0 0 1 0-2M311 240a1 1 0 1 1 0 2 1 1 0 0 1 0-2M325 240a1 1 0 1 1 0 2 1 1 0 0 1 0-2M339 240a1 1 0 1 1 0 2 1 1 0 0 1 0-2M353 240a1 1 0 1 1 0 2 1 1 0 0 1 0-2M367 240a1 1 0 1 1 0 2 1 1 0 0 1 0-2M381 240a1 1 0 1 1 0 2 1 1 0 0 1 0-2M395 240a1 1 0 1 1 0 2 1 1 0 0 1 0-2M409 240a1 1 0 1 1 0 2 1 1 0 0 1 0-2M423 240a1 1 0 1 1 0 2 1 1 0 0 1 0-2M437 240a1 1 0 1 1 0 2 1 1 0 0 1 0-2M451 240a1 1 0 1 1 0 2 1 1 0 0 1 0-2M465 240a1 1 0 1 1 0 2 1 1 0 0 1 0-2M479 240a1 1 0 1 1 0 2 1 1 0 0 1 0-2M493 240a1 1 0 1 1 0 2 1 1 0 0 1 0-2M507 240a1 1 0 1 1 0 2 1 1 0 0 1 0-2M521 240a1 1 0 1 1 0 2 1 1 0 0 1 0-2M535 240a1 1 0 1 1 0 2 1 1 0 0 1 0-2M549 240a1 1 0 1 1 0 2 1 1 0 0 1 0-2M563 240a1 1 0 1 1 0 2 1 1 0 0 1 0-2M577 240a1 1 0 1 1 0 2 1 1 0 0 1 0-2M591 240a1 1 0 1 1 0 2 1 1 0 0 1 0-2M605 240a1 1 0 1 1 0 2 1 1 0 0 1 0-2M619 240a1 1 0 1 1 0 2 1 1 0 0 1 0-2M633 240a1 1 0 1 1 0 2 1 1 0 0 1 0-2M647 240a1 1 0 1 1 0 2 1 1 0 0 1 0-2M661 240a1 1 0 1 1 0 2 1 1 0 0 1 0-2M675 240a1 1 0 1 1 0 2 1 1 0 0 1 0-2M689 240a1 1 0 1 1 0 2 1 1 0 0 1 0-2M703 240a1 1 0 1 1 0 2 1 1 0 0 1 0-2M717 240a1 1 0 1 1 0 2 1 1 0 0 1 0-2M-11 226a1 1 0 1 1 0 2 1 1 0 0 1 0-2M3 226a1 1 0 1 1 0 2 1 1 0 0 1 0-2M17 226a1 1 0 1 1 0 2 1 1 0 0 1 0-2M31 226a1 1 0 1 1 0 2 1 1 0 0 1 0-2M45 226a1 1 0 1 1 0 2 1 1 0 0 1 0-2M59 226a1 1 0 1 1 0 2 1 1 0 0 1 0-2M73 226a1 1 0 1 1 0 2 1 1 0 0 1 0-2M87 226a1 1 0 1 1 0 2 1 1 0 0 1 0-2M101 226a1 1 0 1 1 0 2 1 1 0 0 1 0-2M115 226a1 1 0 1 1 0 2 1 1 0 0 1 0-2M129 226a1 1 0 1 1 0 2 1 1 0 0 1 0-2M143 226a1 1 0 1 1 0 2 1 1 0 0 1 0-2M157 226a1 1 0 1 1 0 2 1 1 0 0 1 0-2M171 226a1 1 0 1 1 0 2 1 1 0 0 1 0-2M185 226a1 1 0 1 1 0 2 1 1 0 0 1 0-2M199 226a1 1 0 1 1 0 2 1 1 0 0 1 0-2M213 226a1 1 0 1 1 0 2 1 1 0 0 1 0-2M227 226a1 1 0 1 1 0 2 1 1 0 0 1 0-2M241 226a1 1 0 1 1 0 2 1 1 0 0 1 0-2M255 226a1 1 0 1 1 0 2 1 1 0 0 1 0-2M269 226a1 1 0 1 1 0 2 1 1 0 0 1 0-2M283 226a1 1 0 1 1 0 2 1 1 0 0 1 0-2M297 226a1 1 0 1 1 0 2 1 1 0 0 1 0-2M311 226a1 1 0 1 1 0 2 1 1 0 0 1 0-2M325 226a1 1 0 1 1 0 2 1 1 0 0 1 0-2M339 226a1 1 0 1 1 0 2 1 1 0 0 1 0-2M353 226a1 1 0 1 1 0 2 1 1 0 0 1 0-2M367 226a1 1 0 1 1 0 2 1 1 0 0 1 0-2M381 226a1 1 0 1 1 0 2 1 1 0 0 1 0-2M395 226a1 1 0 1 1 0 2 1 1 0 0 1 0-2M409 226a1 1 0 1 1 0 2 1 1 0 0 1 0-2M423 226a1 1 0 1 1 0 2 1 1 0 0 1 0-2M437 226a1 1 0 1 1 0 2 1 1 0 0 1 0-2M451 226a1 1 0 1 1 0 2 1 1 0 0 1 0-2M465 226a1 1 0 1 1 0 2 1 1 0 0 1 0-2M479 226a1 1 0 1 1 0 2 1 1 0 0 1 0-2M493 226a1 1 0 1 1 0 2 1 1 0 0 1 0-2M507 226a1 1 0 1 1 0 2 1 1 0 0 1 0-2M521 226a1 1 0 1 1 0 2 1 1 0 0 1 0-2M535 226a1 1 0 1 1 0 2 1 1 0 0 1 0-2M549 226a1 1 0 1 1 0 2 1 1 0 0 1 0-2M563 226a1 1 0 1 1 0 2 1 1 0 0 1 0-2M577 226a1 1 0 1 1 0 2 1 1 0 0 1 0-2M591 226a1 1 0 1 1 0 2 1 1 0 0 1 0-2M605 226a1 1 0 1 1 0 2 1 1 0 0 1 0-2M619 226a1 1 0 1 1 0 2 1 1 0 0 1 0-2M633 226a1 1 0 1 1 0 2 1 1 0 0 1 0-2M647 226a1 1 0 1 1 0 2 1 1 0 0 1 0-2M661 226a1 1 0 1 1 0 2 1 1 0 0 1 0-2M675 226a1 1 0 1 1 0 2 1 1 0 0 1 0-2M689 226a1 1 0 1 1 0 2 1 1 0 0 1 0-2M703 226a1 1 0 1 1 0 2 1 1 0 0 1 0-2M717 226a1 1 0 1 1 0 2 1 1 0 0 1 0-2M-11 212a1 1 0 1 1 0 2 1 1 0 0 1 0-2M3 212a1 1 0 1 1 0 2 1 1 0 0 1 0-2M17 212a1 1 0 1 1 0 2 1 1 0 0 1 0-2M31 212a1 1 0 1 1 0 2 1 1 0 0 1 0-2M45 212a1 1 0 1 1 0 2 1 1 0 0 1 0-2M59 212a1 1 0 1 1 0 2 1 1 0 0 1 0-2M73 212a1 1 0 1 1 0 2 1 1 0 0 1 0-2M87 212a1 1 0 1 1 0 2 1 1 0 0 1 0-2M101 212a1 1 0 1 1 0 2 1 1 0 0 1 0-2M115 212a1 1 0 1 1 0 2 1 1 0 0 1 0-2M129 212a1 1 0 1 1 0 2 1 1 0 0 1 0-2M143 212a1 1 0 1 1 0 2 1 1 0 0 1 0-2M157 212a1 1 0 1 1 0 2 1 1 0 0 1 0-2M171 212a1 1 0 1 1 0 2 1 1 0 0 1 0-2M185 212a1 1 0 1 1 0 2 1 1 0 0 1 0-2M199 212a1 1 0 1 1 0 2 1 1 0 0 1 0-2M213 212a1 1 0 1 1 0 2 1 1 0 0 1 0-2M227 212a1 1 0 1 1 0 2 1 1 0 0 1 0-2M241 212a1 1 0 1 1 0 2 1 1 0 0 1 0-2M255 212a1 1 0 1 1 0 2 1 1 0 0 1 0-2M269 212a1 1 0 1 1 0 2 1 1 0 0 1 0-2M283 212a1 1 0 1 1 0 2 1 1 0 0 1 0-2M297 212a1 1 0 1 1 0 2 1 1 0 0 1 0-2M311 212a1 1 0 1 1 0 2 1 1 0 0 1 0-2M325 212a1 1 0 1 1 0 2 1 1 0 0 1 0-2M339 212a1 1 0 1 1 0 2 1 1 0 0 1 0-2M353 212a1 1 0 1 1 0 2 1 1 0 0 1 0-2M367 212a1 1 0 1 1 0 2 1 1 0 0 1 0-2M381 212a1 1 0 1 1 0 2 1 1 0 0 1 0-2M395 212a1 1 0 1 1 0 2 1 1 0 0 1 0-2M409 212a1 1 0 1 1 0 2 1 1 0 0 1 0-2M423 212a1 1 0 1 1 0 2 1 1 0 0 1 0-2M437 212a1 1 0 1 1 0 2 1 1 0 0 1 0-2M451 212a1 1 0 1 1 0 2 1 1 0 0 1 0-2M465 212a1 1 0 1 1 0 2 1 1 0 0 1 0-2M479 212a1 1 0 1 1 0 2 1 1 0 0 1 0-2M493 212a1 1 0 1 1 0 2 1 1 0 0 1 0-2M507 212a1 1 0 1 1 0 2 1 1 0 0 1 0-2M521 212a1 1 0 1 1 0 2 1 1 0 0 1 0-2M535 212a1 1 0 1 1 0 2 1 1 0 0 1 0-2M549 212a1 1 0 1 1 0 2 1 1 0 0 1 0-2M563 212a1 1 0 1 1 0 2 1 1 0 0 1 0-2M577 212a1 1 0 1 1 0 2 1 1 0 0 1 0-2M591 212a1 1 0 1 1 0 2 1 1 0 0 1 0-2M605 212a1 1 0 1 1 0 2 1 1 0 0 1 0-2M619 212a1 1 0 1 1 0 2 1 1 0 0 1 0-2M633 212a1 1 0 1 1 0 2 1 1 0 0 1 0-2M647 212a1 1 0 1 1 0 2 1 1 0 0 1 0-2M661 212a1 1 0 1 1 0 2 1 1 0 0 1 0-2M675 212a1 1 0 1 1 0 2 1 1 0 0 1 0-2M689 212a1 1 0 1 1 0 2 1 1 0 0 1 0-2M703 212a1 1 0 1 1 0 2 1 1 0 0 1 0-2M717 212a1 1 0 1 1 0 2 1 1 0 0 1 0-2M-11 198a1 1 0 1 1 0 2 1 1 0 0 1 0-2M3 198a1 1 0 1 1 0 2 1 1 0 0 1 0-2M17 198a1 1 0 1 1 0 2 1 1 0 0 1 0-2M31 198a1 1 0 1 1 0 2 1 1 0 0 1 0-2M45 198a1 1 0 1 1 0 2 1 1 0 0 1 0-2M59 198a1 1 0 1 1 0 2 1 1 0 0 1 0-2M73 198a1 1 0 1 1 0 2 1 1 0 0 1 0-2M87 198a1 1 0 1 1 0 2 1 1 0 0 1 0-2M101 198a1 1 0 1 1 0 2 1 1 0 0 1 0-2M115 198a1 1 0 1 1 0 2 1 1 0 0 1 0-2M129 198a1 1 0 1 1 0 2 1 1 0 0 1 0-2M143 198a1 1 0 1 1 0 2 1 1 0 0 1 0-2M157 198a1 1 0 1 1 0 2 1 1 0 0 1 0-2M171 198a1 1 0 1 1 0 2 1 1 0 0 1 0-2M185 198a1 1 0 1 1 0 2 1 1 0 0 1 0-2M199 198a1 1 0 1 1 0 2 1 1 0 0 1 0-2M213 198a1 1 0 1 1 0 2 1 1 0 0 1 0-2M227 198a1 1 0 1 1 0 2 1 1 0 0 1 0-2M241 198a1 1 0 1 1 0 2 1 1 0 0 1 0-2M255 198a1 1 0 1 1 0 2 1 1 0 0 1 0-2M269 198a1 1 0 1 1 0 2 1 1 0 0 1 0-2M283 198a1 1 0 1 1 0 2 1 1 0 0 1 0-2M297 198a1 1 0 1 1 0 2 1 1 0 0 1 0-2M311 198a1 1 0 1 1 0 2 1 1 0 0 1 0-2M325 198a1 1 0 1 1 0 2 1 1 0 0 1 0-2M339 198a1 1 0 1 1 0 2 1 1 0 0 1 0-2M353 198a1 1 0 1 1 0 2 1 1 0 0 1 0-2M367 198a1 1 0 1 1 0 2 1 1 0 0 1 0-2M381 198a1 1 0 1 1 0 2 1 1 0 0 1 0-2M395 198a1 1 0 1 1 0 2 1 1 0 0 1 0-2M409 198a1 1 0 1 1 0 2 1 1 0 0 1 0-2M423 198a1 1 0 1 1 0 2 1 1 0 0 1 0-2M437 198a1 1 0 1 1 0 2 1 1 0 0 1 0-2M451 198a1 1 0 1 1 0 2 1 1 0 0 1 0-2M465 198a1 1 0 1 1 0 2 1 1 0 0 1 0-2M479 198a1 1 0 1 1 0 2 1 1 0 0 1 0-2M493 198a1 1 0 1 1 0 2 1 1 0 0 1 0-2M507 198a1 1 0 1 1 0 2 1 1 0 0 1 0-2M521 198a1 1 0 1 1 0 2 1 1 0 0 1 0-2M535 198a1 1 0 1 1 0 2 1 1 0 0 1 0-2M549 198a1 1 0 1 1 0 2 1 1 0 0 1 0-2M563 198a1 1 0 1 1 0 2 1 1 0 0 1 0-2M577 198a1 1 0 1 1 0 2 1 1 0 0 1 0-2M591 198a1 1 0 1 1 0 2 1 1 0 0 1 0-2M605 198a1 1 0 1 1 0 2 1 1 0 0 1 0-2M619 198a1 1 0 1 1 0 2 1 1 0 0 1 0-2M633 198a1 1 0 1 1 0 2 1 1 0 0 1 0-2M647 198a1 1 0 1 1 0 2 1 1 0 0 1 0-2M661 198a1 1 0 1 1 0 2 1 1 0 0 1 0-2M675 198a1 1 0 1 1 0 2 1 1 0 0 1 0-2M689 198a1 1 0 1 1 0 2 1 1 0 0 1 0-2M703 198a1 1 0 1 1 0 2 1 1 0 0 1 0-2M717 198a1 1 0 1 1 0 2 1 1 0 0 1 0-2M-11 184a1 1 0 1 1 0 2 1 1 0 0 1 0-2M3 184a1 1 0 1 1 0 2 1 1 0 0 1 0-2M17 184a1 1 0 1 1 0 2 1 1 0 0 1 0-2M31 184a1 1 0 1 1 0 2 1 1 0 0 1 0-2M45 184a1 1 0 1 1 0 2 1 1 0 0 1 0-2M59 184a1 1 0 1 1 0 2 1 1 0 0 1 0-2M73 184a1 1 0 1 1 0 2 1 1 0 0 1 0-2M87 184a1 1 0 1 1 0 2 1 1 0 0 1 0-2M101 184a1 1 0 1 1 0 2 1 1 0 0 1 0-2M115 184a1 1 0 1 1 0 2 1 1 0 0 1 0-2M129 184a1 1 0 1 1 0 2 1 1 0 0 1 0-2M143 184a1 1 0 1 1 0 2 1 1 0 0 1 0-2M157 184a1 1 0 1 1 0 2 1 1 0 0 1 0-2M171 184a1 1 0 1 1 0 2 1 1 0 0 1 0-2M185 184a1 1 0 1 1 0 2 1 1 0 0 1 0-2M199 184a1 1 0 1 1 0 2 1 1 0 0 1 0-2M213 184a1 1 0 1 1 0 2 1 1 0 0 1 0-2M227 184a1 1 0 1 1 0 2 1 1 0 0 1 0-2M241 184a1 1 0 1 1 0 2 1 1 0 0 1 0-2M255 184a1 1 0 1 1 0 2 1 1 0 0 1 0-2M269 184a1 1 0 1 1 0 2 1 1 0 0 1 0-2M283 184a1 1 0 1 1 0 2 1 1 0 0 1 0-2M297 184a1 1 0 1 1 0 2 1 1 0 0 1 0-2M311 184a1 1 0 1 1 0 2 1 1 0 0 1 0-2M325 184a1 1 0 1 1 0 2 1 1 0 0 1 0-2M339 184a1 1 0 1 1 0 2 1 1 0 0 1 0-2M353 184a1 1 0 1 1 0 2 1 1 0 0 1 0-2M367 184a1 1 0 1 1 0 2 1 1 0 0 1 0-2M381 184a1 1 0 1 1 0 2 1 1 0 0 1 0-2M395 184a1 1 0 1 1 0 2 1 1 0 0 1 0-2M409 184a1 1 0 1 1 0 2 1 1 0 0 1 0-2M423 184a1 1 0 1 1 0 2 1 1 0 0 1 0-2M437 184a1 1 0 1 1 0 2 1 1 0 0 1 0-2M451 184a1 1 0 1 1 0 2 1 1 0 0 1 0-2M465 184a1 1 0 1 1 0 2 1 1 0 0 1 0-2M479 184a1 1 0 1 1 0 2 1 1 0 0 1 0-2M493 184a1 1 0 1 1 0 2 1 1 0 0 1 0-2M507 184a1 1 0 1 1 0 2 1 1 0 0 1 0-2M521 184a1 1 0 1 1 0 2 1 1 0 0 1 0-2M535 184a1 1 0 1 1 0 2 1 1 0 0 1 0-2M549 184a1 1 0 1 1 0 2 1 1 0 0 1 0-2M563 184a1 1 0 1 1 0 2 1 1 0 0 1 0-2M577 184a1 1 0 1 1 0 2 1 1 0 0 1 0-2M591 184a1 1 0 1 1 0 2 1 1 0 0 1 0-2M605 184a1 1 0 1 1 0 2 1 1 0 0 1 0-2M619 184a1 1 0 1 1 0 2 1 1 0 0 1 0-2M633 184a1 1 0 1 1 0 2 1 1 0 0 1 0-2M647 184a1 1 0 1 1 0 2 1 1 0 0 1 0-2M661 184a1 1 0 1 1 0 2 1 1 0 0 1 0-2M675 184a1 1 0 1 1 0 2 1 1 0 0 1 0-2M689 184a1 1 0 1 1 0 2 1 1 0 0 1 0-2M703 184a1 1 0 1 1 0 2 1 1 0 0 1 0-2M717 184a1 1 0 1 1 0 2 1 1 0 0 1 0-2M-11 170a1 1 0 1 1 0 2 1 1 0 0 1 0-2M3 170a1 1 0 1 1 0 2 1 1 0 0 1 0-2M17 170a1 1 0 1 1 0 2 1 1 0 0 1 0-2M31 170a1 1 0 1 1 0 2 1 1 0 0 1 0-2M45 170a1 1 0 1 1 0 2 1 1 0 0 1 0-2M59 170a1 1 0 1 1 0 2 1 1 0 0 1 0-2M73 170a1 1 0 1 1 0 2 1 1 0 0 1 0-2M87 170a1 1 0 1 1 0 2 1 1 0 0 1 0-2M101 170a1 1 0 1 1 0 2 1 1 0 0 1 0-2M115 170a1 1 0 1 1 0 2 1 1 0 0 1 0-2M129 170a1 1 0 1 1 0 2 1 1 0 0 1 0-2M143 170a1 1 0 1 1 0 2 1 1 0 0 1 0-2M157 170a1 1 0 1 1 0 2 1 1 0 0 1 0-2M171 170a1 1 0 1 1 0 2 1 1 0 0 1 0-2M185 170a1 1 0 1 1 0 2 1 1 0 0 1 0-2M199 170a1 1 0 1 1 0 2 1 1 0 0 1 0-2M213 170a1 1 0 1 1 0 2 1 1 0 0 1 0-2M227 170a1 1 0 1 1 0 2 1 1 0 0 1 0-2M241 170a1 1 0 1 1 0 2 1 1 0 0 1 0-2M255 170a1 1 0 1 1 0 2 1 1 0 0 1 0-2M269 170a1 1 0 1 1 0 2 1 1 0 0 1 0-2M283 170a1 1 0 1 1 0 2 1 1 0 0 1 0-2M297 170a1 1 0 1 1 0 2 1 1 0 0 1 0-2M311 170a1 1 0 1 1 0 2 1 1 0 0 1 0-2M325 170a1 1 0 1 1 0 2 1 1 0 0 1 0-2M339 170a1 1 0 1 1 0 2 1 1 0 0 1 0-2M353 170a1 1 0 1 1 0 2 1 1 0 0 1 0-2M367 170a1 1 0 1 1 0 2 1 1 0 0 1 0-2M381 170a1 1 0 1 1 0 2 1 1 0 0 1 0-2M395 170a1 1 0 1 1 0 2 1 1 0 0 1 0-2M409 170a1 1 0 1 1 0 2 1 1 0 0 1 0-2M423 170a1 1 0 1 1 0 2 1 1 0 0 1 0-2M437 170a1 1 0 1 1 0 2 1 1 0 0 1 0-2M451 170a1 1 0 1 1 0 2 1 1 0 0 1 0-2M465 170a1 1 0 1 1 0 2 1 1 0 0 1 0-2M479 170a1 1 0 1 1 0 2 1 1 0 0 1 0-2M493 170a1 1 0 1 1 0 2 1 1 0 0 1 0-2M507 170a1 1 0 1 1 0 2 1 1 0 0 1 0-2M521 170a1 1 0 1 1 0 2 1 1 0 0 1 0-2M535 170a1 1 0 1 1 0 2 1 1 0 0 1 0-2M549 170a1 1 0 1 1 0 2 1 1 0 0 1 0-2M563 170a1 1 0 1 1 0 2 1 1 0 0 1 0-2M577 170a1 1 0 1 1 0 2 1 1 0 0 1 0-2M591 170a1 1 0 1 1 0 2 1 1 0 0 1 0-2M605 170a1 1 0 1 1 0 2 1 1 0 0 1 0-2M619 170a1 1 0 1 1 0 2 1 1 0 0 1 0-2M633 170a1 1 0 1 1 0 2 1 1 0 0 1 0-2M647 170a1 1 0 1 1 0 2 1 1 0 0 1 0-2M661 170a1 1 0 1 1 0 2 1 1 0 0 1 0-2M675 170a1 1 0 1 1 0 2 1 1 0 0 1 0-2M689 170a1 1 0 1 1 0 2 1 1 0 0 1 0-2M703 170a1 1 0 1 1 0 2 1 1 0 0 1 0-2M717 170a1 1 0 1 1 0 2 1 1 0 0 1 0-2M-11 156a1 1 0 1 1 0 2 1 1 0 0 1 0-2M3 156a1 1 0 1 1 0 2 1 1 0 0 1 0-2M17 156a1 1 0 1 1 0 2 1 1 0 0 1 0-2M31 156a1 1 0 1 1 0 2 1 1 0 0 1 0-2M45 156a1 1 0 1 1 0 2 1 1 0 0 1 0-2M59 156a1 1 0 1 1 0 2 1 1 0 0 1 0-2M73 156a1 1 0 1 1 0 2 1 1 0 0 1 0-2M87 156a1 1 0 1 1 0 2 1 1 0 0 1 0-2M101 156a1 1 0 1 1 0 2 1 1 0 0 1 0-2M115 156a1 1 0 1 1 0 2 1 1 0 0 1 0-2M129 156a1 1 0 1 1 0 2 1 1 0 0 1 0-2M143 156a1 1 0 1 1 0 2 1 1 0 0 1 0-2M157 156a1 1 0 1 1 0 2 1 1 0 0 1 0-2M171 156a1 1 0 1 1 0 2 1 1 0 0 1 0-2M185 156a1 1 0 1 1 0 2 1 1 0 0 1 0-2M199 156a1 1 0 1 1 0 2 1 1 0 0 1 0-2M213 156a1 1 0 1 1 0 2 1 1 0 0 1 0-2M227 156a1 1 0 1 1 0 2 1 1 0 0 1 0-2M241 156a1 1 0 1 1 0 2 1 1 0 0 1 0-2M255 156a1 1 0 1 1 0 2 1 1 0 0 1 0-2M269 156a1 1 0 1 1 0 2 1 1 0 0 1 0-2M283 156a1 1 0 1 1 0 2 1 1 0 0 1 0-2M297 156a1 1 0 1 1 0 2 1 1 0 0 1 0-2M311 156a1 1 0 1 1 0 2 1 1 0 0 1 0-2M325 156a1 1 0 1 1 0 2 1 1 0 0 1 0-2M339 156a1 1 0 1 1 0 2 1 1 0 0 1 0-2M353 156a1 1 0 1 1 0 2 1 1 0 0 1 0-2M367 156a1 1 0 1 1 0 2 1 1 0 0 1 0-2M381 156a1 1 0 1 1 0 2 1 1 0 0 1 0-2M395 156a1 1 0 1 1 0 2 1 1 0 0 1 0-2M409 156a1 1 0 1 1 0 2 1 1 0 0 1 0-2M423 156a1 1 0 1 1 0 2 1 1 0 0 1 0-2M437 156a1 1 0 1 1 0 2 1 1 0 0 1 0-2M451 156a1 1 0 1 1 0 2 1 1 0 0 1 0-2M465 156a1 1 0 1 1 0 2 1 1 0 0 1 0-2M479 156a1 1 0 1 1 0 2 1 1 0 0 1 0-2M493 156a1 1 0 1 1 0 2 1 1 0 0 1 0-2M507 156a1 1 0 1 1 0 2 1 1 0 0 1 0-2M521 156a1 1 0 1 1 0 2 1 1 0 0 1 0-2M535 156a1 1 0 1 1 0 2 1 1 0 0 1 0-2M549 156a1 1 0 1 1 0 2 1 1 0 0 1 0-2M563 156a1 1 0 1 1 0 2 1 1 0 0 1 0-2M577 156a1 1 0 1 1 0 2 1 1 0 0 1 0-2M591 156a1 1 0 1 1 0 2 1 1 0 0 1 0-2M605 156a1 1 0 1 1 0 2 1 1 0 0 1 0-2M619 156a1 1 0 1 1 0 2 1 1 0 0 1 0-2M633 156a1 1 0 1 1 0 2 1 1 0 0 1 0-2M647 156a1 1 0 1 1 0 2 1 1 0 0 1 0-2M661 156a1 1 0 1 1 0 2 1 1 0 0 1 0-2M675 156a1 1 0 1 1 0 2 1 1 0 0 1 0-2M689 156a1 1 0 1 1 0 2 1 1 0 0 1 0-2M703 156a1 1 0 1 1 0 2 1 1 0 0 1 0-2M717 156a1 1 0 1 1 0 2 1 1 0 0 1 0-2M-11 142a1 1 0 1 1 0 2 1 1 0 0 1 0-2M3 142a1 1 0 1 1 0 2 1 1 0 0 1 0-2M17 142a1 1 0 1 1 0 2 1 1 0 0 1 0-2M31 142a1 1 0 1 1 0 2 1 1 0 0 1 0-2M45 142a1 1 0 1 1 0 2 1 1 0 0 1 0-2M59 142a1 1 0 1 1 0 2 1 1 0 0 1 0-2M73 142a1 1 0 1 1 0 2 1 1 0 0 1 0-2M87 142a1 1 0 1 1 0 2 1 1 0 0 1 0-2M101 142a1 1 0 1 1 0 2 1 1 0 0 1 0-2M115 142a1 1 0 1 1 0 2 1 1 0 0 1 0-2M129 142a1 1 0 1 1 0 2 1 1 0 0 1 0-2M143 142a1 1 0 1 1 0 2 1 1 0 0 1 0-2M157 142a1 1 0 1 1 0 2 1 1 0 0 1 0-2M171 142a1 1 0 1 1 0 2 1 1 0 0 1 0-2M185 142a1 1 0 1 1 0 2 1 1 0 0 1 0-2M199 142a1 1 0 1 1 0 2 1 1 0 0 1 0-2M213 142a1 1 0 1 1 0 2 1 1 0 0 1 0-2M227 142a1 1 0 1 1 0 2 1 1 0 0 1 0-2M241 142a1 1 0 1 1 0 2 1 1 0 0 1 0-2M255 142a1 1 0 1 1 0 2 1 1 0 0 1 0-2M269 142a1 1 0 1 1 0 2 1 1 0 0 1 0-2M283 142a1 1 0 1 1 0 2 1 1 0 0 1 0-2M297 142a1 1 0 1 1 0 2 1 1 0 0 1 0-2M311 142a1 1 0 1 1 0 2 1 1 0 0 1 0-2M325 142a1 1 0 1 1 0 2 1 1 0 0 1 0-2M339 142a1 1 0 1 1 0 2 1 1 0 0 1 0-2M353 142a1 1 0 1 1 0 2 1 1 0 0 1 0-2M367 142a1 1 0 1 1 0 2 1 1 0 0 1 0-2M381 142a1 1 0 1 1 0 2 1 1 0 0 1 0-2M395 142a1 1 0 1 1 0 2 1 1 0 0 1 0-2M409 142a1 1 0 1 1 0 2 1 1 0 0 1 0-2M423 142a1 1 0 1 1 0 2 1 1 0 0 1 0-2M437 142a1 1 0 1 1 0 2 1 1 0 0 1 0-2M451 142a1 1 0 1 1 0 2 1 1 0 0 1 0-2M465 142a1 1 0 1 1 0 2 1 1 0 0 1 0-2M479 142a1 1 0 1 1 0 2 1 1 0 0 1 0-2M493 142a1 1 0 1 1 0 2 1 1 0 0 1 0-2M507 142a1 1 0 1 1 0 2 1 1 0 0 1 0-2M521 142a1 1 0 1 1 0 2 1 1 0 0 1 0-2M535 142a1 1 0 1 1 0 2 1 1 0 0 1 0-2M549 142a1 1 0 1 1 0 2 1 1 0 0 1 0-2M563 142a1 1 0 1 1 0 2 1 1 0 0 1 0-2M577 142a1 1 0 1 1 0 2 1 1 0 0 1 0-2M591 142a1 1 0 1 1 0 2 1 1 0 0 1 0-2M605 142a1 1 0 1 1 0 2 1 1 0 0 1 0-2M619 142a1 1 0 1 1 0 2 1 1 0 0 1 0-2M633 142a1 1 0 1 1 0 2 1 1 0 0 1 0-2M647 142a1 1 0 1 1 0 2 1 1 0 0 1 0-2M661 142a1 1 0 1 1 0 2 1 1 0 0 1 0-2M675 142a1 1 0 1 1 0 2 1 1 0 0 1 0-2M689 142a1 1 0 1 1 0 2 1 1 0 0 1 0-2M703 142a1 1 0 1 1 0 2 1 1 0 0 1 0-2M717 142a1 1 0 1 1 0 2 1 1 0 0 1 0-2M-11 128a1 1 0 1 1 0 2 1 1 0 0 1 0-2M3 128a1 1 0 1 1 0 2 1 1 0 0 1 0-2M17 128a1 1 0 1 1 0 2 1 1 0 0 1 0-2M31 128a1 1 0 1 1 0 2 1 1 0 0 1 0-2M45 128a1 1 0 1 1 0 2 1 1 0 0 1 0-2M59 128a1 1 0 1 1 0 2 1 1 0 0 1 0-2M73 128a1 1 0 1 1 0 2 1 1 0 0 1 0-2M87 128a1 1 0 1 1 0 2 1 1 0 0 1 0-2M101 128a1 1 0 1 1 0 2 1 1 0 0 1 0-2M115 128a1 1 0 1 1 0 2 1 1 0 0 1 0-2M129 128a1 1 0 1 1 0 2 1 1 0 0 1 0-2M143 128a1 1 0 1 1 0 2 1 1 0 0 1 0-2M157 128a1 1 0 1 1 0 2 1 1 0 0 1 0-2M171 128a1 1 0 1 1 0 2 1 1 0 0 1 0-2M185 128a1 1 0 1 1 0 2 1 1 0 0 1 0-2M199 128a1 1 0 1 1 0 2 1 1 0 0 1 0-2M213 128a1 1 0 1 1 0 2 1 1 0 0 1 0-2M227 128a1 1 0 1 1 0 2 1 1 0 0 1 0-2M241 128a1 1 0 1 1 0 2 1 1 0 0 1 0-2M255 128a1 1 0 1 1 0 2 1 1 0 0 1 0-2M269 128a1 1 0 1 1 0 2 1 1 0 0 1 0-2M283 128a1 1 0 1 1 0 2 1 1 0 0 1 0-2M297 128a1 1 0 1 1 0 2 1 1 0 0 1 0-2M311 128a1 1 0 1 1 0 2 1 1 0 0 1 0-2M325 128a1 1 0 1 1 0 2 1 1 0 0 1 0-2M339 128a1 1 0 1 1 0 2 1 1 0 0 1 0-2M353 128a1 1 0 1 1 0 2 1 1 0 0 1 0-2M367 128a1 1 0 1 1 0 2 1 1 0 0 1 0-2M381 128a1 1 0 1 1 0 2 1 1 0 0 1 0-2M395 128a1 1 0 1 1 0 2 1 1 0 0 1 0-2M409 128a1 1 0 1 1 0 2 1 1 0 0 1 0-2M423 128a1 1 0 1 1 0 2 1 1 0 0 1 0-2M437 128a1 1 0 1 1 0 2 1 1 0 0 1 0-2M451 128a1 1 0 1 1 0 2 1 1 0 0 1 0-2M465 128a1 1 0 1 1 0 2 1 1 0 0 1 0-2M479 128a1 1 0 1 1 0 2 1 1 0 0 1 0-2M493 128a1 1 0 1 1 0 2 1 1 0 0 1 0-2M507 128a1 1 0 1 1 0 2 1 1 0 0 1 0-2M521 128a1 1 0 1 1 0 2 1 1 0 0 1 0-2M535 128a1 1 0 1 1 0 2 1 1 0 0 1 0-2M549 128a1 1 0 1 1 0 2 1 1 0 0 1 0-2M563 128a1 1 0 1 1 0 2 1 1 0 0 1 0-2M577 128a1 1 0 1 1 0 2 1 1 0 0 1 0-2M591 128a1 1 0 1 1 0 2 1 1 0 0 1 0-2M605 128a1 1 0 1 1 0 2 1 1 0 0 1 0-2M619 128a1 1 0 1 1 0 2 1 1 0 0 1 0-2M633 128a1 1 0 1 1 0 2 1 1 0 0 1 0-2M647 128a1 1 0 1 1 0 2 1 1 0 0 1 0-2M661 128a1 1 0 1 1 0 2 1 1 0 0 1 0-2M675 128a1 1 0 1 1 0 2 1 1 0 0 1 0-2M689 128a1 1 0 1 1 0 2 1 1 0 0 1 0-2M703 128a1 1 0 1 1 0 2 1 1 0 0 1 0-2M717 128a1 1 0 1 1 0 2 1 1 0 0 1 0-2M-11 114a1 1 0 1 1 0 2 1 1 0 0 1 0-2M3 114a1 1 0 1 1 0 2 1 1 0 0 1 0-2M17 114a1 1 0 1 1 0 2 1 1 0 0 1 0-2M31 114a1 1 0 1 1 0 2 1 1 0 0 1 0-2M45 114a1 1 0 1 1 0 2 1 1 0 0 1 0-2M59 114a1 1 0 1 1 0 2 1 1 0 0 1 0-2M73 114a1 1 0 1 1 0 2 1 1 0 0 1 0-2M87 114a1 1 0 1 1 0 2 1 1 0 0 1 0-2M101 114a1 1 0 1 1 0 2 1 1 0 0 1 0-2M115 114a1 1 0 1 1 0 2 1 1 0 0 1 0-2M129 114a1 1 0 1 1 0 2 1 1 0 0 1 0-2M143 114a1 1 0 1 1 0 2 1 1 0 0 1 0-2M157 114a1 1 0 1 1 0 2 1 1 0 0 1 0-2M171 114a1 1 0 1 1 0 2 1 1 0 0 1 0-2M185 114a1 1 0 1 1 0 2 1 1 0 0 1 0-2M199 114a1 1 0 1 1 0 2 1 1 0 0 1 0-2M213 114a1 1 0 1 1 0 2 1 1 0 0 1 0-2M227 114a1 1 0 1 1 0 2 1 1 0 0 1 0-2M241 114a1 1 0 1 1 0 2 1 1 0 0 1 0-2M255 114a1 1 0 1 1 0 2 1 1 0 0 1 0-2M269 114a1 1 0 1 1 0 2 1 1 0 0 1 0-2M283 114a1 1 0 1 1 0 2 1 1 0 0 1 0-2M297 114a1 1 0 1 1 0 2 1 1 0 0 1 0-2M311 114a1 1 0 1 1 0 2 1 1 0 0 1 0-2M325 114a1 1 0 1 1 0 2 1 1 0 0 1 0-2M339 114a1 1 0 1 1 0 2 1 1 0 0 1 0-2M353 114a1 1 0 1 1 0 2 1 1 0 0 1 0-2M367 114a1 1 0 1 1 0 2 1 1 0 0 1 0-2M381 114a1 1 0 1 1 0 2 1 1 0 0 1 0-2M395 114a1 1 0 1 1 0 2 1 1 0 0 1 0-2M409 114a1 1 0 1 1 0 2 1 1 0 0 1 0-2M423 114a1 1 0 1 1 0 2 1 1 0 0 1 0-2M437 114a1 1 0 1 1 0 2 1 1 0 0 1 0-2M451 114a1 1 0 1 1 0 2 1 1 0 0 1 0-2M465 114a1 1 0 1 1 0 2 1 1 0 0 1 0-2M479 114a1 1 0 1 1 0 2 1 1 0 0 1 0-2M493 114a1 1 0 1 1 0 2 1 1 0 0 1 0-2M507 114a1 1 0 1 1 0 2 1 1 0 0 1 0-2M521 114a1 1 0 1 1 0 2 1 1 0 0 1 0-2M535 114a1 1 0 1 1 0 2 1 1 0 0 1 0-2M549 114a1 1 0 1 1 0 2 1 1 0 0 1 0-2M563 114a1 1 0 1 1 0 2 1 1 0 0 1 0-2M577 114a1 1 0 1 1 0 2 1 1 0 0 1 0-2M591 114a1 1 0 1 1 0 2 1 1 0 0 1 0-2M605 114a1 1 0 1 1 0 2 1 1 0 0 1 0-2M619 114a1 1 0 1 1 0 2 1 1 0 0 1 0-2M633 114a1 1 0 1 1 0 2 1 1 0 0 1 0-2M647 114a1 1 0 1 1 0 2 1 1 0 0 1 0-2M661 114a1 1 0 1 1 0 2 1 1 0 0 1 0-2M675 114a1 1 0 1 1 0 2 1 1 0 0 1 0-2M689 114a1 1 0 1 1 0 2 1 1 0 0 1 0-2M703 114a1 1 0 1 1 0 2 1 1 0 0 1 0-2M717 114a1 1 0 1 1 0 2 1 1 0 0 1 0-2M-11 100a1 1 0 1 1 0 2 1 1 0 0 1 0-2M3 100a1 1 0 1 1 0 2 1 1 0 0 1 0-2M17 100a1 1 0 1 1 0 2 1 1 0 0 1 0-2M31 100a1 1 0 1 1 0 2 1 1 0 0 1 0-2M45 100a1 1 0 1 1 0 2 1 1 0 0 1 0-2M59 100a1 1 0 1 1 0 2 1 1 0 0 1 0-2M73 100a1 1 0 1 1 0 2 1 1 0 0 1 0-2M87 100a1 1 0 1 1 0 2 1 1 0 0 1 0-2M101 100a1 1 0 1 1 0 2 1 1 0 0 1 0-2M115 100a1 1 0 1 1 0 2 1 1 0 0 1 0-2M129 100a1 1 0 1 1 0 2 1 1 0 0 1 0-2M143 100a1 1 0 1 1 0 2 1 1 0 0 1 0-2M157 100a1 1 0 1 1 0 2 1 1 0 0 1 0-2M171 100a1 1 0 1 1 0 2 1 1 0 0 1 0-2M185 100a1 1 0 1 1 0 2 1 1 0 0 1 0-2M199 100a1 1 0 1 1 0 2 1 1 0 0 1 0-2M213 100a1 1 0 1 1 0 2 1 1 0 0 1 0-2M227 100a1 1 0 1 1 0 2 1 1 0 0 1 0-2M241 100a1 1 0 1 1 0 2 1 1 0 0 1 0-2M255 100a1 1 0 1 1 0 2 1 1 0 0 1 0-2M269 100a1 1 0 1 1 0 2 1 1 0 0 1 0-2M283 100a1 1 0 1 1 0 2 1 1 0 0 1 0-2M297 100a1 1 0 1 1 0 2 1 1 0 0 1 0-2M311 100a1 1 0 1 1 0 2 1 1 0 0 1 0-2M325 100a1 1 0 1 1 0 2 1 1 0 0 1 0-2M339 100a1 1 0 1 1 0 2 1 1 0 0 1 0-2M353 100a1 1 0 1 1 0 2 1 1 0 0 1 0-2M367 100a1 1 0 1 1 0 2 1 1 0 0 1 0-2M381 100a1 1 0 1 1 0 2 1 1 0 0 1 0-2M395 100a1 1 0 1 1 0 2 1 1 0 0 1 0-2M409 100a1 1 0 1 1 0 2 1 1 0 0 1 0-2M423 100a1 1 0 1 1 0 2 1 1 0 0 1 0-2M437 100a1 1 0 1 1 0 2 1 1 0 0 1 0-2M451 100a1 1 0 1 1 0 2 1 1 0 0 1 0-2M465 100a1 1 0 1 1 0 2 1 1 0 0 1 0-2M479 100a1 1 0 1 1 0 2 1 1 0 0 1 0-2M493 100a1 1 0 1 1 0 2 1 1 0 0 1 0-2M507 100a1 1 0 1 1 0 2 1 1 0 0 1 0-2M521 100a1 1 0 1 1 0 2 1 1 0 0 1 0-2M535 100a1 1 0 1 1 0 2 1 1 0 0 1 0-2M549 100a1 1 0 1 1 0 2 1 1 0 0 1 0-2M563 100a1 1 0 1 1 0 2 1 1 0 0 1 0-2M577 100a1 1 0 1 1 0 2 1 1 0 0 1 0-2M591 100a1 1 0 1 1 0 2 1 1 0 0 1 0-2M605 100a1 1 0 1 1 0 2 1 1 0 0 1 0-2M619 100a1 1 0 1 1 0 2 1 1 0 0 1 0-2M633 100a1 1 0 1 1 0 2 1 1 0 0 1 0-2M647 100a1 1 0 1 1 0 2 1 1 0 0 1 0-2M661 100a1 1 0 1 1 0 2 1 1 0 0 1 0-2M675 100a1 1 0 1 1 0 2 1 1 0 0 1 0-2M689 100a1 1 0 1 1 0 2 1 1 0 0 1 0-2M703 100a1 1 0 1 1 0 2 1 1 0 0 1 0-2M717 100a1 1 0 1 1 0 2 1 1 0 0 1 0-2M-11 86a1 1 0 1 1 0 2 1 1 0 0 1 0-2M3 86a1 1 0 1 1 0 2 1 1 0 0 1 0-2M17 86a1 1 0 1 1 0 2 1 1 0 0 1 0-2M31 86a1 1 0 1 1 0 2 1 1 0 0 1 0-2M45 86a1 1 0 1 1 0 2 1 1 0 0 1 0-2M59 86a1 1 0 1 1 0 2 1 1 0 0 1 0-2M73 86a1 1 0 1 1 0 2 1 1 0 0 1 0-2M87 86a1 1 0 1 1 0 2 1 1 0 0 1 0-2M101 86a1 1 0 1 1 0 2 1 1 0 0 1 0-2M115 86a1 1 0 1 1 0 2 1 1 0 0 1 0-2M129 86a1 1 0 1 1 0 2 1 1 0 0 1 0-2M143 86a1 1 0 1 1 0 2 1 1 0 0 1 0-2M157 86a1 1 0 1 1 0 2 1 1 0 0 1 0-2M171 86a1 1 0 1 1 0 2 1 1 0 0 1 0-2M185 86a1 1 0 1 1 0 2 1 1 0 0 1 0-2M199 86a1 1 0 1 1 0 2 1 1 0 0 1 0-2M213 86a1 1 0 1 1 0 2 1 1 0 0 1 0-2M227 86a1 1 0 1 1 0 2 1 1 0 0 1 0-2M241 86a1 1 0 1 1 0 2 1 1 0 0 1 0-2M255 86a1 1 0 1 1 0 2 1 1 0 0 1 0-2M269 86a1 1 0 1 1 0 2 1 1 0 0 1 0-2M283 86a1 1 0 1 1 0 2 1 1 0 0 1 0-2M297 86a1 1 0 1 1 0 2 1 1 0 0 1 0-2M311 86a1 1 0 1 1 0 2 1 1 0 0 1 0-2M325 86a1 1 0 1 1 0 2 1 1 0 0 1 0-2M339 86a1 1 0 1 1 0 2 1 1 0 0 1 0-2M353 86a1 1 0 1 1 0 2 1 1 0 0 1 0-2M367 86a1 1 0 1 1 0 2 1 1 0 0 1 0-2M381 86a1 1 0 1 1 0 2 1 1 0 0 1 0-2M395 86a1 1 0 1 1 0 2 1 1 0 0 1 0-2M409 86a1 1 0 1 1 0 2 1 1 0 0 1 0-2M423 86a1 1 0 1 1 0 2 1 1 0 0 1 0-2M437 86a1 1 0 1 1 0 2 1 1 0 0 1 0-2M451 86a1 1 0 1 1 0 2 1 1 0 0 1 0-2M465 86a1 1 0 1 1 0 2 1 1 0 0 1 0-2M479 86a1 1 0 1 1 0 2 1 1 0 0 1 0-2M493 86a1 1 0 1 1 0 2 1 1 0 0 1 0-2M507 86a1 1 0 1 1 0 2 1 1 0 0 1 0-2M521 86a1 1 0 1 1 0 2 1 1 0 0 1 0-2M535 86a1 1 0 1 1 0 2 1 1 0 0 1 0-2M549 86a1 1 0 1 1 0 2 1 1 0 0 1 0-2M563 86a1 1 0 1 1 0 2 1 1 0 0 1 0-2M577 86a1 1 0 1 1 0 2 1 1 0 0 1 0-2M591 86a1 1 0 1 1 0 2 1 1 0 0 1 0-2M605 86a1 1 0 1 1 0 2 1 1 0 0 1 0-2M619 86a1 1 0 1 1 0 2 1 1 0 0 1 0-2M633 86a1 1 0 1 1 0 2 1 1 0 0 1 0-2M647 86a1 1 0 1 1 0 2 1 1 0 0 1 0-2M661 86a1 1 0 1 1 0 2 1 1 0 0 1 0-2M675 86a1 1 0 1 1 0 2 1 1 0 0 1 0-2M689 86a1 1 0 1 1 0 2 1 1 0 0 1 0-2M703 86a1 1 0 1 1 0 2 1 1 0 0 1 0-2M717 86a1 1 0 1 1 0 2 1 1 0 0 1 0-2M-11 72a1 1 0 1 1 0 2 1 1 0 0 1 0-2M3 72a1 1 0 1 1 0 2 1 1 0 0 1 0-2M17 72a1 1 0 1 1 0 2 1 1 0 0 1 0-2M31 72a1 1 0 1 1 0 2 1 1 0 0 1 0-2M45 72a1 1 0 1 1 0 2 1 1 0 0 1 0-2M59 72a1 1 0 1 1 0 2 1 1 0 0 1 0-2M73 72a1 1 0 1 1 0 2 1 1 0 0 1 0-2M87 72a1 1 0 1 1 0 2 1 1 0 0 1 0-2M101 72a1 1 0 1 1 0 2 1 1 0 0 1 0-2M115 72a1 1 0 1 1 0 2 1 1 0 0 1 0-2M129 72a1 1 0 1 1 0 2 1 1 0 0 1 0-2M143 72a1 1 0 1 1 0 2 1 1 0 0 1 0-2M157 72a1 1 0 1 1 0 2 1 1 0 0 1 0-2M171 72a1 1 0 1 1 0 2 1 1 0 0 1 0-2M185 72a1 1 0 1 1 0 2 1 1 0 0 1 0-2M199 72a1 1 0 1 1 0 2 1 1 0 0 1 0-2M213 72a1 1 0 1 1 0 2 1 1 0 0 1 0-2M227 72a1 1 0 1 1 0 2 1 1 0 0 1 0-2M241 72a1 1 0 1 1 0 2 1 1 0 0 1 0-2M255 72a1 1 0 1 1 0 2 1 1 0 0 1 0-2M269 72a1 1 0 1 1 0 2 1 1 0 0 1 0-2M283 72a1 1 0 1 1 0 2 1 1 0 0 1 0-2M297 72a1 1 0 1 1 0 2 1 1 0 0 1 0-2M311 72a1 1 0 1 1 0 2 1 1 0 0 1 0-2M325 72a1 1 0 1 1 0 2 1 1 0 0 1 0-2M339 72a1 1 0 1 1 0 2 1 1 0 0 1 0-2M353 72a1 1 0 1 1 0 2 1 1 0 0 1 0-2M367 72a1 1 0 1 1 0 2 1 1 0 0 1 0-2M381 72a1 1 0 1 1 0 2 1 1 0 0 1 0-2M395 72a1 1 0 1 1 0 2 1 1 0 0 1 0-2M409 72a1 1 0 1 1 0 2 1 1 0 0 1 0-2M423 72a1 1 0 1 1 0 2 1 1 0 0 1 0-2M437 72a1 1 0 1 1 0 2 1 1 0 0 1 0-2M451 72a1 1 0 1 1 0 2 1 1 0 0 1 0-2M465 72a1 1 0 1 1 0 2 1 1 0 0 1 0-2M479 72a1 1 0 1 1 0 2 1 1 0 0 1 0-2M493 72a1 1 0 1 1 0 2 1 1 0 0 1 0-2M507 72a1 1 0 1 1 0 2 1 1 0 0 1 0-2M521 72a1 1 0 1 1 0 2 1 1 0 0 1 0-2M535 72a1 1 0 1 1 0 2 1 1 0 0 1 0-2M549 72a1 1 0 1 1 0 2 1 1 0 0 1 0-2M563 72a1 1 0 1 1 0 2 1 1 0 0 1 0-2M577 72a1 1 0 1 1 0 2 1 1 0 0 1 0-2M591 72a1 1 0 1 1 0 2 1 1 0 0 1 0-2M605 72a1 1 0 1 1 0 2 1 1 0 0 1 0-2M619 72a1 1 0 1 1 0 2 1 1 0 0 1 0-2M633 72a1 1 0 1 1 0 2 1 1 0 0 1 0-2M647 72a1 1 0 1 1 0 2 1 1 0 0 1 0-2M661 72a1 1 0 1 1 0 2 1 1 0 0 1 0-2M675 72a1 1 0 1 1 0 2 1 1 0 0 1 0-2M689 72a1 1 0 1 1 0 2 1 1 0 0 1 0-2M703 72a1 1 0 1 1 0 2 1 1 0 0 1 0-2M717 72a1 1 0 1 1 0 2 1 1 0 0 1 0-2M-11 58a1 1 0 1 1 0 2 1 1 0 0 1 0-2M3 58a1 1 0 1 1 0 2 1 1 0 0 1 0-2M17 58a1 1 0 1 1 0 2 1 1 0 0 1 0-2M31 58a1 1 0 1 1 0 2 1 1 0 0 1 0-2M45 58a1 1 0 1 1 0 2 1 1 0 0 1 0-2M59 58a1 1 0 1 1 0 2 1 1 0 0 1 0-2M73 58a1 1 0 1 1 0 2 1 1 0 0 1 0-2M87 58a1 1 0 1 1 0 2 1 1 0 0 1 0-2M101 58a1 1 0 1 1 0 2 1 1 0 0 1 0-2M115 58a1 1 0 1 1 0 2 1 1 0 0 1 0-2M129 58a1 1 0 1 1 0 2 1 1 0 0 1 0-2M143 58a1 1 0 1 1 0 2 1 1 0 0 1 0-2M157 58a1 1 0 1 1 0 2 1 1 0 0 1 0-2M171 58a1 1 0 1 1 0 2 1 1 0 0 1 0-2M185 58a1 1 0 1 1 0 2 1 1 0 0 1 0-2M199 58a1 1 0 1 1 0 2 1 1 0 0 1 0-2M213 58a1 1 0 1 1 0 2 1 1 0 0 1 0-2M227 58a1 1 0 1 1 0 2 1 1 0 0 1 0-2M241 58a1 1 0 1 1 0 2 1 1 0 0 1 0-2M255 58a1 1 0 1 1 0 2 1 1 0 0 1 0-2M269 58a1 1 0 1 1 0 2 1 1 0 0 1 0-2M283 58a1 1 0 1 1 0 2 1 1 0 0 1 0-2M297 58a1 1 0 1 1 0 2 1 1 0 0 1 0-2M311 58a1 1 0 1 1 0 2 1 1 0 0 1 0-2M325 58a1 1 0 1 1 0 2 1 1 0 0 1 0-2M339 58a1 1 0 1 1 0 2 1 1 0 0 1 0-2M353 58a1 1 0 1 1 0 2 1 1 0 0 1 0-2M367 58a1 1 0 1 1 0 2 1 1 0 0 1 0-2M381 58a1 1 0 1 1 0 2 1 1 0 0 1 0-2M395 58a1 1 0 1 1 0 2 1 1 0 0 1 0-2M409 58a1 1 0 1 1 0 2 1 1 0 0 1 0-2M423 58a1 1 0 1 1 0 2 1 1 0 0 1 0-2M437 58a1 1 0 1 1 0 2 1 1 0 0 1 0-2M451 58a1 1 0 1 1 0 2 1 1 0 0 1 0-2M465 58a1 1 0 1 1 0 2 1 1 0 0 1 0-2M479 58a1 1 0 1 1 0 2 1 1 0 0 1 0-2M493 58a1 1 0 1 1 0 2 1 1 0 0 1 0-2M507 58a1 1 0 1 1 0 2 1 1 0 0 1 0-2M521 58a1 1 0 1 1 0 2 1 1 0 0 1 0-2M535 58a1 1 0 1 1 0 2 1 1 0 0 1 0-2M549 58a1 1 0 1 1 0 2 1 1 0 0 1 0-2M563 58a1 1 0 1 1 0 2 1 1 0 0 1 0-2M577 58a1 1 0 1 1 0 2 1 1 0 0 1 0-2M591 58a1 1 0 1 1 0 2 1 1 0 0 1 0-2M605 58a1 1 0 1 1 0 2 1 1 0 0 1 0-2M619 58a1 1 0 1 1 0 2 1 1 0 0 1 0-2M633 58a1 1 0 1 1 0 2 1 1 0 0 1 0-2M647 58a1 1 0 1 1 0 2 1 1 0 0 1 0-2M661 58a1 1 0 1 1 0 2 1 1 0 0 1 0-2M675 58a1 1 0 1 1 0 2 1 1 0 0 1 0-2M689 58a1 1 0 1 1 0 2 1 1 0 0 1 0-2M703 58a1 1 0 1 1 0 2 1 1 0 0 1 0-2M717 58a1 1 0 1 1 0 2 1 1 0 0 1 0-2M-11 44a1 1 0 1 1 0 2 1 1 0 0 1 0-2M3 44a1 1 0 1 1 0 2 1 1 0 0 1 0-2M17 44a1 1 0 1 1 0 2 1 1 0 0 1 0-2M31 44a1 1 0 1 1 0 2 1 1 0 0 1 0-2M45 44a1 1 0 1 1 0 2 1 1 0 0 1 0-2M59 44a1 1 0 1 1 0 2 1 1 0 0 1 0-2M73 44a1 1 0 1 1 0 2 1 1 0 0 1 0-2M87 44a1 1 0 1 1 0 2 1 1 0 0 1 0-2M101 44a1 1 0 1 1 0 2 1 1 0 0 1 0-2M115 44a1 1 0 1 1 0 2 1 1 0 0 1 0-2M129 44a1 1 0 1 1 0 2 1 1 0 0 1 0-2M143 44a1 1 0 1 1 0 2 1 1 0 0 1 0-2M157 44a1 1 0 1 1 0 2 1 1 0 0 1 0-2M171 44a1 1 0 1 1 0 2 1 1 0 0 1 0-2M185 44a1 1 0 1 1 0 2 1 1 0 0 1 0-2M199 44a1 1 0 1 1 0 2 1 1 0 0 1 0-2M213 44a1 1 0 1 1 0 2 1 1 0 0 1 0-2M227 44a1 1 0 1 1 0 2 1 1 0 0 1 0-2M241 44a1 1 0 1 1 0 2 1 1 0 0 1 0-2M255 44a1 1 0 1 1 0 2 1 1 0 0 1 0-2M269 44a1 1 0 1 1 0 2 1 1 0 0 1 0-2M283 44a1 1 0 1 1 0 2 1 1 0 0 1 0-2M297 44a1 1 0 1 1 0 2 1 1 0 0 1 0-2M311 44a1 1 0 1 1 0 2 1 1 0 0 1 0-2M325 44a1 1 0 1 1 0 2 1 1 0 0 1 0-2M339 44a1 1 0 1 1 0 2 1 1 0 0 1 0-2M353 44a1 1 0 1 1 0 2 1 1 0 0 1 0-2M367 44a1 1 0 1 1 0 2 1 1 0 0 1 0-2M381 44a1 1 0 1 1 0 2 1 1 0 0 1 0-2M395 44a1 1 0 1 1 0 2 1 1 0 0 1 0-2M409 44a1 1 0 1 1 0 2 1 1 0 0 1 0-2M423 44a1 1 0 1 1 0 2 1 1 0 0 1 0-2M437 44a1 1 0 1 1 0 2 1 1 0 0 1 0-2M451 44a1 1 0 1 1 0 2 1 1 0 0 1 0-2M465 44a1 1 0 1 1 0 2 1 1 0 0 1 0-2M479 44a1 1 0 1 1 0 2 1 1 0 0 1 0-2M493 44a1 1 0 1 1 0 2 1 1 0 0 1 0-2M507 44a1 1 0 1 1 0 2 1 1 0 0 1 0-2M521 44a1 1 0 1 1 0 2 1 1 0 0 1 0-2M535 44a1 1 0 1 1 0 2 1 1 0 0 1 0-2M549 44a1 1 0 1 1 0 2 1 1 0 0 1 0-2M563 44a1 1 0 1 1 0 2 1 1 0 0 1 0-2M577 44a1 1 0 1 1 0 2 1 1 0 0 1 0-2M591 44a1 1 0 1 1 0 2 1 1 0 0 1 0-2M605 44a1 1 0 1 1 0 2 1 1 0 0 1 0-2M619 44a1 1 0 1 1 0 2 1 1 0 0 1 0-2M633 44a1 1 0 1 1 0 2 1 1 0 0 1 0-2M647 44a1 1 0 1 1 0 2 1 1 0 0 1 0-2M661 44a1 1 0 1 1 0 2 1 1 0 0 1 0-2M675 44a1 1 0 1 1 0 2 1 1 0 0 1 0-2M689 44a1 1 0 1 1 0 2 1 1 0 0 1 0-2M703 44a1 1 0 1 1 0 2 1 1 0 0 1 0-2M717 44a1 1 0 1 1 0 2 1 1 0 0 1 0-2M-11 30a1 1 0 1 1 0 2 1 1 0 0 1 0-2M3 30a1 1 0 1 1 0 2 1 1 0 0 1 0-2M17 30a1 1 0 1 1 0 2 1 1 0 0 1 0-2M31 30a1 1 0 1 1 0 2 1 1 0 0 1 0-2M45 30a1 1 0 1 1 0 2 1 1 0 0 1 0-2M59 30a1 1 0 1 1 0 2 1 1 0 0 1 0-2M73 30a1 1 0 1 1 0 2 1 1 0 0 1 0-2M87 30a1 1 0 1 1 0 2 1 1 0 0 1 0-2M101 30a1 1 0 1 1 0 2 1 1 0 0 1 0-2M115 30a1 1 0 1 1 0 2 1 1 0 0 1 0-2M129 30a1 1 0 1 1 0 2 1 1 0 0 1 0-2M143 30a1 1 0 1 1 0 2 1 1 0 0 1 0-2M157 30a1 1 0 1 1 0 2 1 1 0 0 1 0-2M171 30a1 1 0 1 1 0 2 1 1 0 0 1 0-2M185 30a1 1 0 1 1 0 2 1 1 0 0 1 0-2M199 30a1 1 0 1 1 0 2 1 1 0 0 1 0-2M213 30a1 1 0 1 1 0 2 1 1 0 0 1 0-2M227 30a1 1 0 1 1 0 2 1 1 0 0 1 0-2M241 30a1 1 0 1 1 0 2 1 1 0 0 1 0-2M255 30a1 1 0 1 1 0 2 1 1 0 0 1 0-2M269 30a1 1 0 1 1 0 2 1 1 0 0 1 0-2M283 30a1 1 0 1 1 0 2 1 1 0 0 1 0-2M297 30a1 1 0 1 1 0 2 1 1 0 0 1 0-2M311 30a1 1 0 1 1 0 2 1 1 0 0 1 0-2M325 30a1 1 0 1 1 0 2 1 1 0 0 1 0-2M339 30a1 1 0 1 1 0 2 1 1 0 0 1 0-2M353 30a1 1 0 1 1 0 2 1 1 0 0 1 0-2M367 30a1 1 0 1 1 0 2 1 1 0 0 1 0-2M381 30a1 1 0 1 1 0 2 1 1 0 0 1 0-2M395 30a1 1 0 1 1 0 2 1 1 0 0 1 0-2M409 30a1 1 0 1 1 0 2 1 1 0 0 1 0-2M423 30a1 1 0 1 1 0 2 1 1 0 0 1 0-2M437 30a1 1 0 1 1 0 2 1 1 0 0 1 0-2M451 30a1 1 0 1 1 0 2 1 1 0 0 1 0-2M465 30a1 1 0 1 1 0 2 1 1 0 0 1 0-2M479 30a1 1 0 1 1 0 2 1 1 0 0 1 0-2M493 30a1 1 0 1 1 0 2 1 1 0 0 1 0-2M507 30a1 1 0 1 1 0 2 1 1 0 0 1 0-2M521 30a1 1 0 1 1 0 2 1 1 0 0 1 0-2M535 30a1 1 0 1 1 0 2 1 1 0 0 1 0-2M549 30a1 1 0 1 1 0 2 1 1 0 0 1 0-2M563 30a1 1 0 1 1 0 2 1 1 0 0 1 0-2M577 30a1 1 0 1 1 0 2 1 1 0 0 1 0-2M591 30a1 1 0 1 1 0 2 1 1 0 0 1 0-2M605 30a1 1 0 1 1 0 2 1 1 0 0 1 0-2M619 30a1 1 0 1 1 0 2 1 1 0 0 1 0-2M633 30a1 1 0 1 1 0 2 1 1 0 0 1 0-2M647 30a1 1 0 1 1 0 2 1 1 0 0 1 0-2M661 30a1 1 0 1 1 0 2 1 1 0 0 1 0-2M675 30a1 1 0 1 1 0 2 1 1 0 0 1 0-2M689 30a1 1 0 1 1 0 2 1 1 0 0 1 0-2M703 30a1 1 0 1 1 0 2 1 1 0 0 1 0-2M717 30a1 1 0 1 1 0 2 1 1 0 0 1 0-2M-11 16a1 1 0 1 1 0 2 1 1 0 0 1 0-2M3 16a1 1 0 1 1 0 2 1 1 0 0 1 0-2M17 16a1 1 0 1 1 0 2 1 1 0 0 1 0-2M31 16a1 1 0 1 1 0 2 1 1 0 0 1 0-2M45 16a1 1 0 1 1 0 2 1 1 0 0 1 0-2M59 16a1 1 0 1 1 0 2 1 1 0 0 1 0-2M73 16a1 1 0 1 1 0 2 1 1 0 0 1 0-2M87 16a1 1 0 1 1 0 2 1 1 0 0 1 0-2M101 16a1 1 0 1 1 0 2 1 1 0 0 1 0-2M115 16a1 1 0 1 1 0 2 1 1 0 0 1 0-2M129 16a1 1 0 1 1 0 2 1 1 0 0 1 0-2M143 16a1 1 0 1 1 0 2 1 1 0 0 1 0-2M157 16a1 1 0 1 1 0 2 1 1 0 0 1 0-2M171 16a1 1 0 1 1 0 2 1 1 0 0 1 0-2M185 16a1 1 0 1 1 0 2 1 1 0 0 1 0-2M199 16a1 1 0 1 1 0 2 1 1 0 0 1 0-2M213 16a1 1 0 1 1 0 2 1 1 0 0 1 0-2M227 16a1 1 0 1 1 0 2 1 1 0 0 1 0-2M241 16a1 1 0 1 1 0 2 1 1 0 0 1 0-2M255 16a1 1 0 1 1 0 2 1 1 0 0 1 0-2M269 16a1 1 0 1 1 0 2 1 1 0 0 1 0-2M283 16a1 1 0 1 1 0 2 1 1 0 0 1 0-2M297 16a1 1 0 1 1 0 2 1 1 0 0 1 0-2M311 16a1 1 0 1 1 0 2 1 1 0 0 1 0-2M325 16a1 1 0 1 1 0 2 1 1 0 0 1 0-2M339 16a1 1 0 1 1 0 2 1 1 0 0 1 0-2M353 16a1 1 0 1 1 0 2 1 1 0 0 1 0-2M367 16a1 1 0 1 1 0 2 1 1 0 0 1 0-2M381 16a1 1 0 1 1 0 2 1 1 0 0 1 0-2M395 16a1 1 0 1 1 0 2 1 1 0 0 1 0-2M409 16a1 1 0 1 1 0 2 1 1 0 0 1 0-2M423 16a1 1 0 1 1 0 2 1 1 0 0 1 0-2M437 16a1 1 0 1 1 0 2 1 1 0 0 1 0-2M451 16a1 1 0 1 1 0 2 1 1 0 0 1 0-2M465 16a1 1 0 1 1 0 2 1 1 0 0 1 0-2M479 16a1 1 0 1 1 0 2 1 1 0 0 1 0-2M493 16a1 1 0 1 1 0 2 1 1 0 0 1 0-2M507 16a1 1 0 1 1 0 2 1 1 0 0 1 0-2M521 16a1 1 0 1 1 0 2 1 1 0 0 1 0-2M535 16a1 1 0 1 1 0 2 1 1 0 0 1 0-2M549 16a1 1 0 1 1 0 2 1 1 0 0 1 0-2M563 16a1 1 0 1 1 0 2 1 1 0 0 1 0-2M577 16a1 1 0 1 1 0 2 1 1 0 0 1 0-2M591 16a1 1 0 1 1 0 2 1 1 0 0 1 0-2M605 16a1 1 0 1 1 0 2 1 1 0 0 1 0-2M619 16a1 1 0 1 1 0 2 1 1 0 0 1 0-2M633 16a1 1 0 1 1 0 2 1 1 0 0 1 0-2M647 16a1 1 0 1 1 0 2 1 1 0 0 1 0-2M661 16a1 1 0 1 1 0 2 1 1 0 0 1 0-2M675 16a1 1 0 1 1 0 2 1 1 0 0 1 0-2M689 16a1 1 0 1 1 0 2 1 1 0 0 1 0-2M703 16a1 1 0 1 1 0 2 1 1 0 0 1 0-2M717 16a1 1 0 1 1 0 2 1 1 0 0 1 0-2M-11 2a1 1 0 1 1 0 2 1 1 0 0 1 0-2M3 2a1 1 0 1 1 0 2 1 1 0 0 1 0-2M17 2a1 1 0 1 1 0 2 1 1 0 0 1 0-2M31 2a1 1 0 1 1 0 2 1 1 0 0 1 0-2M45 2a1 1 0 1 1 0 2 1 1 0 0 1 0-2M59 2a1 1 0 1 1 0 2 1 1 0 0 1 0-2M73 2a1 1 0 1 1 0 2 1 1 0 0 1 0-2M87 2a1 1 0 1 1 0 2 1 1 0 0 1 0-2M101 2a1 1 0 1 1 0 2 1 1 0 0 1 0-2M115 2a1 1 0 1 1 0 2 1 1 0 0 1 0-2M129 2a1 1 0 1 1 0 2 1 1 0 0 1 0-2M143 2a1 1 0 1 1 0 2 1 1 0 0 1 0-2M157 2a1 1 0 1 1 0 2 1 1 0 0 1 0-2M171 2a1 1 0 1 1 0 2 1 1 0 0 1 0-2M185 2a1 1 0 1 1 0 2 1 1 0 0 1 0-2M199 2a1 1 0 1 1 0 2 1 1 0 0 1 0-2M213 2a1 1 0 1 1 0 2 1 1 0 0 1 0-2M227 2a1 1 0 1 1 0 2 1 1 0 0 1 0-2M241 2a1 1 0 1 1 0 2 1 1 0 0 1 0-2M255 2a1 1 0 1 1 0 2 1 1 0 0 1 0-2M269 2a1 1 0 1 1 0 2 1 1 0 0 1 0-2M283 2a1 1 0 1 1 0 2 1 1 0 0 1 0-2M297 2a1 1 0 1 1 0 2 1 1 0 0 1 0-2M311 2a1 1 0 1 1 0 2 1 1 0 0 1 0-2M325 2a1 1 0 1 1 0 2 1 1 0 0 1 0-2M339 2a1 1 0 1 1 0 2 1 1 0 0 1 0-2M353 2a1 1 0 1 1 0 2 1 1 0 0 1 0-2M367 2a1 1 0 1 1 0 2 1 1 0 0 1 0-2M381 2a1 1 0 1 1 0 2 1 1 0 0 1 0-2M395 2a1 1 0 1 1 0 2 1 1 0 0 1 0-2M409 2a1 1 0 1 1 0 2 1 1 0 0 1 0-2M423 2a1 1 0 1 1 0 2 1 1 0 0 1 0-2M437 2a1 1 0 1 1 0 2 1 1 0 0 1 0-2M451 2a1 1 0 1 1 0 2 1 1 0 0 1 0-2M465 2a1 1 0 1 1 0 2 1 1 0 0 1 0-2M479 2a1 1 0 1 1 0 2 1 1 0 0 1 0-2M493 2a1 1 0 1 1 0 2 1 1 0 0 1 0-2M507 2a1 1 0 1 1 0 2 1 1 0 0 1 0-2M521 2a1 1 0 1 1 0 2 1 1 0 0 1 0-2M535 2a1 1 0 1 1 0 2 1 1 0 0 1 0-2M549 2a1 1 0 1 1 0 2 1 1 0 0 1 0-2M563 2a1 1 0 1 1 0 2 1 1 0 0 1 0-2M577 2a1 1 0 1 1 0 2 1 1 0 0 1 0-2M591 2a1 1 0 1 1 0 2 1 1 0 0 1 0-2M605 2a1 1 0 1 1 0 2 1 1 0 0 1 0-2M619 2a1 1 0 1 1 0 2 1 1 0 0 1 0-2M633 2a1 1 0 1 1 0 2 1 1 0 0 1 0-2M647 2a1 1 0 1 1 0 2 1 1 0 0 1 0-2M661 2a1 1 0 1 1 0 2 1 1 0 0 1 0-2M675 2a1 1 0 1 1 0 2 1 1 0 0 1 0-2M689 2a1 1 0 1 1 0 2 1 1 0 0 1 0-2M703 2a1 1 0 1 1 0 2 1 1 0 0 1 0-2M717 2a1 1 0 1 1 0 2 1 1 0 0 1 0-2"/></g><rect width="163" height="55" x="35.5" y="14.5" fill="#cfd4fc" rx="9.5"/><rect width="163" height="55" x="35.5" y="14.5" stroke="#3d50f5" rx="9.5"/><rect width="30" height="30" x="47" y="27" fill="#3d50f5" rx="4"/><path fill="#fff" d="M57.417 36.5a.917.917 0 1 0-1.834 0 .917.917 0 0 0 1.834 0m11 11a.917.917 0 1 0-1.834 0 .917.917 0 0 0 1.834 0m1.833 0a2.75 2.75 0 1 1-3.667-2.59v-6.577a.917.917 0 0 0-.916-.916h-2.37l1.184 1.185a.916.916 0 1 1-1.296 1.296l-2.75-2.75a.916.916 0 0 1 0-1.296l2.75-2.75a.916.916 0 1 1 1.296 1.296l-1.185 1.185h2.37a2.75 2.75 0 0 1 2.75 2.75v6.577a2.75 2.75 0 0 1 1.834 2.59m-11-11a2.743 2.743 0 0 1-1.833 2.589v6.578a.916.916 0 0 0 .916.916h2.37l-1.184-1.185a.916.916 0 1 1 1.296-1.296l2.75 2.75a.916.916 0 0 1 0 1.296l-2.75 2.75a.916.916 0 1 1-1.296-1.296l1.185-1.185h-2.37a2.75 2.75 0 0 1-2.75-2.75v-6.578a2.743 2.743 0 0 1-1.028-4.533A2.75 2.75 0 0 1 59.25 36.5"/><path fill="#17181c" d="M86.455 35.824h1.551l.919 1.19.655.776 1.575 2.023h-1.662l-1.072-1.358-.457-.646zm4.926-1.551q0 1.527-.573 2.617-.567 1.085-1.55 1.662-.98.577-2.221.577t-2.226-.577q-.979-.582-1.55-1.666-.57-1.09-.569-2.613 0-1.529.568-2.613.573-1.09 1.551-1.667.984-.577 2.226-.577t2.22.577q.984.577 1.551 1.667.573 1.084.573 2.613m-1.722 0q0-1.076-.337-1.815-.333-.743-.924-1.121a2.45 2.45 0 0 0-1.361-.384q-.771 0-1.362.384-.59.378-.928 1.122-.333.738-.333 1.814 0 1.075.333 1.819.337.738.928 1.121a2.47 2.47 0 0 0 1.362.379q.77 0 1.361-.379.591-.383.924-1.121.337-.743.337-1.82m7.8 1.745v-4.109h1.67V39h-1.62v-1.26h-.074q-.24.595-.79.974-.543.378-1.343.378a2.4 2.4 0 0 1-1.232-.309 2.15 2.15 0 0 1-.831-.91q-.3-.6-.3-1.449v-4.515h1.67v4.257q0 .674.37 1.07.37.398.97.398.369 0 .715-.18.346-.181.568-.536.225-.36.226-.9m6.528 3.12q-1.066 0-1.842-.443a3 3 0 0 1-1.186-1.265q-.416-.82-.416-1.934 0-1.095.416-1.92.42-.831 1.172-1.293.753-.465 1.768-.466.656 0 1.238.212.585.208 1.034.646.452.439.711 1.118.258.674.258 1.606v.513h-5.812v-1.127h4.21a1.8 1.8 0 0 0-.207-.854 1.5 1.5 0 0 0-.568-.595 1.6 1.6 0 0 0-.841-.217 1.63 1.63 0 0 0-.9.249q-.387.244-.604.646a1.85 1.85 0 0 0-.217.873v.983q0 .618.226 1.062.226.438.632.674.406.23.951.23.364 0 .66-.1a1.5 1.5 0 0 0 .513-.31q.217-.203.328-.503l1.56.175a2.44 2.44 0 0 1-.563 1.08 2.75 2.75 0 0 1-1.053.711q-.642.25-1.468.25m9.087-3.12v-4.109h1.671V39h-1.621v-1.26h-.074q-.24.595-.789.974-.545.378-1.343.378a2.4 2.4 0 0 1-1.233-.309 2.15 2.15 0 0 1-.831-.91q-.3-.6-.3-1.449v-4.515h1.671v4.257q0 .674.369 1.07.37.398.97.398.37 0 .715-.18a1.45 1.45 0 0 0 .568-.536q.227-.36.227-.9m6.528 3.12q-1.066 0-1.842-.443a3 3 0 0 1-1.186-1.265q-.416-.82-.416-1.934 0-1.095.416-1.92a3.14 3.14 0 0 1 1.173-1.293q.752-.465 1.768-.466.655 0 1.237.212.586.208 1.034.646.453.439.711 1.118.258.674.258 1.606v.513h-5.812v-1.127h4.21a1.8 1.8 0 0 0-.207-.854 1.5 1.5 0 0 0-.568-.595 1.6 1.6 0 0 0-.84-.217q-.513 0-.9.249a1.7 1.7 0 0 0-.605.646 1.85 1.85 0 0 0-.217.873v.983q0 .618.226 1.062.227.438.632.674.406.23.951.23.366 0 .661-.1.295-.108.512-.31.217-.203.328-.503l1.56.175a2.4 2.4 0 0 1-.563 1.08 2.75 2.75 0 0 1-1.053.711q-.641.25-1.468.25m5.597-.036a1 1 0 0 1-.72-.296.95.95 0 0 1-.296-.72.94.94 0 0 1 .296-.711 1 1 0 0 1 .72-.295q.406 0 .706.295a.97.97 0 0 1 .162 1.223 1.1 1.1 0 0 1-.37.37.96.96 0 0 1-.498.134m0-5.06a1 1 0 0 1-.72-.296.96.96 0 0 1-.296-.72.94.94 0 0 1 .296-.71q.3-.3.72-.3.406 0 .706.3a.97.97 0 0 1 .309.71 1 1 0 0 1-.147.508 1.07 1.07 0 0 1-.37.37.94.94 0 0 1-.498.138M82.933 45.545h2.095l2.807 6.851h.111l2.807-6.85h2.096V55h-1.644v-6.495h-.087l-2.613 6.467h-1.228l-2.613-6.481h-.088V55h-1.643zm13.747 9.598q-.674 0-1.214-.24a2 2 0 0 1-.85-.72q-.308-.475-.308-1.173 0-.6.221-.992.222-.393.605-.628.383-.236.863-.356a7 7 0 0 1 1.002-.18q.623-.064 1.01-.115.39-.055.564-.166.18-.116.18-.356v-.027q0-.522-.31-.808-.308-.286-.89-.286-.614 0-.974.267a1.33 1.33 0 0 0-.48.633l-1.56-.222q.184-.645.609-1.08a2.65 2.65 0 0 1 1.038-.656q.614-.22 1.358-.221.511 0 1.02.12.508.12.928.397.42.273.674.743.258.47.258 1.177V55h-1.606v-.974h-.056a2 2 0 0 1-.429.554q-.271.255-.688.41a2.8 2.8 0 0 1-.965.153m.434-1.228q.504 0 .873-.198.369-.204.568-.536.203-.332.203-.725v-.835a.8.8 0 0 1-.268.12q-.184.055-.415.097a13 13 0 0 1-.457.074l-.393.055q-.374.051-.67.166a1.1 1.1 0 0 0-.466.323.8.8 0 0 0-.17.527q0 .461.337.697.336.235.858.235M102.105 55v-7.09h1.671V55zm.84-8.097a.97.97 0 0 1-.683-.263.85.85 0 0 1-.287-.642q0-.378.287-.642a.97.97 0 0 1 .683-.268q.402 0 .683.268.286.264.286.642 0 .374-.286.642a.96.96 0 0 1-.683.263m4.221 3.942V55h-1.672v-7.09h1.598v1.204h.083q.245-.595.78-.946.54-.351 1.334-.351.734 0 1.279.314.549.313.849.91.304.594.3 1.444V55h-1.671v-4.256q0-.711-.369-1.113-.364-.402-1.011-.402a1.55 1.55 0 0 0-.78.194 1.34 1.34 0 0 0-.531.55q-.189.36-.189.872"/><rect width="205" height="55" x="14.5" y="170.5" fill="#fff" rx="9.5"/><rect width="205" height="55" x="14.5" y="170.5" stroke="#3d50f5" rx="9.5"/><rect width="30" height="30" x="26" y="183" fill="#cfd4fc" rx="4"/><path fill="#0f1c8a" d="M36.417 192.5a.917.917 0 1 0-1.834 0 .917.917 0 0 0 1.834 0m11 11a.917.917 0 1 0-1.834 0 .917.917 0 0 0 1.834 0m1.833 0a2.75 2.75 0 0 1-2.75 2.75 2.749 2.749 0 0 1-.917-5.34v-6.577a.917.917 0 0 0-.916-.916h-2.37l1.184 1.185a.916.916 0 1 1-1.296 1.296l-2.75-2.75a.916.916 0 0 1 0-1.296l2.75-2.75a.916.916 0 1 1 1.296 1.296l-1.185 1.185h2.37a2.75 2.75 0 0 1 2.75 2.75v6.577a2.75 2.75 0 0 1 1.834 2.59m-11-11a2.75 2.75 0 0 1-1.833 2.589v6.578a.917.917 0 0 0 .916.916h2.37l-1.184-1.185a.916.916 0 1 1 1.296-1.296l2.75 2.75a.916.916 0 0 1 0 1.296l-2.75 2.75a.916.916 0 1 1-1.296-1.296l1.185-1.185h-2.37a2.75 2.75 0 0 1-2.75-2.75v-6.578a2.748 2.748 0 0 1 .917-5.339 2.75 2.75 0 0 1 2.749 2.75"/><path fill="#17181c" d="M61.933 195v-9.455h1.712v4.003h4.381v-4.003h1.718V195h-1.718v-4.016h-4.38V195zm9.6 0v-7.091h1.67V195zm.84-8.097a.98.98 0 0 1-.684-.263.85.85 0 0 1-.286-.642.84.84 0 0 1 .286-.642.97.97 0 0 1 .684-.268q.4 0 .683.268.285.264.286.642a.85.85 0 0 1-.286.642.97.97 0 0 1-.683.263m5.633 10.904q-.9 0-1.547-.245-.646-.24-1.038-.646a2.24 2.24 0 0 1-.545-.9l1.505-.365q.102.207.295.411.195.207.522.341.332.14.836.139.71 0 1.177-.346.465-.342.466-1.127v-1.343h-.083a2.4 2.4 0 0 1-.378.531q-.245.272-.651.457-.402.184-1.011.184a2.9 2.9 0 0 1-1.482-.383q-.66-.387-1.053-1.154-.388-.77-.388-1.93 0-1.167.388-1.971.393-.807 1.057-1.223.665-.42 1.482-.42.624 0 1.025.212.405.208.646.503.24.29.365.55h.092v-1.173h1.648v7.206q0 .91-.434 1.505-.433.595-1.186.891t-1.708.296m.014-4.22q.53 0 .905-.258.373-.259.568-.743.193-.485.193-1.164 0-.67-.194-1.172a1.68 1.68 0 0 0-.563-.781q-.37-.28-.91-.281-.558 0-.932.291t-.563.798q-.19.503-.19 1.145 0 .651.19 1.14.195.486.568.758.379.267.928.267m6.698-2.742V195h-1.67v-9.455h1.633v3.569h.084q.25-.6.77-.946.526-.351 1.34-.351.738 0 1.287.309.55.31.85.905.304.596.304 1.454V195h-1.67v-4.256q0-.716-.37-1.113-.365-.402-1.025-.402-.444 0-.794.194-.345.19-.545.55-.194.36-.194.872M91.094 195v-9.455h3.545q1.09 0 1.828.407.744.406 1.122 1.117.383.706.383 1.606 0 .91-.383 1.616a2.74 2.74 0 0 1-1.131 1.113q-.749.401-1.842.401h-2.35v-1.408h2.12q.636 0 1.043-.221.405-.222.6-.61.198-.387.198-.891 0-.502-.198-.886a1.35 1.35 0 0 0-.605-.595q-.406-.217-1.048-.217h-1.57V195zm8.292 0v-7.091h1.62v1.182h.074q.195-.614.665-.946a1.83 1.83 0 0 1 1.085-.337q.138 0 .309.013.175.01.291.033v1.537a2 2 0 0 0-.337-.065 3 3 0 0 0-.439-.032q-.456 0-.821.199-.36.193-.568.54-.208.346-.208.798V195zm5.154 0v-7.091h1.671V195zm.841-8.097a.98.98 0 0 1-.684-.263.85.85 0 0 1-.286-.642.84.84 0 0 1 .286-.642.97.97 0 0 1 .684-.268q.4 0 .683.268a.84.84 0 0 1 .286.642.85.85 0 0 1-.286.642.97.97 0 0 1-.683.263m5.642 8.235q-1.039 0-1.8-.457a3.1 3.1 0 0 1-1.182-1.278q-.416-.822-.416-1.921 0-1.098.416-1.925a3.1 3.1 0 0 1 1.182-1.283q.761-.457 1.8-.457t1.8.457q.762.456 1.178 1.283.42.827.42 1.925 0 1.1-.42 1.921-.416.822-1.178 1.278-.761.457-1.8.457m.009-1.338q.564 0 .942-.31.378-.313.563-.84a3.5 3.5 0 0 0 .189-1.172 3.5 3.5 0 0 0-.189-1.178 1.86 1.86 0 0 0-.563-.844q-.378-.315-.942-.314-.577 0-.96.314-.378.313-.568.844a3.6 3.6 0 0 0-.184 1.178q0 .645.184 1.172.19.527.568.84.383.31.96.31m4.807 1.2v-7.091h1.621v1.182h.073q.194-.614.665-.946a1.83 1.83 0 0 1 1.085-.337q.138 0 .309.013.176.01.291.033v1.537a2 2 0 0 0-.337-.065 3 3 0 0 0-.438-.032q-.457 0-.822.199-.36.193-.568.54-.207.346-.208.798V195zm5.154 0v-7.091h1.672V195zm.841-8.097a.98.98 0 0 1-.684-.263.85.85 0 0 1-.286-.642q0-.378.286-.642a.97.97 0 0 1 .684-.268q.4 0 .683.268a.84.84 0 0 1 .286.642.85.85 0 0 1-.286.642.97.97 0 0 1-.683.263m6.09 1.006v1.293h-4.076v-1.293zm-3.07-1.699h1.671v6.657q0 .337.102.517.105.175.277.24.171.065.378.065.157 0 .286-.023.134-.023.204-.042l.281 1.307a4 4 0 0 1-.383.101 3 3 0 0 1-.6.065 2.7 2.7 0 0 1-1.131-.189 1.76 1.76 0 0 1-.799-.656q-.29-.443-.286-1.108zm5.506 11.449a3.4 3.4 0 0 1-.632-.055 2.4 2.4 0 0 1-.457-.12l.388-1.302q.365.106.65.101a.8.8 0 0 0 .504-.18q.22-.17.374-.572l.143-.383-2.572-7.239h1.773l1.634 5.355h.074l1.639-5.355h1.777l-2.839 7.95a3.2 3.2 0 0 1-.526.965q-.328.406-.803.618-.471.217-1.127.217m13.536-12.557-3.047 11.32h-1.464l3.047-11.32zm-76.825 19.043a1.26 1.26 0 0 0-.545-.942q-.476-.337-1.237-.337-.535 0-.919.161-.382.162-.586.439a1.07 1.07 0 0 0-.208.632q0 .296.134.513.138.217.374.369.235.148.522.249.285.102.577.171l.886.222q.535.124 1.03.337.498.212.89.535.397.324.628.781.231.456.231 1.071 0 .83-.425 1.463-.424.628-1.228.983-.798.351-1.934.351-1.103 0-1.916-.342-.807-.341-1.265-.997-.452-.655-.49-1.597h1.686q.036.494.305.822.267.327.697.489.433.162.97.162.558 0 .978-.167.425-.17.665-.47.24-.305.244-.711a.9.9 0 0 0-.217-.61 1.6 1.6 0 0 0-.595-.406 6 6 0 0 0-.887-.295l-1.075-.277q-1.168-.3-1.847-.91-.675-.613-.674-1.629 0-.836.453-1.464a3 3 0 0 1 1.241-.974q.785-.351 1.778-.351 1.005 0 1.763.351.762.346 1.196.965.435.614.448 1.413zm6.37 6.993q-1.068 0-1.843-.443a3 3 0 0 1-1.186-1.265q-.416-.82-.416-1.934 0-1.094.416-1.92.42-.831 1.172-1.293.752-.466 1.769-.466.655 0 1.237.212.585.208 1.034.646.453.439.71 1.118.26.673.26 1.606v.513H70.78v-1.127h4.21a1.8 1.8 0 0 0-.207-.854 1.5 1.5 0 0 0-.568-.595 1.6 1.6 0 0 0-.84-.217 1.63 1.63 0 0 0-.9.249q-.389.244-.605.646a1.86 1.86 0 0 0-.217.873v.983q0 .618.226 1.062.226.438.632.674.406.231.951.231.366 0 .66-.102.296-.107.513-.309.217-.204.328-.503l1.56.175a2.43 2.43 0 0 1-.563 1.08 2.74 2.74 0 0 1-1.053.711q-.641.249-1.468.249m9.298 2.521v-3.776h-.07q-.128.258-.373.549a2.1 2.1 0 0 1-.647.49q-.4.203-1.01.203a2.68 2.68 0 0 1-1.496-.43q-.66-.429-1.044-1.246-.383-.818-.383-1.985 0-1.182.388-1.995.393-.816 1.057-1.232.664-.42 1.482-.42.624 0 1.025.212.402.208.637.503.236.29.365.55h.101v-1.173h1.644v9.75zm-1.634-3.905q.53 0 .905-.287.374-.29.567-.808.194-.517.194-1.204 0-.689-.194-1.196a1.7 1.7 0 0 0-.563-.79q-.37-.28-.91-.281-.558 0-.932.291-.374.29-.563.803-.19.512-.19 1.173 0 .664.19 1.186.195.517.568.817.378.296.928.296m9.547-1.736v-4.109h1.67V211h-1.62v-1.26h-.073q-.24.595-.79.974-.544.378-1.343.378-.698 0-1.233-.309a2.15 2.15 0 0 1-.83-.909q-.3-.601-.3-1.45v-4.515h1.67v4.256q0 .675.37 1.072.369.397.969.397.37 0 .716-.181.346-.18.567-.535.227-.36.227-.9m6.528 3.12q-1.065 0-1.842-.443a3 3 0 0 1-1.186-1.265q-.415-.82-.415-1.934 0-1.094.415-1.92.42-.831 1.173-1.293.751-.466 1.768-.466.656 0 1.237.212.586.208 1.034.646.453.439.711 1.118.258.673.259 1.606v.513h-5.813v-1.127h4.21a1.8 1.8 0 0 0-.207-.854 1.5 1.5 0 0 0-.568-.595 1.6 1.6 0 0 0-.84-.217 1.63 1.63 0 0 0-.9.249q-.388.244-.605.646a1.86 1.86 0 0 0-.217.873v.983q0 .618.226 1.062.226.438.633.674.405.231.95.231.366 0 .66-.102.296-.107.513-.309.217-.204.328-.503l1.56.175a2.4 2.4 0 0 1-.563 1.08 2.74 2.74 0 0 1-1.052.711q-.642.249-1.469.249m6.239-4.293V211h-1.672v-7.091h1.598v1.205h.083q.244-.595.78-.946.54-.351 1.334-.351.734 0 1.279.314.549.314.849.909.305.596.3 1.445V211h-1.671v-4.256q0-.711-.369-1.113-.364-.402-1.011-.402-.44 0-.78.194-.337.19-.531.55-.189.36-.189.872m9.791-2.936v1.293h-4.076v-1.293zm-3.07-1.699h1.671v6.657q0 .337.102.517a.55.55 0 0 0 .277.24q.171.065.378.065.157 0 .287-.023.134-.023.203-.042l.281 1.307a4 4 0 0 1-.383.101 3 3 0 0 1-.6.065 2.7 2.7 0 0 1-1.131-.189 1.76 1.76 0 0 1-.799-.656q-.29-.443-.286-1.108zm4.468 8.79v-7.091h1.671V211zm.84-8.097a.97.97 0 0 1-.683-.263.85.85 0 0 1-.287-.642q0-.378.287-.642a.97.97 0 0 1 .683-.268q.402 0 .683.268a.84.84 0 0 1 .286.642.85.85 0 0 1-.286.642.97.97 0 0 1-.683.263m4.59 8.24q-.674 0-1.214-.24a2 2 0 0 1-.85-.72q-.309-.476-.309-1.173 0-.6.222-.992.221-.393.604-.628.384-.236.864-.356a7 7 0 0 1 1.001-.18 38 38 0 0 0 1.011-.115q.389-.055.564-.166.18-.116.18-.356v-.027q0-.522-.31-.808-.309-.286-.891-.286-.614 0-.974.267-.356.269-.48.633l-1.56-.222q.184-.646.609-1.08.425-.438 1.039-.656a4 4 0 0 1 1.357-.221q.513 0 1.02.12.508.12.928.397.42.272.674.743.26.47.259 1.177V211h-1.607v-.974h-.055a2 2 0 0 1-.429.554 2.1 2.1 0 0 1-.688.411 2.8 2.8 0 0 1-.965.152m.434-1.228q.503 0 .872-.198a1.47 1.47 0 0 0 .568-.536q.203-.332.203-.725v-.835a.8.8 0 0 1-.268.12 4 4 0 0 1-.415.097q-.23.04-.457.074l-.392.055a3 3 0 0 0-.67.166 1.1 1.1 0 0 0-.466.323.8.8 0 0 0-.171.527q0 .461.337.697t.859.235m6.661-8.37V211h-1.671v-9.455zm1.793 9.455v-9.455h3.619q1.025 0 1.703.324.684.318 1.021.872.34.554.341 1.256 0 .577-.221.988a1.86 1.86 0 0 1-.596.66 2.5 2.5 0 0 1-.835.365v.092q.503.027.964.309.467.277.762.785.296.508.296 1.228 0 .733-.356 1.32-.355.582-1.071.919t-1.8.337zm1.712-1.431h1.842q.933 0 1.344-.356.415-.36.415-.923 0-.42-.207-.757a1.43 1.43 0 0 0-.591-.535 1.96 1.96 0 0 0-.914-.199h-1.889zm0-4.003h1.695q.442 0 .798-.161.355-.166.559-.466.207-.306.208-.721 0-.549-.388-.904-.384-.356-1.14-.356h-1.732zm7.796 8.093a3.4 3.4 0 0 1-.632-.055 2.4 2.4 0 0 1-.457-.12l.388-1.302q.365.106.651.101a.8.8 0 0 0 .503-.18q.221-.17.374-.572l.143-.383-2.571-7.239h1.772l1.635 5.355h.073l1.639-5.355h1.778l-2.84 7.95a3.2 3.2 0 0 1-.526.965q-.327.406-.803.618-.47.217-1.127.217m14.974-7.386q0 1.528-.572 2.617-.568 1.085-1.552 1.662-.978.577-2.22.577t-2.225-.577q-.98-.582-1.551-1.666-.568-1.09-.568-2.613 0-1.529.568-2.613.572-1.09 1.551-1.667.983-.576 2.225-.577 1.242 0 2.22.577.984.577 1.552 1.667.572 1.084.572 2.613m-1.722 0q0-1.076-.337-1.815-.332-.743-.923-1.121a2.44 2.44 0 0 0-1.362-.384q-.771 0-1.362.384-.59.378-.928 1.121-.332.74-.332 1.815t.332 1.819q.337.738.928 1.121.591.38 1.362.379.771 0 1.362-.379.59-.383.923-1.121.337-.744.337-1.819m3.267 4.727v-7.091h1.621v1.182h.074q.193-.614.664-.946a1.83 1.83 0 0 1 1.085-.337q.14 0 .31.013.175.01.29.033v1.537a1.8 1.8 0 0 0-.337-.065 3 3 0 0 0-.438-.032q-.458 0-.822.199-.36.193-.568.54-.207.346-.207.798V211zm5.155 0v-7.091h1.671V211zm.84-8.097a.97.97 0 0 1-.683-.263.85.85 0 0 1-.287-.642q0-.378.287-.642a.97.97 0 0 1 .683-.268q.402 0 .683.268a.84.84 0 0 1 .286.642.85.85 0 0 1-.286.642.97.97 0 0 1-.683.263m5.633 10.904q-.9 0-1.546-.245-.646-.24-1.039-.646a2.24 2.24 0 0 1-.545-.9l1.505-.365q.102.207.296.411.194.207.521.341.332.14.836.139.71 0 1.177-.346.466-.342.466-1.127v-1.343h-.083a2.4 2.4 0 0 1-.378.531 1.9 1.9 0 0 1-.651.457q-.402.184-1.011.184a2.9 2.9 0 0 1-1.482-.383q-.66-.387-1.053-1.154-.388-.77-.388-1.93 0-1.167.388-1.971.393-.807 1.057-1.223.666-.42 1.482-.42.624 0 1.025.212.406.208.647.503.24.29.364.55h.093v-1.173h1.648v7.206q0 .91-.434 1.505-.435.595-1.187.891t-1.708.296m.014-4.22q.531 0 .905-.258.373-.259.568-.743.194-.485.194-1.164 0-.67-.194-1.172a1.7 1.7 0 0 0-.564-.781q-.369-.28-.909-.281-.558 0-.933.291-.374.291-.563.798a3.2 3.2 0 0 0-.189 1.145q0 .651.189 1.14.195.486.568.758.379.267.928.267m5.027 1.413v-7.091h1.672V211zm.841-8.097a.98.98 0 0 1-.684-.263.85.85 0 0 1-.286-.642.84.84 0 0 1 .286-.642.97.97 0 0 1 .684-.268q.4 0 .683.268a.84.84 0 0 1 .286.642.85.85 0 0 1-.286.642.97.97 0 0 1-.683.263m4.22 3.942V211h-1.671v-7.091h1.597v1.205h.083q.245-.595.781-.946.54-.351 1.334-.351.733 0 1.278.314.55.314.85.909.304.596.3 1.445V211h-1.671v-4.256q0-.711-.369-1.113-.366-.402-1.011-.402-.44 0-.781.194-.336.19-.531.55-.189.36-.189.872m8.291 4.298a3 3 0 0 1-1.214-.24 2 2 0 0 1-.849-.72q-.31-.476-.31-1.173 0-.6.222-.992.221-.393.605-.628.383-.236.863-.356a7 7 0 0 1 1.002-.18q.623-.064 1.011-.115.387-.055.563-.166.18-.116.18-.356v-.027q0-.522-.309-.808t-.891-.286q-.614 0-.974.267-.356.269-.48.633l-1.561-.222a2.5 2.5 0 0 1 .61-1.08 2.66 2.66 0 0 1 1.038-.656q.614-.22 1.358-.221.512 0 1.02.12.507.12.928.397.42.272.674.743.258.47.258 1.177V211h-1.606v-.974h-.056a2.02 2.02 0 0 1-1.117.965 2.8 2.8 0 0 1-.965.152m.434-1.228q.504 0 .873-.198.369-.203.568-.536.203-.332.203-.725v-.835a.8.8 0 0 1-.268.12 4 4 0 0 1-.415.097q-.231.04-.458.074l-.392.055a3 3 0 0 0-.669.166 1.1 1.1 0 0 0-.467.323.8.8 0 0 0-.17.527q0 .461.337.697t.858.235m8.532-6.006v1.293h-4.077v-1.293zm-3.07-1.699h1.671v6.657q0 .337.101.517a.55.55 0 0 0 .277.24q.17.065.379.065.156 0 .286-.023.134-.023.203-.042l.282 1.307a4 4 0 0 1-.383.101 3 3 0 0 1-.601.065 2.7 2.7 0 0 1-1.131-.189 1.76 1.76 0 0 1-.798-.656q-.29-.443-.286-1.108zm7.484 8.928q-1.039 0-1.8-.457a3.1 3.1 0 0 1-1.182-1.278q-.416-.822-.416-1.921 0-1.098.416-1.925a3.1 3.1 0 0 1 1.182-1.283q.761-.457 1.8-.457t1.8.457q.762.456 1.178 1.283.42.827.42 1.925 0 1.1-.42 1.921-.416.822-1.178 1.278-.76.457-1.8.457m.009-1.338q.564 0 .942-.31.378-.313.563-.84a3.5 3.5 0 0 0 .19-1.172 3.5 3.5 0 0 0-.19-1.178 1.86 1.86 0 0 0-.563-.844q-.378-.315-.942-.314-.577 0-.96.314-.379.313-.568.844a3.6 3.6 0 0 0-.184 1.178q0 .645.184 1.172.19.527.568.84.383.31.96.31m4.807 1.2v-7.091h1.621v1.182h.073q.194-.614.665-.946a1.83 1.83 0 0 1 1.085-.337q.139 0 .309.013.175.01.291.033v1.537a2 2 0 0 0-.337-.065 3 3 0 0 0-.438-.032q-.458 0-.822.199-.36.193-.568.54-.208.346-.208.798V211z"/><rect width="163" height="55" x="278.5" y="14.5" fill="#d6e7e5" rx="9.5"/><rect width="163" height="55" x="278.5" y="14.5" stroke="#00695c" rx="9.5"/><rect width="30" height="30" x="290" y="27" fill="#00695c" rx="4"/><path fill="#fff" d="M307.101 35.852a.917.917 0 0 1 1.297 0l5.5 5.5a.916.916 0 0 1 0 1.296l-5.5 5.5a.917.917 0 0 1-1.297-1.296L311.953 42l-4.852-4.852a.92.92 0 0 1 0-1.296M301.601 35.852a.917.917 0 0 1 1.297 1.296L298.046 42l4.852 4.852a.916.916 0 1 1-1.297 1.296l-5.5-5.5a.92.92 0 0 1 0-1.296z"/><path fill="#fff" d="M301.343 41.083a.916.916 0 0 1 0 1.834h-.009a.916.916 0 1 1 0-1.834zm3.666 0a.916.916 0 1 1 0 1.834H305a.916.916 0 0 1 0-1.834zm3.667 0a.917.917 0 0 1 0 1.834h-.009a.917.917 0 0 1 0-1.834z"/><path fill="#17181c" d="M325.933 39v-9.454h3.545q1.09 0 1.828.378.744.378 1.122 1.062.383.678.383 1.583 0 .91-.388 1.58a2.56 2.56 0 0 1-1.131 1.029q-.748.36-1.837.36h-2.525v-1.422h2.294q.638 0 1.043-.176.406-.18.601-.521.198-.346.198-.85 0-.503-.198-.858a1.26 1.26 0 0 0-.605-.545q-.406-.19-1.048-.19h-1.57V39zm4.884-4.284 2.34 4.284h-1.911l-2.299-4.284zm8.016 1.302v-4.109h1.671V39h-1.62v-1.26h-.074q-.24.595-.789.974-.545.378-1.344.378a2.4 2.4 0 0 1-1.232-.309 2.15 2.15 0 0 1-.831-.91q-.3-.6-.3-1.449v-4.515h1.671v4.257q0 .674.369 1.07.37.398.97.398.369 0 .715-.18.346-.181.568-.536.226-.36.226-.9m5.061-6.472V39h-1.671v-9.454zm4.858 9.593q-1.067 0-1.842-.444a3 3 0 0 1-1.187-1.265q-.415-.82-.415-1.934 0-1.095.415-1.92a3.14 3.14 0 0 1 1.173-1.293q.753-.465 1.768-.466.655 0 1.237.212a2.8 2.8 0 0 1 1.034.646q.453.439.711 1.118.26.674.259 1.606v.513h-5.812v-1.127h4.21a1.8 1.8 0 0 0-.208-.854 1.5 1.5 0 0 0-.568-.595 1.6 1.6 0 0 0-.84-.217q-.512 0-.9.249-.388.244-.605.646a1.87 1.87 0 0 0-.217.873v.983q0 .618.226 1.062.227.438.633.674.406.23.951.23.365 0 .66-.1.296-.108.512-.31.217-.203.328-.503l1.561.175a2.44 2.44 0 0 1-.564 1.08 2.74 2.74 0 0 1-1.052.711q-.642.25-1.468.25m7.865-.139v-9.454h6.149v1.435h-4.436v2.567h4.118v1.436h-4.118v2.58h4.473V39zm9.494-4.155V39h-1.671v-7.09h1.597v1.204h.083q.245-.595.78-.946.54-.351 1.334-.351.735 0 1.279.314.55.313.85.91.304.594.3 1.444V39h-1.671v-4.256q0-.711-.37-1.113-.364-.402-1.011-.402-.438 0-.78.194a1.34 1.34 0 0 0-.531.55q-.189.36-.189.872m9.334 6.962q-.9 0-1.546-.245-.646-.24-1.039-.646a2.25 2.25 0 0 1-.545-.9l1.505-.365q.102.207.296.41.194.21.522.342.332.14.835.139.71 0 1.177-.346.467-.342.467-1.127v-1.343h-.084q-.129.259-.378.53-.245.273-.651.458-.402.184-1.011.184a2.9 2.9 0 0 1-1.482-.383q-.66-.387-1.052-1.154-.388-.77-.388-1.93 0-1.167.388-1.97.392-.81 1.057-1.224.664-.42 1.482-.42.623 0 1.024.212.407.208.647.503.24.29.364.55h.093v-1.173h1.648v7.206q0 .91-.434 1.505a2.6 2.6 0 0 1-1.187.891q-.752.296-1.708.296m.014-4.22q.531 0 .905-.258t.568-.743.194-1.164q0-.67-.194-1.172a1.67 1.67 0 0 0-.563-.78q-.37-.282-.91-.282-.558 0-.932.29-.375.291-.563.8-.19.502-.19 1.144 0 .651.19 1.14.194.486.567.758.38.267.928.267M380.487 39v-7.09h1.671V39zm.84-8.097a.97.97 0 0 1-.683-.263.85.85 0 0 1-.287-.642q0-.379.287-.642a.96.96 0 0 1 .683-.268q.401 0 .683.268.286.264.286.642 0 .374-.286.642a.96.96 0 0 1-.683.263m4.22 3.942V39h-1.671v-7.09h1.598v1.204h.083q.245-.595.78-.946.54-.351 1.334-.351.734 0 1.279.314.549.313.849.91.305.594.3 1.444V39h-1.671v-4.256q0-.711-.369-1.113-.364-.402-1.011-.402-.44 0-.78.194a1.34 1.34 0 0 0-.531.55q-.19.36-.19.872m9.39 4.294q-1.067 0-1.842-.444a3 3 0 0 1-1.186-1.265q-.416-.82-.416-1.934 0-1.095.416-1.92.42-.831 1.172-1.293.753-.465 1.769-.466.655 0 1.237.212.586.208 1.034.646.453.439.711 1.118.258.674.258 1.606v.513h-5.812v-1.127h4.21a1.8 1.8 0 0 0-.207-.854 1.5 1.5 0 0 0-.568-.595 1.6 1.6 0 0 0-.84-.217 1.63 1.63 0 0 0-.901.249q-.387.244-.604.646a1.85 1.85 0 0 0-.217.873v.983q0 .618.226 1.062.227.438.632.674.407.23.951.23.366 0 .661-.1.295-.108.512-.31.217-.203.328-.503l1.56.175a2.4 2.4 0 0 1-.563 1.08 2.75 2.75 0 0 1-1.053.711q-.641.25-1.468.25m5.597-.037a1 1 0 0 1-.721-.296.96.96 0 0 1-.295-.72.95.95 0 0 1 .295-.711 1 1 0 0 1 .721-.295q.405 0 .706.295a.97.97 0 0 1 .162 1.223 1.1 1.1 0 0 1-.37.37.96.96 0 0 1-.498.134m0-5.06a1 1 0 0 1-.721-.296.97.97 0 0 1-.295-.72.95.95 0 0 1 .295-.71q.301-.3.721-.3.405 0 .706.3a.97.97 0 0 1 .309.71 1 1 0 0 1-.147.508 1.07 1.07 0 0 1-.37.37.94.94 0 0 1-.498.138m-66.509 14.693h-1.726a2.2 2.2 0 0 0-.273-.752 2.02 2.02 0 0 0-1.168-.91 2.6 2.6 0 0 0-.808-.12q-.77 0-1.366.388-.596.384-.933 1.127-.337.738-.337 1.805 0 1.084.337 1.828.342.739.933 1.117.595.374 1.362.374.425 0 .794-.11.374-.117.669-.338.3-.222.503-.545a2.1 2.1 0 0 0 .287-.738l1.726.009q-.096.675-.42 1.265a3.7 3.7 0 0 1-.835 1.043 3.9 3.9 0 0 1-1.21.702q-.693.25-1.537.25-1.247 0-2.225-.578-.98-.577-1.542-1.666-.564-1.09-.564-2.613 0-1.529.568-2.613.568-1.09 1.547-1.667.978-.577 2.216-.577.789 0 1.468.222.678.221 1.209.65.531.426.873 1.044.346.614.452 1.403m4.588 6.404q-1.04 0-1.801-.458a3.1 3.1 0 0 1-1.181-1.278q-.416-.822-.416-1.92 0-1.1.416-1.926a3.1 3.1 0 0 1 1.181-1.283q.762-.457 1.801-.457t1.8.457 1.177 1.283q.421.827.421 1.925 0 1.1-.421 1.92a3.07 3.07 0 0 1-1.177 1.28q-.762.456-1.8.456m.009-1.34q.563 0 .942-.309.378-.313.563-.84a3.5 3.5 0 0 0 .189-1.172q0-.651-.189-1.178a1.87 1.87 0 0 0-.563-.844q-.379-.315-.942-.314-.578 0-.96.314-.38.313-.568.844-.185.527-.185 1.178 0 .645.185 1.172.189.526.568.84.382.31.96.31m6.478-2.954V55h-1.671v-7.09h1.597v1.204h.083q.245-.595.781-.946.54-.351 1.334-.351.733 0 1.278.314.55.313.85.91.304.594.3 1.444V55h-1.671v-4.256q0-.711-.369-1.113-.366-.402-1.012-.402-.438 0-.78.194-.336.19-.531.55-.189.36-.189.872m11.855-1.062-1.523.167a1.2 1.2 0 0 0-.226-.434 1.1 1.1 0 0 0-.425-.328 1.55 1.55 0 0 0-.656-.125q-.521 0-.877.226-.35.227-.346.587a.61.61 0 0 0 .226.503q.236.194.776.318l1.209.259q1.007.217 1.496.688.494.471.499 1.232-.004.67-.393 1.182-.383.508-1.066.794-.684.287-1.57.287-1.301 0-2.096-.545-.794-.55-.946-1.528l1.63-.157q.11.48.47.724.36.245.938.245.595 0 .955-.245.365-.244.365-.604a.63.63 0 0 0-.236-.503q-.23-.199-.72-.305l-1.209-.254q-1.02-.213-1.51-.716-.49-.507-.485-1.283a1.82 1.82 0 0 1 .356-1.136q.364-.484 1.011-.748.651-.267 1.5-.267 1.247 0 1.962.53.72.532.891 1.436m6.05 2.235v-4.109h1.671V55h-1.62v-1.26h-.074q-.24.595-.789.974-.545.378-1.344.378a2.4 2.4 0 0 1-1.232-.309 2.15 2.15 0 0 1-.831-.91q-.3-.6-.3-1.449v-4.515h1.671v4.257q0 .674.369 1.07.369.398.97.398.369 0 .715-.18.346-.181.568-.536.226-.36.226-.9m3.39 2.982v-7.09h1.597v1.204h.083q.222-.609.734-.951.513-.346 1.224-.346.72 0 1.214.35.498.347.701.947h.074a1.94 1.94 0 0 1 .794-.942q.564-.355 1.334-.355.979 0 1.598.618.618.619.618 1.805V55h-1.675v-4.501q0-.66-.351-.965a1.25 1.25 0 0 0-.859-.31q-.605 0-.946.38-.337.373-.337.973V55h-1.639v-4.57q0-.55-.333-.877-.327-.328-.858-.328-.36 0-.656.184a1.3 1.3 0 0 0-.471.513 1.6 1.6 0 0 0-.175.766V55zm14.806.139q-1.067 0-1.842-.444a3 3 0 0 1-1.186-1.265q-.416-.82-.416-1.934 0-1.095.416-1.92.42-.831 1.172-1.293.753-.466 1.768-.466.656 0 1.237.212.587.208 1.035.646.452.439.711 1.118.258.674.258 1.606v.513h-5.812v-1.127h4.21a1.8 1.8 0 0 0-.208-.854 1.5 1.5 0 0 0-.567-.595 1.6 1.6 0 0 0-.841-.217 1.63 1.63 0 0 0-.9.249q-.387.244-.605.646a1.87 1.87 0 0 0-.217.873v.983q0 .618.227 1.062.225.438.632.674.406.23.951.23.365 0 .66-.1a1.5 1.5 0 0 0 .513-.31q.217-.204.327-.503l1.561.175a2.44 2.44 0 0 1-.563 1.08 2.75 2.75 0 0 1-1.053.711q-.642.25-1.468.25m4.567-.139v-7.09h1.62v1.18h.074q.194-.612.665-.946a1.83 1.83 0 0 1 1.085-.337q.138 0 .309.014.175.01.291.033v1.537a1.8 1.8 0 0 0-.337-.065 3 3 0 0 0-.439-.032 1.7 1.7 0 0 0-.821.199q-.36.193-.568.54-.208.346-.208.798V55z"/><rect width="163" height="55" x="521.5" y="14.5" fill="#fff" rx="9.5"/><rect width="163" height="55" x="521.5" y="14.5" stroke="#00695c" rx="9.5"/><rect width="30" height="30" x="533" y="27" fill="#d6e7e5" rx="4"/><path fill="#00423a" d="M550.101 35.852a.917.917 0 0 1 1.297 0l5.5 5.5a.916.916 0 0 1 0 1.296l-5.5 5.5a.917.917 0 0 1-1.297-1.296L554.953 42l-4.852-4.852a.92.92 0 0 1 0-1.296M544.601 35.852a.917.917 0 0 1 1.297 1.296L541.046 42l4.852 4.852a.916.916 0 1 1-1.297 1.296l-5.5-5.5a.92.92 0 0 1 0-1.296z"/><path fill="#00423a" d="M544.343 41.083a.916.916 0 0 1 0 1.834h-.009a.916.916 0 1 1 0-1.834zm3.666 0a.916.916 0 1 1 0 1.834H548a.916.916 0 0 1 0-1.834zm3.667 0a.917.917 0 0 1 0 1.834h-.009a.917.917 0 0 1 0-1.834z"/><path fill="#17181c" d="M568.933 47v-9.455h3.545q1.09 0 1.828.379.744.378 1.122 1.062.383.678.383 1.583 0 .91-.388 1.58a2.56 2.56 0 0 1-1.131 1.029q-.747.36-1.837.36h-2.525v-1.422h2.294q.638 0 1.043-.176.406-.18.601-.521.198-.346.198-.85 0-.503-.198-.858a1.26 1.26 0 0 0-.605-.545q-.406-.19-1.048-.19h-1.57V47zm4.884-4.284 2.34 4.284h-1.911l-2.299-4.284zm8.016 1.302v-4.109h1.671V47h-1.62v-1.26h-.074q-.24.595-.789.974-.545.378-1.344.378a2.4 2.4 0 0 1-1.232-.309 2.15 2.15 0 0 1-.831-.91q-.3-.6-.3-1.449v-4.515h1.671v4.257q0 .674.369 1.07.37.398.97.398.369 0 .715-.18.346-.181.568-.536.226-.36.226-.9m5.061-6.473V47h-1.671v-9.455zm4.858 9.593q-1.067 0-1.842-.443a3 3 0 0 1-1.187-1.265q-.415-.82-.415-1.934 0-1.095.415-1.92a3.14 3.14 0 0 1 1.173-1.293q.753-.466 1.768-.466.655 0 1.237.212a2.8 2.8 0 0 1 1.034.646q.453.439.711 1.118.26.674.259 1.606v.513h-5.812v-1.127h4.21a1.8 1.8 0 0 0-.208-.854 1.5 1.5 0 0 0-.568-.595 1.6 1.6 0 0 0-.84-.217q-.512 0-.9.249-.388.244-.605.646a1.87 1.87 0 0 0-.217.873v.983q0 .618.226 1.062.226.438.633.674.406.23.951.23.365 0 .66-.1.296-.108.512-.31.217-.204.328-.503l1.561.175a2.44 2.44 0 0 1-.564 1.08 2.74 2.74 0 0 1-1.052.711q-.642.25-1.468.25m15.958-6.403h-1.727a2.2 2.2 0 0 0-.272-.752 2.02 2.02 0 0 0-1.168-.91 2.6 2.6 0 0 0-.808-.12q-.77 0-1.366.388-.596.384-.933 1.127-.337.738-.337 1.805 0 1.084.337 1.828.342.739.933 1.117.595.374 1.361.374.425 0 .794-.11.375-.117.67-.338.3-.222.503-.545a2.1 2.1 0 0 0 .286-.738l1.727.009q-.098.675-.42 1.265a3.7 3.7 0 0 1-.836 1.043 3.9 3.9 0 0 1-1.209.702q-.692.25-1.538.25-1.246 0-2.225-.578-.978-.577-1.542-1.666-.563-1.09-.563-2.613 0-1.529.568-2.613.568-1.09 1.546-1.667t2.216-.577q.79 0 1.468.222.68.221 1.21.65.531.426.872 1.044.346.614.453 1.403m3.166 2.11V47h-1.672v-9.455h1.635v3.569h.083q.249-.6.771-.946.527-.351 1.338-.351.74 0 1.288.31.55.308.85.904.305.596.305 1.454V47h-1.672v-4.256q0-.715-.369-1.113-.365-.402-1.025-.402-.443 0-.794.194a1.36 1.36 0 0 0-.545.55q-.193.36-.193.872m8.342 4.298q-.675 0-1.215-.24a2 2 0 0 1-.849-.72q-.309-.475-.309-1.173 0-.6.221-.992.222-.393.605-.628.383-.236.863-.356a7 7 0 0 1 1.002-.18q.624-.064 1.011-.115.388-.055.563-.166.18-.116.18-.356v-.027q0-.522-.309-.808t-.891-.286q-.614 0-.974.267-.356.268-.48.633l-1.561-.222q.186-.645.61-1.08.424-.439 1.039-.656a4 4 0 0 1 1.357-.221q.511 0 1.02.12.508.12.928.397.42.272.674.743.258.47.258 1.177V47h-1.606v-.974h-.055a2 2 0 0 1-.43.554 2.1 2.1 0 0 1-.688.41 2.8 2.8 0 0 1-.964.153m.433-1.228q.504 0 .873-.198.369-.204.568-.536.203-.332.203-.725v-.835a.8.8 0 0 1-.268.12q-.184.055-.415.097a13 13 0 0 1-.457.074l-.393.055q-.373.051-.669.166a1.1 1.1 0 0 0-.466.323.8.8 0 0 0-.171.527q0 .461.337.697t.858.235M624.642 47v-7.09h1.671V47zm.84-8.097a.97.97 0 0 1-.683-.263.85.85 0 0 1-.286-.642q0-.378.286-.642a.97.97 0 0 1 .683-.268q.402 0 .683.268.287.264.287.642 0 .374-.287.642a.96.96 0 0 1-.683.263m4.221 3.942V47h-1.671v-7.09h1.597v1.204h.083q.245-.595.78-.946.54-.351 1.334-.351.735 0 1.279.314.549.313.849.91.306.594.301 1.444V47h-1.672v-4.256q0-.711-.369-1.113-.365-.402-1.011-.402-.438 0-.78.194a1.34 1.34 0 0 0-.531.55q-.189.36-.189.872"/><path fill="#3d50f5" d="M275.28 42.53a.75.75 0 0 0 0-1.06l-4.773-4.773a.75.75 0 1 0-1.06 1.06L273.689 42l-4.242 4.243a.75.75 0 0 0 1.06 1.06zm-20.271-1.28a.75.75 0 0 0 0 1.5v-1.5m-31.875 1.5a.75.75 0 0 0 0-1.5v1.5m-20.884-1.5a.75.75 0 0 0 0 1.5v-1.5m72.5.75v-.75h-19.741v1.5h19.741zm-51.616 0v-.75H202.25v1.5h20.884z"/><path fill="#23262f" d="M229.828 46v-8.727h3.111q1.018 0 1.687.37.67.372 1.001 1.015.333.639.333 1.44 0 .806-.337 1.449a2.43 2.43 0 0 1-1.006 1.014q-.669.37-1.683.37h-2.139v-1.116h2.02q.643 0 1.044-.221.4-.225.588-.614.188-.387.188-.882t-.188-.878a1.34 1.34 0 0 0-.592-.6q-.401-.218-1.057-.218h-1.654V46zm10.116.132q-.92 0-1.606-.422a2.84 2.84 0 0 1-1.066-1.18q-.379-.759-.379-1.773 0-1.019.379-1.781a2.84 2.84 0 0 1 1.066-1.185q.686-.422 1.606-.422t1.607.422q.685.421 1.065 1.185.38.762.379 1.781 0 1.014-.379 1.773-.38.758-1.065 1.18-.686.422-1.607.422m.005-1.07q.596 0 .988-.315.393-.315.58-.84.192-.524.191-1.154 0-.627-.191-1.15a1.87 1.87 0 0 0-.58-.849q-.392-.32-.988-.32-.601 0-.998.32a1.9 1.9 0 0 0-.583.848q-.188.525-.188 1.15 0 .631.188 1.156.191.524.583.84.397.315.998.315m5.611-7.79V46h-1.274v-8.727zm2.856 0V46h-1.274v-8.727z"/><path fill="#3d50f5" d="M117.53 72.72a.75.75 0 0 0-1.06 0l-4.773 4.773a.75.75 0 0 0 1.06 1.06L117 74.311l4.243 4.242a.75.75 0 1 0 1.06-1.06zm-1.28 23.105a.75.75 0 0 0 1.5 0h-1.5m1.5 46.875a.75.75 0 0 0-1.5 0h1.5m-1.5 24.05a.75.75 0 0 0 1.5 0h-1.5m0-85.975a.75.75 0 0 0 1.5 0h-1.5m1.5 7.525a.75.75 0 0 0-1.5 0h1.5m-1.5 59.21a.75.75 0 1 0 1.5 0h-1.5m1.5 4.81a.75.75 0 0 0-1.5 0h1.5m-1.5 4.81a.75.75 0 0 0 1.5 0h-1.5m1.5 4.81a.75.75 0 0 0-1.5 0h1.5M117 73.25h-.75v7.525h1.5V73.25zm0 15.05h-.75v7.525h1.5V88.3zm0 54.4h-.75v4.81h1.5v-4.81zm0 9.62h-.75v4.81h1.5v-4.81zm0 9.62h-.75v4.81h1.5v-4.81z"/><path fill="#23262f" d="M57.123 108.374h-1.33a2.03 2.03 0 0 0-.796-1.3 2.2 2.2 0 0 0-.678-.341 2.6 2.6 0 0 0-.788-.115q-.754 0-1.351.379-.593.38-.938 1.113-.34.732-.34 1.789 0 1.066.34 1.799.345.733.942 1.108.596.375 1.343.375.412 0 .784-.111.375-.115.677-.337t.511-.541q.214-.324.294-.742l1.33.005a3.6 3.6 0 0 1-.413 1.184 3.3 3.3 0 0 1-.78.929 3.5 3.5 0 0 1-1.083.601q-.609.213-1.329.213-1.134 0-2.02-.537-.886-.54-1.398-1.547-.507-1.005-.507-2.399 0-1.397.512-2.399.51-1.006 1.397-1.542.887-.542 2.016-.542.695 0 1.295.201.606.195 1.087.579.482.38.797.929.315.546.426 1.249m2.616 2.003v3.886h-1.274v-8.727h1.257v3.247h.08q.23-.528.704-.84.473-.31 1.235-.311.674 0 1.177.277.507.277.784.827.28.546.28 1.364v4.163H62.71v-4.01q0-.72-.371-1.116-.37-.401-1.031-.401-.452 0-.81.192a1.4 1.4 0 0 0-.558.562q-.2.367-.2.887m8.633 4.018q-.967 0-1.666-.413a2.8 2.8 0 0 1-1.074-1.172q-.375-.759-.375-1.777 0-1.007.375-1.773.38-.766 1.057-1.197.682-.43 1.594-.431.554 0 1.074.183.519.184.933.576.413.392.652 1.018.239.622.239 1.513v.452h-5.204v-.955h3.955q0-.503-.205-.89a1.54 1.54 0 0 0-.575-.618 1.6 1.6 0 0 0-.86-.226q-.538 0-.938.264a1.8 1.8 0 0 0-.614.682 2 2 0 0 0-.213.908v.745q0 .657.23 1.117.234.46.652.703.418.238.976.238.362 0 .66-.102.3-.106.516-.315.218-.209.332-.516l1.207.218q-.145.532-.52.933-.372.396-.934.618a3.5 3.5 0 0 1-1.274.217m6.847 0q-.95 0-1.636-.43a2.85 2.85 0 0 1-1.048-1.198q-.367-.762-.367-1.747 0-.997.375-1.76.375-.766 1.057-1.197.682-.43 1.607-.431.745 0 1.329.277.584.273.942.767.362.495.43 1.155h-1.24a1.5 1.5 0 0 0-.469-.792q-.362-.333-.971-.333-.532 0-.933.281a1.8 1.8 0 0 0-.618.793q-.222.511-.222 1.21 0 .715.217 1.236.218.52.614.805.4.286.942.286.362 0 .656-.132.298-.136.499-.388.204-.252.285-.605h1.24a2.4 2.4 0 0 1-.413 1.133 2.4 2.4 0 0 1-.925.785q-.575.285-1.35.285m5.092-2.352-.009-1.556h.222l2.608-2.77h1.525l-2.974 3.154h-.2zm-1.172 2.22v-8.727h1.274v8.727zm4.133 0-2.344-3.111.878-.89 3.03 4.001zm2.414 2.454v-9h1.245v1.062h.106q.11-.205.32-.473.209-.269.58-.469.37-.205.98-.205.792 0 1.414.401.622.4.976 1.155.358.754.358 1.815t-.354 1.82q-.353.753-.971 1.163-.618.405-1.41.405-.597 0-.977-.201a1.8 1.8 0 0 1-.588-.468 3.5 3.5 0 0 1-.328-.478h-.076v3.473zm1.249-5.727q0 .69.2 1.21t.58.814q.379.29.929.29.57 0 .954-.302.385-.308.58-.831.2-.524.2-1.181 0-.648-.196-1.163a1.8 1.8 0 0 0-.58-.814q-.383-.298-.958-.298-.555 0-.938.285a1.75 1.75 0 0 0-.575.797q-.196.512-.196 1.193m8.783 3.405q-.921 0-1.607-.422a2.85 2.85 0 0 1-1.065-1.18q-.38-.759-.38-1.773 0-1.019.38-1.781a2.84 2.84 0 0 1 1.065-1.185q.686-.422 1.607-.422t1.606.422 1.066 1.185q.378.762.379 1.781 0 1.014-.38 1.773a2.85 2.85 0 0 1-1.065 1.18q-.686.422-1.606.422m.004-1.07q.597 0 .989-.315.391-.315.58-.839.19-.525.191-1.155a3.3 3.3 0 0 0-.192-1.151 1.9 1.9 0 0 0-.58-.848q-.39-.32-.988-.319-.6 0-.997.319a1.9 1.9 0 0 0-.584.848q-.187.525-.187 1.151 0 .63.187 1.155.192.524.584.839.396.315.997.315m4.337.938v-6.546h1.274v6.546zm.644-7.555a.8.8 0 0 1-.571-.222.72.72 0 0 1-.235-.537q0-.315.235-.537a.8.8 0 0 1 .571-.226q.332 0 .566.226a.7.7 0 0 1 .239.537q0 .31-.239.537a.8.8 0 0 1-.566.222m3.487 3.669v3.886h-1.275v-6.546h1.223v1.066h.081q.226-.52.708-.835.485-.316 1.223-.316.668 0 1.172.282.502.276.78.826.276.55.277 1.36v4.163h-1.275v-4.01q0-.711-.37-1.112-.371-.405-1.019-.405-.443 0-.788.192a1.4 1.4 0 0 0-.541.562q-.196.367-.196.887m8.821-2.66v1.023h-3.576v-1.023zm-2.617-1.568h1.274v6.192q0 .37.111.558a.58.58 0 0 0 .286.252q.179.064.387.064.154 0 .269-.022l.179-.034.23 1.053a2.534 2.534 0 0 1-.827.136 2.2 2.2 0 0 1-.937-.179 1.6 1.6 0 0 1-.703-.579q-.269-.393-.269-.985zm8.212 4.228v3.886h-1.274v-6.546h1.223v1.066h.081q.225-.52.707-.835.486-.316 1.223-.316.67 0 1.172.282.502.276.78.826.277.55.277 1.36v4.163h-1.274v-4.01q0-.711-.371-1.112-.371-.405-1.018-.405-.444 0-.789.192a1.4 1.4 0 0 0-.541.562q-.196.367-.196.887m8.523 4.018q-.92 0-1.607-.422a2.85 2.85 0 0 1-1.065-1.18q-.38-.759-.379-1.773 0-1.019.379-1.781a2.84 2.84 0 0 1 1.065-1.185q.686-.422 1.607-.422t1.606.422q.687.421 1.066 1.185.38.762.379 1.781 0 1.014-.379 1.773a2.85 2.85 0 0 1-1.066 1.18q-.685.422-1.606.422m.004-1.07q.597 0 .989-.315t.579-.839a3.3 3.3 0 0 0 .192-1.155q0-.627-.192-1.151a1.9 1.9 0 0 0-.579-.848q-.392-.32-.989-.319-.6 0-.997.319a1.9 1.9 0 0 0-.584.848q-.187.525-.187 1.151 0 .63.187 1.155.192.524.584.839.397.315.997.315m6.788 1.066q-.793 0-1.415-.405-.618-.41-.972-1.163-.35-.76-.349-1.82 0-1.061.353-1.815.358-.755.981-1.155a2.55 2.55 0 0 1 1.41-.401q.61 0 .98.205.375.2.58.469.209.268.324.473h.076v-3.243h1.274v8.727h-1.244v-1.019h-.106q-.115.21-.333.478a1.8 1.8 0 0 1-.588.468q-.375.201-.971.201m.281-1.087q.55 0 .929-.29a1.8 1.8 0 0 0 .579-.814q.201-.52.201-1.21a3.3 3.3 0 0 0-.196-1.193 1.75 1.75 0 0 0-.576-.797q-.38-.285-.937-.285-.575 0-.959.298t-.58.814a3.3 3.3 0 0 0-.191 1.163q0 .656.196 1.181.196.524.579.831.388.302.955.302m7.469 1.091q-.967 0-1.666-.413a2.8 2.8 0 0 1-1.074-1.172q-.375-.759-.375-1.777 0-1.007.375-1.773.38-.766 1.057-1.197.681-.43 1.594-.431.554 0 1.073.183.52.184.934.576.413.392.652 1.018.238.622.238 1.513v.452h-5.203v-.955h3.955a1.9 1.9 0 0 0-.205-.89 1.54 1.54 0 0 0-.575-.618 1.6 1.6 0 0 0-.861-.226q-.537 0-.937.264a1.77 1.77 0 0 0-.614.682 2 2 0 0 0-.213.908v.745q0 .657.23 1.117.234.46.652.703.418.238.976.238.362 0 .66-.102a1.356 1.356 0 0 0 .848-.831l1.206.218q-.145.532-.52.933-.37.396-.933.618a3.5 3.5 0 0 1-1.274.217m7.134-.132v-6.546h1.223v1.066h.081q.204-.541.669-.844.464-.306 1.112-.307.656 0 1.099.307.448.307.661.844h.068q.234-.525.746-.835.511-.316 1.219-.316.89 0 1.453.558.566.56.566 1.684v4.389h-1.274v-4.27q0-.665-.362-.963a1.32 1.32 0 0 0-.865-.298q-.622 0-.967.383-.345.38-.345.976v4.172h-1.27v-4.351q0-.533-.333-.856-.332-.324-.865-.324-.361 0-.669.191-.302.188-.49.525a1.6 1.6 0 0 0-.183.779v4.036zm13.23.132q-.92 0-1.606-.422a2.85 2.85 0 0 1-1.066-1.18q-.379-.759-.379-1.773 0-1.019.379-1.781a2.83 2.83 0 0 1 1.066-1.185q.686-.422 1.606-.422t1.607.422q.685.421 1.065 1.185.38.762.379 1.781 0 1.014-.379 1.773a2.85 2.85 0 0 1-1.065 1.18q-.686.422-1.607.422m.005-1.07q.596 0 .988-.315.393-.315.58-.839a3.3 3.3 0 0 0 .192-1.155q0-.627-.192-1.151a1.87 1.87 0 0 0-.58-.848q-.392-.32-.988-.319-.601 0-.998.319a1.9 1.9 0 0 0-.583.848q-.188.525-.188 1.151 0 .63.188 1.155.191.524.583.839.397.315.998.315m9.713-5.608-2.373 6.546h-1.364l-2.378-6.546h1.368l1.658 5.037h.068l1.654-5.037zm3.664 6.678q-.967 0-1.666-.413a2.8 2.8 0 0 1-1.074-1.172q-.375-.759-.375-1.777 0-1.007.375-1.773.38-.766 1.057-1.197.682-.43 1.594-.431.553 0 1.074.183.519.184.933.576.413.392.652 1.018.239.622.239 1.513v.452h-5.204v-.955h3.955a1.9 1.9 0 0 0-.205-.89 1.54 1.54 0 0 0-.575-.618 1.6 1.6 0 0 0-.861-.226q-.537 0-.937.264a1.8 1.8 0 0 0-.614.682 2 2 0 0 0-.213.908v.745q0 .657.23 1.117.235.46.652.703.418.238.976.238.363 0 .661-.102.297-.106.515-.315a1.4 1.4 0 0 0 .333-.516l1.206.218q-.145.532-.52.933-.371.396-.934.618a3.5 3.5 0 0 1-1.274.217m8.995-5.08-1.155.205a1.4 1.4 0 0 0-.23-.422 1.14 1.14 0 0 0-.417-.328 1.5 1.5 0 0 0-.661-.128q-.541 0-.903.243-.363.239-.363.618a.65.65 0 0 0 .243.528q.244.2.784.329l1.04.238q.903.209 1.347.644.443.434.443 1.129 0 .588-.341 1.048-.336.456-.942.716-.6.26-1.393.26-1.1 0-1.794-.469-.694-.472-.853-1.342l1.232-.188q.115.481.473.729.358.243.933.243.627 0 1.002-.26.375-.264.375-.643a.67.67 0 0 0-.23-.516q-.227-.209-.695-.315l-1.108-.243q-.917-.209-1.355-.665-.435-.456-.435-1.155 0-.579.324-1.014t.895-.678a3.3 3.3 0 0 1 1.308-.247q1.061 0 1.671.46.609.456.805 1.223M35.679 132.263v-6.546h1.224v1.066h.08q.205-.541.67-.844.464-.306 1.112-.307.656 0 1.1.307.446.307.66.844h.068q.234-.525.746-.835.51-.316 1.218-.316.89 0 1.453.558.567.56.567 1.684v4.389h-1.274v-4.27q0-.665-.362-.963a1.32 1.32 0 0 0-.865-.298q-.622 0-.968.383-.345.38-.345.976v4.172h-1.27v-4.351q0-.533-.332-.856-.332-.324-.865-.324-.363 0-.669.191-.303.188-.49.525a1.6 1.6 0 0 0-.183.779v4.036zm13.295.132q-.967 0-1.666-.413a2.8 2.8 0 0 1-1.074-1.172q-.375-.759-.375-1.777 0-1.006.375-1.773.38-.766 1.057-1.197.682-.43 1.594-.431.554 0 1.073.183.52.184.934.576.413.392.652 1.018.238.622.238 1.513v.452H46.58v-.955h3.955q0-.503-.205-.89a1.54 1.54 0 0 0-.575-.618 1.6 1.6 0 0 0-.86-.226q-.538 0-.938.264a1.8 1.8 0 0 0-.614.682 2 2 0 0 0-.213.908v.745q0 .657.23 1.117.235.46.652.703.418.238.976.238.362 0 .66-.102.3-.106.516-.315.218-.209.332-.516l1.206.218q-.144.532-.52.933-.37.396-.933.618a3.5 3.5 0 0 1-1.274.217m8.995-5.08-1.155.205a1.4 1.4 0 0 0-.23-.422 1.14 1.14 0 0 0-.418-.328 1.5 1.5 0 0 0-.66-.128q-.541 0-.904.243-.362.239-.362.618a.65.65 0 0 0 .243.528q.243.2.784.329l1.04.238q.903.209 1.346.644.444.434.444 1.129 0 .588-.341 1.048-.337.456-.942.716-.6.26-1.394.26-1.098 0-1.794-.469-.694-.472-.852-1.342l1.232-.188q.115.482.473.729.358.243.933.243.627 0 1.001-.26.375-.264.375-.643a.67.67 0 0 0-.23-.516q-.225-.209-.694-.315l-1.108-.243q-.917-.209-1.355-.665-.435-.456-.435-1.155 0-.579.324-1.014a2.1 2.1 0 0 1 .895-.678 3.3 3.3 0 0 1 1.308-.247q1.06 0 1.67.46.61.456.806 1.223m6.301 0-1.154.205a1.4 1.4 0 0 0-.23-.422 1.14 1.14 0 0 0-.418-.328 1.5 1.5 0 0 0-.66-.128q-.542 0-.904.243-.362.239-.362.618a.65.65 0 0 0 .243.528q.243.2.784.329l1.04.238q.902.209 1.346.644.444.434.443 1.129 0 .588-.34 1.048-.338.456-.942.716-.601.26-1.394.26-1.099 0-1.794-.469-.695-.472-.852-1.342l1.231-.188q.116.482.473.729.358.243.934.243.626 0 1.001-.26.375-.264.375-.643a.67.67 0 0 0-.23-.516q-.225-.209-.695-.315l-1.108-.243q-.915-.209-1.355-.665-.434-.456-.434-1.155 0-.579.323-1.014a2.1 2.1 0 0 1 .895-.678 3.3 3.3 0 0 1 1.309-.247q1.06 0 1.67.46.61.456.805 1.223m3.302 5.093q-.623 0-1.125-.23a1.9 1.9 0 0 1-.797-.678q-.29-.443-.29-1.086 0-.555.213-.912.214-.358.576-.567.361-.209.81-.316.447-.107.911-.161l.955-.111q.366-.048.532-.149.167-.103.167-.333v-.03q0-.558-.316-.865-.31-.306-.929-.306-.644 0-1.014.285-.366.281-.507.626l-1.197-.272a2.3 2.3 0 0 1 .622-.963q.413-.371.95-.537a3.7 3.7 0 0 1 1.13-.171q.391 0 .83.094.444.09.827.332.387.243.635.695.247.447.247 1.163v4.347h-1.244v-.895h-.051a1.8 1.8 0 0 1-.371.486 2 2 0 0 1-.635.396 2.5 2.5 0 0 1-.929.158m.277-1.023q.528 0 .903-.209.38-.209.576-.545.2-.34.2-.729v-.844q-.069.069-.264.128a4 4 0 0 1-.44.098q-.246.039-.48.073l-.393.051a3.2 3.2 0 0 0-.677.157 1.17 1.17 0 0 0-.486.32q-.18.204-.18.546 0 .473.35.715.35.24.891.239m7.263 3.469q-.78 0-1.343-.205a2.6 2.6 0 0 1-.912-.541 2.3 2.3 0 0 1-.528-.737l1.095-.452q.115.188.307.396.196.214.528.363.337.149.865.149.724 0 1.198-.354.473-.35.473-1.116v-1.287h-.081a3 3 0 0 1-.333.464 1.8 1.8 0 0 1-.588.443q-.375.188-.976.188a2.73 2.73 0 0 1-1.397-.362q-.618-.367-.98-1.078-.358-.716-.358-1.76t.353-1.79q.359-.746.98-1.142a2.55 2.55 0 0 1 1.411-.401q.609 0 .984.205.375.2.584.469.213.268.328.473h.094v-1.062h1.249v6.691q0 .843-.392 1.385a2.3 2.3 0 0 1-1.061.801q-.666.26-1.5.26m-.013-3.746q.55 0 .929-.256a1.6 1.6 0 0 0 .58-.741q.2-.486.2-1.163a3.2 3.2 0 0 0-.197-1.164 1.73 1.73 0 0 0-.575-.784q-.38-.285-.937-.285-.575 0-.96.298a1.8 1.8 0 0 0-.579.801 3.2 3.2 0 0 0-.191 1.134q0 .643.196 1.129.195.486.58.758.387.273.954.273m7.364 1.287q-.967 0-1.667-.413a2.8 2.8 0 0 1-1.074-1.172q-.375-.759-.375-1.777 0-1.006.375-1.773.38-.766 1.057-1.197.682-.43 1.594-.431.554 0 1.074.183.519.184.933.576t.652 1.018q.24.622.239 1.513v.452h-5.203v-.955h3.954q0-.503-.204-.89a1.54 1.54 0 0 0-.576-.618 1.6 1.6 0 0 0-.86-.226q-.537 0-.938.264a1.8 1.8 0 0 0-.614.682 2 2 0 0 0-.213.908v.745q0 .657.23 1.117.235.46.652.703.418.238.976.238.363 0 .66-.102.3-.106.516-.315.218-.209.333-.516l1.206.218q-.145.532-.52.933-.37.396-.933.618a3.5 3.5 0 0 1-1.274.217m10.189-6.678v1.023h-3.576v-1.023zm-2.617-1.568h1.274v6.192q0 .37.111.558a.58.58 0 0 0 .286.252q.178.063.387.064.154 0 .269-.022l.179-.034.23 1.053a2.526 2.526 0 0 1-.827.136 2.2 2.2 0 0 1-.937-.179 1.6 1.6 0 0 1-.703-.579q-.27-.393-.269-.985zm6.58 8.246q-.92 0-1.606-.422a2.85 2.85 0 0 1-1.065-1.18q-.38-.759-.38-1.773 0-1.019.38-1.781a2.84 2.84 0 0 1 1.065-1.185q.686-.422 1.607-.422t1.606.422 1.066 1.185q.38.762.379 1.781 0 1.014-.38 1.773a2.85 2.85 0 0 1-1.065 1.18q-.685.422-1.606.422m.005-1.07q.596 0 .989-.315.391-.315.58-.839.19-.525.191-1.155a3.3 3.3 0 0 0-.192-1.151 1.9 1.9 0 0 0-.58-.848q-.39-.32-.988-.319-.6 0-.997.319a1.9 1.9 0 0 0-.584.848q-.187.525-.187 1.151 0 .63.187 1.155.192.524.584.839.396.315.997.315m9.286 1.083q-.623 0-1.125-.23a1.9 1.9 0 0 1-.797-.678q-.29-.443-.29-1.086 0-.555.213-.912.213-.358.576-.567.362-.209.809-.316t.912-.161l.955-.111q.366-.048.532-.149.167-.103.167-.333v-.03q0-.558-.316-.865-.31-.306-.929-.306-.643 0-1.014.285-.366.281-.507.626l-1.198-.272q.213-.597.623-.963a2.5 2.5 0 0 1 .95-.537 3.7 3.7 0 0 1 1.129-.171q.393 0 .831.094.444.09.827.332.387.243.635.695.247.447.247 1.163v4.347h-1.244v-.895h-.052a1.8 1.8 0 0 1-.37.486 2 2 0 0 1-.635.396 2.5 2.5 0 0 1-.929.158m.277-1.023q.528 0 .903-.209.38-.209.575-.545a1.4 1.4 0 0 0 .201-.729v-.844a.7.7 0 0 1-.264.128q-.193.056-.439.098l-.482.073-.392.051a3.2 3.2 0 0 0-.677.157 1.17 1.17 0 0 0-.486.32q-.18.204-.179.546 0 .473.349.715.35.24.891.239m10.012 1.006q-.792 0-1.415-.405-.618-.41-.971-1.163-.35-.76-.35-1.82t.354-1.815q.358-.755.98-1.155a2.55 2.55 0 0 1 1.411-.401q.61 0 .98.205.375.2.579.469.209.268.324.473h.077v-3.243h1.274v8.727h-1.244v-1.019h-.107q-.115.21-.332.478a1.8 1.8 0 0 1-.588.468q-.375.201-.972.201m.281-1.087q.55 0 .929-.29.384-.294.58-.814.2-.52.2-1.21 0-.681-.196-1.193a1.75 1.75 0 0 0-.575-.797q-.38-.285-.938-.285-.575 0-.958.298-.384.298-.58.814a3.3 3.3 0 0 0-.192 1.163q0 .656.196 1.181.196.524.58.831.387.302.954.302m4.649.959v-6.546h1.274v6.546zm.643-7.555a.8.8 0 0 1-.571-.222.72.72 0 0 1-.234-.537q0-.315.234-.537a.8.8 0 0 1 .571-.226.8.8 0 0 1 .567.226.7.7 0 0 1 .238.537.72.72 0 0 1-.238.537.8.8 0 0 1-.567.222m5.328 1.009v1.023h-3.699v-1.023zm-2.685 6.546v-7.304q0-.614.269-1.019.268-.408.711-.609.444-.204.963-.204.384 0 .657.063.272.06.404.111l-.298 1.032a5 5 0 0 0-.23-.06 1.3 1.3 0 0 0-.341-.038q-.465 0-.665.23-.195.23-.196.664v7.134zm6.983-6.546v1.023h-3.699v-1.023zm-2.685 6.546v-7.304q0-.614.268-1.019.269-.408.712-.609.442-.204.963-.204.383 0 .656.063.273.06.405.111l-.298 1.032q-.09-.026-.23-.06a1.3 1.3 0 0 0-.341-.038q-.464 0-.665.23-.196.23-.196.664v7.134zm6.43.132q-.967 0-1.666-.413a2.8 2.8 0 0 1-1.074-1.172q-.375-.759-.375-1.777 0-1.006.375-1.773.38-.766 1.057-1.197.682-.43 1.594-.431.553 0 1.074.183.519.184.933.576t.652 1.018q.239.622.239 1.513v.452h-5.204v-.955h3.955a1.9 1.9 0 0 0-.205-.89 1.54 1.54 0 0 0-.575-.618 1.6 1.6 0 0 0-.861-.226q-.537 0-.937.264a1.8 1.8 0 0 0-.614.682 2 2 0 0 0-.213.908v.745q0 .657.23 1.117.235.46.652.703.418.238.976.238.363 0 .661-.102.298-.106.515-.315a1.4 1.4 0 0 0 .333-.516l1.206.218q-.145.532-.52.933-.37.396-.933.618a3.5 3.5 0 0 1-1.275.217m4.09-.132v-6.546h1.232v1.04h.068q.179-.528.631-.831a1.8 1.8 0 0 1 1.031-.307 5 5 0 0 1 .541.03v1.219a2 2 0 0 0-.273-.047q-.195-.03-.392-.03a1.66 1.66 0 0 0-.805.192 1.43 1.43 0 0 0-.759 1.283v3.997zm7.06.132q-.966 0-1.666-.413a2.8 2.8 0 0 1-1.074-1.172q-.375-.759-.375-1.777 0-1.006.375-1.773.38-.766 1.057-1.197.682-.43 1.594-.431.553 0 1.074.183.519.184.933.576t.652 1.018q.239.622.239 1.513v.452h-5.203v-.955h3.954q0-.503-.204-.89a1.55 1.55 0 0 0-.576-.618 1.6 1.6 0 0 0-.861-.226q-.536 0-.937.264a1.8 1.8 0 0 0-.614.682 2 2 0 0 0-.213.908v.745q0 .657.23 1.117.235.46.652.703.418.238.976.238.363 0 .661-.102.298-.106.515-.315a1.4 1.4 0 0 0 .333-.516l1.206.218q-.145.532-.52.933-.37.396-.933.618a3.5 3.5 0 0 1-1.275.217m5.365-4.018v3.886h-1.275v-6.546h1.223v1.066h.081q.226-.52.708-.835.486-.316 1.223-.316.669 0 1.172.282.503.276.779.826.277.55.277 1.36v4.163h-1.274v-4.01q0-.711-.37-1.112-.371-.405-1.019-.405-.443 0-.788.192a1.37 1.37 0 0 0-.541.562q-.196.367-.196.887m8.821-2.66v1.023h-3.576v-1.023zm-2.617-1.568h1.274v6.192q0 .37.111.558a.58.58 0 0 0 .286.252q.178.063.387.064.154 0 .269-.022l.179-.034.23 1.053a2.534 2.534 0 0 1-.827.136 2.2 2.2 0 0 1-.937-.179 1.6 1.6 0 0 1-.703-.579q-.269-.393-.269-.985zm11.357 10.568v-3.473h-.077q-.114.21-.332.478a1.8 1.8 0 0 1-.588.468q-.375.201-.972.201-.792 0-1.415-.405-.618-.41-.971-1.163-.35-.76-.35-1.82t.354-1.815q.358-.755.98-1.155a2.55 2.55 0 0 1 1.411-.401q.61 0 .98.205.375.2.579.469.21.268.324.473h.107v-1.062h1.244v9zm-1.688-3.413q.55 0 .929-.29.384-.294.58-.814.2-.52.2-1.21 0-.681-.196-1.193a1.74 1.74 0 0 0-.575-.797q-.379-.285-.938-.285-.575 0-.958.298-.384.298-.58.814a3.3 3.3 0 0 0-.192 1.163q0 .656.196 1.181.196.524.58.831.388.302.954.302m8.689-1.756v-3.831h1.279v6.546h-1.253v-1.134h-.068q-.226.525-.725.874-.494.345-1.231.345-.631 0-1.117-.277a1.94 1.94 0 0 1-.758-.831q-.273-.549-.273-1.359v-4.164h1.274v4.01q0 .67.371 1.066.37.396.963.396.358 0 .712-.179.358-.179.592-.541.238-.362.234-.921m5.68 2.847q-.967 0-1.666-.413a2.8 2.8 0 0 1-1.074-1.172q-.375-.759-.375-1.777 0-1.006.375-1.773.38-.766 1.057-1.197.681-.43 1.593-.431.555 0 1.074.183.52.184.933.576t.652 1.018q.24.622.239 1.513v.452h-5.203v-.955h3.955q0-.503-.205-.89a1.54 1.54 0 0 0-.575-.618 1.6 1.6 0 0 0-.861-.226q-.537 0-.938.264a1.8 1.8 0 0 0-.613.682 2 2 0 0 0-.213.908v.745q0 .657.23 1.117.234.46.652.703.417.238.976.238.362 0 .66-.102a1.368 1.368 0 0 0 .848-.831l1.206.218q-.144.532-.52.933-.37.396-.933.618a3.5 3.5 0 0 1-1.274.217m8.236-2.847v-3.831h1.279v6.546h-1.253v-1.134h-.068q-.227.525-.725.874-.494.345-1.231.345-.631 0-1.117-.277a1.94 1.94 0 0 1-.758-.831q-.273-.549-.273-1.359v-4.164h1.274v4.01q0 .67.371 1.066.37.396.963.396.358 0 .711-.179.359-.179.593-.541.238-.362.234-.921m5.68 2.847q-.968 0-1.667-.413a2.8 2.8 0 0 1-1.073-1.172q-.375-.759-.375-1.777 0-1.006.375-1.773a2.9 2.9 0 0 1 1.056-1.197q.682-.43 1.594-.431.553 0 1.074.183.52.184.933.576t.652 1.018q.239.622.239 1.513v.452h-5.203v-.955h3.954q0-.503-.204-.89a1.54 1.54 0 0 0-.576-.618 1.6 1.6 0 0 0-.86-.226q-.537 0-.938.264a1.8 1.8 0 0 0-.614.682 2 2 0 0 0-.213.908v.745q0 .657.231 1.117.234.46.652.703.417.238.975.238.363 0 .661-.102.299-.106.515-.315a1.4 1.4 0 0 0 .333-.516l1.206.218q-.145.532-.52.933-.37.396-.933.618a3.5 3.5 0 0 1-1.274.217"/><path fill="#00695c" d="M518.28 42.53a.75.75 0 0 0 0-1.06l-4.773-4.773a.75.75 0 1 0-1.06 1.06L516.689 42l-4.242 4.243a.75.75 0 0 0 1.06 1.06zm-10.771-1.28a.75.75 0 0 0 0 1.5v-1.5m-50.875 1.5a.75.75 0 0 0 0-1.5v1.5m-11.384-1.5a.75.75 0 0 0 0 1.5v-1.5m72.5.75v-.75h-10.241v1.5h10.241zm-61.116 0v-.75H445.25v1.5h11.384z"/><path fill="#23262f" d="M467.905 39.565a1.25 1.25 0 0 0-.562-.937q-.495-.337-1.245-.337a2.3 2.3 0 0 0-.929.17q-.391.167-.609.46a1.1 1.1 0 0 0-.213.661.97.97 0 0 0 .145.537q.149.225.388.38.243.149.52.251.277.098.532.162l.852.221q.418.103.857.277.44.175.814.46.375.287.605.708.234.422.234 1.01 0 .741-.383 1.317-.38.575-1.104.907-.72.333-1.743.333-.98 0-1.696-.311-.716-.312-1.12-.882-.406-.576-.448-1.364h1.321q.039.473.307.788.273.312.695.465.426.15.933.15.558-.001.993-.176.438-.179.69-.494.251-.32.251-.746 0-.387-.221-.635a1.6 1.6 0 0 0-.592-.409 6 6 0 0 0-.84-.285l-1.031-.282q-1.048-.285-1.662-.839-.61-.554-.61-1.466 0-.755.41-1.317a2.7 2.7 0 0 1 1.108-.873q.698-.316 1.576-.316.886 0 1.564.312.682.31 1.074.856.392.541.409 1.244zm6.875 3.72v-3.83h1.278V46h-1.252v-1.133h-.069q-.225.523-.724.873-.494.345-1.232.345-.63 0-1.116-.277a1.95 1.95 0 0 1-.759-.83q-.272-.55-.272-1.36v-4.163h1.274v4.01q0 .667.371 1.065.37.396.963.396.357 0 .711-.179.358-.18.593-.541.239-.362.234-.92M477.741 46v-8.727h1.274v3.243h.076q.111-.205.32-.473.208-.27.58-.47.37-.204.98-.204.792 0 1.415.4.622.402.975 1.156.358.754.358 1.815t-.353 1.82q-.354.753-.972 1.163-.618.405-1.41.405-.597 0-.976-.2a1.85 1.85 0 0 1-.588-.47 3.6 3.6 0 0 1-.329-.477h-.106V46zm1.248-3.273q0 .69.2 1.21t.58.814q.38.29.929.29.571 0 .955-.302.382-.307.579-.831.2-.525.2-1.18 0-.649-.196-1.164a1.8 1.8 0 0 0-.579-.814q-.383-.298-.959-.298-.554 0-.937.285-.38.285-.576.797a3.3 3.3 0 0 0-.196 1.193M485.018 46v-6.545h1.223v1.065h.081q.204-.54.669-.844.464-.307 1.112-.307.656 0 1.1.307a1.8 1.8 0 0 1 .66.844h.068q.235-.525.746-.835.511-.316 1.219-.316.89 0 1.453.559.567.558.567 1.683V46h-1.274v-4.27q0-.664-.363-.963a1.32 1.32 0 0 0-.865-.298q-.621 0-.967.383-.345.38-.345.976V46h-1.27v-4.35q0-.534-.332-.857-.333-.324-.865-.324-.363 0-.669.191-.303.188-.491.525a1.6 1.6 0 0 0-.183.78V46zm10.474 0v-6.545h1.274V46zm.643-7.555a.8.8 0 0 1-.571-.222.72.72 0 0 1-.234-.537q0-.316.234-.537a.8.8 0 0 1 .571-.226q.333 0 .567.226a.7.7 0 0 1 .238.537.71.71 0 0 1-.238.537.8.8 0 0 1-.567.222m5.268 1.01v1.022h-3.575v-1.022zm-2.616-1.569h1.274v6.192q0 .37.111.558a.58.58 0 0 0 .285.252q.18.064.388.064.153 0 .268-.022.116-.02.179-.034l.231 1.053a2 2 0 0 1-.316.085 2.5 2.5 0 0 1-.511.051 2.25 2.25 0 0 1-.938-.179 1.6 1.6 0 0 1-.703-.58q-.268-.39-.268-.984z"/></g><defs><clipPath id="a"><path fill="#fff" d="M0 0h720v240H0z"/></clipPath><clipPath id="b"><path fill="#fff" d="M0 0h720v314H0z"/></clipPath></defs></svg>
