<svg xmlns="http://www.w3.org/2000/svg" width="720" height="178" fill="none" viewBox="0 0 720 178"><g clip-path="url(#a)"><path fill="#fff" d="M0 0h720v178H0z"/><g fill="#c1c3c8" clip-path="url(#b)" opacity=".5"><path d="M-11 324a1 1 0 1 1 0 2 1 1 0 0 1 0-2m14 0a1 1 0 1 1 0 2 1 1 0 0 1 0-2m14 0a1 1 0 1 1 0 2 1 1 0 0 1 0-2m14 0a1 1 0 1 1 0 2 1 1 0 0 1 0-2m14 0a1 1 0 1 1 0 2 1 1 0 0 1 0-2m14 0a1 1 0 1 1 0 2 1 1 0 0 1 0-2m14 0a1 1 0 1 1 0 2 1 1 0 0 1 0-2m14 0a1 1 0 1 1 0 2 1 1 0 0 1 0-2m14 0a1 1 0 1 1 0 2 1 1 0 0 1 0-2m14 0a1 1 0 1 1 0 2 1 1 0 0 1 0-2m14 0a1 1 0 1 1 0 2 1 1 0 0 1 0-2m14 0a1 1 0 1 1 0 2 1 1 0 0 1 0-2m14 0a1 1 0 1 1 0 2 1 1 0 0 1 0-2m14 0a1 1 0 1 1 0 2 1 1 0 0 1 0-2m14 0a1 1 0 1 1 0 2 1 1 0 0 1 0-2m14 0a1 1 0 1 1 0 2 1 1 0 0 1 0-2m14 0a1 1 0 1 1 0 2 1 1 0 0 1 0-2m14 0a1 1 0 1 1 0 2 1 1 0 0 1 0-2m14 0a1 1 0 1 1 0 2 1 1 0 0 1 0-2m14 0a1 1 0 1 1 0 2 1 1 0 0 1 0-2m14 0a1 1 0 1 1 0 2 1 1 0 0 1 0-2m14 0a1 1 0 1 1 0 2 1 1 0 0 1 0-2m14 0a1 1 0 1 1 0 2 1 1 0 0 1 0-2m14 0a1 1 0 1 1 0 2 1 1 0 0 1 0-2m14 0a1 1 0 1 1 0 2 1 1 0 0 1 0-2m14 0a1 1 0 1 1 0 2 1 1 0 0 1 0-2m14 0a1 1 0 1 1 0 2 1 1 0 0 1 0-2m14 0a1 1 0 1 1 0 2 1 1 0 0 1 0-2m14 0a1 1 0 1 1 0 2 1 1 0 0 1 0-2m14 0a1 1 0 1 1 0 2 1 1 0 0 1 0-2m14 0a1 1 0 1 1 0 2 1 1 0 0 1 0-2m14 0a1 1 0 1 1 0 2 1 1 0 0 1 0-2m14 0a1 1 0 1 1 0 2 1 1 0 0 1 0-2m14 0a1 1 0 1 1 0 2 1 1 0 0 1 0-2m14 0a1 1 0 1 1 0 2 1 1 0 0 1 0-2m14 0a1 1 0 1 1 0 2 1 1 0 0 1 0-2m14 0a1 1 0 1 1 0 2 1 1 0 0 1 0-2m14 0a1 1 0 1 1 0 2 1 1 0 0 1 0-2m14 0a1 1 0 1 1 0 2 1 1 0 0 1 0-2m14 0a1 1 0 1 1 0 2 1 1 0 0 1 0-2m14 0a1 1 0 1 1 0 2 1 1 0 0 1 0-2m14 0a1 1 0 1 1 0 2 1 1 0 0 1 0-2m14 0a1 1 0 1 1 0 2 1 1 0 0 1 0-2m14 0a1 1 0 1 1 0 2 1 1 0 0 1 0-2m14 0a1 1 0 1 1 0 2 1 1 0 0 1 0-2m14 0a1 1 0 1 1 0 2 1 1 0 0 1 0-2m14 0a1 1 0 1 1 0 2 1 1 0 0 1 0-2m14 0a1 1 0 1 1 0 2 1 1 0 0 1 0-2m14 0a1 1 0 1 1 0 2 1 1 0 0 1 0-2m14 0a1 1 0 1 1 0 2 1 1 0 0 1 0-2m14 0a1 1 0 1 1 0 2 1 1 0 0 1 0-2m14 0a1 1 0 1 1 0 2 1 1 0 0 1 0-2m-714-14a1 1 0 1 1 0 2 1 1 0 0 1 0-2m14 0a1 1 0 1 1 0 2 1 1 0 0 1 0-2m14 0a1 1 0 1 1 0 2 1 1 0 0 1 0-2m14 0a1 1 0 1 1 0 2 1 1 0 0 1 0-2m14 0a1 1 0 1 1 0 2 1 1 0 0 1 0-2m14 0a1 1 0 1 1 0 2 1 1 0 0 1 0-2m14 0a1 1 0 1 1 0 2 1 1 0 0 1 0-2m14 0a1 1 0 1 1 0 2 1 1 0 0 1 0-2m14 0a1 1 0 1 1 0 2 1 1 0 0 1 0-2m14 0a1 1 0 1 1 0 2 1 1 0 0 1 0-2m14 0a1 1 0 1 1 0 2 1 1 0 0 1 0-2m14 0a1 1 0 1 1 0 2 1 1 0 0 1 0-2m14 0a1 1 0 1 1 0 2 1 1 0 0 1 0-2m14 0a1 1 0 1 1 0 2 1 1 0 0 1 0-2m14 0a1 1 0 1 1 0 2 1 1 0 0 1 0-2m14 0a1 1 0 1 1 0 2 1 1 0 0 1 0-2m14 0a1 1 0 1 1 0 2 1 1 0 0 1 0-2m14 0a1 1 0 1 1 0 2 1 1 0 0 1 0-2m14 0a1 1 0 1 1 0 2 1 1 0 0 1 0-2m14 0a1 1 0 1 1 0 2 1 1 0 0 1 0-2m14 0a1 1 0 1 1 0 2 1 1 0 0 1 0-2m14 0a1 1 0 1 1 0 2 1 1 0 0 1 0-2m14 0a1 1 0 1 1 0 2 1 1 0 0 1 0-2m14 0a1 1 0 1 1 0 2 1 1 0 0 1 0-2m14 0a1 1 0 1 1 0 2 1 1 0 0 1 0-2m14 0a1 1 0 1 1 0 2 1 1 0 0 1 0-2m14 0a1 1 0 1 1 0 2 1 1 0 0 1 0-2m14 0a1 1 0 1 1 0 2 1 1 0 0 1 0-2m14 0a1 1 0 1 1 0 2 1 1 0 0 1 0-2m14 0a1 1 0 1 1 0 2 1 1 0 0 1 0-2m14 0a1 1 0 1 1 0 2 1 1 0 0 1 0-2m14 0a1 1 0 1 1 0 2 1 1 0 0 1 0-2m14 0a1 1 0 1 1 0 2 1 1 0 0 1 0-2m14 0a1 1 0 1 1 0 2 1 1 0 0 1 0-2m14 0a1 1 0 1 1 0 2 1 1 0 0 1 0-2m14 0a1 1 0 1 1 0 2 1 1 0 0 1 0-2m14 0a1 1 0 1 1 0 2 1 1 0 0 1 0-2m14 0a1 1 0 1 1 0 2 1 1 0 0 1 0-2m14 0a1 1 0 1 1 0 2 1 1 0 0 1 0-2m14 0a1 1 0 1 1 0 2 1 1 0 0 1 0-2m14 0a1 1 0 1 1 0 2 1 1 0 0 1 0-2m14 0a1 1 0 1 1 0 2 1 1 0 0 1 0-2m14 0a1 1 0 1 1 0 2 1 1 0 0 1 0-2m14 0a1 1 0 1 1 0 2 1 1 0 0 1 0-2m14 0a1 1 0 1 1 0 2 1 1 0 0 1 0-2m14 0a1 1 0 1 1 0 2 1 1 0 0 1 0-2m14 0a1 1 0 1 1 0 2 1 1 0 0 1 0-2m14 0a1 1 0 1 1 0 2 1 1 0 0 1 0-2m14 0a1 1 0 1 1 0 2 1 1 0 0 1 0-2m14 0a1 1 0 1 1 0 2 1 1 0 0 1 0-2m14 0a1 1 0 1 1 0 2 1 1 0 0 1 0-2m14 0a1 1 0 1 1 0 2 1 1 0 0 1 0-2m14 0a1 1 0 1 1 0 2 1 1 0 0 1 0-2m-728-14a1 1 0 1 1 0 2 1 1 0 0 1 0-2m14 0a1 1 0 1 1 0 2 1 1 0 0 1 0-2m14 0a1 1 0 1 1 0 2 1 1 0 0 1 0-2m14 0a1 1 0 1 1 0 2 1 1 0 0 1 0-2m14 0a1 1 0 1 1 0 2 1 1 0 0 1 0-2m14 0a1 1 0 1 1 0 2 1 1 0 0 1 0-2m14 0a1 1 0 1 1 0 2 1 1 0 0 1 0-2m14 0a1 1 0 1 1 0 2 1 1 0 0 1 0-2m14 0a1 1 0 1 1 0 2 1 1 0 0 1 0-2m14 0a1 1 0 1 1 0 2 1 1 0 0 1 0-2m14 0a1 1 0 1 1 0 2 1 1 0 0 1 0-2m14 0a1 1 0 1 1 0 2 1 1 0 0 1 0-2m14 0a1 1 0 1 1 0 2 1 1 0 0 1 0-2m14 0a1 1 0 1 1 0 2 1 1 0 0 1 0-2m14 0a1 1 0 1 1 0 2 1 1 0 0 1 0-2m14 0a1 1 0 1 1 0 2 1 1 0 0 1 0-2m14 0a1 1 0 1 1 0 2 1 1 0 0 1 0-2m14 0a1 1 0 1 1 0 2 1 1 0 0 1 0-2m14 0a1 1 0 1 1 0 2 1 1 0 0 1 0-2m14 0a1 1 0 1 1 0 2 1 1 0 0 1 0-2m14 0a1 1 0 1 1 0 2 1 1 0 0 1 0-2m14 0a1 1 0 1 1 0 2 1 1 0 0 1 0-2m14 0a1 1 0 1 1 0 2 1 1 0 0 1 0-2m14 0a1 1 0 1 1 0 2 1 1 0 0 1 0-2m14 0a1 1 0 1 1 0 2 1 1 0 0 1 0-2m14 0a1 1 0 1 1 0 2 1 1 0 0 1 0-2m14 0a1 1 0 1 1 0 2 1 1 0 0 1 0-2m14 0a1 1 0 1 1 0 2 1 1 0 0 1 0-2m14 0a1 1 0 1 1 0 2 1 1 0 0 1 0-2m14 0a1 1 0 1 1 0 2 1 1 0 0 1 0-2m14 0a1 1 0 1 1 0 2 1 1 0 0 1 0-2m14 0a1 1 0 1 1 0 2 1 1 0 0 1 0-2m14 0a1 1 0 1 1 0 2 1 1 0 0 1 0-2m14 0a1 1 0 1 1 0 2 1 1 0 0 1 0-2m14 0a1 1 0 1 1 0 2 1 1 0 0 1 0-2m14 0a1 1 0 1 1 0 2 1 1 0 0 1 0-2m14 0a1 1 0 1 1 0 2 1 1 0 0 1 0-2m14 0a1 1 0 1 1 0 2 1 1 0 0 1 0-2m14 0a1 1 0 1 1 0 2 1 1 0 0 1 0-2m14 0a1 1 0 1 1 0 2 1 1 0 0 1 0-2m14 0a1 1 0 1 1 0 2 1 1 0 0 1 0-2m14 0a1 1 0 1 1 0 2 1 1 0 0 1 0-2m14 0a1 1 0 1 1 0 2 1 1 0 0 1 0-2m14 0a1 1 0 1 1 0 2 1 1 0 0 1 0-2m14 0a1 1 0 1 1 0 2 1 1 0 0 1 0-2m14 0a1 1 0 1 1 0 2 1 1 0 0 1 0-2m14 0a1 1 0 1 1 0 2 1 1 0 0 1 0-2m14 0a1 1 0 1 1 0 2 1 1 0 0 1 0-2m14 0a1 1 0 1 1 0 2 1 1 0 0 1 0-2m14 0a1 1 0 1 1 0 2 1 1 0 0 1 0-2m14 0a1 1 0 1 1 0 2 1 1 0 0 1 0-2m14 0a1 1 0 1 1 0 2 1 1 0 0 1 0-2m14 0a1 1 0 1 1 0 2 1 1 0 0 1 0-2m-728-14a1 1 0 1 1 0 2 1 1 0 0 1 0-2m14 0a1 1 0 1 1 0 2 1 1 0 0 1 0-2m14 0a1 1 0 1 1 0 2 1 1 0 0 1 0-2m14 0a1 1 0 1 1 0 2 1 1 0 0 1 0-2m14 0a1 1 0 1 1 0 2 1 1 0 0 1 0-2m14 0a1 1 0 1 1 0 2 1 1 0 0 1 0-2m14 0a1 1 0 1 1 0 2 1 1 0 0 1 0-2m14 0a1 1 0 1 1 0 2 1 1 0 0 1 0-2m14 0a1 1 0 1 1 0 2 1 1 0 0 1 0-2m14 0a1 1 0 1 1 0 2 1 1 0 0 1 0-2m14 0a1 1 0 1 1 0 2 1 1 0 0 1 0-2m14 0a1 1 0 1 1 0 2 1 1 0 0 1 0-2m14 0a1 1 0 1 1 0 2 1 1 0 0 1 0-2m14 0a1 1 0 1 1 0 2 1 1 0 0 1 0-2m14 0a1 1 0 1 1 0 2 1 1 0 0 1 0-2m14 0a1 1 0 1 1 0 2 1 1 0 0 1 0-2m14 0a1 1 0 1 1 0 2 1 1 0 0 1 0-2m14 0a1 1 0 1 1 0 2 1 1 0 0 1 0-2m14 0a1 1 0 1 1 0 2 1 1 0 0 1 0-2m14 0a1 1 0 1 1 0 2 1 1 0 0 1 0-2m14 0a1 1 0 1 1 0 2 1 1 0 0 1 0-2m14 0a1 1 0 1 1 0 2 1 1 0 0 1 0-2m14 0a1 1 0 1 1 0 2 1 1 0 0 1 0-2m14 0a1 1 0 1 1 0 2 1 1 0 0 1 0-2m14 0a1 1 0 1 1 0 2 1 1 0 0 1 0-2m14 0a1 1 0 1 1 0 2 1 1 0 0 1 0-2m14 0a1 1 0 1 1 0 2 1 1 0 0 1 0-2m14 0a1 1 0 1 1 0 2 1 1 0 0 1 0-2m14 0a1 1 0 1 1 0 2 1 1 0 0 1 0-2m14 0a1 1 0 1 1 0 2 1 1 0 0 1 0-2m14 0a1 1 0 1 1 0 2 1 1 0 0 1 0-2m14 0a1 1 0 1 1 0 2 1 1 0 0 1 0-2m14 0a1 1 0 1 1 0 2 1 1 0 0 1 0-2m14 0a1 1 0 1 1 0 2 1 1 0 0 1 0-2m14 0a1 1 0 1 1 0 2 1 1 0 0 1 0-2m14 0a1 1 0 1 1 0 2 1 1 0 0 1 0-2m14 0a1 1 0 1 1 0 2 1 1 0 0 1 0-2m14 0a1 1 0 1 1 0 2 1 1 0 0 1 0-2m14 0a1 1 0 1 1 0 2 1 1 0 0 1 0-2m14 0a1 1 0 1 1 0 2 1 1 0 0 1 0-2m14 0a1 1 0 1 1 0 2 1 1 0 0 1 0-2m14 0a1 1 0 1 1 0 2 1 1 0 0 1 0-2m14 0a1 1 0 1 1 0 2 1 1 0 0 1 0-2m14 0a1 1 0 1 1 0 2 1 1 0 0 1 0-2m14 0a1 1 0 1 1 0 2 1 1 0 0 1 0-2m14 0a1 1 0 1 1 0 2 1 1 0 0 1 0-2m14 0a1 1 0 1 1 0 2 1 1 0 0 1 0-2m14 0a1 1 0 1 1 0 2 1 1 0 0 1 0-2m14 0a1 1 0 1 1 0 2 1 1 0 0 1 0-2m14 0a1 1 0 1 1 0 2 1 1 0 0 1 0-2m14 0a1 1 0 1 1 0 2 1 1 0 0 1 0-2m14 0a1 1 0 1 1 0 2 1 1 0 0 1 0-2m14 0a1 1 0 1 1 0 2 1 1 0 0 1 0-2m-728-14a1 1 0 1 1 0 2 1 1 0 0 1 0-2m14 0a1 1 0 1 1 0 2 1 1 0 0 1 0-2m14 0a1 1 0 1 1 0 2 1 1 0 0 1 0-2m14 0a1 1 0 1 1 0 2 1 1 0 0 1 0-2m14 0a1 1 0 1 1 0 2 1 1 0 0 1 0-2m14 0a1 1 0 1 1 0 2 1 1 0 0 1 0-2m14 0a1 1 0 1 1 0 2 1 1 0 0 1 0-2m14 0a1 1 0 1 1 0 2 1 1 0 0 1 0-2m14 0a1 1 0 1 1 0 2 1 1 0 0 1 0-2m14 0a1 1 0 1 1 0 2 1 1 0 0 1 0-2m14 0a1 1 0 1 1 0 2 1 1 0 0 1 0-2m14 0a1 1 0 1 1 0 2 1 1 0 0 1 0-2m14 0a1 1 0 1 1 0 2 1 1 0 0 1 0-2m14 0a1 1 0 1 1 0 2 1 1 0 0 1 0-2m14 0a1 1 0 1 1 0 2 1 1 0 0 1 0-2m14 0a1 1 0 1 1 0 2 1 1 0 0 1 0-2m14 0a1 1 0 1 1 0 2 1 1 0 0 1 0-2m14 0a1 1 0 1 1 0 2 1 1 0 0 1 0-2m14 0a1 1 0 1 1 0 2 1 1 0 0 1 0-2m14 0a1 1 0 1 1 0 2 1 1 0 0 1 0-2m14 0a1 1 0 1 1 0 2 1 1 0 0 1 0-2m14 0a1 1 0 1 1 0 2 1 1 0 0 1 0-2m14 0a1 1 0 1 1 0 2 1 1 0 0 1 0-2m14 0a1 1 0 1 1 0 2 1 1 0 0 1 0-2m14 0a1 1 0 1 1 0 2 1 1 0 0 1 0-2m14 0a1 1 0 1 1 0 2 1 1 0 0 1 0-2m14 0a1 1 0 1 1 0 2 1 1 0 0 1 0-2m14 0a1 1 0 1 1 0 2 1 1 0 0 1 0-2m14 0a1 1 0 1 1 0 2 1 1 0 0 1 0-2m14 0a1 1 0 1 1 0 2 1 1 0 0 1 0-2m14 0a1 1 0 1 1 0 2 1 1 0 0 1 0-2m14 0a1 1 0 1 1 0 2 1 1 0 0 1 0-2m14 0a1 1 0 1 1 0 2 1 1 0 0 1 0-2m14 0a1 1 0 1 1 0 2 1 1 0 0 1 0-2m14 0a1 1 0 1 1 0 2 1 1 0 0 1 0-2m14 0a1 1 0 1 1 0 2 1 1 0 0 1 0-2m14 0a1 1 0 1 1 0 2 1 1 0 0 1 0-2m14 0a1 1 0 1 1 0 2 1 1 0 0 1 0-2m14 0a1 1 0 1 1 0 2 1 1 0 0 1 0-2m14 0a1 1 0 1 1 0 2 1 1 0 0 1 0-2m14 0a1 1 0 1 1 0 2 1 1 0 0 1 0-2m14 0a1 1 0 1 1 0 2 1 1 0 0 1 0-2m14 0a1 1 0 1 1 0 2 1 1 0 0 1 0-2m14 0a1 1 0 1 1 0 2 1 1 0 0 1 0-2m14 0a1 1 0 1 1 0 2 1 1 0 0 1 0-2m14 0a1 1 0 1 1 0 2 1 1 0 0 1 0-2m14 0a1 1 0 1 1 0 2 1 1 0 0 1 0-2m14 0a1 1 0 1 1 0 2 1 1 0 0 1 0-2m14 0a1 1 0 1 1 0 2 1 1 0 0 1 0-2m14 0a1 1 0 1 1 0 2 1 1 0 0 1 0-2m14 0a1 1 0 1 1 0 2 1 1 0 0 1 0-2m14 0a1 1 0 1 1 0 2 1 1 0 0 1 0-2m14 0a1 1 0 1 1 0 2 1 1 0 0 1 0-2m-728-14a1 1 0 1 1 0 2 1 1 0 0 1 0-2m14 0a1 1 0 1 1 0 2 1 1 0 0 1 0-2m14 0a1 1 0 1 1 0 2 1 1 0 0 1 0-2m14 0a1 1 0 1 1 0 2 1 1 0 0 1 0-2m14 0a1 1 0 1 1 0 2 1 1 0 0 1 0-2m14 0a1 1 0 1 1 0 2 1 1 0 0 1 0-2m14 0a1 1 0 1 1 0 2 1 1 0 0 1 0-2m14 0a1 1 0 1 1 0 2 1 1 0 0 1 0-2m14 0a1 1 0 1 1 0 2 1 1 0 0 1 0-2m14 0a1 1 0 1 1 0 2 1 1 0 0 1 0-2m14 0a1 1 0 1 1 0 2 1 1 0 0 1 0-2m14 0a1 1 0 1 1 0 2 1 1 0 0 1 0-2m14 0a1 1 0 1 1 0 2 1 1 0 0 1 0-2m14 0a1 1 0 1 1 0 2 1 1 0 0 1 0-2m14 0a1 1 0 1 1 0 2 1 1 0 0 1 0-2m14 0a1 1 0 1 1 0 2 1 1 0 0 1 0-2m14 0a1 1 0 1 1 0 2 1 1 0 0 1 0-2m14 0a1 1 0 1 1 0 2 1 1 0 0 1 0-2m14 0a1 1 0 1 1 0 2 1 1 0 0 1 0-2m14 0a1 1 0 1 1 0 2 1 1 0 0 1 0-2m14 0a1 1 0 1 1 0 2 1 1 0 0 1 0-2m14 0a1 1 0 1 1 0 2 1 1 0 0 1 0-2m14 0a1 1 0 1 1 0 2 1 1 0 0 1 0-2m14 0a1 1 0 1 1 0 2 1 1 0 0 1 0-2m14 0a1 1 0 1 1 0 2 1 1 0 0 1 0-2m14 0a1 1 0 1 1 0 2 1 1 0 0 1 0-2m14 0a1 1 0 1 1 0 2 1 1 0 0 1 0-2m14 0a1 1 0 1 1 0 2 1 1 0 0 1 0-2m14 0a1 1 0 1 1 0 2 1 1 0 0 1 0-2m14 0a1 1 0 1 1 0 2 1 1 0 0 1 0-2m14 0a1 1 0 1 1 0 2 1 1 0 0 1 0-2m14 0a1 1 0 1 1 0 2 1 1 0 0 1 0-2m14 0a1 1 0 1 1 0 2 1 1 0 0 1 0-2m14 0a1 1 0 1 1 0 2 1 1 0 0 1 0-2m14 0a1 1 0 1 1 0 2 1 1 0 0 1 0-2m14 0a1 1 0 1 1 0 2 1 1 0 0 1 0-2m14 0a1 1 0 1 1 0 2 1 1 0 0 1 0-2m14 0a1 1 0 1 1 0 2 1 1 0 0 1 0-2m14 0a1 1 0 1 1 0 2 1 1 0 0 1 0-2m14 0a1 1 0 1 1 0 2 1 1 0 0 1 0-2m14 0a1 1 0 1 1 0 2 1 1 0 0 1 0-2m14 0a1 1 0 1 1 0 2 1 1 0 0 1 0-2m14 0a1 1 0 1 1 0 2 1 1 0 0 1 0-2m14 0a1 1 0 1 1 0 2 1 1 0 0 1 0-2m14 0a1 1 0 1 1 0 2 1 1 0 0 1 0-2m14 0a1 1 0 1 1 0 2 1 1 0 0 1 0-2m14 0a1 1 0 1 1 0 2 1 1 0 0 1 0-2m14 0a1 1 0 1 1 0 2 1 1 0 0 1 0-2m14 0a1 1 0 1 1 0 2 1 1 0 0 1 0-2m14 0a1 1 0 1 1 0 2 1 1 0 0 1 0-2m14 0a1 1 0 1 1 0 2 1 1 0 0 1 0-2m14 0a1 1 0 1 1 0 2 1 1 0 0 1 0-2m14 0a1 1 0 1 1 0 2 1 1 0 0 1 0-2m-728-14a1 1 0 1 1 0 2 1 1 0 0 1 0-2m14 0a1 1 0 1 1 0 2 1 1 0 0 1 0-2m14 0a1 1 0 1 1 0 2 1 1 0 0 1 0-2m14 0a1 1 0 1 1 0 2 1 1 0 0 1 0-2m14 0a1 1 0 1 1 0 2 1 1 0 0 1 0-2m14 0a1 1 0 1 1 0 2 1 1 0 0 1 0-2m14 0a1 1 0 1 1 0 2 1 1 0 0 1 0-2m14 0a1 1 0 1 1 0 2 1 1 0 0 1 0-2m14 0a1 1 0 1 1 0 2 1 1 0 0 1 0-2m14 0a1 1 0 1 1 0 2 1 1 0 0 1 0-2m14 0a1 1 0 1 1 0 2 1 1 0 0 1 0-2m14 0a1 1 0 1 1 0 2 1 1 0 0 1 0-2m14 0a1 1 0 1 1 0 2 1 1 0 0 1 0-2m14 0a1 1 0 1 1 0 2 1 1 0 0 1 0-2m14 0a1 1 0 1 1 0 2 1 1 0 0 1 0-2m14 0a1 1 0 1 1 0 2 1 1 0 0 1 0-2m14 0a1 1 0 1 1 0 2 1 1 0 0 1 0-2m14 0a1 1 0 1 1 0 2 1 1 0 0 1 0-2m14 0a1 1 0 1 1 0 2 1 1 0 0 1 0-2m14 0a1 1 0 1 1 0 2 1 1 0 0 1 0-2m14 0a1 1 0 1 1 0 2 1 1 0 0 1 0-2m14 0a1 1 0 1 1 0 2 1 1 0 0 1 0-2m14 0a1 1 0 1 1 0 2 1 1 0 0 1 0-2m14 0a1 1 0 1 1 0 2 1 1 0 0 1 0-2m14 0a1 1 0 1 1 0 2 1 1 0 0 1 0-2m14 0a1 1 0 1 1 0 2 1 1 0 0 1 0-2m14 0a1 1 0 1 1 0 2 1 1 0 0 1 0-2m14 0a1 1 0 1 1 0 2 1 1 0 0 1 0-2m14 0a1 1 0 1 1 0 2 1 1 0 0 1 0-2m14 0a1 1 0 1 1 0 2 1 1 0 0 1 0-2m14 0a1 1 0 1 1 0 2 1 1 0 0 1 0-2m14 0a1 1 0 1 1 0 2 1 1 0 0 1 0-2m14 0a1 1 0 1 1 0 2 1 1 0 0 1 0-2m14 0a1 1 0 1 1 0 2 1 1 0 0 1 0-2m14 0a1 1 0 1 1 0 2 1 1 0 0 1 0-2m14 0a1 1 0 1 1 0 2 1 1 0 0 1 0-2m14 0a1 1 0 1 1 0 2 1 1 0 0 1 0-2m14 0a1 1 0 1 1 0 2 1 1 0 0 1 0-2m14 0a1 1 0 1 1 0 2 1 1 0 0 1 0-2m14 0a1 1 0 1 1 0 2 1 1 0 0 1 0-2m14 0a1 1 0 1 1 0 2 1 1 0 0 1 0-2m14 0a1 1 0 1 1 0 2 1 1 0 0 1 0-2m14 0a1 1 0 1 1 0 2 1 1 0 0 1 0-2m14 0a1 1 0 1 1 0 2 1 1 0 0 1 0-2m14 0a1 1 0 1 1 0 2 1 1 0 0 1 0-2m14 0a1 1 0 1 1 0 2 1 1 0 0 1 0-2m14 0a1 1 0 1 1 0 2 1 1 0 0 1 0-2m14 0a1 1 0 1 1 0 2 1 1 0 0 1 0-2m14 0a1 1 0 1 1 0 2 1 1 0 0 1 0-2m14 0a1 1 0 1 1 0 2 1 1 0 0 1 0-2m14 0a1 1 0 1 1 0 2 1 1 0 0 1 0-2m14 0a1 1 0 1 1 0 2 1 1 0 0 1 0-2m14 0a1 1 0 1 1 0 2 1 1 0 0 1 0-2m-728-14a1 1 0 1 1 0 2 1 1 0 0 1 0-2m14 0a1 1 0 1 1 0 2 1 1 0 0 1 0-2m14 0a1 1 0 1 1 0 2 1 1 0 0 1 0-2m14 0a1 1 0 1 1 0 2 1 1 0 0 1 0-2m14 0a1 1 0 1 1 0 2 1 1 0 0 1 0-2m14 0a1 1 0 1 1 0 2 1 1 0 0 1 0-2m14 0a1 1 0 1 1 0 2 1 1 0 0 1 0-2m14 0a1 1 0 1 1 0 2 1 1 0 0 1 0-2m14 0a1 1 0 1 1 0 2 1 1 0 0 1 0-2m14 0a1 1 0 1 1 0 2 1 1 0 0 1 0-2m14 0a1 1 0 1 1 0 2 1 1 0 0 1 0-2m14 0a1 1 0 1 1 0 2 1 1 0 0 1 0-2m14 0a1 1 0 1 1 0 2 1 1 0 0 1 0-2m14 0a1 1 0 1 1 0 2 1 1 0 0 1 0-2m14 0a1 1 0 1 1 0 2 1 1 0 0 1 0-2m14 0a1 1 0 1 1 0 2 1 1 0 0 1 0-2m14 0a1 1 0 1 1 0 2 1 1 0 0 1 0-2m14 0a1 1 0 1 1 0 2 1 1 0 0 1 0-2m14 0a1 1 0 1 1 0 2 1 1 0 0 1 0-2m14 0a1 1 0 1 1 0 2 1 1 0 0 1 0-2m14 0a1 1 0 1 1 0 2 1 1 0 0 1 0-2m14 0a1 1 0 1 1 0 2 1 1 0 0 1 0-2m14 0a1 1 0 1 1 0 2 1 1 0 0 1 0-2m14 0a1 1 0 1 1 0 2 1 1 0 0 1 0-2m14 0a1 1 0 1 1 0 2 1 1 0 0 1 0-2m14 0a1 1 0 1 1 0 2 1 1 0 0 1 0-2m14 0a1 1 0 1 1 0 2 1 1 0 0 1 0-2m14 0a1 1 0 1 1 0 2 1 1 0 0 1 0-2m14 0a1 1 0 1 1 0 2 1 1 0 0 1 0-2m14 0a1 1 0 1 1 0 2 1 1 0 0 1 0-2m14 0a1 1 0 1 1 0 2 1 1 0 0 1 0-2m14 0a1 1 0 1 1 0 2 1 1 0 0 1 0-2m14 0a1 1 0 1 1 0 2 1 1 0 0 1 0-2m14 0a1 1 0 1 1 0 2 1 1 0 0 1 0-2m14 0a1 1 0 1 1 0 2 1 1 0 0 1 0-2m14 0a1 1 0 1 1 0 2 1 1 0 0 1 0-2m14 0a1 1 0 1 1 0 2 1 1 0 0 1 0-2m14 0a1 1 0 1 1 0 2 1 1 0 0 1 0-2m14 0a1 1 0 1 1 0 2 1 1 0 0 1 0-2m14 0a1 1 0 1 1 0 2 1 1 0 0 1 0-2m14 0a1 1 0 1 1 0 2 1 1 0 0 1 0-2m14 0a1 1 0 1 1 0 2 1 1 0 0 1 0-2m14 0a1 1 0 1 1 0 2 1 1 0 0 1 0-2m14 0a1 1 0 1 1 0 2 1 1 0 0 1 0-2m14 0a1 1 0 1 1 0 2 1 1 0 0 1 0-2m14 0a1 1 0 1 1 0 2 1 1 0 0 1 0-2m14 0a1 1 0 1 1 0 2 1 1 0 0 1 0-2m14 0a1 1 0 1 1 0 2 1 1 0 0 1 0-2m14 0a1 1 0 1 1 0 2 1 1 0 0 1 0-2m14 0a1 1 0 1 1 0 2 1 1 0 0 1 0-2m14 0a1 1 0 1 1 0 2 1 1 0 0 1 0-2m14 0a1 1 0 1 1 0 2 1 1 0 0 1 0-2m14 0a1 1 0 1 1 0 2 1 1 0 0 1 0-2m-728-14a1 1 0 1 1 0 2 1 1 0 0 1 0-2m14 0a1 1 0 1 1 0 2 1 1 0 0 1 0-2m14 0a1 1 0 1 1 0 2 1 1 0 0 1 0-2m14 0a1 1 0 1 1 0 2 1 1 0 0 1 0-2m14 0a1 1 0 1 1 0 2 1 1 0 0 1 0-2m14 0a1 1 0 1 1 0 2 1 1 0 0 1 0-2m14 0a1 1 0 1 1 0 2 1 1 0 0 1 0-2m14 0a1 1 0 1 1 0 2 1 1 0 0 1 0-2m14 0a1 1 0 1 1 0 2 1 1 0 0 1 0-2m14 0a1 1 0 1 1 0 2 1 1 0 0 1 0-2m14 0a1 1 0 1 1 0 2 1 1 0 0 1 0-2m14 0a1 1 0 1 1 0 2 1 1 0 0 1 0-2m14 0a1 1 0 1 1 0 2 1 1 0 0 1 0-2m14 0a1 1 0 1 1 0 2 1 1 0 0 1 0-2m14 0a1 1 0 1 1 0 2 1 1 0 0 1 0-2m14 0a1 1 0 1 1 0 2 1 1 0 0 1 0-2m14 0a1 1 0 1 1 0 2 1 1 0 0 1 0-2m14 0a1 1 0 1 1 0 2 1 1 0 0 1 0-2m14 0a1 1 0 1 1 0 2 1 1 0 0 1 0-2m14 0a1 1 0 1 1 0 2 1 1 0 0 1 0-2m14 0a1 1 0 1 1 0 2 1 1 0 0 1 0-2m14 0a1 1 0 1 1 0 2 1 1 0 0 1 0-2m14 0a1 1 0 1 1 0 2 1 1 0 0 1 0-2m14 0a1 1 0 1 1 0 2 1 1 0 0 1 0-2m14 0a1 1 0 1 1 0 2 1 1 0 0 1 0-2m14 0a1 1 0 1 1 0 2 1 1 0 0 1 0-2m14 0a1 1 0 1 1 0 2 1 1 0 0 1 0-2m14 0a1 1 0 1 1 0 2 1 1 0 0 1 0-2m14 0a1 1 0 1 1 0 2 1 1 0 0 1 0-2m14 0a1 1 0 1 1 0 2 1 1 0 0 1 0-2m14 0a1 1 0 1 1 0 2 1 1 0 0 1 0-2m14 0a1 1 0 1 1 0 2 1 1 0 0 1 0-2m14 0a1 1 0 1 1 0 2 1 1 0 0 1 0-2m14 0a1 1 0 1 1 0 2 1 1 0 0 1 0-2m14 0a1 1 0 1 1 0 2 1 1 0 0 1 0-2m14 0a1 1 0 1 1 0 2 1 1 0 0 1 0-2m14 0a1 1 0 1 1 0 2 1 1 0 0 1 0-2m14 0a1 1 0 1 1 0 2 1 1 0 0 1 0-2m14 0a1 1 0 1 1 0 2 1 1 0 0 1 0-2m14 0a1 1 0 1 1 0 2 1 1 0 0 1 0-2m14 0a1 1 0 1 1 0 2 1 1 0 0 1 0-2m14 0a1 1 0 1 1 0 2 1 1 0 0 1 0-2m14 0a1 1 0 1 1 0 2 1 1 0 0 1 0-2m14 0a1 1 0 1 1 0 2 1 1 0 0 1 0-2m14 0a1 1 0 1 1 0 2 1 1 0 0 1 0-2m14 0a1 1 0 1 1 0 2 1 1 0 0 1 0-2m14 0a1 1 0 1 1 0 2 1 1 0 0 1 0-2m14 0a1 1 0 1 1 0 2 1 1 0 0 1 0-2m14 0a1 1 0 1 1 0 2 1 1 0 0 1 0-2m14 0a1 1 0 1 1 0 2 1 1 0 0 1 0-2m14 0a1 1 0 1 1 0 2 1 1 0 0 1 0-2m14 0a1 1 0 1 1 0 2 1 1 0 0 1 0-2m14 0a1 1 0 1 1 0 2 1 1 0 0 1 0-2m-728-14a1 1 0 1 1 0 2 1 1 0 0 1 0-2m14 0a1 1 0 1 1 0 2 1 1 0 0 1 0-2m14 0a1 1 0 1 1 0 2 1 1 0 0 1 0-2m14 0a1 1 0 1 1 0 2 1 1 0 0 1 0-2m14 0a1 1 0 1 1 0 2 1 1 0 0 1 0-2m14 0a1 1 0 1 1 0 2 1 1 0 0 1 0-2m14 0a1 1 0 1 1 0 2 1 1 0 0 1 0-2m14 0a1 1 0 1 1 0 2 1 1 0 0 1 0-2m14 0a1 1 0 1 1 0 2 1 1 0 0 1 0-2m14 0a1 1 0 1 1 0 2 1 1 0 0 1 0-2m14 0a1 1 0 1 1 0 2 1 1 0 0 1 0-2m14 0a1 1 0 1 1 0 2 1 1 0 0 1 0-2m14 0a1 1 0 1 1 0 2 1 1 0 0 1 0-2m14 0a1 1 0 1 1 0 2 1 1 0 0 1 0-2m14 0a1 1 0 1 1 0 2 1 1 0 0 1 0-2m14 0a1 1 0 1 1 0 2 1 1 0 0 1 0-2m14 0a1 1 0 1 1 0 2 1 1 0 0 1 0-2m14 0a1 1 0 1 1 0 2 1 1 0 0 1 0-2m14 0a1 1 0 1 1 0 2 1 1 0 0 1 0-2m14 0a1 1 0 1 1 0 2 1 1 0 0 1 0-2m14 0a1 1 0 1 1 0 2 1 1 0 0 1 0-2m14 0a1 1 0 1 1 0 2 1 1 0 0 1 0-2m14 0a1 1 0 1 1 0 2 1 1 0 0 1 0-2m14 0a1 1 0 1 1 0 2 1 1 0 0 1 0-2m14 0a1 1 0 1 1 0 2 1 1 0 0 1 0-2m14 0a1 1 0 1 1 0 2 1 1 0 0 1 0-2m14 0a1 1 0 1 1 0 2 1 1 0 0 1 0-2m14 0a1 1 0 1 1 0 2 1 1 0 0 1 0-2m14 0a1 1 0 1 1 0 2 1 1 0 0 1 0-2m14 0a1 1 0 1 1 0 2 1 1 0 0 1 0-2m14 0a1 1 0 1 1 0 2 1 1 0 0 1 0-2m14 0a1 1 0 1 1 0 2 1 1 0 0 1 0-2m14 0a1 1 0 1 1 0 2 1 1 0 0 1 0-2m14 0a1 1 0 1 1 0 2 1 1 0 0 1 0-2m14 0a1 1 0 1 1 0 2 1 1 0 0 1 0-2m14 0a1 1 0 1 1 0 2 1 1 0 0 1 0-2m14 0a1 1 0 1 1 0 2 1 1 0 0 1 0-2m14 0a1 1 0 1 1 0 2 1 1 0 0 1 0-2m14 0a1 1 0 1 1 0 2 1 1 0 0 1 0-2m14 0a1 1 0 1 1 0 2 1 1 0 0 1 0-2m14 0a1 1 0 1 1 0 2 1 1 0 0 1 0-2m14 0a1 1 0 1 1 0 2 1 1 0 0 1 0-2m14 0a1 1 0 1 1 0 2 1 1 0 0 1 0-2m14 0a1 1 0 1 1 0 2 1 1 0 0 1 0-2m14 0a1 1 0 1 1 0 2 1 1 0 0 1 0-2m14 0a1 1 0 1 1 0 2 1 1 0 0 1 0-2m14 0a1 1 0 1 1 0 2 1 1 0 0 1 0-2m14 0a1 1 0 1 1 0 2 1 1 0 0 1 0-2m14 0a1 1 0 1 1 0 2 1 1 0 0 1 0-2m14 0a1 1 0 1 1 0 2 1 1 0 0 1 0-2m14 0a1 1 0 1 1 0 2 1 1 0 0 1 0-2m14 0a1 1 0 1 1 0 2 1 1 0 0 1 0-2m14 0a1 1 0 1 1 0 2 1 1 0 0 1 0-2m-728-14a1 1 0 1 1 0 2 1 1 0 0 1 0-2m14 0a1 1 0 1 1 0 2 1 1 0 0 1 0-2m14 0a1 1 0 1 1 0 2 1 1 0 0 1 0-2m14 0a1 1 0 1 1 0 2 1 1 0 0 1 0-2m14 0a1 1 0 1 1 0 2 1 1 0 0 1 0-2m14 0a1 1 0 1 1 0 2 1 1 0 0 1 0-2m14 0a1 1 0 1 1 0 2 1 1 0 0 1 0-2m14 0a1 1 0 1 1 0 2 1 1 0 0 1 0-2m14 0a1 1 0 1 1 0 2 1 1 0 0 1 0-2m14 0a1 1 0 1 1 0 2 1 1 0 0 1 0-2m14 0a1 1 0 1 1 0 2 1 1 0 0 1 0-2m14 0a1 1 0 1 1 0 2 1 1 0 0 1 0-2m14 0a1 1 0 1 1 0 2 1 1 0 0 1 0-2m14 0a1 1 0 1 1 0 2 1 1 0 0 1 0-2m14 0a1 1 0 1 1 0 2 1 1 0 0 1 0-2m14 0a1 1 0 1 1 0 2 1 1 0 0 1 0-2m14 0a1 1 0 1 1 0 2 1 1 0 0 1 0-2m14 0a1 1 0 1 1 0 2 1 1 0 0 1 0-2m14 0a1 1 0 1 1 0 2 1 1 0 0 1 0-2m14 0a1 1 0 1 1 0 2 1 1 0 0 1 0-2m14 0a1 1 0 1 1 0 2 1 1 0 0 1 0-2m14 0a1 1 0 1 1 0 2 1 1 0 0 1 0-2m14 0a1 1 0 1 1 0 2 1 1 0 0 1 0-2m14 0a1 1 0 1 1 0 2 1 1 0 0 1 0-2m14 0a1 1 0 1 1 0 2 1 1 0 0 1 0-2m14 0a1 1 0 1 1 0 2 1 1 0 0 1 0-2m14 0a1 1 0 1 1 0 2 1 1 0 0 1 0-2m14 0a1 1 0 1 1 0 2 1 1 0 0 1 0-2m14 0a1 1 0 1 1 0 2 1 1 0 0 1 0-2m14 0a1 1 0 1 1 0 2 1 1 0 0 1 0-2m14 0a1 1 0 1 1 0 2 1 1 0 0 1 0-2m14 0a1 1 0 1 1 0 2 1 1 0 0 1 0-2m14 0a1 1 0 1 1 0 2 1 1 0 0 1 0-2m14 0a1 1 0 1 1 0 2 1 1 0 0 1 0-2m14 0a1 1 0 1 1 0 2 1 1 0 0 1 0-2m14 0a1 1 0 1 1 0 2 1 1 0 0 1 0-2m14 0a1 1 0 1 1 0 2 1 1 0 0 1 0-2m14 0a1 1 0 1 1 0 2 1 1 0 0 1 0-2m14 0a1 1 0 1 1 0 2 1 1 0 0 1 0-2m14 0a1 1 0 1 1 0 2 1 1 0 0 1 0-2m14 0a1 1 0 1 1 0 2 1 1 0 0 1 0-2m14 0a1 1 0 1 1 0 2 1 1 0 0 1 0-2m14 0a1 1 0 1 1 0 2 1 1 0 0 1 0-2m14 0a1 1 0 1 1 0 2 1 1 0 0 1 0-2m14 0a1 1 0 1 1 0 2 1 1 0 0 1 0-2m14 0a1 1 0 1 1 0 2 1 1 0 0 1 0-2m14 0a1 1 0 1 1 0 2 1 1 0 0 1 0-2m14 0a1 1 0 1 1 0 2 1 1 0 0 1 0-2m14 0a1 1 0 1 1 0 2 1 1 0 0 1 0-2m14 0a1 1 0 1 1 0 2 1 1 0 0 1 0-2m14 0a1 1 0 1 1 0 2 1 1 0 0 1 0-2m14 0a1 1 0 1 1 0 2 1 1 0 0 1 0-2m14 0a1 1 0 1 1 0 2 1 1 0 0 1 0-2m-728-14a1 1 0 1 1 0 2 1 1 0 0 1 0-2m14 0a1 1 0 1 1 0 2 1 1 0 0 1 0-2m14 0a1 1 0 1 1 0 2 1 1 0 0 1 0-2m14 0a1 1 0 1 1 0 2 1 1 0 0 1 0-2m14 0a1 1 0 1 1 0 2 1 1 0 0 1 0-2m14 0a1 1 0 1 1 0 2 1 1 0 0 1 0-2m14 0a1 1 0 1 1 0 2 1 1 0 0 1 0-2m14 0a1 1 0 1 1 0 2 1 1 0 0 1 0-2m14 0a1 1 0 1 1 0 2 1 1 0 0 1 0-2m14 0a1 1 0 1 1 0 2 1 1 0 0 1 0-2m14 0a1 1 0 1 1 0 2 1 1 0 0 1 0-2m14 0a1 1 0 1 1 0 2 1 1 0 0 1 0-2m14 0a1 1 0 1 1 0 2 1 1 0 0 1 0-2m14 0a1 1 0 1 1 0 2 1 1 0 0 1 0-2m14 0a1 1 0 1 1 0 2 1 1 0 0 1 0-2m14 0a1 1 0 1 1 0 2 1 1 0 0 1 0-2m14 0a1 1 0 1 1 0 2 1 1 0 0 1 0-2m14 0a1 1 0 1 1 0 2 1 1 0 0 1 0-2m14 0a1 1 0 1 1 0 2 1 1 0 0 1 0-2m14 0a1 1 0 1 1 0 2 1 1 0 0 1 0-2m14 0a1 1 0 1 1 0 2 1 1 0 0 1 0-2m14 0a1 1 0 1 1 0 2 1 1 0 0 1 0-2m14 0a1 1 0 1 1 0 2 1 1 0 0 1 0-2m14 0a1 1 0 1 1 0 2 1 1 0 0 1 0-2m14 0a1 1 0 1 1 0 2 1 1 0 0 1 0-2m14 0a1 1 0 1 1 0 2 1 1 0 0 1 0-2m14 0a1 1 0 1 1 0 2 1 1 0 0 1 0-2m14 0a1 1 0 1 1 0 2 1 1 0 0 1 0-2m14 0a1 1 0 1 1 0 2 1 1 0 0 1 0-2m14 0a1 1 0 1 1 0 2 1 1 0 0 1 0-2m14 0a1 1 0 1 1 0 2 1 1 0 0 1 0-2m14 0a1 1 0 1 1 0 2 1 1 0 0 1 0-2m14 0a1 1 0 1 1 0 2 1 1 0 0 1 0-2m14 0a1 1 0 1 1 0 2 1 1 0 0 1 0-2m14 0a1 1 0 1 1 0 2 1 1 0 0 1 0-2m14 0a1 1 0 1 1 0 2 1 1 0 0 1 0-2m14 0a1 1 0 1 1 0 2 1 1 0 0 1 0-2m14 0a1 1 0 1 1 0 2 1 1 0 0 1 0-2m14 0a1 1 0 1 1 0 2 1 1 0 0 1 0-2m14 0a1 1 0 1 1 0 2 1 1 0 0 1 0-2m14 0a1 1 0 1 1 0 2 1 1 0 0 1 0-2m14 0a1 1 0 1 1 0 2 1 1 0 0 1 0-2m14 0a1 1 0 1 1 0 2 1 1 0 0 1 0-2m14 0a1 1 0 1 1 0 2 1 1 0 0 1 0-2m14 0a1 1 0 1 1 0 2 1 1 0 0 1 0-2m14 0a1 1 0 1 1 0 2 1 1 0 0 1 0-2m14 0a1 1 0 1 1 0 2 1 1 0 0 1 0-2m14 0a1 1 0 1 1 0 2 1 1 0 0 1 0-2m14 0a1 1 0 1 1 0 2 1 1 0 0 1 0-2m14 0a1 1 0 1 1 0 2 1 1 0 0 1 0-2m14 0a1 1 0 1 1 0 2 1 1 0 0 1 0-2m14 0a1 1 0 1 1 0 2 1 1 0 0 1 0-2m14 0a1 1 0 1 1 0 2 1 1 0 0 1 0-2m-728-14a1 1 0 1 1 0 2 1 1 0 0 1 0-2m14 0a1 1 0 1 1 0 2 1 1 0 0 1 0-2m14 0a1 1 0 1 1 0 2 1 1 0 0 1 0-2m14 0a1 1 0 1 1 0 2 1 1 0 0 1 0-2m14 0a1 1 0 1 1 0 2 1 1 0 0 1 0-2m14 0a1 1 0 1 1 0 2 1 1 0 0 1 0-2m14 0a1 1 0 1 1 0 2 1 1 0 0 1 0-2m14 0a1 1 0 1 1 0 2 1 1 0 0 1 0-2m14 0a1 1 0 1 1 0 2 1 1 0 0 1 0-2m14 0a1 1 0 1 1 0 2 1 1 0 0 1 0-2m14 0a1 1 0 1 1 0 2 1 1 0 0 1 0-2m14 0a1 1 0 1 1 0 2 1 1 0 0 1 0-2m14 0a1 1 0 1 1 0 2 1 1 0 0 1 0-2m14 0a1 1 0 1 1 0 2 1 1 0 0 1 0-2m14 0a1 1 0 1 1 0 2 1 1 0 0 1 0-2m14 0a1 1 0 1 1 0 2 1 1 0 0 1 0-2m14 0a1 1 0 1 1 0 2 1 1 0 0 1 0-2m14 0a1 1 0 1 1 0 2 1 1 0 0 1 0-2m14 0a1 1 0 1 1 0 2 1 1 0 0 1 0-2m14 0a1 1 0 1 1 0 2 1 1 0 0 1 0-2m14 0a1 1 0 1 1 0 2 1 1 0 0 1 0-2m14 0a1 1 0 1 1 0 2 1 1 0 0 1 0-2m14 0a1 1 0 1 1 0 2 1 1 0 0 1 0-2m14 0a1 1 0 1 1 0 2 1 1 0 0 1 0-2m14 0a1 1 0 1 1 0 2 1 1 0 0 1 0-2m14 0a1 1 0 1 1 0 2 1 1 0 0 1 0-2m14 0a1 1 0 1 1 0 2 1 1 0 0 1 0-2m14 0a1 1 0 1 1 0 2 1 1 0 0 1 0-2m14 0a1 1 0 1 1 0 2 1 1 0 0 1 0-2m14 0a1 1 0 1 1 0 2 1 1 0 0 1 0-2m14 0a1 1 0 1 1 0 2 1 1 0 0 1 0-2m14 0a1 1 0 1 1 0 2 1 1 0 0 1 0-2m14 0a1 1 0 1 1 0 2 1 1 0 0 1 0-2m14 0a1 1 0 1 1 0 2 1 1 0 0 1 0-2m14 0a1 1 0 1 1 0 2 1 1 0 0 1 0-2m14 0a1 1 0 1 1 0 2 1 1 0 0 1 0-2m14 0a1 1 0 1 1 0 2 1 1 0 0 1 0-2m14 0a1 1 0 1 1 0 2 1 1 0 0 1 0-2m14 0a1 1 0 1 1 0 2 1 1 0 0 1 0-2m14 0a1 1 0 1 1 0 2 1 1 0 0 1 0-2m14 0a1 1 0 1 1 0 2 1 1 0 0 1 0-2m14 0a1 1 0 1 1 0 2 1 1 0 0 1 0-2m14 0a1 1 0 1 1 0 2 1 1 0 0 1 0-2m14 0a1 1 0 1 1 0 2 1 1 0 0 1 0-2m14 0a1 1 0 1 1 0 2 1 1 0 0 1 0-2m14 0a1 1 0 1 1 0 2 1 1 0 0 1 0-2m14 0a1 1 0 1 1 0 2 1 1 0 0 1 0-2m14 0a1 1 0 1 1 0 2 1 1 0 0 1 0-2m14 0a1 1 0 1 1 0 2 1 1 0 0 1 0-2m14 0a1 1 0 1 1 0 2 1 1 0 0 1 0-2m14 0a1 1 0 1 1 0 2 1 1 0 0 1 0-2m14 0a1 1 0 1 1 0 2 1 1 0 0 1 0-2m14 0a1 1 0 1 1 0 2 1 1 0 0 1 0-2m-728-14a1 1 0 1 1 0 2 1 1 0 0 1 0-2m14 0a1 1 0 1 1 0 2 1 1 0 0 1 0-2m14 0a1 1 0 1 1 0 2 1 1 0 0 1 0-2m14 0a1 1 0 1 1 0 2 1 1 0 0 1 0-2m14 0a1 1 0 1 1 0 2 1 1 0 0 1 0-2m14 0a1 1 0 1 1 0 2 1 1 0 0 1 0-2m14 0a1 1 0 1 1 0 2 1 1 0 0 1 0-2m14 0a1 1 0 1 1 0 2 1 1 0 0 1 0-2m14 0a1 1 0 1 1 0 2 1 1 0 0 1 0-2m14 0a1 1 0 1 1 0 2 1 1 0 0 1 0-2m14 0a1 1 0 1 1 0 2 1 1 0 0 1 0-2m14 0a1 1 0 1 1 0 2 1 1 0 0 1 0-2m14 0a1 1 0 1 1 0 2 1 1 0 0 1 0-2m14 0a1 1 0 1 1 0 2 1 1 0 0 1 0-2m14 0a1 1 0 1 1 0 2 1 1 0 0 1 0-2m14 0a1 1 0 1 1 0 2 1 1 0 0 1 0-2m14 0a1 1 0 1 1 0 2 1 1 0 0 1 0-2m14 0a1 1 0 1 1 0 2 1 1 0 0 1 0-2m14 0a1 1 0 1 1 0 2 1 1 0 0 1 0-2m14 0a1 1 0 1 1 0 2 1 1 0 0 1 0-2m14 0a1 1 0 1 1 0 2 1 1 0 0 1 0-2m14 0a1 1 0 1 1 0 2 1 1 0 0 1 0-2m14 0a1 1 0 1 1 0 2 1 1 0 0 1 0-2m14 0a1 1 0 1 1 0 2 1 1 0 0 1 0-2m14 0a1 1 0 1 1 0 2 1 1 0 0 1 0-2m14 0a1 1 0 1 1 0 2 1 1 0 0 1 0-2m14 0a1 1 0 1 1 0 2 1 1 0 0 1 0-2m14 0a1 1 0 1 1 0 2 1 1 0 0 1 0-2m14 0a1 1 0 1 1 0 2 1 1 0 0 1 0-2m14 0a1 1 0 1 1 0 2 1 1 0 0 1 0-2m14 0a1 1 0 1 1 0 2 1 1 0 0 1 0-2m14 0a1 1 0 1 1 0 2 1 1 0 0 1 0-2m14 0a1 1 0 1 1 0 2 1 1 0 0 1 0-2m14 0a1 1 0 1 1 0 2 1 1 0 0 1 0-2m14 0a1 1 0 1 1 0 2 1 1 0 0 1 0-2m14 0a1 1 0 1 1 0 2 1 1 0 0 1 0-2m14 0a1 1 0 1 1 0 2 1 1 0 0 1 0-2m14 0a1 1 0 1 1 0 2 1 1 0 0 1 0-2m14 0a1 1 0 1 1 0 2 1 1 0 0 1 0-2m14 0a1 1 0 1 1 0 2 1 1 0 0 1 0-2m14 0a1 1 0 1 1 0 2 1 1 0 0 1 0-2m14 0a1 1 0 1 1 0 2 1 1 0 0 1 0-2m14 0a1 1 0 1 1 0 2 1 1 0 0 1 0-2m14 0a1 1 0 1 1 0 2 1 1 0 0 1 0-2m14 0a1 1 0 1 1 0 2 1 1 0 0 1 0-2m14 0a1 1 0 1 1 0 2 1 1 0 0 1 0-2m14 0a1 1 0 1 1 0 2 1 1 0 0 1 0-2m14 0a1 1 0 1 1 0 2 1 1 0 0 1 0-2m14 0a1 1 0 1 1 0 2 1 1 0 0 1 0-2m14 0a1 1 0 1 1 0 2 1 1 0 0 1 0-2m14 0a1 1 0 1 1 0 2 1 1 0 0 1 0-2m14 0a1 1 0 1 1 0 2 1 1 0 0 1 0-2m14 0a1 1 0 1 1 0 2 1 1 0 0 1 0-2m-728-14a1 1 0 1 1 0 2 1 1 0 0 1 0-2m14 0a1 1 0 1 1 0 2 1 1 0 0 1 0-2m14 0a1 1 0 1 1 0 2 1 1 0 0 1 0-2m14 0a1 1 0 1 1 0 2 1 1 0 0 1 0-2m14 0a1 1 0 1 1 0 2 1 1 0 0 1 0-2m14 0a1 1 0 1 1 0 2 1 1 0 0 1 0-2m14 0a1 1 0 1 1 0 2 1 1 0 0 1 0-2m14 0a1 1 0 1 1 0 2 1 1 0 0 1 0-2m14 0a1 1 0 1 1 0 2 1 1 0 0 1 0-2m14 0a1 1 0 1 1 0 2 1 1 0 0 1 0-2m14 0a1 1 0 1 1 0 2 1 1 0 0 1 0-2m14 0a1 1 0 1 1 0 2 1 1 0 0 1 0-2m14 0a1 1 0 1 1 0 2 1 1 0 0 1 0-2m14 0a1 1 0 1 1 0 2 1 1 0 0 1 0-2m14 0a1 1 0 1 1 0 2 1 1 0 0 1 0-2m14 0a1 1 0 1 1 0 2 1 1 0 0 1 0-2m14 0a1 1 0 1 1 0 2 1 1 0 0 1 0-2m14 0a1 1 0 1 1 0 2 1 1 0 0 1 0-2m14 0a1 1 0 1 1 0 2 1 1 0 0 1 0-2m14 0a1 1 0 1 1 0 2 1 1 0 0 1 0-2m14 0a1 1 0 1 1 0 2 1 1 0 0 1 0-2m14 0a1 1 0 1 1 0 2 1 1 0 0 1 0-2m14 0a1 1 0 1 1 0 2 1 1 0 0 1 0-2m14 0a1 1 0 1 1 0 2 1 1 0 0 1 0-2m14 0a1 1 0 1 1 0 2 1 1 0 0 1 0-2m14 0a1 1 0 1 1 0 2 1 1 0 0 1 0-2m14 0a1 1 0 1 1 0 2 1 1 0 0 1 0-2m14 0a1 1 0 1 1 0 2 1 1 0 0 1 0-2m14 0a1 1 0 1 1 0 2 1 1 0 0 1 0-2m14 0a1 1 0 1 1 0 2 1 1 0 0 1 0-2m14 0a1 1 0 1 1 0 2 1 1 0 0 1 0-2m14 0a1 1 0 1 1 0 2 1 1 0 0 1 0-2m14 0a1 1 0 1 1 0 2 1 1 0 0 1 0-2m14 0a1 1 0 1 1 0 2 1 1 0 0 1 0-2m14 0a1 1 0 1 1 0 2 1 1 0 0 1 0-2m14 0a1 1 0 1 1 0 2 1 1 0 0 1 0-2m14 0a1 1 0 1 1 0 2 1 1 0 0 1 0-2m14 0a1 1 0 1 1 0 2 1 1 0 0 1 0-2m14 0a1 1 0 1 1 0 2 1 1 0 0 1 0-2m14 0a1 1 0 1 1 0 2 1 1 0 0 1 0-2m14 0a1 1 0 1 1 0 2 1 1 0 0 1 0-2m14 0a1 1 0 1 1 0 2 1 1 0 0 1 0-2m14 0a1 1 0 1 1 0 2 1 1 0 0 1 0-2m14 0a1 1 0 1 1 0 2 1 1 0 0 1 0-2m14 0a1 1 0 1 1 0 2 1 1 0 0 1 0-2m14 0a1 1 0 1 1 0 2 1 1 0 0 1 0-2m14 0a1 1 0 1 1 0 2 1 1 0 0 1 0-2m14 0a1 1 0 1 1 0 2 1 1 0 0 1 0-2m14 0a1 1 0 1 1 0 2 1 1 0 0 1 0-2m14 0a1 1 0 1 1 0 2 1 1 0 0 1 0-2m14 0a1 1 0 1 1 0 2 1 1 0 0 1 0-2m14 0a1 1 0 1 1 0 2 1 1 0 0 1 0-2m14 0a1 1 0 1 1 0 2 1 1 0 0 1 0-2m-728-14a1 1 0 1 1 0 2 1 1 0 0 1 0-2m14 0a1 1 0 1 1 0 2 1 1 0 0 1 0-2m14 0a1 1 0 1 1 0 2 1 1 0 0 1 0-2m14 0a1 1 0 1 1 0 2 1 1 0 0 1 0-2m14 0a1 1 0 1 1 0 2 1 1 0 0 1 0-2m14 0a1 1 0 1 1 0 2 1 1 0 0 1 0-2m14 0a1 1 0 1 1 0 2 1 1 0 0 1 0-2m14 0a1 1 0 1 1 0 2 1 1 0 0 1 0-2m14 0a1 1 0 1 1 0 2 1 1 0 0 1 0-2m14 0a1 1 0 1 1 0 2 1 1 0 0 1 0-2m14 0a1 1 0 1 1 0 2 1 1 0 0 1 0-2m14 0a1 1 0 1 1 0 2 1 1 0 0 1 0-2m14 0a1 1 0 1 1 0 2 1 1 0 0 1 0-2m14 0a1 1 0 1 1 0 2 1 1 0 0 1 0-2m14 0a1 1 0 1 1 0 2 1 1 0 0 1 0-2m14 0a1 1 0 1 1 0 2 1 1 0 0 1 0-2m14 0a1 1 0 1 1 0 2 1 1 0 0 1 0-2m14 0a1 1 0 1 1 0 2 1 1 0 0 1 0-2m14 0a1 1 0 1 1 0 2 1 1 0 0 1 0-2m14 0a1 1 0 1 1 0 2 1 1 0 0 1 0-2m14 0a1 1 0 1 1 0 2 1 1 0 0 1 0-2m14 0a1 1 0 1 1 0 2 1 1 0 0 1 0-2m14 0a1 1 0 1 1 0 2 1 1 0 0 1 0-2m14 0a1 1 0 1 1 0 2 1 1 0 0 1 0-2m14 0a1 1 0 1 1 0 2 1 1 0 0 1 0-2m14 0a1 1 0 1 1 0 2 1 1 0 0 1 0-2m14 0a1 1 0 1 1 0 2 1 1 0 0 1 0-2m14 0a1 1 0 1 1 0 2 1 1 0 0 1 0-2m14 0a1 1 0 1 1 0 2 1 1 0 0 1 0-2m14 0a1 1 0 1 1 0 2 1 1 0 0 1 0-2m14 0a1 1 0 1 1 0 2 1 1 0 0 1 0-2m14 0a1 1 0 1 1 0 2 1 1 0 0 1 0-2m14 0a1 1 0 1 1 0 2 1 1 0 0 1 0-2m14 0a1 1 0 1 1 0 2 1 1 0 0 1 0-2m14 0a1 1 0 1 1 0 2 1 1 0 0 1 0-2m14 0a1 1 0 1 1 0 2 1 1 0 0 1 0-2m14 0a1 1 0 1 1 0 2 1 1 0 0 1 0-2m14 0a1 1 0 1 1 0 2 1 1 0 0 1 0-2m14 0a1 1 0 1 1 0 2 1 1 0 0 1 0-2m14 0a1 1 0 1 1 0 2 1 1 0 0 1 0-2m14 0a1 1 0 1 1 0 2 1 1 0 0 1 0-2m14 0a1 1 0 1 1 0 2 1 1 0 0 1 0-2m14 0a1 1 0 1 1 0 2 1 1 0 0 1 0-2m14 0a1 1 0 1 1 0 2 1 1 0 0 1 0-2m14 0a1 1 0 1 1 0 2 1 1 0 0 1 0-2m14 0a1 1 0 1 1 0 2 1 1 0 0 1 0-2m14 0a1 1 0 1 1 0 2 1 1 0 0 1 0-2m14 0a1 1 0 1 1 0 2 1 1 0 0 1 0-2m14 0a1 1 0 1 1 0 2 1 1 0 0 1 0-2m14 0a1 1 0 1 1 0 2 1 1 0 0 1 0-2m14 0a1 1 0 1 1 0 2 1 1 0 0 1 0-2m14 0a1 1 0 1 1 0 2 1 1 0 0 1 0-2m14 0a1 1 0 1 1 0 2 1 1 0 0 1 0-2m-728-14a1 1 0 1 1 0 2 1 1 0 0 1 0-2m14 0a1 1 0 1 1 0 2 1 1 0 0 1 0-2m14 0a1 1 0 1 1 0 2 1 1 0 0 1 0-2m14 0a1 1 0 1 1 0 2 1 1 0 0 1 0-2m14 0a1 1 0 1 1 0 2 1 1 0 0 1 0-2m14 0a1 1 0 1 1 0 2 1 1 0 0 1 0-2m14 0a1 1 0 1 1 0 2 1 1 0 0 1 0-2m14 0a1 1 0 1 1 0 2 1 1 0 0 1 0-2m14 0a1 1 0 1 1 0 2 1 1 0 0 1 0-2m14 0a1 1 0 1 1 0 2 1 1 0 0 1 0-2m14 0a1 1 0 1 1 0 2 1 1 0 0 1 0-2m14 0a1 1 0 1 1 0 2 1 1 0 0 1 0-2m14 0a1 1 0 1 1 0 2 1 1 0 0 1 0-2m14 0a1 1 0 1 1 0 2 1 1 0 0 1 0-2m14 0a1 1 0 1 1 0 2 1 1 0 0 1 0-2m14 0a1 1 0 1 1 0 2 1 1 0 0 1 0-2m14 0a1 1 0 1 1 0 2 1 1 0 0 1 0-2m14 0a1 1 0 1 1 0 2 1 1 0 0 1 0-2m14 0a1 1 0 1 1 0 2 1 1 0 0 1 0-2m14 0a1 1 0 1 1 0 2 1 1 0 0 1 0-2m14 0a1 1 0 1 1 0 2 1 1 0 0 1 0-2m14 0a1 1 0 1 1 0 2 1 1 0 0 1 0-2m14 0a1 1 0 1 1 0 2 1 1 0 0 1 0-2m14 0a1 1 0 1 1 0 2 1 1 0 0 1 0-2m14 0a1 1 0 1 1 0 2 1 1 0 0 1 0-2m14 0a1 1 0 1 1 0 2 1 1 0 0 1 0-2m14 0a1 1 0 1 1 0 2 1 1 0 0 1 0-2m14 0a1 1 0 1 1 0 2 1 1 0 0 1 0-2m14 0a1 1 0 1 1 0 2 1 1 0 0 1 0-2m14 0a1 1 0 1 1 0 2 1 1 0 0 1 0-2m14 0a1 1 0 1 1 0 2 1 1 0 0 1 0-2m14 0a1 1 0 1 1 0 2 1 1 0 0 1 0-2m14 0a1 1 0 1 1 0 2 1 1 0 0 1 0-2m14 0a1 1 0 1 1 0 2 1 1 0 0 1 0-2m14 0a1 1 0 1 1 0 2 1 1 0 0 1 0-2m14 0a1 1 0 1 1 0 2 1 1 0 0 1 0-2m14 0a1 1 0 1 1 0 2 1 1 0 0 1 0-2m14 0a1 1 0 1 1 0 2 1 1 0 0 1 0-2m14 0a1 1 0 1 1 0 2 1 1 0 0 1 0-2m14 0a1 1 0 1 1 0 2 1 1 0 0 1 0-2m14 0a1 1 0 1 1 0 2 1 1 0 0 1 0-2m14 0a1 1 0 1 1 0 2 1 1 0 0 1 0-2m14 0a1 1 0 1 1 0 2 1 1 0 0 1 0-2m14 0a1 1 0 1 1 0 2 1 1 0 0 1 0-2m14 0a1 1 0 1 1 0 2 1 1 0 0 1 0-2m14 0a1 1 0 1 1 0 2 1 1 0 0 1 0-2m14 0a1 1 0 1 1 0 2 1 1 0 0 1 0-2m14 0a1 1 0 1 1 0 2 1 1 0 0 1 0-2m14 0a1 1 0 1 1 0 2 1 1 0 0 1 0-2m14 0a1 1 0 1 1 0 2 1 1 0 0 1 0-2m14 0a1 1 0 1 1 0 2 1 1 0 0 1 0-2m14 0a1 1 0 1 1 0 2 1 1 0 0 1 0-2m14 0a1 1 0 1 1 0 2 1 1 0 0 1 0-2M-11 86a1 1 0 1 1 0 2 1 1 0 0 1 0-2m14 0a1 1 0 1 1 0 2 1 1 0 0 1 0-2m14 0a1 1 0 1 1 0 2 1 1 0 0 1 0-2m14 0a1 1 0 1 1 0 2 1 1 0 0 1 0-2m14 0a1 1 0 1 1 0 2 1 1 0 0 1 0-2m14 0a1 1 0 1 1 0 2 1 1 0 0 1 0-2m14 0a1 1 0 1 1 0 2 1 1 0 0 1 0-2m14 0a1 1 0 1 1 0 2 1 1 0 0 1 0-2m14 0a1 1 0 1 1 0 2 1 1 0 0 1 0-2m14 0a1 1 0 1 1 0 2 1 1 0 0 1 0-2m14 0a1 1 0 1 1 0 2 1 1 0 0 1 0-2m14 0a1 1 0 1 1 0 2 1 1 0 0 1 0-2m14 0a1 1 0 1 1 0 2 1 1 0 0 1 0-2m14 0a1 1 0 1 1 0 2 1 1 0 0 1 0-2m14 0a1 1 0 1 1 0 2 1 1 0 0 1 0-2m14 0a1 1 0 1 1 0 2 1 1 0 0 1 0-2m14 0a1 1 0 1 1 0 2 1 1 0 0 1 0-2m14 0a1 1 0 1 1 0 2 1 1 0 0 1 0-2m14 0a1 1 0 1 1 0 2 1 1 0 0 1 0-2m14 0a1 1 0 1 1 0 2 1 1 0 0 1 0-2m14 0a1 1 0 1 1 0 2 1 1 0 0 1 0-2m14 0a1 1 0 1 1 0 2 1 1 0 0 1 0-2m14 0a1 1 0 1 1 0 2 1 1 0 0 1 0-2m14 0a1 1 0 1 1 0 2 1 1 0 0 1 0-2m14 0a1 1 0 1 1 0 2 1 1 0 0 1 0-2m14 0a1 1 0 1 1 0 2 1 1 0 0 1 0-2m14 0a1 1 0 1 1 0 2 1 1 0 0 1 0-2m14 0a1 1 0 1 1 0 2 1 1 0 0 1 0-2m14 0a1 1 0 1 1 0 2 1 1 0 0 1 0-2m14 0a1 1 0 1 1 0 2 1 1 0 0 1 0-2m14 0a1 1 0 1 1 0 2 1 1 0 0 1 0-2m14 0a1 1 0 1 1 0 2 1 1 0 0 1 0-2m14 0a1 1 0 1 1 0 2 1 1 0 0 1 0-2m14 0a1 1 0 1 1 0 2 1 1 0 0 1 0-2m14 0a1 1 0 1 1 0 2 1 1 0 0 1 0-2m14 0a1 1 0 1 1 0 2 1 1 0 0 1 0-2m14 0a1 1 0 1 1 0 2 1 1 0 0 1 0-2m14 0a1 1 0 1 1 0 2 1 1 0 0 1 0-2m14 0a1 1 0 1 1 0 2 1 1 0 0 1 0-2m14 0a1 1 0 1 1 0 2 1 1 0 0 1 0-2m14 0a1 1 0 1 1 0 2 1 1 0 0 1 0-2m14 0a1 1 0 1 1 0 2 1 1 0 0 1 0-2m14 0a1 1 0 1 1 0 2 1 1 0 0 1 0-2m14 0a1 1 0 1 1 0 2 1 1 0 0 1 0-2m14 0a1 1 0 1 1 0 2 1 1 0 0 1 0-2m14 0a1 1 0 1 1 0 2 1 1 0 0 1 0-2m14 0a1 1 0 1 1 0 2 1 1 0 0 1 0-2m14 0a1 1 0 1 1 0 2 1 1 0 0 1 0-2m14 0a1 1 0 1 1 0 2 1 1 0 0 1 0-2m14 0a1 1 0 1 1 0 2 1 1 0 0 1 0-2m14 0a1 1 0 1 1 0 2 1 1 0 0 1 0-2m14 0a1 1 0 1 1 0 2 1 1 0 0 1 0-2m14 0a1 1 0 1 1 0 2 1 1 0 0 1 0-2M-11 72a1 1 0 1 1 0 2 1 1 0 0 1 0-2m14 0a1 1 0 1 1 0 2 1 1 0 0 1 0-2m14 0a1 1 0 1 1 0 2 1 1 0 0 1 0-2m14 0a1 1 0 1 1 0 2 1 1 0 0 1 0-2m14 0a1 1 0 1 1 0 2 1 1 0 0 1 0-2m14 0a1 1 0 1 1 0 2 1 1 0 0 1 0-2m14 0a1 1 0 1 1 0 2 1 1 0 0 1 0-2m14 0a1 1 0 1 1 0 2 1 1 0 0 1 0-2m14 0a1 1 0 1 1 0 2 1 1 0 0 1 0-2m14 0a1 1 0 1 1 0 2 1 1 0 0 1 0-2m14 0a1 1 0 1 1 0 2 1 1 0 0 1 0-2m14 0a1 1 0 1 1 0 2 1 1 0 0 1 0-2m14 0a1 1 0 1 1 0 2 1 1 0 0 1 0-2m14 0a1 1 0 1 1 0 2 1 1 0 0 1 0-2m14 0a1 1 0 1 1 0 2 1 1 0 0 1 0-2m14 0a1 1 0 1 1 0 2 1 1 0 0 1 0-2m14 0a1 1 0 1 1 0 2 1 1 0 0 1 0-2m14 0a1 1 0 1 1 0 2 1 1 0 0 1 0-2m14 0a1 1 0 1 1 0 2 1 1 0 0 1 0-2m14 0a1 1 0 1 1 0 2 1 1 0 0 1 0-2m14 0a1 1 0 1 1 0 2 1 1 0 0 1 0-2m14 0a1 1 0 1 1 0 2 1 1 0 0 1 0-2m14 0a1 1 0 1 1 0 2 1 1 0 0 1 0-2m14 0a1 1 0 1 1 0 2 1 1 0 0 1 0-2m14 0a1 1 0 1 1 0 2 1 1 0 0 1 0-2m14 0a1 1 0 1 1 0 2 1 1 0 0 1 0-2m14 0a1 1 0 1 1 0 2 1 1 0 0 1 0-2m14 0a1 1 0 1 1 0 2 1 1 0 0 1 0-2m14 0a1 1 0 1 1 0 2 1 1 0 0 1 0-2m14 0a1 1 0 1 1 0 2 1 1 0 0 1 0-2m14 0a1 1 0 1 1 0 2 1 1 0 0 1 0-2m14 0a1 1 0 1 1 0 2 1 1 0 0 1 0-2m14 0a1 1 0 1 1 0 2 1 1 0 0 1 0-2m14 0a1 1 0 1 1 0 2 1 1 0 0 1 0-2m14 0a1 1 0 1 1 0 2 1 1 0 0 1 0-2m14 0a1 1 0 1 1 0 2 1 1 0 0 1 0-2m14 0a1 1 0 1 1 0 2 1 1 0 0 1 0-2m14 0a1 1 0 1 1 0 2 1 1 0 0 1 0-2m14 0a1 1 0 1 1 0 2 1 1 0 0 1 0-2m14 0a1 1 0 1 1 0 2 1 1 0 0 1 0-2m14 0a1 1 0 1 1 0 2 1 1 0 0 1 0-2m14 0a1 1 0 1 1 0 2 1 1 0 0 1 0-2m14 0a1 1 0 1 1 0 2 1 1 0 0 1 0-2m14 0a1 1 0 1 1 0 2 1 1 0 0 1 0-2m14 0a1 1 0 1 1 0 2 1 1 0 0 1 0-2m14 0a1 1 0 1 1 0 2 1 1 0 0 1 0-2m14 0a1 1 0 1 1 0 2 1 1 0 0 1 0-2m14 0a1 1 0 1 1 0 2 1 1 0 0 1 0-2m14 0a1 1 0 1 1 0 2 1 1 0 0 1 0-2m14 0a1 1 0 1 1 0 2 1 1 0 0 1 0-2m14 0a1 1 0 1 1 0 2 1 1 0 0 1 0-2m14 0a1 1 0 1 1 0 2 1 1 0 0 1 0-2m14 0a1 1 0 1 1 0 2 1 1 0 0 1 0-2M-11 58a1 1 0 1 1 0 2 1 1 0 0 1 0-2m14 0a1 1 0 1 1 0 2 1 1 0 0 1 0-2m14 0a1 1 0 1 1 0 2 1 1 0 0 1 0-2m14 0a1 1 0 1 1 0 2 1 1 0 0 1 0-2m14 0a1 1 0 1 1 0 2 1 1 0 0 1 0-2m14 0a1 1 0 1 1 0 2 1 1 0 0 1 0-2m14 0a1 1 0 1 1 0 2 1 1 0 0 1 0-2m14 0a1 1 0 1 1 0 2 1 1 0 0 1 0-2m14 0a1 1 0 1 1 0 2 1 1 0 0 1 0-2m14 0a1 1 0 1 1 0 2 1 1 0 0 1 0-2m14 0a1 1 0 1 1 0 2 1 1 0 0 1 0-2m14 0a1 1 0 1 1 0 2 1 1 0 0 1 0-2m14 0a1 1 0 1 1 0 2 1 1 0 0 1 0-2m14 0a1 1 0 1 1 0 2 1 1 0 0 1 0-2m14 0a1 1 0 1 1 0 2 1 1 0 0 1 0-2m14 0a1 1 0 1 1 0 2 1 1 0 0 1 0-2m14 0a1 1 0 1 1 0 2 1 1 0 0 1 0-2m14 0a1 1 0 1 1 0 2 1 1 0 0 1 0-2m14 0a1 1 0 1 1 0 2 1 1 0 0 1 0-2m14 0a1 1 0 1 1 0 2 1 1 0 0 1 0-2m14 0a1 1 0 1 1 0 2 1 1 0 0 1 0-2m14 0a1 1 0 1 1 0 2 1 1 0 0 1 0-2m14 0a1 1 0 1 1 0 2 1 1 0 0 1 0-2m14 0a1 1 0 1 1 0 2 1 1 0 0 1 0-2m14 0a1 1 0 1 1 0 2 1 1 0 0 1 0-2m14 0a1 1 0 1 1 0 2 1 1 0 0 1 0-2m14 0a1 1 0 1 1 0 2 1 1 0 0 1 0-2m14 0a1 1 0 1 1 0 2 1 1 0 0 1 0-2m14 0a1 1 0 1 1 0 2 1 1 0 0 1 0-2m14 0a1 1 0 1 1 0 2 1 1 0 0 1 0-2m14 0a1 1 0 1 1 0 2 1 1 0 0 1 0-2m14 0a1 1 0 1 1 0 2 1 1 0 0 1 0-2m14 0a1 1 0 1 1 0 2 1 1 0 0 1 0-2m14 0a1 1 0 1 1 0 2 1 1 0 0 1 0-2m14 0a1 1 0 1 1 0 2 1 1 0 0 1 0-2m14 0a1 1 0 1 1 0 2 1 1 0 0 1 0-2m14 0a1 1 0 1 1 0 2 1 1 0 0 1 0-2m14 0a1 1 0 1 1 0 2 1 1 0 0 1 0-2m14 0a1 1 0 1 1 0 2 1 1 0 0 1 0-2m14 0a1 1 0 1 1 0 2 1 1 0 0 1 0-2m14 0a1 1 0 1 1 0 2 1 1 0 0 1 0-2m14 0a1 1 0 1 1 0 2 1 1 0 0 1 0-2m14 0a1 1 0 1 1 0 2 1 1 0 0 1 0-2m14 0a1 1 0 1 1 0 2 1 1 0 0 1 0-2m14 0a1 1 0 1 1 0 2 1 1 0 0 1 0-2m14 0a1 1 0 1 1 0 2 1 1 0 0 1 0-2m14 0a1 1 0 1 1 0 2 1 1 0 0 1 0-2m14 0a1 1 0 1 1 0 2 1 1 0 0 1 0-2m14 0a1 1 0 1 1 0 2 1 1 0 0 1 0-2m14 0a1 1 0 1 1 0 2 1 1 0 0 1 0-2m14 0a1 1 0 1 1 0 2 1 1 0 0 1 0-2m14 0a1 1 0 1 1 0 2 1 1 0 0 1 0-2m14 0a1 1 0 1 1 0 2 1 1 0 0 1 0-2M-11 44a1 1 0 1 1 0 2 1 1 0 0 1 0-2m14 0a1 1 0 1 1 0 2 1 1 0 0 1 0-2m14 0a1 1 0 1 1 0 2 1 1 0 0 1 0-2m14 0a1 1 0 1 1 0 2 1 1 0 0 1 0-2m14 0a1 1 0 1 1 0 2 1 1 0 0 1 0-2m14 0a1 1 0 1 1 0 2 1 1 0 0 1 0-2m14 0a1 1 0 1 1 0 2 1 1 0 0 1 0-2m14 0a1 1 0 1 1 0 2 1 1 0 0 1 0-2m14 0a1 1 0 1 1 0 2 1 1 0 0 1 0-2m14 0a1 1 0 1 1 0 2 1 1 0 0 1 0-2m14 0a1 1 0 1 1 0 2 1 1 0 0 1 0-2m14 0a1 1 0 1 1 0 2 1 1 0 0 1 0-2m14 0a1 1 0 1 1 0 2 1 1 0 0 1 0-2m14 0a1 1 0 1 1 0 2 1 1 0 0 1 0-2m14 0a1 1 0 1 1 0 2 1 1 0 0 1 0-2m14 0a1 1 0 1 1 0 2 1 1 0 0 1 0-2m14 0a1 1 0 1 1 0 2 1 1 0 0 1 0-2m14 0a1 1 0 1 1 0 2 1 1 0 0 1 0-2m14 0a1 1 0 1 1 0 2 1 1 0 0 1 0-2m14 0a1 1 0 1 1 0 2 1 1 0 0 1 0-2m14 0a1 1 0 1 1 0 2 1 1 0 0 1 0-2m14 0a1 1 0 1 1 0 2 1 1 0 0 1 0-2m14 0a1 1 0 1 1 0 2 1 1 0 0 1 0-2m14 0a1 1 0 1 1 0 2 1 1 0 0 1 0-2m14 0a1 1 0 1 1 0 2 1 1 0 0 1 0-2m14 0a1 1 0 1 1 0 2 1 1 0 0 1 0-2m14 0a1 1 0 1 1 0 2 1 1 0 0 1 0-2m14 0a1 1 0 1 1 0 2 1 1 0 0 1 0-2m14 0a1 1 0 1 1 0 2 1 1 0 0 1 0-2m14 0a1 1 0 1 1 0 2 1 1 0 0 1 0-2m14 0a1 1 0 1 1 0 2 1 1 0 0 1 0-2m14 0a1 1 0 1 1 0 2 1 1 0 0 1 0-2m14 0a1 1 0 1 1 0 2 1 1 0 0 1 0-2m14 0a1 1 0 1 1 0 2 1 1 0 0 1 0-2m14 0a1 1 0 1 1 0 2 1 1 0 0 1 0-2m14 0a1 1 0 1 1 0 2 1 1 0 0 1 0-2m14 0a1 1 0 1 1 0 2 1 1 0 0 1 0-2m14 0a1 1 0 1 1 0 2 1 1 0 0 1 0-2m14 0a1 1 0 1 1 0 2 1 1 0 0 1 0-2m14 0a1 1 0 1 1 0 2 1 1 0 0 1 0-2m14 0a1 1 0 1 1 0 2 1 1 0 0 1 0-2m14 0a1 1 0 1 1 0 2 1 1 0 0 1 0-2m14 0a1 1 0 1 1 0 2 1 1 0 0 1 0-2m14 0a1 1 0 1 1 0 2 1 1 0 0 1 0-2m14 0a1 1 0 1 1 0 2 1 1 0 0 1 0-2m14 0a1 1 0 1 1 0 2 1 1 0 0 1 0-2m14 0a1 1 0 1 1 0 2 1 1 0 0 1 0-2m14 0a1 1 0 1 1 0 2 1 1 0 0 1 0-2m14 0a1 1 0 1 1 0 2 1 1 0 0 1 0-2m14 0a1 1 0 1 1 0 2 1 1 0 0 1 0-2m14 0a1 1 0 1 1 0 2 1 1 0 0 1 0-2m14 0a1 1 0 1 1 0 2 1 1 0 0 1 0-2m14 0a1 1 0 1 1 0 2 1 1 0 0 1 0-2M-11 30a1 1 0 1 1 0 2 1 1 0 0 1 0-2m14 0a1 1 0 1 1 0 2 1 1 0 0 1 0-2m14 0a1 1 0 1 1 0 2 1 1 0 0 1 0-2m14 0a1 1 0 1 1 0 2 1 1 0 0 1 0-2m14 0a1 1 0 1 1 0 2 1 1 0 0 1 0-2m14 0a1 1 0 1 1 0 2 1 1 0 0 1 0-2m14 0a1 1 0 1 1 0 2 1 1 0 0 1 0-2m14 0a1 1 0 1 1 0 2 1 1 0 0 1 0-2m14 0a1 1 0 1 1 0 2 1 1 0 0 1 0-2m14 0a1 1 0 1 1 0 2 1 1 0 0 1 0-2m14 0a1 1 0 1 1 0 2 1 1 0 0 1 0-2m14 0a1 1 0 1 1 0 2 1 1 0 0 1 0-2m14 0a1 1 0 1 1 0 2 1 1 0 0 1 0-2m14 0a1 1 0 1 1 0 2 1 1 0 0 1 0-2m14 0a1 1 0 1 1 0 2 1 1 0 0 1 0-2m14 0a1 1 0 1 1 0 2 1 1 0 0 1 0-2m14 0a1 1 0 1 1 0 2 1 1 0 0 1 0-2m14 0a1 1 0 1 1 0 2 1 1 0 0 1 0-2m14 0a1 1 0 1 1 0 2 1 1 0 0 1 0-2m14 0a1 1 0 1 1 0 2 1 1 0 0 1 0-2m14 0a1 1 0 1 1 0 2 1 1 0 0 1 0-2m14 0a1 1 0 1 1 0 2 1 1 0 0 1 0-2m14 0a1 1 0 1 1 0 2 1 1 0 0 1 0-2m14 0a1 1 0 1 1 0 2 1 1 0 0 1 0-2m14 0a1 1 0 1 1 0 2 1 1 0 0 1 0-2m14 0a1 1 0 1 1 0 2 1 1 0 0 1 0-2m14 0a1 1 0 1 1 0 2 1 1 0 0 1 0-2m14 0a1 1 0 1 1 0 2 1 1 0 0 1 0-2m14 0a1 1 0 1 1 0 2 1 1 0 0 1 0-2m14 0a1 1 0 1 1 0 2 1 1 0 0 1 0-2m14 0a1 1 0 1 1 0 2 1 1 0 0 1 0-2m14 0a1 1 0 1 1 0 2 1 1 0 0 1 0-2m14 0a1 1 0 1 1 0 2 1 1 0 0 1 0-2m14 0a1 1 0 1 1 0 2 1 1 0 0 1 0-2m14 0a1 1 0 1 1 0 2 1 1 0 0 1 0-2m14 0a1 1 0 1 1 0 2 1 1 0 0 1 0-2m14 0a1 1 0 1 1 0 2 1 1 0 0 1 0-2m14 0a1 1 0 1 1 0 2 1 1 0 0 1 0-2m14 0a1 1 0 1 1 0 2 1 1 0 0 1 0-2m14 0a1 1 0 1 1 0 2 1 1 0 0 1 0-2m14 0a1 1 0 1 1 0 2 1 1 0 0 1 0-2m14 0a1 1 0 1 1 0 2 1 1 0 0 1 0-2m14 0a1 1 0 1 1 0 2 1 1 0 0 1 0-2m14 0a1 1 0 1 1 0 2 1 1 0 0 1 0-2m14 0a1 1 0 1 1 0 2 1 1 0 0 1 0-2m14 0a1 1 0 1 1 0 2 1 1 0 0 1 0-2m14 0a1 1 0 1 1 0 2 1 1 0 0 1 0-2m14 0a1 1 0 1 1 0 2 1 1 0 0 1 0-2m14 0a1 1 0 1 1 0 2 1 1 0 0 1 0-2m14 0a1 1 0 1 1 0 2 1 1 0 0 1 0-2m14 0a1 1 0 1 1 0 2 1 1 0 0 1 0-2m14 0a1 1 0 1 1 0 2 1 1 0 0 1 0-2m14 0a1 1 0 1 1 0 2 1 1 0 0 1 0-2M-11 16a1 1 0 1 1 0 2 1 1 0 0 1 0-2m14 0a1 1 0 1 1 0 2 1 1 0 0 1 0-2m14 0a1 1 0 1 1 0 2 1 1 0 0 1 0-2m14 0a1 1 0 1 1 0 2 1 1 0 0 1 0-2m14 0a1 1 0 1 1 0 2 1 1 0 0 1 0-2m14 0a1 1 0 1 1 0 2 1 1 0 0 1 0-2m14 0a1 1 0 1 1 0 2 1 1 0 0 1 0-2m14 0a1 1 0 1 1 0 2 1 1 0 0 1 0-2m14 0a1 1 0 1 1 0 2 1 1 0 0 1 0-2m14 0a1 1 0 1 1 0 2 1 1 0 0 1 0-2m14 0a1 1 0 1 1 0 2 1 1 0 0 1 0-2m14 0a1 1 0 1 1 0 2 1 1 0 0 1 0-2m14 0a1 1 0 1 1 0 2 1 1 0 0 1 0-2m14 0a1 1 0 1 1 0 2 1 1 0 0 1 0-2m14 0a1 1 0 1 1 0 2 1 1 0 0 1 0-2m14 0a1 1 0 1 1 0 2 1 1 0 0 1 0-2m14 0a1 1 0 1 1 0 2 1 1 0 0 1 0-2m14 0a1 1 0 1 1 0 2 1 1 0 0 1 0-2m14 0a1 1 0 1 1 0 2 1 1 0 0 1 0-2m14 0a1 1 0 1 1 0 2 1 1 0 0 1 0-2m14 0a1 1 0 1 1 0 2 1 1 0 0 1 0-2m14 0a1 1 0 1 1 0 2 1 1 0 0 1 0-2m14 0a1 1 0 1 1 0 2 1 1 0 0 1 0-2m14 0a1 1 0 1 1 0 2 1 1 0 0 1 0-2m14 0a1 1 0 1 1 0 2 1 1 0 0 1 0-2m14 0a1 1 0 1 1 0 2 1 1 0 0 1 0-2m14 0a1 1 0 1 1 0 2 1 1 0 0 1 0-2m14 0a1 1 0 1 1 0 2 1 1 0 0 1 0-2m14 0a1 1 0 1 1 0 2 1 1 0 0 1 0-2m14 0a1 1 0 1 1 0 2 1 1 0 0 1 0-2m14 0a1 1 0 1 1 0 2 1 1 0 0 1 0-2m14 0a1 1 0 1 1 0 2 1 1 0 0 1 0-2m14 0a1 1 0 1 1 0 2 1 1 0 0 1 0-2m14 0a1 1 0 1 1 0 2 1 1 0 0 1 0-2m14 0a1 1 0 1 1 0 2 1 1 0 0 1 0-2m14 0a1 1 0 1 1 0 2 1 1 0 0 1 0-2m14 0a1 1 0 1 1 0 2 1 1 0 0 1 0-2m14 0a1 1 0 1 1 0 2 1 1 0 0 1 0-2m14 0a1 1 0 1 1 0 2 1 1 0 0 1 0-2m14 0a1 1 0 1 1 0 2 1 1 0 0 1 0-2m14 0a1 1 0 1 1 0 2 1 1 0 0 1 0-2m14 0a1 1 0 1 1 0 2 1 1 0 0 1 0-2m14 0a1 1 0 1 1 0 2 1 1 0 0 1 0-2m14 0a1 1 0 1 1 0 2 1 1 0 0 1 0-2m14 0a1 1 0 1 1 0 2 1 1 0 0 1 0-2m14 0a1 1 0 1 1 0 2 1 1 0 0 1 0-2m14 0a1 1 0 1 1 0 2 1 1 0 0 1 0-2m14 0a1 1 0 1 1 0 2 1 1 0 0 1 0-2m14 0a1 1 0 1 1 0 2 1 1 0 0 1 0-2m14 0a1 1 0 1 1 0 2 1 1 0 0 1 0-2m14 0a1 1 0 1 1 0 2 1 1 0 0 1 0-2m14 0a1 1 0 1 1 0 2 1 1 0 0 1 0-2m14 0a1 1 0 1 1 0 2 1 1 0 0 1 0-2M-11 2a1 1 0 1 1 0 2 1 1 0 0 1 0-2M3 2a1 1 0 1 1 0 2 1 1 0 0 1 0-2m14 0a1 1 0 1 1 0 2 1 1 0 0 1 0-2m14 0a1 1 0 1 1 0 2 1 1 0 0 1 0-2m14 0a1 1 0 1 1 0 2 1 1 0 0 1 0-2m14 0a1 1 0 1 1 0 2 1 1 0 0 1 0-2m14 0a1 1 0 1 1 0 2 1 1 0 0 1 0-2m14 0a1 1 0 1 1 0 2 1 1 0 0 1 0-2m14 0a1 1 0 1 1 0 2 1 1 0 0 1 0-2m14 0a1 1 0 1 1 0 2 1 1 0 0 1 0-2m14 0a1 1 0 1 1 0 2 1 1 0 0 1 0-2m14 0a1 1 0 1 1 0 2 1 1 0 0 1 0-2m14 0a1 1 0 1 1 0 2 1 1 0 0 1 0-2m14 0a1 1 0 1 1 0 2 1 1 0 0 1 0-2m14 0a1 1 0 1 1 0 2 1 1 0 0 1 0-2m14 0a1 1 0 1 1 0 2 1 1 0 0 1 0-2m14 0a1 1 0 1 1 0 2 1 1 0 0 1 0-2m14 0a1 1 0 1 1 0 2 1 1 0 0 1 0-2m14 0a1 1 0 1 1 0 2 1 1 0 0 1 0-2m14 0a1 1 0 1 1 0 2 1 1 0 0 1 0-2m14 0a1 1 0 1 1 0 2 1 1 0 0 1 0-2m14 0a1 1 0 1 1 0 2 1 1 0 0 1 0-2m14 0a1 1 0 1 1 0 2 1 1 0 0 1 0-2m14 0a1 1 0 1 1 0 2 1 1 0 0 1 0-2m14 0a1 1 0 1 1 0 2 1 1 0 0 1 0-2m14 0a1 1 0 1 1 0 2 1 1 0 0 1 0-2m14 0a1 1 0 1 1 0 2 1 1 0 0 1 0-2m14 0a1 1 0 1 1 0 2 1 1 0 0 1 0-2m14 0a1 1 0 1 1 0 2 1 1 0 0 1 0-2m14 0a1 1 0 1 1 0 2 1 1 0 0 1 0-2m14 0a1 1 0 1 1 0 2 1 1 0 0 1 0-2m14 0a1 1 0 1 1 0 2 1 1 0 0 1 0-2m14 0a1 1 0 1 1 0 2 1 1 0 0 1 0-2m14 0a1 1 0 1 1 0 2 1 1 0 0 1 0-2m14 0a1 1 0 1 1 0 2 1 1 0 0 1 0-2m14 0a1 1 0 1 1 0 2 1 1 0 0 1 0-2m14 0a1 1 0 1 1 0 2 1 1 0 0 1 0-2m14 0a1 1 0 1 1 0 2 1 1 0 0 1 0-2m14 0a1 1 0 1 1 0 2 1 1 0 0 1 0-2m14 0a1 1 0 1 1 0 2 1 1 0 0 1 0-2m14 0a1 1 0 1 1 0 2 1 1 0 0 1 0-2m14 0a1 1 0 1 1 0 2 1 1 0 0 1 0-2m14 0a1 1 0 1 1 0 2 1 1 0 0 1 0-2m14 0a1 1 0 1 1 0 2 1 1 0 0 1 0-2m14 0a1 1 0 1 1 0 2 1 1 0 0 1 0-2m14 0a1 1 0 1 1 0 2 1 1 0 0 1 0-2m14 0a1 1 0 1 1 0 2 1 1 0 0 1 0-2m14 0a1 1 0 1 1 0 2 1 1 0 0 1 0-2m14 0a1 1 0 1 1 0 2 1 1 0 0 1 0-2m14 0a1 1 0 1 1 0 2 1 1 0 0 1 0-2m14 0a1 1 0 1 1 0 2 1 1 0 0 1 0-2m14 0a1 1 0 1 1 0 2 1 1 0 0 1 0-2m14 0a1 1 0 1 1 0 2 1 1 0 0 1 0-2"/></g><mask id="c" fill="#fff"><path d="M458 48a4 4 0 0 1 4-4h172a4 4 0 0 1 4 4v40H458z"/></mask><path fill="#edd1fa" d="M458 48a4 4 0 0 1 4-4h172a4 4 0 0 1 4 4v40H458z"/><path fill="#bb3df5" d="M457.5 48a4.5 4.5 0 0 1 4.5-4.5h172a4.5 4.5 0 0 1 4.5 4.5h-1a3.5 3.5 0 0 0-3.5-3.5H462a3.5 3.5 0 0 0-3.5 3.5zM638 88H458zm-180.5 0V48a4.5 4.5 0 0 1 4.5-4.5v1a3.5 3.5 0 0 0-3.5 3.5v40zM634 43.5a4.5 4.5 0 0 1 4.5 4.5v40h-1V48a3.5 3.5 0 0 0-3.5-3.5z" mask="url(#c)"/><path fill="#660891" d="M480.5 58.5a.75.75 0 0 1 .75.75v3a.75.75 0 0 1-.75.75h-.75v3.389L483.014 69h2.736a.75.75 0 0 1 .75.75v3a.75.75 0 0 1-.75.75h-3a.75.75 0 0 1-.75-.75v-2.64l-3-2.4-3 2.4v2.64a.75.75 0 0 1-.75.75h-3a.75.75 0 0 1-.75-.75v-3a.75.75 0 0 1 .75-.75h2.736l3.264-2.611V63h-.75a.75.75 0 0 1-.75-.75v-3a.75.75 0 0 1 .75-.75zm3 13.5h1.5v-1.5h-1.5zM473 72h1.5v-1.5H473zm5.25-10.5h1.5V60h-1.5z"/><path fill="#17181c" d="M497.561 56.72a1.16 1.16 0 0 0-.499-.862q-.435-.31-1.133-.31-.49 0-.842.149a1.25 1.25 0 0 0-.537.401.98.98 0 0 0-.068 1.05q.127.198.343.338.216.135.478.228t.528.156l.812.203q.491.115.943.31a3.3 3.3 0 0 1 .816.49q.364.295.576.714.211.42.211.981 0 .762-.389 1.341-.388.575-1.125.9-.731.322-1.772.322-1.011 0-1.755-.313a2.6 2.6 0 0 1-1.158-.913q-.415-.6-.449-1.463h1.544q.033.452.279.752.245.3.638.448.397.15.889.149.511 0 .896-.153.388-.156.609-.431a1.04 1.04 0 0 0 .224-.651.83.83 0 0 0-.199-.558 1.45 1.45 0 0 0-.545-.373 5 5 0 0 0-.812-.27l-.985-.254q-1.071-.274-1.692-.833-.617-.563-.617-1.493 0-.765.414-1.34.418-.575 1.138-.893.719-.321 1.628-.321.921 0 1.615.321.697.318 1.095.884.397.562.411 1.294zm10.144-2.38V63h-1.396l-4.081-5.9h-.071V63h-1.569v-8.66h1.404l4.076 5.903h.076v-5.904zm1.709 0h1.92l2.571 6.275h.102l2.571-6.276h1.92V63h-1.506v-5.95h-.08l-2.393 5.925h-1.125L511 57.037h-.08V63h-1.506zM520.206 63v-8.66h3.248q.998 0 1.675.371.68.373 1.027 1.024.351.647.351 1.471 0 .834-.351 1.48a2.5 2.5 0 0 1-1.036 1.02q-.685.368-1.687.368h-2.153v-1.29h1.941q.584 0 .956-.203a1.3 1.3 0 0 0 .55-.558 1.8 1.8 0 0 0 .182-.817q0-.46-.182-.811a1.23 1.23 0 0 0-.554-.546q-.372-.198-.96-.199h-1.438V63zm11.73 0h-1.675l3.049-8.66h1.937L538.3 63h-1.674l-2.313-6.885h-.068zm.055-3.396h4.567v1.26h-4.567zm10.01 5.967q-.825 0-1.417-.224-.592-.22-.951-.592a2.05 2.05 0 0 1-.499-.825l1.378-.334q.093.19.271.377.177.19.478.313.304.126.765.126.651 0 1.078-.317.428-.312.428-1.032v-1.23h-.077q-.118.237-.346.486-.225.25-.597.419-.368.17-.926.169-.748 0-1.357-.351-.605-.356-.964-1.057-.356-.706-.356-1.768 0-1.07.356-1.806.359-.74.968-1.12a2.5 2.5 0 0 1 1.357-.385q.571 0 .939.194.373.19.592.461.22.267.334.504h.085v-1.075h1.51v6.602q0 .833-.398 1.378a2.4 2.4 0 0 1-1.087.817q-.689.27-1.564.27m.012-3.865q.487 0 .829-.237.343-.237.52-.68.178-.445.178-1.066 0-.614-.178-1.075a1.5 1.5 0 0 0-.516-.714q-.338-.258-.833-.258-.512 0-.854.266a1.6 1.6 0 0 0-.516.732 3 3 0 0 0-.173 1.049q0 .596.173 1.044.178.444.52.694.348.245.85.245m7.481 1.42q-.977 0-1.687-.405a2.75 2.75 0 0 1-1.087-1.159q-.381-.753-.381-1.772 0-1.002.381-1.759a2.9 2.9 0 0 1 1.074-1.184q.69-.427 1.62-.427.6 0 1.133.194.537.19.947.593.415.4.652 1.023.236.618.236 1.472v.469h-5.324v-1.032h3.857a1.65 1.65 0 0 0-.19-.782 1.4 1.4 0 0 0-.52-.546 1.46 1.46 0 0 0-.77-.199q-.47 0-.825.229-.354.225-.554.592a1.7 1.7 0 0 0-.198.8v.9q0 .567.207.972.207.402.579.618.373.21.871.211.335 0 .605-.093.27-.097.469-.283a1.2 1.2 0 0 0 .301-.461l1.429.16q-.135.568-.516.99-.376.42-.964.651-.588.23-1.345.229m5.714-3.932V63h-1.53v-6.495h1.463v1.103h.076a1.85 1.85 0 0 1 .715-.867q.494-.321 1.222-.321.672 0 1.171.288.504.287.778.833.28.545.275 1.323V63h-1.531v-3.899q0-.651-.338-1.02-.335-.366-.926-.367-.402 0-.715.178a1.23 1.23 0 0 0-.486.503q-.174.33-.174.799m8.97-2.69v1.185h-3.734v-1.184zm-2.812-1.556h1.53v6.098q0 .309.093.474.098.16.254.22t.347.059q.144 0 .262-.021a2 2 0 0 0 .186-.038l.258 1.197q-.123.042-.351.093a3 3 0 0 1-.55.059 2.5 2.5 0 0 1-1.036-.174 1.6 1.6 0 0 1-.731-.6q-.267-.405-.262-1.015zM493.167 72.67q0-1.587.419-2.914.423-1.332 1.256-2.461h1.442q-.322.418-.601 1.027a9 9 0 0 0-.486 1.328q-.202.72-.321 1.493a10.3 10.3 0 0 0 .084 3.557q.203 1.027.546 1.907.346.875.778 1.433h-1.442a8.4 8.4 0 0 1-1.256-2.457q-.419-1.332-.419-2.913m11.491-4.33V77h-1.396l-4.08-5.9h-.072V77h-1.569v-8.66h1.404l4.076 5.903h.077v-5.904zm4.517 8.787q-.976 0-1.687-.406a2.75 2.75 0 0 1-1.087-1.159q-.38-.752-.38-1.772 0-1.002.38-1.759a2.9 2.9 0 0 1 1.074-1.184q.69-.427 1.62-.427.6 0 1.133.195.537.19.948.592.414.4.651 1.023.237.617.237 1.471v.47h-5.324v-1.032h3.856a1.65 1.65 0 0 0-.19-.782 1.4 1.4 0 0 0-.52-.546 1.46 1.46 0 0 0-.77-.199q-.47 0-.824.229-.356.225-.554.592-.195.363-.199.8v.9q0 .567.207.973.207.4.579.617.373.21.872.211.333 0 .604-.093.271-.097.47-.283a1.2 1.2 0 0 0 .3-.461l1.429.16q-.135.567-.516.99-.376.42-.964.651-.588.23-1.345.229m7.427-6.623v1.185h-3.734v-1.184zm-2.812-1.556h1.531v6.098q0 .309.093.474a.5.5 0 0 0 .254.22q.157.06.346.059.144 0 .263-.021.121-.021.186-.038l.258 1.197q-.123.042-.351.093-.225.05-.55.059a2.5 2.5 0 0 1-1.036-.174 1.6 1.6 0 0 1-.732-.6q-.266-.405-.262-1.015zM519.223 77l-1.835-6.496h1.56l1.142 4.568h.059l1.167-4.568h1.544l1.167 4.542h.064l1.124-4.542h1.565L524.941 77h-1.595l-1.218-4.39h-.088L520.822 77zm11.273.127q-.951 0-1.649-.419a2.85 2.85 0 0 1-1.083-1.171q-.38-.752-.38-1.76 0-1.005.38-1.763a2.84 2.84 0 0 1 1.083-1.175q.698-.42 1.649-.42t1.649.42 1.079 1.175q.385.757.385 1.764 0 1.005-.385 1.759a2.8 2.8 0 0 1-1.079 1.171q-.698.42-1.649.419m.009-1.227q.516 0 .862-.283.347-.287.516-.77.174-.48.174-1.074a3.2 3.2 0 0 0-.174-1.078 1.7 1.7 0 0 0-.516-.774q-.346-.287-.862-.287-.53 0-.88.287-.347.288-.52.774-.17.481-.169 1.078 0 .592.169 1.075.173.481.52.77.35.282.88.282m4.403 1.1v-6.496h1.484v1.083h.068q.177-.563.609-.867.435-.309.994-.308.126 0 .283.012.16.009.266.03v1.408a1.6 1.6 0 0 0-.308-.06 3 3 0 0 0-.402-.029q-.418 0-.753.182a1.33 1.33 0 0 0-.52.495q-.19.317-.19.731V77zm6.117-2.038-.004-1.848h.245l2.334-2.61h1.789l-2.871 3.197h-.318zM539.629 77v-8.66h1.531V77zm4.077 0-2.114-2.956 1.031-1.078L545.537 77zm8.66 0h-2.935v-8.66h2.994q1.29 0 2.216.52a3.5 3.5 0 0 1 1.429 1.484q.5.968.499 2.317 0 1.353-.503 2.326a3.5 3.5 0 0 1-1.442 1.493q-.94.52-2.258.52M551 75.642h1.289q.906 0 1.51-.33a2.1 2.1 0 0 0 .909-.993q.305-.664.305-1.658t-.305-1.649a2.08 2.08 0 0 0-.9-.985q-.593-.33-1.472-.33H551zm9.868 1.485q-.978 0-1.688-.406a2.75 2.75 0 0 1-1.086-1.159q-.381-.752-.381-1.772 0-1.002.381-1.759a2.87 2.87 0 0 1 1.074-1.184q.689-.427 1.619-.427.6 0 1.134.195.536.19.947.592.414.4.651 1.023.237.617.237 1.471v.47h-5.324v-1.032h3.857a1.65 1.65 0 0 0-.191-.782 1.4 1.4 0 0 0-.52-.546 1.46 1.46 0 0 0-.77-.199 1.5 1.5 0 0 0-.824.229q-.356.225-.554.592-.195.363-.199.8v.9q0 .567.207.973.207.4.58.617.372.21.871.211.333 0 .604-.093.271-.097.47-.283a1.2 1.2 0 0 0 .3-.461l1.429.16q-.135.567-.515.99-.377.42-.965.651a3.7 3.7 0 0 1-1.344.229m9.799-6.623L568.354 77h-1.692l-2.313-6.496h1.632l1.493 4.826h.068l1.497-4.826zM571.726 77v-6.496h1.531V77zm.77-7.417a.9.9 0 0 1-.626-.241.78.78 0 0 1-.262-.588q0-.347.262-.588a.88.88 0 0 1 .626-.245q.368 0 .626.245.262.24.262.588a.78.78 0 0 1-.262.588.88.88 0 0 1-.626.24m5.169 7.544q-.974 0-1.671-.427a2.86 2.86 0 0 1-1.07-1.18q-.372-.757-.372-1.742 0-.99.381-1.747a2.83 2.83 0 0 1 1.074-1.184q.698-.427 1.649-.427.79 0 1.4.292.613.287.977.816.363.524.414 1.226h-1.463a1.4 1.4 0 0 0-.423-.782q-.33-.317-.884-.317-.47 0-.824.254a1.6 1.6 0 0 0-.554.718q-.195.47-.195 1.125 0 .665.195 1.142.194.474.545.732.356.253.833.253.339 0 .605-.127.27-.13.452-.376.183-.245.25-.596h1.463q-.055.69-.406 1.222a2.4 2.4 0 0 1-.956.829q-.604.296-1.42.296m6.915 0q-.977 0-1.688-.406a2.75 2.75 0 0 1-1.086-1.159q-.381-.752-.381-1.772 0-1.002.381-1.759a2.87 2.87 0 0 1 1.074-1.184q.689-.427 1.619-.427.601 0 1.134.195.537.19.947.592.414.4.651 1.023.237.617.237 1.471v.47h-5.324v-1.032h3.857a1.65 1.65 0 0 0-.191-.782 1.4 1.4 0 0 0-.52-.546 1.46 1.46 0 0 0-.769-.199q-.47 0-.825.229-.356.225-.554.592-.195.363-.199.8v.9q0 .567.207.973.208.4.58.617.372.21.871.211.334 0 .605-.093.27-.097.469-.283.2-.186.3-.461l1.43.16a2.24 2.24 0 0 1-.516.99q-.377.42-.964.651a3.7 3.7 0 0 1-1.345.229m6.915-3.658q0 1.581-.423 2.914a8.3 8.3 0 0 1-1.252 2.457h-1.442q.326-.419.601-1.024.28-.605.482-1.328.207-.722.321-1.497a10 10 0 0 0-.084-3.552 11 11 0 0 0-.546-1.907q-.342-.88-.774-1.438h1.442a8.3 8.3 0 0 1 1.252 2.461q.423 1.328.423 2.914"/><path fill="#fff" d="M637.75 88.25V132a3.75 3.75 0 0 1-3.75 3.75H462a3.75 3.75 0 0 1-3.75-3.75V88.25z"/><path stroke="#bb3df5" stroke-width=".5" d="M637.75 88.25V132a3.75 3.75 0 0 1-3.75 3.75H462a3.75 3.75 0 0 1-3.75-3.75V88.25z"/><path fill="#17181c" d="M470.962 99.71h4.326v.83h-3.34v1.963h3.194v.83h-3.194v2.837h3.433v.83h-4.419zm10.522 1.821-1.958 2.617 2.149 2.852h-1.04l-1.602-2.192-1.596 2.192h-1.041l2.149-2.852-1.958-2.617h.996l1.45 1.978 1.441-1.978zm2.398 4.781v2.768h-.903v-7.549h.903v.698q.224-.405.596-.615a1.7 1.7 0 0 1 .864-.215q.991 0 1.553.767.566.766.566 2.124 0 1.333-.566 2.095-.567.757-1.553.757a1.76 1.76 0 0 1-.874-.21 1.5 1.5 0 0 1-.586-.62m2.637-2.041q0-1.046-.332-1.578-.328-.531-.977-.532-.654 0-.991.537-.337.532-.337 1.573 0 1.035.337 1.572t.991.537q.649 0 .977-.532.332-.533.332-1.577m4.565-2.11q-.684 0-1.035.532-.352.532-.352 1.578 0 1.04.352 1.577.351.531 1.035.532.689 0 1.04-.532.351-.537.352-1.577 0-1.046-.352-1.578-.351-.531-1.04-.532m0-.762q1.137 0 1.738.738.606.737.606 2.134 0 1.401-.601 2.138-.6.733-1.743.733-1.138 0-1.738-.733-.601-.737-.601-2.138 0-1.397.601-2.134.6-.738 1.738-.738m7.769.323v.879a3.4 3.4 0 0 0-.777-.337 3 3 0 0 0-.796-.113q-.61 0-.913.201-.297.195-.298.6 0 .367.225.547.224.18 1.118.352l.361.068q.669.127 1.011.508.347.38.347.991 0 .81-.576 1.27-.576.454-1.602.454-.405 0-.849-.088a8 8 0 0 1-.962-.254v-.928q.503.26.962.391.459.127.869.127.595 0 .923-.24a.8.8 0 0 0 .327-.678q0-.625-1.197-.865l-.039-.009-.337-.069q-.776-.151-1.132-.508-.357-.36-.357-.981 0-.786.532-1.211.532-.43 1.519-.43.439 0 .845.083.405.079.796.24m6.743 2.094v.44h-3.892v.029q-.039 1.118.425 1.607.469.488 1.318.488.43 0 .899-.137a5.5 5.5 0 0 0 1.001-.415v.894a6 6 0 0 1-.992.312 4 4 0 0 1-.917.108q-1.275 0-1.993-.762-.717-.767-.717-2.109 0-1.31.703-2.09.702-.782 1.875-.782 1.045 0 1.645.708.606.708.645 1.709m-.899-.263a1.72 1.72 0 0 0-.415-.977q-.351-.415-1.015-.415-.65 0-1.07.43t-.459.967zm6.206-1.831v.879a3.4 3.4 0 0 0-.776-.337 3 3 0 0 0-.796-.113q-.61 0-.913.201-.298.195-.298.6 0 .367.225.547.224.18 1.118.352l.361.068q.669.127 1.011.508.347.38.347.991 0 .81-.577 1.27-.576.454-1.601.454-.405 0-.85-.088a8 8 0 0 1-.962-.254v-.928q.504.26.962.391.46.127.869.127.596 0 .923-.24a.8.8 0 0 0 .327-.678q0-.625-1.196-.865l-.039-.009-.337-.069q-.776-.151-1.133-.508-.356-.36-.356-.981 0-.786.532-1.211.532-.43 1.519-.43.44 0 .844.083.406.079.796.24m7.476-1.988h1.318l1.26 3.702 1.27-3.702h1.323V107h-.913v-6.421l-1.299 3.828h-.747l-1.304-3.828V107h-.908zm6.831-.024h4.048v.83h-1.529v5.63h1.529v.83h-4.048v-.83h1.528v-5.63h-1.528zm6.846 3.613v2.866h1.167q.86 0 1.225-.297.366-.303.366-.992 0-.907-.385-1.24-.385-.337-1.206-.337zm0-2.802v2.001h1.147q.713 0 1.03-.273a.87.87 0 0 0 .323-.688q0-.552-.318-.796-.312-.244-1.035-.244zm-.992-.811h2.159q1.118 0 1.723.483.606.484.606 1.368 0 .473-.323.859-.316.385-.957.483.718.108 1.124.616.41.503.41 1.479 0 .992-.65 1.499-.65.503-1.933.503h-2.159zm11.241 1.821h.888l.953 4.419.781-2.822h.766l.791 2.822.953-4.419h.888L547.046 107h-.859l-.875-2.998-.869 2.998h-.859zm7.568.02h2.3v4.751h1.782V107h-4.463v-.698h1.782v-4.053h-1.401zm1.401-2.124h.899v1.133h-.899zm6.08.551v1.553h2.041v.698h-2.041v2.969q0 .606.229.845.23.239.801.239h1.011V107h-1.099q-1.01 0-1.426-.405t-.415-1.397v-2.969h-1.46v-.698h1.46v-1.553zm8.159 3.633V107h-.904v-3.389q0-.737-.258-1.084-.26-.346-.811-.346-.63 0-.972.449-.337.445-.337 1.279V107h-.898v-7.598h.898v2.95a1.67 1.67 0 0 1 .65-.708q.41-.245.972-.245.834 0 1.245.552.414.547.415 1.66m-91.094 15.751q0-1.607-.332-2.295-.327-.688-1.079-.688-.747 0-1.079.688-.327.688-.327 2.295 0 1.602.327 2.29.332.689 1.079.689.752 0 1.079-.684.332-.688.332-2.295m1.03 0q0 1.905-.605 2.842-.602.938-1.836.938-1.236 0-1.836-.933t-.601-2.847q0-1.908.601-2.846.606-.938 1.836-.938 1.234 0 1.836.938.605.938.605 2.846m1.558-3.652h4.048v.83h-1.529v5.63h1.529v.83h-4.048v-.83h1.528v-5.63h-1.528zm7.173 6.479q1.245 0 1.738-.61.493-.615.493-2.217 0-1.615-.493-2.226-.489-.615-1.738-.615h-.469v5.668zm.019-6.479q1.67 0 2.461.889.791.888.791 2.763 0 1.866-.791 2.754-.791.884-2.461.884h-1.479v-7.29zm15.601 4.751-1.421 1.421-.44-.44.782-.781h-4.297v-.801h4.297l-.782-.781.44-.439 1.421 1.421zm6.841-2.93h.932l1.587 4.59 1.592-4.59h.933L509.741 123h-1.157zm8.964 2.72h-.297q-.786 0-1.187.278-.396.274-.395.821 0 .493.297.766.298.274.826.274.741 0 1.167-.513.424-.517.429-1.426v-.2zm1.744-.371V123h-.904v-.811a1.86 1.86 0 0 1-.727.723q-.435.23-1.06.23-.835 0-1.333-.469-.498-.474-.498-1.265 0-.913.611-1.387.615-.473 1.801-.473h1.206v-.142q-.005-.654-.332-.947-.327-.298-1.045-.298-.459 0-.927.132a4 4 0 0 0-.913.386v-.899q.498-.19.952-.283.459-.098.888-.098.68 0 1.158.201.483.2.781.6.185.245.264.606.078.355.078 1.074m4.365 1.142q0 .605.22.914.224.307.659.307h1.05V123h-1.138q-.806 0-1.25-.513-.44-.517-.44-1.465v-4.946h-1.44v-.703h2.339zm3.467-.092v-3.389h.898v3.389q0 .737.259 1.084.264.346.81.346.636 0 .972-.444.337-.45.337-1.284v-3.091h.903V123h-.903v-.82a1.7 1.7 0 0 1-.654.717 1.85 1.85 0 0 1-.962.245q-.84 0-1.25-.547-.41-.552-.41-1.665m10.542-1.114v.44h-3.892v.029q-.039 1.118.425 1.607.468.488 1.318.488.43 0 .899-.137a5.5 5.5 0 0 0 1.001-.415v.894a6 6 0 0 1-.992.312 4 4 0 0 1-.918.108q-1.274 0-1.992-.762-.717-.767-.718-2.109 0-1.31.704-2.09.702-.782 1.875-.782 1.045 0 1.645.708.606.708.645 1.709m-.899-.263a1.72 1.72 0 0 0-.415-.977q-.351-.415-1.015-.415-.65 0-1.07.43t-.459.967zm9.312 2.759v2.768h-.904v-7.549h.904v.698q.224-.405.595-.615.376-.215.865-.215.991 0 1.552.767.567.766.567 2.124 0 1.333-.567 2.095-.566.757-1.552.757a1.76 1.76 0 0 1-.874-.21 1.5 1.5 0 0 1-.586-.62m2.636-2.041q0-1.046-.332-1.578-.327-.531-.976-.532-.655 0-.991.537-.337.532-.337 1.573 0 1.035.337 1.572t.991.537q.65 0 .976-.532.332-.533.332-1.577m4.986-.02h-.298q-.786 0-1.187.278-.395.274-.395.821 0 .493.298.766.297.274.825.274.743 0 1.167-.513.424-.517.43-1.426v-.2zm1.743-.371V123h-.903v-.811a1.86 1.86 0 0 1-.728.723q-.435.23-1.059.23-.835 0-1.333-.469-.498-.474-.499-1.265 0-.913.611-1.387.615-.473 1.802-.473h1.206v-.142q-.006-.654-.332-.947-.327-.298-1.045-.298a3.4 3.4 0 0 0-.928.132 4 4 0 0 0-.913.386v-.899q.498-.19.952-.283.459-.098.889-.098.678 0 1.157.201.484.2.781.6.186.245.264.606.078.355.078 1.074m2.397-2.329h2.3v4.751h1.782V123h-4.462v-.698h1.782v-4.053h-1.402zm1.402-2.124h.898v1.133h-.898zm8.721 3.232a2 2 0 0 0-.586-.327 2 2 0 0 0-.655-.103q-.84 0-1.284.528-.444.527-.444 1.523V123h-.904v-5.469h.904v1.07q.224-.582.688-.889a1.96 1.96 0 0 1 1.109-.313q.332 0 .62.083.288.084.552.259zm5.136-.937v.879a3.4 3.4 0 0 0-.776-.337 3 3 0 0 0-.796-.113q-.61 0-.913.201-.298.195-.298.6 0 .367.225.547.224.18 1.118.352l.361.068q.669.127 1.011.508.347.38.347.991 0 .81-.577 1.27-.576.454-1.601.454-.405 0-.85-.088a8 8 0 0 1-.962-.254v-.928q.504.26.962.391.46.127.869.127.596 0 .923-.24a.8.8 0 0 0 .327-.678q0-.625-1.196-.865l-.039-.009-.337-.069q-.776-.151-1.133-.508-.356-.36-.356-.981 0-.786.532-1.211.532-.43 1.519-.43.44 0 .844.083.406.079.796.24"/><mask id="d" fill="#fff"><path d="M44 48a4 4 0 0 1 4-4h172a4 4 0 0 1 4 4v40H44z"/></mask><path fill="#f9c3d6" d="M44 48a4 4 0 0 1 4-4h172a4 4 0 0 1 4 4v40H44z"/><path fill="#f53d7d" d="M43.5 48a4.5 4.5 0 0 1 4.5-4.5h172a4.5 4.5 0 0 1 4.5 4.5h-1a3.5 3.5 0 0 0-3.5-3.5H48a3.5 3.5 0 0 0-3.5 3.5zM224 88H44zM43.5 88V48a4.5 4.5 0 0 1 4.5-4.5v1a3.5 3.5 0 0 0-3.5 3.5v40zM220 43.5a4.5 4.5 0 0 1 4.5 4.5v40h-1V48a3.5 3.5 0 0 0-3.5-3.5z" mask="url(#d)"/><path fill="#8a0f3a" d="M64.584 58.5c-1.33 0-2.574.371-3.638 1.01a1.7 1.7 0 0 0-1.081-.384c-.945 0-1.72.774-1.72 1.719 0 .394.137.773.38 1.075a7.05 7.05 0 0 0-1.025 3.664.413.413 0 0 0 .41.416.41.41 0 0 0 .412-.416c0-1.158.315-2.238.861-3.168.214.094.444.148.68.149.946 0 1.72-.775 1.72-1.72a1.7 1.7 0 0 0-.144-.675 6.2 6.2 0 0 1 3.145-.848.413.413 0 0 0 .416-.411.41.41 0 0 0-.416-.411m-4.72 1.447a.87.87 0 0 1 .704.342.896.896 0 1 1-1.601.556c0-.5.397-.898.897-.898"/><path fill="#8a0f3a" fill-rule="evenodd" d="M60.639 63.32a.38.38 0 0 0-.106.284.4.4 0 0 0 .11.259c.318.321.947.948.947.948l.555-.555-.945-.945a.4.4 0 0 0-.282-.109c-.11 0-.21.045-.28.118m1.506.937-1.717 1.717a.477.477 0 0 0 0 .675l.851.85 1.488 1.49 1.429 1.428a.477.477 0 0 0 .675 0l1.162-1.162 1.777-1.777 1.718-1.718a.477.477 0 0 0 0-.675l-.874-.873-1.488-1.488-1.406-1.407a.477.477 0 0 0-.675 0l-1.162 1.162zm1.778-1.778-.946-.945a.4.4 0 0 0-.282-.11.38.38 0 0 0-.385.403.4.4 0 0 0 .11.259c.318.321.947.948.947.948zm3.243.245.946-.946a.4.4 0 0 0 .109-.282.383.383 0 0 0-.403-.385.4.4 0 0 0-.258.11c-.322.319-.948.947-.948.947zm1.488 1.488.946-.946a.4.4 0 0 0 .109-.282.383.383 0 0 0-.403-.385.4.4 0 0 0-.258.11c-.322.319-.948.948-.948.948zm-.844 3.266.946.945a.4.4 0 0 0 .282.11.383.383 0 0 0 .385-.403.4.4 0 0 0-.11-.259l-.948-.948zm-1.777 1.777.946.945a.4.4 0 0 0 .282.11.383.383 0 0 0 .385-.403.4.4 0 0 0-.11-.259l-.948-.948zm-3.266-.267-.945.946a.4.4 0 0 0-.109.282.383.383 0 0 0 .402.385.4.4 0 0 0 .259-.11c.321-.318.948-.947.948-.947zM61.28 67.5l-.945.946a.4.4 0 0 0-.11.282.38.38 0 0 0 .403.385.4.4 0 0 0 .258-.11c.322-.319.949-.948.949-.948zm4.09-4.245a.4.4 0 0 1 .294-.123.37.37 0 0 1 .214.07l.774.568c.15.108.194.312.104.483a.41.41 0 0 1-.466.208l.287 1.122a.41.41 0 0 1-.28.484l-2.093.639.386 1.494a.41.41 0 0 1-.279.488.367.367 0 0 1-.472-.258l-.482-1.864a.41.41 0 0 1 .28-.485l2.094-.639-.193-.755a.395.395 0 0 1-.497.082.37.37 0 0 1-.14-.47l.38-.913a.4.4 0 0 1 .088-.13" clip-rule="evenodd"/><path fill="#8a0f3a" d="M65.416 73.5c1.33 0 2.574-.371 3.638-1.01.303.247.685.384 1.081.385.945 0 1.72-.775 1.72-1.72 0-.394-.137-.773-.38-1.075a7.05 7.05 0 0 0 1.025-3.664.413.413 0 0 0-.41-.416.41.41 0 0 0-.412.416 6.2 6.2 0 0 1-.861 3.168 1.7 1.7 0 0 0-.68-.148c-.946 0-1.721.774-1.72 1.719 0 .234.052.462.144.675a6.2 6.2 0 0 1-3.145.848.41.41 0 1 0 0 .822m4.72-1.447a.87.87 0 0 1-.704-.342.897.897 0 1 1 1.601-.556c0 .5-.397.898-.897.898"/><path fill="#17181c" d="M81.428 55.655v-1.316h6.91v1.316H85.66V63h-1.557v-7.346zm9.705 3.539V63h-1.531v-8.66h1.497v3.268h.076a1.9 1.9 0 0 1 .706-.867q.482-.321 1.227-.321.675 0 1.18.283.502.284.778.83.278.545.279 1.331V63h-1.531v-3.899q0-.655-.339-1.02-.333-.366-.938-.367-.407 0-.728.178a1.24 1.24 0 0 0-.499.503q-.177.33-.177.799M96.905 63v-6.495h1.53V63zm.77-7.417a.9.9 0 0 1-.626-.241.78.78 0 0 1-.262-.588q0-.346.262-.588a.9.9 0 0 1 .626-.245q.368 0 .626.245.261.24.262.588a.78.78 0 0 1-.263.588.88.88 0 0 1-.625.24m3.866 3.611V63h-1.531v-6.495h1.463v1.103h.076q.225-.544.715-.867.495-.321 1.222-.321.672 0 1.172.288.502.287.778.833.279.545.274 1.323V63h-1.53v-3.899q0-.651-.339-1.02-.333-.366-.926-.367-.402 0-.714.178a1.24 1.24 0 0 0-.487.503q-.173.33-.173.799m8.551 6.377q-.825 0-1.417-.224-.592-.22-.952-.592a2.06 2.06 0 0 1-.499-.825l1.379-.334q.093.19.271.377.177.19.478.313.304.126.765.126.651 0 1.078-.317.427-.312.427-1.032v-1.23h-.076q-.118.237-.346.486-.225.25-.597.419-.368.17-.926.169-.748 0-1.357-.351-.605-.356-.964-1.057-.356-.706-.356-1.768 0-1.07.356-1.806.359-.74.968-1.12a2.5 2.5 0 0 1 1.357-.385q.572 0 .939.194.373.19.592.461.22.267.334.504h.085v-1.075h1.51v6.602q0 .833-.398 1.378a2.4 2.4 0 0 1-1.087.817q-.689.27-1.564.27m.012-3.865q.487 0 .829-.237t.52-.68.178-1.066q0-.614-.178-1.075a1.5 1.5 0 0 0-.516-.714q-.338-.258-.833-.258-.512 0-.854.266a1.6 1.6 0 0 0-.516.732 3 3 0 0 0-.173 1.049q0 .596.173 1.044.178.444.52.694.347.245.85.245m9.739-3.485-1.395.153a1.1 1.1 0 0 0-.207-.398 1 1 0 0 0-.39-.3 1.4 1.4 0 0 0-.6-.114q-.478 0-.803.207-.322.207-.318.537a.56.56 0 0 0 .208.46q.215.18.71.293l1.108.236q.922.2 1.37.63.453.432.457 1.13-.005.614-.36 1.082-.35.465-.977.728-.626.261-1.437.262-1.192 0-1.92-.5a2 2 0 0 1-.867-1.399l1.493-.144q.1.44.431.664t.858.224q.546 0 .876-.224.334-.224.334-.554a.58.58 0 0 0-.216-.46q-.212-.183-.659-.28l-1.108-.232q-.934-.195-1.383-.656-.449-.465-.444-1.175-.005-.6.325-1.04.335-.445.926-.686.597-.245 1.375-.245 1.141 0 1.797.486.66.487.816 1.315m1.47 4.779v-8.66h3.315q.939 0 1.561.295.625.292.934.8.313.507.313 1.15 0 .528-.203.905-.203.372-.545.605a2.3 2.3 0 0 1-.766.334v.084q.46.026.884.284.427.253.698.718t.27 1.125q0 .673-.325 1.21-.325.533-.981.841-.655.309-1.65.309zm1.569-1.31h1.687q.854 0 1.231-.327.38-.33.38-.845a1.29 1.29 0 0 0-.731-1.184 1.8 1.8 0 0 0-.838-.182h-1.729zm0-3.667h1.552q.405 0 .731-.148.326-.152.512-.428.19-.278.19-.66 0-.502-.355-.828-.35-.326-1.045-.326h-1.585zm9.023 5.104q-.951 0-1.649-.419a2.85 2.85 0 0 1-1.083-1.171q-.38-.753-.38-1.76 0-1.005.38-1.763a2.84 2.84 0 0 1 1.083-1.175q.698-.42 1.649-.42t1.649.42 1.079 1.175q.384.758.384 1.764 0 1.005-.384 1.759a2.8 2.8 0 0 1-1.079 1.171q-.698.42-1.649.419m.008-1.227q.516 0 .863-.283.346-.287.516-.77.173-.48.173-1.074a3.2 3.2 0 0 0-.173-1.078 1.7 1.7 0 0 0-.516-.774q-.347-.287-.863-.287-.528 0-.879.287-.347.288-.52.774-.17.481-.169 1.078 0 .593.169 1.074.173.483.52.77.351.285.879.284m6.273 1.231q-.618 0-1.112-.22a1.8 1.8 0 0 1-.778-.66q-.284-.435-.284-1.074 0-.55.203-.909.203-.36.554-.575.351-.216.791-.326.444-.114.918-.164.57-.06.926-.106.356-.051.516-.153.165-.105.165-.325v-.025q0-.479-.284-.74-.284-.263-.816-.263-.562 0-.892.246a1.2 1.2 0 0 0-.44.579l-1.429-.203q.168-.592.558-.99.388-.401.951-.6.563-.203 1.244-.203.47 0 .934.11.466.11.85.364.386.25.618.68.236.431.236 1.079V63h-1.471v-.892h-.051q-.14.27-.393.507-.25.232-.63.377a2.5 2.5 0 0 1-.884.14m.397-1.125q.462 0 .8-.182.338-.186.52-.49a1.25 1.25 0 0 0 .186-.664v-.766a.7.7 0 0 1-.245.11q-.17.051-.381.09-.212.037-.419.067t-.359.05a2.7 2.7 0 0 0-.613.153q-.271.105-.427.296a.72.72 0 0 0-.157.482q0 .423.309.639.309.215.786.215m4.572.994v-6.495h1.484v1.082h.068q.177-.562.609-.867.435-.309.993-.309.127 0 .284.013.16.009.266.03v1.408a1.6 1.6 0 0 0-.309-.06 3 3 0 0 0-.401-.029q-.418 0-.753.182a1.33 1.33 0 0 0-.52.495q-.19.317-.19.731V63zm6.864.114q-.765 0-1.37-.393t-.956-1.142-.351-1.818q0-1.083.356-1.827.359-.749.968-1.13a2.5 2.5 0 0 1 1.357-.384q.571 0 .939.194.368.19.584.461.216.267.334.504h.063v-3.24h1.535V63h-1.505v-1.023h-.093a2.6 2.6 0 0 1-.343.503 1.9 1.9 0 0 1-.592.448q-.368.186-.926.186m.427-1.256q.487 0 .829-.262.343-.267.52-.74.178-.474.178-1.104t-.178-1.095a1.55 1.55 0 0 0-.516-.723q-.338-.258-.833-.258-.512 0-.854.266-.342.267-.516.736a3.1 3.1 0 0 0-.173 1.074q0 .609.173 1.087.178.474.52.749.347.27.85.27M79.167 72.67q0-1.587.419-2.914a8.4 8.4 0 0 1 1.256-2.461h1.442q-.323.418-.6 1.027a9 9 0 0 0-.487 1.328q-.203.72-.321 1.493a10.5 10.5 0 0 0-.115 1.527q0 1.001.2 2.03.202 1.027.545 1.907.346.875.778 1.433h-1.442a8.4 8.4 0 0 1-1.256-2.457q-.42-1.332-.419-2.913m9.08-1.95a1.15 1.15 0 0 0-.498-.862q-.436-.31-1.134-.31-.49 0-.841.149a1.25 1.25 0 0 0-.537.401.98.98 0 0 0-.19.58q0 .27.122.47.127.198.343.338.215.135.477.228t.529.156l.812.203q.49.115.943.31.456.193.816.49.364.295.575.714.212.42.212.981 0 .762-.39 1.341-.389.575-1.124.9-.732.322-1.772.322-1.011 0-1.755-.313a2.6 2.6 0 0 1-1.159-.913q-.414-.6-.448-1.463h1.543q.034.452.28.752.245.3.638.448.398.15.888.149.511 0 .897-.153.388-.156.609-.431.218-.279.224-.651a.83.83 0 0 0-.199-.558 1.46 1.46 0 0 0-.546-.373 5 5 0 0 0-.811-.27l-.986-.254q-1.07-.274-1.691-.833-.618-.563-.618-1.493 0-.765.415-1.34a2.74 2.74 0 0 1 1.137-.893q.72-.321 1.628-.321.922 0 1.616.321.697.318 1.095.884.398.562.41 1.294zm10.144-2.38V77h-1.395l-4.08-5.9h-.073V77h-1.569v-8.66h1.404l4.077 5.903h.076v-5.904zm1.71 0h1.92l2.571 6.275h.101l2.572-6.276h1.919V77h-1.505v-5.95h-.08l-2.394 5.925h-1.125l-2.393-5.938h-.081V77h-1.505zM110.893 77v-8.66h3.248q.997 0 1.674.371.681.373 1.028 1.024.351.647.351 1.472 0 .832-.351 1.48a2.5 2.5 0 0 1-1.036 1.019q-.685.368-1.687.368h-2.153v-1.29h1.941q.584 0 .956-.203t.55-.558a1.8 1.8 0 0 0 .181-.816q0-.462-.181-.812a1.24 1.24 0 0 0-.554-.546q-.373-.2-.96-.199h-1.438V77zm10.617-8.66h1.92l2.571 6.275h.102l2.571-6.276h1.92V77h-1.505v-5.95h-.081l-2.393 5.925h-1.125l-2.394-5.938h-.08V77h-1.506zm12.594 8.791q-.618 0-1.112-.22a1.8 1.8 0 0 1-.778-.66q-.284-.435-.284-1.074 0-.55.203-.909.203-.36.554-.575.351-.216.791-.326.444-.113.918-.165.57-.058.926-.105.356-.051.516-.152.165-.106.165-.326v-.025q0-.479-.284-.74-.284-.263-.816-.263-.562 0-.892.246a1.2 1.2 0 0 0-.44.579l-1.429-.203q.17-.593.558-.99a2.4 2.4 0 0 1 .951-.6q.563-.203 1.244-.203.47 0 .934.11.466.11.85.364.386.25.618.68.237.431.237 1.079V77h-1.472v-.892h-.051q-.14.27-.393.507-.25.232-.63.377a2.5 2.5 0 0 1-.884.14m.397-1.125q.462 0 .8-.182.338-.186.52-.49a1.25 1.25 0 0 0 .186-.664v-.766a.7.7 0 0 1-.245.11q-.17.051-.381.09-.211.037-.419.067-.207.03-.359.05a2.7 2.7 0 0 0-.613.153q-.271.105-.427.296a.72.72 0 0 0-.157.482q0 .423.309.639.309.215.786.215m6.103-2.812V77h-1.531v-6.496h1.463v1.104h.076q.225-.545.715-.867.495-.321 1.222-.321.672 0 1.171.287.504.288.778.834.28.545.275 1.323V77h-1.531v-3.899q0-.651-.338-1.02-.334-.367-.926-.367-.402 0-.715.178a1.23 1.23 0 0 0-.486.503q-.173.33-.173.799m7.595 3.937q-.618 0-1.113-.22a1.8 1.8 0 0 1-.778-.66q-.283-.435-.283-1.074 0-.55.203-.909.203-.36.554-.575.351-.216.791-.326.444-.113.917-.165.572-.058.927-.105.354-.051.515-.152.165-.106.165-.326v-.025q0-.479-.283-.74-.283-.263-.816-.263-.562 0-.892.246a1.2 1.2 0 0 0-.44.579l-1.43-.203a2.3 2.3 0 0 1 .559-.99q.388-.401.951-.6.563-.203 1.243-.203.47 0 .935.11t.85.364q.385.25.617.68.237.431.237 1.079V77h-1.471v-.892h-.051q-.14.27-.393.507a1.9 1.9 0 0 1-.631.377 2.5 2.5 0 0 1-.883.14m.397-1.125q.461 0 .799-.182a1.35 1.35 0 0 0 .521-.49 1.25 1.25 0 0 0 .186-.664v-.766a.7.7 0 0 1-.246.11 3 3 0 0 1-.38.09q-.212.037-.419.067t-.359.05a2.7 2.7 0 0 0-.614.153q-.27.105-.427.296a.73.73 0 0 0-.156.482q0 .423.309.639.308.215.786.215m7.396 3.565q-.824 0-1.416-.224-.592-.22-.952-.592a2.06 2.06 0 0 1-.499-.825l1.379-.334q.093.19.27.377.178.19.478.313.304.126.766.126.65 0 1.078-.317.427-.312.427-1.032v-1.23h-.076q-.118.237-.347.486a1.8 1.8 0 0 1-.596.419q-.368.17-.926.169-.749 0-1.357-.351-.605-.356-.965-1.057-.354-.706-.355-1.768 0-1.07.355-1.806.36-.74.969-1.12a2.5 2.5 0 0 1 1.357-.385q.572 0 .939.195.372.19.592.46.22.267.334.504h.085v-1.075h1.509v6.602q0 .833-.397 1.378a2.4 2.4 0 0 1-1.087.817q-.689.27-1.565.27m.013-3.865q.487 0 .829-.237t.52-.68q.177-.445.178-1.066 0-.614-.178-1.075a1.53 1.53 0 0 0-.516-.714q-.338-.258-.833-.258-.512 0-.854.266-.343.267-.516.732a3 3 0 0 0-.173 1.049q0 .596.173 1.044.178.444.52.694.347.245.85.245m7.481 1.42q-.977 0-1.687-.405a2.74 2.74 0 0 1-1.087-1.159q-.381-.752-.381-1.772 0-1.002.381-1.759a2.87 2.87 0 0 1 1.074-1.184q.689-.427 1.62-.427.6 0 1.133.195.537.19.947.592.414.4.651 1.023.237.617.237 1.471v.47h-5.324V73.14h3.857a1.64 1.64 0 0 0-.191-.782 1.4 1.4 0 0 0-.52-.546 1.46 1.46 0 0 0-.769-.199q-.47 0-.825.229-.355.225-.554.592-.195.363-.199.8v.9q0 .567.208.973.207.4.579.617.372.21.871.211.334 0 .605-.093.27-.097.469-.283.2-.186.3-.461l1.43.16q-.135.567-.516.99-.376.42-.964.651-.588.23-1.345.229m4.183-.126v-6.496h1.485v1.083h.067q.178-.563.609-.867.436-.309.994-.308.127 0 .283.012.16.009.267.03v1.408a1.6 1.6 0 0 0-.309-.06 3 3 0 0 0-.402-.029q-.419 0-.752.182a1.33 1.33 0 0 0-.711 1.226V77zm7.454-3.531q0 1.581-.423 2.914a8.3 8.3 0 0 1-1.252 2.457h-1.442q.326-.419.6-1.024.279-.605.483-1.328.207-.722.321-1.497a10 10 0 0 0-.085-3.552 10.7 10.7 0 0 0-.545-1.907q-.343-.88-.774-1.438h1.442a8.3 8.3 0 0 1 1.252 2.461q.423 1.328.423 2.914"/><path fill="#fff" d="M223.75 88.25V132a3.75 3.75 0 0 1-3.75 3.75H48a3.75 3.75 0 0 1-3.75-3.75V88.25z"/><path stroke="#f53d7d" stroke-width=".5" d="M223.75 88.25V132a3.75 3.75 0 0 1-3.75 3.75H48a3.75 3.75 0 0 1-3.75-3.75V88.25z"/><path fill="#17181c" d="M57.948 100.521v2.739h1.143q.684 0 1.064-.362.386-.36.386-1.01t-.38-1.006q-.382-.361-1.07-.361zm-.986-.811h2.129q1.22 0 1.85.557.63.551.63 1.621 0 1.079-.63 1.631-.624.55-1.85.551h-1.143V107h-.986zm8.071 2.451q-.683 0-1.035.532t-.351 1.578q0 1.04.351 1.577.352.531 1.035.532.69 0 1.04-.532.352-.537.352-1.577 0-1.046-.352-1.578-.35-.531-1.04-.532m0-.762q1.138 0 1.739.738.605.737.605 2.134 0 1.401-.6 2.138-.601.733-1.744.733-1.137 0-1.738-.733-.6-.737-.6-2.138 0-1.397.6-2.134.6-.738 1.738-.738m6.528 3.623q0 .605.22.914.225.307.66.307h1.05V107h-1.138q-.806 0-1.25-.513-.44-.517-.44-1.465v-4.946h-1.44v-.703h2.338zm6.026 0q0 .605.22.914.225.307.659.307h1.05V107h-1.138q-.806 0-1.25-.513-.44-.517-.44-1.465v-4.946h-1.44v-.703h2.339zm7.266-3.3v.879a3.4 3.4 0 0 0-.777-.337 3 3 0 0 0-.796-.113q-.61 0-.913.201-.297.195-.298.6 0 .367.225.547t1.118.352l.361.068q.669.127 1.011.508.347.38.347.991 0 .81-.576 1.27-.576.454-1.602.454-.405 0-.85-.088a8 8 0 0 1-.961-.254v-.928q.503.26.962.391.458.127.869.127.595 0 .922-.24a.8.8 0 0 0 .328-.678q0-.625-1.197-.865l-.039-.009-.337-.069q-.776-.151-1.132-.508-.357-.36-.357-.981 0-.786.532-1.211.532-.43 1.519-.43.44 0 .845.083.405.079.796.24m11.718 1.64q0-1.607-.332-2.295-.327-.688-1.079-.688-.747 0-1.079.688-.327.688-.327 2.295 0 1.602.327 2.29.332.689 1.08.689.75 0 1.078-.684.332-.688.332-2.295m1.03 0q0 1.905-.605 2.842-.6.938-1.836.938-1.234 0-1.836-.933-.6-.933-.6-2.847 0-1.908.6-2.846.606-.938 1.836-.938 1.236 0 1.836.938.606.938.606 2.846m1.558-3.652h4.048v.83h-1.528v5.63h1.528v.83H99.16v-.83h1.529v-5.63H99.16zm7.173 6.479q1.246 0 1.738-.61.493-.615.493-2.217 0-1.615-.493-2.226-.488-.615-1.738-.615h-.469v5.668zm.02-6.479q1.67 0 2.46.889.792.888.792 2.763 0 1.866-.792 2.754-.79.884-2.46.884h-1.48v-7.29zm8.627 2.012v.879a3.4 3.4 0 0 0-.776-.337 3 3 0 0 0-.796-.113q-.61 0-.913.201-.297.195-.298.6 0 .367.225.547t1.118.352l.361.068q.669.127 1.011.508.347.38.347.991 0 .81-.576 1.27-.576.454-1.602.454-.405 0-.85-.088a8 8 0 0 1-.961-.254v-.928q.502.26.961.391.459.127.87.127.595 0 .922-.24a.8.8 0 0 0 .328-.678q0-.625-1.197-.865l-.039-.009-.337-.069q-.776-.151-1.132-.508-.357-.36-.357-.981 0-.786.532-1.211.532-.43 1.519-.43.439 0 .845.083.405.079.795.24m10.728 2.529h-.298q-.786 0-1.186.278-.396.274-.396.821 0 .493.298.766.299.274.825.274.743 0 1.167-.513.425-.517.43-1.426v-.2zm1.743-.371V107h-.903v-.811a1.86 1.86 0 0 1-.728.723q-.434.23-1.059.23-.835 0-1.333-.469-.498-.474-.498-1.265 0-.913.61-1.387.615-.473 1.802-.473h1.206v-.142q-.005-.654-.332-.947-.328-.298-1.045-.298-.459 0-.928.132a4 4 0 0 0-.913.386v-.899q.498-.19.952-.283.459-.098.889-.098.678 0 1.157.201.484.2.781.6.186.245.264.606.078.355.078 1.074m3.853-3.901v1.552h2.041v.698h-2.041v2.969q0 .606.229.845.23.239.801.239h1.011V107h-1.099q-1.01 0-1.426-.405t-.415-1.397v-2.969h-1.46v-.698h1.46v-1.553zm12.48 4.272h-.298q-.786 0-1.186.278-.396.274-.396.821 0 .493.298.766.299.274.825.274.743 0 1.167-.513.426-.517.43-1.426v-.2zm1.743-.371V107h-.903v-.811a1.87 1.87 0 0 1-.727.723q-.435.23-1.06.23-.835 0-1.333-.469-.498-.474-.498-1.265 0-.913.61-1.387.615-.473 1.802-.473h1.206v-.142q-.005-.654-.332-.947-.327-.298-1.045-.298-.459 0-.928.132a4 4 0 0 0-.913.386v-.899q.499-.19.952-.283.46-.098.889-.098.679 0 1.157.201.484.2.782.6.185.245.263.606.078.355.078 1.074m-84.345 18.842q-.362.21-.747.312a3 3 0 0 1-.782.108q-1.269 0-1.987-.762-.713-.762-.713-2.109 0-1.348.713-2.11.718-.762 1.987-.762.396 0 .772.103.375.102.757.317v.943a2.4 2.4 0 0 0-.718-.459 2.2 2.2 0 0 0-.81-.142q-.846 0-1.3.547-.453.547-.454 1.563 0 1.01.454 1.562.46.547 1.3.547.468 0 .84-.142.37-.146.688-.449zm3.852-4.561q-.683 0-1.035.532t-.351 1.578q0 1.04.351 1.577.352.531 1.035.532.69 0 1.04-.532.352-.537.352-1.577 0-1.046-.352-1.578-.35-.531-1.04-.532m0-.762q1.138 0 1.739.738.605.737.605 2.134 0 1.401-.6 2.138-.601.733-1.744.733-1.137 0-1.738-.733-.6-.737-.6-2.138 0-1.397.6-2.134.6-.738 1.738-.738m8.15 2.212V123h-.904v-3.389q0-.737-.258-1.084-.26-.346-.811-.346-.63 0-.972.449-.337.445-.337 1.279V123h-.898v-5.469h.898v.821a1.67 1.67 0 0 1 .65-.708q.41-.245.971-.245.835 0 1.246.552.415.547.415 1.66m6.084-4.209v.747h-1.02q-.484 0-.675.201-.185.195-.185.698v.483h1.88v.698h-1.88V123h-.899v-4.771h-1.46v-.698h1.46v-.381q0-.899.41-1.323.415-.425 1.29-.425zm2.377 2.149h2.3v4.751h1.783V123h-4.463v-.698h1.782v-4.053h-1.402zm1.402-2.124h.898v1.133h-.898zm7.27 4.795q0-1.01-.332-1.534-.327-.527-.957-.527-.66 0-1.005.527-.347.523-.347 1.534 0 1.01.347 1.543.35.527 1.015.527.62 0 .947-.532.332-.533.332-1.538m.899 2.426q0 1.23-.581 1.866-.581.634-1.71.634-.37 0-.776-.068a5.6 5.6 0 0 1-.81-.2v-.889q.479.225.869.332t.718.108q.727 0 1.06-.396.33-.396.331-1.255v-.649a1.5 1.5 0 0 1-.585.683q-.372.225-.904.225a1.81 1.81 0 0 1-1.528-.767q-.572-.766-.572-2.05 0-1.29.572-2.056.57-.767 1.528-.767.528 0 .894.21t.595.65v-.708h.899zm1.89-1.718v-3.389h.898v3.389q0 .737.259 1.084.263.346.81.346.635 0 .972-.444.337-.45.337-1.284v-3.091h.903V123h-.903v-.82a1.7 1.7 0 0 1-.654.717 1.84 1.84 0 0 1-.962.245q-.84 0-1.25-.547-.41-.552-.41-1.665m10.712-2.271a2 2 0 0 0-.586-.327 2 2 0 0 0-.654-.103q-.84 0-1.284.528-.444.527-.444 1.523V123h-.904v-5.469h.904v1.07q.224-.582.688-.889a1.96 1.96 0 0 1 1.109-.313q.332 0 .62.083.288.084.551.259zm5.855 1.157v.44h-3.892v.029q-.039 1.118.425 1.607.47.488 1.318.488.43 0 .899-.137a5.5 5.5 0 0 0 1.001-.415v.894a6 6 0 0 1-.991.312 4 4 0 0 1-.918.108q-1.275 0-1.993-.762-.717-.767-.717-2.109 0-1.31.703-2.09.703-.782 1.875-.782 1.045 0 1.645.708.606.708.645 1.709m-.899-.263a1.72 1.72 0 0 0-.415-.977q-.352-.415-1.015-.415-.65 0-1.07.43t-.459.967zm5.645-1.324v-2.827h.898V123h-.898v-.688q-.225.404-.601.62-.37.21-.859.21-.992 0-1.562-.767-.567-.771-.567-2.124 0-1.333.571-2.09.571-.762 1.558-.762.493 0 .869.215.377.21.591.615m-2.642 2.042q0 1.044.332 1.577.333.531.982.532.65 0 .986-.537.342-.537.342-1.572 0-1.04-.342-1.573-.336-.537-.986-.537t-.982.532-.332 1.578m12.046-2.72h2.3v4.751h1.782V123h-4.463v-.698h1.783v-4.053h-1.402zm1.402-2.124h.898v1.133h-.898zm8.213 4.184V123h-.904v-3.389q0-.737-.259-1.084-.258-.346-.81-.346-.63 0-.972.449-.336.445-.337 1.279V123h-.898v-5.469h.898v.821a1.67 1.67 0 0 1 .65-.708 1.86 1.86 0 0 1 .971-.245q.835 0 1.245.552.416.547.416 1.66m3.891-3.632v1.552h2.041v.698h-2.041v2.969q0 .606.23.845t.8.239h1.011V123h-1.098q-1.012 0-1.426-.405-.415-.405-.415-1.397v-2.969h-1.46v-.698h1.46v-1.552zm8.496 3.837v.44h-3.891v.029q-.04 1.118.424 1.607.469.488 1.319.488.43 0 .898-.137a5.5 5.5 0 0 0 1.001-.415v.894a6 6 0 0 1-.991.312 4 4 0 0 1-.918.108q-1.275 0-1.992-.762-.718-.767-.718-2.109 0-1.31.703-2.09.703-.782 1.875-.782 1.045 0 1.646.708.605.708.644 1.709m-.898-.263a1.73 1.73 0 0 0-.415-.977q-.352-.415-1.016-.415-.65 0-1.069.43-.42.43-.459.967zm7.095-.894a2 2 0 0 0-.586-.327 2 2 0 0 0-.655-.103q-.84 0-1.284.528-.444.527-.444 1.523V123h-.904v-5.469h.904v1.07q.224-.582.688-.889a1.96 1.96 0 0 1 1.109-.313q.332 0 .62.083.288.084.552.259zm.874-1.128h.932l1.587 4.59 1.592-4.59h.932L155.995 123h-1.157zm8.964 2.72h-.297q-.787 0-1.187.278-.396.274-.396.821 0 .493.298.766.298.274.826.274.741 0 1.167-.513.424-.517.429-1.426v-.2zm1.744-.371V123h-.904v-.811a1.86 1.86 0 0 1-.727.723q-.435.23-1.06.23-.835 0-1.333-.469-.498-.474-.498-1.265 0-.913.61-1.387.616-.473 1.802-.473h1.206v-.142q-.005-.654-.332-.947-.327-.298-1.045-.298-.459 0-.927.132a4 4 0 0 0-.914.386v-.899q.498-.19.953-.283.459-.098.888-.098.679 0 1.157.201.484.2.782.6.185.245.263.606.078.355.079 1.074m4.365 1.142q0 .605.22.914.224.307.659.307h1.049V123h-1.137q-.806 0-1.25-.513-.44-.517-.44-1.465v-4.946h-1.44v-.703h2.339z"/><path fill="#353841" d="M226.72 87.47a.75.75 0 0 0 0 1.06l4.773 4.773a.75.75 0 1 0 1.06-1.06L228.311 88l4.242-4.243a.75.75 0 0 0-1.06-1.06zm60.05 1.28a.75.75 0 0 0 0-1.5zm104.875-1.5a.75.75 0 1 0 0 1.5zm63.635 1.28a.75.75 0 0 0 0-1.06l-4.773-4.773a.75.75 0 1 0-1.06 1.06L453.689 88l-4.242 4.243a.75.75 0 0 0 1.06 1.06zM227.25 88v.75h59.52v-1.5h-59.52zm164.395 0v.75h63.105v-1.5h-63.105zm-73.826-10.97a2.7 2.7 0 0 0-.333-.695 2.1 2.1 0 0 0-1.142-.865 2.6 2.6 0 0 0-.796-.115q-.738 0-1.33.38-.592.378-.938 1.112-.34.727-.34 1.785 0 1.06.345 1.794t.946 1.112q.6.38 1.368.38.71 0 1.24-.29.533-.29.822-.818.294-.533.294-1.253l.341.064h-2.497v-1.087h3.43v.993q0 1.1-.468 1.91-.465.804-1.287 1.243-.819.44-1.875.44-1.185 0-2.08-.546-.891-.546-1.389-1.547-.499-1.005-.499-2.386 0-1.044.29-1.875a4.1 4.1 0 0 1 .814-1.41q.529-.585 1.24-.891a3.9 3.9 0 0 1 1.564-.312q.708 0 1.317.21.613.208 1.091.591a3.37 3.37 0 0 1 1.223 2.076zm2.95 5.97v-8.727h5.471v1.133h-4.154v2.66h3.869v1.129h-3.869v2.672h4.206V83zm6.668-7.594v-1.133h6.754v1.133h-2.723V83h-1.312v-7.594zm14.38-1.542-2.812 10.448h-1.138l2.812-10.448zm8.857 2.701a1.25 1.25 0 0 0-.563-.937q-.495-.337-1.244-.337-.537 0-.929.17a1.43 1.43 0 0 0-.61.46 1.1 1.1 0 0 0-.213.661q0 .312.145.537.15.225.388.38.243.149.52.251.277.098.532.162l.853.221q.418.103.856.278.44.174.814.46.375.285.605.707.235.422.235 1.01 0 .741-.384 1.317-.38.575-1.104.907-.72.333-1.742.333-.98 0-1.696-.311a2.6 2.6 0 0 1-1.121-.882q-.405-.575-.448-1.364h1.321q.039.473.307.788.273.312.695.465.426.15.933.15.558-.001.993-.176.44-.179.69-.494a1.17 1.17 0 0 0 .252-.746.9.9 0 0 0-.222-.635 1.6 1.6 0 0 0-.592-.409 6 6 0 0 0-.84-.285l-1.031-.281q-1.048-.285-1.662-.84-.609-.555-.609-1.466 0-.755.409-1.317a2.7 2.7 0 0 1 1.108-.873 3.8 3.8 0 0 1 1.577-.316q.886 0 1.563.311.682.311 1.074.857.393.541.409 1.244zm2.83 6.435v-8.727h5.472v1.133h-4.155v2.66h3.869v1.129h-3.869v2.672h4.206V83zm6.668-7.594v-1.133h6.755v1.133h-2.723V83h-1.313v-7.594zm-61.931 19.16a1.25 1.25 0 0 0-.563-.938q-.494-.337-1.244-.337-.537 0-.929.17-.391.167-.609.46a1.1 1.1 0 0 0-.213.661q0 .312.144.537.15.225.388.38.243.149.52.251.277.098.533.162l.852.221q.417.103.857.278.438.174.814.46.375.285.605.707.234.422.234 1.01 0 .741-.384 1.317-.378.575-1.103.907-.72.333-1.743.333-.98 0-1.696-.311-.716-.312-1.121-.882-.405-.575-.447-1.364h1.321q.038.473.307.788.272.312.694.465.426.15.933.15.56-.001.993-.176.44-.179.691-.494.25-.32.251-.746a.9.9 0 0 0-.222-.635 1.6 1.6 0 0 0-.592-.409 6 6 0 0 0-.839-.285l-1.032-.281q-1.047-.285-1.662-.84-.609-.555-.609-1.466 0-.755.409-1.317a2.7 2.7 0 0 1 1.108-.873q.7-.316 1.577-.316.886 0 1.564.311.681.311 1.074.857.391.541.409 1.244zm9.875-2.293V101h-1.211l-4.436-6.4h-.081v6.4h-1.316v-8.727h1.218l4.441 6.409h.081v-6.41zm1.788 0h1.598l2.779 6.784h.102l2.778-6.784h1.598V101h-1.252v-6.315h-.081l-2.574 6.302h-1.04l-2.574-6.307h-.081V101h-1.253zM320.542 101v-8.727h3.111q1.018 0 1.687.37.669.372 1.002 1.015.332.639.332 1.44 0 .806-.337 1.449a2.43 2.43 0 0 1-1.005 1.014q-.669.37-1.684.37h-2.139v-1.116h2.02q.643 0 1.044-.221.4-.225.588-.614.188-.387.188-.882t-.188-.878a1.34 1.34 0 0 0-.592-.6q-.4-.219-1.057-.218h-1.653V101zm16.085-6.546L334.253 101h-1.364l-2.377-6.546h1.367l1.658 5.038h.068l1.654-5.038zm4.359-2.181V101h-1.321v-7.406h-.051l-2.088 1.363v-1.261l2.177-1.423zm5.57-.41-2.813 10.449h-1.137l2.812-10.448zm6.55 2.591L350.732 101h-1.364l-2.377-6.546h1.367l1.658 5.038h.068l1.654-5.038zm1.048 6.546v-.955l2.953-3.06q.473-.498.78-.873.31-.38.464-.72.154-.341.154-.724 0-.435-.205-.75a1.33 1.33 0 0 0-.558-.49 1.8 1.8 0 0 0-.797-.175q-.468 0-.818.192a1.3 1.3 0 0 0-.537.54 1.7 1.7 0 0 0-.187.819h-1.258q0-.797.367-1.394.366-.596 1.006-.924.639-.333 1.453-.333.822 0 1.449.328.63.324.984.887.354.558.354 1.261 0 .486-.184.95-.179.465-.626 1.036a18 18 0 0 1-1.244 1.377l-1.735 1.815v.064h3.929V101zm10.002.132q-.95 0-1.637-.43a2.85 2.85 0 0 1-1.048-1.198q-.367-.762-.367-1.747 0-.997.375-1.76.375-.766 1.057-1.197.682-.43 1.607-.43.745 0 1.329.276.584.273.942.767.363.495.43 1.155h-1.24a1.5 1.5 0 0 0-.468-.792q-.363-.333-.972-.333-.533 0-.933.281-.396.278-.618.793-.222.511-.222 1.21 0 .716.218 1.236.217.52.613.806.4.285.942.285.363 0 .656-.132.298-.136.499-.388.204-.252.285-.605h1.24a2.4 2.4 0 0 1-.413 1.133q-.345.499-.925.785-.575.285-1.35.285m7.243-9.268-2.813 10.448h-1.137l2.812-10.448zm6.55 2.59L375.575 101h-1.363l-2.378-6.546h1.368l1.657 5.038h.068l1.654-5.038zm4.086 6.665q-.877 0-1.568-.302a2.67 2.67 0 0 1-1.086-.84 2.2 2.2 0 0 1-.427-1.253h1.339q.025.388.26.674.238.28.622.434.382.154.852.154.516 0 .912-.18.4-.178.626-.498.226-.323.226-.746 0-.439-.226-.77a1.47 1.47 0 0 0-.652-.53q-.426-.19-1.031-.191h-.737v-1.074h.737q.486 0 .852-.175.371-.174.58-.485.209-.315.209-.738 0-.405-.184-.703a1.23 1.23 0 0 0-.511-.473 1.66 1.66 0 0 0-.775-.17q-.427 0-.797.157-.368.154-.597.444a1.14 1.14 0 0 0-.247.686h-1.274q.021-.708.417-1.245.401-.537 1.057-.839a3.4 3.4 0 0 1 1.458-.303q.839 0 1.448.328.615.324.946.866.338.54.333 1.184.004.733-.409 1.245-.41.511-1.091.686v.068q.869.132 1.346.69.482.558.478 1.385.004.72-.401 1.291a2.7 2.7 0 0 1-1.095.899q-.695.324-1.59.324"/></g><defs><clipPath id="a"><path fill="#fff" d="M0 0h720v178H0z"/></clipPath><clipPath id="b"><path fill="#fff" d="M0 0h720v314H0z"/></clipPath></defs></svg>