<svg xmlns="http://www.w3.org/2000/svg" width="720" height="317" fill="none" viewBox="0 0 720 317"><g clip-path="url(#a)"><path fill="#fff" d="M0 0h720v317H0z"/><g fill="#c1c3c8" clip-path="url(#b)" opacity=".5"><path d="M-11 324a1 1 0 1 1 0 2 1 1 0 0 1 0-2m14 0a1 1 0 1 1 0 2 1 1 0 0 1 0-2m14 0a1 1 0 1 1 0 2 1 1 0 0 1 0-2m14 0a1 1 0 1 1 0 2 1 1 0 0 1 0-2m14 0a1 1 0 1 1 0 2 1 1 0 0 1 0-2m14 0a1 1 0 1 1 0 2 1 1 0 0 1 0-2m14 0a1 1 0 1 1 0 2 1 1 0 0 1 0-2m14 0a1 1 0 1 1 0 2 1 1 0 0 1 0-2m14 0a1 1 0 1 1 0 2 1 1 0 0 1 0-2m14 0a1 1 0 1 1 0 2 1 1 0 0 1 0-2m14 0a1 1 0 1 1 0 2 1 1 0 0 1 0-2m14 0a1 1 0 1 1 0 2 1 1 0 0 1 0-2m14 0a1 1 0 1 1 0 2 1 1 0 0 1 0-2m14 0a1 1 0 1 1 0 2 1 1 0 0 1 0-2m14 0a1 1 0 1 1 0 2 1 1 0 0 1 0-2m14 0a1 1 0 1 1 0 2 1 1 0 0 1 0-2m14 0a1 1 0 1 1 0 2 1 1 0 0 1 0-2m14 0a1 1 0 1 1 0 2 1 1 0 0 1 0-2m14 0a1 1 0 1 1 0 2 1 1 0 0 1 0-2m14 0a1 1 0 1 1 0 2 1 1 0 0 1 0-2m14 0a1 1 0 1 1 0 2 1 1 0 0 1 0-2m14 0a1 1 0 1 1 0 2 1 1 0 0 1 0-2m14 0a1 1 0 1 1 0 2 1 1 0 0 1 0-2m14 0a1 1 0 1 1 0 2 1 1 0 0 1 0-2m14 0a1 1 0 1 1 0 2 1 1 0 0 1 0-2m14 0a1 1 0 1 1 0 2 1 1 0 0 1 0-2m14 0a1 1 0 1 1 0 2 1 1 0 0 1 0-2m14 0a1 1 0 1 1 0 2 1 1 0 0 1 0-2m14 0a1 1 0 1 1 0 2 1 1 0 0 1 0-2m14 0a1 1 0 1 1 0 2 1 1 0 0 1 0-2m14 0a1 1 0 1 1 0 2 1 1 0 0 1 0-2m14 0a1 1 0 1 1 0 2 1 1 0 0 1 0-2m14 0a1 1 0 1 1 0 2 1 1 0 0 1 0-2m14 0a1 1 0 1 1 0 2 1 1 0 0 1 0-2m14 0a1 1 0 1 1 0 2 1 1 0 0 1 0-2m14 0a1 1 0 1 1 0 2 1 1 0 0 1 0-2m14 0a1 1 0 1 1 0 2 1 1 0 0 1 0-2m14 0a1 1 0 1 1 0 2 1 1 0 0 1 0-2m14 0a1 1 0 1 1 0 2 1 1 0 0 1 0-2m14 0a1 1 0 1 1 0 2 1 1 0 0 1 0-2m14 0a1 1 0 1 1 0 2 1 1 0 0 1 0-2m14 0a1 1 0 1 1 0 2 1 1 0 0 1 0-2m14 0a1 1 0 1 1 0 2 1 1 0 0 1 0-2m14 0a1 1 0 1 1 0 2 1 1 0 0 1 0-2m14 0a1 1 0 1 1 0 2 1 1 0 0 1 0-2m14 0a1 1 0 1 1 0 2 1 1 0 0 1 0-2m14 0a1 1 0 1 1 0 2 1 1 0 0 1 0-2m14 0a1 1 0 1 1 0 2 1 1 0 0 1 0-2m14 0a1 1 0 1 1 0 2 1 1 0 0 1 0-2m14 0a1 1 0 1 1 0 2 1 1 0 0 1 0-2m14 0a1 1 0 1 1 0 2 1 1 0 0 1 0-2m14 0a1 1 0 1 1 0 2 1 1 0 0 1 0-2m-714-14a1 1 0 1 1 0 2 1 1 0 0 1 0-2m14 0a1 1 0 1 1 0 2 1 1 0 0 1 0-2m14 0a1 1 0 1 1 0 2 1 1 0 0 1 0-2m14 0a1 1 0 1 1 0 2 1 1 0 0 1 0-2m14 0a1 1 0 1 1 0 2 1 1 0 0 1 0-2m14 0a1 1 0 1 1 0 2 1 1 0 0 1 0-2m14 0a1 1 0 1 1 0 2 1 1 0 0 1 0-2m14 0a1 1 0 1 1 0 2 1 1 0 0 1 0-2m14 0a1 1 0 1 1 0 2 1 1 0 0 1 0-2m14 0a1 1 0 1 1 0 2 1 1 0 0 1 0-2m14 0a1 1 0 1 1 0 2 1 1 0 0 1 0-2m14 0a1 1 0 1 1 0 2 1 1 0 0 1 0-2m14 0a1 1 0 1 1 0 2 1 1 0 0 1 0-2m14 0a1 1 0 1 1 0 2 1 1 0 0 1 0-2m14 0a1 1 0 1 1 0 2 1 1 0 0 1 0-2m14 0a1 1 0 1 1 0 2 1 1 0 0 1 0-2m14 0a1 1 0 1 1 0 2 1 1 0 0 1 0-2m14 0a1 1 0 1 1 0 2 1 1 0 0 1 0-2m14 0a1 1 0 1 1 0 2 1 1 0 0 1 0-2m14 0a1 1 0 1 1 0 2 1 1 0 0 1 0-2m14 0a1 1 0 1 1 0 2 1 1 0 0 1 0-2m14 0a1 1 0 1 1 0 2 1 1 0 0 1 0-2m14 0a1 1 0 1 1 0 2 1 1 0 0 1 0-2m14 0a1 1 0 1 1 0 2 1 1 0 0 1 0-2m14 0a1 1 0 1 1 0 2 1 1 0 0 1 0-2m14 0a1 1 0 1 1 0 2 1 1 0 0 1 0-2m14 0a1 1 0 1 1 0 2 1 1 0 0 1 0-2m14 0a1 1 0 1 1 0 2 1 1 0 0 1 0-2m14 0a1 1 0 1 1 0 2 1 1 0 0 1 0-2m14 0a1 1 0 1 1 0 2 1 1 0 0 1 0-2m14 0a1 1 0 1 1 0 2 1 1 0 0 1 0-2m14 0a1 1 0 1 1 0 2 1 1 0 0 1 0-2m14 0a1 1 0 1 1 0 2 1 1 0 0 1 0-2m14 0a1 1 0 1 1 0 2 1 1 0 0 1 0-2m14 0a1 1 0 1 1 0 2 1 1 0 0 1 0-2m14 0a1 1 0 1 1 0 2 1 1 0 0 1 0-2m14 0a1 1 0 1 1 0 2 1 1 0 0 1 0-2m14 0a1 1 0 1 1 0 2 1 1 0 0 1 0-2m14 0a1 1 0 1 1 0 2 1 1 0 0 1 0-2m14 0a1 1 0 1 1 0 2 1 1 0 0 1 0-2m14 0a1 1 0 1 1 0 2 1 1 0 0 1 0-2m14 0a1 1 0 1 1 0 2 1 1 0 0 1 0-2m14 0a1 1 0 1 1 0 2 1 1 0 0 1 0-2m14 0a1 1 0 1 1 0 2 1 1 0 0 1 0-2m14 0a1 1 0 1 1 0 2 1 1 0 0 1 0-2m14 0a1 1 0 1 1 0 2 1 1 0 0 1 0-2m14 0a1 1 0 1 1 0 2 1 1 0 0 1 0-2m14 0a1 1 0 1 1 0 2 1 1 0 0 1 0-2m14 0a1 1 0 1 1 0 2 1 1 0 0 1 0-2m14 0a1 1 0 1 1 0 2 1 1 0 0 1 0-2m14 0a1 1 0 1 1 0 2 1 1 0 0 1 0-2m14 0a1 1 0 1 1 0 2 1 1 0 0 1 0-2m14 0a1 1 0 1 1 0 2 1 1 0 0 1 0-2m-728-14a1 1 0 1 1 0 2 1 1 0 0 1 0-2m14 0a1 1 0 1 1 0 2 1 1 0 0 1 0-2m14 0a1 1 0 1 1 0 2 1 1 0 0 1 0-2m14 0a1 1 0 1 1 0 2 1 1 0 0 1 0-2m14 0a1 1 0 1 1 0 2 1 1 0 0 1 0-2m14 0a1 1 0 1 1 0 2 1 1 0 0 1 0-2m14 0a1 1 0 1 1 0 2 1 1 0 0 1 0-2m14 0a1 1 0 1 1 0 2 1 1 0 0 1 0-2m14 0a1 1 0 1 1 0 2 1 1 0 0 1 0-2m14 0a1 1 0 1 1 0 2 1 1 0 0 1 0-2m14 0a1 1 0 1 1 0 2 1 1 0 0 1 0-2m14 0a1 1 0 1 1 0 2 1 1 0 0 1 0-2m14 0a1 1 0 1 1 0 2 1 1 0 0 1 0-2m14 0a1 1 0 1 1 0 2 1 1 0 0 1 0-2m14 0a1 1 0 1 1 0 2 1 1 0 0 1 0-2m14 0a1 1 0 1 1 0 2 1 1 0 0 1 0-2m14 0a1 1 0 1 1 0 2 1 1 0 0 1 0-2m14 0a1 1 0 1 1 0 2 1 1 0 0 1 0-2m14 0a1 1 0 1 1 0 2 1 1 0 0 1 0-2m14 0a1 1 0 1 1 0 2 1 1 0 0 1 0-2m14 0a1 1 0 1 1 0 2 1 1 0 0 1 0-2m14 0a1 1 0 1 1 0 2 1 1 0 0 1 0-2m14 0a1 1 0 1 1 0 2 1 1 0 0 1 0-2m14 0a1 1 0 1 1 0 2 1 1 0 0 1 0-2m14 0a1 1 0 1 1 0 2 1 1 0 0 1 0-2m14 0a1 1 0 1 1 0 2 1 1 0 0 1 0-2m14 0a1 1 0 1 1 0 2 1 1 0 0 1 0-2m14 0a1 1 0 1 1 0 2 1 1 0 0 1 0-2m14 0a1 1 0 1 1 0 2 1 1 0 0 1 0-2m14 0a1 1 0 1 1 0 2 1 1 0 0 1 0-2m14 0a1 1 0 1 1 0 2 1 1 0 0 1 0-2m14 0a1 1 0 1 1 0 2 1 1 0 0 1 0-2m14 0a1 1 0 1 1 0 2 1 1 0 0 1 0-2m14 0a1 1 0 1 1 0 2 1 1 0 0 1 0-2m14 0a1 1 0 1 1 0 2 1 1 0 0 1 0-2m14 0a1 1 0 1 1 0 2 1 1 0 0 1 0-2m14 0a1 1 0 1 1 0 2 1 1 0 0 1 0-2m14 0a1 1 0 1 1 0 2 1 1 0 0 1 0-2m14 0a1 1 0 1 1 0 2 1 1 0 0 1 0-2m14 0a1 1 0 1 1 0 2 1 1 0 0 1 0-2m14 0a1 1 0 1 1 0 2 1 1 0 0 1 0-2m14 0a1 1 0 1 1 0 2 1 1 0 0 1 0-2m14 0a1 1 0 1 1 0 2 1 1 0 0 1 0-2m14 0a1 1 0 1 1 0 2 1 1 0 0 1 0-2m14 0a1 1 0 1 1 0 2 1 1 0 0 1 0-2m14 0a1 1 0 1 1 0 2 1 1 0 0 1 0-2m14 0a1 1 0 1 1 0 2 1 1 0 0 1 0-2m14 0a1 1 0 1 1 0 2 1 1 0 0 1 0-2m14 0a1 1 0 1 1 0 2 1 1 0 0 1 0-2m14 0a1 1 0 1 1 0 2 1 1 0 0 1 0-2m14 0a1 1 0 1 1 0 2 1 1 0 0 1 0-2m14 0a1 1 0 1 1 0 2 1 1 0 0 1 0-2m14 0a1 1 0 1 1 0 2 1 1 0 0 1 0-2m-728-14a1 1 0 1 1 0 2 1 1 0 0 1 0-2m14 0a1 1 0 1 1 0 2 1 1 0 0 1 0-2m14 0a1 1 0 1 1 0 2 1 1 0 0 1 0-2m14 0a1 1 0 1 1 0 2 1 1 0 0 1 0-2m14 0a1 1 0 1 1 0 2 1 1 0 0 1 0-2m14 0a1 1 0 1 1 0 2 1 1 0 0 1 0-2m14 0a1 1 0 1 1 0 2 1 1 0 0 1 0-2m14 0a1 1 0 1 1 0 2 1 1 0 0 1 0-2m14 0a1 1 0 1 1 0 2 1 1 0 0 1 0-2m14 0a1 1 0 1 1 0 2 1 1 0 0 1 0-2m14 0a1 1 0 1 1 0 2 1 1 0 0 1 0-2m14 0a1 1 0 1 1 0 2 1 1 0 0 1 0-2m14 0a1 1 0 1 1 0 2 1 1 0 0 1 0-2m14 0a1 1 0 1 1 0 2 1 1 0 0 1 0-2m14 0a1 1 0 1 1 0 2 1 1 0 0 1 0-2m14 0a1 1 0 1 1 0 2 1 1 0 0 1 0-2m14 0a1 1 0 1 1 0 2 1 1 0 0 1 0-2m14 0a1 1 0 1 1 0 2 1 1 0 0 1 0-2m14 0a1 1 0 1 1 0 2 1 1 0 0 1 0-2m14 0a1 1 0 1 1 0 2 1 1 0 0 1 0-2m14 0a1 1 0 1 1 0 2 1 1 0 0 1 0-2m14 0a1 1 0 1 1 0 2 1 1 0 0 1 0-2m14 0a1 1 0 1 1 0 2 1 1 0 0 1 0-2m14 0a1 1 0 1 1 0 2 1 1 0 0 1 0-2m14 0a1 1 0 1 1 0 2 1 1 0 0 1 0-2m14 0a1 1 0 1 1 0 2 1 1 0 0 1 0-2m14 0a1 1 0 1 1 0 2 1 1 0 0 1 0-2m14 0a1 1 0 1 1 0 2 1 1 0 0 1 0-2m14 0a1 1 0 1 1 0 2 1 1 0 0 1 0-2m14 0a1 1 0 1 1 0 2 1 1 0 0 1 0-2m14 0a1 1 0 1 1 0 2 1 1 0 0 1 0-2m14 0a1 1 0 1 1 0 2 1 1 0 0 1 0-2m14 0a1 1 0 1 1 0 2 1 1 0 0 1 0-2m14 0a1 1 0 1 1 0 2 1 1 0 0 1 0-2m14 0a1 1 0 1 1 0 2 1 1 0 0 1 0-2m14 0a1 1 0 1 1 0 2 1 1 0 0 1 0-2m14 0a1 1 0 1 1 0 2 1 1 0 0 1 0-2m14 0a1 1 0 1 1 0 2 1 1 0 0 1 0-2m14 0a1 1 0 1 1 0 2 1 1 0 0 1 0-2m14 0a1 1 0 1 1 0 2 1 1 0 0 1 0-2m14 0a1 1 0 1 1 0 2 1 1 0 0 1 0-2m14 0a1 1 0 1 1 0 2 1 1 0 0 1 0-2m14 0a1 1 0 1 1 0 2 1 1 0 0 1 0-2m14 0a1 1 0 1 1 0 2 1 1 0 0 1 0-2m14 0a1 1 0 1 1 0 2 1 1 0 0 1 0-2m14 0a1 1 0 1 1 0 2 1 1 0 0 1 0-2m14 0a1 1 0 1 1 0 2 1 1 0 0 1 0-2m14 0a1 1 0 1 1 0 2 1 1 0 0 1 0-2m14 0a1 1 0 1 1 0 2 1 1 0 0 1 0-2m14 0a1 1 0 1 1 0 2 1 1 0 0 1 0-2m14 0a1 1 0 1 1 0 2 1 1 0 0 1 0-2m14 0a1 1 0 1 1 0 2 1 1 0 0 1 0-2m14 0a1 1 0 1 1 0 2 1 1 0 0 1 0-2m-728-14a1 1 0 1 1 0 2 1 1 0 0 1 0-2m14 0a1 1 0 1 1 0 2 1 1 0 0 1 0-2m14 0a1 1 0 1 1 0 2 1 1 0 0 1 0-2m14 0a1 1 0 1 1 0 2 1 1 0 0 1 0-2m14 0a1 1 0 1 1 0 2 1 1 0 0 1 0-2m14 0a1 1 0 1 1 0 2 1 1 0 0 1 0-2m14 0a1 1 0 1 1 0 2 1 1 0 0 1 0-2m14 0a1 1 0 1 1 0 2 1 1 0 0 1 0-2m14 0a1 1 0 1 1 0 2 1 1 0 0 1 0-2m14 0a1 1 0 1 1 0 2 1 1 0 0 1 0-2m14 0a1 1 0 1 1 0 2 1 1 0 0 1 0-2m14 0a1 1 0 1 1 0 2 1 1 0 0 1 0-2m14 0a1 1 0 1 1 0 2 1 1 0 0 1 0-2m14 0a1 1 0 1 1 0 2 1 1 0 0 1 0-2m14 0a1 1 0 1 1 0 2 1 1 0 0 1 0-2m14 0a1 1 0 1 1 0 2 1 1 0 0 1 0-2m14 0a1 1 0 1 1 0 2 1 1 0 0 1 0-2m14 0a1 1 0 1 1 0 2 1 1 0 0 1 0-2m14 0a1 1 0 1 1 0 2 1 1 0 0 1 0-2m14 0a1 1 0 1 1 0 2 1 1 0 0 1 0-2m14 0a1 1 0 1 1 0 2 1 1 0 0 1 0-2m14 0a1 1 0 1 1 0 2 1 1 0 0 1 0-2m14 0a1 1 0 1 1 0 2 1 1 0 0 1 0-2m14 0a1 1 0 1 1 0 2 1 1 0 0 1 0-2m14 0a1 1 0 1 1 0 2 1 1 0 0 1 0-2m14 0a1 1 0 1 1 0 2 1 1 0 0 1 0-2m14 0a1 1 0 1 1 0 2 1 1 0 0 1 0-2m14 0a1 1 0 1 1 0 2 1 1 0 0 1 0-2m14 0a1 1 0 1 1 0 2 1 1 0 0 1 0-2m14 0a1 1 0 1 1 0 2 1 1 0 0 1 0-2m14 0a1 1 0 1 1 0 2 1 1 0 0 1 0-2m14 0a1 1 0 1 1 0 2 1 1 0 0 1 0-2m14 0a1 1 0 1 1 0 2 1 1 0 0 1 0-2m14 0a1 1 0 1 1 0 2 1 1 0 0 1 0-2m14 0a1 1 0 1 1 0 2 1 1 0 0 1 0-2m14 0a1 1 0 1 1 0 2 1 1 0 0 1 0-2m14 0a1 1 0 1 1 0 2 1 1 0 0 1 0-2m14 0a1 1 0 1 1 0 2 1 1 0 0 1 0-2m14 0a1 1 0 1 1 0 2 1 1 0 0 1 0-2m14 0a1 1 0 1 1 0 2 1 1 0 0 1 0-2m14 0a1 1 0 1 1 0 2 1 1 0 0 1 0-2m14 0a1 1 0 1 1 0 2 1 1 0 0 1 0-2m14 0a1 1 0 1 1 0 2 1 1 0 0 1 0-2m14 0a1 1 0 1 1 0 2 1 1 0 0 1 0-2m14 0a1 1 0 1 1 0 2 1 1 0 0 1 0-2m14 0a1 1 0 1 1 0 2 1 1 0 0 1 0-2m14 0a1 1 0 1 1 0 2 1 1 0 0 1 0-2m14 0a1 1 0 1 1 0 2 1 1 0 0 1 0-2m14 0a1 1 0 1 1 0 2 1 1 0 0 1 0-2m14 0a1 1 0 1 1 0 2 1 1 0 0 1 0-2m14 0a1 1 0 1 1 0 2 1 1 0 0 1 0-2m14 0a1 1 0 1 1 0 2 1 1 0 0 1 0-2m14 0a1 1 0 1 1 0 2 1 1 0 0 1 0-2m-728-14a1 1 0 1 1 0 2 1 1 0 0 1 0-2m14 0a1 1 0 1 1 0 2 1 1 0 0 1 0-2m14 0a1 1 0 1 1 0 2 1 1 0 0 1 0-2m14 0a1 1 0 1 1 0 2 1 1 0 0 1 0-2m14 0a1 1 0 1 1 0 2 1 1 0 0 1 0-2m14 0a1 1 0 1 1 0 2 1 1 0 0 1 0-2m14 0a1 1 0 1 1 0 2 1 1 0 0 1 0-2m14 0a1 1 0 1 1 0 2 1 1 0 0 1 0-2m14 0a1 1 0 1 1 0 2 1 1 0 0 1 0-2m14 0a1 1 0 1 1 0 2 1 1 0 0 1 0-2m14 0a1 1 0 1 1 0 2 1 1 0 0 1 0-2m14 0a1 1 0 1 1 0 2 1 1 0 0 1 0-2m14 0a1 1 0 1 1 0 2 1 1 0 0 1 0-2m14 0a1 1 0 1 1 0 2 1 1 0 0 1 0-2m14 0a1 1 0 1 1 0 2 1 1 0 0 1 0-2m14 0a1 1 0 1 1 0 2 1 1 0 0 1 0-2m14 0a1 1 0 1 1 0 2 1 1 0 0 1 0-2m14 0a1 1 0 1 1 0 2 1 1 0 0 1 0-2m14 0a1 1 0 1 1 0 2 1 1 0 0 1 0-2m14 0a1 1 0 1 1 0 2 1 1 0 0 1 0-2m14 0a1 1 0 1 1 0 2 1 1 0 0 1 0-2m14 0a1 1 0 1 1 0 2 1 1 0 0 1 0-2m14 0a1 1 0 1 1 0 2 1 1 0 0 1 0-2m14 0a1 1 0 1 1 0 2 1 1 0 0 1 0-2m14 0a1 1 0 1 1 0 2 1 1 0 0 1 0-2m14 0a1 1 0 1 1 0 2 1 1 0 0 1 0-2m14 0a1 1 0 1 1 0 2 1 1 0 0 1 0-2m14 0a1 1 0 1 1 0 2 1 1 0 0 1 0-2m14 0a1 1 0 1 1 0 2 1 1 0 0 1 0-2m14 0a1 1 0 1 1 0 2 1 1 0 0 1 0-2m14 0a1 1 0 1 1 0 2 1 1 0 0 1 0-2m14 0a1 1 0 1 1 0 2 1 1 0 0 1 0-2m14 0a1 1 0 1 1 0 2 1 1 0 0 1 0-2m14 0a1 1 0 1 1 0 2 1 1 0 0 1 0-2m14 0a1 1 0 1 1 0 2 1 1 0 0 1 0-2m14 0a1 1 0 1 1 0 2 1 1 0 0 1 0-2m14 0a1 1 0 1 1 0 2 1 1 0 0 1 0-2m14 0a1 1 0 1 1 0 2 1 1 0 0 1 0-2m14 0a1 1 0 1 1 0 2 1 1 0 0 1 0-2m14 0a1 1 0 1 1 0 2 1 1 0 0 1 0-2m14 0a1 1 0 1 1 0 2 1 1 0 0 1 0-2m14 0a1 1 0 1 1 0 2 1 1 0 0 1 0-2m14 0a1 1 0 1 1 0 2 1 1 0 0 1 0-2m14 0a1 1 0 1 1 0 2 1 1 0 0 1 0-2m14 0a1 1 0 1 1 0 2 1 1 0 0 1 0-2m14 0a1 1 0 1 1 0 2 1 1 0 0 1 0-2m14 0a1 1 0 1 1 0 2 1 1 0 0 1 0-2m14 0a1 1 0 1 1 0 2 1 1 0 0 1 0-2m14 0a1 1 0 1 1 0 2 1 1 0 0 1 0-2m14 0a1 1 0 1 1 0 2 1 1 0 0 1 0-2m14 0a1 1 0 1 1 0 2 1 1 0 0 1 0-2m14 0a1 1 0 1 1 0 2 1 1 0 0 1 0-2m14 0a1 1 0 1 1 0 2 1 1 0 0 1 0-2m-728-14a1 1 0 1 1 0 2 1 1 0 0 1 0-2m14 0a1 1 0 1 1 0 2 1 1 0 0 1 0-2m14 0a1 1 0 1 1 0 2 1 1 0 0 1 0-2m14 0a1 1 0 1 1 0 2 1 1 0 0 1 0-2m14 0a1 1 0 1 1 0 2 1 1 0 0 1 0-2m14 0a1 1 0 1 1 0 2 1 1 0 0 1 0-2m14 0a1 1 0 1 1 0 2 1 1 0 0 1 0-2m14 0a1 1 0 1 1 0 2 1 1 0 0 1 0-2m14 0a1 1 0 1 1 0 2 1 1 0 0 1 0-2m14 0a1 1 0 1 1 0 2 1 1 0 0 1 0-2m14 0a1 1 0 1 1 0 2 1 1 0 0 1 0-2m14 0a1 1 0 1 1 0 2 1 1 0 0 1 0-2m14 0a1 1 0 1 1 0 2 1 1 0 0 1 0-2m14 0a1 1 0 1 1 0 2 1 1 0 0 1 0-2m14 0a1 1 0 1 1 0 2 1 1 0 0 1 0-2m14 0a1 1 0 1 1 0 2 1 1 0 0 1 0-2m14 0a1 1 0 1 1 0 2 1 1 0 0 1 0-2m14 0a1 1 0 1 1 0 2 1 1 0 0 1 0-2m14 0a1 1 0 1 1 0 2 1 1 0 0 1 0-2m14 0a1 1 0 1 1 0 2 1 1 0 0 1 0-2m14 0a1 1 0 1 1 0 2 1 1 0 0 1 0-2m14 0a1 1 0 1 1 0 2 1 1 0 0 1 0-2m14 0a1 1 0 1 1 0 2 1 1 0 0 1 0-2m14 0a1 1 0 1 1 0 2 1 1 0 0 1 0-2m14 0a1 1 0 1 1 0 2 1 1 0 0 1 0-2m14 0a1 1 0 1 1 0 2 1 1 0 0 1 0-2m14 0a1 1 0 1 1 0 2 1 1 0 0 1 0-2m14 0a1 1 0 1 1 0 2 1 1 0 0 1 0-2m14 0a1 1 0 1 1 0 2 1 1 0 0 1 0-2m14 0a1 1 0 1 1 0 2 1 1 0 0 1 0-2m14 0a1 1 0 1 1 0 2 1 1 0 0 1 0-2m14 0a1 1 0 1 1 0 2 1 1 0 0 1 0-2m14 0a1 1 0 1 1 0 2 1 1 0 0 1 0-2m14 0a1 1 0 1 1 0 2 1 1 0 0 1 0-2m14 0a1 1 0 1 1 0 2 1 1 0 0 1 0-2m14 0a1 1 0 1 1 0 2 1 1 0 0 1 0-2m14 0a1 1 0 1 1 0 2 1 1 0 0 1 0-2m14 0a1 1 0 1 1 0 2 1 1 0 0 1 0-2m14 0a1 1 0 1 1 0 2 1 1 0 0 1 0-2m14 0a1 1 0 1 1 0 2 1 1 0 0 1 0-2m14 0a1 1 0 1 1 0 2 1 1 0 0 1 0-2m14 0a1 1 0 1 1 0 2 1 1 0 0 1 0-2m14 0a1 1 0 1 1 0 2 1 1 0 0 1 0-2m14 0a1 1 0 1 1 0 2 1 1 0 0 1 0-2m14 0a1 1 0 1 1 0 2 1 1 0 0 1 0-2m14 0a1 1 0 1 1 0 2 1 1 0 0 1 0-2m14 0a1 1 0 1 1 0 2 1 1 0 0 1 0-2m14 0a1 1 0 1 1 0 2 1 1 0 0 1 0-2m14 0a1 1 0 1 1 0 2 1 1 0 0 1 0-2m14 0a1 1 0 1 1 0 2 1 1 0 0 1 0-2m14 0a1 1 0 1 1 0 2 1 1 0 0 1 0-2m14 0a1 1 0 1 1 0 2 1 1 0 0 1 0-2m14 0a1 1 0 1 1 0 2 1 1 0 0 1 0-2m-728-14a1 1 0 1 1 0 2 1 1 0 0 1 0-2m14 0a1 1 0 1 1 0 2 1 1 0 0 1 0-2m14 0a1 1 0 1 1 0 2 1 1 0 0 1 0-2m14 0a1 1 0 1 1 0 2 1 1 0 0 1 0-2m14 0a1 1 0 1 1 0 2 1 1 0 0 1 0-2m14 0a1 1 0 1 1 0 2 1 1 0 0 1 0-2m14 0a1 1 0 1 1 0 2 1 1 0 0 1 0-2m14 0a1 1 0 1 1 0 2 1 1 0 0 1 0-2m14 0a1 1 0 1 1 0 2 1 1 0 0 1 0-2m14 0a1 1 0 1 1 0 2 1 1 0 0 1 0-2m14 0a1 1 0 1 1 0 2 1 1 0 0 1 0-2m14 0a1 1 0 1 1 0 2 1 1 0 0 1 0-2m14 0a1 1 0 1 1 0 2 1 1 0 0 1 0-2m14 0a1 1 0 1 1 0 2 1 1 0 0 1 0-2m14 0a1 1 0 1 1 0 2 1 1 0 0 1 0-2m14 0a1 1 0 1 1 0 2 1 1 0 0 1 0-2m14 0a1 1 0 1 1 0 2 1 1 0 0 1 0-2m14 0a1 1 0 1 1 0 2 1 1 0 0 1 0-2m14 0a1 1 0 1 1 0 2 1 1 0 0 1 0-2m14 0a1 1 0 1 1 0 2 1 1 0 0 1 0-2m14 0a1 1 0 1 1 0 2 1 1 0 0 1 0-2m14 0a1 1 0 1 1 0 2 1 1 0 0 1 0-2m14 0a1 1 0 1 1 0 2 1 1 0 0 1 0-2m14 0a1 1 0 1 1 0 2 1 1 0 0 1 0-2m14 0a1 1 0 1 1 0 2 1 1 0 0 1 0-2m14 0a1 1 0 1 1 0 2 1 1 0 0 1 0-2m14 0a1 1 0 1 1 0 2 1 1 0 0 1 0-2m14 0a1 1 0 1 1 0 2 1 1 0 0 1 0-2m14 0a1 1 0 1 1 0 2 1 1 0 0 1 0-2m14 0a1 1 0 1 1 0 2 1 1 0 0 1 0-2m14 0a1 1 0 1 1 0 2 1 1 0 0 1 0-2m14 0a1 1 0 1 1 0 2 1 1 0 0 1 0-2m14 0a1 1 0 1 1 0 2 1 1 0 0 1 0-2m14 0a1 1 0 1 1 0 2 1 1 0 0 1 0-2m14 0a1 1 0 1 1 0 2 1 1 0 0 1 0-2m14 0a1 1 0 1 1 0 2 1 1 0 0 1 0-2m14 0a1 1 0 1 1 0 2 1 1 0 0 1 0-2m14 0a1 1 0 1 1 0 2 1 1 0 0 1 0-2m14 0a1 1 0 1 1 0 2 1 1 0 0 1 0-2m14 0a1 1 0 1 1 0 2 1 1 0 0 1 0-2m14 0a1 1 0 1 1 0 2 1 1 0 0 1 0-2m14 0a1 1 0 1 1 0 2 1 1 0 0 1 0-2m14 0a1 1 0 1 1 0 2 1 1 0 0 1 0-2m14 0a1 1 0 1 1 0 2 1 1 0 0 1 0-2m14 0a1 1 0 1 1 0 2 1 1 0 0 1 0-2m14 0a1 1 0 1 1 0 2 1 1 0 0 1 0-2m14 0a1 1 0 1 1 0 2 1 1 0 0 1 0-2m14 0a1 1 0 1 1 0 2 1 1 0 0 1 0-2m14 0a1 1 0 1 1 0 2 1 1 0 0 1 0-2m14 0a1 1 0 1 1 0 2 1 1 0 0 1 0-2m14 0a1 1 0 1 1 0 2 1 1 0 0 1 0-2m14 0a1 1 0 1 1 0 2 1 1 0 0 1 0-2m14 0a1 1 0 1 1 0 2 1 1 0 0 1 0-2m-728-14a1 1 0 1 1 0 2 1 1 0 0 1 0-2m14 0a1 1 0 1 1 0 2 1 1 0 0 1 0-2m14 0a1 1 0 1 1 0 2 1 1 0 0 1 0-2m14 0a1 1 0 1 1 0 2 1 1 0 0 1 0-2m14 0a1 1 0 1 1 0 2 1 1 0 0 1 0-2m14 0a1 1 0 1 1 0 2 1 1 0 0 1 0-2m14 0a1 1 0 1 1 0 2 1 1 0 0 1 0-2m14 0a1 1 0 1 1 0 2 1 1 0 0 1 0-2m14 0a1 1 0 1 1 0 2 1 1 0 0 1 0-2m14 0a1 1 0 1 1 0 2 1 1 0 0 1 0-2m14 0a1 1 0 1 1 0 2 1 1 0 0 1 0-2m14 0a1 1 0 1 1 0 2 1 1 0 0 1 0-2m14 0a1 1 0 1 1 0 2 1 1 0 0 1 0-2m14 0a1 1 0 1 1 0 2 1 1 0 0 1 0-2m14 0a1 1 0 1 1 0 2 1 1 0 0 1 0-2m14 0a1 1 0 1 1 0 2 1 1 0 0 1 0-2m14 0a1 1 0 1 1 0 2 1 1 0 0 1 0-2m14 0a1 1 0 1 1 0 2 1 1 0 0 1 0-2m14 0a1 1 0 1 1 0 2 1 1 0 0 1 0-2m14 0a1 1 0 1 1 0 2 1 1 0 0 1 0-2m14 0a1 1 0 1 1 0 2 1 1 0 0 1 0-2m14 0a1 1 0 1 1 0 2 1 1 0 0 1 0-2m14 0a1 1 0 1 1 0 2 1 1 0 0 1 0-2m14 0a1 1 0 1 1 0 2 1 1 0 0 1 0-2m14 0a1 1 0 1 1 0 2 1 1 0 0 1 0-2m14 0a1 1 0 1 1 0 2 1 1 0 0 1 0-2m14 0a1 1 0 1 1 0 2 1 1 0 0 1 0-2m14 0a1 1 0 1 1 0 2 1 1 0 0 1 0-2m14 0a1 1 0 1 1 0 2 1 1 0 0 1 0-2m14 0a1 1 0 1 1 0 2 1 1 0 0 1 0-2m14 0a1 1 0 1 1 0 2 1 1 0 0 1 0-2m14 0a1 1 0 1 1 0 2 1 1 0 0 1 0-2m14 0a1 1 0 1 1 0 2 1 1 0 0 1 0-2m14 0a1 1 0 1 1 0 2 1 1 0 0 1 0-2m14 0a1 1 0 1 1 0 2 1 1 0 0 1 0-2m14 0a1 1 0 1 1 0 2 1 1 0 0 1 0-2m14 0a1 1 0 1 1 0 2 1 1 0 0 1 0-2m14 0a1 1 0 1 1 0 2 1 1 0 0 1 0-2m14 0a1 1 0 1 1 0 2 1 1 0 0 1 0-2m14 0a1 1 0 1 1 0 2 1 1 0 0 1 0-2m14 0a1 1 0 1 1 0 2 1 1 0 0 1 0-2m14 0a1 1 0 1 1 0 2 1 1 0 0 1 0-2m14 0a1 1 0 1 1 0 2 1 1 0 0 1 0-2m14 0a1 1 0 1 1 0 2 1 1 0 0 1 0-2m14 0a1 1 0 1 1 0 2 1 1 0 0 1 0-2m14 0a1 1 0 1 1 0 2 1 1 0 0 1 0-2m14 0a1 1 0 1 1 0 2 1 1 0 0 1 0-2m14 0a1 1 0 1 1 0 2 1 1 0 0 1 0-2m14 0a1 1 0 1 1 0 2 1 1 0 0 1 0-2m14 0a1 1 0 1 1 0 2 1 1 0 0 1 0-2m14 0a1 1 0 1 1 0 2 1 1 0 0 1 0-2m14 0a1 1 0 1 1 0 2 1 1 0 0 1 0-2m14 0a1 1 0 1 1 0 2 1 1 0 0 1 0-2m-728-14a1 1 0 1 1 0 2 1 1 0 0 1 0-2m14 0a1 1 0 1 1 0 2 1 1 0 0 1 0-2m14 0a1 1 0 1 1 0 2 1 1 0 0 1 0-2m14 0a1 1 0 1 1 0 2 1 1 0 0 1 0-2m14 0a1 1 0 1 1 0 2 1 1 0 0 1 0-2m14 0a1 1 0 1 1 0 2 1 1 0 0 1 0-2m14 0a1 1 0 1 1 0 2 1 1 0 0 1 0-2m14 0a1 1 0 1 1 0 2 1 1 0 0 1 0-2m14 0a1 1 0 1 1 0 2 1 1 0 0 1 0-2m14 0a1 1 0 1 1 0 2 1 1 0 0 1 0-2m14 0a1 1 0 1 1 0 2 1 1 0 0 1 0-2m14 0a1 1 0 1 1 0 2 1 1 0 0 1 0-2m14 0a1 1 0 1 1 0 2 1 1 0 0 1 0-2m14 0a1 1 0 1 1 0 2 1 1 0 0 1 0-2m14 0a1 1 0 1 1 0 2 1 1 0 0 1 0-2m14 0a1 1 0 1 1 0 2 1 1 0 0 1 0-2m14 0a1 1 0 1 1 0 2 1 1 0 0 1 0-2m14 0a1 1 0 1 1 0 2 1 1 0 0 1 0-2m14 0a1 1 0 1 1 0 2 1 1 0 0 1 0-2m14 0a1 1 0 1 1 0 2 1 1 0 0 1 0-2m14 0a1 1 0 1 1 0 2 1 1 0 0 1 0-2m14 0a1 1 0 1 1 0 2 1 1 0 0 1 0-2m14 0a1 1 0 1 1 0 2 1 1 0 0 1 0-2m14 0a1 1 0 1 1 0 2 1 1 0 0 1 0-2m14 0a1 1 0 1 1 0 2 1 1 0 0 1 0-2m14 0a1 1 0 1 1 0 2 1 1 0 0 1 0-2m14 0a1 1 0 1 1 0 2 1 1 0 0 1 0-2m14 0a1 1 0 1 1 0 2 1 1 0 0 1 0-2m14 0a1 1 0 1 1 0 2 1 1 0 0 1 0-2m14 0a1 1 0 1 1 0 2 1 1 0 0 1 0-2m14 0a1 1 0 1 1 0 2 1 1 0 0 1 0-2m14 0a1 1 0 1 1 0 2 1 1 0 0 1 0-2m14 0a1 1 0 1 1 0 2 1 1 0 0 1 0-2m14 0a1 1 0 1 1 0 2 1 1 0 0 1 0-2m14 0a1 1 0 1 1 0 2 1 1 0 0 1 0-2m14 0a1 1 0 1 1 0 2 1 1 0 0 1 0-2m14 0a1 1 0 1 1 0 2 1 1 0 0 1 0-2m14 0a1 1 0 1 1 0 2 1 1 0 0 1 0-2m14 0a1 1 0 1 1 0 2 1 1 0 0 1 0-2m14 0a1 1 0 1 1 0 2 1 1 0 0 1 0-2m14 0a1 1 0 1 1 0 2 1 1 0 0 1 0-2m14 0a1 1 0 1 1 0 2 1 1 0 0 1 0-2m14 0a1 1 0 1 1 0 2 1 1 0 0 1 0-2m14 0a1 1 0 1 1 0 2 1 1 0 0 1 0-2m14 0a1 1 0 1 1 0 2 1 1 0 0 1 0-2m14 0a1 1 0 1 1 0 2 1 1 0 0 1 0-2m14 0a1 1 0 1 1 0 2 1 1 0 0 1 0-2m14 0a1 1 0 1 1 0 2 1 1 0 0 1 0-2m14 0a1 1 0 1 1 0 2 1 1 0 0 1 0-2m14 0a1 1 0 1 1 0 2 1 1 0 0 1 0-2m14 0a1 1 0 1 1 0 2 1 1 0 0 1 0-2m14 0a1 1 0 1 1 0 2 1 1 0 0 1 0-2m14 0a1 1 0 1 1 0 2 1 1 0 0 1 0-2m-728-14a1 1 0 1 1 0 2 1 1 0 0 1 0-2m14 0a1 1 0 1 1 0 2 1 1 0 0 1 0-2m14 0a1 1 0 1 1 0 2 1 1 0 0 1 0-2m14 0a1 1 0 1 1 0 2 1 1 0 0 1 0-2m14 0a1 1 0 1 1 0 2 1 1 0 0 1 0-2m14 0a1 1 0 1 1 0 2 1 1 0 0 1 0-2m14 0a1 1 0 1 1 0 2 1 1 0 0 1 0-2m14 0a1 1 0 1 1 0 2 1 1 0 0 1 0-2m14 0a1 1 0 1 1 0 2 1 1 0 0 1 0-2m14 0a1 1 0 1 1 0 2 1 1 0 0 1 0-2m14 0a1 1 0 1 1 0 2 1 1 0 0 1 0-2m14 0a1 1 0 1 1 0 2 1 1 0 0 1 0-2m14 0a1 1 0 1 1 0 2 1 1 0 0 1 0-2m14 0a1 1 0 1 1 0 2 1 1 0 0 1 0-2m14 0a1 1 0 1 1 0 2 1 1 0 0 1 0-2m14 0a1 1 0 1 1 0 2 1 1 0 0 1 0-2m14 0a1 1 0 1 1 0 2 1 1 0 0 1 0-2m14 0a1 1 0 1 1 0 2 1 1 0 0 1 0-2m14 0a1 1 0 1 1 0 2 1 1 0 0 1 0-2m14 0a1 1 0 1 1 0 2 1 1 0 0 1 0-2m14 0a1 1 0 1 1 0 2 1 1 0 0 1 0-2m14 0a1 1 0 1 1 0 2 1 1 0 0 1 0-2m14 0a1 1 0 1 1 0 2 1 1 0 0 1 0-2m14 0a1 1 0 1 1 0 2 1 1 0 0 1 0-2m14 0a1 1 0 1 1 0 2 1 1 0 0 1 0-2m14 0a1 1 0 1 1 0 2 1 1 0 0 1 0-2m14 0a1 1 0 1 1 0 2 1 1 0 0 1 0-2m14 0a1 1 0 1 1 0 2 1 1 0 0 1 0-2m14 0a1 1 0 1 1 0 2 1 1 0 0 1 0-2m14 0a1 1 0 1 1 0 2 1 1 0 0 1 0-2m14 0a1 1 0 1 1 0 2 1 1 0 0 1 0-2m14 0a1 1 0 1 1 0 2 1 1 0 0 1 0-2m14 0a1 1 0 1 1 0 2 1 1 0 0 1 0-2m14 0a1 1 0 1 1 0 2 1 1 0 0 1 0-2m14 0a1 1 0 1 1 0 2 1 1 0 0 1 0-2m14 0a1 1 0 1 1 0 2 1 1 0 0 1 0-2m14 0a1 1 0 1 1 0 2 1 1 0 0 1 0-2m14 0a1 1 0 1 1 0 2 1 1 0 0 1 0-2m14 0a1 1 0 1 1 0 2 1 1 0 0 1 0-2m14 0a1 1 0 1 1 0 2 1 1 0 0 1 0-2m14 0a1 1 0 1 1 0 2 1 1 0 0 1 0-2m14 0a1 1 0 1 1 0 2 1 1 0 0 1 0-2m14 0a1 1 0 1 1 0 2 1 1 0 0 1 0-2m14 0a1 1 0 1 1 0 2 1 1 0 0 1 0-2m14 0a1 1 0 1 1 0 2 1 1 0 0 1 0-2m14 0a1 1 0 1 1 0 2 1 1 0 0 1 0-2m14 0a1 1 0 1 1 0 2 1 1 0 0 1 0-2m14 0a1 1 0 1 1 0 2 1 1 0 0 1 0-2m14 0a1 1 0 1 1 0 2 1 1 0 0 1 0-2m14 0a1 1 0 1 1 0 2 1 1 0 0 1 0-2m14 0a1 1 0 1 1 0 2 1 1 0 0 1 0-2m14 0a1 1 0 1 1 0 2 1 1 0 0 1 0-2m14 0a1 1 0 1 1 0 2 1 1 0 0 1 0-2m-728-14a1 1 0 1 1 0 2 1 1 0 0 1 0-2m14 0a1 1 0 1 1 0 2 1 1 0 0 1 0-2m14 0a1 1 0 1 1 0 2 1 1 0 0 1 0-2m14 0a1 1 0 1 1 0 2 1 1 0 0 1 0-2m14 0a1 1 0 1 1 0 2 1 1 0 0 1 0-2m14 0a1 1 0 1 1 0 2 1 1 0 0 1 0-2m14 0a1 1 0 1 1 0 2 1 1 0 0 1 0-2m14 0a1 1 0 1 1 0 2 1 1 0 0 1 0-2m14 0a1 1 0 1 1 0 2 1 1 0 0 1 0-2m14 0a1 1 0 1 1 0 2 1 1 0 0 1 0-2m14 0a1 1 0 1 1 0 2 1 1 0 0 1 0-2m14 0a1 1 0 1 1 0 2 1 1 0 0 1 0-2m14 0a1 1 0 1 1 0 2 1 1 0 0 1 0-2m14 0a1 1 0 1 1 0 2 1 1 0 0 1 0-2m14 0a1 1 0 1 1 0 2 1 1 0 0 1 0-2m14 0a1 1 0 1 1 0 2 1 1 0 0 1 0-2m14 0a1 1 0 1 1 0 2 1 1 0 0 1 0-2m14 0a1 1 0 1 1 0 2 1 1 0 0 1 0-2m14 0a1 1 0 1 1 0 2 1 1 0 0 1 0-2m14 0a1 1 0 1 1 0 2 1 1 0 0 1 0-2m14 0a1 1 0 1 1 0 2 1 1 0 0 1 0-2m14 0a1 1 0 1 1 0 2 1 1 0 0 1 0-2m14 0a1 1 0 1 1 0 2 1 1 0 0 1 0-2m14 0a1 1 0 1 1 0 2 1 1 0 0 1 0-2m14 0a1 1 0 1 1 0 2 1 1 0 0 1 0-2m14 0a1 1 0 1 1 0 2 1 1 0 0 1 0-2m14 0a1 1 0 1 1 0 2 1 1 0 0 1 0-2m14 0a1 1 0 1 1 0 2 1 1 0 0 1 0-2m14 0a1 1 0 1 1 0 2 1 1 0 0 1 0-2m14 0a1 1 0 1 1 0 2 1 1 0 0 1 0-2m14 0a1 1 0 1 1 0 2 1 1 0 0 1 0-2m14 0a1 1 0 1 1 0 2 1 1 0 0 1 0-2m14 0a1 1 0 1 1 0 2 1 1 0 0 1 0-2m14 0a1 1 0 1 1 0 2 1 1 0 0 1 0-2m14 0a1 1 0 1 1 0 2 1 1 0 0 1 0-2m14 0a1 1 0 1 1 0 2 1 1 0 0 1 0-2m14 0a1 1 0 1 1 0 2 1 1 0 0 1 0-2m14 0a1 1 0 1 1 0 2 1 1 0 0 1 0-2m14 0a1 1 0 1 1 0 2 1 1 0 0 1 0-2m14 0a1 1 0 1 1 0 2 1 1 0 0 1 0-2m14 0a1 1 0 1 1 0 2 1 1 0 0 1 0-2m14 0a1 1 0 1 1 0 2 1 1 0 0 1 0-2m14 0a1 1 0 1 1 0 2 1 1 0 0 1 0-2m14 0a1 1 0 1 1 0 2 1 1 0 0 1 0-2m14 0a1 1 0 1 1 0 2 1 1 0 0 1 0-2m14 0a1 1 0 1 1 0 2 1 1 0 0 1 0-2m14 0a1 1 0 1 1 0 2 1 1 0 0 1 0-2m14 0a1 1 0 1 1 0 2 1 1 0 0 1 0-2m14 0a1 1 0 1 1 0 2 1 1 0 0 1 0-2m14 0a1 1 0 1 1 0 2 1 1 0 0 1 0-2m14 0a1 1 0 1 1 0 2 1 1 0 0 1 0-2m14 0a1 1 0 1 1 0 2 1 1 0 0 1 0-2m14 0a1 1 0 1 1 0 2 1 1 0 0 1 0-2m-728-14a1 1 0 1 1 0 2 1 1 0 0 1 0-2m14 0a1 1 0 1 1 0 2 1 1 0 0 1 0-2m14 0a1 1 0 1 1 0 2 1 1 0 0 1 0-2m14 0a1 1 0 1 1 0 2 1 1 0 0 1 0-2m14 0a1 1 0 1 1 0 2 1 1 0 0 1 0-2m14 0a1 1 0 1 1 0 2 1 1 0 0 1 0-2m14 0a1 1 0 1 1 0 2 1 1 0 0 1 0-2m14 0a1 1 0 1 1 0 2 1 1 0 0 1 0-2m14 0a1 1 0 1 1 0 2 1 1 0 0 1 0-2m14 0a1 1 0 1 1 0 2 1 1 0 0 1 0-2m14 0a1 1 0 1 1 0 2 1 1 0 0 1 0-2m14 0a1 1 0 1 1 0 2 1 1 0 0 1 0-2m14 0a1 1 0 1 1 0 2 1 1 0 0 1 0-2m14 0a1 1 0 1 1 0 2 1 1 0 0 1 0-2m14 0a1 1 0 1 1 0 2 1 1 0 0 1 0-2m14 0a1 1 0 1 1 0 2 1 1 0 0 1 0-2m14 0a1 1 0 1 1 0 2 1 1 0 0 1 0-2m14 0a1 1 0 1 1 0 2 1 1 0 0 1 0-2m14 0a1 1 0 1 1 0 2 1 1 0 0 1 0-2m14 0a1 1 0 1 1 0 2 1 1 0 0 1 0-2m14 0a1 1 0 1 1 0 2 1 1 0 0 1 0-2m14 0a1 1 0 1 1 0 2 1 1 0 0 1 0-2m14 0a1 1 0 1 1 0 2 1 1 0 0 1 0-2m14 0a1 1 0 1 1 0 2 1 1 0 0 1 0-2m14 0a1 1 0 1 1 0 2 1 1 0 0 1 0-2m14 0a1 1 0 1 1 0 2 1 1 0 0 1 0-2m14 0a1 1 0 1 1 0 2 1 1 0 0 1 0-2m14 0a1 1 0 1 1 0 2 1 1 0 0 1 0-2m14 0a1 1 0 1 1 0 2 1 1 0 0 1 0-2m14 0a1 1 0 1 1 0 2 1 1 0 0 1 0-2m14 0a1 1 0 1 1 0 2 1 1 0 0 1 0-2m14 0a1 1 0 1 1 0 2 1 1 0 0 1 0-2m14 0a1 1 0 1 1 0 2 1 1 0 0 1 0-2m14 0a1 1 0 1 1 0 2 1 1 0 0 1 0-2m14 0a1 1 0 1 1 0 2 1 1 0 0 1 0-2m14 0a1 1 0 1 1 0 2 1 1 0 0 1 0-2m14 0a1 1 0 1 1 0 2 1 1 0 0 1 0-2m14 0a1 1 0 1 1 0 2 1 1 0 0 1 0-2m14 0a1 1 0 1 1 0 2 1 1 0 0 1 0-2m14 0a1 1 0 1 1 0 2 1 1 0 0 1 0-2m14 0a1 1 0 1 1 0 2 1 1 0 0 1 0-2m14 0a1 1 0 1 1 0 2 1 1 0 0 1 0-2m14 0a1 1 0 1 1 0 2 1 1 0 0 1 0-2m14 0a1 1 0 1 1 0 2 1 1 0 0 1 0-2m14 0a1 1 0 1 1 0 2 1 1 0 0 1 0-2m14 0a1 1 0 1 1 0 2 1 1 0 0 1 0-2m14 0a1 1 0 1 1 0 2 1 1 0 0 1 0-2m14 0a1 1 0 1 1 0 2 1 1 0 0 1 0-2m14 0a1 1 0 1 1 0 2 1 1 0 0 1 0-2m14 0a1 1 0 1 1 0 2 1 1 0 0 1 0-2m14 0a1 1 0 1 1 0 2 1 1 0 0 1 0-2m14 0a1 1 0 1 1 0 2 1 1 0 0 1 0-2m14 0a1 1 0 1 1 0 2 1 1 0 0 1 0-2m-728-14a1 1 0 1 1 0 2 1 1 0 0 1 0-2m14 0a1 1 0 1 1 0 2 1 1 0 0 1 0-2m14 0a1 1 0 1 1 0 2 1 1 0 0 1 0-2m14 0a1 1 0 1 1 0 2 1 1 0 0 1 0-2m14 0a1 1 0 1 1 0 2 1 1 0 0 1 0-2m14 0a1 1 0 1 1 0 2 1 1 0 0 1 0-2m14 0a1 1 0 1 1 0 2 1 1 0 0 1 0-2m14 0a1 1 0 1 1 0 2 1 1 0 0 1 0-2m14 0a1 1 0 1 1 0 2 1 1 0 0 1 0-2m14 0a1 1 0 1 1 0 2 1 1 0 0 1 0-2m14 0a1 1 0 1 1 0 2 1 1 0 0 1 0-2m14 0a1 1 0 1 1 0 2 1 1 0 0 1 0-2m14 0a1 1 0 1 1 0 2 1 1 0 0 1 0-2m14 0a1 1 0 1 1 0 2 1 1 0 0 1 0-2m14 0a1 1 0 1 1 0 2 1 1 0 0 1 0-2m14 0a1 1 0 1 1 0 2 1 1 0 0 1 0-2m14 0a1 1 0 1 1 0 2 1 1 0 0 1 0-2m14 0a1 1 0 1 1 0 2 1 1 0 0 1 0-2m14 0a1 1 0 1 1 0 2 1 1 0 0 1 0-2m14 0a1 1 0 1 1 0 2 1 1 0 0 1 0-2m14 0a1 1 0 1 1 0 2 1 1 0 0 1 0-2m14 0a1 1 0 1 1 0 2 1 1 0 0 1 0-2m14 0a1 1 0 1 1 0 2 1 1 0 0 1 0-2m14 0a1 1 0 1 1 0 2 1 1 0 0 1 0-2m14 0a1 1 0 1 1 0 2 1 1 0 0 1 0-2m14 0a1 1 0 1 1 0 2 1 1 0 0 1 0-2m14 0a1 1 0 1 1 0 2 1 1 0 0 1 0-2m14 0a1 1 0 1 1 0 2 1 1 0 0 1 0-2m14 0a1 1 0 1 1 0 2 1 1 0 0 1 0-2m14 0a1 1 0 1 1 0 2 1 1 0 0 1 0-2m14 0a1 1 0 1 1 0 2 1 1 0 0 1 0-2m14 0a1 1 0 1 1 0 2 1 1 0 0 1 0-2m14 0a1 1 0 1 1 0 2 1 1 0 0 1 0-2m14 0a1 1 0 1 1 0 2 1 1 0 0 1 0-2m14 0a1 1 0 1 1 0 2 1 1 0 0 1 0-2m14 0a1 1 0 1 1 0 2 1 1 0 0 1 0-2m14 0a1 1 0 1 1 0 2 1 1 0 0 1 0-2m14 0a1 1 0 1 1 0 2 1 1 0 0 1 0-2m14 0a1 1 0 1 1 0 2 1 1 0 0 1 0-2m14 0a1 1 0 1 1 0 2 1 1 0 0 1 0-2m14 0a1 1 0 1 1 0 2 1 1 0 0 1 0-2m14 0a1 1 0 1 1 0 2 1 1 0 0 1 0-2m14 0a1 1 0 1 1 0 2 1 1 0 0 1 0-2m14 0a1 1 0 1 1 0 2 1 1 0 0 1 0-2m14 0a1 1 0 1 1 0 2 1 1 0 0 1 0-2m14 0a1 1 0 1 1 0 2 1 1 0 0 1 0-2m14 0a1 1 0 1 1 0 2 1 1 0 0 1 0-2m14 0a1 1 0 1 1 0 2 1 1 0 0 1 0-2m14 0a1 1 0 1 1 0 2 1 1 0 0 1 0-2m14 0a1 1 0 1 1 0 2 1 1 0 0 1 0-2m14 0a1 1 0 1 1 0 2 1 1 0 0 1 0-2m14 0a1 1 0 1 1 0 2 1 1 0 0 1 0-2m14 0a1 1 0 1 1 0 2 1 1 0 0 1 0-2m-728-14a1 1 0 1 1 0 2 1 1 0 0 1 0-2m14 0a1 1 0 1 1 0 2 1 1 0 0 1 0-2m14 0a1 1 0 1 1 0 2 1 1 0 0 1 0-2m14 0a1 1 0 1 1 0 2 1 1 0 0 1 0-2m14 0a1 1 0 1 1 0 2 1 1 0 0 1 0-2m14 0a1 1 0 1 1 0 2 1 1 0 0 1 0-2m14 0a1 1 0 1 1 0 2 1 1 0 0 1 0-2m14 0a1 1 0 1 1 0 2 1 1 0 0 1 0-2m14 0a1 1 0 1 1 0 2 1 1 0 0 1 0-2m14 0a1 1 0 1 1 0 2 1 1 0 0 1 0-2m14 0a1 1 0 1 1 0 2 1 1 0 0 1 0-2m14 0a1 1 0 1 1 0 2 1 1 0 0 1 0-2m14 0a1 1 0 1 1 0 2 1 1 0 0 1 0-2m14 0a1 1 0 1 1 0 2 1 1 0 0 1 0-2m14 0a1 1 0 1 1 0 2 1 1 0 0 1 0-2m14 0a1 1 0 1 1 0 2 1 1 0 0 1 0-2m14 0a1 1 0 1 1 0 2 1 1 0 0 1 0-2m14 0a1 1 0 1 1 0 2 1 1 0 0 1 0-2m14 0a1 1 0 1 1 0 2 1 1 0 0 1 0-2m14 0a1 1 0 1 1 0 2 1 1 0 0 1 0-2m14 0a1 1 0 1 1 0 2 1 1 0 0 1 0-2m14 0a1 1 0 1 1 0 2 1 1 0 0 1 0-2m14 0a1 1 0 1 1 0 2 1 1 0 0 1 0-2m14 0a1 1 0 1 1 0 2 1 1 0 0 1 0-2m14 0a1 1 0 1 1 0 2 1 1 0 0 1 0-2m14 0a1 1 0 1 1 0 2 1 1 0 0 1 0-2m14 0a1 1 0 1 1 0 2 1 1 0 0 1 0-2m14 0a1 1 0 1 1 0 2 1 1 0 0 1 0-2m14 0a1 1 0 1 1 0 2 1 1 0 0 1 0-2m14 0a1 1 0 1 1 0 2 1 1 0 0 1 0-2m14 0a1 1 0 1 1 0 2 1 1 0 0 1 0-2m14 0a1 1 0 1 1 0 2 1 1 0 0 1 0-2m14 0a1 1 0 1 1 0 2 1 1 0 0 1 0-2m14 0a1 1 0 1 1 0 2 1 1 0 0 1 0-2m14 0a1 1 0 1 1 0 2 1 1 0 0 1 0-2m14 0a1 1 0 1 1 0 2 1 1 0 0 1 0-2m14 0a1 1 0 1 1 0 2 1 1 0 0 1 0-2m14 0a1 1 0 1 1 0 2 1 1 0 0 1 0-2m14 0a1 1 0 1 1 0 2 1 1 0 0 1 0-2m14 0a1 1 0 1 1 0 2 1 1 0 0 1 0-2m14 0a1 1 0 1 1 0 2 1 1 0 0 1 0-2m14 0a1 1 0 1 1 0 2 1 1 0 0 1 0-2m14 0a1 1 0 1 1 0 2 1 1 0 0 1 0-2m14 0a1 1 0 1 1 0 2 1 1 0 0 1 0-2m14 0a1 1 0 1 1 0 2 1 1 0 0 1 0-2m14 0a1 1 0 1 1 0 2 1 1 0 0 1 0-2m14 0a1 1 0 1 1 0 2 1 1 0 0 1 0-2m14 0a1 1 0 1 1 0 2 1 1 0 0 1 0-2m14 0a1 1 0 1 1 0 2 1 1 0 0 1 0-2m14 0a1 1 0 1 1 0 2 1 1 0 0 1 0-2m14 0a1 1 0 1 1 0 2 1 1 0 0 1 0-2m14 0a1 1 0 1 1 0 2 1 1 0 0 1 0-2m14 0a1 1 0 1 1 0 2 1 1 0 0 1 0-2m-728-14a1 1 0 1 1 0 2 1 1 0 0 1 0-2m14 0a1 1 0 1 1 0 2 1 1 0 0 1 0-2m14 0a1 1 0 1 1 0 2 1 1 0 0 1 0-2m14 0a1 1 0 1 1 0 2 1 1 0 0 1 0-2m14 0a1 1 0 1 1 0 2 1 1 0 0 1 0-2m14 0a1 1 0 1 1 0 2 1 1 0 0 1 0-2m14 0a1 1 0 1 1 0 2 1 1 0 0 1 0-2m14 0a1 1 0 1 1 0 2 1 1 0 0 1 0-2m14 0a1 1 0 1 1 0 2 1 1 0 0 1 0-2m14 0a1 1 0 1 1 0 2 1 1 0 0 1 0-2m14 0a1 1 0 1 1 0 2 1 1 0 0 1 0-2m14 0a1 1 0 1 1 0 2 1 1 0 0 1 0-2m14 0a1 1 0 1 1 0 2 1 1 0 0 1 0-2m14 0a1 1 0 1 1 0 2 1 1 0 0 1 0-2m14 0a1 1 0 1 1 0 2 1 1 0 0 1 0-2m14 0a1 1 0 1 1 0 2 1 1 0 0 1 0-2m14 0a1 1 0 1 1 0 2 1 1 0 0 1 0-2m14 0a1 1 0 1 1 0 2 1 1 0 0 1 0-2m14 0a1 1 0 1 1 0 2 1 1 0 0 1 0-2m14 0a1 1 0 1 1 0 2 1 1 0 0 1 0-2m14 0a1 1 0 1 1 0 2 1 1 0 0 1 0-2m14 0a1 1 0 1 1 0 2 1 1 0 0 1 0-2m14 0a1 1 0 1 1 0 2 1 1 0 0 1 0-2m14 0a1 1 0 1 1 0 2 1 1 0 0 1 0-2m14 0a1 1 0 1 1 0 2 1 1 0 0 1 0-2m14 0a1 1 0 1 1 0 2 1 1 0 0 1 0-2m14 0a1 1 0 1 1 0 2 1 1 0 0 1 0-2m14 0a1 1 0 1 1 0 2 1 1 0 0 1 0-2m14 0a1 1 0 1 1 0 2 1 1 0 0 1 0-2m14 0a1 1 0 1 1 0 2 1 1 0 0 1 0-2m14 0a1 1 0 1 1 0 2 1 1 0 0 1 0-2m14 0a1 1 0 1 1 0 2 1 1 0 0 1 0-2m14 0a1 1 0 1 1 0 2 1 1 0 0 1 0-2m14 0a1 1 0 1 1 0 2 1 1 0 0 1 0-2m14 0a1 1 0 1 1 0 2 1 1 0 0 1 0-2m14 0a1 1 0 1 1 0 2 1 1 0 0 1 0-2m14 0a1 1 0 1 1 0 2 1 1 0 0 1 0-2m14 0a1 1 0 1 1 0 2 1 1 0 0 1 0-2m14 0a1 1 0 1 1 0 2 1 1 0 0 1 0-2m14 0a1 1 0 1 1 0 2 1 1 0 0 1 0-2m14 0a1 1 0 1 1 0 2 1 1 0 0 1 0-2m14 0a1 1 0 1 1 0 2 1 1 0 0 1 0-2m14 0a1 1 0 1 1 0 2 1 1 0 0 1 0-2m14 0a1 1 0 1 1 0 2 1 1 0 0 1 0-2m14 0a1 1 0 1 1 0 2 1 1 0 0 1 0-2m14 0a1 1 0 1 1 0 2 1 1 0 0 1 0-2m14 0a1 1 0 1 1 0 2 1 1 0 0 1 0-2m14 0a1 1 0 1 1 0 2 1 1 0 0 1 0-2m14 0a1 1 0 1 1 0 2 1 1 0 0 1 0-2m14 0a1 1 0 1 1 0 2 1 1 0 0 1 0-2m14 0a1 1 0 1 1 0 2 1 1 0 0 1 0-2m14 0a1 1 0 1 1 0 2 1 1 0 0 1 0-2m14 0a1 1 0 1 1 0 2 1 1 0 0 1 0-2m-728-14a1 1 0 1 1 0 2 1 1 0 0 1 0-2m14 0a1 1 0 1 1 0 2 1 1 0 0 1 0-2m14 0a1 1 0 1 1 0 2 1 1 0 0 1 0-2m14 0a1 1 0 1 1 0 2 1 1 0 0 1 0-2m14 0a1 1 0 1 1 0 2 1 1 0 0 1 0-2m14 0a1 1 0 1 1 0 2 1 1 0 0 1 0-2m14 0a1 1 0 1 1 0 2 1 1 0 0 1 0-2m14 0a1 1 0 1 1 0 2 1 1 0 0 1 0-2m14 0a1 1 0 1 1 0 2 1 1 0 0 1 0-2m14 0a1 1 0 1 1 0 2 1 1 0 0 1 0-2m14 0a1 1 0 1 1 0 2 1 1 0 0 1 0-2m14 0a1 1 0 1 1 0 2 1 1 0 0 1 0-2m14 0a1 1 0 1 1 0 2 1 1 0 0 1 0-2m14 0a1 1 0 1 1 0 2 1 1 0 0 1 0-2m14 0a1 1 0 1 1 0 2 1 1 0 0 1 0-2m14 0a1 1 0 1 1 0 2 1 1 0 0 1 0-2m14 0a1 1 0 1 1 0 2 1 1 0 0 1 0-2m14 0a1 1 0 1 1 0 2 1 1 0 0 1 0-2m14 0a1 1 0 1 1 0 2 1 1 0 0 1 0-2m14 0a1 1 0 1 1 0 2 1 1 0 0 1 0-2m14 0a1 1 0 1 1 0 2 1 1 0 0 1 0-2m14 0a1 1 0 1 1 0 2 1 1 0 0 1 0-2m14 0a1 1 0 1 1 0 2 1 1 0 0 1 0-2m14 0a1 1 0 1 1 0 2 1 1 0 0 1 0-2m14 0a1 1 0 1 1 0 2 1 1 0 0 1 0-2m14 0a1 1 0 1 1 0 2 1 1 0 0 1 0-2m14 0a1 1 0 1 1 0 2 1 1 0 0 1 0-2m14 0a1 1 0 1 1 0 2 1 1 0 0 1 0-2m14 0a1 1 0 1 1 0 2 1 1 0 0 1 0-2m14 0a1 1 0 1 1 0 2 1 1 0 0 1 0-2m14 0a1 1 0 1 1 0 2 1 1 0 0 1 0-2m14 0a1 1 0 1 1 0 2 1 1 0 0 1 0-2m14 0a1 1 0 1 1 0 2 1 1 0 0 1 0-2m14 0a1 1 0 1 1 0 2 1 1 0 0 1 0-2m14 0a1 1 0 1 1 0 2 1 1 0 0 1 0-2m14 0a1 1 0 1 1 0 2 1 1 0 0 1 0-2m14 0a1 1 0 1 1 0 2 1 1 0 0 1 0-2m14 0a1 1 0 1 1 0 2 1 1 0 0 1 0-2m14 0a1 1 0 1 1 0 2 1 1 0 0 1 0-2m14 0a1 1 0 1 1 0 2 1 1 0 0 1 0-2m14 0a1 1 0 1 1 0 2 1 1 0 0 1 0-2m14 0a1 1 0 1 1 0 2 1 1 0 0 1 0-2m14 0a1 1 0 1 1 0 2 1 1 0 0 1 0-2m14 0a1 1 0 1 1 0 2 1 1 0 0 1 0-2m14 0a1 1 0 1 1 0 2 1 1 0 0 1 0-2m14 0a1 1 0 1 1 0 2 1 1 0 0 1 0-2m14 0a1 1 0 1 1 0 2 1 1 0 0 1 0-2m14 0a1 1 0 1 1 0 2 1 1 0 0 1 0-2m14 0a1 1 0 1 1 0 2 1 1 0 0 1 0-2m14 0a1 1 0 1 1 0 2 1 1 0 0 1 0-2m14 0a1 1 0 1 1 0 2 1 1 0 0 1 0-2m14 0a1 1 0 1 1 0 2 1 1 0 0 1 0-2m14 0a1 1 0 1 1 0 2 1 1 0 0 1 0-2M-11 86a1 1 0 1 1 0 2 1 1 0 0 1 0-2m14 0a1 1 0 1 1 0 2 1 1 0 0 1 0-2m14 0a1 1 0 1 1 0 2 1 1 0 0 1 0-2m14 0a1 1 0 1 1 0 2 1 1 0 0 1 0-2m14 0a1 1 0 1 1 0 2 1 1 0 0 1 0-2m14 0a1 1 0 1 1 0 2 1 1 0 0 1 0-2m14 0a1 1 0 1 1 0 2 1 1 0 0 1 0-2m14 0a1 1 0 1 1 0 2 1 1 0 0 1 0-2m14 0a1 1 0 1 1 0 2 1 1 0 0 1 0-2m14 0a1 1 0 1 1 0 2 1 1 0 0 1 0-2m14 0a1 1 0 1 1 0 2 1 1 0 0 1 0-2m14 0a1 1 0 1 1 0 2 1 1 0 0 1 0-2m14 0a1 1 0 1 1 0 2 1 1 0 0 1 0-2m14 0a1 1 0 1 1 0 2 1 1 0 0 1 0-2m14 0a1 1 0 1 1 0 2 1 1 0 0 1 0-2m14 0a1 1 0 1 1 0 2 1 1 0 0 1 0-2m14 0a1 1 0 1 1 0 2 1 1 0 0 1 0-2m14 0a1 1 0 1 1 0 2 1 1 0 0 1 0-2m14 0a1 1 0 1 1 0 2 1 1 0 0 1 0-2m14 0a1 1 0 1 1 0 2 1 1 0 0 1 0-2m14 0a1 1 0 1 1 0 2 1 1 0 0 1 0-2m14 0a1 1 0 1 1 0 2 1 1 0 0 1 0-2m14 0a1 1 0 1 1 0 2 1 1 0 0 1 0-2m14 0a1 1 0 1 1 0 2 1 1 0 0 1 0-2m14 0a1 1 0 1 1 0 2 1 1 0 0 1 0-2m14 0a1 1 0 1 1 0 2 1 1 0 0 1 0-2m14 0a1 1 0 1 1 0 2 1 1 0 0 1 0-2m14 0a1 1 0 1 1 0 2 1 1 0 0 1 0-2m14 0a1 1 0 1 1 0 2 1 1 0 0 1 0-2m14 0a1 1 0 1 1 0 2 1 1 0 0 1 0-2m14 0a1 1 0 1 1 0 2 1 1 0 0 1 0-2m14 0a1 1 0 1 1 0 2 1 1 0 0 1 0-2m14 0a1 1 0 1 1 0 2 1 1 0 0 1 0-2m14 0a1 1 0 1 1 0 2 1 1 0 0 1 0-2m14 0a1 1 0 1 1 0 2 1 1 0 0 1 0-2m14 0a1 1 0 1 1 0 2 1 1 0 0 1 0-2m14 0a1 1 0 1 1 0 2 1 1 0 0 1 0-2m14 0a1 1 0 1 1 0 2 1 1 0 0 1 0-2m14 0a1 1 0 1 1 0 2 1 1 0 0 1 0-2m14 0a1 1 0 1 1 0 2 1 1 0 0 1 0-2m14 0a1 1 0 1 1 0 2 1 1 0 0 1 0-2m14 0a1 1 0 1 1 0 2 1 1 0 0 1 0-2m14 0a1 1 0 1 1 0 2 1 1 0 0 1 0-2m14 0a1 1 0 1 1 0 2 1 1 0 0 1 0-2m14 0a1 1 0 1 1 0 2 1 1 0 0 1 0-2m14 0a1 1 0 1 1 0 2 1 1 0 0 1 0-2m14 0a1 1 0 1 1 0 2 1 1 0 0 1 0-2m14 0a1 1 0 1 1 0 2 1 1 0 0 1 0-2m14 0a1 1 0 1 1 0 2 1 1 0 0 1 0-2m14 0a1 1 0 1 1 0 2 1 1 0 0 1 0-2m14 0a1 1 0 1 1 0 2 1 1 0 0 1 0-2m14 0a1 1 0 1 1 0 2 1 1 0 0 1 0-2m14 0a1 1 0 1 1 0 2 1 1 0 0 1 0-2M-11 72a1 1 0 1 1 0 2 1 1 0 0 1 0-2m14 0a1 1 0 1 1 0 2 1 1 0 0 1 0-2m14 0a1 1 0 1 1 0 2 1 1 0 0 1 0-2m14 0a1 1 0 1 1 0 2 1 1 0 0 1 0-2m14 0a1 1 0 1 1 0 2 1 1 0 0 1 0-2m14 0a1 1 0 1 1 0 2 1 1 0 0 1 0-2m14 0a1 1 0 1 1 0 2 1 1 0 0 1 0-2m14 0a1 1 0 1 1 0 2 1 1 0 0 1 0-2m14 0a1 1 0 1 1 0 2 1 1 0 0 1 0-2m14 0a1 1 0 1 1 0 2 1 1 0 0 1 0-2m14 0a1 1 0 1 1 0 2 1 1 0 0 1 0-2m14 0a1 1 0 1 1 0 2 1 1 0 0 1 0-2m14 0a1 1 0 1 1 0 2 1 1 0 0 1 0-2m14 0a1 1 0 1 1 0 2 1 1 0 0 1 0-2m14 0a1 1 0 1 1 0 2 1 1 0 0 1 0-2m14 0a1 1 0 1 1 0 2 1 1 0 0 1 0-2m14 0a1 1 0 1 1 0 2 1 1 0 0 1 0-2m14 0a1 1 0 1 1 0 2 1 1 0 0 1 0-2m14 0a1 1 0 1 1 0 2 1 1 0 0 1 0-2m14 0a1 1 0 1 1 0 2 1 1 0 0 1 0-2m14 0a1 1 0 1 1 0 2 1 1 0 0 1 0-2m14 0a1 1 0 1 1 0 2 1 1 0 0 1 0-2m14 0a1 1 0 1 1 0 2 1 1 0 0 1 0-2m14 0a1 1 0 1 1 0 2 1 1 0 0 1 0-2m14 0a1 1 0 1 1 0 2 1 1 0 0 1 0-2m14 0a1 1 0 1 1 0 2 1 1 0 0 1 0-2m14 0a1 1 0 1 1 0 2 1 1 0 0 1 0-2m14 0a1 1 0 1 1 0 2 1 1 0 0 1 0-2m14 0a1 1 0 1 1 0 2 1 1 0 0 1 0-2m14 0a1 1 0 1 1 0 2 1 1 0 0 1 0-2m14 0a1 1 0 1 1 0 2 1 1 0 0 1 0-2m14 0a1 1 0 1 1 0 2 1 1 0 0 1 0-2m14 0a1 1 0 1 1 0 2 1 1 0 0 1 0-2m14 0a1 1 0 1 1 0 2 1 1 0 0 1 0-2m14 0a1 1 0 1 1 0 2 1 1 0 0 1 0-2m14 0a1 1 0 1 1 0 2 1 1 0 0 1 0-2m14 0a1 1 0 1 1 0 2 1 1 0 0 1 0-2m14 0a1 1 0 1 1 0 2 1 1 0 0 1 0-2m14 0a1 1 0 1 1 0 2 1 1 0 0 1 0-2m14 0a1 1 0 1 1 0 2 1 1 0 0 1 0-2m14 0a1 1 0 1 1 0 2 1 1 0 0 1 0-2m14 0a1 1 0 1 1 0 2 1 1 0 0 1 0-2m14 0a1 1 0 1 1 0 2 1 1 0 0 1 0-2m14 0a1 1 0 1 1 0 2 1 1 0 0 1 0-2m14 0a1 1 0 1 1 0 2 1 1 0 0 1 0-2m14 0a1 1 0 1 1 0 2 1 1 0 0 1 0-2m14 0a1 1 0 1 1 0 2 1 1 0 0 1 0-2m14 0a1 1 0 1 1 0 2 1 1 0 0 1 0-2m14 0a1 1 0 1 1 0 2 1 1 0 0 1 0-2m14 0a1 1 0 1 1 0 2 1 1 0 0 1 0-2m14 0a1 1 0 1 1 0 2 1 1 0 0 1 0-2m14 0a1 1 0 1 1 0 2 1 1 0 0 1 0-2m14 0a1 1 0 1 1 0 2 1 1 0 0 1 0-2M-11 58a1 1 0 1 1 0 2 1 1 0 0 1 0-2m14 0a1 1 0 1 1 0 2 1 1 0 0 1 0-2m14 0a1 1 0 1 1 0 2 1 1 0 0 1 0-2m14 0a1 1 0 1 1 0 2 1 1 0 0 1 0-2m14 0a1 1 0 1 1 0 2 1 1 0 0 1 0-2m14 0a1 1 0 1 1 0 2 1 1 0 0 1 0-2m14 0a1 1 0 1 1 0 2 1 1 0 0 1 0-2m14 0a1 1 0 1 1 0 2 1 1 0 0 1 0-2m14 0a1 1 0 1 1 0 2 1 1 0 0 1 0-2m14 0a1 1 0 1 1 0 2 1 1 0 0 1 0-2m14 0a1 1 0 1 1 0 2 1 1 0 0 1 0-2m14 0a1 1 0 1 1 0 2 1 1 0 0 1 0-2m14 0a1 1 0 1 1 0 2 1 1 0 0 1 0-2m14 0a1 1 0 1 1 0 2 1 1 0 0 1 0-2m14 0a1 1 0 1 1 0 2 1 1 0 0 1 0-2m14 0a1 1 0 1 1 0 2 1 1 0 0 1 0-2m14 0a1 1 0 1 1 0 2 1 1 0 0 1 0-2m14 0a1 1 0 1 1 0 2 1 1 0 0 1 0-2m14 0a1 1 0 1 1 0 2 1 1 0 0 1 0-2m14 0a1 1 0 1 1 0 2 1 1 0 0 1 0-2m14 0a1 1 0 1 1 0 2 1 1 0 0 1 0-2m14 0a1 1 0 1 1 0 2 1 1 0 0 1 0-2m14 0a1 1 0 1 1 0 2 1 1 0 0 1 0-2m14 0a1 1 0 1 1 0 2 1 1 0 0 1 0-2m14 0a1 1 0 1 1 0 2 1 1 0 0 1 0-2m14 0a1 1 0 1 1 0 2 1 1 0 0 1 0-2m14 0a1 1 0 1 1 0 2 1 1 0 0 1 0-2m14 0a1 1 0 1 1 0 2 1 1 0 0 1 0-2m14 0a1 1 0 1 1 0 2 1 1 0 0 1 0-2m14 0a1 1 0 1 1 0 2 1 1 0 0 1 0-2m14 0a1 1 0 1 1 0 2 1 1 0 0 1 0-2m14 0a1 1 0 1 1 0 2 1 1 0 0 1 0-2m14 0a1 1 0 1 1 0 2 1 1 0 0 1 0-2m14 0a1 1 0 1 1 0 2 1 1 0 0 1 0-2m14 0a1 1 0 1 1 0 2 1 1 0 0 1 0-2m14 0a1 1 0 1 1 0 2 1 1 0 0 1 0-2m14 0a1 1 0 1 1 0 2 1 1 0 0 1 0-2m14 0a1 1 0 1 1 0 2 1 1 0 0 1 0-2m14 0a1 1 0 1 1 0 2 1 1 0 0 1 0-2m14 0a1 1 0 1 1 0 2 1 1 0 0 1 0-2m14 0a1 1 0 1 1 0 2 1 1 0 0 1 0-2m14 0a1 1 0 1 1 0 2 1 1 0 0 1 0-2m14 0a1 1 0 1 1 0 2 1 1 0 0 1 0-2m14 0a1 1 0 1 1 0 2 1 1 0 0 1 0-2m14 0a1 1 0 1 1 0 2 1 1 0 0 1 0-2m14 0a1 1 0 1 1 0 2 1 1 0 0 1 0-2m14 0a1 1 0 1 1 0 2 1 1 0 0 1 0-2m14 0a1 1 0 1 1 0 2 1 1 0 0 1 0-2m14 0a1 1 0 1 1 0 2 1 1 0 0 1 0-2m14 0a1 1 0 1 1 0 2 1 1 0 0 1 0-2m14 0a1 1 0 1 1 0 2 1 1 0 0 1 0-2m14 0a1 1 0 1 1 0 2 1 1 0 0 1 0-2m14 0a1 1 0 1 1 0 2 1 1 0 0 1 0-2M-11 44a1 1 0 1 1 0 2 1 1 0 0 1 0-2m14 0a1 1 0 1 1 0 2 1 1 0 0 1 0-2m14 0a1 1 0 1 1 0 2 1 1 0 0 1 0-2m14 0a1 1 0 1 1 0 2 1 1 0 0 1 0-2m14 0a1 1 0 1 1 0 2 1 1 0 0 1 0-2m14 0a1 1 0 1 1 0 2 1 1 0 0 1 0-2m14 0a1 1 0 1 1 0 2 1 1 0 0 1 0-2m14 0a1 1 0 1 1 0 2 1 1 0 0 1 0-2m14 0a1 1 0 1 1 0 2 1 1 0 0 1 0-2m14 0a1 1 0 1 1 0 2 1 1 0 0 1 0-2m14 0a1 1 0 1 1 0 2 1 1 0 0 1 0-2m14 0a1 1 0 1 1 0 2 1 1 0 0 1 0-2m14 0a1 1 0 1 1 0 2 1 1 0 0 1 0-2m14 0a1 1 0 1 1 0 2 1 1 0 0 1 0-2m14 0a1 1 0 1 1 0 2 1 1 0 0 1 0-2m14 0a1 1 0 1 1 0 2 1 1 0 0 1 0-2m14 0a1 1 0 1 1 0 2 1 1 0 0 1 0-2m14 0a1 1 0 1 1 0 2 1 1 0 0 1 0-2m14 0a1 1 0 1 1 0 2 1 1 0 0 1 0-2m14 0a1 1 0 1 1 0 2 1 1 0 0 1 0-2m14 0a1 1 0 1 1 0 2 1 1 0 0 1 0-2m14 0a1 1 0 1 1 0 2 1 1 0 0 1 0-2m14 0a1 1 0 1 1 0 2 1 1 0 0 1 0-2m14 0a1 1 0 1 1 0 2 1 1 0 0 1 0-2m14 0a1 1 0 1 1 0 2 1 1 0 0 1 0-2m14 0a1 1 0 1 1 0 2 1 1 0 0 1 0-2m14 0a1 1 0 1 1 0 2 1 1 0 0 1 0-2m14 0a1 1 0 1 1 0 2 1 1 0 0 1 0-2m14 0a1 1 0 1 1 0 2 1 1 0 0 1 0-2m14 0a1 1 0 1 1 0 2 1 1 0 0 1 0-2m14 0a1 1 0 1 1 0 2 1 1 0 0 1 0-2m14 0a1 1 0 1 1 0 2 1 1 0 0 1 0-2m14 0a1 1 0 1 1 0 2 1 1 0 0 1 0-2m14 0a1 1 0 1 1 0 2 1 1 0 0 1 0-2m14 0a1 1 0 1 1 0 2 1 1 0 0 1 0-2m14 0a1 1 0 1 1 0 2 1 1 0 0 1 0-2m14 0a1 1 0 1 1 0 2 1 1 0 0 1 0-2m14 0a1 1 0 1 1 0 2 1 1 0 0 1 0-2m14 0a1 1 0 1 1 0 2 1 1 0 0 1 0-2m14 0a1 1 0 1 1 0 2 1 1 0 0 1 0-2m14 0a1 1 0 1 1 0 2 1 1 0 0 1 0-2m14 0a1 1 0 1 1 0 2 1 1 0 0 1 0-2m14 0a1 1 0 1 1 0 2 1 1 0 0 1 0-2m14 0a1 1 0 1 1 0 2 1 1 0 0 1 0-2m14 0a1 1 0 1 1 0 2 1 1 0 0 1 0-2m14 0a1 1 0 1 1 0 2 1 1 0 0 1 0-2m14 0a1 1 0 1 1 0 2 1 1 0 0 1 0-2m14 0a1 1 0 1 1 0 2 1 1 0 0 1 0-2m14 0a1 1 0 1 1 0 2 1 1 0 0 1 0-2m14 0a1 1 0 1 1 0 2 1 1 0 0 1 0-2m14 0a1 1 0 1 1 0 2 1 1 0 0 1 0-2m14 0a1 1 0 1 1 0 2 1 1 0 0 1 0-2m14 0a1 1 0 1 1 0 2 1 1 0 0 1 0-2M-11 30a1 1 0 1 1 0 2 1 1 0 0 1 0-2m14 0a1 1 0 1 1 0 2 1 1 0 0 1 0-2m14 0a1 1 0 1 1 0 2 1 1 0 0 1 0-2m14 0a1 1 0 1 1 0 2 1 1 0 0 1 0-2m14 0a1 1 0 1 1 0 2 1 1 0 0 1 0-2m14 0a1 1 0 1 1 0 2 1 1 0 0 1 0-2m14 0a1 1 0 1 1 0 2 1 1 0 0 1 0-2m14 0a1 1 0 1 1 0 2 1 1 0 0 1 0-2m14 0a1 1 0 1 1 0 2 1 1 0 0 1 0-2m14 0a1 1 0 1 1 0 2 1 1 0 0 1 0-2m14 0a1 1 0 1 1 0 2 1 1 0 0 1 0-2m14 0a1 1 0 1 1 0 2 1 1 0 0 1 0-2m14 0a1 1 0 1 1 0 2 1 1 0 0 1 0-2m14 0a1 1 0 1 1 0 2 1 1 0 0 1 0-2m14 0a1 1 0 1 1 0 2 1 1 0 0 1 0-2m14 0a1 1 0 1 1 0 2 1 1 0 0 1 0-2m14 0a1 1 0 1 1 0 2 1 1 0 0 1 0-2m14 0a1 1 0 1 1 0 2 1 1 0 0 1 0-2m14 0a1 1 0 1 1 0 2 1 1 0 0 1 0-2m14 0a1 1 0 1 1 0 2 1 1 0 0 1 0-2m14 0a1 1 0 1 1 0 2 1 1 0 0 1 0-2m14 0a1 1 0 1 1 0 2 1 1 0 0 1 0-2m14 0a1 1 0 1 1 0 2 1 1 0 0 1 0-2m14 0a1 1 0 1 1 0 2 1 1 0 0 1 0-2m14 0a1 1 0 1 1 0 2 1 1 0 0 1 0-2m14 0a1 1 0 1 1 0 2 1 1 0 0 1 0-2m14 0a1 1 0 1 1 0 2 1 1 0 0 1 0-2m14 0a1 1 0 1 1 0 2 1 1 0 0 1 0-2m14 0a1 1 0 1 1 0 2 1 1 0 0 1 0-2m14 0a1 1 0 1 1 0 2 1 1 0 0 1 0-2m14 0a1 1 0 1 1 0 2 1 1 0 0 1 0-2m14 0a1 1 0 1 1 0 2 1 1 0 0 1 0-2m14 0a1 1 0 1 1 0 2 1 1 0 0 1 0-2m14 0a1 1 0 1 1 0 2 1 1 0 0 1 0-2m14 0a1 1 0 1 1 0 2 1 1 0 0 1 0-2m14 0a1 1 0 1 1 0 2 1 1 0 0 1 0-2m14 0a1 1 0 1 1 0 2 1 1 0 0 1 0-2m14 0a1 1 0 1 1 0 2 1 1 0 0 1 0-2m14 0a1 1 0 1 1 0 2 1 1 0 0 1 0-2m14 0a1 1 0 1 1 0 2 1 1 0 0 1 0-2m14 0a1 1 0 1 1 0 2 1 1 0 0 1 0-2m14 0a1 1 0 1 1 0 2 1 1 0 0 1 0-2m14 0a1 1 0 1 1 0 2 1 1 0 0 1 0-2m14 0a1 1 0 1 1 0 2 1 1 0 0 1 0-2m14 0a1 1 0 1 1 0 2 1 1 0 0 1 0-2m14 0a1 1 0 1 1 0 2 1 1 0 0 1 0-2m14 0a1 1 0 1 1 0 2 1 1 0 0 1 0-2m14 0a1 1 0 1 1 0 2 1 1 0 0 1 0-2m14 0a1 1 0 1 1 0 2 1 1 0 0 1 0-2m14 0a1 1 0 1 1 0 2 1 1 0 0 1 0-2m14 0a1 1 0 1 1 0 2 1 1 0 0 1 0-2m14 0a1 1 0 1 1 0 2 1 1 0 0 1 0-2m14 0a1 1 0 1 1 0 2 1 1 0 0 1 0-2M-11 16a1 1 0 1 1 0 2 1 1 0 0 1 0-2m14 0a1 1 0 1 1 0 2 1 1 0 0 1 0-2m14 0a1 1 0 1 1 0 2 1 1 0 0 1 0-2m14 0a1 1 0 1 1 0 2 1 1 0 0 1 0-2m14 0a1 1 0 1 1 0 2 1 1 0 0 1 0-2m14 0a1 1 0 1 1 0 2 1 1 0 0 1 0-2m14 0a1 1 0 1 1 0 2 1 1 0 0 1 0-2m14 0a1 1 0 1 1 0 2 1 1 0 0 1 0-2m14 0a1 1 0 1 1 0 2 1 1 0 0 1 0-2m14 0a1 1 0 1 1 0 2 1 1 0 0 1 0-2m14 0a1 1 0 1 1 0 2 1 1 0 0 1 0-2m14 0a1 1 0 1 1 0 2 1 1 0 0 1 0-2m14 0a1 1 0 1 1 0 2 1 1 0 0 1 0-2m14 0a1 1 0 1 1 0 2 1 1 0 0 1 0-2m14 0a1 1 0 1 1 0 2 1 1 0 0 1 0-2m14 0a1 1 0 1 1 0 2 1 1 0 0 1 0-2m14 0a1 1 0 1 1 0 2 1 1 0 0 1 0-2m14 0a1 1 0 1 1 0 2 1 1 0 0 1 0-2m14 0a1 1 0 1 1 0 2 1 1 0 0 1 0-2m14 0a1 1 0 1 1 0 2 1 1 0 0 1 0-2m14 0a1 1 0 1 1 0 2 1 1 0 0 1 0-2m14 0a1 1 0 1 1 0 2 1 1 0 0 1 0-2m14 0a1 1 0 1 1 0 2 1 1 0 0 1 0-2m14 0a1 1 0 1 1 0 2 1 1 0 0 1 0-2m14 0a1 1 0 1 1 0 2 1 1 0 0 1 0-2m14 0a1 1 0 1 1 0 2 1 1 0 0 1 0-2m14 0a1 1 0 1 1 0 2 1 1 0 0 1 0-2m14 0a1 1 0 1 1 0 2 1 1 0 0 1 0-2m14 0a1 1 0 1 1 0 2 1 1 0 0 1 0-2m14 0a1 1 0 1 1 0 2 1 1 0 0 1 0-2m14 0a1 1 0 1 1 0 2 1 1 0 0 1 0-2m14 0a1 1 0 1 1 0 2 1 1 0 0 1 0-2m14 0a1 1 0 1 1 0 2 1 1 0 0 1 0-2m14 0a1 1 0 1 1 0 2 1 1 0 0 1 0-2m14 0a1 1 0 1 1 0 2 1 1 0 0 1 0-2m14 0a1 1 0 1 1 0 2 1 1 0 0 1 0-2m14 0a1 1 0 1 1 0 2 1 1 0 0 1 0-2m14 0a1 1 0 1 1 0 2 1 1 0 0 1 0-2m14 0a1 1 0 1 1 0 2 1 1 0 0 1 0-2m14 0a1 1 0 1 1 0 2 1 1 0 0 1 0-2m14 0a1 1 0 1 1 0 2 1 1 0 0 1 0-2m14 0a1 1 0 1 1 0 2 1 1 0 0 1 0-2m14 0a1 1 0 1 1 0 2 1 1 0 0 1 0-2m14 0a1 1 0 1 1 0 2 1 1 0 0 1 0-2m14 0a1 1 0 1 1 0 2 1 1 0 0 1 0-2m14 0a1 1 0 1 1 0 2 1 1 0 0 1 0-2m14 0a1 1 0 1 1 0 2 1 1 0 0 1 0-2m14 0a1 1 0 1 1 0 2 1 1 0 0 1 0-2m14 0a1 1 0 1 1 0 2 1 1 0 0 1 0-2m14 0a1 1 0 1 1 0 2 1 1 0 0 1 0-2m14 0a1 1 0 1 1 0 2 1 1 0 0 1 0-2m14 0a1 1 0 1 1 0 2 1 1 0 0 1 0-2m14 0a1 1 0 1 1 0 2 1 1 0 0 1 0-2M-11 2a1 1 0 1 1 0 2 1 1 0 0 1 0-2M3 2a1 1 0 1 1 0 2 1 1 0 0 1 0-2m14 0a1 1 0 1 1 0 2 1 1 0 0 1 0-2m14 0a1 1 0 1 1 0 2 1 1 0 0 1 0-2m14 0a1 1 0 1 1 0 2 1 1 0 0 1 0-2m14 0a1 1 0 1 1 0 2 1 1 0 0 1 0-2m14 0a1 1 0 1 1 0 2 1 1 0 0 1 0-2m14 0a1 1 0 1 1 0 2 1 1 0 0 1 0-2m14 0a1 1 0 1 1 0 2 1 1 0 0 1 0-2m14 0a1 1 0 1 1 0 2 1 1 0 0 1 0-2m14 0a1 1 0 1 1 0 2 1 1 0 0 1 0-2m14 0a1 1 0 1 1 0 2 1 1 0 0 1 0-2m14 0a1 1 0 1 1 0 2 1 1 0 0 1 0-2m14 0a1 1 0 1 1 0 2 1 1 0 0 1 0-2m14 0a1 1 0 1 1 0 2 1 1 0 0 1 0-2m14 0a1 1 0 1 1 0 2 1 1 0 0 1 0-2m14 0a1 1 0 1 1 0 2 1 1 0 0 1 0-2m14 0a1 1 0 1 1 0 2 1 1 0 0 1 0-2m14 0a1 1 0 1 1 0 2 1 1 0 0 1 0-2m14 0a1 1 0 1 1 0 2 1 1 0 0 1 0-2m14 0a1 1 0 1 1 0 2 1 1 0 0 1 0-2m14 0a1 1 0 1 1 0 2 1 1 0 0 1 0-2m14 0a1 1 0 1 1 0 2 1 1 0 0 1 0-2m14 0a1 1 0 1 1 0 2 1 1 0 0 1 0-2m14 0a1 1 0 1 1 0 2 1 1 0 0 1 0-2m14 0a1 1 0 1 1 0 2 1 1 0 0 1 0-2m14 0a1 1 0 1 1 0 2 1 1 0 0 1 0-2m14 0a1 1 0 1 1 0 2 1 1 0 0 1 0-2m14 0a1 1 0 1 1 0 2 1 1 0 0 1 0-2m14 0a1 1 0 1 1 0 2 1 1 0 0 1 0-2m14 0a1 1 0 1 1 0 2 1 1 0 0 1 0-2m14 0a1 1 0 1 1 0 2 1 1 0 0 1 0-2m14 0a1 1 0 1 1 0 2 1 1 0 0 1 0-2m14 0a1 1 0 1 1 0 2 1 1 0 0 1 0-2m14 0a1 1 0 1 1 0 2 1 1 0 0 1 0-2m14 0a1 1 0 1 1 0 2 1 1 0 0 1 0-2m14 0a1 1 0 1 1 0 2 1 1 0 0 1 0-2m14 0a1 1 0 1 1 0 2 1 1 0 0 1 0-2m14 0a1 1 0 1 1 0 2 1 1 0 0 1 0-2m14 0a1 1 0 1 1 0 2 1 1 0 0 1 0-2m14 0a1 1 0 1 1 0 2 1 1 0 0 1 0-2m14 0a1 1 0 1 1 0 2 1 1 0 0 1 0-2m14 0a1 1 0 1 1 0 2 1 1 0 0 1 0-2m14 0a1 1 0 1 1 0 2 1 1 0 0 1 0-2m14 0a1 1 0 1 1 0 2 1 1 0 0 1 0-2m14 0a1 1 0 1 1 0 2 1 1 0 0 1 0-2m14 0a1 1 0 1 1 0 2 1 1 0 0 1 0-2m14 0a1 1 0 1 1 0 2 1 1 0 0 1 0-2m14 0a1 1 0 1 1 0 2 1 1 0 0 1 0-2m14 0a1 1 0 1 1 0 2 1 1 0 0 1 0-2m14 0a1 1 0 1 1 0 2 1 1 0 0 1 0-2m14 0a1 1 0 1 1 0 2 1 1 0 0 1 0-2m14 0a1 1 0 1 1 0 2 1 1 0 0 1 0-2"/></g><rect width="137" height="55" x="432.5" y="16.5" fill="#cfd4fc" rx="9.5"/><rect width="137" height="55" x="432.5" y="16.5" stroke="#3d50f5" rx="9.5"/><rect width="30" height="30" x="444" y="29" fill="#3d50f5" rx="4"/><path fill="#cfd4fc" fill-rule="evenodd" d="M459 48.409A4.41 4.41 0 0 0 463.408 44a4.408 4.408 0 1 0-8.817 0A4.41 4.41 0 0 0 459 48.409m0 .802a5.21 5.21 0 1 0-.001-10.422A5.21 5.21 0 0 0 459 49.211" clip-rule="evenodd"/><path fill="#cfd4fc" fill-rule="evenodd" d="M461.406 47.507a1.103 1.103 0 1 1 2.205 0 1.103 1.103 0 0 1-2.205 0m-7.015-7.014a1.102 1.102 0 1 1 2.204 0 1.102 1.102 0 0 1-2.204 0" clip-rule="evenodd"/><path fill="#cfd4fc" fill-rule="evenodd" d="M456.185 40.606A4.4 4.4 0 0 1 459 39.591a.4.4 0 0 0 0-.802 5.2 5.2 0 0 0-3.181 1.083.7.7 0 0 1 .366.734m-.579.58a.7.7 0 0 1-.734-.365A5.2 5.2 0 0 0 453.789 44a.401.401 0 0 0 .802 0c0-1.07.381-2.051 1.015-2.815m6.211 6.208a4.4 4.4 0 0 1-2.815 1.015.4.4 0 0 0 0 .802 5.2 5.2 0 0 0 3.181-1.083.7.7 0 0 1-.366-.734m.579-.579a.7.7 0 0 1 .734.365 5.2 5.2 0 0 0 1.083-3.18.401.401 0 0 0-.802 0c0 1.07-.381 2.051-1.015 2.815m-6.54-2.591 3.408-3.29a.41.41 0 0 1 .566 0l2.426 2.342a.377.377 0 0 1 0 .547l-3.408 3.29a.41.41 0 0 1-.566 0l-2.426-2.342a.377.377 0 0 1 0-.547m4.17-1.648a.3.3 0 0 0-.365-.21.29.29 0 0 0-.219.351l.176.677-1.655.8a.29.29 0 0 0-.157.33l.234.902a.3.3 0 0 0 .364.211.29.29 0 0 0 .219-.352l-.175-.677 1.654-.799a.286.286 0 0 0 .157-.33z" clip-rule="evenodd"/><path fill="#cfd4fc" d="m457.396 47.16.468-.452v-.452h-.468l-.467.452a.31.31 0 0 0 0 .451.34.34 0 0 0 .467 0m3.039-1.129-.467-.451h-.468v.451l.468.452a.34.34 0 0 0 .467 0 .31.31 0 0 0 0-.452m-4.206.003.467-.451v-.452h-.467l-.468.452a.31.31 0 0 0 0 .451.34.34 0 0 0 .468 0m5.374-1.129-.467-.451h-.468v.451l.468.452a.34.34 0 0 0 .467 0 .31.31 0 0 0 0-.452m-5.143-1.808.468.451h.467v-.451l-.467-.452a.34.34 0 0 0-.468 0 .31.31 0 0 0 0 .452m5.379-1.129-.468.451v.452h.468l.467-.452a.31.31 0 0 0 0-.451.34.34 0 0 0-.467 0m-4.207.005.468.451h.467v-.451l-.467-.452a.34.34 0 0 0-.468 0 .31.31 0 0 0 0 .452m3.039-1.132-.468.452v.452h.468l.467-.452a.31.31 0 0 0 0-.451.34.34 0 0 0-.467 0"/><path fill="#cfd4fc" fill-rule="evenodd" d="M466.25 39.419a.407.407 0 0 1 .541.139l2.575 4.253.005.011.017.035.015.038.004.02a.4.4 0 0 1 .009.128l-.003.012a.4.4 0 0 1-.046.129l-.001.004-2.575 4.254a.407.407 0 0 1-.541.138l-.684-.377a.37.37 0 0 1-.146-.517L467.652 44l-2.232-3.687a.37.37 0 0 1 .146-.515zm-15.042.139a.407.407 0 0 1 .541-.14l.685.379a.37.37 0 0 1 .145.515L450.347 44l2.232 3.687a.37.37 0 0 1-.145.517l-.685.377a.407.407 0 0 1-.541-.139l-2.574-4.253-.004-.008-.023-.05-.007-.017a.3.3 0 0 1-.012-.05l-.005-.027-.001-.037.001-.035q.002-.021.008-.042.002-.015.006-.029a.3.3 0 0 1 .03-.069l.006-.014z" clip-rule="evenodd"/><path fill="#17181c" d="M479.517 40.981v-1.436h7.543v1.436h-2.922V49h-1.699v-8.019zM488.515 49v-9.455h3.619q1.025 0 1.703.324.684.318 1.021.872.34.554.341 1.256 0 .577-.221.988a1.9 1.9 0 0 1-.596.66q-.374.254-.835.365v.092q.503.027.964.31.466.276.762.784t.296 1.228q0 .735-.356 1.32-.356.582-1.071.919t-1.8.337zm1.712-1.431h1.842q.933 0 1.344-.356.415-.36.415-.923a1.41 1.41 0 0 0-.799-1.292 1.96 1.96 0 0 0-.914-.199h-1.888zm0-4.003h1.695q.442 0 .798-.161a1.35 1.35 0 0 0 .559-.466q.207-.306.208-.72 0-.55-.388-.905-.384-.356-1.141-.356h-1.731zm6.832-4.02h2.095l2.807 6.85h.111l2.807-6.85h2.096V49h-1.644v-6.495h-.087l-2.613 6.467h-1.228l-2.613-6.481h-.088V49h-1.643zm15.303 6.278h1.551l.919 1.19.655.776 1.575 2.023H515.4l-1.071-1.358-.457-.646zm4.926-1.551q0 1.527-.573 2.617-.567 1.085-1.551 1.662-.978.577-2.22.577t-2.225-.577q-.98-.582-1.551-1.666-.568-1.09-.568-2.613 0-1.529.568-2.613.572-1.09 1.551-1.667.983-.577 2.225-.577t2.22.577q.984.577 1.551 1.667.573 1.084.573 2.613m-1.722 0q0-1.075-.337-1.815-.332-.743-.923-1.121a2.45 2.45 0 0 0-1.362-.384q-.771 0-1.362.384-.59.378-.928 1.121-.332.74-.332 1.815t.332 1.819q.337.738.928 1.121a2.47 2.47 0 0 0 1.362.379 2.47 2.47 0 0 0 1.362-.379q.59-.383.923-1.121.337-.743.337-1.82"/><path stroke="#3d50f5" stroke-width="1.5" d="M501 72v214"/><rect width="17" height="47" x="492.5" y="116.5" fill="#cfd4fc" rx="3.5"/><rect width="17" height="47" x="492.5" y="116.5" stroke="#3d50f5" rx="3.5"/><rect width="17" height="47" x="492.5" y="188.5" fill="#cfd4fc" rx="3.5"/><rect width="17" height="47" x="492.5" y="188.5" stroke="#3d50f5" rx="3.5"/><rect width="137" height="55" x="151.5" y="16.5" fill="#edeef3" rx="9.5"/><rect width="137" height="55" x="151.5" y="16.5" stroke="#555962" rx="9.5"/><rect width="30" height="30" x="163" y="29" fill="#555962" rx="4"/><path fill="#edeef3" d="M172.499 38.5v11h11v-11zm8.25 1.833c.506 0 .916.41.916.917v5.5c0 .506-.41.917-.916.917h-5.5a.916.916 0 0 1-.917-.917v-5.5c0-.506.41-.917.917-.917zm-4.584 5.5h3.667v-3.666h-3.667zm9.167-4.583h.917a.916.916 0 0 1 0 1.833h-.917v1.834h.917a.916.916 0 0 1 0 1.833h-.917v2.75a1.83 1.83 0 0 1-1.833 1.833h-2.75v.917a.917.917 0 0 1-1.834 0v-.917h-1.833v.917a.916.916 0 1 1-1.833 0v-.917h-2.75a1.834 1.834 0 0 1-1.834-1.833v-2.75h-.916a.916.916 0 1 1 0-1.833h.916v-1.834h-.916a.916.916 0 1 1 0-1.833h.916V38.5a1.836 1.836 0 0 1 1.834-1.833h2.75v-.917a.916.916 0 1 1 1.833 0v.917h1.833v-.917a.917.917 0 0 1 1.834 0v.917h2.75a1.833 1.833 0 0 1 1.833 1.833z"/><path fill="#17181c" d="M198.933 39.546h2.095l2.807 6.85h.111l2.807-6.85h2.096V49h-1.644v-6.495h-.087l-2.613 6.467h-1.228l-2.613-6.481h-.088V49h-1.643zm15.303 6.278h1.551l.919 1.19.656.776 1.574 2.023h-1.662l-1.071-1.358-.457-.646zm4.926-1.551q0 1.527-.573 2.617-.567 1.085-1.551 1.662-.978.577-2.22.577t-2.225-.577q-.98-.582-1.551-1.666-.568-1.09-.568-2.613 0-1.529.568-2.613.571-1.09 1.551-1.667.983-.577 2.225-.577t2.22.577q.984.577 1.551 1.667.573 1.084.573 2.613m-1.722 0q0-1.075-.337-1.815-.333-.743-.923-1.121a2.45 2.45 0 0 0-1.362-.384q-.771 0-1.362.384-.59.378-.928 1.121-.333.74-.332 1.815 0 1.075.332 1.819.337.738.928 1.121a2.47 2.47 0 0 0 1.362.379 2.47 2.47 0 0 0 1.362-.379q.59-.383.923-1.121.337-.743.337-1.82m2.519-3.292v-1.436h7.544v1.436h-2.922V49h-1.699v-8.019zm8.582 0v-1.436h7.544v1.436h-2.922V49h-1.699v-8.019zm20.315 1.754h-1.726a2.2 2.2 0 0 0-.273-.752 2.02 2.02 0 0 0-1.168-.91 2.6 2.6 0 0 0-.808-.12q-.77 0-1.366.388-.595.384-.933 1.127-.336.738-.337 1.805 0 1.084.337 1.828.342.739.933 1.117.595.374 1.362.374.425 0 .794-.11.373-.117.669-.338.3-.222.503-.545a2.1 2.1 0 0 0 .287-.738l1.726.009q-.096.675-.42 1.265a3.7 3.7 0 0 1-.835 1.043 3.9 3.9 0 0 1-1.21.702q-.693.25-1.537.25-1.247 0-2.225-.578-.98-.577-1.542-1.666-.564-1.09-.563-2.613 0-1.529.567-2.613.568-1.09 1.547-1.667.978-.577 2.216-.577.789 0 1.468.222.678.221 1.209.65.531.426.873 1.044.346.614.452 1.403m3.166-3.19V49h-1.671v-9.455zM253.741 49v-7.09h1.671V49zm.84-8.097a.98.98 0 0 1-.684-.263.85.85 0 0 1-.286-.642q0-.378.286-.642a.97.97 0 0 1 .684-.268q.4 0 .683.268.286.264.286.642 0 .374-.286.642a.97.97 0 0 1-.683.263m5.688 8.236q-1.067 0-1.842-.444a3 3 0 0 1-1.186-1.265q-.416-.82-.416-1.934 0-1.095.416-1.92a3.14 3.14 0 0 1 1.173-1.293q.752-.466 1.768-.466.655 0 1.237.212.586.208 1.034.646.453.439.711 1.118.258.674.258 1.606v.513h-5.812v-1.127h4.21a1.8 1.8 0 0 0-.207-.854 1.5 1.5 0 0 0-.568-.595 1.6 1.6 0 0 0-.84-.217q-.513 0-.9.249a1.7 1.7 0 0 0-.605.646 1.85 1.85 0 0 0-.217.873v.983q0 .618.226 1.062.227.438.632.674.406.23.951.23.366 0 .661-.1.295-.108.512-.31.217-.204.328-.503l1.56.175a2.4 2.4 0 0 1-.563 1.08 2.75 2.75 0 0 1-1.053.711q-.641.25-1.468.25m6.238-4.294V49h-1.671v-7.09h1.598v1.204h.083q.244-.595.78-.946.54-.351 1.334-.351.734 0 1.279.314.549.313.849.91.304.594.3 1.444V49h-1.671v-4.256q0-.711-.369-1.113-.365-.402-1.011-.402-.44 0-.78.194a1.34 1.34 0 0 0-.531.55q-.19.36-.19.872m9.792-2.936v1.293h-4.076v-1.293zm-3.07-1.699h1.671v6.657q0 .337.102.517.106.176.277.24.171.065.378.065.157 0 .286-.023.134-.024.204-.042l.281 1.307q-.134.045-.383.101a3 3 0 0 1-.6.065 2.7 2.7 0 0 1-1.131-.19 1.76 1.76 0 0 1-.799-.655q-.29-.443-.286-1.108z"/><path stroke="#555962" stroke-width="1.5" d="M220 71v230"/><rect width="17" height="47" x="211.5" y="116.5" fill="#edeef3" rx="3.5"/><rect width="17" height="47" x="211.5" y="116.5" stroke="#555962" rx="3.5"/><rect width="17" height="47" x="211.5" y="188.5" fill="#edeef3" rx="3.5"/><rect width="17" height="47" x="211.5" y="188.5" stroke="#555962" rx="3.5"/><path fill="#3d50f5" d="M488.75 212.75a.75.75 0 0 0 0-1.5zm-96.289-1.5a.75.75 0 0 0 0 1.5zm-59.875 1.5a.75.75 0 0 0 0-1.5zm-100.866-1.28a.75.75 0 0 0 0 1.06l4.773 4.773a.749.749 0 1 0 1.06-1.06L233.311 212l4.242-4.243a.749.749 0 1 0-1.06-1.06zm257.03.53v-.75h-96.289v1.5h96.289zm-156.164 0v-.75H232.25v1.5h100.336z"/><path fill="#353841" d="M339.232 216v-8.727h3.111q1.018 0 1.687.37.669.372 1.002 1.015.332.639.332 1.44 0 .805-.336 1.449a2.44 2.44 0 0 1-1.006 1.014q-.669.37-1.683.371h-2.14v-1.117h2.02q.643 0 1.044-.221.4-.226.588-.614.188-.387.188-.882t-.188-.878a1.34 1.34 0 0 0-.592-.601q-.4-.217-1.057-.217h-1.653V216zm13.156-8.727h1.321v5.74q0 .916-.43 1.623a3 3 0 0 1-1.21 1.108q-.78.4-1.829.401-1.044 0-1.823-.401a3 3 0 0 1-1.211-1.108q-.43-.707-.43-1.623v-5.74h1.317v5.633q0 .593.26 1.053.264.46.745.724.482.26 1.142.26.666 0 1.147-.26.486-.264.741-.724.26-.46.26-1.053zm3.104 8.727v-8.727h3.196q.929 0 1.538.307.609.301.912.822.303.516.302 1.163 0 .546-.2.921a1.6 1.6 0 0 1-.537.596 2.4 2.4 0 0 1-.733.324v.085q.435.022.848.282.418.255.691.728.272.474.272 1.151 0 .67-.315 1.202-.31.528-.963.839-.652.307-1.666.307zm1.316-1.129h1.901q.946 0 1.355-.367.41-.366.409-.916 0-.413-.209-.758a1.5 1.5 0 0 0-.596-.55 1.9 1.9 0 0 0-.912-.205h-1.948zm0-3.823h1.765q.443 0 .796-.17.358-.171.567-.477.213-.312.213-.733a1.2 1.2 0 0 0-.379-.908q-.38-.367-1.163-.367h-1.799zm7.14 4.952h-1.397l3.14-8.727h1.522l3.14 8.727h-1.398l-2.467-7.142h-.068zm.235-3.418h4.534v1.108h-4.534zm14.137-2.471h-1.33a2.04 2.04 0 0 0-.796-1.3 2.2 2.2 0 0 0-.678-.341 2.6 2.6 0 0 0-.788-.115 2.47 2.47 0 0 0-1.351.379q-.593.38-.938 1.113-.34.733-.341 1.789 0 1.066.341 1.799.345.733.942 1.108t1.342.375q.414 0 .784-.111.375-.115.678-.337a2.06 2.06 0 0 0 .805-1.282l1.33.004a3.6 3.6 0 0 1-.413 1.184 3.3 3.3 0 0 1-.78.929 3.5 3.5 0 0 1-1.083.601 4 4 0 0 1-1.329.213q-1.134 0-2.02-.537-.887-.54-1.398-1.546-.507-1.007-.507-2.4 0-1.397.511-2.399.512-1.005 1.398-1.542.887-.542 2.016-.542.695 0 1.295.201.606.196 1.087.579.482.38.797.929.315.546.426 1.249m1.444 5.889v-8.727h1.316v4.167h.107l3.66-4.167h1.658l-3.52 3.929 3.533 4.798h-1.585l-2.821-3.899-1.032 1.185V216z"/><path fill="#555962" d="M489.28 140.53a.75.75 0 0 0 0-1.06l-4.773-4.773a.749.749 0 1 0-1.06 1.06l4.242 4.243-4.242 4.243a.749.749 0 1 0 1.06 1.06zm-77.319-1.28a.75.75 0 0 0 0 1.5zm-98.875 1.5a.75.75 0 0 0 0-1.5zm-80.836-1.5a.75.75 0 0 0 0 1.5zm256.5.75v-.75h-76.789v1.5h76.789zm-175.664 0v-.75H232.25v1.5h80.836z"/><path fill="#353841" d="M319.632 144v-8.727h3.11q1.019 0 1.688.37.67.372 1.001 1.015.333.639.333 1.44 0 .805-.337 1.449a2.43 2.43 0 0 1-1.006 1.014q-.669.37-1.683.371h-2.139v-1.117h2.02q.644 0 1.044-.221.4-.226.588-.614.187-.387.187-.882t-.187-.878a1.34 1.34 0 0 0-.592-.601q-.401-.217-1.057-.217h-1.654V144zm13.156-8.727h1.321v5.74q0 .916-.431 1.623-.43.703-1.21 1.108-.78.4-1.828.401-1.044 0-1.824-.401a3 3 0 0 1-1.21-1.108q-.43-.707-.431-1.623v-5.74h1.317v5.633q0 .593.26 1.053.264.46.746.724.482.26 1.142.26.664 0 1.146-.26.486-.264.742-.724.26-.46.26-1.053zm3.103 8.727v-8.727h3.196q.929 0 1.538.307.61.302.912.822.303.516.303 1.163 0 .546-.2.921a1.65 1.65 0 0 1-.537.596 2.4 2.4 0 0 1-.733.324v.085q.434.022.848.282.417.255.69.728.273.474.273 1.151 0 .67-.315 1.202-.312.528-.964.839-.651.307-1.666.307zm1.317-1.129h1.9q.947 0 1.356-.367a1.18 1.18 0 0 0 .409-.916q0-.413-.209-.758a1.5 1.5 0 0 0-.597-.55q-.383-.205-.912-.205h-1.947zm0-3.823h1.764q.443 0 .797-.17.358-.171.567-.477.213-.312.213-.733 0-.542-.379-.908-.38-.367-1.164-.367h-1.798zm6.403 4.952v-8.727h1.316v7.593h3.955V144zm7.958-8.727V144h-1.317v-8.727zm6.545 2.292a1.24 1.24 0 0 0-.562-.937q-.495-.337-1.244-.337a2.3 2.3 0 0 0-.929.171q-.393.166-.61.46a1.1 1.1 0 0 0-.213.66q0 .312.145.537.15.226.388.38.243.149.52.251.276.097.532.162l.853.222q.418.102.856.277.44.174.814.46.375.285.605.707.235.422.235 1.01 0 .741-.384 1.317-.38.575-1.104.907-.72.333-1.742.333-.98 0-1.697-.311a2.6 2.6 0 0 1-1.12-.882q-.405-.575-.448-1.364h1.321q.039.473.307.788.273.312.695.465.426.149.933.149.558 0 .993-.175.44-.179.69-.494a1.17 1.17 0 0 0 .252-.746.92.92 0 0 0-.222-.635 1.65 1.65 0 0 0-.592-.409 6 6 0 0 0-.84-.285l-1.031-.282q-1.048-.285-1.662-.839-.609-.554-.609-1.466 0-.755.409-1.317a2.7 2.7 0 0 1 1.108-.873q.699-.316 1.576-.316.887 0 1.564.311.682.311 1.074.857.393.542.409 1.244zm2.831 6.435v-8.727h1.317v3.792h4.351v-3.792h1.321V144h-1.321v-3.805h-4.351V144zm15.027-2.83h1.295l.912 1.189.431.529 1.453 1.896h-1.347l-.971-1.266-.333-.46zm4.372-1.534q0 1.398-.511 2.404-.511 1.001-1.402 1.542-.887.537-2.016.537-1.134 0-2.024-.537-.887-.54-1.398-1.546t-.511-2.4q0-1.397.511-2.399.512-1.005 1.398-1.542.89-.542 2.024-.542 1.13 0 2.016.542.89.537 1.402 1.542.511 1.002.511 2.399m-1.304 0q0-1.065-.345-1.794-.34-.733-.938-1.108a2.44 2.44 0 0 0-1.342-.379q-.755 0-1.346.379-.593.375-.938 1.108-.34.729-.341 1.794 0 1.066.341 1.799.345.728.938 1.108.591.375 1.346.375.75 0 1.342-.375.597-.38.938-1.108.345-.733.345-1.799m5.469 4.496q-.92 0-1.607-.422a2.84 2.84 0 0 1-1.065-1.18q-.38-.759-.379-1.773 0-1.019.379-1.781a2.84 2.84 0 0 1 1.065-1.185q.686-.422 1.607-.422t1.606.422q.687.421 1.066 1.185.379.762.379 1.781 0 1.014-.379 1.773a2.84 2.84 0 0 1-1.066 1.18q-.686.422-1.606.422m.004-1.07q.596 0 .989-.315.392-.315.579-.839a3.3 3.3 0 0 0 .192-1.155q0-.626-.192-1.151a1.9 1.9 0 0 0-.579-.848q-.392-.32-.989-.319-.601 0-.997.319a1.9 1.9 0 0 0-.584.848q-.188.524-.188 1.151 0 .63.188 1.155.192.524.584.839.396.315.997.315m9.199-5.497a1.24 1.24 0 0 0-.562-.937q-.495-.337-1.245-.337-.537 0-.929.171-.391.166-.609.46a1.1 1.1 0 0 0-.213.66q0 .312.145.537.149.226.388.38.243.149.52.251.277.097.532.162l.852.222q.418.102.857.277.44.174.814.46.375.285.605.707.234.422.234 1.01 0 .741-.383 1.317-.38.575-1.104.907-.72.333-1.743.333-.98 0-1.696-.311-.716-.312-1.12-.882-.405-.575-.448-1.364h1.321q.039.473.307.788.273.312.695.465.426.149.933.149.558 0 .993-.175.438-.179.69-.494a1.17 1.17 0 0 0 .251-.746q0-.387-.221-.635a1.65 1.65 0 0 0-.592-.409 6 6 0 0 0-.84-.285l-1.031-.282q-1.049-.285-1.662-.839-.61-.554-.61-1.466 0-.755.41-1.317a2.7 2.7 0 0 1 1.108-.873q.698-.316 1.576-.316.886 0 1.564.311.683.311 1.074.857.392.542.409 1.244zm8.794 6.58q-1.01-.005-1.726-.533-.715-.528-1.095-1.538t-.38-2.433q0-1.42.38-2.425.383-1.006 1.099-1.534.72-.529 1.722-.529 1.001 0 1.717.533.715.529 1.095 1.534.384 1.002.384 2.421 0 1.427-.379 2.437-.38 1.006-1.096 1.538-.716.53-1.721.529m0-1.138q.886 0 1.385-.865.503-.865.503-2.501 0-1.087-.231-1.837-.225-.755-.652-1.142a1.43 1.43 0 0 0-1.005-.392q-.882 0-1.385.869-.503.87-.507 2.502 0 1.09.226 1.845.23.75.652 1.138.421.383 1.014.383"/></g><defs><clipPath id="a"><path fill="#fff" d="M0 0h720v317H0z"/></clipPath><clipPath id="b"><path fill="#fff" d="M0 0h720v314H0z"/></clipPath></defs></svg>