<svg xmlns="http://www.w3.org/2000/svg" width="720" height="196" fill="none"><g clip-path="url(#a)"><path fill="#fff" d="M0 0h720v196H0z"/><g fill="#c1c3c8" clip-path="url(#b)" opacity=".5"><path d="M-11 324a1 1 0 1 1 0 2 1 1 0 0 1 0-2M3 324a1 1 0 1 1 0 2 1 1 0 0 1 0-2M17 324a1 1 0 1 1 0 2 1 1 0 0 1 0-2M31 324a1 1 0 1 1 0 2 1 1 0 0 1 0-2M45 324a1 1 0 1 1 0 2 1 1 0 0 1 0-2M59 324a1 1 0 1 1 0 2 1 1 0 0 1 0-2M73 324a1 1 0 1 1 0 2 1 1 0 0 1 0-2M87 324a1 1 0 1 1 0 2 1 1 0 0 1 0-2M101 324a1 1 0 1 1 0 2 1 1 0 0 1 0-2M115 324a1 1 0 1 1 0 2 1 1 0 0 1 0-2M129 324a1 1 0 1 1 0 2 1 1 0 0 1 0-2M143 324a1 1 0 1 1 0 2 1 1 0 0 1 0-2M157 324a1 1 0 1 1 0 2 1 1 0 0 1 0-2M171 324a1 1 0 1 1 0 2 1 1 0 0 1 0-2M185 324a1 1 0 1 1 0 2 1 1 0 0 1 0-2M199 324a1 1 0 1 1 0 2 1 1 0 0 1 0-2M213 324a1 1 0 1 1 0 2 1 1 0 0 1 0-2M227 324a1 1 0 1 1 0 2 1 1 0 0 1 0-2M241 324a1 1 0 1 1 0 2 1 1 0 0 1 0-2M255 324a1 1 0 1 1 0 2 1 1 0 0 1 0-2M269 324a1 1 0 1 1 0 2 1 1 0 0 1 0-2M283 324a1 1 0 1 1 0 2 1 1 0 0 1 0-2M297 324a1 1 0 1 1 0 2 1 1 0 0 1 0-2M311 324a1 1 0 1 1 0 2 1 1 0 0 1 0-2M325 324a1 1 0 1 1 0 2 1 1 0 0 1 0-2M339 324a1 1 0 1 1 0 2 1 1 0 0 1 0-2M353 324a1 1 0 1 1 0 2 1 1 0 0 1 0-2M367 324a1 1 0 1 1 0 2 1 1 0 0 1 0-2M381 324a1 1 0 1 1 0 2 1 1 0 0 1 0-2M395 324a1 1 0 1 1 0 2 1 1 0 0 1 0-2M409 324a1 1 0 1 1 0 2 1 1 0 0 1 0-2M423 324a1 1 0 1 1 0 2 1 1 0 0 1 0-2M437 324a1 1 0 1 1 0 2 1 1 0 0 1 0-2M451 324a1 1 0 1 1 0 2 1 1 0 0 1 0-2M465 324a1 1 0 1 1 0 2 1 1 0 0 1 0-2M479 324a1 1 0 1 1 0 2 1 1 0 0 1 0-2M493 324a1 1 0 1 1 0 2 1 1 0 0 1 0-2M507 324a1 1 0 1 1 0 2 1 1 0 0 1 0-2M521 324a1 1 0 1 1 0 2 1 1 0 0 1 0-2M535 324a1 1 0 1 1 0 2 1 1 0 0 1 0-2M549 324a1 1 0 1 1 0 2 1 1 0 0 1 0-2M563 324a1 1 0 1 1 0 2 1 1 0 0 1 0-2M577 324a1 1 0 1 1 0 2 1 1 0 0 1 0-2M591 324a1 1 0 1 1 0 2 1 1 0 0 1 0-2M605 324a1 1 0 1 1 0 2 1 1 0 0 1 0-2M619 324a1 1 0 1 1 0 2 1 1 0 0 1 0-2M633 324a1 1 0 1 1 0 2 1 1 0 0 1 0-2M647 324a1 1 0 1 1 0 2 1 1 0 0 1 0-2M661 324a1 1 0 1 1 0 2 1 1 0 0 1 0-2M675 324a1 1 0 1 1 0 2 1 1 0 0 1 0-2M689 324a1 1 0 1 1 0 2 1 1 0 0 1 0-2M703 324a1 1 0 1 1 0 2 1 1 0 0 1 0-2M-11 310a1 1 0 1 1 0 2 1 1 0 0 1 0-2M3 310a1 1 0 1 1 0 2 1 1 0 0 1 0-2M17 310a1 1 0 1 1 0 2 1 1 0 0 1 0-2M31 310a1 1 0 1 1 0 2 1 1 0 0 1 0-2M45 310a1 1 0 1 1 0 2 1 1 0 0 1 0-2M59 310a1 1 0 1 1 0 2 1 1 0 0 1 0-2M73 310a1 1 0 1 1 0 2 1 1 0 0 1 0-2M87 310a1 1 0 1 1 0 2 1 1 0 0 1 0-2M101 310a1 1 0 1 1 0 2 1 1 0 0 1 0-2M115 310a1 1 0 1 1 0 2 1 1 0 0 1 0-2M129 310a1 1 0 1 1 0 2 1 1 0 0 1 0-2M143 310a1 1 0 1 1 0 2 1 1 0 0 1 0-2M157 310a1 1 0 1 1 0 2 1 1 0 0 1 0-2M171 310a1 1 0 1 1 0 2 1 1 0 0 1 0-2M185 310a1 1 0 1 1 0 2 1 1 0 0 1 0-2M199 310a1 1 0 1 1 0 2 1 1 0 0 1 0-2M213 310a1 1 0 1 1 0 2 1 1 0 0 1 0-2M227 310a1 1 0 1 1 0 2 1 1 0 0 1 0-2M241 310a1 1 0 1 1 0 2 1 1 0 0 1 0-2M255 310a1 1 0 1 1 0 2 1 1 0 0 1 0-2M269 310a1 1 0 1 1 0 2 1 1 0 0 1 0-2M283 310a1 1 0 1 1 0 2 1 1 0 0 1 0-2M297 310a1 1 0 1 1 0 2 1 1 0 0 1 0-2M311 310a1 1 0 1 1 0 2 1 1 0 0 1 0-2M325 310a1 1 0 1 1 0 2 1 1 0 0 1 0-2M339 310a1 1 0 1 1 0 2 1 1 0 0 1 0-2M353 310a1 1 0 1 1 0 2 1 1 0 0 1 0-2M367 310a1 1 0 1 1 0 2 1 1 0 0 1 0-2M381 310a1 1 0 1 1 0 2 1 1 0 0 1 0-2M395 310a1 1 0 1 1 0 2 1 1 0 0 1 0-2M409 310a1 1 0 1 1 0 2 1 1 0 0 1 0-2M423 310a1 1 0 1 1 0 2 1 1 0 0 1 0-2M437 310a1 1 0 1 1 0 2 1 1 0 0 1 0-2M451 310a1 1 0 1 1 0 2 1 1 0 0 1 0-2M465 310a1 1 0 1 1 0 2 1 1 0 0 1 0-2M479 310a1 1 0 1 1 0 2 1 1 0 0 1 0-2M493 310a1 1 0 1 1 0 2 1 1 0 0 1 0-2M507 310a1 1 0 1 1 0 2 1 1 0 0 1 0-2M521 310a1 1 0 1 1 0 2 1 1 0 0 1 0-2M535 310a1 1 0 1 1 0 2 1 1 0 0 1 0-2M549 310a1 1 0 1 1 0 2 1 1 0 0 1 0-2M563 310a1 1 0 1 1 0 2 1 1 0 0 1 0-2M577 310a1 1 0 1 1 0 2 1 1 0 0 1 0-2M591 310a1 1 0 1 1 0 2 1 1 0 0 1 0-2M605 310a1 1 0 1 1 0 2 1 1 0 0 1 0-2M619 310a1 1 0 1 1 0 2 1 1 0 0 1 0-2M633 310a1 1 0 1 1 0 2 1 1 0 0 1 0-2M647 310a1 1 0 1 1 0 2 1 1 0 0 1 0-2M661 310a1 1 0 1 1 0 2 1 1 0 0 1 0-2M675 310a1 1 0 1 1 0 2 1 1 0 0 1 0-2M689 310a1 1 0 1 1 0 2 1 1 0 0 1 0-2M703 310a1 1 0 1 1 0 2 1 1 0 0 1 0-2M717 310a1 1 0 1 1 0 2 1 1 0 0 1 0-2M-11 296a1 1 0 1 1 0 2 1 1 0 0 1 0-2M3 296a1 1 0 1 1 0 2 1 1 0 0 1 0-2M17 296a1 1 0 1 1 0 2 1 1 0 0 1 0-2M31 296a1 1 0 1 1 0 2 1 1 0 0 1 0-2M45 296a1 1 0 1 1 0 2 1 1 0 0 1 0-2M59 296a1 1 0 1 1 0 2 1 1 0 0 1 0-2M73 296a1 1 0 1 1 0 2 1 1 0 0 1 0-2M87 296a1 1 0 1 1 0 2 1 1 0 0 1 0-2M101 296a1 1 0 1 1 0 2 1 1 0 0 1 0-2M115 296a1 1 0 1 1 0 2 1 1 0 0 1 0-2M129 296a1 1 0 1 1 0 2 1 1 0 0 1 0-2M143 296a1 1 0 1 1 0 2 1 1 0 0 1 0-2M157 296a1 1 0 1 1 0 2 1 1 0 0 1 0-2M171 296a1 1 0 1 1 0 2 1 1 0 0 1 0-2M185 296a1 1 0 1 1 0 2 1 1 0 0 1 0-2M199 296a1 1 0 1 1 0 2 1 1 0 0 1 0-2M213 296a1 1 0 1 1 0 2 1 1 0 0 1 0-2M227 296a1 1 0 1 1 0 2 1 1 0 0 1 0-2M241 296a1 1 0 1 1 0 2 1 1 0 0 1 0-2M255 296a1 1 0 1 1 0 2 1 1 0 0 1 0-2M269 296a1 1 0 1 1 0 2 1 1 0 0 1 0-2M283 296a1 1 0 1 1 0 2 1 1 0 0 1 0-2M297 296a1 1 0 1 1 0 2 1 1 0 0 1 0-2M311 296a1 1 0 1 1 0 2 1 1 0 0 1 0-2M325 296a1 1 0 1 1 0 2 1 1 0 0 1 0-2M339 296a1 1 0 1 1 0 2 1 1 0 0 1 0-2M353 296a1 1 0 1 1 0 2 1 1 0 0 1 0-2M367 296a1 1 0 1 1 0 2 1 1 0 0 1 0-2M381 296a1 1 0 1 1 0 2 1 1 0 0 1 0-2M395 296a1 1 0 1 1 0 2 1 1 0 0 1 0-2M409 296a1 1 0 1 1 0 2 1 1 0 0 1 0-2M423 296a1 1 0 1 1 0 2 1 1 0 0 1 0-2M437 296a1 1 0 1 1 0 2 1 1 0 0 1 0-2M451 296a1 1 0 1 1 0 2 1 1 0 0 1 0-2M465 296a1 1 0 1 1 0 2 1 1 0 0 1 0-2M479 296a1 1 0 1 1 0 2 1 1 0 0 1 0-2M493 296a1 1 0 1 1 0 2 1 1 0 0 1 0-2M507 296a1 1 0 1 1 0 2 1 1 0 0 1 0-2M521 296a1 1 0 1 1 0 2 1 1 0 0 1 0-2M535 296a1 1 0 1 1 0 2 1 1 0 0 1 0-2M549 296a1 1 0 1 1 0 2 1 1 0 0 1 0-2M563 296a1 1 0 1 1 0 2 1 1 0 0 1 0-2M577 296a1 1 0 1 1 0 2 1 1 0 0 1 0-2M591 296a1 1 0 1 1 0 2 1 1 0 0 1 0-2M605 296a1 1 0 1 1 0 2 1 1 0 0 1 0-2M619 296a1 1 0 1 1 0 2 1 1 0 0 1 0-2M633 296a1 1 0 1 1 0 2 1 1 0 0 1 0-2M647 296a1 1 0 1 1 0 2 1 1 0 0 1 0-2M661 296a1 1 0 1 1 0 2 1 1 0 0 1 0-2M675 296a1 1 0 1 1 0 2 1 1 0 0 1 0-2M689 296a1 1 0 1 1 0 2 1 1 0 0 1 0-2M703 296a1 1 0 1 1 0 2 1 1 0 0 1 0-2M717 296a1 1 0 1 1 0 2 1 1 0 0 1 0-2M-11 282a1 1 0 1 1 0 2 1 1 0 0 1 0-2M3 282a1 1 0 1 1 0 2 1 1 0 0 1 0-2M17 282a1 1 0 1 1 0 2 1 1 0 0 1 0-2M31 282a1 1 0 1 1 0 2 1 1 0 0 1 0-2M45 282a1 1 0 1 1 0 2 1 1 0 0 1 0-2M59 282a1 1 0 1 1 0 2 1 1 0 0 1 0-2M73 282a1 1 0 1 1 0 2 1 1 0 0 1 0-2M87 282a1 1 0 1 1 0 2 1 1 0 0 1 0-2M101 282a1 1 0 1 1 0 2 1 1 0 0 1 0-2M115 282a1 1 0 1 1 0 2 1 1 0 0 1 0-2M129 282a1 1 0 1 1 0 2 1 1 0 0 1 0-2M143 282a1 1 0 1 1 0 2 1 1 0 0 1 0-2M157 282a1 1 0 1 1 0 2 1 1 0 0 1 0-2M171 282a1 1 0 1 1 0 2 1 1 0 0 1 0-2M185 282a1 1 0 1 1 0 2 1 1 0 0 1 0-2M199 282a1 1 0 1 1 0 2 1 1 0 0 1 0-2M213 282a1 1 0 1 1 0 2 1 1 0 0 1 0-2M227 282a1 1 0 1 1 0 2 1 1 0 0 1 0-2M241 282a1 1 0 1 1 0 2 1 1 0 0 1 0-2M255 282a1 1 0 1 1 0 2 1 1 0 0 1 0-2M269 282a1 1 0 1 1 0 2 1 1 0 0 1 0-2M283 282a1 1 0 1 1 0 2 1 1 0 0 1 0-2M297 282a1 1 0 1 1 0 2 1 1 0 0 1 0-2M311 282a1 1 0 1 1 0 2 1 1 0 0 1 0-2M325 282a1 1 0 1 1 0 2 1 1 0 0 1 0-2M339 282a1 1 0 1 1 0 2 1 1 0 0 1 0-2M353 282a1 1 0 1 1 0 2 1 1 0 0 1 0-2M367 282a1 1 0 1 1 0 2 1 1 0 0 1 0-2M381 282a1 1 0 1 1 0 2 1 1 0 0 1 0-2M395 282a1 1 0 1 1 0 2 1 1 0 0 1 0-2M409 282a1 1 0 1 1 0 2 1 1 0 0 1 0-2M423 282a1 1 0 1 1 0 2 1 1 0 0 1 0-2M437 282a1 1 0 1 1 0 2 1 1 0 0 1 0-2M451 282a1 1 0 1 1 0 2 1 1 0 0 1 0-2M465 282a1 1 0 1 1 0 2 1 1 0 0 1 0-2M479 282a1 1 0 1 1 0 2 1 1 0 0 1 0-2M493 282a1 1 0 1 1 0 2 1 1 0 0 1 0-2M507 282a1 1 0 1 1 0 2 1 1 0 0 1 0-2M521 282a1 1 0 1 1 0 2 1 1 0 0 1 0-2M535 282a1 1 0 1 1 0 2 1 1 0 0 1 0-2M549 282a1 1 0 1 1 0 2 1 1 0 0 1 0-2M563 282a1 1 0 1 1 0 2 1 1 0 0 1 0-2M577 282a1 1 0 1 1 0 2 1 1 0 0 1 0-2M591 282a1 1 0 1 1 0 2 1 1 0 0 1 0-2M605 282a1 1 0 1 1 0 2 1 1 0 0 1 0-2M619 282a1 1 0 1 1 0 2 1 1 0 0 1 0-2M633 282a1 1 0 1 1 0 2 1 1 0 0 1 0-2M647 282a1 1 0 1 1 0 2 1 1 0 0 1 0-2M661 282a1 1 0 1 1 0 2 1 1 0 0 1 0-2M675 282a1 1 0 1 1 0 2 1 1 0 0 1 0-2M689 282a1 1 0 1 1 0 2 1 1 0 0 1 0-2M703 282a1 1 0 1 1 0 2 1 1 0 0 1 0-2M717 282a1 1 0 1 1 0 2 1 1 0 0 1 0-2M-11 268a1 1 0 1 1 0 2 1 1 0 0 1 0-2M3 268a1 1 0 1 1 0 2 1 1 0 0 1 0-2M17 268a1 1 0 1 1 0 2 1 1 0 0 1 0-2M31 268a1 1 0 1 1 0 2 1 1 0 0 1 0-2M45 268a1 1 0 1 1 0 2 1 1 0 0 1 0-2M59 268a1 1 0 1 1 0 2 1 1 0 0 1 0-2M73 268a1 1 0 1 1 0 2 1 1 0 0 1 0-2M87 268a1 1 0 1 1 0 2 1 1 0 0 1 0-2M101 268a1 1 0 1 1 0 2 1 1 0 0 1 0-2M115 268a1 1 0 1 1 0 2 1 1 0 0 1 0-2M129 268a1 1 0 1 1 0 2 1 1 0 0 1 0-2M143 268a1 1 0 1 1 0 2 1 1 0 0 1 0-2M157 268a1 1 0 1 1 0 2 1 1 0 0 1 0-2M171 268a1 1 0 1 1 0 2 1 1 0 0 1 0-2M185 268a1 1 0 1 1 0 2 1 1 0 0 1 0-2M199 268a1 1 0 1 1 0 2 1 1 0 0 1 0-2M213 268a1 1 0 1 1 0 2 1 1 0 0 1 0-2M227 268a1 1 0 1 1 0 2 1 1 0 0 1 0-2M241 268a1 1 0 1 1 0 2 1 1 0 0 1 0-2M255 268a1 1 0 1 1 0 2 1 1 0 0 1 0-2M269 268a1 1 0 1 1 0 2 1 1 0 0 1 0-2M283 268a1 1 0 1 1 0 2 1 1 0 0 1 0-2M297 268a1 1 0 1 1 0 2 1 1 0 0 1 0-2M311 268a1 1 0 1 1 0 2 1 1 0 0 1 0-2M325 268a1 1 0 1 1 0 2 1 1 0 0 1 0-2M339 268a1 1 0 1 1 0 2 1 1 0 0 1 0-2M353 268a1 1 0 1 1 0 2 1 1 0 0 1 0-2M367 268a1 1 0 1 1 0 2 1 1 0 0 1 0-2M381 268a1 1 0 1 1 0 2 1 1 0 0 1 0-2M395 268a1 1 0 1 1 0 2 1 1 0 0 1 0-2M409 268a1 1 0 1 1 0 2 1 1 0 0 1 0-2M423 268a1 1 0 1 1 0 2 1 1 0 0 1 0-2M437 268a1 1 0 1 1 0 2 1 1 0 0 1 0-2M451 268a1 1 0 1 1 0 2 1 1 0 0 1 0-2M465 268a1 1 0 1 1 0 2 1 1 0 0 1 0-2M479 268a1 1 0 1 1 0 2 1 1 0 0 1 0-2M493 268a1 1 0 1 1 0 2 1 1 0 0 1 0-2M507 268a1 1 0 1 1 0 2 1 1 0 0 1 0-2M521 268a1 1 0 1 1 0 2 1 1 0 0 1 0-2M535 268a1 1 0 1 1 0 2 1 1 0 0 1 0-2M549 268a1 1 0 1 1 0 2 1 1 0 0 1 0-2M563 268a1 1 0 1 1 0 2 1 1 0 0 1 0-2M577 268a1 1 0 1 1 0 2 1 1 0 0 1 0-2M591 268a1 1 0 1 1 0 2 1 1 0 0 1 0-2M605 268a1 1 0 1 1 0 2 1 1 0 0 1 0-2M619 268a1 1 0 1 1 0 2 1 1 0 0 1 0-2M633 268a1 1 0 1 1 0 2 1 1 0 0 1 0-2M647 268a1 1 0 1 1 0 2 1 1 0 0 1 0-2M661 268a1 1 0 1 1 0 2 1 1 0 0 1 0-2M675 268a1 1 0 1 1 0 2 1 1 0 0 1 0-2M689 268a1 1 0 1 1 0 2 1 1 0 0 1 0-2M703 268a1 1 0 1 1 0 2 1 1 0 0 1 0-2M717 268a1 1 0 1 1 0 2 1 1 0 0 1 0-2M-11 254a1 1 0 1 1 0 2 1 1 0 0 1 0-2M3 254a1 1 0 1 1 0 2 1 1 0 0 1 0-2M17 254a1 1 0 1 1 0 2 1 1 0 0 1 0-2M31 254a1 1 0 1 1 0 2 1 1 0 0 1 0-2M45 254a1 1 0 1 1 0 2 1 1 0 0 1 0-2M59 254a1 1 0 1 1 0 2 1 1 0 0 1 0-2M73 254a1 1 0 1 1 0 2 1 1 0 0 1 0-2M87 254a1 1 0 1 1 0 2 1 1 0 0 1 0-2M101 254a1 1 0 1 1 0 2 1 1 0 0 1 0-2M115 254a1 1 0 1 1 0 2 1 1 0 0 1 0-2M129 254a1 1 0 1 1 0 2 1 1 0 0 1 0-2M143 254a1 1 0 1 1 0 2 1 1 0 0 1 0-2M157 254a1 1 0 1 1 0 2 1 1 0 0 1 0-2M171 254a1 1 0 1 1 0 2 1 1 0 0 1 0-2M185 254a1 1 0 1 1 0 2 1 1 0 0 1 0-2M199 254a1 1 0 1 1 0 2 1 1 0 0 1 0-2M213 254a1 1 0 1 1 0 2 1 1 0 0 1 0-2M227 254a1 1 0 1 1 0 2 1 1 0 0 1 0-2M241 254a1 1 0 1 1 0 2 1 1 0 0 1 0-2M255 254a1 1 0 1 1 0 2 1 1 0 0 1 0-2M269 254a1 1 0 1 1 0 2 1 1 0 0 1 0-2M283 254a1 1 0 1 1 0 2 1 1 0 0 1 0-2M297 254a1 1 0 1 1 0 2 1 1 0 0 1 0-2M311 254a1 1 0 1 1 0 2 1 1 0 0 1 0-2M325 254a1 1 0 1 1 0 2 1 1 0 0 1 0-2M339 254a1 1 0 1 1 0 2 1 1 0 0 1 0-2M353 254a1 1 0 1 1 0 2 1 1 0 0 1 0-2M367 254a1 1 0 1 1 0 2 1 1 0 0 1 0-2M381 254a1 1 0 1 1 0 2 1 1 0 0 1 0-2M395 254a1 1 0 1 1 0 2 1 1 0 0 1 0-2M409 254a1 1 0 1 1 0 2 1 1 0 0 1 0-2M423 254a1 1 0 1 1 0 2 1 1 0 0 1 0-2M437 254a1 1 0 1 1 0 2 1 1 0 0 1 0-2M451 254a1 1 0 1 1 0 2 1 1 0 0 1 0-2M465 254a1 1 0 1 1 0 2 1 1 0 0 1 0-2M479 254a1 1 0 1 1 0 2 1 1 0 0 1 0-2M493 254a1 1 0 1 1 0 2 1 1 0 0 1 0-2M507 254a1 1 0 1 1 0 2 1 1 0 0 1 0-2M521 254a1 1 0 1 1 0 2 1 1 0 0 1 0-2M535 254a1 1 0 1 1 0 2 1 1 0 0 1 0-2M549 254a1 1 0 1 1 0 2 1 1 0 0 1 0-2M563 254a1 1 0 1 1 0 2 1 1 0 0 1 0-2M577 254a1 1 0 1 1 0 2 1 1 0 0 1 0-2M591 254a1 1 0 1 1 0 2 1 1 0 0 1 0-2M605 254a1 1 0 1 1 0 2 1 1 0 0 1 0-2M619 254a1 1 0 1 1 0 2 1 1 0 0 1 0-2M633 254a1 1 0 1 1 0 2 1 1 0 0 1 0-2M647 254a1 1 0 1 1 0 2 1 1 0 0 1 0-2M661 254a1 1 0 1 1 0 2 1 1 0 0 1 0-2M675 254a1 1 0 1 1 0 2 1 1 0 0 1 0-2M689 254a1 1 0 1 1 0 2 1 1 0 0 1 0-2M703 254a1 1 0 1 1 0 2 1 1 0 0 1 0-2M717 254a1 1 0 1 1 0 2 1 1 0 0 1 0-2M-11 240a1 1 0 1 1 0 2 1 1 0 0 1 0-2M3 240a1 1 0 1 1 0 2 1 1 0 0 1 0-2M17 240a1 1 0 1 1 0 2 1 1 0 0 1 0-2M31 240a1 1 0 1 1 0 2 1 1 0 0 1 0-2M45 240a1 1 0 1 1 0 2 1 1 0 0 1 0-2M59 240a1 1 0 1 1 0 2 1 1 0 0 1 0-2M73 240a1 1 0 1 1 0 2 1 1 0 0 1 0-2M87 240a1 1 0 1 1 0 2 1 1 0 0 1 0-2M101 240a1 1 0 1 1 0 2 1 1 0 0 1 0-2M115 240a1 1 0 1 1 0 2 1 1 0 0 1 0-2M129 240a1 1 0 1 1 0 2 1 1 0 0 1 0-2M143 240a1 1 0 1 1 0 2 1 1 0 0 1 0-2M157 240a1 1 0 1 1 0 2 1 1 0 0 1 0-2M171 240a1 1 0 1 1 0 2 1 1 0 0 1 0-2M185 240a1 1 0 1 1 0 2 1 1 0 0 1 0-2M199 240a1 1 0 1 1 0 2 1 1 0 0 1 0-2M213 240a1 1 0 1 1 0 2 1 1 0 0 1 0-2M227 240a1 1 0 1 1 0 2 1 1 0 0 1 0-2M241 240a1 1 0 1 1 0 2 1 1 0 0 1 0-2M255 240a1 1 0 1 1 0 2 1 1 0 0 1 0-2M269 240a1 1 0 1 1 0 2 1 1 0 0 1 0-2M283 240a1 1 0 1 1 0 2 1 1 0 0 1 0-2M297 240a1 1 0 1 1 0 2 1 1 0 0 1 0-2M311 240a1 1 0 1 1 0 2 1 1 0 0 1 0-2M325 240a1 1 0 1 1 0 2 1 1 0 0 1 0-2M339 240a1 1 0 1 1 0 2 1 1 0 0 1 0-2M353 240a1 1 0 1 1 0 2 1 1 0 0 1 0-2M367 240a1 1 0 1 1 0 2 1 1 0 0 1 0-2M381 240a1 1 0 1 1 0 2 1 1 0 0 1 0-2M395 240a1 1 0 1 1 0 2 1 1 0 0 1 0-2M409 240a1 1 0 1 1 0 2 1 1 0 0 1 0-2M423 240a1 1 0 1 1 0 2 1 1 0 0 1 0-2M437 240a1 1 0 1 1 0 2 1 1 0 0 1 0-2M451 240a1 1 0 1 1 0 2 1 1 0 0 1 0-2M465 240a1 1 0 1 1 0 2 1 1 0 0 1 0-2M479 240a1 1 0 1 1 0 2 1 1 0 0 1 0-2M493 240a1 1 0 1 1 0 2 1 1 0 0 1 0-2M507 240a1 1 0 1 1 0 2 1 1 0 0 1 0-2M521 240a1 1 0 1 1 0 2 1 1 0 0 1 0-2M535 240a1 1 0 1 1 0 2 1 1 0 0 1 0-2M549 240a1 1 0 1 1 0 2 1 1 0 0 1 0-2M563 240a1 1 0 1 1 0 2 1 1 0 0 1 0-2M577 240a1 1 0 1 1 0 2 1 1 0 0 1 0-2M591 240a1 1 0 1 1 0 2 1 1 0 0 1 0-2M605 240a1 1 0 1 1 0 2 1 1 0 0 1 0-2M619 240a1 1 0 1 1 0 2 1 1 0 0 1 0-2M633 240a1 1 0 1 1 0 2 1 1 0 0 1 0-2M647 240a1 1 0 1 1 0 2 1 1 0 0 1 0-2M661 240a1 1 0 1 1 0 2 1 1 0 0 1 0-2M675 240a1 1 0 1 1 0 2 1 1 0 0 1 0-2M689 240a1 1 0 1 1 0 2 1 1 0 0 1 0-2M703 240a1 1 0 1 1 0 2 1 1 0 0 1 0-2M717 240a1 1 0 1 1 0 2 1 1 0 0 1 0-2M-11 226a1 1 0 1 1 0 2 1 1 0 0 1 0-2M3 226a1 1 0 1 1 0 2 1 1 0 0 1 0-2M17 226a1 1 0 1 1 0 2 1 1 0 0 1 0-2M31 226a1 1 0 1 1 0 2 1 1 0 0 1 0-2M45 226a1 1 0 1 1 0 2 1 1 0 0 1 0-2M59 226a1 1 0 1 1 0 2 1 1 0 0 1 0-2M73 226a1 1 0 1 1 0 2 1 1 0 0 1 0-2M87 226a1 1 0 1 1 0 2 1 1 0 0 1 0-2M101 226a1 1 0 1 1 0 2 1 1 0 0 1 0-2M115 226a1 1 0 1 1 0 2 1 1 0 0 1 0-2M129 226a1 1 0 1 1 0 2 1 1 0 0 1 0-2M143 226a1 1 0 1 1 0 2 1 1 0 0 1 0-2M157 226a1 1 0 1 1 0 2 1 1 0 0 1 0-2M171 226a1 1 0 1 1 0 2 1 1 0 0 1 0-2M185 226a1 1 0 1 1 0 2 1 1 0 0 1 0-2M199 226a1 1 0 1 1 0 2 1 1 0 0 1 0-2M213 226a1 1 0 1 1 0 2 1 1 0 0 1 0-2M227 226a1 1 0 1 1 0 2 1 1 0 0 1 0-2M241 226a1 1 0 1 1 0 2 1 1 0 0 1 0-2M255 226a1 1 0 1 1 0 2 1 1 0 0 1 0-2M269 226a1 1 0 1 1 0 2 1 1 0 0 1 0-2M283 226a1 1 0 1 1 0 2 1 1 0 0 1 0-2M297 226a1 1 0 1 1 0 2 1 1 0 0 1 0-2M311 226a1 1 0 1 1 0 2 1 1 0 0 1 0-2M325 226a1 1 0 1 1 0 2 1 1 0 0 1 0-2M339 226a1 1 0 1 1 0 2 1 1 0 0 1 0-2M353 226a1 1 0 1 1 0 2 1 1 0 0 1 0-2M367 226a1 1 0 1 1 0 2 1 1 0 0 1 0-2M381 226a1 1 0 1 1 0 2 1 1 0 0 1 0-2M395 226a1 1 0 1 1 0 2 1 1 0 0 1 0-2M409 226a1 1 0 1 1 0 2 1 1 0 0 1 0-2M423 226a1 1 0 1 1 0 2 1 1 0 0 1 0-2M437 226a1 1 0 1 1 0 2 1 1 0 0 1 0-2M451 226a1 1 0 1 1 0 2 1 1 0 0 1 0-2M465 226a1 1 0 1 1 0 2 1 1 0 0 1 0-2M479 226a1 1 0 1 1 0 2 1 1 0 0 1 0-2M493 226a1 1 0 1 1 0 2 1 1 0 0 1 0-2M507 226a1 1 0 1 1 0 2 1 1 0 0 1 0-2M521 226a1 1 0 1 1 0 2 1 1 0 0 1 0-2M535 226a1 1 0 1 1 0 2 1 1 0 0 1 0-2M549 226a1 1 0 1 1 0 2 1 1 0 0 1 0-2M563 226a1 1 0 1 1 0 2 1 1 0 0 1 0-2M577 226a1 1 0 1 1 0 2 1 1 0 0 1 0-2M591 226a1 1 0 1 1 0 2 1 1 0 0 1 0-2M605 226a1 1 0 1 1 0 2 1 1 0 0 1 0-2M619 226a1 1 0 1 1 0 2 1 1 0 0 1 0-2M633 226a1 1 0 1 1 0 2 1 1 0 0 1 0-2M647 226a1 1 0 1 1 0 2 1 1 0 0 1 0-2M661 226a1 1 0 1 1 0 2 1 1 0 0 1 0-2M675 226a1 1 0 1 1 0 2 1 1 0 0 1 0-2M689 226a1 1 0 1 1 0 2 1 1 0 0 1 0-2M703 226a1 1 0 1 1 0 2 1 1 0 0 1 0-2M717 226a1 1 0 1 1 0 2 1 1 0 0 1 0-2M-11 212a1 1 0 1 1 0 2 1 1 0 0 1 0-2M3 212a1 1 0 1 1 0 2 1 1 0 0 1 0-2M17 212a1 1 0 1 1 0 2 1 1 0 0 1 0-2M31 212a1 1 0 1 1 0 2 1 1 0 0 1 0-2M45 212a1 1 0 1 1 0 2 1 1 0 0 1 0-2M59 212a1 1 0 1 1 0 2 1 1 0 0 1 0-2M73 212a1 1 0 1 1 0 2 1 1 0 0 1 0-2M87 212a1 1 0 1 1 0 2 1 1 0 0 1 0-2M101 212a1 1 0 1 1 0 2 1 1 0 0 1 0-2M115 212a1 1 0 1 1 0 2 1 1 0 0 1 0-2M129 212a1 1 0 1 1 0 2 1 1 0 0 1 0-2M143 212a1 1 0 1 1 0 2 1 1 0 0 1 0-2M157 212a1 1 0 1 1 0 2 1 1 0 0 1 0-2M171 212a1 1 0 1 1 0 2 1 1 0 0 1 0-2M185 212a1 1 0 1 1 0 2 1 1 0 0 1 0-2M199 212a1 1 0 1 1 0 2 1 1 0 0 1 0-2M213 212a1 1 0 1 1 0 2 1 1 0 0 1 0-2M227 212a1 1 0 1 1 0 2 1 1 0 0 1 0-2M241 212a1 1 0 1 1 0 2 1 1 0 0 1 0-2M255 212a1 1 0 1 1 0 2 1 1 0 0 1 0-2M269 212a1 1 0 1 1 0 2 1 1 0 0 1 0-2M283 212a1 1 0 1 1 0 2 1 1 0 0 1 0-2M297 212a1 1 0 1 1 0 2 1 1 0 0 1 0-2M311 212a1 1 0 1 1 0 2 1 1 0 0 1 0-2M325 212a1 1 0 1 1 0 2 1 1 0 0 1 0-2M339 212a1 1 0 1 1 0 2 1 1 0 0 1 0-2M353 212a1 1 0 1 1 0 2 1 1 0 0 1 0-2M367 212a1 1 0 1 1 0 2 1 1 0 0 1 0-2M381 212a1 1 0 1 1 0 2 1 1 0 0 1 0-2M395 212a1 1 0 1 1 0 2 1 1 0 0 1 0-2M409 212a1 1 0 1 1 0 2 1 1 0 0 1 0-2M423 212a1 1 0 1 1 0 2 1 1 0 0 1 0-2M437 212a1 1 0 1 1 0 2 1 1 0 0 1 0-2M451 212a1 1 0 1 1 0 2 1 1 0 0 1 0-2M465 212a1 1 0 1 1 0 2 1 1 0 0 1 0-2M479 212a1 1 0 1 1 0 2 1 1 0 0 1 0-2M493 212a1 1 0 1 1 0 2 1 1 0 0 1 0-2M507 212a1 1 0 1 1 0 2 1 1 0 0 1 0-2M521 212a1 1 0 1 1 0 2 1 1 0 0 1 0-2M535 212a1 1 0 1 1 0 2 1 1 0 0 1 0-2M549 212a1 1 0 1 1 0 2 1 1 0 0 1 0-2M563 212a1 1 0 1 1 0 2 1 1 0 0 1 0-2M577 212a1 1 0 1 1 0 2 1 1 0 0 1 0-2M591 212a1 1 0 1 1 0 2 1 1 0 0 1 0-2M605 212a1 1 0 1 1 0 2 1 1 0 0 1 0-2M619 212a1 1 0 1 1 0 2 1 1 0 0 1 0-2M633 212a1 1 0 1 1 0 2 1 1 0 0 1 0-2M647 212a1 1 0 1 1 0 2 1 1 0 0 1 0-2M661 212a1 1 0 1 1 0 2 1 1 0 0 1 0-2M675 212a1 1 0 1 1 0 2 1 1 0 0 1 0-2M689 212a1 1 0 1 1 0 2 1 1 0 0 1 0-2M703 212a1 1 0 1 1 0 2 1 1 0 0 1 0-2M717 212a1 1 0 1 1 0 2 1 1 0 0 1 0-2M-11 198a1 1 0 1 1 0 2 1 1 0 0 1 0-2M3 198a1 1 0 1 1 0 2 1 1 0 0 1 0-2M17 198a1 1 0 1 1 0 2 1 1 0 0 1 0-2M31 198a1 1 0 1 1 0 2 1 1 0 0 1 0-2M45 198a1 1 0 1 1 0 2 1 1 0 0 1 0-2M59 198a1 1 0 1 1 0 2 1 1 0 0 1 0-2M73 198a1 1 0 1 1 0 2 1 1 0 0 1 0-2M87 198a1 1 0 1 1 0 2 1 1 0 0 1 0-2M101 198a1 1 0 1 1 0 2 1 1 0 0 1 0-2M115 198a1 1 0 1 1 0 2 1 1 0 0 1 0-2M129 198a1 1 0 1 1 0 2 1 1 0 0 1 0-2M143 198a1 1 0 1 1 0 2 1 1 0 0 1 0-2M157 198a1 1 0 1 1 0 2 1 1 0 0 1 0-2M171 198a1 1 0 1 1 0 2 1 1 0 0 1 0-2M185 198a1 1 0 1 1 0 2 1 1 0 0 1 0-2M199 198a1 1 0 1 1 0 2 1 1 0 0 1 0-2M213 198a1 1 0 1 1 0 2 1 1 0 0 1 0-2M227 198a1 1 0 1 1 0 2 1 1 0 0 1 0-2M241 198a1 1 0 1 1 0 2 1 1 0 0 1 0-2M255 198a1 1 0 1 1 0 2 1 1 0 0 1 0-2M269 198a1 1 0 1 1 0 2 1 1 0 0 1 0-2M283 198a1 1 0 1 1 0 2 1 1 0 0 1 0-2M297 198a1 1 0 1 1 0 2 1 1 0 0 1 0-2M311 198a1 1 0 1 1 0 2 1 1 0 0 1 0-2M325 198a1 1 0 1 1 0 2 1 1 0 0 1 0-2M339 198a1 1 0 1 1 0 2 1 1 0 0 1 0-2M353 198a1 1 0 1 1 0 2 1 1 0 0 1 0-2M367 198a1 1 0 1 1 0 2 1 1 0 0 1 0-2M381 198a1 1 0 1 1 0 2 1 1 0 0 1 0-2M395 198a1 1 0 1 1 0 2 1 1 0 0 1 0-2M409 198a1 1 0 1 1 0 2 1 1 0 0 1 0-2M423 198a1 1 0 1 1 0 2 1 1 0 0 1 0-2M437 198a1 1 0 1 1 0 2 1 1 0 0 1 0-2M451 198a1 1 0 1 1 0 2 1 1 0 0 1 0-2M465 198a1 1 0 1 1 0 2 1 1 0 0 1 0-2M479 198a1 1 0 1 1 0 2 1 1 0 0 1 0-2M493 198a1 1 0 1 1 0 2 1 1 0 0 1 0-2M507 198a1 1 0 1 1 0 2 1 1 0 0 1 0-2M521 198a1 1 0 1 1 0 2 1 1 0 0 1 0-2M535 198a1 1 0 1 1 0 2 1 1 0 0 1 0-2M549 198a1 1 0 1 1 0 2 1 1 0 0 1 0-2M563 198a1 1 0 1 1 0 2 1 1 0 0 1 0-2M577 198a1 1 0 1 1 0 2 1 1 0 0 1 0-2M591 198a1 1 0 1 1 0 2 1 1 0 0 1 0-2M605 198a1 1 0 1 1 0 2 1 1 0 0 1 0-2M619 198a1 1 0 1 1 0 2 1 1 0 0 1 0-2M633 198a1 1 0 1 1 0 2 1 1 0 0 1 0-2M647 198a1 1 0 1 1 0 2 1 1 0 0 1 0-2M661 198a1 1 0 1 1 0 2 1 1 0 0 1 0-2M675 198a1 1 0 1 1 0 2 1 1 0 0 1 0-2M689 198a1 1 0 1 1 0 2 1 1 0 0 1 0-2M703 198a1 1 0 1 1 0 2 1 1 0 0 1 0-2M717 198a1 1 0 1 1 0 2 1 1 0 0 1 0-2M-11 184a1 1 0 1 1 0 2 1 1 0 0 1 0-2M3 184a1 1 0 1 1 0 2 1 1 0 0 1 0-2M17 184a1 1 0 1 1 0 2 1 1 0 0 1 0-2M31 184a1 1 0 1 1 0 2 1 1 0 0 1 0-2M45 184a1 1 0 1 1 0 2 1 1 0 0 1 0-2M59 184a1 1 0 1 1 0 2 1 1 0 0 1 0-2M73 184a1 1 0 1 1 0 2 1 1 0 0 1 0-2M87 184a1 1 0 1 1 0 2 1 1 0 0 1 0-2M101 184a1 1 0 1 1 0 2 1 1 0 0 1 0-2M115 184a1 1 0 1 1 0 2 1 1 0 0 1 0-2M129 184a1 1 0 1 1 0 2 1 1 0 0 1 0-2M143 184a1 1 0 1 1 0 2 1 1 0 0 1 0-2M157 184a1 1 0 1 1 0 2 1 1 0 0 1 0-2M171 184a1 1 0 1 1 0 2 1 1 0 0 1 0-2M185 184a1 1 0 1 1 0 2 1 1 0 0 1 0-2M199 184a1 1 0 1 1 0 2 1 1 0 0 1 0-2M213 184a1 1 0 1 1 0 2 1 1 0 0 1 0-2M227 184a1 1 0 1 1 0 2 1 1 0 0 1 0-2M241 184a1 1 0 1 1 0 2 1 1 0 0 1 0-2M255 184a1 1 0 1 1 0 2 1 1 0 0 1 0-2M269 184a1 1 0 1 1 0 2 1 1 0 0 1 0-2M283 184a1 1 0 1 1 0 2 1 1 0 0 1 0-2M297 184a1 1 0 1 1 0 2 1 1 0 0 1 0-2M311 184a1 1 0 1 1 0 2 1 1 0 0 1 0-2M325 184a1 1 0 1 1 0 2 1 1 0 0 1 0-2M339 184a1 1 0 1 1 0 2 1 1 0 0 1 0-2M353 184a1 1 0 1 1 0 2 1 1 0 0 1 0-2M367 184a1 1 0 1 1 0 2 1 1 0 0 1 0-2M381 184a1 1 0 1 1 0 2 1 1 0 0 1 0-2M395 184a1 1 0 1 1 0 2 1 1 0 0 1 0-2M409 184a1 1 0 1 1 0 2 1 1 0 0 1 0-2M423 184a1 1 0 1 1 0 2 1 1 0 0 1 0-2M437 184a1 1 0 1 1 0 2 1 1 0 0 1 0-2M451 184a1 1 0 1 1 0 2 1 1 0 0 1 0-2M465 184a1 1 0 1 1 0 2 1 1 0 0 1 0-2M479 184a1 1 0 1 1 0 2 1 1 0 0 1 0-2M493 184a1 1 0 1 1 0 2 1 1 0 0 1 0-2M507 184a1 1 0 1 1 0 2 1 1 0 0 1 0-2M521 184a1 1 0 1 1 0 2 1 1 0 0 1 0-2M535 184a1 1 0 1 1 0 2 1 1 0 0 1 0-2M549 184a1 1 0 1 1 0 2 1 1 0 0 1 0-2M563 184a1 1 0 1 1 0 2 1 1 0 0 1 0-2M577 184a1 1 0 1 1 0 2 1 1 0 0 1 0-2M591 184a1 1 0 1 1 0 2 1 1 0 0 1 0-2M605 184a1 1 0 1 1 0 2 1 1 0 0 1 0-2M619 184a1 1 0 1 1 0 2 1 1 0 0 1 0-2M633 184a1 1 0 1 1 0 2 1 1 0 0 1 0-2M647 184a1 1 0 1 1 0 2 1 1 0 0 1 0-2M661 184a1 1 0 1 1 0 2 1 1 0 0 1 0-2M675 184a1 1 0 1 1 0 2 1 1 0 0 1 0-2M689 184a1 1 0 1 1 0 2 1 1 0 0 1 0-2M703 184a1 1 0 1 1 0 2 1 1 0 0 1 0-2M717 184a1 1 0 1 1 0 2 1 1 0 0 1 0-2M-11 170a1 1 0 1 1 0 2 1 1 0 0 1 0-2M3 170a1 1 0 1 1 0 2 1 1 0 0 1 0-2M17 170a1 1 0 1 1 0 2 1 1 0 0 1 0-2M31 170a1 1 0 1 1 0 2 1 1 0 0 1 0-2M45 170a1 1 0 1 1 0 2 1 1 0 0 1 0-2M59 170a1 1 0 1 1 0 2 1 1 0 0 1 0-2M73 170a1 1 0 1 1 0 2 1 1 0 0 1 0-2M87 170a1 1 0 1 1 0 2 1 1 0 0 1 0-2M101 170a1 1 0 1 1 0 2 1 1 0 0 1 0-2M115 170a1 1 0 1 1 0 2 1 1 0 0 1 0-2M129 170a1 1 0 1 1 0 2 1 1 0 0 1 0-2M143 170a1 1 0 1 1 0 2 1 1 0 0 1 0-2M157 170a1 1 0 1 1 0 2 1 1 0 0 1 0-2M171 170a1 1 0 1 1 0 2 1 1 0 0 1 0-2M185 170a1 1 0 1 1 0 2 1 1 0 0 1 0-2M199 170a1 1 0 1 1 0 2 1 1 0 0 1 0-2M213 170a1 1 0 1 1 0 2 1 1 0 0 1 0-2M227 170a1 1 0 1 1 0 2 1 1 0 0 1 0-2M241 170a1 1 0 1 1 0 2 1 1 0 0 1 0-2M255 170a1 1 0 1 1 0 2 1 1 0 0 1 0-2M269 170a1 1 0 1 1 0 2 1 1 0 0 1 0-2M283 170a1 1 0 1 1 0 2 1 1 0 0 1 0-2M297 170a1 1 0 1 1 0 2 1 1 0 0 1 0-2M311 170a1 1 0 1 1 0 2 1 1 0 0 1 0-2M325 170a1 1 0 1 1 0 2 1 1 0 0 1 0-2M339 170a1 1 0 1 1 0 2 1 1 0 0 1 0-2M353 170a1 1 0 1 1 0 2 1 1 0 0 1 0-2M367 170a1 1 0 1 1 0 2 1 1 0 0 1 0-2M381 170a1 1 0 1 1 0 2 1 1 0 0 1 0-2M395 170a1 1 0 1 1 0 2 1 1 0 0 1 0-2M409 170a1 1 0 1 1 0 2 1 1 0 0 1 0-2M423 170a1 1 0 1 1 0 2 1 1 0 0 1 0-2M437 170a1 1 0 1 1 0 2 1 1 0 0 1 0-2M451 170a1 1 0 1 1 0 2 1 1 0 0 1 0-2M465 170a1 1 0 1 1 0 2 1 1 0 0 1 0-2M479 170a1 1 0 1 1 0 2 1 1 0 0 1 0-2M493 170a1 1 0 1 1 0 2 1 1 0 0 1 0-2M507 170a1 1 0 1 1 0 2 1 1 0 0 1 0-2M521 170a1 1 0 1 1 0 2 1 1 0 0 1 0-2M535 170a1 1 0 1 1 0 2 1 1 0 0 1 0-2M549 170a1 1 0 1 1 0 2 1 1 0 0 1 0-2M563 170a1 1 0 1 1 0 2 1 1 0 0 1 0-2M577 170a1 1 0 1 1 0 2 1 1 0 0 1 0-2M591 170a1 1 0 1 1 0 2 1 1 0 0 1 0-2M605 170a1 1 0 1 1 0 2 1 1 0 0 1 0-2M619 170a1 1 0 1 1 0 2 1 1 0 0 1 0-2M633 170a1 1 0 1 1 0 2 1 1 0 0 1 0-2M647 170a1 1 0 1 1 0 2 1 1 0 0 1 0-2M661 170a1 1 0 1 1 0 2 1 1 0 0 1 0-2M675 170a1 1 0 1 1 0 2 1 1 0 0 1 0-2M689 170a1 1 0 1 1 0 2 1 1 0 0 1 0-2M703 170a1 1 0 1 1 0 2 1 1 0 0 1 0-2M717 170a1 1 0 1 1 0 2 1 1 0 0 1 0-2M-11 156a1 1 0 1 1 0 2 1 1 0 0 1 0-2M3 156a1 1 0 1 1 0 2 1 1 0 0 1 0-2M17 156a1 1 0 1 1 0 2 1 1 0 0 1 0-2M31 156a1 1 0 1 1 0 2 1 1 0 0 1 0-2M45 156a1 1 0 1 1 0 2 1 1 0 0 1 0-2M59 156a1 1 0 1 1 0 2 1 1 0 0 1 0-2M73 156a1 1 0 1 1 0 2 1 1 0 0 1 0-2M87 156a1 1 0 1 1 0 2 1 1 0 0 1 0-2M101 156a1 1 0 1 1 0 2 1 1 0 0 1 0-2M115 156a1 1 0 1 1 0 2 1 1 0 0 1 0-2M129 156a1 1 0 1 1 0 2 1 1 0 0 1 0-2M143 156a1 1 0 1 1 0 2 1 1 0 0 1 0-2M157 156a1 1 0 1 1 0 2 1 1 0 0 1 0-2M171 156a1 1 0 1 1 0 2 1 1 0 0 1 0-2M185 156a1 1 0 1 1 0 2 1 1 0 0 1 0-2M199 156a1 1 0 1 1 0 2 1 1 0 0 1 0-2M213 156a1 1 0 1 1 0 2 1 1 0 0 1 0-2M227 156a1 1 0 1 1 0 2 1 1 0 0 1 0-2M241 156a1 1 0 1 1 0 2 1 1 0 0 1 0-2M255 156a1 1 0 1 1 0 2 1 1 0 0 1 0-2M269 156a1 1 0 1 1 0 2 1 1 0 0 1 0-2M283 156a1 1 0 1 1 0 2 1 1 0 0 1 0-2M297 156a1 1 0 1 1 0 2 1 1 0 0 1 0-2M311 156a1 1 0 1 1 0 2 1 1 0 0 1 0-2M325 156a1 1 0 1 1 0 2 1 1 0 0 1 0-2M339 156a1 1 0 1 1 0 2 1 1 0 0 1 0-2M353 156a1 1 0 1 1 0 2 1 1 0 0 1 0-2M367 156a1 1 0 1 1 0 2 1 1 0 0 1 0-2M381 156a1 1 0 1 1 0 2 1 1 0 0 1 0-2M395 156a1 1 0 1 1 0 2 1 1 0 0 1 0-2M409 156a1 1 0 1 1 0 2 1 1 0 0 1 0-2M423 156a1 1 0 1 1 0 2 1 1 0 0 1 0-2M437 156a1 1 0 1 1 0 2 1 1 0 0 1 0-2M451 156a1 1 0 1 1 0 2 1 1 0 0 1 0-2M465 156a1 1 0 1 1 0 2 1 1 0 0 1 0-2M479 156a1 1 0 1 1 0 2 1 1 0 0 1 0-2M493 156a1 1 0 1 1 0 2 1 1 0 0 1 0-2M507 156a1 1 0 1 1 0 2 1 1 0 0 1 0-2M521 156a1 1 0 1 1 0 2 1 1 0 0 1 0-2M535 156a1 1 0 1 1 0 2 1 1 0 0 1 0-2M549 156a1 1 0 1 1 0 2 1 1 0 0 1 0-2M563 156a1 1 0 1 1 0 2 1 1 0 0 1 0-2M577 156a1 1 0 1 1 0 2 1 1 0 0 1 0-2M591 156a1 1 0 1 1 0 2 1 1 0 0 1 0-2M605 156a1 1 0 1 1 0 2 1 1 0 0 1 0-2M619 156a1 1 0 1 1 0 2 1 1 0 0 1 0-2M633 156a1 1 0 1 1 0 2 1 1 0 0 1 0-2M647 156a1 1 0 1 1 0 2 1 1 0 0 1 0-2M661 156a1 1 0 1 1 0 2 1 1 0 0 1 0-2M675 156a1 1 0 1 1 0 2 1 1 0 0 1 0-2M689 156a1 1 0 1 1 0 2 1 1 0 0 1 0-2M703 156a1 1 0 1 1 0 2 1 1 0 0 1 0-2M717 156a1 1 0 1 1 0 2 1 1 0 0 1 0-2M-11 142a1 1 0 1 1 0 2 1 1 0 0 1 0-2M3 142a1 1 0 1 1 0 2 1 1 0 0 1 0-2M17 142a1 1 0 1 1 0 2 1 1 0 0 1 0-2M31 142a1 1 0 1 1 0 2 1 1 0 0 1 0-2M45 142a1 1 0 1 1 0 2 1 1 0 0 1 0-2M59 142a1 1 0 1 1 0 2 1 1 0 0 1 0-2M73 142a1 1 0 1 1 0 2 1 1 0 0 1 0-2M87 142a1 1 0 1 1 0 2 1 1 0 0 1 0-2M101 142a1 1 0 1 1 0 2 1 1 0 0 1 0-2M115 142a1 1 0 1 1 0 2 1 1 0 0 1 0-2M129 142a1 1 0 1 1 0 2 1 1 0 0 1 0-2M143 142a1 1 0 1 1 0 2 1 1 0 0 1 0-2M157 142a1 1 0 1 1 0 2 1 1 0 0 1 0-2M171 142a1 1 0 1 1 0 2 1 1 0 0 1 0-2M185 142a1 1 0 1 1 0 2 1 1 0 0 1 0-2M199 142a1 1 0 1 1 0 2 1 1 0 0 1 0-2M213 142a1 1 0 1 1 0 2 1 1 0 0 1 0-2M227 142a1 1 0 1 1 0 2 1 1 0 0 1 0-2M241 142a1 1 0 1 1 0 2 1 1 0 0 1 0-2M255 142a1 1 0 1 1 0 2 1 1 0 0 1 0-2M269 142a1 1 0 1 1 0 2 1 1 0 0 1 0-2M283 142a1 1 0 1 1 0 2 1 1 0 0 1 0-2M297 142a1 1 0 1 1 0 2 1 1 0 0 1 0-2M311 142a1 1 0 1 1 0 2 1 1 0 0 1 0-2M325 142a1 1 0 1 1 0 2 1 1 0 0 1 0-2M339 142a1 1 0 1 1 0 2 1 1 0 0 1 0-2M353 142a1 1 0 1 1 0 2 1 1 0 0 1 0-2M367 142a1 1 0 1 1 0 2 1 1 0 0 1 0-2M381 142a1 1 0 1 1 0 2 1 1 0 0 1 0-2M395 142a1 1 0 1 1 0 2 1 1 0 0 1 0-2M409 142a1 1 0 1 1 0 2 1 1 0 0 1 0-2M423 142a1 1 0 1 1 0 2 1 1 0 0 1 0-2M437 142a1 1 0 1 1 0 2 1 1 0 0 1 0-2M451 142a1 1 0 1 1 0 2 1 1 0 0 1 0-2M465 142a1 1 0 1 1 0 2 1 1 0 0 1 0-2M479 142a1 1 0 1 1 0 2 1 1 0 0 1 0-2M493 142a1 1 0 1 1 0 2 1 1 0 0 1 0-2M507 142a1 1 0 1 1 0 2 1 1 0 0 1 0-2M521 142a1 1 0 1 1 0 2 1 1 0 0 1 0-2M535 142a1 1 0 1 1 0 2 1 1 0 0 1 0-2M549 142a1 1 0 1 1 0 2 1 1 0 0 1 0-2M563 142a1 1 0 1 1 0 2 1 1 0 0 1 0-2M577 142a1 1 0 1 1 0 2 1 1 0 0 1 0-2M591 142a1 1 0 1 1 0 2 1 1 0 0 1 0-2M605 142a1 1 0 1 1 0 2 1 1 0 0 1 0-2M619 142a1 1 0 1 1 0 2 1 1 0 0 1 0-2M633 142a1 1 0 1 1 0 2 1 1 0 0 1 0-2M647 142a1 1 0 1 1 0 2 1 1 0 0 1 0-2M661 142a1 1 0 1 1 0 2 1 1 0 0 1 0-2M675 142a1 1 0 1 1 0 2 1 1 0 0 1 0-2M689 142a1 1 0 1 1 0 2 1 1 0 0 1 0-2M703 142a1 1 0 1 1 0 2 1 1 0 0 1 0-2M717 142a1 1 0 1 1 0 2 1 1 0 0 1 0-2M-11 128a1 1 0 1 1 0 2 1 1 0 0 1 0-2M3 128a1 1 0 1 1 0 2 1 1 0 0 1 0-2M17 128a1 1 0 1 1 0 2 1 1 0 0 1 0-2M31 128a1 1 0 1 1 0 2 1 1 0 0 1 0-2M45 128a1 1 0 1 1 0 2 1 1 0 0 1 0-2M59 128a1 1 0 1 1 0 2 1 1 0 0 1 0-2M73 128a1 1 0 1 1 0 2 1 1 0 0 1 0-2M87 128a1 1 0 1 1 0 2 1 1 0 0 1 0-2M101 128a1 1 0 1 1 0 2 1 1 0 0 1 0-2M115 128a1 1 0 1 1 0 2 1 1 0 0 1 0-2M129 128a1 1 0 1 1 0 2 1 1 0 0 1 0-2M143 128a1 1 0 1 1 0 2 1 1 0 0 1 0-2M157 128a1 1 0 1 1 0 2 1 1 0 0 1 0-2M171 128a1 1 0 1 1 0 2 1 1 0 0 1 0-2M185 128a1 1 0 1 1 0 2 1 1 0 0 1 0-2M199 128a1 1 0 1 1 0 2 1 1 0 0 1 0-2M213 128a1 1 0 1 1 0 2 1 1 0 0 1 0-2M227 128a1 1 0 1 1 0 2 1 1 0 0 1 0-2M241 128a1 1 0 1 1 0 2 1 1 0 0 1 0-2M255 128a1 1 0 1 1 0 2 1 1 0 0 1 0-2M269 128a1 1 0 1 1 0 2 1 1 0 0 1 0-2M283 128a1 1 0 1 1 0 2 1 1 0 0 1 0-2M297 128a1 1 0 1 1 0 2 1 1 0 0 1 0-2M311 128a1 1 0 1 1 0 2 1 1 0 0 1 0-2M325 128a1 1 0 1 1 0 2 1 1 0 0 1 0-2M339 128a1 1 0 1 1 0 2 1 1 0 0 1 0-2M353 128a1 1 0 1 1 0 2 1 1 0 0 1 0-2M367 128a1 1 0 1 1 0 2 1 1 0 0 1 0-2M381 128a1 1 0 1 1 0 2 1 1 0 0 1 0-2M395 128a1 1 0 1 1 0 2 1 1 0 0 1 0-2M409 128a1 1 0 1 1 0 2 1 1 0 0 1 0-2M423 128a1 1 0 1 1 0 2 1 1 0 0 1 0-2M437 128a1 1 0 1 1 0 2 1 1 0 0 1 0-2M451 128a1 1 0 1 1 0 2 1 1 0 0 1 0-2M465 128a1 1 0 1 1 0 2 1 1 0 0 1 0-2M479 128a1 1 0 1 1 0 2 1 1 0 0 1 0-2M493 128a1 1 0 1 1 0 2 1 1 0 0 1 0-2M507 128a1 1 0 1 1 0 2 1 1 0 0 1 0-2M521 128a1 1 0 1 1 0 2 1 1 0 0 1 0-2M535 128a1 1 0 1 1 0 2 1 1 0 0 1 0-2M549 128a1 1 0 1 1 0 2 1 1 0 0 1 0-2M563 128a1 1 0 1 1 0 2 1 1 0 0 1 0-2M577 128a1 1 0 1 1 0 2 1 1 0 0 1 0-2M591 128a1 1 0 1 1 0 2 1 1 0 0 1 0-2M605 128a1 1 0 1 1 0 2 1 1 0 0 1 0-2M619 128a1 1 0 1 1 0 2 1 1 0 0 1 0-2M633 128a1 1 0 1 1 0 2 1 1 0 0 1 0-2M647 128a1 1 0 1 1 0 2 1 1 0 0 1 0-2M661 128a1 1 0 1 1 0 2 1 1 0 0 1 0-2M675 128a1 1 0 1 1 0 2 1 1 0 0 1 0-2M689 128a1 1 0 1 1 0 2 1 1 0 0 1 0-2M703 128a1 1 0 1 1 0 2 1 1 0 0 1 0-2M717 128a1 1 0 1 1 0 2 1 1 0 0 1 0-2M-11 114a1 1 0 1 1 0 2 1 1 0 0 1 0-2M3 114a1 1 0 1 1 0 2 1 1 0 0 1 0-2M17 114a1 1 0 1 1 0 2 1 1 0 0 1 0-2M31 114a1 1 0 1 1 0 2 1 1 0 0 1 0-2M45 114a1 1 0 1 1 0 2 1 1 0 0 1 0-2M59 114a1 1 0 1 1 0 2 1 1 0 0 1 0-2M73 114a1 1 0 1 1 0 2 1 1 0 0 1 0-2M87 114a1 1 0 1 1 0 2 1 1 0 0 1 0-2M101 114a1 1 0 1 1 0 2 1 1 0 0 1 0-2M115 114a1 1 0 1 1 0 2 1 1 0 0 1 0-2M129 114a1 1 0 1 1 0 2 1 1 0 0 1 0-2M143 114a1 1 0 1 1 0 2 1 1 0 0 1 0-2M157 114a1 1 0 1 1 0 2 1 1 0 0 1 0-2M171 114a1 1 0 1 1 0 2 1 1 0 0 1 0-2M185 114a1 1 0 1 1 0 2 1 1 0 0 1 0-2M199 114a1 1 0 1 1 0 2 1 1 0 0 1 0-2M213 114a1 1 0 1 1 0 2 1 1 0 0 1 0-2M227 114a1 1 0 1 1 0 2 1 1 0 0 1 0-2M241 114a1 1 0 1 1 0 2 1 1 0 0 1 0-2M255 114a1 1 0 1 1 0 2 1 1 0 0 1 0-2M269 114a1 1 0 1 1 0 2 1 1 0 0 1 0-2M283 114a1 1 0 1 1 0 2 1 1 0 0 1 0-2M297 114a1 1 0 1 1 0 2 1 1 0 0 1 0-2M311 114a1 1 0 1 1 0 2 1 1 0 0 1 0-2M325 114a1 1 0 1 1 0 2 1 1 0 0 1 0-2M339 114a1 1 0 1 1 0 2 1 1 0 0 1 0-2M353 114a1 1 0 1 1 0 2 1 1 0 0 1 0-2M367 114a1 1 0 1 1 0 2 1 1 0 0 1 0-2M381 114a1 1 0 1 1 0 2 1 1 0 0 1 0-2M395 114a1 1 0 1 1 0 2 1 1 0 0 1 0-2M409 114a1 1 0 1 1 0 2 1 1 0 0 1 0-2M423 114a1 1 0 1 1 0 2 1 1 0 0 1 0-2M437 114a1 1 0 1 1 0 2 1 1 0 0 1 0-2M451 114a1 1 0 1 1 0 2 1 1 0 0 1 0-2M465 114a1 1 0 1 1 0 2 1 1 0 0 1 0-2M479 114a1 1 0 1 1 0 2 1 1 0 0 1 0-2M493 114a1 1 0 1 1 0 2 1 1 0 0 1 0-2M507 114a1 1 0 1 1 0 2 1 1 0 0 1 0-2M521 114a1 1 0 1 1 0 2 1 1 0 0 1 0-2M535 114a1 1 0 1 1 0 2 1 1 0 0 1 0-2M549 114a1 1 0 1 1 0 2 1 1 0 0 1 0-2M563 114a1 1 0 1 1 0 2 1 1 0 0 1 0-2M577 114a1 1 0 1 1 0 2 1 1 0 0 1 0-2M591 114a1 1 0 1 1 0 2 1 1 0 0 1 0-2M605 114a1 1 0 1 1 0 2 1 1 0 0 1 0-2M619 114a1 1 0 1 1 0 2 1 1 0 0 1 0-2M633 114a1 1 0 1 1 0 2 1 1 0 0 1 0-2M647 114a1 1 0 1 1 0 2 1 1 0 0 1 0-2M661 114a1 1 0 1 1 0 2 1 1 0 0 1 0-2M675 114a1 1 0 1 1 0 2 1 1 0 0 1 0-2M689 114a1 1 0 1 1 0 2 1 1 0 0 1 0-2M703 114a1 1 0 1 1 0 2 1 1 0 0 1 0-2M717 114a1 1 0 1 1 0 2 1 1 0 0 1 0-2M-11 100a1 1 0 1 1 0 2 1 1 0 0 1 0-2M3 100a1 1 0 1 1 0 2 1 1 0 0 1 0-2M17 100a1 1 0 1 1 0 2 1 1 0 0 1 0-2M31 100a1 1 0 1 1 0 2 1 1 0 0 1 0-2M45 100a1 1 0 1 1 0 2 1 1 0 0 1 0-2M59 100a1 1 0 1 1 0 2 1 1 0 0 1 0-2M73 100a1 1 0 1 1 0 2 1 1 0 0 1 0-2M87 100a1 1 0 1 1 0 2 1 1 0 0 1 0-2M101 100a1 1 0 1 1 0 2 1 1 0 0 1 0-2M115 100a1 1 0 1 1 0 2 1 1 0 0 1 0-2M129 100a1 1 0 1 1 0 2 1 1 0 0 1 0-2M143 100a1 1 0 1 1 0 2 1 1 0 0 1 0-2M157 100a1 1 0 1 1 0 2 1 1 0 0 1 0-2M171 100a1 1 0 1 1 0 2 1 1 0 0 1 0-2M185 100a1 1 0 1 1 0 2 1 1 0 0 1 0-2M199 100a1 1 0 1 1 0 2 1 1 0 0 1 0-2M213 100a1 1 0 1 1 0 2 1 1 0 0 1 0-2M227 100a1 1 0 1 1 0 2 1 1 0 0 1 0-2M241 100a1 1 0 1 1 0 2 1 1 0 0 1 0-2M255 100a1 1 0 1 1 0 2 1 1 0 0 1 0-2M269 100a1 1 0 1 1 0 2 1 1 0 0 1 0-2M283 100a1 1 0 1 1 0 2 1 1 0 0 1 0-2M297 100a1 1 0 1 1 0 2 1 1 0 0 1 0-2M311 100a1 1 0 1 1 0 2 1 1 0 0 1 0-2M325 100a1 1 0 1 1 0 2 1 1 0 0 1 0-2M339 100a1 1 0 1 1 0 2 1 1 0 0 1 0-2M353 100a1 1 0 1 1 0 2 1 1 0 0 1 0-2M367 100a1 1 0 1 1 0 2 1 1 0 0 1 0-2M381 100a1 1 0 1 1 0 2 1 1 0 0 1 0-2M395 100a1 1 0 1 1 0 2 1 1 0 0 1 0-2M409 100a1 1 0 1 1 0 2 1 1 0 0 1 0-2M423 100a1 1 0 1 1 0 2 1 1 0 0 1 0-2M437 100a1 1 0 1 1 0 2 1 1 0 0 1 0-2M451 100a1 1 0 1 1 0 2 1 1 0 0 1 0-2M465 100a1 1 0 1 1 0 2 1 1 0 0 1 0-2M479 100a1 1 0 1 1 0 2 1 1 0 0 1 0-2M493 100a1 1 0 1 1 0 2 1 1 0 0 1 0-2M507 100a1 1 0 1 1 0 2 1 1 0 0 1 0-2M521 100a1 1 0 1 1 0 2 1 1 0 0 1 0-2M535 100a1 1 0 1 1 0 2 1 1 0 0 1 0-2M549 100a1 1 0 1 1 0 2 1 1 0 0 1 0-2M563 100a1 1 0 1 1 0 2 1 1 0 0 1 0-2M577 100a1 1 0 1 1 0 2 1 1 0 0 1 0-2M591 100a1 1 0 1 1 0 2 1 1 0 0 1 0-2M605 100a1 1 0 1 1 0 2 1 1 0 0 1 0-2M619 100a1 1 0 1 1 0 2 1 1 0 0 1 0-2M633 100a1 1 0 1 1 0 2 1 1 0 0 1 0-2M647 100a1 1 0 1 1 0 2 1 1 0 0 1 0-2M661 100a1 1 0 1 1 0 2 1 1 0 0 1 0-2M675 100a1 1 0 1 1 0 2 1 1 0 0 1 0-2M689 100a1 1 0 1 1 0 2 1 1 0 0 1 0-2M703 100a1 1 0 1 1 0 2 1 1 0 0 1 0-2M717 100a1 1 0 1 1 0 2 1 1 0 0 1 0-2M-11 86a1 1 0 1 1 0 2 1 1 0 0 1 0-2M3 86a1 1 0 1 1 0 2 1 1 0 0 1 0-2M17 86a1 1 0 1 1 0 2 1 1 0 0 1 0-2M31 86a1 1 0 1 1 0 2 1 1 0 0 1 0-2M45 86a1 1 0 1 1 0 2 1 1 0 0 1 0-2M59 86a1 1 0 1 1 0 2 1 1 0 0 1 0-2M73 86a1 1 0 1 1 0 2 1 1 0 0 1 0-2M87 86a1 1 0 1 1 0 2 1 1 0 0 1 0-2M101 86a1 1 0 1 1 0 2 1 1 0 0 1 0-2M115 86a1 1 0 1 1 0 2 1 1 0 0 1 0-2M129 86a1 1 0 1 1 0 2 1 1 0 0 1 0-2M143 86a1 1 0 1 1 0 2 1 1 0 0 1 0-2M157 86a1 1 0 1 1 0 2 1 1 0 0 1 0-2M171 86a1 1 0 1 1 0 2 1 1 0 0 1 0-2M185 86a1 1 0 1 1 0 2 1 1 0 0 1 0-2M199 86a1 1 0 1 1 0 2 1 1 0 0 1 0-2M213 86a1 1 0 1 1 0 2 1 1 0 0 1 0-2M227 86a1 1 0 1 1 0 2 1 1 0 0 1 0-2M241 86a1 1 0 1 1 0 2 1 1 0 0 1 0-2M255 86a1 1 0 1 1 0 2 1 1 0 0 1 0-2M269 86a1 1 0 1 1 0 2 1 1 0 0 1 0-2M283 86a1 1 0 1 1 0 2 1 1 0 0 1 0-2M297 86a1 1 0 1 1 0 2 1 1 0 0 1 0-2M311 86a1 1 0 1 1 0 2 1 1 0 0 1 0-2M325 86a1 1 0 1 1 0 2 1 1 0 0 1 0-2M339 86a1 1 0 1 1 0 2 1 1 0 0 1 0-2M353 86a1 1 0 1 1 0 2 1 1 0 0 1 0-2M367 86a1 1 0 1 1 0 2 1 1 0 0 1 0-2M381 86a1 1 0 1 1 0 2 1 1 0 0 1 0-2M395 86a1 1 0 1 1 0 2 1 1 0 0 1 0-2M409 86a1 1 0 1 1 0 2 1 1 0 0 1 0-2M423 86a1 1 0 1 1 0 2 1 1 0 0 1 0-2M437 86a1 1 0 1 1 0 2 1 1 0 0 1 0-2M451 86a1 1 0 1 1 0 2 1 1 0 0 1 0-2M465 86a1 1 0 1 1 0 2 1 1 0 0 1 0-2M479 86a1 1 0 1 1 0 2 1 1 0 0 1 0-2M493 86a1 1 0 1 1 0 2 1 1 0 0 1 0-2M507 86a1 1 0 1 1 0 2 1 1 0 0 1 0-2M521 86a1 1 0 1 1 0 2 1 1 0 0 1 0-2M535 86a1 1 0 1 1 0 2 1 1 0 0 1 0-2M549 86a1 1 0 1 1 0 2 1 1 0 0 1 0-2M563 86a1 1 0 1 1 0 2 1 1 0 0 1 0-2M577 86a1 1 0 1 1 0 2 1 1 0 0 1 0-2M591 86a1 1 0 1 1 0 2 1 1 0 0 1 0-2M605 86a1 1 0 1 1 0 2 1 1 0 0 1 0-2M619 86a1 1 0 1 1 0 2 1 1 0 0 1 0-2M633 86a1 1 0 1 1 0 2 1 1 0 0 1 0-2M647 86a1 1 0 1 1 0 2 1 1 0 0 1 0-2M661 86a1 1 0 1 1 0 2 1 1 0 0 1 0-2M675 86a1 1 0 1 1 0 2 1 1 0 0 1 0-2M689 86a1 1 0 1 1 0 2 1 1 0 0 1 0-2M703 86a1 1 0 1 1 0 2 1 1 0 0 1 0-2M717 86a1 1 0 1 1 0 2 1 1 0 0 1 0-2M-11 72a1 1 0 1 1 0 2 1 1 0 0 1 0-2M3 72a1 1 0 1 1 0 2 1 1 0 0 1 0-2M17 72a1 1 0 1 1 0 2 1 1 0 0 1 0-2M31 72a1 1 0 1 1 0 2 1 1 0 0 1 0-2M45 72a1 1 0 1 1 0 2 1 1 0 0 1 0-2M59 72a1 1 0 1 1 0 2 1 1 0 0 1 0-2M73 72a1 1 0 1 1 0 2 1 1 0 0 1 0-2M87 72a1 1 0 1 1 0 2 1 1 0 0 1 0-2M101 72a1 1 0 1 1 0 2 1 1 0 0 1 0-2M115 72a1 1 0 1 1 0 2 1 1 0 0 1 0-2M129 72a1 1 0 1 1 0 2 1 1 0 0 1 0-2M143 72a1 1 0 1 1 0 2 1 1 0 0 1 0-2M157 72a1 1 0 1 1 0 2 1 1 0 0 1 0-2M171 72a1 1 0 1 1 0 2 1 1 0 0 1 0-2M185 72a1 1 0 1 1 0 2 1 1 0 0 1 0-2M199 72a1 1 0 1 1 0 2 1 1 0 0 1 0-2M213 72a1 1 0 1 1 0 2 1 1 0 0 1 0-2M227 72a1 1 0 1 1 0 2 1 1 0 0 1 0-2M241 72a1 1 0 1 1 0 2 1 1 0 0 1 0-2M255 72a1 1 0 1 1 0 2 1 1 0 0 1 0-2M269 72a1 1 0 1 1 0 2 1 1 0 0 1 0-2M283 72a1 1 0 1 1 0 2 1 1 0 0 1 0-2M297 72a1 1 0 1 1 0 2 1 1 0 0 1 0-2M311 72a1 1 0 1 1 0 2 1 1 0 0 1 0-2M325 72a1 1 0 1 1 0 2 1 1 0 0 1 0-2M339 72a1 1 0 1 1 0 2 1 1 0 0 1 0-2M353 72a1 1 0 1 1 0 2 1 1 0 0 1 0-2M367 72a1 1 0 1 1 0 2 1 1 0 0 1 0-2M381 72a1 1 0 1 1 0 2 1 1 0 0 1 0-2M395 72a1 1 0 1 1 0 2 1 1 0 0 1 0-2M409 72a1 1 0 1 1 0 2 1 1 0 0 1 0-2M423 72a1 1 0 1 1 0 2 1 1 0 0 1 0-2M437 72a1 1 0 1 1 0 2 1 1 0 0 1 0-2M451 72a1 1 0 1 1 0 2 1 1 0 0 1 0-2M465 72a1 1 0 1 1 0 2 1 1 0 0 1 0-2M479 72a1 1 0 1 1 0 2 1 1 0 0 1 0-2M493 72a1 1 0 1 1 0 2 1 1 0 0 1 0-2M507 72a1 1 0 1 1 0 2 1 1 0 0 1 0-2M521 72a1 1 0 1 1 0 2 1 1 0 0 1 0-2M535 72a1 1 0 1 1 0 2 1 1 0 0 1 0-2M549 72a1 1 0 1 1 0 2 1 1 0 0 1 0-2M563 72a1 1 0 1 1 0 2 1 1 0 0 1 0-2M577 72a1 1 0 1 1 0 2 1 1 0 0 1 0-2M591 72a1 1 0 1 1 0 2 1 1 0 0 1 0-2M605 72a1 1 0 1 1 0 2 1 1 0 0 1 0-2M619 72a1 1 0 1 1 0 2 1 1 0 0 1 0-2M633 72a1 1 0 1 1 0 2 1 1 0 0 1 0-2M647 72a1 1 0 1 1 0 2 1 1 0 0 1 0-2M661 72a1 1 0 1 1 0 2 1 1 0 0 1 0-2M675 72a1 1 0 1 1 0 2 1 1 0 0 1 0-2M689 72a1 1 0 1 1 0 2 1 1 0 0 1 0-2M703 72a1 1 0 1 1 0 2 1 1 0 0 1 0-2M717 72a1 1 0 1 1 0 2 1 1 0 0 1 0-2M-11 58a1 1 0 1 1 0 2 1 1 0 0 1 0-2M3 58a1 1 0 1 1 0 2 1 1 0 0 1 0-2M17 58a1 1 0 1 1 0 2 1 1 0 0 1 0-2M31 58a1 1 0 1 1 0 2 1 1 0 0 1 0-2M45 58a1 1 0 1 1 0 2 1 1 0 0 1 0-2M59 58a1 1 0 1 1 0 2 1 1 0 0 1 0-2M73 58a1 1 0 1 1 0 2 1 1 0 0 1 0-2M87 58a1 1 0 1 1 0 2 1 1 0 0 1 0-2M101 58a1 1 0 1 1 0 2 1 1 0 0 1 0-2M115 58a1 1 0 1 1 0 2 1 1 0 0 1 0-2M129 58a1 1 0 1 1 0 2 1 1 0 0 1 0-2M143 58a1 1 0 1 1 0 2 1 1 0 0 1 0-2M157 58a1 1 0 1 1 0 2 1 1 0 0 1 0-2M171 58a1 1 0 1 1 0 2 1 1 0 0 1 0-2M185 58a1 1 0 1 1 0 2 1 1 0 0 1 0-2M199 58a1 1 0 1 1 0 2 1 1 0 0 1 0-2M213 58a1 1 0 1 1 0 2 1 1 0 0 1 0-2M227 58a1 1 0 1 1 0 2 1 1 0 0 1 0-2M241 58a1 1 0 1 1 0 2 1 1 0 0 1 0-2M255 58a1 1 0 1 1 0 2 1 1 0 0 1 0-2M269 58a1 1 0 1 1 0 2 1 1 0 0 1 0-2M283 58a1 1 0 1 1 0 2 1 1 0 0 1 0-2M297 58a1 1 0 1 1 0 2 1 1 0 0 1 0-2M311 58a1 1 0 1 1 0 2 1 1 0 0 1 0-2M325 58a1 1 0 1 1 0 2 1 1 0 0 1 0-2M339 58a1 1 0 1 1 0 2 1 1 0 0 1 0-2M353 58a1 1 0 1 1 0 2 1 1 0 0 1 0-2M367 58a1 1 0 1 1 0 2 1 1 0 0 1 0-2M381 58a1 1 0 1 1 0 2 1 1 0 0 1 0-2M395 58a1 1 0 1 1 0 2 1 1 0 0 1 0-2M409 58a1 1 0 1 1 0 2 1 1 0 0 1 0-2M423 58a1 1 0 1 1 0 2 1 1 0 0 1 0-2M437 58a1 1 0 1 1 0 2 1 1 0 0 1 0-2M451 58a1 1 0 1 1 0 2 1 1 0 0 1 0-2M465 58a1 1 0 1 1 0 2 1 1 0 0 1 0-2M479 58a1 1 0 1 1 0 2 1 1 0 0 1 0-2M493 58a1 1 0 1 1 0 2 1 1 0 0 1 0-2M507 58a1 1 0 1 1 0 2 1 1 0 0 1 0-2M521 58a1 1 0 1 1 0 2 1 1 0 0 1 0-2M535 58a1 1 0 1 1 0 2 1 1 0 0 1 0-2M549 58a1 1 0 1 1 0 2 1 1 0 0 1 0-2M563 58a1 1 0 1 1 0 2 1 1 0 0 1 0-2M577 58a1 1 0 1 1 0 2 1 1 0 0 1 0-2M591 58a1 1 0 1 1 0 2 1 1 0 0 1 0-2M605 58a1 1 0 1 1 0 2 1 1 0 0 1 0-2M619 58a1 1 0 1 1 0 2 1 1 0 0 1 0-2M633 58a1 1 0 1 1 0 2 1 1 0 0 1 0-2M647 58a1 1 0 1 1 0 2 1 1 0 0 1 0-2M661 58a1 1 0 1 1 0 2 1 1 0 0 1 0-2M675 58a1 1 0 1 1 0 2 1 1 0 0 1 0-2M689 58a1 1 0 1 1 0 2 1 1 0 0 1 0-2M703 58a1 1 0 1 1 0 2 1 1 0 0 1 0-2M717 58a1 1 0 1 1 0 2 1 1 0 0 1 0-2M-11 44a1 1 0 1 1 0 2 1 1 0 0 1 0-2M3 44a1 1 0 1 1 0 2 1 1 0 0 1 0-2M17 44a1 1 0 1 1 0 2 1 1 0 0 1 0-2M31 44a1 1 0 1 1 0 2 1 1 0 0 1 0-2M45 44a1 1 0 1 1 0 2 1 1 0 0 1 0-2M59 44a1 1 0 1 1 0 2 1 1 0 0 1 0-2M73 44a1 1 0 1 1 0 2 1 1 0 0 1 0-2M87 44a1 1 0 1 1 0 2 1 1 0 0 1 0-2M101 44a1 1 0 1 1 0 2 1 1 0 0 1 0-2M115 44a1 1 0 1 1 0 2 1 1 0 0 1 0-2M129 44a1 1 0 1 1 0 2 1 1 0 0 1 0-2M143 44a1 1 0 1 1 0 2 1 1 0 0 1 0-2M157 44a1 1 0 1 1 0 2 1 1 0 0 1 0-2M171 44a1 1 0 1 1 0 2 1 1 0 0 1 0-2M185 44a1 1 0 1 1 0 2 1 1 0 0 1 0-2M199 44a1 1 0 1 1 0 2 1 1 0 0 1 0-2M213 44a1 1 0 1 1 0 2 1 1 0 0 1 0-2M227 44a1 1 0 1 1 0 2 1 1 0 0 1 0-2M241 44a1 1 0 1 1 0 2 1 1 0 0 1 0-2M255 44a1 1 0 1 1 0 2 1 1 0 0 1 0-2M269 44a1 1 0 1 1 0 2 1 1 0 0 1 0-2M283 44a1 1 0 1 1 0 2 1 1 0 0 1 0-2M297 44a1 1 0 1 1 0 2 1 1 0 0 1 0-2M311 44a1 1 0 1 1 0 2 1 1 0 0 1 0-2M325 44a1 1 0 1 1 0 2 1 1 0 0 1 0-2M339 44a1 1 0 1 1 0 2 1 1 0 0 1 0-2M353 44a1 1 0 1 1 0 2 1 1 0 0 1 0-2M367 44a1 1 0 1 1 0 2 1 1 0 0 1 0-2M381 44a1 1 0 1 1 0 2 1 1 0 0 1 0-2M395 44a1 1 0 1 1 0 2 1 1 0 0 1 0-2M409 44a1 1 0 1 1 0 2 1 1 0 0 1 0-2M423 44a1 1 0 1 1 0 2 1 1 0 0 1 0-2M437 44a1 1 0 1 1 0 2 1 1 0 0 1 0-2M451 44a1 1 0 1 1 0 2 1 1 0 0 1 0-2M465 44a1 1 0 1 1 0 2 1 1 0 0 1 0-2M479 44a1 1 0 1 1 0 2 1 1 0 0 1 0-2M493 44a1 1 0 1 1 0 2 1 1 0 0 1 0-2M507 44a1 1 0 1 1 0 2 1 1 0 0 1 0-2M521 44a1 1 0 1 1 0 2 1 1 0 0 1 0-2M535 44a1 1 0 1 1 0 2 1 1 0 0 1 0-2M549 44a1 1 0 1 1 0 2 1 1 0 0 1 0-2M563 44a1 1 0 1 1 0 2 1 1 0 0 1 0-2M577 44a1 1 0 1 1 0 2 1 1 0 0 1 0-2M591 44a1 1 0 1 1 0 2 1 1 0 0 1 0-2M605 44a1 1 0 1 1 0 2 1 1 0 0 1 0-2M619 44a1 1 0 1 1 0 2 1 1 0 0 1 0-2M633 44a1 1 0 1 1 0 2 1 1 0 0 1 0-2M647 44a1 1 0 1 1 0 2 1 1 0 0 1 0-2M661 44a1 1 0 1 1 0 2 1 1 0 0 1 0-2M675 44a1 1 0 1 1 0 2 1 1 0 0 1 0-2M689 44a1 1 0 1 1 0 2 1 1 0 0 1 0-2M703 44a1 1 0 1 1 0 2 1 1 0 0 1 0-2M717 44a1 1 0 1 1 0 2 1 1 0 0 1 0-2M-11 30a1 1 0 1 1 0 2 1 1 0 0 1 0-2M3 30a1 1 0 1 1 0 2 1 1 0 0 1 0-2M17 30a1 1 0 1 1 0 2 1 1 0 0 1 0-2M31 30a1 1 0 1 1 0 2 1 1 0 0 1 0-2M45 30a1 1 0 1 1 0 2 1 1 0 0 1 0-2M59 30a1 1 0 1 1 0 2 1 1 0 0 1 0-2M73 30a1 1 0 1 1 0 2 1 1 0 0 1 0-2M87 30a1 1 0 1 1 0 2 1 1 0 0 1 0-2M101 30a1 1 0 1 1 0 2 1 1 0 0 1 0-2M115 30a1 1 0 1 1 0 2 1 1 0 0 1 0-2M129 30a1 1 0 1 1 0 2 1 1 0 0 1 0-2M143 30a1 1 0 1 1 0 2 1 1 0 0 1 0-2M157 30a1 1 0 1 1 0 2 1 1 0 0 1 0-2M171 30a1 1 0 1 1 0 2 1 1 0 0 1 0-2M185 30a1 1 0 1 1 0 2 1 1 0 0 1 0-2M199 30a1 1 0 1 1 0 2 1 1 0 0 1 0-2M213 30a1 1 0 1 1 0 2 1 1 0 0 1 0-2M227 30a1 1 0 1 1 0 2 1 1 0 0 1 0-2M241 30a1 1 0 1 1 0 2 1 1 0 0 1 0-2M255 30a1 1 0 1 1 0 2 1 1 0 0 1 0-2M269 30a1 1 0 1 1 0 2 1 1 0 0 1 0-2M283 30a1 1 0 1 1 0 2 1 1 0 0 1 0-2M297 30a1 1 0 1 1 0 2 1 1 0 0 1 0-2M311 30a1 1 0 1 1 0 2 1 1 0 0 1 0-2M325 30a1 1 0 1 1 0 2 1 1 0 0 1 0-2M339 30a1 1 0 1 1 0 2 1 1 0 0 1 0-2M353 30a1 1 0 1 1 0 2 1 1 0 0 1 0-2M367 30a1 1 0 1 1 0 2 1 1 0 0 1 0-2M381 30a1 1 0 1 1 0 2 1 1 0 0 1 0-2M395 30a1 1 0 1 1 0 2 1 1 0 0 1 0-2M409 30a1 1 0 1 1 0 2 1 1 0 0 1 0-2M423 30a1 1 0 1 1 0 2 1 1 0 0 1 0-2M437 30a1 1 0 1 1 0 2 1 1 0 0 1 0-2M451 30a1 1 0 1 1 0 2 1 1 0 0 1 0-2M465 30a1 1 0 1 1 0 2 1 1 0 0 1 0-2M479 30a1 1 0 1 1 0 2 1 1 0 0 1 0-2M493 30a1 1 0 1 1 0 2 1 1 0 0 1 0-2M507 30a1 1 0 1 1 0 2 1 1 0 0 1 0-2M521 30a1 1 0 1 1 0 2 1 1 0 0 1 0-2M535 30a1 1 0 1 1 0 2 1 1 0 0 1 0-2M549 30a1 1 0 1 1 0 2 1 1 0 0 1 0-2M563 30a1 1 0 1 1 0 2 1 1 0 0 1 0-2M577 30a1 1 0 1 1 0 2 1 1 0 0 1 0-2M591 30a1 1 0 1 1 0 2 1 1 0 0 1 0-2M605 30a1 1 0 1 1 0 2 1 1 0 0 1 0-2M619 30a1 1 0 1 1 0 2 1 1 0 0 1 0-2M633 30a1 1 0 1 1 0 2 1 1 0 0 1 0-2M647 30a1 1 0 1 1 0 2 1 1 0 0 1 0-2M661 30a1 1 0 1 1 0 2 1 1 0 0 1 0-2M675 30a1 1 0 1 1 0 2 1 1 0 0 1 0-2M689 30a1 1 0 1 1 0 2 1 1 0 0 1 0-2M703 30a1 1 0 1 1 0 2 1 1 0 0 1 0-2M717 30a1 1 0 1 1 0 2 1 1 0 0 1 0-2M-11 16a1 1 0 1 1 0 2 1 1 0 0 1 0-2M3 16a1 1 0 1 1 0 2 1 1 0 0 1 0-2M17 16a1 1 0 1 1 0 2 1 1 0 0 1 0-2M31 16a1 1 0 1 1 0 2 1 1 0 0 1 0-2M45 16a1 1 0 1 1 0 2 1 1 0 0 1 0-2M59 16a1 1 0 1 1 0 2 1 1 0 0 1 0-2M73 16a1 1 0 1 1 0 2 1 1 0 0 1 0-2M87 16a1 1 0 1 1 0 2 1 1 0 0 1 0-2M101 16a1 1 0 1 1 0 2 1 1 0 0 1 0-2M115 16a1 1 0 1 1 0 2 1 1 0 0 1 0-2M129 16a1 1 0 1 1 0 2 1 1 0 0 1 0-2M143 16a1 1 0 1 1 0 2 1 1 0 0 1 0-2M157 16a1 1 0 1 1 0 2 1 1 0 0 1 0-2M171 16a1 1 0 1 1 0 2 1 1 0 0 1 0-2M185 16a1 1 0 1 1 0 2 1 1 0 0 1 0-2M199 16a1 1 0 1 1 0 2 1 1 0 0 1 0-2M213 16a1 1 0 1 1 0 2 1 1 0 0 1 0-2M227 16a1 1 0 1 1 0 2 1 1 0 0 1 0-2M241 16a1 1 0 1 1 0 2 1 1 0 0 1 0-2M255 16a1 1 0 1 1 0 2 1 1 0 0 1 0-2M269 16a1 1 0 1 1 0 2 1 1 0 0 1 0-2M283 16a1 1 0 1 1 0 2 1 1 0 0 1 0-2M297 16a1 1 0 1 1 0 2 1 1 0 0 1 0-2M311 16a1 1 0 1 1 0 2 1 1 0 0 1 0-2M325 16a1 1 0 1 1 0 2 1 1 0 0 1 0-2M339 16a1 1 0 1 1 0 2 1 1 0 0 1 0-2M353 16a1 1 0 1 1 0 2 1 1 0 0 1 0-2M367 16a1 1 0 1 1 0 2 1 1 0 0 1 0-2M381 16a1 1 0 1 1 0 2 1 1 0 0 1 0-2M395 16a1 1 0 1 1 0 2 1 1 0 0 1 0-2M409 16a1 1 0 1 1 0 2 1 1 0 0 1 0-2M423 16a1 1 0 1 1 0 2 1 1 0 0 1 0-2M437 16a1 1 0 1 1 0 2 1 1 0 0 1 0-2M451 16a1 1 0 1 1 0 2 1 1 0 0 1 0-2M465 16a1 1 0 1 1 0 2 1 1 0 0 1 0-2M479 16a1 1 0 1 1 0 2 1 1 0 0 1 0-2M493 16a1 1 0 1 1 0 2 1 1 0 0 1 0-2M507 16a1 1 0 1 1 0 2 1 1 0 0 1 0-2M521 16a1 1 0 1 1 0 2 1 1 0 0 1 0-2M535 16a1 1 0 1 1 0 2 1 1 0 0 1 0-2M549 16a1 1 0 1 1 0 2 1 1 0 0 1 0-2M563 16a1 1 0 1 1 0 2 1 1 0 0 1 0-2M577 16a1 1 0 1 1 0 2 1 1 0 0 1 0-2M591 16a1 1 0 1 1 0 2 1 1 0 0 1 0-2M605 16a1 1 0 1 1 0 2 1 1 0 0 1 0-2M619 16a1 1 0 1 1 0 2 1 1 0 0 1 0-2M633 16a1 1 0 1 1 0 2 1 1 0 0 1 0-2M647 16a1 1 0 1 1 0 2 1 1 0 0 1 0-2M661 16a1 1 0 1 1 0 2 1 1 0 0 1 0-2M675 16a1 1 0 1 1 0 2 1 1 0 0 1 0-2M689 16a1 1 0 1 1 0 2 1 1 0 0 1 0-2M703 16a1 1 0 1 1 0 2 1 1 0 0 1 0-2M717 16a1 1 0 1 1 0 2 1 1 0 0 1 0-2M-11 2a1 1 0 1 1 0 2 1 1 0 0 1 0-2M3 2a1 1 0 1 1 0 2 1 1 0 0 1 0-2M17 2a1 1 0 1 1 0 2 1 1 0 0 1 0-2M31 2a1 1 0 1 1 0 2 1 1 0 0 1 0-2M45 2a1 1 0 1 1 0 2 1 1 0 0 1 0-2M59 2a1 1 0 1 1 0 2 1 1 0 0 1 0-2M73 2a1 1 0 1 1 0 2 1 1 0 0 1 0-2M87 2a1 1 0 1 1 0 2 1 1 0 0 1 0-2M101 2a1 1 0 1 1 0 2 1 1 0 0 1 0-2M115 2a1 1 0 1 1 0 2 1 1 0 0 1 0-2M129 2a1 1 0 1 1 0 2 1 1 0 0 1 0-2M143 2a1 1 0 1 1 0 2 1 1 0 0 1 0-2M157 2a1 1 0 1 1 0 2 1 1 0 0 1 0-2M171 2a1 1 0 1 1 0 2 1 1 0 0 1 0-2M185 2a1 1 0 1 1 0 2 1 1 0 0 1 0-2M199 2a1 1 0 1 1 0 2 1 1 0 0 1 0-2M213 2a1 1 0 1 1 0 2 1 1 0 0 1 0-2M227 2a1 1 0 1 1 0 2 1 1 0 0 1 0-2M241 2a1 1 0 1 1 0 2 1 1 0 0 1 0-2M255 2a1 1 0 1 1 0 2 1 1 0 0 1 0-2M269 2a1 1 0 1 1 0 2 1 1 0 0 1 0-2M283 2a1 1 0 1 1 0 2 1 1 0 0 1 0-2M297 2a1 1 0 1 1 0 2 1 1 0 0 1 0-2M311 2a1 1 0 1 1 0 2 1 1 0 0 1 0-2M325 2a1 1 0 1 1 0 2 1 1 0 0 1 0-2M339 2a1 1 0 1 1 0 2 1 1 0 0 1 0-2M353 2a1 1 0 1 1 0 2 1 1 0 0 1 0-2M367 2a1 1 0 1 1 0 2 1 1 0 0 1 0-2M381 2a1 1 0 1 1 0 2 1 1 0 0 1 0-2M395 2a1 1 0 1 1 0 2 1 1 0 0 1 0-2M409 2a1 1 0 1 1 0 2 1 1 0 0 1 0-2M423 2a1 1 0 1 1 0 2 1 1 0 0 1 0-2M437 2a1 1 0 1 1 0 2 1 1 0 0 1 0-2M451 2a1 1 0 1 1 0 2 1 1 0 0 1 0-2M465 2a1 1 0 1 1 0 2 1 1 0 0 1 0-2M479 2a1 1 0 1 1 0 2 1 1 0 0 1 0-2M493 2a1 1 0 1 1 0 2 1 1 0 0 1 0-2M507 2a1 1 0 1 1 0 2 1 1 0 0 1 0-2M521 2a1 1 0 1 1 0 2 1 1 0 0 1 0-2M535 2a1 1 0 1 1 0 2 1 1 0 0 1 0-2M549 2a1 1 0 1 1 0 2 1 1 0 0 1 0-2M563 2a1 1 0 1 1 0 2 1 1 0 0 1 0-2M577 2a1 1 0 1 1 0 2 1 1 0 0 1 0-2M591 2a1 1 0 1 1 0 2 1 1 0 0 1 0-2M605 2a1 1 0 1 1 0 2 1 1 0 0 1 0-2M619 2a1 1 0 1 1 0 2 1 1 0 0 1 0-2M633 2a1 1 0 1 1 0 2 1 1 0 0 1 0-2M647 2a1 1 0 1 1 0 2 1 1 0 0 1 0-2M661 2a1 1 0 1 1 0 2 1 1 0 0 1 0-2M675 2a1 1 0 1 1 0 2 1 1 0 0 1 0-2M689 2a1 1 0 1 1 0 2 1 1 0 0 1 0-2M703 2a1 1 0 1 1 0 2 1 1 0 0 1 0-2M717 2a1 1 0 1 1 0 2 1 1 0 0 1 0-2"/></g><g clip-path="url(#c)"><mask id="l" fill="#fff"><path d="M55 114h256v32H55z"/></mask><path fill="#cfd4fc" d="M55 114h256v32H55z"/><g stroke="#3d50f5" clip-path="url(#d)"><path d="m84 97-50 50M76 97l-50 50M92 97l-50 50M100 97l-50 50M108 97l-50 50M116 97l-50 50M124 97l-50 50M132 97l-50 50"/></g><g stroke="#3d50f5" clip-path="url(#e)"><path d="m116 97-50 50M108 97l-50 50M124 97l-50 50M132 97l-50 50M140 97l-50 50M148 97l-50 50M156 97l-50 50M164 97l-50 50"/></g><g stroke="#3d50f5" clip-path="url(#f)"><path d="m148 97-50 50M140 97l-50 50M156 97l-50 50M164 97l-50 50M172 97l-50 50M180 97l-50 50M188 97l-50 50M196 97l-50 50"/></g><g stroke="#3d50f5" clip-path="url(#g)"><path d="m180 97-50 50M172 97l-50 50M188 97l-50 50M196 97l-50 50M204 97l-50 50M212 97l-50 50M220 97l-50 50M228 97l-50 50"/></g><g stroke="#3d50f5" clip-path="url(#h)"><path d="m212 97-50 50M204 97l-50 50M220 97l-50 50M228 97l-50 50M236 97l-50 50M244 97l-50 50M252 97l-50 50M260 97l-50 50"/></g><g stroke="#3d50f5" clip-path="url(#i)"><path d="m244 97-50 50M236 97l-50 50M252 97l-50 50M260 97l-50 50M268 97l-50 50M276 97l-50 50M284 97l-50 50M292 97l-50 50"/></g><g stroke="#3d50f5" clip-path="url(#j)"><path d="m276 97-50 50M268 97l-50 50M284 97l-50 50M292 97l-50 50M300 97l-50 50M308 97l-50 50M316 97l-50 50M324 97l-50 50"/></g><g stroke="#3d50f5" clip-path="url(#k)"><path d="m308 97-50 50M300 97l-50 50M316 97l-50 50M324 97l-50 50M332 97l-50 50M340 97l-50 50M348 97l-50 50M356 97l-50 50"/></g></g><path fill="#3d50f5" d="M55 114v1h256v-2H55zm256 32v-1H55v2h256z" mask="url(#l)"/><g clip-path="url(#m)"><rect width="256" height="32" x="412" y="114" fill="#d6e7e5" rx="6"/><g stroke="#00695c" clip-path="url(#n)"><path d="m441 97-50 50M433 97l-50 50M449 97l-50 50M457 97l-50 50M465 97l-50 50M473 97l-50 50M481 97l-50 50M489 97l-50 50"/></g><g stroke="#00695c" clip-path="url(#o)"><path d="m473 97-50 50M465 97l-50 50M481 97l-50 50M489 97l-50 50M497 97l-50 50M505 97l-50 50M513 97l-50 50M521 97l-50 50"/></g><g stroke="#00695c" clip-path="url(#p)"><path d="m505 97-50 50M497 97l-50 50M513 97l-50 50M521 97l-50 50M529 97l-50 50M537 97l-50 50M545 97l-50 50M553 97l-50 50"/></g><g stroke="#00695c" clip-path="url(#q)"><path d="m537 97-50 50M529 97l-50 50M545 97l-50 50M553 97l-50 50M561 97l-50 50M569 97l-50 50M577 97l-50 50M585 97l-50 50"/></g><g stroke="#00695c" clip-path="url(#r)"><path d="m569 97-50 50M561 97l-50 50M577 97l-50 50M585 97l-50 50M593 97l-50 50M601 97l-50 50M609 97l-50 50M617 97l-50 50"/></g><g stroke="#00695c" clip-path="url(#s)"><path d="m601 97-50 50M593 97l-50 50M609 97l-50 50M617 97l-50 50M625 97l-50 50M633 97l-50 50M641 97l-50 50M649 97l-50 50"/></g><g stroke="#00695c" clip-path="url(#t)"><path d="m633 97-50 50M625 97l-50 50M641 97l-50 50M649 97l-50 50M657 97l-50 50M665 97l-50 50M673 97l-50 50M681 97l-50 50"/></g><g stroke="#00695c" clip-path="url(#u)"><path d="m665 97-50 50M657 97l-50 50M673 97l-50 50M681 97l-50 50M689 97l-50 50M697 97l-50 50M705 97l-50 50M713 97l-50 50"/></g></g><rect width="255" height="31" x="412.5" y="114.5" stroke="#00695c" rx="5.5"/><path stroke="#3d50f5" stroke-dasharray="6 6" d="M47 91v55"/><path stroke="#00695c" d="M404 91v55"/><path stroke="#3d50f5" stroke-dasharray="6 6" d="M319 91v55"/><path stroke="#00695c" d="M676 91v55"/><path fill="#888c96" d="M55 163.25a.75.75 0 0 0 0 1.5v-1.5m59.5.75v-.75H55v1.5h59.5z"/><path fill="#353841" d="m124.713 168-.81-7.273h1.154l.483 5.632h.067l2.408-5.632h1.144l.539 5.636h.071l2.344-5.636h1.158L130.043 168h-1.105l-.621-5.447h-.057L125.82 168zm8.156 0 .909-5.455h1.062l-.91 5.455zm1.662-6.307a.65.65 0 0 1-.469-.184.56.56 0 0 1-.174-.448.63.63 0 0 1 .22-.447.69.69 0 0 1 .479-.189q.277 0 .466.189a.57.57 0 0 1 .177.447.64.64 0 0 1-.22.448.7.7 0 0 1-.479.184m2.316 3.068-.533 3.239h-1.062l.91-5.455h1.019l-.149.888h.067q.259-.436.707-.696.45-.263 1.065-.263.554 0 .93.235.381.23.537.689.16.458.049 1.133l-.582 3.469h-1.062l.558-3.342q.096-.593-.156-.926-.249-.338-.792-.338-.37 0-.686.16a1.46 1.46 0 0 0-.529.469q-.213.305-.291.738m6.303 3.346q-.664 0-1.125-.338-.459-.34-.65-.969-.189-.632-.043-1.517.15-.883.551-1.512.4-.629.973-.963a2.4 2.4 0 0 1 1.232-.334q.507 0 .788.171.285.166.419.391.135.223.203.394h.06l.451-2.703h1.062L145.863 168h-1.037l.146-.849h-.089a3.4 3.4 0 0 1-.344.398 2 2 0 0 1-.554.391q-.337.167-.835.167m.359-.906q.458 0 .82-.241.366-.246.608-.679.244-.433.34-1.008.096-.569-.003-.995a1.2 1.2 0 0 0-.384-.664q-.284-.237-.749-.238-.48 0-.834.249a1.9 1.9 0 0 0-.583.678 3.2 3.2 0 0 0-.312.97 2.7 2.7 0 0 0-.007.983q.084.437.358.693.274.252.746.252m6.079.909q-.778 0-1.3-.355a1.9 1.9 0 0 1-.735-1.001q-.21-.647-.071-1.503.135-.837.543-1.463a2.95 2.95 0 0 1 1.03-.969q.621-.345 1.381-.345.778 0 1.297.359a1.9 1.9 0 0 1 .735 1.005q.213.647.074 1.506a3.65 3.65 0 0 1-.55 1.456 2.96 2.96 0 0 1-1.03.966 2.8 2.8 0 0 1-1.374.344m.06-.891q.511 0 .891-.27a2.05 2.05 0 0 0 .625-.717q.241-.448.331-.981a2.7 2.7 0 0 0-.004-.941 1.24 1.24 0 0 0-.355-.689q-.274-.258-.76-.259-.511 0-.898.274-.384.27-.625.721a3.2 3.2 0 0 0-.324.983 2.8 2.8 0 0 0 0 .941q.082.427.356.682t.763.256m4.549.781-.696-5.455h1.097l.402 4.006h.053l1.74-4.006h1.097l.398 3.988h.053l1.73-3.988h1.097L158.657 168h-1.083l-.454-3.938h-.082L155.277 168zm10.789-7.273h1.331l1.385 5.654h.086l3.245-5.654h1.332L171.158 168h-1.044l.877-5.263h-.068l-3.018 5.252h-.87l-1.265-5.255h-.067l-.881 5.266h-1.044zm9.894 7.383q-.777 0-1.3-.355a1.9 1.9 0 0 1-.735-1.001q-.209-.647-.071-1.503.135-.837.544-1.463a2.95 2.95 0 0 1 1.029-.969 2.8 2.8 0 0 1 1.382-.345q.777 0 1.296.359a1.9 1.9 0 0 1 .735 1.005q.213.647.075 1.506a3.66 3.66 0 0 1-.551 1.456 2.95 2.95 0 0 1-1.03.966 2.8 2.8 0 0 1-1.374.344m.06-.891a1.5 1.5 0 0 0 .892-.27 2.06 2.06 0 0 0 .625-.717 3.1 3.1 0 0 0 .33-.981 2.7 2.7 0 0 0-.003-.941 1.24 1.24 0 0 0-.356-.689q-.273-.258-.76-.259-.51 0-.898.274-.384.27-.625.721a3.2 3.2 0 0 0-.323.983 2.7 2.7 0 0 0 0 .941q.082.427.355.682t.763.256m8.923-4.674L180.976 168h-1.137l-1.072-5.455h1.097l.682 4.198h.057l2.077-4.198zm2.13 5.565q-.803 0-1.328-.344a1.84 1.84 0 0 1-.732-.977q-.21-.632-.067-1.481a3.8 3.8 0 0 1 .557-1.477 3.06 3.06 0 0 1 1.044-.998 2.75 2.75 0 0 1 1.389-.359q.46 0 .87.153.411.153.699.48t.398.848q.114.519-.007 1.261l-.061.376h-4.339l.124-.795h3.296a1.47 1.47 0 0 0-.039-.742 1 1 0 0 0-.391-.515q-.273-.188-.689-.188-.426 0-.795.223-.37.224-.618.572-.246.344-.309.71l-.124.728q-.093.597.031.959a.9.9 0 0 0 .448.526q.32.163.799.163.308 0 .572-.085.266-.089.472-.26.206-.174.344-.433l.973.181q-.195.445-.561.778-.365.33-.863.515a3.2 3.2 0 0 1-1.093.181m8.218-4.233-.991.171a1 1 0 0 0-.131-.356.7.7 0 0 0-.295-.269q-.198-.107-.529-.107-.458 0-.803.21-.34.209-.39.532-.047.263.124.426.171.16.6.267l.838.199q.725.174 1.037.543.316.366.22.952a1.66 1.66 0 0 1-.426.863q-.34.375-.873.589a3.2 3.2 0 0 1-1.186.213q-.932 0-1.449-.394-.518-.395-.533-1.115l1.051-.156q.028.401.288.607.263.202.728.202.532.004.891-.223.358-.228.409-.551a.47.47 0 0 0-.114-.419q-.153-.166-.54-.256l-.881-.202q-.738-.174-1.044-.561-.305-.387-.206-.973a1.6 1.6 0 0 1 .405-.835q.33-.359.835-.557a3 3 0 0 1 1.115-.203q.89 0 1.339.384.447.38.511 1.019m4.194 4.123-.696-5.455h1.097l.402 4.006h.053l1.74-4.006h1.097l.398 3.988h.053l1.73-3.988h1.097L202.865 168h-1.083l-.454-3.938h-.082L199.485 168zm6.959 0 .91-5.455h1.061l-.909 5.455zm1.662-6.307a.65.65 0 0 1-.468-.184.56.56 0 0 1-.174-.448.63.63 0 0 1 .22-.447.69.69 0 0 1 .479-.189q.278 0 .465.189a.57.57 0 0 1 .178.447.64.64 0 0 1-.22.448.7.7 0 0 1-.48.184m4.174.852-.139.853h-2.979l.139-.853zm-1.967-1.306h1.061l-.859 5.159q-.05.309.018.466a.38.38 0 0 0 .206.209.9.9 0 0 0 .316.053q.128 0 .224-.017l.152-.029.057.877a2 2 0 0 1-.288.071 2 2 0 0 1-.433.043 1.7 1.7 0 0 1-.756-.149 1.07 1.07 0 0 1-.504-.483q-.168-.327-.082-.82zm3.838 3.522-.533 3.239h-1.062l1.208-7.273h1.047l-.447 2.706h.067q.26-.444.696-.699.441-.26 1.08-.26.56 0 .941.231.383.231.54.689.16.454.049 1.137l-.582 3.469h-1.062l.554-3.342q.099-.6-.156-.93-.256-.334-.799-.334-.38 0-.703.16a1.47 1.47 0 0 0-.54.469 1.8 1.8 0 0 0-.298.738m7.621-3.089.157-.945h5.628l-.156.945h-2.269L223.001 168h-1.094l1.051-6.328zm5.626 6.328.909-5.455h1.062L227.38 168zm1.662-6.307a.65.65 0 0 1-.468-.184.56.56 0 0 1-.174-.448.62.62 0 0 1 .22-.447.69.69 0 0 1 .479-.189q.278 0 .465.189a.57.57 0 0 1 .178.447.64.64 0 0 1-.22.448.7.7 0 0 1-.48.184m.722 6.307.909-5.455h1.019l-.149.888h.068q.248-.45.674-.703.43-.255.973-.256.54 0 .871.256.334.256.436.703h.057q.262-.44.735-.699a2.2 2.2 0 0 1 1.062-.26q.735 0 1.129.469.398.465.242 1.399l-.611 3.658h-1.065l.596-3.558q.089-.558-.17-.803-.26-.248-.679-.248-.518 0-.859.319a1.36 1.36 0 0 0-.419.813l-.586 3.477h-1.055l.608-3.626q.071-.447-.164-.713-.23-.27-.674-.27-.303 0-.586.159a1.534 1.534 0 0 0-.739 1.087l-.561 3.363zm11.061.11q-.803 0-1.328-.344a1.84 1.84 0 0 1-.732-.977q-.209-.632-.067-1.481a3.8 3.8 0 0 1 .558-1.477 3.06 3.06 0 0 1 1.044-.998 2.75 2.75 0 0 1 1.388-.359q.462 0 .87.153.412.153.7.48.287.326.397.848.114.519-.007 1.261l-.06.376h-4.34l.125-.795h3.295q.075-.419-.039-.742a1 1 0 0 0-.391-.515q-.273-.188-.688-.188-.427 0-.796.223-.369.224-.618.572-.245.344-.309.71l-.124.728q-.093.597.032.959a.9.9 0 0 0 .447.526q.32.163.799.163.31 0 .572-.085.267-.089.472-.26.207-.174.345-.433l.973.181q-.195.445-.561.778-.366.33-.863.515a3.2 3.2 0 0 1-1.094.181"/><path fill="#888c96" d="M311.53 164.53a.75.75 0 0 0 0-1.06l-4.773-4.773a.749.749 0 1 0-1.06 1.06l4.242 4.243-4.242 4.243a.749.749 0 1 0 1.06 1.06zm-60.03-1.28a.75.75 0 0 0 0 1.5v-1.5m59.5.75v-.75h-59.5v1.5H311z"/><path stroke="#888c96" stroke-linecap="round" stroke-width="1.5" d="M503 164h-91"/><path fill="#353841" d="m511.573 168 1.208-7.273h4.51l-.157.945h-3.412l-.37 2.216h3.09l-.156.941h-3.09L512.67 168zm5.664 0 .909-5.455h1.062l-.909 5.455zm1.662-6.307a.65.65 0 0 1-.469-.184.57.57 0 0 1-.174-.448.63.63 0 0 1 .221-.447.69.69 0 0 1 .479-.189q.277 0 .465.189a.57.57 0 0 1 .178.447.64.64 0 0 1-.22.448.7.7 0 0 1-.48.184m2.466.852.852 2.124 1.566-2.124h1.161l-2.155 2.728 1.26 2.727h-1.161l-.888-2.038-1.566 2.038h-1.164l2.152-2.727-1.222-2.728zm5.772 5.565q-.803 0-1.328-.344a1.83 1.83 0 0 1-.731-.977q-.21-.632-.068-1.481a3.8 3.8 0 0 1 .558-1.477 3.06 3.06 0 0 1 1.044-.998 2.75 2.75 0 0 1 1.388-.359q.462 0 .87.153.412.153.7.48.287.326.397.848.114.519-.007 1.261l-.06.376h-4.34l.125-.795h3.295q.075-.419-.039-.742a1 1 0 0 0-.39-.515q-.274-.188-.689-.188-.426 0-.796.223-.369.224-.618.572-.244.344-.309.71l-.124.728q-.093.597.032.959a.9.9 0 0 0 .447.526q.32.163.799.163.31 0 .572-.085.267-.089.472-.26.207-.174.345-.433l.973.181q-.195.445-.561.778-.366.33-.863.515a3.2 3.2 0 0 1-1.094.181m5.477-.003q-.664 0-1.126-.338-.458-.34-.65-.969-.187-.632-.042-1.517.149-.883.55-1.512.402-.629.973-.963a2.4 2.4 0 0 1 1.232-.334q.509 0 .789.171.284.166.419.391.135.223.202.394h.061l.451-2.703h1.061L535.327 168h-1.037l.146-.849h-.089a3.4 3.4 0 0 1-.345.398 2 2 0 0 1-.553.391q-.338.167-.835.167m.359-.906q.457 0 .82-.241a1.9 1.9 0 0 0 .607-.679q.245-.433.341-1.008.096-.569-.003-.995a1.2 1.2 0 0 0-.384-.664q-.284-.237-.749-.238-.48 0-.835.249a1.9 1.9 0 0 0-.582.678 3.3 3.3 0 0 0-.313.97 2.8 2.8 0 0 0-.007.983q.086.437.359.693.273.252.746.252m6.378.799 1.207-7.273h2.592q.846 0 1.353.291.512.288.703.803.196.511.086 1.186a2.75 2.75 0 0 1-.48 1.172 2.43 2.43 0 0 1-.969.788q-.605.28-1.449.281h-1.964l.164-.945h1.864q.536 0 .895-.152.358-.153.561-.444a1.64 1.64 0 0 0 .27-.7q.068-.415-.039-.714a.82.82 0 0 0-.416-.461q-.31-.164-.848-.164h-1.378L540.448 168zm4.133-3.281 1.254 3.281h-1.25l-1.222-3.281zm3.719 3.402q-.518 0-.905-.192a1.24 1.24 0 0 1-.572-.565q-.185-.37-.096-.905.078-.462.305-.76.23-.298.562-.472a2.8 2.8 0 0 1 .717-.267q.387-.089.781-.131.497-.057.806-.096a1.4 1.4 0 0 0 .469-.121.36.36 0 0 0 .188-.277v-.025q.075-.461-.135-.717-.205-.26-.717-.259-.533 0-.895.234a1.6 1.6 0 0 0-.529.526l-.952-.228q.256-.496.65-.802a2.6 2.6 0 0 1 .87-.448q.472-.142.966-.142.327 0 .678.079.352.074.639.277.292.201.434.578.142.373.042.97l-.6 3.622h-1.037l.128-.746h-.043a2.012 2.012 0 0 1-.958.735q-.345.132-.796.132m.362-.853q.444 0 .785-.174a1.6 1.6 0 0 0 .558-.454 1.4 1.4 0 0 0 .266-.607l.117-.703a.7.7 0 0 1-.238.103 4 4 0 0 1-.376.081q-.21.036-.412.061a8 8 0 0 0-.33.046q-.313.04-.586.131-.27.093-.451.266a.77.77 0 0 0-.227.455q-.064.394.188.597.255.198.706.198m5.246-2.507-.532 3.239h-1.062l.909-5.455h1.019l-.149.888h.068q.259-.436.706-.696.451-.263 1.066-.263.553 0 .93.235.38.23.536.689.16.458.05 1.133L555.77 168h-1.062l.557-3.342q.096-.593-.156-.926-.249-.338-.792-.338-.37 0-.685.16a1.44 1.44 0 0 0-.529.469 1.9 1.9 0 0 0-.292.738m6.215 5.398q-.654 0-1.094-.17a1.8 1.8 0 0 1-.689-.451 1.6 1.6 0 0 1-.344-.615l.98-.376q.071.156.199.33a1 1 0 0 0 .38.302q.255.124.699.124.604 0 1.055-.294.452-.292.558-.931l.167-1.072h-.068q-.12.174-.334.387a1.9 1.9 0 0 1-.55.369q-.337.156-.838.156-.647 0-1.115-.302-.465-.305-.668-.898-.202-.597-.057-1.467.143-.87.54-1.491.402-.621.973-.952a2.4 2.4 0 0 1 1.232-.334q.509 0 .792.171.288.166.426.391.139.223.203.394h.078l.145-.885h1.041l-.923 5.576q-.114.702-.515 1.154a2.4 2.4 0 0 1-.991.667q-.59.217-1.282.217m.483-3.121q.455 0 .81-.213.359-.218.596-.618.238-.405.33-.97.092-.55-.01-.969a1.16 1.16 0 0 0-.387-.654q-.285-.237-.742-.238-.483 0-.839.249a1.84 1.84 0 0 0-.578.668q-.22.422-.309.944-.086.536.003.941.093.405.37.632.276.228.756.228m5.969 1.072q-.802 0-1.328-.344a1.83 1.83 0 0 1-.731-.977q-.21-.632-.068-1.481a3.8 3.8 0 0 1 .558-1.477 3.06 3.06 0 0 1 1.044-.998 2.75 2.75 0 0 1 1.388-.359q.462 0 .87.153.412.153.7.48.287.326.398.848.113.519-.007 1.261l-.061.376h-4.339l.124-.795h3.296a1.45 1.45 0 0 0-.04-.742 1 1 0 0 0-.39-.515q-.273-.188-.689-.188-.426 0-.796.223-.37.224-.617.572-.246.344-.309.71l-.125.728q-.092.597.032.959a.9.9 0 0 0 .448.526q.32.163.799.163.309 0 .571-.085.266-.089.473-.26.206-.174.344-.433l.973.181q-.195.445-.561.778-.365.33-.863.515a3.2 3.2 0 0 1-1.094.181"/><path stroke="#888c96" stroke-linecap="round" stroke-width="1.5" d="M668 164h-91"/><path fill="#3d50f5" d="M54.47 97.97a.75.75 0 0 0 0 1.06l4.773 4.773a.75.75 0 0 0 1.06-1.06L56.061 98.5l4.242-4.243a.75.75 0 0 0-1.06-1.06zm91.53.53v-.75H55v1.5h91z"/><path fill="#0f1c8a" d="M156.324 94.273V103h-1.274v-8.727zm3.487 8.872q-.622 0-1.125-.23a1.9 1.9 0 0 1-.797-.678q-.29-.442-.29-1.086 0-.555.213-.912.213-.359.576-.567a3 3 0 0 1 .809-.316q.448-.105.912-.161l.955-.111q.367-.047.532-.15.167-.1.167-.332v-.03q0-.558-.316-.865-.31-.306-.929-.306-.643 0-1.014.285a1.53 1.53 0 0 0-.507.626l-1.198-.272a2.3 2.3 0 0 1 .623-.963q.413-.371.95-.537.537-.17 1.129-.17.393 0 .831.093.443.09.827.333.387.242.635.694.247.447.247 1.163V103h-1.244v-.895h-.051a1.8 1.8 0 0 1-.371.486 2 2 0 0 1-.635.396 2.5 2.5 0 0 1-.929.158m.277-1.023q.528 0 .903-.209.38-.209.576-.545.2-.34.2-.729v-.843a.7.7 0 0 1-.264.127q-.192.056-.439.098l-.482.073-.392.051a3 3 0 0 0-.677.158q-.303.11-.486.319-.18.205-.179.546 0 .473.349.716.35.238.891.238m9.423-4.07-1.155.205a1.4 1.4 0 0 0-.23-.422 1.14 1.14 0 0 0-.418-.328 1.5 1.5 0 0 0-.66-.128q-.541 0-.904.243-.362.24-.362.618 0 .328.243.529.243.2.784.328l1.04.238q.903.21 1.347.644t.443 1.129q0 .588-.341 1.048-.337.456-.942.716-.601.26-1.393.26-1.1 0-1.794-.469-.696-.472-.853-1.342l1.232-.187q.115.481.473.728.358.243.933.243.626 0 1.001-.26.375-.264.375-.643a.67.67 0 0 0-.23-.516q-.225-.209-.694-.315l-1.108-.243q-.917-.21-1.355-.665-.435-.456-.435-1.155 0-.579.324-1.014a2.1 2.1 0 0 1 .895-.677q.57-.248 1.308-.248 1.06 0 1.67.46.61.457.806 1.224m4.452-1.598v1.023h-3.575v-1.023zm-2.616-1.568h1.274v6.192q0 .37.111.558a.57.57 0 0 0 .285.252q.179.064.388.064.154 0 .268-.022l.179-.034.23 1.053a2.523 2.523 0 0 1-.826.136 2.2 2.2 0 0 1-.938-.179 1.6 1.6 0 0 1-.703-.579q-.268-.393-.268-.985zm10.231-.613V103h-1.321v-7.406h-.051l-2.088 1.363v-1.261l2.178-1.423zm6.564 4.84V103h-1.274v-8.727h1.257v3.247h.081a1.9 1.9 0 0 1 .703-.84q.473-.31 1.236-.31.674 0 1.176.276.507.277.784.827.281.546.281 1.364V103h-1.274v-4.01q0-.72-.37-1.116-.371-.4-1.032-.401-.452 0-.809.192a1.4 1.4 0 0 0-.559.562q-.2.367-.2.887m8.57 4.019q-.92 0-1.607-.422a2.84 2.84 0 0 1-1.065-1.18q-.38-.759-.379-1.773 0-1.019.379-1.781a2.84 2.84 0 0 1 1.065-1.185q.686-.422 1.607-.422t1.606.422q.687.422 1.066 1.185.379.762.379 1.781 0 1.014-.379 1.773a2.84 2.84 0 0 1-1.066 1.18q-.686.422-1.606.422m.004-1.07q.596 0 .989-.315.392-.315.579-.839a3.3 3.3 0 0 0 .192-1.155q0-.627-.192-1.15a1.9 1.9 0 0 0-.579-.849q-.393-.32-.989-.32-.601 0-.997.32a1.9 1.9 0 0 0-.584.848q-.187.525-.187 1.15 0 .631.187 1.156.192.524.584.839.396.315.997.315m8.483-1.776v-3.832h1.279V103h-1.253v-1.134h-.068q-.226.525-.725.874-.494.345-1.231.345-.631 0-1.117-.277a1.94 1.94 0 0 1-.758-.831q-.273-.549-.273-1.359v-4.163h1.274v4.009q0 .67.371 1.066.37.396.963.396.358 0 .712-.179.358-.179.592-.541.238-.363.234-.92m2.859 2.714v-6.546h1.231v1.04h.069a1.58 1.58 0 0 1 .63-.83 1.8 1.8 0 0 1 1.032-.308 6 6 0 0 1 .541.03v1.22a2 2 0 0 0-.273-.048 3 3 0 0 0-.392-.03q-.452 0-.805.192a1.42 1.42 0 0 0-.759 1.283V103z"/><path fill="#3d50f5" d="M311.53 99.03a.75.75 0 0 0 0-1.06l-4.773-4.773a.75.75 0 1 0-1.06 1.06l4.242 4.243-4.242 4.243a.749.749 0 1 0 1.06 1.06zm-.53-.53v-.75h-91v1.5h91z"/><rect width="50" height="26" x="293.5" y="56.5" fill="#fff" rx="5.5"/><rect width="50" height="26" x="293.5" y="56.5" stroke="#555962" rx="5.5"/><path fill="#23262f" d="M313.033 65.273V74h-1.407l-4.112-5.945h-.072V74h-1.581v-8.727h1.415l4.108 5.949h.076v-5.95zm4.509 8.855q-.959 0-1.662-.422a2.87 2.87 0 0 1-1.091-1.18q-.383-.759-.383-1.773t.383-1.777a2.87 2.87 0 0 1 1.091-1.185q.704-.422 1.662-.422.959 0 1.662.422t1.087 1.185q.387.762.388 1.777 0 1.014-.388 1.773-.384.758-1.087 1.18-.704.422-1.662.422m.009-1.236q.52 0 .869-.285.35-.29.52-.776.174-.486.175-1.082 0-.601-.175-1.087a1.7 1.7 0 0 0-.52-.78q-.35-.29-.869-.29-.533 0-.887.29a1.75 1.75 0 0 0-.524.78q-.17.486-.17 1.087 0 .596.17 1.082.175.486.524.775.354.286.887.286m5.6 1.108-1.849-6.546h1.572l1.151 4.603h.06l1.176-4.603h1.555l1.176 4.577h.064l1.134-4.577h1.576L328.913 74h-1.607l-1.227-4.423h-.09L324.762 74z"/><rect width="56" height="26" x="647.5" y="56.5" fill="#fff" rx="5.5"/><rect width="56" height="26" x="647.5" y="56.5" stroke="#555962" rx="5.5"/><path fill="#23262f" d="M659.861 65.273h1.934l2.591 6.324h.103l2.591-6.324h1.934V74h-1.517v-5.996h-.081l-2.412 5.97h-1.133l-2.412-5.983h-.081V74h-1.517zm12.69 8.86q-.622 0-1.121-.222a1.83 1.83 0 0 1-.784-.665q-.285-.44-.285-1.083 0-.553.204-.916.205-.361.559-.58.353-.216.796-.328.448-.114.925-.166.576-.06.933-.106.358-.05.52-.154.166-.106.166-.328v-.025q0-.482-.285-.746-.286-.264-.822-.264-.567 0-.9.247-.327.248-.443.584l-1.44-.205q.17-.597.562-.997a2.45 2.45 0 0 1 .959-.605 3.7 3.7 0 0 1 1.253-.205q.473 0 .942.111.468.11.856.367.388.25.622.686.24.435.239 1.086V74h-1.483v-.9h-.051a1.9 1.9 0 0 1-.396.512q-.252.235-.635.38-.38.14-.891.14m.401-1.134q.464 0 .805-.184.34-.188.524-.494a1.26 1.26 0 0 0 .188-.669v-.771a.7.7 0 0 1-.247.11 4 4 0 0 1-.384.09q-.213.038-.422.068l-.362.051q-.345.047-.618.154-.273.105-.43.298a.73.73 0 0 0-.158.486q0 .426.311.643t.793.218M677.558 74v-6.546h1.496v1.092h.068a1.63 1.63 0 0 1 .614-.874 1.7 1.7 0 0 1 1.001-.311q.128 0 .286.013.162.007.268.03v1.418a1.6 1.6 0 0 0-.311-.06 3 3 0 0 0-.405-.029q-.422 0-.758.183-.333.18-.524.499a1.4 1.4 0 0 0-.192.737V74zm8.037 0 3.712-7.347v-.06h-4.308v-1.32h5.944v1.35L687.236 74z"/><rect width="55" height="26" x="376.5" y="56.5" fill="#fff" rx="5.5"/><rect width="55" height="26" x="376.5" y="56.5" stroke="#555962" rx="5.5"/><path fill="#23262f" d="M388.861 65.273h1.934l2.591 6.324h.103l2.591-6.324h1.934V74h-1.517v-5.996h-.081l-2.412 5.97h-1.133l-2.412-5.983h-.081V74h-1.517zm12.69 8.86q-.622 0-1.121-.222a1.83 1.83 0 0 1-.784-.665q-.285-.44-.285-1.083 0-.553.204-.916.205-.361.559-.58.353-.216.796-.328.448-.114.925-.166.576-.06.933-.106.358-.05.52-.154.166-.106.166-.328v-.025q0-.482-.285-.746-.286-.264-.822-.264-.567 0-.9.247-.327.248-.443.584l-1.44-.205q.17-.597.562-.997a2.45 2.45 0 0 1 .959-.605 3.7 3.7 0 0 1 1.253-.205q.473 0 .942.111.469.11.856.367.388.25.622.686.24.435.239 1.086V74h-1.483v-.9h-.051a1.9 1.9 0 0 1-.396.512q-.252.235-.635.38-.38.14-.891.14m.401-1.134q.464 0 .805-.184.34-.188.524-.494a1.26 1.26 0 0 0 .188-.669v-.771a.7.7 0 0 1-.247.11 4 4 0 0 1-.384.09q-.213.038-.422.068l-.362.051q-.345.047-.618.154-.273.105-.43.298a.73.73 0 0 0-.158.486q0 .426.311.643t.793.218M406.558 74v-6.546h1.496v1.092h.068a1.63 1.63 0 0 1 .614-.874 1.7 1.7 0 0 1 1.001-.311q.128 0 .286.013.162.007.268.03v1.418a1.6 1.6 0 0 0-.311-.06 3 3 0 0 0-.405-.029q-.422 0-.758.183-.333.18-.524.499a1.4 1.4 0 0 0-.192.737V74zm11.267-8.727V74h-1.581v-7.189h-.051l-2.041 1.304v-1.449l2.169-1.393z"/><path stroke="#c1c3c8" d="M360 182V14"/><path fill="#23262f" d="M151.567 40V29.09h4.091q1.257 0 2.109.438.858.436 1.295 1.225.442.782.442 1.827 0 1.05-.447 1.822-.442.767-1.305 1.188-.863.415-2.121.415h-2.913v-1.64h2.647q.735 0 1.204-.203.468-.209.692-.602.23-.4.23-.98t-.23-.99a1.45 1.45 0 0 0-.697-.63q-.47-.218-1.21-.218h-1.811V40zm5.636-4.943 2.7 4.943h-2.205l-2.652-4.943zm7.54 5.103q-1.231 0-2.126-.512a3.47 3.47 0 0 1-1.369-1.46q-.479-.947-.479-2.231 0-1.262.479-2.216a3.64 3.64 0 0 1 1.353-1.491q.868-.538 2.041-.538.756 0 1.427.245.677.24 1.193.745a3.5 3.5 0 0 1 .821 1.29q.298.777.298 1.853v.591h-6.706v-1.3h4.858a2.1 2.1 0 0 0-.24-.985 1.75 1.75 0 0 0-.655-.687q-.415-.25-.97-.25-.591 0-1.038.287a2 2 0 0 0-.698.746q-.246.458-.251 1.007v1.135q0 .713.261 1.225.262.505.73.777.469.267 1.097.267.422 0 .762-.117.341-.123.591-.357.25-.235.379-.581l1.8.202q-.17.714-.65 1.247a3.2 3.2 0 0 1-1.214.82q-.741.288-1.694.288m7.624.005a3.4 3.4 0 0 1-1.401-.277 2.3 2.3 0 0 1-.98-.83q-.357-.55-.357-1.354 0-.693.255-1.145.256-.453.698-.724.442-.273.996-.41a8 8 0 0 1 1.156-.208q.72-.075 1.167-.133.447-.064.65-.192.207-.135.207-.41v-.032q0-.602-.357-.933-.356-.33-1.028-.33-.708 0-1.124.31-.41.308-.554.729l-1.8-.256q.213-.746.703-1.246.49-.507 1.199-.757.708-.255 1.566-.255.59 0 1.177.138.586.138 1.071.458.485.315.777.858.299.543.299 1.358V40h-1.854v-1.124h-.064q-.175.34-.495.64-.314.293-.794.473a3.2 3.2 0 0 1-1.113.176m.5-1.417q.58 0 1.007-.229.426-.234.655-.618.235-.383.235-.836v-.964a.9.9 0 0 1-.309.138q-.213.064-.48.112-.266.048-.527.085t-.453.064a3.4 3.4 0 0 0-.772.192 1.3 1.3 0 0 0-.538.373q-.198.234-.197.607 0 .533.389.805.388.27.99.271m7.687-9.657V40h-1.928V29.09zm6.068 2.727v1.492h-4.703v-1.492zm-3.542-1.96h1.928v7.681q0 .39.117.597a.64.64 0 0 0 .32.277q.197.075.437.074.181 0 .33-.026.154-.027.234-.048l.325 1.507q-.154.054-.442.117a3.6 3.6 0 0 1-.692.075 3.14 3.14 0 0 1-1.305-.218 2.04 2.04 0 0 1-.922-.757q-.335-.51-.33-1.278zM188.235 40v-8.182h1.928V40zm.969-9.343q-.458 0-.788-.304a.98.98 0 0 1-.33-.74q0-.437.33-.74.33-.31.788-.31.463 0 .789.31.33.303.33.74 0 .431-.33.74-.326.304-.789.304M192.146 40v-8.182h1.843v1.39h.096q.255-.702.847-1.097.591-.4 1.411-.4.831 0 1.401.406.576.399.81 1.092h.085a2.24 2.24 0 0 1 .916-1.087q.65-.41 1.54-.41 1.13 0 1.843.713.714.714.714 2.083V40h-1.934v-5.193q0-.763-.405-1.114-.405-.357-.99-.357-.699 0-1.092.437-.39.431-.389 1.124V40h-1.891v-5.273q0-.634-.384-1.012-.378-.38-.991-.379-.415 0-.756.213a1.5 1.5 0 0 0-.543.592 1.85 1.85 0 0 0-.203.884V40zm17.084.16q-1.23 0-2.125-.512a3.46 3.46 0 0 1-1.369-1.46q-.48-.947-.48-2.231 0-1.262.48-2.216a3.6 3.6 0 0 1 1.353-1.491q.868-.538 2.04-.538.756 0 1.427.245.676.24 1.194.745.522.506.82 1.29.298.777.298 1.853v.591h-6.706v-1.3h4.858a2.1 2.1 0 0 0-.24-.985 1.74 1.74 0 0 0-.655-.687q-.415-.25-.969-.25-.592 0-1.039.287a2 2 0 0 0-.698.746q-.245.458-.25 1.007v1.135q0 .713.261 1.225.261.505.729.777.47.267 1.098.267.42 0 .761-.117.342-.123.592-.357.25-.235.378-.581l1.8.202q-.17.714-.65 1.247-.474.527-1.214.82-.74.288-1.694.288M515.136 40V29.09h1.976v4.62h5.055v-4.62h1.981V40h-1.981v-4.634h-5.055V40zm11.076 0v-8.182h1.929V40zm.97-9.343q-.458 0-.788-.304a.98.98 0 0 1-.331-.74q0-.437.331-.74.33-.31.788-.31a1.1 1.1 0 0 1 .788.31.97.97 0 0 1 .331.74.98.98 0 0 1-.331.74 1.1 1.1 0 0 1-.788.304m9.408 3.324-1.758.192a1.39 1.39 0 0 0-.751-.88 1.8 1.8 0 0 0-.756-.143q-.602 0-1.012.26-.405.262-.4.677a.71.71 0 0 0 .261.581q.272.225.895.367l1.396.299q1.16.25 1.726.793.57.544.575 1.423-.005.773-.453 1.363-.442.586-1.23.917-.79.33-1.811.33-1.503 0-2.419-.629-.915-.633-1.092-1.763l1.881-.181q.128.555.543.836.415.282 1.081.283.687 0 1.103-.283.421-.282.421-.698a.73.73 0 0 0-.272-.58q-.265-.23-.831-.352l-1.395-.293q-1.178-.245-1.742-.825-.565-.585-.56-1.481-.005-.756.411-1.31.42-.56 1.166-.863.751-.31 1.731-.31 1.439 0 2.264.613.831.612 1.028 1.657m5.852-2.163v1.492h-4.704v-1.492zm-3.543-1.96h1.929v7.681q0 .39.117.597a.63.63 0 0 0 .319.277q.197.075.437.074.181 0 .33-.026a3 3 0 0 0 .235-.048l.325 1.507a4 4 0 0 1-.442.117 3.6 3.6 0 0 1-.693.075 3.14 3.14 0 0 1-1.305-.218 2.03 2.03 0 0 1-.921-.757q-.336-.51-.331-1.278zm8.636 10.302q-1.198 0-2.077-.527a3.6 3.6 0 0 1-1.364-1.476q-.479-.948-.479-2.216t.479-2.221a3.57 3.57 0 0 1 1.364-1.481q.879-.527 2.077-.527 1.199 0 2.078.527a3.54 3.54 0 0 1 1.358 1.48q.485.954.485 2.222t-.485 2.216a3.55 3.55 0 0 1-1.358 1.476q-.88.527-2.078.527m.011-1.545q.65 0 1.087-.357.436-.362.649-.97.219-.606.219-1.352 0-.751-.219-1.359-.213-.612-.649-.974-.438-.363-1.087-.363-.666 0-1.108.363-.437.362-.655.974a4.1 4.1 0 0 0-.213 1.359q0 .745.213 1.353.218.607.655.97.442.356 1.108.356M553.092 40v-8.182h1.87v1.364h.085q.224-.71.767-1.092.549-.39 1.252-.389.16 0 .357.016.202.011.336.037v1.774a2 2 0 0 0-.389-.075 4 4 0 0 0-.506-.037q-.528 0-.949.23-.415.222-.655.623-.24.399-.239.921V40zm7.395 3.068q-.394 0-.73-.064a2.7 2.7 0 0 1-.527-.138l.447-1.502q.421.122.752.117a.92.92 0 0 0 .58-.208q.256-.197.432-.66l.165-.443-2.967-8.352h2.045l1.886 6.18h.085l1.891-6.18h2.051l-3.276 9.173a3.7 3.7 0 0 1-.607 1.113q-.378.469-.927.714-.543.25-1.3.25"/></g><defs><clipPath id="a"><path fill="#fff" d="M0 0h720v196H0z"/></clipPath><clipPath id="b"><path fill="#fff" d="M0 0h720v314H0z"/></clipPath><clipPath id="c"><path fill="#fff" d="M55 114h256v32H55z"/></clipPath><clipPath id="d"><path fill="#fff" d="M55 114h32v32H55z"/></clipPath><clipPath id="e"><path fill="#fff" d="M87 114h32v32H87z"/></clipPath><clipPath id="f"><path fill="#fff" d="M119 114h32v32h-32z"/></clipPath><clipPath id="g"><path fill="#fff" d="M151 114h32v32h-32z"/></clipPath><clipPath id="h"><path fill="#fff" d="M183 114h32v32h-32z"/></clipPath><clipPath id="i"><path fill="#fff" d="M215 114h32v32h-32z"/></clipPath><clipPath id="j"><path fill="#fff" d="M247 114h32v32h-32z"/></clipPath><clipPath id="k"><path fill="#fff" d="M279 114h32v32h-32z"/></clipPath><clipPath id="m"><rect width="256" height="32" x="412" y="114" fill="#fff" rx="6"/></clipPath><clipPath id="n"><path fill="#fff" d="M412 114h32v32h-32z"/></clipPath><clipPath id="o"><path fill="#fff" d="M444 114h32v32h-32z"/></clipPath><clipPath id="p"><path fill="#fff" d="M476 114h32v32h-32z"/></clipPath><clipPath id="q"><path fill="#fff" d="M508 114h32v32h-32z"/></clipPath><clipPath id="r"><path fill="#fff" d="M540 114h32v32h-32z"/></clipPath><clipPath id="s"><path fill="#fff" d="M572 114h32v32h-32z"/></clipPath><clipPath id="t"><path fill="#fff" d="M604 114h32v32h-32z"/></clipPath><clipPath id="u"><path fill="#fff" d="M636 114h32v32h-32z"/></clipPath></defs></svg>