<svg xmlns="http://www.w3.org/2000/svg" width="720" height="148" fill="none"><g clip-path="url(#a)"><path fill="#17181c" d="M0 0h720v148H0z"/><g fill="#353841" clip-path="url(#b)" opacity=".5"><path d="M-11 324a1 1 0 1 1 0 2 1 1 0 0 1 0-2M3 324a1 1 0 1 1 0 2 1 1 0 0 1 0-2M17 324a1 1 0 1 1 0 2 1 1 0 0 1 0-2M31 324a1 1 0 1 1 0 2 1 1 0 0 1 0-2M45 324a1 1 0 1 1 0 2 1 1 0 0 1 0-2M59 324a1 1 0 1 1 0 2 1 1 0 0 1 0-2M73 324a1 1 0 1 1 0 2 1 1 0 0 1 0-2M87 324a1 1 0 1 1 0 2 1 1 0 0 1 0-2M101 324a1 1 0 1 1 0 2 1 1 0 0 1 0-2M115 324a1 1 0 1 1 0 2 1 1 0 0 1 0-2M129 324a1 1 0 1 1 0 2 1 1 0 0 1 0-2M143 324a1 1 0 1 1 0 2 1 1 0 0 1 0-2M157 324a1 1 0 1 1 0 2 1 1 0 0 1 0-2M171 324a1 1 0 1 1 0 2 1 1 0 0 1 0-2M185 324a1 1 0 1 1 0 2 1 1 0 0 1 0-2M199 324a1 1 0 1 1 0 2 1 1 0 0 1 0-2M213 324a1 1 0 1 1 0 2 1 1 0 0 1 0-2M227 324a1 1 0 1 1 0 2 1 1 0 0 1 0-2M241 324a1 1 0 1 1 0 2 1 1 0 0 1 0-2M255 324a1 1 0 1 1 0 2 1 1 0 0 1 0-2M269 324a1 1 0 1 1 0 2 1 1 0 0 1 0-2M283 324a1 1 0 1 1 0 2 1 1 0 0 1 0-2M297 324a1 1 0 1 1 0 2 1 1 0 0 1 0-2M311 324a1 1 0 1 1 0 2 1 1 0 0 1 0-2M325 324a1 1 0 1 1 0 2 1 1 0 0 1 0-2M339 324a1 1 0 1 1 0 2 1 1 0 0 1 0-2M353 324a1 1 0 1 1 0 2 1 1 0 0 1 0-2M367 324a1 1 0 1 1 0 2 1 1 0 0 1 0-2M381 324a1 1 0 1 1 0 2 1 1 0 0 1 0-2M395 324a1 1 0 1 1 0 2 1 1 0 0 1 0-2M409 324a1 1 0 1 1 0 2 1 1 0 0 1 0-2M423 324a1 1 0 1 1 0 2 1 1 0 0 1 0-2M437 324a1 1 0 1 1 0 2 1 1 0 0 1 0-2M451 324a1 1 0 1 1 0 2 1 1 0 0 1 0-2M465 324a1 1 0 1 1 0 2 1 1 0 0 1 0-2M479 324a1 1 0 1 1 0 2 1 1 0 0 1 0-2M493 324a1 1 0 1 1 0 2 1 1 0 0 1 0-2M507 324a1 1 0 1 1 0 2 1 1 0 0 1 0-2M521 324a1 1 0 1 1 0 2 1 1 0 0 1 0-2M535 324a1 1 0 1 1 0 2 1 1 0 0 1 0-2M549 324a1 1 0 1 1 0 2 1 1 0 0 1 0-2M563 324a1 1 0 1 1 0 2 1 1 0 0 1 0-2M577 324a1 1 0 1 1 0 2 1 1 0 0 1 0-2M591 324a1 1 0 1 1 0 2 1 1 0 0 1 0-2M605 324a1 1 0 1 1 0 2 1 1 0 0 1 0-2M619 324a1 1 0 1 1 0 2 1 1 0 0 1 0-2M633 324a1 1 0 1 1 0 2 1 1 0 0 1 0-2M647 324a1 1 0 1 1 0 2 1 1 0 0 1 0-2M661 324a1 1 0 1 1 0 2 1 1 0 0 1 0-2M675 324a1 1 0 1 1 0 2 1 1 0 0 1 0-2M689 324a1 1 0 1 1 0 2 1 1 0 0 1 0-2M703 324a1 1 0 1 1 0 2 1 1 0 0 1 0-2M-11 310a1 1 0 1 1 0 2 1 1 0 0 1 0-2M3 310a1 1 0 1 1 0 2 1 1 0 0 1 0-2M17 310a1 1 0 1 1 0 2 1 1 0 0 1 0-2M31 310a1 1 0 1 1 0 2 1 1 0 0 1 0-2M45 310a1 1 0 1 1 0 2 1 1 0 0 1 0-2M59 310a1 1 0 1 1 0 2 1 1 0 0 1 0-2M73 310a1 1 0 1 1 0 2 1 1 0 0 1 0-2M87 310a1 1 0 1 1 0 2 1 1 0 0 1 0-2M101 310a1 1 0 1 1 0 2 1 1 0 0 1 0-2M115 310a1 1 0 1 1 0 2 1 1 0 0 1 0-2M129 310a1 1 0 1 1 0 2 1 1 0 0 1 0-2M143 310a1 1 0 1 1 0 2 1 1 0 0 1 0-2M157 310a1 1 0 1 1 0 2 1 1 0 0 1 0-2M171 310a1 1 0 1 1 0 2 1 1 0 0 1 0-2M185 310a1 1 0 1 1 0 2 1 1 0 0 1 0-2M199 310a1 1 0 1 1 0 2 1 1 0 0 1 0-2M213 310a1 1 0 1 1 0 2 1 1 0 0 1 0-2M227 310a1 1 0 1 1 0 2 1 1 0 0 1 0-2M241 310a1 1 0 1 1 0 2 1 1 0 0 1 0-2M255 310a1 1 0 1 1 0 2 1 1 0 0 1 0-2M269 310a1 1 0 1 1 0 2 1 1 0 0 1 0-2M283 310a1 1 0 1 1 0 2 1 1 0 0 1 0-2M297 310a1 1 0 1 1 0 2 1 1 0 0 1 0-2M311 310a1 1 0 1 1 0 2 1 1 0 0 1 0-2M325 310a1 1 0 1 1 0 2 1 1 0 0 1 0-2M339 310a1 1 0 1 1 0 2 1 1 0 0 1 0-2M353 310a1 1 0 1 1 0 2 1 1 0 0 1 0-2M367 310a1 1 0 1 1 0 2 1 1 0 0 1 0-2M381 310a1 1 0 1 1 0 2 1 1 0 0 1 0-2M395 310a1 1 0 1 1 0 2 1 1 0 0 1 0-2M409 310a1 1 0 1 1 0 2 1 1 0 0 1 0-2M423 310a1 1 0 1 1 0 2 1 1 0 0 1 0-2M437 310a1 1 0 1 1 0 2 1 1 0 0 1 0-2M451 310a1 1 0 1 1 0 2 1 1 0 0 1 0-2M465 310a1 1 0 1 1 0 2 1 1 0 0 1 0-2M479 310a1 1 0 1 1 0 2 1 1 0 0 1 0-2M493 310a1 1 0 1 1 0 2 1 1 0 0 1 0-2M507 310a1 1 0 1 1 0 2 1 1 0 0 1 0-2M521 310a1 1 0 1 1 0 2 1 1 0 0 1 0-2M535 310a1 1 0 1 1 0 2 1 1 0 0 1 0-2M549 310a1 1 0 1 1 0 2 1 1 0 0 1 0-2M563 310a1 1 0 1 1 0 2 1 1 0 0 1 0-2M577 310a1 1 0 1 1 0 2 1 1 0 0 1 0-2M591 310a1 1 0 1 1 0 2 1 1 0 0 1 0-2M605 310a1 1 0 1 1 0 2 1 1 0 0 1 0-2M619 310a1 1 0 1 1 0 2 1 1 0 0 1 0-2M633 310a1 1 0 1 1 0 2 1 1 0 0 1 0-2M647 310a1 1 0 1 1 0 2 1 1 0 0 1 0-2M661 310a1 1 0 1 1 0 2 1 1 0 0 1 0-2M675 310a1 1 0 1 1 0 2 1 1 0 0 1 0-2M689 310a1 1 0 1 1 0 2 1 1 0 0 1 0-2M703 310a1 1 0 1 1 0 2 1 1 0 0 1 0-2M717 310a1 1 0 1 1 0 2 1 1 0 0 1 0-2M-11 296a1 1 0 1 1 0 2 1 1 0 0 1 0-2M3 296a1 1 0 1 1 0 2 1 1 0 0 1 0-2M17 296a1 1 0 1 1 0 2 1 1 0 0 1 0-2M31 296a1 1 0 1 1 0 2 1 1 0 0 1 0-2M45 296a1 1 0 1 1 0 2 1 1 0 0 1 0-2M59 296a1 1 0 1 1 0 2 1 1 0 0 1 0-2M73 296a1 1 0 1 1 0 2 1 1 0 0 1 0-2M87 296a1 1 0 1 1 0 2 1 1 0 0 1 0-2M101 296a1 1 0 1 1 0 2 1 1 0 0 1 0-2M115 296a1 1 0 1 1 0 2 1 1 0 0 1 0-2M129 296a1 1 0 1 1 0 2 1 1 0 0 1 0-2M143 296a1 1 0 1 1 0 2 1 1 0 0 1 0-2M157 296a1 1 0 1 1 0 2 1 1 0 0 1 0-2M171 296a1 1 0 1 1 0 2 1 1 0 0 1 0-2M185 296a1 1 0 1 1 0 2 1 1 0 0 1 0-2M199 296a1 1 0 1 1 0 2 1 1 0 0 1 0-2M213 296a1 1 0 1 1 0 2 1 1 0 0 1 0-2M227 296a1 1 0 1 1 0 2 1 1 0 0 1 0-2M241 296a1 1 0 1 1 0 2 1 1 0 0 1 0-2M255 296a1 1 0 1 1 0 2 1 1 0 0 1 0-2M269 296a1 1 0 1 1 0 2 1 1 0 0 1 0-2M283 296a1 1 0 1 1 0 2 1 1 0 0 1 0-2M297 296a1 1 0 1 1 0 2 1 1 0 0 1 0-2M311 296a1 1 0 1 1 0 2 1 1 0 0 1 0-2M325 296a1 1 0 1 1 0 2 1 1 0 0 1 0-2M339 296a1 1 0 1 1 0 2 1 1 0 0 1 0-2M353 296a1 1 0 1 1 0 2 1 1 0 0 1 0-2M367 296a1 1 0 1 1 0 2 1 1 0 0 1 0-2M381 296a1 1 0 1 1 0 2 1 1 0 0 1 0-2M395 296a1 1 0 1 1 0 2 1 1 0 0 1 0-2M409 296a1 1 0 1 1 0 2 1 1 0 0 1 0-2M423 296a1 1 0 1 1 0 2 1 1 0 0 1 0-2M437 296a1 1 0 1 1 0 2 1 1 0 0 1 0-2M451 296a1 1 0 1 1 0 2 1 1 0 0 1 0-2M465 296a1 1 0 1 1 0 2 1 1 0 0 1 0-2M479 296a1 1 0 1 1 0 2 1 1 0 0 1 0-2M493 296a1 1 0 1 1 0 2 1 1 0 0 1 0-2M507 296a1 1 0 1 1 0 2 1 1 0 0 1 0-2M521 296a1 1 0 1 1 0 2 1 1 0 0 1 0-2M535 296a1 1 0 1 1 0 2 1 1 0 0 1 0-2M549 296a1 1 0 1 1 0 2 1 1 0 0 1 0-2M563 296a1 1 0 1 1 0 2 1 1 0 0 1 0-2M577 296a1 1 0 1 1 0 2 1 1 0 0 1 0-2M591 296a1 1 0 1 1 0 2 1 1 0 0 1 0-2M605 296a1 1 0 1 1 0 2 1 1 0 0 1 0-2M619 296a1 1 0 1 1 0 2 1 1 0 0 1 0-2M633 296a1 1 0 1 1 0 2 1 1 0 0 1 0-2M647 296a1 1 0 1 1 0 2 1 1 0 0 1 0-2M661 296a1 1 0 1 1 0 2 1 1 0 0 1 0-2M675 296a1 1 0 1 1 0 2 1 1 0 0 1 0-2M689 296a1 1 0 1 1 0 2 1 1 0 0 1 0-2M703 296a1 1 0 1 1 0 2 1 1 0 0 1 0-2M717 296a1 1 0 1 1 0 2 1 1 0 0 1 0-2M-11 282a1 1 0 1 1 0 2 1 1 0 0 1 0-2M3 282a1 1 0 1 1 0 2 1 1 0 0 1 0-2M17 282a1 1 0 1 1 0 2 1 1 0 0 1 0-2M31 282a1 1 0 1 1 0 2 1 1 0 0 1 0-2M45 282a1 1 0 1 1 0 2 1 1 0 0 1 0-2M59 282a1 1 0 1 1 0 2 1 1 0 0 1 0-2M73 282a1 1 0 1 1 0 2 1 1 0 0 1 0-2M87 282a1 1 0 1 1 0 2 1 1 0 0 1 0-2M101 282a1 1 0 1 1 0 2 1 1 0 0 1 0-2M115 282a1 1 0 1 1 0 2 1 1 0 0 1 0-2M129 282a1 1 0 1 1 0 2 1 1 0 0 1 0-2M143 282a1 1 0 1 1 0 2 1 1 0 0 1 0-2M157 282a1 1 0 1 1 0 2 1 1 0 0 1 0-2M171 282a1 1 0 1 1 0 2 1 1 0 0 1 0-2M185 282a1 1 0 1 1 0 2 1 1 0 0 1 0-2M199 282a1 1 0 1 1 0 2 1 1 0 0 1 0-2M213 282a1 1 0 1 1 0 2 1 1 0 0 1 0-2M227 282a1 1 0 1 1 0 2 1 1 0 0 1 0-2M241 282a1 1 0 1 1 0 2 1 1 0 0 1 0-2M255 282a1 1 0 1 1 0 2 1 1 0 0 1 0-2M269 282a1 1 0 1 1 0 2 1 1 0 0 1 0-2M283 282a1 1 0 1 1 0 2 1 1 0 0 1 0-2M297 282a1 1 0 1 1 0 2 1 1 0 0 1 0-2M311 282a1 1 0 1 1 0 2 1 1 0 0 1 0-2M325 282a1 1 0 1 1 0 2 1 1 0 0 1 0-2M339 282a1 1 0 1 1 0 2 1 1 0 0 1 0-2M353 282a1 1 0 1 1 0 2 1 1 0 0 1 0-2M367 282a1 1 0 1 1 0 2 1 1 0 0 1 0-2M381 282a1 1 0 1 1 0 2 1 1 0 0 1 0-2M395 282a1 1 0 1 1 0 2 1 1 0 0 1 0-2M409 282a1 1 0 1 1 0 2 1 1 0 0 1 0-2M423 282a1 1 0 1 1 0 2 1 1 0 0 1 0-2M437 282a1 1 0 1 1 0 2 1 1 0 0 1 0-2M451 282a1 1 0 1 1 0 2 1 1 0 0 1 0-2M465 282a1 1 0 1 1 0 2 1 1 0 0 1 0-2M479 282a1 1 0 1 1 0 2 1 1 0 0 1 0-2M493 282a1 1 0 1 1 0 2 1 1 0 0 1 0-2M507 282a1 1 0 1 1 0 2 1 1 0 0 1 0-2M521 282a1 1 0 1 1 0 2 1 1 0 0 1 0-2M535 282a1 1 0 1 1 0 2 1 1 0 0 1 0-2M549 282a1 1 0 1 1 0 2 1 1 0 0 1 0-2M563 282a1 1 0 1 1 0 2 1 1 0 0 1 0-2M577 282a1 1 0 1 1 0 2 1 1 0 0 1 0-2M591 282a1 1 0 1 1 0 2 1 1 0 0 1 0-2M605 282a1 1 0 1 1 0 2 1 1 0 0 1 0-2M619 282a1 1 0 1 1 0 2 1 1 0 0 1 0-2M633 282a1 1 0 1 1 0 2 1 1 0 0 1 0-2M647 282a1 1 0 1 1 0 2 1 1 0 0 1 0-2M661 282a1 1 0 1 1 0 2 1 1 0 0 1 0-2M675 282a1 1 0 1 1 0 2 1 1 0 0 1 0-2M689 282a1 1 0 1 1 0 2 1 1 0 0 1 0-2M703 282a1 1 0 1 1 0 2 1 1 0 0 1 0-2M717 282a1 1 0 1 1 0 2 1 1 0 0 1 0-2M-11 268a1 1 0 1 1 0 2 1 1 0 0 1 0-2M3 268a1 1 0 1 1 0 2 1 1 0 0 1 0-2M17 268a1 1 0 1 1 0 2 1 1 0 0 1 0-2M31 268a1 1 0 1 1 0 2 1 1 0 0 1 0-2M45 268a1 1 0 1 1 0 2 1 1 0 0 1 0-2M59 268a1 1 0 1 1 0 2 1 1 0 0 1 0-2M73 268a1 1 0 1 1 0 2 1 1 0 0 1 0-2M87 268a1 1 0 1 1 0 2 1 1 0 0 1 0-2M101 268a1 1 0 1 1 0 2 1 1 0 0 1 0-2M115 268a1 1 0 1 1 0 2 1 1 0 0 1 0-2M129 268a1 1 0 1 1 0 2 1 1 0 0 1 0-2M143 268a1 1 0 1 1 0 2 1 1 0 0 1 0-2M157 268a1 1 0 1 1 0 2 1 1 0 0 1 0-2M171 268a1 1 0 1 1 0 2 1 1 0 0 1 0-2M185 268a1 1 0 1 1 0 2 1 1 0 0 1 0-2M199 268a1 1 0 1 1 0 2 1 1 0 0 1 0-2M213 268a1 1 0 1 1 0 2 1 1 0 0 1 0-2M227 268a1 1 0 1 1 0 2 1 1 0 0 1 0-2M241 268a1 1 0 1 1 0 2 1 1 0 0 1 0-2M255 268a1 1 0 1 1 0 2 1 1 0 0 1 0-2M269 268a1 1 0 1 1 0 2 1 1 0 0 1 0-2M283 268a1 1 0 1 1 0 2 1 1 0 0 1 0-2M297 268a1 1 0 1 1 0 2 1 1 0 0 1 0-2M311 268a1 1 0 1 1 0 2 1 1 0 0 1 0-2M325 268a1 1 0 1 1 0 2 1 1 0 0 1 0-2M339 268a1 1 0 1 1 0 2 1 1 0 0 1 0-2M353 268a1 1 0 1 1 0 2 1 1 0 0 1 0-2M367 268a1 1 0 1 1 0 2 1 1 0 0 1 0-2M381 268a1 1 0 1 1 0 2 1 1 0 0 1 0-2M395 268a1 1 0 1 1 0 2 1 1 0 0 1 0-2M409 268a1 1 0 1 1 0 2 1 1 0 0 1 0-2M423 268a1 1 0 1 1 0 2 1 1 0 0 1 0-2M437 268a1 1 0 1 1 0 2 1 1 0 0 1 0-2M451 268a1 1 0 1 1 0 2 1 1 0 0 1 0-2M465 268a1 1 0 1 1 0 2 1 1 0 0 1 0-2M479 268a1 1 0 1 1 0 2 1 1 0 0 1 0-2M493 268a1 1 0 1 1 0 2 1 1 0 0 1 0-2M507 268a1 1 0 1 1 0 2 1 1 0 0 1 0-2M521 268a1 1 0 1 1 0 2 1 1 0 0 1 0-2M535 268a1 1 0 1 1 0 2 1 1 0 0 1 0-2M549 268a1 1 0 1 1 0 2 1 1 0 0 1 0-2M563 268a1 1 0 1 1 0 2 1 1 0 0 1 0-2M577 268a1 1 0 1 1 0 2 1 1 0 0 1 0-2M591 268a1 1 0 1 1 0 2 1 1 0 0 1 0-2M605 268a1 1 0 1 1 0 2 1 1 0 0 1 0-2M619 268a1 1 0 1 1 0 2 1 1 0 0 1 0-2M633 268a1 1 0 1 1 0 2 1 1 0 0 1 0-2M647 268a1 1 0 1 1 0 2 1 1 0 0 1 0-2M661 268a1 1 0 1 1 0 2 1 1 0 0 1 0-2M675 268a1 1 0 1 1 0 2 1 1 0 0 1 0-2M689 268a1 1 0 1 1 0 2 1 1 0 0 1 0-2M703 268a1 1 0 1 1 0 2 1 1 0 0 1 0-2M717 268a1 1 0 1 1 0 2 1 1 0 0 1 0-2M-11 254a1 1 0 1 1 0 2 1 1 0 0 1 0-2M3 254a1 1 0 1 1 0 2 1 1 0 0 1 0-2M17 254a1 1 0 1 1 0 2 1 1 0 0 1 0-2M31 254a1 1 0 1 1 0 2 1 1 0 0 1 0-2M45 254a1 1 0 1 1 0 2 1 1 0 0 1 0-2M59 254a1 1 0 1 1 0 2 1 1 0 0 1 0-2M73 254a1 1 0 1 1 0 2 1 1 0 0 1 0-2M87 254a1 1 0 1 1 0 2 1 1 0 0 1 0-2M101 254a1 1 0 1 1 0 2 1 1 0 0 1 0-2M115 254a1 1 0 1 1 0 2 1 1 0 0 1 0-2M129 254a1 1 0 1 1 0 2 1 1 0 0 1 0-2M143 254a1 1 0 1 1 0 2 1 1 0 0 1 0-2M157 254a1 1 0 1 1 0 2 1 1 0 0 1 0-2M171 254a1 1 0 1 1 0 2 1 1 0 0 1 0-2M185 254a1 1 0 1 1 0 2 1 1 0 0 1 0-2M199 254a1 1 0 1 1 0 2 1 1 0 0 1 0-2M213 254a1 1 0 1 1 0 2 1 1 0 0 1 0-2M227 254a1 1 0 1 1 0 2 1 1 0 0 1 0-2M241 254a1 1 0 1 1 0 2 1 1 0 0 1 0-2M255 254a1 1 0 1 1 0 2 1 1 0 0 1 0-2M269 254a1 1 0 1 1 0 2 1 1 0 0 1 0-2M283 254a1 1 0 1 1 0 2 1 1 0 0 1 0-2M297 254a1 1 0 1 1 0 2 1 1 0 0 1 0-2M311 254a1 1 0 1 1 0 2 1 1 0 0 1 0-2M325 254a1 1 0 1 1 0 2 1 1 0 0 1 0-2M339 254a1 1 0 1 1 0 2 1 1 0 0 1 0-2M353 254a1 1 0 1 1 0 2 1 1 0 0 1 0-2M367 254a1 1 0 1 1 0 2 1 1 0 0 1 0-2M381 254a1 1 0 1 1 0 2 1 1 0 0 1 0-2M395 254a1 1 0 1 1 0 2 1 1 0 0 1 0-2M409 254a1 1 0 1 1 0 2 1 1 0 0 1 0-2M423 254a1 1 0 1 1 0 2 1 1 0 0 1 0-2M437 254a1 1 0 1 1 0 2 1 1 0 0 1 0-2M451 254a1 1 0 1 1 0 2 1 1 0 0 1 0-2M465 254a1 1 0 1 1 0 2 1 1 0 0 1 0-2M479 254a1 1 0 1 1 0 2 1 1 0 0 1 0-2M493 254a1 1 0 1 1 0 2 1 1 0 0 1 0-2M507 254a1 1 0 1 1 0 2 1 1 0 0 1 0-2M521 254a1 1 0 1 1 0 2 1 1 0 0 1 0-2M535 254a1 1 0 1 1 0 2 1 1 0 0 1 0-2M549 254a1 1 0 1 1 0 2 1 1 0 0 1 0-2M563 254a1 1 0 1 1 0 2 1 1 0 0 1 0-2M577 254a1 1 0 1 1 0 2 1 1 0 0 1 0-2M591 254a1 1 0 1 1 0 2 1 1 0 0 1 0-2M605 254a1 1 0 1 1 0 2 1 1 0 0 1 0-2M619 254a1 1 0 1 1 0 2 1 1 0 0 1 0-2M633 254a1 1 0 1 1 0 2 1 1 0 0 1 0-2M647 254a1 1 0 1 1 0 2 1 1 0 0 1 0-2M661 254a1 1 0 1 1 0 2 1 1 0 0 1 0-2M675 254a1 1 0 1 1 0 2 1 1 0 0 1 0-2M689 254a1 1 0 1 1 0 2 1 1 0 0 1 0-2M703 254a1 1 0 1 1 0 2 1 1 0 0 1 0-2M717 254a1 1 0 1 1 0 2 1 1 0 0 1 0-2M-11 240a1 1 0 1 1 0 2 1 1 0 0 1 0-2M3 240a1 1 0 1 1 0 2 1 1 0 0 1 0-2M17 240a1 1 0 1 1 0 2 1 1 0 0 1 0-2M31 240a1 1 0 1 1 0 2 1 1 0 0 1 0-2M45 240a1 1 0 1 1 0 2 1 1 0 0 1 0-2M59 240a1 1 0 1 1 0 2 1 1 0 0 1 0-2M73 240a1 1 0 1 1 0 2 1 1 0 0 1 0-2M87 240a1 1 0 1 1 0 2 1 1 0 0 1 0-2M101 240a1 1 0 1 1 0 2 1 1 0 0 1 0-2M115 240a1 1 0 1 1 0 2 1 1 0 0 1 0-2M129 240a1 1 0 1 1 0 2 1 1 0 0 1 0-2M143 240a1 1 0 1 1 0 2 1 1 0 0 1 0-2M157 240a1 1 0 1 1 0 2 1 1 0 0 1 0-2M171 240a1 1 0 1 1 0 2 1 1 0 0 1 0-2M185 240a1 1 0 1 1 0 2 1 1 0 0 1 0-2M199 240a1 1 0 1 1 0 2 1 1 0 0 1 0-2M213 240a1 1 0 1 1 0 2 1 1 0 0 1 0-2M227 240a1 1 0 1 1 0 2 1 1 0 0 1 0-2M241 240a1 1 0 1 1 0 2 1 1 0 0 1 0-2M255 240a1 1 0 1 1 0 2 1 1 0 0 1 0-2M269 240a1 1 0 1 1 0 2 1 1 0 0 1 0-2M283 240a1 1 0 1 1 0 2 1 1 0 0 1 0-2M297 240a1 1 0 1 1 0 2 1 1 0 0 1 0-2M311 240a1 1 0 1 1 0 2 1 1 0 0 1 0-2M325 240a1 1 0 1 1 0 2 1 1 0 0 1 0-2M339 240a1 1 0 1 1 0 2 1 1 0 0 1 0-2M353 240a1 1 0 1 1 0 2 1 1 0 0 1 0-2M367 240a1 1 0 1 1 0 2 1 1 0 0 1 0-2M381 240a1 1 0 1 1 0 2 1 1 0 0 1 0-2M395 240a1 1 0 1 1 0 2 1 1 0 0 1 0-2M409 240a1 1 0 1 1 0 2 1 1 0 0 1 0-2M423 240a1 1 0 1 1 0 2 1 1 0 0 1 0-2M437 240a1 1 0 1 1 0 2 1 1 0 0 1 0-2M451 240a1 1 0 1 1 0 2 1 1 0 0 1 0-2M465 240a1 1 0 1 1 0 2 1 1 0 0 1 0-2M479 240a1 1 0 1 1 0 2 1 1 0 0 1 0-2M493 240a1 1 0 1 1 0 2 1 1 0 0 1 0-2M507 240a1 1 0 1 1 0 2 1 1 0 0 1 0-2M521 240a1 1 0 1 1 0 2 1 1 0 0 1 0-2M535 240a1 1 0 1 1 0 2 1 1 0 0 1 0-2M549 240a1 1 0 1 1 0 2 1 1 0 0 1 0-2M563 240a1 1 0 1 1 0 2 1 1 0 0 1 0-2M577 240a1 1 0 1 1 0 2 1 1 0 0 1 0-2M591 240a1 1 0 1 1 0 2 1 1 0 0 1 0-2M605 240a1 1 0 1 1 0 2 1 1 0 0 1 0-2M619 240a1 1 0 1 1 0 2 1 1 0 0 1 0-2M633 240a1 1 0 1 1 0 2 1 1 0 0 1 0-2M647 240a1 1 0 1 1 0 2 1 1 0 0 1 0-2M661 240a1 1 0 1 1 0 2 1 1 0 0 1 0-2M675 240a1 1 0 1 1 0 2 1 1 0 0 1 0-2M689 240a1 1 0 1 1 0 2 1 1 0 0 1 0-2M703 240a1 1 0 1 1 0 2 1 1 0 0 1 0-2M717 240a1 1 0 1 1 0 2 1 1 0 0 1 0-2M-11 226a1 1 0 1 1 0 2 1 1 0 0 1 0-2M3 226a1 1 0 1 1 0 2 1 1 0 0 1 0-2M17 226a1 1 0 1 1 0 2 1 1 0 0 1 0-2M31 226a1 1 0 1 1 0 2 1 1 0 0 1 0-2M45 226a1 1 0 1 1 0 2 1 1 0 0 1 0-2M59 226a1 1 0 1 1 0 2 1 1 0 0 1 0-2M73 226a1 1 0 1 1 0 2 1 1 0 0 1 0-2M87 226a1 1 0 1 1 0 2 1 1 0 0 1 0-2M101 226a1 1 0 1 1 0 2 1 1 0 0 1 0-2M115 226a1 1 0 1 1 0 2 1 1 0 0 1 0-2M129 226a1 1 0 1 1 0 2 1 1 0 0 1 0-2M143 226a1 1 0 1 1 0 2 1 1 0 0 1 0-2M157 226a1 1 0 1 1 0 2 1 1 0 0 1 0-2M171 226a1 1 0 1 1 0 2 1 1 0 0 1 0-2M185 226a1 1 0 1 1 0 2 1 1 0 0 1 0-2M199 226a1 1 0 1 1 0 2 1 1 0 0 1 0-2M213 226a1 1 0 1 1 0 2 1 1 0 0 1 0-2M227 226a1 1 0 1 1 0 2 1 1 0 0 1 0-2M241 226a1 1 0 1 1 0 2 1 1 0 0 1 0-2M255 226a1 1 0 1 1 0 2 1 1 0 0 1 0-2M269 226a1 1 0 1 1 0 2 1 1 0 0 1 0-2M283 226a1 1 0 1 1 0 2 1 1 0 0 1 0-2M297 226a1 1 0 1 1 0 2 1 1 0 0 1 0-2M311 226a1 1 0 1 1 0 2 1 1 0 0 1 0-2M325 226a1 1 0 1 1 0 2 1 1 0 0 1 0-2M339 226a1 1 0 1 1 0 2 1 1 0 0 1 0-2M353 226a1 1 0 1 1 0 2 1 1 0 0 1 0-2M367 226a1 1 0 1 1 0 2 1 1 0 0 1 0-2M381 226a1 1 0 1 1 0 2 1 1 0 0 1 0-2M395 226a1 1 0 1 1 0 2 1 1 0 0 1 0-2M409 226a1 1 0 1 1 0 2 1 1 0 0 1 0-2M423 226a1 1 0 1 1 0 2 1 1 0 0 1 0-2M437 226a1 1 0 1 1 0 2 1 1 0 0 1 0-2M451 226a1 1 0 1 1 0 2 1 1 0 0 1 0-2M465 226a1 1 0 1 1 0 2 1 1 0 0 1 0-2M479 226a1 1 0 1 1 0 2 1 1 0 0 1 0-2M493 226a1 1 0 1 1 0 2 1 1 0 0 1 0-2M507 226a1 1 0 1 1 0 2 1 1 0 0 1 0-2M521 226a1 1 0 1 1 0 2 1 1 0 0 1 0-2M535 226a1 1 0 1 1 0 2 1 1 0 0 1 0-2M549 226a1 1 0 1 1 0 2 1 1 0 0 1 0-2M563 226a1 1 0 1 1 0 2 1 1 0 0 1 0-2M577 226a1 1 0 1 1 0 2 1 1 0 0 1 0-2M591 226a1 1 0 1 1 0 2 1 1 0 0 1 0-2M605 226a1 1 0 1 1 0 2 1 1 0 0 1 0-2M619 226a1 1 0 1 1 0 2 1 1 0 0 1 0-2M633 226a1 1 0 1 1 0 2 1 1 0 0 1 0-2M647 226a1 1 0 1 1 0 2 1 1 0 0 1 0-2M661 226a1 1 0 1 1 0 2 1 1 0 0 1 0-2M675 226a1 1 0 1 1 0 2 1 1 0 0 1 0-2M689 226a1 1 0 1 1 0 2 1 1 0 0 1 0-2M703 226a1 1 0 1 1 0 2 1 1 0 0 1 0-2M717 226a1 1 0 1 1 0 2 1 1 0 0 1 0-2M-11 212a1 1 0 1 1 0 2 1 1 0 0 1 0-2M3 212a1 1 0 1 1 0 2 1 1 0 0 1 0-2M17 212a1 1 0 1 1 0 2 1 1 0 0 1 0-2M31 212a1 1 0 1 1 0 2 1 1 0 0 1 0-2M45 212a1 1 0 1 1 0 2 1 1 0 0 1 0-2M59 212a1 1 0 1 1 0 2 1 1 0 0 1 0-2M73 212a1 1 0 1 1 0 2 1 1 0 0 1 0-2M87 212a1 1 0 1 1 0 2 1 1 0 0 1 0-2M101 212a1 1 0 1 1 0 2 1 1 0 0 1 0-2M115 212a1 1 0 1 1 0 2 1 1 0 0 1 0-2M129 212a1 1 0 1 1 0 2 1 1 0 0 1 0-2M143 212a1 1 0 1 1 0 2 1 1 0 0 1 0-2M157 212a1 1 0 1 1 0 2 1 1 0 0 1 0-2M171 212a1 1 0 1 1 0 2 1 1 0 0 1 0-2M185 212a1 1 0 1 1 0 2 1 1 0 0 1 0-2M199 212a1 1 0 1 1 0 2 1 1 0 0 1 0-2M213 212a1 1 0 1 1 0 2 1 1 0 0 1 0-2M227 212a1 1 0 1 1 0 2 1 1 0 0 1 0-2M241 212a1 1 0 1 1 0 2 1 1 0 0 1 0-2M255 212a1 1 0 1 1 0 2 1 1 0 0 1 0-2M269 212a1 1 0 1 1 0 2 1 1 0 0 1 0-2M283 212a1 1 0 1 1 0 2 1 1 0 0 1 0-2M297 212a1 1 0 1 1 0 2 1 1 0 0 1 0-2M311 212a1 1 0 1 1 0 2 1 1 0 0 1 0-2M325 212a1 1 0 1 1 0 2 1 1 0 0 1 0-2M339 212a1 1 0 1 1 0 2 1 1 0 0 1 0-2M353 212a1 1 0 1 1 0 2 1 1 0 0 1 0-2M367 212a1 1 0 1 1 0 2 1 1 0 0 1 0-2M381 212a1 1 0 1 1 0 2 1 1 0 0 1 0-2M395 212a1 1 0 1 1 0 2 1 1 0 0 1 0-2M409 212a1 1 0 1 1 0 2 1 1 0 0 1 0-2M423 212a1 1 0 1 1 0 2 1 1 0 0 1 0-2M437 212a1 1 0 1 1 0 2 1 1 0 0 1 0-2M451 212a1 1 0 1 1 0 2 1 1 0 0 1 0-2M465 212a1 1 0 1 1 0 2 1 1 0 0 1 0-2M479 212a1 1 0 1 1 0 2 1 1 0 0 1 0-2M493 212a1 1 0 1 1 0 2 1 1 0 0 1 0-2M507 212a1 1 0 1 1 0 2 1 1 0 0 1 0-2M521 212a1 1 0 1 1 0 2 1 1 0 0 1 0-2M535 212a1 1 0 1 1 0 2 1 1 0 0 1 0-2M549 212a1 1 0 1 1 0 2 1 1 0 0 1 0-2M563 212a1 1 0 1 1 0 2 1 1 0 0 1 0-2M577 212a1 1 0 1 1 0 2 1 1 0 0 1 0-2M591 212a1 1 0 1 1 0 2 1 1 0 0 1 0-2M605 212a1 1 0 1 1 0 2 1 1 0 0 1 0-2M619 212a1 1 0 1 1 0 2 1 1 0 0 1 0-2M633 212a1 1 0 1 1 0 2 1 1 0 0 1 0-2M647 212a1 1 0 1 1 0 2 1 1 0 0 1 0-2M661 212a1 1 0 1 1 0 2 1 1 0 0 1 0-2M675 212a1 1 0 1 1 0 2 1 1 0 0 1 0-2M689 212a1 1 0 1 1 0 2 1 1 0 0 1 0-2M703 212a1 1 0 1 1 0 2 1 1 0 0 1 0-2M717 212a1 1 0 1 1 0 2 1 1 0 0 1 0-2M-11 198a1 1 0 1 1 0 2 1 1 0 0 1 0-2M3 198a1 1 0 1 1 0 2 1 1 0 0 1 0-2M17 198a1 1 0 1 1 0 2 1 1 0 0 1 0-2M31 198a1 1 0 1 1 0 2 1 1 0 0 1 0-2M45 198a1 1 0 1 1 0 2 1 1 0 0 1 0-2M59 198a1 1 0 1 1 0 2 1 1 0 0 1 0-2M73 198a1 1 0 1 1 0 2 1 1 0 0 1 0-2M87 198a1 1 0 1 1 0 2 1 1 0 0 1 0-2M101 198a1 1 0 1 1 0 2 1 1 0 0 1 0-2M115 198a1 1 0 1 1 0 2 1 1 0 0 1 0-2M129 198a1 1 0 1 1 0 2 1 1 0 0 1 0-2M143 198a1 1 0 1 1 0 2 1 1 0 0 1 0-2M157 198a1 1 0 1 1 0 2 1 1 0 0 1 0-2M171 198a1 1 0 1 1 0 2 1 1 0 0 1 0-2M185 198a1 1 0 1 1 0 2 1 1 0 0 1 0-2M199 198a1 1 0 1 1 0 2 1 1 0 0 1 0-2M213 198a1 1 0 1 1 0 2 1 1 0 0 1 0-2M227 198a1 1 0 1 1 0 2 1 1 0 0 1 0-2M241 198a1 1 0 1 1 0 2 1 1 0 0 1 0-2M255 198a1 1 0 1 1 0 2 1 1 0 0 1 0-2M269 198a1 1 0 1 1 0 2 1 1 0 0 1 0-2M283 198a1 1 0 1 1 0 2 1 1 0 0 1 0-2M297 198a1 1 0 1 1 0 2 1 1 0 0 1 0-2M311 198a1 1 0 1 1 0 2 1 1 0 0 1 0-2M325 198a1 1 0 1 1 0 2 1 1 0 0 1 0-2M339 198a1 1 0 1 1 0 2 1 1 0 0 1 0-2M353 198a1 1 0 1 1 0 2 1 1 0 0 1 0-2M367 198a1 1 0 1 1 0 2 1 1 0 0 1 0-2M381 198a1 1 0 1 1 0 2 1 1 0 0 1 0-2M395 198a1 1 0 1 1 0 2 1 1 0 0 1 0-2M409 198a1 1 0 1 1 0 2 1 1 0 0 1 0-2M423 198a1 1 0 1 1 0 2 1 1 0 0 1 0-2M437 198a1 1 0 1 1 0 2 1 1 0 0 1 0-2M451 198a1 1 0 1 1 0 2 1 1 0 0 1 0-2M465 198a1 1 0 1 1 0 2 1 1 0 0 1 0-2M479 198a1 1 0 1 1 0 2 1 1 0 0 1 0-2M493 198a1 1 0 1 1 0 2 1 1 0 0 1 0-2M507 198a1 1 0 1 1 0 2 1 1 0 0 1 0-2M521 198a1 1 0 1 1 0 2 1 1 0 0 1 0-2M535 198a1 1 0 1 1 0 2 1 1 0 0 1 0-2M549 198a1 1 0 1 1 0 2 1 1 0 0 1 0-2M563 198a1 1 0 1 1 0 2 1 1 0 0 1 0-2M577 198a1 1 0 1 1 0 2 1 1 0 0 1 0-2M591 198a1 1 0 1 1 0 2 1 1 0 0 1 0-2M605 198a1 1 0 1 1 0 2 1 1 0 0 1 0-2M619 198a1 1 0 1 1 0 2 1 1 0 0 1 0-2M633 198a1 1 0 1 1 0 2 1 1 0 0 1 0-2M647 198a1 1 0 1 1 0 2 1 1 0 0 1 0-2M661 198a1 1 0 1 1 0 2 1 1 0 0 1 0-2M675 198a1 1 0 1 1 0 2 1 1 0 0 1 0-2M689 198a1 1 0 1 1 0 2 1 1 0 0 1 0-2M703 198a1 1 0 1 1 0 2 1 1 0 0 1 0-2M717 198a1 1 0 1 1 0 2 1 1 0 0 1 0-2M-11 184a1 1 0 1 1 0 2 1 1 0 0 1 0-2M3 184a1 1 0 1 1 0 2 1 1 0 0 1 0-2M17 184a1 1 0 1 1 0 2 1 1 0 0 1 0-2M31 184a1 1 0 1 1 0 2 1 1 0 0 1 0-2M45 184a1 1 0 1 1 0 2 1 1 0 0 1 0-2M59 184a1 1 0 1 1 0 2 1 1 0 0 1 0-2M73 184a1 1 0 1 1 0 2 1 1 0 0 1 0-2M87 184a1 1 0 1 1 0 2 1 1 0 0 1 0-2M101 184a1 1 0 1 1 0 2 1 1 0 0 1 0-2M115 184a1 1 0 1 1 0 2 1 1 0 0 1 0-2M129 184a1 1 0 1 1 0 2 1 1 0 0 1 0-2M143 184a1 1 0 1 1 0 2 1 1 0 0 1 0-2M157 184a1 1 0 1 1 0 2 1 1 0 0 1 0-2M171 184a1 1 0 1 1 0 2 1 1 0 0 1 0-2M185 184a1 1 0 1 1 0 2 1 1 0 0 1 0-2M199 184a1 1 0 1 1 0 2 1 1 0 0 1 0-2M213 184a1 1 0 1 1 0 2 1 1 0 0 1 0-2M227 184a1 1 0 1 1 0 2 1 1 0 0 1 0-2M241 184a1 1 0 1 1 0 2 1 1 0 0 1 0-2M255 184a1 1 0 1 1 0 2 1 1 0 0 1 0-2M269 184a1 1 0 1 1 0 2 1 1 0 0 1 0-2M283 184a1 1 0 1 1 0 2 1 1 0 0 1 0-2M297 184a1 1 0 1 1 0 2 1 1 0 0 1 0-2M311 184a1 1 0 1 1 0 2 1 1 0 0 1 0-2M325 184a1 1 0 1 1 0 2 1 1 0 0 1 0-2M339 184a1 1 0 1 1 0 2 1 1 0 0 1 0-2M353 184a1 1 0 1 1 0 2 1 1 0 0 1 0-2M367 184a1 1 0 1 1 0 2 1 1 0 0 1 0-2M381 184a1 1 0 1 1 0 2 1 1 0 0 1 0-2M395 184a1 1 0 1 1 0 2 1 1 0 0 1 0-2M409 184a1 1 0 1 1 0 2 1 1 0 0 1 0-2M423 184a1 1 0 1 1 0 2 1 1 0 0 1 0-2M437 184a1 1 0 1 1 0 2 1 1 0 0 1 0-2M451 184a1 1 0 1 1 0 2 1 1 0 0 1 0-2M465 184a1 1 0 1 1 0 2 1 1 0 0 1 0-2M479 184a1 1 0 1 1 0 2 1 1 0 0 1 0-2M493 184a1 1 0 1 1 0 2 1 1 0 0 1 0-2M507 184a1 1 0 1 1 0 2 1 1 0 0 1 0-2M521 184a1 1 0 1 1 0 2 1 1 0 0 1 0-2M535 184a1 1 0 1 1 0 2 1 1 0 0 1 0-2M549 184a1 1 0 1 1 0 2 1 1 0 0 1 0-2M563 184a1 1 0 1 1 0 2 1 1 0 0 1 0-2M577 184a1 1 0 1 1 0 2 1 1 0 0 1 0-2M591 184a1 1 0 1 1 0 2 1 1 0 0 1 0-2M605 184a1 1 0 1 1 0 2 1 1 0 0 1 0-2M619 184a1 1 0 1 1 0 2 1 1 0 0 1 0-2M633 184a1 1 0 1 1 0 2 1 1 0 0 1 0-2M647 184a1 1 0 1 1 0 2 1 1 0 0 1 0-2M661 184a1 1 0 1 1 0 2 1 1 0 0 1 0-2M675 184a1 1 0 1 1 0 2 1 1 0 0 1 0-2M689 184a1 1 0 1 1 0 2 1 1 0 0 1 0-2M703 184a1 1 0 1 1 0 2 1 1 0 0 1 0-2M717 184a1 1 0 1 1 0 2 1 1 0 0 1 0-2M-11 170a1 1 0 1 1 0 2 1 1 0 0 1 0-2M3 170a1 1 0 1 1 0 2 1 1 0 0 1 0-2M17 170a1 1 0 1 1 0 2 1 1 0 0 1 0-2M31 170a1 1 0 1 1 0 2 1 1 0 0 1 0-2M45 170a1 1 0 1 1 0 2 1 1 0 0 1 0-2M59 170a1 1 0 1 1 0 2 1 1 0 0 1 0-2M73 170a1 1 0 1 1 0 2 1 1 0 0 1 0-2M87 170a1 1 0 1 1 0 2 1 1 0 0 1 0-2M101 170a1 1 0 1 1 0 2 1 1 0 0 1 0-2M115 170a1 1 0 1 1 0 2 1 1 0 0 1 0-2M129 170a1 1 0 1 1 0 2 1 1 0 0 1 0-2M143 170a1 1 0 1 1 0 2 1 1 0 0 1 0-2M157 170a1 1 0 1 1 0 2 1 1 0 0 1 0-2M171 170a1 1 0 1 1 0 2 1 1 0 0 1 0-2M185 170a1 1 0 1 1 0 2 1 1 0 0 1 0-2M199 170a1 1 0 1 1 0 2 1 1 0 0 1 0-2M213 170a1 1 0 1 1 0 2 1 1 0 0 1 0-2M227 170a1 1 0 1 1 0 2 1 1 0 0 1 0-2M241 170a1 1 0 1 1 0 2 1 1 0 0 1 0-2M255 170a1 1 0 1 1 0 2 1 1 0 0 1 0-2M269 170a1 1 0 1 1 0 2 1 1 0 0 1 0-2M283 170a1 1 0 1 1 0 2 1 1 0 0 1 0-2M297 170a1 1 0 1 1 0 2 1 1 0 0 1 0-2M311 170a1 1 0 1 1 0 2 1 1 0 0 1 0-2M325 170a1 1 0 1 1 0 2 1 1 0 0 1 0-2M339 170a1 1 0 1 1 0 2 1 1 0 0 1 0-2M353 170a1 1 0 1 1 0 2 1 1 0 0 1 0-2M367 170a1 1 0 1 1 0 2 1 1 0 0 1 0-2M381 170a1 1 0 1 1 0 2 1 1 0 0 1 0-2M395 170a1 1 0 1 1 0 2 1 1 0 0 1 0-2M409 170a1 1 0 1 1 0 2 1 1 0 0 1 0-2M423 170a1 1 0 1 1 0 2 1 1 0 0 1 0-2M437 170a1 1 0 1 1 0 2 1 1 0 0 1 0-2M451 170a1 1 0 1 1 0 2 1 1 0 0 1 0-2M465 170a1 1 0 1 1 0 2 1 1 0 0 1 0-2M479 170a1 1 0 1 1 0 2 1 1 0 0 1 0-2M493 170a1 1 0 1 1 0 2 1 1 0 0 1 0-2M507 170a1 1 0 1 1 0 2 1 1 0 0 1 0-2M521 170a1 1 0 1 1 0 2 1 1 0 0 1 0-2M535 170a1 1 0 1 1 0 2 1 1 0 0 1 0-2M549 170a1 1 0 1 1 0 2 1 1 0 0 1 0-2M563 170a1 1 0 1 1 0 2 1 1 0 0 1 0-2M577 170a1 1 0 1 1 0 2 1 1 0 0 1 0-2M591 170a1 1 0 1 1 0 2 1 1 0 0 1 0-2M605 170a1 1 0 1 1 0 2 1 1 0 0 1 0-2M619 170a1 1 0 1 1 0 2 1 1 0 0 1 0-2M633 170a1 1 0 1 1 0 2 1 1 0 0 1 0-2M647 170a1 1 0 1 1 0 2 1 1 0 0 1 0-2M661 170a1 1 0 1 1 0 2 1 1 0 0 1 0-2M675 170a1 1 0 1 1 0 2 1 1 0 0 1 0-2M689 170a1 1 0 1 1 0 2 1 1 0 0 1 0-2M703 170a1 1 0 1 1 0 2 1 1 0 0 1 0-2M717 170a1 1 0 1 1 0 2 1 1 0 0 1 0-2M-11 156a1 1 0 1 1 0 2 1 1 0 0 1 0-2M3 156a1 1 0 1 1 0 2 1 1 0 0 1 0-2M17 156a1 1 0 1 1 0 2 1 1 0 0 1 0-2M31 156a1 1 0 1 1 0 2 1 1 0 0 1 0-2M45 156a1 1 0 1 1 0 2 1 1 0 0 1 0-2M59 156a1 1 0 1 1 0 2 1 1 0 0 1 0-2M73 156a1 1 0 1 1 0 2 1 1 0 0 1 0-2M87 156a1 1 0 1 1 0 2 1 1 0 0 1 0-2M101 156a1 1 0 1 1 0 2 1 1 0 0 1 0-2M115 156a1 1 0 1 1 0 2 1 1 0 0 1 0-2M129 156a1 1 0 1 1 0 2 1 1 0 0 1 0-2M143 156a1 1 0 1 1 0 2 1 1 0 0 1 0-2M157 156a1 1 0 1 1 0 2 1 1 0 0 1 0-2M171 156a1 1 0 1 1 0 2 1 1 0 0 1 0-2M185 156a1 1 0 1 1 0 2 1 1 0 0 1 0-2M199 156a1 1 0 1 1 0 2 1 1 0 0 1 0-2M213 156a1 1 0 1 1 0 2 1 1 0 0 1 0-2M227 156a1 1 0 1 1 0 2 1 1 0 0 1 0-2M241 156a1 1 0 1 1 0 2 1 1 0 0 1 0-2M255 156a1 1 0 1 1 0 2 1 1 0 0 1 0-2M269 156a1 1 0 1 1 0 2 1 1 0 0 1 0-2M283 156a1 1 0 1 1 0 2 1 1 0 0 1 0-2M297 156a1 1 0 1 1 0 2 1 1 0 0 1 0-2M311 156a1 1 0 1 1 0 2 1 1 0 0 1 0-2M325 156a1 1 0 1 1 0 2 1 1 0 0 1 0-2M339 156a1 1 0 1 1 0 2 1 1 0 0 1 0-2M353 156a1 1 0 1 1 0 2 1 1 0 0 1 0-2M367 156a1 1 0 1 1 0 2 1 1 0 0 1 0-2M381 156a1 1 0 1 1 0 2 1 1 0 0 1 0-2M395 156a1 1 0 1 1 0 2 1 1 0 0 1 0-2M409 156a1 1 0 1 1 0 2 1 1 0 0 1 0-2M423 156a1 1 0 1 1 0 2 1 1 0 0 1 0-2M437 156a1 1 0 1 1 0 2 1 1 0 0 1 0-2M451 156a1 1 0 1 1 0 2 1 1 0 0 1 0-2M465 156a1 1 0 1 1 0 2 1 1 0 0 1 0-2M479 156a1 1 0 1 1 0 2 1 1 0 0 1 0-2M493 156a1 1 0 1 1 0 2 1 1 0 0 1 0-2M507 156a1 1 0 1 1 0 2 1 1 0 0 1 0-2M521 156a1 1 0 1 1 0 2 1 1 0 0 1 0-2M535 156a1 1 0 1 1 0 2 1 1 0 0 1 0-2M549 156a1 1 0 1 1 0 2 1 1 0 0 1 0-2M563 156a1 1 0 1 1 0 2 1 1 0 0 1 0-2M577 156a1 1 0 1 1 0 2 1 1 0 0 1 0-2M591 156a1 1 0 1 1 0 2 1 1 0 0 1 0-2M605 156a1 1 0 1 1 0 2 1 1 0 0 1 0-2M619 156a1 1 0 1 1 0 2 1 1 0 0 1 0-2M633 156a1 1 0 1 1 0 2 1 1 0 0 1 0-2M647 156a1 1 0 1 1 0 2 1 1 0 0 1 0-2M661 156a1 1 0 1 1 0 2 1 1 0 0 1 0-2M675 156a1 1 0 1 1 0 2 1 1 0 0 1 0-2M689 156a1 1 0 1 1 0 2 1 1 0 0 1 0-2M703 156a1 1 0 1 1 0 2 1 1 0 0 1 0-2M717 156a1 1 0 1 1 0 2 1 1 0 0 1 0-2M-11 142a1 1 0 1 1 0 2 1 1 0 0 1 0-2M3 142a1 1 0 1 1 0 2 1 1 0 0 1 0-2M17 142a1 1 0 1 1 0 2 1 1 0 0 1 0-2M31 142a1 1 0 1 1 0 2 1 1 0 0 1 0-2M45 142a1 1 0 1 1 0 2 1 1 0 0 1 0-2M59 142a1 1 0 1 1 0 2 1 1 0 0 1 0-2M73 142a1 1 0 1 1 0 2 1 1 0 0 1 0-2M87 142a1 1 0 1 1 0 2 1 1 0 0 1 0-2M101 142a1 1 0 1 1 0 2 1 1 0 0 1 0-2M115 142a1 1 0 1 1 0 2 1 1 0 0 1 0-2M129 142a1 1 0 1 1 0 2 1 1 0 0 1 0-2M143 142a1 1 0 1 1 0 2 1 1 0 0 1 0-2M157 142a1 1 0 1 1 0 2 1 1 0 0 1 0-2M171 142a1 1 0 1 1 0 2 1 1 0 0 1 0-2M185 142a1 1 0 1 1 0 2 1 1 0 0 1 0-2M199 142a1 1 0 1 1 0 2 1 1 0 0 1 0-2M213 142a1 1 0 1 1 0 2 1 1 0 0 1 0-2M227 142a1 1 0 1 1 0 2 1 1 0 0 1 0-2M241 142a1 1 0 1 1 0 2 1 1 0 0 1 0-2M255 142a1 1 0 1 1 0 2 1 1 0 0 1 0-2M269 142a1 1 0 1 1 0 2 1 1 0 0 1 0-2M283 142a1 1 0 1 1 0 2 1 1 0 0 1 0-2M297 142a1 1 0 1 1 0 2 1 1 0 0 1 0-2M311 142a1 1 0 1 1 0 2 1 1 0 0 1 0-2M325 142a1 1 0 1 1 0 2 1 1 0 0 1 0-2M339 142a1 1 0 1 1 0 2 1 1 0 0 1 0-2M353 142a1 1 0 1 1 0 2 1 1 0 0 1 0-2M367 142a1 1 0 1 1 0 2 1 1 0 0 1 0-2M381 142a1 1 0 1 1 0 2 1 1 0 0 1 0-2M395 142a1 1 0 1 1 0 2 1 1 0 0 1 0-2M409 142a1 1 0 1 1 0 2 1 1 0 0 1 0-2M423 142a1 1 0 1 1 0 2 1 1 0 0 1 0-2M437 142a1 1 0 1 1 0 2 1 1 0 0 1 0-2M451 142a1 1 0 1 1 0 2 1 1 0 0 1 0-2M465 142a1 1 0 1 1 0 2 1 1 0 0 1 0-2M479 142a1 1 0 1 1 0 2 1 1 0 0 1 0-2M493 142a1 1 0 1 1 0 2 1 1 0 0 1 0-2M507 142a1 1 0 1 1 0 2 1 1 0 0 1 0-2M521 142a1 1 0 1 1 0 2 1 1 0 0 1 0-2M535 142a1 1 0 1 1 0 2 1 1 0 0 1 0-2M549 142a1 1 0 1 1 0 2 1 1 0 0 1 0-2M563 142a1 1 0 1 1 0 2 1 1 0 0 1 0-2M577 142a1 1 0 1 1 0 2 1 1 0 0 1 0-2M591 142a1 1 0 1 1 0 2 1 1 0 0 1 0-2M605 142a1 1 0 1 1 0 2 1 1 0 0 1 0-2M619 142a1 1 0 1 1 0 2 1 1 0 0 1 0-2M633 142a1 1 0 1 1 0 2 1 1 0 0 1 0-2M647 142a1 1 0 1 1 0 2 1 1 0 0 1 0-2M661 142a1 1 0 1 1 0 2 1 1 0 0 1 0-2M675 142a1 1 0 1 1 0 2 1 1 0 0 1 0-2M689 142a1 1 0 1 1 0 2 1 1 0 0 1 0-2M703 142a1 1 0 1 1 0 2 1 1 0 0 1 0-2M717 142a1 1 0 1 1 0 2 1 1 0 0 1 0-2M-11 128a1 1 0 1 1 0 2 1 1 0 0 1 0-2M3 128a1 1 0 1 1 0 2 1 1 0 0 1 0-2M17 128a1 1 0 1 1 0 2 1 1 0 0 1 0-2M31 128a1 1 0 1 1 0 2 1 1 0 0 1 0-2M45 128a1 1 0 1 1 0 2 1 1 0 0 1 0-2M59 128a1 1 0 1 1 0 2 1 1 0 0 1 0-2M73 128a1 1 0 1 1 0 2 1 1 0 0 1 0-2M87 128a1 1 0 1 1 0 2 1 1 0 0 1 0-2M101 128a1 1 0 1 1 0 2 1 1 0 0 1 0-2M115 128a1 1 0 1 1 0 2 1 1 0 0 1 0-2M129 128a1 1 0 1 1 0 2 1 1 0 0 1 0-2M143 128a1 1 0 1 1 0 2 1 1 0 0 1 0-2M157 128a1 1 0 1 1 0 2 1 1 0 0 1 0-2M171 128a1 1 0 1 1 0 2 1 1 0 0 1 0-2M185 128a1 1 0 1 1 0 2 1 1 0 0 1 0-2M199 128a1 1 0 1 1 0 2 1 1 0 0 1 0-2M213 128a1 1 0 1 1 0 2 1 1 0 0 1 0-2M227 128a1 1 0 1 1 0 2 1 1 0 0 1 0-2M241 128a1 1 0 1 1 0 2 1 1 0 0 1 0-2M255 128a1 1 0 1 1 0 2 1 1 0 0 1 0-2M269 128a1 1 0 1 1 0 2 1 1 0 0 1 0-2M283 128a1 1 0 1 1 0 2 1 1 0 0 1 0-2M297 128a1 1 0 1 1 0 2 1 1 0 0 1 0-2M311 128a1 1 0 1 1 0 2 1 1 0 0 1 0-2M325 128a1 1 0 1 1 0 2 1 1 0 0 1 0-2M339 128a1 1 0 1 1 0 2 1 1 0 0 1 0-2M353 128a1 1 0 1 1 0 2 1 1 0 0 1 0-2M367 128a1 1 0 1 1 0 2 1 1 0 0 1 0-2M381 128a1 1 0 1 1 0 2 1 1 0 0 1 0-2M395 128a1 1 0 1 1 0 2 1 1 0 0 1 0-2M409 128a1 1 0 1 1 0 2 1 1 0 0 1 0-2M423 128a1 1 0 1 1 0 2 1 1 0 0 1 0-2M437 128a1 1 0 1 1 0 2 1 1 0 0 1 0-2M451 128a1 1 0 1 1 0 2 1 1 0 0 1 0-2M465 128a1 1 0 1 1 0 2 1 1 0 0 1 0-2M479 128a1 1 0 1 1 0 2 1 1 0 0 1 0-2M493 128a1 1 0 1 1 0 2 1 1 0 0 1 0-2M507 128a1 1 0 1 1 0 2 1 1 0 0 1 0-2M521 128a1 1 0 1 1 0 2 1 1 0 0 1 0-2M535 128a1 1 0 1 1 0 2 1 1 0 0 1 0-2M549 128a1 1 0 1 1 0 2 1 1 0 0 1 0-2M563 128a1 1 0 1 1 0 2 1 1 0 0 1 0-2M577 128a1 1 0 1 1 0 2 1 1 0 0 1 0-2M591 128a1 1 0 1 1 0 2 1 1 0 0 1 0-2M605 128a1 1 0 1 1 0 2 1 1 0 0 1 0-2M619 128a1 1 0 1 1 0 2 1 1 0 0 1 0-2M633 128a1 1 0 1 1 0 2 1 1 0 0 1 0-2M647 128a1 1 0 1 1 0 2 1 1 0 0 1 0-2M661 128a1 1 0 1 1 0 2 1 1 0 0 1 0-2M675 128a1 1 0 1 1 0 2 1 1 0 0 1 0-2M689 128a1 1 0 1 1 0 2 1 1 0 0 1 0-2M703 128a1 1 0 1 1 0 2 1 1 0 0 1 0-2M717 128a1 1 0 1 1 0 2 1 1 0 0 1 0-2M-11 114a1 1 0 1 1 0 2 1 1 0 0 1 0-2M3 114a1 1 0 1 1 0 2 1 1 0 0 1 0-2M17 114a1 1 0 1 1 0 2 1 1 0 0 1 0-2M31 114a1 1 0 1 1 0 2 1 1 0 0 1 0-2M45 114a1 1 0 1 1 0 2 1 1 0 0 1 0-2M59 114a1 1 0 1 1 0 2 1 1 0 0 1 0-2M73 114a1 1 0 1 1 0 2 1 1 0 0 1 0-2M87 114a1 1 0 1 1 0 2 1 1 0 0 1 0-2M101 114a1 1 0 1 1 0 2 1 1 0 0 1 0-2M115 114a1 1 0 1 1 0 2 1 1 0 0 1 0-2M129 114a1 1 0 1 1 0 2 1 1 0 0 1 0-2M143 114a1 1 0 1 1 0 2 1 1 0 0 1 0-2M157 114a1 1 0 1 1 0 2 1 1 0 0 1 0-2M171 114a1 1 0 1 1 0 2 1 1 0 0 1 0-2M185 114a1 1 0 1 1 0 2 1 1 0 0 1 0-2M199 114a1 1 0 1 1 0 2 1 1 0 0 1 0-2M213 114a1 1 0 1 1 0 2 1 1 0 0 1 0-2M227 114a1 1 0 1 1 0 2 1 1 0 0 1 0-2M241 114a1 1 0 1 1 0 2 1 1 0 0 1 0-2M255 114a1 1 0 1 1 0 2 1 1 0 0 1 0-2M269 114a1 1 0 1 1 0 2 1 1 0 0 1 0-2M283 114a1 1 0 1 1 0 2 1 1 0 0 1 0-2M297 114a1 1 0 1 1 0 2 1 1 0 0 1 0-2M311 114a1 1 0 1 1 0 2 1 1 0 0 1 0-2M325 114a1 1 0 1 1 0 2 1 1 0 0 1 0-2M339 114a1 1 0 1 1 0 2 1 1 0 0 1 0-2M353 114a1 1 0 1 1 0 2 1 1 0 0 1 0-2M367 114a1 1 0 1 1 0 2 1 1 0 0 1 0-2M381 114a1 1 0 1 1 0 2 1 1 0 0 1 0-2M395 114a1 1 0 1 1 0 2 1 1 0 0 1 0-2M409 114a1 1 0 1 1 0 2 1 1 0 0 1 0-2M423 114a1 1 0 1 1 0 2 1 1 0 0 1 0-2M437 114a1 1 0 1 1 0 2 1 1 0 0 1 0-2M451 114a1 1 0 1 1 0 2 1 1 0 0 1 0-2M465 114a1 1 0 1 1 0 2 1 1 0 0 1 0-2M479 114a1 1 0 1 1 0 2 1 1 0 0 1 0-2M493 114a1 1 0 1 1 0 2 1 1 0 0 1 0-2M507 114a1 1 0 1 1 0 2 1 1 0 0 1 0-2M521 114a1 1 0 1 1 0 2 1 1 0 0 1 0-2M535 114a1 1 0 1 1 0 2 1 1 0 0 1 0-2M549 114a1 1 0 1 1 0 2 1 1 0 0 1 0-2M563 114a1 1 0 1 1 0 2 1 1 0 0 1 0-2M577 114a1 1 0 1 1 0 2 1 1 0 0 1 0-2M591 114a1 1 0 1 1 0 2 1 1 0 0 1 0-2M605 114a1 1 0 1 1 0 2 1 1 0 0 1 0-2M619 114a1 1 0 1 1 0 2 1 1 0 0 1 0-2M633 114a1 1 0 1 1 0 2 1 1 0 0 1 0-2M647 114a1 1 0 1 1 0 2 1 1 0 0 1 0-2M661 114a1 1 0 1 1 0 2 1 1 0 0 1 0-2M675 114a1 1 0 1 1 0 2 1 1 0 0 1 0-2M689 114a1 1 0 1 1 0 2 1 1 0 0 1 0-2M703 114a1 1 0 1 1 0 2 1 1 0 0 1 0-2M717 114a1 1 0 1 1 0 2 1 1 0 0 1 0-2M-11 100a1 1 0 1 1 0 2 1 1 0 0 1 0-2M3 100a1 1 0 1 1 0 2 1 1 0 0 1 0-2M17 100a1 1 0 1 1 0 2 1 1 0 0 1 0-2M31 100a1 1 0 1 1 0 2 1 1 0 0 1 0-2M45 100a1 1 0 1 1 0 2 1 1 0 0 1 0-2M59 100a1 1 0 1 1 0 2 1 1 0 0 1 0-2M73 100a1 1 0 1 1 0 2 1 1 0 0 1 0-2M87 100a1 1 0 1 1 0 2 1 1 0 0 1 0-2M101 100a1 1 0 1 1 0 2 1 1 0 0 1 0-2M115 100a1 1 0 1 1 0 2 1 1 0 0 1 0-2M129 100a1 1 0 1 1 0 2 1 1 0 0 1 0-2M143 100a1 1 0 1 1 0 2 1 1 0 0 1 0-2M157 100a1 1 0 1 1 0 2 1 1 0 0 1 0-2M171 100a1 1 0 1 1 0 2 1 1 0 0 1 0-2M185 100a1 1 0 1 1 0 2 1 1 0 0 1 0-2M199 100a1 1 0 1 1 0 2 1 1 0 0 1 0-2M213 100a1 1 0 1 1 0 2 1 1 0 0 1 0-2M227 100a1 1 0 1 1 0 2 1 1 0 0 1 0-2M241 100a1 1 0 1 1 0 2 1 1 0 0 1 0-2M255 100a1 1 0 1 1 0 2 1 1 0 0 1 0-2M269 100a1 1 0 1 1 0 2 1 1 0 0 1 0-2M283 100a1 1 0 1 1 0 2 1 1 0 0 1 0-2M297 100a1 1 0 1 1 0 2 1 1 0 0 1 0-2M311 100a1 1 0 1 1 0 2 1 1 0 0 1 0-2M325 100a1 1 0 1 1 0 2 1 1 0 0 1 0-2M339 100a1 1 0 1 1 0 2 1 1 0 0 1 0-2M353 100a1 1 0 1 1 0 2 1 1 0 0 1 0-2M367 100a1 1 0 1 1 0 2 1 1 0 0 1 0-2M381 100a1 1 0 1 1 0 2 1 1 0 0 1 0-2M395 100a1 1 0 1 1 0 2 1 1 0 0 1 0-2M409 100a1 1 0 1 1 0 2 1 1 0 0 1 0-2M423 100a1 1 0 1 1 0 2 1 1 0 0 1 0-2M437 100a1 1 0 1 1 0 2 1 1 0 0 1 0-2M451 100a1 1 0 1 1 0 2 1 1 0 0 1 0-2M465 100a1 1 0 1 1 0 2 1 1 0 0 1 0-2M479 100a1 1 0 1 1 0 2 1 1 0 0 1 0-2M493 100a1 1 0 1 1 0 2 1 1 0 0 1 0-2M507 100a1 1 0 1 1 0 2 1 1 0 0 1 0-2M521 100a1 1 0 1 1 0 2 1 1 0 0 1 0-2M535 100a1 1 0 1 1 0 2 1 1 0 0 1 0-2M549 100a1 1 0 1 1 0 2 1 1 0 0 1 0-2M563 100a1 1 0 1 1 0 2 1 1 0 0 1 0-2M577 100a1 1 0 1 1 0 2 1 1 0 0 1 0-2M591 100a1 1 0 1 1 0 2 1 1 0 0 1 0-2M605 100a1 1 0 1 1 0 2 1 1 0 0 1 0-2M619 100a1 1 0 1 1 0 2 1 1 0 0 1 0-2M633 100a1 1 0 1 1 0 2 1 1 0 0 1 0-2M647 100a1 1 0 1 1 0 2 1 1 0 0 1 0-2M661 100a1 1 0 1 1 0 2 1 1 0 0 1 0-2M675 100a1 1 0 1 1 0 2 1 1 0 0 1 0-2M689 100a1 1 0 1 1 0 2 1 1 0 0 1 0-2M703 100a1 1 0 1 1 0 2 1 1 0 0 1 0-2M717 100a1 1 0 1 1 0 2 1 1 0 0 1 0-2M-11 86a1 1 0 1 1 0 2 1 1 0 0 1 0-2M3 86a1 1 0 1 1 0 2 1 1 0 0 1 0-2M17 86a1 1 0 1 1 0 2 1 1 0 0 1 0-2M31 86a1 1 0 1 1 0 2 1 1 0 0 1 0-2M45 86a1 1 0 1 1 0 2 1 1 0 0 1 0-2M59 86a1 1 0 1 1 0 2 1 1 0 0 1 0-2M73 86a1 1 0 1 1 0 2 1 1 0 0 1 0-2M87 86a1 1 0 1 1 0 2 1 1 0 0 1 0-2M101 86a1 1 0 1 1 0 2 1 1 0 0 1 0-2M115 86a1 1 0 1 1 0 2 1 1 0 0 1 0-2M129 86a1 1 0 1 1 0 2 1 1 0 0 1 0-2M143 86a1 1 0 1 1 0 2 1 1 0 0 1 0-2M157 86a1 1 0 1 1 0 2 1 1 0 0 1 0-2M171 86a1 1 0 1 1 0 2 1 1 0 0 1 0-2M185 86a1 1 0 1 1 0 2 1 1 0 0 1 0-2M199 86a1 1 0 1 1 0 2 1 1 0 0 1 0-2M213 86a1 1 0 1 1 0 2 1 1 0 0 1 0-2M227 86a1 1 0 1 1 0 2 1 1 0 0 1 0-2M241 86a1 1 0 1 1 0 2 1 1 0 0 1 0-2M255 86a1 1 0 1 1 0 2 1 1 0 0 1 0-2M269 86a1 1 0 1 1 0 2 1 1 0 0 1 0-2M283 86a1 1 0 1 1 0 2 1 1 0 0 1 0-2M297 86a1 1 0 1 1 0 2 1 1 0 0 1 0-2M311 86a1 1 0 1 1 0 2 1 1 0 0 1 0-2M325 86a1 1 0 1 1 0 2 1 1 0 0 1 0-2M339 86a1 1 0 1 1 0 2 1 1 0 0 1 0-2M353 86a1 1 0 1 1 0 2 1 1 0 0 1 0-2M367 86a1 1 0 1 1 0 2 1 1 0 0 1 0-2M381 86a1 1 0 1 1 0 2 1 1 0 0 1 0-2M395 86a1 1 0 1 1 0 2 1 1 0 0 1 0-2M409 86a1 1 0 1 1 0 2 1 1 0 0 1 0-2M423 86a1 1 0 1 1 0 2 1 1 0 0 1 0-2M437 86a1 1 0 1 1 0 2 1 1 0 0 1 0-2M451 86a1 1 0 1 1 0 2 1 1 0 0 1 0-2M465 86a1 1 0 1 1 0 2 1 1 0 0 1 0-2M479 86a1 1 0 1 1 0 2 1 1 0 0 1 0-2M493 86a1 1 0 1 1 0 2 1 1 0 0 1 0-2M507 86a1 1 0 1 1 0 2 1 1 0 0 1 0-2M521 86a1 1 0 1 1 0 2 1 1 0 0 1 0-2M535 86a1 1 0 1 1 0 2 1 1 0 0 1 0-2M549 86a1 1 0 1 1 0 2 1 1 0 0 1 0-2M563 86a1 1 0 1 1 0 2 1 1 0 0 1 0-2M577 86a1 1 0 1 1 0 2 1 1 0 0 1 0-2M591 86a1 1 0 1 1 0 2 1 1 0 0 1 0-2M605 86a1 1 0 1 1 0 2 1 1 0 0 1 0-2M619 86a1 1 0 1 1 0 2 1 1 0 0 1 0-2M633 86a1 1 0 1 1 0 2 1 1 0 0 1 0-2M647 86a1 1 0 1 1 0 2 1 1 0 0 1 0-2M661 86a1 1 0 1 1 0 2 1 1 0 0 1 0-2M675 86a1 1 0 1 1 0 2 1 1 0 0 1 0-2M689 86a1 1 0 1 1 0 2 1 1 0 0 1 0-2M703 86a1 1 0 1 1 0 2 1 1 0 0 1 0-2M717 86a1 1 0 1 1 0 2 1 1 0 0 1 0-2M-11 72a1 1 0 1 1 0 2 1 1 0 0 1 0-2M3 72a1 1 0 1 1 0 2 1 1 0 0 1 0-2M17 72a1 1 0 1 1 0 2 1 1 0 0 1 0-2M31 72a1 1 0 1 1 0 2 1 1 0 0 1 0-2M45 72a1 1 0 1 1 0 2 1 1 0 0 1 0-2M59 72a1 1 0 1 1 0 2 1 1 0 0 1 0-2M73 72a1 1 0 1 1 0 2 1 1 0 0 1 0-2M87 72a1 1 0 1 1 0 2 1 1 0 0 1 0-2M101 72a1 1 0 1 1 0 2 1 1 0 0 1 0-2M115 72a1 1 0 1 1 0 2 1 1 0 0 1 0-2M129 72a1 1 0 1 1 0 2 1 1 0 0 1 0-2M143 72a1 1 0 1 1 0 2 1 1 0 0 1 0-2M157 72a1 1 0 1 1 0 2 1 1 0 0 1 0-2M171 72a1 1 0 1 1 0 2 1 1 0 0 1 0-2M185 72a1 1 0 1 1 0 2 1 1 0 0 1 0-2M199 72a1 1 0 1 1 0 2 1 1 0 0 1 0-2M213 72a1 1 0 1 1 0 2 1 1 0 0 1 0-2M227 72a1 1 0 1 1 0 2 1 1 0 0 1 0-2M241 72a1 1 0 1 1 0 2 1 1 0 0 1 0-2M255 72a1 1 0 1 1 0 2 1 1 0 0 1 0-2M269 72a1 1 0 1 1 0 2 1 1 0 0 1 0-2M283 72a1 1 0 1 1 0 2 1 1 0 0 1 0-2M297 72a1 1 0 1 1 0 2 1 1 0 0 1 0-2M311 72a1 1 0 1 1 0 2 1 1 0 0 1 0-2M325 72a1 1 0 1 1 0 2 1 1 0 0 1 0-2M339 72a1 1 0 1 1 0 2 1 1 0 0 1 0-2M353 72a1 1 0 1 1 0 2 1 1 0 0 1 0-2M367 72a1 1 0 1 1 0 2 1 1 0 0 1 0-2M381 72a1 1 0 1 1 0 2 1 1 0 0 1 0-2M395 72a1 1 0 1 1 0 2 1 1 0 0 1 0-2M409 72a1 1 0 1 1 0 2 1 1 0 0 1 0-2M423 72a1 1 0 1 1 0 2 1 1 0 0 1 0-2M437 72a1 1 0 1 1 0 2 1 1 0 0 1 0-2M451 72a1 1 0 1 1 0 2 1 1 0 0 1 0-2M465 72a1 1 0 1 1 0 2 1 1 0 0 1 0-2M479 72a1 1 0 1 1 0 2 1 1 0 0 1 0-2M493 72a1 1 0 1 1 0 2 1 1 0 0 1 0-2M507 72a1 1 0 1 1 0 2 1 1 0 0 1 0-2M521 72a1 1 0 1 1 0 2 1 1 0 0 1 0-2M535 72a1 1 0 1 1 0 2 1 1 0 0 1 0-2M549 72a1 1 0 1 1 0 2 1 1 0 0 1 0-2M563 72a1 1 0 1 1 0 2 1 1 0 0 1 0-2M577 72a1 1 0 1 1 0 2 1 1 0 0 1 0-2M591 72a1 1 0 1 1 0 2 1 1 0 0 1 0-2M605 72a1 1 0 1 1 0 2 1 1 0 0 1 0-2M619 72a1 1 0 1 1 0 2 1 1 0 0 1 0-2M633 72a1 1 0 1 1 0 2 1 1 0 0 1 0-2M647 72a1 1 0 1 1 0 2 1 1 0 0 1 0-2M661 72a1 1 0 1 1 0 2 1 1 0 0 1 0-2M675 72a1 1 0 1 1 0 2 1 1 0 0 1 0-2M689 72a1 1 0 1 1 0 2 1 1 0 0 1 0-2M703 72a1 1 0 1 1 0 2 1 1 0 0 1 0-2M717 72a1 1 0 1 1 0 2 1 1 0 0 1 0-2M-11 58a1 1 0 1 1 0 2 1 1 0 0 1 0-2M3 58a1 1 0 1 1 0 2 1 1 0 0 1 0-2M17 58a1 1 0 1 1 0 2 1 1 0 0 1 0-2M31 58a1 1 0 1 1 0 2 1 1 0 0 1 0-2M45 58a1 1 0 1 1 0 2 1 1 0 0 1 0-2M59 58a1 1 0 1 1 0 2 1 1 0 0 1 0-2M73 58a1 1 0 1 1 0 2 1 1 0 0 1 0-2M87 58a1 1 0 1 1 0 2 1 1 0 0 1 0-2M101 58a1 1 0 1 1 0 2 1 1 0 0 1 0-2M115 58a1 1 0 1 1 0 2 1 1 0 0 1 0-2M129 58a1 1 0 1 1 0 2 1 1 0 0 1 0-2M143 58a1 1 0 1 1 0 2 1 1 0 0 1 0-2M157 58a1 1 0 1 1 0 2 1 1 0 0 1 0-2M171 58a1 1 0 1 1 0 2 1 1 0 0 1 0-2M185 58a1 1 0 1 1 0 2 1 1 0 0 1 0-2M199 58a1 1 0 1 1 0 2 1 1 0 0 1 0-2M213 58a1 1 0 1 1 0 2 1 1 0 0 1 0-2M227 58a1 1 0 1 1 0 2 1 1 0 0 1 0-2M241 58a1 1 0 1 1 0 2 1 1 0 0 1 0-2M255 58a1 1 0 1 1 0 2 1 1 0 0 1 0-2M269 58a1 1 0 1 1 0 2 1 1 0 0 1 0-2M283 58a1 1 0 1 1 0 2 1 1 0 0 1 0-2M297 58a1 1 0 1 1 0 2 1 1 0 0 1 0-2M311 58a1 1 0 1 1 0 2 1 1 0 0 1 0-2M325 58a1 1 0 1 1 0 2 1 1 0 0 1 0-2M339 58a1 1 0 1 1 0 2 1 1 0 0 1 0-2M353 58a1 1 0 1 1 0 2 1 1 0 0 1 0-2M367 58a1 1 0 1 1 0 2 1 1 0 0 1 0-2M381 58a1 1 0 1 1 0 2 1 1 0 0 1 0-2M395 58a1 1 0 1 1 0 2 1 1 0 0 1 0-2M409 58a1 1 0 1 1 0 2 1 1 0 0 1 0-2M423 58a1 1 0 1 1 0 2 1 1 0 0 1 0-2M437 58a1 1 0 1 1 0 2 1 1 0 0 1 0-2M451 58a1 1 0 1 1 0 2 1 1 0 0 1 0-2M465 58a1 1 0 1 1 0 2 1 1 0 0 1 0-2M479 58a1 1 0 1 1 0 2 1 1 0 0 1 0-2M493 58a1 1 0 1 1 0 2 1 1 0 0 1 0-2M507 58a1 1 0 1 1 0 2 1 1 0 0 1 0-2M521 58a1 1 0 1 1 0 2 1 1 0 0 1 0-2M535 58a1 1 0 1 1 0 2 1 1 0 0 1 0-2M549 58a1 1 0 1 1 0 2 1 1 0 0 1 0-2M563 58a1 1 0 1 1 0 2 1 1 0 0 1 0-2M577 58a1 1 0 1 1 0 2 1 1 0 0 1 0-2M591 58a1 1 0 1 1 0 2 1 1 0 0 1 0-2M605 58a1 1 0 1 1 0 2 1 1 0 0 1 0-2M619 58a1 1 0 1 1 0 2 1 1 0 0 1 0-2M633 58a1 1 0 1 1 0 2 1 1 0 0 1 0-2M647 58a1 1 0 1 1 0 2 1 1 0 0 1 0-2M661 58a1 1 0 1 1 0 2 1 1 0 0 1 0-2M675 58a1 1 0 1 1 0 2 1 1 0 0 1 0-2M689 58a1 1 0 1 1 0 2 1 1 0 0 1 0-2M703 58a1 1 0 1 1 0 2 1 1 0 0 1 0-2M717 58a1 1 0 1 1 0 2 1 1 0 0 1 0-2M-11 44a1 1 0 1 1 0 2 1 1 0 0 1 0-2M3 44a1 1 0 1 1 0 2 1 1 0 0 1 0-2M17 44a1 1 0 1 1 0 2 1 1 0 0 1 0-2M31 44a1 1 0 1 1 0 2 1 1 0 0 1 0-2M45 44a1 1 0 1 1 0 2 1 1 0 0 1 0-2M59 44a1 1 0 1 1 0 2 1 1 0 0 1 0-2M73 44a1 1 0 1 1 0 2 1 1 0 0 1 0-2M87 44a1 1 0 1 1 0 2 1 1 0 0 1 0-2M101 44a1 1 0 1 1 0 2 1 1 0 0 1 0-2M115 44a1 1 0 1 1 0 2 1 1 0 0 1 0-2M129 44a1 1 0 1 1 0 2 1 1 0 0 1 0-2M143 44a1 1 0 1 1 0 2 1 1 0 0 1 0-2M157 44a1 1 0 1 1 0 2 1 1 0 0 1 0-2M171 44a1 1 0 1 1 0 2 1 1 0 0 1 0-2M185 44a1 1 0 1 1 0 2 1 1 0 0 1 0-2M199 44a1 1 0 1 1 0 2 1 1 0 0 1 0-2M213 44a1 1 0 1 1 0 2 1 1 0 0 1 0-2M227 44a1 1 0 1 1 0 2 1 1 0 0 1 0-2M241 44a1 1 0 1 1 0 2 1 1 0 0 1 0-2M255 44a1 1 0 1 1 0 2 1 1 0 0 1 0-2M269 44a1 1 0 1 1 0 2 1 1 0 0 1 0-2M283 44a1 1 0 1 1 0 2 1 1 0 0 1 0-2M297 44a1 1 0 1 1 0 2 1 1 0 0 1 0-2M311 44a1 1 0 1 1 0 2 1 1 0 0 1 0-2M325 44a1 1 0 1 1 0 2 1 1 0 0 1 0-2M339 44a1 1 0 1 1 0 2 1 1 0 0 1 0-2M353 44a1 1 0 1 1 0 2 1 1 0 0 1 0-2M367 44a1 1 0 1 1 0 2 1 1 0 0 1 0-2M381 44a1 1 0 1 1 0 2 1 1 0 0 1 0-2M395 44a1 1 0 1 1 0 2 1 1 0 0 1 0-2M409 44a1 1 0 1 1 0 2 1 1 0 0 1 0-2M423 44a1 1 0 1 1 0 2 1 1 0 0 1 0-2M437 44a1 1 0 1 1 0 2 1 1 0 0 1 0-2M451 44a1 1 0 1 1 0 2 1 1 0 0 1 0-2M465 44a1 1 0 1 1 0 2 1 1 0 0 1 0-2M479 44a1 1 0 1 1 0 2 1 1 0 0 1 0-2M493 44a1 1 0 1 1 0 2 1 1 0 0 1 0-2M507 44a1 1 0 1 1 0 2 1 1 0 0 1 0-2M521 44a1 1 0 1 1 0 2 1 1 0 0 1 0-2M535 44a1 1 0 1 1 0 2 1 1 0 0 1 0-2M549 44a1 1 0 1 1 0 2 1 1 0 0 1 0-2M563 44a1 1 0 1 1 0 2 1 1 0 0 1 0-2M577 44a1 1 0 1 1 0 2 1 1 0 0 1 0-2M591 44a1 1 0 1 1 0 2 1 1 0 0 1 0-2M605 44a1 1 0 1 1 0 2 1 1 0 0 1 0-2M619 44a1 1 0 1 1 0 2 1 1 0 0 1 0-2M633 44a1 1 0 1 1 0 2 1 1 0 0 1 0-2M647 44a1 1 0 1 1 0 2 1 1 0 0 1 0-2M661 44a1 1 0 1 1 0 2 1 1 0 0 1 0-2M675 44a1 1 0 1 1 0 2 1 1 0 0 1 0-2M689 44a1 1 0 1 1 0 2 1 1 0 0 1 0-2M703 44a1 1 0 1 1 0 2 1 1 0 0 1 0-2M717 44a1 1 0 1 1 0 2 1 1 0 0 1 0-2M-11 30a1 1 0 1 1 0 2 1 1 0 0 1 0-2M3 30a1 1 0 1 1 0 2 1 1 0 0 1 0-2M17 30a1 1 0 1 1 0 2 1 1 0 0 1 0-2M31 30a1 1 0 1 1 0 2 1 1 0 0 1 0-2M45 30a1 1 0 1 1 0 2 1 1 0 0 1 0-2M59 30a1 1 0 1 1 0 2 1 1 0 0 1 0-2M73 30a1 1 0 1 1 0 2 1 1 0 0 1 0-2M87 30a1 1 0 1 1 0 2 1 1 0 0 1 0-2M101 30a1 1 0 1 1 0 2 1 1 0 0 1 0-2M115 30a1 1 0 1 1 0 2 1 1 0 0 1 0-2M129 30a1 1 0 1 1 0 2 1 1 0 0 1 0-2M143 30a1 1 0 1 1 0 2 1 1 0 0 1 0-2M157 30a1 1 0 1 1 0 2 1 1 0 0 1 0-2M171 30a1 1 0 1 1 0 2 1 1 0 0 1 0-2M185 30a1 1 0 1 1 0 2 1 1 0 0 1 0-2M199 30a1 1 0 1 1 0 2 1 1 0 0 1 0-2M213 30a1 1 0 1 1 0 2 1 1 0 0 1 0-2M227 30a1 1 0 1 1 0 2 1 1 0 0 1 0-2M241 30a1 1 0 1 1 0 2 1 1 0 0 1 0-2M255 30a1 1 0 1 1 0 2 1 1 0 0 1 0-2M269 30a1 1 0 1 1 0 2 1 1 0 0 1 0-2M283 30a1 1 0 1 1 0 2 1 1 0 0 1 0-2M297 30a1 1 0 1 1 0 2 1 1 0 0 1 0-2M311 30a1 1 0 1 1 0 2 1 1 0 0 1 0-2M325 30a1 1 0 1 1 0 2 1 1 0 0 1 0-2M339 30a1 1 0 1 1 0 2 1 1 0 0 1 0-2M353 30a1 1 0 1 1 0 2 1 1 0 0 1 0-2M367 30a1 1 0 1 1 0 2 1 1 0 0 1 0-2M381 30a1 1 0 1 1 0 2 1 1 0 0 1 0-2M395 30a1 1 0 1 1 0 2 1 1 0 0 1 0-2M409 30a1 1 0 1 1 0 2 1 1 0 0 1 0-2M423 30a1 1 0 1 1 0 2 1 1 0 0 1 0-2M437 30a1 1 0 1 1 0 2 1 1 0 0 1 0-2M451 30a1 1 0 1 1 0 2 1 1 0 0 1 0-2M465 30a1 1 0 1 1 0 2 1 1 0 0 1 0-2M479 30a1 1 0 1 1 0 2 1 1 0 0 1 0-2M493 30a1 1 0 1 1 0 2 1 1 0 0 1 0-2M507 30a1 1 0 1 1 0 2 1 1 0 0 1 0-2M521 30a1 1 0 1 1 0 2 1 1 0 0 1 0-2M535 30a1 1 0 1 1 0 2 1 1 0 0 1 0-2M549 30a1 1 0 1 1 0 2 1 1 0 0 1 0-2M563 30a1 1 0 1 1 0 2 1 1 0 0 1 0-2M577 30a1 1 0 1 1 0 2 1 1 0 0 1 0-2M591 30a1 1 0 1 1 0 2 1 1 0 0 1 0-2M605 30a1 1 0 1 1 0 2 1 1 0 0 1 0-2M619 30a1 1 0 1 1 0 2 1 1 0 0 1 0-2M633 30a1 1 0 1 1 0 2 1 1 0 0 1 0-2M647 30a1 1 0 1 1 0 2 1 1 0 0 1 0-2M661 30a1 1 0 1 1 0 2 1 1 0 0 1 0-2M675 30a1 1 0 1 1 0 2 1 1 0 0 1 0-2M689 30a1 1 0 1 1 0 2 1 1 0 0 1 0-2M703 30a1 1 0 1 1 0 2 1 1 0 0 1 0-2M717 30a1 1 0 1 1 0 2 1 1 0 0 1 0-2M-11 16a1 1 0 1 1 0 2 1 1 0 0 1 0-2M3 16a1 1 0 1 1 0 2 1 1 0 0 1 0-2M17 16a1 1 0 1 1 0 2 1 1 0 0 1 0-2M31 16a1 1 0 1 1 0 2 1 1 0 0 1 0-2M45 16a1 1 0 1 1 0 2 1 1 0 0 1 0-2M59 16a1 1 0 1 1 0 2 1 1 0 0 1 0-2M73 16a1 1 0 1 1 0 2 1 1 0 0 1 0-2M87 16a1 1 0 1 1 0 2 1 1 0 0 1 0-2M101 16a1 1 0 1 1 0 2 1 1 0 0 1 0-2M115 16a1 1 0 1 1 0 2 1 1 0 0 1 0-2M129 16a1 1 0 1 1 0 2 1 1 0 0 1 0-2M143 16a1 1 0 1 1 0 2 1 1 0 0 1 0-2M157 16a1 1 0 1 1 0 2 1 1 0 0 1 0-2M171 16a1 1 0 1 1 0 2 1 1 0 0 1 0-2M185 16a1 1 0 1 1 0 2 1 1 0 0 1 0-2M199 16a1 1 0 1 1 0 2 1 1 0 0 1 0-2M213 16a1 1 0 1 1 0 2 1 1 0 0 1 0-2M227 16a1 1 0 1 1 0 2 1 1 0 0 1 0-2M241 16a1 1 0 1 1 0 2 1 1 0 0 1 0-2M255 16a1 1 0 1 1 0 2 1 1 0 0 1 0-2M269 16a1 1 0 1 1 0 2 1 1 0 0 1 0-2M283 16a1 1 0 1 1 0 2 1 1 0 0 1 0-2M297 16a1 1 0 1 1 0 2 1 1 0 0 1 0-2M311 16a1 1 0 1 1 0 2 1 1 0 0 1 0-2M325 16a1 1 0 1 1 0 2 1 1 0 0 1 0-2M339 16a1 1 0 1 1 0 2 1 1 0 0 1 0-2M353 16a1 1 0 1 1 0 2 1 1 0 0 1 0-2M367 16a1 1 0 1 1 0 2 1 1 0 0 1 0-2M381 16a1 1 0 1 1 0 2 1 1 0 0 1 0-2M395 16a1 1 0 1 1 0 2 1 1 0 0 1 0-2M409 16a1 1 0 1 1 0 2 1 1 0 0 1 0-2M423 16a1 1 0 1 1 0 2 1 1 0 0 1 0-2M437 16a1 1 0 1 1 0 2 1 1 0 0 1 0-2M451 16a1 1 0 1 1 0 2 1 1 0 0 1 0-2M465 16a1 1 0 1 1 0 2 1 1 0 0 1 0-2M479 16a1 1 0 1 1 0 2 1 1 0 0 1 0-2M493 16a1 1 0 1 1 0 2 1 1 0 0 1 0-2M507 16a1 1 0 1 1 0 2 1 1 0 0 1 0-2M521 16a1 1 0 1 1 0 2 1 1 0 0 1 0-2M535 16a1 1 0 1 1 0 2 1 1 0 0 1 0-2M549 16a1 1 0 1 1 0 2 1 1 0 0 1 0-2M563 16a1 1 0 1 1 0 2 1 1 0 0 1 0-2M577 16a1 1 0 1 1 0 2 1 1 0 0 1 0-2M591 16a1 1 0 1 1 0 2 1 1 0 0 1 0-2M605 16a1 1 0 1 1 0 2 1 1 0 0 1 0-2M619 16a1 1 0 1 1 0 2 1 1 0 0 1 0-2M633 16a1 1 0 1 1 0 2 1 1 0 0 1 0-2M647 16a1 1 0 1 1 0 2 1 1 0 0 1 0-2M661 16a1 1 0 1 1 0 2 1 1 0 0 1 0-2M675 16a1 1 0 1 1 0 2 1 1 0 0 1 0-2M689 16a1 1 0 1 1 0 2 1 1 0 0 1 0-2M703 16a1 1 0 1 1 0 2 1 1 0 0 1 0-2M717 16a1 1 0 1 1 0 2 1 1 0 0 1 0-2M-11 2a1 1 0 1 1 0 2 1 1 0 0 1 0-2M3 2a1 1 0 1 1 0 2 1 1 0 0 1 0-2M17 2a1 1 0 1 1 0 2 1 1 0 0 1 0-2M31 2a1 1 0 1 1 0 2 1 1 0 0 1 0-2M45 2a1 1 0 1 1 0 2 1 1 0 0 1 0-2M59 2a1 1 0 1 1 0 2 1 1 0 0 1 0-2M73 2a1 1 0 1 1 0 2 1 1 0 0 1 0-2M87 2a1 1 0 1 1 0 2 1 1 0 0 1 0-2M101 2a1 1 0 1 1 0 2 1 1 0 0 1 0-2M115 2a1 1 0 1 1 0 2 1 1 0 0 1 0-2M129 2a1 1 0 1 1 0 2 1 1 0 0 1 0-2M143 2a1 1 0 1 1 0 2 1 1 0 0 1 0-2M157 2a1 1 0 1 1 0 2 1 1 0 0 1 0-2M171 2a1 1 0 1 1 0 2 1 1 0 0 1 0-2M185 2a1 1 0 1 1 0 2 1 1 0 0 1 0-2M199 2a1 1 0 1 1 0 2 1 1 0 0 1 0-2M213 2a1 1 0 1 1 0 2 1 1 0 0 1 0-2M227 2a1 1 0 1 1 0 2 1 1 0 0 1 0-2M241 2a1 1 0 1 1 0 2 1 1 0 0 1 0-2M255 2a1 1 0 1 1 0 2 1 1 0 0 1 0-2M269 2a1 1 0 1 1 0 2 1 1 0 0 1 0-2M283 2a1 1 0 1 1 0 2 1 1 0 0 1 0-2M297 2a1 1 0 1 1 0 2 1 1 0 0 1 0-2M311 2a1 1 0 1 1 0 2 1 1 0 0 1 0-2M325 2a1 1 0 1 1 0 2 1 1 0 0 1 0-2M339 2a1 1 0 1 1 0 2 1 1 0 0 1 0-2M353 2a1 1 0 1 1 0 2 1 1 0 0 1 0-2M367 2a1 1 0 1 1 0 2 1 1 0 0 1 0-2M381 2a1 1 0 1 1 0 2 1 1 0 0 1 0-2M395 2a1 1 0 1 1 0 2 1 1 0 0 1 0-2M409 2a1 1 0 1 1 0 2 1 1 0 0 1 0-2M423 2a1 1 0 1 1 0 2 1 1 0 0 1 0-2M437 2a1 1 0 1 1 0 2 1 1 0 0 1 0-2M451 2a1 1 0 1 1 0 2 1 1 0 0 1 0-2M465 2a1 1 0 1 1 0 2 1 1 0 0 1 0-2M479 2a1 1 0 1 1 0 2 1 1 0 0 1 0-2M493 2a1 1 0 1 1 0 2 1 1 0 0 1 0-2M507 2a1 1 0 1 1 0 2 1 1 0 0 1 0-2M521 2a1 1 0 1 1 0 2 1 1 0 0 1 0-2M535 2a1 1 0 1 1 0 2 1 1 0 0 1 0-2M549 2a1 1 0 1 1 0 2 1 1 0 0 1 0-2M563 2a1 1 0 1 1 0 2 1 1 0 0 1 0-2M577 2a1 1 0 1 1 0 2 1 1 0 0 1 0-2M591 2a1 1 0 1 1 0 2 1 1 0 0 1 0-2M605 2a1 1 0 1 1 0 2 1 1 0 0 1 0-2M619 2a1 1 0 1 1 0 2 1 1 0 0 1 0-2M633 2a1 1 0 1 1 0 2 1 1 0 0 1 0-2M647 2a1 1 0 1 1 0 2 1 1 0 0 1 0-2M661 2a1 1 0 1 1 0 2 1 1 0 0 1 0-2M675 2a1 1 0 1 1 0 2 1 1 0 0 1 0-2M689 2a1 1 0 1 1 0 2 1 1 0 0 1 0-2M703 2a1 1 0 1 1 0 2 1 1 0 0 1 0-2M717 2a1 1 0 1 1 0 2 1 1 0 0 1 0-2"/></g><g clip-path="url(#c)"><path fill="#23262f" d="M21 14h679v42H21z"/><path fill="#fff" d="M33.517 31.981v-1.436h7.543v1.436h-2.922V40H36.44v-8.019zm9.15 10.678q-.342 0-.633-.055a2.4 2.4 0 0 1-.457-.12l.388-1.302q.364.105.651.101a.8.8 0 0 0 .503-.18q.222-.17.374-.572l.143-.383-2.571-7.239h1.773l1.634 5.355h.074l1.639-5.355h1.777l-2.84 7.95a3.2 3.2 0 0 1-.525.965 2.14 2.14 0 0 1-.804.618q-.471.217-1.126.217m6.451 0v-9.75h1.644v1.173h.097a3 3 0 0 1 .364-.55q.236-.295.638-.503.4-.213 1.025-.212.82 0 1.481.42.665.416 1.053 1.232.392.813.392 1.995 0 1.167-.383 1.985-.383.817-1.043 1.246t-1.496.43q-.61 0-1.01-.203a2.1 2.1 0 0 1-.647-.49 3 3 0 0 1-.374-.55h-.07v3.777zm1.64-6.204q0 .688.193 1.204.2.517.568.808.374.287.905.287.554 0 .928-.296.374-.3.563-.817.194-.522.194-1.186 0-.66-.19-1.173a1.76 1.76 0 0 0-.563-.803q-.374-.291-.932-.291-.535 0-.91.281a1.73 1.73 0 0 0-.567.79q-.19.507-.19 1.196M57.242 40v-7.09h1.672V40zm.84-8.097a.98.98 0 0 1-.683-.263.85.85 0 0 1-.286-.642q0-.379.286-.642a.97.97 0 0 1 .684-.268q.4 0 .683.268.286.264.286.642 0 .374-.286.642a.97.97 0 0 1-.683.263m5.643 8.236q-1.062 0-1.823-.467a3.1 3.1 0 0 1-1.168-1.288q-.407-.826-.407-1.902 0-1.08.416-1.906a3.1 3.1 0 0 1 1.172-1.293q.762-.466 1.8-.466.864 0 1.529.318.67.315 1.066.891.397.573.453 1.34h-1.597a1.53 1.53 0 0 0-.462-.855q-.36-.345-.965-.346-.513 0-.9.277-.388.272-.605.785-.213.511-.212 1.228 0 .724.212 1.246.213.517.596.799.387.276.909.277.369 0 .66-.139.296-.143.494-.41a1.6 1.6 0 0 0 .272-.652h1.598q-.06.753-.443 1.334a2.6 2.6 0 0 1-1.044.905q-.66.324-1.55.324m6.45.004q-.674 0-1.214-.24a2 2 0 0 1-.85-.72q-.308-.475-.308-1.173 0-.6.221-.992.222-.393.605-.628.383-.236.863-.356a7 7 0 0 1 1.002-.18q.623-.064 1.011-.115.388-.055.563-.166.18-.116.18-.356v-.027q0-.522-.309-.808t-.891-.286q-.614 0-.974.267-.355.268-.48.633l-1.56-.222q.184-.645.609-1.08a2.65 2.65 0 0 1 1.038-.656q.614-.22 1.358-.221.511 0 1.02.12.508.12.928.397.42.272.674.743.258.47.258 1.177V40h-1.606v-.974h-.055a2 2 0 0 1-.43.554q-.271.255-.688.41a2.8 2.8 0 0 1-.965.153m.434-1.228q.504 0 .873-.198.369-.204.568-.536.203-.332.203-.725v-.835a.8.8 0 0 1-.268.12q-.184.055-.415.097a13 13 0 0 1-.457.074l-.393.055q-.374.052-.67.166a1.1 1.1 0 0 0-.465.323.8.8 0 0 0-.171.527q0 .461.337.697.336.235.858.235m6.662-8.37V40h-1.671v-9.454zM85.492 40H82.29v-9.454h3.268q1.409 0 2.42.567a3.8 3.8 0 0 1 1.56 1.62q.545 1.058.545 2.53 0 1.478-.55 2.54a3.8 3.8 0 0 1-1.574 1.63Q86.933 40 85.493 40m-1.49-1.482h1.408q.987 0 1.648-.36.66-.365.992-1.085.333-.724.333-1.81 0-1.084-.333-1.8a2.27 2.27 0 0 0-.983-1.076q-.646-.36-1.606-.36H84zm10.772 1.62q-1.066 0-1.842-.443a3 3 0 0 1-1.186-1.265q-.416-.82-.416-1.934 0-1.095.416-1.92.42-.831 1.172-1.293.753-.466 1.768-.466.656 0 1.238.212.585.208 1.034.646.452.439.71 1.118.26.674.26 1.606v.513h-5.813v-1.127h4.21a1.8 1.8 0 0 0-.207-.854 1.5 1.5 0 0 0-.568-.595 1.6 1.6 0 0 0-.84-.217q-.513 0-.9.249-.389.244-.605.646a1.86 1.86 0 0 0-.217.873v.983q0 .618.226 1.062.226.438.632.674.406.23.951.23.364 0 .66-.1.296-.108.513-.31.217-.203.328-.503l1.56.175a2.43 2.43 0 0 1-.563 1.08 2.75 2.75 0 0 1-1.053.711q-.642.25-1.468.25M99.415 40v-9.454h1.671v3.536h.069a3 3 0 0 1 .365-.55q.235-.295.637-.503.402-.213 1.025-.212.822 0 1.482.42.665.416 1.052 1.232.393.813.393 1.995 0 1.167-.383 1.985-.384.817-1.044 1.246a2.7 2.7 0 0 1-1.495.43q-.61 0-1.011-.203a2.1 2.1 0 0 1-.647-.49 3.2 3.2 0 0 1-.374-.55h-.097V40zm1.639-3.545q0 .688.194 1.204.198.517.568.808.373.287.904.287.555 0 .928-.296.374-.3.563-.817.194-.522.194-1.186 0-.66-.189-1.173a1.76 1.76 0 0 0-.563-.803q-.373-.291-.933-.291-.535 0-.909.281t-.568.79q-.189.507-.189 1.196m10.995.563v-4.109h1.671V40h-1.62v-1.26h-.074q-.24.595-.789.974-.545.378-1.344.378-.697 0-1.232-.309a2.15 2.15 0 0 1-.831-.91q-.3-.6-.3-1.449v-4.515h1.671v4.257q0 .674.369 1.07.369.398.97.398.369 0 .715-.18.346-.181.568-.536.226-.36.226-.9m6.474 5.789q-.901 0-1.547-.245-.646-.24-1.039-.646a2.24 2.24 0 0 1-.544-.9l1.505-.365q.101.207.295.41.194.21.522.342.332.14.835.139.711 0 1.177-.346.467-.342.467-1.127v-1.343h-.083q-.13.259-.379.53-.244.273-.651.458-.402.184-1.011.184a2.9 2.9 0 0 1-1.482-.383q-.66-.387-1.052-1.154-.388-.77-.388-1.93 0-1.167.388-1.97.392-.81 1.057-1.224.665-.42 1.482-.42.623 0 1.025.212.405.208.646.503.24.29.365.55h.092v-1.173h1.648v7.206q0 .91-.434 1.505a2.6 2.6 0 0 1-1.186.891q-.753.296-1.708.296m.013-4.22q.531 0 .905-.258.375-.258.568-.743.194-.485.194-1.164 0-.67-.194-1.172a1.67 1.67 0 0 0-.563-.78q-.37-.282-.91-.282-.558 0-.932.29-.374.291-.563.8-.19.502-.19 1.144 0 .651.19 1.14.194.486.567.758.38.267.928.267m11.793-5.678v1.293h-4.076v-1.293zm-3.07-1.699h1.671v6.657q0 .337.102.517a.55.55 0 0 0 .277.24q.17.065.379.065.156 0 .286-.023.134-.024.203-.042l.281 1.307q-.134.045-.383.101a3 3 0 0 1-.6.065 2.7 2.7 0 0 1-1.131-.19 1.76 1.76 0 0 1-.799-.655q-.29-.443-.286-1.108zm4.468 8.79v-7.09h1.62v1.18h.074q.194-.612.665-.946a1.83 1.83 0 0 1 1.085-.337q.138 0 .309.014.175.01.291.033v1.537a1.8 1.8 0 0 0-.337-.065 3 3 0 0 0-.439-.032 1.7 1.7 0 0 0-.821.199q-.36.193-.568.54-.208.346-.208.798V40zm7.068.143q-.674 0-1.214-.24a2 2 0 0 1-.85-.72q-.309-.475-.309-1.173 0-.6.221-.992.222-.393.605-.628a3 3 0 0 1 .863-.356 7 7 0 0 1 1.002-.18q.624-.064 1.011-.115.388-.055.563-.166.18-.116.18-.356v-.027q0-.522-.309-.808t-.891-.286q-.614 0-.974.267-.355.268-.48.633l-1.56-.222q.184-.645.609-1.08.424-.439 1.039-.656a4 4 0 0 1 1.357-.221q.513 0 1.02.12.508.12.928.397.42.272.674.743.258.47.259 1.177V40h-1.607v-.974h-.055a2 2 0 0 1-.43.554 2.1 2.1 0 0 1-.688.41 2.8 2.8 0 0 1-.964.153m.434-1.228q.503 0 .872-.198.37-.204.568-.536.203-.332.203-.725v-.835a.8.8 0 0 1-.268.12q-.184.055-.415.097-.23.04-.457.074l-.393.055q-.373.052-.669.166a1.1 1.1 0 0 0-.466.323.8.8 0 0 0-.171.527q0 .461.337.697t.859.235m8.083 1.224q-1.062 0-1.823-.467a3.1 3.1 0 0 1-1.168-1.288q-.407-.826-.407-1.902 0-1.08.416-1.906a3.1 3.1 0 0 1 1.172-1.293q.762-.466 1.801-.466.863 0 1.528.318.67.315 1.066.891.397.573.453 1.34h-1.598a1.52 1.52 0 0 0-.461-.855q-.36-.345-.965-.346-.513 0-.9.277-.388.272-.605.785-.213.511-.212 1.228 0 .724.212 1.246.213.517.595.799.388.276.91.277.369 0 .66-.139.296-.143.494-.41.198-.269.272-.652h1.598a2.8 2.8 0 0 1-.443 1.334 2.63 2.63 0 0 1-1.044.905q-.66.324-1.551.324m7.549 0q-1.066 0-1.842-.444a3 3 0 0 1-1.186-1.265q-.416-.82-.416-1.934 0-1.095.416-1.92.42-.831 1.172-1.293.753-.466 1.768-.466.656 0 1.238.212.586.208 1.034.646.452.439.711 1.118.258.674.258 1.606v.513h-5.812v-1.127h4.21a1.8 1.8 0 0 0-.207-.854 1.5 1.5 0 0 0-.568-.595 1.6 1.6 0 0 0-.84-.217 1.63 1.63 0 0 0-.901.249q-.388.244-.604.646a1.85 1.85 0 0 0-.217.873v.983q0 .618.226 1.062.226.438.632.674.406.23.951.23.364 0 .66-.1a1.5 1.5 0 0 0 .513-.31q.216-.203.328-.503l1.56.175a2.44 2.44 0 0 1-.563 1.08 2.75 2.75 0 0 1-1.053.711q-.642.25-1.468.25m11.383-7.23v1.293h-4.192v-1.293zM163.1 40v-7.76q0-.715.296-1.191.3-.475.803-.711a2.6 2.6 0 0 1 1.117-.236q.435 0 .771.07.337.069.499.124l-.333 1.293a3 3 0 0 0-.267-.065 1.6 1.6 0 0 0-.36-.037q-.466 0-.661.226-.189.222-.189.637V40zm7.279.139q-1.038 0-1.8-.458a3.1 3.1 0 0 1-1.182-1.278q-.415-.822-.415-1.92 0-1.1.415-1.926.42-.826 1.182-1.283t1.8-.457q1.04 0 1.801.457.762.456 1.177 1.283.42.827.42 1.925 0 1.1-.42 1.92a3.07 3.07 0 0 1-1.177 1.28q-.762.456-1.801.456m.01-1.34q.563 0 .941-.309.38-.313.564-.84a3.5 3.5 0 0 0 .189-1.172q0-.651-.189-1.178a1.86 1.86 0 0 0-.564-.844q-.378-.315-.941-.314-.577 0-.961.314-.378.313-.567.844-.185.527-.185 1.178 0 .645.185 1.172.189.526.567.84.384.31.961.31M175.196 40v-7.09h1.62v1.18h.074q.194-.612.665-.946a1.83 1.83 0 0 1 1.084-.337q.14 0 .31.014.175.01.291.033v1.537a2 2 0 0 0-.337-.065 3 3 0 0 0-.439-.032 1.7 1.7 0 0 0-.822.199 1.46 1.46 0 0 0-.775 1.338V40zm10.419.143a3 3 0 0 1-1.214-.24 2 2 0 0 1-.85-.72q-.309-.475-.309-1.173 0-.6.222-.992.221-.393.604-.628.384-.236.864-.356a7 7 0 0 1 1.002-.18 40 40 0 0 0 1.011-.115q.387-.055.563-.166.18-.116.18-.356v-.027q0-.522-.31-.808-.309-.286-.891-.286-.614 0-.974.267-.356.268-.48.633l-1.56-.222q.185-.645.609-1.08.425-.439 1.039-.656a4 4 0 0 1 1.357-.221q.513 0 1.02.12.508.12.928.397.42.272.674.743.26.47.259 1.177V40h-1.607v-.974h-.055a2 2 0 0 1-.429.554 2.1 2.1 0 0 1-.688.41 2.8 2.8 0 0 1-.965.153m.434-1.228q.503 0 .872-.198a1.46 1.46 0 0 0 .568-.536q.203-.332.203-.725v-.835a.8.8 0 0 1-.267.12q-.185.055-.416.097-.23.04-.457.074l-.392.055q-.375.052-.67.166a1.1 1.1 0 0 0-.466.323.8.8 0 0 0-.171.527q0 .461.337.697t.859.235m11.807-6.006v1.293h-4.192v-1.293zM194.712 40v-7.76q0-.715.295-1.191.3-.475.803-.711a2.6 2.6 0 0 1 1.118-.236q.434 0 .771.07.336.069.498.124l-.332 1.293a3 3 0 0 0-.268-.065 1.6 1.6 0 0 0-.36-.037q-.466 0-.66.226-.189.222-.189.637V40zm6.252.143q-.674 0-1.215-.24a2 2 0 0 1-.849-.72q-.309-.475-.309-1.173 0-.6.221-.992.222-.393.605-.628a3 3 0 0 1 .863-.356 7 7 0 0 1 1.002-.18q.624-.064 1.011-.115.388-.055.563-.166.18-.116.18-.356v-.027q0-.522-.309-.808t-.891-.286q-.614 0-.974.267-.355.268-.48.633l-1.56-.222q.184-.645.609-1.08.424-.439 1.039-.656a4 4 0 0 1 1.357-.221q.513 0 1.02.12.508.12.928.397.42.272.674.743.259.47.259 1.177V40h-1.607v-.974h-.055a2 2 0 0 1-.43.554 2.1 2.1 0 0 1-.688.41 2.8 2.8 0 0 1-.964.153m.434-1.228q.503 0 .872-.198.37-.204.568-.536.203-.332.203-.725v-.835a.8.8 0 0 1-.268.12q-.184.055-.415.097-.23.04-.457.074l-.393.055q-.374.052-.669.166a1.1 1.1 0 0 0-.466.323.8.8 0 0 0-.171.527q0 .461.337.697t.859.235m4.99 1.085v-7.09h1.671V40zm.84-8.097a.97.97 0 0 1-.683-.263.85.85 0 0 1-.286-.642q0-.379.286-.642a.97.97 0 0 1 .683-.268q.402 0 .683.268.287.264.287.642 0 .374-.287.642a.96.96 0 0 1-.683.263m4.221-1.357V40h-1.671v-9.454zM213.167 40v-7.09h1.671V40zm.84-8.097a.98.98 0 0 1-.683-.263.85.85 0 0 1-.286-.642q0-.379.286-.642a.97.97 0 0 1 .683-.268q.402 0 .684.268.286.264.286.642 0 .374-.286.642a.97.97 0 0 1-.684.263m4.221 3.942V40h-1.671v-7.09h1.597v1.204h.083q.245-.595.78-.946.54-.351 1.335-.351.733 0 1.278.314.55.313.85.91.304.594.3 1.444V40h-1.671v-4.256q0-.711-.37-1.113-.364-.402-1.011-.402-.438 0-.78.194-.336.19-.531.55-.189.36-.189.872m9.335 6.962q-.901 0-1.547-.245-.646-.24-1.039-.646a2.24 2.24 0 0 1-.544-.9l1.505-.365q.101.207.295.41.193.21.522.342.332.14.835.139.711 0 1.177-.346.467-.342.467-1.127v-1.343h-.083q-.13.259-.379.53-.245.273-.651.458-.402.184-1.011.184a2.9 2.9 0 0 1-1.482-.383q-.66-.387-1.052-1.154-.388-.77-.388-1.93 0-1.167.388-1.97.392-.81 1.057-1.224.665-.42 1.482-.42.623 0 1.025.212.406.208.646.503.24.29.365.55h.092v-1.173h1.648v7.206q0 .91-.434 1.505a2.6 2.6 0 0 1-1.186.891q-.753.296-1.708.296m.013-4.22q.531 0 .905-.258.375-.258.568-.743.194-.485.194-1.164 0-.67-.194-1.172a1.67 1.67 0 0 0-.563-.78q-.369-.282-.91-.282-.558 0-.932.29-.374.291-.563.8a3.2 3.2 0 0 0-.19 1.144q0 .651.19 1.14.193.486.568.758.378.267.927.267m13.464-5.443a1.26 1.26 0 0 0-.544-.941q-.476-.337-1.238-.337-.536 0-.918.161a1.36 1.36 0 0 0-.587.439 1.07 1.07 0 0 0-.207.632.95.95 0 0 0 .134.513q.138.216.374.37a2.6 2.6 0 0 0 .521.248q.286.102.577.171l.887.222q.535.124 1.029.337.498.212.891.535.397.324.628.78.231.457.231 1.072 0 .83-.425 1.463-.424.628-1.228.983-.798.351-1.934.351-1.103 0-1.916-.342-.808-.341-1.265-.997-.453-.656-.489-1.597h1.685q.037.494.304.822.268.327.697.49.435.16.97.16.559 0 .979-.166.424-.17.664-.47.24-.304.245-.711a.9.9 0 0 0-.217-.61 1.6 1.6 0 0 0-.595-.406 6 6 0 0 0-.887-.295l-1.075-.277q-1.169-.3-1.847-.91-.674-.614-.674-1.63 0-.834.452-1.463a3 3 0 0 1 1.242-.974q.785-.35 1.778-.35 1.005 0 1.763.35.762.346 1.196.965.434.614.447 1.413zm6.324 6.995q-1.062 0-1.824-.467a3.1 3.1 0 0 1-1.168-1.288q-.406-.826-.406-1.902 0-1.08.416-1.906a3.1 3.1 0 0 1 1.172-1.293q.762-.466 1.801-.466.862 0 1.528.318.669.315 1.066.891.398.573.452 1.34h-1.597a1.52 1.52 0 0 0-.461-.855q-.361-.345-.965-.346-.513 0-.901.277a1.77 1.77 0 0 0-.604.785q-.213.511-.213 1.228 0 .724.213 1.246.212.517.595.799.388.276.91.277.369 0 .66-.139.295-.143.494-.41.198-.269.272-.652h1.597q-.06.753-.443 1.334a2.6 2.6 0 0 1-1.043.905q-.66.324-1.551.324m4.41-.139v-7.09h1.62v1.18h.074q.194-.612.665-.946a1.83 1.83 0 0 1 1.085-.337q.138 0 .309.014.175.01.291.033v1.537a1.8 1.8 0 0 0-.337-.065 3 3 0 0 0-.439-.032q-.457 0-.822.199-.36.193-.567.54-.208.346-.208.798V40zm5.154 0v-7.09h1.671V40zm.84-8.097a.98.98 0 0 1-.683-.263.85.85 0 0 1-.286-.642q0-.379.286-.642a.97.97 0 0 1 .683-.268q.402 0 .683.268.287.264.287.642 0 .374-.287.642a.96.96 0 0 1-.683.263m2.55 10.756v-9.75h1.643v1.173h.097q.13-.26.365-.55.235-.295.637-.503.401-.213 1.025-.212.821 0 1.482.42.665.416 1.052 1.232.393.813.393 1.995 0 1.167-.384 1.985-.383.817-1.043 1.246t-1.496.43q-.609 0-1.011-.203a2.1 2.1 0 0 1-.646-.49 3 3 0 0 1-.374-.55h-.069v3.777zm1.638-6.204q0 .688.194 1.204.2.517.568.808.374.287.905.287.554 0 .928-.296.374-.3.563-.817.194-.522.194-1.186 0-.66-.189-1.173a1.76 1.76 0 0 0-.563-.803q-.375-.291-.933-.291-.536 0-.909.281-.375.282-.568.79-.19.507-.19 1.196m10.027-3.546v1.293h-4.076v-1.293zm-3.069-1.699h1.671v6.657q0 .337.101.517a.55.55 0 0 0 .277.24q.17.065.379.065.157 0 .286-.023.134-.024.203-.042l.282 1.307q-.134.045-.383.101a3 3 0 0 1-.601.065 2.7 2.7 0 0 1-1.131-.19 1.76 1.76 0 0 1-.798-.655q-.291-.443-.286-1.108zm9.363 4.635V40h-1.671v-7.09h1.597v1.204h.083q.244-.595.78-.946.54-.351 1.334-.351.735 0 1.279.314.55.313.85.91.304.594.3 1.444V40h-1.671v-4.256q0-.711-.37-1.113-.365-.402-1.011-.402-.438 0-.78.194a1.34 1.34 0 0 0-.531.55q-.189.36-.189.872m9.344 4.294q-1.04 0-1.801-.458a3.1 3.1 0 0 1-1.182-1.278q-.415-.822-.415-1.92 0-1.1.415-1.926.42-.826 1.182-1.283t1.801-.457 1.8.457 1.177 1.283q.42.827.42 1.925 0 1.1-.42 1.92a3.07 3.07 0 0 1-1.177 1.28q-.762.456-1.8.456m.009-1.34q.563 0 .942-.309.378-.313.563-.84a3.5 3.5 0 0 0 .189-1.172q0-.651-.189-1.178a1.87 1.87 0 0 0-.563-.844q-.38-.315-.942-.314-.577 0-.96.314-.38.313-.568.844-.185.527-.185 1.178 0 .645.185 1.172.189.526.568.84.382.31.96.31m7.438 1.326a2.7 2.7 0 0 1-1.496-.43q-.66-.429-1.043-1.246-.383-.818-.383-1.985 0-1.182.388-1.995.392-.816 1.057-1.232.664-.42 1.482-.42.623 0 1.025.212.401.208.637.503.235.29.364.55h.07v-3.536h1.675V40h-1.643v-1.117h-.102q-.128.258-.374.55-.244.285-.646.489-.402.203-1.011.203m.466-1.371q.531 0 .905-.287.375-.29.568-.808a3.4 3.4 0 0 0 .194-1.204q0-.689-.194-1.196a1.7 1.7 0 0 0-.563-.79q-.369-.28-.91-.281-.558 0-.932.29a1.76 1.76 0 0 0-.563.804q-.19.512-.19 1.173 0 .664.19 1.186.193.517.568.817.378.296.927.296m8.23 1.385q-1.065 0-1.842-.444a3 3 0 0 1-1.186-1.265q-.415-.82-.415-1.934 0-1.095.415-1.92a3.14 3.14 0 0 1 1.173-1.293q.752-.466 1.768-.466.655 0 1.237.212a2.8 2.8 0 0 1 1.034.646q.453.439.711 1.118.259.674.259 1.606v.513h-5.813v-1.127h4.211a1.8 1.8 0 0 0-.208-.854 1.5 1.5 0 0 0-.568-.595 1.6 1.6 0 0 0-.84-.217q-.513 0-.9.249-.388.244-.605.646a1.85 1.85 0 0 0-.217.873v.983q0 .618.226 1.062.227.438.633.674.405.23.951.23.365 0 .66-.1.295-.108.512-.31.217-.203.328-.503l1.56.175a2.4 2.4 0 0 1-.563 1.08 2.75 2.75 0 0 1-1.052.711q-.642.25-1.469.25"/><path fill="#17181c" d="M21.25 55.25h73.5v39.5h-73.5z"/><path stroke="#555962" stroke-width=".5" d="M21.25 55.25h73.5v39.5h-73.5z"/><path fill="#b3c7ff" d="M50.256 71.91a.833.833 0 0 0-1.179 1.18l1.078 1.077h-8.822a.833.833 0 0 0 0 1.666h8.822l-1.078 1.078a.833.833 0 0 0 1.178 1.178l2.5-2.5a.833.833 0 0 0 0-1.178zm-3.09-.243V70a.833.833 0 0 1 .834-.833h5.833a.833.833 0 0 1 .833.833v10a.833.833 0 0 1-.833.833H48a.833.833 0 0 1-.834-.833v-1.667a.833.833 0 0 0-1.666 0V80a2.5 2.5 0 0 0 2.5 2.5h5.833a2.5 2.5 0 0 0 2.5-2.5V70a2.5 2.5 0 0 0-2.5-2.5H48a2.5 2.5 0 0 0-2.5 2.5v1.667a.833.833 0 0 0 1.666 0"/><path fill="#fff" d="M64.008 71.775v-1.523h5.209v1.523h-1.74v5.702h1.74V79h-5.21v-1.523h1.741v-5.702zm6.92-1.523h1.857l2.438 6.357v-6.357h1.523V79H74.9l-2.449-6.357V79h-1.523z"/><path fill="#17181c" d="M94.25 55.25h226.5v39.5H94.25z"/><path stroke="#555962" stroke-width=".5" d="M94.25 55.25h226.5v39.5H94.25z"/><path fill="#fff" d="M109.598 70.574v1.864h2.449v.837h-2.449v3.563q0 .726.275 1.014.276.287.961.287h1.213V79h-1.318q-1.213 0-1.711-.486-.498-.487-.498-1.676v-3.563h-1.752v-.838h1.752v-1.863zm8.66 6.317q-.27.685-.686 1.804-.58 1.547-.779 1.887-.27.457-.674.686a1.9 1.9 0 0 1-.943.228h-.867v-.902h.638q.475 0 .744-.276.27-.275.686-1.424l-2.537-6.457h1.142l1.946 5.133 1.916-5.132h1.142zm4.4 1.283v3.322h-1.084v-9.058h1.084v.837q.27-.486.715-.738a2.06 2.06 0 0 1 1.037-.258q1.19 0 1.863.92.68.92.68 2.549 0 1.599-.68 2.514-.68.908-1.863.908-.597 0-1.049-.252a1.8 1.8 0 0 1-.703-.744m3.164-2.45q0-1.253-.398-1.892-.393-.639-1.172-.639-.785 0-1.19.645-.404.639-.404 1.887 0 1.242.404 1.886.405.645 1.19.645.779 0 1.172-.639.398-.638.398-1.892m8.432-.544v.527h-4.67v.035q-.046 1.342.51 1.928.562.585 1.582.586.516 0 1.078-.164.562-.165 1.201-.498v1.072q-.615.252-1.189.375a5 5 0 0 1-1.102.129q-1.529 0-2.391-.914-.861-.92-.861-2.531 0-1.57.844-2.508.843-.938 2.25-.938 1.254 0 1.974.85.727.85.774 2.05m-1.078-.317a2.07 2.07 0 0 0-.498-1.172q-.423-.498-1.219-.498-.78 0-1.283.516-.504.516-.551 1.16zm4.26-2.42h1.828v2.116h-1.828zm0 4.424h1.828V79h-1.828zm14.285-5.642v3.287h1.371q.82 0 1.277-.434.463-.433.463-1.213t-.457-1.207q-.457-.433-1.283-.433zm-1.184-.973h2.555q1.465 0 2.22.668.756.662.756 1.945 0 1.296-.756 1.957-.75.662-2.22.662h-1.371V79h-1.184zm9.686 2.941q-.82 0-1.243.639-.421.639-.421 1.893 0 1.248.421 1.892.423.639 1.243.639.825 0 1.248-.639.422-.645.422-1.892 0-1.254-.422-1.893-.423-.639-1.248-.639m0-.914q1.365 0 2.086.885.726.885.726 2.56 0 1.683-.721 2.567-.72.879-2.091.879-1.366 0-2.086-.879-.721-.885-.721-2.566 0-1.677.721-2.56.72-.885 2.086-.886m9.322.387v1.055a4 4 0 0 0-.932-.405 3.4 3.4 0 0 0-.955-.134q-.732 0-1.096.24-.357.234-.357.72 0 .44.27.657.27.216 1.341.422l.434.082q.802.151 1.213.61.416.456.416 1.189 0 .972-.691 1.523-.692.545-1.922.545a5.3 5.3 0 0 1-1.02-.106 9 9 0 0 1-1.154-.304v-1.114q.603.31 1.154.47.55.151 1.043.152.716 0 1.107-.287.393-.293.393-.815 0-.75-1.435-1.037l-.047-.012-.405-.082q-.932-.18-1.359-.61-.428-.432-.428-1.177 0-.943.639-1.453.639-.516 1.822-.516.528 0 1.014.1.486.093.955.287m5.127-2.092v1.864h2.449v.837h-2.449v3.563q0 .726.275 1.014.276.287.961.287h1.213V79h-1.318q-1.213 0-1.711-.486-.498-.487-.498-1.676v-3.563h-1.752v-.838h1.752v-1.863zm10.805 9.54v.995h-7.172v-.996zm.334-9.862h6.673v.996h-2.736V79h-1.189v-7.752h-2.748zm13.517 4.928v.527h-4.67v.035q-.047 1.342.51 1.928.562.585 1.582.586.516 0 1.078-.164.563-.165 1.201-.498v1.072q-.615.252-1.189.375a5 5 0 0 1-1.102.129q-1.529 0-2.39-.914-.862-.92-.862-2.531 0-1.57.844-2.508t2.25-.938q1.254 0 1.975.85.726.85.773 2.05m-1.078-.317a2.07 2.07 0 0 0-.498-1.172q-.422-.498-1.219-.498-.779 0-1.283.516t-.551 1.16zm5.959 1.764q0 .726.264 1.096.269.369.791.369h1.259V79h-1.365q-.966 0-1.5-.615-.527-.621-.527-1.758v-5.936h-1.729v-.843h2.807zm9.58-1.447v.527h-4.67v.035q-.047 1.342.51 1.928.562.585 1.582.586.516 0 1.078-.164.562-.165 1.201-.498v1.072q-.615.252-1.189.375a5 5 0 0 1-1.102.129q-1.529 0-2.39-.914-.862-.92-.862-2.531 0-1.57.844-2.508t2.25-.938q1.254 0 1.975.85.726.85.773 2.05m-1.078-.317a2.07 2.07 0 0 0-.498-1.172q-.422-.498-1.219-.498-.779 0-1.283.516t-.551 1.16zm5.707-1.757q.2-.423.504-.622a1.3 1.3 0 0 1 .744-.205q.79 0 1.113.615.328.61.328 2.303V79h-.984v-3.756q0-1.389-.158-1.722-.153-.34-.563-.34-.468 0-.644.363-.17.357-.17 1.7V79h-.984v-3.756q0-1.406-.17-1.734-.165-.328-.598-.328-.427 0-.598.363-.164.357-.164 1.7V79h-.978v-6.562h.978V73q.193-.351.481-.533.293-.188.662-.188.446 0 .738.205.299.205.463.622m9.832 2.074v.527h-4.67v.035q-.047 1.342.51 1.928.562.585 1.582.586.516 0 1.078-.164.562-.165 1.201-.498v1.072q-.615.252-1.189.375a5 5 0 0 1-1.102.129q-1.529 0-2.39-.914-.862-.92-.862-2.531 0-1.57.844-2.508.843-.938 2.25-.938 1.254 0 1.975.85.726.85.773 2.05m-1.078-.317a2.07 2.07 0 0 0-.498-1.172q-.422-.498-1.219-.498-.779 0-1.283.516t-.551 1.16zm5.344-4.289v1.864h2.449v.837h-2.449v3.563q0 .726.275 1.014.276.287.961.287h1.213V79h-1.319q-1.212 0-1.71-.486-.498-.487-.498-1.676v-3.563h-1.752v-.838h1.752v-1.863zm10.4 3.217q-.346-.27-.703-.393a2.4 2.4 0 0 0-.785-.123q-1.008 0-1.541.633-.534.633-.533 1.828V79h-1.084v-6.562h1.084v1.283q.269-.697.826-1.067.562-.375 1.33-.375.397 0 .744.1.345.1.662.31zm5.49 3.1q-.269.685-.685 1.804-.58 1.547-.78 1.887a1.83 1.83 0 0 1-.673.686q-.405.228-.944.228h-.867v-.902h.639q.474 0 .744-.276.27-.275.685-1.424l-2.537-6.457h1.143l1.945 5.133 1.916-5.132h1.143zm9.375 3.222v.996h-7.172v-.996zm4.512-5.244q.457.118.779.445.323.323.803 1.295L265.064 79h-1.271l-1.043-2.209q-.451-.943-.814-1.213-.358-.275-.938-.275h-1.131V79h-1.189v-8.748h2.437q1.441 0 2.209.65t.768 1.881q0 .867-.475 1.418-.469.546-1.324.668m-2.426-3.644v3.105h1.295q.85 0 1.266-.38.416-.382.416-1.167 0-.756-.446-1.154-.439-.404-1.283-.404zm11.766 3.955v.527h-4.67v.035q-.046 1.342.51 1.928.562.585 1.582.586a3.9 3.9 0 0 0 1.078-.164q.562-.165 1.201-.498v1.072q-.616.252-1.189.375a5 5 0 0 1-1.102.129q-1.53 0-2.391-.914-.861-.92-.861-2.531 0-1.57.844-2.508.843-.938 2.25-.938 1.254 0 1.974.85.728.85.774 2.05m-1.078-.317a2.07 2.07 0 0 0-.498-1.172q-.423-.498-1.219-.498-.78 0-1.283.516-.504.516-.551 1.16zm3.691.885q0 1.254.393 1.893.398.638 1.177.638.78 0 1.178-.638.404-.644.404-1.893 0-1.247-.404-1.887-.398-.645-1.178-.644-.779 0-1.177.639-.393.638-.393 1.892m3.152 2.438a1.9 1.9 0 0 1-.714.75 2.04 2.04 0 0 1-1.038.257q-1.178 0-1.863-.908-.68-.915-.679-2.513 0-1.63.679-2.55.68-.92 1.863-.92.587 0 1.032.258.451.253.72.739v-.838h1.084v9.058h-1.084zm3.276-1.67v-4.067h1.078v4.067q0 .885.31 1.3.317.417.973.416.762 0 1.166-.533.404-.54.404-1.54v-3.71h1.084V79h-1.084v-.984a2.03 2.03 0 0 1-.785.861q-.492.293-1.154.293-1.008 0-1.5-.656-.492-.663-.492-1.998m12.65-1.336v.527h-4.67v.035q-.047 1.342.51 1.928.562.585 1.582.586.516 0 1.078-.164.563-.165 1.201-.498v1.072q-.615.252-1.189.375a5 5 0 0 1-1.102.129q-1.529 0-2.39-.914-.862-.92-.862-2.531 0-1.57.844-2.508t2.25-.938q1.254 0 1.975.85.726.85.773 2.05m-1.078-.317a2.07 2.07 0 0 0-.498-1.172q-.421-.498-1.219-.498-.779 0-1.283.516t-.551 1.16zm7.447-2.197v1.055a4 4 0 0 0-.931-.405 3.5 3.5 0 0 0-.955-.134q-.733 0-1.096.24-.357.234-.357.72 0 .44.269.657.27.216 1.342.422l.433.082q.804.151 1.213.61.416.456.416 1.189 0 .972-.691 1.523-.692.545-1.922.545a5.3 5.3 0 0 1-1.019-.106 9 9 0 0 1-1.155-.304v-1.114q.604.31 1.155.47a4 4 0 0 0 1.043.152q.714 0 1.107-.287.393-.293.393-.815 0-.75-1.436-1.037l-.047-.012-.404-.082q-.931-.18-1.36-.61-.427-.432-.427-1.177 0-.943.638-1.453.64-.516 1.823-.516.527 0 1.013.1.487.093.955.287m5.127-2.092v1.864h2.45v.837h-2.45v3.563q0 .726.276 1.014.275.287.961.287h1.213V79h-1.319q-1.212 0-1.711-.486-.498-.487-.498-1.676v-3.563h-1.752v-.838h1.752v-1.863z"/><path fill="#17181c" d="M320.25 55.25h168.5v39.5h-168.5z"/><path stroke="#555962" stroke-width=".5" d="M320.25 55.25h168.5v39.5h-168.5z"/><path fill="#fff" d="M337.027 73.275v-3.392h1.078V79h-1.078v-.826q-.27.486-.72.744a2.06 2.06 0 0 1-1.032.252q-1.19 0-1.875-.92-.68-.926-.679-2.549 0-1.599.685-2.508.685-.914 1.869-.914.593 0 1.043.258.451.252.709.738m-3.17 2.45q0 1.254.399 1.892.398.639 1.178.639t1.183-.645q.41-.645.41-1.886 0-1.248-.41-1.887-.404-.645-1.183-.645-.78 0-1.178.639-.399.639-.399 1.893m9.487-.024h-.358q-.943 0-1.424.334-.474.328-.474.984 0 .593.357.92.358.33.991.329.89 0 1.4-.616.51-.621.516-1.71v-.24zm2.092-.445V79h-1.084v-.973q-.346.587-.873.867-.522.276-1.272.276-1.002 0-1.6-.563-.597-.568-.597-1.517 0-1.095.732-1.664.738-.57 2.162-.569h1.448v-.17q-.006-.785-.399-1.136-.393-.358-1.254-.358-.55 0-1.113.159-.562.158-1.096.462v-1.078a7.3 7.3 0 0 1 1.143-.34 5 5 0 0 1 1.066-.117q.815 0 1.389.24.58.24.937.721.223.294.317.727.094.428.094 1.289m4.623-4.682v1.864h2.449v.837h-2.449v3.563q0 .726.275 1.014.276.287.961.287h1.213V79h-1.319q-1.212 0-1.71-.486-.5-.487-.499-1.676v-3.563h-1.751v-.838h1.751v-1.863zm7.746 5.127h-.358q-.943 0-1.424.334-.474.328-.474.984 0 .593.357.92.359.33.99.329.891 0 1.401-.616.51-.621.515-1.71v-.24zm2.091-.445V79h-1.084v-.973q-.345.587-.873.867-.52.276-1.271.276-1.002 0-1.6-.563-.597-.568-.597-1.517 0-1.095.732-1.664.738-.57 2.162-.569h1.447v-.17q-.005-.785-.398-1.136-.393-.358-1.254-.358-.55 0-1.113.159-.562.158-1.096.462v-1.078a7.3 7.3 0 0 1 1.143-.34 5 5 0 0 1 1.066-.117q.815 0 1.389.24.58.24.937.721.223.294.317.727.093.428.093 1.289m3.54-2.813h1.828v2.116h-1.828zm0 4.424h1.828V79h-1.828zM381.43 79.3v.844h-.375q-1.46 0-1.957-.434-.492-.434-.493-1.728v-1.172q0-.639-.363-1.102-.357-.463-1.113-.463h-.715v-.838h.715q.826 0 1.148-.392.328-.393.328-1.155v-1.523q0-1.295.493-1.723.498-.433 1.957-.433h.375v.838h-.41q-.82 0-1.073.257-.246.253-.246 1.084v1.57q0 1.032-.404 1.39-.405.351-1.576.51 1.137.134 1.558.52.423.381.422 1.383v1.225q0 .838.246 1.09.252.252 1.073.252zm13.951-9.364v3.587h-1.313v-3.587zm-3.123 0v3.587h-1.313v-3.587zm8.414.64v1.862h2.449v.838h-2.449v3.563q0 .726.275 1.014.276.287.961.287h1.213V79h-1.318q-1.213 0-1.711-.486-.498-.487-.498-1.676v-3.563h-1.752v-.838h1.752v-1.863zm10.195 4.605v.527h-4.67v.035q-.046 1.342.51 1.928.562.585 1.582.586.516 0 1.078-.164.563-.165 1.201-.498v1.072q-.615.252-1.189.375a5 5 0 0 1-1.102.129q-1.529 0-2.39-.914-.862-.92-.862-2.531 0-1.57.844-2.508t2.25-.938q1.254 0 1.975.85.726.85.773 2.05m-1.078-.317a2.07 2.07 0 0 0-.498-1.172q-.421-.498-1.219-.498-.779 0-1.283.516t-.551 1.16zm5.707-1.757q.2-.423.504-.622a1.3 1.3 0 0 1 .744-.205q.791 0 1.113.615.329.61.329 2.303V79h-.985v-3.756q0-1.389-.158-1.722-.152-.34-.563-.34-.468 0-.644.363-.17.357-.17 1.7V79h-.984v-3.756q0-1.406-.17-1.734-.165-.328-.598-.328-.427 0-.598.363-.164.357-.164 1.7V79h-.978v-6.562h.978V73q.193-.351.481-.533.293-.188.662-.188.445 0 .738.205.299.205.463.622m5.467 5.068v3.322h-1.084v-9.058h1.084v.837q.27-.486.715-.738a2.05 2.05 0 0 1 1.037-.258q1.19 0 1.863.92.68.92.68 2.549 0 1.599-.68 2.514-.68.908-1.863.908-.598 0-1.049-.252a1.8 1.8 0 0 1-.703-.744m3.164-2.45q0-1.253-.398-1.892-.393-.639-1.172-.639-.785 0-1.19.645-.404.639-.404 1.887 0 1.242.404 1.886.405.645 1.19.645.779 0 1.172-.639.398-.638.398-1.892m7.406-5.788v3.585h-1.312v-3.585zm-3.123 0v3.585h-1.312v-3.585zm7.33 2.507h1.828v2.116h-1.828zm0 4.424h1.828V79h-1.828zm15.44-1.746q.756 0 1.183-.545.434-.544.434-1.506 0-.96-.434-1.505-.427-.546-1.183-.546-.786 0-1.184.522-.399.515-.398 1.53 0 1.018.392 1.535.398.515 1.19.515m-2.11 3.697v-1.09q.37.217.785.335.417.11.868.11 1.125 0 1.699-.843.58-.849.58-2.496-.276.585-.773.902-.499.31-1.143.31-1.266 0-1.963-.778-.691-.78-.691-2.21 0-1.411.709-2.185.714-.78 2.015-.78 1.524 0 2.233 1.096t.709 3.446q0 2.208-.856 3.375-.849 1.16-2.472 1.16-.429 0-.862-.094a4.5 4.5 0 0 1-.838-.258m9.34-3.697q.756 0 1.184-.545.433-.544.433-1.506 0-.96-.433-1.505-.428-.546-1.184-.546-.785 0-1.183.522-.399.515-.399 1.53 0 1.018.393 1.535.398.515 1.189.515m-2.109 3.697v-1.09q.37.217.785.335.415.11.867.11 1.125 0 1.699-.843.58-.849.58-2.496-.275.585-.773.902-.498.31-1.143.31-1.265 0-1.962-.778-.692-.78-.692-2.21 0-1.411.709-2.185.716-.78 2.016-.78 1.522 0 2.232 1.096t.709 3.446q0 2.208-.855 3.375-.85 1.16-2.473 1.16-.428 0-.861-.094a4.4 4.4 0 0 1-.838-.258m14.771.48q.82 0 1.067-.251.252-.252.252-1.09v-1.225q0-1.002.421-1.382.422-.387 1.559-.522-1.172-.157-1.576-.51-.405-.357-.404-1.388v-1.57q0-.833-.252-1.085-.246-.257-1.067-.257h-.41v-.838h.375q1.46 0 1.951.433.498.428.498 1.723v1.523q0 .762.323 1.155.327.392 1.154.392h.715v.838h-.715q-.756 0-1.119.463a1.75 1.75 0 0 0-.358 1.102v1.172q0 1.294-.498 1.728-.492.434-1.951.434h-.375v-.844z"/><path fill="#17181c" d="M488.25 55.25h211.5v39.5h-211.5z"/><path stroke="#555962" stroke-width=".5" d="M488.25 55.25h211.5v39.5h-211.5z"/><path fill="#fff" d="M506.562 75.18v.527h-4.669v.035q-.048 1.342.509 1.928.563.585 1.582.586a3.8 3.8 0 0 0 1.078-.164q.563-.165 1.202-.498v1.072q-.615.252-1.19.375a5 5 0 0 1-1.101.129q-1.53 0-2.391-.914-.861-.92-.861-2.531 0-1.57.843-2.508.844-.938 2.25-.938 1.255 0 1.975.85.726.85.773 2.05m-1.078-.317a2.06 2.06 0 0 0-.498-1.172q-.422-.498-1.218-.498-.78 0-1.284.516t-.55 1.16zm8.514-1.072q-.346-.27-.703-.393a2.4 2.4 0 0 0-.785-.123q-1.008 0-1.541.633-.534.633-.533 1.828V79h-1.084v-6.562h1.084v1.283q.269-.697.826-1.067.562-.375 1.33-.375.397 0 .744.1.345.1.662.31zm7.231 0a2.4 2.4 0 0 0-.704-.393 2.4 2.4 0 0 0-.785-.123q-1.007 0-1.541.633-.533.633-.533 1.828V79h-1.084v-6.562h1.084v1.283q.27-.697.826-1.067.563-.375 1.33-.375.399 0 .744.1.346.1.663.31zm4.072-.598q-.82 0-1.242.639t-.422 1.893q0 1.248.422 1.892.422.639 1.242.639.827 0 1.248-.639.422-.645.422-1.892 0-1.254-.422-1.893-.421-.639-1.248-.639m0-.914q1.365 0 2.086.885.726.885.726 2.56 0 1.683-.72 2.567-.721.879-2.092.879-1.365 0-2.086-.879-.721-.885-.721-2.566 0-1.677.721-2.56.72-.885 2.086-.886m10.388 1.512q-.345-.27-.703-.393a2.4 2.4 0 0 0-.785-.123q-1.007 0-1.541.633-.533.633-.533 1.828V79h-1.084v-6.562h1.084v1.283q.27-.697.826-1.067.562-.375 1.33-.375.399 0 .744.1.347.1.662.31zm2.977-1.348h1.828v2.116h-1.828zm0 4.424h1.828V79h-1.828zm12.545-2.11h6.211v.991h-6.211z"/><path fill="#17181c" d="M21.25 94.25h73.5v39.5h-73.5z"/><path stroke="#555962" stroke-width=".5" d="M21.25 94.25h73.5v39.5h-73.5z"/><path fill="#f9e8c3" fill-rule="evenodd" d="M45.167 109v1.667a.833.833 0 0 0 1.666 0V109a2.5 2.5 0 0 0-2.5-2.5H38.5A2.503 2.503 0 0 0 36 109v10a2.5 2.5 0 0 0 2.5 2.5h5.833a2.503 2.503 0 0 0 2.5-2.5v-1.667a.833.833 0 0 0-1.666 0V119a.83.83 0 0 1-.834.833H38.5a.834.834 0 0 1-.833-.833v-10a.83.83 0 0 1 .833-.833h5.833a.834.834 0 0 1 .834.833" clip-rule="evenodd"/><path fill="#f9e8c3" d="M49.756 110.911a.832.832 0 1 0-1.178 1.178l1.077 1.077h-8.822a.834.834 0 0 0 0 1.667h8.822l-1.078 1.078a.833.833 0 1 0 1.179 1.178l2.5-2.5a.833.833 0 0 0 0-1.178z"/><path fill="#fff" d="M63.11 110.646q-.663 0-.967.709-.305.703-.305 2.28 0 1.57.305 2.279.305.703.966.703.669 0 .973-.703.305-.709.305-2.279 0-1.576-.305-2.28-.304-.709-.973-.709m-3.07 2.989q0-2.244.773-3.393.779-1.148 2.296-1.148 1.524 0 2.297 1.148.78 1.149.78 3.393 0 2.238-.78 3.386-.773 1.149-2.297 1.149-1.517 0-2.297-1.149-.773-1.148-.773-3.386m7.312 1.136v-5.519h1.728v5.953q0 .657.334 1.031.334.369.926.369.591 0 .926-.369.334-.374.334-1.031v-5.953h1.728v5.519q0 1.782-.709 2.59-.708.809-2.28.809-1.564 0-2.278-.809-.71-.808-.71-2.59M78.437 118H76.71v-7.236h-2.22v-1.512h6.17v1.512h-2.222z"/><path fill="#17181c" d="M94.25 94.25h226.5v39.5H94.25z"/><path stroke="#555962" stroke-width=".5" d="M94.25 94.25h226.5v39.5H94.25z"/><path fill="#fff" d="M109.598 109.574v1.864h2.449v.837h-2.449v3.563q0 .726.275 1.014.276.287.961.287h1.213V118h-1.318q-1.213 0-1.711-.486-.498-.487-.498-1.676v-3.563h-1.752v-.837h1.752v-1.864zm8.66 6.317q-.27.685-.686 1.804-.58 1.547-.779 1.887-.27.457-.674.686a1.9 1.9 0 0 1-.943.228h-.867v-.902h.638q.475 0 .744-.276.27-.275.686-1.423l-2.537-6.457h1.142l1.946 5.132 1.916-5.132h1.142zm4.4 1.283v3.322h-1.084v-9.058h1.084v.837q.27-.486.715-.738a2.05 2.05 0 0 1 1.037-.258q1.19 0 1.863.92.68.92.68 2.549 0 1.599-.68 2.514-.68.908-1.863.908-.597 0-1.049-.252a1.83 1.83 0 0 1-.703-.744m3.164-2.449q0-1.254-.398-1.893-.393-.639-1.172-.639-.785 0-1.19.645-.404.639-.404 1.887 0 1.242.404 1.886.405.645 1.19.645.779 0 1.172-.639.398-.639.398-1.892m8.432-.545v.527h-4.67v.035q-.046 1.342.51 1.928.562.586 1.582.586a3.9 3.9 0 0 0 1.078-.164q.562-.165 1.201-.498v1.072q-.615.252-1.189.375a5 5 0 0 1-1.102.129q-1.529 0-2.391-.914-.861-.92-.861-2.531 0-1.57.844-2.508.843-.938 2.25-.938 1.254 0 1.974.85.727.85.774 2.051m-1.078-.317a2.07 2.07 0 0 0-.498-1.172q-.423-.498-1.219-.498-.78 0-1.283.516-.504.516-.551 1.16zm4.26-2.42h1.828v2.116h-1.828zm0 4.424h1.828V118h-1.828zm14.285-5.642v3.287h1.371q.82 0 1.277-.434.463-.433.463-1.213 0-.779-.457-1.207-.457-.433-1.283-.433zm-1.184-.973h2.555q1.465 0 2.22.668.756.662.756 1.945 0 1.296-.756 1.957-.75.662-2.22.662h-1.371V118h-1.184zm9.686 2.941q-.82 0-1.243.639-.421.639-.421 1.893 0 1.248.421 1.892.423.639 1.243.639.825 0 1.248-.639.422-.644.422-1.892 0-1.254-.422-1.893-.423-.639-1.248-.639m0-.914q1.365 0 2.086.885.726.885.726 2.561 0 1.681-.721 2.566-.72.879-2.091.879-1.366 0-2.086-.879-.721-.885-.721-2.566 0-1.677.721-2.561.72-.885 2.086-.885m9.322.387v1.055a4 4 0 0 0-.932-.405 3.5 3.5 0 0 0-.955-.134q-.732 0-1.096.24-.357.234-.357.721 0 .439.27.656.27.216 1.341.422l.434.082q.802.152 1.213.609.416.457.416 1.19 0 .972-.691 1.523-.692.545-1.922.545-.487 0-1.02-.106a9 9 0 0 1-1.154-.304v-1.114q.603.312 1.154.469a4 4 0 0 0 1.043.153q.716 0 1.107-.288.393-.292.393-.814 0-.75-1.435-1.037l-.047-.012-.405-.082q-.932-.181-1.359-.609-.428-.434-.428-1.178 0-.943.639-1.453.639-.516 1.822-.516.528 0 1.014.1.486.093.955.287m5.127-2.092v1.864h2.449v.837h-2.449v3.563q0 .726.275 1.014.276.287.961.287h1.213V118h-1.318q-1.213 0-1.711-.486-.498-.487-.498-1.676v-3.563h-1.752v-.837h1.752v-1.864zm10.805 9.539v.996h-7.172v-.996zm.334-9.861h6.673v.996h-2.736V118h-1.189v-7.752h-2.748zm13.517 4.928v.527h-4.67v.035q-.047 1.342.51 1.928.562.586 1.582.586a3.9 3.9 0 0 0 1.078-.164q.563-.165 1.201-.498v1.072q-.615.252-1.189.375a5 5 0 0 1-1.102.129q-1.529 0-2.39-.914-.862-.92-.862-2.531 0-1.57.844-2.508t2.25-.938q1.254 0 1.975.85.726.85.773 2.051m-1.078-.317a2.07 2.07 0 0 0-.498-1.172q-.422-.498-1.219-.498-.779 0-1.283.516t-.551 1.16zm5.959 1.764q0 .726.264 1.096.269.369.791.369h1.259V118h-1.365q-.966 0-1.5-.615-.527-.621-.527-1.758v-5.936h-1.729v-.843h2.807zm9.58-1.447v.527h-4.67v.035q-.047 1.342.51 1.928.562.586 1.582.586a3.9 3.9 0 0 0 1.078-.164q.562-.165 1.201-.498v1.072q-.615.252-1.189.375a5 5 0 0 1-1.102.129q-1.529 0-2.39-.914-.862-.92-.862-2.531 0-1.57.844-2.508t2.25-.938q1.254 0 1.975.85.726.85.773 2.051m-1.078-.317a2.07 2.07 0 0 0-.498-1.172q-.422-.498-1.219-.498-.779 0-1.283.516t-.551 1.16zm5.707-1.758q.2-.422.504-.621.31-.204.744-.205.79 0 1.113.616.328.609.328 2.302V118h-.984v-3.756q0-1.389-.158-1.723-.153-.339-.563-.339-.468 0-.644.363-.17.358-.17 1.699V118h-.984v-3.756q0-1.405-.17-1.734-.165-.328-.598-.328-.427 0-.598.363-.164.358-.164 1.699V118h-.978v-6.562h.978V112q.193-.351.481-.533.293-.188.662-.188.446 0 .738.205.299.206.463.621m9.832 2.075v.527h-4.67v.035q-.047 1.342.51 1.928.562.586 1.582.586a3.9 3.9 0 0 0 1.078-.164q.562-.165 1.201-.498v1.072q-.615.252-1.189.375a5 5 0 0 1-1.102.129q-1.529 0-2.39-.914-.862-.92-.862-2.531 0-1.57.844-2.508.843-.938 2.25-.938 1.254 0 1.975.85.726.85.773 2.051m-1.078-.317a2.07 2.07 0 0 0-.498-1.172q-.422-.498-1.219-.498-.779 0-1.283.516t-.551 1.16zm5.344-4.289v1.864h2.449v.837h-2.449v3.563q0 .726.275 1.014.276.287.961.287h1.213V118h-1.319q-1.212 0-1.71-.486-.498-.487-.498-1.676v-3.563h-1.752v-.837h1.752v-1.864zm10.4 3.217a2.4 2.4 0 0 0-.703-.393 2.4 2.4 0 0 0-.785-.123q-1.008 0-1.541.633-.534.633-.533 1.828V118h-1.084v-6.562h1.084v1.283q.269-.698.826-1.067.562-.375 1.33-.375.397 0 .744.1.345.1.662.31zm5.49 3.1q-.269.685-.685 1.804-.58 1.547-.78 1.887a1.83 1.83 0 0 1-.673.686 1.9 1.9 0 0 1-.944.228h-.867v-.902h.639q.474 0 .744-.276.27-.275.685-1.423l-2.537-6.457h1.143l1.945 5.132 1.916-5.132h1.143zm9.375 3.222v.996h-7.172v-.996zm4.512-5.244q.457.118.779.445.323.323.803 1.295l1.189 2.391h-1.271l-1.043-2.209q-.451-.943-.814-1.213-.358-.275-.938-.275h-1.131V118h-1.189v-8.748h2.437q1.441 0 2.209.65.768.651.768 1.881 0 .867-.475 1.418-.469.545-1.324.668m-2.426-3.644v3.105h1.295q.85 0 1.266-.381.416-.38.416-1.166 0-.756-.446-1.154-.439-.405-1.283-.404zm11.766 3.955v.527h-4.67v.035q-.046 1.342.51 1.928.562.586 1.582.586.515 0 1.078-.164.562-.165 1.201-.498v1.072q-.616.252-1.189.375a5 5 0 0 1-1.102.129q-1.53 0-2.391-.914-.861-.92-.861-2.531 0-1.57.844-2.508.843-.938 2.25-.938 1.254 0 1.974.85.728.85.774 2.051m-1.078-.317a2.07 2.07 0 0 0-.498-1.172q-.423-.498-1.219-.498-.78 0-1.283.516-.504.516-.551 1.16zm3.691.885q0 1.254.393 1.893.398.638 1.177.638.78 0 1.178-.638.404-.645.404-1.893t-.404-1.887q-.398-.644-1.178-.644t-1.177.638q-.393.639-.393 1.893m3.152 2.438a1.9 1.9 0 0 1-.714.75 2.04 2.04 0 0 1-1.038.257q-1.178 0-1.863-.908-.68-.913-.679-2.514 0-1.628.679-2.548.68-.92 1.863-.92.587 0 1.032.258.451.252.72.738v-.838h1.084v9.059h-1.084zm3.276-1.67v-4.067h1.078v4.067q0 .884.31 1.3.317.417.973.416.762 0 1.166-.533.404-.539.404-1.541v-3.709h1.084V118h-1.084v-.984a2.03 2.03 0 0 1-.785.861q-.492.293-1.154.293-1.008 0-1.5-.656-.492-.663-.492-1.998m12.65-1.336v.527h-4.67v.035q-.047 1.342.51 1.928.562.586 1.582.586a3.9 3.9 0 0 0 1.078-.164q.563-.165 1.201-.498v1.072q-.615.252-1.189.375a5 5 0 0 1-1.102.129q-1.529 0-2.39-.914-.862-.92-.862-2.531 0-1.57.844-2.508t2.25-.938q1.254 0 1.975.85.726.85.773 2.051m-1.078-.317a2.07 2.07 0 0 0-.498-1.172q-.421-.498-1.219-.498-.779 0-1.283.516t-.551 1.16zm7.447-2.197v1.055a4 4 0 0 0-.931-.405 3.5 3.5 0 0 0-.955-.134q-.733 0-1.096.24-.357.234-.357.721 0 .439.269.656.27.216 1.342.422l.433.082q.804.152 1.213.609.416.457.416 1.19 0 .972-.691 1.523-.692.545-1.922.545-.486 0-1.019-.106a9 9 0 0 1-1.155-.304v-1.114a6.3 6.3 0 0 0 1.155.469q.55.153 1.043.153.714 0 1.107-.288.393-.292.393-.814 0-.75-1.436-1.037l-.047-.012-.404-.082q-.931-.181-1.36-.609-.427-.434-.427-1.178 0-.943.638-1.453.64-.516 1.823-.516.527 0 1.013.1.487.093.955.287m5.127-2.092v1.864h2.45v.837h-2.45v3.563q0 .726.276 1.014.275.287.961.287h1.213V118h-1.319q-1.212 0-1.711-.486-.498-.487-.498-1.676v-3.563h-1.752v-.837h1.752v-1.864z"/><path fill="#17181c" d="M320.25 94.25h168.5v39.5h-168.5z"/><path stroke="#555962" stroke-width=".5" d="M320.25 94.25h168.5v39.5h-168.5z"/><path fill="#fff" d="M338.768 112.791a2.4 2.4 0 0 0-.704-.393 2.4 2.4 0 0 0-.785-.123q-1.008 0-1.541.633t-.533 1.828V118h-1.084v-6.562h1.084v1.283q.27-.698.826-1.067.563-.375 1.33-.375.399 0 .744.1.346.1.663.31zm7.025 1.389v.527h-4.67v.035q-.046 1.342.51 1.928.562.586 1.582.586a3.9 3.9 0 0 0 1.078-.164q.562-.165 1.201-.498v1.072q-.615.252-1.189.375a5 5 0 0 1-1.102.129q-1.528 0-2.391-.914-.861-.92-.861-2.531 0-1.57.844-2.508.843-.938 2.25-.938 1.254 0 1.975.85.726.85.773 2.051m-1.078-.317a2.07 2.07 0 0 0-.498-1.172q-.422-.498-1.219-.498-.779 0-1.283.516t-.551 1.16zm5.959 1.764q0 .726.264 1.096.269.369.791.369h1.259V118h-1.365q-.966 0-1.5-.615-.527-.621-.527-1.758v-5.936h-1.729v-.843h2.807zm7.131-.926h-.358q-.943 0-1.424.334-.474.328-.474.985 0 .592.357.919.359.329.99.329.891 0 1.401-.616.51-.62.515-1.711v-.24zm2.091-.445V118h-1.084v-.973q-.345.586-.873.868-.52.275-1.271.275-1.002 0-1.6-.563-.597-.567-.597-1.517 0-1.096.732-1.664.738-.569 2.162-.569h1.447v-.169q-.005-.786-.398-1.137-.393-.358-1.254-.358-.55 0-1.113.159-.562.157-1.096.462v-1.078a7.4 7.4 0 0 1 1.143-.34 5 5 0 0 1 1.066-.117q.815 0 1.389.241.58.24.937.72.223.294.317.727.093.428.093 1.289m4.624-4.682v1.864h2.449v.837h-2.449v3.563q0 .726.275 1.014.276.287.961.287h1.213V118h-1.319q-1.213 0-1.711-.486-.498-.487-.498-1.676v-3.563h-1.752v-.837h1.752v-1.864zm5.484 1.887h2.76v5.701h2.138V118h-5.355v-.838h2.139v-4.863h-1.682zm1.682-2.549h1.078v1.359h-1.078zm7.306 3.281q-.82 0-1.242.639t-.422 1.893q0 1.248.422 1.892.422.639 1.242.639.826 0 1.248-.639.422-.644.422-1.892 0-1.254-.422-1.893t-1.248-.639m0-.914q1.366 0 2.086.885.726.885.727 2.561 0 1.681-.721 2.566-.72.879-2.092.879-1.365 0-2.086-.879-.72-.885-.72-2.566 0-1.677.72-2.561.721-.885 2.086-.885m9.779 2.655V118h-1.083v-4.066q0-.885-.311-1.301-.31-.416-.973-.416-.756 0-1.166.539-.404.533-.404 1.535V118h-1.078v-6.562h1.078v.984q.287-.562.779-.85.492-.293 1.166-.293 1.002 0 1.494.662.498.657.498 1.993m3.586-2.491h1.829v2.116h-1.829zm0 4.424h1.829V118h-1.829zm18.176-6.984v.896h-1.224q-.58 0-.809.241-.223.234-.223.837v.581h2.256v.837h-2.256V118h-1.078v-5.725h-1.752v-.837h1.752v-.458q0-1.078.492-1.587.498-.51 1.547-.51zm5.115 5.818h-.357q-.943 0-1.424.334-.474.328-.474.985 0 .592.357.919.357.329.99.329.891 0 1.401-.616.509-.62.515-1.711v-.24zm2.092-.445V118h-1.084v-.973q-.345.586-.873.868-.52.275-1.271.275-1.002 0-1.6-.563-.598-.567-.598-1.517 0-1.096.733-1.664.738-.569 2.162-.569h1.447v-.169q-.006-.786-.398-1.137-.393-.358-1.254-.358-.55 0-1.113.159a4.8 4.8 0 0 0-1.096.462v-1.078a7.4 7.4 0 0 1 1.143-.34 5 5 0 0 1 1.066-.117q.814 0 1.389.241.58.24.937.72.223.294.316.727.094.428.094 1.289m2.877-2.795h2.76v5.701h2.139V118h-5.356v-.838h2.139v-4.863h-1.682zm1.682-2.549h1.078v1.359h-1.078zm7.91 6.715q0 .726.264 1.096.269.369.791.369h1.259V118h-1.365q-.966 0-1.5-.615-.527-.621-.527-1.758v-5.936h-1.729v-.843h2.807zm4.16-.111v-4.067h1.078v4.067q0 .884.311 1.3.316.417.972.416.762 0 1.166-.533.405-.539.405-1.541v-3.709h1.084V118h-1.084v-.984a2.03 2.03 0 0 1-.785.861q-.492.293-1.155.293-1.008 0-1.5-.656-.492-.663-.492-1.998m12.856-2.725a2.4 2.4 0 0 0-.704-.393 2.4 2.4 0 0 0-.785-.123q-1.007 0-1.541.633-.533.633-.533 1.828V118h-1.084v-6.562h1.084v1.283q.27-.698.826-1.067.563-.375 1.33-.375.399 0 .744.1.346.1.663.31zm7.025 1.389v.527h-4.67v.035q-.046 1.342.51 1.928.562.586 1.582.586a3.9 3.9 0 0 0 1.078-.164q.562-.165 1.201-.498v1.072q-.615.252-1.189.375a5 5 0 0 1-1.102.129q-1.529 0-2.39-.914-.862-.92-.862-2.531 0-1.57.844-2.508.843-.938 2.25-.938 1.254 0 1.975.85.726.85.773 2.051m-1.078-.317a2.07 2.07 0 0 0-.498-1.172q-.422-.498-1.219-.498-.779 0-1.283.516t-.551 1.16z"/><path fill="#17181c" d="M488.25 94.25h211.5v39.5h-211.5z"/><path stroke="#555962" stroke-width=".5" d="M488.25 94.25h211.5v39.5h-211.5z"/><path fill="#fff" d="M506.562 114.18v.527h-4.669v.035q-.048 1.342.509 1.928.563.586 1.582.586.517 0 1.078-.164a6.7 6.7 0 0 0 1.202-.498v1.072q-.615.252-1.19.375a5 5 0 0 1-1.101.129q-1.53 0-2.391-.914-.861-.92-.861-2.531 0-1.57.843-2.508.844-.938 2.25-.938 1.255 0 1.975.85.726.85.773 2.051m-1.078-.317a2.06 2.06 0 0 0-.498-1.172q-.422-.498-1.218-.498-.78 0-1.284.516t-.55 1.16zm8.514-1.072a2.4 2.4 0 0 0-.703-.393 2.4 2.4 0 0 0-.785-.123q-1.008 0-1.541.633-.534.633-.533 1.828V118h-1.084v-6.562h1.084v1.283q.269-.698.826-1.067.562-.375 1.33-.375.397 0 .744.1.345.1.662.31zm7.231 0a2.4 2.4 0 0 0-.704-.393 2.4 2.4 0 0 0-.785-.123q-1.007 0-1.541.633-.533.633-.533 1.828V118h-1.084v-6.562h1.084v1.283q.27-.698.826-1.067.563-.375 1.33-.375.399 0 .744.1.346.1.663.31zm4.072-.598q-.82 0-1.242.639t-.422 1.893q0 1.248.422 1.892.422.639 1.242.639.827 0 1.248-.639.422-.644.422-1.892 0-1.254-.422-1.893-.421-.639-1.248-.639m0-.914q1.365 0 2.086.885.726.885.726 2.561 0 1.681-.72 2.566-.721.879-2.092.879-1.365 0-2.086-.879-.721-.885-.721-2.566 0-1.677.721-2.561.72-.885 2.086-.885m10.388 1.512a2.4 2.4 0 0 0-.703-.393 2.4 2.4 0 0 0-.785-.123q-1.007 0-1.541.633-.533.633-.533 1.828V118h-1.084v-6.562h1.084v1.283q.27-.698.826-1.067.562-.375 1.33-.375.399 0 .744.1.347.1.662.31zm2.977-1.348h1.828v2.116h-1.828zm0 4.424h1.828V118h-1.828zm16.4-1.998q.457.118.78.445.322.323.802 1.295l1.19 2.391h-1.272l-1.043-2.209q-.45-.943-.814-1.213-.357-.275-.938-.275h-1.13V118h-1.19v-8.748h2.438q1.441 0 2.209.65.767.651.767 1.881 0 .867-.474 1.418-.469.545-1.325.668m-2.425-3.644v3.105h1.295q.85 0 1.265-.381.417-.38.416-1.166 0-.756-.445-1.154-.44-.405-1.283-.404zm11.765 3.955v.527h-4.67v.035q-.046 1.342.51 1.928.562.586 1.582.586a3.9 3.9 0 0 0 1.078-.164q.563-.165 1.201-.498v1.072q-.615.252-1.189.375a5 5 0 0 1-1.102.129q-1.529 0-2.39-.914-.861-.92-.862-2.531 0-1.57.844-2.508.845-.938 2.25-.938 1.254 0 1.975.85.726.85.773 2.051m-1.078-.317a2.07 2.07 0 0 0-.498-1.172q-.421-.498-1.219-.498-.779 0-1.283.516t-.551 1.16zm7.975-4.98v.896h-1.225q-.58 0-.808.241-.223.234-.223.837v.581h2.256v.837h-2.256V118h-1.078v-5.725h-1.752v-.837h1.752v-.458q0-1.078.492-1.587.498-.51 1.547-.51zm7.564 5.297v.527h-4.67v.035q-.047 1.342.51 1.928.562.586 1.582.586a3.9 3.9 0 0 0 1.078-.164q.563-.165 1.201-.498v1.072q-.615.252-1.189.375a5 5 0 0 1-1.102.129q-1.529 0-2.39-.914-.862-.92-.862-2.531 0-1.57.844-2.508.845-.938 2.25-.938 1.254 0 1.975.85.726.85.773 2.051m-1.078-.317a2.07 2.07 0 0 0-.498-1.172q-.421-.498-1.219-.498-.779 0-1.283.516t-.551 1.16zm8.514-1.072a2.4 2.4 0 0 0-.703-.393 2.4 2.4 0 0 0-.786-.123q-1.007 0-1.541.633-.533.633-.533 1.828V118h-1.084v-6.562h1.084v1.283q.27-.698.826-1.067.563-.375 1.33-.375.399 0 .745.1.345.1.662.31zm7.025 1.389v.527h-4.67v.035q-.046 1.342.51 1.928.562.586 1.582.586a3.9 3.9 0 0 0 1.078-.164q.563-.165 1.201-.498v1.072q-.615.252-1.189.375a5 5 0 0 1-1.102.129q-1.529 0-2.39-.914-.862-.92-.862-2.531 0-1.57.844-2.508.845-.938 2.25-.938 1.254 0 1.975.85.726.85.773 2.051m-1.078-.317a2.07 2.07 0 0 0-.498-1.172q-.422-.498-1.219-.498-.779 0-1.283.516t-.551 1.16zm7.904.071V118h-1.084v-4.066q0-.885-.31-1.301t-.973-.416q-.755 0-1.166.539-.404.533-.404 1.535V118h-1.078v-6.562h1.078v.984q.287-.562.779-.85.492-.293 1.166-.293 1.002 0 1.494.662.498.657.498 1.993m7.289 3.732a3.6 3.6 0 0 1-.896.375 3.4 3.4 0 0 1-.938.129q-1.523 0-2.384-.914-.856-.915-.856-2.531 0-1.618.856-2.532.861-.914 2.384-.914.475 0 .926.123t.908.381v1.131a2.9 2.9 0 0 0-.861-.551 2.6 2.6 0 0 0-.973-.17q-1.013 0-1.558.657-.545.656-.545 1.875 0 1.212.545 1.875.551.656 1.558.656.563 0 1.008-.17.445-.176.826-.539zm7.577-3.486v.527h-4.67v.035q-.048 1.342.509 1.928.563.586 1.582.586.516 0 1.079-.164.562-.165 1.201-.498v1.072q-.615.252-1.19.375a5 5 0 0 1-1.101.129q-1.53 0-2.391-.914-.861-.92-.861-2.531 0-1.57.843-2.508.845-.938 2.25-.938 1.255 0 1.975.85.726.85.774 2.051m-1.079-.317a2.06 2.06 0 0 0-.498-1.172q-.421-.498-1.218-.498-.78 0-1.284.516t-.55 1.16zm2.901-4.611h5.191v.996h-4.008v2.356h3.832v.996h-3.832v3.404h4.12V118h-5.303zm12.844 3.539a2.4 2.4 0 0 0-.704-.393 2.4 2.4 0 0 0-.785-.123q-1.008 0-1.541.633t-.533 1.828V118h-1.084v-6.562h1.084v1.283q.27-.698.826-1.067.563-.375 1.33-.375.399 0 .744.1.346.1.663.31zm7.23 0a2.4 2.4 0 0 0-.703-.393 2.4 2.4 0 0 0-.785-.123q-1.008 0-1.541.633-.534.633-.533 1.828V118h-1.084v-6.562h1.084v1.283q.269-.698.826-1.067.562-.375 1.33-.375.398 0 .744.1.345.1.662.31zm4.072-.598q-.82 0-1.242.639t-.422 1.893q0 1.248.422 1.892.421.639 1.242.639.827 0 1.248-.639.423-.644.422-1.892 0-1.254-.422-1.893-.421-.639-1.248-.639m0-.914q1.365 0 2.086.885.727.885.727 2.561 0 1.681-.721 2.566-.72.879-2.092.879-1.365 0-2.086-.879-.72-.885-.72-2.566 0-1.677.72-2.561.721-.885 2.086-.885m10.389 1.512a2.4 2.4 0 0 0-.703-.393 2.4 2.4 0 0 0-.785-.123q-1.008 0-1.541.633-.534.633-.534 1.828V118h-1.084v-6.562h1.084v1.283q.27-.698.827-1.067.562-.375 1.33-.375.398 0 .744.1.345.1.662.31zm2.977-1.348h1.828v2.116h-1.828zm0 4.424h1.828V118h-1.828zm14.226-.234h2.063V118h-2.063zm7.231 0h2.062V118h-2.062zm7.23 0h2.063V118h-2.063z"/></g><rect width="678.5" height="119.5" x="21.25" y="14.25" stroke="#555962" stroke-width=".5" rx="9.75"/></g><defs><clipPath id="a"><path fill="#fff" d="M0 0h720v148H0z"/></clipPath><clipPath id="b"><path fill="#fff" d="M0 0h720v314H0z"/></clipPath><clipPath id="c"><rect width="679" height="120" x="21" y="14" fill="#fff" rx="10"/></clipPath></defs></svg>