<svg width="800" height="203" viewBox="0 0 800 203" fill="none" xmlns="http://www.w3.org/2000/svg">
<g clip-path="url(#clip0_22_4)">
<rect x="259.5" y="78.5" width="227" height="61" rx="4.5" fill="#79CEF1" stroke="black"/>
<rect x="21" y="57" width="128" height="30" rx="4" fill="#056696" fill-opacity="0.5" stroke="#165D77" stroke-width="2" stroke-dasharray="8 8"/>
<rect x="21" y="132" width="128" height="30" rx="4" fill="#056696" fill-opacity="0.5" stroke="#165D77" stroke-width="2" stroke-dasharray="8 8"/>
<path d="M311.336 115.144C310.664 115.144 310.061 115.032 309.528 114.808C308.995 114.573 308.573 114.253 308.264 113.848C307.955 113.432 307.784 112.957 307.752 112.424H309.256C309.299 112.861 309.501 113.219 309.864 113.496C310.237 113.773 310.723 113.912 311.32 113.912C311.875 113.912 312.312 113.789 312.632 113.544C312.952 113.299 313.112 112.989 313.112 112.616C313.112 112.232 312.941 111.949 312.6 111.768C312.259 111.576 311.731 111.389 311.016 111.208C310.365 111.037 309.832 110.867 309.416 110.696C309.011 110.515 308.659 110.253 308.36 109.912C308.072 109.56 307.928 109.101 307.928 108.536C307.928 108.088 308.061 107.677 308.328 107.304C308.595 106.931 308.973 106.637 309.464 106.424C309.955 106.2 310.515 106.088 311.144 106.088C312.115 106.088 312.899 106.333 313.496 106.824C314.093 107.315 314.413 107.987 314.456 108.84H313C312.968 108.381 312.781 108.013 312.44 107.736C312.109 107.459 311.661 107.32 311.096 107.32C310.573 107.32 310.157 107.432 309.848 107.656C309.539 107.88 309.384 108.173 309.384 108.536C309.384 108.824 309.475 109.064 309.656 109.256C309.848 109.437 310.083 109.587 310.36 109.704C310.648 109.811 311.043 109.933 311.544 110.072C312.173 110.243 312.685 110.413 313.08 110.584C313.475 110.744 313.811 110.989 314.088 111.32C314.376 111.651 314.525 112.083 314.536 112.616C314.536 113.096 314.403 113.528 314.136 113.912C313.869 114.296 313.491 114.6 313 114.824C312.52 115.037 311.965 115.144 311.336 115.144ZM316.047 110.6C316.047 109.693 316.229 108.904 316.591 108.232C316.954 107.549 317.455 107.021 318.095 106.648C318.746 106.275 319.487 106.088 320.319 106.088C321.397 106.088 322.282 106.349 322.975 106.872C323.679 107.395 324.143 108.12 324.367 109.048H322.799C322.65 108.515 322.357 108.093 321.919 107.784C321.493 107.475 320.959 107.32 320.319 107.32C319.487 107.32 318.815 107.608 318.303 108.184C317.791 108.749 317.535 109.555 317.535 110.6C317.535 111.656 317.791 112.472 318.303 113.048C318.815 113.624 319.487 113.912 320.319 113.912C320.959 113.912 321.493 113.763 321.919 113.464C322.346 113.165 322.639 112.739 322.799 112.184H324.367C324.133 113.08 323.663 113.8 322.959 114.344C322.255 114.877 321.375 115.144 320.319 115.144C319.487 115.144 318.746 114.957 318.095 114.584C317.455 114.211 316.954 113.683 316.591 113C316.229 112.317 316.047 111.517 316.047 110.6ZM327.766 107.656C328.022 107.155 328.385 106.765 328.854 106.488C329.334 106.211 329.915 106.072 330.598 106.072V107.576H330.214C328.582 107.576 327.766 108.461 327.766 110.232V115H326.31V106.232H327.766V107.656ZM333.031 104.808C332.754 104.808 332.519 104.712 332.327 104.52C332.135 104.328 332.039 104.093 332.039 103.816C332.039 103.539 332.135 103.304 332.327 103.112C332.519 102.92 332.754 102.824 333.031 102.824C333.298 102.824 333.522 102.92 333.703 103.112C333.895 103.304 333.991 103.539 333.991 103.816C333.991 104.093 333.895 104.328 333.703 104.52C333.522 104.712 333.298 104.808 333.031 104.808ZM333.735 106.232V115H332.279V106.232H333.735ZM337.672 107.848C337.96 107.347 338.387 106.931 338.952 106.6C339.528 106.259 340.195 106.088 340.952 106.088C341.731 106.088 342.435 106.275 343.064 106.648C343.704 107.021 344.206 107.549 344.568 108.232C344.931 108.904 345.112 109.688 345.112 110.584C345.112 111.469 344.931 112.259 344.568 112.952C344.206 113.645 343.704 114.184 343.064 114.568C342.435 114.952 341.731 115.144 340.952 115.144C340.206 115.144 339.544 114.979 338.968 114.648C338.403 114.307 337.971 113.885 337.672 113.384V119.16H336.216V106.232H337.672V107.848ZM343.624 110.584C343.624 109.923 343.491 109.347 343.224 108.856C342.958 108.365 342.595 107.992 342.136 107.736C341.688 107.48 341.192 107.352 340.648 107.352C340.115 107.352 339.619 107.485 339.16 107.752C338.712 108.008 338.35 108.387 338.072 108.888C337.806 109.379 337.672 109.949 337.672 110.6C337.672 111.261 337.806 111.843 338.072 112.344C338.35 112.835 338.712 113.213 339.16 113.48C339.619 113.736 340.115 113.864 340.648 113.864C341.192 113.864 341.688 113.736 342.136 113.48C342.595 113.213 342.958 112.835 343.224 112.344C343.491 111.843 343.624 111.256 343.624 110.584ZM348.805 107.432V112.6C348.805 113.027 348.896 113.331 349.077 113.512C349.258 113.683 349.573 113.768 350.021 113.768H351.093V115H349.781C348.97 115 348.362 114.813 347.957 114.44C347.552 114.067 347.349 113.453 347.349 112.6V107.432H346.213V106.232H347.349V104.024H348.805V106.232H351.093V107.432H348.805Z" fill="black"/>
<rect x="543.5" y="79.5" width="227" height="61" rx="4.5" fill="#F1928F" stroke="black"/>
<path d="M601.688 106.848C601.976 106.347 602.403 105.931 602.968 105.6C603.544 105.259 604.211 105.088 604.968 105.088C605.747 105.088 606.451 105.275 607.08 105.648C607.72 106.021 608.221 106.549 608.584 107.232C608.947 107.904 609.128 108.688 609.128 109.584C609.128 110.469 608.947 111.259 608.584 111.952C608.221 112.645 607.72 113.184 607.08 113.568C606.451 113.952 605.747 114.144 604.968 114.144C604.221 114.144 603.56 113.979 602.984 113.648C602.419 113.307 601.987 112.885 601.688 112.384V118.16H600.232V105.232H601.688V106.848ZM607.64 109.584C607.64 108.923 607.507 108.347 607.24 107.856C606.973 107.365 606.611 106.992 606.152 106.736C605.704 106.48 605.208 106.352 604.664 106.352C604.131 106.352 603.635 106.485 603.176 106.752C602.728 107.008 602.365 107.387 602.088 107.888C601.821 108.379 601.688 108.949 601.688 109.6C601.688 110.261 601.821 110.843 602.088 111.344C602.365 111.835 602.728 112.213 603.176 112.48C603.635 112.736 604.131 112.864 604.664 112.864C605.208 112.864 605.704 112.736 606.152 112.48C606.611 112.213 606.973 111.835 607.24 111.344C607.507 110.843 607.64 110.256 607.64 109.584ZM618.821 105.232V114H617.365V112.704C617.087 113.152 616.698 113.504 616.197 113.76C615.706 114.005 615.162 114.128 614.565 114.128C613.882 114.128 613.269 113.989 612.725 113.712C612.181 113.424 611.749 112.997 611.429 112.432C611.119 111.867 610.965 111.179 610.965 110.368V105.232H612.405V110.176C612.405 111.04 612.623 111.707 613.061 112.176C613.498 112.635 614.095 112.864 614.853 112.864C615.631 112.864 616.245 112.624 616.693 112.144C617.141 111.664 617.365 110.965 617.365 110.048V105.232H618.821ZM624.383 114.144C623.711 114.144 623.108 114.032 622.575 113.808C622.042 113.573 621.62 113.253 621.311 112.848C621.002 112.432 620.831 111.957 620.799 111.424H622.303C622.346 111.861 622.548 112.219 622.911 112.496C623.284 112.773 623.77 112.912 624.367 112.912C624.922 112.912 625.359 112.789 625.679 112.544C625.999 112.299 626.159 111.989 626.159 111.616C626.159 111.232 625.988 110.949 625.647 110.768C625.306 110.576 624.778 110.389 624.063 110.208C623.412 110.037 622.879 109.867 622.463 109.696C622.058 109.515 621.706 109.253 621.407 108.912C621.119 108.56 620.975 108.101 620.975 107.536C620.975 107.088 621.108 106.677 621.375 106.304C621.642 105.931 622.02 105.637 622.511 105.424C623.002 105.2 623.562 105.088 624.191 105.088C625.162 105.088 625.946 105.333 626.543 105.824C627.14 106.315 627.46 106.987 627.503 107.84H626.047C626.015 107.381 625.828 107.013 625.487 106.736C625.156 106.459 624.708 106.32 624.143 106.32C623.62 106.32 623.204 106.432 622.895 106.656C622.586 106.88 622.431 107.173 622.431 107.536C622.431 107.824 622.522 108.064 622.703 108.256C622.895 108.437 623.13 108.587 623.407 108.704C623.695 108.811 624.09 108.933 624.591 109.072C625.22 109.243 625.732 109.413 626.127 109.584C626.522 109.744 626.858 109.989 627.135 110.32C627.423 110.651 627.572 111.083 627.583 111.616C627.583 112.096 627.45 112.528 627.183 112.912C626.916 113.296 626.538 113.6 626.047 113.824C625.567 114.037 625.012 114.144 624.383 114.144ZM633.99 105.072C634.652 105.072 635.249 105.216 635.782 105.504C636.316 105.781 636.732 106.203 637.03 106.768C637.34 107.333 637.494 108.021 637.494 108.832V114H636.054V109.04C636.054 108.165 635.836 107.499 635.398 107.04C634.961 106.571 634.364 106.336 633.606 106.336C632.838 106.336 632.225 106.576 631.766 107.056C631.318 107.536 631.094 108.235 631.094 109.152V114H629.638V102.16H631.094V106.48C631.382 106.032 631.777 105.685 632.278 105.44C632.79 105.195 633.361 105.072 633.99 105.072ZM645.914 106.432V111.6C645.914 112.027 646.005 112.331 646.186 112.512C646.368 112.683 646.682 112.768 647.13 112.768H648.202V114H646.89C646.08 114 645.472 113.813 645.066 113.44C644.661 113.067 644.458 112.453 644.458 111.6V106.432H643.322V105.232H644.458V103.024H645.914V105.232H648.202V106.432H645.914ZM653.79 114.144C652.969 114.144 652.222 113.957 651.55 113.584C650.889 113.211 650.366 112.683 649.982 112C649.609 111.307 649.422 110.507 649.422 109.6C649.422 108.704 649.614 107.915 649.998 107.232C650.393 106.539 650.926 106.011 651.598 105.648C652.27 105.275 653.022 105.088 653.854 105.088C654.686 105.088 655.438 105.275 656.11 105.648C656.782 106.011 657.31 106.533 657.694 107.216C658.089 107.899 658.286 108.693 658.286 109.6C658.286 110.507 658.084 111.307 657.678 112C657.284 112.683 656.745 113.211 656.062 113.584C655.38 113.957 654.622 114.144 653.79 114.144ZM653.79 112.864C654.313 112.864 654.804 112.741 655.262 112.496C655.721 112.251 656.089 111.883 656.366 111.392C656.654 110.901 656.798 110.304 656.798 109.6C656.798 108.896 656.66 108.299 656.382 107.808C656.105 107.317 655.742 106.955 655.294 106.72C654.846 106.475 654.361 106.352 653.838 106.352C653.305 106.352 652.814 106.475 652.366 106.72C651.929 106.955 651.577 107.317 651.31 107.808C651.044 108.299 650.91 108.896 650.91 109.6C650.91 110.315 651.038 110.917 651.294 111.408C651.561 111.899 651.913 112.267 652.35 112.512C652.788 112.747 653.268 112.864 653.79 112.864ZM672.466 109.28C672.466 109.557 672.45 109.851 672.418 110.16H665.41C665.464 111.024 665.757 111.701 666.29 112.192C666.834 112.672 667.49 112.912 668.258 112.912C668.888 112.912 669.41 112.768 669.826 112.48C670.253 112.181 670.552 111.787 670.722 111.296H672.29C672.056 112.139 671.586 112.827 670.882 113.36C670.178 113.883 669.304 114.144 668.258 114.144C667.426 114.144 666.68 113.957 666.018 113.584C665.368 113.211 664.856 112.683 664.482 112C664.109 111.307 663.922 110.507 663.922 109.6C663.922 108.693 664.104 107.899 664.466 107.216C664.829 106.533 665.336 106.011 665.986 105.648C666.648 105.275 667.405 105.088 668.258 105.088C669.09 105.088 669.826 105.269 670.466 105.632C671.106 105.995 671.597 106.496 671.938 107.136C672.29 107.765 672.466 108.48 672.466 109.28ZM670.962 108.976C670.962 108.421 670.84 107.947 670.594 107.552C670.349 107.147 670.013 106.843 669.586 106.64C669.17 106.427 668.706 106.32 668.194 106.32C667.458 106.32 666.829 106.555 666.306 107.024C665.794 107.493 665.501 108.144 665.426 108.976H670.962ZM673.844 109.584C673.844 108.688 674.026 107.904 674.388 107.232C674.751 106.549 675.247 106.021 675.876 105.648C676.516 105.275 677.231 105.088 678.02 105.088C678.703 105.088 679.338 105.248 679.924 105.568C680.511 105.877 680.959 106.288 681.268 106.8V102.16H682.74V114H681.268V112.352C680.98 112.875 680.554 113.307 679.988 113.648C679.423 113.979 678.762 114.144 678.004 114.144C677.226 114.144 676.516 113.952 675.876 113.568C675.247 113.184 674.751 112.645 674.388 111.952C674.026 111.259 673.844 110.469 673.844 109.584ZM681.268 109.6C681.268 108.939 681.135 108.363 680.868 107.872C680.602 107.381 680.239 107.008 679.78 106.752C679.332 106.485 678.836 106.352 678.292 106.352C677.748 106.352 677.252 106.48 676.804 106.736C676.356 106.992 675.999 107.365 675.732 107.856C675.466 108.347 675.332 108.923 675.332 109.584C675.332 110.256 675.466 110.843 675.732 111.344C675.999 111.835 676.356 112.213 676.804 112.48C677.252 112.736 677.748 112.864 678.292 112.864C678.836 112.864 679.332 112.736 679.78 112.48C680.239 112.213 680.602 111.835 680.868 111.344C681.135 110.843 681.268 110.261 681.268 109.6ZM688.817 105.088C689.574 105.088 690.235 105.253 690.801 105.584C691.377 105.915 691.803 106.331 692.081 106.832V105.232H693.553V114.192C693.553 114.992 693.382 115.701 693.041 116.32C692.699 116.949 692.209 117.44 691.569 117.792C690.939 118.144 690.203 118.32 689.361 118.32C688.209 118.32 687.249 118.048 686.481 117.504C685.713 116.96 685.259 116.219 685.121 115.28H686.561C686.721 115.813 687.051 116.24 687.553 116.56C688.054 116.891 688.657 117.056 689.361 117.056C690.161 117.056 690.811 116.805 691.313 116.304C691.825 115.803 692.081 115.099 692.081 114.192V112.352C691.793 112.864 691.366 113.291 690.801 113.632C690.235 113.973 689.574 114.144 688.817 114.144C688.038 114.144 687.329 113.952 686.689 113.568C686.059 113.184 685.563 112.645 685.201 111.952C684.838 111.259 684.657 110.469 684.657 109.584C684.657 108.688 684.838 107.904 685.201 107.232C685.563 106.549 686.059 106.021 686.689 105.648C687.329 105.275 688.038 105.088 688.817 105.088ZM692.081 109.6C692.081 108.939 691.947 108.363 691.681 107.872C691.414 107.381 691.051 107.008 690.593 106.752C690.145 106.485 689.649 106.352 689.105 106.352C688.561 106.352 688.065 106.48 687.617 106.736C687.169 106.992 686.811 107.365 686.545 107.856C686.278 108.347 686.145 108.923 686.145 109.584C686.145 110.256 686.278 110.843 686.545 111.344C686.811 111.835 687.169 112.213 687.617 112.48C688.065 112.736 688.561 112.864 689.105 112.864C689.649 112.864 690.145 112.736 690.593 112.48C691.051 112.213 691.414 111.835 691.681 111.344C691.947 110.843 692.081 110.261 692.081 109.6ZM704.013 109.28C704.013 109.557 703.997 109.851 703.965 110.16H696.957C697.011 111.024 697.304 111.701 697.837 112.192C698.381 112.672 699.037 112.912 699.805 112.912C700.435 112.912 700.957 112.768 701.373 112.48C701.8 112.181 702.099 111.787 702.269 111.296H703.837C703.603 112.139 703.133 112.827 702.429 113.36C701.725 113.883 700.851 114.144 699.805 114.144C698.973 114.144 698.227 113.957 697.565 113.584C696.915 113.211 696.403 112.683 696.029 112C695.656 111.307 695.469 110.507 695.469 109.6C695.469 108.693 695.651 107.899 696.013 107.216C696.376 106.533 696.883 106.011 697.533 105.648C698.195 105.275 698.952 105.088 699.805 105.088C700.637 105.088 701.373 105.269 702.013 105.632C702.653 105.995 703.144 106.496 703.485 107.136C703.837 107.765 704.013 108.48 704.013 109.28ZM702.509 108.976C702.509 108.421 702.387 107.947 702.141 107.552C701.896 107.147 701.56 106.843 701.133 106.64C700.717 106.427 700.253 106.32 699.741 106.32C699.005 106.32 698.376 106.555 697.853 107.024C697.341 107.493 697.048 108.144 696.973 108.976H702.509Z" fill="black"/>
<path d="M32.1811 152.126C31.5744 152.126 31.0284 152.019 30.5431 151.804C30.0671 151.58 29.6891 151.281 29.4091 150.908C29.1291 150.525 28.9797 150.101 28.9611 149.634H30.6131C30.6411 149.961 30.7951 150.236 31.0751 150.46C31.3644 150.675 31.7237 150.782 32.1531 150.782C32.6011 150.782 32.9464 150.698 33.1891 150.53C33.4411 150.353 33.5671 150.129 33.5671 149.858C33.5671 149.569 33.4271 149.354 33.1471 149.214C32.8764 149.074 32.4424 148.92 31.8451 148.752C31.2664 148.593 30.7951 148.439 30.4311 148.29C30.0671 148.141 29.7497 147.912 29.4791 147.604C29.2177 147.296 29.0871 146.89 29.0871 146.386C29.0871 145.975 29.2084 145.602 29.4511 145.266C29.6937 144.921 30.0391 144.65 30.4871 144.454C30.9444 144.258 31.4671 144.16 32.0551 144.16C32.9324 144.16 33.6371 144.384 34.1691 144.832C34.7104 145.271 34.9997 145.873 35.0371 146.638H33.4411C33.4131 146.293 33.2731 146.017 33.0211 145.812C32.7691 145.607 32.4284 145.504 31.9991 145.504C31.5791 145.504 31.2571 145.583 31.0331 145.742C30.8091 145.901 30.6971 146.111 30.6971 146.372C30.6971 146.577 30.7717 146.75 30.9211 146.89C31.0704 147.03 31.2524 147.142 31.4671 147.226C31.6817 147.301 31.9991 147.399 32.4191 147.52C32.9791 147.669 33.4364 147.823 33.7911 147.982C34.1551 148.131 34.4677 148.355 34.7291 148.654C34.9904 148.953 35.1257 149.349 35.1351 149.844C35.1351 150.283 35.0137 150.675 34.7711 151.02C34.5284 151.365 34.1831 151.636 33.7351 151.832C33.2964 152.028 32.7784 152.126 32.1811 152.126ZM36.3276 148.108C36.3276 147.333 36.4862 146.647 36.8036 146.05C37.1302 145.453 37.5689 144.991 38.1196 144.664C38.6796 144.328 39.2956 144.16 39.9676 144.16C40.5742 144.16 41.1016 144.281 41.5496 144.524C42.0069 144.757 42.3709 145.051 42.6416 145.406V144.286H44.2516V152H42.6416V150.852C42.3709 151.216 42.0022 151.519 41.5356 151.762C41.0689 152.005 40.5369 152.126 39.9396 152.126C39.2769 152.126 38.6702 151.958 38.1196 151.622C37.5689 151.277 37.1302 150.801 36.8036 150.194C36.4862 149.578 36.3276 148.883 36.3276 148.108ZM42.6416 148.136C42.6416 147.604 42.5296 147.142 42.3056 146.75C42.0909 146.358 41.8062 146.059 41.4516 145.854C41.0969 145.649 40.7142 145.546 40.3036 145.546C39.8929 145.546 39.5102 145.649 39.1556 145.854C38.8009 146.05 38.5116 146.344 38.2876 146.736C38.0729 147.119 37.9656 147.576 37.9656 148.108C37.9656 148.64 38.0729 149.107 38.2876 149.508C38.5116 149.909 38.8009 150.217 39.1556 150.432C39.5196 150.637 39.9022 150.74 40.3036 150.74C40.7142 150.74 41.0969 150.637 41.4516 150.432C41.8062 150.227 42.0909 149.928 42.3056 149.536C42.5296 149.135 42.6416 148.668 42.6416 148.136ZM49.3299 150.572L51.5139 144.286H53.2079L50.2679 152H48.3639L45.4379 144.286H47.1459L49.3299 150.572ZM61.4843 147.954C61.4843 148.243 61.4656 148.505 61.4283 148.738H55.5343C55.5809 149.354 55.8096 149.849 56.2203 150.222C56.6309 150.595 57.1349 150.782 57.7323 150.782C58.5909 150.782 59.1976 150.423 59.5523 149.704H61.2743C61.0409 150.413 60.6163 150.997 60.0003 151.454C59.3936 151.902 58.6376 152.126 57.7323 152.126C56.9949 152.126 56.3323 151.963 55.7443 151.636C55.1656 151.3 54.7083 150.833 54.3723 150.236C54.0456 149.629 53.8823 148.929 53.8823 148.136C53.8823 147.343 54.0409 146.647 54.3583 146.05C54.6849 145.443 55.1376 144.977 55.7163 144.65C56.3043 144.323 56.9763 144.16 57.7323 144.16C58.4603 144.16 59.1089 144.319 59.6783 144.636C60.2476 144.953 60.6909 145.401 61.0083 145.98C61.3256 146.549 61.4843 147.207 61.4843 147.954ZM59.8183 147.45C59.8089 146.862 59.5989 146.391 59.1883 146.036C58.7776 145.681 58.2689 145.504 57.6623 145.504C57.1116 145.504 56.6403 145.681 56.2483 146.036C55.8563 146.381 55.6229 146.853 55.5483 147.45H59.8183ZM68.5536 145.588V149.858C68.5536 150.147 68.6189 150.357 68.7496 150.488C68.8896 150.609 69.1229 150.67 69.4496 150.67H70.4296V152H69.1696C68.4509 152 67.9003 151.832 67.5176 151.496C67.1349 151.16 66.9436 150.614 66.9436 149.858V145.588H66.0336V144.286H66.9436V142.368H68.5536V144.286H70.4296V145.588H68.5536ZM72.7126 143.264C72.4233 143.264 72.1806 143.166 71.9846 142.97C71.7886 142.774 71.6906 142.531 71.6906 142.242C71.6906 141.953 71.7886 141.71 71.9846 141.514C72.1806 141.318 72.4233 141.22 72.7126 141.22C72.9926 141.22 73.2306 141.318 73.4266 141.514C73.6226 141.71 73.7206 141.953 73.7206 142.242C73.7206 142.531 73.6226 142.774 73.4266 142.97C73.2306 143.166 72.9926 143.264 72.7126 143.264ZM73.4966 144.286V152H71.9006V144.286H73.4966ZM84.93 144.16C85.5367 144.16 86.078 144.286 86.554 144.538C87.0393 144.79 87.4173 145.163 87.688 145.658C87.968 146.153 88.108 146.75 88.108 147.45V152H86.526V147.688C86.526 146.997 86.3533 146.47 86.008 146.106C85.6627 145.733 85.1913 145.546 84.594 145.546C83.9967 145.546 83.5207 145.733 83.166 146.106C82.8207 146.47 82.648 146.997 82.648 147.688V152H81.066V147.688C81.066 146.997 80.8933 146.47 80.548 146.106C80.2027 145.733 79.7313 145.546 79.134 145.546C78.5367 145.546 78.0607 145.733 77.706 146.106C77.3607 146.47 77.188 146.997 77.188 147.688V152H75.592V144.286H77.188V145.168C77.4493 144.851 77.7807 144.603 78.182 144.426C78.5833 144.249 79.0127 144.16 79.47 144.16C80.086 144.16 80.6367 144.291 81.122 144.552C81.6073 144.813 81.9807 145.191 82.242 145.686C82.4753 145.219 82.8393 144.851 83.334 144.58C83.8287 144.3 84.3607 144.16 84.93 144.16ZM97.2089 147.954C97.2089 148.243 97.1902 148.505 97.1529 148.738H91.2589C91.3055 149.354 91.5342 149.849 91.9449 150.222C92.3555 150.595 92.8595 150.782 93.4569 150.782C94.3155 150.782 94.9222 150.423 95.2769 149.704H96.9989C96.7655 150.413 96.3409 150.997 95.7249 151.454C95.1182 151.902 94.3622 152.126 93.4569 152.126C92.7195 152.126 92.0569 151.963 91.4689 151.636C90.8902 151.3 90.4329 150.833 90.0969 150.236C89.7702 149.629 89.6069 148.929 89.6069 148.136C89.6069 147.343 89.7655 146.647 90.0829 146.05C90.4095 145.443 90.8622 144.977 91.4409 144.65C92.0289 144.323 92.7009 144.16 93.4569 144.16C94.1849 144.16 94.8335 144.319 95.4029 144.636C95.9722 144.953 96.4155 145.401 96.7329 145.98C97.0502 146.549 97.2089 147.207 97.2089 147.954ZM95.5429 147.45C95.5335 146.862 95.3235 146.391 94.9129 146.036C94.5022 145.681 93.9935 145.504 93.3869 145.504C92.8362 145.504 92.3649 145.681 91.9729 146.036C91.5809 146.381 91.3475 146.853 91.2729 147.45H95.5429ZM105.216 152.126C104.61 152.126 104.064 152.019 103.578 151.804C103.102 151.58 102.724 151.281 102.444 150.908C102.164 150.525 102.015 150.101 101.996 149.634H103.648C103.676 149.961 103.83 150.236 104.11 150.46C104.4 150.675 104.759 150.782 105.188 150.782C105.636 150.782 105.982 150.698 106.224 150.53C106.476 150.353 106.602 150.129 106.602 149.858C106.602 149.569 106.462 149.354 106.182 149.214C105.912 149.074 105.478 148.92 104.88 148.752C104.302 148.593 103.83 148.439 103.466 148.29C103.102 148.141 102.785 147.912 102.514 147.604C102.253 147.296 102.122 146.89 102.122 146.386C102.122 145.975 102.244 145.602 102.486 145.266C102.729 144.921 103.074 144.65 103.522 144.454C103.98 144.258 104.502 144.16 105.09 144.16C105.968 144.16 106.672 144.384 107.204 144.832C107.746 145.271 108.035 145.873 108.072 146.638H106.476C106.448 146.293 106.308 146.017 106.056 145.812C105.804 145.607 105.464 145.504 105.034 145.504C104.614 145.504 104.292 145.583 104.068 145.742C103.844 145.901 103.732 146.111 103.732 146.372C103.732 146.577 103.807 146.75 103.956 146.89C104.106 147.03 104.288 147.142 104.502 147.226C104.717 147.301 105.034 147.399 105.454 147.52C106.014 147.669 106.472 147.823 106.826 147.982C107.19 148.131 107.503 148.355 107.764 148.654C108.026 148.953 108.161 149.349 108.17 149.844C108.17 150.283 108.049 150.675 107.806 151.02C107.564 151.365 107.218 151.636 106.77 151.832C106.332 152.028 105.814 152.126 105.216 152.126ZM116.965 147.954C116.965 148.243 116.946 148.505 116.909 148.738H111.015C111.061 149.354 111.29 149.849 111.701 150.222C112.111 150.595 112.615 150.782 113.213 150.782C114.071 150.782 114.678 150.423 115.033 149.704H116.755C116.521 150.413 116.097 150.997 115.481 151.454C114.874 151.902 114.118 152.126 113.213 152.126C112.475 152.126 111.813 151.963 111.225 151.636C110.646 151.3 110.189 150.833 109.853 150.236C109.526 149.629 109.363 148.929 109.363 148.136C109.363 147.343 109.521 146.647 109.839 146.05C110.165 145.443 110.618 144.977 111.197 144.65C111.785 144.323 112.457 144.16 113.213 144.16C113.941 144.16 114.589 144.319 115.159 144.636C115.728 144.953 116.171 145.401 116.489 145.98C116.806 146.549 116.965 147.207 116.965 147.954ZM115.299 147.45C115.289 146.862 115.079 146.391 114.669 146.036C114.258 145.681 113.749 145.504 113.143 145.504C112.592 145.504 112.121 145.681 111.729 146.036C111.337 146.381 111.103 146.853 111.029 147.45H115.299ZM120.131 145.406C120.365 145.014 120.673 144.711 121.055 144.496C121.447 144.272 121.909 144.16 122.441 144.16V145.812H122.035C121.41 145.812 120.934 145.971 120.607 146.288C120.29 146.605 120.131 147.156 120.131 147.94V152H118.535V144.286H120.131V145.406ZM124.72 143.264C124.431 143.264 124.188 143.166 123.992 142.97C123.796 142.774 123.698 142.531 123.698 142.242C123.698 141.953 123.796 141.71 123.992 141.514C124.188 141.318 124.431 141.22 124.72 141.22C125 141.22 125.238 141.318 125.434 141.514C125.63 141.71 125.728 141.953 125.728 142.242C125.728 142.531 125.63 142.774 125.434 142.97C125.238 143.166 125 143.264 124.72 143.264ZM125.504 144.286V152H123.908V144.286H125.504ZM134.67 147.954C134.67 148.243 134.651 148.505 134.614 148.738H128.72C128.766 149.354 128.995 149.849 129.406 150.222C129.816 150.595 130.32 150.782 130.918 150.782C131.776 150.782 132.383 150.423 132.738 149.704H134.46C134.226 150.413 133.802 150.997 133.186 151.454C132.579 151.902 131.823 152.126 130.918 152.126C130.18 152.126 129.518 151.963 128.93 151.636C128.351 151.3 127.894 150.833 127.558 150.236C127.231 149.629 127.068 148.929 127.068 148.136C127.068 147.343 127.226 146.647 127.544 146.05C127.87 145.443 128.323 144.977 128.902 144.65C129.49 144.323 130.162 144.16 130.918 144.16C131.646 144.16 132.294 144.319 132.864 144.636C133.433 144.953 133.876 145.401 134.194 145.98C134.511 146.549 134.67 147.207 134.67 147.954ZM133.004 147.45C132.994 146.862 132.784 146.391 132.374 146.036C131.963 145.681 131.454 145.504 130.848 145.504C130.297 145.504 129.826 145.681 129.434 146.036C129.042 146.381 128.808 146.853 128.734 147.45H133.004ZM139.04 152.126C138.434 152.126 137.888 152.019 137.402 151.804C136.926 151.58 136.548 151.281 136.268 150.908C135.988 150.525 135.839 150.101 135.82 149.634H137.472C137.5 149.961 137.654 150.236 137.934 150.46C138.224 150.675 138.583 150.782 139.012 150.782C139.46 150.782 139.806 150.698 140.048 150.53C140.3 150.353 140.426 150.129 140.426 149.858C140.426 149.569 140.286 149.354 140.006 149.214C139.736 149.074 139.302 148.92 138.704 148.752C138.126 148.593 137.654 148.439 137.29 148.29C136.926 148.141 136.609 147.912 136.338 147.604C136.077 147.296 135.946 146.89 135.946 146.386C135.946 145.975 136.068 145.602 136.31 145.266C136.553 144.921 136.898 144.65 137.346 144.454C137.804 144.258 138.326 144.16 138.914 144.16C139.792 144.16 140.496 144.384 141.028 144.832C141.57 145.271 141.859 145.873 141.896 146.638H140.3C140.272 146.293 140.132 146.017 139.88 145.812C139.628 145.607 139.288 145.504 138.858 145.504C138.438 145.504 138.116 145.583 137.892 145.742C137.668 145.901 137.556 146.111 137.556 146.372C137.556 146.577 137.631 146.75 137.78 146.89C137.93 147.03 138.112 147.142 138.326 147.226C138.541 147.301 138.858 147.399 139.278 147.52C139.838 147.669 140.296 147.823 140.65 147.982C141.014 148.131 141.327 148.355 141.588 148.654C141.85 148.953 141.985 149.349 141.994 149.844C141.994 150.283 141.873 150.675 141.63 151.02C141.388 151.365 141.042 151.636 140.594 151.832C140.156 152.028 139.638 152.126 139.04 152.126Z" fill="#C07106"/>
<path d="M243.188 58.464C243.455 58.016 243.807 57.6693 244.244 57.424C244.692 57.168 245.22 57.04 245.828 57.04V58.928H245.364C244.649 58.928 244.105 59.1093 243.732 59.472C243.369 59.8347 243.188 60.464 243.188 61.36V66H241.364V57.184H243.188V58.464ZM255.489 57.184V66H253.665V64.96C253.377 65.3227 252.998 65.6107 252.529 65.824C252.07 66.0267 251.579 66.128 251.057 66.128C250.363 66.128 249.739 65.984 249.185 65.696C248.641 65.408 248.209 64.9813 247.889 64.416C247.579 63.8507 247.425 63.168 247.425 62.368V57.184H249.233V62.096C249.233 62.8853 249.43 63.4933 249.825 63.92C250.219 64.336 250.758 64.544 251.441 64.544C252.123 64.544 252.662 64.336 253.057 63.92C253.462 63.4933 253.665 62.8853 253.665 62.096V57.184H255.489ZM259.719 54.16V66H257.895V54.16H259.719ZM270.194 61.376C270.194 61.7067 270.173 62.0053 270.13 62.272H263.394C263.447 62.976 263.709 63.5413 264.178 63.968C264.647 64.3947 265.223 64.608 265.906 64.608C266.887 64.608 267.581 64.1973 267.986 63.376H269.954C269.687 64.1867 269.202 64.8533 268.498 65.376C267.805 65.888 266.941 66.144 265.906 66.144C265.063 66.144 264.306 65.9573 263.634 65.584C262.973 65.2 262.45 64.6667 262.066 63.984C261.693 63.2907 261.506 62.4907 261.506 61.584C261.506 60.6773 261.687 59.8827 262.05 59.2C262.423 58.5067 262.941 57.9733 263.602 57.6C264.274 57.2267 265.042 57.04 265.906 57.04C266.738 57.04 267.479 57.2213 268.13 57.584C268.781 57.9467 269.287 58.4587 269.65 59.12C270.013 59.7707 270.194 60.5227 270.194 61.376ZM268.29 60.8C268.279 60.128 268.039 59.5893 267.57 59.184C267.101 58.7787 266.519 58.576 265.826 58.576C265.197 58.576 264.658 58.7787 264.21 59.184C263.762 59.5787 263.495 60.1173 263.41 60.8H268.29ZM275.537 61.584C275.537 60.6773 275.719 59.8827 276.081 59.2C276.455 58.5067 276.967 57.9733 277.617 57.6C278.268 57.2267 279.015 57.04 279.857 57.04C280.924 57.04 281.804 57.296 282.497 57.808C283.201 58.3093 283.676 59.0293 283.921 59.968H281.953C281.793 59.5307 281.537 59.1893 281.185 58.944C280.833 58.6987 280.391 58.576 279.857 58.576C279.111 58.576 278.513 58.8427 278.065 59.376C277.628 59.8987 277.409 60.6347 277.409 61.584C277.409 62.5333 277.628 63.2747 278.065 63.808C278.513 64.3413 279.111 64.608 279.857 64.608C280.913 64.608 281.612 64.144 281.953 63.216H283.921C283.665 64.112 283.185 64.8267 282.481 65.36C281.777 65.8827 280.903 66.144 279.857 66.144C279.015 66.144 278.268 65.9573 277.617 65.584C276.967 65.2 276.455 64.6667 276.081 63.984C275.719 63.2907 275.537 62.4907 275.537 61.584ZM290.299 57.04C290.971 57.04 291.568 57.184 292.091 57.472C292.624 57.76 293.04 58.1867 293.339 58.752C293.648 59.3173 293.803 60 293.803 60.8V66H291.995V61.072C291.995 60.2827 291.798 59.68 291.403 59.264C291.008 58.8373 290.47 58.624 289.787 58.624C289.104 58.624 288.56 58.8373 288.155 59.264C287.76 59.68 287.563 60.2827 287.563 61.072V66H285.739V54.16H287.563V58.208C287.872 57.8347 288.262 57.5467 288.731 57.344C289.211 57.1413 289.734 57.04 290.299 57.04ZM295.522 61.552C295.522 60.6667 295.703 59.8827 296.066 59.2C296.439 58.5173 296.94 57.9893 297.57 57.616C298.21 57.232 298.914 57.04 299.682 57.04C300.375 57.04 300.978 57.1787 301.49 57.456C302.012 57.7227 302.428 58.0587 302.738 58.464V57.184H304.578V66H302.738V64.688C302.428 65.104 302.007 65.4507 301.474 65.728C300.94 66.0053 300.332 66.144 299.65 66.144C298.892 66.144 298.199 65.952 297.57 65.568C296.94 65.1733 296.439 64.6293 296.066 63.936C295.703 63.232 295.522 62.4373 295.522 61.552ZM302.738 61.584C302.738 60.976 302.61 60.448 302.354 60C302.108 59.552 301.783 59.2107 301.378 58.976C300.972 58.7413 300.535 58.624 300.066 58.624C299.596 58.624 299.159 58.7413 298.754 58.976C298.348 59.2 298.018 59.536 297.762 59.984C297.516 60.4213 297.394 60.944 297.394 61.552C297.394 62.16 297.516 62.6933 297.762 63.152C298.018 63.6107 298.348 63.9627 298.754 64.208C299.17 64.4427 299.607 64.56 300.066 64.56C300.535 64.56 300.972 64.4427 301.378 64.208C301.783 63.9733 302.108 63.632 302.354 63.184C302.61 62.7253 302.738 62.192 302.738 61.584ZM307.901 56.016C307.571 56.016 307.293 55.904 307.069 55.68C306.845 55.456 306.733 55.1787 306.733 54.848C306.733 54.5173 306.845 54.24 307.069 54.016C307.293 53.792 307.571 53.68 307.901 53.68C308.221 53.68 308.493 53.792 308.717 54.016C308.941 54.24 309.053 54.5173 309.053 54.848C309.053 55.1787 308.941 55.456 308.717 55.68C308.493 55.904 308.221 56.016 307.901 56.016ZM308.797 57.184V66H306.973V57.184H308.797ZM315.64 57.04C316.334 57.04 316.952 57.184 317.496 57.472C318.051 57.76 318.483 58.1867 318.792 58.752C319.102 59.3173 319.256 60 319.256 60.8V66H317.448V61.072C317.448 60.2827 317.251 59.68 316.856 59.264C316.462 58.8373 315.923 58.624 315.24 58.624C314.558 58.624 314.014 58.8373 313.608 59.264C313.214 59.68 313.016 60.2827 313.016 61.072V66H311.192V57.184H313.016V58.192C313.315 57.8293 313.694 57.5467 314.152 57.344C314.622 57.1413 315.118 57.04 315.64 57.04ZM326.539 61.808C326.208 61.808 325.931 61.696 325.707 61.472C325.483 61.248 325.371 60.9707 325.371 60.64C325.371 60.3093 325.483 60.032 325.707 59.808C325.931 59.584 326.208 59.472 326.539 59.472C326.859 59.472 327.131 59.584 327.355 59.808C327.579 60.032 327.691 60.3093 327.691 60.64C327.691 60.9707 327.579 61.248 327.355 61.472C327.131 61.696 326.859 61.808 326.539 61.808ZM335.93 58.672V63.552C335.93 63.8827 336.004 64.1227 336.154 64.272C336.314 64.4107 336.58 64.48 336.954 64.48H338.074V66H336.634C335.812 66 335.183 65.808 334.746 65.424C334.308 65.04 334.09 64.416 334.09 63.552V58.672H333.05V57.184H334.09V54.992H335.93V57.184H338.074V58.672H335.93ZM341.579 58.464C341.845 58.016 342.197 57.6693 342.635 57.424C343.083 57.168 343.611 57.04 344.219 57.04V58.928H343.755C343.04 58.928 342.496 59.1093 342.123 59.472C341.76 59.8347 341.579 60.464 341.579 61.36V66H339.755V57.184H341.579V58.464ZM345.287 61.552C345.287 60.6667 345.469 59.8827 345.831 59.2C346.205 58.5173 346.706 57.9893 347.335 57.616C347.975 57.232 348.679 57.04 349.447 57.04C350.141 57.04 350.743 57.1787 351.255 57.456C351.778 57.7227 352.194 58.0587 352.503 58.464V57.184H354.343V66H352.503V64.688C352.194 65.104 351.773 65.4507 351.239 65.728C350.706 66.0053 350.098 66.144 349.415 66.144C348.658 66.144 347.965 65.952 347.335 65.568C346.706 65.1733 346.205 64.6293 345.831 63.936C345.469 63.232 345.287 62.4373 345.287 61.552ZM352.503 61.584C352.503 60.976 352.375 60.448 352.119 60C351.874 59.552 351.549 59.2107 351.143 58.976C350.738 58.7413 350.301 58.624 349.831 58.624C349.362 58.624 348.925 58.7413 348.519 58.976C348.114 59.2 347.783 59.536 347.527 59.984C347.282 60.4213 347.159 60.944 347.159 61.552C347.159 62.16 347.282 62.6933 347.527 63.152C347.783 63.6107 348.114 63.9627 348.519 64.208C348.935 64.4427 349.373 64.56 349.831 64.56C350.301 64.56 350.738 64.4427 351.143 64.208C351.549 63.9733 351.874 63.632 352.119 63.184C352.375 62.7253 352.503 62.192 352.503 61.584ZM361.187 57.04C361.88 57.04 362.499 57.184 363.043 57.472C363.598 57.76 364.03 58.1867 364.339 58.752C364.648 59.3173 364.803 60 364.803 60.8V66H362.995V61.072C362.995 60.2827 362.798 59.68 362.403 59.264C362.008 58.8373 361.47 58.624 360.787 58.624C360.104 58.624 359.56 58.8373 359.155 59.264C358.76 59.68 358.563 60.2827 358.563 61.072V66H356.739V57.184H358.563V58.192C358.862 57.8293 359.24 57.5467 359.699 57.344C360.168 57.1413 360.664 57.04 361.187 57.04ZM370.33 66.144C369.636 66.144 369.012 66.0213 368.458 65.776C367.914 65.52 367.482 65.1787 367.162 64.752C366.842 64.3147 366.671 63.8293 366.65 63.296H368.538C368.57 63.6693 368.746 63.984 369.066 64.24C369.396 64.4853 369.807 64.608 370.298 64.608C370.81 64.608 371.204 64.512 371.482 64.32C371.77 64.1173 371.914 63.8613 371.914 63.552C371.914 63.2213 371.754 62.976 371.434 62.816C371.124 62.656 370.628 62.48 369.946 62.288C369.284 62.1067 368.746 61.9307 368.33 61.76C367.914 61.5893 367.551 61.328 367.242 60.976C366.943 60.624 366.794 60.16 366.794 59.584C366.794 59.1147 366.932 58.688 367.21 58.304C367.487 57.9093 367.882 57.6 368.394 57.376C368.916 57.152 369.514 57.04 370.186 57.04C371.188 57.04 371.994 57.296 372.602 57.808C373.22 58.3093 373.551 58.9973 373.594 59.872H371.77C371.738 59.4773 371.578 59.1627 371.29 58.928C371.002 58.6933 370.612 58.576 370.122 58.576C369.642 58.576 369.274 58.6667 369.018 58.848C368.762 59.0293 368.634 59.2693 368.634 59.568C368.634 59.8027 368.719 60 368.89 60.16C369.06 60.32 369.268 60.448 369.514 60.544C369.759 60.6293 370.122 60.7413 370.602 60.88C371.242 61.0507 371.764 61.2267 372.17 61.408C372.586 61.5787 372.943 61.8347 373.242 62.176C373.54 62.5173 373.695 62.9707 373.706 63.536C373.706 64.0373 373.567 64.4853 373.29 64.88C373.012 65.2747 372.618 65.584 372.106 65.808C371.604 66.032 371.012 66.144 370.33 66.144ZM379.373 58.672H377.741V66H375.901V58.672H374.861V57.184H375.901V56.56C375.901 55.5467 376.167 54.8107 376.701 54.352C377.245 53.8827 378.093 53.648 379.245 53.648V55.168C378.69 55.168 378.301 55.2747 378.077 55.488C377.853 55.6907 377.741 56.048 377.741 56.56V57.184H379.373V58.672ZM384.813 66.144C383.981 66.144 383.229 65.9573 382.557 65.584C381.885 65.2 381.357 64.6667 380.973 63.984C380.589 63.2907 380.397 62.4907 380.397 61.584C380.397 60.688 380.594 59.8933 380.989 59.2C381.384 58.5067 381.922 57.9733 382.605 57.6C383.288 57.2267 384.05 57.04 384.893 57.04C385.736 57.04 386.498 57.2267 387.181 57.6C387.864 57.9733 388.402 58.5067 388.797 59.2C389.192 59.8933 389.389 60.688 389.389 61.584C389.389 62.48 389.186 63.2747 388.781 63.968C388.376 64.6613 387.821 65.2 387.117 65.584C386.424 65.9573 385.656 66.144 384.813 66.144ZM384.813 64.56C385.282 64.56 385.72 64.448 386.125 64.224C386.541 64 386.877 63.664 387.133 63.216C387.389 62.768 387.517 62.224 387.517 61.584C387.517 60.944 387.394 60.4053 387.149 59.968C386.904 59.52 386.578 59.184 386.173 58.96C385.768 58.736 385.33 58.624 384.861 58.624C384.392 58.624 383.954 58.736 383.549 58.96C383.154 59.184 382.84 59.52 382.605 59.968C382.37 60.4053 382.253 60.944 382.253 61.584C382.253 62.5333 382.493 63.2693 382.973 63.792C383.464 64.304 384.077 64.56 384.813 64.56ZM393.016 58.464C393.283 58.016 393.635 57.6693 394.072 57.424C394.52 57.168 395.048 57.04 395.656 57.04V58.928H395.192C394.478 58.928 393.934 59.1093 393.56 59.472C393.198 59.8347 393.016 60.464 393.016 61.36V66H391.192V57.184H393.016V58.464ZM408.005 57.04C408.698 57.04 409.317 57.184 409.861 57.472C410.415 57.76 410.847 58.1867 411.157 58.752C411.477 59.3173 411.637 60 411.637 60.8V66H409.829V61.072C409.829 60.2827 409.631 59.68 409.237 59.264C408.842 58.8373 408.303 58.624 407.621 58.624C406.938 58.624 406.394 58.8373 405.989 59.264C405.594 59.68 405.397 60.2827 405.397 61.072V66H403.589V61.072C403.589 60.2827 403.391 59.68 402.997 59.264C402.602 58.8373 402.063 58.624 401.381 58.624C400.698 58.624 400.154 58.8373 399.749 59.264C399.354 59.68 399.157 60.2827 399.157 61.072V66H397.333V57.184H399.157V58.192C399.455 57.8293 399.834 57.5467 400.293 57.344C400.751 57.1413 401.242 57.04 401.765 57.04C402.469 57.04 403.098 57.1893 403.653 57.488C404.207 57.7867 404.634 58.2187 404.933 58.784C405.199 58.2507 405.615 57.8293 406.181 57.52C406.746 57.2 407.354 57.04 408.005 57.04ZM413.35 61.552C413.35 60.6667 413.531 59.8827 413.894 59.2C414.267 58.5173 414.768 57.9893 415.398 57.616C416.038 57.232 416.742 57.04 417.51 57.04C418.203 57.04 418.806 57.1787 419.318 57.456C419.84 57.7227 420.256 58.0587 420.566 58.464V57.184H422.406V66H420.566V64.688C420.256 65.104 419.835 65.4507 419.302 65.728C418.768 66.0053 418.16 66.144 417.478 66.144C416.72 66.144 416.027 65.952 415.398 65.568C414.768 65.1733 414.267 64.6293 413.894 63.936C413.531 63.232 413.35 62.4373 413.35 61.552ZM420.566 61.584C420.566 60.976 420.438 60.448 420.182 60C419.936 59.552 419.611 59.2107 419.206 58.976C418.8 58.7413 418.363 58.624 417.894 58.624C417.424 58.624 416.987 58.7413 416.582 58.976C416.176 59.2 415.846 59.536 415.59 59.984C415.344 60.4213 415.222 60.944 415.222 61.552C415.222 62.16 415.344 62.6933 415.59 63.152C415.846 63.6107 416.176 63.9627 416.582 64.208C416.998 64.4427 417.435 64.56 417.894 64.56C418.363 64.56 418.8 64.4427 419.206 64.208C419.611 63.9733 419.936 63.632 420.182 63.184C420.438 62.7253 420.566 62.192 420.566 61.584ZM426.93 58.672V63.552C426.93 63.8827 427.004 64.1227 427.154 64.272C427.314 64.4107 427.58 64.48 427.954 64.48H429.074V66H427.634C426.812 66 426.183 65.808 425.746 65.424C425.308 65.04 425.09 64.416 425.09 63.552V58.672H424.05V57.184H425.09V54.992H426.93V57.184H429.074V58.672H426.93ZM431.683 56.016C431.352 56.016 431.075 55.904 430.851 55.68C430.627 55.456 430.515 55.1787 430.515 54.848C430.515 54.5173 430.627 54.24 430.851 54.016C431.075 53.792 431.352 53.68 431.683 53.68C432.003 53.68 432.275 53.792 432.499 54.016C432.723 54.24 432.835 54.5173 432.835 54.848C432.835 55.1787 432.723 55.456 432.499 55.68C432.275 55.904 432.003 56.016 431.683 56.016ZM432.579 57.184V66H430.755V57.184H432.579ZM438.797 66.144C437.965 66.144 437.213 65.9573 436.541 65.584C435.869 65.2 435.341 64.6667 434.957 63.984C434.573 63.2907 434.381 62.4907 434.381 61.584C434.381 60.688 434.579 59.8933 434.973 59.2C435.368 58.5067 435.907 57.9733 436.589 57.6C437.272 57.2267 438.035 57.04 438.877 57.04C439.72 57.04 440.483 57.2267 441.165 57.6C441.848 57.9733 442.387 58.5067 442.781 59.2C443.176 59.8933 443.373 60.688 443.373 61.584C443.373 62.48 443.171 63.2747 442.765 63.968C442.36 64.6613 441.805 65.2 441.101 65.584C440.408 65.9573 439.64 66.144 438.797 66.144ZM438.797 64.56C439.267 64.56 439.704 64.448 440.109 64.224C440.525 64 440.861 63.664 441.117 63.216C441.373 62.768 441.501 62.224 441.501 61.584C441.501 60.944 441.379 60.4053 441.133 59.968C440.888 59.52 440.563 59.184 440.157 58.96C439.752 58.736 439.315 58.624 438.845 58.624C438.376 58.624 437.939 58.736 437.533 58.96C437.139 59.184 436.824 59.52 436.589 59.968C436.355 60.4053 436.237 60.944 436.237 61.584C436.237 62.5333 436.477 63.2693 436.957 63.792C437.448 64.304 438.061 64.56 438.797 64.56ZM449.625 57.04C450.318 57.04 450.937 57.184 451.481 57.472C452.035 57.76 452.467 58.1867 452.777 58.752C453.086 59.3173 453.241 60 453.241 60.8V66H451.433V61.072C451.433 60.2827 451.235 59.68 450.841 59.264C450.446 58.8373 449.907 58.624 449.225 58.624C448.542 58.624 447.998 58.8373 447.593 59.264C447.198 59.68 447.001 60.2827 447.001 61.072V66H445.177V57.184H447.001V58.192C447.299 57.8293 447.678 57.5467 448.137 57.344C448.606 57.1413 449.102 57.04 449.625 57.04ZM464.171 57.04C464.865 57.04 465.483 57.184 466.027 57.472C466.582 57.76 467.014 58.1867 467.323 58.752C467.633 59.3173 467.787 60 467.787 60.8V66H465.979V61.072C465.979 60.2827 465.782 59.68 465.387 59.264C464.993 58.8373 464.454 58.624 463.771 58.624C463.089 58.624 462.545 58.8373 462.139 59.264C461.745 59.68 461.547 60.2827 461.547 61.072V66H459.723V57.184H461.547V58.192C461.846 57.8293 462.225 57.5467 462.683 57.344C463.153 57.1413 463.649 57.04 464.171 57.04ZM473.938 66.144C473.106 66.144 472.354 65.9573 471.682 65.584C471.01 65.2 470.482 64.6667 470.098 63.984C469.714 63.2907 469.522 62.4907 469.522 61.584C469.522 60.688 469.719 59.8933 470.114 59.2C470.509 58.5067 471.047 57.9733 471.73 57.6C472.413 57.2267 473.175 57.04 474.018 57.04C474.861 57.04 475.623 57.2267 476.306 57.6C476.989 57.9733 477.527 58.5067 477.922 59.2C478.317 59.8933 478.514 60.688 478.514 61.584C478.514 62.48 478.311 63.2747 477.906 63.968C477.501 64.6613 476.946 65.2 476.242 65.584C475.549 65.9573 474.781 66.144 473.938 66.144ZM473.938 64.56C474.407 64.56 474.845 64.448 475.25 64.224C475.666 64 476.002 63.664 476.258 63.216C476.514 62.768 476.642 62.224 476.642 61.584C476.642 60.944 476.519 60.4053 476.274 59.968C476.029 59.52 475.703 59.184 475.298 58.96C474.893 58.736 474.455 58.624 473.986 58.624C473.517 58.624 473.079 58.736 472.674 58.96C472.279 59.184 471.965 59.52 471.73 59.968C471.495 60.4053 471.378 60.944 471.378 61.584C471.378 62.5333 471.618 63.2693 472.098 63.792C472.589 64.304 473.202 64.56 473.938 64.56ZM479.709 61.552C479.709 60.6667 479.891 59.8827 480.253 59.2C480.627 58.5173 481.128 57.9893 481.757 57.616C482.397 57.232 483.107 57.04 483.885 57.04C484.461 57.04 485.027 57.168 485.581 57.424C486.147 57.6693 486.595 58 486.925 58.416V54.16H488.765V66H486.925V64.672C486.627 65.0987 486.211 65.4507 485.677 65.728C485.155 66.0053 484.552 66.144 483.869 66.144C483.101 66.144 482.397 65.952 481.757 65.568C481.128 65.1733 480.627 64.6293 480.253 63.936C479.891 63.232 479.709 62.4373 479.709 61.552ZM486.925 61.584C486.925 60.976 486.797 60.448 486.541 60C486.296 59.552 485.971 59.2107 485.565 58.976C485.16 58.7413 484.723 58.624 484.253 58.624C483.784 58.624 483.347 58.7413 482.941 58.976C482.536 59.2 482.205 59.536 481.949 59.984C481.704 60.4213 481.581 60.944 481.581 61.552C481.581 62.16 481.704 62.6933 481.949 63.152C482.205 63.6107 482.536 63.9627 482.941 64.208C483.357 64.4427 483.795 64.56 484.253 64.56C484.723 64.56 485.16 64.4427 485.565 64.208C485.971 63.9733 486.296 63.632 486.541 63.184C486.797 62.7253 486.925 62.192 486.925 61.584ZM499.241 61.376C499.241 61.7067 499.22 62.0053 499.177 62.272H492.441C492.494 62.976 492.756 63.5413 493.225 63.968C493.694 64.3947 494.27 64.608 494.953 64.608C495.934 64.608 496.628 64.1973 497.033 63.376H499.001C498.734 64.1867 498.249 64.8533 497.545 65.376C496.852 65.888 495.988 66.144 494.953 66.144C494.11 66.144 493.353 65.9573 492.681 65.584C492.02 65.2 491.497 64.6667 491.113 63.984C490.74 63.2907 490.553 62.4907 490.553 61.584C490.553 60.6773 490.734 59.8827 491.097 59.2C491.47 58.5067 491.988 57.9733 492.649 57.6C493.321 57.2267 494.089 57.04 494.953 57.04C495.785 57.04 496.526 57.2213 497.177 57.584C497.828 57.9467 498.334 58.4587 498.697 59.12C499.06 59.7707 499.241 60.5227 499.241 61.376ZM497.337 60.8C497.326 60.128 497.086 59.5893 496.617 59.184C496.148 58.7787 495.566 58.576 494.873 58.576C494.244 58.576 493.705 58.7787 493.257 59.184C492.809 59.5787 492.542 60.1173 492.457 60.8H497.337Z" fill="#379AC3"/>
<path d="M577.061 158.552C577.061 157.667 577.242 156.883 577.605 156.2C577.978 155.517 578.479 154.989 579.109 154.616C579.749 154.232 580.453 154.04 581.221 154.04C581.914 154.04 582.517 154.179 583.029 154.456C583.551 154.723 583.967 155.059 584.277 155.464V154.184H586.117V163H584.277V161.688C583.967 162.104 583.546 162.451 583.013 162.728C582.479 163.005 581.871 163.144 581.189 163.144C580.431 163.144 579.738 162.952 579.109 162.568C578.479 162.173 577.978 161.629 577.605 160.936C577.242 160.232 577.061 159.437 577.061 158.552ZM584.277 158.584C584.277 157.976 584.149 157.448 583.893 157C583.647 156.552 583.322 156.211 582.917 155.976C582.511 155.741 582.074 155.624 581.605 155.624C581.135 155.624 580.698 155.741 580.293 155.976C579.887 156.2 579.557 156.536 579.301 156.984C579.055 157.421 578.933 157.944 578.933 158.552C578.933 159.16 579.055 159.693 579.301 160.152C579.557 160.611 579.887 160.963 580.293 161.208C580.709 161.443 581.146 161.56 581.605 161.56C582.074 161.56 582.511 161.443 582.917 161.208C583.322 160.973 583.647 160.632 583.893 160.184C584.149 159.725 584.277 159.192 584.277 158.584ZM591.713 163.144C591.019 163.144 590.395 163.021 589.841 162.776C589.297 162.52 588.865 162.179 588.545 161.752C588.225 161.315 588.054 160.829 588.033 160.296H589.921C589.953 160.669 590.129 160.984 590.449 161.24C590.779 161.485 591.19 161.608 591.681 161.608C592.193 161.608 592.587 161.512 592.865 161.32C593.153 161.117 593.297 160.861 593.297 160.552C593.297 160.221 593.137 159.976 592.817 159.816C592.507 159.656 592.011 159.48 591.329 159.288C590.667 159.107 590.129 158.931 589.713 158.76C589.297 158.589 588.934 158.328 588.625 157.976C588.326 157.624 588.177 157.16 588.177 156.584C588.177 156.115 588.315 155.688 588.593 155.304C588.87 154.909 589.265 154.6 589.777 154.376C590.299 154.152 590.897 154.04 591.569 154.04C592.571 154.04 593.377 154.296 593.985 154.808C594.603 155.309 594.934 155.997 594.977 156.872H593.153C593.121 156.477 592.961 156.163 592.673 155.928C592.385 155.693 591.995 155.576 591.505 155.576C591.025 155.576 590.657 155.667 590.401 155.848C590.145 156.029 590.017 156.269 590.017 156.568C590.017 156.803 590.102 157 590.273 157.16C590.443 157.32 590.651 157.448 590.897 157.544C591.142 157.629 591.505 157.741 591.985 157.88C592.625 158.051 593.147 158.227 593.553 158.408C593.969 158.579 594.326 158.835 594.625 159.176C594.923 159.517 595.078 159.971 595.089 160.536C595.089 161.037 594.95 161.485 594.673 161.88C594.395 162.275 594.001 162.584 593.489 162.808C592.987 163.032 592.395 163.144 591.713 163.144ZM604.416 163.144C603.722 163.144 603.098 163.021 602.544 162.776C602 162.52 601.568 162.179 601.248 161.752C600.928 161.315 600.757 160.829 600.736 160.296H602.624C602.656 160.669 602.832 160.984 603.152 161.24C603.482 161.485 603.893 161.608 604.384 161.608C604.896 161.608 605.29 161.512 605.568 161.32C605.856 161.117 606 160.861 606 160.552C606 160.221 605.84 159.976 605.52 159.816C605.21 159.656 604.714 159.48 604.032 159.288C603.37 159.107 602.832 158.931 602.416 158.76C602 158.589 601.637 158.328 601.328 157.976C601.029 157.624 600.88 157.16 600.88 156.584C600.88 156.115 601.018 155.688 601.296 155.304C601.573 154.909 601.968 154.6 602.48 154.376C603.002 154.152 603.6 154.04 604.272 154.04C605.274 154.04 606.08 154.296 606.688 154.808C607.306 155.309 607.637 155.997 607.68 156.872H605.856C605.824 156.477 605.664 156.163 605.376 155.928C605.088 155.693 604.698 155.576 604.208 155.576C603.728 155.576 603.36 155.667 603.104 155.848C602.848 156.029 602.72 156.269 602.72 156.568C602.72 156.803 602.805 157 602.976 157.16C603.146 157.32 603.354 157.448 603.6 157.544C603.845 157.629 604.208 157.741 604.688 157.88C605.328 158.051 605.85 158.227 606.256 158.408C606.672 158.579 607.029 158.835 607.328 159.176C607.626 159.517 607.781 159.971 607.792 160.536C607.792 161.037 607.653 161.485 607.376 161.88C607.098 162.275 606.704 162.584 606.192 162.808C605.69 163.032 605.098 163.144 604.416 163.144ZM614.323 154.04C614.995 154.04 615.592 154.184 616.115 154.472C616.648 154.76 617.064 155.187 617.363 155.752C617.672 156.317 617.827 157 617.827 157.8V163H616.019V158.072C616.019 157.283 615.821 156.68 615.427 156.264C615.032 155.837 614.493 155.624 613.811 155.624C613.128 155.624 612.584 155.837 612.179 156.264C611.784 156.68 611.587 157.283 611.587 158.072V163H609.763V151.16H611.587V155.208C611.896 154.835 612.285 154.547 612.755 154.344C613.235 154.141 613.757 154.04 614.323 154.04ZM619.545 158.552C619.545 157.667 619.726 156.883 620.089 156.2C620.462 155.517 620.964 154.989 621.593 154.616C622.233 154.232 622.937 154.04 623.705 154.04C624.398 154.04 625.001 154.179 625.513 154.456C626.036 154.723 626.452 155.059 626.761 155.464V154.184H628.601V163H626.761V161.688C626.452 162.104 626.03 162.451 625.497 162.728C624.964 163.005 624.356 163.144 623.673 163.144C622.916 163.144 622.222 162.952 621.593 162.568C620.964 162.173 620.462 161.629 620.089 160.936C619.726 160.232 619.545 159.437 619.545 158.552ZM626.761 158.584C626.761 157.976 626.633 157.448 626.377 157C626.132 156.552 625.806 156.211 625.401 155.976C624.996 155.741 624.558 155.624 624.089 155.624C623.62 155.624 623.182 155.741 622.777 155.976C622.372 156.2 622.041 156.536 621.785 156.984C621.54 157.421 621.417 157.944 621.417 158.552C621.417 159.16 621.54 159.693 621.785 160.152C622.041 160.611 622.372 160.963 622.777 161.208C623.193 161.443 623.63 161.56 624.089 161.56C624.558 161.56 624.996 161.443 625.401 161.208C625.806 160.973 626.132 160.632 626.377 160.184C626.633 159.725 626.761 159.192 626.761 158.584ZM632.821 155.464C633.088 155.016 633.44 154.669 633.877 154.424C634.325 154.168 634.853 154.04 635.461 154.04V155.928H634.997C634.282 155.928 633.738 156.109 633.365 156.472C633.002 156.835 632.821 157.464 632.821 158.36V163H630.997V154.184H632.821V155.464ZM645.218 158.376C645.218 158.707 645.196 159.005 645.154 159.272H638.418C638.471 159.976 638.732 160.541 639.202 160.968C639.671 161.395 640.247 161.608 640.93 161.608C641.911 161.608 642.604 161.197 643.01 160.376H644.977C644.711 161.187 644.226 161.853 643.522 162.376C642.828 162.888 641.964 163.144 640.93 163.144C640.087 163.144 639.33 162.957 638.658 162.584C637.996 162.2 637.474 161.667 637.09 160.984C636.716 160.291 636.53 159.491 636.53 158.584C636.53 157.677 636.711 156.883 637.074 156.2C637.447 155.507 637.964 154.973 638.626 154.6C639.298 154.227 640.066 154.04 640.93 154.04C641.762 154.04 642.503 154.221 643.154 154.584C643.804 154.947 644.311 155.459 644.674 156.12C645.036 156.771 645.218 157.523 645.218 158.376ZM643.314 157.8C643.303 157.128 643.063 156.589 642.594 156.184C642.124 155.779 641.543 155.576 640.85 155.576C640.22 155.576 639.682 155.779 639.234 156.184C638.786 156.579 638.519 157.117 638.434 157.8H643.314ZM646.405 158.552C646.405 157.667 646.586 156.883 646.949 156.2C647.322 155.517 647.823 154.989 648.453 154.616C649.093 154.232 649.802 154.04 650.581 154.04C651.157 154.04 651.722 154.168 652.277 154.424C652.842 154.669 653.29 155 653.621 155.416V151.16H655.461V163H653.621V161.672C653.322 162.099 652.906 162.451 652.373 162.728C651.85 163.005 651.247 163.144 650.565 163.144C649.797 163.144 649.093 162.952 648.453 162.568C647.823 162.173 647.322 161.629 646.949 160.936C646.586 160.232 646.405 159.437 646.405 158.552ZM653.621 158.584C653.621 157.976 653.493 157.448 653.237 157C652.991 156.552 652.666 156.211 652.261 155.976C651.855 155.741 651.418 155.624 650.949 155.624C650.479 155.624 650.042 155.741 649.637 155.976C649.231 156.2 648.901 156.536 648.645 156.984C648.399 157.421 648.277 157.944 648.277 158.552C648.277 159.16 648.399 159.693 648.645 160.152C648.901 160.611 649.231 160.963 649.637 161.208C650.053 161.443 650.49 161.56 650.949 161.56C651.418 161.56 651.855 161.443 652.261 161.208C652.666 160.973 652.991 160.632 653.237 160.184C653.493 159.725 653.621 159.192 653.621 158.584ZM661.405 158.552C661.405 157.667 661.586 156.883 661.949 156.2C662.322 155.517 662.823 154.989 663.453 154.616C664.093 154.232 664.797 154.04 665.565 154.04C666.258 154.04 666.861 154.179 667.373 154.456C667.895 154.723 668.311 155.059 668.621 155.464V154.184H670.461V163H668.621V161.688C668.311 162.104 667.89 162.451 667.357 162.728C666.823 163.005 666.215 163.144 665.533 163.144C664.775 163.144 664.082 162.952 663.453 162.568C662.823 162.173 662.322 161.629 661.949 160.936C661.586 160.232 661.405 159.437 661.405 158.552ZM668.621 158.584C668.621 157.976 668.493 157.448 668.237 157C667.991 156.552 667.666 156.211 667.261 155.976C666.855 155.741 666.418 155.624 665.949 155.624C665.479 155.624 665.042 155.741 664.637 155.976C664.231 156.2 663.901 156.536 663.645 156.984C663.399 157.421 663.277 157.944 663.277 158.552C663.277 159.16 663.399 159.693 663.645 160.152C663.901 160.611 664.231 160.963 664.637 161.208C665.053 161.443 665.49 161.56 665.949 161.56C666.418 161.56 666.855 161.443 667.261 161.208C667.666 160.973 667.991 160.632 668.237 160.184C668.493 159.725 668.621 159.192 668.621 158.584ZM674.984 155.672V160.552C674.984 160.883 675.059 161.123 675.208 161.272C675.368 161.411 675.635 161.48 676.008 161.48H677.128V163H675.688C674.867 163 674.238 162.808 673.8 162.424C673.363 162.04 673.144 161.416 673.144 160.552V155.672H672.104V154.184H673.144V151.992H674.984V154.184H677.128V155.672H674.984ZM680.937 155.672V160.552C680.937 160.883 681.012 161.123 681.161 161.272C681.321 161.411 681.588 161.48 681.961 161.48H683.081V163H681.641C680.82 163 680.191 162.808 679.753 162.424C679.316 162.04 679.097 161.416 679.097 160.552V155.672H678.057V154.184H679.097V151.992H680.937V154.184H683.081V155.672H680.937ZM686.587 155.464C686.853 155.016 687.205 154.669 687.643 154.424C688.091 154.168 688.619 154.04 689.227 154.04V155.928H688.763C688.048 155.928 687.504 156.109 687.131 156.472C686.768 156.835 686.587 157.464 686.587 158.36V163H684.763V154.184H686.587V155.464ZM691.831 153.016C691.5 153.016 691.223 152.904 690.999 152.68C690.775 152.456 690.663 152.179 690.663 151.848C690.663 151.517 690.775 151.24 690.999 151.016C691.223 150.792 691.5 150.68 691.831 150.68C692.151 150.68 692.423 150.792 692.647 151.016C692.871 151.24 692.983 151.517 692.983 151.848C692.983 152.179 692.871 152.456 692.647 152.68C692.423 152.904 692.151 153.016 691.831 153.016ZM692.727 154.184V163H690.903V154.184H692.727ZM696.946 155.496C697.255 155.069 697.677 154.723 698.21 154.456C698.754 154.179 699.357 154.04 700.018 154.04C700.797 154.04 701.501 154.227 702.13 154.6C702.759 154.973 703.255 155.507 703.618 156.2C703.981 156.883 704.162 157.667 704.162 158.552C704.162 159.437 703.981 160.232 703.618 160.936C703.255 161.629 702.754 162.173 702.114 162.568C701.485 162.952 700.786 163.144 700.018 163.144C699.335 163.144 698.727 163.011 698.194 162.744C697.671 162.477 697.255 162.136 696.946 161.72V163H695.122V151.16H696.946V155.496ZM702.306 158.552C702.306 157.944 702.178 157.421 701.922 156.984C701.677 156.536 701.346 156.2 700.93 155.976C700.525 155.741 700.087 155.624 699.618 155.624C699.159 155.624 698.722 155.741 698.306 155.976C697.901 156.211 697.57 156.552 697.314 157C697.069 157.448 696.946 157.976 696.946 158.584C696.946 159.192 697.069 159.725 697.314 160.184C697.57 160.632 697.901 160.973 698.306 161.208C698.722 161.443 699.159 161.56 699.618 161.56C700.087 161.56 700.525 161.443 700.93 161.208C701.346 160.963 701.677 160.611 701.922 160.152C702.178 159.693 702.306 159.16 702.306 158.552ZM713.95 154.184V163H712.126V161.96C711.838 162.323 711.459 162.611 710.99 162.824C710.531 163.027 710.04 163.128 709.518 163.128C708.824 163.128 708.2 162.984 707.646 162.696C707.102 162.408 706.67 161.981 706.35 161.416C706.04 160.851 705.886 160.168 705.886 159.368V154.184H707.694V159.096C707.694 159.885 707.891 160.493 708.286 160.92C708.68 161.336 709.219 161.544 709.902 161.544C710.584 161.544 711.123 161.336 711.518 160.92C711.923 160.493 712.126 159.885 712.126 159.096V154.184H713.95ZM718.484 155.672V160.552C718.484 160.883 718.559 161.123 718.708 161.272C718.868 161.411 719.135 161.48 719.508 161.48H720.628V163H719.188C718.367 163 717.738 162.808 717.3 162.424C716.863 162.04 716.644 161.416 716.644 160.552V155.672H715.604V154.184H716.644V151.992H718.484V154.184H720.628V155.672H718.484ZM730.389 158.376C730.389 158.707 730.368 159.005 730.325 159.272H723.589C723.643 159.976 723.904 160.541 724.373 160.968C724.843 161.395 725.419 161.608 726.101 161.608C727.083 161.608 727.776 161.197 728.181 160.376H730.149C729.883 161.187 729.397 161.853 728.693 162.376C728 162.888 727.136 163.144 726.101 163.144C725.259 163.144 724.501 162.957 723.829 162.584C723.168 162.2 722.645 161.667 722.261 160.984C721.888 160.291 721.701 159.491 721.701 158.584C721.701 157.677 721.883 156.883 722.245 156.2C722.619 155.507 723.136 154.973 723.797 154.6C724.469 154.227 725.237 154.04 726.101 154.04C726.933 154.04 727.675 154.221 728.325 154.584C728.976 154.947 729.483 155.459 729.845 156.12C730.208 156.771 730.389 157.523 730.389 158.376ZM728.485 157.8C728.475 157.128 728.235 156.589 727.765 156.184C727.296 155.779 726.715 155.576 726.021 155.576C725.392 155.576 724.853 155.779 724.405 156.184C723.957 156.579 723.691 157.117 723.605 157.8H728.485ZM735.384 163.144C734.691 163.144 734.067 163.021 733.512 162.776C732.968 162.52 732.536 162.179 732.216 161.752C731.896 161.315 731.726 160.829 731.704 160.296H733.592C733.624 160.669 733.8 160.984 734.12 161.24C734.451 161.485 734.862 161.608 735.352 161.608C735.864 161.608 736.259 161.512 736.536 161.32C736.824 161.117 736.968 160.861 736.968 160.552C736.968 160.221 736.808 159.976 736.488 159.816C736.179 159.656 735.683 159.48 735 159.288C734.339 159.107 733.8 158.931 733.384 158.76C732.968 158.589 732.606 158.328 732.296 157.976C731.998 157.624 731.848 157.16 731.848 156.584C731.848 156.115 731.987 155.688 732.264 155.304C732.542 154.909 732.936 154.6 733.448 154.376C733.971 154.152 734.568 154.04 735.24 154.04C736.243 154.04 737.048 154.296 737.656 154.808C738.275 155.309 738.606 155.997 738.648 156.872H736.824C736.792 156.477 736.632 156.163 736.344 155.928C736.056 155.693 735.667 155.576 735.176 155.576C734.696 155.576 734.328 155.667 734.072 155.848C733.816 156.029 733.688 156.269 733.688 156.568C733.688 156.803 733.774 157 733.944 157.16C734.115 157.32 734.323 157.448 734.568 157.544C734.814 157.629 735.176 157.741 735.656 157.88C736.296 158.051 736.819 158.227 737.224 158.408C737.64 158.579 737.998 158.835 738.296 159.176C738.595 159.517 738.75 159.971 738.76 160.536C738.76 161.037 738.622 161.485 738.344 161.88C738.067 162.275 737.672 162.584 737.16 162.808C736.659 163.032 736.067 163.144 735.384 163.144Z" fill="#D7524D"/>
<path d="M34.2553 77.126C33.6486 77.126 33.1026 77.0187 32.6173 76.804C32.1413 76.58 31.7633 76.2813 31.4833 75.908C31.2033 75.5253 31.0539 75.1007 31.0353 74.634H32.6873C32.7153 74.9607 32.8693 75.236 33.1493 75.46C33.4386 75.6747 33.7979 75.782 34.2273 75.782C34.6753 75.782 35.0206 75.698 35.2633 75.53C35.5153 75.3527 35.6413 75.1287 35.6413 74.858C35.6413 74.5687 35.5013 74.354 35.2213 74.214C34.9506 74.074 34.5166 73.92 33.9193 73.752C33.3406 73.5933 32.8693 73.4393 32.5053 73.29C32.1413 73.1407 31.8239 72.912 31.5533 72.604C31.2919 72.296 31.1613 71.89 31.1613 71.386C31.1613 70.9753 31.2826 70.602 31.5253 70.266C31.7679 69.9207 32.1133 69.65 32.5613 69.454C33.0186 69.258 33.5413 69.16 34.1293 69.16C35.0066 69.16 35.7113 69.384 36.2433 69.832C36.7846 70.2707 37.0739 70.8727 37.1113 71.638H35.5153C35.4873 71.2927 35.3473 71.0173 35.0953 70.812C34.8433 70.6067 34.5026 70.504 34.0733 70.504C33.6533 70.504 33.3313 70.5833 33.1073 70.742C32.8833 70.9007 32.7713 71.1107 32.7713 71.372C32.7713 71.5773 32.8459 71.75 32.9953 71.89C33.1446 72.03 33.3266 72.142 33.5413 72.226C33.7559 72.3007 34.0733 72.3987 34.4933 72.52C35.0533 72.6693 35.5106 72.8233 35.8653 72.982C36.2293 73.1313 36.5419 73.3553 36.8033 73.654C37.0646 73.9527 37.1999 74.3493 37.2093 74.844C37.2093 75.2827 37.0879 75.6747 36.8453 76.02C36.6026 76.3653 36.2573 76.636 35.8093 76.832C35.3706 77.028 34.8526 77.126 34.2553 77.126ZM38.4018 73.108C38.4018 72.3333 38.5605 71.6473 38.8778 71.05C39.2045 70.4527 39.6431 69.9907 40.1938 69.664C40.7538 69.328 41.3698 69.16 42.0418 69.16C42.6485 69.16 43.1758 69.2813 43.6238 69.524C44.0811 69.7573 44.4451 70.0513 44.7158 70.406V69.286H46.3258V77H44.7158V75.852C44.4451 76.216 44.0765 76.5193 43.6098 76.762C43.1431 77.0047 42.6111 77.126 42.0138 77.126C41.3511 77.126 40.7445 76.958 40.1938 76.622C39.6431 76.2767 39.2045 75.8007 38.8778 75.194C38.5605 74.578 38.4018 73.8827 38.4018 73.108ZM44.7158 73.136C44.7158 72.604 44.6038 72.142 44.3798 71.75C44.1651 71.358 43.8805 71.0593 43.5258 70.854C43.1711 70.6487 42.7885 70.546 42.3778 70.546C41.9671 70.546 41.5845 70.6487 41.2298 70.854C40.8751 71.05 40.5858 71.344 40.3618 71.736C40.1471 72.1187 40.0398 72.576 40.0398 73.108C40.0398 73.64 40.1471 74.1067 40.3618 74.508C40.5858 74.9093 40.8751 75.2173 41.2298 75.432C41.5938 75.6373 41.9765 75.74 42.3778 75.74C42.7885 75.74 43.1711 75.6373 43.5258 75.432C43.8805 75.2267 44.1651 74.928 44.3798 74.536C44.6038 74.1347 44.7158 73.668 44.7158 73.136ZM51.4041 75.572L53.5881 69.286H55.2821L52.3421 77H50.4381L47.5121 69.286H49.2201L51.4041 75.572ZM63.5585 72.954C63.5585 73.2433 63.5398 73.5047 63.5025 73.738H57.6085C57.6551 74.354 57.8838 74.8487 58.2945 75.222C58.7051 75.5953 59.2091 75.782 59.8065 75.782C60.6651 75.782 61.2718 75.4227 61.6265 74.704H63.3485C63.1151 75.4133 62.6905 75.9967 62.0745 76.454C61.4678 76.902 60.7118 77.126 59.8065 77.126C59.0691 77.126 58.4065 76.9627 57.8185 76.636C57.2398 76.3 56.7825 75.8333 56.4465 75.236C56.1198 74.6293 55.9565 73.9293 55.9565 73.136C55.9565 72.3427 56.1151 71.6473 56.4325 71.05C56.7591 70.4433 57.2118 69.9767 57.7905 69.65C58.3785 69.3233 59.0505 69.16 59.8065 69.16C60.5345 69.16 61.1831 69.3187 61.7525 69.636C62.3218 69.9533 62.7651 70.4013 63.0825 70.98C63.3998 71.5493 63.5585 72.2073 63.5585 72.954ZM61.8925 72.45C61.8831 71.862 61.6731 71.3907 61.2625 71.036C60.8518 70.6813 60.3431 70.504 59.7365 70.504C59.1858 70.504 58.7145 70.6813 58.3225 71.036C57.9305 71.3813 57.6971 71.8527 57.6225 72.45H61.8925ZM68.2338 73.108C68.2338 72.3333 68.3925 71.6473 68.7098 71.05C69.0365 70.4527 69.4752 69.9907 70.0258 69.664C70.5858 69.328 71.2018 69.16 71.8738 69.16C72.4805 69.16 73.0078 69.2813 73.4558 69.524C73.9132 69.7573 74.2772 70.0513 74.5478 70.406V69.286H76.1578V77H74.5478V75.852C74.2772 76.216 73.9085 76.5193 73.4418 76.762C72.9752 77.0047 72.4432 77.126 71.8458 77.126C71.1832 77.126 70.5765 76.958 70.0258 76.622C69.4752 76.2767 69.0365 75.8007 68.7098 75.194C68.3925 74.578 68.2338 73.8827 68.2338 73.108ZM74.5478 73.136C74.5478 72.604 74.4358 72.142 74.2118 71.75C73.9972 71.358 73.7125 71.0593 73.3578 70.854C73.0032 70.6487 72.6205 70.546 72.2098 70.546C71.7992 70.546 71.4165 70.6487 71.0618 70.854C70.7072 71.05 70.4178 71.344 70.1938 71.736C69.9792 72.1187 69.8718 72.576 69.8718 73.108C69.8718 73.64 69.9792 74.1067 70.1938 74.508C70.4178 74.9093 70.7072 75.2173 71.0618 75.432C71.4258 75.6373 71.8085 75.74 72.2098 75.74C72.6205 75.74 73.0032 75.6373 73.3578 75.432C73.7125 75.2267 73.9972 74.928 74.2118 74.536C74.4358 74.1347 74.5478 73.668 74.5478 73.136ZM80.1161 70.588V74.858C80.1161 75.1473 80.1814 75.3573 80.3121 75.488C80.4521 75.6093 80.6854 75.67 81.0121 75.67H81.9921V77H80.7321C80.0134 77 79.4628 76.832 79.0801 76.496C78.6974 76.16 78.5061 75.614 78.5061 74.858V70.588H77.5961V69.286H78.5061V67.368H80.1161V69.286H81.9921V70.588H80.1161ZM85.3251 70.588V74.858C85.3251 75.1473 85.3904 75.3573 85.5211 75.488C85.6611 75.6093 85.8944 75.67 86.2211 75.67H87.2011V77H85.9411C85.2224 77 84.6718 76.832 84.2891 76.496C83.9064 76.16 83.7151 75.614 83.7151 74.858V70.588H82.8051V69.286H83.7151V67.368H85.3251V69.286H87.2011V70.588H85.3251ZM90.2681 70.406C90.5014 70.014 90.8094 69.7107 91.1921 69.496C91.5841 69.272 92.0461 69.16 92.5781 69.16V70.812H92.1721C91.5467 70.812 91.0707 70.9707 90.7441 71.288C90.4267 71.6053 90.2681 72.156 90.2681 72.94V77H88.6721V69.286H90.2681V70.406ZM94.8571 68.264C94.5678 68.264 94.3251 68.166 94.1291 67.97C93.9331 67.774 93.8351 67.5313 93.8351 67.242C93.8351 66.9527 93.9331 66.71 94.1291 66.514C94.3251 66.318 94.5678 66.22 94.8571 66.22C95.1371 66.22 95.3751 66.318 95.5711 66.514C95.7671 66.71 95.8651 66.9527 95.8651 67.242C95.8651 67.5313 95.7671 67.774 95.5711 67.97C95.3751 68.166 95.1371 68.264 94.8571 68.264ZM95.6411 69.286V77H94.0451V69.286H95.6411ZM99.3325 70.434C99.6032 70.0607 99.9719 69.7573 100.439 69.524C100.915 69.2813 101.442 69.16 102.021 69.16C102.702 69.16 103.318 69.3233 103.869 69.65C104.419 69.9767 104.853 70.4433 105.171 71.05C105.488 71.6473 105.647 72.3333 105.647 73.108C105.647 73.8827 105.488 74.578 105.171 75.194C104.853 75.8007 104.415 76.2767 103.855 76.622C103.304 76.958 102.693 77.126 102.021 77.126C101.423 77.126 100.891 77.0093 100.425 76.776C99.9672 76.5427 99.6032 76.244 99.3325 75.88V77H97.7365V66.64H99.3325V70.434ZM104.023 73.108C104.023 72.576 103.911 72.1187 103.687 71.736C103.472 71.344 103.183 71.05 102.819 70.854C102.464 70.6487 102.081 70.546 101.671 70.546C101.269 70.546 100.887 70.6487 100.523 70.854C100.168 71.0593 99.8785 71.358 99.6545 71.75C99.4399 72.142 99.3325 72.604 99.3325 73.136C99.3325 73.668 99.4399 74.1347 99.6545 74.536C99.8785 74.928 100.168 75.2267 100.523 75.432C100.887 75.6373 101.269 75.74 101.671 75.74C102.081 75.74 102.464 75.6373 102.819 75.432C103.183 75.2173 103.472 74.9093 103.687 74.508C103.911 74.1067 104.023 73.64 104.023 73.108ZM114.211 69.286V77H112.615V76.09C112.363 76.4073 112.031 76.6593 111.621 76.846C111.219 77.0233 110.79 77.112 110.333 77.112C109.726 77.112 109.18 76.986 108.695 76.734C108.219 76.482 107.841 76.1087 107.561 75.614C107.29 75.1193 107.155 74.522 107.155 73.822V69.286H108.737V73.584C108.737 74.2747 108.909 74.8067 109.255 75.18C109.6 75.544 110.071 75.726 110.669 75.726C111.266 75.726 111.737 75.544 112.083 75.18C112.437 74.8067 112.615 74.2747 112.615 73.584V69.286H114.211ZM118.179 70.588V74.858C118.179 75.1473 118.244 75.3573 118.375 75.488C118.515 75.6093 118.748 75.67 119.075 75.67H120.055V77H118.795C118.076 77 117.525 76.832 117.143 76.496C116.76 76.16 116.569 75.614 116.569 74.858V70.588H115.659V69.286H116.569V67.368H118.179V69.286H120.055V70.588H118.179ZM128.596 72.954C128.596 73.2433 128.577 73.5047 128.54 73.738H122.646C122.692 74.354 122.921 74.8487 123.332 75.222C123.742 75.5953 124.246 75.782 124.844 75.782C125.702 75.782 126.309 75.4227 126.664 74.704H128.386C128.152 75.4133 127.728 75.9967 127.112 76.454C126.505 76.902 125.749 77.126 124.844 77.126C124.106 77.126 123.444 76.9627 122.856 76.636C122.277 76.3 121.82 75.8333 121.484 75.236C121.157 74.6293 120.994 73.9293 120.994 73.136C120.994 72.3427 121.152 71.6473 121.47 71.05C121.796 70.4433 122.249 69.9767 122.828 69.65C123.416 69.3233 124.088 69.16 124.844 69.16C125.572 69.16 126.22 69.3187 126.79 69.636C127.359 69.9533 127.802 70.4013 128.12 70.98C128.437 71.5493 128.596 72.2073 128.596 72.954ZM126.93 72.45C126.92 71.862 126.71 71.3907 126.3 71.036C125.889 70.6813 125.38 70.504 124.774 70.504C124.223 70.504 123.752 70.6813 123.36 71.036C122.968 71.3813 122.734 71.8527 122.66 72.45H126.93ZM132.966 77.126C132.36 77.126 131.814 77.0187 131.328 76.804C130.852 76.58 130.474 76.2813 130.194 75.908C129.914 75.5253 129.765 75.1007 129.746 74.634H131.398C131.426 74.9607 131.58 75.236 131.86 75.46C132.15 75.6747 132.509 75.782 132.938 75.782C133.386 75.782 133.732 75.698 133.974 75.53C134.226 75.3527 134.352 75.1287 134.352 74.858C134.352 74.5687 134.212 74.354 133.932 74.214C133.662 74.074 133.228 73.92 132.63 73.752C132.052 73.5933 131.58 73.4393 131.216 73.29C130.852 73.1407 130.535 72.912 130.264 72.604C130.003 72.296 129.872 71.89 129.872 71.386C129.872 70.9753 129.994 70.602 130.236 70.266C130.479 69.9207 130.824 69.65 131.272 69.454C131.73 69.258 132.252 69.16 132.84 69.16C133.718 69.16 134.422 69.384 134.954 69.832C135.496 70.2707 135.785 70.8727 135.822 71.638H134.226C134.198 71.2927 134.058 71.0173 133.806 70.812C133.554 70.6067 133.214 70.504 132.784 70.504C132.364 70.504 132.042 70.5833 131.818 70.742C131.594 70.9007 131.482 71.1107 131.482 71.372C131.482 71.5773 131.557 71.75 131.706 71.89C131.856 72.03 132.038 72.142 132.252 72.226C132.467 72.3007 132.784 72.3987 133.204 72.52C133.764 72.6693 134.222 72.8233 134.576 72.982C134.94 73.1313 135.253 73.3553 135.514 73.654C135.776 73.9527 135.911 74.3493 135.92 74.844C135.92 75.2827 135.799 75.6747 135.556 76.02C135.314 76.3653 134.968 76.636 134.52 76.832C134.082 77.028 133.564 77.126 132.966 77.126Z" fill="#C07106"/>
<path d="M259.002 119L249.002 113.226V124.774L259.002 119ZM10 119V120H250.002V119V118H10V119Z" fill="#1D4ED8"/>
<path d="M259.002 97L249.002 91.2265V102.774L259.002 97ZM10 97V98H250.002V97V96H10V97Z" fill="#1D4ED8"/>
<path d="M281.236 115.379L281.244 115.842L281.244 115.842L281.236 115.379ZM279.064 113.504L278.529 113.497V113.497L279.064 113.504ZM279.064 96.2067L275.974 100.788L282.154 100.866L279.064 96.2067ZM301.999 115.379L301.991 114.917L281.228 114.917L281.236 115.379L281.244 115.842L302.007 115.841L301.999 115.379ZM279.064 113.504L279.599 113.511L279.599 100.372L279.064 100.365L278.529 100.358L278.529 113.497L279.064 113.504ZM281.236 115.379L281.228 114.917C280.333 114.917 279.599 114.284 279.599 113.511L279.064 113.504L278.529 113.497C278.529 114.786 279.751 115.842 281.244 115.842L281.236 115.379Z" fill="black"/>
<path d="M279.137 105.194H275.662" stroke="black"/>
<path d="M281.917 105.194L290.794 105.194C292.009 105.194 293.037 106.112 293.037 107.197L293.037 114.181" stroke="black"/>
<line x1="292.842" y1="115.379" x2="292.842" y2="117.776" stroke="black"/>
<path d="M293.037 122.569L297.25 117.177H288.824L293.037 122.569Z" fill="black"/>
<path d="M543 110L533 104.226V115.774L543 110ZM487 110V111H534V110V109H487V110Z" fill="#176DEF"/>
<path fill-rule="evenodd" clip-rule="evenodd" d="M584.167 106.044C583.411 102.211 580.045 99.3333 576 99.3333C572.789 99.3333 570 101.155 568.611 103.822C565.267 104.178 562.667 107.011 562.667 110.444C562.667 114.122 565.656 117.111 569.334 117.111H583.778C586.845 117.111 589.334 114.622 589.334 111.556C589.334 108.622 587.056 106.244 584.167 106.044ZM577.611 108.222H580.445L576 112.667L571.556 108.222H574.389V104.889H577.611V108.222Z" fill="black"/>
</g>
<defs>
<clipPath id="clip0_22_4">
<rect width="800" height="203" fill="white"/>
</clipPath>
</defs>
</svg>
